<?xml version="1.0" standalone="no"?>
<!DOCTYPE svg PUBLIC "-//W3C//DTD SVG 20010904//EN"
 "http://www.w3.org/TR/2001/REC-SVG-20010904/DTD/svg10.dtd">
<svg version="1.0" xmlns="http://www.w3.org/2000/svg"
 width="176.000000pt" height="300.000000pt" viewBox="0 0 176.000000 300.000000"
 preserveAspectRatio="xMidYMid meet">
<metadata>
Created by potrace 1.10, written by Peter Selinger 2001-2011
</metadata>
<g transform="translate(0.000000,300.000000) scale(0.050000,-0.050000)"
fill="#000000" stroke="none">
<path d="M1186 5808 c-258 -175 -512 -475 -568 -672 -14 -47 -34 -95 -44 -106
-13 -13 -15 -10 -5 10 7 17 0 13 -18 -9 -38 -47 -40 -91 -4 -91 15 0 107 73
205 163 373 342 627 337 429 -8 -61 -106 -80 -95 -39 23 38 108 5 91 -60 -32
-78 -145 -213 -317 -196 -250 9 38 6 42 -17 23 -16 -13 -25 -29 -21 -36 9 -15
-108 -259 -195 -408 -58 -98 -55 -145 9 -129 46 12 47 6 7 -55 -25 -38 -28
-63 -11 -123 26 -93 19 -104 -57 -92 -42 6 -62 0 -64 -19 -2 -15 -7 -58 -10
-97 -3 -38 -12 -111 -18 -162 -12 -90 -11 -93 82 -175 93 -82 85 -115 -12 -50
-36 24 -30 12 23 -45 114 -124 89 -348 -38 -348 -24 0 -24 6 -4 30 14 17 20
37 13 44 -63 63 -188 -322 -127 -390 32 -34 31 -43 -10 -140 -38 -90 -41 -113
-20 -170 13 -37 24 -83 24 -103 0 -26 11 -33 40 -25 61 16 49 -6 -55 -99 -62
-55 -83 -86 -62 -86 36 -1 136 85 173 149 18 31 27 34 41 14 17 -27 283 216
283 258 0 10 11 37 25 59 20 32 20 43 -1 57 -21 12 -14 30 27 80 47 56 50 68
26 98 -101 121 -99 217 3 208 91 -7 99 -20 42 -67 l-48 -39 70 8 c89 10 116
27 116 75 0 76 -189 131 -239 70 -13 -16 -57 -40 -98 -53 -40 -13 -113 -47
-162 -75 l-90 -52 59 74 c54 68 185 135 263 135 35 0 133 95 107 103 -38 13
35 157 79 157 39 0 52 -37 66 -190 3 -38 21 -67 50 -81 25 -13 63 -39 84 -58
39 -35 42 -34 134 61 103 108 99 91 -17 -67 -98 -134 -154 -171 -229 -153 -51
13 -54 11 -30 -19 45 -54 128 -41 197 32 66 70 306 428 306 457 0 35 -16 17
-49 -54 -19 -39 -39 -67 -44 -62 -6 6 14 62 42 125 67 146 54 159 -29 29 -92
-143 -98 -109 -10 48 103 185 76 164 -49 -37 -58 -93 -124 -185 -147 -205 -48
-42 -39 -24 66 134 109 162 128 202 91 188 -16 -7 -28 -19 -25 -28 6 -23 -207
-326 -221 -312 -6 6 4 29 24 51 27 30 32 57 21 121 -14 80 -13 82 40 76 37 -4
63 7 82 36 l29 42 -136 -25 c-334 -63 -575 -36 -575 65 0 13 -19 39 -43 60
-41 36 -107 168 -107 213 1 13 15 -6 33 -42 66 -134 238 -229 387 -216 217 19
300 50 276 102 -15 33 -8 66 32 146 29 56 65 172 80 258 19 102 29 131 30 85
6 -186 62 -219 62 -35 -1 80 -18 174 -49 262 -46 131 -47 135 -8 100 62 -56
172 -291 122 -260 -11 7 -24 -37 -30 -104 -7 -75 -28 -145 -60 -195 -27 -43
-60 -114 -75 -158 -14 -44 -35 -93 -48 -108 -22 -29 29 -26 138 8 22 6 -14
-16 -80 -50 -66 -35 -160 -75 -210 -89 l-90 -26 103 3 c57 1 93 9 80 18 -13 8
4 10 37 3 48 -10 54 -8 30 11 -25 18 -22 20 15 10 56 -16 186 28 221 75 15 20
35 30 46 24 10 -7 17 -5 14 5 -2 9 10 43 28 76 113 213 254 594 242 655 -13
63 -14 61 -38 -45 -46 -200 -263 -660 -312 -660 -13 0 -10 14 9 35 34 38 148
320 212 525 44 141 81 408 89 630 l4 140 25 -131 c34 -182 51 -401 27 -349
-25 52 -27 -8 -4 -90 17 -60 20 -48 82 318 37 218 73 337 52 171 -6 -43 -16
-137 -22 -209 -7 -71 -31 -209 -53 -306 -51 -221 -36 -250 20 -40 28 105 38
127 30 66 -20 -157 -160 -551 -276 -780 l-112 -221 40 -43 c53 -56 52 -105 -3
-160 -24 -24 -44 -58 -46 -77 -1 -19 -41 -78 -89 -132 -117 -131 -261 -428
-261 -538 0 -74 136 -196 165 -147 53 90 55 99 25 108 -16 6 -44 14 -60 19
-48 15 -35 69 43 174 52 72 81 96 105 86 17 -7 49 -16 70 -20 60 -12 60 -18
-35 -202 -154 -304 -215 -634 -133 -728 47 -53 47 -47 8 81 -7 22 -3 40 8 40
20 0 31 -35 56 -169 13 -74 42 -111 87 -111 19 0 44 -21 56 -48 41 -89 126
-132 200 -101 77 32 86 68 15 54 -132 -25 -193 87 -193 354 1 173 -33 236 -38
71 -1 -33 -9 -78 -18 -100 -30 -72 -48 19 -24 125 11 52 26 129 33 171 7 42
17 92 23 110 5 19 -5 12 -22 -16 l-33 -50 14 50 c21 78 96 218 196 369 126
187 102 188 -46 1 -120 -151 -122 -152 -113 -80 14 104 109 259 259 419 72 77
128 142 124 145 -3 4 -53 -44 -111 -105 -122 -129 -152 -134 -54 -10 97 123
442 376 384 282 -18 -29 -10 -27 101 22 65 29 99 35 104 20 4 -13 17 -17 29
-10 13 8 15 4 7 -10 -8 -13 -22 -19 -31 -13 -19 11 -48 -50 -31 -67 6 -6 39
17 73 51 116 115 23 161 -148 73 -31 -16 -55 -19 -55 -8 0 19 179 81 234 81
14 0 26 10 26 21 0 14 -31 17 -90 8 -110 -16 -113 0 -29 125 70 104 66 119
-23 88 -145 -50 -164 24 -38 148 78 76 116 149 43 83 -81 -74 -59 -25 46 102
61 74 108 145 103 158 -6 13 27 99 71 191 45 91 93 220 107 286 15 66 28 98
29 70 l2 -50 29 50 c37 65 37 104 -1 151 -30 37 -31 36 -24 -26 l8 -66 -52 51
c-72 68 -107 63 -186 -29 -53 -63 -66 -93 -60 -145 5 -42 -10 -99 -39 -158
-51 -98 -43 -135 50 -227 22 -22 29 -44 18 -58 -195 -258 -304 -318 -304 -168
0 52 -43 195 -58 195 -7 0 -26 -34 -43 -75 -33 -77 -251 -282 -226 -212 24 65
89 148 108 136 10 -6 14 2 7 18 -6 16 -1 35 11 42 11 7 21 2 21 -11 0 -14 27
10 59 53 33 44 60 94 60 113 1 41 61 62 130 45 51 -13 120 21 102 50 -5 7 4
49 19 92 16 44 29 112 29 153 1 40 10 79 21 86 31 19 25 36 -39 106 -68 74
-92 79 -121 24 -17 -31 -15 -37 9 -28 53 21 73 -11 38 -63 -17 -27 -23 -49
-11 -49 11 0 25 14 32 31 15 40 52 18 52 -31 0 -57 -122 -86 -200 -47 -33 16
-60 38 -60 49 0 10 -22 29 -49 41 -47 22 -48 27 -55 319 -11 508 -171 533
-462 74 -52 -83 -40 -94 23 -22 314 356 318 356 338 18 12 -212 -13 -252 -73
-118 -43 97 -116 127 -164 68 -39 -47 -53 -113 -20 -93 10 6 22 0 27 -14 7
-20 15 -20 39 0 36 30 55 15 42 -33 -8 -32 -20 -34 -98 -17 -133 28 -226 -41
-99 -73 59 -15 82 -105 64 -254 -15 -130 -51 -197 -53 -98 -1 71 -23 127 -48
120 -23 -7 -132 44 -132 61 0 35 53 31 95 -7 l45 -41 -1 79 c-1 117 -80 200
-108 113 -29 -94 -126 -166 -205 -154 -85 14 -270 -52 -261 -93 3 -13 -8 -28
-23 -33 -18 -7 -22 -2 -12 16 12 19 5 22 -27 14 -74 -19 -47 13 66 81 60 36
157 75 215 86 119 24 171 80 217 233 13 45 60 129 104 186 132 175 110 359
-44 359 -78 0 -78 -25 -1 -54 61 -23 82 -106 48 -195 -16 -41 -88 14 -88 68 0
46 -57 121 -92 121 -17 0 -25 -9 -19 -19 8 -12 -25 -15 -86 -8 -123 15 -222
-16 -362 -115 -138 -97 -145 -88 -42 58 90 129 276 301 425 395 52 32 95 66
95 74 2 36 -66 9 -193 -77z m174 -486 c0 -90 -73 -238 -139 -280 l-48 -32 55
94 c33 57 59 137 66 203 13 129 66 141 66 15z m50 -155 c-43 -66 -52 -53 -30
44 45 202 48 208 56 102 4 -65 -4 -113 -26 -146z m-21 -109 c-33 -34 -135
-116 -229 -182 -93 -66 -212 -161 -263 -210 -51 -50 -98 -81 -105 -70 -11 18
34 66 310 326 43 40 81 69 85 64 4 -4 61 24 126 63 143 87 150 87 76 9z m-81
-147 c-6 -16 -34 -44 -62 -62 -35 -23 -46 -25 -35 -6 45 78 121 132 97 68z
m412 -27 c1 -29 3 -30 20 -4 25 39 26 -29 1 -90 -15 -36 -18 -34 -31 20 -7 33
-18 77 -24 98 -7 24 -2 32 12 23 12 -7 22 -29 22 -47z m61 -233 c-24 -185
-106 -445 -192 -611 -31 -60 -55 -117 -53 -126 3 -10 -4 -12 -14 -5 -11 6 -29
-4 -41 -24 -40 -66 2 79 52 179 26 52 47 111 47 130 0 20 45 166 100 326 55
159 101 308 102 330 2 35 4 36 12 4 5 -20 -1 -111 -13 -203z m868 -100 c-21
-44 -48 -71 -71 -71 -36 0 -36 2 2 65 22 36 40 88 40 116 0 28 11 62 25 76 40
41 43 -103 4 -186z m-549 124 c1 -36 4 -39 20 -15 16 25 19 24 20 -6 0 -20 9
-31 19 -24 32 19 48 -88 23 -145 l-24 -51 -30 43 c-17 24 -38 39 -47 33 -17
-10 -41 167 -26 195 16 32 45 13 45 -30z m491 -30 c-20 -109 -51 -129 -51 -32
0 81 11 107 46 107 11 0 13 -32 5 -75z m-1271 18 c0 -9 -11 -16 -25 -16 -47 0
-236 -106 -361 -201 -179 -138 -197 -162 -184 -253 6 -44 2 -89 -11 -104 -57
-69 146 -298 296 -334 113 -26 139 -55 50 -55 -165 2 -387 198 -385 341 1 144
11 205 45 269 45 84 195 259 222 260 13 0 54 17 93 38 116 63 260 94 260 55z
m1072 -90 c-13 -70 -72 -145 -72 -92 0 16 -17 10 -46 -18 -78 -72 -92 -51 -48
68 36 99 46 110 86 100 25 -6 52 -2 59 10 23 38 34 3 21 -68z m-859 -79 c41
-79 22 -116 -22 -44 -20 33 -53 84 -74 114 -20 30 -37 61 -37 69 0 26 103 -82
133 -139z m-266 53 c-35 -57 -35 -57 5 -22 57 49 60 46 86 -55 50 -199 -213
-562 -408 -565 -107 -2 -103 9 38 103 157 104 382 410 336 456 -14 14 -30 3
-50 -37 -45 -86 -352 -367 -402 -367 -29 0 -9 58 23 69 20 6 94 71 165 145
l130 133 -124 -105 c-86 -72 -147 -108 -197 -114 l-71 -9 36 49 c20 26 65 68
101 92 35 25 60 52 55 60 -12 19 71 126 86 111 6 -6 -10 -34 -36 -61 -94 -100
-10 -47 114 72 132 127 176 144 113 45z m-524 -111 c-23 -72 -35 -91 -39 -62
-6 38 44 166 65 166 4 0 -8 -47 -26 -104z m1410 -381 c-21 -84 -373 -467 -373
-405 0 6 38 58 85 115 47 58 125 166 174 240 87 132 141 156 114 50z m107
-178 c-71 -67 -157 -135 -190 -151 -63 -31 80 105 229 218 115 88 100 63 -39
-67z m-55 33 c-31 -56 -207 -156 -183 -104 11 24 49 64 84 88 76 52 124 60 99
16z m-1275 -216 c11 -10 0 -9 -24 4 -24 12 -61 22 -83 22 -45 0 -139 105 -104
116 12 4 15 18 7 31 -11 19 126 -97 204 -173z m607 149 c-29 -47 -97 -90 -114
-73 -13 14 94 110 122 110 9 0 5 -17 -8 -37z m712 -94 c-22 -16 -93 -67 -159
-113 -66 -45 -178 -128 -248 -183 -93 -74 -121 -88 -103 -54 51 95 319 309
463 369 79 33 101 24 47 -19z m79 -122 c16 -40 37 -21 -182 -152 -208 -125
-361 -248 -440 -353 -35 -48 -7 -28 85 60 135 128 255 209 285 191 8 -5 55 12
104 38 50 26 83 48 74 48 -9 1 -43 -13 -75 -30 -32 -16 -59 -26 -59 -20 0 22
93 57 166 64 109 9 75 -26 -131 -132 -212 -110 -538 -341 -659 -466 l-93 -97
51 106 c53 110 171 265 275 362 34 31 48 50 33 42 -61 -31 4 34 94 95 52 34
108 79 124 100 77 94 328 198 348 144z m-1112 -326 c-14 -23 -32 -41 -41 -41
-24 0 -17 90 9 116 37 37 64 -25 32 -75z m-359 37 c-40 -26 -91 -22 -103 8 -7
19 9 23 60 17 49 -5 62 -13 43 -25z m-70 -308 c11 -27 -219 -204 -239 -185
-16 16 97 156 147 184 70 37 78 38 92 1z m-34 -106 c-6 -9 20 -12 56 -8 65 8
62 3 -116 -182 -101 -105 -186 -187 -189 -184 -13 12 77 188 130 253 41 50 43
57 10 29 -24 -21 -49 -34 -55 -28 -12 13 131 136 157 136 9 0 12 -7 7 -16z
m36 -242 c11 -18 -148 -162 -178 -162 -23 0 47 104 97 145 48 39 65 43 81 17z
m11 -98 c0 -26 -46 -64 -77 -64 -23 0 -22 8 7 40 37 41 70 52 70 24z"/>
<path d="M2900 4837 c0 -91 -36 -228 -55 -209 -5 6 -49 -67 -96 -161 -47 -94
-107 -193 -132 -220 -34 -37 -37 -46 -12 -36 27 10 35 3 35 -31 0 -27 15 -48
40 -54 22 -6 40 -21 40 -35 0 -35 -110 -134 -130 -116 -9 8 -10 4 -2 -10 8
-14 0 -45 -17 -69 -17 -25 -31 -63 -30 -85 1 -33 8 -28 35 22 37 69 177 227
200 227 87 -2 73 -159 -17 -180 -54 -13 -95 -83 -113 -191 -15 -92 13 -89 124
13 97 90 165 96 138 13 -7 -25 -15 -89 -17 -143 -3 -111 -90 -212 -181 -212
-53 0 -76 -78 -25 -82 114 -11 201 31 282 135 l69 89 13 -58 c7 -33 1 -92 -16
-136 -15 -43 -39 -107 -53 -143 -33 -89 5 -145 62 -93 75 67 138 222 138 338
0 153 100 136 132 -23 13 -68 82 -125 99 -82 24 63 -27 216 -97 290 -75 79
-86 80 -103 12 -10 -39 -19 -47 -36 -30 -16 16 -13 33 14 62 31 35 33 45 9 73
-15 19 -37 102 -48 186 l-21 152 105 100 c168 160 154 262 -25 187 -56 -23
-56 -25 -14 -32 59 -10 57 -33 -6 -74 -48 -31 -56 -31 -100 -2 -46 30 -73 88
-29 61 11 -7 20 0 20 14 0 15 23 60 50 100 78 115 64 149 -55 139 -43 -3 -44
15 -4 72 44 64 8 183 -56 185 -8 0 -15 -13 -15 -30 0 -16 10 -30 23 -30 87 0
-31 -294 -156 -389 -99 -76 -175 -99 -125 -38 15 18 28 42 29 55 3 49 37 96
82 113 35 14 47 33 47 80 0 34 10 80 22 102 29 55 30 213 1 242 -17 17 -23 1
-23 -68z m183 -432 c-67 -94 -153 -165 -223 -185 -95 -27 -98 -10 -7 37 42 22
113 76 157 120 93 93 130 108 73 28z m-63 -179 c0 -32 -131 -146 -168 -146
-34 0 -28 13 38 80 71 72 130 102 130 66z m107 -130 c-48 -51 -191 -156 -212
-156 -51 0 12 86 112 151 139 92 184 94 100 5z m-47 -174 c0 -23 -51 -42 -114
-42 -43 0 -47 5 -26 30 27 32 140 42 140 12z m33 -97 c19 -14 26 -25 16 -25
-11 0 -31 -19 -45 -41 -24 -38 -23 -40 15 -19 36 19 41 16 41 -28 0 -71 -27
-78 -81 -21 -25 27 -38 49 -27 50 51 1 -69 59 -125 59 -65 0 -98 22 -72 48 22
23 240 5 278 -23z"/>
<path d="M154 3258 c-117 -68 -167 -274 -95 -392 63 -103 232 -115 313 -23 42
47 45 47 -106 5 -68 -19 -146 70 -146 168 0 126 131 248 166 156 16 -42 -34
-101 -73 -86 -18 7 -33 5 -33 -5 0 -31 80 -46 111 -20 103 86 -21 265 -137
197z"/>
<path d="M2131 3229 l-56 -44 58 9 c49 9 35 -10 -108 -144 -91 -84 -176 -173
-189 -197 -12 -23 40 15 116 84 164 150 235 192 282 166 29 -16 24 -25 -32
-59 -104 -63 -306 -326 -275 -357 10 -10 -16 -80 -91 -245 -91 -200 -152 -718
-92 -778 66 -66 309 32 385 155 8 12 22 21 32 21 23 0 2 -58 -45 -118 -20 -26
-31 -53 -25 -60 18 -18 97 99 105 155 3 28 14 64 22 81 34 67 67 311 57 423
l-11 118 47 -35 c91 -66 99 -125 41 -297 -28 -85 -47 -158 -42 -163 11 -11 39
58 100 246 29 88 47 121 48 89 2 -46 -32 -192 -67 -289 -24 -66 47 25 81 105
34 77 77 91 48 15 -63 -165 -200 -328 -372 -442 -56 -38 -142 -113 -190 -168
-49 -55 -137 -152 -198 -215 -118 -124 -197 -262 -209 -369 -5 -36 -14 -102
-21 -146 -14 -83 -1 -106 106 -193 157 -129 448 -94 525 63 8 17 37 75 64 130
98 195 74 349 -57 382 -124 31 -207 -51 -208 -207 0 -159 179 -171 209 -15 18
100 2 109 -40 22 -50 -107 -154 -63 -119 49 47 146 230 99 230 -59 0 -68 -153
-259 -210 -262 -11 0 -42 -18 -70 -40 l-50 -39 70 -1 c53 0 63 -5 40 -20 -39
-26 -140 -26 -140 0 0 11 -17 20 -38 20 -20 0 -48 14 -62 30 -36 44 -48 22
-18 -33 21 -40 20 -44 -4 -23 -36 29 -48 295 -19 404 24 87 276 349 391 404
108 53 244 161 269 214 27 59 27 70 -4 52 -14 -8 -10 2 8 24 102 119 189 389
172 536 -16 140 -110 269 -182 250 -33 -9 -77 -6 -104 6 -62 29 -102 -3 -129
-104 -23 -86 -134 -260 -180 -281 -16 -8 -61 -28 -100 -45 -38 -17 -55 -32
-36 -33 18 0 39 8 46 19 36 58 47 9 12 -51 -67 -113 -48 -108 71 21 74 80 96
97 65 50 -76 -118 -193 -209 -228 -180 -70 58 2 560 80 560 137 0 659 210 737
296 49 55 173 285 173 321 0 175 -275 222 -361 61 -32 -60 -6 -72 47 -21 77
72 194 61 194 -19 0 -106 -121 -297 -200 -314 -17 -4 -48 -23 -70 -43 -98 -86
-89 -55 11 42 62 59 93 92 70 74 -153 -122 -530 -305 -562 -273 -22 23 80 175
133 197 130 54 356 346 295 380 -19 11 -65 49 -102 86 l-69 66 -55 -44z m-103
-1320 c-86 -126 -104 -141 -129 -116 -17 17 181 251 199 235 4 -4 -27 -57 -70
-119z m130 51 c-25 -43 -71 -104 -103 -135 -53 -49 -50 -41 25 80 90 144 153
189 78 55z m-319 -192 c34 -50 51 -88 37 -83 -44 14 -142 175 -107 175 4 0 36
-41 70 -92z m561 -4 c0 -41 -198 -203 -365 -299 -162 -94 -56 11 245 243 93
71 120 84 120 56z m-563 -542 c-157 -170 -174 -181 -128 -90 35 70 222 243
268 247 3 1 -60 -70 -140 -157z"/>
<path d="M1069 2559 c-9 -16 -47 -20 -112 -12 -70 8 -97 4 -97 -14 0 -31 -223
-253 -255 -253 -52 0 -98 -179 -63 -244 30 -57 58 -11 44 73 -7 43 0 71 23 90
38 32 51 22 59 -42 8 -69 35 -124 76 -153 41 -30 28 -73 -16 -56 -15 6 -28 3
-28 -7 0 -10 -5 -32 -12 -49 -16 -42 28 -42 74 0 25 22 45 26 69 13 31 -17 29
-23 -13 -52 -44 -31 -44 -33 -6 -33 22 0 50 10 62 22 16 16 42 16 96 -2 84
-28 168 24 143 88 -16 42 -72 41 -107 -3 -25 -32 -26 -31 -6 10 14 30 15 45 1
45 -12 0 -21 9 -21 20 0 11 17 20 38 20 49 0 98 56 59 68 -15 4 -44 14 -65 21
-30 9 -33 6 -15 -15 17 -21 15 -27 -10 -27 -18 0 -37 16 -42 36 -5 21 -18 37
-27 37 -10 0 -18 26 -18 57 0 80 -17 88 -84 40 -43 -30 -65 -36 -81 -20 -16
16 -11 25 17 34 90 31 168 72 168 90 0 42 124 97 174 77 32 -12 63 -10 91 4
l42 23 -47 35 c-26 20 -58 51 -72 69 -17 24 -28 27 -39 10z m-174 -135 c-13
-35 -35 -64 -49 -64 -37 0 -32 27 16 88 53 67 65 59 33 -24z m-35 -249 c0 -29
-78 -84 -95 -67 -13 14 53 92 78 92 9 0 17 -11 17 -25z"/>
</g>
</svg>
