<?xml version="1.0" standalone="no"?>
<!DOCTYPE svg PUBLIC "-//W3C//DTD SVG 20010904//EN"
 "http://www.w3.org/TR/2001/REC-SVG-20010904/DTD/svg10.dtd">
<svg version="1.0" xmlns="http://www.w3.org/2000/svg"
 width="300.000000pt" height="278.000000pt" viewBox="0 0 300.000000 278.000000"
 preserveAspectRatio="xMidYMid meet">
<metadata>
Created by potrace 1.10, written by Peter Selinger 2001-2011
</metadata>
<g transform="translate(0.000000,278.000000) scale(0.050000,-0.050000)"
fill="#000000" stroke="none">
<path d="M2568 5325 c-17 -27 -15 -40 10 -58 28 -21 25 -26 -23 -38 -30 -7
-55 -22 -55 -33 0 -11 14 -15 30 -9 17 7 30 4 30 -6 0 -10 -11 -22 -25 -28
-20 -8 -20 -10 0 -11 14 -1 25 -12 25 -23 0 -32 -85 0 -115 42 -51 73 -171
-21 -202 -156 -17 -78 -16 -83 18 -65 25 14 38 12 44 -5 6 -18 18 -15 42 9 26
26 29 44 13 86 -28 74 -26 84 22 80 46 -3 82 -48 63 -79 -16 -25 -26 -80 -31
-161 -2 -33 -17 -71 -34 -84 -47 -38 -70 -30 -33 11 36 39 26 64 -25 62 -24
-1 -21 -6 8 -19 39 -17 39 -17 -3 -19 -24 0 -58 -7 -76 -13 -23 -9 -28 -4 -19
20 7 17 19 27 28 22 12 -8 40 32 40 58 0 3 -27 1 -60 -4 -34 -5 -60 -21 -60
-36 0 -16 -9 -28 -20 -28 -11 0 -20 -9 -20 -21 0 -11 12 -18 26 -15 26 6 154
-89 154 -114 0 -7 -8 -7 -18 -1 -10 6 -23 0 -28 -14 -5 -14 -19 -1 -31 30 -25
63 -53 75 -37 15 8 -33 2 -38 -33 -30 -24 6 -55 2 -71 -8 -32 -20 -13 -62 29
-62 16 0 23 -12 16 -30 -8 -21 2 -30 31 -30 55 0 53 -16 -9 -64 -28 -22 -47
-45 -41 -51 13 -13 -39 -65 -67 -65 -11 0 -21 -10 -21 -21 0 -12 -11 -15 -25
-7 -19 10 -19 8 -3 -10 14 -15 17 -50 9 -88 -8 -35 -6 -89 5 -119 13 -42 10
-68 -14 -105 -45 -68 -39 -90 8 -30 22 28 39 40 40 28 0 -28 -70 -92 -85 -76
-7 6 -28 -14 -47 -45 -20 -31 -86 -106 -147 -167 -61 -60 -108 -121 -105 -133
3 -13 -4 -30 -15 -37 -12 -7 -16 2 -9 24 16 49 -63 -45 -104 -124 l-31 -60 65
68 c38 40 69 58 74 45 9 -29 -137 -225 -158 -212 -9 6 -26 -8 -37 -30 -12 -22
-40 -50 -63 -62 -52 -28 -26 29 40 89 47 43 58 90 12 52 -17 -14 -30 -16 -30
-5 0 11 13 31 30 45 16 13 24 33 18 44 -7 11 18 46 55 79 l67 60 -74 -53 c-41
-30 -80 -70 -86 -89 -6 -20 -29 -52 -51 -71 -44 -41 -55 -88 -11 -52 21 18 21
8 -4 -47 -31 -67 -33 -69 -70 -36 -21 19 -58 32 -81 28 -35 -5 -38 -2 -18 19
14 14 25 34 25 43 0 10 -15 3 -32 -15 -18 -17 -28 -37 -23 -42 6 -6 -36 -53
-92 -104 -57 -52 -111 -106 -120 -120 -9 -15 -42 -42 -73 -61 -38 -23 -52 -44
-42 -60 12 -19 32 -12 78 27 34 29 69 50 78 48 9 -2 26 16 39 41 55 109 244
265 217 180 -9 -28 -7 -39 6 -31 12 7 27 3 34 -8 7 -11 21 -15 31 -9 11 6 19
-14 19 -45 -1 -39 -6 -48 -18 -29 -12 19 -21 21 -31 5 -7 -12 -8 -30 -2 -41 6
-10 3 -24 -9 -31 -11 -7 -20 -21 -20 -32 0 -11 9 -15 20 -8 12 7 17 -6 13 -32
-11 -73 -66 -65 -61 9 3 35 -5 74 -16 88 -11 13 -15 38 -9 55 7 16 4 30 -5 30
-23 0 -42 -77 -23 -90 41 -25 13 -112 -54 -165 -111 -87 -158 -130 -125 -114
17 8 44 27 60 40 17 14 43 29 60 32 16 4 41 21 54 37 18 21 25 23 25 5 1 -26
-168 -143 -306 -212 -49 -25 -68 -44 -52 -53 37 -23 -24 -38 -66 -17 -23 12
-35 11 -35 -4 0 -34 -84 -2 -132 50 -53 58 -78 275 -49 426 11 57 15 118 8
135 -17 44 -66 37 -57 -9 8 -44 -50 -245 -77 -264 -11 -7 -14 -32 -8 -56 7
-23 4 -69 -5 -102 -46 -159 -31 -325 32 -360 101 -56 303 -13 335 71 7 18 24
30 38 29 53 -7 77 2 63 24 -9 15 -5 18 10 8 14 -8 40 -1 58 16 19 16 41 29 49
27 18 -5 242 175 302 241 32 36 45 40 70 20 25 -21 28 -17 17 27 -14 54 92
198 145 198 11 0 21 11 21 24 0 14 18 43 41 65 22 23 116 149 208 281 93 132
191 263 219 290 27 28 56 77 64 110 23 98 88 237 134 289 28 31 31 40 8 22
-40 -31 -16 58 32 117 19 22 19 30 0 37 -16 5 -4 26 30 57 33 29 41 43 19 36
-22 -8 -35 -2 -36 15 0 18 -7 15 -21 -8 -27 -47 -58 -44 -58 4 0 50 17 59 124
70 100 10 176 -21 102 -41 -37 -10 -41 -20 -25 -60 11 -30 11 -48 -1 -48 -11
0 -20 -8 -20 -18 0 -32 57 -12 110 38 55 51 64 91 25 106 -17 6 -12 22 19 51
30 29 46 34 53 17 6 -16 10 -14 11 6 3 73 -31 81 -85 20 -51 -58 -93 -78 -93
-44 0 9 10 26 22 38 12 12 16 33 8 45 -10 16 -21 13 -39 -11 -17 -24 -29 -27
-39 -11 -8 13 -5 23 7 23 11 0 21 9 21 20 0 11 -12 20 -27 20 -18 0 -24 16
-18 48 6 34 22 47 58 47 26 0 64 13 83 30 19 16 45 26 59 21 14 -5 25 0 25 12
0 12 -9 22 -20 22 -11 0 -2 18 20 40 47 47 66 49 120 15 38 -24 38 -25 -5 -49
-32 -17 -36 -25 -13 -25 17 -1 52 22 78 49 31 33 38 50 19 50 -21 0 -22 5 -3
24 71 71 18 86 -191 53 -13 -2 -36 -29 -50 -60 -24 -56 -70 -89 -92 -67 -6 7
1 32 16 56 81 131 87 146 33 84 l-53 -60 29 70 c16 39 41 70 55 70 41 0 79 56
50 75 -14 9 -8 15 17 15 29 0 33 5 14 17 -22 14 -21 23 4 48 24 24 25 34 7 42
-14 6 -10 11 11 11 20 1 31 11 23 23 -8 14 -23 12 -44 -5 -26 -22 -30 -21 -22
4 6 17 34 31 64 32 80 3 90 28 11 28 -43 0 -76 -13 -90 -35z m-872 -1923 c-14
-23 -37 -38 -50 -33 -15 6 -19 -3 -12 -23 9 -22 5 -28 -11 -18 -34 21 -29 79
7 65 17 -7 38 5 51 29 12 23 27 37 32 32 5 -6 -2 -29 -17 -52z m-169 -145
c-17 -19 -26 -43 -20 -53 11 -18 -26 -65 -100 -125 -78 -63 -94 -65 -51 -5 24
34 44 68 44 76 0 8 23 32 51 55 28 22 47 50 42 63 -4 13 8 23 28 23 34 0 35
-3 6 -34z"/>
<path d="M2693 5307 c-20 -21 -15 -51 7 -37 11 7 15 -1 9 -16 -13 -33 43 -61
78 -40 13 7 11 -1 -4 -20 -15 -18 -36 -28 -47 -22 -10 7 -7 -7 7 -30 33 -53
51 -53 67 -2 11 35 17 36 41 11 36 -35 37 -64 4 -79 -14 -6 -2 -7 25 -1 l50
12 -47 -39 c-32 -25 -44 -50 -36 -76 7 -21 -1 -64 -17 -95 -16 -31 -25 -65
-18 -76 6 -10 4 -17 -6 -15 -41 7 -66 -4 -66 -30 0 -16 -23 -45 -51 -66 -37
-27 -55 -62 -63 -123 -7 -48 -25 -91 -41 -98 -23 -8 -23 -14 -2 -27 20 -12 15
-28 -22 -67 l-48 -51 58 0 c55 0 56 -2 23 -35 -24 -24 -40 -28 -50 -13 -32 50
-149 -28 -140 -93 5 -32 2 -59 -6 -59 -23 0 -117 -208 -99 -220 9 -5 11 -39 6
-76 -8 -53 -15 -61 -37 -42 -22 18 -28 16 -28 -7 0 -17 -13 -74 -28 -128 -16
-53 -40 -151 -54 -217 -13 -66 -37 -146 -53 -177 -15 -31 -22 -62 -15 -69 16
-16 51 39 38 60 -6 9 -3 16 7 16 20 0 51 85 87 240 14 61 29 97 32 80 4 -16
-10 -95 -31 -174 -21 -79 -31 -147 -23 -150 26 -11 -114 -588 -171 -704 -33
-65 -39 -118 -9 -72 11 17 20 20 20 7 0 -40 -23 -87 -39 -78 -8 5 -14 -3 -14
-17 0 -139 -324 -444 -432 -407 -14 5 -58 -9 -99 -30 -111 -57 -473 -99 -581
-67 -37 11 -55 9 -55 -6 0 -12 20 -23 45 -23 25 -1 63 -9 85 -18 25 -10 -16
-15 -105 -12 -160 4 -191 18 -134 59 35 26 33 27 -17 21 -30 -3 -54 3 -54 13
0 10 -16 18 -36 18 -20 0 -45 9 -56 20 -12 12 -42 25 -67 30 -62 12 -121 67
-108 102 6 15 21 22 33 14 12 -7 -27 76 -85 186 -99 184 -121 251 -128 393 -2
30 -10 55 -18 55 -8 0 -13 11 -10 25 3 13 -15 27 -40 31 -52 8 -66 -120 -21
-202 13 -24 34 -139 48 -256 59 -516 274 -690 949 -768 90 -10 117 -6 139 19
19 23 31 26 41 10 10 -17 41 -11 109 19 52 23 114 42 138 42 23 0 90 32 148
71 58 39 113 66 122 60 20 -12 162 137 162 170 0 20 70 132 99 159 30 27 104
203 131 310 17 66 39 138 49 160 10 22 29 116 41 210 13 93 32 185 42 205 13
24 12 35 -3 35 -13 0 -4 29 20 68 23 37 40 84 38 105 -9 100 4 177 24 147 17
-25 20 -23 16 10 -3 22 11 65 31 95 20 30 31 69 24 87 -7 18 -5 43 5 56 18 22
46 239 49 377 2 48 8 66 20 50 10 -15 13 2 5 45 -6 39 -20 73 -29 76 -10 3
-13 24 -7 45 9 37 12 37 35 6 13 -19 20 -50 15 -70 -5 -21 0 -37 13 -37 12 0
22 9 22 20 0 11 8 20 18 20 10 0 13 -19 7 -43 -9 -33 -4 -40 17 -29 15 8 12 2
-7 -14 -19 -16 -35 -41 -35 -56 1 -22 4 -22 20 2 14 22 19 23 20 4 0 -15 8
-21 18 -15 23 14 44 -41 29 -79 -6 -16 -1 -30 11 -30 12 0 22 10 22 21 0 12 9
16 19 10 11 -7 14 -26 8 -42 -6 -16 4 -62 23 -102 26 -55 29 -82 13 -114 -34
-68 -38 -311 -6 -331 20 -13 21 -19 3 -25 -29 -10 -30 -178 -1 -277 12 -38 21
-97 22 -130 0 -57 2 -58 30 -21 17 23 29 28 29 13 0 -15 23 -44 50 -66 28 -21
50 -56 50 -76 0 -20 12 -49 27 -64 14 -14 33 -51 40 -82 8 -31 23 -50 35 -43
13 8 17 -24 10 -94 -5 -59 -5 -96 1 -82 22 52 47 22 47 -56 0 -66 6 -80 35
-75 28 5 36 -11 41 -79 7 -96 0 -101 -61 -45 -49 46 -75 51 -75 14 0 -37 60
-116 79 -105 20 13 81 -76 81 -118 0 -70 -69 -13 -130 109 -35 68 -36 68 -53
23 -22 -59 20 -153 68 -153 18 0 45 -13 59 -28 21 -22 21 -25 -4 -17 -50 16
-98 -20 -86 -65 12 -45 46 -52 82 -16 19 19 30 18 49 -1 20 -20 18 -23 -8 -13
-18 7 -38 4 -45 -7 -18 -29 7 -80 45 -90 25 -6 23 -9 -8 -11 -23 -1 -50 7 -62
19 -11 11 -36 14 -55 7 -28 -11 -30 -17 -9 -30 19 -12 10 -17 -28 -18 -57 0
-82 68 -32 84 38 13 33 83 -10 126 -39 40 -39 40 -27 -8 7 -28 0 -59 -17 -76
-25 -25 -29 -24 -30 8 -2 32 -3 32 -18 -4 -9 -22 -9 -49 0 -60 8 -11 12 -49 8
-84 -8 -63 68 -86 88 -26 3 11 33 20 66 20 36 0 54 -8 46 -21 -7 -11 -32 -15
-56 -9 -41 11 -41 11 3 -15 50 -30 11 -94 -58 -96 -18 0 -13 -13 17 -38 25
-21 38 -43 28 -49 -11 -7 -24 2 -30 18 -7 17 -28 30 -47 30 -31 -1 -32 -4 -6
-20 27 -18 27 -22 0 -40 -24 -15 -19 -19 24 -20 29 0 60 -10 67 -21 25 -41 -7
-42 -89 -2 -65 31 -82 34 -82 11 0 -15 14 -28 30 -28 36 0 37 -10 9 -63 -16
-29 -15 -47 2 -69 14 -16 19 -35 12 -42 -7 -7 -13 -2 -13 11 0 13 -11 21 -25
18 -15 -3 -25 17 -25 52 0 31 -16 68 -35 82 -19 14 -35 31 -35 38 0 6 16 6 35
0 28 -10 27 -6 -5 19 -36 28 -41 28 -47 -1 -4 -17 12 -46 35 -64 30 -22 37
-38 22 -53 -15 -15 -13 -38 8 -77 26 -51 25 -60 -10 -97 -44 -48 -47 -66 -15
-86 16 -10 20 -4 11 18 -7 18 -3 38 8 45 11 7 26 -6 32 -30 11 -42 12 -41 68
13 62 61 72 97 33 112 -14 5 -18 16 -10 25 9 9 26 6 39 -7 13 -13 33 -24 44
-24 11 0 2 14 -19 31 -37 30 -37 31 11 18 66 -18 67 -19 41 -67 -12 -23 -14
-42 -4 -42 10 0 28 39 40 86 12 48 43 117 68 155 26 38 59 101 74 139 40 100
139 325 159 360 16 30 70 206 91 300 6 28 22 100 35 160 14 61 30 115 36 120
32 29 134 254 126 280 -7 23 -5 24 9 5 14 -20 27 -15 56 20 21 25 26 34 11 22
-31 -28 -82 -14 -82 22 0 14 -17 41 -39 60 -42 38 -87 211 -68 260 6 17 -5 65
-25 106 -20 41 -38 87 -40 102 -12 67 -111 243 -137 243 -18 0 -25 12 -18 30
6 17 1 30 -12 30 -12 0 -31 20 -42 45 -21 48 -14 -82 10 -185 14 -59 -8 -19
-53 95 l-26 65 -22 -48 c-19 -40 -18 -47 6 -38 22 9 28 -1 22 -36 -4 -26 -18
-46 -31 -43 -27 5 30 -134 65 -160 12 -9 10 -15 -5 -15 -14 0 -25 -20 -24 -45
0 -39 3 -41 25 -13 24 31 99 78 125 78 8 0 9 -32 3 -70 -6 -39 -5 -67 2 -62 8
4 14 -13 14 -38 0 -41 -7 -46 -58 -35 -50 10 -57 6 -45 -23 8 -23 5 -33 -10
-28 -13 5 -27 30 -31 56 -13 87 -26 68 -26 -37 0 -57 -9 -103 -20 -103 -11 0
-18 11 -15 25 3 14 -6 23 -20 20 -28 -6 -35 67 -8 83 26 16 17 197 -10 206
-25 9 -45 -39 -58 -135 -5 -41 0 -56 15 -47 13 9 17 5 8 -9 -27 -43 -50 -23
-57 52 l-8 75 -4 -82 c-4 -104 32 -208 71 -208 25 0 26 -6 7 -29 -45 -55 10
-84 77 -42 22 13 26 9 15 -17 -7 -20 -13 -50 -14 -69 0 -30 -2 -30 -25 -1 -34
44 -75 0 -72 -76 2 -34 6 -42 12 -21 5 19 17 35 27 35 10 0 12 15 5 33 -8 22
-5 29 9 20 30 -19 129 -230 117 -249 -22 -36 24 -73 56 -45 27 22 32 21 32 -7
0 -20 -17 -32 -47 -32 -41 0 -46 -8 -39 -55 7 -39 4 -47 -10 -28 -16 23 -21
23 -30 0 -6 -15 -12 -7 -12 19 -1 25 -15 50 -32 57 -20 8 -30 39 -30 98 0 93
-26 131 -51 74 -11 -24 -21 2 -31 85 -25 195 -64 285 -99 228 -10 -15 -20 -8
-29 22 -10 32 -19 38 -30 20 -9 -15 -19 12 -23 67 -4 51 0 93 8 93 8 0 15 -9
15 -20 0 -11 11 -18 25 -15 13 3 27 -15 31 -39 3 -23 21 -55 38 -70 29 -23 30
-21 8 20 -13 25 -25 83 -26 127 0 54 -7 72 -18 54 -10 -15 -19 -18 -20 -7 -1
11 -5 29 -7 40 -3 11 -6 50 -8 86 -2 39 -11 61 -23 54 -21 -13 -32 144 -23
305 3 47 -4 85 -15 85 -11 0 -19 27 -16 60 3 39 13 57 29 51 15 -6 25 7 25 32
0 30 -9 38 -32 29 -24 -9 -29 -4 -20 19 6 18 12 37 12 42 0 5 9 4 19 -2 19
-12 16 25 -9 99 -13 39 -13 39 18 1 18 -21 32 -30 32 -20 0 11 8 7 17 -7 11
-18 17 -5 19 36 1 47 -6 60 -27 52 -48 -18 -33 17 37 84 69 67 113 82 116 39
1 -14 8 -2 16 25 10 34 5 58 -17 76 -27 24 -25 26 14 17 25 -5 50 -1 56 9 17
26 49 22 49 -7 0 -30 -105 -243 -124 -251 -8 -4 -9 -20 -3 -35 6 -16 1 -29
-11 -29 -12 0 -22 32 -22 70 0 39 -10 70 -21 70 -13 0 -19 -44 -15 -115 5 -98
1 -115 -28 -112 -19 1 -33 -3 -32 -10 1 -7 -5 -29 -13 -49 -10 -22 -7 -46 6
-59 17 -17 23 -14 23 10 0 21 11 30 28 23 20 -8 32 12 42 70 15 91 72 72 68
-22 -2 -46 -2 -46 -18 4 -15 47 -16 47 -18 6 -1 -24 -11 -49 -21 -56 -11 -6
-14 -40 -7 -76 11 -57 9 -61 -19 -38 -18 15 -27 40 -21 57 6 17 -12 8 -41 -19
-29 -27 -53 -61 -52 -76 0 -19 7 -16 21 8 25 43 79 12 76 -43 -1 -21 -5 -24
-11 -8 -21 52 -47 22 -44 -50 1 -46 6 -58 11 -30 5 25 17 45 27 45 10 0 13
-13 6 -30 -6 -16 -4 -30 6 -30 10 0 14 -41 10 -90 -10 -125 9 -190 56 -190 56
0 64 27 30 95 -22 46 -30 235 -9 235 2 0 7 34 12 77 6 44 2 71 -9 65 -10 -6
-23 7 -29 29 -9 33 -3 38 28 28 38 -12 50 20 41 117 -4 45 73 198 110 220 15
9 27 34 27 55 0 21 14 39 30 39 34 0 41 33 8 44 -11 4 -3 24 20 45 42 37 42
37 31 -31 -20 -133 -20 -148 0 -162 14 -10 14 -27 -2 -51 -28 -46 -16 -219 18
-261 19 -24 13 -23 -29 4 -30 20 -63 30 -73 24 -24 -15 -40 -151 -19 -164 9
-6 16 17 16 50 0 33 7 64 16 69 8 5 15 -25 14 -69 -1 -43 6 -78 14 -78 9 0 17
-16 18 -35 1 -21 5 -25 11 -10 6 14 19 20 29 14 10 -6 18 3 18 21 0 18 -7 28
-16 22 -9 -5 -12 19 -6 54 8 52 12 55 18 19 11 -73 34 -51 37 37 2 45 13 92
25 104 28 28 29 61 2 44 -11 -7 -20 -5 -20 4 0 25 82 71 97 55 7 -8 2 -18 -12
-23 -46 -17 -25 -51 25 -41 28 5 50 2 50 -8 0 -9 -9 -17 -20 -17 -11 0 -20
-22 -20 -49 0 -26 -14 -62 -30 -78 -39 -39 -6 -61 65 -44 45 12 49 10 26 -18
-22 -26 -21 -31 4 -31 17 0 36 14 42 30 15 38 46 39 46 1 0 -16 -6 -25 -14
-20 -8 5 -20 -6 -27 -23 -7 -19 -25 -27 -42 -20 -102 41 -98 42 -61 -14 25
-39 29 -61 13 -90 -32 -61 1 -71 47 -13 50 63 108 50 100 -22 -7 -63 15 -62
63 1 23 31 57 50 88 49 l50 0 -46 -26 c-25 -14 -38 -33 -30 -42 9 -10 5 -11
-9 -3 -35 20 -78 -8 -44 -29 19 -11 8 -37 -40 -97 -55 -70 -127 -101 -88 -38
7 12 4 17 -7 10 -27 -17 -101 70 -90 105 5 14 0 21 -11 14 -28 -17 -46 34 -24
68 10 17 8 33 -5 41 -11 7 -21 37 -21 66 0 79 -51 63 -67 -21 -12 -62 -6 -80
31 -110 24 -20 38 -46 31 -57 -7 -12 -3 -34 10 -50 13 -16 17 -39 9 -52 -10
-15 -7 -19 8 -10 13 8 23 6 23 -4 0 -30 98 -133 113 -118 7 8 3 14 -10 14 -45
0 -22 31 42 59 36 15 81 35 102 44 31 15 35 10 24 -38 -10 -47 -3 -59 51 -83
41 -18 54 -32 38 -42 -17 -11 -18 -19 -3 -28 29 -18 108 24 92 49 -6 10 -2 19
8 19 11 0 18 23 15 50 -6 52 -32 95 -32 52 0 -13 -17 -22 -37 -18 -20 3 -52
-6 -70 -21 -22 -19 -33 -20 -33 -5 0 13 14 28 30 35 17 6 30 25 30 42 0 26 5
26 33 2 30 -24 31 -23 10 17 -19 37 -32 41 -83 26 -72 -21 -76 -3 -10 46 48
34 146 12 190 -44 6 -7 35 -24 66 -37 l56 -25 -36 49 c-20 28 -54 50 -76 51
-41 1 -117 39 -80 40 11 0 7 9 -10 20 -27 17 -27 19 0 20 23 1 20 9 -10 33
-39 31 -39 32 10 21 28 -5 68 -3 90 6 22 10 28 18 14 19 -15 0 -21 9 -15 20 6
10 1 25 -12 33 -14 9 -18 6 -9 -9 8 -13 2 -23 -15 -23 -16 0 -46 -5 -66 -12
-31 -10 -32 -8 -7 11 23 17 12 20 -50 11 l-80 -11 79 29 c43 16 85 26 93 21 7
-5 19 6 26 23 7 19 25 27 43 21 25 -10 26 -5 8 30 -33 60 4 91 71 60 70 -31
86 -29 39 5 -37 28 -37 29 17 43 31 7 51 18 46 24 -6 6 -38 -1 -71 -15 -65
-26 -132 -14 -110 21 8 14 23 13 44 -5 28 -23 30 -20 21 18 -10 39 -7 41 38
25 40 -16 48 -13 42 14 -9 46 -189 102 -222 69 -18 -18 -17 -28 6 -43 27 -16
27 -18 0 -19 -24 -1 -23 -6 5 -28 19 -14 35 -37 35 -49 0 -31 -74 -29 -86 2
-5 14 -16 18 -26 9 -9 -9 -5 -24 10 -33 15 -9 21 -26 14 -37 -7 -12 14 -27 48
-34 33 -7 55 -21 50 -31 -6 -9 -26 -12 -44 -5 -20 8 -28 5 -20 -8 19 -31 -96
-73 -156 -58 -33 8 -49 5 -45 -10 3 -13 -5 -27 -17 -31 -12 -4 -21 5 -21 21 0
33 161 102 193 82 11 -7 20 -2 20 11 0 16 -19 19 -55 11 -30 -7 -75 -17 -100
-23 -25 -5 -45 -1 -45 11 0 11 17 20 39 20 46 0 71 32 39 51 -12 8 -30 2 -39
-13 -14 -22 -23 -20 -47 12 -16 22 -21 43 -11 47 11 3 19 15 19 25 0 33 -76
-19 -89 -60 -7 -21 -32 -43 -56 -49 -59 -16 -70 1 -24 37 28 20 31 29 11 29
-46 1 -3 31 45 31 35 0 42 10 37 55 -4 37 4 55 22 55 20 0 25 16 19 50 -11 56
-48 64 -92 20 -37 -37 -66 -40 -37 -4 13 15 15 37 4 54 -9 15 -13 35 -7 44 5
9 -1 16 -13 16 -12 0 -16 10 -9 22 23 36 -75 -1 -128 -49 -45 -41 -45 -38 9
60 55 98 58 101 90 65 29 -34 36 -35 58 -8 27 32 70 42 51 12 -6 -10 4 -23 21
-30 23 -9 29 -4 22 16 -7 17 4 32 26 38 22 5 42 -3 48 -19 7 -16 4 -24 -6 -18
-10 6 -28 -2 -41 -18 -13 -16 -35 -24 -49 -19 -14 5 -36 -3 -49 -19 -46 -54
35 -55 117 -1 76 50 127 51 109 2 -5 -13 -1 -36 8 -50 24 -38 223 -10 223 31
0 24 -6 25 -29 6 -16 -14 -38 -19 -49 -12 -10 6 -25 3 -32 -9 -7 -11 -26 -20
-44 -20 -25 0 -26 6 -7 29 14 16 18 40 10 53 -10 15 -7 19 8 10 32 -20 107 6
91 32 -8 13 -19 11 -30 -7 -15 -22 -21 -22 -37 3 -15 24 -24 25 -44 5 -31 -31
-59 -32 -52 -2 10 49 -84 75 -173 49 -47 -15 -106 -19 -138 -10 -47 13 -62 6
-98 -44 -30 -39 -48 -50 -58 -34 -21 34 36 136 78 137 31 2 31 3 -2 16 -60 24
27 87 127 93 45 2 92 15 104 27 18 18 0 20 -71 10 -67 -9 -94 -6 -94 11 0 14
-9 19 -20 12 -12 -7 -15 -22 -8 -34 9 -14 2 -15 -22 -1 -41 23 -94 1 -169 -70
-27 -25 -58 -44 -70 -43 -11 0 -10 6 4 11 14 6 20 19 14 29 -6 10 -1 18 11 18
12 0 17 9 10 20 -7 12 -21 15 -31 9 -11 -6 -19 3 -19 20 0 43 60 64 81 29 14
-22 25 -19 57 16 26 27 55 39 81 32 23 -6 41 -2 41 8 0 39 -27 43 -85 13 -54
-28 -60 -28 -49 0 6 17 1 36 -12 42 -13 6 0 7 30 1 29 -6 59 -2 65 9 7 10 29
15 51 11 22 -4 44 1 51 11 6 11 56 19 111 19 56 0 95 8 89 18 -17 28 -227 9
-280 -25 -25 -17 -65 -26 -88 -20 -28 8 -47 1 -55 -21 -7 -17 -20 -27 -29 -22
-9 6 -23 0 -31 -13 -9 -14 -6 -18 9 -9 13 8 23 5 23 -7 0 -11 -18 -22 -40 -24
-22 -2 -51 -4 -65 -5 -14 -1 -33 -20 -42 -42 -20 -46 -44 -8 -25 41 6 16 11
34 10 40 -2 38 136 159 185 161 52 3 146 68 97 68 -13 0 -36 -13 -53 -30 -37
-37 -56 -38 -91 -3 -34 34 -105 11 -124 -39 -13 -34 -12 -34 24 -2 56 51 99
44 52 -8 -49 -56 -113 -79 -134 -50 -10 14 -14 12 -12 -8 6 -39 -21 -100 -44
-100 -10 0 -16 23 -13 50 2 28 11 50 21 50 9 0 12 7 6 16 -5 9 17 47 49 85 56
65 72 99 49 99 -6 0 -50 -41 -98 -91 -84 -87 -87 -89 -100 -45 l-14 46 -18
-44 c-12 -28 -10 -68 3 -106 12 -34 16 -68 9 -74 -6 -7 -12 2 -12 21 0 18 -8
33 -17 33 -39 0 -72 184 -38 209 51 37 119 231 85 244 -18 7 -25 38 -21 99 5
75 1 88 -31 88 -21 0 -38 -9 -38 -19 0 -21 -117 13 -150 43 -11 10 5 9 35 -2
46 -17 55 -16 55 11 0 20 -11 27 -30 20 -16 -7 -30 -3 -30 8 0 21 -66 26 -87
6z m56 -662 c-8 -30 -17 -73 -20 -95 -3 -22 -6 -45 -7 -52 -1 -6 -15 -11 -32
-11 -21 0 -26 14 -17 51 15 63 64 162 80 162 6 0 5 -25 -4 -55z m144 -189 c14
-11 29 -10 36 3 8 12 2 21 -11 21 -14 0 -20 5 -14 10 17 17 77 -12 65 -32 -6
-10 3 -12 20 -6 18 7 31 2 31 -14 0 -16 10 -12 27 11 24 33 28 33 39 4 7 -19
-2 -42 -24 -57 -20 -15 -36 -30 -36 -36 1 -5 -9 -28 -22 -50 -20 -35 -23 -36
-23 -5 -1 19 -8 35 -16 35 -8 0 -14 -39 -12 -87 4 -125 -21 -154 -63 -74 -18
36 -24 59 -12 52 13 -8 17 -1 10 18 -7 17 -20 32 -30 34 -10 1 -27 4 -38 7
-11 3 -49 6 -84 8 -61 2 -63 4 -30 37 29 28 41 30 74 10 52 -33 61 -31 47 6
-9 24 -1 29 40 21 29 -5 57 -1 63 9 12 19 -82 51 -125 42 -28 -5 -30 1 -13 44
11 30 54 26 101 -11z m198 -158 c8 -12 -1 -36 -19 -54 -29 -30 -32 -28 -32 22
0 55 27 72 51 32z m-336 -31 c26 -7 45 -27 45 -49 0 -43 -21 -49 -55 -15 -17
17 -20 11 -12 -25 10 -47 9 -47 -22 -9 -32 40 -43 111 -16 111 8 0 35 -6 60
-13z m-24 -161 c11 -23 31 -55 44 -70 19 -22 18 -35 0 -55 -20 -21 -20 -24 0
-13 16 9 25 2 25 -18 0 -45 -48 -26 -57 22 -4 21 -15 46 -24 56 -9 10 -12 -4
-7 -30 9 -42 8 -44 -12 -13 -12 20 -17 53 -10 74 6 21 2 43 -9 50 -12 8 -21
23 -21 34 0 33 48 7 71 -37z m852 -1 c-22 -40 -123 -138 -123 -120 0 35 88
155 113 155 21 0 23 -9 10 -35z m-662 -892 c-10 -10 -14 -33 -9 -50 5 -18 -1
-13 -14 11 -28 53 -7 133 22 86 11 -17 11 -37 1 -47z m600 -179 c22 -6 39 -25
39 -42 0 -42 -19 -41 -52 3 -23 31 -25 30 -14 -13 9 -34 5 -44 -11 -34 -13 8
-22 58 -20 118 2 68 6 82 11 41 6 -41 22 -66 47 -73z m-161 -174 c11 0 20 11
20 23 0 59 26 -11 32 -85 l6 -83 -42 38 c-24 20 -36 26 -28 12 8 -14 4 -25 -8
-25 -13 0 -3 -27 20 -60 23 -33 55 -60 69 -60 14 0 31 -18 37 -40 11 -43 60
-57 50 -14 -3 14 3 25 14 25 11 -1 19 -19 17 -41 -1 -22 -3 -74 -5 -115 -2
-84 -80 -53 -84 34 0 23 -6 30 -11 16 -13 -31 -187 147 -187 190 0 17 14 41
31 53 25 19 27 34 10 79 -11 31 -20 84 -19 119 l1 64 29 -65 c15 -36 37 -65
48 -65z m259 -59 c26 -48 27 -81 2 -81 -11 0 -14 15 -7 33 9 22 4 29 -16 22
-15 -5 -26 -21 -23 -34 3 -13 -9 -38 -27 -56 -31 -31 -32 -30 -18 16 14 44 12
46 -17 21 -28 -23 -33 -23 -33 1 0 16 18 41 39 56 21 16 34 36 29 45 -6 9 3
16 20 16 17 0 40 -17 51 -39z m-155 -488 c7 -34 1 -47 -22 -45 -20 1 -32 -14
-33 -42 0 -24 -7 -50 -15 -58 -8 -8 -14 9 -14 39 0 29 -9 53 -20 53 -11 0 -20
19 -20 42 0 34 10 41 48 33 37 -7 46 -2 37 21 -7 18 -3 25 9 18 12 -8 25 -35
30 -61z m-115 -149 c-4 -19 -12 -67 -19 -108 -8 -54 -19 -71 -41 -63 -40 16
-40 147 1 147 35 0 39 23 8 54 -12 12 -16 34 -7 47 20 33 67 -29 58 -77z
m-2824 -227 c20 0 31 -7 26 -16 -6 -9 13 -39 41 -67 34 -35 48 -67 42 -98 -7
-40 -9 -39 -11 10 -2 31 -11 51 -21 45 -10 -6 -22 -4 -25 4 -13 29 -152 123
-165 111 -6 -7 -12 -1 -12 13 0 17 14 21 45 12 25 -8 61 -14 80 -14z m2791
-64 c4 -47 17 -73 35 -73 16 0 29 -8 29 -17 0 -10 -25 -18 -55 -18 -30 1 -45
4 -32 9 26 9 12 86 -15 86 -10 0 -18 23 -18 52 0 80 49 46 56 -39z m-177 -531
c-4 -32 -74 -130 -98 -138 -19 -7 -13 14 15 60 24 38 39 74 34 80 -6 5 4 9 20
9 17 0 29 -5 29 -11z"/>
<path d="M2985 5240 c2 -22 13 -38 25 -35 12 3 22 -3 24 -13 1 -10 15 -25 29
-34 22 -14 22 -17 0 -18 -20 0 -22 -7 -7 -25 22 -28 22 -144 -1 -167 -8 -8
-15 -31 -15 -51 0 -20 -9 -37 -20 -37 -11 0 -19 -25 -18 -55 l2 -55 15 50 c8
28 25 48 38 45 13 -3 23 16 23 43 0 30 20 61 55 83 30 20 66 50 79 67 21 29
24 29 37 -3 7 -19 22 -35 32 -35 11 0 14 9 7 20 -7 11 -3 20 9 20 11 0 21 18
21 40 0 47 31 53 47 10 15 -39 -46 -143 -102 -173 -50 -27 -61 -77 -16 -77 18
0 25 12 18 30 -11 29 95 90 156 90 38 0 -10 -42 -54 -48 -20 -3 -40 -16 -44
-28 -5 -14 10 -18 39 -12 123 27 161 29 186 8 16 -13 38 -17 50 -10 12 7 35 3
50 -10 86 -71 255 -36 185 38 -20 21 -16 21 20 0 38 -24 47 -22 71 11 28 37
74 29 74 -13 0 -12 16 -33 35 -47 41 -30 26 -56 -22 -37 -18 7 -33 29 -33 49
0 90 -55 51 -73 -51 -5 -30 -3 -33 11 -12 15 23 30 20 90 -17 51 -31 72 -37
72 -18 1 21 5 20 19 -2 11 -18 11 -43 -1 -65 -16 -29 -12 -36 21 -36 27 0 36
9 28 30 -16 41 7 38 57 -10 48 -44 35 -81 -14 -40 -19 16 -30 17 -30 3 0 -12
18 -31 40 -43 29 -16 40 -15 40 2 0 13 17 18 40 12 22 -6 40 -3 40 7 0 34 -95
118 -141 125 -26 4 -51 20 -56 36 -5 15 -21 35 -36 44 -15 9 -27 29 -27 45 0
16 -10 29 -21 29 -12 0 -16 9 -9 20 7 11 -14 26 -48 33 -33 6 -59 22 -56 34 2
14 -33 24 -91 27 -52 2 -95 -4 -95 -14 0 -9 22 -14 49 -11 43 5 47 0 29 -33
-20 -37 -22 -37 -85 2 -82 51 -111 35 -95 -52 1 -7 16 4 33 25 18 22 26 28 19
14 -7 -14 -1 -26 14 -26 14 -1 8 -9 -14 -18 -62 -25 -85 8 -96 139 -2 28 -17
62 -34 76 -22 20 -24 29 -6 37 55 23 -17 85 -73 63 -77 -30 -121 -36 -121 -16
0 10 -67 15 -150 11 -143 -6 -239 26 -166 55 14 6 6 12 -18 12 -32 2 -43 -9
-41 -38z m328 -77 c9 3 38 -2 63 -11 29 -10 57 -6 77 11 27 22 30 20 23 -14
-6 -29 -20 -37 -57 -31 -27 4 -71 8 -99 10 -49 2 -79 25 -80 59 0 10 13 7 28
-5 15 -13 35 -21 45 -19z m235 -216 c14 -36 -17 -34 -48 3 -14 17 -46 30 -73
30 -41 0 -44 5 -24 38 26 41 120 -5 145 -71z"/>
<path d="M3773 5140 c-20 -20 -52 -34 -70 -29 -103 24 -130 28 -108 18 14 -7
25 -30 25 -51 0 -28 14 -38 52 -38 38 0 49 8 41 29 -9 24 -2 26 39 10 85 -32
113 -25 88 21 -12 23 -16 50 -10 60 21 33 -18 20 -57 -20z"/>
<path d="M2612 5108 c-8 -21 7 -28 60 -28 45 0 68 9 64 23 -12 34 -111 39
-124 5z"/>
<path d="M3970 4740 c7 -11 2 -20 -10 -20 -12 0 -17 -9 -10 -20 7 -12 22 -15
34 -8 13 8 16 -2 7 -28 -10 -34 -1 -43 53 -55 36 -8 97 -31 134 -51 38 -20 75
-32 83 -28 8 5 14 -13 14 -40 0 -28 -7 -50 -16 -50 -8 0 -5 -27 7 -61 20 -52
31 -59 74 -48 27 7 43 6 35 -3 -16 -15 19 -68 45 -68 9 0 14 15 13 33 -2 18
10 37 25 43 19 6 24 -1 16 -22 -7 -20 6 -43 37 -63 65 -42 74 62 10 108 -21
16 -33 38 -27 50 7 11 5 14 -4 6 -9 -8 -29 -4 -44 8 -15 12 -33 17 -40 10 -7
-7 -2 -13 11 -13 34 0 28 -34 -8 -48 -21 -8 -26 -3 -17 13 11 19 8 20 -12 1
-35 -33 -97 25 -63 59 17 17 23 16 24 -6 2 -43 36 42 38 94 1 39 -9 43 -100
40 -78 -2 -106 5 -121 32 -11 19 -36 35 -56 35 -19 0 -47 22 -61 49 -15 27
-39 54 -55 60 -15 6 -23 2 -16 -9z"/>
<path d="M3789 4518 c-6 -10 -6 -26 0 -36 6 -10 0 -23 -14 -29 -16 -6 -17 -10
-2 -11 12 -1 43 15 68 35 l46 37 -44 11 c-24 6 -48 3 -54 -7z"/>
<path d="M4006 4452 c11 -27 7 -34 -15 -25 -16 6 -35 3 -42 -8 -6 -10 2 -19
18 -19 16 0 33 -9 36 -20 4 -11 17 -4 29 15 17 28 15 42 -9 65 -27 25 -29 24
-17 -8z"/>
<path d="M3692 4365 c-9 -8 -25 -15 -37 -15 -12 0 -25 -11 -30 -25 -12 -35 45
-31 75 5 26 32 19 62 -8 35z"/>
<path d="M4208 4247 c11 -27 8 -29 -18 -7 -26 21 -29 21 -20 -4 6 -16 36 -39
66 -52 37 -15 41 -21 14 -18 -61 7 -169 -109 -118 -127 20 -7 56 -8 78 -2 37
10 36 12 -10 24 l-50 14 50 20 c41 17 53 14 67 -14 9 -19 43 -50 75 -69 32
-19 54 -43 47 -53 -6 -11 -3 -19 8 -19 28 0 39 44 21 80 -8 17 -20 46 -26 65
-6 19 -20 35 -31 35 -12 0 -21 -16 -22 -35 0 -32 -3 -31 -30 4 -26 35 -26 41
1 56 43 24 37 55 -10 55 -27 0 -40 13 -40 40 0 23 -13 40 -32 40 -22 0 -28
-11 -20 -33z"/>
<path d="M4419 4206 c39 -36 71 -73 71 -84 0 -11 11 -31 25 -45 30 -30 34 -65
5 -47 -11 7 -14 -1 -8 -19 8 -20 1 -31 -18 -31 -33 0 -32 -90 1 -179 l19 -50
24 45 c13 24 15 44 5 44 -38 0 -44 67 -10 99 32 29 33 28 8 -4 -23 -31 -22
-34 5 -24 36 14 67 -67 47 -120 -8 -21 -1 -25 23 -17 28 10 29 7 9 -15 -14
-15 -24 -45 -23 -68 0 -23 6 -30 11 -16 19 47 62 25 77 -40 17 -72 14 -120 -8
-135 -27 -18 -37 -70 -21 -110 16 -40 31 0 21 56 -2 10 7 11 19 3 12 -7 18
-30 13 -51 -6 -21 -2 -43 8 -49 30 -19 20 -44 -21 -55 -22 -5 -44 1 -50 13 -6
13 -8 5 -5 -17 3 -25 18 -38 40 -34 25 4 34 -8 34 -45 0 -28 -9 -51 -20 -51
-11 0 -20 13 -20 29 0 18 -12 25 -30 18 -16 -6 -30 -29 -30 -51 0 -28 -9 -37
-30 -29 -20 8 -30 0 -30 -24 0 -19 -14 -53 -31 -74 -30 -38 -30 -37 -10 5 17
34 15 48 -9 61 -41 23 -11 190 45 251 45 50 86 160 83 222 -2 34 -4 35 -12 7
-5 -19 -17 -35 -27 -35 -20 0 -21 3 -29 76 -6 56 -30 84 -30 35 0 -28 -6 -31
-26 -14 -19 15 -33 16 -48 1 -14 -14 -34 2 -64 53 -63 108 -69 75 -9 -52 65
-137 62 -134 97 -88 27 37 29 37 29 3 1 -20 10 -31 21 -24 38 23 20 -30 -25
-75 -25 -25 -42 -55 -40 -68 3 -12 -7 -27 -21 -33 -22 -8 -27 -82 -23 -366 3
-265 -3 -377 -24 -436 -18 -51 -23 -112 -15 -166 9 -63 4 -99 -20 -136 -31
-48 -31 -50 8 -50 30 0 40 -13 40 -51 0 -32 -8 -46 -22 -38 -16 10 -16 3 0
-27 16 -31 15 -42 -7 -51 -19 -7 -33 9 -41 49 -19 84 -76 70 -92 -22 -7 -39
-14 -52 -17 -30 -3 38 -4 38 -21 -3 -9 -24 -27 -49 -39 -56 -11 -7 -21 -28
-21 -45 0 -29 4 -28 38 2 25 23 43 27 51 13 7 -11 4 -21 -8 -21 -11 0 -21 -24
-21 -53 0 -30 -15 -70 -33 -90 -35 -39 -36 -37 68 -68 14 -4 25 -19 25 -33 -1
-18 -6 -17 -20 4 -13 20 -19 22 -20 5 0 -14 -11 -25 -23 -25 -13 0 -18 6 -10
13 7 7 -5 26 -27 41 -22 16 -40 41 -40 57 0 33 -91 40 -110 9 -7 -11 7 -20 31
-20 32 0 40 -9 31 -32 -9 -24 -4 -29 20 -20 25 10 30 3 23 -26 -7 -26 5 -46
37 -63 51 -28 67 -71 19 -52 -17 6 -32 -3 -36 -23 -6 -22 -15 -10 -27 34 -24
84 -108 112 -108 37 -1 -36 -4 -39 -20 -15 -14 22 -20 9 -20 -50 0 -59 -6 -72
-20 -50 -15 24 -19 24 -20 3 0 -24 -5 -24 -33 0 -30 24 -32 21 -23 -29 12 -61
-40 -110 -78 -72 -13 13 -32 -12 -56 -76 -20 -53 -49 -116 -65 -140 -16 -24
-23 -53 -17 -63 7 -11 -1 -45 -17 -76 -16 -31 -34 -73 -39 -92 -6 -19 -28 -35
-48 -35 -45 0 -113 -70 -114 -117 0 -19 -19 -36 -48 -40 -38 -5 -45 0 -35 27
10 26 5 31 -18 22 -18 -6 -36 -12 -41 -12 -4 0 -8 -9 -8 -21 0 -42 -66 -122
-81 -98 -10 16 -25 17 -52 3 -52 -28 -59 -137 -13 -190 33 -37 33 -40 2 -28
-41 15 -53 -28 -35 -131 8 -41 6 -75 -4 -75 -9 0 -17 -14 -17 -32 0 -21 -11
-28 -32 -20 -17 7 -35 12 -40 12 -4 0 -8 14 -8 31 0 23 12 28 40 19 46 -15 61
95 17 122 -16 10 -20 4 -11 -19 8 -21 3 -33 -17 -33 -16 0 -29 -11 -29 -23 0
-13 -5 -19 -10 -13 -6 5 3 36 20 68 21 41 26 86 17 155 -9 72 -5 102 15 115
24 16 23 23 -4 43 -17 14 -30 41 -27 60 3 19 -2 35 -12 35 -38 0 -67 -182 -68
-424 -1 -312 -19 -297 345 -291 286 6 316 17 293 112 -6 26 -2 57 8 70 28 34
32 97 9 153 -11 28 -25 63 -30 80 -7 23 -22 16 -62 -28 -47 -50 -55 -53 -67
-22 -9 23 -1 42 25 56 109 61 193 192 103 161 -25 -8 -67 -14 -93 -13 -35 2
-41 -3 -20 -16 21 -13 17 -17 -18 -18 -26 0 -41 8 -35 18 6 10 0 23 -14 29
-19 7 -18 15 5 31 17 12 21 22 10 23 -11 0 24 24 77 51 53 28 102 46 108 39 7
-6 -26 -27 -71 -46 -46 -19 -84 -42 -84 -50 0 -28 155 -15 180 15 20 24 20 30
-1 30 -16 0 -9 16 17 41 24 22 45 51 45 65 1 13 23 69 48 124 26 55 43 106 38
115 -5 8 1 15 13 15 12 0 49 57 82 128 81 174 128 216 161 144 13 -28 35 -52
50 -52 18 0 14 20 -16 70 -39 66 -39 74 -9 120 30 45 70 75 44 33 -14 -22 48
-183 70 -183 9 0 12 13 5 30 -6 16 -3 30 8 30 22 0 73 -159 56 -175 -6 -7 -11
2 -11 19 0 17 -14 43 -31 57 -39 32 -1 -67 47 -125 16 -19 24 -53 19 -74 -6
-22 0 -44 12 -49 15 -7 14 -10 -3 -11 -15 -1 -21 -11 -14 -22 21 -33 -23 -22
-53 13 -20 25 -21 36 -3 41 17 6 14 19 -8 45 -39 46 -86 32 -86 -25 0 -49 119
-294 143 -294 10 0 17 -21 17 -47 0 -27 24 -90 52 -142 29 -51 47 -98 41 -105
-6 -6 1 -35 16 -64 19 -37 21 -64 8 -88 -10 -19 -13 -45 -5 -57 10 -16 -2 -19
-38 -10 -47 12 -53 7 -65 -57 -14 -72 7 -164 25 -114 8 20 16 20 38 3 44 -37
84 -9 73 49 -6 33 -1 52 15 52 15 0 20 16 14 40 -6 22 -2 45 8 51 10 6 18 -15
18 -48 0 -33 -10 -63 -22 -67 -15 -5 -13 -24 4 -63 20 -44 34 -53 67 -42 22 8
73 12 111 11 143 -7 200 14 197 74 -2 47 -4 48 -11 9 -8 -41 -12 -42 -40 -14
-35 35 -99 30 -91 -7 3 -13 -3 -24 -12 -24 -9 0 -18 31 -19 70 -2 49 6 70 27
70 34 0 42 130 9 150 -11 7 -20 2 -20 -10 0 -12 -10 -16 -21 -9 -12 7 -16 27
-10 44 7 18 1 39 -13 48 -20 13 -20 16 -1 17 14 0 25 10 25 22 0 12 -13 17
-29 11 -30 -11 -57 15 -64 62 -2 14 9 25 25 25 15 0 28 10 28 21 0 12 9 16 20
9 11 -7 20 2 20 19 0 17 9 31 21 31 14 0 14 12 0 39 -17 31 -13 41 19 51 22 7
40 21 40 31 0 10 -23 9 -53 -2 -66 -25 -86 -8 -36 31 22 16 30 29 19 30 -11 0
-8 8 6 17 14 9 27 38 27 65 1 26 10 72 21 101 14 38 12 67 -7 100 -14 26 -25
52 -24 57 1 6 7 40 14 76 7 37 5 61 -6 55 -10 -6 -32 2 -48 19 -28 28 -32 24
-44 -38 -17 -89 4 -154 43 -138 30 11 31 -19 7 -234 -2 -16 -9 -8 -17 19 -7
26 -23 51 -36 56 -14 4 -19 -8 -12 -34 6 -23 1 -41 -12 -41 -12 0 -22 9 -22
20 0 11 -13 20 -28 20 -15 0 -33 14 -40 32 -17 43 -17 42 33 57 27 8 35 18 20
24 -18 7 -19 21 -4 49 21 39 -13 98 -56 98 -10 0 -18 14 -18 30 0 38 11 38 55
-2 33 -30 35 -25 26 105 -6 92 -3 127 10 108 11 -16 15 -36 10 -45 -6 -9 -1
-16 11 -16 11 0 21 19 21 41 0 61 60 42 112 -35 24 -36 50 -58 59 -50 8 8 10
4 3 -8 -35 -62 73 -308 201 -455 183 -209 210 -288 208 -601 -1 -258 1 -272
38 -272 21 0 39 -8 39 -17 0 -9 131 -17 290 -17 160 0 290 7 290 17 0 9 13 17
29 17 50 0 57 76 12 133 -22 29 -41 42 -41 30 0 -13 -13 -23 -29 -23 -27 0
-40 39 -58 175 -3 25 -17 57 -32 70 -21 20 -23 17 -12 -18 7 -24 5 -48 -5 -54
-9 -6 -16 22 -14 63 2 41 -5 97 -16 124 -37 98 -33 139 14 151 46 12 48 23 34
184 -1 14 -12 25 -24 25 -13 0 -19 -21 -13 -49 5 -28 2 -45 -7 -40 -8 5 -21 1
-28 -10 -8 -13 -21 -12 -38 4 -21 19 -19 29 9 54 38 34 68 181 38 181 -11 0
-19 18 -19 40 0 22 -8 40 -17 40 -9 0 -13 -40 -9 -88 9 -96 -17 -131 -67 -90
-27 23 -30 19 -24 -22 5 -35 -4 -51 -30 -56 -30 -6 -35 1 -25 39 6 26 6 36 0
22 -16 -36 -90 -32 -76 3 8 21 -3 27 -40 23 -28 -3 -46 2 -40 12 6 9 2 17 -8
17 -11 0 -24 -18 -30 -40 -10 -41 -54 -57 -54 -20 0 11 -25 20 -55 20 -99 1
-139 67 -54 89 28 7 45 21 39 31 -6 10 14 17 46 14 31 -2 57 -14 57 -26 0 -12
-15 -18 -35 -13 -36 9 -43 -39 -9 -69 10 -9 11 -5 3 9 -10 17 0 25 27 25 23 0
41 13 41 30 0 17 8 30 18 30 10 0 9 26 -3 58 -15 39 -32 54 -52 47 -18 -7 -24
-3 -16 10 21 35 -21 49 -65 22 -29 -18 -34 -34 -21 -59 13 -23 9 -41 -12 -59
-70 -58 -59 72 12 138 l41 38 -51 0 c-27 0 -61 -13 -73 -28 -19 -22 -17 -25 9
-15 29 11 30 4 8 -55 -21 -58 -25 -61 -31 -23 -4 24 -24 50 -45 56 -22 7 -39
26 -39 41 0 16 -13 29 -30 29 -34 0 -40 31 -11 50 12 7 13 30 1 59 -18 48 17
107 47 77 7 -7 13 9 13 36 1 35 5 41 18 20 12 -18 17 -7 14 36 -1 35 -16 72
-32 83 -23 14 -24 18 -3 19 21 0 24 24 14 105 -9 67 -7 95 5 78 14 -20 21 -12
27 31 6 38 -4 71 -28 96 -21 22 -29 42 -20 45 10 3 14 34 9 69 -8 51 -4 60 22
50 17 -6 36 -1 41 12 5 13 11 8 11 -13 3 -64 52 -22 55 47 3 47 -2 59 -14 39
-13 -20 -18 -21 -19 -4 0 14 16 41 37 62 20 20 42 52 49 71 8 19 22 30 32 23
25 -15 39 52 20 99 -8 22 -16 28 -17 14 0 -15 -9 -22 -18 -16 -16 10 -32 -15
-79 -128 -21 -49 -21 -49 -23 15 0 36 -9 65 -19 65 -22 0 -45 -116 -33 -174 6
-32 0 -41 -21 -33 -20 8 -28 40 -25 113 2 61 -5 105 -19 109 -14 5 -18 31 -11
66 8 37 4 59 -10 59 -13 0 -23 -13 -23 -30 0 -16 -11 -30 -25 -30 -18 -1 -17
-6 3 -18 18 -11 31 -68 37 -153 7 -95 3 -130 -13 -120 -12 7 -22 4 -22 -8 0
-11 -9 -21 -20 -21 -11 0 -20 14 -20 30 0 17 -10 30 -21 30 -12 0 -15 -11 -7
-25 8 -15 7 -18 -4 -8 -10 9 -18 25 -18 35 0 10 -9 18 -20 18 -23 -1 -15 -116
11 -160 12 -20 18 -21 18 -5 1 14 10 25 21 25 29 0 25 -59 -5 -71 -14 -5 -27
-41 -30 -80 -3 -40 3 -67 12 -61 9 6 13 -13 7 -42 -7 -36 -3 -48 13 -38 13 8
24 57 26 108 l3 94 12 -90 13 -90 16 110 c9 61 16 126 16 145 0 19 6 35 14 35
7 0 15 -54 16 -120 2 -66 -5 -120 -15 -120 -10 0 -18 -13 -18 -30 0 -16 -8
-30 -18 -30 -10 0 -23 -23 -31 -51 -16 -66 -57 -53 -74 23 l-12 58 -3 -55 c-1
-30 -12 -55 -23 -55 -12 0 -17 -7 -11 -17 6 -9 -1 -16 -15 -16 -18 0 -24 28
-21 91 3 50 -5 104 -18 120 -19 22 -18 30 1 37 14 5 25 40 25 78 0 38 -8 64
-18 58 -20 -12 -42 33 -42 86 0 18 -13 58 -29 88 -26 50 -25 55 5 57 21 1 24
5 9 11 -14 6 -25 24 -25 41 0 17 -20 50 -45 72 -38 34 -39 38 -7 27 25 -10 51
-1 76 26 51 56 79 53 57 -6 -12 -31 -9 -63 7 -95 19 -38 19 -61 -1 -110 -21
-52 -20 -69 3 -100 23 -30 29 -32 32 -8 1 17 5 39 7 50 3 11 6 32 8 46 2 15
10 22 18 17 8 -5 17 19 19 52 3 34 14 71 25 82 30 30 26 53 -9 53 -17 0 -30
-18 -30 -40 0 -47 -13 -50 -49 -14 -22 22 -22 35 1 75 14 27 27 36 27 21 1
-16 6 -23 13 -17 13 14 -33 87 -58 93 -8 2 -39 -14 -67 -37 -28 -22 -61 -35
-72 -28 -13 8 -8 23 14 39 19 14 30 33 24 43 -6 10 6 32 26 50 31 26 40 27 48
5 6 -15 0 -33 -13 -39 -13 -6 -3 -8 22 -3 28 5 51 -2 57 -20 6 -15 24 -28 40
-28 16 0 23 10 16 21 -7 12 -1 20 14 18 61 -8 77 4 77 61 0 33 9 60 20 60 11
0 20 18 20 39 0 27 -10 36 -30 28 -17 -6 -35 3 -42 22 -18 45 5 62 42 31 17
-14 30 -16 30 -5 0 28 -53 47 -89 32 -17 -6 -29 -26 -27 -44 6 -76 -7 -104
-61 -131 -56 -29 -57 -29 -48 19 5 27 17 49 25 49 20 0 54 90 70 186 7 42 18
91 25 109 8 21 4 27 -12 17 -14 -9 -23 -2 -23 18 0 18 8 27 18 21 10 -6 22 0
27 14 5 15 17 8 32 -20 28 -52 68 -61 49 -12 -9 23 -5 29 11 19 12 -8 23 -35
23 -61 0 -48 73 -111 129 -111 17 0 31 -8 31 -19 0 -10 20 -21 43 -25 24 -3
48 -19 53 -34 6 -19 1 -22 -18 -10 -16 10 -41 18 -58 18 -16 0 -41 7 -54 16
-30 19 -48 -10 -27 -44 8 -14 19 -23 23 -21 20 13 158 -25 158 -43 0 -11 -11
-14 -23 -6 -16 10 -20 4 -12 -17 8 -21 0 -36 -21 -41 -24 -7 -21 -10 11 -12
28 -1 45 10 45 28 0 17 9 30 20 30 11 0 18 11 15 24 -3 13 11 27 30 31 19 4
35 -1 35 -13 0 -11 -16 -15 -35 -8 -31 12 -32 9 -7 -21 21 -26 34 -28 55 -10
15 12 34 17 41 10 7 -7 2 -13 -12 -13 -13 0 -19 -9 -12 -20 7 -11 31 -20 55
-20 23 0 36 -6 29 -13 -8 -7 -3 -26 9 -41 18 -21 16 -24 -10 -14 -18 7 -33 20
-33 30 0 10 -15 18 -33 18 -29 0 -29 -5 5 -43 37 -42 37 -42 -2 -30 -22 7 -53
2 -70 -9 -25 -18 -24 -20 5 -10 94 30 135 -59 135 -293 0 -140 7 -213 20 -205
11 7 20 46 20 86 0 41 14 159 31 262 l30 189 -70 106 c-39 59 -71 115 -71 125
0 23 -43 39 -74 28 -16 -6 -5 -28 30 -60 l54 -51 -54 33 c-30 17 -67 32 -82
32 -15 0 -48 23 -74 50 -26 28 -57 50 -70 50 -13 0 -36 25 -50 55 -25 52 -30
66 -37 116 -2 12 -34 37 -73 55 -38 18 -70 42 -70 52 0 11 -17 25 -38 31 -21
7 -43 25 -49 41 -7 18 -1 24 18 17 49 -19 32 10 -26 44 -30 17 -40 27 -22 22
19 -6 39 3 45 20 19 49 14 67 -18 67 -16 0 -30 10 -30 22 0 12 13 17 28 11 36
-13 6 106 -33 130 -20 13 -20 16 1 17 15 0 21 9 14 20 -7 12 -20 16 -30 10 -9
-6 -21 1 -27 15 -6 15 -10 11 -11 -10 -1 -19 -12 -35 -24 -35 -12 0 -17 14
-11 30 7 17 4 30 -5 30 -10 0 -23 14 -30 31 -6 18 -3 26 8 19 11 -7 20 -7 20
0 0 17 -87 139 -105 147 -8 3 -15 15 -15 26 0 11 10 13 23 5 17 -10 20 4 11
48 -11 52 -7 60 20 50 22 -9 28 -5 18 11 -8 12 -28 23 -45 23 -16 0 -43 14
-60 30 -16 17 -49 30 -72 30 -23 0 -57 11 -74 25 -18 14 -1 -4 38 -39z m553
-989 c9 -14 -3 -16 -34 -7 -54 18 -98 58 -98 90 0 23 108 -45 132 -83z m-296
-112 c-49 -101 -67 -125 -91 -125 -19 0 -25 12 -17 32 7 17 12 45 12 61 0 16
8 24 19 18 10 -6 24 -3 31 9 14 23 57 28 46 5z m-59 -219 c-12 -14 -29 -21
-38 -15 -9 5 -27 -9 -40 -33 -16 -30 -16 -39 -1 -29 12 7 22 4 22 -8 0 -27
-54 -28 -70 -1 -22 36 11 100 52 100 22 0 45 14 51 32 10 25 16 26 29 5 8 -14
6 -37 -5 -51z m-49 -538 c7 -17 12 -53 12 -78 0 -26 9 -53 19 -60 30 -18 19
-143 -11 -143 -15 0 -21 8 -15 18 6 10 5 60 -3 111 -12 73 -18 85 -30 54 -8
-22 -7 -60 2 -85 13 -34 10 -45 -12 -45 -23 0 -30 -26 -30 -109 0 -83 -7 -107
-26 -100 -20 8 -23 37 -13 115 8 57 10 111 5 119 -4 8 2 15 14 15 16 0 19 33
9 110 -14 112 44 169 79 78z m-157 -469 c-3 -44 -1 -75 5 -70 6 6 23 0 38 -13
24 -19 24 -15 4 31 -26 56 -16 86 21 64 24 -15 26 -102 3 -159 -13 -35 -18
-33 -59 18 -57 73 -74 143 -43 180 35 43 38 39 31 -51z m225 -70 c13 -72 27
-141 29 -155 6 -29 -69 -34 -90 -5 -24 34 -18 95 8 79 17 -10 20 16 12 99 -16
154 10 143 41 -18z m224 -84 c0 -20 18 -47 40 -60 42 -27 56 -125 18 -125 -12
0 -17 13 -11 29 6 17 4 34 -6 40 -26 17 -39 -63 -14 -88 17 -18 14 -20 -13
-10 -20 8 -32 27 -26 42 6 15 -2 27 -18 27 -19 0 -24 -12 -16 -35 9 -27 6 -30
-13 -12 -26 24 -34 170 -11 207 21 33 70 23 70 -15z m-377 -29 c51 1 57 -5 55
-62 -2 -61 -3 -62 -18 -14 -14 44 -16 41 -18 -27 -2 -63 -8 -75 -34 -65 -27
10 -31 1 -24 -47 5 -36 1 -54 -11 -47 -12 8 -15 -1 -7 -21 20 -51 -21 -39 -58
17 -31 47 -31 57 2 142 19 50 29 96 22 103 -7 6 -12 0 -12 -15 0 -15 -5 -22
-10 -16 -19 18 13 76 35 63 11 -7 46 -12 78 -11z m-165 -131 c-2 -34 -6 -42
-12 -20 -8 32 -13 31 -47 -10 l-37 -45 8 49 c9 45 41 80 75 81 8 0 14 -25 13
-55z m11 -155 c9 -53 7 -73 -6 -60 -11 11 -21 43 -23 70 -9 114 8 108 29 -10z
m491 70 c1 26 3 26 19 1 30 -48 -19 -95 -52 -50 -14 19 -20 44 -14 54 7 11 19
8 29 -8 14 -22 18 -21 18 3z m-350 -240 c-7 -22 -4 -40 8 -40 11 0 -2 -22 -30
-50 -27 -27 -55 -50 -62 -50 -7 0 -7 6 0 12 7 7 -8 30 -32 52 l-44 38 43 -12
c32 -8 54 2 80 39 45 61 54 63 37 11z m-40 -189 c50 -31 67 -50 45 -50 -19 -1
-35 8 -35 19 0 11 -22 20 -48 20 -26 0 -53 14 -59 30 -16 42 4 38 97 -19z
m-18 -134 c10 -16 1 -20 -27 -12 -31 8 -39 3 -31 -18 6 -16 24 -25 39 -19 32
13 36 -11 5 -42 -22 -22 -118 55 -118 95 0 27 115 24 132 -4z m948 -13 c0 -20
-13 -25 -45 -17 -25 7 -56 13 -70 13 -14 0 -25 9 -25 19 0 11 32 19 70 17 47
-2 70 -12 70 -32z m96 -16 c27 16 78 -32 93 -88 11 -38 9 -43 -7 -20 -15 20
-21 22 -22 5 0 -40 -56 -29 -70 14 -12 40 -35 39 -125 -4 -35 -17 -52 -16 -70
4 -20 22 -18 24 12 14 28 -10 35 -6 25 18 -6 17 -3 26 7 19 11 -6 36 5 55 26
24 25 44 31 60 19 13 -10 32 -13 42 -7z m-964 -11 c7 -12 -1 -31 -20 -41 -18
-10 -27 -29 -19 -42 9 -17 6 -18 -9 -4 -24 22 -10 110 17 110 9 0 23 -10 31
-23z m128 -132 c0 -33 -76 -65 -87 -36 -6 15 -5 32 2 39 17 17 85 15 85 -3z
m978 -46 c-11 -7 -23 -73 -28 -148 -9 -159 -21 -180 -47 -88 -11 37 -20 51
-21 32 -1 -19 -10 -35 -20 -35 -22 0 -17 -180 6 -216 18 -30 -2 -64 -39 -64
-17 0 -23 12 -15 33 10 27 1 31 -50 23 -84 -12 -92 24 -28 123 3 6 15 -3 26
-20 16 -23 19 -21 15 11 -12 112 36 239 91 240 19 0 34 25 71 119 18 46 28 52
41 30 11 -17 10 -33 -2 -40z m-1130 -91 c47 11 49 8 39 -54 -8 -46 -1 -74 21
-93 30 -24 29 -29 -3 -54 -27 -22 -29 -27 -5 -25 91 9 138 -3 127 -32 -6 -16
-28 -30 -49 -30 -21 0 -37 -7 -35 -15 1 -8 -4 -44 -13 -79 -20 -86 -70 -41
-70 63 0 53 -8 71 -34 71 -24 0 -28 6 -13 21 16 16 16 46 1 104 -17 70 -23 76
-38 44 -12 -29 -14 -25 -6 16 6 30 2 55 -9 55 -11 0 -30 20 -43 45 -23 45 -23
45 28 -2 38 -35 65 -45 102 -35z m-1148 33 c-24 -16 -20 -23 20 -40 l50 -22
-53 10 c-45 9 -52 5 -43 -27 5 -21 24 -35 43 -33 18 3 22 1 8 -3 -14 -5 -22
-15 -17 -23 4 -7 -23 -14 -61 -15 -55 -1 -66 5 -55 30 7 18 13 50 12 71 -2 46
28 70 86 70 33 0 34 -3 10 -18z m183 -82 c-26 -21 -62 -39 -80 -39 -29 1 -29
3 -3 20 27 17 27 20 0 22 -24 3 16 14 120 35 6 1 -11 -16 -37 -38z m1769 -88
c-6 -22 -12 -59 -12 -81 -2 -77 -38 18 -46 120 l-7 96 38 -47 c22 -28 33 -63
27 -88z m-1830 -69 c52 -55 93 -242 53 -242 -13 0 -7 -12 13 -26 32 -23 31
-25 -13 -23 -68 3 -104 28 -77 55 36 36 27 95 -11 80 -22 -8 -29 -4 -23 16 6
15 32 26 58 23 47 -4 47 -4 6 20 -23 14 -40 41 -37 60 3 19 -5 36 -18 38 -13
2 -32 4 -43 6 -11 1 -31 9 -45 18 -16 10 -25 4 -25 -16 0 -38 -32 -41 -46 -3
-29 76 135 71 208 -6z m-202 -86 c0 -3 -21 -7 -47 -9 -39 -2 -45 5 -37 46 9
49 9 49 47 9 20 -22 37 -43 37 -46z m2390 -21 c-2 -49 8 -68 39 -76 40 -11 40
-12 -6 -37 -56 -31 -56 -31 -72 67 -10 67 0 95 40 111 0 0 0 -29 -1 -65z
m-2267 -45 c4 -24 -3 -38 -19 -35 -14 3 -45 8 -69 12 -23 4 -46 17 -51 30 -10
30 41 30 72 -1 19 -19 24 -19 24 0 0 13 -9 24 -19 24 -11 0 -14 14 -8 32 16
39 60 0 70 -62z m1962 -100 c8 -40 4 -46 -17 -28 -14 12 -36 16 -47 9 -27 -17
-27 1 0 51 26 48 51 35 64 -32z"/>
<path d="M2315 4225 c-4 -8 -2 -42 5 -75 14 -61 26 -50 46 45 10 43 -32 67
-51 30z"/>
<path d="M4665 4089 c-19 -21 -19 -32 2 -53 14 -15 22 -38 18 -52 -5 -14 2
-38 14 -53 18 -21 18 -40 1 -75 -22 -45 -21 -45 10 -6 31 39 31 60 1 200 -16
73 -16 72 -46 39z"/>
<path d="M3821 4032 c-32 -39 -3 -51 94 -38 70 9 142 66 84 66 -10 0 -19 -7
-19 -15 0 -8 -22 -15 -50 -15 -27 0 -50 7 -50 15 0 25 -33 17 -59 -13z"/>
<path d="M3247 3990 c-6 -16 -6 -43 0 -59 6 -15 1 -32 -12 -36 -15 -5 -11 -23
11 -56 l34 -48 0 50 c0 27 8 61 18 76 20 32 6 103 -21 103 -10 0 -23 -13 -30
-30z"/>
<path d="M1817 3875 c-129 -155 -144 -175 -124 -175 9 1 52 50 95 110 44 61
85 110 93 110 8 0 20 14 26 30 19 49 2 35 -90 -75z"/>
<path d="M3212 3824 c-30 -49 24 -258 57 -221 4 4 -4 61 -18 126 -13 68 -30
109 -39 95z"/>
<path d="M4247 3607 c0 -14 29 -40 65 -57 54 -25 64 -39 56 -82 -7 -36 -2 -49
16 -43 42 13 36 120 -9 170 -43 46 -128 54 -128 12z"/>
<path d="M2009 3505 c-9 -19 -18 -57 -22 -83 -3 -27 -12 -54 -21 -60 -9 -7
-19 -30 -23 -52 -4 -22 -15 -50 -26 -63 -12 -15 -12 -28 1 -36 13 -8 8 -27
-12 -51 -18 -21 -38 -35 -45 -31 -6 4 -12 -16 -14 -44 -2 -32 3 -42 13 -26 8
15 25 20 37 13 32 -20 78 89 69 165 -5 39 -1 62 10 55 19 -11 36 48 54 183 9
72 2 83 -21 30z"/>
<path d="M3655 3442 c-15 -57 13 -91 44 -53 20 24 20 31 1 31 -13 0 -19 13
-13 30 7 17 4 30 -5 30 -10 0 -22 -17 -27 -38z"/>
<path d="M4100 3309 c0 -28 62 -70 83 -57 16 10 12 22 -14 41 -38 28 -69 35
-69 16z"/>
<path d="M3771 3243 c17 -18 -36 -63 -73 -63 -21 0 -38 -13 -38 -30 0 -35 27
-38 82 -9 21 12 33 31 25 43 -8 14 -4 16 12 7 15 -10 33 -5 43 11 26 41 22 49
-21 49 -22 0 -35 -4 -30 -8z"/>
<path d="M4306 3227 c13 -81 55 -123 48 -48 -3 38 -17 72 -30 76 -14 5 -22 -7
-18 -28z"/>
<path d="M2155 3195 c-8 -19 -33 -35 -56 -35 -32 0 -39 -9 -30 -38 7 -21 3
-45 -9 -52 -11 -7 -16 -21 -10 -30 6 -9 2 -23 -10 -30 -11 -7 -20 -21 -20 -33
0 -11 14 -6 30 10 17 17 30 42 30 57 1 19 6 18 22 -4 16 -23 18 -19 7 18 -9
31 -6 43 8 34 26 -16 68 58 59 104 -7 31 -8 31 -21 -1z"/>
<path d="M4184 3178 c-20 -31 -19 -48 7 -87 31 -46 30 -48 -15 -37 l-46 12 48
-53 c54 -58 37 -73 -21 -20 -21 18 -37 23 -37 11 0 -12 9 -27 20 -34 25 -16
26 -50 1 -50 -10 0 -24 19 -31 42 -8 22 -19 36 -25 30 -6 -7 -23 -2 -37 10
-37 30 -11 78 42 78 42 0 44 4 23 50 l-23 51 -35 -42 c-29 -36 -48 -40 -113
-29 -60 10 -102 2 -176 -32 -53 -24 -105 -42 -116 -40 -11 3 -8 -7 6 -21 21
-22 29 -21 45 3 10 17 19 21 19 9 0 -12 -10 -31 -22 -43 -14 -14 -16 -47 -8
-88 14 -60 17 -63 41 -30 69 95 128 -42 79 -183 -5 -14 1 -25 13 -25 15 0 15
-9 -1 -28 -18 -22 -18 -31 2 -39 14 -6 1 -6 -29 0 -62 13 -68 -4 -26 -84 32
-63 21 -103 -19 -69 -39 33 -55 -8 -26 -70 18 -41 35 -51 71 -44 35 6 44 1 37
-19 -9 -22 -3 -24 30 -6 40 22 40 23 5 58 -21 20 -42 27 -49 16 -8 -12 -18
-12 -25 1 -17 26 37 46 82 30 24 -8 15 10 -25 56 -36 41 -42 52 -14 29 37 -32
43 -33 33 -6 -10 26 3 34 60 39 39 3 69 15 66 26 -3 11 -13 17 -23 14 -10 -3
-7 9 8 27 77 91 17 123 -69 37 -48 -48 -58 -22 -12 31 22 25 73 57 115 72 l76
27 -70 3 c-41 2 -54 8 -32 13 31 8 33 14 10 29 -20 14 -15 16 17 7 34 -10 45
-4 45 21 0 30 -15 33 -113 21 -94 -11 -109 -8 -90 14 12 15 16 34 8 42 -7 8
-1 23 16 33 21 14 22 18 3 19 -15 0 -21 9 -13 21 7 11 2 33 -10 48 -15 17 -16
32 -3 40 10 6 25 2 32 -9 7 -11 20 -16 29 -11 34 21 88 -66 61 -98 -13 -17
-32 -26 -41 -20 -9 5 -21 2 -27 -8 -15 -24 129 -46 157 -25 36 29 120 11 128
-27 5 -25 -1 -31 -20 -20 -15 8 -5 -7 23 -33 27 -26 54 -48 61 -48 7 0 28 -16
47 -35 19 -19 39 -35 44 -35 16 0 -54 150 -73 157 -20 7 -67 83 -51 83 5 0 23
-14 41 -31 28 -29 31 -29 31 5 0 20 -18 48 -41 62 -26 16 -37 39 -30 61 6 19
-1 52 -17 73 -24 33 -24 42 3 61 17 13 23 28 12 35 -10 6 -30 -6 -43 -28z
m-376 -170 c-9 -35 -4 -58 14 -70 19 -12 6 -17 -42 -17 -48 0 -61 5 -42 17 16
11 22 32 15 52 -16 41 0 70 39 70 21 0 25 -14 16 -52z"/>
<path d="M1952 3047 c-7 -17 -12 -43 -12 -58 0 -16 -29 -56 -64 -90 -55 -53
-61 -67 -40 -100 20 -32 18 -45 -12 -75 -21 -21 -32 -50 -25 -65 14 -37 74
-47 93 -16 10 16 4 20 -19 11 -39 -15 -39 -13 -14 54 12 31 31 47 47 41 20 -8
38 32 67 150 35 146 20 255 -21 148z"/>
<path d="M2002 2848 c-38 -104 1 -131 57 -39 24 39 40 82 35 96 -5 14 -19 1
-31 -30 -27 -69 -48 -72 -31 -5 18 74 0 61 -30 -22z"/>
<path d="M4957 2805 c5 -41 13 -64 18 -50 5 14 17 20 28 13 11 -7 32 5 48 25
24 32 31 33 48 7 15 -24 19 -21 16 14 -3 40 -75 61 -75 21 0 -9 -21 -2 -46 14
-45 30 -46 29 -37 -44z"/>
<path d="M5083 2705 c-24 -27 -43 -59 -42 -72 0 -13 13 -6 30 16 16 21 29 31
29 21 0 -10 13 0 30 21 25 33 32 35 48 10 15 -23 6 -35 -37 -53 -72 -31 -83
-49 -64 -117 l14 -56 24 53 c16 34 17 52 3 52 -11 0 -15 9 -8 20 7 12 21 15
31 9 11 -6 19 0 19 13 0 14 6 19 12 12 16 -15 68 35 68 65 0 11 -13 21 -30 21
-16 0 -30 8 -30 17 0 33 -55 15 -97 -32z"/>
<path d="M4220 2724 c0 -9 11 -29 25 -44 21 -23 19 -23 -12 0 -34 26 -133 45
-133 25 0 -29 65 -69 79 -47 24 39 67 -30 65 -103 -1 -48 3 -57 19 -34 15 22
22 23 30 4 16 -40 53 -29 42 13 -6 21 -3 49 6 63 8 14 5 42 -7 61 -15 24 -27
29 -36 15 -8 -14 -19 -5 -27 20 -13 41 -51 61 -51 27z"/>
<path d="M1956 2699 c-35 -20 -114 -210 -126 -303 -4 -30 -13 -64 -20 -75 -7
-12 -3 -21 9 -21 11 0 21 12 21 27 0 15 23 53 50 85 92 106 143 330 66 287z"/>
<path d="M4969 2687 c6 -13 4 -27 -4 -32 -8 -5 -3 -6 11 -2 14 4 23 -8 20 -26
-3 -18 5 -37 19 -42 38 -13 30 25 -17 78 -22 26 -36 37 -29 24z"/>
<path d="M5241 2585 c-26 -94 -26 -111 -1 -95 11 7 20 -2 20 -19 0 -17 -9 -31
-20 -31 -11 0 -20 -23 -20 -51 0 -28 -18 -70 -40 -94 -25 -27 -40 -70 -40
-117 0 -71 -48 -125 -65 -73 -5 14 -13 10 -20 -9 -7 -19 -1 -37 16 -44 16 -6
29 -2 29 9 0 10 9 19 20 19 11 0 20 -31 20 -70 0 -38 9 -70 20 -70 11 0 20
-14 20 -31 0 -18 9 -26 23 -17 33 20 2 -134 -35 -172 -26 -27 -32 -27 -48 0
-15 23 -19 17 -20 -25 0 -30 9 -55 20 -55 11 0 20 -10 20 -21 0 -12 -9 -16
-20 -9 -11 7 -20 -2 -20 -19 0 -17 16 -31 37 -31 29 0 34 -12 27 -60 -5 -39 0
-60 16 -60 14 0 19 13 12 32 -9 24 -4 29 19 20 18 -6 39 -12 47 -12 8 0 34
-27 58 -59 31 -42 35 -56 14 -48 -21 8 -30 -2 -30 -32 0 -29 11 -41 34 -37 25
4 35 -8 35 -44 1 -36 -9 -49 -34 -47 -19 1 -35 -2 -35 -9 0 -6 16 -29 35 -51
19 -22 25 -34 12 -27 -38 23 -51 -50 -15 -85 30 -29 31 -27 10 14 -14 26 -15
45 -4 45 11 0 25 -19 33 -42 11 -37 108 -45 141 -12 45 44 19 261 -67 559 -5
19 -18 35 -27 35 -10 0 -18 10 -18 22 0 16 10 15 30 -2 44 -36 54 -16 29 55
-12 34 -19 144 -15 243 3 100 -1 182 -9 182 -8 0 -15 27 -15 60 0 33 -10 60
-23 60 -15 0 -18 28 -11 85 7 47 7 73 1 59 -8 -20 -17 -20 -39 -2 -22 18 -28
15 -30 -20 -2 -23 -5 -49 -6 -57 -29 -126 -37 -186 -33 -240 3 -50 -4 -65 -30
-65 -30 0 -33 14 -23 102 11 88 9 98 -17 77 -16 -13 -29 -38 -29 -55 0 -17 -6
-24 -14 -17 -22 23 55 151 84 140 20 -7 26 36 26 192 0 221 -4 237 -35 126z
m93 -578 c-7 -6 1 -37 17 -69 16 -31 28 -81 26 -112 l-3 -56 -8 54 c-5 29 -21
64 -37 77 -35 29 -39 119 -6 119 13 0 18 -6 11 -13z m-68 -301 c-20 -52 -46
-24 -45 49 0 74 1 74 28 26 14 -27 22 -61 17 -75z m114 -44 c0 -70 -51 3 -55
78 -3 48 -2 48 26 11 16 -21 29 -61 29 -89z m-90 -48 c0 -19 9 -33 20 -32 11
1 17 12 14 24 -4 13 11 7 32 -13 31 -27 42 -29 50 -9 7 16 11 12 12 -11 2 -28
-8 -35 -37 -27 -41 10 -48 -23 -11 -52 11 -9 3 -13 -19 -10 -22 4 -50 26 -62
51 -13 25 -27 40 -33 34 -6 -6 -17 4 -23 21 -8 21 -5 27 11 18 15 -10 18 -3 9
20 -9 24 -5 33 12 27 14 -5 25 -23 25 -41z"/>
<path d="M1770 2536 c6 -29 1 -59 -10 -66 -11 -7 -16 -21 -10 -30 6 -9 1 -23
-10 -30 -11 -7 -15 -21 -9 -31 6 -11 1 -19 -11 -19 -12 0 -17 -9 -10 -20 7
-11 4 -20 -7 -20 -10 0 -28 -25 -39 -56 -18 -51 -15 -57 23 -54 24 2 46 18 49
37 4 18 16 33 26 33 12 0 14 30 6 73 -11 57 -8 69 12 57 17 -10 21 -8 13 6 -8
11 -5 27 7 34 11 7 20 35 20 62 0 28 -8 45 -18 39 -10 -6 -24 0 -30 14 -7 14
-8 1 -2 -29z"/>
<path d="M4189 2488 c14 -72 13 -73 -47 -64 -52 8 -58 5 -37 -21 19 -23 19
-27 1 -16 -28 16 -130 -64 -114 -90 6 -10 -3 -46 -21 -80 -17 -35 -31 -89 -31
-120 0 -31 -7 -56 -15 -55 -35 6 -71 -3 -60 -14 27 -26 -34 -65 -64 -41 -21
17 -25 17 -15 0 8 -13 0 -28 -17 -35 -17 -6 -27 -5 -21 4 5 9 -15 17 -44 18
-46 3 -48 1 -14 -13 36 -14 32 -19 -33 -47 -67 -28 -184 -134 -178 -163 1 -6
-12 -41 -30 -76 -30 -63 -30 -64 5 -25 20 23 52 38 71 34 24 -5 31 2 23 23 -7
18 10 49 40 75 36 32 46 52 31 69 -14 17 -9 27 19 34 27 7 42 -2 49 -31 11
-42 42 -32 44 13 0 12 12 21 25 18 14 -3 30 8 37 25 6 16 20 30 30 30 11 0 13
-10 5 -23 -9 -14 -5 -18 9 -9 13 8 23 25 23 38 1 13 29 38 64 55 57 28 98 119
53 119 -10 0 -17 10 -17 21 0 12 8 16 18 10 10 -6 23 0 29 14 8 20 10 20 11 0
1 -17 19 -22 52 -13 32 8 50 4 50 -11 0 -40 -40 -101 -66 -101 -14 0 -25 -19
-25 -41 0 -31 9 -39 38 -31 33 8 32 3 -10 -43 -89 -100 -97 -108 -97 -94 0 8
-22 -19 -50 -59 -60 -89 -61 -91 -10 -78 22 6 40 21 40 33 1 29 149 153 184
153 20 1 20 5 -2 18 -24 16 -24 23 4 51 25 24 28 44 14 82 -11 27 -12 49 -3
49 13 0 56 72 100 167 4 9 -11 7 -35 -6 -40 -21 -40 -20 -18 30 18 40 18 61 0
90 -15 24 -16 39 -4 39 11 0 20 -9 20 -20 0 -13 14 -11 37 3 37 23 37 97 1 97
-10 0 -18 18 -18 40 0 22 -10 40 -22 40 -15 0 -18 -24 -9 -72z"/>
<path d="M3633 2364 c-30 -47 14 -88 58 -55 33 26 34 30 6 30 -19 1 -37 12
-42 25 -6 19 -11 19 -22 0z"/>
<path d="M2976 2235 c-5 -51 2 -95 16 -110 34 -34 49 10 22 69 -23 52 -4 115
29 94 14 -9 18 -5 9 9 -32 51 -68 21 -76 -62z"/>
<path d="M3593 2251 c-19 -50 -15 -66 7 -31 11 17 20 20 20 7 0 -12 -13 -33
-30 -47 -39 -33 -38 -45 9 -75 33 -20 38 -20 28 5 -6 17 3 35 21 42 40 16 40
27 -5 85 -33 42 -38 44 -50 14z"/>
<path d="M3660 2252 c0 -15 14 -39 31 -53 21 -17 24 -30 9 -39 -15 -9 -12 -22
9 -39 26 -22 31 -20 31 9 0 22 10 30 30 23 43 -17 38 53 -7 94 -44 40 -103 43
-103 5z"/>
<path d="M1682 2186 c-1 -14 -15 -20 -32 -13 -37 14 -38 -11 -2 -58 25 -33 28
-33 56 0 51 60 70 100 32 69 -26 -21 -34 -21 -42 0 -8 19 -11 19 -12 2z"/>
<path d="M591 2061 c-7 -11 -28 -14 -47 -7 -19 7 -29 9 -24 4 6 -4 36 -30 68
-58 44 -38 55 -42 46 -15 -16 44 37 49 53 5 7 -16 2 -30 -11 -30 -12 0 -19 -4
-13 -9 5 -5 29 -4 53 2 44 12 44 13 -15 69 -64 61 -91 70 -110 39z"/>
<path d="M2912 1915 c-6 -19 -16 -49 -22 -66 -5 -17 -19 -26 -30 -19 -22 13
-28 -15 -8 -35 18 -18 88 30 88 60 0 14 9 25 20 25 11 0 20 16 20 35 -1 27 -4
29 -18 8 -14 -23 -19 -23 -27 0 -8 20 -13 18 -23 -8z"/>
<path d="M3706 1755 c-31 -34 -30 -35 16 -27 26 5 54 10 61 11 7 0 18 14 24
30 16 41 -61 31 -101 -14z"/>
<path d="M3811 1659 c7 -12 1 -20 -14 -18 -52 7 -79 -1 -68 -20 7 -11 28 -14
47 -8 26 8 28 6 6 -9 -15 -11 -21 -30 -13 -42 7 -12 4 -22 -8 -22 -11 0 -21 8
-21 18 0 25 -126 42 -149 20 -12 -11 -10 -18 4 -18 12 0 22 -27 21 -59 -1 -33
-10 -55 -19 -49 -9 6 -17 -4 -17 -21 0 -46 -26 -38 -82 24 -51 58 -59 95 -30
145 15 24 13 25 -9 5 -44 -41 -35 -105 24 -168 59 -63 38 -157 -35 -157 -16 0
-28 -8 -28 -18 0 -10 -5 -31 -10 -45 -6 -16 12 -37 41 -51 46 -21 50 -20 38
17 -9 30 9 60 75 123 48 46 105 108 128 137 22 29 57 56 77 60 21 4 39 21 42
37 3 17 11 55 19 85 10 37 7 55 -9 55 -13 0 -17 -10 -10 -21z"/>
<path d="M1535 1568 c-8 -8 -15 -32 -15 -53 0 -51 67 -38 76 15 5 31 2 34 -13
12 -16 -23 -20 -22 -26 7 -4 19 -14 28 -22 19z"/>
<path d="M5084 1467 c3 -30 16 -57 28 -61 13 -4 18 16 12 53 -11 75 -49 82
-40 8z"/>
<path d="M1530 1400 c-7 -23 -11 -65 -9 -95 2 -30 1 -59 -1 -65 -15 -35 -14
-120 1 -120 11 0 20 25 22 55 5 88 13 151 28 210 16 64 -21 77 -41 15z"/>
<path d="M4990 1400 c-7 -12 -21 -16 -31 -10 -9 6 -8 -16 4 -49 11 -34 25 -61
31 -61 6 0 5 14 -1 30 -12 30 9 39 67 30 23 -3 21 5 -8 38 -44 48 -45 49 -62
22z"/>
<path d="M2740 1299 c0 -12 -10 -15 -21 -8 -12 7 -20 1 -18 -14 11 -81 -3
-185 -21 -157 -12 18 -20 20 -20 6 0 -13 9 -29 21 -37 14 -9 14 -21 -1 -39
-16 -19 -15 -30 2 -41 18 -11 15 -22 -10 -40 -33 -24 -33 -27 2 -47 21 -12 25
-21 10 -21 -15 -1 -21 -10 -14 -21 7 -11 32 -19 56 -18 24 0 33 6 19 11 -30
12 -34 87 -5 87 11 0 20 -13 20 -30 0 -16 9 -30 20 -30 11 0 20 -13 20 -30 0
-16 10 -30 22 -30 13 0 18 18 12 40 -7 28 0 40 23 42 27 1 27 3 3 11 -107 35
-209 107 -151 107 17 0 31 7 32 15 0 8 4 71 9 140 5 69 4 125 -1 125 -5 0 -9
-10 -9 -21z"/>
<path d="M3610 1245 c-33 -40 -57 -84 -54 -99 3 -14 -4 -26 -15 -26 -12 0 -22
-16 -22 -35 -2 -31 -4 -30 -17 4 -14 35 -16 35 -28 3 -8 -20 -24 -28 -37 -20
-17 10 -19 3 -9 -24 11 -30 9 -33 -11 -13 -30 30 -85 34 -67 5 15 -25 6 -25
-57 -1 -52 19 -72 -2 -90 -91 -2 -7 -15 -3 -30 9 -15 13 -33 17 -40 10 -7 -8
-30 2 -51 21 -37 33 -38 31 -45 -67 -5 -75 0 -101 20 -101 18 0 24 -14 17 -40
-14 -55 51 -92 87 -49 14 17 37 26 52 21 26 -10 37 14 27 58 -12 56 -13 110
-2 110 24 -1 65 -35 64 -52 -2 -17 8 -19 58 -11 11 2 20 21 20 43 0 30 21 45
88 62 106 26 174 93 180 175 2 33 -3 56 -12 51 -34 -21 -14 42 27 86 24 25 36
45 25 45 -10 -1 -45 -34 -78 -74z"/>
<path d="M3237 1245 c-2 -8 -4 -28 -6 -45 -2 -16 -14 -28 -27 -25 -13 3 -24
-3 -24 -13 0 -10 -5 -33 -12 -50 -17 -44 35 -41 74 4 47 55 61 124 22 109 -20
-8 -26 -4 -16 12 8 12 9 23 3 23 -6 0 -12 -7 -14 -15z"/>
<path d="M4728 813 c-39 -44 -35 -300 4 -285 31 12 35 -132 7 -228 -6 -18 7
-32 33 -36 60 -9 69 45 55 296 -15 257 -40 321 -99 253z"/>
<path d="M2774 786 c10 -25 5 -30 -21 -20 -18 7 -33 5 -33 -4 0 -26 52 -63 67
-48 7 7 13 -2 13 -21 0 -41 -37 -44 -53 -3 -6 17 -20 30 -30 30 -11 0 -13 -11
-5 -25 8 -14 -3 -9 -25 10 -22 19 -46 29 -54 22 -7 -8 -13 7 -13 33 0 26 -6
40 -14 33 -20 -20 -6 -219 17 -247 22 -27 30 -140 10 -160 -21 -21 -38 8 -38
66 0 46 -3 49 -19 19 -11 -19 -15 -94 -9 -168 13 -166 12 -162 34 -106 16 38
25 43 48 24 40 -34 17 -77 -46 -86 -44 -6 -47 -10 -18 -23 107 -49 163 70 104
216 -13 31 -9 36 18 26 25 -10 33 -2 33 32 1 36 4 38 20 14 12 -18 20 -20 20
-6 0 13 -9 29 -20 36 -29 18 -25 50 7 50 17 0 26 21 25 55 -1 30 9 67 23 82
14 14 21 34 15 43 -6 10 -2 23 10 30 11 7 20 4 20 -7 0 -11 18 -15 40 -9 22 6
35 18 30 27 -6 8 1 20 15 26 14 5 4 11 -21 11 -31 1 -44 13 -40 34 4 24 -12
35 -58 40 -53 6 -62 2 -52 -26z"/>
<path d="M5682 701 c-21 -13 38 -201 63 -201 16 0 8 114 -8 134 -11 13 -15 33
-8 44 16 27 -15 43 -47 23z"/>
<path d="M2790 261 c-6 -21 -23 -35 -36 -30 -17 7 -25 -16 -25 -71 0 -44 3
-80 7 -80 108 0 219 76 162 111 -12 7 -16 35 -9 61 15 63 -79 71 -99 9z"/>
</g>
</svg>
