<?xml version="1.0" standalone="no"?>
<!DOCTYPE svg PUBLIC "-//W3C//DTD SVG 20010904//EN"
 "http://www.w3.org/TR/2001/REC-SVG-20010904/DTD/svg10.dtd">
<svg version="1.0" xmlns="http://www.w3.org/2000/svg"
 width="300.000000pt" height="300.000000pt" viewBox="0 0 300.000000 300.000000"
 preserveAspectRatio="xMidYMid meet">
<metadata>
Created by potrace 1.10, written by Peter Selinger 2001-2011
</metadata>
<g transform="translate(0.000000,300.000000) scale(0.050000,-0.050000)"
fill="#000000" stroke="none">
<path d="M3927 5315 c-5 -8 -27 -15 -48 -15 -22 0 -39 -7 -39 -16 0 -16 -71
-125 -239 -366 -48 -71 -143 -186 -209 -258 -224 -241 -240 -260 -217 -260 12
0 49 23 81 50 79 66 104 63 104 -12 0 -47 -7 -59 -30 -51 -19 7 -30 0 -30 -19
0 -17 14 -27 33 -24 21 4 48 -22 75 -72 23 -43 72 -94 109 -113 77 -41 110
-71 57 -52 -22 7 -31 5 -24 -7 7 -11 33 -15 57 -9 28 7 64 -4 97 -30 29 -23
66 -36 83 -29 22 8 27 1 19 -30 -6 -23 8 -71 34 -111 24 -39 34 -71 22 -71
-12 0 -22 -9 -22 -20 0 -11 14 -20 30 -20 17 0 30 10 30 22 0 16 9 15 30 -2
38 -31 38 -14 1 58 -16 31 -24 75 -18 99 7 26 2 43 -12 43 -13 0 -18 -9 -11
-20 7 -11 3 -20 -8 -20 -19 0 -49 35 -54 65 -2 8 -5 17 -7 20 -2 3 -7 19 -10
37 -13 66 -103 141 -131 108 -29 -35 -68 -19 -52 22 8 22 -12 28 -92 28 -123
0 -112 23 20 42 l94 13 -99 2 c-91 3 -95 5 -60 32 42 30 45 28 -59 60 -18 5
-25 24 -18 51 11 42 11 42 64 -6 54 -51 153 -88 129 -49 -9 14 -1 17 20 9 18
-7 33 -3 33 8 0 22 82 212 202 468 36 77 63 156 60 175 -2 19 5 35 16 35 11 0
35 26 54 58 24 41 57 63 106 72 71 13 71 14 30 47 -22 19 -38 44 -34 56 9 25
-151 27 -167 2z m-108 -426 c-28 -33 -71 -38 -89 -9 -22 35 36 78 76 56 29
-15 32 -25 13 -47z m-79 -84 c-1 -35 -36 -65 -63 -55 -48 19 -36 70 16 70 26
0 47 -7 47 -15z m-80 -115 c33 -40 21 -50 -36 -28 -26 10 -41 27 -34 38 18 28
41 25 70 -10z m-31 -81 c44 -45 39 -55 -19 -41 -46 12 -49 9 -27 -25 47 -75
-21 -109 -120 -60 -46 23 -83 48 -83 57 0 25 69 44 76 21 4 -11 17 -21 30 -21
15 0 15 7 -2 24 -13 13 -24 36 -24 50 0 37 130 33 169 -5z"/>
<path d="M4121 5325 c0 -8 13 -32 30 -54 45 -60 37 -145 -18 -181 -124 -81
-77 -284 50 -219 34 18 77 25 102 18 41 -13 40 -12 -6 45 -33 40 -55 53 -66
38 -10 -13 -12 -7 -5 14 7 20 3 54 -8 74 -35 65 56 40 120 -33 31 -35 60 -60
65 -55 5 4 39 -14 77 -41 183 -134 279 -196 288 -187 6 5 -48 47 -120 93 -142
91 -159 113 -75 96 l55 -11 -53 24 c-29 14 -74 42 -99 64 -40 36 -43 36 -32 4
13 -34 11 -34 -36 0 -27 20 -49 44 -49 53 -1 10 12 7 28 -6 30 -25 71 -13 71
21 0 11 -15 17 -32 14 -56 -10 -84 58 -38 92 35 26 41 26 47 -1 3 -16 18 -25
33 -20 36 14 55 -41 29 -88 -15 -29 -14 -39 5 -40 81 -5 142 -19 167 -40 23
-19 29 -18 29 1 0 15 16 21 40 14 57 -15 50 3 -10 26 -27 10 -50 28 -50 40 0
26 32 26 81 -1 36 -19 59 6 24 26 -32 18 31 -5 145 -53 66 -28 145 -51 175
-52 30 0 55 -9 55 -19 0 -11 35 -29 77 -40 132 -36 472 -299 434 -337 -5 -5
-39 15 -75 44 -182 149 -250 198 -322 235 -111 57 -108 38 8 -43 173 -121 284
-222 322 -292 61 -114 41 -109 -99 26 -173 166 -238 216 -358 276 -72 35 -85
48 -52 49 73 2 51 34 -40 60 -47 13 -98 29 -115 35 -27 11 -27 8 0 -24 27 -34
27 -36 -5 -24 -19 8 -51 20 -70 28 -31 12 -32 9 -8 -20 36 -44 2 -45 -83 -2
-52 27 -59 27 -34 3 17 -17 83 -50 149 -74 65 -24 152 -74 193 -111 41 -37 99
-83 128 -102 65 -43 194 -240 186 -284 -4 -22 -31 1 -82 70 -90 123 -287 309
-378 357 -268 143 -312 157 -277 91 21 -40 156 -102 221 -102 39 0 369 -298
351 -316 -5 -5 4 -36 21 -68 53 -103 17 -83 -105 57 -289 334 -382 393 -118
76 215 -259 156 -241 -104 30 -141 149 -169 142 -40 -10 194 -228 153 -238
-54 -14 -63 69 -126 124 -138 123 -15 -1 -14 -5 2 -11 14 -6 25 -19 25 -30 0
-11 -10 -13 -23 -5 -15 9 -18 5 -9 -9 8 -13 22 -19 30 -14 31 19 202 -191 202
-246 0 -30 -78 44 -146 137 -27 37 -26 30 5 -26 61 -113 51 -153 -16 -62 -32
43 -91 114 -132 158 l-74 80 45 -80 c25 -44 62 -105 83 -135 23 -34 28 -51 11
-45 -14 6 -52 51 -83 100 -31 49 -67 96 -80 104 -13 8 -7 -10 12 -39 44 -68
45 -88 1 -52 -22 17 -17 2 13 -43 61 -89 70 -98 54 -54 -7 20 -4 31 6 24 19
-11 13 -125 -7 -144 -5 -6 -34 15 -64 47 l-55 57 43 -72 c54 -89 54 -97 4 -84
-22 6 -40 19 -40 30 0 10 11 12 24 4 13 -9 3 13 -21 48 -25 35 -51 64 -58 64
-7 0 -2 -11 11 -24 37 -37 28 -64 -10 -33 -19 15 -11 -4 17 -43 85 -117 87
-133 6 -60 -72 66 -71 63 19 -46 53 -64 91 -121 85 -128 -7 -6 -17 2 -24 19
-6 17 -49 60 -95 96 -83 65 -83 65 -33 7 101 -115 114 -137 69 -113 -22 12
-62 45 -88 73 -83 89 -91 57 -11 -43 73 -91 13 -58 -65 35 -14 17 -25 21 -25
11 -1 -11 37 -58 83 -105 92 -94 84 -109 -22 -45 l-68 42 68 -87 c64 -82 50
-79 -61 13 -60 49 -33 5 57 -94 61 -68 16 -77 -65 -14 -67 53 -69 21 -3 -41
28 -26 50 -54 50 -63 0 -36 -55 -14 -117 46 -35 34 -70 56 -78 48 -8 -8 -1
-25 15 -38 17 -14 55 -52 87 -87 70 -77 38 -105 -43 -36 -87 73 -103 61 -26
-18 70 -72 71 -129 2 -92 -54 29 -64 25 -42 -16 32 -60 -2 -85 -56 -41 -54 43
-65 160 -32 335 12 65 10 84 -7 74 -14 -9 -31 4 -42 32 -26 64 -26 11 0 -57
23 -61 9 -155 -21 -137 -11 7 -36 3 -56 -8 -32 -17 -45 -8 -81 57 -38 67 -54
78 -128 86 -47 4 -102 16 -122 25 -60 26 -27 -129 68 -320 83 -169 94 -201 56
-178 -15 9 -18 5 -9 -9 8 -13 24 -18 35 -11 12 7 45 -5 74 -27 98 -72 141 -75
204 -14 32 31 79 58 104 61 25 2 52 5 60 6 8 1 15 13 16 27 0 14 29 43 65 65
45 28 91 93 154 220 50 99 120 230 155 292 36 62 60 116 55 121 -5 6 26 30 70
55 44 24 80 53 80 63 0 35 154 52 430 49 154 -3 291 4 304 14 13 11 46 16 72
13 86 -11 198 133 134 173 -12 7 -7 31 12 61 23 34 28 66 17 104 -8 30 -13 76
-10 102 2 25 -12 64 -32 86 -21 24 -34 63 -30 95 6 60 -65 101 -347 202 -66
24 -133 48 -150 55 -16 6 -42 9 -56 7 -15 -2 -39 6 -55 19 -15 12 -36 17 -46
11 -23 -14 -127 37 -110 54 14 14 -53 14 -158 0 -53 -7 -75 -19 -75 -43 1 -29
3 -29 20 -3 15 24 19 19 20 -21 0 -50 -49 -139 -65 -119 -114 144 -122 197
-20 133 16 -10 25 -4 25 18 0 29 -13 32 -75 21 -104 -19 -112 -21 -135 -35
-11 -7 -42 -10 -70 -8 -30 3 -61 -10 -77 -33 -25 -36 -30 -33 -79 43 -49 74
-85 103 -83 66z m949 -245 c89 -49 61 -49 -128 -1 -136 35 -182 63 -132 81 44
16 136 -13 260 -80z m125 59 c49 -11 117 -41 152 -67 35 -26 111 -72 170 -101
59 -30 103 -57 99 -62 -16 -15 -232 70 -307 121 -41 27 -98 50 -127 51 -29 0
-72 17 -97 38 -53 44 -59 71 -12 52 19 -7 74 -21 122 -32z m186 -184 c68 -36
161 -99 207 -141 l82 -75 -100 48 c-135 66 -381 233 -343 233 17 0 86 -29 154
-65z m-179 -186 c133 -98 318 -307 317 -357 -1 -34 -15 -26 -75 47 -98 119
-173 194 -294 296 -122 102 -83 113 52 14z m-1507 -1029 c44 -44 91 -80 104
-80 13 0 17 -11 8 -25 -10 -18 -5 -17 18 2 64 52 133 -6 164 -137 l12 -50 -33
45 c-18 25 -47 45 -64 45 -25 0 -27 -5 -8 -24 13 -13 24 -38 24 -54 0 -20 -27
-3 -72 43 -40 41 -80 70 -88 65 -20 -13 -132 126 -159 197 -28 74 1 66 94 -27z"/>
<path d="M2534 5058 c-165 -96 -150 -465 29 -696 47 -60 47 -96 0 -111 -168
-53 -231 -327 -135 -586 21 -56 32 -151 32 -270 0 -102 6 -238 13 -302 14
-133 -18 -310 -73 -405 -54 -94 -66 -208 -30 -275 16 -32 30 -88 30 -125 l0
-68 396 198 c218 109 408 213 422 230 39 47 94 39 141 -21 42 -54 57 -119 21
-97 -11 7 -20 3 -20 -8 0 -36 46 -49 68 -19 18 25 142 97 165 97 4 0 8 -83 9
-185 1 -102 9 -239 17 -305 9 -67 11 30 5 216 l-10 336 49 -12 c33 -8 59 -2
76 18 14 18 34 27 43 21 24 -15 23 -89 -1 -89 -28 0 -51 -182 -24 -198 26 -16
25 -162 -1 -162 -26 0 -11 -281 16 -297 31 -18 47 -120 20 -131 -14 -6 -11
-16 8 -30 25 -17 30 -98 34 -476 2 -251 4 -486 5 -523 1 -102 50 -67 54 39 28
736 26 801 -26 1068 -48 242 -50 274 -29 460 24 217 27 517 4 390 -15 -79 -62
-32 -62 60 0 26 -10 40 -25 35 -14 -5 -34 3 -45 16 -14 17 -35 20 -65 8 -53
-21 -57 -44 -15 -86 33 -33 19 -50 -52 -63 -22 -5 -59 -14 -80 -21 -38 -12
-79 85 -60 141 8 22 4 158 -8 274 -4 41 -31 109 -61 150 l-54 76 59 -68 c33
-37 65 -60 72 -49 13 22 -52 176 -84 196 -12 7 -22 36 -22 63 0 28 -23 71 -53
99 -29 27 -48 55 -41 62 14 13 -84 97 -113 97 -10 0 -32 21 -50 48 l-31 47 59
-30 c32 -16 93 -36 134 -43 41 -8 75 -22 75 -33 0 -10 15 -19 33 -19 19 0 50
-15 70 -32 72 -66 137 -22 105 71 -15 44 -22 93 -16 109 13 33 -75 132 -152
172 -49 25 -49 25 -15 -14 19 -21 35 -52 35 -69 0 -16 13 -47 29 -68 17 -22
30 -69 30 -105 l1 -65 -57 42 c-31 23 -84 42 -119 43 -34 1 -58 9 -53 18 5 8
-1 22 -14 30 -14 9 -18 6 -9 -9 25 -40 -124 27 -168 76 -29 32 -86 68 -73 46
21 -35 -17 -32 -46 4 -20 24 -13 31 43 40 36 6 112 18 168 27 56 10 121 10
145 1 35 -13 43 -8 43 24 0 21 -7 39 -15 39 -8 0 -17 29 -20 65 -3 46 -25 82
-80 129 -96 83 -109 82 -212 -14 -192 -176 -542 -313 -505 -198 5 16 14 53 21
83 13 60 56 77 50 20 -2 -19 -2 -48 -1 -65 4 -48 41 19 42 75 0 25 9 45 20 45
11 0 21 16 21 35 1 25 7 20 21 -15 16 -40 23 -44 39 -20 22 36 4 104 -34 126
-47 27 -30 68 48 117 103 64 105 64 105 28 0 -18 14 -37 30 -44 44 -17 38 -33
-52 -148 -95 -120 -80 -123 44 -10 79 72 86 86 84 170 l-2 91 20 -75 c16 -61
29 -75 68 -75 53 0 52 48 -2 160 -13 28 -40 113 -59 190 -68 279 -230 405
-397 308z m213 -80 c65 -30 101 -265 61 -401 -20 -70 -218 -104 -218 -38 0 16
23 35 50 43 49 14 49 14 4 16 -26 1 -41 11 -34 22 7 11 37 15 66 9 46 -10 49
-8 18 11 -45 29 -126 17 -119 -17 10 -44 -23 -10 -64 67 -44 82 -22 118 65
103 34 -6 44 1 40 25 -4 18 -30 35 -61 38 -59 7 -70 38 -30 88 45 57 140 71
222 34z m128 -1163 c37 -29 10 -55 -61 -57 -35 -2 -48 -7 -29 -12 20 -5 30
-18 23 -29 -7 -11 7 -25 30 -31 54 -14 54 -14 -23 -93 -46 -48 -76 -63 -105
-55 -47 14 -53 66 -10 85 23 9 17 18 -25 38 -30 14 -55 33 -55 42 0 9 -20 18
-45 19 -32 2 -23 9 31 26 42 13 71 28 66 33 -6 6 8 12 31 14 57 4 72 23 36 46
-19 13 -6 15 41 6 39 -7 81 -21 95 -32z m265 -186 c0 -26 8 -52 18 -58 10 -6
13 8 7 32 -8 30 -3 40 17 33 15 -5 29 -33 30 -61 1 -29 11 -78 23 -109 28 -76
60 -243 83 -436 l20 -160 -7 200 c-8 220 22 203 43 -24 11 -119 -21 -306 -53
-306 -7 0 -35 52 -60 115 -26 63 -58 129 -72 145 -13 17 -31 59 -38 94 -8 35
-31 100 -53 145 -78 161 -76 467 3 447 25 -7 39 -28 39 -57z m-268 -52 c-38
-22 -38 -23 -1 -50 35 -26 35 -27 -2 -27 -29 -1 -32 -5 -13 -17 16 -10 -18
-16 -85 -16 -78 2 -111 10 -111 29 0 14 10 20 21 13 33 -20 162 10 147 34 -13
22 25 57 62 56 11 0 3 -10 -18 -22z m-143 -139 c-9 -15 -1 -18 23 -11 58 18
103 -17 56 -43 -21 -12 -31 -28 -23 -36 9 -9 26 -5 39 8 13 13 38 24 55 24 23
-1 18 -11 -15 -36 -54 -42 -37 -72 24 -40 41 21 41 21 6 -19 -20 -23 -52 -37
-71 -31 -22 5 -50 -11 -73 -41 -30 -41 -41 -45 -63 -23 -36 36 -35 61 2 31 22
-19 32 -16 49 15 18 34 14 37 -29 29 -30 -6 -49 0 -49 14 0 13 -9 18 -20 11
-30 -18 11 79 53 129 39 44 58 55 36 19z m276 -271 c-39 -16 -29 -47 10 -33
30 12 31 9 8 -19 -17 -22 -56 -33 -110 -32 -46 0 -127 -18 -180 -41 -53 -23
-106 -37 -117 -30 -11 7 30 30 92 51 61 20 141 55 177 77 36 22 83 39 105 38
22 0 29 -6 15 -11z m-118 -117 c-6 -16 -28 -30 -48 -30 -20 0 -50 -13 -66 -30
-17 -16 -40 -30 -52 -30 -11 0 -21 -10 -21 -21 0 -13 17 -16 40 -9 23 7 40 4
40 -9 0 -11 -18 -21 -40 -21 -22 0 -40 -9 -40 -20 0 -26 13 -25 63 2 22 12 35
33 29 49 -11 29 62 82 83 61 6 -6 -4 -17 -22 -24 -35 -13 -45 -48 -14 -48 10
0 32 14 48 30 17 17 44 30 60 30 17 0 37 10 45 23 10 17 -4 20 -49 11 -84 -17
-80 -2 9 36 81 34 134 40 88 10 -24 -15 -20 -20 20 -20 47 -1 46 -3 -15 -30
-71 -31 -88 -61 -26 -44 22 5 50 -3 63 -18 14 -18 15 -28 2 -28 -11 0 -24 10
-28 23 -5 14 -20 10 -43 -13 -34 -33 -33 -37 6 -74 l42 -38 -64 -89 c-65 -91
-90 -112 -70 -59 6 16 0 40 -14 53 -14 13 -24 47 -22 76 2 28 0 35 -5 16 -11
-44 -46 -26 -46 22 0 21 30 50 72 70 40 19 68 39 62 45 -17 17 -177 -72 -164
-91 6 -10 0 -25 -13 -33 -14 -9 -18 -6 -9 9 19 30 8 29 -86 -8 -43 -18 -104
-28 -135 -23 -55 8 -55 8 8 11 73 3 90 42 20 46 l-45 2 45 9 c53 10 60 59 10
72 -28 7 -26 10 8 12 23 1 53 15 67 32 13 16 33 24 44 18 10 -7 34 2 52 18 19
16 52 34 74 40 22 5 42 10 44 12 3 1 0 -11 -7 -28z m-67 -290 c12 -23 16 -50
10 -60 -18 -28 -90 14 -90 52 0 17 9 25 20 18 11 -7 20 -3 20 9 0 33 17 25 40
-19z m-100 -82 c0 -38 -4 -40 -34 -15 -30 24 -32 23 -20 -10 11 -28 7 -35 -16
-26 -21 8 -30 -2 -30 -35 0 -26 -13 -53 -29 -59 -20 -8 -25 -1 -17 21 9 22 5
28 -11 18 -14 -9 -23 -1 -23 22 1 58 33 93 93 101 31 4 60 12 65 16 17 17 22
9 22 -33z m780 -59 c0 -34 -6 -37 -41 -19 -43 23 -36 60 12 60 16 0 29 -18 29
-41z"/>
<path d="M2665 4856 c12 -38 67 -63 105 -49 28 11 30 19 10 43 -30 36 -127 41
-115 6z"/>
<path d="M4283 4980 c25 -33 52 -60 62 -60 10 0 -2 27 -25 60 -23 33 -51 60
-62 60 -11 0 1 -27 25 -60z"/>
<path d="M4005 4907 c-14 -6 -25 -22 -25 -35 0 -14 -22 -46 -50 -72 -27 -26
-50 -55 -50 -64 0 -10 -18 -37 -40 -61 -40 -43 -56 -107 -21 -86 11 7 33 -13
49 -43 17 -31 31 -46 31 -35 1 12 -12 39 -28 60 -38 50 -39 76 -2 62 20 -8 26
-1 18 23 -8 27 -3 26 23 -6 32 -39 32 -38 18 18 -11 46 -8 55 14 42 23 -13 23
-11 3 11 -35 37 -31 66 6 51 18 -6 26 -3 19 8 -7 11 -2 20 10 20 12 0 18 7 13
15 -12 20 39 66 56 49 7 -7 7 3 0 22 -7 19 -15 33 -16 32 -2 0 -14 -6 -28 -11z"/>
<path d="M4452 4770 c40 -60 81 -104 91 -98 16 10 -132 208 -155 208 -5 0 24
-49 64 -110z"/>
<path d="M4502 4825 c31 -48 138 -132 151 -119 11 12 -134 153 -158 153 -9 1
-5 -15 7 -34z"/>
<path d="M4324 4754 c98 -97 136 -115 136 -64 0 17 -13 30 -29 30 -16 0 -43
20 -60 44 -19 27 -31 34 -31 17 0 -19 -17 -13 -55 20 -30 26 -13 5 39 -47z"/>
<path d="M4007 4635 c2 -30 11 -55 21 -55 10 0 13 -6 6 -13 -16 -15 66 -167
90 -167 26 0 18 22 -53 160 -52 100 -66 117 -64 75z"/>
<path d="M4172 4660 c34 -68 130 -176 166 -185 51 -14 86 11 71 50 -12 32 -41
35 -83 9 -15 -9 -37 -1 -54 20 -83 100 -114 133 -100 106z"/>
<path d="M4300 4665 c0 -36 55 -90 77 -77 13 8 19 23 12 33 -17 28 -89 63 -89
44z"/>
<path d="M2104 4616 c-15 -15 -17 -31 -3 -47 31 -38 1 -96 -34 -66 -22 18 -40
17 -79 -4 -43 -23 -53 -23 -69 2 -15 24 -21 21 -31 -16 -15 -55 -48 -59 -62
-6 -11 44 -59 69 -77 40 -6 -11 -20 -15 -30 -9 -9 6 -33 3 -53 -8 -90 -47
-345 -122 -466 -136 -167 -20 -232 -75 -147 -123 30 -16 29 -20 -10 -32 -58
-19 -54 -67 8 -95 37 -17 68 -18 106 -3 57 21 103 15 103 -13 0 -10 -16 -16
-36 -15 -114 9 -219 -105 -125 -135 48 -15 184 9 171 30 -5 8 37 35 93 60 79
33 97 48 75 63 -21 15 -18 17 13 8 26 -7 76 11 137 50 103 65 116 99 20 52
-135 -67 -313 -114 -342 -90 -23 19 -23 27 -2 40 19 12 15 17 -14 17 -33 1
-35 4 -10 20 17 11 48 19 70 19 33 0 35 -3 10 -19 -68 -44 85 5 248 79 105 48
152 43 152 -16 0 -21 14 -50 31 -64 17 -14 26 -38 20 -53 -6 -15 4 -33 21 -39
25 -10 21 -22 -24 -69 -65 -68 -279 -220 -292 -208 -4 5 -39 -18 -77 -50 -76
-66 -44 -135 50 -109 98 28 152 56 145 77 -5 12 50 83 120 159 70 75 136 158
147 185 10 26 27 46 39 43 11 -3 40 27 64 65 40 63 40 67 5 39 -36 -28 -138
-79 -160 -79 -5 0 -9 9 -9 20 0 11 12 20 26 20 15 0 52 27 84 60 62 65 141 40
117 -37 -11 -37 16 -8 67 70 21 33 24 33 25 3 0 -18 -13 -47 -30 -64 -17 -18
-26 -40 -20 -50 6 -11 3 -25 -9 -32 -11 -7 -20 -4 -20 7 0 11 -13 18 -28 15
-46 -6 -95 -57 -83 -86 22 -59 -224 -360 -277 -339 -31 11 -52 -26 -52 -89 0
-43 75 -53 139 -18 29 15 39 11 47 -20 11 -44 56 -51 115 -19 27 14 39 14 39
0 0 -27 74 -27 91 0 8 14 21 14 41 -2 21 -18 35 -18 56 -1 21 18 30 16 39 -7
15 -39 61 -40 92 -2 13 16 37 24 52 18 18 -7 29 2 29 23 0 25 -11 32 -40 24
-31 -8 -40 0 -40 33 -1 35 -4 37 -20 13 -17 -27 -19 -27 -20 0 -1 27 -3 27
-20 0 -11 -16 -20 -21 -20 -10 0 11 -9 7 -20 -10 -17 -26 -19 -25 -20 5 0 34
-3 34 -50 3 -62 -40 -72 19 -18 102 36 55 73 195 48 180 -9 -6 -41 -73 -71
-149 -47 -119 -96 -181 -122 -155 -4 5 24 77 63 162 38 85 70 163 70 175 0 11
14 33 30 50 17 16 30 22 30 13 0 -9 19 16 43 54 27 44 47 60 52 43 5 -14 -1
-37 -13 -49 -31 -31 -28 -80 3 -61 18 10 17 5 -2 -18 -14 -18 -20 -43 -13 -56
21 -33 69 71 56 120 -13 50 24 54 54 6 19 -29 21 -26 11 19 -11 54 18 98 35
51 4 -14 14 -20 21 -13 48 44 -138 406 -214 414 -46 6 -51 12 -32 35 29 35 17
39 -17 5z m23 -164 c67 -5 101 -49 68 -88 -15 -18 -44 -23 -84 -15 -33 7 -81
14 -104 17 -66 6 -77 29 -36 75 21 24 49 35 68 28 17 -7 56 -15 88 -17z m-460
-45 c15 -16 -129 -119 -154 -111 -10 3 -84 -9 -164 -27 -213 -47 -249 -26 -47
28 95 25 203 62 240 82 76 41 105 47 125 28z m232 -46 c15 -27 14 -43 -2 -53
-14 -8 -18 -5 -10 8 25 40 -21 43 -57 4 -20 -22 -48 -40 -61 -40 -42 0 -19 68
33 95 64 33 73 32 97 -14z m368 -49 c13 -34 -46 -61 -73 -34 -10 10 -12 28 -5
40 19 31 65 27 78 -6z m-879 -232 c-23 -23 -148 -63 -148 -48 0 12 121 66 149
67 11 1 10 -8 -1 -19z m629 -35 c24 -45 -130 -323 -194 -352 -59 -26 -75 -4
-36 51 17 25 63 91 102 146 39 55 71 120 71 145 0 54 31 59 57 10z"/>
<path d="M4121 4624 c-1 -15 -11 -20 -24 -12 -15 9 -18 5 -9 -9 8 -13 25 -18
37 -10 14 9 17 2 9 -19 -7 -18 -4 -38 7 -45 11 -6 38 -48 61 -92 22 -45 45
-76 51 -71 15 15 -54 154 -76 154 -11 0 -15 7 -10 15 5 9 -3 38 -18 65 -15 28
-28 38 -28 24z"/>
<path d="M1820 4580 c-20 -37 -16 -40 49 -35 81 6 84 10 36 47 -48 36 -60 35
-85 -12z"/>
<path d="M3954 4534 c-7 -19 -3 -34 9 -34 12 0 16 -13 10 -30 -7 -16 -2 -30 9
-30 11 0 14 -11 6 -25 -10 -19 -8 -19 10 -3 19 18 18 37 -3 90 -22 53 -30 60
-41 32z"/>
<path d="M3731 4462 c-21 -35 -28 -155 -10 -183 21 -33 23 -24 27 106 2 100 1
106 -17 77z"/>
<path d="M3860 4475 c0 -9 9 -31 19 -50 38 -68 125 -296 144 -377 27 -115 85
-176 138 -143 42 27 52 55 18 55 -14 0 -14 12 0 38 15 28 11 48 -20 83 -21 25
-39 58 -39 73 0 16 -7 24 -16 19 -8 -6 -15 14 -15 43 1 33 -9 52 -24 49 -13
-3 -38 24 -53 60 -40 88 -111 174 -112 135 -1 -27 -3 -27 -20 0 -11 17 -20 23
-20 15z"/>
<path d="M4151 4268 c-46 -34 -41 -39 54 -56 85 -16 95 3 29 51 -39 28 -51 29
-83 5z"/>
<path d="M3791 4195 c18 -58 57 -83 66 -44 7 34 -31 89 -61 89 -10 0 -12 -20
-5 -45z"/>
<path d="M1682 4127 c-89 -62 -284 -148 -306 -134 -13 8 -16 4 -8 -10 8 -13 3
-24 -12 -25 -159 -9 -304 -140 -188 -169 35 -9 88 6 175 49 78 40 139 58 166
50 39 -11 39 -11 5 16 -35 26 42 101 203 195 16 9 24 27 20 39 -5 15 -23 12
-55 -11z"/>
<path d="M3430 3474 c37 -22 78 -64 214 -221 30 -35 55 -52 55 -39 1 13 -10
35 -24 50 -14 14 -50 60 -81 101 -31 41 -82 89 -114 105 -68 35 -108 38 -50 4z"/>
<path d="M3478 3308 c20 -43 44 -114 52 -158 11 -60 18 -71 28 -43 10 27 23 8
49 -75 19 -61 43 -116 53 -122 10 -6 5 23 -11 64 -33 83 -5 56 55 -53 19 -33
45 -61 59 -61 19 0 20 5 1 24 -31 31 -32 103 -1 84 13 -8 19 -3 13 14 -5 15
-27 31 -48 34 -25 3 -72 62 -127 155 -105 177 -184 266 -123 137z"/>
<path d="M3471 3065 c14 -30 21 -81 27 -180 1 -14 16 -25 32 -25 40 0 39 80
-4 169 -33 70 -85 104 -55 36z"/>
<path d="M3507 2380 c0 -82 3 -116 8 -75 4 41 4 109 0 150 -5 41 -8 8 -8 -75z"/>
<path d="M3260 2467 c-16 -6 -220 -97 -453 -203 l-423 -192 -9 -201 c-11 -229
-205 -766 -331 -915 -40 -48 -17 -93 66 -127 38 -16 70 -37 70 -47 0 -9 41
-56 90 -104 61 -59 90 -104 90 -139 0 -152 435 -199 695 -74 35 17 53 15 80
-9 96 -83 485 -53 485 37 0 45 18 56 76 48 121 -16 160 76 101 237 -31 82 -56
216 -88 458 -59 463 -114 690 -257 1069 -29 74 -45 136 -37 136 26 3 -63 36
-95 36 -16 0 -43 -5 -60 -10z m-20 -247 c8 -13 11 -41 6 -61 -11 -40 44 -332
75 -404 24 -54 15 32 -26 255 -15 77 -20 167 -13 200 7 33 14 53 16 44 1 -9
20 -135 43 -279 22 -144 62 -444 89 -668 27 -224 63 -462 81 -530 26 -101 27
-126 5 -140 -40 -25 -76 -20 -89 13 -6 16 -19 30 -29 30 -9 0 -11 -15 -4 -32
10 -26 3 -30 -31 -19 -27 9 -43 5 -43 -10 0 -16 -14 -15 -45 6 -27 17 -61 23
-85 15 -27 -10 -44 -5 -51 15 -10 26 -15 26 -42 -1 -29 -29 -36 -26 -74 22
-24 29 -43 42 -43 28 0 -17 -16 -14 -53 10 l-54 35 34 -51 c33 -51 33 -51 -37
-73 -38 -12 -70 -14 -70 -4 0 9 -25 12 -55 6 -137 -26 -188 -23 -174 11 50
128 33 186 -36 122 -52 -49 -79 -43 -97 21 -8 27 -15 37 -16 23 -4 -49 -74 11
-105 90 -32 81 -28 155 5 103 11 -17 13 -2 5 38 -7 38 -4 65 8 65 11 0 26 45
33 100 14 104 40 129 62 60 7 -22 20 -40 30 -40 24 0 13 170 -13 203 -25 31
17 154 46 137 9 -5 20 19 23 55 4 36 17 65 30 65 14 0 12 8 -6 20 -17 11 -20
20 -7 20 14 0 19 17 12 43 -7 27 -4 38 9 30 12 -7 26 18 34 62 7 41 29 97 49
123 l37 48 14 -75 c8 -41 13 -139 12 -218 -4 -224 -1 -276 16 -265 9 5 13 129
9 274 -7 294 -1 336 45 298 25 -20 30 -19 30 10 0 21 11 30 28 23 16 -6 34 2
40 18 14 36 101 25 104 -13 1 -15 4 -32 7 -38 14 -30 12 -100 -4 -100 -9 0
-12 -8 -6 -18 6 -10 2 -43 -9 -73 -17 -43 -15 -51 6 -43 30 11 30 11 39 -146
3 -60 12 -120 20 -132 8 -12 6 -48 -3 -80 -9 -32 -9 -78 0 -103 9 -25 8 -49
-3 -56 -11 -6 -14 -20 -8 -31 7 -11 14 -118 17 -239 3 -120 10 -224 16 -230
39 -39 36 716 -5 1148 -12 125 -18 231 -13 236 11 11 76 -147 84 -203 12 -89
38 -158 73 -193 47 -47 47 -35 -2 67 -22 45 -35 89 -29 99 6 9 3 28 -6 42 -19
31 -64 193 -65 238 -1 41 134 38 159 -3z m271 -860 c7 -82 19 -163 27 -180 8
-16 14 -64 13 -105 0 -41 6 -75 15 -75 9 0 11 -9 4 -20 -7 -11 -6 -31 2 -44
15 -23 16 -51 9 -201 -8 -154 -53 68 -71 345 -10 168 -50 492 -70 574 -9 35
-10 69 -3 76 17 18 58 -185 74 -370z"/>
<path d="M2491 1501 c-24 -26 -31 -52 -20 -75 8 -20 16 -43 17 -51 1 -8 9 -15
17 -15 8 0 14 6 13 13 -1 7 11 21 25 31 22 16 22 21 1 30 -20 7 -17 17 10 40
34 28 34 29 -2 17 -32 -10 -34 -7 -12 19 37 45 -8 37 -49 -9z"/>
<path d="M2452 945 c17 -68 28 -83 28 -37 0 19 9 29 20 22 11 -7 20 2 20 20 0
18 -9 27 -20 20 -11 -7 -20 -3 -20 9 0 11 -9 21 -20 21 -12 0 -15 -22 -8 -55z"/>
<path d="M2070 2068 c-154 -72 -350 -163 -435 -202 -87 -41 -149 -80 -141 -92
7 -11 2 -14 -10 -6 -23 14 -227 -105 -253 -146 -8 -13 4 -22 29 -22 23 0 38 7
32 17 -15 24 480 250 548 250 32 0 54 6 50 14 -5 7 13 11 41 8 27 -3 49 4 49
15 0 11 14 15 30 9 17 -7 30 -2 30 9 0 11 9 15 20 8 11 -7 20 -2 20 10 0 12 9
17 20 10 11 -7 20 -2 20 10 0 12 9 17 20 10 11 -7 20 4 20 24 1 30 4 31 20 6
14 -22 19 -23 20 -4 0 15 9 21 20 14 11 -7 20 2 20 20 0 18 9 27 20 20 11 -7
20 -4 20 5 0 10 23 30 50 45 33 18 43 32 28 41 -15 10 -11 21 15 36 122 71
-61 5 -303 -109z"/>
</g>
</svg>
