<?xml version="1.0" standalone="no"?>
<!DOCTYPE svg PUBLIC "-//W3C//DTD SVG 20010904//EN"
 "http://www.w3.org/TR/2001/REC-SVG-20010904/DTD/svg10.dtd">
<svg version="1.0" xmlns="http://www.w3.org/2000/svg"
 width="300.000000pt" height="276.000000pt" viewBox="0 0 300.000000 276.000000"
 preserveAspectRatio="xMidYMid meet">
<metadata>
Created by potrace 1.10, written by Peter Selinger 2001-2011
</metadata>
<g transform="translate(0.000000,276.000000) scale(0.050000,-0.050000)"
fill="#000000" stroke="none">
<path d="M4282 5358 c-60 -59 -78 -98 -47 -98 8 0 37 -6 63 -13 45 -12 47 -9
36 50 -10 48 -6 63 17 63 16 0 29 14 29 30 0 46 -31 36 -98 -32z"/>
<path d="M3740 5290 c-20 -24 -20 -47 1 -115 14 -47 26 -130 26 -186 0 -82 6
-100 35 -100 19 0 31 5 27 13 -4 7 10 29 32 49 24 22 35 50 28 72 -28 89 9
123 74 67 33 -27 71 -44 84 -37 13 7 16 6 8 -3 -15 -17 57 -90 89 -90 10 0 12
-10 5 -22 -10 -16 -19 -14 -31 5 -14 22 -17 21 -17 -3 0 -45 32 -87 55 -73 11
7 25 -1 31 -17 13 -34 53 -41 53 -9 0 12 -9 16 -20 9 -11 -7 -20 9 -20 37 0
27 -5 64 -12 81 -15 38 51 45 87 9 12 -12 56 -24 97 -25 42 -1 79 -13 83 -28
6 -18 -5 -22 -41 -13 -50 12 -96 -23 -62 -48 10 -7 18 -26 18 -43 0 -16 17
-33 38 -37 52 -10 197 150 181 200 -11 34 8 47 56 39 8 -1 15 8 15 20 0 14
-19 18 -50 10 -100 -25 -216 8 -178 51 44 48 27 47 -61 -5 -39 -23 -66 -50
-60 -60 24 -39 -123 -7 -171 37 -27 25 -81 67 -120 92 -38 25 -106 70 -151
100 -95 62 -96 62 -129 23z"/>
<path d="M4503 5138 c-14 -23 -22 -46 -17 -50 16 -17 75 17 95 54 30 55 -43
51 -78 -4z"/>
<path d="M3671 5009 c-21 -16 -54 -29 -73 -29 -35 0 -118 -97 -118 -137 0 -39
58 -1 64 42 10 70 56 66 56 -4 0 -46 -12 -67 -45 -80 -25 -10 -33 -19 -18 -20
16 0 22 -13 15 -31 -7 -16 -18 -45 -25 -63 -10 -24 -7 -29 12 -17 17 10 39 -1
63 -32 l37 -48 1 46 c0 26 9 41 20 34 12 -7 15 11 7 49 -7 34 -4 61 7 61 29 0
23 57 -6 68 -29 11 -8 114 34 164 29 36 19 35 -31 -3z"/>
<path d="M4740 5032 c0 -25 64 -155 72 -146 12 11 -45 154 -61 154 -6 0 -11
-3 -11 -8z"/>
<path d="M748 4954 c-52 -17 -62 -31 -60 -76 2 -52 32 -110 32 -63 0 12 11 34
25 49 112 121 112 126 3 90z"/>
<path d="M3921 4861 c-31 -57 -26 -81 19 -81 31 0 40 13 40 60 0 68 -29 79
-59 21z"/>
<path d="M3760 4828 c0 -39 -34 -153 -67 -224 -14 -30 -14 -57 -2 -77 27 -43
57 -43 66 0 4 24 -1 33 -15 24 -27 -16 -29 31 -4 93 41 101 49 127 53 161 2
20 -4 41 -14 47 -9 6 -17 -5 -17 -24z"/>
<path d="M1110 4669 c-51 -72 -114 -167 -139 -211 l-46 -81 -127 105 c-71 57
-156 136 -190 174 -34 39 -67 62 -73 51 -13 -19 254 -431 287 -444 10 -3 19
-21 19 -40 1 -24 8 -20 24 14 20 40 16 52 -26 86 l-49 39 64 -31 c80 -39 98
-39 66 -1 -32 38 -6 39 31 1 33 -32 39 -59 9 -41 -11 7 -20 3 -20 -9 0 -11 11
-21 24 -21 19 0 19 -5 0 -24 -13 -13 -23 -42 -22 -65 2 -34 4 -35 12 -6 8 32
12 32 40 4 17 -17 36 -25 43 -17 7 7 2 18 -12 22 -14 5 -20 18 -14 28 22 36
49 -5 49 -73 0 -72 -16 -85 -56 -45 -13 13 -29 18 -35 12 -19 -19 112 -156
149 -156 19 0 52 -13 73 -29 35 -26 30 -26 -46 -7 -47 11 -85 29 -85 40 0 10
-10 12 -21 5 -12 -7 -17 -18 -11 -24 15 -14 -113 -124 -131 -113 -24 15 -77
132 -67 148 5 9 -2 20 -17 26 -40 16 -56 94 -19 94 46 0 29 23 -171 229 -198
205 -220 218 -176 109 15 -37 47 -149 71 -249 51 -208 73 -254 100 -211 22 34
82 14 82 -27 0 -17 8 -31 18 -31 16 0 102 -128 102 -151 0 -4 -12 -3 -27 3
-15 5 -38 -4 -52 -21 -28 -34 -71 -43 -51 -11 21 35 -16 22 -61 -21 l-44 -41
-14 96 c-14 99 -307 745 -338 746 -10 0 -11 -25 -3 -55 41 -157 69 -375 69
-540 1 -148 7 -185 30 -185 95 0 156 -73 160 -190 1 -28 14 -40 46 -38 53 1
54 -5 13 -72 l-30 -50 12 50 c11 45 6 43 -61 -27 -50 -52 -69 -89 -62 -116 5
-22 -7 -77 -28 -123 -21 -46 -38 -104 -39 -128 0 -59 -34 -76 -91 -46 -73 40
-101 14 -165 -154 -97 -254 -100 -325 -5 -142 93 179 104 188 168 146 91 -59
105 -230 45 -550 -6 -27 -18 -108 -28 -180 -23 -165 -123 -642 -142 -676 -33
-59 68 -523 121 -556 24 -15 21 13 -13 145 -75 289 2 719 91 504 14 -34 69
-134 122 -222 125 -209 170 -333 197 -548 30 -232 138 -689 173 -726 34 -37
34 -37 -12 224 l-37 215 58 186 c31 102 92 243 134 314 42 72 101 173 132 225
108 189 255 236 376 121 l54 -51 -49 -97 c-27 -53 -43 -109 -37 -125 6 -17 -7
-71 -29 -120 -44 -100 -14 -218 61 -244 115 -39 166 -189 76 -223 -84 -32 -80
-69 5 -43 36 11 80 25 99 31 44 13 67 83 38 112 -12 12 -22 36 -22 54 0 17
-17 65 -37 105 -42 81 -24 113 94 174 25 13 55 50 66 82 33 95 154 119 339 67
l114 -32 -19 -67 c-10 -36 -22 -101 -27 -143 -26 -213 -36 -262 -69 -338 -47
-107 -238 -271 -346 -298 -58 -14 -93 -37 -114 -74 -33 -60 -18 -95 27 -58 16
13 77 27 135 31 65 4 146 27 204 59 85 44 113 49 215 39 131 -14 139 -5 86 98
-27 50 -28 70 -9 101 17 28 18 45 3 60 -35 35 -25 125 17 163 29 26 36 51 28
93 -10 50 -6 58 31 58 37 0 40 6 22 40 -27 51 24 78 72 38 28 -23 30 -17 17
48 -17 95 9 94 65 -3 43 -75 43 -77 6 -115 -21 -21 -43 -65 -50 -98 -10 -46
-8 -53 8 -30 16 22 21 -7 22 -116 0 -129 4 -146 35 -140 19 4 45 -6 58 -22 37
-50 127 2 127 73 l-1 55 -24 -48 c-59 -115 -105 -24 -55 108 26 69 44 55 134
-111 76 -139 93 -153 142 -122 21 13 6 51 -63 165 -75 123 -86 153 -65 178 14
16 37 59 51 95 36 90 69 107 52 28 -11 -49 -7 -63 15 -63 22 0 33 30 41 105
16 155 21 175 44 191 11 8 33 52 48 99 19 59 39 85 64 85 50 0 48 -11 -33
-171 -82 -163 -78 -149 -38 -149 32 0 32 -23 -1 -104 -11 -27 -6 -31 31 -21
41 11 43 6 32 -62 -7 -44 -4 -69 7 -62 11 6 19 -7 19 -29 0 -22 -9 -45 -19
-51 -11 -7 -15 -25 -9 -40 6 -15 1 -33 -11 -41 -13 -8 -17 -40 -10 -79 7 -37
3 -86 -10 -108 -19 -38 -14 -45 49 -72 46 -19 70 -42 70 -68 0 -51 199 -93
226 -48 9 14 25 21 35 14 35 -21 20 44 -21 93 -161 194 -155 181 -156 322 0
106 6 131 28 123 23 -9 23 0 5 54 -19 52 -18 69 5 87 16 12 25 44 21 70 -5 37
1 45 27 35 24 -10 30 -4 22 22 -9 32 -18 208 -14 290 6 118 782 -9 813 -134
16 -63 44 -66 53 -6 6 41 11 38 44 -25 119 -224 465 -540 591 -540 166 0 -181
436 -465 584 -57 30 -90 55 -73 55 17 1 42 -10 55 -23 50 -50 20 9 -91 178
-63 97 -132 214 -153 261 -43 96 -75 112 -62 30 64 -390 68 -377 -83 -335 -64
18 -227 38 -362 44 l-245 11 -20 73 c-29 105 -25 162 11 162 23 0 28 12 19 40
-11 33 -4 40 41 40 88 0 188 59 201 117 6 29 15 64 19 77 3 13 61 39 128 57
153 43 290 158 324 270 30 103 24 105 204 -83 170 -177 201 -233 183 -326 -18
-95 44 -9 71 97 91 361 210 381 547 92 353 -303 475 -527 492 -901 1 -23 6
-21 23 7 15 26 15 92 -1 230 -12 106 -25 229 -30 273 -4 44 -22 148 -41 230
-56 245 16 901 103 934 90 35 222 -247 240 -511 15 -213 43 -164 44 77 0 191
-20 322 -56 362 -60 68 -330 475 -357 538 -16 39 -45 88 -64 110 -90 101 -221
390 -221 488 0 200 105 218 307 54 147 -120 143 -90 -10 81 -167 186 -215 209
-294 142 -34 -28 -55 -57 -47 -65 8 -9 -7 -4 -33 9 -26 14 -52 40 -57 59 -5
19 -121 137 -257 262 -137 126 -249 233 -249 240 0 6 -27 28 -61 47 -49 29
-56 42 -38 65 19 23 16 28 -19 28 -23 0 -42 13 -42 29 0 16 -18 39 -40 51 -59
31 -54 -45 5 -87 39 -27 40 -31 9 -32 -20 -1 -76 26 -124 59 -48 33 -97 60
-109 60 -11 0 -21 10 -21 21 0 12 -9 16 -20 9 -28 -18 -25 -89 5 -101 14 -5
53 -12 87 -16 92 -10 116 -30 84 -68 -23 -28 -20 -30 19 -20 28 7 45 2 45 -13
0 -13 26 -39 58 -58 32 -18 78 -72 102 -119 l44 -85 -43 39 -44 40 13 -53 c15
-60 -41 -176 -84 -176 -14 0 -26 -8 -26 -19 0 -37 40 -42 98 -12 69 35 110 40
92 11 -17 -27 -1 -25 83 10 105 44 116 37 49 -28 -50 -49 -82 -61 -196 -72
-75 -7 -152 -18 -171 -23 -26 -7 -32 -1 -23 27 6 20 -18 2 -53 -40 -35 -42
-92 -90 -127 -107 -41 -21 -54 -23 -37 -5 35 36 31 52 -15 64 -22 6 -40 19
-40 29 0 24 210 165 245 165 29 0 128 119 153 185 18 48 -39 155 -83 155 -12
0 -39 15 -59 34 -22 19 -68 33 -107 32 -38 -1 -69 7 -69 19 0 11 -22 -3 -50
-33 -52 -56 -62 -102 -32 -149 13 -21 19 -18 31 10 17 45 13 59 -12 52 -11 -4
-14 3 -7 15 28 45 64 14 95 -82 31 -97 31 -104 -7 -165 l-40 -63 14 125 c14
137 -9 166 -44 55 -12 -38 -15 -70 -7 -70 9 0 6 -29 -5 -65 -31 -96 -46 -122
-75 -131 -18 -6 -21 0 -10 18 9 14 15 54 13 87 -3 34 4 90 14 125 12 40 12 86
0 120 -18 55 -18 55 -9 -8 5 -36 1 -70 -10 -77 -11 -6 -19 -5 -17 5 6 37 -3
66 -23 66 -11 0 -19 -11 -18 -25 14 -101 -4 -277 -26 -269 -14 4 -23 28 -20
53 6 57 -28 121 -66 121 -16 0 -29 10 -29 22 0 13 -18 18 -40 12 -22 -6 -35
-3 -30 6 6 9 0 42 -13 73 -13 31 -22 64 -20 73 2 10 -6 11 -17 4 -20 -12 -16
-42 16 -130 10 -26 7 -26 -22 -3 -20 16 -34 56 -34 94 0 119 -32 90 -76 -67
-73 -264 -75 -291 -26 -260 23 14 33 29 22 33 -11 3 -20 19 -20 34 0 23 10 24
49 6 28 -13 46 -30 40 -38 -21 -35 116 -60 152 -28 21 19 40 24 47 12 7 -11 3
-26 -8 -33 -12 -7 -17 -29 -10 -49 12 -40 -36 -168 -56 -148 -8 8 -14 -5 -14
-27 0 -23 -13 -52 -30 -66 -16 -14 -30 -38 -30 -54 0 -15 -9 -23 -20 -16 -11
7 -20 2 -20 -10 0 -12 -9 -17 -21 -9 -44 27 -9 164 59 227 84 79 67 102 -77
102 l-118 0 -71 -128 c-40 -71 -107 -172 -149 -226 l-78 -99 -132 1 c-96 0
-142 -10 -169 -35 -22 -19 -53 -28 -71 -21 -39 15 -38 17 -13 -71 19 -68 -4
-133 -40 -111 -9 5 -21 -4 -28 -21 -13 -34 27 -56 82 -45 25 5 46 -14 70 -63
51 -106 43 -116 -32 -43 -65 63 -69 64 -81 24 -11 -34 -21 -38 -51 -22 -70 37
-77 20 -17 -40 62 -62 97 -76 97 -39 0 12 -10 15 -22 8 -15 -9 -14 1 2 31 l24
44 29 -57 c38 -74 74 -111 55 -57 -15 42 57 -24 142 -130 l40 -50 -44 37 c-25
21 -59 32 -76 26 -18 -7 -27 -5 -21 5 18 29 -118 121 -149 102 -23 -14 -23
-27 -2 -73 24 -53 21 -60 -51 -128 -76 -72 -104 -138 -60 -141 13 0 38 -4 56
-8 25 -4 41 18 60 82 14 50 33 80 43 70 10 -10 4 -44 -14 -79 -36 -68 -41
-103 -14 -103 9 0 22 27 29 60 8 39 24 60 47 60 26 0 29 5 10 24 -32 32 -30
57 3 44 16 -6 45 -44 65 -84 21 -41 47 -81 58 -89 11 -8 -10 -15 -46 -15 -37
0 -62 7 -57 15 5 9 -3 33 -19 54 -26 37 -28 35 -28 -20 0 -76 -90 -130 -107
-64 -7 26 -19 34 -36 23 -14 -9 -51 -14 -81 -12 -31 3 -56 -6 -56 -18 0 -16
-9 -16 -30 2 -16 14 -30 37 -30 52 0 16 -14 28 -32 28 -20 0 -28 11 -21 29 6
16 -8 52 -30 81 -50 63 -38 83 26 46 63 -35 80 -62 51 -80 -18 -12 -18 -15 0
-16 13 0 29 -18 36 -40 7 -22 25 -40 39 -40 17 0 23 15 17 40 -6 22 -22 40
-36 40 -42 0 -10 81 40 100 42 16 81 76 62 95 -18 18 -52 -18 -38 -41 8 -14 0
-13 -20 3 -28 23 -38 22 -65 -5 -39 -39 -57 -40 -88 -3 -70 85 -185 54 -234
-64 -15 -36 -34 -66 -42 -67 -63 -6 -96 -20 -103 -42 -15 -45 -125 -136 -149
-123 -17 10 -17 7 -1 -12 30 -31 160 -20 153 14 -3 14 5 25 17 25 12 0 17 13
11 29 -7 20 -1 25 19 18 18 -7 27 -2 24 14 -3 14 13 36 37 48 23 12 59 36 79
52 32 26 34 25 22 -6 -32 -85 42 -112 100 -36 19 25 22 13 18 -64 -3 -61 5
-104 21 -118 15 -12 27 -55 27 -94 l-1 -73 -41 64 c-27 42 -51 60 -72 52 -25
-10 -28 -1 -17 51 9 38 6 63 -6 63 -11 0 -27 21 -36 46 -17 45 -18 45 -94 -30
-68 -66 -72 -76 -35 -76 54 0 52 -17 -8 -85 -56 -63 -75 -67 -112 -23 -22 27
-21 37 12 60 21 15 29 28 18 28 -11 0 -31 -11 -44 -24 -20 -20 -34 -19 -69 2
-45 28 -45 27 -7 -15 42 -47 31 -55 -29 -23 -32 18 -36 15 -27 -15 10 -30 7
-30 -20 4 -35 42 -92 59 -92 28 0 -11 -14 -6 -31 12 -38 37 -111 41 -145 7
-19 -19 -24 -16 -24 11 0 20 9 30 20 23 25 -16 25 -10 -2 67 -16 45 -34 63
-65 62 -42 -2 -42 -2 3 -20 39 -15 47 -59 12 -59 -6 0 -4 10 4 23 10 16 -1 19
-37 10 -55 -14 -122 35 -71 53 14 5 -1 6 -34 2 -60 -6 -60 -6 -15 25 25 18 45
47 45 66 0 18 13 51 29 72 51 67 -7 218 -68 179 -10 -6 -24 -2 -31 10 -7 11
-1 21 14 21 14 1 8 10 -14 19 -22 9 -28 18 -14 19 15 0 21 10 14 21 -11 17 10
23 65 19 8 -1 12 -15 9 -30 -12 -59 39 -26 68 44 22 51 25 78 9 94 -11 11 -21
40 -21 63 0 87 -54 128 -80 61 -12 -33 -18 -76 -13 -96 5 -20 -1 -34 -14 -32
-45 8 -135 -49 -123 -79 8 -22 -2 -26 -39 -19 -29 5 -45 1 -38 -10 7 -12 -5
-14 -30 -6 -36 12 -43 6 -43 -38 0 -38 10 -51 41 -51 23 0 36 9 29 20 -7 11
-4 20 5 20 35 0 43 -26 21 -68 -21 -38 -20 -40 12 -14 32 27 34 22 28 -68 -7
-109 -56 -154 -56 -52 0 44 -10 62 -32 62 -27 0 -28 5 -8 30 36 43 -15 41 -64
-3 -20 -18 -43 -26 -51 -17 -8 8 -3 20 11 25 18 6 13 20 -18 47 -27 23 -53 31
-66 21 -13 -11 -51 -6 -92 10 -38 15 -50 24 -25 19 97 -18 38 27 -65 50 -61
13 -121 39 -134 56 -20 27 -20 28 4 7 15 -14 42 -25 59 -24 26 0 25 4 -4 21
-19 11 -35 33 -35 48 0 16 -22 49 -50 74 -41 39 -47 58 -37 122 14 83 53 90
64 12 7 -52 38 -98 65 -98 24 0 23 85 -1 147 -13 36 -12 53 5 60 13 5 3 11
-22 11 -26 1 -41 -7 -34 -18 17 -28 -6 -25 -37 4 -30 28 33 105 73 89 17 -7
16 -10 -2 -11 -15 -1 -21 -11 -15 -21 7 -11 25 -14 42 -8 19 7 30 -2 31 -26 7
-131 9 -137 41 -131 40 6 67 -28 37 -46 -36 -22 -21 -50 28 -50 66 0 114 -20
101 -42 -6 -10 4 -18 22 -18 18 0 51 -23 73 -51 48 -60 69 -52 37 14 -22 45
-22 45 8 8 17 -21 31 -46 31 -55 0 -9 9 -16 21 -16 11 0 6 27 -12 62 -23 45
-26 69 -11 84 28 28 29 74 2 74 -11 0 -20 -12 -20 -26 0 -50 -43 -74 -75 -41
-23 22 -25 35 -8 52 17 17 23 14 23 -11 0 -19 9 -34 19 -34 11 0 15 13 9 28
-6 15 8 65 31 110 41 80 34 107 -15 58 -19 -19 -24 -12 -24 30 0 46 9 54 55
54 52 -1 142 -39 92 -40 -80 -1 -68 -199 13 -217 16 -3 36 -16 44 -29 10 -16
17 -14 23 7 30 103 61 211 62 222 2 29 31 42 32 15 1 -16 8 -11 17 12 29 74 4
110 -79 110 -41 0 -79 -9 -82 -20 -4 -12 -37 6 -73 40 -91 82 -63 113 44 50
106 -62 96 -63 181 12 70 62 71 62 71 15 0 -26 14 -96 31 -157 17 -60 45 -164
62 -230 42 -159 55 -170 218 -178 77 -4 156 -8 176 -9 28 -2 35 -14 27 -44
-14 -53 87 -118 177 -115 72 3 247 -75 263 -117 12 -31 71 -35 121 -8 19 10
51 23 71 29 51 16 10 92 -43 79 -26 -7 -51 9 -80 49 -63 89 -52 101 20 23 35
-38 57 -58 49 -44 -12 20 -4 20 37 2 28 -13 51 -31 51 -40 0 -9 11 -17 24 -17
13 0 -2 27 -33 59 -31 33 -62 58 -69 58 -39 -5 -63 8 -82 43 -17 32 -15 37 10
27 16 -6 30 -1 30 11 0 31 32 27 67 -8 39 -39 66 -38 81 2 9 24 4 29 -19 20
-17 -6 -26 -3 -20 7 7 10 3 24 -9 31 -11 7 -20 2 -20 -11 0 -14 -13 -18 -35
-9 -19 8 -52 16 -73 17 -21 2 -43 16 -48 31 -7 20 1 24 24 15 19 -7 30 -6 25
2 -5 8 4 27 19 41 23 21 28 17 28 -25 0 -28 8 -51 18 -51 10 0 14 18 8 40 -6
22 -1 40 11 40 13 0 34 -18 48 -40 51 -82 107 -16 127 152 21 184 89 272 223
292 73 10 138 -41 118 -93 -15 -38 56 -42 130 -7 47 22 50 32 44 143 -8 138
-50 216 -67 123 -14 -77 -48 -83 -83 -16 -15 31 -58 98 -96 150 -63 87 -67
105 -63 227 7 184 -117 161 -168 -31 -13 -49 -12 -48 39 10 65 73 61 49 -32
-190 -100 -261 -180 -309 -206 -124 -51 348 -385 644 -581 516 -60 -40 -69
-84 -11 -53 128 69 267 -13 360 -211 76 -160 107 -287 52 -213 -18 25 -50 45
-71 45 -43 0 -100 71 -100 124 0 47 -8 46 -74 -16 -31 -29 -83 -66 -116 -83
-33 -17 -92 -55 -130 -86 -146 -114 -276 -61 -200 82 57 105 -51 45 -120 -67
l-35 -57 -46 77 c-26 42 -67 101 -93 132 -123 151 -191 301 -202 444 -15 216
-61 225 -194 39z m61 -177 c28 -28 23 -59 -26 -192 -6 -16 -12 -46 -14 -66 -3
-19 -14 -45 -27 -58 -16 -16 -20 -5 -14 43 6 46 1 62 -17 55 -42 -16 -37 109
7 181 45 73 52 76 91 37z m3176 -108 c-14 -52 -74 -61 -62 -9 4 19 18 33 31
30 13 -3 24 6 24 18 0 13 4 20 9 14 5 -5 4 -29 -2 -53z m-3005 -273 c22 -23
24 -172 3 -202 -34 -49 -79 -47 -74 3 3 26 -1 48 -10 48 -24 0 -121 96 -121
120 0 12 10 16 21 9 43 -26 114 10 130 66 13 47 17 49 24 15 5 -22 17 -49 27
-59z m-624 -51 c23 -44 38 -80 34 -80 -9 0 -112 156 -112 171 0 28 39 -18 78
-91z m2322 8 c0 -27 -14 -55 -31 -61 -42 -16 -46 -7 -25 69 20 73 56 68 56 -8z
m-2568 -218 c73 -73 67 -141 -9 -102 -49 26 -59 46 -70 136 -20 164 -12 247
11 120 12 -66 37 -124 68 -154z m2425 91 c-18 -52 -77 -124 -77 -95 0 15 82
154 91 154 4 0 -2 -26 -14 -59z m1893 39 c-7 -11 0 -20 15 -20 28 0 282 -302
337 -401 18 -32 36 -56 41 -53 4 2 1 -4 -6 -14 -16 -19 18 -90 59 -122 14 -11
27 -41 29 -65 2 -25 12 -45 21 -45 10 0 13 -14 6 -31 -6 -18 -3 -26 8 -19 11
7 20 -2 20 -19 0 -17 18 -46 39 -65 21 -18 34 -41 29 -50 -6 -9 -1 -16 10 -16
72 0 188 -323 128 -357 -27 -15 -34 -53 -37 -196 -2 -97 -11 -222 -20 -277
l-16 -100 -35 110 c-20 61 -36 143 -37 184 0 40 -12 85 -26 100 -69 73 -352
691 -383 836 -6 28 -74 130 -151 228 -130 163 -150 196 -143 237 1 8 -8 15
-19 15 -12 0 -17 8 -11 17 14 23 -73 13 -124 -15 -23 -12 -89 -30 -148 -40
l-106 -17 90 -4 90 -4 -110 -26 c-60 -15 -161 -38 -224 -52 -116 -25 -140 -54
-45 -54 28 0 72 -19 97 -43 25 -23 51 -37 58 -29 21 21 150 -268 175 -391 12
-61 53 -222 91 -356 65 -228 69 -259 64 -497 l-6 -254 -64 60 c-36 33 -69 55
-75 49 -6 -6 -11 -1 -11 10 0 24 -91 55 -141 49 -32 -4 -79 73 -79 129 0 17
-9 25 -20 18 -11 -7 -20 7 -20 30 0 26 10 40 25 35 14 -5 47 27 73 72 l48 80
37 -46 c20 -25 37 -57 37 -71 0 -14 11 -30 25 -35 49 -19 41 254 -9 298 -24
20 -36 26 -29 13 20 -34 -38 -139 -76 -139 -27 0 -36 19 -29 68 1 8 10 13 20
10 28 -8 21 18 -15 59 -40 43 -21 73 23 36 17 -14 36 -21 41 -15 6 6 -18 32
-53 58 -202 149 -246 215 -297 437 -45 200 -70 506 -37 454 9 -14 16 5 18 46
2 63 3 65 17 20 l14 -50 72 74 c60 63 73 69 84 41 12 -32 -33 -85 -73 -85 -9
0 -16 -9 -16 -20 0 -35 93 -21 130 19 19 22 53 46 75 52 62 20 175 103 160
118 -8 7 4 7 26 -1 21 -9 46 -25 55 -37 10 -14 27 -5 47 24 40 56 82 58 91 3
6 -40 7 -40 76 9 74 53 110 66 90 33z m323 -192 c0 -46 -38 -22 -98 64 -101
142 -101 159 -1 62 55 -53 99 -109 99 -126z m-2601 177 c38 -26 54 -126 18
-112 -16 6 -25 19 -19 28 5 9 -6 26 -26 37 -27 16 -28 21 -5 22 27 1 27 3 0
20 -16 11 -21 19 -10 19 11 0 30 -6 42 -14z m-1012 -63 c0 -69 -76 -111 -143
-78 -58 29 -61 34 -21 35 25 0 50 15 57 31 12 32 107 43 107 12z m1167 -12 c7
-16 35 -30 62 -30 31 0 51 -11 51 -28 0 -16 11 -33 25 -39 17 -7 15 -10 -5
-11 -17 -1 -42 -20 -55 -42 -20 -32 -20 -39 0 -35 14 3 30 16 35 29 7 17 20
15 49 -5 34 -25 34 -29 5 -29 -19 0 -34 -14 -34 -32 0 -19 -11 -28 -28 -22
-15 6 -34 6 -41 -1 -29 -29 -71 -19 -71 17 0 21 -13 38 -30 38 -16 0 -30 4
-30 8 0 5 -6 25 -14 45 -11 31 -9 33 17 12 16 -13 51 -20 76 -15 70 13 70 25
3 40 -34 7 -67 22 -74 34 -8 13 2 15 29 7 33 -11 40 -7 31 18 -7 17 -20 31
-30 31 -10 0 -18 9 -18 20 0 31 34 24 47 -10z m-392 -23 c25 -6 45 -24 45 -39
0 -17 21 -28 50 -28 28 0 50 -9 50 -20 0 -10 22 -25 48 -31 27 -7 53 -30 59
-52 8 -31 4 -35 -18 -16 -67 56 -97 10 -34 -53 85 -85 107 -201 44 -225 -38
-13 -60 -3 -127 62 -79 77 -115 76 -73 -3 24 -45 28 -142 6 -142 -8 0 -51 32
-95 70 -73 64 -75 68 -24 50 84 -30 85 -27 6 60 -45 51 -72 100 -72 135 -1
118 -35 110 -50 -11 l-14 -121 -96 69 c-146 105 -146 167 -1 245 109 58 206
75 296 50z m-573 -64 c-14 -25 -13 -44 1 -58 12 -12 17 -34 11 -48 -8 -18 -16
-12 -25 18 -8 25 -23 45 -34 45 -12 0 -5 18 15 40 45 50 57 51 32 3z m1931
-27 c-24 -68 -61 -111 -125 -148 -21 -12 -49 -44 -63 -72 -44 -89 -89 -114
-81 -45 4 39 -3 57 -18 54 -55 -11 20 90 85 116 59 22 66 33 56 78 -11 50 -11
50 21 11 33 -40 34 -39 77 15 57 73 77 70 48 -9z m-2392 -59 l49 -38 -95 13
c-90 12 -95 10 -95 -35 -1 -37 -4 -41 -20 -17 -40 63 46 207 89 148 13 -18 45
-50 72 -71z m3481 -117 c61 -82 127 -190 148 -240 21 -49 48 -103 60 -120 12
-16 37 -61 54 -100 18 -38 74 -159 124 -267 51 -108 92 -214 92 -236 0 -21 12
-63 27 -93 15 -30 39 -103 53 -164 13 -60 36 -137 49 -170 42 -102 87 -267 76
-279 -6 -5 -43 21 -83 60 -40 38 -80 67 -89 64 -9 -3 -34 27 -54 65 -21 39
-38 58 -38 44 -1 -15 -10 -21 -21 -14 -12 7 -16 21 -9 31 6 10 -3 13 -20 7
-18 -7 -31 -2 -31 14 0 19 -6 20 -23 3 -17 -17 -33 -16 -65 5 -38 24 -133 27
-212 8 -16 -5 -42 -24 -56 -43 -60 -80 -70 -39 -59 232 9 203 5 275 -14 295
-14 16 -37 73 -50 128 -13 55 -36 127 -51 160 -32 73 -90 335 -90 409 0 30
-17 70 -38 89 -149 135 -84 240 100 163 37 -15 67 81 45 144 -19 53 42 -15
175 -195z m-2886 92 c4 -41 -3 -86 -14 -99 -13 -17 -12 -40 5 -74 24 -49 3
-199 -28 -199 -19 0 -39 165 -26 214 6 23 1 48 -11 55 -12 7 -21 42 -20 77 l2
64 21 -65 c11 -36 28 -65 38 -65 24 0 21 95 -5 144 -17 32 -16 39 5 32 15 -5
30 -43 33 -84z m-859 55 c36 -10 45 -23 38 -60 -5 -26 3 -57 18 -69 37 -31 34
-97 -5 -112 -21 -7 -49 9 -79 46 -26 32 -48 51 -48 42 -2 -36 -61 46 -61 84 0
61 58 90 137 69z m2715 -136 c-7 -27 4 -125 25 -218 42 -190 41 -202 -56 -623
-53 -232 -255 -288 -397 -111 -67 82 -81 114 -40 89 13 -9 46 -16 72 -17 26
-2 56 -18 67 -37 26 -47 91 -43 118 8 31 58 84 240 72 251 -5 5 3 61 18 123
15 63 28 206 28 318 1 185 5 204 41 216 22 7 40 21 40 31 0 11 5 19 12 19 7 0
7 -22 0 -49z m-882 -71 c7 -11 3 -20 -8 -20 -11 0 -16 -13 -9 -30 8 -22 -3
-30 -40 -30 -65 0 -153 33 -153 58 0 33 191 53 210 22z m747 -275 c-12 -69
-43 -186 -69 -260 l-49 -135 11 140 c6 77 16 208 22 290 6 89 24 170 44 200
l33 50 14 -80 c8 -44 5 -136 -6 -205z m-246 98 c7 -20 17 -22 35 -6 19 16 34
2 60 -59 34 -79 28 -152 -8 -95 -13 21 -17 19 -18 -9 0 -52 -40 -21 -41 32 -1
66 -46 119 -76 89 -18 -18 -21 -8 -13 46 10 62 9 65 -13 24 -26 -51 -77 -61
-77 -15 0 17 9 30 20 30 27 0 99 74 103 105 2 14 7 -6 11 -45 4 -38 12 -82 17
-97z m-332 73 c23 -24 41 -51 41 -60 0 -30 -58 -16 -78 19 -12 19 -21 28 -21
19 -1 -9 -10 -11 -21 -4 -12 8 -10 23 5 40 32 36 27 37 74 -14z m81 -16 c25
-22 36 -40 23 -40 -13 0 -23 -7 -23 -17 0 -9 20 -15 45 -15 35 2 46 -11 52
-55 4 -41 -1 -53 -19 -42 -13 8 5 -27 40 -78 46 -67 77 -93 112 -93 26 0 53
-9 60 -20 7 -11 -2 -20 -19 -20 -17 0 -31 -10 -31 -22 0 -38 49 -7 95 61 51
75 61 49 15 -39 -16 -31 -47 -63 -69 -70 -44 -14 -147 44 -129 73 6 10 -17 51
-52 90 -35 40 -73 93 -84 119 -12 26 -29 42 -38 37 -8 -5 -21 -1 -28 11 -7 11
-3 20 9 20 29 0 27 86 -3 116 -39 39 -6 27 44 -16z m-896 -146 c10 -15 0 -26
-26 -31 -40 -6 -138 65 -138 101 0 22 145 -39 164 -70z m161 6 c42 0 84 -28
166 -112 122 -125 131 -148 60 -148 -67 0 -145 81 -101 105 25 14 21 25 -25
64 -58 50 -87 52 -48 4 24 -29 12 -93 -18 -93 -35 0 -40 40 -5 42 28 1 29 4 6
12 -43 16 -98 66 -146 135 l-43 59 49 -34 c27 -19 74 -34 105 -34z m723 -64
c40 -46 72 -94 72 -107 0 -39 180 -229 217 -229 58 -1 88 -32 74 -78 -13 -41
-131 -65 -131 -26 0 9 -30 31 -66 48 -74 36 -227 294 -206 348 6 17 4 25 -6
19 -10 -6 -28 16 -39 49 -29 83 1 75 85 -24z m861 -181 c36 -36 112 -104 168
-152 115 -96 134 -135 44 -91 -122 61 -152 52 -69 -22 43 -38 84 -69 92 -69 7
-1 6 -27 -4 -59 -9 -33 -12 -64 -6 -69 5 -6 -9 -5 -32 1 -32 8 -42 1 -42 -27
-1 -68 -37 -102 -66 -64 -28 36 -174 104 -190 88 -15 -15 35 -68 78 -82 62
-19 44 -64 -33 -78 -44 -8 -65 -21 -56 -35 7 -13 4 -17 -9 -9 -28 18 -243 -81
-257 -118 -6 -16 -19 -24 -29 -18 -10 6 -18 -3 -18 -20 0 -17 -13 -31 -30 -31
-16 0 -30 -9 -30 -20 0 -11 -10 -18 -23 -15 -13 3 -30 -17 -38 -45 -10 -33
-16 -38 -17 -15 -1 20 6 51 15 70 33 66 68 175 71 218 1 24 8 39 16 35 7 -5
19 10 26 32 7 22 25 40 40 40 15 0 42 20 59 45 19 27 54 45 92 47 78 4 84 12
62 71 -13 33 -11 64 6 96 18 33 28 39 35 19 8 -23 15 -24 42 -1 18 14 41 21
51 15 34 -21 86 10 64 37 -12 14 -16 30 -10 36 6 6 -14 30 -45 54 -55 44 -73
98 -53 166 13 47 19 45 96 -30z m-2528 6 c21 35 79 -9 79 -61 0 -37 -78 -148
-94 -133 -5 5 -11 62 -14 126 -2 64 -1 100 4 79 6 -29 12 -32 25 -11z m-881
-131 c-13 -39 -32 -70 -43 -70 -11 0 -16 11 -10 25 6 14 22 61 36 105 17 50
29 67 33 45 4 -20 -3 -67 -16 -105z m188 115 c9 -8 35 -15 59 -15 26 0 41 -11
37 -28 -4 -18 7 -24 35 -16 23 5 41 2 41 -8 0 -10 -7 -18 -16 -18 -9 0 -28
-47 -43 -105 -14 -58 -37 -132 -52 -165 -15 -35 -30 -182 -37 -350 -6 -159
-29 -398 -51 -529 -31 -180 -36 -257 -21 -310 21 -74 26 -354 5 -301 -6 17
-35 84 -65 150 -30 66 -70 170 -89 230 -19 61 -39 124 -46 140 -6 17 -9 39 -7
49 11 44 28 270 30 381 0 66 10 126 21 134 10 7 20 115 21 240 3 306 102 597
178 521z m497 -101 c4 14 10 -6 11 -44 2 -39 8 -92 14 -120 36 -171 52 -360
47 -570 -6 -220 -2 -248 42 -339 27 -54 49 -128 50 -163 1 -54 6 -61 35 -46
61 33 136 22 136 -20 0 -24 18 -41 50 -47 44 -8 49 -4 38 33 -30 98 -110 140
-167 87 -19 -18 -23 -18 -13 -1 7 13 -2 58 -20 100 -21 48 -42 196 -59 406
-15 182 -33 386 -41 455 l-14 125 53 -4 c62 -5 65 -12 18 -49 -33 -25 -33 -28
-1 -47 65 -39 97 -84 86 -119 -14 -45 38 -89 90 -75 33 9 51 -9 93 -93 29 -57
59 -107 66 -113 111 -79 170 -335 78 -339 -7 -1 -41 -56 -76 -124 -64 -127
-60 -156 21 -157 17 0 49 -19 70 -42 28 -31 56 -40 110 -34 69 6 72 4 56 -38
-10 -26 -9 -49 3 -56 43 -27 14 -91 -75 -167 -115 -99 -103 -126 23 -52 67 38
105 80 137 146 36 76 63 102 148 142 90 43 157 121 104 121 -33 0 -19 29 52
110 38 44 75 96 81 115 12 35 51 47 74 23 7 -7 2 -30 -11 -51 -19 -31 -18 -42
6 -57 54 -34 121 65 75 111 -7 7 -5 34 5 59 10 25 11 52 4 60 -8 8 5 9 29 2
24 -8 49 -4 56 7 8 12 1 16 -18 9 -17 -7 -31 -2 -31 10 0 12 4 22 8 22 5 0 23
5 40 12 50 19 39 -48 -18 -116 -46 -55 -44 -136 4 -136 7 0 7 6 0 12 -7 7 3
27 21 45 17 18 35 29 38 23 13 -21 62 73 74 141 13 67 10 72 -52 90 -79 23
-96 115 -23 125 50 7 77 -58 41 -97 -18 -18 -11 -22 29 -15 50 9 51 7 38 -66
-12 -66 -9 -77 25 -82 65 -10 -273 -295 -351 -296 -16 -1 -15 -6 3 -18 15 -9
20 -22 10 -27 -40 -25 -67 42 -32 77 25 26 27 32 5 25 -31 -11 -162 -237 -149
-258 4 -7 -46 -57 -112 -111 -167 -138 -139 -175 44 -57 40 26 78 41 85 34 15
-14 -106 -145 -134 -145 -10 0 -78 -28 -151 -63 -149 -71 -225 -79 -279 -30
-21 18 -50 33 -66 34 -15 0 -55 22 -88 49 l-60 49 50 91 c44 80 56 90 102 80
34 -8 67 1 100 28 l48 39 -98 42 c-96 41 -140 41 -98 -1 24 -24 -79 -138 -125
-138 -15 0 -37 36 -49 80 -26 96 -113 123 -95 30 7 -35 3 -45 -13 -33 -18 15
-152 16 -192 2 -5 -2 -17 -3 -25 -1 -8 1 -15 -8 -15 -19 0 -53 -133 -134 -234
-144 -13 -1 -20 -9 -14 -19 6 -9 19 -11 29 -5 11 6 19 3 19 -8 0 -11 -7 -23
-15 -26 -31 -14 -104 -122 -94 -139 6 -10 2 -18 -10 -18 -11 0 -20 -7 -19 -15
5 -30 -27 -105 -44 -105 -10 0 -19 25 -20 55 -1 30 -4 78 -8 105 -28 225 5
1184 44 1246 5 9 14 64 19 122 13 150 97 395 115 337 8 -25 25 -39 41 -33 15
6 39 -2 53 -18 29 -30 98 31 98 87 0 18 7 18 28 1 22 -18 30 -18 37 2z m1392
-330 c-26 -48 -72 -12 -72 55 0 48 1 48 45 15 36 -26 41 -42 27 -70z m524 -16
c12 -23 18 -46 12 -51 -5 -6 -20 8 -32 31 -12 23 -32 42 -44 42 -11 0 3 -41
33 -92 52 -88 53 -154 2 -84 -21 29 -42 32 -129 18 -94 -15 -103 -13 -103 22
0 80 39 121 104 108 44 -9 58 -5 50 14 -17 45 82 38 107 -8z m135 -78 c1 -47
-7 -60 -38 -60 -55 0 -73 60 -27 93 53 39 63 34 65 -33z m-1448 -30 c120 -53
123 -58 91 -141 -24 -65 -12 -84 31 -49 47 39 54 14 19 -70 l-32 -76 -34 50
c-18 27 -44 46 -57 42 -31 -11 -90 80 -75 118 6 17 -8 63 -32 103 -51 87 -54
86 89 23z m915 17 c22 -20 37 -24 37 -10 0 13 9 23 20 23 26 0 26 -52 -1 -102
-25 -47 -139 4 -139 63 0 64 31 73 83 26z m-354 -102 c-8 -30 -16 -115 -17
-188 -2 -144 -34 -203 -123 -226 -27 -6 -49 -21 -49 -33 0 -11 10 -14 23 -6
15 9 18 5 9 -9 -8 -13 -22 -19 -30 -14 -9 5 -33 -3 -54 -19 -35 -26 -35 -29
-3 -29 39 -1 43 -17 16 -60 -16 -25 -21 -23 -33 10 -8 21 -40 77 -71 123 -81
118 -77 130 121 328 189 188 237 217 211 123z m917 13 c-11 -11 -59 -26 -105
-32 -47 -7 -89 -23 -94 -37 -5 -14 -32 -23 -59 -20 -40 5 -44 0 -25 -23 13
-15 34 -24 48 -18 16 6 21 -4 14 -29 -10 -40 -45 -54 -45 -19 0 11 -16 20 -35
19 -33 0 -33 -2 0 -27 19 -14 35 -36 35 -49 0 -12 15 -16 33 -9 22 8 29 5 20
-9 -7 -12 2 -26 22 -31 27 -7 24 -10 -10 -12 -29 -1 -45 -15 -45 -37 1 -29 4
-30 19 -6 42 67 63 -75 28 -189 -12 -37 -14 -37 -30 7 -10 27 -9 61 3 83 32
60 22 74 -16 24 l-35 -46 -50 53 c-27 29 -37 49 -21 46 15 -4 30 2 35 14 4 11
-12 22 -35 24 -55 4 -62 12 -46 54 10 25 18 28 29 10 8 -13 25 -18 37 -10 31
19 27 51 -7 51 -33 0 -60 68 -41 105 7 14 0 9 -16 -10 -39 -48 -54 -44 -54 15
0 80 75 115 213 100 66 -8 139 -4 167 7 67 27 93 28 66 1z m834 -8 c0 -5 -35
-27 -78 -49 -114 -58 -291 -244 -353 -371 -29 -60 -61 -110 -69 -110 -9 0 -26
-27 -37 -60 -12 -33 -37 -66 -57 -72 -20 -6 -52 -20 -73 -31 -33 -17 -36 -11
-31 77 3 53 -6 121 -19 152 -27 67 -31 118 -5 77 16 -26 91 -4 122 36 6 7 33
29 60 48 l50 35 -55 -13 c-64 -15 -67 -6 -23 61 32 49 137 114 155 96 6 -5 -8
-42 -29 -80 -47 -84 -41 -96 31 -63 42 19 52 36 45 72 -7 36 3 54 38 70 27 12
48 32 48 45 0 13 47 38 105 55 111 32 175 41 175 25z m-798 -55 c1 -20 3 -20
11 0 13 32 47 12 47 -27 0 -17 -8 -25 -19 -19 -10 6 -24 2 -31 -9 -19 -30 -50
-4 -50 41 0 42 39 55 42 14z m749 -171 c-100 -139 -236 -214 -196 -108 12 34
198 262 235 288 54 40 26 -89 -39 -180z m-818 146 c6 -17 1 -43 -12 -59 -19
-22 -14 -30 23 -37 35 -6 30 -9 -19 -11 -54 -3 -65 -11 -63 -48 3 -76 30 -145
55 -140 13 3 23 -8 23 -23 0 -15 14 -33 30 -39 19 -8 30 0 30 21 0 49 22 17
29 -42 7 -70 -20 -65 -101 16 -37 37 -68 64 -68 59 0 -6 -13 4 -30 20 -39 39
-38 60 2 45 24 -9 29 -4 20 19 -6 18 -12 45 -12 61 0 15 -16 29 -35 30 -22 1
-14 9 21 22 51 18 53 22 22 45 -44 32 -23 91 32 91 23 0 46 -14 53 -30z m-600
-98 c-15 -40 -51 -41 -66 -2 -22 58 9 102 46 65 18 -17 27 -46 20 -63z m672
-101 c5 -29 0 -47 -13 -45 -50 9 -72 94 -24 94 15 0 32 -22 37 -49z m-383
-187 c2 -34 6 -41 12 -19 7 28 16 31 50 13 29 -16 34 -28 18 -44 -12 -12 -22
-47 -22 -78 0 -62 -32 -76 -46 -21 -5 19 -10 -14 -11 -75 -3 -125 24 -193 47
-121 7 24 9 49 3 55 -7 6 2 30 18 53 16 23 29 57 29 76 0 19 11 41 23 49 16
10 20 4 11 -19 -7 -18 -6 -33 2 -33 9 0 27 41 40 90 13 50 32 90 42 90 10 0 7
-43 -8 -95 -29 -108 -87 -245 -91 -215 -1 11 -13 -16 -27 -60 -15 -48 -36 -78
-52 -74 -22 5 -22 0 -2 -24 14 -17 21 -38 15 -47 -32 -52 -29 -225 4 -226 24
-1 21 -6 -11 -19 -25 -10 -51 -45 -60 -80 l-16 -61 -125 124 c-99 99 -131 146
-157 235 -18 62 -37 101 -42 87 -13 -34 -46 -32 -46 3 0 16 -11 32 -24 37 -15
5 -17 21 -6 46 9 22 15 46 13 54 -2 8 8 13 22 10 14 -3 23 12 21 35 -3 22 0
28 7 14 9 -21 17 -21 44 -1 18 14 8 -2 -24 -37 -35 -39 -48 -67 -35 -75 12 -7
22 -3 22 10 0 13 14 18 30 12 17 -7 30 -3 30 7 0 11 18 48 39 83 l39 65 20
-52 c33 -89 59 -84 39 8 -22 95 -7 165 24 115 10 -16 19 -60 19 -99 0 -112 39
-229 66 -202 17 17 17 33 -2 62 -13 22 -24 69 -24 105 -1 36 -8 97 -18 137
-17 75 38 152 67 92 6 -13 6 2 0 33 -7 36 -3 52 10 43 12 -7 22 -37 23 -66z
m-944 -94 c54 -103 42 -135 -72 -183 -103 -43 -106 -35 -53 123 59 176 63 177
125 60z m262 -88 c0 -52 -120 -122 -211 -122 -32 0 43 65 105 90 36 16 72 42
78 59 18 47 28 37 28 -27z m991 -9 c11 -44 -165 -506 -185 -486 -26 26 -24
115 4 126 30 11 74 142 100 297 21 123 59 152 81 63z m85 -251 c-4 -68 -15
-93 -41 -98 -36 -7 -55 189 -22 222 33 34 69 -37 63 -124z m-826 -47 c19 -108
19 -152 1 -219 -17 -62 -70 -92 -73 -40 -1 20 -5 24 -11 9 -6 -14 -25 -25 -44
-25 -23 -1 -26 -5 -9 -16 17 -11 18 -24 3 -45 -15 -22 -22 -23 -30 -4 -6 14
-21 19 -34 11 -73 -46 -107 -10 -65 70 42 82 84 113 99 75 7 -18 25 -25 43
-18 28 10 27 14 -3 36 -32 24 -30 43 11 111 10 17 27 55 39 85 31 78 56 68 73
-30z m704 -116 c-12 -61 -27 -94 -38 -83 -21 21 21 208 44 194 8 -5 5 -55 -6
-111z m-1505 -238 c13 -21 -50 -61 -96 -61 -19 0 -26 13 -19 40 11 42 93 57
115 21z m971 -54 c0 -16 9 -24 20 -17 29 18 23 -54 -8 -96 -25 -33 -30 -30
-70 37 -49 82 -52 102 -17 114 38 14 75 -6 75 -38z m1845 -80 c159 -101 404
-364 370 -399 -18 -18 -250 172 -338 277 -168 202 -170 209 -32 122z m-1592 7
c-3 -15 -24 -51 -48 -82 -24 -30 -49 -73 -56 -94 -6 -21 -20 -38 -31 -38 -25
0 39 123 80 154 20 16 23 25 8 25 -33 1 -9 61 24 61 15 0 25 -12 23 -26z"/>
<path d="M4840 2698 c0 -48 32 -98 63 -98 19 0 0 55 -36 109 -26 38 -27 38
-27 -11z"/>
<path d="M2645 1504 c14 -37 34 -68 45 -69 57 -8 148 -121 128 -159 -12 -22
-33 -34 -49 -29 -17 7 -23 1 -17 -16 6 -15 27 -22 47 -17 20 5 55 0 77 -12 54
-29 70 15 33 86 -15 29 -19 48 -8 41 10 -6 19 3 19 20 0 17 -10 31 -21 31 -12
0 -16 8 -10 18 15 24 -114 103 -173 107 -25 2 -57 17 -71 34 -21 25 -21 18 0
-35z"/>
<path d="M3973 4764 c-41 -45 -42 -64 -4 -64 15 0 34 19 41 42 19 56 3 66 -37
22z"/>
<path d="M4040 4767 c0 -31 56 -35 99 -8 26 17 26 20 0 28 -52 17 -99 7 -99
-20z"/>
<path d="M3780 4693 c0 -16 -5 -42 -10 -57 -6 -15 1 -43 15 -63 25 -34 27 -34
31 1 14 102 12 133 -11 141 -14 4 -25 -5 -25 -22z"/>
<path d="M3849 4555 c8 -47 16 -94 18 -105 3 -11 22 -41 44 -66 l39 -45 11 45
c6 25 24 46 40 46 16 0 28 11 27 25 -1 14 -3 62 -5 107 -3 71 -7 79 -33 58
-24 -20 -30 -20 -32 3 -1 15 -9 5 -18 -23 l-16 -50 -2 50 c-2 40 -7 44 -22 20
-13 -20 -19 -22 -20 -5 0 14 -10 25 -23 25 -15 0 -18 -27 -8 -85z"/>
<path d="M3387 4170 c-21 -56 27 -84 87 -50 72 41 69 69 -9 76 -46 5 -69 -3
-78 -26z"/>
<path d="M1975 3135 c-19 -19 -25 -35 -14 -35 12 0 17 -8 11 -17 -6 -10 10
-13 35 -8 76 14 127 -81 62 -115 -26 -14 -43 -33 -38 -42 5 -8 -6 -25 -26 -36
-31 -19 -30 -21 11 -21 26 -1 41 -9 35 -19 -6 -10 -29 -14 -51 -8 -24 6 -40 1
-40 -14 0 -15 -16 -20 -42 -14 -23 6 -37 6 -30 -1 6 -6 2 -22 -9 -36 -11 -14
-18 -34 -15 -45 3 -12 -12 -35 -34 -53 -23 -18 -27 -27 -10 -22 17 6 55 14 86
19 58 10 194 140 194 185 0 14 19 36 42 48 31 17 36 29 20 45 -30 30 -28 48 9
62 18 6 46 -2 63 -19 44 -44 77 -6 43 49 -21 33 -40 40 -87 31 -47 -9 -73 1
-120 45 -58 53 -62 54 -95 21z"/>
</g>
</svg>
