<?xml version="1.0" standalone="no"?>
<!DOCTYPE svg PUBLIC "-//W3C//DTD SVG 20010904//EN"
 "http://www.w3.org/TR/2001/REC-SVG-20010904/DTD/svg10.dtd">
<svg version="1.0" xmlns="http://www.w3.org/2000/svg"
 width="300.000000pt" height="273.000000pt" viewBox="0 0 300.000000 273.000000"
 preserveAspectRatio="xMidYMid meet">
<metadata>
Created by potrace 1.10, written by Peter Selinger 2001-2011
</metadata>
<g transform="translate(0.000000,273.000000) scale(0.050000,-0.050000)"
fill="#000000" stroke="none">
<path d="M1348 5051 c-6 -27 -7 -57 -1 -67 7 -10 1 -47 -12 -82 -29 -75 -15
-90 120 -125 56 -14 85 -33 85 -54 1 -18 18 -70 38 -115 41 -90 19 -239 -32
-219 -12 5 -34 -4 -47 -20 -13 -16 -30 -24 -39 -19 -23 14 -66 -45 -51 -69 8
-12 4 -21 -8 -21 -41 0 -18 -71 38 -114 l56 -45 11 71 c7 41 32 87 60 109 37
28 46 51 38 91 -14 74 31 45 68 -43 24 -57 23 -75 -1 -123 -16 -31 -34 -73
-40 -93 -10 -32 -16 -34 -43 -11 -37 30 -88 -19 -88 -85 0 -24 -10 -32 -30
-24 -20 7 -31 -1 -32 -26 -7 -128 0 -226 20 -262 28 -54 30 -109 2 -65 -16 26
-19 25 -20 -6 0 -19 16 -59 35 -89 29 -44 30 -51 4 -41 -24 9 -29 -2 -23 -56
5 -38 15 -68 24 -68 59 0 37 -109 -39 -191 -45 -49 -81 -75 -81 -59 0 17 7 30
15 30 13 0 59 77 99 163 3 7 -13 34 -36 60 l-41 47 13 -57 c9 -45 2 -64 -30
-87 -23 -16 -92 -101 -153 -189 -85 -121 -126 -162 -169 -170 -58 -12 -77 -37
-36 -51 12 -4 23 -58 26 -121 5 -140 2 -137 125 -122 120 14 154 53 127 146
-15 53 -9 77 41 156 32 51 59 101 59 111 0 11 41 55 90 98 52 46 91 97 91 123
1 41 2 41 21 -5 12 -32 12 -70 -2 -112 -12 -35 -15 -79 -8 -97 10 -26 4 -30
-23 -20 -24 10 -31 6 -21 -10 9 -15 0 -23 -26 -23 -42 0 -75 -72 -57 -124 5
-14 2 -42 -8 -61 -12 -23 -7 -75 15 -150 18 -63 39 -165 45 -227 l13 -112 125
58 c103 47 125 66 125 106 0 26 9 53 20 60 12 7 16 21 9 31 -42 69 108 158
177 106 l48 -36 -42 -34 c-23 -18 -35 -41 -26 -50 9 -9 25 -3 36 14 17 25 23
25 43 -4 18 -26 32 -29 69 -12 88 40 47 213 -54 229 -40 6 -42 3 -18 -27 25
-31 24 -33 -9 -21 -20 8 -45 14 -55 14 -10 0 -18 20 -19 45 l0 45 -46 -50
c-118 -130 -127 -133 -193 -70 -33 32 -60 66 -60 77 0 11 26 -5 59 -36 l58
-56 93 76 c51 42 87 87 82 102 -6 14 -2 31 8 37 10 6 21 -28 25 -75 5 -56 9
-37 12 60 2 95 -5 145 -19 145 -14 0 -18 -19 -10 -50 7 -29 4 -50 -8 -50 -11
0 -20 28 -20 61 0 34 -8 57 -17 51 -9 -6 -16 -51 -14 -101 3 -78 -6 -99 -63
-155 l-67 -64 -53 53 c-74 74 -74 256 -1 330 l49 48 58 -53 c36 -33 45 -49 23
-42 -19 6 -35 1 -35 -10 0 -11 -9 -15 -21 -8 -13 9 -16 -4 -8 -36 13 -53 -38
-92 -64 -49 -8 12 -3 26 10 31 13 4 18 15 12 25 -6 10 0 39 13 64 24 45 24 45
-19 7 -58 -51 -60 -191 -5 -226 115 -72 202 168 97 268 l-55 54 -70 -68 c-79
-77 -91 -67 -26 21 38 52 41 68 22 120 -24 63 -7 78 34 29 21 -26 31 -24 76
11 l52 41 37 -72 c35 -69 32 -123 -6 -99 -33 20 -20 -23 20 -70 37 -42 49 -44
155 -29 268 39 380 -8 353 -149 -8 -46 -6 -65 9 -56 12 8 26 5 33 -5 13 -21
-40 -17 -62 4 -30 30 -65 11 -74 -41 -5 -30 -8 -5 -8 55 1 74 -6 108 -22 105
-13 -3 -23 17 -23 44 0 45 -6 48 -75 36 -175 -28 -174 -27 -181 -153 -4 -77 1
-111 15 -103 13 8 16 45 9 92 -12 71 -8 80 41 99 88 33 97 27 83 -60 -13 -84
0 -96 67 -60 30 16 39 10 50 -31 16 -65 -10 -111 -32 -58 -12 29 -14 22 -9
-23 10 -86 50 -153 82 -141 15 6 32 0 37 -13 5 -13 11 -8 11 12 1 20 12 56 25
80 l23 43 17 -47 c13 -36 6 -60 -35 -109 -74 -88 -116 -111 -98 -52 12 38 9
43 -23 31 -445 -163 -567 -222 -630 -306 -79 -105 -149 -124 -96 -25 32 60 4
53 -462 -123 -510 -192 -906 -379 -862 -406 50 -31 298 51 1278 423 19 7 25
-29 25 -143 0 -140 38 -227 42 -97 2 52 2 52 21 -13 11 -37 34 -89 51 -115 17
-26 39 -104 48 -173 9 -68 39 -205 66 -304 58 -210 66 -408 21 -541 -41 -119
-34 -131 55 -100 67 23 78 22 109 -13 76 -83 -111 -198 -191 -118 -79 79 -211
20 -199 -89 12 -106 382 -95 448 13 6 10 34 18 61 18 111 0 189 52 175 119
-12 63 67 164 151 190 20 7 56 33 80 59 l45 48 -55 87 c-61 96 -134 225 -193
345 -21 43 -47 137 -57 209 -11 77 -43 175 -78 239 -56 103 -61 144 -19 144
10 0 35 -32 55 -72 l37 -72 64 80 c66 84 80 116 38 92 -15 -8 -18 -7 -8 4 9
10 24 18 34 18 9 0 30 18 47 40 28 39 29 38 41 -20 18 -87 91 -226 167 -319
37 -45 78 -95 92 -112 135 -167 -25 -111 -204 72 -81 82 -151 149 -155 149
-28 0 2 -64 75 -160 115 -152 116 -242 1 -198 -26 10 -56 18 -66 18 -29 0 -23
-100 6 -103 14 -2 39 -4 55 -6 17 -2 55 -11 86 -20 41 -11 65 -7 91 17 46 41
141 41 199 1 64 -45 87 -30 114 78 l25 96 -95 97 c-52 54 -164 179 -249 280
l-154 182 14 112 c18 145 82 207 219 214 46 2 68 72 23 72 -17 0 -36 -9 -42
-19 -7 -11 -24 -15 -38 -9 -15 5 -38 -4 -52 -21 -35 -42 -61 -39 -61 7 0 64
116 147 188 134 67 -12 128 25 170 104 17 32 42 44 89 44 36 0 76 11 89 24 31
31 45 14 31 -40 -6 -24 -21 -38 -32 -31 -14 9 -17 -33 -8 -125 15 -168 40
-260 69 -253 12 2 28 -16 35 -40 71 -229 261 -507 547 -800 144 -148 148 -155
95 -155 -34 0 -71 18 -94 45 -21 25 -38 35 -38 22 -1 -12 -25 -27 -55 -33
-162 -31 -514 582 -597 1041 -31 170 -38 185 -80 185 -69 0 -71 -15 -39 -263
60 -470 266 -934 498 -1124 89 -73 126 -92 101 -51 -45 72 104 157 166 95 21
-21 121 -25 245 -9 28 3 64 7 81 9 38 4 132 219 107 241 -10 9 -58 31 -108 50
-406 156 -678 524 -820 1110 l-46 187 48 39 48 39 -53 -11 c-51 -11 -53 -7
-77 118 -33 176 -67 169 -55 -11 10 -148 0 -174 -87 -220 -49 -26 -51 9 -3 45
28 21 36 60 38 196 2 94 6 221 10 283 6 91 -1 122 -33 160 -34 39 -34 42 -3
18 36 -28 36 -27 4 50 -19 43 -37 127 -42 186 -5 61 -27 137 -50 175 -24 38
-45 89 -48 114 -37 339 -280 448 -506 229 l-65 -63 0 56 c0 50 -6 55 -49 44
-27 -7 -54 -3 -61 8 -7 12 2 14 24 7 30 -11 32 -8 10 15 -30 31 -124 -55 -124
-113 0 -33 -32 -39 -49 -10 -7 11 -28 15 -47 9 -19 -6 -8 4 23 22 79 46 53 59
-35 17 -51 -25 -65 -40 -47 -52 43 -30 -71 8 -120 40 -65 43 -55 53 12 13 96
-56 306 79 351 226 16 49 96 66 212 42 43 -9 73 -6 77 6 4 12 30 0 58 -26 l51
-46 -11 44 c-9 39 -5 41 37 25 98 -37 46 24 -60 71 -96 42 -184 109 -103 78
88 -34 13 33 -104 93 -74 37 -184 102 -243 144 -143 99 -221 100 -363 4 -98
-66 -109 -69 -177 -47 -102 33 -106 37 -72 71 16 16 39 24 51 17 11 -8 32 -5
45 6 69 57 422 80 651 43 71 -11 133 -15 140 -9 35 36 -87 49 -442 50 l-395 0
-1 45 c-2 43 -3 43 -21 5 -16 -34 -17 -32 -11 15 10 70 -41 75 -59 6z m501
-286 c81 -119 40 -191 -111 -191 l-82 0 -8 104 c-8 101 -7 105 57 132 89 39
87 39 144 -45z m158 -258 c34 -46 13 -174 -23 -138 -5 5 -23 -5 -40 -22 -37
-37 -81 39 -46 81 10 12 19 31 21 42 9 97 37 108 88 37z m-162 -192 c12 -79
-14 -146 -36 -90 -7 19 -21 30 -30 25 -9 -6 -23 0 -31 13 -9 14 -6 18 9 9 28
-17 29 7 3 48 -13 22 -9 34 16 44 55 22 59 19 69 -49z m716 -44 c10 6 13 -3 7
-20 -7 -17 -2 -31 10 -31 12 0 22 -20 22 -45 1 -36 5 -39 19 -16 16 26 21 25
32 -5 8 -20 8 -42 1 -49 -22 -22 -83 27 -76 61 6 38 -20 56 -53 36 -40 -25 2
-103 71 -132 47 -20 68 -21 88 -3 21 19 21 17 1 -11 -23 -30 -34 -30 -103 -6
-42 15 -83 21 -90 13 -8 -7 -11 1 -8 17 9 45 -22 122 -43 109 -29 -18 -59 9
-46 42 13 33 133 71 144 46 3 -10 15 -12 24 -6z m-480 -158 c-15 -15 -29 -13
-45 3 -19 19 -19 24 0 24 13 0 25 20 25 45 2 45 2 45 21 -3 13 -32 12 -56 -1
-69z m287 76 c14 -36 -33 -59 -83 -40 -33 13 -32 16 4 42 49 37 64 36 79 -2z
m-376 -211 c43 -41 55 -43 92 -20 38 24 41 22 30 -18 -6 -24 -5 -38 2 -31 8 8
24 51 37 97 l23 84 2 -92 c2 -81 -4 -94 -53 -117 -130 -61 -188 -82 -176 -63
6 10 3 25 -9 32 -11 7 -20 3 -20 -7 0 -32 -86 -37 -131 -9 -37 23 -47 19 -87
-36 -37 -50 -56 -59 -99 -50 l-53 12 50 -29 c28 -16 40 -30 29 -30 -12 -1 -39
12 -60 28 -22 17 -31 30 -22 30 10 1 7 14 -7 31 -20 24 -13 38 38 81 50 42 62
68 62 131 0 92 49 128 92 69 25 -34 30 -34 112 7 l86 42 6 -47 c3 -27 29 -69
56 -95z m333 63 c41 -59 127 -92 162 -63 23 19 45 13 104 -28 52 -35 83 -44
97 -30 31 31 52 24 52 -17 0 -30 -20 -41 -97 -51 -63 -8 -117 -30 -151 -62
-64 -59 -92 -63 -92 -13 0 20 -37 87 -81 150 -74 103 -87 153 -39 153 10 0 30
-17 45 -39z m-37 -170 c29 -48 52 -100 52 -114 0 -14 24 -46 53 -71 73 -63 34
-57 -95 14 -59 32 -128 59 -153 60 -66 0 -56 58 15 83 44 15 60 34 60 69 0 66
8 61 68 -41z m492 -61 c21 -25 17 -30 -29 -30 -56 0 -158 -45 -215 -94 -51
-45 -87 -11 -42 39 79 89 242 138 286 85z m-993 -43 c7 -8 -15 -31 -50 -52
-48 -29 -57 -43 -38 -61 18 -19 33 -13 62 23 22 26 39 37 39 25 0 -12 -19 -41
-41 -63 -74 -74 -137 26 -66 104 34 38 70 47 94 24z m267 -14 c9 -15 62 -42
119 -61 124 -41 287 -145 287 -184 0 -40 -13 -37 -180 49 -82 42 -184 88 -225
102 -49 16 -75 36 -75 59 0 62 45 83 74 35z m746 -113 c-17 -11 -20 -20 -6
-20 12 0 37 -27 53 -60 17 -34 23 -56 13 -50 -9 6 -23 1 -30 -10 -7 -11 -21
-15 -31 -9 -27 16 -24 -5 13 -82 20 -43 41 -63 60 -56 15 6 28 1 28 -11 0 -12
-18 -22 -40 -22 -22 0 -40 11 -40 25 -1 18 -5 18 -18 -2 -12 -19 -21 -21 -31
-5 -7 12 -8 31 -1 42 41 67 -14 104 -72 48 -58 -55 -65 -95 -8 -48 25 21 30
19 30 -8 0 -18 14 -38 30 -45 21 -8 30 -40 31 -104 0 -107 38 -176 76 -138 28
28 29 14 2 -57 -24 -64 -6 -175 25 -155 12 7 17 1 12 -15 -12 -35 -157 -49
-176 -17 -8 13 -11 79 -5 147 18 232 -50 415 -135 362 -12 -7 -20 12 -20 47 0
44 15 69 62 98 40 26 54 45 39 54 -12 8 -38 2 -57 -12 -40 -31 -10 14 65 99
37 43 37 45 3 32 -27 -10 -35 -7 -28 13 16 48 102 57 146 15 35 -32 36 -40 10
-56z m-834 14 c46 -85 33 -115 -97 -213 -127 -96 -127 -96 -192 -26 -67 72
-77 104 -57 187 9 40 17 51 18 26 1 -22 23 -61 48 -85 l47 -43 44 46 c24 26
39 52 33 58 -6 6 5 23 25 38 32 26 33 25 5 -10 -27 -34 -27 -37 0 -29 17 6 33
34 36 64 9 72 47 67 90 -13z m-386 -30 c0 -31 -13 -74 -28 -95 -25 -34 -26
-28 -7 56 25 108 35 120 35 39z m544 -83 c112 -47 131 -79 76 -123 -43 -35
-44 -39 -9 -29 30 8 41 1 44 -29 1 -22 -5 -40 -14 -40 -10 0 -13 -17 -7 -38
12 -48 -27 -122 -65 -122 -17 0 -29 19 -29 44 0 42 -1 42 -27 6 -27 -36 -28
-36 -42 8 -11 35 -2 60 41 104 30 32 49 58 41 58 -9 0 -42 -29 -76 -65 l-60
-65 14 100 c8 55 21 114 29 130 8 17 11 41 6 55 -11 30 15 32 78 6z m445 -490
c19 -78 29 -173 22 -218 -13 -98 -31 -120 -31 -39 0 76 -80 221 -160 293 -85
76 -59 281 39 307 21 5 44 29 52 53 10 30 19 -3 30 -107 8 -82 30 -212 48
-289z m-1229 20 c0 -15 -12 -40 -27 -55 -15 -15 -37 -47 -51 -71 -13 -25 -32
-45 -43 -45 -30 0 -23 29 19 73 20 22 43 60 51 84 15 48 51 59 51 14z m214
-299 c-10 -114 -9 -118 16 -62 33 75 38 58 7 -29 -33 -96 -56 -39 -56 139 0
118 5 142 22 112 13 -22 18 -87 11 -160z m-413 79 c-26 -28 -55 -44 -66 -38
-11 7 6 33 38 58 72 57 89 45 28 -20z m1604 -57 c47 -17 45 -54 -4 -54 -42 0
-101 70 -101 119 1 24 9 21 35 -11 19 -23 51 -48 70 -54z m-200 -99 c32 11 55
4 55 -16 0 -28 -52 -80 -66 -66 -15 15 -97 -32 -86 -50 5 -8 -8 -16 -30 -18
-25 -2 -34 6 -25 21 34 61 77 94 125 96 42 2 44 5 12 13 -22 5 -47 20 -55 32
-22 34 -18 97 5 83 11 -7 21 8 23 34 2 25 8 6 15 -44 7 -49 19 -88 27 -85z
m122 0 c7 -19 15 -18 31 5 19 26 21 26 22 -3 0 -30 -38 -57 -82 -57 -10 0 -18
18 -18 40 0 44 31 54 47 15z m-318 -280 c-7 -25 -26 -71 -41 -102 -17 -35 -21
-70 -10 -88 9 -17 9 -63 0 -103 -10 -43 -9 -75 3 -79 12 -4 11 -20 -1 -43 -11
-20 -16 -49 -10 -64 11 -31 -44 -109 -63 -90 -7 8 3 32 24 55 25 28 27 37 8
30 -56 -22 -142 210 -126 342 13 107 16 113 95 149 111 50 138 49 121 -7z
m-350 -150 c-10 -41 -12 -94 -7 -117 8 -29 -4 -51 -40 -75 -76 -50 -90 -38
-22 19 47 40 50 46 13 28 -25 -13 -52 -18 -58 -12 -6 7 -22 3 -36 -9 -16 -13
-42 -13 -75 -1 -37 15 -57 13 -73 -6 -17 -21 -11 -25 25 -18 62 12 97 -35 105
-139 10 -127 -70 -199 -134 -121 -15 18 -17 28 -5 20 33 -19 95 58 83 104 -6
22 -1 43 11 47 12 4 6 14 -13 21 -21 8 -30 6 -23 -6 7 -11 -4 -21 -24 -22 -35
-3 -35 -3 0 -12 37 -10 41 -84 5 -92 -25 -5 -52 103 -29 117 10 6 18 21 18 33
0 12 -20 5 -43 -16 -24 -21 -37 -26 -29 -12 8 14 18 55 21 92 11 114 154 220
334 250 7 1 5 -32 -4 -73z m77 -270 c6 -31 1 -33 -44 -12 -28 12 -46 31 -40
41 19 29 77 9 84 -29z m-48 -32 c6 -9 15 -83 21 -163 7 -109 20 -157 49 -188
39 -41 39 -47 9 -132 -18 -50 -37 -153 -44 -230 l-13 -140 -13 120 c-8 80 -10
54 -6 -80 4 -110 14 -222 22 -250 l15 -50 12 50 c10 44 15 39 39 -45 26 -96
-2 -175 -63 -175 -30 0 -157 93 -144 105 7 7 -7 7 -30 1 -47 -12 -48 -7 -22
104 12 50 12 125 0 200 -10 66 -23 152 -28 190 -10 82 -45 239 -63 287 -9 21
-3 33 14 33 15 0 43 29 63 63 l36 64 105 -104 c58 -57 112 -98 120 -90 8 8
-38 67 -101 131 -63 64 -106 116 -94 116 11 0 31 -11 44 -24 19 -19 24 -14 24
20 0 25 11 62 25 84 20 32 20 48 0 80 -14 22 -17 40 -6 40 10 0 23 -8 29 -17z
m-83 -30 c30 -24 31 -31 5 -65 -33 -43 -69 -13 -70 57 0 41 17 43 65 8z m275
-723 c0 -23 23 -74 50 -114 87 -129 48 -204 -66 -125 -45 32 -64 213 -31 299
16 41 46 2 47 -60z m37 -339 c12 -60 -33 -85 -54 -29 -10 26 -14 55 -9 64 15
26 55 4 63 -35z"/>
<path d="M1691 4728 c-38 -28 -38 -28 0 -56 39 -29 109 -11 109 28 0 39 -70
57 -109 28z"/>
<path d="M1942 1072 c-21 -25 -23 -39 -5 -57 30 -30 48 -9 40 47 -7 41 -9 42
-35 10z"/>
<path d="M3555 4686 c-19 -5 -35 -17 -35 -27 0 -18 6 -21 65 -26 14 -2 28 -34
31 -73 6 -67 5 -68 -24 -30 -19 24 -31 30 -31 14 -2 -51 -37 -3 -50 67 -13 72
-86 85 -161 29 -20 -14 -121 -46 -160 -50 -43 -4 -110 -53 -110 -79 0 -28 -33
-44 -121 -61 -42 -8 -113 -85 -105 -113 3 -7 -15 -29 -38 -50 -39 -34 -42 -34
-30 -2 18 49 -39 46 -65 -3 -15 -29 -12 -44 14 -65 32 -25 33 -24 5 11 -28 35
-26 37 14 24 28 -9 77 1 134 27 49 23 99 41 110 41 11 0 18 18 16 40 -1 26
-13 37 -30 30 -16 -6 -24 0 -19 15 5 14 41 30 81 37 39 6 86 23 103 37 37 31
81 17 110 -37 24 -45 -43 -55 -98 -13 -22 16 -25 15 -12 -7 13 -22 9 -26 -17
-16 -32 13 -31 9 3 -41 44 -66 39 -162 -7 -124 -22 19 -28 18 -28 -5 0 -43 23
-59 51 -35 33 27 83 5 96 -44 9 -35 15 -37 39 -15 40 39 13 126 -42 134 -28 4
-44 21 -44 45 0 47 8 48 71 7 46 -31 49 -30 49 4 0 34 2 34 33 3 24 -23 28
-40 13 -59 -31 -40 -46 -144 -25 -177 15 -23 21 -20 32 17 11 43 15 44 60 14
43 -29 47 -28 47 5 0 68 -69 184 -184 307 -47 52 -50 61 -23 88 54 54 118 -11
96 -98 -7 -26 -3 -53 8 -60 27 -17 69 62 54 102 -8 21 -2 27 18 19 16 -6 35
-3 41 8 13 19 69 -20 63 -44 -3 -13 8 -17 47 -17 11 0 37 17 57 37 60 60 120
-4 141 -151 9 -64 18 -106 20 -93 1 13 20 19 44 12 40 -10 41 -8 13 47 -32 64
-61 168 -47 168 67 0 110 -46 123 -128 14 -93 -25 -171 -71 -142 -30 18 -24
-15 11 -66 44 -63 10 -55 -46 11 l-47 55 14 -50 c7 -27 18 -63 24 -80 6 -19
-8 -14 -37 14 -33 32 -47 70 -52 145 -3 55 -19 126 -36 156 -29 52 -30 48 -19
-85 8 -94 25 -157 50 -190 65 -83 117 -206 118 -275 0 -36 8 -65 19 -65 10 0
24 -17 30 -38 8 -25 25 -35 49 -28 52 13 58 -2 69 -205 6 -99 17 -196 24 -214
9 -23 4 -35 -16 -35 -30 0 -75 79 -75 132 0 17 -9 25 -20 18 -11 -7 -20 -31
-20 -53 0 -121 -51 -7 -60 135 l-10 158 -28 -215 c-24 -186 -31 -210 -54 -180
-15 19 -27 49 -27 65 -1 17 -23 120 -51 230 -57 232 -62 277 -22 225 38 -50
48 -45 75 46 18 61 18 86 0 104 -17 17 -23 7 -23 -46 l0 -69 -45 68 c-83 126
-88 141 -79 206 9 62 11 61 45 -45 39 -121 51 -114 18 11 -33 124 -102 290
-121 290 -30 0 -42 -94 -18 -140 30 -56 -10 -320 -49 -320 -15 0 -32 16 -39
35 -23 62 -77 155 -100 170 -42 28 -52 15 -53 -70 -3 -144 -26 -178 -68 -97
-33 64 -34 111 -1 187 10 24 5 35 -16 35 -17 0 -35 11 -41 25 -5 14 -11 -6
-12 -45 l-3 -70 -36 67 c-19 37 -32 88 -27 113 5 25 -2 52 -15 60 -18 11 -20
2 -9 -32 14 -44 12 -46 -22 -18 -20 17 -30 19 -22 6 8 -13 -1 -32 -19 -42 -39
-22 -19 -68 26 -60 53 10 76 -51 46 -124 l-27 -64 -27 52 c-15 29 -32 52 -37
52 -6 0 -1 -18 11 -40 30 -55 -4 -50 -59 9 -45 47 -45 52 -13 101 19 28 28 61
20 73 -9 14 -19 12 -30 -6 -11 -17 -17 -18 -18 -4 0 29 -52 23 -85 -11 -20
-20 -18 -30 10 -51 19 -14 35 -40 35 -58 0 -19 8 -49 18 -68 31 -61 122 -354
122 -392 0 -25 10 -33 30 -26 17 7 30 4 30 -6 0 -10 -10 -21 -21 -25 -23 -7
27 -368 61 -446 17 -40 17 -40 19 0 1 35 5 34 27 -10 14 -27 38 -50 54 -50 15
0 34 23 42 50 l14 50 2 -53 c4 -95 57 -112 76 -23 l16 76 10 -98 c12 -113 47
-140 76 -58 20 54 21 54 22 -26 4 -164 80 -286 84 -133 3 128 33 194 38 85 10
-200 54 -272 99 -163 29 71 8 423 -25 423 -11 0 -15 -5 -9 -12 13 -13 -46 -88
-70 -88 -9 0 -11 25 -5 55 6 30 5 44 -2 30 -20 -44 -94 -31 -82 15 12 47 -17
73 -33 30 -16 -41 -66 -38 -82 4 -11 30 -16 31 -33 5 -14 -22 -18 -14 -14 31
6 64 79 95 122 52 31 -31 54 -27 54 10 0 17 11 27 25 23 14 -5 24 -25 22 -43
-3 -32 0 -32 32 -3 33 30 37 28 49 -33 13 -64 15 -65 44 -26 35 47 67 15 68
-66 0 -26 8 -41 18 -35 10 6 23 0 29 -14 5 -14 11 -4 11 21 1 26 11 41 22 34
11 -7 21 -1 22 14 1 14 9 4 17 -24 16 -57 5 -105 -21 -89 -10 6 -18 -9 -18
-35 1 -38 4 -41 22 -16 15 22 17 14 8 -33 -7 -37 -3 -69 9 -76 34 -21 27 -112
-8 -99 -33 13 -81 216 -59 251 8 14 6 18 -7 10 -12 -7 -26 -2 -31 12 -5 14
-10 -65 -11 -175 -3 -244 58 -395 100 -246 12 44 13 44 15 3 6 -127 82 -94 82
36 0 55 9 97 21 97 12 0 15 10 7 23 -54 88 -67 349 -16 329 22 -8 26 1 16 39
-19 76 39 62 68 -18 27 -75 42 -219 51 -493 4 -135 17 -212 43 -265 60 -120
78 -93 60 90 -9 91 -14 209 -12 263 2 54 -5 104 -16 111 -11 7 -24 53 -29 102
-5 49 -15 121 -23 159 -13 68 -11 70 48 73 67 3 79 -25 41 -96 -16 -29 -16
-58 1 -103 52 -145 99 -473 59 -407 -25 39 -35 78 -38 143 -1 29 -6 33 -18 14
-33 -52 87 -444 136 -444 26 0 26 83 2 190 -10 44 -24 136 -30 205 -6 68 -20
145 -29 171 -37 97 -48 329 -13 285 17 -21 31 -47 31 -56 0 -10 13 -30 28 -46
21 -21 93 -273 101 -352 0 -8 8 -20 16 -29 19 -18 20 -117 1 -135 -17 -17 -66
97 -66 153 0 30 -6 36 -22 20 -27 -27 57 -276 132 -389 140 -212 146 -42 10
302 -46 117 -48 128 -20 111 30 -19 24 8 -17 78 -48 80 -172 430 -157 444 32
33 105 -55 187 -228 51 -107 113 -221 137 -254 24 -33 58 -87 75 -120 187
-365 223 -419 315 -460 118 -53 117 -31 -7 174 -127 212 -211 394 -198 431 4
14 -2 25 -14 25 -13 0 -37 34 -54 75 -17 41 -38 80 -46 85 -8 6 -25 28 -37 50
-16 29 -23 31 -24 10 -1 -23 -8 -21 -31 9 -52 69 -31 11 28 -75 125 -185 193
-374 133 -374 -16 0 -30 17 -30 37 0 21 -18 60 -40 88 -22 28 -40 61 -40 73 0
12 -7 22 -15 22 -18 0 -65 97 -65 134 0 14 -9 26 -19 26 -11 0 -15 12 -10 26
6 15 -12 51 -40 82 -45 47 -48 58 -23 83 32 32 61 39 43 11 -15 -24 8 -82 32
-82 10 0 9 17 -3 40 -12 23 -13 40 -3 40 47 0 -19 134 -131 269 -36 43 -66 90
-66 105 0 14 -9 26 -20 26 -25 0 -25 0 2 -76 12 -35 31 -61 43 -58 27 5 57
-126 37 -162 -16 -28 -162 162 -162 211 0 14 -9 25 -20 25 -11 0 -20 13 -20
28 0 15 -19 49 -42 75 -28 32 -38 36 -31 13 6 -18 17 -65 24 -104 7 -39 26
-81 41 -94 17 -14 28 -61 28 -121 0 -202 -110 -26 -151 241 -9 59 -7 83 8 74
46 -29 70 148 26 195 -56 60 -137 250 -90 211 31 -26 31 -23 -1 38 -45 87 -30
131 18 54 20 -33 57 -92 83 -131 26 -39 47 -82 47 -96 0 -14 14 -53 32 -87 24
-46 26 -65 8 -76 -17 -11 -18 -19 -2 -29 12 -7 22 -3 22 9 0 12 8 17 18 11 10
-6 22 0 27 14 12 35 115 -21 115 -62 0 -41 97 -203 122 -203 32 0 81 -137 74
-207 -5 -55 0 -62 38 -57 36 5 53 -12 88 -85 23 -50 52 -97 63 -104 13 -8 15
-3 5 13 -11 17 -8 21 7 12 13 -8 19 -23 12 -33 -6 -10 22 -61 63 -114 41 -52
68 -77 61 -55 -8 25 15 9 58 -40 39 -44 65 -64 58 -45 -8 20 -4 35 9 35 41 0
22 37 -22 44 -25 3 -56 29 -70 56 -13 28 -41 64 -61 80 -42 35 -104 120 -162
224 l-41 73 41 -3 c22 -1 50 -21 62 -43 11 -23 57 -77 100 -121 44 -44 96
-116 117 -160 20 -44 37 -68 38 -54 0 16 19 8 49 -20 56 -53 79 -170 31 -160
-16 3 6 -29 50 -72 44 -43 128 -129 187 -190 108 -113 197 -162 242 -135 35
22 -144 249 -456 579 -139 147 -256 286 -260 309 -7 43 -82 149 -160 227 -50
52 -49 58 -10 -78 11 -40 8 -39 -38 10 -27 30 -58 54 -67 55 -26 1 -213 259
-188 259 25 0 6 138 -22 169 -33 35 -80 30 -69 -7 29 -89 -220 189 -256 287
-16 43 -18 44 126 -84 28 -25 61 -45 74 -45 35 0 159 -123 175 -173 7 -24 35
-58 62 -75 26 -17 62 -61 79 -97 18 -36 49 -87 71 -115 l38 -50 -12 50 c-6 28
-25 66 -42 85 -38 44 -18 45 47 3 27 -18 44 -39 39 -48 -5 -8 11 -32 35 -52
45 -38 45 -38 10 4 -19 23 -31 46 -25 51 5 5 -44 54 -110 108 -65 55 -110 102
-98 106 11 4 40 -9 64 -29 24 -20 -41 51 -145 157 -103 106 -195 189 -202 184
-8 -5 -47 31 -87 80 -75 91 -90 124 -47 99 14 -8 -9 22 -50 65 -41 43 -75 88
-75 99 0 12 -25 42 -55 67 -30 26 -70 60 -88 75 -19 16 -46 32 -60 35 -15 3
-60 20 -101 38 -77 34 -82 35 -141 19z m472 -786 c95 -260 19 -288 -112 -42
-56 105 -34 203 24 107 17 -28 19 -23 9 25 -19 90 36 26 79 -90z m-863 -38
c19 -111 7 -130 -57 -88 -69 45 -88 104 -49 148 52 58 89 36 106 -60z m-161
-11 c38 -83 3 -132 -44 -60 -21 32 -39 70 -39 84 0 44 60 27 83 -24z m471
-214 c24 -147 25 -200 6 -247 l-23 -60 -27 64 c-46 108 -63 504 -20 463 21
-20 45 -101 64 -220z m119 105 c-7 -41 5 -131 28 -219 40 -156 36 -201 -13
-134 -57 78 -109 367 -80 442 24 64 78 -8 65 -89z m-243 -13 c0 -49 -7 -89
-16 -89 -9 0 -11 -38 -4 -85 21 -142 -18 -209 -48 -82 -32 131 -33 209 -5 261
13 24 18 57 11 73 -8 22 -1 27 26 20 28 -7 36 -29 36 -98z m-111 -32 c-25 -89
-27 -296 -4 -407 24 -110 24 -114 -8 -94 -49 31 -74 443 -32 542 34 83 70 50
44 -41z m-120 -26 c36 -66 10 -266 -29 -227 -6 6 -17 70 -23 143 -13 140 6
171 52 84z"/>
<path d="M2483 4562 c-20 -12 -15 -20 20 -29 73 -20 137 -15 137 10 0 14 -22
18 -61 10 -38 -8 -56 -5 -49 7 15 24 -10 26 -47 2z"/>
<path d="M2846 4477 c-13 -26 -24 -36 -25 -24 -2 34 -157 -55 -168 -97 -23
-88 156 -27 224 77 25 39 37 66 26 59 -11 -7 -23 -2 -27 10 -4 13 -18 2 -30
-25z"/>
<path d="M1342 4087 c-27 -19 -42 -47 -38 -72 7 -52 56 -71 56 -23 0 19 14 50
31 69 42 47 7 65 -49 26z"/>
<path d="M1233 3587 c-19 -19 -16 -107 4 -107 42 0 106 95 72 107 -41 16 -59
16 -76 0z"/>
<path d="M1360 3489 c0 -26 -6 -29 -27 -12 -43 37 -173 -170 -173 -276 0 -21
-9 -44 -20 -51 -11 -7 -20 -22 -20 -35 0 -12 23 -1 50 25 28 26 50 63 50 83 0
58 102 141 138 111 25 -20 27 -18 16 13 -8 20 -14 46 -14 58 0 12 -21 2 -46
-22 -26 -23 -53 -43 -62 -43 -8 0 12 23 44 50 33 28 70 50 82 50 27 0 29 53 2
70 -11 7 -20 -3 -20 -21z"/>
<path d="M4832 3357 c18 -35 59 -85 91 -113 34 -28 55 -62 48 -78 -6 -15 -3
-23 7 -17 10 6 23 -3 29 -19 7 -17 25 -24 44 -17 21 8 31 3 28 -15 -7 -52 1
-78 23 -78 16 0 17 7 2 26 -14 16 -15 36 -3 55 19 30 29 -5 23 -84 -2 -18 10
-44 27 -57 25 -21 27 -15 19 43 l-10 67 29 -60 c16 -33 30 -74 30 -92 1 -38
69 -104 88 -85 7 8 13 3 13 -10 0 -31 236 -259 284 -274 20 -7 36 -20 36 -30
0 -11 27 -19 60 -19 109 0 68 61 -255 380 -356 352 -512 489 -591 519 l-55 20
33 -62z"/>
<path d="M4520 2784 c0 -26 9 -41 20 -34 11 7 20 -10 20 -40 0 -30 9 -47 20
-40 11 7 20 -6 20 -29 0 -56 -28 -52 -60 9 -43 81 -43 45 0 -80 65 -190 182
-363 265 -395 51 -20 44 12 -42 172 -42 78 -89 179 -103 223 -40 121 -139 273
-140 214z"/>
<path d="M4820 2768 c1 -75 448 -543 488 -510 14 12 32 16 39 8 7 -7 13 3 13
21 0 19 -14 39 -30 46 -17 6 -84 85 -148 174 -65 90 -146 190 -181 222 l-62
60 -12 -46 -12 -45 -48 44 c-26 25 -47 37 -47 26z"/>
<path d="M3941 2667 c-1 -74 58 -267 82 -267 9 0 17 41 17 92 0 74 -6 90 -30
81 -21 -8 -30 2 -31 33 -3 80 -36 135 -38 61z"/>
<path d="M1876 2638 c-13 -8 -10 -33 9 -68 24 -46 31 -49 42 -21 7 19 4 28 -7
21 -11 -7 -20 -3 -20 9 0 12 23 31 50 41 28 10 50 23 50 27 0 13 -101 5 -124
-9z"/>
<path d="M4066 1520 c4 -16 24 -27 43 -24 21 4 30 -2 22 -14 -8 -13 -1 -17 18
-10 20 8 31 1 31 -20 0 -18 -10 -32 -21 -32 -12 0 -16 -9 -9 -20 7 -11 25 -20
41 -20 42 0 36 87 -8 127 -43 39 -83 43 -83 8 -1 -17 -7 -15 -22 5 -19 27 -20
27 -12 0z"/>
</g>
</svg>
