<?xml version="1.0" standalone="no"?>
<!DOCTYPE svg PUBLIC "-//W3C//DTD SVG 20010904//EN"
 "http://www.w3.org/TR/2001/REC-SVG-20010904/DTD/svg10.dtd">
<svg version="1.0" xmlns="http://www.w3.org/2000/svg"
 width="300.000000pt" height="352.000000pt" viewBox="0 0 300.000000 352.000000"
 preserveAspectRatio="xMidYMid meet">
<metadata>
Created by potrace 1.10, written by Peter Selinger 2001-2011
</metadata>
<g transform="translate(0.000000,352.000000) scale(0.050000,-0.050000)"
fill="#000000" stroke="none">
<path d="M3154 6318 c-115 -27 -174 -65 -292 -187 -125 -129 -120 -142 53
-157 121 -10 167 10 85 36 -76 24 -40 49 55 38 84 -11 134 -21 295 -60 31 -8
34 -6 10 9 -22 14 -28 48 -23 132 8 135 40 125 116 -39 l47 -100 -43 -7 c-35
-5 -38 -10 -15 -25 24 -16 23 -23 -6 -45 -32 -24 -28 -29 39 -49 97 -30 108
-8 62 132 -55 166 -212 351 -290 342 -9 -1 -51 -10 -93 -20z m142 -43 c13 -16
14 -57 3 -115 -9 -49 -18 -97 -18 -105 -1 -8 -10 -15 -22 -15 -14 0 -14 12 0
38 16 30 12 40 -19 48 -27 7 -40 27 -40 60 0 103 48 147 96 89z m-144 -99
c-17 -86 -30 -96 -107 -80 -74 16 -50 87 42 124 71 29 79 23 65 -44z"/>
<path d="M2574 5985 c-122 -12 -91 -68 56 -104 66 -16 123 -31 126 -33 15 -9
-48 -88 -70 -88 -13 0 -31 -12 -40 -27 -21 -35 -139 -59 -326 -67 -286 -11
-480 -59 -480 -118 0 -14 -64 -68 -143 -118 -233 -151 -437 -402 -437 -537 0
-73 65 -190 104 -188 62 3 96 -6 91 -26 -3 -11 46 -23 115 -28 155 -9 199 -26
168 -63 -12 -15 -18 -46 -12 -68 15 -58 -37 -152 -160 -288 -58 -66 -106 -131
-106 -145 0 -15 -13 -27 -29 -27 -15 0 -61 -54 -100 -119 -40 -65 -97 -137
-127 -159 -47 -34 -51 -45 -28 -76 14 -20 41 -63 60 -96 19 -33 77 -101 130
-152 66 -63 99 -113 106 -160 14 -84 -93 -457 -152 -532 -22 -28 -40 -71 -40
-95 0 -24 -13 -61 -29 -82 -17 -22 -30 -54 -30 -73 -1 -19 -28 -80 -61 -135
-130 -221 -182 -379 -220 -671 -20 -154 -52 -334 -71 -400 -18 -66 -37 -151
-43 -190 -5 -38 -22 -122 -38 -186 -49 -194 -30 -210 252 -210 202 -1 259 61
157 169 -91 97 -62 311 80 598 67 135 141 316 165 402 23 86 55 171 70 189 15
17 28 58 28 91 0 35 17 76 40 97 25 22 40 62 40 103 0 63 3 65 51 47 29 -11
80 -19 115 -17 49 2 53 4 18 11 -49 10 -63 30 -71 108 -3 26 -16 84 -28 128
-13 44 -28 116 -34 161 -7 44 -17 103 -24 130 -7 27 -14 99 -17 159 -3 61 -10
132 -17 159 -7 27 -18 85 -24 130 -7 44 -19 93 -28 110 -9 17 -12 41 -7 54 4
12 -15 41 -43 63 -29 22 -42 44 -29 48 16 5 17 43 2 137 -18 121 -17 159 6
136 5 -5 11 -74 15 -154 4 -130 9 -145 49 -156 68 -17 211 71 199 122 -16 65
-34 243 -23 221 51 -103 63 -233 26 -281 -21 -27 -33 -58 -26 -69 7 -11 3 -20
-8 -20 -14 0 -15 -17 -2 -51 11 -29 20 -77 20 -108 0 -31 12 -66 27 -79 16
-13 23 -44 18 -72 -5 -28 0 -62 12 -76 28 -35 21 -110 -12 -123 -20 -8 -22
-20 -5 -51 12 -23 30 -36 40 -30 10 6 13 -35 7 -95 -15 -150 -15 -161 4 -203
11 -27 9 -34 -7 -24 -13 7 -8 -14 11 -47 28 -49 30 -65 9 -78 -68 -43 42 -123
115 -83 23 12 41 13 41 3 0 -10 -27 -30 -61 -43 -39 -17 -57 -36 -50 -54 6
-15 3 -23 -7 -17 -17 10 -142 -205 -142 -245 0 -22 234 42 263 71 10 10 93
184 185 386 341 753 299 691 397 596 36 -34 101 -85 145 -114 286 -185 307
-239 180 -462 -66 -114 -92 -188 -110 -301 -13 -82 -32 -190 -44 -240 -33
-145 -61 -344 -61 -425 1 -62 -6 -75 -39 -75 -31 0 -37 -8 -25 -35 8 -19 14
-51 12 -70 -1 -19 -4 -85 -6 -147 l-4 -112 -70 11 c-189 31 -335 -277 -149
-315 191 -38 550 -74 635 -63 60 8 198 0 345 -21 279 -39 295 -34 316 93 28
162 -1 231 -106 260 -117 32 -119 33 -74 66 53 39 25 93 -48 93 -33 0 -65 9
-72 20 -18 29 -114 23 -158 -10 -29 -22 -46 -24 -65 -7 -20 16 -40 13 -79 -12
-70 -46 -80 -29 -17 30 44 41 56 44 92 22 22 -14 45 -21 51 -16 5 6 -17 24
-49 41 -45 22 -65 24 -82 7 -13 -13 -23 -16 -23 -8 0 41 61 77 91 53 21 -18
29 -19 29 -2 0 13 -20 31 -45 41 -40 15 -41 19 -10 31 43 18 45 47 4 63 -17 7
-48 -4 -70 -24 -38 -34 -39 -34 -39 17 0 88 264 865 353 1039 27 52 26 55 -17
55 -26 0 -59 10 -76 21 -29 19 19 14 122 -13 95 -26 177 128 129 243 -29 68
-28 71 18 89 103 39 210 193 238 342 73 392 -433 712 -739 468 -71 -57 -49
-88 38 -52 488 199 874 -357 464 -669 -38 -29 -65 -60 -60 -68 5 -9 -14 -11
-41 -6 -51 10 -346 407 -334 449 10 33 -63 137 -90 127 -26 -10 -33 10 -26 76
2 20 -31 79 -74 130 -94 112 -158 207 -133 199 62 -21 101 78 103 262 2 230
-6 225 150 93 71 -61 148 -111 171 -111 74 0 104 -23 104 -80 0 -86 69 -116
291 -127 44 -3 102 -20 129 -39 66 -46 106 -43 173 13 106 88 227 114 361 80
138 -37 198 -65 135 -66 -22 -1 -92 -19 -154 -41 -63 -22 -149 -40 -192 -40
-43 0 -104 -13 -136 -30 -51 -26 -59 -26 -79 0 -31 42 -53 37 -39 -8 7 -21 3
-44 -8 -51 -12 -8 -21 -22 -21 -32 0 -29 72 -22 98 9 14 17 85 33 181 42 106
9 210 35 322 80 131 53 175 63 215 48 28 -11 65 -18 82 -16 63 6 81 -3 138
-64 68 -72 411 -179 451 -139 15 15 3 28 -40 45 l-62 23 102 95 c85 78 113 93
158 84 133 -26 54 51 -107 105 -190 63 -322 70 -415 21 -138 -72 -99 7 49 100
68 43 108 88 150 173 32 63 81 129 109 147 104 69 106 152 2 98 -78 -41 -239
-65 -593 -90 -170 -12 -429 -35 -574 -52 -204 -23 -283 -25 -350 -8 -47 13
-120 32 -162 42 -41 11 -74 31 -72 44 6 32 -20 92 -70 164 -64 92 -114 212
-102 249 12 38 -177 261 -222 261 -15 0 -28 8 -28 18 0 10 55 15 121 12 124
-7 189 45 146 115 -9 14 -1 17 20 9 21 -8 33 -3 33 17 0 16 18 29 40 29 30 0
40 13 40 55 -1 44 -5 49 -21 25 -15 -22 -17 -7 -7 50 17 107 30 117 121 92 96
-27 221 -28 236 -3 35 55 -276 142 -759 213 -110 16 -227 37 -260 46 -33 10
-73 22 -90 26 -16 5 -64 6 -106 1z m400 -198 c6 6 27 -9 47 -33 19 -24 28 -48
19 -54 -9 -6 -4 -28 12 -49 36 -50 42 46 6 112 -31 58 5 86 53 42 21 -19 62
-33 89 -30 l50 6 -55 -46 c-50 -42 -55 -59 -55 -181 0 -120 -38 -202 -41 -89
-1 33 -5 37 -15 15 -20 -45 -53 -37 -111 25 -28 30 -80 71 -117 91 -36 21 -69
54 -73 75 -6 32 3 29 65 -18 44 -34 72 -45 72 -29 0 14 -36 43 -80 64 -91 44
-97 62 -39 113 37 32 46 32 101 5 33 -17 66 -25 72 -19z m386 -80 c0 -16 8
-24 18 -19 25 16 24 -90 -2 -143 -13 -25 -39 -45 -59 -45 -21 0 -37 -4 -37 -8
0 -5 -6 -25 -13 -45 -11 -33 -9 -32 21 3 32 39 32 38 11 -12 -33 -76 -85 -68
-67 10 8 34 14 73 14 86 1 13 8 20 17 14 10 -6 17 25 17 69 0 44 5 93 12 110
14 37 68 21 68 -20z m-623 -47 c20 -33 41 -55 47 -49 12 12 136 -111 136 -135
0 -28 -31 -17 -81 29 -26 25 -55 43 -64 40 -8 -3 -15 5 -15 16 0 12 -24 53
-52 90 -29 38 -43 69 -30 69 12 0 39 -27 59 -60z m110 -250 c-8 -21 22 -47 53
-44 24 2 100 -49 100 -67 0 -11 -27 -6 -59 10 -32 17 -73 31 -89 31 -17 0 -38
14 -48 32 -10 17 -21 29 -26 25 -12 -10 -158 105 -158 125 0 10 19 18 41 18
23 0 36 9 29 20 -7 12 -23 15 -36 7 -13 -7 -18 -6 -10 2 8 9 5 35 -7 59 -12
23 33 -11 99 -76 66 -64 116 -129 111 -142z m-618 168 c-6 -9 -42 -16 -81 -14
-41 1 -60 9 -45 18 33 20 138 17 126 -4z m128 -15 c53 -53 65 -98 31 -111 -17
-6 -25 -4 -19 6 5 9 -8 37 -29 62 -64 74 -50 110 17 43z m-165 -46 c10 -16 5
-18 -14 -6 -23 14 -23 11 1 -19 17 -22 46 -32 74 -26 44 8 126 -73 100 -99 -5
-6 -20 8 -32 31 -12 23 -33 42 -47 42 -15 0 -13 -8 6 -20 17 -11 21 -20 10
-20 -11 0 -8 -8 8 -18 17 -11 21 -27 10 -45 -25 -39 -24 -62 6 -106 14 -22 26
-55 26 -74 0 -19 18 -40 40 -47 22 -7 49 -30 61 -52 12 -21 29 -34 39 -28 9 6
29 -5 44 -25 14 -19 37 -37 51 -40 14 -3 36 -7 50 -10 14 -3 28 19 31 48 7 57
85 54 155 -4 35 -29 93 -17 73 15 -8 13 -37 27 -64 32 -122 21 -180 40 -180
59 0 11 -19 37 -43 58 -24 20 -35 37 -24 37 10 0 30 -11 42 -23 27 -27 168
-37 152 -12 -6 9 15 9 46 1 74 -21 201 -20 277 0 55 15 58 14 28 -16 -21 -21
-69 -34 -136 -35 -92 -2 -100 -6 -73 -32 20 -20 63 -29 125 -27 75 3 88 0 61
-17 -19 -12 -44 -16 -55 -9 -26 16 -26 -36 1 -63 14 -14 -4 -20 -55 -21 -142
-1 -168 -6 -155 -27 7 -11 30 -15 51 -8 29 9 38 2 38 -30 0 -50 -82 -56 -160
-11 -27 16 -75 29 -106 29 -110 2 -454 313 -454 412 0 78 -78 77 -169 -3 -52
-46 -125 -100 -162 -120 l-66 -35 -82 73 c-90 82 -78 102 15 24 76 -64 81 -63
175 17 97 82 259 185 238 152 -10 -17 -7 -20 9 -10 15 9 17 23 6 38 -36 47
-43 93 -15 93 16 0 35 -10 43 -23z m-164 -55 c32 -36 31 -38 -32 -50 -36 -7
-101 -40 -145 -73 -92 -69 -100 -70 -161 -23 l-46 37 100 47 c55 26 105 59
110 74 15 40 135 32 174 -12z m591 -62 c12 0 21 -9 21 -20 0 -11 11 -20 24
-20 13 0 -7 32 -44 70 -103 106 -55 84 130 -61 123 -96 187 -132 239 -136 77
-6 123 -33 56 -33 -23 0 -57 -6 -77 -13 -23 -10 -30 -6 -20 10 8 12 5 23 -7
23 -11 0 -21 -9 -21 -20 0 -28 -26 -25 -71 9 -37 28 -37 29 11 19 l50 -11 -50
31 c-62 38 -82 40 -69 5 8 -19 -5 -24 -51 -17 -34 5 -59 1 -56 -9 19 -57 -109
-15 -177 59 -31 34 -41 50 -22 36 60 -46 38 2 -30 64 -36 33 -49 54 -30 48 23
-9 44 1 60 27 25 40 26 40 69 -10 24 -28 54 -51 65 -51z m-189 -80 c7 -22 23
-51 37 -65 81 -85 112 -143 101 -192 -10 -48 -8 -50 18 -18 40 49 52 44 50
-24 -3 -95 -133 -11 -253 164 -73 107 -51 126 40 35 33 -33 55 -60 49 -60 -7
0 4 -18 22 -39 19 -22 37 -36 41 -32 8 7 -36 94 -57 111 -7 6 -23 31 -36 56
-13 25 -32 40 -42 34 -23 -14 -46 24 -30 50 20 32 46 23 60 -20z m-271 -76 c6
-26 20 -44 31 -40 11 3 22 -12 25 -34 6 -45 -70 -182 -90 -162 -7 7 -2 23 11
36 13 13 24 37 24 53 0 19 -17 10 -49 -24 -68 -73 -107 -70 -95 8 6 41 24 68
55 79 25 10 51 27 58 39 17 27 -1 27 -50 0 -32 -17 -39 -14 -39 16 0 87 100
111 119 29z m-458 -56 c22 -26 22 -34 -2 -48 -17 -11 -34 -9 -43 6 -12 18 -15
18 -16 -2 0 -19 -10 -20 -41 -3 -33 17 -37 28 -18 50 31 38 88 37 120 -3z
m279 -7 c0 -10 -15 -33 -33 -51 -67 -67 -247 -112 -247 -62 0 35 44 52 95 39
24 -6 61 9 97 41 61 54 88 64 88 33z m-326 -104 c23 -19 21 -30 -11 -65 -21
-23 -57 -82 -79 -132 -22 -49 -41 -74 -42 -55 -1 23 -18 35 -48 35 -85 0 -167
149 -108 196 78 61 227 72 288 21z m625 -31 c-35 -91 -87 -166 -115 -166 -35
0 -16 66 49 166 54 84 97 84 66 0z m-329 12 c-9 -24 -110 -48 -110 -27 0 11
109 67 115 60 3 -3 1 -18 -5 -33z m430 -79 c0 -28 14 -39 50 -39 32 0 50 -11
50 -31 0 -17 10 -25 21 -18 40 24 139 -33 137 -78 -2 -32 -5 -34 -12 -9 -9 36
-26 40 -173 37 -85 -1 -96 3 -85 34 11 33 11 33 -15 0 -59 -75 -126 -33 -92
58 37 102 119 133 119 46z m840 31 c0 -41 -182 -153 -211 -129 -14 11 -31 9
-45 -5 -16 -16 -24 -17 -24 -2 0 34 65 51 83 22 13 -21 16 -21 17 0 0 15 7 22
15 17 8 -5 27 4 41 19 15 16 17 28 5 28 -12 0 -21 10 -21 22 0 12 13 17 28 11
16 -6 34 2 40 18 14 38 72 37 72 -1z m-1336 -50 c156 -51 201 -96 153 -153
-11 -14 -15 -34 -8 -45 30 -50 -207 -21 -314 39 -19 10 -52 19 -74 19 -28 0
-36 9 -28 31 8 20 24 26 45 17 79 -33 177 -64 242 -76 39 -7 0 13 -86 45 -178
66 -179 67 -163 109 8 19 25 27 46 19 29 -11 30 -9 4 24 -35 43 -39 43 183
-29z m1454 -133 c35 -73 59 -137 55 -141 -7 -7 -133 245 -133 266 0 29 25 -10
78 -125z m-1193 -67 c6 17 16 44 20 60 5 17 15 -11 23 -62 8 -58 4 -113 -11
-150 l-25 -58 -7 55 c-8 54 -45 79 -45 30 0 -14 -19 -37 -42 -52 -75 -47 35
-71 182 -40 48 10 78 7 100 -13 16 -15 53 -33 80 -40 74 -19 151 -87 126 -112
-14 -14 -30 -11 -51 10 -27 27 -33 27 -42 2 -7 -17 -25 -24 -43 -17 -18 7 -28
24 -22 38 5 14 -2 36 -17 48 -30 25 -78 -76 -54 -113 21 -33 178 -50 189 -21
6 14 17 -4 25 -40 8 -36 22 -65 33 -65 10 0 14 8 8 17 -6 10 7 38 28 63 31 36
35 52 17 73 -12 16 -16 34 -9 42 8 8 23 1 33 -16 15 -24 18 -23 19 7 0 20 9
31 21 23 11 -7 15 -30 9 -51 -19 -57 5 -82 52 -57 30 16 48 15 69 -2 16 -13
29 -17 29 -9 0 8 14 4 30 -10 34 -28 41 -100 10 -100 -11 0 -20 13 -20 29 0
16 -9 34 -20 41 -11 7 -18 -7 -15 -34 4 -38 -4 -46 -50 -45 -30 0 -55 -9 -55
-20 -1 -43 -34 -72 -67 -59 -22 8 -30 26 -22 50 6 20 2 53 -9 73 -19 31 -21
31 -21 -10 -1 -25 -13 -45 -29 -45 -16 0 -32 -11 -37 -25 -7 -20 -15 -20 -39
0 -16 14 -52 25 -78 24 -215 -3 -218 -2 -220 77 -2 41 -7 58 -12 38 -5 -21
-21 -32 -36 -27 -15 6 -31 0 -35 -12 -5 -15 -23 -6 -46 21 -21 24 -46 44 -55
44 -61 0 -91 90 -52 153 47 77 15 112 -33 38 -19 -28 -42 -51 -51 -51 -31 0
-19 65 17 92 31 24 30 25 -18 17 -31 -5 -62 3 -77 21 -29 35 -7 37 145 12 118
-19 127 -9 148 158 15 126 16 127 28 50 7 -47 17 -68 24 -50z m1075 7 c0 -26
-9 -47 -20 -47 -32 0 -85 97 -72 133 18 47 92 -22 92 -86z m-960 -57 c0 -59
-10 -114 -22 -121 -16 -10 -19 17 -9 93 10 84 8 101 -10 78 -19 -25 -21 -24
-11 7 7 20 12 45 12 56 0 11 9 14 20 7 11 -7 20 -61 20 -120z m475 74 c24 19
29 19 18 1 -9 -14 -6 -25 6 -25 11 0 21 14 21 32 0 17 11 28 25 23 14 -5 25
-25 25 -45 0 -20 11 -40 25 -45 14 -5 25 6 25 23 0 36 72 80 101 61 12 -7 34
-2 50 12 33 27 38 4 16 -76 -13 -52 -47 -61 -47 -13 0 27 -6 28 -29 9 -16 -14
-39 -19 -50 -12 -12 8 -21 5 -21 -4 0 -25 307 -89 348 -73 20 8 44 0 58 -17
13 -16 110 -58 214 -93 105 -35 204 -69 220 -76 38 -15 76 -25 140 -34 28 -4
57 -8 65 -10 21 -3 18 -86 -3 -120 -15 -24 -32 -24 -111 3 -77 25 -92 26 -83
3 6 -16 4 -28 -5 -28 -27 0 -60 44 -51 69 16 40 -204 106 -768 232 -58 13
-120 38 -138 56 -18 18 -55 35 -83 37 -77 6 -90 34 -50 109 33 63 36 64 43 21
6 -40 12 -43 39 -20z m-404 -116 c-7 -37 -23 -73 -35 -81 -14 -8 -19 -3 -12
15 33 89 39 122 18 109 -21 -13 -19 6 12 84 20 53 33 -42 17 -127z m182 105
c58 -3 123 -33 70 -33 -12 0 -23 -18 -23 -40 0 -33 -12 -39 -65 -35 -58 4 -66
-1 -71 -50 -4 -30 -16 -55 -28 -55 -20 0 -17 27 14 110 15 40 15 40 -17 0 -30
-38 -32 -36 -32 47 -1 82 2 87 44 73 25 -8 73 -16 108 -17z m144 -175 c14 -23
21 -47 15 -53 -17 -16 -92 56 -92 87 0 37 45 16 77 -34z m2463 -34 c0 -53
-124 -201 -205 -243 l-91 -49 -287 65 c-158 36 -318 74 -357 83 -38 10 -114
24 -167 31 -184 23 -63 45 447 79 281 19 514 38 518 42 16 15 142 8 142 -8z
m-2323 -66 c69 -24 80 -47 31 -66 -54 -21 -93 -14 -82 16 6 15 1 37 -12 50
-28 28 -16 28 63 0z m264 -59 c38 -34 51 -52 29 -41 -61 31 -143 101 -119 102
11 0 52 -27 90 -61z m314 -39 c105 -24 130 -46 76 -67 -15 -6 -39 2 -52 18
-35 42 -64 36 -40 -9 31 -57 96 -66 131 -16 21 31 36 36 52 21 15 -16 9 -31
-25 -55 -69 -48 -111 -39 -182 38 -36 39 -76 70 -89 70 -13 0 -30 10 -37 22
-9 14 -1 19 23 12 21 -6 85 -21 143 -34z m-1604 -52 c-7 -29 -30 -76 -52 -105
-71 -97 -85 -183 -28 -178 27 2 48 13 46 24 -15 125 48 175 127 102 l53 -50
13 59 c17 76 45 93 87 51 28 -28 28 -31 2 -21 -25 9 -45 -32 -99 -198 -38
-115 -75 -205 -82 -201 -8 5 -20 -2 -26 -16 -6 -14 -6 7 1 45 7 39 15 106 17
150 3 44 11 98 19 120 13 37 12 38 -15 5 -15 -19 -39 -35 -51 -35 -13 0 -23
-13 -23 -30 0 -19 -20 -30 -55 -30 -30 0 -91 -6 -135 -12 -59 -8 -72 -6 -50
10 17 11 30 29 30 40 0 10 41 66 90 124 50 57 98 125 107 151 22 64 41 60 24
-5z m2569 -67 c0 -12 32 -37 70 -55 74 -35 78 -42 55 -79 -24 -37 -209 13
-193 53 7 16 12 60 10 97 -3 61 0 64 27 37 17 -17 31 -41 31 -53z m-675 14
c16 -46 -8 -93 -40 -80 -24 9 -29 2 -20 -31 9 -37 6 -40 -26 -24 -20 11 -57
21 -83 21 -43 1 -44 3 -6 18 22 9 62 40 88 69 54 58 75 64 87 27z m989 -104
c86 -39 141 -70 123 -70 -40 -1 -202 67 -263 109 -67 47 -29 36 140 -39z m1
-65 c47 -16 85 -35 85 -40 0 -16 -151 11 -209 37 -54 25 -48 68 6 46 18 -7 71
-27 118 -43z m-2340 -20 c-43 -11 -45 -38 -4 -54 17 -6 35 2 42 19 8 20 19 24
34 11 24 -19 49 -22 237 -22 l115 1 -45 -47 c-61 -66 -129 -81 -145 -32 -12
39 -32 48 -56 25 -7 -8 3 -31 22 -53 34 -38 33 -39 -11 -25 -32 10 -43 6 -40
-12 4 -20 -23 -28 -98 -29 -164 -4 -169 -9 -164 -153 2 -69 -6 -145 -19 -170
-13 -24 -21 -95 -18 -159 4 -84 -2 -115 -20 -111 -27 5 -34 -20 -12 -42 19
-18 20 -131 2 -120 -8 5 -15 31 -15 58 0 39 -10 49 -50 49 l-50 0 5 190 c3
105 -2 190 -10 190 -13 0 -26 -249 -18 -345 1 -19 -11 -35 -27 -35 -17 0 -32
16 -33 35 -2 19 -6 49 -8 65 -3 17 -6 80 -7 140 -2 79 -8 102 -22 80 -31 -47
-24 154 8 260 83 273 152 316 275 172 l53 -62 -10 56 c-12 62 39 136 92 132
26 -2 25 -4 -3 -12z m2903 -9 c124 -29 124 -26 5 -144 -89 -88 -103 -95 -168
-83 -98 19 -293 165 -242 181 20 7 64 24 97 39 76 34 178 37 308 7z m-3520
-266 c17 -125 -6 -174 -25 -56 -16 95 -17 195 -2 180 7 -6 19 -62 27 -124z
m-131 4 c18 -149 16 -199 -5 -145 -26 66 -45 250 -25 250 9 0 23 -47 30 -105z
m70 -8 c26 -129 29 -180 10 -161 -20 21 -64 274 -47 274 8 0 25 -51 37 -113z
m1065 53 c37 -70 78 -168 78 -185 0 -10 18 -42 40 -70 54 -68 55 -225 3 -273
-36 -32 -38 -30 -48 62 -5 53 -33 141 -62 196 -29 55 -67 134 -86 175 -18 41
-41 75 -51 75 -10 0 -9 -15 1 -35 19 -35 104 -281 152 -437 23 -76 23 -82 -9
-74 -20 5 -41 0 -49 -12 -8 -14 0 -17 23 -10 20 7 9 -6 -24 -29 -32 -23 -66
-35 -75 -26 -19 19 -117 588 -104 601 18 18 31 -16 42 -116 8 -63 21 -100 35
-96 25 9 18 115 -9 143 -11 10 -19 40 -19 66 0 74 127 110 162 45z m-1413
-121 c-19 -21 -42 -33 -52 -27 -31 19 -18 48 23 48 24 0 41 14 42 35 1 23 5
26 12 9 5 -15 -6 -44 -25 -65z m1568 34 c25 -26 54 -80 65 -120 11 -40 32 -73
48 -73 15 0 33 -17 40 -39 15 -48 -39 -181 -74 -181 -21 1 -21 4 -1 17 28 17
-6 223 -36 223 -19 0 -88 117 -103 175 -16 58 6 57 61 -2z m-430 -143 c-7 -19
1 -30 21 -30 39 0 40 -26 3 -130 -27 -79 -27 -80 26 -92 48 -11 46 -14 -31
-27 -101 -19 -168 -132 -114 -193 36 -40 35 -58 -2 -58 -16 0 -30 -10 -30 -22
0 -12 -14 -17 -31 -10 -24 9 -57 -43 -145 -228 -129 -271 -140 -281 -148 -135
-8 147 102 385 170 368 50 -13 146 71 124 107 -7 11 2 66 20 121 20 58 31 142
27 199 -6 86 -2 99 33 104 27 4 41 23 43 56 5 85 9 91 28 45 10 -25 13 -59 6
-75z m-1062 41 c13 -70 -13 -106 -53 -72 -38 31 -41 64 -8 97 36 36 50 30 61
-25z m1754 -350 c26 -48 27 -67 1 -51 -11 7 -36 2 -55 -10 -30 -19 -29 -20 10
-10 31 9 49 3 58 -20 7 -18 22 -28 35 -24 12 5 39 -14 60 -42 l39 -50 -65 13
c-92 18 -58 -21 44 -50 138 -39 175 -97 62 -97 -208 0 -495 342 -305 365 37 5
73 10 81 12 8 2 24 -14 35 -36z m-239 -60 c0 -26 -54 -52 -139 -68 -77 -15
-73 -6 22 47 75 42 117 49 117 21z m38 -94 c-39 -47 224 -247 325 -247 13 0 8
-17 -13 -40 -44 -48 -111 -51 -201 -8 -122 58 -123 90 -1 47 61 -21 127 -38
147 -38 38 1 -124 81 -285 140 -95 34 -97 36 -35 38 113 2 70 41 -45 41 -128
0 -141 23 -35 66 90 37 173 38 143 1z m-1387 -402 c28 -91 56 -180 63 -198 16
-43 -61 -19 -146 46 -76 58 -87 59 -73 4 8 -30 4 -39 -12 -29 -28 18 -31 112
-3 112 11 0 20 8 20 19 0 10 10 44 23 75 22 54 26 72 34 156 6 63 35 5 94
-185z m1990 132 c27 -49 31 -45 -91 -86 -54 -19 -106 -44 -114 -57 -12 -18
-15 -18 -16 1 0 14 -18 25 -40 25 -52 0 -51 23 5 74 99 90 220 111 256 43z
m-285 -253 c66 -55 74 -124 14 -124 -29 0 -150 130 -150 161 0 37 70 18 136
-37z m-85 -69 c92 -99 95 -105 51 -112 -33 -4 -63 13 -103 60 -32 37 -58 62
-58 55 -2 -33 45 -138 62 -138 50 0 86 -64 51 -89 -18 -14 -29 -29 -24 -34 5
-6 -8 -45 -30 -88 -22 -42 -40 -69 -40 -59 0 10 -13 0 -28 -21 -16 -22 -24
-62 -19 -91 8 -36 1 -56 -21 -64 -18 -7 -32 -29 -33 -48 -1 -24 -10 -16 -30
24 -28 59 -27 34 3 -73 7 -23 4 -37 -6 -31 -9 6 -17 -6 -17 -26 0 -21 20 -49
45 -62 97 -52 5 -132 -122 -108 -59 11 -60 10 -23 -19 21 -17 62 -31 90 -32
l51 0 -45 -38 c-31 -26 -37 -41 -20 -48 14 -5 -15 -10 -65 -11 -85 -1 -87 1
-43 26 40 22 42 28 15 38 -38 15 -43 101 -7 129 14 11 42 13 65 4 55 -22 70
-22 70 1 0 10 -22 25 -50 32 -51 12 -67 55 -30 78 13 8 13 25 0 50 -12 23 -13
42 -1 49 25 16 81 130 81 165 0 16 -8 24 -17 18 -9 -6 -15 27 -13 74 6 138 9
157 27 146 9 -6 15 21 14 60 -3 95 18 125 52 71 34 -55 84 -58 67 -3 -21 66
-30 220 -13 220 9 0 60 -47 114 -105z m-1651 -55 c106 -106 36 -203 -86 -120
-50 33 -99 60 -110 60 -11 0 -25 13 -31 29 -27 72 161 97 227 31z m-75 -289
c62 -20 108 -98 52 -89 -15 2 -52 -6 -82 -18 -37 -16 -71 -17 -106 -4 -64 25
-69 25 -69 1 0 -27 108 -81 159 -81 51 0 51 -10 0 -82 -23 -32 -36 -66 -30
-76 21 -34 -31 -120 -65 -107 -20 8 -26 4 -16 -11 9 -15 4 -20 -14 -13 -35 14
-58 -59 -29 -88 14 -14 7 -17 -24 -9 -39 10 -44 6 -32 -31 19 -58 0 -108 -52
-140 -37 -23 -41 -23 -31 4 7 19 3 27 -12 22 -16 -6 -24 14 -24 61 0 38 8 70
17 70 10 0 8 12 -5 27 -32 40 -15 124 24 117 23 -4 36 16 46 67 9 48 19 64 29
47 33 -54 42 76 10 152 -38 92 -39 117 -3 104 21 -9 24 3 12 58 -9 38 -8 68 2
68 10 0 18 -8 18 -19 0 -29 60 -81 95 -81 28 0 28 3 1 35 -34 38 -96 154 -96
178 0 8 36 -20 80 -63 44 -43 109 -87 145 -99z m0 49 c12 0 17 -5 11 -11 -21
-20 -114 30 -138 74 -22 42 -19 41 41 -9 35 -30 74 -54 86 -54z m1567 -818
c-18 -19 -73 -55 -123 -80 -108 -54 -105 -73 6 -43 49 13 88 39 105 71 15 27
35 50 45 50 9 0 3 -20 -14 -44 -40 -57 -40 -84 0 -68 44 16 16 -23 -35 -50
-36 -20 -40 -18 -29 13 11 27 8 30 -13 13 -14 -12 -64 -28 -110 -36 -117 -18
-124 57 -9 105 l74 31 -59 27 -60 26 70 3 c39 1 88 10 110 19 57 23 78 3 42
-37z m-1894 -55 c57 -52 22 -137 -63 -152 -42 -7 -42 -9 15 -34 l60 -26 -99
-27 c-104 -27 -147 -20 -84 15 25 15 33 35 25 67 -11 42 -3 48 72 61 l84 14
-54 28 c-30 16 -54 36 -54 46 0 10 -6 32 -12 50 -17 42 44 20 110 -42z m1762
-188 c0 -23 -114 -26 -128 -2 -6 9 21 18 59 19 38 2 69 -6 69 -17z m358 -63
c171 -18 242 -34 271 -60 23 -21 28 -36 14 -36 -14 0 -20 -9 -13 -20 7 -12 23
-15 36 -9 13 7 2 -7 -24 -30 -46 -41 -98 -23 -69 23 5 9 5 16 0 16 -5 0 -25 6
-43 13 -27 10 -32 2 -27 -45 8 -63 -48 -95 -69 -40 -8 19 -3 26 14 20 14 -5
25 3 25 19 0 20 -19 28 -61 26 -52 -2 -61 -10 -56 -48 7 -51 -111 -45 -142 8
-19 31 -327 18 -368 -17 -19 -15 -26 -13 -27 7 0 18 -10 14 -30 -12 -27 -36
-29 -33 -29 44 0 45 -5 94 -11 109 -8 23 15 26 118 20 72 -5 145 1 166 13 47
28 48 28 325 -1z m-2149 -232 c8 -39 0 -44 -65 -44 -58 1 -67 5 -44 22 24 17
25 23 4 32 -20 8 -18 19 10 46 42 41 81 18 95 -56z m71 -82 c0 -28 -42 -36
-148 -26 -65 6 -88 14 -70 26 37 23 218 23 218 0z"/>
<path d="M2811 5782 c-15 -25 59 -75 139 -93 l60 -13 -50 36 c-27 21 -51 33
-53 28 -1 -6 -21 6 -43 26 -25 23 -45 29 -53 16z"/>
<path d="M2691 5005 c-25 -26 -8 -65 29 -65 22 0 40 9 40 20 0 11 10 20 22 20
16 0 17 -8 2 -25 -15 -18 -12 -37 8 -64 26 -36 28 -34 23 29 -6 64 -88 121
-124 85z"/>
<path d="M2472 5423 c-10 -17 102 -130 133 -135 8 -2 22 -4 30 -6 8 -1 2 -11
-15 -22 -26 -17 -25 -19 4 -20 46 0 63 33 25 48 -19 7 -25 22 -16 37 10 17 3
16 -20 -3 -29 -24 -32 -24 -23 1 12 32 -101 127 -118 100z"/>
<path d="M2071 4461 c-39 -75 -42 -70 34 -75 201 -11 212 -9 182 38 -16 26
-20 36 -24 76 -6 45 -45 16 -56 -42 l-13 -62 -39 62 c-48 76 -47 76 -84 3z"/>
<path d="M2051 3963 c-7 -21 -26 -45 -43 -51 -17 -6 -25 -21 -18 -32 7 -11 -7
-75 -31 -142 -23 -66 -38 -126 -31 -132 11 -12 91 160 93 201 0 12 13 59 29
102 15 44 25 83 21 87 -4 4 -13 -11 -20 -33z"/>
<path d="M2273 3985 c-5 -8 14 -32 43 -54 46 -35 50 -35 38 -3 -8 19 -14 44
-14 54 0 22 -54 24 -67 3z"/>
<path d="M2580 3526 c0 -23 14 -67 32 -99 l31 -57 -13 80 c-15 89 -50 143 -50
76z"/>
<path d="M3080 2390 c-24 -64 -25 -70 -3 -70 27 0 64 97 42 110 -10 7 -28 -11
-39 -40z"/>
<path d="M2909 2278 c-19 -30 22 -66 60 -51 17 6 31 26 31 42 0 35 -71 42 -91
9z"/>
<path d="M3025 4107 c-62 -25 -14 -47 105 -47 142 0 174 27 55 47 -85 14 -124
14 -160 0z"/>
<path d="M3973 3757 c-7 -26 -13 -247 -13 -491 0 -516 3 -506 -176 -506 -137
-1 -190 -25 -128 -58 69 -37 232 -27 289 17 90 71 98 124 91 584 -6 412 -29
580 -63 454z"/>
<path d="M3171 3695 c-76 -67 -41 -111 51 -64 288 149 523 -220 280 -440 -53
-47 -54 -70 -1 -57 147 39 207 315 100 463 -105 144 -322 193 -430 98z"/>
<path d="M3245 3559 c-25 -10 -45 -27 -45 -38 0 -35 51 -24 90 19 39 43 27 48
-45 19z"/>
<path d="M2354 2746 c-86 -22 34 -61 199 -64 178 -4 362 34 294 60 -40 16
-434 19 -493 4z"/>
</g>
</svg>
