<?xml version="1.0" standalone="no"?>
<!DOCTYPE svg PUBLIC "-//W3C//DTD SVG 20010904//EN"
 "http://www.w3.org/TR/2001/REC-SVG-20010904/DTD/svg10.dtd">
<svg version="1.0" xmlns="http://www.w3.org/2000/svg"
 width="266.000000pt" height="189.000000pt" viewBox="0 0 266.000000 189.000000"
 preserveAspectRatio="xMidYMid meet">
<metadata>
Created by potrace 1.10, written by Peter Selinger 2001-2011
</metadata>
<g transform="translate(0.000000,189.000000) scale(0.050000,-0.050000)"
fill="#000000" stroke="none">
<path d="M120 3742 c0 -93 81 -99 109 -7 12 40 7 45 -48 45 -46 0 -61 -9 -61
-38z"/>
<path d="M369 3738 c-15 -50 17 -78 73 -63 46 12 50 76 6 93 -51 20 -65 14
-79 -30z"/>
<path d="M600 3731 c0 -31 14 -53 42 -61 50 -17 74 2 42 34 -17 17 -17 30 -1
50 17 20 11 26 -31 26 -42 0 -52 -9 -52 -49z"/>
<path d="M820 3730 c0 -42 9 -50 60 -50 51 0 60 8 60 50 0 53 -29 67 -48 25
-10 -20 -14 -20 -24 0 -19 42 -48 28 -48 -25z"/>
<path d="M1084 3725 c4 -40 19 -57 54 -62 38 -5 45 1 35 27 -7 18 -13 46 -13
62 0 15 -19 28 -41 28 -34 0 -40 -11 -35 -55z"/>
<path d="M1314 3768 c-39 -39 -12 -88 47 -88 53 0 61 7 55 45 -6 44 -72 72
-102 43z"/>
<path d="M1553 3749 c14 -36 -69 -115 -107 -100 -18 7 -26 -9 -26 -51 0 -54 6
-60 55 -54 46 5 54 15 52 59 -3 43 6 55 52 64 84 17 100 113 19 113 -43 0 -54
-8 -45 -31z"/>
<path d="M1780 3740 c0 -43 51 -88 79 -71 44 28 23 101 -29 104 -36 2 -50 -7
-50 -33z"/>
<path d="M2036 3756 c17 -17 17 -30 1 -50 -30 -36 -10 -53 41 -36 67 21 57
110 -12 110 -41 0 -49 -5 -30 -24z"/>
<path d="M2240 3734 c0 -52 55 -82 100 -54 43 27 14 90 -45 96 -47 6 -55 -1
-55 -42z"/>
<path d="M2480 3754 c0 -58 53 -104 88 -76 56 46 40 102 -28 102 -36 0 -60
-10 -60 -26z"/>
<path d="M2720 3732 c0 -32 14 -51 45 -59 59 -16 84 13 56 65 -32 60 -101 56
-101 -6z"/>
<path d="M2960 3754 c0 -49 50 -97 86 -83 40 15 44 51 10 85 -32 32 -96 31
-96 -2z"/>
<path d="M3200 3732 c0 -32 14 -51 45 -59 59 -16 84 13 56 65 -32 60 -101 56
-101 -6z"/>
<path d="M3449 3725 c18 -68 22 -73 60 -58 56 21 39 113 -21 113 -47 0 -51 -6
-39 -55z"/>
<path d="M3660 3745 c1 -101 102 -108 116 -8 6 36 -3 43 -55 43 -45 0 -61 -9
-61 -35z"/>
<path d="M3900 3742 c0 -48 51 -90 90 -75 60 23 37 113 -30 113 -45 0 -60 -9
-60 -38z"/>
<path d="M4140 3731 c0 -68 36 -83 82 -34 54 58 47 83 -22 83 -50 0 -60 -8
-60 -49z"/>
<path d="M4380 3730 c0 -53 36 -66 76 -26 40 40 27 76 -26 76 -40 0 -50 -10
-50 -50z"/>
<path d="M4620 3752 c0 -51 24 -92 52 -92 15 0 28 13 28 28 0 16 5 43 12 60 9
24 -1 32 -40 32 -32 0 -52 -11 -52 -28z"/>
<path d="M4859 3737 c-18 -32 -17 -46 1 -57 44 -27 100 2 100 52 0 62 -69 65
-101 5z"/>
<path d="M5089 3738 c-8 -27 -3 -50 14 -60 46 -30 87 -10 93 47 9 71 -85 82
-107 13z"/>
<path d="M1900 3608 c0 -54 8 -68 39 -68 76 0 76 106 0 126 -33 9 -39 0 -39
-58z"/>
<path d="M4503 3619 c12 -121 115 -96 117 28 0 10 -15 12 -33 5 -17 -7 -45 -2
-61 11 -25 21 -28 14 -23 -44z"/>
<path d="M0 3599 c0 -55 5 -60 45 -48 91 27 93 109 3 109 -40 0 -48 -10 -48
-61z"/>
<path d="M240 3610 c0 -65 53 -87 90 -38 38 51 28 74 -36 82 -46 6 -54 0 -54
-44z"/>
<path d="M478 3635 c-1 -14 -4 -43 -5 -65 -2 -31 -15 -39 -58 -34 -59 7 -68
-14 -34 -77 21 -40 99 -55 99 -19 0 11 -9 20 -20 20 -12 0 -10 16 5 40 13 22
33 40 43 40 35 0 89 64 79 92 -14 35 -106 37 -109 3z"/>
<path d="M732 3628 c-24 -62 -12 -88 38 -88 37 0 50 11 50 41 0 23 -9 36 -20
29 -11 -7 -14 1 -8 19 8 20 1 31 -18 31 -16 0 -35 -14 -42 -32z"/>
<path d="M953 3616 c-20 -73 -16 -79 42 -72 44 5 55 16 55 56 0 69 -79 82 -97
16z"/>
<path d="M1200 3630 c-35 -43 -10 -90 49 -90 43 0 51 9 51 60 0 67 -55 84
-100 30z"/>
<path d="M1664 3617 c8 -53 67 -94 95 -66 36 36 1 109 -53 109 -39 0 -47 -9
-42 -43z"/>
<path d="M2133 3631 c-13 -34 36 -91 78 -91 19 0 29 21 29 60 0 66 -84 90
-107 31z"/>
<path d="M2368 3613 c-7 -22 -1 -45 15 -55 46 -30 87 -10 93 47 8 67 -87 74
-108 8z"/>
<path d="M2611 3626 c-14 -36 34 -86 81 -86 14 0 28 -19 32 -43 9 -60 71 -97
97 -57 31 49 12 90 -46 96 -46 6 -55 16 -55 65 0 68 -85 87 -109 25z"/>
<path d="M2847 3602 c6 -77 100 -75 109 2 6 48 0 53 -53 52 -52 -2 -60 -9 -56
-54z"/>
<path d="M3092 3628 c-20 -52 -14 -68 27 -68 34 0 81 52 81 89 0 26 -97 8
-108 -21z"/>
<path d="M3326 3632 c7 -17 3 -36 -7 -43 -32 -20 0 -49 54 -49 71 0 61 107
-11 117 -36 5 -45 -1 -36 -25z"/>
<path d="M3552 3643 c-20 -32 13 -103 49 -103 47 0 65 30 49 80 -13 40 -78 55
-98 23z"/>
<path d="M3793 3647 c-40 -41 -12 -107 47 -107 53 0 60 7 60 60 0 59 -66 87
-107 47z"/>
<path d="M4034 3648 c-25 -25 -15 -83 16 -95 49 -19 93 9 86 55 -6 42 -73 68
-102 40z"/>
<path d="M4273 3647 c-35 -35 -12 -107 34 -107 60 0 69 11 58 70 -9 48 -61 68
-92 37z"/>
<path d="M4740 3630 c-35 -42 -10 -90 48 -90 53 0 85 30 53 49 -10 7 -14 25
-8 42 15 39 -60 39 -93 -1z"/>
<path d="M4960 3612 c0 -63 72 -84 101 -30 27 50 9 78 -52 78 -38 0 -49 -10
-49 -48z"/>
<path d="M5207 3630 c-19 -50 9 -90 62 -90 60 0 64 15 16 53 -33 26 -33 27 0
15 24 -8 35 -2 35 20 0 42 -97 43 -113 2z"/>
<path d="M126 3485 c6 -41 18 -53 46 -48 89 15 87 103 -2 103 -45 0 -50 -7
-44 -55z"/>
<path d="M596 3529 c-25 -24 33 -103 68 -94 57 15 48 105 -11 105 -25 0 -51
-5 -57 -11z"/>
<path d="M831 3483 c-9 -40 -29 -63 -62 -72 -57 -14 -67 -80 -16 -100 37 -14
66 19 67 74 0 33 10 38 80 43 50 3 38 101 -13 108 -34 5 -46 -7 -56 -53z"/>
<path d="M1060 3505 c1 -66 31 -91 77 -66 67 35 56 101 -17 101 -44 0 -60 -9
-60 -35z"/>
<path d="M1308 3511 c-19 -50 4 -85 55 -81 66 5 67 97 2 106 -27 4 -50 -6 -57
-25z"/>
<path d="M1533 3482 c-8 -40 -26 -61 -62 -70 -38 -9 -51 -26 -51 -62 0 -42 -9
-50 -60 -50 -51 0 -60 8 -60 51 0 28 -8 46 -19 40 -10 -6 -24 -3 -31 9 -21 33
-70 22 -70 -16 0 -46 38 -84 84 -84 25 0 36 -15 36 -49 0 -55 31 -84 48 -46
10 20 14 20 24 0 17 -38 48 -9 48 45 0 59 15 69 85 56 46 -9 53 -18 43 -58
-12 -46 60 -73 96 -37 23 22 -9 89 -42 89 -44 0 -82 39 -82 82 0 38 46 62 87
46 28 -10 59 79 37 102 -35 34 -100 6 -111 -48z"/>
<path d="M1787 3510 c-18 -47 6 -85 52 -82 23 1 41 9 41 17 0 8 0 33 0 55 0
48 -75 56 -93 10z"/>
<path d="M2007 3510 c-13 -34 25 -90 60 -90 26 0 74 92 57 109 -23 23 -106 10
-117 -19z"/>
<path d="M2275 3525 c-48 -11 -44 -79 5 -95 46 -15 80 1 80 39 0 37 -43 65
-85 56z"/>
<path d="M2487 3510 c-15 -39 30 -94 69 -86 59 11 53 116 -6 116 -28 0 -56
-14 -63 -30z"/>
<path d="M2967 3510 c-16 -42 40 -99 81 -84 23 9 27 24 14 58 -20 56 -77 71
-95 26z"/>
<path d="M3200 3491 c0 -54 70 -89 106 -53 15 15 11 33 -16 62 -49 54 -90 51
-90 -9z"/>
<path d="M3440 3501 c0 -53 71 -93 88 -49 24 62 12 88 -38 88 -36 0 -50 -11
-50 -39z"/>
<path d="M3663 3496 c13 -92 124 -113 113 -21 -5 44 -18 56 -63 61 -49 6 -55
1 -50 -40z"/>
<path d="M3907 3509 c-15 -38 8 -63 63 -72 31 -5 41 6 46 48 8 63 -86 83 -109
24z"/>
<path d="M4140 3495 c0 -66 15 -76 73 -50 63 29 52 83 -18 91 -46 6 -55 -1
-55 -41z"/>
<path d="M4404 3516 c-38 -38 -29 -96 15 -96 38 0 81 53 81 99 0 29 -66 27
-96 -3z"/>
<path d="M4620 3491 c0 -62 24 -77 70 -43 46 33 27 92 -29 92 -30 0 -41 -13
-41 -49z"/>
<path d="M4859 3498 c-17 -31 -17 -48 0 -65 30 -30 89 8 97 64 9 58 -66 59
-97 1z"/>
<path d="M5105 3527 c-36 -15 -31 -86 7 -100 40 -16 97 41 81 81 -12 32 -41
38 -88 19z"/>
<path d="M43 3402 c-35 -22 -22 -92 17 -92 33 0 53 65 27 91 -10 10 -29 10
-44 1z"/>
<path d="M266 3387 c-13 -35 47 -94 77 -75 29 18 19 83 -15 96 -44 17 -48 16
-62 -21z"/>
<path d="M493 3407 c-25 -26 -13 -83 21 -96 41 -15 89 38 72 81 -11 29 -69 38
-93 15z"/>
<path d="M947 3389 c-15 -38 -10 -42 58 -60 49 -12 55 -8 55 39 0 60 -92 77
-113 21z"/>
<path d="M1660 3368 c0 -47 6 -51 55 -39 68 18 73 22 58 60 -21 56 -113 39
-113 -21z"/>
<path d="M1900 3381 c0 -45 30 -69 69 -54 41 15 14 93 -31 93 -24 0 -38 -14
-38 -39z"/>
<path d="M2127 3388 c-16 -40 41 -97 81 -81 56 21 40 113 -19 113 -27 0 -56
-14 -62 -32z"/>
<path d="M2385 3407 c-28 -12 -34 -79 -8 -95 30 -19 90 40 77 75 -13 34 -25
37 -69 20z"/>
<path d="M2612 3403 c-20 -32 13 -103 49 -103 46 0 74 78 36 102 -34 22 -72
23 -85 1z"/>
<path d="M2853 3407 c-19 -19 -16 -107 3 -107 40 0 90 56 78 87 -13 33 -56 44
-81 20z"/>
<path d="M3087 3388 c-19 -49 43 -101 82 -69 40 33 40 73 -1 89 -49 19 -68 14
-81 -20z"/>
<path d="M3334 3407 c-8 -7 -14 -35 -14 -60 0 -39 -10 -47 -60 -47 -51 0 -60
-8 -60 -50 0 -27 8 -50 18 -50 39 0 82 25 82 48 0 27 71 92 102 92 11 0 18 16
14 35 -7 36 -58 56 -82 32z"/>
<path d="M3540 3379 c0 -54 53 -89 90 -59 53 44 37 93 -30 93 -43 0 -60 -9
-60 -34z"/>
<path d="M3800 3371 c0 -62 21 -75 68 -40 46 33 29 89 -27 89 -30 0 -41 -13
-41 -49z"/>
<path d="M4026 3387 c-18 -46 12 -102 35 -66 17 25 21 25 38 0 22 -34 52 17
37 62 -11 33 -97 36 -110 4z"/>
<path d="M4273 3407 c-24 -25 -13 -67 17 -67 17 0 30 -10 30 -21 0 -12 9 -16
20 -9 37 23 23 110 -17 110 -20 0 -42 -6 -50 -13z"/>
<path d="M4508 3391 c-16 -39 25 -91 72 -91 23 0 39 -21 47 -61 11 -54 17 -58
53 -39 60 32 52 96 -14 104 -39 4 -58 20 -66 56 -14 57 -74 78 -92 31z"/>
<path d="M4747 3389 c-9 -22 0 -45 24 -62 55 -40 72 -33 65 28 -7 63 -69 86
-89 34z"/>
<path d="M4985 3407 c-40 -17 -29 -83 17 -97 49 -16 56 -11 63 50 5 49 -28 68
-80 47z"/>
<path d="M5226 3387 c-8 -20 2 -43 25 -60 55 -40 69 -33 69 33 0 68 -71 88
-94 27z"/>
<path d="M835 3271 c19 -90 22 -94 65 -71 61 33 51 94 -17 104 -49 7 -56 2
-48 -33z"/>
<path d="M1835 3306 c-38 -6 -55 -21 -55 -47 0 -46 76 -94 89 -55 10 35 28
117 24 113 -2 -2 -28 -7 -58 -11z"/>
<path d="M3668 3297 c-23 -38 15 -99 59 -93 66 9 69 88 4 101 -29 5 -57 2 -63
-8z"/>
<path d="M4424 3304 c-34 -5 -45 -18 -40 -51 8 -56 102 -61 113 -6 9 48 -15
67 -73 57z"/>
<path d="M120 3264 c0 -63 42 -88 84 -51 55 50 45 87 -24 87 -44 0 -60 -9 -60
-36z"/>
<path d="M369 3258 c-16 -53 24 -83 75 -56 44 24 47 70 4 86 -51 20 -65 14
-79 -30z"/>
<path d="M604 3255 c9 -69 96 -75 96 -6 0 41 -10 51 -51 51 -42 0 -51 -8 -45
-45z"/>
<path d="M1072 3249 c-9 -35 -31 -54 -73 -62 -46 -9 -59 -23 -59 -61 0 -76
107 -58 116 19 6 47 16 55 67 55 48 0 59 7 49 32 -7 17 -12 40 -12 50 0 43
-76 15 -88 -33z"/>
<path d="M2020 3249 c0 -69 87 -63 96 6 6 37 -3 45 -45 45 -41 0 -51 -10 -51
-51z"/>
<path d="M2252 3268 c-17 -43 -16 -44 24 -66 51 -27 91 3 75 56 -16 49 -81 56
-99 10z"/>
<path d="M2480 3273 c0 -47 69 -96 96 -69 47 47 28 96 -36 96 -37 0 -60 -10
-60 -27z"/>
<path d="M2724 3255 c4 -33 22 -47 64 -52 47 -5 55 0 45 27 -7 18 -13 42 -13
52 0 10 -23 18 -51 18 -42 0 -51 -8 -45 -45z"/>
<path d="M2960 3273 c0 -15 16 -42 36 -60 48 -42 93 -6 62 50 -22 43 -98 50
-98 10z"/>
<path d="M3444 3255 c4 -30 20 -45 46 -45 26 0 42 15 46 45 6 37 -3 45 -46 45
-43 0 -52 -8 -46 -45z"/>
<path d="M3900 3277 c0 -39 62 -95 92 -84 58 23 33 107 -32 107 -33 0 -60 -11
-60 -23z"/>
<path d="M4140 3250 c0 -62 68 -70 99 -11 30 56 27 61 -39 61 -51 0 -60 -8
-60 -50z"/>
<path d="M4860 3250 c0 -40 10 -50 50 -50 40 0 50 10 50 50 0 40 -10 50 -50
50 -40 0 -50 -10 -50 -50z"/>
<path d="M5099 3257 c-18 -33 -17 -46 3 -59 31 -18 98 33 98 75 0 43 -76 31
-101 -16z"/>
<path d="M253 3186 c-36 -36 -12 -106 37 -106 28 0 51 9 53 20 8 55 5 70 -13
70 -11 0 -30 7 -42 15 -12 8 -28 8 -35 1z"/>
<path d="M780 3185 c-73 -27 -79 -97 -10 -110 45 -9 50 -3 50 58 0 37 -2 66
-5 65 -3 0 -18 -6 -35 -13z"/>
<path d="M1663 3148 c10 -82 117 -99 117 -19 0 31 -11 51 -28 51 -16 0 -44 6
-62 13 -27 10 -32 2 -27 -45z"/>
<path d="M1900 3139 c0 -50 8 -59 50 -59 73 0 62 77 -15 106 -28 10 -35 2 -35
-47z"/>
<path d="M2431 3184 c-8 -7 -23 -14 -33 -14 -10 0 -18 -7 -18 -15 0 -8 0 -28
0 -45 0 -19 19 -30 50 -30 40 0 50 10 50 49 0 51 -25 80 -49 55z"/>
<path d="M2910 3180 c-7 -11 -21 -16 -30 -10 -25 15 -42 -21 -28 -58 21 -54
108 -41 108 17 0 53 -30 84 -50 51z"/>
<path d="M4060 3179 c0 -12 -9 -16 -20 -9 -11 7 -20 -10 -20 -39 0 -45 8 -51
60 -47 48 4 60 14 60 51 0 27 -9 42 -20 35 -11 -7 -20 -3 -20 9 0 11 -9 21
-20 21 -11 0 -20 -10 -20 -21z"/>
<path d="M4734 3187 c-41 -41 -13 -107 46 -107 51 0 60 8 60 52 0 36 -8 49
-28 42 -15 -6 -36 -2 -46 8 -10 10 -25 13 -32 5z"/>
<path d="M5214 3187 c-41 -41 -13 -107 46 -107 51 0 60 8 60 52 0 36 -8 49
-28 42 -15 -6 -36 -2 -46 8 -10 10 -25 13 -32 5z"/>
<path d="M0 3142 c0 -39 50 -70 82 -51 41 26 18 89 -32 89 -36 0 -50 -11 -50
-38z"/>
<path d="M483 3137 c5 -31 23 -49 54 -54 38 -5 45 2 40 40 -5 31 -23 49 -54
54 -38 5 -45 -2 -40 -40z"/>
<path d="M1180 3130 c0 -42 9 -50 60 -50 49 0 60 8 60 46 0 36 -12 46 -60 50
-52 4 -60 -2 -60 -46z"/>
<path d="M1420 3126 c0 -38 11 -46 60 -46 60 0 75 26 44 74 -27 43 -104 23
-104 -28z"/>
<path d="M2147 3149 c-7 -18 -3 -41 9 -53 31 -31 84 -4 84 43 0 50 -75 57 -93
10z"/>
<path d="M2612 3148 c-21 -55 -13 -65 48 -64 49 2 60 11 60 49 0 56 -88 68
-108 15z"/>
<path d="M3327 3134 c4 -59 93 -75 93 -16 0 34 -36 62 -80 62 -8 0 -14 -21
-13 -46z"/>
<path d="M3548 3148 c7 -17 12 -38 12 -45 0 -8 23 -16 50 -18 41 -4 50 4 50
45 0 43 -9 50 -62 50 -49 0 -60 -7 -50 -32z"/>
<path d="M3793 3167 c-37 -38 -11 -87 47 -87 51 0 60 8 60 50 0 49 -70 73
-107 37z"/>
<path d="M4272 3148 c-20 -52 -14 -68 27 -68 40 0 90 65 67 87 -24 24 -82 13
-94 -19z"/>
<path d="M4500 3130 c0 -40 10 -50 50 -50 40 0 50 10 50 50 0 40 -10 50 -50
50 -40 0 -50 -10 -50 -50z"/>
<path d="M4968 3148 c7 -17 12 -40 12 -50 0 -35 75 -17 85 21 13 49 1 61 -60
61 -37 0 -46 -8 -37 -32z"/>
<path d="M4411 3048 c-39 -39 -31 -75 18 -85 49 -9 72 19 58 72 -14 53 -33 56
-76 13z"/>
<path d="M145 3047 c-14 -6 -25 -24 -25 -41 0 -19 11 -26 31 -18 18 6 26 3 19
-8 -7 -11 6 -20 29 -20 30 0 41 13 41 50 0 49 -33 62 -95 37z"/>
<path d="M382 3034 c-38 -38 -24 -74 28 -74 36 0 50 11 50 38 0 46 -46 68 -78
36z"/>
<path d="M625 3047 c-52 -21 -28 -87 32 -87 46 0 56 8 53 45 -3 45 -37 62 -85
42z"/>
<path d="M834 3007 c-7 -41 0 -47 50 -47 49 0 58 7 52 43 -9 63 -90 65 -102 4z"/>
<path d="M1060 3038 c0 -12 20 -27 45 -34 45 -12 45 -12 -5 -26 -46 -13 -45
-14 15 -16 57 -2 65 5 65 48 0 42 -9 50 -60 50 -33 0 -60 -10 -60 -22z"/>
<path d="M1296 3001 c-5 -39 -19 -52 -62 -57 -45 -6 -55 -16 -50 -50 10 -70
104 -61 112 11 10 81 118 81 128 0 5 -44 16 -55 56 -55 77 0 83 85 6 94 -41 4
-58 19 -66 56 -15 73 -116 74 -124 1z"/>
<path d="M1540 3010 c0 -43 8 -50 65 -48 60 2 61 3 15 16 -50 14 -50 14 -5 26
65 18 55 56 -15 56 -51 0 -60 -8 -60 -50z"/>
<path d="M1791 3044 c-35 -35 -8 -84 47 -84 47 0 56 7 48 38 -10 38 -73 68
-95 46z"/>
<path d="M2008 3031 c-17 -43 8 -71 63 -71 35 0 49 11 49 38 0 58 -92 86 -112
33z"/>
<path d="M2285 3046 c-48 -18 -29 -86 25 -86 29 0 50 11 50 28 0 36 -43 69
-75 58z"/>
<path d="M2480 3010 c0 -37 11 -50 41 -50 23 0 36 9 29 20 -7 11 1 14 19 8 37
-15 41 14 7 48 -43 43 -96 29 -96 -26z"/>
<path d="M2720 3010 c0 -36 -11 -50 -38 -50 -48 0 -90 -51 -75 -90 7 -16 35
-30 62 -30 44 0 51 -9 51 -61 0 -53 7 -61 45 -55 64 9 78 116 15 116 -41 0
-100 42 -100 71 0 7 13 8 29 2 19 -7 25 -1 18 18 -8 21 4 29 41 29 93 0 98 66
7 88 -49 11 -55 7 -55 -38z"/>
<path d="M3680 3010 c0 -43 8 -52 45 -46 30 4 45 20 45 46 0 26 -15 42 -45 46
-37 6 -45 -3 -45 -46z"/>
<path d="M3907 3030 c-7 -18 -3 -42 8 -53 33 -33 95 -11 95 33 0 51 -85 67
-103 20z"/>
<path d="M4147 3030 c-7 -18 -3 -42 8 -53 33 -33 95 -11 95 33 0 51 -85 67
-103 20z"/>
<path d="M4633 3047 c-33 -34 -12 -90 32 -83 59 8 77 96 20 96 -21 0 -44 -6
-52 -13z"/>
<path d="M4868 3031 c-15 -38 6 -71 45 -71 97 0 93 -104 -4 -123 -58 -11 -53
-105 6 -113 38 -6 45 2 45 56 0 59 4 62 65 56 58 -5 64 -12 58 -62 -6 -52 -1
-56 50 -50 46 5 58 17 64 64 5 49 0 56 -33 47 -54 -14 -90 12 -94 68 -2 35
-17 49 -57 53 -41 5 -53 17 -53 55 0 55 -73 71 -92 20z"/>
<path d="M5102 3042 c-42 -27 -10 -82 47 -82 41 0 51 10 51 50 0 52 -43 66
-98 32z"/>
<path d="M3113 3027 c-75 -75 12 -146 216 -176 419 -62 399 -346 -26 -367
-248 -13 -375 -90 -453 -277 -15 -37 -43 -73 -60 -80 -18 -7 -27 -25 -21 -41
6 -15 2 -23 -8 -16 -25 15 -54 -41 -72 -136 -19 -101 33 -234 122 -312 38 -34
69 -66 69 -71 0 -21 -92 -11 -116 13 -31 31 -31 63 -1 44 14 -9 18 -5 9 9 -8
13 -33 23 -57 23 -23 0 -57 14 -76 31 -27 24 -39 26 -50 7 -9 -15 -7 -19 7
-11 11 8 28 2 37 -12 29 -46 23 -67 -20 -69 -24 -1 -32 2 -18 8 19 7 17 16 -5
39 -30 30 -43 97 -15 81 8 -5 33 -3 54 5 32 12 21 21 -60 51 -122 45 -154 69
-141 103 6 15 0 27 -14 27 -17 0 -22 35 -17 120 10 179 103 109 103 -79 0 -24
9 -38 20 -31 26 16 26 122 0 169 -14 27 -11 44 11 62 16 13 25 41 19 60 -7 20
-2 42 10 49 15 10 14 23 -4 45 -14 17 -24 34 -21 38 19 27 1 84 -24 75 -20 -8
-33 10 -44 65 l-15 77 -12 -60 c-11 -56 -13 -54 -27 35 -9 52 -24 100 -35 107
-13 8 -16 -14 -7 -60 8 -44 6 -72 -6 -72 -26 0 -90 96 -77 117 5 8 -13 42 -41
74 -36 42 -46 47 -36 19 30 -85 35 -136 12 -122 -13 8 -23 3 -23 -12 -1 -19
-6 -18 -20 4 -25 39 -25 66 0 50 45 -28 15 29 -57 107 -99 107 -118 106 -54
-3 69 -118 33 -192 -50 -102 -47 52 -47 53 -4 30 37 -19 45 -18 45 7 0 31 -7
34 -102 41 -28 2 -80 21 -114 41 -35 20 -69 30 -78 22 -18 -18 17 -77 53 -89
17 -6 21 0 11 16 -25 40 144 -61 195 -116 44 -48 43 -48 -43 6 -49 30 -98 56
-110 58 -12 1 -52 15 -88 30 -72 30 -96 21 -77 -29 8 -20 26 -28 51 -20 42 14
262 -76 262 -106 0 -11 -54 7 -120 39 -135 65 -140 66 -140 38 0 -11 10 -20
22 -20 35 0 139 -82 128 -100 -6 -10 -42 -12 -80 -6 -67 11 -203 -28 -180 -51
7 -6 48 -9 93 -6 84 7 99 -50 28 -107 -13 -11 -21 -31 -16 -44 4 -13 -2 -42
-14 -63 -13 -25 -14 -42 -1 -46 12 -4 7 -46 -10 -105 -17 -54 -30 -130 -30
-169 0 -38 -14 -85 -30 -103 -17 -18 -38 -98 -48 -178 -18 -140 -37 -187 -116
-276 l-39 -44 0 59 c0 34 9 57 21 53 41 -14 65 36 56 114 -9 77 -9 78 -36 30
-30 -55 -37 -103 -8 -58 17 26 19 25 20 -5 0 -19 -13 -35 -30 -35 -16 0 -30 9
-30 20 0 11 -7 20 -17 20 -18 0 -19 -245 -1 -260 7 -5 19 -78 27 -161 16 -174
-15 -236 -145 -290 -76 -32 -103 -60 -104 -106 0 -22 6 -23 28 -5 21 18 35 16
60 -9 21 -21 32 -24 32 -7 0 14 6 19 13 11 8 -7 30 2 51 20 34 32 38 31 65 -5
27 -37 29 -36 49 17 26 69 48 69 92 2 43 -65 88 -18 50 53 -23 43 24 62 51 19
7 -11 27 -18 46 -15 18 3 44 -2 58 -11 46 -28 26 19 -27 65 -28 25 -63 40 -78
35 -63 -25 -102 38 -67 110 17 37 38 96 46 131 19 90 112 122 191 66 31 -22
70 -40 87 -40 17 0 35 -7 41 -16 5 -9 95 -29 199 -44 190 -27 211 -39 213
-122 0 -7 -60 -13 -132 -14 -140 -3 -260 -52 -207 -84 14 -9 40 -12 57 -7 26
8 26 5 -3 -19 -19 -15 -35 -32 -35 -36 0 -17 111 -13 145 5 43 22 49 -13 7
-37 -36 -20 -65 -126 -35 -126 12 0 42 27 66 60 25 33 61 60 81 60 42 0 42 -1
16 -70 -11 -30 -15 -62 -8 -73 14 -22 88 57 88 95 0 14 12 33 27 42 14 9 37
34 49 56 19 35 21 33 15 -20 -4 -33 -17 -58 -29 -55 -12 3 -22 -8 -22 -23 0
-16 -6 -44 -13 -63 -12 -32 -10 -32 40 1 29 19 53 47 53 61 0 15 9 32 19 38
10 7 15 -6 11 -28 -10 -51 13 -52 57 -4 31 34 31 39 -7 73 -50 45 -51 74 -3
117 42 38 103 44 103 10 0 -13 6 -18 12 -11 7 7 26 -1 42 -17 33 -33 75 -40
56 -9 -7 11 1 26 18 32 26 10 24 18 -13 49 -119 99 328 38 467 -64 20 -14 47
-17 70 -7 65 28 208 28 208 0 0 -14 -13 -31 -30 -37 -16 -7 -30 -1 -30 11 0
13 -13 6 -29 -15 -17 -22 -30 -57 -30 -79 0 -28 4 -32 16 -14 9 14 31 20 48
13 20 -8 40 3 54 29 28 53 61 54 61 2 0 -55 32 -50 72 10 l32 49 38 -44 c30
-37 41 -40 56 -17 12 19 9 38 -10 57 -46 46 -32 55 17 11 77 -69 95 -73 95
-20 0 32 -17 55 -55 73 l-55 25 60 25 c178 76 244 335 138 547 -129 259 -444
351 -802 233 -177 -58 -245 -54 -346 21 -83 61 -49 66 50 8 55 -33 94 -41 170
-33 389 37 344 578 -46 550 -151 -10 -149 32 5 110 84 43 136 55 235 55 159 0
253 38 305 124 112 182 -29 356 -287 356 -117 0 -212 31 -212 70 0 40 24 49
68 26 38 -20 39 -19 15 11 -28 34 -85 44 -110 20z m-704 -622 c8 -19 0 -19
-35 0 -41 23 -114 92 -114 108 0 16 140 -85 149 -108z m-203 75 c-42 -34 -122
-55 -148 -38 -15 9 -19 18 -8 19 42 4 94 16 102 24 4 5 22 8 39 8 17 0 23 -5
15 -13z m-35 -59 c-6 -10 7 -31 30 -47 36 -25 37 -31 8 -42 -48 -18 -63 -14
-29 8 17 11 21 19 10 19 -61 0 -75 -37 -19 -50 159 -36 178 -49 59 -39 -135
11 -201 22 -230 40 -32 20 25 90 74 90 24 0 49 9 56 20 7 11 21 20 32 20 11 0
15 -8 9 -19z m206 -54 c46 -12 45 -14 -17 -40 -88 -37 -105 -34 -80 13 23 44
28 45 97 27z m-443 -59 c-22 -23 42 -68 100 -70 l56 -3 -60 -15 c-93 -24 -187
-24 -150 0 25 16 24 19 -6 20 -20 0 -31 9 -24 20 7 11 1 20 -14 20 -19 1 -18
6 4 20 33 21 114 28 94 8z m546 -66 c0 -34 -63 -42 -93 -12 -27 27 -23 30 32
30 33 0 61 -8 61 -18z m757 -103 c59 -44 106 -163 75 -193 -6 -7 -12 8 -12 34
0 123 -143 216 -257 169 -33 -14 -65 -20 -71 -14 -7 6 -12 1 -12 -12 0 -12 -9
-23 -20 -23 -46 0 -15 38 54 65 96 38 166 31 243 -26z m-1294 -61 c-10 -27
-43 -70 -73 -98 -50 -47 -49 -43 13 53 71 109 90 124 60 45z m139 19 c20 -39
18 -42 -21 -31 -34 9 -41 4 -32 -20 10 -26 7 -27 -19 -6 -40 33 -38 75 5 86
19 5 37 10 39 12 3 1 15 -17 28 -41z m278 -65 c0 -62 -11 -115 -25 -127 -37
-28 -115 -44 -115 -23 0 10 -13 18 -29 18 -108 0 -54 212 57 226 34 4 73 9 87
11 17 2 25 -30 25 -105z m839 59 c31 -16 62 -44 69 -62 79 -207 -233 -324
-319 -120 -24 58 -35 184 -14 163 4 -4 40 5 81 20 96 34 115 34 183 -1z m-322
-73 c-15 -10 -21 -18 -13 -18 7 0 6 -25 -3 -55 -8 -31 -8 -76 1 -100 10 -27 9
-45 -3 -45 -10 0 -20 7 -21 15 -1 8 -6 42 -11 74 -11 67 58 246 70 183 4 -21
-5 -45 -20 -54z m-869 -8 c32 -25 34 -34 11 -61 -25 -30 -29 -30 -53 3 -54 73
-27 110 42 58z m-35 -122 c16 -39 -29 -88 -80 -89 -40 0 -41 -2 -8 -27 38 -29
46 -83 15 -102 -11 -7 -20 -30 -20 -51 0 -45 -25 -51 -57 -12 -32 38 11 273
50 273 16 0 24 9 17 20 -7 12 -23 14 -36 6 -14 -8 -13 0 3 20 30 37 96 16 116
-38z m127 -106 c0 -32 -55 -63 -90 -49 -31 12 -29 16 13 39 56 32 77 34 77 10z
m270 -2 c-7 -11 -2 -20 10 -20 12 0 17 -8 11 -19 -6 -10 -2 -24 9 -31 11 -7
15 -34 8 -61 -8 -32 -3 -52 16 -59 24 -10 27 -33 18 -139 -1 -10 -16 -1 -33
20 -18 22 -27 28 -20 16 15 -31 -46 -91 -74 -74 -14 9 -8 19 16 29 22 8 28 16
14 17 -18 1 -23 31 -18 100 4 55 1 96 -8 91 -21 -13 -42 49 -26 75 8 13 4 15
-13 5 -17 -11 -21 -8 -12 7 39 63 -34 9 -135 -100 -112 -122 -196 -163 -226
-111 -7 13 -6 18 2 10 18 -16 73 24 219 157 76 71 107 87 145 78 26 -7 47 -3
47 9 0 11 14 20 31 20 17 0 26 -9 19 -20z m1076 -102 c-13 -13 -57 -25 -99
-28 -42 -3 -79 -6 -82 -8 -3 -1 -8 0 -12 3 -4 3 -24 -8 -45 -25 -35 -28 -36
-27 -11 5 15 19 35 30 44 24 9 -5 22 0 29 11 7 11 32 17 56 13 24 -4 62 -1 84
8 56 23 61 22 36 -3z m-1647 -99 c27 -43 56 -79 65 -79 9 0 16 -9 16 -19 0
-11 -16 -14 -35 -7 -26 9 -22 -2 15 -44 47 -52 47 -54 6 -33 -42 23 -43 21
-23 -37 11 -33 32 -60 46 -60 13 0 24 -12 24 -28 0 -40 -54 -26 -96 27 -41 51
-49 91 -14 69 15 -9 18 -5 8 10 -8 14 -29 19 -46 13 -24 -9 -26 -6 -8 15 12
15 18 32 12 38 -16 16 -45 216 -31 215 7 0 34 -36 61 -80z m407 -24 c-6 -25
-14 -79 -17 -120 -2 -41 -6 -84 -7 -96 -4 -39 -108 -7 -125 38 -9 26 -9 40 1
34 10 -6 39 7 65 28 51 43 38 54 -24 20 -61 -32 -49 26 20 100 65 69 106 67
87 -4z m1669 16 c32 -27 58 -63 58 -80 0 -17 -3 -27 -8 -23 -5 5 -7 14 -6 21
3 16 -99 101 -139 116 -25 10 -24 12 3 13 19 1 60 -20 92 -47z m-209 -12 c191
-53 299 -277 191 -393 -79 -84 -139 10 -126 199 3 41 -3 70 -13 64 -10 -7 -32
3 -50 20 -39 39 -68 40 -68 1 0 -16 -9 -30 -20 -30 -12 0 -10 -16 5 -40 58
-94 -58 -148 -145 -67 -34 32 -40 47 -20 47 17 0 -14 32 -69 70 -54 39 -87 70
-73 70 13 0 19 9 12 19 -29 49 242 77 376 40z m-454 -60 c34 -29 18 -61 -23
-46 -16 6 -24 19 -18 29 6 10 -2 13 -17 7 -16 -7 -26 -32 -23 -62 7 -62 29
-89 29 -35 0 53 60 -61 61 -119 2 -35 4 -37 15 -10 12 28 18 29 40 5 21 -23
21 -28 0 -29 -14 -1 -6 -10 19 -20 31 -12 40 -28 31 -52 -9 -23 -5 -29 11 -19
15 9 23 0 23 -26 0 -26 10 -37 27 -31 14 6 26 -2 26 -17 0 -18 -15 -26 -41
-21 -23 4 -31 2 -17 -4 37 -18 30 -40 -14 -43 -28 -3 -35 6 -26 29 8 21 4 27
-12 17 -14 -9 -23 -2 -23 18 0 18 -9 27 -20 20 -11 -7 -20 -3 -20 9 0 11 -25
22 -55 22 -49 2 -50 4 -15 19 34 15 35 17 5 19 -19 0 -35 12 -35 26 -1 17 -7
15 -20 -5 -16 -25 -19 -24 -20 6 0 20 -7 32 -16 27 -8 -6 -17 12 -20 39 -2 27
-17 70 -34 95 -17 25 -23 54 -15 63 8 9 4 10 -10 2 -14 -8 -25 -7 -25 3 0 24
-147 21 -165 -4 -8 -12 -15 -6 -15 15 0 24 -9 31 -25 21 -20 -12 -20 -8 0 16
13 17 18 37 10 45 -8 8 8 6 35 -4 34 -12 72 -10 120 8 78 30 229 22 272 -13z
m-1208 -163 c-25 -25 -64 -4 -64 34 0 36 68 49 77 13 4 -15 -2 -36 -13 -47z
m616 53 c0 -20 9 -26 25 -16 14 9 34 18 45 20 11 2 38 10 60 18 39 16 39 15 2
-28 -41 -46 -19 -60 29 -18 16 14 4 -2 -26 -36 -66 -73 -68 -89 -14 -89 28 0
36 8 26 25 -10 17 -3 16 20 -3 29 -24 32 -24 22 3 -12 32 61 71 86 47 17 -17
-38 -113 -58 -100 -9 6 -17 -6 -18 -26 0 -20 -12 -57 -27 -84 -34 -61 -59 -23
-32 48 11 29 20 57 20 61 0 20 -55 7 -91 -21 -38 -30 -38 -30 1 -16 35 12 37
10 13 -20 -50 -62 -100 1 -59 73 13 24 7 49 -23 86 -44 56 -54 107 -21 107 11
0 20 -14 20 -31z m-167 -19 c-7 -16 -3 -30 7 -30 10 0 14 -13 7 -30 -12 -32
-97 -42 -115 -13 -25 39 14 103 62 103 37 0 47 -8 39 -30z m-793 -51 c0 -12 9
-16 20 -9 11 7 20 3 20 -9 0 -12 -13 -27 -30 -34 -16 -6 -25 -18 -20 -27 6 -9
-12 -6 -39 7 -45 21 -46 25 -17 58 36 39 66 46 66 14z m584 -37 c-3 -15 3 -37
14 -49 13 -17 -2 -23 -53 -23 -40 0 -76 12 -80 25 -5 14 -23 26 -42 27 -18 0
-1 13 37 28 82 32 132 28 124 -8z m-214 -62 c-11 -34 -19 -37 -42 -19 -38 32
-35 54 7 64 47 10 51 5 35 -45z m2025 20 c1 -22 -6 -40 -17 -40 -11 0 -16 -8
-10 -17 6 -10 -7 -38 -28 -63 -22 -26 -40 -40 -40 -32 0 7 -19 -4 -41 -25 -52
-48 -136 -37 -88 11 17 16 44 25 61 18 16 -6 25 -4 19 6 -11 18 45 51 75 45
10 -2 12 5 5 15 -6 10 3 33 20 50 18 18 26 32 19 32 -7 0 -7 9 0 20 17 28 21
25 25 -20z m-1555 -11 c0 -17 8 -26 19 -20 11 7 12 -10 3 -44 -9 -30 -14 -75
-12 -100 2 -25 -4 -45 -13 -45 -21 0 -13 -46 11 -63 10 -7 -6 -38 -35 -70 -29
-31 -53 -45 -53 -32 0 14 10 25 21 25 12 0 16 9 9 20 -7 11 -2 20 10 20 12 0
18 8 12 17 -6 9 -13 50 -15 90 -4 51 -13 71 -31 64 -14 -5 -26 -2 -26 8 0 10
11 22 25 27 19 7 20 18 3 46 -12 21 -18 49 -13 63 12 36 85 31 85 -6z m1087 0
c-7 -17 -24 -27 -39 -21 -19 7 -25 -5 -21 -44 7 -58 -35 -119 -57 -84 -7 11
-3 20 7 20 11 0 17 26 13 58 -6 43 3 62 36 78 62 30 74 28 61 -7z m-677 -98
c0 -43 -61 -87 -84 -63 -9 10 -5 21 9 26 14 5 25 27 25 49 0 23 11 37 25 32
14 -5 25 -25 25 -44z m-1371 -3 c-20 -24 -21 -40 -4 -68 18 -28 17 -41 -1 -57
-18 -15 -25 2 -29 69 -4 70 1 88 27 88 28 0 29 -5 7 -32z m2219 -77 c-9 -97
-32 -120 -52 -51 -10 39 -12 73 -4 76 9 4 11 22 5 40 -8 27 -4 26 21 -5 18
-21 31 -48 30 -60z m-124 -8 c-2 -31 -14 -56 -26 -56 -18 0 -21 31 -10 119 6
45 40 -15 36 -63z"/>
<path d="M0 2942 c0 -10 11 -24 25 -30 20 -10 20 -14 0 -24 -42 -19 -28 -51
20 -44 51 7 72 73 32 98 -36 23 -77 23 -77 0z"/>
<path d="M275 2946 c-45 -11 -46 -78 -1 -95 43 -16 91 32 75 75 -7 19 -19 33
-26 32 -7 -2 -29 -7 -48 -12z"/>
<path d="M480 2901 c0 -66 54 -86 96 -35 27 32 7 65 -51 83 -40 12 -45 7 -45
-48z"/>
<path d="M2372 2928 c-17 -44 34 -98 76 -81 34 12 45 93 14 93 -10 0 -32 5
-48 11 -16 7 -35 -4 -42 -23z"/>
<path d="M2850 2940 c-14 -22 23 -100 48 -100 43 0 63 56 31 88 -36 37 -61 41
-79 12z"/>
<path d="M3825 2946 c-51 -19 -29 -106 26 -106 44 0 50 6 38 45 -17 57 -33 72
-64 61z"/>
<path d="M4034 2948 c-8 -8 -14 -36 -14 -61 0 -37 -11 -47 -51 -47 -62 0 -86
-52 -43 -94 42 -43 94 -19 94 43 0 43 9 51 60 51 51 0 60 -8 60 -51 0 -59 47
-84 91 -48 45 37 27 88 -31 89 -39 0 -52 12 -60 60 -10 58 -72 92 -106 58z"/>
<path d="M4300 2944 c-54 -25 -47 -104 10 -104 30 0 50 11 50 28 0 16 5 43 12
60 13 34 -18 40 -72 16z"/>
<path d="M4523 2942 c-40 -25 -19 -91 32 -98 38 -6 45 2 45 55 0 62 -25 76
-77 43z"/>
<path d="M4775 2946 c-22 -5 -35 -28 -35 -59 0 -75 88 -58 96 18 7 55 3 58
-61 41z"/>
<path d="M5234 2945 c-60 -14 -35 -94 31 -101 47 -6 55 1 55 43 0 52 -28 71
-86 58z"/>
<path d="M734 2899 c-7 -25 0 -46 17 -52 39 -15 69 9 69 54 0 53 -72 51 -86
-2z"/>
<path d="M940 2922 c0 -41 26 -82 51 -82 36 0 92 59 78 82 -15 24 -129 24
-129 0z"/>
<path d="M1655 2928 c-24 -24 10 -68 53 -68 30 0 43 12 43 40 0 39 -66 58 -96
28z"/>
<path d="M1904 2907 c9 -50 49 -55 62 -8 8 31 1 41 -29 41 -27 0 -38 -11 -33
-33z"/>
<path d="M2150 2920 c-18 -29 7 -60 47 -60 20 0 36 17 38 40 3 42 -62 58 -85
20z"/>
<path d="M155 2826 c-43 -11 -45 -53 -5 -86 43 -35 90 -10 90 49 0 50 -13 56
-85 37z"/>
<path d="M360 2780 c0 -51 8 -60 52 -60 45 0 51 7 41 45 -7 25 -13 52 -13 60
-1 53 -80 9 -80 -45z"/>
<path d="M596 2780 c11 -79 94 -87 109 -10 11 60 3 70 -65 70 -48 0 -52 -6
-44 -60z"/>
<path d="M836 2779 c12 -82 91 -78 100 6 6 49 0 55 -51 55 -53 0 -57 -5 -49
-61z"/>
<path d="M1082 2795 c-22 -58 -11 -75 49 -75 41 0 49 -10 49 -60 0 -53 -7 -60
-60 -60 -60 0 -82 -29 -35 -45 19 -7 19 -16 -2 -42 -25 -30 -21 -33 36 -33 53
0 62 6 52 38 -16 50 41 107 91 91 32 -10 38 -1 38 52 0 50 -7 61 -33 51 -45
-18 -111 45 -96 91 18 57 -68 49 -89 -8z"/>
<path d="M1308 2811 c-20 -51 8 -94 57 -87 33 4 45 19 45 56 0 59 -82 84 -102
31z"/>
<path d="M1563 2807 c21 -26 21 -35 2 -42 -35 -12 -31 -45 5 -45 17 0 30 16
30 35 1 27 5 29 18 8 12 -20 19 -17 27 14 11 41 -17 63 -79 63 -26 0 -27 -5
-3 -33z"/>
<path d="M2491 2796 c21 -70 43 -86 79 -56 47 39 28 86 -37 94 -51 7 -55 3
-42 -38z"/>
<path d="M2969 2819 c-18 -29 18 -101 49 -95 52 10 54 107 1 107 -23 0 -45 -5
-50 -12z"/>
<path d="M4387 2808 c-7 -17 2 -45 19 -62 42 -43 94 -19 94 43 0 59 -92 75
-113 19z"/>
<path d="M4623 2788 c9 -73 83 -83 93 -13 4 25 -2 45 -13 45 -11 0 -35 6 -53
13 -27 10 -32 2 -27 -45z"/>
<path d="M247 2690 c-19 -49 9 -90 61 -90 38 0 52 -13 62 -59 10 -44 25 -60
66 -65 86 -10 76 -104 -13 -112 -54 -6 -64 -14 -59 -50 9 -64 72 -68 95 -5 14
36 35 51 69 51 56 0 85 30 47 48 -20 10 -20 14 0 24 38 17 9 48 -44 48 -34 0
-53 16 -68 60 -14 40 -34 60 -62 60 -30 0 -41 13 -41 48 0 67 -90 101 -113 42z"/>
<path d="M517 2707 c-41 -11 -65 -67 -40 -92 36 -36 93 -6 99 50 7 55 3 58
-59 42z"/>
<path d="M732 2705 c-35 -35 -10 -105 38 -105 41 0 50 10 50 56 0 53 -54 83
-88 49z"/>
<path d="M994 2704 c-45 -6 -55 -16 -50 -50 7 -53 90 -73 108 -27 21 56 0 83
-58 77z"/>
<path d="M1420 2659 c0 -45 9 -52 60 -52 61 0 78 34 44 87 -30 47 -104 22
-104 -35z"/>
<path d="M2600 2672 c0 -44 9 -52 60 -52 47 0 60 9 60 40 0 22 -13 40 -28 40
-16 0 -43 5 -60 12 -24 9 -32 -1 -32 -40z"/>
<path d="M2847 2690 c-19 -51 9 -93 58 -86 71 10 76 116 6 116 -29 0 -57 -13
-64 -30z"/>
<path d="M3855 2708 c-7 -7 -7 -25 -1 -40 5 -15 0 -28 -13 -28 -13 0 -18 8
-12 19 6 10 3 24 -9 31 -11 7 -20 -8 -20 -34 0 -35 12 -47 50 -49 42 -2 50 5
44 44 -7 53 -22 75 -39 57z"/>
<path d="M4020 2660 c0 -42 9 -50 60 -50 51 0 60 8 60 50 0 42 -9 50 -60 50
-51 0 -60 -8 -60 -50z"/>
<path d="M4278 2715 c-27 -85 -17 -118 36 -111 43 5 54 15 49 46 -8 45 -74 96
-85 65z"/>
<path d="M4500 2660 c0 -63 51 -72 109 -18 23 22 -2 48 -64 67 -40 12 -45 7
-45 -49z"/>
<path d="M4734 2708 c-21 -21 -17 -84 6 -98 40 -25 103 12 96 57 -6 43 -73 69
-102 41z"/>
<path d="M5200 2660 c0 -53 7 -60 60 -60 53 0 60 7 60 60 0 53 -7 60 -60 60
-53 0 -60 -7 -60 -60z"/>
<path d="M0 2660 c0 -29 13 -40 50 -40 37 0 50 11 50 40 0 29 -13 40 -50 40
-37 0 -50 -11 -50 -40z"/>
<path d="M3090 2680 c-17 -27 6 -60 41 -60 16 0 29 18 29 40 0 41 -48 55 -70
20z"/>
<path d="M4974 2687 c-20 -19 24 -87 57 -87 16 0 29 8 29 18 0 10 5 33 12 50
12 32 -69 48 -98 19z"/>
<path d="M145 2570 c-45 -52 -30 -90 36 -90 55 0 61 6 55 55 -7 61 -53 79 -91
35z"/>
<path d="M580 2580 c0 -11 10 -20 21 -20 13 0 16 -17 9 -40 -10 -33 -4 -40 39
-40 43 0 51 9 51 60 0 53 -7 60 -60 60 -33 0 -60 -9 -60 -20z"/>
<path d="M836 2541 c-8 -56 -4 -61 49 -61 51 0 57 6 51 55 -9 84 -88 88 -100
6z"/>
<path d="M1314 2588 c-8 -8 -14 -35 -14 -60 0 -35 -13 -47 -55 -52 -44 -5 -55
-16 -55 -56 0 -40 11 -51 55 -56 37 -5 55 -18 55 -43 0 -20 14 -47 30 -61 38
-31 90 5 90 62 0 24 14 38 38 38 42 0 67 45 49 90 -6 17 -28 30 -48 30 -25 0
-38 17 -43 55 -6 54 -68 86 -102 53z m106 -168 c0 -53 -7 -60 -60 -60 -53 0
-60 7 -60 60 0 53 7 60 60 60 53 0 60 -7 60 -60z"/>
<path d="M2720 2540 c0 -51 8 -60 50 -60 58 0 73 87 18 108 -56 21 -68 13 -68
-48z"/>
<path d="M3921 2571 c-36 -44 -11 -91 48 -91 79 0 75 -115 -4 -124 -80 -9 -85
-72 -7 -101 73 -28 93 -135 26 -135 -42 0 -84 -37 -84 -74 0 -57 117 -30 124
29 9 83 101 79 116 -5 10 -54 77 -77 117 -40 18 18 -44 90 -78 90 -63 0 -54
112 11 128 30 8 54 32 62 62 14 57 128 76 128 21 0 -32 53 -91 81 -91 11 0 19
27 19 60 0 49 -8 60 -45 60 -96 1 -127 92 -38 112 29 6 64 15 78 19 35 11 31
88 -6 102 -39 15 -110 -48 -96 -85 8 -20 -5 -28 -46 -28 -47 0 -63 12 -82 62
-29 78 -92 73 -101 -7 -10 -81 -118 -81 -128 0 -7 62 -57 82 -95 36z m327
-103 c75 -29 24 -108 -70 -108 -29 0 -38 14 -38 60 0 62 34 77 108 48z m-108
-146 c0 -94 -79 -145 -108 -70 -29 74 -14 108 48 108 46 0 60 -9 60 -38z"/>
<path d="M4634 2587 c-36 -36 -14 -110 31 -103 33 4 45 19 45 56 0 48 -46 77
-76 47z"/>
<path d="M4895 2578 c-50 -29 -46 -98 6 -98 67 0 109 -53 72 -90 -17 -16 -49
-30 -72 -30 -49 0 -54 -44 -10 -89 47 -46 69 -38 69 28 0 49 9 59 55 65 43 5
54 16 54 56 0 40 -11 51 -54 56 -46 6 -55 16 -55 65 0 63 -10 69 -65 37z"/>
<path d="M5080 2573 c0 -61 26 -93 73 -93 77 0 60 107 -18 116 -38 5 -55 -2
-55 -23z"/>
<path d="M7 2450 c-17 -45 7 -90 49 -90 28 0 37 15 37 60 0 65 -64 88 -86 30z"/>
<path d="M253 2450 c-18 -45 7 -90 48 -90 45 0 68 32 34 48 -20 10 -20 14 0
24 14 6 20 20 14 30 -18 29 -84 21 -96 -12z"/>
<path d="M740 2420 c0 -49 8 -61 35 -56 22 4 35 25 35 56 0 31 -13 52 -35 56
-27 5 -35 -7 -35 -56z"/>
<path d="M948 2451 c-20 -51 8 -94 57 -87 33 4 45 19 45 56 0 59 -82 84 -102
31z"/>
<path d="M3796 2420 c-8 -53 -3 -60 42 -60 44 0 52 9 52 60 0 48 -9 60 -43 60
-32 0 -45 -15 -51 -60z"/>
<path d="M4525 2467 c-36 -15 -31 -80 7 -95 56 -21 68 -13 68 48 0 58 -18 70
-75 47z"/>
<path d="M4747 2420 c0 -66 77 -89 100 -30 19 48 -8 90 -56 90 -35 0 -44 -11
-44 -60z"/>
<path d="M5213 2450 c-19 -49 8 -90 59 -90 40 0 48 10 48 60 0 66 -84 90 -107
30z"/>
<path d="M124 2304 c-5 -73 84 -90 104 -19 18 70 15 75 -44 75 -46 0 -56 -9
-60 -56z"/>
<path d="M600 2300 c0 -61 12 -69 68 -48 55 21 40 108 -18 108 -42 0 -50 -9
-50 -60z"/>
<path d="M835 2310 c12 -63 38 -80 76 -49 52 43 36 99 -28 99 -51 0 -56 -6
-48 -50z"/>
<path d="M1076 2300 c9 -62 19 -68 72 -48 59 23 40 108 -25 108 -51 0 -55 -5
-47 -60z"/>
<path d="M3676 2300 c10 -67 20 -72 73 -33 49 36 27 93 -35 93 -41 0 -46 -8
-38 -60z"/>
<path d="M4620 2326 c1 -57 32 -93 69 -79 50 19 32 101 -24 109 -33 5 -45 -3
-45 -30z"/>
<path d="M5087 2331 c-14 -39 45 -98 84 -84 54 21 36 113 -22 113 -27 0 -55
-13 -62 -29z"/>
<path d="M35 2225 c-57 -13 -44 -85 15 -85 36 0 50 11 50 39 0 45 -17 57 -65
46z"/>
<path d="M240 2193 c0 -62 17 -75 62 -47 57 35 49 94 -12 94 -39 0 -50 -10
-50 -47z"/>
<path d="M515 2226 c-57 -15 -44 -86 15 -86 40 0 50 10 50 50 0 51 -3 52 -65
36z"/>
<path d="M720 2215 c1 -36 25 -66 65 -81 28 -10 35 -2 35 42 0 45 -10 56 -50
59 -29 3 -50 -6 -50 -20z"/>
<path d="M975 2226 c-42 -11 -47 -86 -7 -86 16 0 43 -5 60 -12 25 -10 32 1 32
50 0 62 -11 68 -85 48z"/>
<path d="M1180 2169 c0 -62 -5 -70 -40 -59 -56 18 -76 -1 -65 -60 13 -68 105
-73 106 -5 1 63 47 118 86 103 26 -9 33 0 33 42 0 45 -5 51 -28 31 -20 -16
-33 -16 -41 -2 -27 43 -51 19 -51 -50z"/>
<path d="M1420 2192 c0 -60 86 -77 108 -20 16 42 -8 81 -29 46 -13 -21 -22
-21 -47 1 -28 22 -32 19 -32 -27z"/>
<path d="M3600 2225 c-74 -28 -66 -85 11 -85 39 0 49 10 49 50 0 51 -7 55 -60
35z"/>
<path d="M3788 2217 c-15 -25 15 -73 52 -83 47 -12 60 0 60 57 0 43 -89 63
-112 26z"/>
<path d="M4267 2210 c-15 -40 28 -91 64 -77 39 15 37 80 -3 95 -44 17 -48 16
-61 -18z"/>
<path d="M4500 2180 c0 -68 -1 -67 67 -41 66 25 51 101 -19 101 -40 0 -48 -10
-48 -60z"/>
<path d="M4727 2210 c-20 -52 9 -99 43 -70 23 19 30 19 30 1 0 -13 9 -18 20
-11 31 19 23 84 -12 98 -49 19 -68 14 -81 -18z"/>
<path d="M4981 2201 c-30 -56 -27 -61 39 -61 45 0 60 -9 60 -37 0 -40 59 -103
97 -103 48 0 22 82 -38 116 -33 19 -65 54 -72 79 -14 55 -58 58 -86 6z"/>
<path d="M5204 2185 c9 -84 116 -88 116 -4 0 52 -7 59 -61 59 -55 0 -61 -6
-55 -55z"/>
<path d="M1310 2123 c-37 -37 -6 -96 51 -96 53 0 60 7 55 50 -6 46 -76 77
-106 46z"/>
<path d="M120 2070 c0 -27 7 -50 15 -50 8 0 35 -6 60 -13 51 -13 65 45 21 89
-43 43 -96 29 -96 -26z"/>
<path d="M363 2077 c5 -29 25 -49 57 -57 36 -8 52 -27 56 -66 6 -52 74 -78
110 -41 23 22 -25 84 -71 91 -32 4 -44 20 -45 56 0 40 -11 51 -57 56 -49 6
-55 1 -50 -39z"/>
<path d="M625 2107 c-50 -20 -30 -107 25 -107 42 0 50 9 50 60 0 58 -18 70
-75 47z"/>
<path d="M836 2064 c-7 -53 -3 -58 49 -56 48 2 56 9 51 52 -9 77 -88 80 -100
4z"/>
<path d="M3667 2090 c-17 -46 7 -90 51 -90 53 0 69 30 42 80 -25 47 -76 53
-93 10z"/>
<path d="M4399 2079 c-27 -51 -2 -86 54 -76 24 5 37 25 37 57 0 64 -60 77 -91
19z"/>
<path d="M4628 2092 c-14 -36 3 -92 26 -92 46 1 75 40 55 73 -30 48 -67 56
-81 19z"/>
<path d="M4867 2090 c-18 -47 8 -90 52 -90 32 0 41 13 41 60 0 66 -70 89 -93
30z"/>
<path d="M0 1984 c0 -42 37 -84 74 -84 46 0 28 73 -24 96 -43 20 -50 18 -50
-12z"/>
<path d="M253 1987 c-27 -28 -11 -83 27 -93 43 -11 82 36 66 81 -10 26 -70 34
-93 12z"/>
<path d="M737 1996 c-21 -54 -7 -97 31 -92 52 7 58 82 7 92 -19 4 -36 4 -38 0z"/>
<path d="M948 1971 c-17 -42 8 -71 60 -71 61 0 75 18 51 63 -24 44 -96 49
-111 8z"/>
<path d="M1193 1987 c-37 -38 -11 -87 47 -87 51 0 60 8 60 50 0 49 -70 73
-107 37z"/>
<path d="M1420 1950 c0 -43 8 -52 45 -46 30 4 45 20 45 46 0 26 -15 42 -45 46
-37 6 -45 -3 -45 -46z"/>
<path d="M3567 1969 c-7 -17 -6 -36 1 -43 6 -7 12 -2 12 11 0 13 9 23 20 23
11 0 20 -15 20 -34 0 -23 6 -28 21 -13 26 26 3 87 -34 87 -15 0 -34 -14 -40
-31z"/>
<path d="M3795 1950 c12 -60 76 -68 90 -11 13 48 1 61 -56 61 -36 0 -42 -9
-34 -50z"/>
<path d="M4034 1988 c-39 -39 -12 -88 47 -88 53 0 61 7 55 45 -6 44 -72 72
-102 43z"/>
<path d="M4273 1987 c-28 -28 -11 -83 28 -93 36 -9 79 44 79 97 0 14 -92 10
-107 -4z"/>
<path d="M4524 1976 c-40 -40 -28 -79 21 -72 29 4 47 22 51 51 7 49 -32 61
-72 21z"/>
<path d="M4740 1950 c0 -40 10 -50 50 -50 40 0 50 10 50 50 0 40 -10 50 -50
50 -40 0 -50 -10 -50 -50z"/>
<path d="M4984 1976 c-39 -39 -27 -76 24 -76 47 0 82 47 61 82 -16 25 -57 22
-85 -6z"/>
<path d="M5213 1987 c-26 -26 -12 -82 22 -91 56 -15 85 4 85 56 0 47 -71 70
-107 35z"/>
<path d="M385 1886 c-36 -13 -31 -80 8 -95 30 -11 66 17 67 52 0 23 -50 52
-75 43z"/>
<path d="M831 1885 c-18 -19 17 -82 51 -91 45 -12 65 13 49 62 -9 30 -78 50
-100 29z"/>
<path d="M129 1858 c-19 -31 42 -86 79 -71 53 20 40 93 -17 93 -27 0 -55 -10
-62 -22z"/>
<path d="M593 1867 c12 -5 18 -26 13 -48 -9 -31 0 -39 42 -39 42 0 52 9 52 50
0 43 -9 50 -65 48 -36 0 -55 -5 -42 -11z"/>
<path d="M1065 1830 c-4 -43 4 -50 55 -50 51 0 60 8 60 50 0 41 -10 50 -56 50
-45 0 -56 -10 -59 -50z"/>
<path d="M1314 1868 c-39 -40 -13 -81 47 -72 43 6 59 18 55 41 -7 34 -77 55
-102 31z"/>
<path d="M3923 1862 c-19 -12 -21 -21 -5 -31 12 -7 22 -4 22 8 0 11 9 21 19
21 11 0 14 -15 7 -33 -8 -22 -4 -30 16 -23 15 5 31 24 34 43 8 36 -46 45 -93
15z"/>
<path d="M4144 1835 c8 -56 90 -74 109 -24 14 37 -22 68 -79 69 -27 0 -35 -12
-30 -45z"/>
<path d="M4384 1866 c-21 -8 -19 -19 8 -48 42 -46 80 -49 96 -6 22 58 -28 85
-104 54z"/>
<path d="M4623 1837 c5 -31 23 -49 54 -54 38 -5 45 2 40 40 -5 31 -23 49 -54
54 -38 5 -45 -2 -40 -40z"/>
<path d="M4865 1867 c-38 -16 8 -87 56 -87 28 0 39 14 39 50 0 49 -33 62 -95
37z"/>
<path d="M5088 1851 c-17 -43 8 -71 63 -71 39 0 49 10 49 50 0 57 -92 74 -112
21z"/>
<path d="M253 1767 c-20 -20 -16 -103 6 -116 10 -6 24 -2 31 9 7 11 21 16 30
10 27 -17 37 16 18 65 -16 44 -57 59 -85 32z"/>
<path d="M484 1720 c2 -48 11 -60 47 -60 59 0 76 48 31 88 -53 48 -80 39 -78
-28z"/>
<path d="M731 1761 c-22 -35 7 -96 51 -107 35 -9 39 -3 34 52 -6 64 -59 98
-85 55z"/>
<path d="M948 1728 c-19 -73 -4 -90 52 -62 64 32 67 99 5 104 -33 2 -49 -10
-57 -42z"/>
<path d="M1191 1764 c-40 -40 -8 -104 50 -100 52 4 60 12 55 55 -6 48 -74 77
-105 45z"/>
<path d="M4264 1725 c6 -55 116 -99 116 -46 0 11 -10 21 -22 21 -17 0 -17 7
-1 27 29 34 10 53 -52 53 -40 0 -47 -9 -41 -55z"/>
<path d="M4727 1750 c-15 -38 27 -90 72 -90 25 0 35 17 37 60 2 67 -86 91
-109 30z"/>
<path d="M5213 1767 c-20 -20 -16 -103 6 -116 10 -6 24 -3 30 8 7 10 25 14 42
8 22 -8 29 4 29 51 0 60 -65 90 -107 49z"/>
<path d="M0 1712 c0 -60 86 -77 108 -20 19 50 14 68 -18 68 -16 0 -30 -10 -30
-22 0 -16 -9 -15 -30 2 -25 21 -30 17 -30 -28z"/>
<path d="M4500 1710 c0 -40 10 -50 50 -50 40 0 50 10 50 50 0 40 -10 50 -50
50 -40 0 -50 -10 -50 -50z"/>
<path d="M4980 1742 c0 -10 -5 -33 -12 -50 -9 -24 0 -32 37 -32 61 0 73 12 60
61 -10 38 -85 56 -85 21z"/>
<path d="M4128 1649 c17 -16 25 -46 19 -65 -9 -28 -7 -29 10 -5 18 26 23 25
34 -5 16 -41 49 -45 49 -5 0 15 -26 47 -58 70 -68 48 -98 54 -54 10z"/>
<path d="M144 1636 c-47 -47 -28 -96 36 -96 69 0 79 37 24 87 -28 25 -42 27
-60 9z"/>
<path d="M380 1640 c-15 -9 -19 -32 -10 -59 18 -57 97 -49 106 11 7 46 -52 75
-96 48z"/>
<path d="M865 1646 c-50 -18 -29 -106 25 -106 37 0 50 -11 50 -40 0 -43 95
-94 121 -66 30 33 -19 106 -70 106 -37 0 -51 11 -51 38 0 44 -40 80 -75 68z"/>
<path d="M1313 1639 c-5 -16 -15 -54 -22 -84 -10 -49 -16 -52 -50 -31 -47 30
-69 13 -52 -40 23 -72 108 -69 115 4 3 34 15 62 26 63 49 1 91 43 78 77 -11
28 -17 30 -31 9 -14 -22 -20 -22 -36 2 -17 26 -20 26 -28 0z"/>
<path d="M4863 1642 c-40 -25 -2 -102 49 -102 37 0 48 -11 48 -48 0 -57 56
-85 94 -46 39 38 11 94 -46 94 -37 0 -48 11 -48 48 0 49 -55 80 -97 54z"/>
<path d="M5087 1630 c-19 -50 9 -90 62 -90 37 0 51 -11 51 -39 0 -38 53 -81
99 -81 11 0 21 27 21 61 0 37 -10 59 -25 58 -59 -8 -95 3 -95 28 0 61 -94 113
-113 63z"/>
<path d="M613 1627 c-34 -34 -11 -87 37 -87 40 0 50 10 50 50 0 48 -53 71 -87
37z"/>
<path d="M1080 1590 c0 -37 11 -50 40 -50 22 0 40 8 40 18 0 10 5 33 12 50 9
24 -1 32 -40 32 -42 0 -52 -9 -52 -50z"/>
<path d="M4394 1628 c-8 -8 -14 -31 -14 -51 0 -20 -13 -37 -29 -37 -37 0 -94
-58 -80 -82 23 -37 86 -19 93 27 9 68 110 75 134 9 21 -53 74 -84 93 -53 21
34 -12 99 -51 99 -23 0 -40 17 -44 45 -6 44 -72 72 -102 43z"/>
<path d="M4634 1627 c-35 -35 -13 -87 37 -87 42 0 51 8 45 45 -6 44 -55 69
-82 42z"/>
<path d="M15 1502 c-13 -48 -1 -62 50 -62 28 0 36 12 31 45 -8 57 -67 70 -81
17z"/>
<path d="M260 1501 c-16 -31 -13 -43 17 -59 51 -27 89 10 61 61 -25 48 -51 47
-78 -2z"/>
<path d="M487 1510 c-18 -47 8 -90 53 -90 51 0 73 50 40 90 -32 39 -78 38 -93
0z"/>
<path d="M726 1505 c-1 -56 34 -90 67 -63 45 38 33 98 -20 98 -31 0 -47 -12
-47 -35z"/>
<path d="M4765 1527 c-39 -16 -29 -81 14 -92 48 -13 61 -1 61 58 0 45 -22 55
-75 34z"/>
<path d="M140 1380 c-26 -49 -11 -80 40 -80 48 0 66 29 50 80 -16 52 -63 51
-90 0z"/>
<path d="M373 1375 c-20 -72 -16 -78 42 -71 43 5 56 -3 58 -34 1 -22 4 -51 5
-65 3 -34 71 -32 100 3 25 30 -18 92 -65 92 -13 0 -35 18 -48 40 -15 24 -17
40 -5 40 11 0 20 9 20 20 0 43 -95 20 -107 -25z"/>
<path d="M620 1400 c-16 -11 -22 -20 -13 -20 10 0 8 -12 -4 -27 -29 -34 -10
-53 52 -53 40 0 47 9 41 53 -7 61 -32 76 -76 47z"/>
<path d="M829 1385 c6 -16 11 -42 11 -58 0 -55 89 -23 96 35 5 45 -1 51 -56
51 -45 0 -59 -7 -51 -28z"/>
<path d="M1084 1396 c-47 -47 -29 -99 31 -92 43 5 56 18 61 61 7 60 -45 78
-92 31z"/>
<path d="M4384 1377 c8 -53 67 -94 95 -66 36 36 1 109 -53 109 -39 0 -47 -9
-42 -43z"/>
<path d="M4632 1388 c-22 -57 -13 -88 27 -88 49 0 67 29 51 80 -15 48 -61 53
-78 8z"/>
<path d="M4851 1402 c-20 -33 12 -82 61 -94 26 -7 49 -25 51 -40 1 -15 3 -39
5 -53 1 -14 24 -25 52 -25 76 0 72 97 -5 106 -42 5 -55 17 -55 53 0 58 -81 97
-109 53z"/>
<path d="M5100 1390 c-31 -38 5 -90 62 -90 29 0 38 -15 38 -59 0 -52 7 -58 60
-57 52 2 60 9 60 59 0 50 -7 57 -60 57 -53 0 -60 7 -60 60 0 67 -55 84 -100
30z"/>
<path d="M0 1262 c0 -48 51 -90 90 -75 40 15 39 85 -2 101 -57 22 -88 13 -88
-26z"/>
<path d="M240 1239 c0 -54 5 -60 55 -53 31 4 55 20 55 36 0 15 -11 26 -24 23
-14 -3 -20 8 -13 25 8 21 -2 30 -31 30 -33 0 -42 -12 -42 -61z"/>
<path d="M720 1252 c0 -43 33 -72 82 -72 10 0 18 27 18 60 0 51 -8 60 -50 60
-39 0 -50 -10 -50 -48z"/>
<path d="M958 1296 c-27 -74 -12 -118 38 -112 72 8 79 102 9 112 -25 4 -46 4
-47 0z"/>
<path d="M1250 1286 c-62 -15 -84 -45 -50 -67 50 -31 75 -22 85 31 5 28 8 49
7 48 -1 -2 -20 -7 -42 -12z"/>
<path d="M4305 1287 c-31 -13 -33 -80 -3 -98 26 -17 52 8 61 59 7 40 -16 55
-58 39z"/>
<path d="M4513 1287 c-7 -8 -13 -35 -13 -62 0 -73 88 -55 96 20 6 54 -45 79
-83 42z"/>
<path d="M4727 1270 c-19 -51 9 -90 65 -90 38 0 49 8 41 29 -6 17 -2 35 8 42
32 19 0 49 -53 49 -27 0 -54 -13 -61 -30z"/>
<path d="M127 1150 c-19 -50 9 -90 62 -90 31 0 51 -11 51 -29 0 -50 60 -96 92
-70 36 31 1 99 -51 99 -23 0 -45 22 -58 60 -22 63 -76 80 -96 30z"/>
<path d="M380 1160 c-15 -9 -19 -32 -10 -59 18 -57 97 -49 106 11 7 46 -52 75
-96 48z"/>
<path d="M625 1167 c-47 -19 -30 -107 20 -107 36 0 46 12 49 60 4 59 -12 70
-69 47z"/>
<path d="M834 1120 c-16 -43 -36 -60 -70 -60 -37 0 -45 -9 -40 -45 8 -61 84
-62 92 -2 12 81 116 81 128 0 9 -62 103 -61 112 2 6 38 -2 45 -55 45 -45 0
-61 9 -61 36 0 90 -75 107 -106 24z"/>
<path d="M1093 1166 c-7 -7 -13 -34 -13 -59 0 -60 71 -65 86 -7 10 41 -47 92
-73 66z"/>
<path d="M4383 1128 c10 -80 97 -97 97 -19 0 28 -8 51 -18 51 -10 0 -34 6 -52
13 -27 10 -32 2 -27 -45z"/>
<path d="M4614 1109 c-27 -57 -43 -69 -74 -59 -49 16 -57 -51 -11 -89 39 -33
71 -10 71 50 0 40 10 49 56 49 48 0 56 8 55 55 -1 83 -57 80 -97 -6z"/>
<path d="M4851 1162 c-20 -33 26 -102 70 -102 28 0 39 14 39 50 0 28 -8 50
-18 50 -10 0 -32 5 -48 11 -17 7 -36 2 -43 -9z"/>
<path d="M5103 1162 c-44 -28 -9 -102 48 -102 28 0 49 -12 49 -27 0 -32 63
-93 97 -93 12 0 23 27 23 60 0 53 -7 60 -60 60 -44 0 -60 9 -60 36 0 64 -49
97 -97 66z"/>
<path d="M0 1021 c0 -40 72 -87 104 -68 28 17 -19 97 -61 103 -32 5 -43 -4
-43 -35z"/>
<path d="M480 1012 c0 -55 75 -88 93 -40 18 45 -8 88 -52 88 -30 0 -41 -13
-41 -48z"/>
<path d="M1180 1043 c0 -30 77 -87 99 -74 48 30 23 91 -39 91 -33 0 -60 -8
-60 -17z"/>
<path d="M4274 1019 c-7 -25 0 -46 17 -52 39 -15 69 9 69 54 0 53 -72 51 -86
-2z"/>
<path d="M4740 1010 c0 -40 10 -50 50 -50 40 0 50 10 50 50 0 40 -10 50 -50
50 -40 0 -50 -10 -50 -50z"/>
<path d="M4973 1047 c-25 -26 -13 -83 21 -96 43 -16 91 32 75 75 -13 34 -70
46 -96 21z"/>
<path d="M5125 925 c-56 -37 -58 -78 -5 -95 54 -17 80 3 80 60 0 63 -20 72
-75 35z"/>
<path d="M127 885 c3 -44 14 -55 53 -55 40 0 51 11 56 55 8 62 -47 80 -62 20
-9 -33 -9 -33 -12 0 -1 19 -10 35 -21 35 -10 0 -17 -25 -14 -55z"/>
<path d="M372 908 c-7 -17 -7 -40 -1 -50 18 -29 69 -21 69 12 0 17 9 30 20 30
11 0 20 9 20 20 0 33 -95 23 -108 -12z"/>
<path d="M604 881 c-1 -52 6 -61 49 -61 42 0 49 8 43 55 -9 84 -89 89 -92 6z"/>
<path d="M828 908 c7 -17 12 -40 12 -50 0 -10 23 -18 50 -18 40 0 50 10 50 50
0 43 -9 50 -62 50 -49 0 -60 -7 -50 -32z"/>
<path d="M1067 910 c-14 -37 5 -90 32 -90 12 0 21 18 21 40 0 22 10 40 22 40
12 0 17 -13 11 -30 -7 -16 -3 -30 8 -30 22 0 24 23 7 68 -16 41 -86 42 -101 2z"/>
<path d="M4199 919 c-24 -15 -24 -18 -1 -19 16 0 23 -6 16 -13 -7 -7 -27 -1
-44 13 -33 28 -44 -8 -15 -52 16 -25 105 -2 105 26 -1 40 -32 63 -61 45z"/>
<path d="M4384 916 c-18 -18 -16 -32 9 -60 41 -44 79 -46 95 -4 17 44 15 52
-8 38 -11 -7 -14 1 -8 19 15 38 -52 43 -88 7z"/>
<path d="M4620 889 c0 -55 50 -87 83 -54 31 31 0 105 -44 105 -28 0 -39 -14
-39 -51z"/>
<path d="M4853 911 c-13 -34 36 -91 78 -91 19 0 29 21 29 60 0 66 -84 90 -107
31z"/>
<path d="M4 777 c8 -60 71 -97 96 -57 12 20 8 40 -14 65 -45 49 -90 45 -82 -8z"/>
<path d="M248 791 c-15 -39 2 -64 53 -77 50 -13 74 34 39 76 -32 38 -78 39
-92 1z"/>
<path d="M480 763 c0 -51 6 -56 50 -48 66 13 78 35 39 73 -50 51 -89 39 -89
-25z"/>
<path d="M723 777 c5 -31 23 -49 54 -54 38 -5 45 2 40 40 -5 31 -23 49 -54 54
-38 5 -45 -2 -40 -40z"/>
<path d="M960 783 c0 -50 -56 -109 -92 -95 -40 15 -53 -21 -24 -67 35 -56 46
-52 84 28 20 42 49 71 77 75 62 8 61 84 0 92 -34 5 -45 -3 -45 -33z"/>
<path d="M4260 771 c0 -43 9 -51 57 -51 79 0 77 87 -4 96 -45 6 -53 -1 -53
-45z"/>
<path d="M4511 804 c-23 -22 -10 -80 21 -92 42 -16 68 2 68 47 0 35 -66 69
-89 45z"/>
<path d="M4733 807 c-23 -24 -14 -68 18 -80 30 -12 109 43 109 76 0 20 -107
23 -127 4z"/>
<path d="M4994 805 c-24 -6 -34 -23 -30 -52 8 -54 90 -71 109 -23 16 42 -31
86 -79 75z"/>
<path d="M5200 770 c0 -42 9 -50 60 -50 51 0 60 8 60 50 0 42 -9 50 -60 50
-51 0 -60 -8 -60 -50z"/>
<path d="M5104 688 c-27 -29 -32 -81 -9 -94 31 -19 105 26 105 63 0 47 -62 67
-96 31z"/>
<path d="M133 687 c-14 -15 -18 -107 -4 -107 53 0 106 43 97 79 -10 39 -65 56
-93 28z"/>
<path d="M370 680 c-21 -34 11 -103 45 -96 51 10 81 74 45 96 -39 25 -75 25
-90 0z"/>
<path d="M613 687 c-7 -8 -13 -30 -13 -51 0 -25 -19 -41 -60 -49 -47 -9 -60
-23 -60 -61 0 -65 87 -58 96 8 4 29 25 47 65 56 46 10 59 24 59 62 0 47 -53
68 -87 35z"/>
<path d="M1087 651 c-1 -26 10 -53 25 -59 21 -8 26 2 20 37 -5 27 2 53 15 58
12 6 5 11 -17 11 -29 2 -41 -12 -43 -47z"/>
<path d="M1836 665 c-50 -58 -66 -94 -34 -74 15 10 44 15 63 12 19 -3 35 5 35
18 0 13 -13 18 -30 12 -16 -7 -30 -4 -30 6 0 10 11 22 25 27 14 5 20 14 13 21
-6 7 -25 -3 -42 -22z"/>
<path d="M2974 659 c-15 -56 43 -77 79 -28 21 29 22 40 2 53 -42 26 -70 18
-81 -25z"/>
<path d="M3228 685 c-57 -39 -45 -100 15 -78 33 13 56 35 53 51 -7 35 -38 47
-68 27z"/>
<path d="M4140 650 c0 -38 10 -50 45 -50 77 -1 99 -26 76 -88 -27 -71 -106
-66 -121 8 -15 76 -125 78 -116 2 5 -43 16 -52 61 -50 47 2 55 -5 55 -52 0
-46 8 -54 50 -49 55 6 101 -52 82 -103 -8 -20 5 -28 45 -28 51 0 55 5 47 61
-7 48 -17 60 -51 55 -35 -5 -44 6 -49 59 -6 57 -1 65 41 65 62 0 71 10 60 70
-8 39 -22 50 -67 50 -44 0 -60 11 -70 50 -8 31 -26 50 -50 50 -27 0 -38 -14
-38 -50z"/>
<path d="M4374 687 c-23 -22 25 -84 70 -91 28 -4 49 -24 56 -56 17 -72 100
-82 100 -13 0 40 -11 52 -55 57 -43 5 -56 18 -61 61 -6 53 -73 79 -110 42z"/>
<path d="M4620 680 c-26 -16 -26 -23 3 -52 44 -44 97 -24 83 31 -12 44 -39 51
-86 21z"/>
<path d="M4860 660 c0 -24 21 -50 49 -63 27 -12 52 -41 55 -65 4 -29 23 -44
63 -48 49 -6 55 -1 50 40 -5 33 -22 48 -62 52 -42 5 -55 17 -55 53 0 42 -33
71 -82 71 -10 0 -18 -18 -18 -40z"/>
<path d="M265 587 c-37 -15 -30 -56 15 -97 58 -53 99 -12 60 60 -28 51 -32 54
-75 37z"/>
<path d="M754 585 c-51 -12 -37 -95 16 -95 23 0 42 16 47 37 8 46 -16 69 -63
58z"/>
<path d="M947 570 c-16 -42 6 -90 42 -90 35 0 78 72 61 100 -19 31 -90 24
-103 -10z"/>
<path d="M1907 570 c-16 -42 6 -90 42 -90 41 0 41 92 0 108 -17 6 -35 -1 -42
-18z"/>
<path d="M2890 580 c7 -11 -1 -14 -19 -8 -23 9 -31 -1 -31 -41 0 -44 8 -53 43
-47 60 9 97 71 57 96 -39 25 -66 25 -50 0z"/>
<path d="M3345 586 c-48 -18 -30 -110 20 -102 32 4 43 17 38 46 -8 50 -26 68
-58 56z"/>
<path d="M4727 569 c-18 -45 52 -115 86 -86 39 32 36 105 -4 89 -18 -6 -26 -3
-19 8 7 11 -2 20 -19 20 -18 0 -38 -14 -44 -31z"/>
<path d="M5200 561 c0 -50 53 -102 91 -88 47 18 36 100 -16 114 -68 19 -75 16
-75 -26z"/>
<path d="M0 539 c0 -44 81 -88 103 -54 25 39 -7 95 -55 95 -35 0 -48 -11 -48
-41z"/>
<path d="M3080 530 c0 -40 10 -50 49 -50 60 0 83 32 50 71 -40 49 -99 36 -99
-21z"/>
<path d="M3560 528 c0 -43 44 -77 68 -53 30 30 11 96 -28 96 -28 0 -40 -13
-40 -43z"/>
<path d="M3806 547 c-6 -16 -3 -38 8 -49 27 -27 89 1 82 38 -8 40 -75 49 -90
11z"/>
<path d="M1704 527 c9 -51 56 -57 56 -9 0 25 -13 42 -31 42 -19 0 -29 -14 -25
-33z"/>
<path d="M192 463 c-7 -12 -27 -16 -44 -9 -24 9 -30 0 -25 -36 9 -60 102 -69
114 -11 8 45 -26 87 -45 56z"/>
<path d="M613 466 c-24 -24 -13 -82 19 -94 52 -20 68 -14 68 27 0 40 -65 90
-87 67z"/>
<path d="M863 466 c-31 -6 -42 -19 -35 -39 7 -17 12 -39 12 -49 0 -10 23 -18
50 -18 42 0 50 9 50 60 0 33 -7 59 -15 57 -8 -1 -36 -6 -62 -11z"/>
<path d="M1780 420 c0 -50 8 -60 48 -60 70 0 85 76 19 101 -68 26 -67 27 -67
-41z"/>
<path d="M2037 441 c-32 -26 -41 -45 -27 -59 31 -31 110 -3 110 39 0 56 -31
63 -83 20z"/>
<path d="M2968 452 c-19 -49 5 -90 51 -87 29 3 41 17 41 53 0 27 -6 43 -13 36
-7 -8 -25 -4 -40 8 -20 17 -30 15 -39 -10z"/>
<path d="M3660 414 c0 -48 5 -55 28 -35 20 16 33 16 41 2 23 -37 51 -22 51 27
0 37 -13 49 -60 56 -55 8 -60 4 -60 -50z"/>
<path d="M3900 420 c0 -60 26 -79 51 -39 8 14 21 14 41 -2 23 -20 28 -14 28
30 0 45 -7 52 -40 41 -23 -7 -40 -4 -40 9 0 11 -9 21 -20 21 -11 0 -20 -27
-20 -60z"/>
<path d="M4620 421 c0 -42 10 -53 51 -57 45 -3 51 3 45 50 -9 76 -96 83 -96 7z"/>
<path d="M5125 445 c-63 -42 -56 -79 15 -81 50 -1 60 6 60 46 0 63 -20 72 -75
35z"/>
<path d="M364 415 c7 -51 76 -75 76 -26 0 17 9 31 20 31 11 0 20 9 20 20 0 11
-28 20 -61 20 -53 0 -61 -7 -55 -45z"/>
<path d="M1073 431 c-6 -15 0 -36 13 -46 42 -31 84 -17 90 30 8 52 -83 67
-103 16z"/>
<path d="M1300 410 c0 -34 12 -43 60 -43 48 0 60 9 60 43 0 34 -12 43 -60 43
-48 0 -60 -9 -60 -43z"/>
<path d="M1550 418 c-17 -52 -9 -59 46 -45 26 7 44 27 44 49 0 53 -74 49 -90
-4z"/>
<path d="M2311 438 c10 -15 -2 -18 -33 -10 -27 6 -37 6 -23 0 14 -6 25 -24 25
-40 0 -38 53 -36 68 4 14 36 -1 68 -30 68 -11 0 -14 -10 -7 -22z"/>
<path d="M2497 442 c-8 -63 -3 -72 40 -74 52 -3 80 43 46 77 -17 17 -23 16
-23 -3 0 -22 -6 -22 -30 -2 -21 17 -31 18 -33 2z"/>
<path d="M2720 413 c0 -39 8 -47 38 -39 26 7 49 -7 72 -41 42 -64 25 -93 -51
-93 -52 0 -59 -7 -59 -60 0 -53 7 -60 60 -60 53 0 60 -7 60 -57 0 -52 96 -95
101 -45 1 6 6 32 10 57 7 38 0 45 -49 45 -33 0 -63 13 -69 30 -20 52 9 90 69
90 44 0 58 9 58 39 0 42 -55 81 -94 67 -13 -5 -26 15 -30 48 -9 79 -116 97
-116 19z"/>
<path d="M3200 422 c0 -22 18 -42 44 -49 55 -14 63 -7 46 45 -16 53 -90 57
-90 4z"/>
<path d="M3440 407 c0 -41 8 -50 39 -41 22 5 43 -1 48 -13 6 -13 11 4 11 38 2
50 -6 61 -48 64 -42 4 -50 -4 -50 -48z"/>
<path d="M4380 413 c0 -40 10 -47 60 -45 89 3 89 92 0 92 -50 0 -60 -8 -60
-47z"/>
<path d="M4867 429 c-7 -18 -4 -40 7 -51 29 -29 86 1 86 44 0 47 -76 52 -93 7z"/>
<path d="M0 302 c0 -53 7 -62 51 -62 64 0 60 51 -6 95 -43 29 -45 28 -45 -33z"/>
<path d="M274 337 c-54 -30 -44 -97 15 -97 63 0 80 30 47 78 -21 29 -36 34
-62 19z"/>
<path d="M480 300 c0 -51 8 -60 50 -60 62 0 70 68 11 99 -56 30 -61 27 -61
-39z"/>
<path d="M743 342 c-40 -25 -19 -91 32 -98 46 -7 57 21 33 84 -14 36 -26 39
-65 14z"/>
<path d="M956 299 c-9 -55 -5 -60 41 -55 62 7 75 41 32 84 -46 46 -63 40 -73
-29z"/>
<path d="M1211 333 c-50 -37 -27 -93 38 -93 79 0 75 -115 -4 -124 -86 -10 -92
-109 -6 -112 55 -1 61 5 61 57 0 52 7 59 60 59 53 0 60 -7 60 -57 0 -49 7 -56
60 -56 53 0 60 7 60 56 0 47 8 57 50 57 42 0 50 9 50 60 0 51 -8 60 -50 60
-36 0 -50 11 -50 39 0 52 -78 96 -102 58 -10 -15 -18 -43 -18 -62 0 -68 -113
-46 -127 25 -13 67 -28 73 -82 33z m317 -105 c41 -16 41 -80 0 -96 -74 -29
-108 -14 -108 48 0 62 34 77 108 48z"/>
<path d="M1691 328 c-41 -41 -30 -76 26 -84 36 -6 43 3 43 55 0 68 -21 77 -69
29z"/>
<path d="M1912 328 c-24 -63 -13 -91 33 -84 57 8 69 67 18 94 -30 17 -42 14
-51 -10z"/>
<path d="M2171 329 c-44 -45 -39 -89 10 -89 67 0 109 -53 72 -90 -17 -16 -47
-30 -68 -30 -59 0 -49 -108 11 -116 37 -6 44 3 44 53 0 51 9 61 55 67 43 5 54
16 54 56 0 40 -11 51 -54 56 -46 6 -55 16 -55 65 0 66 -22 74 -69 28z"/>
<path d="M2383 318 c-31 -50 -14 -78 48 -78 60 0 68 68 13 98 -28 15 -42 10
-61 -20z"/>
<path d="M3320 301 c0 -52 7 -61 51 -61 71 0 65 106 -6 116 -38 6 -45 -2 -45
-55z"/>
<path d="M3805 347 c-56 -23 -28 -107 35 -107 50 0 60 8 60 48 0 37 -43 82
-67 70 -1 0 -14 -6 -28 -11z"/>
<path d="M4044 336 c-13 -13 -24 -40 -24 -59 0 -23 -19 -36 -55 -41 -44 -5
-55 -16 -55 -56 0 -40 11 -51 55 -56 46 -6 55 -16 55 -65 0 -52 7 -59 60 -59
53 0 60 7 60 60 0 45 9 60 38 60 20 0 48 14 62 30 31 38 -5 90 -62 90 -23 0
-38 14 -38 36 0 35 -35 84 -60 84 -7 0 -23 -11 -36 -24z m96 -156 c0 -53 -7
-60 -60 -60 -53 0 -60 7 -60 60 0 53 7 60 60 60 53 0 60 -7 60 -60z"/>
<path d="M4740 330 c-34 -41 -10 -90 45 -90 73 0 65 118 -8 120 -6 0 -23 -13
-37 -30z"/>
<path d="M5235 346 c-66 -17 -45 -106 25 -106 53 0 60 7 60 60 0 59 -11 66
-85 46z"/>
<path d="M2629 311 c-29 -21 -33 -34 -16 -52 35 -35 96 -14 103 36 8 52 -29
59 -87 16z"/>
<path d="M3088 312 c-17 -44 7 -72 63 -72 41 0 45 6 31 45 -20 54 -77 70 -94
27z"/>
<path d="M3556 292 c-4 -26 -23 -44 -51 -48 -35 -5 -45 -20 -45 -64 0 -44 10
-59 45 -64 32 -4 47 -22 51 -61 5 -44 17 -55 57 -55 77 0 60 107 -18 116 -46
6 -55 16 -55 64 0 48 9 58 55 64 40 4 55 17 55 46 0 58 -86 60 -94 2z"/>
<path d="M4500 290 c0 -40 10 -50 50 -50 58 0 72 67 18 88 -54 21 -68 13 -68
-38z"/>
<path d="M4968 312 c-16 -42 7 -72 55 -72 30 0 38 11 33 45 -7 52 -71 72 -88
27z"/>
<path d="M127 210 c-17 -46 7 -90 50 -90 21 0 44 14 50 30 18 46 -7 90 -50 90
-21 0 -43 -13 -50 -30z"/>
<path d="M378 235 c-27 -81 10 -132 76 -106 30 11 31 16 5 34 -22 15 -23 22
-4 30 36 15 10 47 -36 47 -22 0 -40 -2 -41 -5z"/>
<path d="M607 210 c-18 -47 8 -90 52 -90 32 0 41 13 41 60 0 66 -70 89 -93 30z"/>
<path d="M843 223 c-45 -29 -19 -93 37 -93 40 0 50 10 50 50 0 52 -41 72 -87
43z"/>
<path d="M1070 180 c0 -51 8 -60 50 -60 42 0 50 9 50 60 0 51 -8 60 -50 60
-42 0 -50 -9 -50 -60z"/>
<path d="M1805 227 c-36 -15 -31 -80 7 -95 56 -21 68 -13 68 48 0 58 -18 70
-75 47z"/>
<path d="M2027 181 c0 -51 8 -61 48 -61 40 0 47 9 41 55 -9 84 -89 89 -89 6z"/>
<path d="M2493 210 c-19 -49 8 -90 59 -90 40 0 48 -10 48 -60 0 -83 79 -88 82
-5 l3 55 16 -60 16 -60 -3 60 c-3 48 -14 61 -54 67 -59 8 -83 40 -68 88 14 45
-82 50 -99 5z"/>
<path d="M2973 210 c-18 -45 7 -90 48 -90 45 0 68 32 34 48 -20 10 -20 14 0
24 14 6 20 20 14 30 -18 29 -84 21 -96 -12z"/>
<path d="M3207 210 c-17 -46 7 -90 51 -90 31 0 39 13 38 60 -2 65 -67 87 -89
30z"/>
<path d="M3668 211 c-20 -51 8 -94 57 -87 33 4 45 19 45 56 0 59 -82 84 -102
31z"/>
<path d="M4387 210 c-18 -47 8 -90 52 -90 32 0 41 13 41 60 0 66 -70 89 -93
30z"/>
<path d="M4627 210 c-16 -42 6 -90 42 -90 21 0 31 19 31 60 0 64 -51 86 -73
30z"/>
<path d="M4864 180 c-1 -53 5 -62 42 -56 61 8 62 103 2 112 -35 5 -42 -5 -44
-56z"/>
<path d="M5098 230 c-14 -64 -2 -101 35 -106 45 -7 73 37 54 86 -10 27 -84 44
-89 20z"/>
<path d="M2 86 c1 -21 5 -26 11 -11 15 36 47 10 47 -38 0 -23 10 -37 25 -32
52 17 29 105 -30 111 -43 5 -55 -2 -53 -30z"/>
<path d="M240 60 c0 -50 8 -60 48 -60 37 0 49 13 56 60 8 55 4 60 -47 60 -50
0 -57 -7 -57 -60z"/>
<path d="M480 59 c0 -52 7 -61 44 -55 66 9 69 116 3 116 -39 0 -47 -10 -47
-61z"/>
<path d="M733 107 c-36 -37 -12 -107 37 -107 42 0 50 9 50 60 0 58 -49 84 -87
47z"/>
<path d="M948 76 c5 -25 10 -50 11 -56 0 -5 24 -11 52 -13 78 -4 63 100 -16
109 -48 6 -54 1 -47 -40z"/>
<path d="M1673 107 c-37 -38 -12 -106 37 -102 40 3 50 14 50 59 0 54 -51 79
-87 43z"/>
<path d="M1900 61 c0 -52 7 -61 51 -61 71 0 65 106 -6 116 -38 6 -45 -2 -45
-55z"/>
<path d="M2380 60 c0 -51 8 -60 50 -60 42 0 50 9 50 60 0 51 -8 60 -50 60 -42
0 -50 -9 -50 -60z"/>
<path d="M3093 107 c-7 -8 -13 -35 -13 -60 0 -77 93 -65 104 13 9 59 -49 88
-91 47z"/>
<path d="M3320 60 c0 -51 8 -60 50 -60 42 0 50 9 50 60 0 51 -8 60 -50 60 -42
0 -50 -9 -50 -60z"/>
<path d="M3780 60 c0 -53 7 -60 60 -60 53 0 60 7 60 60 0 53 -7 60 -60 60 -53
0 -60 -7 -60 -60z"/>
<path d="M4260 62 c0 -49 8 -57 50 -55 27 2 50 14 50 26 0 13 5 38 12 55 10
25 -1 32 -50 32 -55 0 -62 -6 -62 -58z"/>
<path d="M4500 60 c0 -88 91 -88 104 0 8 55 4 60 -47 60 -50 0 -57 -7 -57 -60z"/>
<path d="M4730 100 c-25 -40 12 -100 61 -100 41 0 49 10 49 60 0 61 -79 90
-110 40z"/>
<path d="M4961 56 c2 -55 5 -59 19 -26 15 34 17 35 19 5 0 -22 17 -35 42 -35
70 0 45 108 -26 116 -50 6 -55 1 -54 -60z"/>
<path d="M5200 60 c0 -54 6 -60 65 -60 49 1 58 5 35 20 -20 13 -22 19 -5 20
14 0 25 18 25 40 0 31 -13 40 -60 40 -53 0 -60 -7 -60 -60z"/>
</g>
</svg>
