<?xml version="1.0" standalone="no"?>
<!DOCTYPE svg PUBLIC "-//W3C//DTD SVG 20010904//EN"
 "http://www.w3.org/TR/2001/REC-SVG-20010904/DTD/svg10.dtd">
<svg version="1.0" xmlns="http://www.w3.org/2000/svg"
 width="300.000000pt" height="203.000000pt" viewBox="0 0 300.000000 203.000000"
 preserveAspectRatio="xMidYMid meet">
<metadata>
Created by potrace 1.10, written by Peter Selinger 2001-2011
</metadata>
<g transform="translate(0.000000,203.000000) scale(0.100000,-0.100000)"
fill="#000000" stroke="none">
<path d="M1800 2000 c-40 -31 -184 -55 -201 -33 -14 16 -53 17 -81 2 -17 -9
-24 -8 -33 5 -7 9 -17 16 -23 16 -14 0 -86 -42 -90 -52 -2 -4 -21 -8 -42 -8
-34 0 -44 -6 -72 -41 -26 -32 -37 -39 -55 -34 -37 9 -59 -10 -72 -62 -13 -48
-44 -93 -67 -93 -18 0 -44 -46 -44 -79 0 -19 -10 -40 -26 -56 -22 -22 -25 -33
-21 -61 4 -23 1 -39 -9 -49 -14 -13 -14 -15 0 -15 18 0 42 40 29 49 -22 16 4
81 33 81 9 0 14 13 15 35 1 19 3 40 4 45 1 6 3 15 4 21 0 6 11 9 24 7 16 -2
21 -9 19 -23 -4 -18 -2 -18 22 4 31 29 33 35 7 22 -15 -8 -20 -7 -25 5 -4 12
-2 15 9 10 10 -3 15 1 15 13 0 10 3 21 7 25 5 4 8 11 8 14 3 37 18 81 30 86 9
3 29 3 45 0 26 -6 28 -9 19 -26 -6 -11 -8 -22 -5 -26 3 -3 6 1 6 9 0 12 2 12
9 -1 12 -18 3 -33 -16 -26 -8 3 -11 1 -8 -5 4 -5 1 -18 -7 -27 -12 -15 -11
-16 5 -3 23 18 31 9 29 -34 -1 -19 3 -35 8 -35 9 0 11 6 14 43 1 16 29 45 39
40 4 -3 5 -8 2 -13 -8 -12 6 -41 16 -34 5 3 9 -3 9 -12 0 -16 -1 -16 -20 1
-21 19 -21 19 -24 -37 0 -20 2 -34 7 -31 4 2 7 13 7 23 0 10 5 22 12 26 8 5 9
0 6 -14 -4 -12 -2 -20 2 -17 5 3 12 20 16 37 3 18 13 43 22 56 12 19 12 22 1
20 -9 -2 -15 7 -17 25 -2 19 1 27 12 27 9 0 16 5 16 10 0 6 -4 10 -10 10 -5 0
-12 0 -15 0 -3 0 -5 -3 -4 -6 2 -14 -26 -23 -33 -11 -12 18 -10 27 6 27 8 0
18 9 21 20 4 11 10 18 14 16 4 -3 8 2 8 10 0 8 -6 13 -12 10 -7 -2 -17 0 -23
6 -16 16 -25 -9 -11 -33 10 -19 9 -21 -6 -16 -9 4 -19 7 -21 7 -3 0 -2 6 2 13
5 8 2 8 -9 -2 -22 -17 -22 -3 0 29 9 14 17 26 18 27 1 2 16 -1 33 -6 23 -7 36
-6 44 3 7 6 30 22 51 35 l38 23 15 -21 16 -22 31 20 c27 16 35 17 49 7 10 -7
15 -16 11 -19 -3 -4 5 -7 18 -7 14 0 30 5 37 12 8 8 15 8 26 -1 8 -7 20 -10
26 -6 9 5 25 10 66 18 6 2 24 11 40 22 37 25 56 25 70 0 13 -23 6 -43 -8 -24
-7 11 -11 11 -15 1 -2 -6 -10 -9 -15 -6 -7 4 -8 2 -4 -5 4 -6 12 -8 18 -5 14
9 29 -17 22 -40 -4 -11 -2 -16 4 -12 17 10 22 -22 5 -36 -14 -11 -16 -11 -10
4 7 20 -8 34 -18 18 -4 -6 0 -19 9 -29 9 -10 16 -24 16 -33 0 -8 10 -28 22
-44 19 -24 20 -27 4 -21 -10 4 -22 7 -27 7 -5 0 -8 3 -7 8 1 4 -2 19 -7 35 -6
23 -10 26 -22 15 -14 -11 -15 -8 -9 22 l6 35 -15 -30 -15 -30 5 28 c3 16 2 26
-2 24 -4 -3 -9 9 -10 25 -3 34 -13 50 -20 30 -3 -6 -9 -9 -15 -6 -5 4 -4 -4 3
-17 7 -13 12 -27 11 -31 -1 -5 3 -8 8 -8 18 0 11 -56 -9 -74 -18 -16 -36 -90
-19 -80 4 3 8 19 8 35 0 19 4 28 11 23 6 -3 9 -18 7 -33 -3 -14 -2 -39 2 -56
l8 -30 1 27 c0 15 6 30 11 33 6 3 10 12 9 18 0 9 -2 9 -6 0 -2 -7 -9 -13 -14
-13 -6 0 -5 9 2 21 7 14 8 24 1 28 -6 4 -6 15 1 31 9 23 11 21 19 -29 4 -30
11 -57 14 -60 4 -3 3 12 0 34 -6 38 6 77 19 63 4 -4 7 -23 7 -42 0 -33 1 -34
16 -19 13 13 17 13 21 2 7 -24 34 -39 48 -27 9 7 13 7 13 -1 0 -21 -5 -26 -22
-25 -10 1 -18 -3 -18 -7 0 -5 15 -9 34 -9 19 0 38 -4 41 -10 3 -5 10 -10 16
-10 5 0 9 5 9 10 0 6 -6 10 -14 10 -8 0 -18 10 -22 23 -8 27 -22 37 -53 37
-20 0 -21 2 -11 15 7 8 17 12 24 8 6 -3 3 3 -7 14 -9 11 -14 23 -10 28 5 4 3
5 -3 2 -9 -5 -34 31 -34 49 0 13 48 -30 58 -51 6 -14 20 -25 30 -25 30 0 114
-60 107 -77 -4 -11 -1 -13 10 -9 9 3 13 2 10 -4 -3 -6 1 -10 9 -10 14 0 13 4
-2 35 -9 19 -23 35 -30 35 -7 0 -15 6 -18 14 -3 8 -12 12 -20 9 -8 -3 -14 0
-14 6 0 6 4 11 8 11 4 0 15 13 24 28 13 22 14 32 6 40 -17 17 -24 15 -25 -10
-2 -18 0 -20 7 -8 7 11 10 12 10 2 0 -14 -24 -42 -35 -42 -12 0 -34 27 -28 34
4 3 -1 6 -11 6 -10 0 -15 -5 -11 -12 4 -7 -3 -2 -14 11 -12 13 -21 20 -21 17
0 -4 -9 -2 -20 4 -11 6 -17 16 -14 25 3 8 -1 28 -9 45 -9 16 -11 32 -7 35 5 3
16 -8 25 -25 17 -34 27 -37 45 -15 10 12 8 14 -8 10 -15 -3 -21 4 -27 28 -4
18 -9 26 -12 19 -4 -10 -8 -10 -19 -1 -8 6 -14 16 -14 21 0 10 51 6 85 -8 27
-10 95 -76 95 -92 0 -7 7 -15 16 -19 11 -4 15 -16 13 -42 -2 -20 1 -43 6 -51
34 -54 56 -117 50 -147 -3 -18 -10 -33 -14 -33 -21 0 -19 -35 3 -78 59 -115
96 -199 96 -218 0 -12 7 -28 16 -35 19 -16 48 -80 59 -129 4 -19 13 -48 21
-65 7 -16 23 -57 34 -90 31 -90 58 -125 98 -125 38 0 102 24 102 39 0 6 15 18
33 27 17 9 47 34 66 56 18 21 36 37 39 34 3 -3 -2 -14 -11 -24 -14 -15 -14
-19 -3 -19 8 0 14 5 13 11 -1 6 5 11 13 11 8 0 14 -8 14 -17 -2 -19 22 -14 30
7 3 8 0 12 -8 9 -7 -3 -21 4 -31 16 -17 19 -17 21 0 40 10 11 22 17 26 14 9
-5 14 23 11 59 -2 26 6 21 24 -15 9 -18 21 -36 26 -39 14 -9 -36 -110 -81
-159 -32 -35 -39 -50 -34 -70 7 -31 13 -39 13 -17 0 20 42 45 48 28 8 -23 22
-10 23 22 2 31 2 32 6 3 3 -16 0 -33 -6 -39 -6 -6 -11 -19 -11 -28 0 -18 -27
-32 -51 -27 -7 2 -15 -5 -17 -14 -4 -22 8 -22 54 -3 31 13 35 18 30 40 -4 14
-2 25 3 25 5 0 11 -7 13 -17 2 -12 11 -5 31 24 16 23 29 47 31 55 1 7 5 18 8
24 13 21 18 93 8 120 -14 35 -4 43 21 17 28 -28 43 -85 43 -168 1 -67 -2 -74
-38 -125 -96 -134 -162 -175 -270 -168 -35 2 -52 -1 -49 -8 2 -6 -1 -21 -7
-35 -10 -24 -10 -24 -7 3 3 16 -1 36 -8 45 -11 15 -13 10 -10 -30 1 -30 -3
-51 -12 -58 -7 -6 -13 -17 -13 -23 0 -6 5 -4 10 4 9 13 10 13 10 0 0 -11 4 -9
12 5 7 11 18 26 25 33 7 7 13 20 13 28 0 10 14 14 56 14 111 0 154 26 247 149
56 73 72 128 64 222 -6 74 -27 120 -63 140 -42 22 -51 8 -46 -75 4 -77 -3 -91
-28 -61 -11 13 -11 26 -2 66 11 46 10 55 -9 89 -12 21 -30 41 -40 43 -19 5
-44 -15 -33 -26 11 -11 -115 -145 -177 -187 -41 -28 -69 -40 -94 -40 -39 0
-51 17 -85 118 -54 160 -69 200 -88 239 -12 23 -26 44 -32 48 -5 3 -10 16 -10
28 0 19 -17 59 -88 204 -24 48 -24 52 -9 68 26 26 21 88 -13 155 -16 33 -30
73 -30 90 0 66 -80 146 -175 175 -66 20 -95 19 -125 -5z m-505 -160 c6 0 1 -6
-10 -13 -11 -7 -21 -20 -21 -29 -1 -10 2 -15 7 -12 5 3 9 13 9 22 0 13 5 12
20 -8 11 -14 20 -20 21 -15 0 6 5 -3 10 -19 8 -28 -6 -65 -19 -51 -3 2 1 12 8
20 11 13 11 16 -1 13 -8 -2 -13 4 -11 14 5 31 -15 28 -22 -3 -4 -22 -11 -30
-23 -27 -10 2 -18 10 -18 18 0 8 6 14 14 12 11 -2 12 0 3 11 -7 8 -9 17 -5 20
3 4 2 7 -4 7 -7 0 -10 34 -4 47 1 1 9 0 19 -2 9 -2 22 -4 27 -5z m675 -62 c0
-6 -6 -5 -15 2 -8 7 -15 14 -15 16 0 2 7 1 15 -2 8 -4 15 -11 15 -16z m850
-873 c0 -3 -4 -4 -9 -1 -5 3 -11 -3 -14 -15 -4 -15 -2 -18 7 -10 19 16 16 -11
-4 -31 -16 -17 -17 -16 -15 16 0 19 -3 32 -8 29 -4 -2 -5 8 -1 23 5 19 4 25
-5 20 -11 -7 -16 6 -5 17 6 6 54 -37 54 -48z m-65 -15 c-10 -19 -20 -27 -30
-24 -8 4 -15 1 -15 -5 0 -6 -5 -11 -10 -11 -7 0 -7 6 0 20 6 10 17 17 24 14 9
-3 17 3 21 15 3 12 11 21 16 21 5 0 3 -13 -6 -30z"/>
<path d="M1815 1970 c3 -5 8 -10 11 -10 2 0 4 5 4 10 0 6 -5 10 -11 10 -5 0
-7 -4 -4 -10z"/>
<path d="M1786 1952 c-3 -5 1 -15 9 -22 16 -14 20 -3 6 19 -5 8 -11 9 -15 3z"/>
<path d="M1966 1943 c11 -8 18 -17 16 -21 -2 -3 1 -8 7 -10 8 -3 8 3 0 20 -6
14 -18 25 -26 25 -13 0 -12 -3 3 -14z"/>
<path d="M1445 1940 c-3 -5 -1 -10 4 -10 6 0 11 5 11 10 0 6 -2 10 -4 10 -3 0
-8 -4 -11 -10z"/>
<path d="M1557 1943 c-13 -13 -7 -32 12 -38 11 -3 22 -16 24 -28 l4 -22 2 22
c1 16 6 20 23 15 13 -3 19 -1 15 6 -4 5 -15 9 -25 7 -26 -4 -52 13 -46 30 6
16 2 20 -9 8z"/>
<path d="M1697 1926 c-20 -21 -21 -30 -5 -56 9 -14 9 -23 1 -31 -8 -8 -12 2
-17 35 -4 26 -11 44 -17 41 -12 -8 -12 -45 1 -45 6 0 10 -5 10 -11 0 -6 -7 -8
-16 -5 -8 3 -12 2 -9 -4 3 -6 1 -10 -4 -10 -6 0 -11 10 -11 22 0 17 -3 19 -12
10 -9 -9 -9 -15 -1 -23 6 -6 9 -18 6 -27 -4 -9 -2 -13 5 -9 16 11 20 -25 5
-49 -12 -18 -11 -22 1 -27 9 -4 13 -13 10 -22 -4 -8 0 -30 7 -48 8 -17 14 -36
15 -42 4 -37 8 -32 24 35 10 41 16 77 14 79 -2 2 -7 -10 -10 -27 l-7 -32 -22
42 c-13 24 -19 45 -14 46 5 2 9 11 9 19 0 12 3 13 14 4 8 -7 12 -21 9 -32 -5
-16 -8 -18 -14 -7 -5 7 -9 9 -9 3 0 -5 4 -16 8 -22 5 -9 17 3 37 37 16 27 32
47 37 44 4 -3 8 0 8 6 0 6 5 8 10 5 8 -5 7 -11 -1 -21 -7 -8 -7 -14 -1 -14 17
0 22 28 7 40 -8 6 -11 19 -8 28 3 9 -6 0 -19 -21 -13 -21 -27 -35 -31 -31 -4
4 -7 0 -7 -10 0 -9 -4 -15 -10 -11 -6 4 -5 15 2 30 6 13 14 22 18 20 5 -3 11
3 16 13 10 23 13 83 3 77 -4 -3 -9 0 -11 6 -3 8 -10 6 -21 -5z m23 -22 c0 -9
-5 -13 -12 -9 -7 4 -4 -1 6 -9 11 -9 16 -19 13 -23 -12 -12 -38 22 -31 40 8
21 24 22 24 1z m-53 -71 c-4 -3 -2 -12 5 -20 9 -11 8 -13 -3 -11 -28 6 -34 38
-7 38 6 0 8 -3 5 -7z m13 -176 c0 -18 -2 -19 -10 -7 -13 20 -13 43 0 35 6 -3
10 -16 10 -28z"/>
<path d="M1465 1921 c-3 -6 -14 -8 -25 -6 -12 2 -18 0 -15 -6 4 -5 2 -9 -4 -9
-5 0 -11 4 -13 9 -1 5 -11 4 -21 -4 -16 -11 -14 -12 15 -11 18 2 40 -2 48 -8
8 -6 12 -6 7 -1 -4 4 0 17 10 27 9 10 13 18 10 18 -3 0 -8 -4 -12 -9z"/>
<path d="M1531 1916 c-1 -16 -3 -17 -18 -5 -15 11 -16 11 -6 -1 8 -9 9 -19 2
-32 -14 -26 -32 -23 -23 4 6 19 3 18 -20 -7 -20 -22 -23 -31 -15 -42 13 -15 7
-26 -16 -29 -8 -1 -11 4 -8 12 3 8 -1 14 -10 14 -13 0 -13 -6 -4 -35 7 -24 16
-35 29 -35 15 0 18 5 13 21 -5 15 -2 22 14 26 12 3 24 17 27 30 7 25 7 25 26
5 16 -15 18 -24 9 -39 -5 -11 -8 -32 -6 -46 3 -14 1 -28 -5 -32 -5 -3 -6 -15
-1 -28 4 -12 7 -39 6 -59 -2 -33 0 -35 11 -20 12 15 13 14 14 -10 0 -15 -4
-30 -10 -33 -5 -3 -10 -1 -10 5 0 6 -4 8 -10 5 -6 -4 -10 9 -10 33 0 22 -3 54
-7 73 -5 29 -7 30 -15 14 -7 -16 -7 -15 -4 5 3 14 1 32 -4 40 -8 12 -10 10
-10 -8 0 -12 -7 -33 -14 -45 -13 -20 -13 -25 4 -47 l20 -25 -11 33 c-6 18 -8
36 -5 40 4 3 9 -4 13 -17 4 -17 8 -19 14 -9 5 8 9 -7 9 -39 0 -32 -5 -53 -12
-55 -9 -3 -7 -10 6 -23 18 -19 18 -19 11 4 -6 21 -5 22 15 11 16 -9 19 -15 11
-23 -6 -6 -11 -16 -11 -22 0 -5 5 -3 10 5 5 8 10 11 10 5 0 -5 -4 -16 -9 -23
-6 -11 -10 -10 -15 5 -7 17 -8 17 -18 -1 -8 -15 -8 -21 0 -24 14 -4 16 -32 3
-32 -5 0 -12 5 -14 10 -3 6 -4 5 -3 -2 3 -17 67 -52 65 -36 -3 29 2 49 11 43
6 -4 7 1 3 11 -5 14 -8 12 -20 -10 -16 -31 -22 -33 -20 -7 0 11 4 18 7 16 3
-2 10 12 16 30 6 19 8 32 4 30 -4 -2 -7 2 -7 10 0 11 4 12 14 4 7 -6 11 -14 9
-18 -2 -3 1 -15 5 -26 9 -18 9 -18 5 3 -2 12 0 22 4 22 5 0 17 16 26 35 9 19
20 33 24 30 5 -3 12 0 16 6 5 8 3 9 -5 4 -9 -5 -12 -1 -11 11 1 11 2 26 1 34
-1 12 -3 13 -10 1 -5 -7 -7 -21 -4 -30 2 -9 -8 -29 -22 -45 -14 -16 -25 -27
-26 -25 0 2 -2 12 -4 22 -2 9 1 15 6 11 14 -8 22 22 23 87 0 34 5 59 11 59 5
0 4 4 -3 9 -10 6 -10 10 3 21 8 7 15 17 15 23 0 6 -6 2 -14 -8 -16 -22 -46
-29 -46 -10 0 7 8 12 18 11 12 -1 17 7 18 29 1 28 1 28 -3 3 -5 -33 -18 -36
-33 -8 -6 12 -7 20 -1 20 5 0 12 -6 15 -12 3 -7 4 3 2 23 -3 41 -13 62 -26 54
-5 -3 -11 5 -13 17 -3 18 -5 19 -6 4z m34 -43 c3 -8 -2 -21 -11 -30 -14 -14
-16 -14 -21 6 -3 12 -10 18 -17 14 -7 -4 -6 -1 1 8 16 20 40 20 48 2z m-78
-39 c-9 -9 -28 6 -21 18 4 6 10 6 17 -1 6 -6 8 -13 4 -17z m67 -97 c-2 -10 1
-15 7 -12 5 4 9 13 9 21 0 8 5 12 10 9 7 -4 7 -12 0 -24 -5 -10 -7 -21 -3 -24
3 -3 5 -23 5 -44 0 -56 -1 -59 -12 -43 -5 8 -7 26 -4 40 4 24 4 24 -5 3 -12
-27 -17 -28 -25 -7 -4 10 -2 13 6 8 8 -5 9 -2 3 12 -9 22 -13 102 -6 124 6 18
19 -36 15 -63z"/>
<path d="M1540 1859 c0 -5 5 -7 10 -4 6 3 10 8 10 11 0 2 -4 4 -10 4 -5 0 -10
-5 -10 -11z"/>
<path d="M1841 1908 c0 -10 -6 -17 -12 -15 -6 1 -14 -5 -16 -13 -4 -13 -3 -13
6 0 9 13 11 13 11 1 0 -11 3 -12 11 -4 6 6 9 19 6 29 -4 17 -5 17 -6 2z"/>
<path d="M2011 1876 c-1 -42 -8 -45 -15 -5 -2 13 -5 26 -5 28 -1 2 -7 -2 -14
-8 -8 -6 -18 -7 -23 -3 -4 4 -3 0 4 -9 15 -20 5 -31 -19 -19 -10 6 -20 6 -23
1 -8 -12 39 -20 58 -9 9 5 15 6 14 1 -2 -4 5 -19 16 -33 10 -14 16 -18 13 -10
-2 8 1 24 6 35 14 26 18 47 7 40 -5 -3 -11 3 -13 12 -3 10 -5 0 -6 -21z"/>
<path d="M1374 1868 c-3 -4 2 -8 10 -8 8 0 17 4 20 8 3 5 -2 9 -10 9 -8 0 -17
-4 -20 -9z"/>
<path d="M1410 1849 c0 -5 5 -7 10 -4 6 3 10 8 10 11 0 2 -4 4 -10 4 -5 0 -10
-5 -10 -11z"/>
<path d="M1375 1840 c-3 -5 -1 -10 4 -10 6 0 11 5 11 10 0 6 -2 10 -4 10 -3 0
-8 -4 -11 -10z"/>
<path d="M1502 1813 c-4 -10 -5 -34 -1 -53 8 -41 9 -40 14 23 5 50 1 58 -13
30z"/>
<path d="M1365 1791 c-18 -25 -18 -25 0 -11 17 14 18 13 12 -3 -4 -10 -3 -16
2 -13 5 3 12 -1 15 -9 3 -9 -3 -20 -14 -27 -21 -14 -27 -38 -9 -38 5 0 7 -5 4
-10 -4 -6 -11 -8 -16 -5 -5 4 -9 -3 -9 -14 0 -10 -8 -33 -17 -50 -15 -26 -16
-34 -5 -52 10 -15 11 -24 3 -32 -8 -8 -11 -6 -11 5 0 9 -4 19 -8 22 -4 2 -8
-4 -8 -15 0 -10 5 -19 10 -19 6 0 4 -6 -2 -12 -17 -17 -34 9 -26 36 5 16 4 17
-9 5 -10 -10 -12 -18 -5 -26 5 -7 12 -41 14 -75 4 -45 2 -59 -5 -48 -6 8 -11
10 -11 4 0 -6 6 -17 14 -23 13 -11 14 -4 13 44 -2 31 1 59 5 61 4 3 8 -2 8
-10 0 -8 10 -16 22 -18 12 -2 23 -9 26 -16 4 -14 -19 -12 -31 3 -4 6 -7 1 -5
-10 1 -11 -1 -27 -6 -35 -4 -8 1 -5 12 7 11 12 22 19 26 16 3 -3 8 2 12 11 7
18 -24 48 -40 39 -5 -4 -6 -1 -2 5 3 5 2 12 -2 14 -5 1 0 12 11 23 19 20 19
20 13 -5 -6 -19 -5 -21 3 -10 9 13 11 12 11 -5 0 -12 5 -26 11 -32 15 -15 -8
-76 -25 -66 -7 5 -7 2 1 -8 12 -14 13 -34 2 -54 -3 -5 -4 -20 -3 -32 0 -12 -3
-20 -7 -17 -5 3 -9 13 -9 22 0 9 -9 -2 -20 -25 -19 -44 -36 -58 -28 -25 3 11
0 19 -7 19 -7 0 -12 -10 -11 -23 0 -12 5 -20 10 -16 5 3 7 -2 3 -11 -3 -9 -2
-19 3 -22 4 -3 16 15 26 40 11 29 20 42 25 34 4 -7 2 -20 -4 -30 -8 -13 -8
-21 1 -32 7 -8 10 -21 6 -30 -3 -8 -1 -18 5 -21 6 -4 8 -14 5 -24 -5 -15 -4
-14 6 1 7 10 9 21 6 24 -3 3 -1 14 4 24 7 12 7 20 0 24 -6 4 -7 11 -4 17 5 7
12 4 22 -8 10 -13 13 -14 9 -3 -3 9 -1 22 4 30 6 10 9 8 10 -11 2 -45 -3 -85
-12 -100 -7 -11 -8 -8 -3 10 5 20 4 23 -7 13 -10 -10 -10 -17 0 -36 7 -13 11
-37 9 -53 -3 -27 -1 -29 30 -28 34 1 40 -7 19 -25 -10 -8 -17 -7 -25 1 -6 6
-13 10 -15 7 -8 -8 -18 -64 -11 -57 4 5 12 -2 19 -15 6 -12 19 -21 28 -21 9 1
18 -2 18 -7 1 -5 2 -15 3 -21 0 -7 11 -17 24 -23 12 -5 20 -16 17 -23 -3 -7 2
-23 10 -36 9 -13 17 -37 18 -55 2 -37 3 -37 17 -11 13 24 4 63 -12 54 -7 -5
-9 -1 -5 9 3 10 2 17 -3 17 -6 0 -10 11 -10 25 0 14 -7 28 -15 31 -8 4 -15 11
-15 18 0 6 -9 17 -20 24 -12 7 -17 18 -14 29 3 10 -2 7 -10 -7 l-16 -25 7 35
c7 44 9 46 27 31 11 -9 16 -9 22 0 4 7 3 9 -4 5 -6 -3 -14 -1 -17 5 -13 20 2
19 28 -1 25 -20 25 -20 20 0 -3 11 -10 20 -15 20 -5 0 -6 5 -2 11 4 8 12 3 20
-12 l13 -24 1 23 c0 13 4 20 10 17 6 -3 10 -1 10 4 0 6 5 11 10 11 6 0 10 -12
10 -26 0 -21 -4 -25 -17 -20 -10 4 -14 4 -10 0 4 -4 0 -16 -10 -26 -9 -10 -13
-18 -8 -18 4 0 14 8 22 18 13 15 13 15 3 -7 -8 -16 -9 -26 -2 -33 7 -7 14 2
21 30 16 58 11 98 -11 99 -10 1 -16 -2 -13 -7 7 -11 -24 -22 -37 -14 -7 5 -4
12 8 21 18 13 17 14 -8 8 -18 -5 -28 -3 -28 4 0 6 5 11 11 11 21 0 38 34 39
73 0 24 4 36 11 32 6 -4 8 -13 5 -21 -7 -19 1 -18 23 4 10 9 17 28 16 42 -3
35 4 43 23 28 15 -11 15 -11 5 3 -7 9 -9 20 -5 25 4 5 -4 0 -17 -11 -13 -11
-25 -19 -28 -17 -3 2 -8 0 -11 -4 -4 -4 -2 -4 4 -1 7 4 13 -4 16 -23 3 -21 0
-30 -10 -30 -9 0 -12 6 -8 16 3 8 2 12 -4 9 -6 -3 -10 2 -10 12 -1 14 -3 13
-14 -7 -8 -13 -12 -38 -9 -55 7 -41 -21 -72 -46 -53 -14 11 -14 11 -4 -3 7 -9
10 -19 6 -22 -3 -4 2 -15 11 -26 12 -13 14 -21 6 -26 -14 -9 -15 -7 -27 30 -7
22 -16 30 -31 29 -17 -1 -22 4 -22 24 0 24 1 24 18 9 15 -14 19 -15 19 -2 0 8
-4 12 -8 10 -9 -6 -19 19 -19 46 0 11 5 17 10 14 6 -3 10 -2 10 4 0 5 -4 13
-10 16 -10 6 -27 102 -21 120 2 6 4 22 5 38 3 34 -12 22 -16 -15 -2 -15 -7
-30 -11 -34 -4 -4 -7 -18 -7 -30 0 -28 -20 -74 -32 -74 -13 0 -9 17 8 30 8 8
14 25 13 39 -2 14 2 35 8 46 6 11 9 25 6 31 -2 6 3 23 10 37 15 28 26 24 40
-13 4 -11 6 -10 7 5 1 11 6 2 10 -20 4 -22 4 -49 -1 -60 -6 -15 -8 -11 -8 19
-1 42 -8 45 -14 5 -2 -13 3 -34 11 -46 9 -15 10 -23 3 -23 -6 0 -11 5 -11 12
0 6 -2 9 -5 6 -3 -3 1 -20 8 -38 12 -28 16 -30 28 -17 12 13 15 11 26 -12 10
-24 11 -24 12 -4 1 12 4 23 9 26 4 2 2 2 -5 1 -6 -2 -14 4 -17 13 -6 14 -8 14
-21 -3 -13 -18 -14 -17 -13 13 1 34 15 39 36 11 16 -22 32 -23 32 -2 0 8 -4
12 -10 9 -5 -3 -10 3 -10 14 0 19 -18 25 -30 9 -3 -3 -6 15 -8 40 -1 26 -4 62
-5 80 -2 17 0 32 5 32 11 0 21 -47 12 -61 -4 -8 -3 -9 4 -5 7 4 12 3 12 -3 0
-5 -5 -13 -10 -16 -8 -5 -8 -11 -1 -19 6 -7 7 -17 3 -22 -4 -4 1 -2 11 6 18
13 18 14 1 20 -12 5 -14 9 -6 14 7 4 12 4 12 -1 0 -4 5 -1 10 7 9 13 12 13 21
-3 6 -9 14 -15 20 -12 12 8 12 -18 0 -31 -6 -5 -12 -23 -15 -41 -5 -28 -4 -31
15 -26 18 5 19 7 6 14 -10 6 -13 17 -9 31 5 21 6 21 14 2 8 -17 8 -17 4 2 -2
12 0 28 5 35 7 11 9 9 10 -6 1 -11 1 -24 -1 -30 -1 -5 4 -4 12 3 10 10 10 16
0 32 -16 27 -15 33 6 28 12 -4 18 1 19 13 1 11 -3 19 -8 19 -6 0 -7 -5 -3 -11
4 -7 1 -10 -7 -7 -14 5 -19 25 -11 42 3 4 9 2 14 -5 8 -12 9 -12 6 0 -6 23
-37 23 -33 0 2 -10 -1 -19 -6 -19 -6 0 -8 -8 -5 -18 4 -13 1 -19 -10 -19 -10
0 -14 7 -11 19 7 26 -12 33 -29 12 -14 -18 -15 -17 -9 6 4 15 3 20 -2 13 -6
-9 -13 -2 -22 22 -11 32 -31 48 -31 25 0 -5 -7 -7 -15 -4 -8 4 -15 10 -15 16
0 5 5 6 10 3 6 -3 10 -2 10 4 0 17 -18 21 -24 5 -10 -25 -7 -34 10 -34 9 0 12
-5 8 -12 -5 -7 -3 -8 6 -3 10 6 12 4 7 -9 -4 -10 -7 -20 -7 -23 0 -3 -7 0 -15
7 -8 7 -12 17 -8 23 3 5 2 7 -4 4 -6 -4 -17 11 -26 33 -8 22 -12 42 -7 45 4 3
11 -2 14 -11 4 -9 9 -14 13 -11 3 4 0 13 -7 22 -14 17 -6 50 11 40 6 -4 8 -14
5 -22 -3 -8 -1 -11 4 -8 6 4 10 12 9 18 -3 17 20 71 27 64 4 -3 3 -19 -1 -34
-5 -15 -9 -30 -9 -33 -1 -3 -5 -11 -9 -17 -5 -8 -4 -13 2 -13 6 0 11 -7 11
-16 0 -10 5 -14 16 -10 8 3 12 2 9 -4 -3 -6 -1 -10 5 -10 7 0 10 5 8 11 -2 6
-7 10 -12 9 -9 -2 -26 19 -26 32 0 4 11 18 25 32 27 27 34 46 10 26 -12 -10
-15 -9 -15 6 0 11 -5 26 -10 34 -9 13 -11 13 -20 0 -6 -10 -10 -11 -10 -2 0
22 -20 12 -20 -10 0 -13 -5 -30 -10 -38 -8 -12 -10 -11 -10 7 0 12 -3 29 -7
39 -4 11 -2 15 4 11 6 -4 9 8 8 33 -2 29 2 40 12 40 8 0 11 5 8 10 -3 6 0 10
7 10 8 0 14 -12 15 -27 1 -16 -1 -22 -4 -15 -2 6 -9 12 -14 12 -5 0 -4 -10 2
-22 7 -13 12 -24 11 -25 -1 -2 1 -3 6 -3 4 0 7 16 7 35 0 21 4 34 11 31 6 -2
11 2 11 10 0 8 -6 13 -13 10 -17 -6 -56 23 -51 38 11 28 -9 33 -28 7z m0 -237
c-9 -21 -10 -21 -22 -4 -13 19 -9 43 11 69 9 11 12 8 16 -15 3 -16 1 -39 -5
-50z m47 34 c-7 -7 -12 -8 -12 -2 0 6 3 14 7 17 3 4 9 5 12 2 2 -3 -1 -11 -7
-17z m-25 -280 c-3 -8 -6 -5 -6 6 -1 11 2 17 5 13 3 -3 4 -12 1 -19z m-2 -48
c-4 -12 -9 -19 -12 -17 -3 3 -2 15 2 27 4 12 9 19 12 17 3 -3 2 -15 -2 -27z
m50 -168 c-3 -3 0 -11 6 -19 13 -15 14 -14 -23 -17 -23 -3 -25 -1 -16 19 5 12
16 22 24 22 8 0 12 -3 9 -5z m-20 -82 c3 -5 1 -10 -4 -10 -6 0 -11 5 -11 10 0
6 2 10 4 10 3 0 8 -4 11 -10z m122 -232 c-3 -8 -6 -5 -6 6 -1 11 2 17 5 13 3
-3 4 -12 1 -19z"/>
<path d="M1347 1583 c-4 -3 -7 -11 -7 -17 0 -6 5 -5 12 2 6 6 9 14 7 17 -3 3
-9 2 -12 -2z"/>
<path d="M1186 1794 c-9 -24 -7 -28 9 -14 17 14 20 30 6 30 -5 0 -12 -7 -15
-16z"/>
<path d="M1470 1784 c0 -8 5 -12 10 -9 6 4 8 11 5 16 -9 14 -15 11 -15 -7z"/>
<path d="M1729 1785 c-3 -5 -6 -26 -7 -45 -2 -19 -6 -48 -11 -65 -15 -49 -19
-111 -9 -126 7 -12 8 -11 6 1 -2 12 11 113 17 130 15 45 18 131 4 105z"/>
<path d="M1163 1754 c0 -16 13 -19 21 -5 3 5 0 11 -7 14 -8 3 -14 -1 -14 -9z"/>
<path d="M1972 1728 c31 -27 51 -65 45 -82 -3 -7 3 -38 13 -69 10 -30 24 -100
30 -154 7 -54 15 -102 18 -108 7 -11 9 -21 17 -80 3 -22 8 -55 12 -74 6 -33 7
-33 21 -15 12 16 14 16 9 2 -7 -19 10 -78 22 -78 4 0 16 7 27 16 10 8 14 13 8
10 -14 -7 -27 21 -17 36 4 7 1 8 -7 3 -8 -5 -11 -3 -8 6 3 8 -4 27 -15 42 -10
16 -17 30 -14 33 2 3 -4 27 -14 55 -11 27 -19 60 -19 74 0 14 -5 25 -11 25 -5
0 -7 5 -4 10 5 8 11 8 20 0 9 -7 16 -6 25 5 9 10 9 15 1 15 -6 0 -11 5 -11 11
0 5 5 7 12 3 7 -4 8 -3 4 4 -11 18 -36 15 -29 -4 4 -12 1 -15 -13 -12 -15 2
-19 12 -19 41 0 20 -4 37 -9 37 -4 0 -3 6 3 14 10 12 9 20 -6 42 -14 21 -14
26 -3 22 8 -2 15 -10 15 -15 0 -6 3 -15 8 -19 4 -4 7 0 7 9 0 9 -4 18 -8 21
-13 8 -1 67 14 73 8 3 14 10 14 16 0 7 -4 7 -12 -1 -17 -17 -33 -15 -18 3 9
10 9 15 1 15 -11 0 -15 -12 -12 -42 1 -10 -3 -26 -9 -35 -11 -17 -11 -17 -6 0
3 9 1 28 -4 41 -5 15 -5 27 3 35 6 6 7 11 3 11 -5 0 -2 8 5 18 11 13 8 13 -11
-3 -14 -11 -22 -16 -17 -11 4 5 -1 18 -10 29 -17 20 -17 20 2 14 19 -7 19 -7
1 8 -10 8 -23 12 -27 9 -5 -3 -19 0 -31 6 -20 10 -20 9 4 -12z m198 -634 c0
-8 -4 -12 -10 -9 -5 3 -10 10 -10 16 0 5 5 9 10 9 6 0 10 -7 10 -16z"/>
<path d="M1145 1721 c-3 -5 -1 -12 5 -16 5 -3 10 1 10 9 0 18 -6 21 -15 7z"/>
<path d="M1606 1715 c-3 -10 -3 -22 3 -28 12 -12 20 4 11 27 -6 19 -7 19 -14
1z"/>
<path d="M1210 1701 c-6 -12 -17 -17 -28 -14 -13 3 -21 -2 -25 -16 -3 -12 -1
-24 4 -27 5 -3 9 2 9 10 0 8 5 18 11 22 8 4 9 -1 4 -17 -15 -47 -15 -53 0 -22
21 46 39 52 20 7 -9 -21 -13 -35 -9 -31 4 4 13 2 21 -4 10 -9 17 -8 30 2 15
12 16 12 10 -4 -4 -10 -7 -28 -7 -40 0 -18 -2 -20 -11 -7 -9 12 -10 12 -5 -3
9 -26 -4 -68 -18 -60 -6 3 -7 2 -3 -2 10 -12 39 -16 32 -5 -3 5 -1 11 4 15 6
3 8 12 4 20 -3 9 0 22 7 30 7 8 9 15 4 15 -4 0 -3 5 4 12 13 13 -3 52 -19 42
-6 -3 -9 0 -8 7 2 8 -3 24 -10 37 -7 13 -10 30 -7 38 8 21 -2 17 -14 -5z m20
-73 c0 -18 -2 -20 -9 -8 -6 8 -7 18 -5 22 9 14 14 9 14 -14z"/>
<path d="M1872 1685 c-1 -19 3 -35 9 -35 17 0 21 28 7 49 -14 20 -15 19 -16
-14z"/>
<path d="M1980 1690 c0 -5 5 -10 11 -10 5 0 7 5 4 10 -3 6 -8 10 -11 10 -2 0
-4 -4 -4 -10z"/>
<path d="M1751 1671 c-7 -5 -11 -13 -7 -19 3 -6 -1 -17 -9 -25 -9 -9 -15 -32
-14 -54 l1 -38 7 37 c4 20 14 44 21 53 7 8 10 18 7 22 -4 3 -2 12 4 20 13 15
10 16 -10 4z"/>
<path d="M1812 1655 c0 -16 2 -22 5 -12 2 9 2 23 0 30 -3 6 -5 -1 -5 -18z"/>
<path d="M1831 1654 c0 -11 3 -14 6 -6 3 7 2 16 -1 19 -3 4 -6 -2 -5 -13z"/>
<path d="M1271 1644 c0 -11 3 -14 6 -6 3 7 2 16 -1 19 -3 4 -6 -2 -5 -13z"/>
<path d="M1059 1640 c-3 -8 0 -21 7 -28 7 -7 11 -20 8 -30 -5 -14 -4 -15 5 -2
13 18 15 53 2 45 -5 -3 -11 3 -13 12 -3 15 -5 15 -9 3z"/>
<path d="M1120 1639 c0 -5 5 -7 10 -4 6 3 10 8 10 11 0 2 -4 4 -10 4 -5 0 -10
-5 -10 -11z"/>
<path d="M1870 1625 c-2 -11 -3 -29 -4 -40 -1 -23 -17 -45 -29 -38 -4 2 -6 0
-5 -5 3 -11 -66 -62 -82 -62 -13 0 -13 -3 3 -33 14 -27 11 -100 -4 -91 -5 3
-7 9 -4 13 2 5 -2 17 -10 27 -8 10 -15 28 -15 38 0 29 -11 12 -15 -25 -3 -21
-1 -29 4 -20 13 21 26 -3 37 -74 4 -24 3 -27 -6 -15 -9 13 -10 12 -7 -5 2 -11
7 -19 13 -18 10 2 11 -53 1 -64 -4 -3 -1 -13 6 -21 9 -13 9 -14 0 -8 -8 4 -14
2 -14 -6 -3 -24 2 -113 7 -143 4 -23 3 -26 -5 -15 -6 8 -11 11 -12 5 -1 -5 -3
-14 -4 -20 -2 -5 -3 -18 -4 -27 0 -10 -5 -18 -11 -18 -13 0 -10 51 4 69 8 11
8 13 -1 8 -6 -4 -13 -4 -16 0 -2 5 -2 2 -1 -4 2 -7 -1 -13 -6 -13 -6 0 -10 3
-11 8 0 4 -2 16 -4 27 -5 26 32 32 38 7 3 -9 5 -4 6 11 0 16 -8 40 -19 54 -11
14 -20 22 -20 18 0 -5 7 -17 17 -27 9 -10 13 -21 8 -26 -4 -4 -10 -2 -12 5 -7
19 -40 -19 -35 -39 2 -10 1 -26 -4 -35 -8 -19 -10 -27 -14 -53 -1 -11 -4 -9
-10 5 -8 19 -9 19 -9 -2 -1 -13 5 -23 12 -23 8 0 7 -4 -3 -10 -13 -9 -13 -10
0 -10 13 -1 12 -3 -2 -13 -11 -9 -14 -22 -11 -40 4 -17 1 -27 -7 -27 -7 0 -10
7 -7 15 4 8 2 17 -2 19 -15 10 -20 -6 -10 -32 5 -14 12 -50 16 -81 3 -31 9
-64 14 -73 5 -9 8 -21 7 -25 -1 -4 19 -51 45 -105 26 -53 47 -103 47 -112 0
-9 5 -16 10 -16 14 0 13 -27 -2 -32 -14 -5 -1 -28 15 -27 9 0 8 2 -1 6 -6 2
-10 9 -6 14 8 14 24 11 24 -6 0 -8 4 -15 9 -15 5 0 7 -10 4 -23 -4 -18 -3 -19
7 -7 9 12 10 9 5 -13 -3 -16 -2 -34 4 -40 5 -7 13 -32 19 -57 l10 -45 1 45 c1
56 -18 121 -58 197 -17 32 -40 80 -51 106 -11 27 -24 46 -30 42 -6 -3 -7 0 -4
10 4 8 2 21 -4 28 -6 7 -18 35 -28 62 -19 56 -15 195 6 220 6 8 10 34 9 59 -2
25 0 46 4 46 4 0 12 0 17 0 6 0 10 -12 9 -27 l-1 -28 -8 25 c-6 20 -7 15 -7
-20 l1 -45 30 28 c16 16 35 39 42 53 10 19 25 228 29 399 0 18 48 66 61 61 7
-3 10 2 7 15 -6 22 -23 26 -23 4 0 -19 -16 -19 -24 0 -3 10 5 20 24 30 17 9
30 20 30 25 0 6 12 10 26 10 18 0 23 4 17 13 -4 6 -10 30 -14 52 -4 22 -8 31
-9 20z m-78 -163 c3 -10 -1 -23 -7 -29 -10 -9 -14 -8 -17 5 -6 20 1 42 12 42
4 0 10 -8 12 -18z"/>
<path d="M1936 1633 c-4 -5 -12 -9 -17 -9 -5 -1 -13 -2 -19 -3 -5 0 -10 -6
-10 -12 0 -7 10 -9 25 -7 22 5 25 2 25 -23 0 -16 5 -29 11 -29 7 0 9 10 5 28
-4 15 -7 35 -7 45 0 19 -2 20 -13 10z"/>
<path d="M1960 1626 c0 -8 5 -18 10 -21 6 -3 10 1 10 9 0 8 -4 18 -10 21 -5 3
-10 -1 -10 -9z"/>
<path d="M1098 1595 c-6 -47 -6 -46 7 -31 6 6 8 25 5 41 -6 29 -6 29 -12 -10z"/>
<path d="M1136 1621 c-3 -5 1 -11 9 -14 9 -4 12 -1 8 9 -6 16 -10 17 -17 5z"/>
<path d="M1766 1615 c-9 -26 -7 -32 5 -12 6 10 9 21 6 23 -2 3 -7 -2 -11 -11z"/>
<path d="M1300 1605 c-6 -8 -10 -19 -8 -24 1 -6 8 1 15 14 13 28 11 31 -7 10z"/>
<path d="M2090 1593 c0 -10 4 -14 8 -8 4 6 11 13 16 18 5 4 2 7 -7 7 -10 0
-17 -8 -17 -17z"/>
<path d="M1189 1587 c-20 -15 -34 -57 -20 -57 6 0 11 9 11 21 0 11 5 17 10 14
6 -4 9 -1 8 7 -2 7 3 12 10 10 8 -1 11 2 7 8 -7 12 -6 12 -26 -3z"/>
<path d="M1138 1583 c-3 -16 -6 -29 -13 -52 -8 -23 -9 -23 -22 -6 -7 11 -13
14 -13 8 0 -15 25 -34 35 -25 5 4 5 -2 2 -13 -7 -19 -6 -19 7 -2 20 26 27 7
14 -39 -9 -33 -12 -36 -19 -19 -6 16 -8 16 -8 3 -1 -9 -4 -25 -7 -35 -5 -15
-4 -15 5 -3 9 13 11 13 11 0 0 -8 9 3 20 24 10 22 17 42 15 46 -3 5 2 11 11
14 12 4 15 2 10 -9 -3 -9 0 -15 9 -15 21 0 19 14 -5 35 -11 10 -20 15 -20 10
0 -4 -6 -2 -13 4 -8 6 -17 8 -20 4 -15 -14 -6 12 10 29 11 12 12 18 3 18 -7 0
-10 7 -6 15 3 8 3 15 1 15 -3 0 -6 -3 -7 -7z"/>
<path d="M1621 1577 c-6 -6 -11 -15 -11 -21 0 -5 3 -6 7 -3 3 4 13 -3 21 -14
12 -17 16 -18 23 -8 22 35 -12 74 -40 46z m37 -25 c6 -18 -15 -14 -22 4 -4 10
-1 14 6 12 6 -2 14 -10 16 -16z"/>
<path d="M1917 1570 c-3 -11 -1 -23 4 -26 5 -3 9 6 9 20 0 31 -6 34 -13 6z"/>
<path d="M1971 1568 c0 -9 -9 -21 -18 -26 -9 -6 -17 -19 -18 -30 -1 -12 2 -19
6 -16 4 2 9 1 12 -3 2 -5 2 -2 1 5 -5 17 7 43 16 37 4 -3 14 3 21 12 8 10 9
14 2 10 -7 -4 -13 0 -16 10 -4 16 -5 16 -6 1z"/>
<path d="M1067 1553 c-10 -9 -9 -23 1 -23 5 0 9 7 9 15 0 17 -1 18 -10 8z"/>
<path d="M1450 1540 c0 -5 4 -10 9 -10 6 0 13 5 16 10 3 6 -1 10 -9 10 -9 0
-16 -4 -16 -10z"/>
<path d="M2015 1525 c3 -16 11 -34 16 -39 15 -16 11 9 -7 40 l-16 29 7 -30z"/>
<path d="M1204 1524 c-18 -14 -18 -15 4 -4 12 6 22 13 22 15 0 8 -5 6 -26 -11z"/>
<path d="M1680 1507 c0 -20 4 -38 9 -42 6 -3 7 10 4 32 -8 50 -13 55 -13 10z"/>
<path d="M1593 1513 c0 -7 5 -9 10 -6 5 3 13 -1 18 -8 6 -10 8 -8 7 6 -2 22
-35 30 -35 8z"/>
<path d="M1902 1518 c-7 -7 -12 -9 -12 -5 0 4 -9 3 -20 -3 -23 -12 -28 -42 -6
-34 17 7 30 -28 27 -73 -1 -18 3 -33 9 -33 15 0 6 113 -9 118 -15 5 -14 23 2
20 6 -2 15 -10 18 -17 4 -11 7 -9 11 7 7 26 -4 36 -20 20z"/>
<path d="M1967 1513 c-3 -5 -2 -15 4 -23 13 -21 11 -32 -3 -24 -7 4 -10 3 -5
-1 4 -5 -5 -17 -20 -27 -21 -13 -24 -18 -10 -18 9 0 17 5 17 11 0 8 5 8 15 -1
9 -8 13 -21 9 -36 -4 -15 -2 -24 6 -24 6 0 8 4 5 10 -3 5 -1 19 6 31 6 13 7
19 1 15 -6 -3 -13 -2 -17 4 -3 5 -2 10 2 10 5 0 10 8 11 18 1 9 3 26 4 36 3
20 -16 33 -25 19z"/>
<path d="M1655 1500 c-4 -6 -8 -23 -11 -38 -4 -25 -3 -25 8 -7 11 18 19 55 12
55 -2 0 -6 -5 -9 -10z"/>
<path d="M2099 1505 c-5 -28 -4 -63 2 -59 12 7 17 41 8 55 -5 8 -9 10 -10 4z"/>
<path d="M1086 1484 c-3 -9 -11 -12 -18 -8 -10 5 -10 4 -1 -6 7 -8 20 -15 29
-16 12 -2 13 1 6 8 -6 6 -8 17 -5 24 3 8 3 14 0 14 -3 0 -8 -7 -11 -16z"/>
<path d="M1586 1478 c3 -5 8 -7 12 -4 3 3 10 -2 17 -10 11 -15 12 -15 12 0 0
9 -3 16 -6 17 -3 0 -14 2 -24 4 -9 2 -14 -1 -11 -7z"/>
<path d="M1247 1460 c-8 -11 -17 -17 -22 -12 -5 4 -5 1 -1 -6 9 -15 22 -8 36
19 14 25 5 25 -13 -1z"/>
<path d="M2020 1444 c0 -16 5 -36 10 -44 7 -11 8 -4 6 23 -4 46 -16 62 -16 21z"/>
<path d="M1045 1451 c-3 -5 -2 -12 3 -15 5 -3 9 1 9 9 0 17 -3 19 -12 6z"/>
<path d="M1667 1453 c-3 -4 1 -21 8 -38 l14 -30 -6 35 c-7 40 -9 45 -16 33z"/>
<path d="M992 1434 c-7 -8 -8 -14 -3 -14 10 0 25 19 20 25 -2 1 -10 -3 -17
-11z"/>
<path d="M1265 1440 c-3 -5 -1 -10 4 -10 6 0 11 5 11 10 0 6 -2 10 -4 10 -3 0
-8 -4 -11 -10z"/>
<path d="M1089 1412 c-3 -20 -2 -29 4 -23 5 5 7 19 5 32 -3 20 -5 19 -9 -9z"/>
<path d="M930 1408 c0 -24 -14 -37 -49 -44 -17 -3 -29 -15 -33 -33 -6 -30 -42
-61 -69 -61 -14 0 -32 -7 -39 -15 -7 -8 -25 -15 -40 -15 -15 0 -33 -7 -41 -16
-8 -10 -22 -14 -40 -10 -18 3 -36 -2 -60 -20 -18 -13 -43 -24 -56 -24 -39 0
-142 -148 -143 -206 0 -11 6 -28 13 -37 10 -15 12 -9 14 38 1 45 8 65 36 108
39 59 72 91 84 84 12 -7 73 20 73 32 0 6 16 10 35 9 19 -1 32 -5 29 -10 -3 -4
0 -8 5 -8 6 0 11 6 11 14 0 24 26 39 49 27 16 -9 23 -6 41 16 17 22 23 25 30
13 7 -12 15 -9 39 14 26 25 33 27 46 16 12 -10 18 -11 28 -1 9 10 8 11 -5 6
-25 -10 -41 34 -22 56 24 27 78 12 67 -18 -6 -15 -5 -16 9 -3 9 8 14 18 12 22
-2 4 1 10 7 14 8 5 8 9 -2 14 -7 5 -14 19 -16 31 -5 33 -13 37 -13 7z m20 -48
c0 -5 -4 -10 -10 -10 -5 0 -10 5 -10 10 0 6 5 10 10 10 6 0 10 -4 10 -10z"/>
<path d="M1163 1409 c-1 -12 -1 -20 0 -18 2 2 9 12 16 22 11 14 11 17 -1 17
-7 0 -14 -10 -15 -21z"/>
<path d="M1205 1416 c-15 -18 -36 -56 -31 -56 7 0 49 61 45 65 -2 1 -8 -2 -14
-9z"/>
<path d="M1634 1418 c-4 -6 -3 -8 4 -4 5 3 13 0 15 -6 3 -8 6 -6 6 5 1 19 -14
23 -25 5z"/>
<path d="M1212 1383 c-34 -50 -35 -59 -4 -23 29 32 38 50 28 50 -3 0 -13 -12
-24 -27z"/>
<path d="M1931 1359 c2 -27 6 -52 10 -55 4 -2 6 12 3 31 -2 20 0 45 6 55 9 16
8 20 -5 20 -13 0 -16 -10 -14 -51z"/>
<path d="M2006 1395 c14 -47 17 -95 4 -95 -9 0 -9 -4 -2 -13 8 -9 5 -19 -8
-37 -22 -28 -26 -65 -9 -75 17 -11 24 4 11 25 -7 12 -8 20 -2 20 5 0 10 6 10
13 0 8 7 14 15 14 8 0 15 -5 15 -11 0 -6 3 -22 6 -36 l5 -25 -14 25 -15 25 1
-27 c1 -14 5 -24 9 -22 4 2 9 -6 11 -18 l4 -23 2 23 c0 13 8 22 19 23 10 0 12
3 4 6 -6 2 -10 9 -6 14 3 5 1 9 -5 9 -5 0 -8 18 -7 40 3 32 1 37 -8 24 -9 -12
-12 -7 -14 30 -1 25 -8 60 -17 78 -8 18 -13 24 -9 13z"/>
<path d="M1627 1386 c-3 -8 0 -17 7 -19 10 -4 12 1 9 14 -6 23 -9 24 -16 5z"/>
<path d="M1251 1378 c-1 -10 -5 -18 -11 -18 -5 0 -19 -19 -30 -42 -23 -48 -23
-48 -10 -48 6 0 10 6 10 14 0 7 11 30 25 51 14 20 24 42 21 49 -2 6 -5 3 -5
-6z"/>
<path d="M1651 1383 c0 -5 4 -17 8 -28 5 -12 4 -25 -2 -33 -7 -8 -7 -16 0 -23
6 -6 10 -5 11 3 0 7 2 20 3 28 4 30 -1 60 -11 60 -5 0 -10 -3 -9 -7z"/>
<path d="M1320 1365 c0 -10 -6 -12 -17 -8 -16 6 -16 5 -4 -10 7 -9 18 -17 24
-17 6 0 7 3 4 6 -3 4 -2 15 4 25 6 13 6 19 -1 19 -5 0 -10 -7 -10 -15z"/>
<path d="M2035 1370 c3 -5 8 -10 11 -10 2 0 4 5 4 10 0 6 -5 10 -11 10 -5 0
-7 -4 -4 -10z"/>
<path d="M1514 1362 c4 -7 2 -12 -3 -12 -6 0 -11 -7 -11 -15 0 -8 5 -15 12
-15 6 0 8 3 5 7 -4 3 -2 12 4 19 7 8 6 14 -2 20 -8 4 -9 3 -5 -4z"/>
<path d="M1705 1360 c3 -5 3 -10 -2 -10 -12 0 -14 -100 -2 -121 6 -11 5 -20
-1 -24 -5 -3 -10 -2 -10 2 0 5 -6 17 -13 27 -11 16 -13 13 -15 -20 -2 -21 -8
-45 -15 -53 -10 -12 -9 -13 2 -7 13 8 11 -4 -6 -52 -3 -8 0 -10 10 -7 14 6 19
29 18 94 0 29 2 31 13 16 7 -10 18 -15 24 -11 6 3 12 1 15 -6 2 -7 2 -4 0 7
-3 11 -5 28 -4 38 0 9 -4 15 -8 12 -5 -2 -8 14 -8 36 0 23 3 35 7 29 6 -9 10
-7 14 7 7 23 -2 53 -16 53 -5 0 -6 -4 -3 -10z"/>
<path d="M1912 1293 c4 -38 10 -138 13 -223 5 -121 10 -158 22 -170 9 -8 13
-10 9 -3 -11 20 -14 73 -4 73 5 0 6 5 2 12 -4 6 -11 70 -15 142 -5 72 -11 140
-13 151 -2 11 -5 35 -5 53 -1 17 -4 32 -9 32 -4 0 -4 -30 0 -67z"/>
<path d="M1967 1315 c6 -48 6 -49 -13 -35 -19 14 -19 14 0 -8 11 -12 22 -20
25 -17 11 12 8 70 -5 89 -13 19 -14 16 -7 -29z"/>
<path d="M1984 1348 c3 -15 26 -23 26 -8 0 6 -4 9 -9 6 -5 -4 -12 -1 -14 4 -3
6 -4 5 -3 -2z"/>
<path d="M2124 1344 c-18 -14 -18 -14 6 -3 31 14 36 19 24 19 -6 0 -19 -7 -30
-16z"/>
<path d="M2044 1335 c-7 -16 2 -35 17 -35 5 0 9 5 9 11 0 5 -5 7 -11 3 -8 -4
-9 0 -4 15 7 23 -2 29 -11 6z"/>
<path d="M1154 1332 c4 -7 2 -12 -3 -12 -6 0 -11 -9 -11 -21 0 -11 5 -17 10
-14 6 3 10 1 10 -4 0 -6 -4 -11 -8 -11 -7 0 -52 -74 -52 -86 0 -2 5 -4 10 -4
6 0 10 6 10 14 0 8 15 34 33 58 46 60 55 77 30 55 -21 -18 -40 -12 -22 9 7 8
6 14 -2 20 -8 4 -9 3 -5 -4z"/>
<path d="M1246 1321 c-10 -11 -15 -24 -12 -29 7 -11 -28 -45 -37 -36 -4 4 -15
-12 -25 -34 -10 -23 -22 -39 -25 -35 -4 3 -7 -4 -7 -16 0 -32 15 -18 34 34 10
25 21 43 26 40 4 -3 13 2 20 10 7 8 17 12 24 8 6 -3 8 -2 3 2 -4 5 5 22 20 39
18 20 20 24 6 12 -24 -20 -32 -9 -11 12 7 7 10 12 7 12 -3 0 -14 -9 -23 -19z"/>
<path d="M1604 1328 c8 -48 31 -118 39 -118 4 0 5 9 2 20 -4 12 -1 28 7 38 12
16 11 16 -6 2 -18 -14 -19 -13 -12 13 4 18 2 34 -5 43 -14 17 -28 18 -25 2z
m26 -23 c0 -8 -2 -15 -4 -15 -2 0 -6 7 -10 15 -3 8 -1 15 4 15 6 0 10 -7 10
-15z"/>
<path d="M2166 1325 c4 -8 8 -15 10 -15 2 0 4 7 4 15 0 8 -4 15 -10 15 -5 0
-7 -7 -4 -15z"/>
<path d="M2140 1323 c0 -4 5 -15 10 -23 8 -13 10 -13 10 2 0 9 -4 20 -10 23
-5 3 -10 3 -10 -2z"/>
<path d="M1290 1305 c-7 -9 -8 -15 -2 -15 5 0 12 7 16 15 3 8 4 15 2 15 -2 0
-9 -7 -16 -15z"/>
<path d="M2133 1266 c9 -26 15 -32 31 -28 12 3 17 1 13 -5 -4 -6 0 -13 8 -16
10 -4 12 -1 8 11 -4 9 -11 20 -17 25 -8 5 -6 10 4 17 12 9 11 10 -6 8 -11 -2
-28 3 -36 9 -13 11 -14 9 -5 -21z"/>
<path d="M1116 1275 c4 -8 8 -15 10 -15 2 0 4 7 4 15 0 8 -4 15 -10 15 -5 0
-7 -7 -4 -15z"/>
<path d="M2072 1270 c0 -14 2 -19 5 -12 2 6 2 18 0 25 -3 6 -5 1 -5 -13z"/>
<path d="M1015 1271 c-3 -5 -2 -12 3 -15 5 -3 9 1 9 9 0 17 -3 19 -12 6z"/>
<path d="M881 1257 c2 -1 13 -9 24 -17 19 -14 19 -14 6 3 -7 9 -18 17 -24 17
-6 0 -8 -1 -6 -3z"/>
<path d="M930 1245 c8 -11 15 -21 16 -23 1 -2 5 5 8 15 4 9 4 14 0 10 -4 -4
-14 -1 -23 6 -14 11 -15 10 -1 -8z"/>
<path d="M2205 1249 c-4 -6 -5 -12 -2 -15 2 -3 7 2 10 11 7 17 1 20 -8 4z"/>
<path d="M815 1240 c-4 -6 -2 -17 4 -24 6 -7 9 -15 6 -18 -3 -2 1 -5 9 -5 8 0
12 6 9 13 -2 6 0 15 6 19 10 6 16 -8 11 -30 -1 -5 8 -1 20 10 20 18 20 19 3
29 -25 14 -43 16 -40 4 1 -6 -4 -13 -12 -16 -10 -3 -12 0 -8 12 7 18 2 22 -8
6z"/>
<path d="M1221 1232 c-7 -13 -17 -20 -24 -16 -8 5 -8 3 1 -7 10 -11 15 -11 28
3 9 9 14 22 12 29 -3 10 -9 7 -17 -9z"/>
<path d="M990 1235 c0 -2 6 -8 13 -14 10 -8 14 -7 14 2 0 8 -6 14 -14 14 -7 0
-13 -1 -13 -2z"/>
<path d="M1596 1213 c2 -16 4 -39 6 -53 1 -14 -2 -31 -6 -39 -7 -10 -5 -12 4
-6 10 6 12 3 8 -13 -4 -13 -1 -20 5 -19 7 1 10 -12 8 -35 -3 -42 0 -46 20 -21
12 14 12 16 0 8 -11 -6 -13 -3 -8 15 3 13 2 31 -3 40 -5 9 -5 33 0 53 5 25 5
35 -3 30 -6 -4 -8 0 -4 11 4 10 3 15 -3 11 -6 -3 -10 5 -10 19 0 14 -4 26 -9
26 -4 0 -7 -12 -5 -27z"/>
<path d="M755 1221 c-3 -6 -1 -11 4 -11 6 0 11 -9 11 -20 0 -11 7 -20 15 -20
15 0 14 3 -21 58 -1 2 -5 -1 -9 -7z"/>
<path d="M1236 1193 c-9 -16 -15 -21 -16 -13 0 13 -1 13 -10 0 -5 -8 -9 -22
-9 -30 0 -13 1 -13 7 0 10 22 30 22 42 0 12 -22 5 -44 -11 -34 -5 3 -7 9 -4
14 3 5 1 11 -5 15 -5 3 -10 -1 -10 -10 0 -10 -5 -13 -12 -9 -7 4 -8 3 -4 -5 4
-6 12 -9 17 -6 5 4 12 0 15 -9 5 -12 9 -11 27 7 21 21 31 57 15 57 -4 0 -8 -8
-8 -17 0 -15 -2 -14 -15 3 -19 25 -19 33 3 29 9 -1 11 0 4 2 -8 3 -11 11 -8
19 9 24 -3 15 -18 -13z"/>
<path d="M1296 1202 c-3 -9 -2 -33 4 -51 5 -19 7 -38 4 -42 -3 -5 -1 -9 3 -9
5 0 14 14 20 30 6 17 7 30 3 30 -5 0 -11 -8 -14 -17 -2 -10 -2 3 1 30 5 46 -9
67 -21 29z"/>
<path d="M1443 1214 c4 -7 0 -14 -8 -18 -8 -3 -15 -13 -15 -21 0 -9 4 -14 9
-10 6 3 15 -3 21 -12 7 -12 10 -13 7 -3 -2 8 -1 22 4 31 6 12 3 21 -8 30 -9 8
-14 9 -10 3z"/>
<path d="M2221 1190 c-1 -26 2 -31 9 -20 9 13 10 13 10 -1 0 -8 9 -33 20 -55
18 -36 19 -37 20 -13 0 15 -7 29 -15 33 -8 3 -15 13 -15 23 -1 10 -7 29 -15
43 l-14 25 0 -35z"/>
<path d="M795 1200 c3 -5 8 -10 11 -10 2 0 4 5 4 10 0 6 -5 10 -11 10 -5 0 -7
-4 -4 -10z"/>
<path d="M695 1190 c26 -11 65 -12 65 -2 0 4 -19 8 -43 8 -30 2 -37 0 -22 -6z"/>
<path d="M1180 1163 c0 -25 -3 -33 -9 -25 -7 11 -10 10 -15 -3 -11 -30 -6 -36
13 -18 20 20 36 83 21 83 -6 0 -10 -17 -10 -37z"/>
<path d="M1480 1190 c0 -8 -3 -25 -6 -37 -4 -14 -2 -23 5 -23 7 0 10 4 7 9 -4
5 -1 11 4 13 8 2 8 11 1 28 -5 14 -10 18 -11 10z"/>
<path d="M2980 1190 c-9 -6 -10 -10 -3 -10 6 0 15 5 18 10 8 12 4 12 -15 0z"/>
<path d="M678 1173 c7 -3 16 -2 19 1 4 3 -2 6 -13 5 -11 0 -14 -3 -6 -6z"/>
<path d="M815 1170 c-3 -6 1 -7 9 -4 18 7 21 14 7 14 -6 0 -13 -4 -16 -10z"/>
<path d="M1961 1153 c-1 -18 3 -33 9 -33 14 0 44 -61 33 -69 -4 -3 -9 -16 -10
-28 -2 -18 2 -22 19 -20 12 2 24 10 26 18 3 11 2 12 -6 1 -7 -11 -10 -11 -15
2 -9 23 26 21 48 -4 10 -11 15 -28 12 -40 -3 -11 -1 -20 5 -20 5 0 2 -7 -7
-16 -23 -23 -39 -5 -26 29 6 15 7 27 3 27 -5 0 -13 -17 -18 -37 -7 -29 -14
-37 -28 -35 -11 2 -15 -1 -11 -7 3 -6 13 -11 22 -11 10 0 14 -6 10 -20 -3 -11
-1 -18 3 -15 5 3 11 1 14 -4 4 -5 2 -12 -4 -16 -5 -3 -10 -12 -10 -18 0 -7 7
-4 14 6 15 19 26 22 26 6 0 -6 6 -17 14 -24 12 -12 15 -12 20 0 3 8 -4 21 -17
30 -21 15 -20 16 6 19 6 0 12 7 11 14 -1 6 -2 20 -3 30 -1 12 -7 8 -21 -15
-21 -34 -34 -44 -24 -18 4 8 1 15 -5 15 -6 0 -11 5 -11 11 0 5 4 8 9 5 4 -3
17 2 29 12 15 14 19 27 17 62 -3 41 -34 132 -35 102 0 -7 7 -26 15 -42 9 -17
12 -30 7 -30 -14 0 -32 23 -32 42 0 11 -5 15 -14 12 -10 -4 -16 2 -18 18 -2
13 -10 23 -18 23 -8 0 -20 16 -27 35 l-12 35 0 -32z"/>
<path d="M620 1160 c-18 -12 -2 -12 25 0 13 6 15 9 5 9 -8 0 -22 -4 -30 -9z"/>
<path d="M976 1153 c-6 -14 -5 -15 5 -6 7 7 10 15 7 18 -3 3 -9 -2 -12 -12z"/>
<path d="M1112 1150 c0 -14 2 -19 5 -12 2 6 2 18 0 25 -3 6 -5 1 -5 -13z"/>
<path d="M1696 1155 c4 -8 8 -15 10 -15 2 0 4 7 4 15 0 8 -4 15 -10 15 -5 0
-7 -7 -4 -15z"/>
<path d="M2063 1152 c0 -10 9 -19 20 -19 18 -2 18 -1 2 18 -22 23 -24 24 -22
1z"/>
<path d="M2201 1168 c-1 -4 3 -18 9 -32 10 -26 30 -36 30 -14 0 6 -3 8 -7 4
-4 -3 -12 6 -19 21 -7 16 -13 25 -13 21z"/>
<path d="M2975 1160 c4 -6 11 -8 16 -5 14 9 11 15 -7 15 -8 0 -12 -5 -9 -10z"/>
<path d="M856 1146 c21 -15 30 -14 19 3 -3 6 -14 11 -23 11 -13 0 -13 -2 4
-14z"/>
<path d="M999 1143 c-13 -16 -12 -17 4 -4 9 7 17 15 17 17 0 8 -8 3 -21 -13z"/>
<path d="M1533 1149 c3 -9 1 -21 -5 -27 -6 -6 -7 -16 -2 -23 5 -9 10 -6 16 10
5 14 4 29 -3 39 -9 15 -10 15 -6 1z"/>
<path d="M1991 1148 c-1 -11 6 -16 18 -15 12 1 17 6 14 15 -4 10 -8 11 -13 2
-6 -9 -9 -9 -13 1 -4 10 -6 9 -6 -3z"/>
<path d="M709 1143 c-1 -4 -1 -12 0 -16 2 -14 -29 -19 -43 -7 -12 9 -17 7 -26
-10 -14 -26 13 -61 33 -41 8 8 7 11 -6 11 -10 0 -17 8 -17 20 0 20 0 20 35 0
19 -11 35 -17 35 -15 0 3 15 -2 33 -11 31 -16 32 -16 15 2 -12 14 -14 24 -7
37 6 9 15 14 21 11 7 -4 8 -2 4 4 -4 7 -2 12 5 12 7 0 10 2 7 5 -9 9 -59 -14
-53 -25 3 -5 3 -15 -1 -21 -4 -8 -9 -7 -15 2 -7 11 -9 11 -9 1 0 -7 -5 -10
-11 -7 -7 5 -5 13 6 25 11 12 13 20 6 25 -6 3 -12 3 -12 -2z"/>
<path d="M920 1139 c0 -5 -3 -8 -8 -5 -4 2 -16 -2 -27 -10 -16 -12 -13 -16 11
-13 4 0 11 -5 16 -13 8 -10 9 -10 5 2 -2 8 2 23 11 33 10 11 11 17 4 17 -7 0
-12 -5 -12 -11z"/>
<path d="M551 1124 c0 -11 3 -14 6 -6 3 7 2 16 -1 19 -3 4 -6 -2 -5 -13z"/>
<path d="M600 1131 c0 -6 4 -12 10 -16 5 -3 7 -13 4 -23 -4 -13 -3 -12 7 2 9
15 9 21 1 24 -7 2 -10 8 -6 13 3 5 0 9 -5 9 -6 0 -11 -4 -11 -9z"/>
<path d="M517 1117 c-3 -8 -2 -20 3 -26 5 -9 8 -4 8 13 0 29 -3 32 -11 13z"/>
<path d="M816 1119 c3 -5 0 -9 -5 -9 -6 0 -11 -4 -11 -10 0 -5 7 -7 15 -4 11
5 13 2 9 -10 -3 -9 -10 -16 -14 -16 -13 0 -30 26 -22 35 4 5 1 5 -6 1 -11 -6
-11 -11 0 -24 21 -28 32 -32 41 -16 10 17 27 9 27 -12 0 -10 -5 -12 -12 -8 -9
5 -9 2 1 -9 7 -9 16 -17 19 -17 3 0 3 3 -1 6 -3 3 -2 17 4 31 5 15 5 22 -1 18
-11 -7 -35 34 -25 43 3 4 11 0 16 -8 9 -13 10 -13 6 0 -2 8 -13 16 -25 16 -12
1 -19 -3 -16 -7z"/>
<path d="M2037 1115 c-4 -8 -2 -17 3 -20 6 -4 10 3 10 14 0 25 -6 27 -13 6z"/>
<path d="M966 1103 c-6 -14 -5 -15 5 -6 7 7 10 15 7 18 -3 3 -9 -2 -12 -12z"/>
<path d="M1330 1110 c0 -5 5 -10 10 -10 6 0 10 5 10 10 0 6 -4 10 -10 10 -5 0
-10 -4 -10 -10z"/>
<path d="M1360 1099 c0 -11 4 -18 10 -14 5 3 7 12 3 20 -7 21 -13 19 -13 -6z"/>
<path d="M1560 1116 c0 -2 7 -17 15 -32 15 -29 22 -13 9 20 -5 14 -24 23 -24
12z"/>
<path d="M2060 1116 c0 -2 7 -6 15 -10 8 -3 15 -1 15 4 0 6 -7 10 -15 10 -8 0
-15 -2 -15 -4z"/>
<path d="M563 1090 c-3 -11 -9 -20 -14 -20 -5 0 -9 -5 -9 -11 0 -18 27 8 33
31 3 11 3 20 0 20 -3 0 -7 -9 -10 -20z"/>
<path d="M587 1095 c-4 -8 -2 -17 3 -20 6 -4 10 3 10 14 0 25 -6 27 -13 6z"/>
<path d="M935 1099 c-4 -6 -5 -12 -2 -15 2 -3 7 2 10 11 7 17 1 20 -8 4z"/>
<path d="M1110 1101 c0 -5 5 -13 10 -16 6 -3 10 -2 10 4 0 5 -4 13 -10 16 -5
3 -10 2 -10 -4z"/>
<path d="M1159 1083 l-24 -28 28 24 c15 14 27 26 27 28 0 8 -8 1 -31 -24z"/>
<path d="M2106 1101 c-8 -13 12 -123 25 -135 9 -8 10 -7 4 3 -6 10 -4 12 5 6
10 -6 11 -3 6 16 -5 13 -8 36 -8 51 0 15 -4 26 -8 23 -4 -2 -5 7 -2 20 4 24
-11 35 -22 16z"/>
<path d="M2228 1075 c22 -31 30 -31 25 -2 -3 14 -12 23 -24 24 -18 2 -18 1 -1
-22z"/>
<path d="M1320 1082 c0 -5 7 -13 16 -16 10 -4 14 -1 12 6 -5 15 -28 23 -28 10z"/>
<path d="M687 1066 c-3 -7 0 -19 6 -26 9 -10 8 -12 -5 -7 -10 4 -18 2 -18 -3
0 -6 5 -10 10 -10 6 0 10 -5 10 -11 0 -6 -6 -9 -12 -6 -8 3 -14 -5 -14 -19 -2
-20 0 -21 12 -9 8 7 18 25 24 39 9 26 29 35 31 16 1 -5 3 -14 4 -20 1 -5 3
-15 4 -21 1 -8 5 -9 14 0 8 6 17 8 21 4 4 -4 4 1 0 11 -6 15 -4 17 7 11 8 -4
11 -5 7 0 -4 4 -2 15 5 23 10 13 9 14 -3 7 -8 -6 -19 -10 -25 -10 -5 0 -10 -5
-10 -12 0 -6 -3 -14 -6 -17 -11 -11 -6 29 5 44 9 13 9 13 -6 2 -14 -11 -18
-10 -27 5 -10 17 -10 17 -11 0 0 -10 -4 -16 -10 -12 -5 3 -7 12 -3 20 3 8 3
15 0 15 -3 0 -7 -6 -10 -14z"/>
<path d="M1216 1065 c4 -8 8 -15 10 -15 2 0 4 7 4 15 0 8 -4 15 -10 15 -5 0
-7 -7 -4 -15z"/>
<path d="M1245 1068 c-11 -37 -11 -76 1 -71 8 3 12 20 11 44 -1 40 -5 48 -12
27z"/>
<path d="M513 1055 c-3 -9 -3 -18 -1 -21 3 -3 8 4 11 16 6 23 -1 27 -10 5z"/>
<path d="M1167 1064 c-4 -4 -7 -14 -7 -23 0 -11 3 -12 11 -4 6 6 10 16 7 23
-2 6 -7 8 -11 4z"/>
<path d="M1272 1045 c2 -66 -2 -116 -11 -111 -5 3 -7 16 -4 27 4 16 2 20 -8
17 -8 -3 -13 -14 -12 -24 10 -89 19 -114 39 -114 8 0 13 3 12 8 0 4 2 15 7 25
5 11 3 23 -5 30 -10 9 -12 9 -7 -4 3 -9 1 -22 -4 -30 -8 -12 -10 -12 -19 1
-12 19 -13 33 -1 26 5 -3 8 2 7 12 -1 11 5 16 17 14 9 -2 17 1 17 6 0 5 11 7
24 5 26 -5 40 -28 29 -45 -3 -7 -1 -8 5 -4 8 5 12 -5 13 -31 1 -33 2 -35 8
-13 5 14 4 33 -1 43 -6 12 -5 23 3 33 8 10 8 14 0 14 -6 0 -11 -4 -11 -10 0
-5 -8 -2 -18 8 -10 9 -17 26 -16 37 1 11 3 24 3 28 1 5 6 5 12 2 6 -4 8 -13 5
-21 -3 -7 -1 -16 5 -20 20 -12 19 3 -1 49 -19 42 -37 53 -56 34 -4 -3 3 -4 16
-2 20 4 21 1 15 -23 -4 -15 -9 -35 -9 -44 -3 -22 -16 -36 -16 -17 0 12 -2 12
-10 -1 -5 -8 -12 -11 -16 -7 -4 4 -2 13 4 19 9 9 9 15 -1 27 -9 12 -9 13 0 7
10 -5 11 -1 4 17 -7 17 -6 29 2 37 9 10 9 11 0 6 -6 -3 -14 0 -17 6 -3 7 -5 0
-4 -17z"/>
<path d="M1361 1055 c0 -11 4 -27 9 -35 9 -13 10 -13 9 0 0 8 -4 24 -9 35 -9
20 -9 20 -9 0z"/>
<path d="M1962 1040 c0 -19 2 -27 5 -17 2 9 2 25 0 35 -3 9 -5 1 -5 -18z"/>
<path d="M2275 1047 c4 -19 2 -26 -5 -22 -15 9 -12 -18 6 -43 13 -19 17 -20
30 -8 8 8 14 19 14 25 0 15 -27 14 -34 -1 -3 -7 -4 1 -1 17 3 17 0 37 -6 45
-8 12 -9 9 -4 -13z"/>
<path d="M1192 1040 c-6 -10 -8 -21 -3 -24 5 -3 11 4 14 16 8 29 4 32 -11 8z"/>
<path d="M2155 1050 c3 -5 8 -10 11 -10 2 0 4 5 4 10 0 6 -5 10 -11 10 -5 0
-7 -4 -4 -10z"/>
<path d="M2209 1046 c9 -11 9 -16 0 -21 -8 -6 -7 -10 5 -17 9 -5 13 -14 9 -21
-4 -7 0 -6 10 2 16 12 16 15 0 42 -10 16 -21 29 -26 29 -5 0 -4 -6 2 -14z"/>
<path d="M2760 1045 c7 -9 15 -13 17 -11 7 7 -7 26 -19 26 -6 0 -6 -6 2 -15z"/>
<path d="M873 1029 c-2 -23 3 -25 10 -4 4 8 3 16 -1 19 -4 3 -9 -4 -9 -15z"/>
<path d="M1130 1030 c11 -7 11 -10 2 -10 -7 0 -10 -5 -6 -11 4 -8 9 -7 15 2 9
15 3 29 -14 29 -7 0 -6 -4 3 -10z"/>
<path d="M465 1019 c-4 -6 -5 -12 -2 -15 2 -3 7 2 10 11 7 17 1 20 -8 4z"/>
<path d="M630 1011 c0 -11 4 -22 9 -25 4 -3 6 6 3 19 -5 30 -12 33 -12 6z"/>
<path d="M2157 1024 c-3 -3 -1 -18 4 -32 7 -18 6 -28 -2 -36 -9 -8 -10 -7 -4
4 6 12 5 12 -5 4 -7 -8 -9 -21 -5 -35 7 -22 8 -22 21 -4 8 10 14 14 14 8 0 -7
-5 -15 -11 -18 -6 -4 -8 -13 -5 -20 2 -7 -1 -18 -7 -24 -6 -6 -8 -11 -4 -11 4
0 0 -14 -8 -31 -9 -17 -19 -28 -22 -25 -3 3 0 13 7 21 10 13 11 18 1 28 -10 9
-12 9 -11 -3 3 -22 -11 -60 -22 -60 -5 0 -3 -6 4 -14 9 -10 18 -11 31 -5 13 8
17 6 17 -11 0 -11 5 -20 10 -20 6 0 10 -8 10 -17 1 -17 1 -17 11 0 15 25 -23
67 -54 60 -19 -4 -20 -3 -5 6 11 8 25 8 43 1 25 -10 26 -9 11 12 -18 25 -21
53 -6 43 6 -3 10 -1 10 4 0 6 -5 11 -11 11 -5 0 -7 5 -4 11 4 6 20 0 42 -17
24 -18 52 -29 84 -32 45 -4 47 -3 42 17 -3 11 -9 21 -13 21 -5 0 -12 10 -16
23 -3 12 -16 41 -27 65 -15 34 -22 40 -33 31 -8 -6 -14 -17 -14 -23 0 -6 4 -5
9 3 13 20 26 7 41 -41 7 -24 17 -47 22 -52 4 -6 8 -16 8 -24 0 -12 -3 -12 -15
-2 -11 9 -15 9 -15 1 0 -19 -39 13 -61 48 -10 17 -27 56 -37 86 -11 30 -22 52
-25 49z"/>
<path d="M2712 1019 c2 -7 15 -14 28 -16 27 -4 25 -1 -9 17 -19 9 -22 9 -19
-1z"/>
<path d="M592 995 c1 -39 17 -95 28 -95 5 0 1 14 -7 31 -13 26 -13 33 -2 40
10 6 11 11 3 17 -6 4 -14 14 -17 22 -3 8 -5 2 -5 -15z"/>
<path d="M803 1005 c1 -11 9 -20 16 -20 8 0 17 -9 21 -20 6 -15 8 -12 7 13 0
18 -3 28 -7 22 -10 -17 -23 -14 -32 7 -7 16 -8 16 -5 -2z"/>
<path d="M1590 1010 c0 -6 -11 -28 -25 -50 -27 -43 -33 -85 -11 -93 8 -3 13 2
13 16 0 48 4 67 14 67 6 0 9 -7 5 -15 -3 -8 -1 -15 4 -15 13 0 13 27 0 35 -14
9 -12 26 2 23 7 -2 13 7 14 20 1 12 -3 22 -7 22 -5 0 -9 -5 -9 -10z"/>
<path d="M404 988 c0 -13 -4 -45 -7 -73 -6 -47 -6 -48 8 -25 7 14 11 35 8 48
-3 13 -1 22 6 22 20 0 23 -27 7 -58 -8 -16 -12 -32 -9 -36 8 -7 33 60 33 89 0
11 -9 28 -20 38 -25 21 -25 21 -26 -5z"/>
<path d="M554 990 c0 -9 5 -17 11 -17 6 0 11 8 11 17 0 9 -5 17 -11 17 -6 0
-11 -8 -11 -17z"/>
<path d="M1206 974 c-4 -20 -5 -38 -3 -40 3 -3 8 11 11 32 4 20 5 38 3 40 -3
3 -8 -11 -11 -32z"/>
<path d="M880 996 c0 -2 7 -9 15 -16 9 -7 15 -8 15 -2 0 5 -7 12 -15 16 -8 3
-15 4 -15 2z"/>
<path d="M1166 987 c3 -10 9 -15 12 -12 3 3 0 11 -7 18 -10 9 -11 8 -5 -6z"/>
<path d="M2879 968 c-3 -25 -1 -39 8 -42 7 -3 13 -18 13 -33 0 -20 3 -24 9
-14 10 16 3 51 -11 51 -5 0 -7 4 -4 8 3 5 2 22 -3 38 l-8 29 -4 -37z"/>
<path d="M501 974 c0 -11 3 -14 6 -6 3 7 2 16 -1 19 -3 4 -6 -2 -5 -13z"/>
<path d="M526 982 c-3 -5 -1 -22 4 -38 8 -29 8 -29 9 9 1 36 -3 45 -13 29z"/>
<path d="M1473 983 c-7 -2 -13 -12 -13 -21 0 -14 2 -14 9 -3 5 7 14 11 20 7 7
-5 9 -1 5 8 -3 9 -7 16 -8 15 0 0 -7 -3 -13 -6z"/>
<path d="M767 970 c8 -8 9 -18 3 -25 -5 -6 -5 -17 -1 -24 6 -9 10 -5 13 13 3
17 -1 30 -11 38 -13 10 -14 10 -4 -2z"/>
<path d="M681 957 c-1 -10 -5 -16 -10 -12 -6 3 -9 -4 -8 -15 1 -20 2 -20 14
-4 7 10 13 16 14 13 0 -2 2 -24 4 -49 3 -36 2 -40 -5 -20 -9 24 -9 24 -7 2 3
-36 20 -31 28 8 5 23 3 40 -5 50 -8 8 -16 22 -19 30 -4 12 -6 11 -6 -3z"/>
<path d="M1996 954 c-5 -14 -4 -15 9 -4 17 14 19 20 6 20 -5 0 -12 -7 -15 -16z"/>
<path d="M475 949 c-4 -6 -5 -12 -2 -15 2 -3 7 2 10 11 7 17 1 20 -8 4z"/>
<path d="M1150 951 c0 -6 4 -13 10 -16 6 -3 7 1 4 9 -7 18 -14 21 -14 7z"/>
<path d="M2113 939 c-1 -10 2 -19 8 -19 5 0 9 -9 9 -20 0 -11 5 -20 10 -20 14
0 12 12 -5 36 -8 12 -12 24 -9 27 3 3 1 7 -3 10 -5 3 -10 -3 -10 -14z"/>
<path d="M2311 929 c-1 -21 5 -42 14 -49 12 -10 14 -7 12 19 -1 17 -5 31 -9
31 -3 0 -9 8 -11 18 -3 9 -5 1 -6 -19z"/>
<path d="M721 943 c0 -5 4 -17 9 -28 8 -18 9 -17 9 8 1 15 -3 27 -9 27 -5 0
-10 -3 -9 -7z"/>
<path d="M941 933 c7 -12 15 -20 18 -17 3 2 -3 12 -13 22 -17 16 -18 16 -5 -5z"/>
<path d="M2245 941 c-3 -5 -2 -12 3 -15 5 -3 9 1 9 9 0 17 -3 19 -12 6z"/>
<path d="M556 931 c-4 -6 -2 -11 4 -11 7 0 10 -7 6 -15 -3 -8 -1 -15 4 -15 12
0 13 20 1 39 -6 9 -11 10 -15 2z"/>
<path d="M791 911 c-7 -16 -14 -37 -15 -47 -2 -11 -8 -19 -14 -19 -6 0 -14 -4
-19 -9 -5 -5 -3 -6 5 -2 15 9 16 -6 0 -22 -8 -8 -8 -15 0 -25 7 -8 9 -16 6
-20 -3 -3 -1 -14 6 -24 9 -16 10 -15 5 7 -6 24 -5 24 9 6 9 -11 16 -15 16 -10
0 6 -3 14 -7 18 -11 11 -14 48 -3 41 5 -3 10 2 10 12 0 15 2 16 10 3 5 -8 10
-11 10 -6 0 6 5 5 11 -1 17 -17 39 -4 38 21 0 21 0 21 -9 -2 -8 -19 -12 -21
-28 -11 -12 8 -18 20 -15 33 3 21 3 21 -6 0 -10 -24 -31 -41 -31 -26 0 5 3 12
8 16 7 8 8 13 11 42 1 14 3 15 19 3 15 -12 16 -12 4 2 -7 9 -10 24 -6 33 11
28 -3 17 -15 -13z m-28 -106 c-3 -9 -8 -14 -10 -11 -3 3 -2 9 2 15 9 16 15 13
8 -4z"/>
<path d="M852 915 c-9 -19 -9 -31 -2 -43 8 -13 10 -14 9 -2 -1 8 -1 24 0 35 1
19 2 19 19 -3 17 -21 18 -22 18 -3 0 11 -4 18 -8 15 -4 -2 -11 3 -16 11 -7 13
-10 12 -20 -10z"/>
<path d="M1040 931 c0 -6 4 -13 10 -16 6 -3 7 1 4 9 -7 18 -14 21 -14 7z"/>
<path d="M2671 931 c-7 -5 -10 -14 -6 -20 4 -7 1 -20 -6 -29 -7 -9 0 -5 16 10
19 18 26 31 20 37 -6 6 -16 7 -24 2z m19 -11 c0 -5 -5 -10 -11 -10 -5 0 -7 5
-4 10 3 6 8 10 11 10 2 0 4 -4 4 -10z"/>
<path d="M971 890 l1 -45 8 35 c5 20 5 39 -1 45 -5 5 -9 -8 -8 -35z"/>
<path d="M1178 907 c-3 -19 -2 -25 4 -19 6 6 8 18 6 28 -3 14 -5 12 -10 -9z"/>
<path d="M1402 926 c4 -5 3 -17 -3 -27 -5 -11 -6 -19 -2 -18 21 4 29 -3 30
-23 2 -22 1 -22 -12 -4 -13 18 -14 17 -21 -9 -4 -15 -2 -31 5 -38 19 -19 12
-31 -9 -12 -19 17 -19 17 -8 -16 6 -19 15 -42 19 -51 11 -22 11 -31 1 -24 -4
2 -9 -4 -9 -15 -1 -10 2 -19 8 -19 5 0 9 7 9 16 0 8 5 12 10 9 7 -4 7 -12 0
-25 -13 -25 -13 -70 1 -70 6 0 8 7 5 16 -3 9 -3 21 1 27 4 7 9 3 14 -9 6 -16
8 -15 8 9 1 15 -4 27 -9 27 -6 0 -6 7 1 18 14 22 39 25 39 5 0 -8 -4 -11 -10
-8 -5 3 -10 -1 -10 -9 0 -8 4 -17 9 -20 11 -7 23 37 15 58 -11 27 5 17 21 -14
17 -34 19 -44 5 -35 -5 3 -10 -4 -10 -15 0 -15 -5 -20 -14 -17 -11 4 -13 0
-11 -15 3 -12 9 -26 14 -31 7 -7 6 -17 0 -30 -7 -11 -7 -17 -1 -13 5 3 13 -9
17 -27 7 -31 7 -32 15 -7 4 14 2 31 -4 39 -6 8 -10 23 -8 34 2 11 -1 17 -7 13
-7 -5 -7 3 1 24 6 18 17 34 24 37 11 4 10 11 -3 36 -10 18 -16 35 -15 40 1 4
-1 6 -5 6 -22 -4 -25 2 -9 14 13 10 16 20 11 37 -6 17 -9 20 -16 9 -6 -10 -9
-7 -9 12 0 14 -11 36 -25 49 -13 12 -22 26 -20 30 3 4 -5 16 -18 26 -12 10
-19 15 -15 10z m63 -124 c-4 -15 -2 -21 5 -17 12 7 12 -22 0 -50 -6 -14 -9
-15 -10 -5 -3 30 -8 48 -19 67 -14 23 -14 2 0 -33 11 -31 4 -78 -11 -69 -17
11 -27 69 -16 88 8 13 8 20 -2 26 -8 5 -12 17 -10 27 4 17 6 16 16 -6 10 -22
11 -23 13 -5 1 11 2 27 1 35 0 9 7 5 19 -10 12 -16 17 -34 14 -48z m32 -34
c-3 -8 -6 -5 -6 6 -1 11 2 17 5 13 3 -3 4 -12 1 -19z"/>
<path d="M1440 828 c0 -9 5 -20 10 -23 13 -8 13 5 0 25 -8 13 -10 13 -10 -2z"/>
<path d="M1420 738 c0 -9 5 -20 10 -23 13 -8 13 5 0 25 -8 13 -10 13 -10 -2z"/>
<path d="M1505 920 c-3 -5 -1 -10 4 -10 6 0 11 5 11 10 0 6 -2 10 -4 10 -3 0
-8 -4 -11 -10z"/>
<path d="M641 913 c-1 -6 -4 -20 -7 -30 -5 -17 -5 -17 6 0 6 10 9 23 6 30 -3
9 -5 9 -5 0z"/>
<path d="M1308 860 c3 -40 -1 -66 -10 -77 -8 -10 -8 -14 -1 -10 19 12 23 -7
15 -77 -5 -36 -5 -66 0 -66 4 0 8 19 8 43 0 23 7 54 14 70 13 23 13 27 1 27
-8 0 -17 5 -21 12 -5 8 -2 9 9 5 20 -7 21 -3 7 24 -12 21 -1 26 18 7 9 -9 12
-8 12 5 0 9 -3 16 -7 16 -23 -4 -33 3 -33 22 0 11 5 17 10 14 6 -4 8 -10 6
-14 -3 -4 1 -8 9 -8 8 0 15 4 15 9 0 4 -4 8 -10 8 -5 0 -10 10 -10 23 0 18 -2
19 -10 7 -8 -13 -10 -12 -10 3 0 9 -3 17 -7 17 -5 0 -6 -27 -5 -60z"/>
<path d="M1151 903 c-1 -6 -4 -20 -7 -30 -5 -17 -5 -17 6 0 6 10 9 23 6 30 -3
9 -5 9 -5 0z"/>
<path d="M1206 885 c8 -37 14 -45 14 -19 0 10 -5 26 -10 34 -8 11 -9 7 -4 -15z"/>
<path d="M2257 903 c-4 -3 -7 -16 -6 -27 0 -19 1 -19 10 3 10 24 8 36 -4 24z"/>
<path d="M2585 900 c-3 -5 -2 -10 4 -10 5 0 13 5 16 10 3 6 2 10 -4 10 -5 0
-13 -4 -16 -10z"/>
<path d="M1970 858 c0 -49 5 -47 13 5 3 20 2 37 -4 37 -5 0 -9 -19 -9 -42z"/>
<path d="M2866 885 c-17 -17 -23 -50 -7 -41 15 10 21 -22 7 -36 -7 -7 -11 -19
-8 -27 2 -7 -1 -17 -8 -21 -7 -5 -8 -10 -2 -14 9 -5 18 13 36 67 3 10 11 16
18 12 7 -3 3 2 -9 11 -25 18 -30 40 -10 47 6 2 9 7 6 11 -4 4 -14 0 -23 -9z"/>
<path d="M597 849 c3 -57 10 -60 11 -4 1 25 -2 45 -6 45 -4 0 -7 -19 -5 -41z"/>
<path d="M2358 883 c6 -2 12 -9 12 -14 0 -6 -4 -7 -10 -4 -6 3 -7 -1 -4 -10 4
-9 13 -14 21 -11 11 4 11 1 3 -14 -6 -12 -21 -20 -35 -20 -34 0 -39 -15 -8
-29 23 -11 25 -10 14 3 -11 13 -10 15 8 11 14 -3 21 1 22 13 0 14 2 14 8 -2 5
-14 10 -16 15 -7 4 6 2 18 -4 26 -7 8 -10 15 -6 15 4 0 -1 11 -10 25 -9 14
-21 25 -28 24 -7 0 -6 -2 2 -6z"/>
<path d="M450 870 c0 -5 5 -10 11 -10 5 0 7 5 4 10 -3 6 -8 10 -11 10 -2 0 -4
-4 -4 -10z"/>
<path d="M2587 864 c3 -8 13 -14 22 -12 9 1 22 -1 29 -5 6 -5 12 -4 12 2 0 13
-18 24 -46 27 -16 1 -21 -2 -17 -12z"/>
<path d="M568 863 c6 -2 9 -10 6 -15 -4 -7 -2 -8 5 -4 13 9 5 26 -12 25 -9 0
-8 -2 1 -6z"/>
<path d="M826 857 c3 -10 9 -15 12 -12 3 3 0 11 -7 18 -10 9 -11 8 -5 -6z"/>
<path d="M387 816 c-27 -66 -49 -184 -38 -204 9 -14 11 -14 12 -2 1 8 1 21 0
28 -1 6 5 12 13 12 23 0 30 16 43 110 3 25 3 43 0 40 -3 -3 -7 -16 -9 -30 -1
-14 -7 -28 -12 -32 -5 -3 -9 -21 -10 -39 -1 -35 -22 -53 -22 -19 0 11 4 20 9
20 4 0 6 4 3 9 -6 10 13 71 41 133 2 4 0 9 -5 11 -4 3 -15 -14 -25 -37z"/>
<path d="M945 851 c-3 -5 -2 -12 3 -15 5 -3 9 1 9 9 0 17 -3 19 -12 6z"/>
<path d="M998 835 c-3 -13 0 -29 6 -34 8 -7 11 0 10 20 -1 38 -10 46 -16 14z"/>
<path d="M2526 835 c-10 -15 -12 -26 -6 -30 6 -3 10 0 10 9 0 10 9 13 33 11
17 -2 24 -1 14 2 -13 3 -15 8 -8 17 7 8 5 12 -9 13 -10 1 -26 -9 -34 -22z"/>
<path d="M431 840 c0 -8 4 -22 9 -30 12 -18 12 -2 0 25 -6 13 -9 15 -9 5z"/>
<path d="M472 820 c0 -19 2 -27 5 -17 2 9 2 25 0 35 -3 9 -5 1 -5 -18z"/>
<path d="M1060 820 c0 -16 4 -30 8 -30 5 0 7 14 4 30 -2 17 -6 30 -8 30 -2 0
-4 -13 -4 -30z"/>
<path d="M1564 835 c-4 -8 -1 -22 5 -29 7 -8 8 -17 3 -20 -5 -3 -9 -23 -8 -43
2 -21 0 -42 -3 -48 -9 -17 -10 -35 -1 -35 4 0 6 -10 3 -22 -3 -13 -3 -20 1
-16 4 3 9 25 11 48 2 23 8 47 14 53 8 8 6 16 -6 29 -11 13 -13 21 -5 31 6 7 7
18 2 26 -4 8 -6 20 -3 28 3 7 2 13 -1 13 -4 0 -9 -7 -12 -15z"/>
<path d="M1997 836 c-4 -10 -1 -16 8 -16 21 0 20 -79 -1 -94 -14 -10 -12 -17
11 -64 14 -29 30 -50 35 -47 5 3 13 -3 19 -12 9 -16 10 -16 11 5 0 12 1 25 3
29 1 4 -6 9 -15 11 -12 2 -18 -3 -18 -15 0 -13 -2 -15 -9 -5 -4 7 -6 48 -4 90
3 63 0 82 -15 105 -16 23 -21 25 -25 13z m23 -132 c0 -8 -4 -12 -10 -9 -5 3
-10 10 -10 16 0 5 5 9 10 9 6 0 10 -7 10 -16z"/>
<path d="M511 824 c0 -11 3 -14 6 -6 3 7 2 16 -1 19 -3 4 -6 -2 -5 -13z"/>
<path d="M637 803 c8 -50 17 -58 11 -12 -3 29 -1 36 11 31 9 -3 12 -1 7 6 -4
7 -13 12 -21 12 -10 0 -12 -10 -8 -37z"/>
<path d="M973 800 c0 -25 2 -35 4 -22 2 12 2 32 0 45 -2 12 -4 2 -4 -23z"/>
<path d="M1198 834 c-5 -4 -8 -19 -8 -33 1 -23 2 -24 11 -8 11 19 9 53 -3 41z"/>
<path d="M2424 825 c-4 -8 -4 -22 0 -30 6 -17 36 -21 36 -4 0 5 5 7 10 4 6 -3
10 2 10 11 0 16 -1 16 -18 1 -25 -23 -35 -21 -22 2 13 25 13 31 0 31 -6 0 -13
-7 -16 -15z"/>
<path d="M2486 825 c4 -8 8 -15 10 -15 2 0 4 7 4 15 0 8 -4 15 -10 15 -5 0 -7
-7 -4 -15z"/>
<path d="M2605 829 c-4 -6 -4 -13 -1 -16 3 -4 6 -1 6 6 0 7 5 9 10 6 6 -3 10
-1 10 4 0 14 -17 14 -25 0z"/>
<path d="M2639 813 c-17 -20 -23 -37 -21 -59 3 -27 6 -30 27 -26 22 4 24 9 24
58 -1 30 -2 54 -3 54 -1 0 -13 -12 -27 -27z m17 -48 c-3 -9 -11 -13 -16 -10
-8 5 -7 11 1 21 14 18 24 11 15 -11z"/>
<path d="M690 823 c0 -2 7 -11 15 -19 8 -9 15 -11 15 -5 0 6 1 14 3 18 1 3 -6
7 -15 9 -10 1 -18 0 -18 -3z"/>
<path d="M873 815 c-3 -9 -3 -18 -1 -21 3 -3 8 4 11 16 6 23 -1 27 -10 5z"/>
<path d="M2190 820 c-13 -8 -13 -10 2 -10 9 0 20 5 23 10 8 13 -5 13 -25 0z"/>
<path d="M1281 804 c0 -11 3 -14 6 -6 3 7 2 16 -1 19 -3 4 -6 -2 -5 -13z"/>
<path d="M2231 811 c-9 -6 -6 -8 13 -8 14 0 23 3 20 8 -7 11 -15 11 -33 0z"/>
<path d="M907 790 c-3 -11 -1 -23 4 -26 5 -3 9 6 9 20 0 31 -6 34 -13 6z"/>
<path d="M1231 793 c-1 -12 4 -25 9 -28 12 -7 12 2 0 30 -8 19 -9 19 -9 -2z"/>
<path d="M1990 795 c0 -8 4 -15 8 -15 5 0 9 7 9 15 0 8 -4 15 -9 15 -4 0 -8
-7 -8 -15z"/>
<path d="M847 793 c-11 -10 -8 -53 3 -53 6 0 9 14 8 30 -3 33 -2 33 -11 23z"/>
<path d="M2054 765 c0 -32 14 -51 17 -22 1 6 3 22 4 35 1 12 -3 22 -9 22 -6 0
-11 -16 -12 -35z"/>
<path d="M2570 790 c-9 -6 -10 -10 -3 -10 6 0 15 5 18 10 8 12 4 12 -15 0z"/>
<path d="M1356 773 c4 -10 8 -40 8 -68 1 -27 5 -61 10 -74 6 -16 4 -26 -5 -33
-11 -8 -11 -9 1 -5 16 4 28 67 13 67 -5 0 -8 25 -6 55 1 31 -3 55 -8 55 -6 0
-7 5 -4 10 3 6 1 10 -5 10 -8 0 -9 -6 -4 -17z"/>
<path d="M2265 779 c-4 -5 -11 -7 -16 -4 -5 4 -12 0 -15 -9 -3 -9 -12 -12 -21
-9 -11 4 -14 2 -9 -6 9 -15 46 -5 64 17 7 9 12 11 12 4 0 -7 7 -9 17 -5 13 5
15 2 10 -11 -4 -9 -3 -15 2 -12 5 3 22 -1 37 -9 26 -13 27 -15 7 -15 -29 0
-38 -16 -19 -35 21 -22 32 -18 12 4 -16 17 -15 19 16 26 45 10 71 10 86 1 8
-5 18 -1 26 9 13 18 62 17 59 -1 -1 -6 8 -10 20 -9 12 1 29 3 38 4 11 1 16 11
17 31 0 20 -3 28 -10 24 -6 -4 -21 -8 -32 -10 -12 -2 -32 -6 -46 -10 l-25 -7
25 21 c14 12 20 21 13 22 -6 0 -15 -4 -18 -10 -3 -5 -16 -10 -28 -11 -12 0
-16 -3 -9 -6 10 -4 9 -8 -5 -18 -16 -12 -20 -11 -35 8 l-17 22 6 -25 c6 -22 5
-23 -9 -12 -13 10 -18 10 -24 1 -5 -9 -10 -9 -18 2 -6 8 -18 14 -26 14 -8 -1
-22 4 -30 10 -24 19 -49 25 -55 14z m290 -29 c-3 -5 -12 -10 -18 -10 -7 0 -6
4 3 10 19 12 23 12 15 0z"/>
<path d="M661 773 c-1 -6 -4 -20 -7 -30 -5 -17 -5 -17 6 0 6 10 9 23 6 30 -3
9 -5 9 -5 0z"/>
<path d="M820 766 c0 -9 -4 -14 -10 -11 -5 3 -10 2 -10 -4 0 -5 4 -12 9 -16
11 -6 26 33 17 42 -3 4 -6 -1 -6 -11z"/>
<path d="M872 760 c0 -14 2 -19 5 -12 2 6 2 18 0 25 -3 6 -5 1 -5 -13z"/>
<path d="M1260 760 c-8 -15 -8 -18 3 -14 10 4 13 -9 13 -53 -1 -32 -5 -65 -10
-73 -9 -13 -8 -13 8 -1 13 11 16 27 15 73 -1 32 -6 61 -11 64 -4 3 -6 10 -3
15 4 5 4 9 1 9 -3 0 -10 -9 -16 -20z"/>
<path d="M510 755 c0 -8 4 -15 10 -15 5 0 7 7 4 15 -4 8 -8 15 -10 15 -2 0 -4
-7 -4 -15z"/>
<path d="M548 735 c2 -19 6 -35 8 -35 2 0 4 16 4 35 0 19 -4 35 -8 35 -4 0 -6
-16 -4 -35z"/>
<path d="M570 755 c0 -8 4 -15 10 -15 5 0 7 7 4 15 -4 8 -8 15 -10 15 -2 0 -4
-7 -4 -15z"/>
<path d="M1996 753 c-6 -14 -5 -15 5 -6 7 7 10 15 7 18 -3 3 -9 -2 -12 -12z"/>
<path d="M2090 761 c0 -6 4 -13 10 -16 6 -3 7 1 4 9 -7 18 -14 21 -14 7z"/>
<path d="M2787 763 c-9 -19 -1 -77 11 -79 7 -1 8 0 2 3 -18 9 -11 21 10 16 15
-4 19 -2 14 10 -3 9 -12 18 -20 21 -9 3 -12 11 -9 17 5 7 14 4 28 -8 l22 -18
-19 23 c-20 23 -32 28 -39 15z"/>
<path d="M486 743 c-6 -14 -5 -15 5 -6 7 7 10 15 7 18 -3 3 -9 -2 -12 -12z"/>
<path d="M691 750 c0 -8 4 -22 9 -30 12 -18 12 -2 0 25 -6 13 -9 15 -9 5z"/>
<path d="M943 745 c0 -8 4 -12 9 -9 5 3 6 10 3 15 -9 13 -12 11 -12 -6z"/>
<path d="M1013 700 c0 -36 2 -50 4 -32 2 17 2 47 0 65 -2 17 -4 3 -4 -33z"/>
<path d="M1110 748 c0 -9 -6 -19 -12 -21 -10 -4 -10 -6 0 -6 14 -1 28 26 18
36 -3 4 -6 -1 -6 -9z"/>
<path d="M621 740 c1 -8 5 -26 9 -40 l8 -25 1 25 c0 14 -4 32 -9 40 -9 13 -10
13 -9 0z"/>
<path d="M1201 734 c0 -11 3 -14 6 -6 3 7 2 16 -1 19 -3 4 -6 -2 -5 -13z"/>
<path d="M1048 710 c-2 -16 1 -31 7 -33 7 -3 9 7 7 29 -5 42 -8 43 -14 4z"/>
<path d="M1343 695 c0 -27 2 -38 4 -22 2 15 2 37 0 50 -2 12 -4 0 -4 -28z"/>
<path d="M2224 729 c-3 -5 4 -9 15 -9 13 0 21 -7 22 -17 1 -12 4 -10 9 7 4 14
8 20 9 14 1 -6 8 -11 16 -11 10 0 12 4 6 10 -12 12 -70 17 -77 6z"/>
<path d="M770 715 c-7 -9 -15 -13 -18 -10 -3 3 -14 -2 -24 -12 -17 -16 -17
-17 3 -31 11 -8 23 -11 26 -8 3 3 11 -1 17 -10 10 -13 12 -13 13 5 1 11 -3 20
-9 18 -6 -1 -12 3 -15 9 -7 19 46 9 63 -11 15 -19 15 -18 1 5 -9 14 -21 24
-27 22 -7 -2 -9 5 -5 18 7 24 -7 27 -25 5z m13 -10 c-3 -9 -8 -14 -10 -11 -3
3 -2 9 2 15 9 16 15 13 8 -4z m-29 -44 c-9 -10 -26 18 -18 30 5 9 9 8 14 -7 4
-10 6 -21 4 -23z"/>
<path d="M825 719 c-4 -6 -5 -12 -2 -15 2 -3 7 2 10 11 7 17 1 20 -8 4z"/>
<path d="M2125 720 c3 -5 8 -10 11 -10 2 0 4 5 4 10 0 6 -5 10 -11 10 -5 0 -7
-4 -4 -10z"/>
<path d="M2479 709 c-12 -22 2 -51 15 -30 8 12 33 4 60 -18 19 -16 19 -16 0
10 -11 15 -25 24 -33 21 -9 -3 -12 -1 -7 7 5 7 2 10 -6 9 -7 -2 -12 3 -10 10
3 19 -6 14 -19 -9z"/>
<path d="M847 713 c-4 -3 -7 -11 -7 -17 0 -6 5 -5 12 2 6 6 9 14 7 17 -3 3 -9
2 -12 -2z"/>
<path d="M951 704 c0 -11 3 -14 6 -6 3 7 2 16 -1 19 -3 4 -6 -2 -5 -13z"/>
<path d="M1589 698 c0 -13 -2 -35 -3 -50 -1 -16 1 -28 5 -28 12 0 27 -47 19
-60 -6 -10 -9 -8 -13 6 -4 18 -5 18 -6 -1 -1 -17 -3 -17 -11 -5 -7 11 -8 8 -6
-13 1 -15 6 -30 11 -35 4 -4 6 -2 2 3 -3 6 -2 17 4 25 6 11 9 9 9 -11 0 -15 7
-29 15 -33 9 -3 15 0 15 10 0 9 -5 12 -11 8 -9 -5 -10 1 -5 22 8 34 8 37 0 87
-3 20 -9 37 -13 37 -4 0 -6 14 -3 30 2 17 2 30 -2 30 -3 0 -6 -10 -7 -22z"/>
<path d="M2101 715 c0 -5 6 -19 14 -29 14 -19 12 -36 -5 -36 -5 0 -7 7 -4 15
4 8 1 22 -6 30 -17 21 -50 19 -49 -2 0 -11 3 -13 6 -5 2 6 8 12 13 12 10 0 31
-60 25 -70 -3 -5 -1 -11 4 -14 5 -3 11 3 14 14 7 26 35 36 58 22 10 -7 27 -12
38 -12 10 0 24 -7 31 -15 8 -9 17 -12 24 -6 6 4 24 8 39 7 16 -1 31 2 33 6 9
14 34 9 34 -7 0 -31 43 -94 80 -119 26 -17 37 -21 34 -11 -4 8 -12 15 -18 15
-8 0 -12 15 -11 43 1 46 -20 101 -36 92 -5 -4 -6 -12 -2 -18 4 -7 6 -22 5 -34
-2 -11 2 -24 7 -28 14 -8 14 -25 1 -25 -5 0 -12 17 -16 38 -4 20 -11 42 -16
49 -6 7 -6 19 1 31 10 18 8 19 -24 8 -19 -7 -38 -15 -41 -19 -4 -4 -13 -2 -21
4 -10 9 -13 8 -13 -2 0 -10 -3 -10 -12 -1 -17 17 -28 15 -28 -5 -1 -17 -2 -17
-14 0 -8 10 -23 17 -33 16 -22 -3 -99 35 -106 53 -3 7 -6 9 -6 3z m336 -127
c-3 -8 -6 -5 -6 6 -1 11 2 17 5 13 3 -3 4 -12 1 -19z"/>
<path d="M2395 700 c-16 -7 -17 -9 -3 -9 9 -1 20 4 23 9 7 11 7 11 -20 0z"/>
<path d="M2640 695 c-10 -12 -10 -15 3 -15 8 0 17 7 21 15 3 8 2 15 -3 15 -5
0 -14 -7 -21 -15z"/>
<path d="M2727 704 c-8 -8 1 -24 14 -24 5 0 9 7 9 15 0 15 -12 20 -23 9z"/>
<path d="M450 685 c0 -23 -1 -29 -12 -50 -8 -15 -8 -17 1 -9 13 12 26 74 17
74 -3 0 -6 -7 -6 -15z"/>
<path d="M1082 680 c0 -14 2 -19 5 -12 2 6 2 18 0 25 -3 6 -5 1 -5 -13z"/>
<path d="M2580 690 c0 -5 5 -10 10 -10 6 0 10 5 10 10 0 6 -4 10 -10 10 -5 0
-10 -4 -10 -10z"/>
<path d="M2611 689 c0 -9 -3 -32 -6 -50 -4 -29 -3 -30 4 -9 l9 25 1 -28 c1
-23 3 -26 15 -15 8 7 10 15 5 16 -5 2 -7 8 -3 13 3 5 1 9 -5 9 -5 0 -12 12
-14 28 -2 15 -5 20 -6 11z"/>
<path d="M982 670 c0 -14 2 -19 5 -12 2 6 2 18 0 25 -3 6 -5 1 -5 -13z"/>
<path d="M2700 681 c0 -17 12 -41 20 -41 10 0 1 38 -11 46 -5 3 -9 1 -9 -5z"/>
<path d="M952 660 c0 -14 2 -19 5 -12 2 6 2 18 0 25 -3 6 -5 1 -5 -13z"/>
<path d="M799 664 c-2 -29 -11 -60 -19 -68 -5 -5 -7 -1 -4 11 4 13 0 20 -10
20 -8 0 -13 -4 -10 -9 3 -5 3 -17 -1 -26 -4 -9 -9 -27 -11 -39 -2 -21 -2 -21
17 -2 10 10 19 24 19 29 0 6 4 10 10 10 5 0 13 12 16 27 7 25 8 25 15 8 5 -13
8 -15 8 -5 0 16 -29 60 -30 44z m-29 -84 c0 -5 -5 -10 -11 -10 -5 0 -7 5 -4
10 3 6 8 10 11 10 2 0 4 -4 4 -10z"/>
<path d="M871 663 c-1 -6 -4 -20 -7 -30 -5 -17 -5 -17 6 0 6 10 9 23 6 30 -3
9 -5 9 -5 0z"/>
<path d="M2500 666 c0 -2 7 -6 15 -10 8 -3 15 -1 15 4 0 6 -7 10 -15 10 -8 0
-15 -2 -15 -4z"/>
<path d="M2754 662 c3 -5 0 -13 -6 -15 -9 -4 -10 -6 -1 -6 17 -1 25 16 12 25
-7 4 -9 3 -5 -4z"/>
<path d="M1535 640 c3 -5 8 -38 10 -72 2 -34 0 -56 -4 -50 -10 16 -28 -72 -20
-95 5 -13 7 -9 7 13 -1 17 4 39 10 50 11 19 11 19 13 -1 1 -11 1 -24 0 -28 -1
-5 3 -6 9 -2 6 3 8 11 5 16 -14 22 -11 95 4 113 9 11 10 16 3 12 -8 -5 -14 2
-18 23 -4 17 -11 31 -16 31 -5 0 -6 -4 -3 -10z"/>
<path d="M2469 648 c-5 -24 -4 -80 3 -84 8 -5 13 29 8 51 -1 6 -3 16 -3 23 0
10 -6 17 -8 10z"/>
<path d="M2545 640 c7 -11 45 -20 45 -10 0 4 -11 10 -25 12 -13 3 -22 2 -20
-2z"/>
<path d="M2661 643 c0 -4 4 -17 9 -28 8 -19 9 -19 9 2 1 12 -3 25 -9 28 -5 3
-10 3 -9 -2z"/>
<path d="M726 623 c-6 -14 -5 -15 5 -6 7 7 10 15 7 18 -3 3 -9 -2 -12 -12z"/>
<path d="M1050 626 c0 -19 -16 -21 -23 -3 -3 6 -6 2 -6 -10 -1 -16 3 -20 19
-16 10 3 26 -2 35 -11 14 -14 14 -16 2 -16 -9 0 -17 6 -20 13 -2 6 -3 -5 -3
-25 1 -38 20 -59 30 -32 3 8 0 14 -7 14 -7 1 -5 6 6 14 19 14 23 36 7 36 -5 0
-10 5 -10 11 0 6 -7 17 -15 25 -13 14 -15 14 -15 0z"/>
<path d="M1081 623 c7 -10 15 -20 16 -22 2 -2 3 3 3 11 0 9 -7 19 -16 22 -15
6 -15 4 -3 -11z"/>
<path d="M1333 624 c-3 -8 -2 -19 3 -24 5 -5 9 1 9 16 0 28 -3 30 -12 8z"/>
<path d="M1515 620 c-3 -5 -2 -18 4 -27 7 -14 9 -12 8 10 -2 30 -3 31 -12 17z"/>
<path d="M1110 587 c0 -20 -4 -37 -9 -37 -5 0 -7 -9 -4 -20 7 -27 36 -21 38 8
1 12 -3 22 -8 22 -6 0 -5 5 1 13 7 8 6 18 -4 31 -13 18 -14 17 -14 -17z"/>
<path d="M1154 595 c-3 -14 -4 -34 -1 -45 3 -10 -1 -27 -8 -37 -9 -14 -9 -24
0 -47 l12 -29 7 42 c3 22 11 41 17 41 6 0 4 7 -5 15 -9 9 -13 28 -11 50 4 41
-2 46 -11 10z"/>
<path d="M1230 594 c-6 -14 -10 -32 -10 -40 0 -8 -4 -14 -10 -14 -5 0 -10 5
-10 11 0 5 -4 7 -10 4 -6 -4 -4 -16 6 -31 15 -22 15 -24 0 -18 -11 4 -16 1
-16 -12 0 -11 -3 -30 -6 -44 -4 -20 -3 -22 5 -10 10 13 11 13 11 0 1 -23 22
18 26 49 2 14 10 50 17 79 15 55 13 69 -3 26z"/>
<path d="M2284 606 c-7 -17 2 -36 18 -36 6 0 6 6 -2 15 -7 9 -10 19 -6 22 4 4
12 1 17 -7 9 -13 10 -13 7 -1 -6 21 -27 25 -34 7z"/>
<path d="M882 581 c-6 -17 -9 -31 -6 -31 7 0 25 52 20 57 -2 2 -8 -10 -14 -26z"/>
<path d="M986 594 c-8 -22 -4 -25 11 -9 7 8 9 16 4 19 -5 3 -12 -1 -15 -10z"/>
<path d="M1438 597 c-10 -8 -13 -18 -9 -26 6 -9 10 -7 14 9 4 14 10 19 18 14
8 -4 10 -3 5 4 -9 14 -7 14 -28 -1z"/>
<path d="M715 591 c-3 -5 -2 -12 3 -15 5 -3 9 1 9 9 0 17 -3 19 -12 6z"/>
<path d="M816 583 c3 -13 1 -23 -5 -23 -6 0 -11 -5 -11 -12 0 -9 3 -9 12 0 10
10 15 7 25 -10 9 -18 12 -19 13 -6 0 9 -4 20 -10 23 -5 3 -10 11 -10 17 0 6 7
5 17 -3 15 -13 15 -12 2 8 -8 14 -16 18 -20 11 -4 -7 -9 -6 -13 3 -3 8 -3 4 0
-8z"/>
<path d="M951 591 c-7 -5 -11 -15 -9 -22 3 -10 8 -7 17 9 13 24 12 26 -8 13z"/>
<path d="M2490 592 c0 -4 6 -14 13 -21 10 -11 9 -12 -2 -6 -11 6 -13 2 -7 -21
6 -27 5 -28 -9 -10 -8 11 -17 17 -20 14 -3 -2 3 -15 14 -26 15 -19 20 -20 30
-8 16 19 11 86 -6 86 -7 0 -13 -4 -13 -8z"/>
<path d="M1260 563 c0 -22 -2 -25 -10 -13 -8 11 -9 8 -6 -14 7 -42 12 -41 23
9 6 25 6 45 2 45 -5 0 -9 -12 -9 -27z"/>
<path d="M331 558 c0 -13 3 -17 6 -10 2 6 8 10 12 8 4 -3 8 1 8 9 0 8 -6 15
-14 15 -7 0 -13 -10 -12 -22z"/>
<path d="M899 557 c-7 -15 -15 -24 -20 -22 -4 3 -11 0 -15 -6 -4 -7 -3 -9 4
-5 6 3 13 2 17 -4 3 -5 1 -11 -4 -11 -6 -1 -16 -2 -23 -3 -6 0 -13 -8 -15 -16
-3 -10 -2 -11 4 -4 4 6 16 10 26 8 9 -1 17 2 17 7 0 20 2 25 16 47 9 13 13 26
10 29 -3 3 -11 -6 -17 -20z"/>
<path d="M1015 563 c-12 -29 -14 -63 -4 -63 5 0 9 -10 9 -22 0 -13 4 -29 8
-36 5 -7 7 18 5 55 -2 46 1 63 7 53 5 -8 10 -10 10 -4 0 6 -6 17 -14 23 -11 9
-15 8 -21 -6z"/>
<path d="M1285 558 c-2 -7 -6 -31 -9 -53 -2 -22 -2 -31 1 -21 4 14 7 15 13 6
4 -7 7 8 6 34 -1 47 -4 55 -11 34z"/>
<path d="M1310 565 c0 -6 9 -29 20 -50 11 -22 18 -46 15 -53 -3 -7 -1 -10 5
-7 5 3 14 -5 21 -17 7 -13 15 -25 18 -28 3 -3 11 -12 16 -21 6 -9 19 -28 29
-43 10 -15 19 -40 20 -55 1 -18 5 -27 14 -24 15 6 16 20 2 28 -6 4 -8 15 -5
26 4 11 0 26 -9 35 -9 8 -16 23 -16 31 0 9 -3 14 -6 10 -8 -7 -34 17 -34 32 0
5 -11 22 -25 37 -14 15 -25 32 -25 38 0 6 -9 25 -20 41 -11 17 -20 25 -20 20z"/>
<path d="M1453 538 c-1 -18 2 -26 4 -18 3 8 10 23 15 33 6 12 5 17 -5 17 -9 0
-14 -12 -14 -32z"/>
<path d="M970 550 c0 -6 -4 -9 -9 -6 -5 3 -11 -1 -15 -9 -3 -8 -2 -14 2 -14
19 3 20 -3 5 -20 -9 -11 -21 -17 -26 -14 -5 3 -3 9 4 14 10 6 10 9 2 9 -19 0
-24 -17 -8 -30 20 -17 19 -36 -2 -50 -17 -11 -17 -11 0 -6 9 3 18 0 19 -7 0
-7 2 -16 2 -22 1 -5 5 -16 9 -22 5 -7 4 -13 0 -13 -5 0 -9 -10 -10 -22 -2 -22
-1 -22 13 -4 16 23 19 14 4 -15 -8 -14 -7 -19 1 -19 9 0 9 -3 0 -14 -9 -11 -9
-15 1 -18 10 -4 10 -9 0 -29 -10 -21 -12 -21 -11 -4 1 11 0 23 -1 28 -1 4 -3
13 -4 20 -1 6 -8 11 -15 9 -8 -2 -11 3 -8 13 6 15 -4 21 -16 8 -4 -3 0 -14 9
-24 9 -10 14 -24 11 -31 -2 -8 3 -24 13 -36 l18 -21 12 29 c7 16 13 54 14 83
1 45 5 58 26 75 14 11 21 24 17 28 -4 5 -12 2 -17 -6 -11 -19 -22 -8 -14 14 3
9 10 13 15 10 14 -8 -2 49 -16 61 -18 15 -25 43 -12 48 8 2 8 5 -1 11 -7 4
-12 2 -12 -4z m30 -92 c0 -4 -4 -8 -9 -8 -4 0 -8 -14 -7 -32 0 -17 -5 -33 -12
-36 -7 -2 -12 5 -12 16 0 10 -3 22 -7 25 -3 4 -7 18 -8 31 0 20 3 23 16 15 14
-7 16 -5 12 14 -4 21 -4 22 11 3 9 -11 16 -23 16 -28z"/>
<path d="M1389 550 c-3 -29 -1 -47 10 -70 10 -23 11 -22 4 10 -3 19 -6 43 -5
53 1 18 -7 24 -9 7z"/>
<path d="M1633 544 c0 -8 4 -14 9 -14 5 0 6 -5 2 -12 -4 -7 -3 -8 4 -4 7 4 12
1 12 -8 0 -9 4 -16 8 -16 5 0 9 7 9 15 0 8 -4 15 -8 15 -5 0 -6 6 -3 14 3 8
-3 15 -14 18 -11 3 -19 0 -19 -8z"/>
<path d="M317 510 c-3 -11 -1 -18 4 -14 5 3 9 -2 9 -10 0 -9 -14 -23 -30 -31
-18 -9 -28 -20 -24 -27 5 -8 1 -9 -10 -5 -10 4 -15 3 -11 -3 3 -6 0 -10 -7
-10 -22 -1 -164 -143 -185 -185 -19 -38 -32 -92 -38 -160 -1 -20 3 -32 14 -37
9 -4 76 -7 149 -7 157 -1 181 7 206 70 19 46 7 78 -14 39 -6 -12 -9 -24 -6
-27 9 -9 -14 -44 -25 -38 -5 4 -11 0 -14 -7 -4 -10 -37 -12 -143 -11 -75 2
-139 3 -142 4 -3 1 -8 1 -12 0 -12 -2 -10 7 8 45 9 19 14 43 11 54 -3 11 0 23
5 27 7 4 8 1 3 -7 -5 -8 -4 -11 3 -6 6 4 9 13 5 21 -3 9 3 27 13 43 10 15 17
31 15 37 -1 5 1 7 5 3 10 -10 135 113 127 125 -3 6 -1 7 5 3 17 -10 90 45 102
78 5 16 10 35 10 42 0 22 -27 16 -33 -6z"/>
<path d="M1431 523 c-1 -6 -4 -20 -7 -30 -5 -17 -5 -17 6 0 6 10 9 23 6 30 -3
9 -5 9 -5 0z"/>
<path d="M1471 514 c0 -11 3 -14 6 -6 3 7 2 16 -1 19 -3 4 -6 -2 -5 -13z"/>
<path d="M570 496 c0 -2 7 -7 16 -10 8 -3 12 -2 9 4 -6 10 -25 14 -25 6z"/>
<path d="M1581 495 c0 -5 4 -18 8 -28 7 -18 7 -18 21 0 8 10 10 15 6 11 -5 -4
-15 0 -22 10 -7 9 -13 13 -13 7z"/>
<path d="M755 480 c-4 -6 -12 -7 -18 -4 -7 4 -9 4 -5 -1 4 -4 2 -15 -4 -24 -7
-9 0 -5 15 8 15 14 27 26 27 28 0 7 -9 3 -15 -7z"/>
<path d="M1630 460 c0 -17 30 -51 30 -34 0 5 4 2 10 -6 6 -10 8 -4 6 20 -2 28
-7 35 -24 36 -15 1 -22 -5 -22 -16z m36 -5 c-4 -24 -16 -30 -16 -7 0 12 4 22
9 22 5 0 8 -7 7 -15z"/>
<path d="M535 459 c-4 -6 -5 -12 -2 -15 2 -3 7 2 10 11 7 17 1 20 -8 4z"/>
<path d="M1290 456 c0 -9 5 -16 10 -16 6 0 10 4 10 9 0 6 -4 13 -10 16 -5 3
-10 -1 -10 -9z"/>
<path d="M1422 450 c0 -14 2 -19 5 -12 2 6 2 18 0 25 -3 6 -5 1 -5 -13z"/>
<path d="M751 446 c-9 -11 -9 -16 0 -22 7 -4 9 -3 5 4 -3 6 2 15 11 21 10 6
13 11 7 11 -6 0 -17 -6 -23 -14z"/>
<path d="M849 443 c-13 -17 -13 -17 6 -3 11 8 22 16 24 17 2 2 0 3 -6 3 -6 0
-17 -8 -24 -17z"/>
<path d="M1213 427 c-6 -20 -7 -37 -3 -37 5 0 11 6 13 13 2 6 3 0 1 -14 -2
-20 2 -28 17 -32 22 -6 18 -25 -16 -72 -12 -16 -27 -45 -33 -64 -16 -46 -16
-176 1 -189 17 -14 116 -22 347 -28 l195 -5 26 28 c27 30 49 92 49 139 0 23
-2 26 -10 14 -7 -10 -8 -1 -4 30 4 25 3 41 -2 37 -4 -4 -9 -31 -11 -60 -4 -76
-13 -120 -31 -139 -19 -23 -46 -24 -38 -2 3 9 6 18 6 20 0 3 4 3 9 0 5 -3 11
0 14 8 4 10 0 12 -14 9 -17 -5 -23 -17 -22 -50 1 -17 -24 -17 -30 0 -2 6 3 20
12 30 8 10 11 18 6 17 -6 -2 -16 -2 -24 -1 -11 1 -11 4 0 18 10 11 10 14 2 9
-7 -4 -13 -3 -13 3 0 5 6 12 13 14 9 4 9 6 -1 6 -10 1 -10 6 -2 22 7 12 18 18
26 15 11 -4 14 2 11 29 -3 20 0 38 4 41 5 3 10 -5 10 -18 1 -17 3 -18 6 -5 2
9 11 17 19 17 8 0 14 6 15 13 4 73 4 74 -13 69 -10 -2 -18 -9 -18 -14 0 -5 5
-6 10 -3 6 3 10 1 10 -4 0 -6 -7 -11 -15 -11 -9 0 -15 9 -14 23 0 45 -27 141
-32 107 -1 -8 -1 -18 -1 -21 1 -3 -11 -12 -26 -18 -22 -10 -25 -10 -14 0 6 7
12 20 11 29 0 12 -2 11 -7 -3 -7 -16 -9 -16 -31 -1 -18 13 -20 18 -10 25 18
11 4 23 -16 15 -17 -6 -15 -10 46 -84 9 -11 15 -10 30 7 23 24 31 26 28 9 -1
-7 0 -20 4 -28 3 -8 8 -33 12 -54 5 -30 9 -36 17 -25 7 10 9 10 6 1 -2 -8 -8
-14 -13 -14 -16 0 -35 -19 -29 -29 3 -5 -2 -19 -10 -30 -14 -20 -15 -18 -11
37 l4 59 -9 -50 c-5 -27 -10 -65 -12 -82 -1 -18 -3 -33 -5 -33 -1 0 -9 12 -17
28 l-15 27 5 -35 c4 -26 3 -31 -5 -20 -8 12 -10 9 -8 -15 3 -41 18 -57 35 -36
10 14 11 12 6 -13 -5 -19 -3 -27 3 -23 6 4 13 0 17 -8 7 -19 -8 -19 -27 0 -12
11 -16 12 -20 2 -5 -17 -269 -17 -274 1 -3 8 -28 12 -78 12 l-73 0 -7 31 c-5
23 -2 34 12 45 10 9 12 13 6 9 -32 -16 -5 113 33 158 13 16 24 27 24 25 0 -2
-6 -23 -14 -48 -7 -25 -11 -51 -9 -58 3 -7 -3 -22 -13 -33 -9 -10 -15 -21 -12
-24 3 -3 13 6 22 20 9 14 21 25 27 25 8 0 7 -5 -1 -15 -7 -8 -10 -21 -7 -29 3
-8 1 -17 -6 -19 -9 -3 -8 -9 3 -21 12 -12 22 -13 45 -7 17 5 22 10 13 10 -10
1 -18 6 -18 13 0 6 -7 3 -15 -8 -18 -24 -19 -10 -2 47 7 24 12 50 11 57 -1 6
-2 19 -3 28 0 8 -5 12 -11 9 -5 -3 -8 0 -6 7 13 41 16 69 7 63 -7 -3 -8 0 -5
9 4 9 -1 18 -10 22 -9 3 -16 16 -16 28 0 12 -4 26 -9 32 -5 5 -11 18 -13 29
-2 14 -6 10 -15 -18z m434 -339 c-16 -10 -21 -2 -13 19 6 15 9 15 16 3 6 -9 5
-17 -3 -22z"/>
<path d="M816 437 c3 -10 9 -15 12 -12 3 3 0 11 -7 18 -10 9 -11 8 -5 -6z"/>
<path d="M1559 423 c-7 -19 -7 -34 0 -48 11 -20 11 -20 6 1 -3 12 -1 33 4 48
6 14 8 26 6 26 -3 0 -10 -12 -16 -27z"/>
<path d="M455 430 c3 -5 8 -10 11 -10 2 0 4 5 4 10 0 6 -5 10 -11 10 -5 0 -7
-4 -4 -10z"/>
<path d="M858 423 c-2 -15 -6 -28 -8 -33 -6 -17 -7 -41 -2 -35 4 4 8 11 8 16
1 5 2 10 4 12 3 4 7 47 3 47 -2 0 -4 -3 -5 -7z"/>
<path d="M1340 415 c-2 -45 -3 -82 -1 -110 1 -16 -1 -52 -5 -80 -3 -32 0 -62
8 -82 13 -31 14 -32 27 -11 11 18 11 20 -3 15 -19 -8 -29 23 -22 73 3 19 5 42
5 50 1 13 2 13 11 0 8 -12 10 -9 10 13 0 16 -4 26 -10 22 -5 -3 -10 3 -10 15
0 12 5 18 10 15 6 -3 10 1 10 9 0 8 -4 17 -10 21 -5 3 -7 12 -4 20 3 7 1 22
-5 32 -9 17 -10 17 -11 -2z m15 -54 c3 -5 1 -12 -5 -16 -5 -3 -10 1 -10 9 0
18 6 21 15 7z"/>
<path d="M527 401 c-4 -17 -3 -21 5 -13 5 5 8 16 6 23 -3 8 -7 3 -11 -10z"/>
<path d="M704 412 c3 -6 0 -13 -6 -16 -7 -3 -3 -3 9 0 16 4 21 1 19 -13 -2
-10 -1 -12 1 -5 5 13 24 17 22 5 -3 -18 2 -33 10 -33 10 0 9 19 -2 37 -4 6 -4
13 0 16 5 2 2 2 -5 0 -7 -1 -23 2 -34 8 -12 7 -18 7 -14 1z"/>
<path d="M1321 404 c0 -11 3 -14 6 -6 3 7 2 16 -1 19 -3 4 -6 -2 -5 -13z"/>
<path d="M1482 400 c0 -14 2 -19 5 -12 2 6 2 18 0 25 -3 6 -5 1 -5 -13z"/>
<path d="M661 393 c7 -12 15 -20 18 -17 3 2 -3 12 -13 22 -17 16 -18 16 -5 -5z"/>
<path d="M914 368 c-1 -26 2 -35 7 -27 11 17 12 56 1 63 -4 2 -8 -14 -8 -36z"/>
<path d="M1450 390 c0 -5 5 -10 11 -10 5 0 7 5 4 10 -3 6 -8 10 -11 10 -2 0
-4 -4 -4 -10z"/>
<path d="M576 375 c-9 -26 -7 -32 5 -12 6 10 9 21 6 23 -2 3 -7 -2 -11 -11z"/>
<path d="M627 384 c-3 -5 1 -15 9 -22 16 -14 18 -5 5 17 -5 7 -11 9 -14 5z"/>
<path d="M875 379 c-4 -6 -4 -13 -1 -16 3 -4 6 -1 6 5 0 7 4 12 10 12 5 0 7
-8 4 -17 -5 -15 -4 -15 4 -3 11 15 7 30 -8 30 -5 0 -12 -5 -15 -11z"/>
<path d="M1307 369 c4 -13 8 -18 11 -10 2 7 -1 18 -6 23 -8 8 -9 4 -5 -13z"/>
<path d="M466 372 c-3 -5 1 -9 9 -9 8 0 12 4 9 9 -3 4 -7 8 -9 8 -2 0 -6 -4
-9 -8z"/>
<path d="M1588 373 c6 -2 12 -9 12 -14 0 -6 -4 -8 -9 -4 -5 3 -13 0 -17 -7 -4
-7 -4 -10 1 -6 4 4 14 3 20 -2 9 -8 15 -6 19 6 7 17 -9 34 -29 33 -5 0 -4 -3
3 -6z"/>
<path d="M370 361 c0 -6 4 -13 10 -16 6 -3 7 1 4 9 -7 18 -14 21 -14 7z"/>
<path d="M501 354 c0 -11 3 -14 6 -6 3 7 2 16 -1 19 -3 4 -6 -2 -5 -13z"/>
<path d="M1485 360 c-3 -5 1 -20 9 -32 9 -12 16 -17 16 -11 0 7 -5 15 -11 18
-6 4 -8 13 -5 21 6 16 0 19 -9 4z"/>
<path d="M1730 346 c0 -8 5 -18 10 -21 6 -3 10 3 10 14 0 12 -4 21 -10 21 -5
0 -10 -6 -10 -14z"/>
<path d="M585 328 c-14 -44 -14 -50 -1 -39 6 5 12 21 14 35 2 32 -3 33 -13 4z"/>
<path d="M693 334 c0 -7 4 -11 9 -8 4 3 8 0 8 -5 0 -6 5 -11 10 -11 16 0 12
14 -8 27 -15 9 -19 8 -19 -3z"/>
<path d="M1416 335 c4 -11 7 -32 8 -47 0 -16 4 -28 8 -28 4 0 4 -7 1 -17 -4
-10 -2 -14 4 -10 6 4 14 1 16 -5 4 -8 6 -7 6 4 1 9 -4 20 -9 23 -6 4 -8 10 -5
15 3 5 -4 26 -15 47 -12 21 -18 29 -14 18z"/>
<path d="M560 330 c0 -5 5 -10 10 -10 6 0 10 5 10 10 0 6 -4 10 -10 10 -5 0
-10 -4 -10 -10z"/>
<path d="M633 326 c-3 -5 -1 -6 5 -2 5 3 12 2 14 -3 1 -5 9 -3 15 4 10 11 9
13 -8 12 -11 -1 -23 -6 -26 -11z"/>
<path d="M814 325 c-3 -8 -4 -20 -2 -27 3 -7 7 -1 10 15 6 29 1 36 -8 12z"/>
<path d="M845 328 c3 -10 8 -25 11 -33 4 -11 2 -13 -9 -9 -8 3 -18 0 -23 -7
-5 -8 -3 -10 6 -4 10 6 12 4 7 -9 -4 -9 -3 -15 2 -12 7 5 21 -32 25 -68 2 -14
26 -20 26 -6 0 6 4 8 10 5 6 -4 7 1 3 11 -4 12 -3 15 5 10 15 -9 15 9 1 36 -9
17 -13 18 -20 7 -5 -8 -6 -22 -3 -31 3 -10 1 -18 -4 -18 -5 0 -12 12 -15 28
-4 20 -1 31 14 41 24 17 25 31 1 31 -11 0 -24 10 -31 23 -6 12 -9 14 -6 5z"/>
<path d="M878 333 c6 -2 9 -10 6 -15 -4 -7 -2 -8 5 -4 13 9 5 26 -12 25 -9 0
-8 -2 1 -6z"/>
<path d="M1387 320 c-3 -11 -1 -20 4 -20 5 0 9 9 9 20 0 11 -2 20 -4 20 -2 0
-6 -9 -9 -20z"/>
<path d="M1615 327 c-12 -15 -16 -47 -5 -47 4 0 13 14 19 30 10 31 4 39 -14
17z"/>
<path d="M1660 325 c-7 -9 -11 -18 -8 -20 3 -3 11 1 18 10 7 9 11 18 8 20 -3
3 -11 -1 -18 -10z"/>
<path d="M1557 301 c-3 -15 -2 -41 3 -57 7 -26 10 -25 14 5 0 5 4 13 9 17 4 4
7 21 6 38 l-1 31 -8 -33 c-11 -47 -23 -55 -15 -9 4 20 5 37 2 37 -2 0 -7 -13
-10 -29z"/>
<path d="M480 309 c0 -5 5 -7 10 -4 6 3 10 8 10 11 0 2 -4 4 -10 4 -5 0 -10
-5 -10 -11z"/>
<path d="M381 294 c0 -11 3 -14 6 -6 3 7 2 16 -1 19 -3 4 -6 -2 -5 -13z"/>
<path d="M552 290 c0 -14 2 -19 5 -12 2 6 2 18 0 25 -3 6 -5 1 -5 -13z"/>
<path d="M769 293 c-13 -16 -12 -17 4 -4 16 13 21 21 13 21 -2 0 -10 -8 -17
-17z"/>
<path d="M1296 293 c-9 -22 -4 -24 17 -8 14 10 15 14 3 18 -8 3 -17 -1 -20
-10z"/>
<path d="M1515 299 c-4 -5 -4 -13 -1 -16 3 -4 6 0 7 8 1 8 5 3 9 -11 7 -23 8
-23 9 -3 1 25 -14 39 -24 22z"/>
<path d="M351 284 c0 -11 3 -14 6 -6 3 7 2 16 -1 19 -3 4 -6 -2 -5 -13z"/>
<path d="M315 271 c5 -18 4 -22 -5 -16 -9 5 -11 4 -6 -4 6 -9 11 -9 22 0 8 7
11 15 7 18 -4 4 -12 11 -17 16 -5 6 -5 0 -1 -14z"/>
<path d="M596 282 c-2 -4 -1 -14 4 -22 7 -11 9 -9 7 8 -1 24 -3 26 -11 14z"/>
<path d="M1639 276 c4 -6 11 -18 14 -26 3 -8 5 -3 4 11 -1 14 -7 26 -14 26 -8
0 -9 -5 -4 -11z"/>
<path d="M474 263 c-12 -39 -28 -63 -40 -63 -16 0 -37 -37 -29 -50 12 -19 22
-10 19 18 -2 15 -1 19 2 10 6 -20 25 -25 20 -5 -1 6 -1 9 1 4 3 -4 10 -4 16 0
6 4 8 1 5 -9 -8 -21 11 -117 29 -144 8 -13 25 -24 36 -24 21 0 21 0 -1 16 -12
8 -22 25 -22 38 0 12 -4 26 -9 32 -5 5 -11 33 -12 61 -2 42 1 56 16 66 13 10
15 16 6 21 -6 4 -8 12 -5 18 5 7 2 8 -5 4 -7 -5 -10 -14 -7 -21 2 -7 -2 -16
-10 -19 -8 -3 -14 -4 -14 -3 0 1 4 17 9 35 10 33 5 46 -5 15z"/>
<path d="M710 271 c0 -7 -4 -10 -9 -7 -11 7 -8 -50 3 -61 5 -4 5 2 1 15 -4 14
-2 29 6 38 6 8 9 17 5 21 -3 3 -6 1 -6 -6z"/>
<path d="M1395 245 c4 -22 9 -48 12 -59 4 -14 2 -16 -8 -10 -11 6 -10 3 1 -12
8 -10 15 -21 17 -23 1 -1 7 0 13 4 8 5 8 11 1 19 -6 7 -13 33 -16 57 -3 24
-10 48 -16 54 -6 6 -8 -4 -4 -30z"/>
<path d="M1690 270 c0 -5 5 -10 11 -10 5 0 7 5 4 10 -3 6 -8 10 -11 10 -2 0
-4 -4 -4 -10z"/>
<path d="M1310 245 c0 -14 2 -25 4 -25 2 0 6 11 8 25 3 14 1 25 -3 25 -5 0 -9
-11 -9 -25z"/>
<path d="M581 244 c0 -11 3 -14 6 -6 3 7 2 16 -1 19 -3 4 -6 -2 -5 -13z"/>
<path d="M730 251 c0 -6 4 -13 10 -16 6 -3 7 1 4 9 -7 18 -14 21 -14 7z"/>
<path d="M1621 243 c6 -7 9 -19 6 -26 -3 -7 1 -24 8 -38 l14 -24 -4 30 c-2 17
-4 39 -4 51 -1 11 -8 21 -16 21 -11 0 -12 -4 -4 -14z"/>
<path d="M115 241 c-3 -5 -2 -12 3 -15 5 -3 9 1 9 9 0 17 -3 19 -12 6z"/>
<path d="M411 234 c0 -11 3 -14 6 -6 3 7 2 16 -1 19 -3 4 -6 -2 -5 -13z"/>
<path d="M827 218 c2 -13 9 -33 15 -45 6 -11 8 -27 5 -35 -3 -8 -8 -4 -15 12
-6 14 -11 18 -11 9 -1 -8 4 -20 11 -27 9 -9 9 -12 -1 -12 -7 0 -9 -5 -6 -11
15 -24 15 -66 0 -79 -8 -7 -59 -16 -118 -20 l-102 -7 103 -2 c136 -1 161 12
142 80 -7 22 -6 37 1 46 9 10 8 25 -1 58 -13 47 -32 73 -23 33z"/>
<path d="M1370 228 c0 -7 5 -20 10 -28 8 -12 10 -11 10 7 0 12 -4 25 -10 28
-5 3 -10 0 -10 -7z"/>
<path d="M1464 203 c-4 -21 -10 -45 -15 -55 -6 -11 -4 -18 6 -22 8 -3 15 -10
15 -16 0 -6 -5 -8 -12 -4 -7 5 -8 3 -3 -5 12 -21 38 12 40 52 2 19 6 45 10 58
6 21 4 21 -15 -6 l-21 -30 6 33 c4 17 4 32 1 32 -3 0 -8 -17 -12 -37z"/>
<path d="M193 214 c1 -11 -4 -18 -11 -16 -8 1 -11 -2 -7 -9 5 -8 12 -6 23 5
12 12 13 19 5 27 -8 8 -11 6 -10 -7z"/>
<path d="M306 215 c-3 -9 -6 -22 -5 -28 0 -7 5 -1 10 12 5 13 8 26 5 28 -2 2
-6 -3 -10 -12z"/>
<path d="M595 221 c-3 -5 -2 -12 3 -15 5 -3 9 1 9 9 0 17 -3 19 -12 6z"/>
<path d="M640 221 c0 -7 -5 -9 -12 -5 -7 5 -8 3 -3 -5 5 -9 10 -10 18 -2 6 6
8 14 4 18 -4 3 -7 1 -7 -6z"/>
<path d="M670 221 c0 -6 4 -13 10 -16 6 -3 7 1 4 9 -7 18 -14 21 -14 7z"/>
<path d="M780 220 c0 -5 5 -10 11 -10 5 0 7 5 4 10 -3 6 -8 10 -11 10 -2 0 -4
-4 -4 -10z"/>
<path d="M570 215 c0 -5 5 -17 10 -25 5 -8 10 -10 10 -5 0 6 -5 17 -10 25 -5
8 -10 11 -10 5z"/>
<path d="M1736 197 c-13 -13 -16 -28 -12 -48 6 -31 -13 -38 -25 -9 -4 8 -7 1
-6 -17 0 -18 4 -33 9 -33 5 0 7 4 3 9 -3 5 -1 12 5 16 5 3 10 -2 11 -12 0 -16
1 -16 9 2 5 11 9 14 9 8 1 -7 6 -13 12 -13 5 0 8 4 5 9 -3 4 -1 22 3 39 7 24
6 30 -4 26 -7 -3 -11 -14 -7 -26 3 -14 1 -19 -6 -14 -17 10 -15 36 5 58 22 25
13 30 -11 5z"/>
<path d="M101 194 c0 -11 3 -14 6 -6 3 7 2 16 -1 19 -3 4 -6 -2 -5 -13z"/>
<path d="M275 185 c0 -13 3 -21 8 -18 4 2 7 10 7 18 0 8 -3 16 -7 18 -5 3 -8
-5 -8 -18z"/>
<path d="M332 183 c-1 -14 -8 -33 -15 -42 -10 -14 -10 -14 4 -4 9 7 18 11 20
9 2 -3 4 9 3 25 -1 38 -9 46 -12 12z"/>
<path d="M926 201 c-4 -7 -5 -15 -2 -18 9 -9 19 4 14 18 -4 11 -6 11 -12 0z"/>
<path d="M1521 187 c-1 -45 16 -68 49 -65 37 3 40 18 4 18 -20 0 -24 4 -20 18
3 9 1 24 -5 32 -9 13 -10 12 -5 -2 8 -26 -3 -22 -14 5 -8 21 -9 21 -9 -6z"/>
<path d="M504 165 c0 -19 3 -35 7 -35 4 0 6 -8 5 -17 -2 -9 3 -28 11 -42 7
-15 13 -32 13 -38 0 -7 5 -13 10 -13 13 0 13 27 0 35 -6 4 -8 16 -4 27 4 13 2
18 -4 14 -5 -3 -12 5 -14 19 -3 13 -1 26 4 27 8 3 -12 58 -22 58 -3 0 -5 -16
-6 -35z"/>
<path d="M780 190 c-13 -8 -12 -10 3 -10 9 0 17 5 17 10 0 12 -1 12 -20 0z"/>
<path d="M375 179 c-4 -6 -5 -12 -2 -15 2 -3 7 2 10 11 7 17 1 20 -8 4z"/>
<path d="M630 166 c0 -31 6 -34 13 -6 3 11 1 23 -4 26 -5 3 -9 -6 -9 -20z"/>
<path d="M600 161 c0 -6 4 -13 10 -16 6 -3 7 1 4 9 -7 18 -14 21 -14 7z"/>
<path d="M671 154 c0 -11 3 -14 6 -6 3 7 2 16 -1 19 -3 4 -6 -2 -5 -13z"/>
<path d="M1590 160 c0 -5 5 -10 10 -10 6 0 10 5 10 10 0 6 -4 10 -10 10 -5 0
-10 -4 -10 -10z"/>
<path d="M153 145 c-3 -9 -3 -18 -1 -21 3 -3 8 4 11 16 6 23 -1 27 -10 5z"/>
<path d="M185 149 c-4 -6 -5 -12 -2 -15 2 -3 7 2 10 11 7 17 1 20 -8 4z"/>
<path d="M784 142 c-15 -10 -9 -66 9 -92 12 -17 16 -18 20 -6 4 9 1 15 -6 13
-7 -1 -12 10 -13 26 -1 15 -4 30 -7 34 -4 3 -2 12 4 20 13 14 10 17 -7 5z"/>
<path d="M266 132 c-2 -4 -1 -14 5 -22 7 -12 9 -10 9 8 0 23 -5 28 -14 14z"/>
<path d="M1386 119 c-17 -21 -22 -79 -6 -79 5 0 7 7 3 16 -7 18 16 66 28 58 4
-2 10 0 13 5 12 18 -22 19 -38 0z"/>
<path d="M610 115 c0 -8 4 -15 10 -15 5 0 7 7 4 15 -4 8 -8 15 -10 15 -2 0 -4
-7 -4 -15z"/>
<path d="M670 127 c0 -11 29 -67 36 -67 2 0 0 10 -7 21 -8 17 -8 23 2 30 7 4
18 5 24 2 5 -4 6 -2 2 2 -12 14 -37 15 -37 2 0 -7 -5 -5 -10 3 -5 8 -10 11
-10 7z"/>
<path d="M650 96 c0 -8 4 -17 9 -20 5 -4 7 3 4 14 -6 23 -13 26 -13 6z"/>
<path d="M736 78 l-18 -33 21 25 c18 22 26 40 18 40 -1 0 -11 -15 -21 -32z"/>
<path d="M1486 95 c-9 -26 -7 -32 5 -12 6 10 9 21 6 23 -2 3 -7 -2 -11 -11z"/>
<path d="M1507 96 c-9 -24 -9 -28 2 -21 5 3 12 1 16 -5 3 -5 2 -10 -4 -10 -6
0 -8 -7 -4 -15 8 -22 12 -15 18 31 4 25 3 34 -3 25 -8 -11 -10 -11 -14 0 -3 9
-6 8 -11 -5z"/>
<path d="M1553 95 c-6 -18 20 -51 48 -58 27 -7 12 12 -19 25 -16 6 -22 12 -14
15 15 6 16 33 2 33 -6 0 -13 -7 -17 -15z"/>
<path d="M1409 83 c-13 -16 -12 -17 4 -4 16 13 21 21 13 21 -2 0 -10 -8 -17
-17z"/>
<path d="M1590 84 c0 -8 5 -12 10 -9 6 3 10 10 10 16 0 5 -4 9 -10 9 -5 0 -10
-7 -10 -16z"/>
<path d="M756 45 c8 -19 14 -19 14 0 0 8 -4 15 -10 15 -5 0 -7 -7 -4 -15z"/>
</g>
</svg>
