<?xml version="1.0" standalone="no"?>
<!DOCTYPE svg PUBLIC "-//W3C//DTD SVG 20010904//EN"
 "http://www.w3.org/TR/2001/REC-SVG-20010904/DTD/svg10.dtd">
<svg version="1.0" xmlns="http://www.w3.org/2000/svg"
 width="300.000000pt" height="300.000000pt" viewBox="0 0 300.000000 300.000000"
 preserveAspectRatio="xMidYMid meet">
<metadata>
Created by potrace 1.10, written by Peter Selinger 2001-2011
</metadata>
<g transform="translate(0.000000,300.000000) scale(0.050000,-0.050000)"
fill="#000000" stroke="none">
<path d="M3398 5922 c-27 -20 -52 -36 -58 -35 -46 10 -160 -129 -180 -219 -16
-69 40 -157 100 -158 5 0 44 -17 86 -36 89 -43 204 -20 208 41 1 19 8 53 15
76 9 28 -2 57 -38 96 -28 30 -51 64 -51 75 0 11 -10 14 -22 7 -15 -9 -18 -48
-10 -110 8 -58 5 -101 -8 -109 -11 -7 -20 5 -20 27 0 21 -13 44 -29 50 -73 28
-103 115 -53 156 113 91 294 -25 287 -183 -1 -44 6 -80 16 -80 47 0 18 187
-44 288 -99 159 -124 173 -199 114z"/>
<path d="M2933 5481 c-120 -126 -150 -226 -83 -281 26 -21 30 -13 32 63 l3 87
15 -79 c27 -140 179 -216 303 -149 56 29 91 -6 44 -44 -22 -18 -29 -19 -20 -3
20 33 -8 31 -56 -6 -47 -35 -154 -38 -187 -5 -13 13 -24 17 -24 8 0 -8 -34 10
-75 41 -148 112 -189 116 -323 29 -26 -17 -61 -32 -77 -35 -171 -25 -437 -486
-344 -598 24 -29 8 -109 -22 -109 -11 0 -19 -14 -19 -31 0 -23 -9 -26 -37 -11
-20 11 -84 15 -142 8 -85 -9 -104 -6 -97 16 6 17 44 30 96 33 99 6 117 16 84
49 -60 60 -281 -11 -464 -149 -47 -36 -103 -75 -125 -88 -23 -13 -30 -28 -18
-35 11 -7 32 -1 46 15 14 15 42 23 61 18 20 -5 36 0 36 13 0 12 18 22 39 22
21 0 47 15 58 33 16 30 21 29 41 -10 30 -56 -32 -80 -434 -171 -170 -39 -176
-37 -194 66 -60 359 -549 323 -536 -39 10 -257 52 -285 443 -294 358 -8 450
17 751 204 172 108 146 105 299 32 162 -78 285 -195 246 -234 -6 -7 -28 16
-47 50 -26 45 -46 59 -72 51 -22 -7 -68 9 -114 39 l-77 51 -34 -53 c-20 -29
-52 -138 -72 -242 -68 -342 -128 -414 -320 -375 -53 10 -58 8 -37 -18 63 -76
323 -17 361 83 14 37 29 47 54 38 27 -10 30 -8 12 10 -15 15 -17 32 -5 46 10
13 35 45 55 71 24 32 48 44 70 36 96 -37 -61 -369 -202 -427 -77 -33 -104 -24
-66 22 31 37 -7 58 -83 48 -39 -6 -45 -17 -40 -72 10 -100 -53 -85 -145 36
-42 55 -99 118 -126 140 -45 35 -45 48 -1 42 8 -2 11 9 7 22 -4 14 -13 49 -19
78 -34 153 -362 267 -475 164 -92 -83 -178 -347 -97 -297 9 6 23 -8 30 -31 21
-66 186 -161 272 -156 61 4 83 -7 138 -70 65 -74 178 -144 280 -173 47 -13 55
-7 88 73 46 110 141 135 298 76 13 -5 46 29 72 76 72 126 240 295 292 295 25
0 56 14 70 30 14 17 36 30 50 30 50 0 67 48 29 87 -39 40 -85 -4 -65 -62 14
-38 -28 -30 -42 8 -15 39 38 104 107 130 37 14 43 24 23 36 -21 13 -20 26 8
68 19 29 25 53 13 53 -11 0 -26 -9 -33 -20 -7 -11 -26 -20 -43 -20 -24 0 -22
14 15 75 l45 75 -60 -55 -60 -56 -39 44 c-27 30 -31 45 -13 51 13 5 45 26 70
47 47 39 19 53 -42 21 -36 -19 -163 22 -163 53 0 9 29 28 65 43 51 21 57 29
29 36 -20 5 -58 -5 -84 -22 -66 -44 -91 1 -28 50 67 52 178 12 178 -63 0 -7
23 -9 52 -4 38 8 49 20 42 48 -6 20 -2 32 8 26 11 -7 17 -36 14 -66 -5 -45 1
-52 40 -48 39 4 42 -1 25 -34 -28 -51 -26 -66 4 -56 14 5 34 -18 47 -52 l21
-61 47 54 c46 52 120 74 120 35 0 -11 15 -14 33 -7 27 10 31 5 20 -24 -14 -36
-13 -36 23 -4 20 19 44 34 52 34 28 0 -211 -258 -250 -271 -41 -13 -89 -85
-70 -104 7 -7 33 8 58 32 26 23 61 43 79 43 18 0 38 9 46 21 9 14 21 14 40 -2
15 -12 43 -18 63 -14 28 7 23 12 -19 24 -70 19 -69 40 3 113 39 38 71 54 95
46 31 -10 32 -8 7 10 -26 19 -24 24 13 34 23 6 72 52 109 101 67 89 190 182
212 160 6 -6 -33 -60 -88 -120 -54 -60 -125 -160 -156 -222 -69 -136 -85 -149
-102 -82 -12 49 -88 76 -88 31 0 -11 13 -20 29 -20 48 0 53 -33 19 -119 -44
-110 -2 -190 224 -430 189 -201 222 -209 345 -79 85 91 66 113 -27 31 -103
-90 -134 -82 -299 82 -197 196 -264 374 -155 410 16 6 24 -17 24 -64 0 -142
80 -271 225 -363 92 -60 98 -60 198 4 59 37 86 45 97 28 21 -34 296 135 343
210 34 56 54 164 22 120 -23 -31 -85 -35 -117 -8 -39 32 -70 -1 -116 -125 -32
-89 -112 -188 -112 -140 0 13 24 69 53 124 61 117 60 329 -1 363 -18 10 -32
31 -32 46 0 16 -58 94 -128 174 -71 80 -125 149 -121 154 18 17 129 -46 158
-89 17 -26 84 -83 149 -127 65 -44 150 -118 189 -164 39 -45 93 -94 121 -109
l50 -26 -56 90 c-61 98 -209 229 -325 289 -69 35 -121 83 -83 76 75 -13 113 3
75 31 -22 17 -52 30 -69 30 -27 0 -27 -2 0 -19 51 -33 -21 -24 -80 10 -27 16
-77 29 -111 29 -34 1 -70 10 -81 21 -11 11 -69 29 -129 42 -190 38 -199 38
-199 -4 0 -22 -14 -38 -32 -38 -21 0 -28 11 -20 32 10 25 -2 30 -63 26 -84 -7
-92 24 -23 88 72 67 33 229 -55 229 -46 0 -49 -5 -37 -74 12 -74 12 -74 -49
-65 -33 4 -61 19 -62 31 0 13 -14 -1 -30 -31 -28 -52 -100 -91 -124 -67 -16
15 30 61 61 61 13 0 42 39 65 86 23 47 49 78 58 70 10 -9 11 1 4 21 -41 114
55 200 308 279 130 41 261 74 290 74 95 0 209 136 209 248 0 133 55 152 248
84 78 -27 167 -55 197 -61 61 -13 132 -110 176 -241 15 -44 48 -109 73 -144
25 -35 46 -73 46 -85 0 -42 -42 -20 -76 39 -19 33 -41 60 -50 60 -28 0 7 -88
50 -125 28 -24 32 -35 12 -35 -39 0 -76 41 -76 84 0 20 -5 36 -12 36 -32 0
-229 -175 -246 -219 -48 -130 -60 -216 -36 -268 11 -23 9 -46 -4 -59 -12 -12
-22 -56 -22 -97 0 -78 38 -95 230 -105 25 -1 42 -18 46 -46 6 -44 7 -44 68 -6
65 39 136 21 136 -36 0 -29 80 -14 101 19 31 48 301 65 298 19 -1 -28 -60 -88
-73 -74 -8 8 -2 22 14 32 24 15 24 20 -4 31 -21 8 -69 -12 -125 -51 -65 -44
-105 -59 -136 -50 -25 7 -35 5 -23 -4 13 -9 21 -66 19 -131 l-4 -115 43 40
c92 86 342 149 478 120 142 -30 217 -33 307 -11 96 24 87 -39 -45 -319 l-110
-232 -115 -53 c-63 -28 -130 -68 -147 -88 -46 -52 -71 -46 -101 23 -15 33 -34
60 -43 60 -9 0 -10 -10 -2 -23 15 -25 13 -24 -107 33 -91 43 -113 73 -40 55
40 -11 42 -8 18 21 -21 25 -49 31 -110 24 -46 -6 -72 -5 -58 2 27 12 35 50 10
45 -8 -2 -40 8 -71 23 -66 32 -244 -13 -302 -78 -29 -32 -20 -31 60 10 52 26
125 48 163 48 84 0 69 -31 -22 -46 -38 -6 -113 -43 -168 -82 -55 -40 -110 -72
-122 -72 -26 0 -19 77 9 97 10 7 49 51 85 98 36 46 92 100 124 119 33 19 59
46 59 60 0 58 -17 44 -286 -239 -70 -75 -111 -131 -91 -124 43 14 45 8 14 -60
-32 -69 -13 -80 65 -40 46 24 69 27 74 12 12 -37 44 -26 44 15 0 45 90 82 202
82 91 0 118 -32 60 -73 -24 -16 -38 -37 -33 -45 5 -9 -7 -34 -28 -57 -21 -22
-41 -70 -45 -106 -7 -72 -48 -103 -61 -45 -6 23 -9 18 -9 -14 0 -93 -6 -120
-26 -120 -11 0 -20 25 -20 55 -1 49 -5 45 -43 -35 -36 -79 -43 -85 -58 -50
-11 28 -17 31 -18 9 0 -17 -13 -47 -27 -67 -23 -32 -33 100 -17 242 2 15 29
22 72 19 55 -4 71 3 80 36 9 35 14 36 31 11 15 -23 19 -15 20 35 0 71 -37 87
-80 35 -15 -18 -41 -26 -62 -19 -65 20 -119 -24 -58 -48 32 -13 38 -21 17 -22
-19 0 -37 -10 -41 -22 -4 -12 -23 -7 -46 12 -40 32 -40 32 0 21 38 -12 39 -11
3 17 -22 17 -31 39 -22 55 12 21 10 21 -12 1 -38 -35 -69 -31 -39 5 22 26 20
29 -7 18 -54 -21 -7 -117 73 -146 37 -14 41 -30 36 -141 -6 -155 -30 -233 -52
-171 -8 22 -27 74 -42 115 -15 42 -28 102 -28 134 0 93 -78 98 -85 6 -3 -32
-12 -38 -43 -26 -55 20 -62 55 -16 70 44 14 116 86 101 101 -6 5 -27 -6 -48
-26 -66 -60 -194 -55 -319 13 -60 32 -110 52 -110 43 0 -34 172 -141 245 -153
81 -13 107 -68 30 -66 -82 1 -189 52 -288 135 -149 126 -296 173 -516 165 -44
-2 -73 4 -64 12 8 9 -19 27 -61 41 l-76 24 70 -11 c39 -6 75 -12 80 -13 6 0
51 6 100 14 68 11 119 4 207 -27 153 -53 119 -7 -50 69 -107 48 -140 53 -245
43 -113 -11 -118 -10 -72 17 57 33 156 37 265 12 41 -10 70 -10 65 -1 -28 45
-230 62 -331 29 -55 -19 -114 -29 -130 -22 -43 16 -36 -42 12 -110 43 -59 15
-86 -36 -35 -17 17 -35 15 -72 -9 -45 -30 -51 -29 -84 7 -19 21 -45 39 -57 38
-12 0 -6 -12 13 -27 43 -32 45 -52 5 -52 -41 0 -38 -19 12 -72 143 -152 -11
-488 -196 -426 -42 14 -102 23 -133 21 -52 -4 -56 1 -45 45 7 27 3 55 -8 62
-11 7 -20 23 -20 36 0 13 23 -5 52 -41 67 -85 175 -91 266 -13 71 59 84 118
23 98 -27 -8 -46 1 -63 34 -13 25 -45 62 -71 82 -93 73 18 108 140 44 40 -21
54 -22 48 -5 -39 118 -327 114 -389 -5 -39 -75 -45 -80 -35 -30 9 46 7 53 -9
30 -26 -37 -29 -114 -4 -129 10 -6 21 -42 26 -79 9 -81 -8 -78 -44 7 l-24 60
-78 -45 c-94 -54 -99 -66 -84 -193 19 -167 135 -199 548 -153 l153 17 51 -75
c29 -43 46 -89 39 -107 -13 -35 19 -16 91 52 33 30 14 67 -27 52 -37 -14 -37
14 0 64 48 63 39 92 -24 76 -50 -12 -52 -10 -28 20 25 29 22 33 -25 33 -73 0
-65 23 26 72 85 46 134 35 117 -27 -7 -30 0 -39 33 -37 58 3 65 77 14 160 -63
100 -106 236 -83 259 12 12 44 -35 91 -132 58 -122 78 -149 109 -141 69 18
134 -158 90 -244 -39 -73 13 -160 84 -142 26 7 70 18 97 24 37 9 50 5 50 -17
0 -41 -37 -68 -116 -85 -37 -7 -72 -27 -78 -43 -16 -43 5 -53 54 -27 24 13 48
18 55 12 19 -20 -39 -72 -80 -72 -52 0 -38 -147 18 -193 35 -27 34 -28 -13
-16 -27 7 -62 28 -77 46 -24 29 -26 28 -14 -12 9 -30 5 -45 -11 -45 -14 0 -4
-22 22 -50 26 -27 41 -50 33 -50 -8 0 -5 -18 7 -40 57 -106 -28 -23 -112 110
-52 83 -98 150 -101 150 -19 0 -64 -122 -72 -196 -10 -91 -34 -137 -37 -72 -1
29 -8 24 -27 -20 -15 -34 -31 -49 -39 -35 -14 22 52 198 102 272 30 45 35 123
8 140 -9 5 -22 29 -28 52 -9 34 -6 37 18 18 15 -13 28 -35 28 -49 0 -14 23
-40 51 -59 27 -18 46 -40 40 -49 -5 -9 3 -33 19 -54 26 -34 27 -31 10 31 -11
37 -28 77 -40 89 -55 55 29 157 122 147 73 -8 61 32 -27 93 -69 48 -78 61 -53
80 17 12 32 58 35 101 l5 80 -46 -42 c-25 -22 -62 -47 -81 -54 -63 -22 -12
-158 68 -184 49 -15 39 -50 -19 -71 -32 -12 -44 -9 -44 11 0 32 -69 60 -100
41 -11 -7 -15 -21 -9 -32 18 -28 -42 -79 -65 -56 -29 29 -63 -21 -76 -113 -21
-142 -21 -159 -1 -174 14 -10 11 -21 -7 -33 -16 -10 -23 -35 -17 -60 6 -23 5
-42 -2 -42 -7 0 -30 -37 -51 -81 -57 -117 -79 -130 -160 -91 -81 38 -113 29
-227 -63 -90 -72 -199 -241 -127 -196 10 6 11 -18 2 -57 -8 -37 -7 -80 2 -95
10 -15 18 -46 18 -69 1 -203 473 -70 511 145 13 71 113 207 153 207 9 0 28
-25 41 -55 14 -30 77 -117 140 -193 89 -107 116 -155 118 -210 7 -129 8 -138
31 -185 13 -26 41 -90 63 -141 69 -163 251 -226 396 -137 116 70 116 159 1
111 -149 -62 -313 19 -282 139 11 47 7 51 -50 51 -64 0 -117 73 -94 131 5 13
-1 34 -14 47 -16 16 -13 22 12 22 24 0 34 -17 34 -59 0 -55 43 -121 79 -121
30 0 43 174 20 264 -19 76 -16 104 20 197 22 60 41 138 41 174 0 86 52 85 120
0 45 -58 50 -81 51 -254 1 -237 21 -281 129 -281 42 0 83 9 90 20 17 27 70 25
70 -2 0 -12 23 -49 50 -82 28 -32 50 -74 50 -93 0 -19 13 -52 28 -74 52 -74
37 -326 -22 -406 -134 -177 -416 -218 -484 -70 -38 84 -142 -23 -142 -145 0
-77 722 -111 832 -39 108 71 136 297 78 621 -35 193 -35 190 -10 190 11 0 20
-12 20 -27 0 -33 102 -22 196 20 79 36 344 281 344 318 0 59 48 50 121 -22 87
-85 85 -86 111 11 12 42 44 86 81 111 l62 42 -88 46 c-48 26 -110 68 -138 94
-65 60 -69 59 -69 -14 0 -34 -8 -57 -17 -51 -10 6 -18 46 -18 90 0 77 -55 183
-124 236 -25 19 -41 14 -82 -25 -59 -56 -72 -60 -72 -21 0 16 21 40 46 54 26
14 47 36 47 50 0 13 6 40 13 58 8 22 -1 36 -30 44 -34 8 -43 26 -43 86 0 45
-13 86 -33 102 -29 25 -31 21 -18 -37 19 -88 -9 -81 -68 16 -65 105 -341 170
-341 80 0 -16 -111 -132 -191 -199 -99 -83 -322 54 -290 178 20 77 107 70 121
-10 15 -85 73 -86 181 -4 139 106 216 139 327 138 110 0 150 13 113 35 -17 11
-14 34 11 87 38 80 88 113 88 58 1 -29 3 -30 20 -4 15 23 19 14 20 -36 0 -36
14 -87 32 -114 18 -27 26 -65 19 -88 -8 -24 1 -62 22 -94 19 -29 35 -77 36
-106 1 -70 88 -75 113 -6 11 29 10 42 -2 34 -11 -7 -20 5 -20 25 0 54 -21 69
-56 40 -26 -22 -28 -15 -17 48 12 60 7 79 -24 101 -78 54 -97 342 -27 419 26
29 47 59 46 65 -7 44 5 31 18 -18 l15 -60 3 70 c1 41 22 95 50 130 l48 60 14
-117 c9 -69 26 -120 42 -127 15 -5 23 -18 17 -28 -19 -31 -86 -20 -107 17 -10
19 -25 29 -32 22 -19 -20 28 -85 80 -109 41 -20 49 -15 80 50 l34 72 38 -47
c39 -49 49 -85 23 -81 -83 12 -116 -36 -77 -111 27 -52 22 -131 -7 -131 -8 0
-14 -11 -14 -25 0 -14 -23 -61 -50 -105 -27 -44 -46 -96 -41 -117 9 -45 121
120 173 257 19 50 44 90 55 90 11 0 15 -13 9 -30 -7 -16 -5 -30 3 -30 8 0 25
-27 38 -59 41 -109 308 -198 357 -119 9 14 52 19 112 13 132 -13 176 19 144
104 -16 42 -17 57 -2 48 14 -9 17 -1 8 21 -7 20 -13 39 -13 44 0 4 -14 8 -31
8 -17 0 -26 9 -19 20 7 11 3 20 -9 20 -28 0 -27 -26 3 -56 19 -19 18 -24 -1
-24 -14 0 -23 -11 -22 -25 13 -99 -14 -113 -126 -65 -25 10 -35 5 -35 -18 0
-18 -7 -31 -15 -29 -8 2 -39 -3 -68 -11 -78 -22 -297 115 -297 186 0 38 35 24
46 -18 33 -126 350 -147 357 -24 4 75 4 86 -12 154 l-14 60 43 -50 c33 -37 41
-66 33 -115 -8 -48 -3 -65 18 -65 68 0 10 176 -103 313 -85 105 -87 105 -303
-100 -84 -78 -146 -127 -139 -106 8 20 14 40 14 45 0 4 11 8 25 8 14 0 43 38
66 85 22 47 61 95 85 107 40 20 42 25 14 48 -45 38 -10 63 97 70 307 19 584
298 643 648 11 66 21 79 74 90 100 20 187 86 237 180 l47 88 -96 112 c-110
130 -147 153 -202 131 -35 -14 -36 -16 -4 -18 40 -1 134 -87 134 -122 0 -15
-21 -17 -65 -7 -36 9 -104 13 -153 11 -76 -4 -85 -1 -74 31 10 24 -4 18 -42
-20 -36 -35 -48 -60 -34 -70 12 -8 27 -36 34 -64 l12 -50 -49 56 c-27 31 -49
72 -49 92 0 34 139 162 175 162 10 0 30 23 45 51 15 28 38 46 51 41 15 -5 21
4 15 26 -9 35 94 207 140 235 18 11 18 7 2 -14 -74 -98 -31 -89 71 15 107 109
161 193 99 155 -103 -64 -378 35 -378 136 0 12 16 7 35 -9 100 -88 182 -105
298 -63 34 13 34 10 -3 -33 -27 -32 -13 -26 45 20 119 94 110 176 -40 364 -82
101 -105 105 -205 36 -166 -114 -228 -253 -163 -366 60 -105 -17 -251 -237
-447 -128 -115 -156 -173 -108 -221 53 -53 12 -84 -67 -52 -82 33 -99 66 -34
66 23 0 36 9 29 20 -7 11 -33 20 -57 20 -127 0 -326 97 -270 132 14 8 18 5 10
-7 -7 -11 1 -26 17 -32 17 -7 30 -4 30 5 0 28 -47 53 -110 59 -34 3 -50 -2
-37 -11 13 -9 -18 -17 -72 -19 -52 -2 -123 -17 -157 -35 -118 -61 -144 -47
-132 73 22 236 32 273 87 347 31 42 52 88 47 102 -6 14 4 31 20 37 137 53 182
325 84 514 -131 253 -561 488 -601 327 -7 -28 -40 -75 -73 -102 -58 -49 -109
-68 -87 -32 6 10 -22 14 -65 8 -63 -8 -88 0 -144 47 l-68 57 47 -65 c82 -110
33 -91 -87 35 -141 147 -140 147 -279 1z m295 -66 c80 -77 103 -153 62 -207
-27 -36 -29 -36 -29 15 -1 59 -35 80 -102 62 -38 -9 -43 -5 -32 25 16 40 -1
110 -26 110 -30 0 -41 -62 -19 -103 24 -46 6 -153 -22 -125 -9 10 -20 32 -24
48 -3 17 -27 50 -52 75 -25 25 -39 45 -30 45 9 0 3 9 -12 19 -23 14 -14 27 40
59 98 60 166 54 246 -23z m642 20 c13 -13 2 -17 -36 -10 -40 7 -61 0 -75 -26
-44 -84 42 -95 121 -16 59 59 100 61 100 6 0 -17 19 -29 45 -29 102 -1 277
-263 273 -410 l-2 -80 -19 97 c-19 99 -102 253 -137 253 -11 0 -20 13 -20 30
0 39 -83 58 -191 43 -160 -22 -278 55 -205 133 46 49 103 53 146 9z m-1074
-352 c4 -14 -5 -18 -26 -10 -22 8 -36 0 -43 -27 -7 -28 -39 -46 -110 -63 -55
-13 -113 -36 -128 -51 -33 -33 -109 -19 -109 20 0 15 25 33 55 39 30 7 104 37
163 67 113 57 184 66 198 25z m2822 -214 c40 -45 62 -92 62 -130 0 -91 -37
-70 -46 26 -6 72 -10 78 -23 39 -21 -60 -53 -47 -94 37 l-33 69 -25 -55 c-28
-62 -74 -72 -93 -22 -42 109 162 138 252 36z m-1634 -273 c-59 -59 -110 53
-71 155 11 27 22 16 53 -49 28 -60 33 -91 18 -106z m1489 153 c7 -18 2 -42
-10 -54 -17 -17 -23 -14 -23 11 0 19 -9 34 -20 34 -11 0 -20 9 -20 20 0 32 60
23 73 -11z m-3057 -147 c7 -20 -3 -25 -33 -17 -48 13 -56 -4 -19 -41 26 -26
16 -30 -31 -12 -25 9 -26 21 -8 60 23 52 75 58 91 10z m1731 13 c-8 -14 -39
-57 -70 -95 -50 -63 -92 -227 -97 -380 -1 -26 -4 -26 -20 1 -23 41 8 265 43
314 85 116 184 227 144 160z m-308 -14 c43 -23 67 -75 42 -91 -10 -6 -37 17
-61 50 -45 63 -41 73 19 41z m31 -266 c-8 -36 -26 -78 -41 -93 -28 -29 -11 86
20 136 25 41 34 22 21 -43z m-2102 13 c41 -16 41 -40 0 -56 -42 -16 -69 2 -55
39 13 33 13 33 55 17z m-1000 -36 c58 -24 168 -143 149 -161 -4 -4 -46 -11
-94 -16 -47 -6 -96 -20 -109 -33 -31 -31 -54 -28 -54 8 0 17 -9 30 -20 30 -11
0 -20 10 -20 22 0 17 7 17 27 1 46 -39 96 16 77 84 -14 51 -18 54 -42 25 -15
-17 -35 -32 -44 -32 -32 0 -19 57 17 78 44 26 35 27 113 -6z m170 -43 c23 -39
42 -75 42 -79 0 -17 -95 88 -106 118 -23 60 22 32 64 -39z m1131 31 c111 -42
50 -113 -67 -78 -69 20 -89 18 -167 -19 -48 -24 -98 -43 -111 -43 -51 0 61 82
161 118 129 47 121 46 184 22z m946 -114 c4 -13 -12 -34 -35 -46 -50 -27 -100
3 -100 60 0 40 121 28 135 -14z m2139 -9 c57 -54 58 -77 6 -77 -22 0 -40 11
-40 23 0 13 -15 40 -33 60 -49 54 8 49 67 -6z m-2385 -78 c-16 -26 18 -24 44
2 15 15 25 13 33 -8 9 -22 -9 -33 -72 -44 -46 -8 -102 -26 -123 -42 -51 -35
-71 -34 -71 2 0 15 20 31 45 35 25 3 41 13 35 23 -5 9 12 28 40 43 51 27 89
21 69 -11z m-1159 -7 c-33 -14 -64 -26 -70 -27 -5 -1 -59 -21 -120 -45 -136
-54 -281 -72 -338 -41 -23 12 -42 15 -42 7 0 -9 -20 -29 -45 -43 -40 -24 -39
-21 8 27 38 39 76 56 140 61 48 3 168 24 267 46 217 48 286 53 200 15z m-630
-11 c0 -28 -59 -81 -91 -81 -16 0 -29 -8 -29 -17 0 -34 -172 -69 -218 -44 -55
29 -53 38 7 26 68 -13 247 51 272 97 21 39 59 52 59 19z m4129 0 c7 -11 -15
-34 -49 -51 -34 -17 -55 -41 -48 -53 7 -12 -2 -18 -23 -14 -20 4 -40 20 -45
35 -5 16 0 22 12 14 12 -7 42 9 68 36 51 55 68 61 85 33z m-1778 -124 c94 -83
170 -236 184 -372 13 -129 -5 -148 -125 -133 -122 15 -135 48 -19 50 l99 2
-70 20 c-112 32 -137 106 -45 129 l55 15 -49 12 c-41 9 -58 37 -94 151 l-45
139 -1 -145 c-1 -130 -5 -145 -40 -145 -22 0 -63 -11 -92 -24 -157 -72 -101
217 63 326 78 51 95 48 179 -25z m2097 -98 c76 0 79 -2 43 -30 -46 -34 -160
-38 -248 -7 -97 34 -78 66 30 51 51 -7 130 -13 175 -14z m-4322 -181 c26 -12
63 -48 82 -80 l35 -58 -87 1 c-47 1 -117 -7 -155 -19 -89 -28 -89 -27 -18 84
67 102 72 105 143 72z m2136 -79 c22 -76 20 -319 -1 -319 -11 0 -29 36 -41 80
-17 62 -31 80 -66 81 -44 0 -44 0 3 27 47 26 47 26 -38 68 l-86 43 88 39 c106
47 124 44 141 -19z m485 -166 c-100 -119 -157 -139 -97 -33 16 28 29 70 29 94
1 40 6 42 61 23 l60 -21 -53 -63z m-2498 49 c31 -50 -107 -87 -226 -61 -99 23
-121 15 -83 -31 36 -44 -8 -37 -48 8 -48 53 -17 68 168 83 83 7 156 14 164 16
7 2 19 -5 25 -15z m3651 -289 c0 -15 18 -43 40 -63 47 -43 51 -70 11 -70 -17
0 -45 28 -62 62 -28 55 -36 59 -62 34 -36 -36 -16 -94 40 -115 65 -24 -38 -81
-171 -95 -101 -10 -109 -8 -131 42 -18 39 -18 52 -1 52 13 0 41 16 63 35 22
19 34 25 27 12 -15 -25 27 -47 88 -47 40 0 53 49 18 70 -37 23 -21 52 45 80
82 36 95 36 95 3z m-497 -147 c-43 -17 -103 -182 -103 -286 0 -126 -33 -148
-36 -24 -3 154 74 328 144 322 12 0 10 -6 -5 -12z m-1813 -26 c7 -11 -7 -20
-31 -20 -37 0 -40 -5 -19 -30 30 -36 -1 -41 -36 -6 -28 28 -32 64 -5 47 10 -6
24 -3 31 9 16 26 44 26 60 0z m160 -80 c9 -42 25 -60 52 -60 22 0 44 -13 51
-30 9 -23 20 -25 51 -8 25 13 36 14 28 2 -6 -11 15 -30 48 -41 33 -12 66 -35
73 -53 7 -18 26 -27 46 -20 89 28 173 -290 97 -366 -43 -43 -53 -26 -79 126
-26 158 -56 165 -57 15 0 -59 -8 -85 -28 -85 -27 0 -92 133 -92 190 0 36 -33
40 -47 5 -15 -37 -52 23 -53 84 0 47 -1 47 -30 10 -35 -46 -69 -13 -70 67 0
26 -8 41 -18 35 -10 -6 -22 0 -27 14 -5 14 -26 25 -47 25 -52 0 -64 89 -16
124 60 44 104 31 118 -34z m1712 -40 c46 -44 76 -80 69 -80 -30 0 -170 111
-171 135 0 39 14 31 102 -55z m-2653 -5 c16 -36 45 -89 64 -119 53 -81 21 -88
-82 -17 -94 65 -117 127 -67 177 37 37 53 29 85 -41z m459 -49 c47 -98 39
-121 -18 -54 -27 32 -50 72 -50 89 0 17 -11 43 -25 57 -21 22 -18 22 18 1 24
-14 57 -56 75 -93z m1261 -215 c8 -71 8 -150 0 -174 l-14 -44 -27 49 c-26 46
-27 45 -27 -36 -1 -109 -34 -127 -71 -38 -44 105 -41 312 5 312 20 0 47 18 61
41 38 62 58 33 73 -110z m962 87 c6 -9 -1 -34 -14 -56 -30 -47 -108 -20 -89
31 7 16 3 24 -8 17 -21 -13 -28 15 -10 34 15 14 108 -5 121 -26z m-1151 -197
c0 -185 -24 -267 -75 -257 -26 5 -34 24 -30 77 3 38 7 119 11 179 12 230 94
231 94 1z m1406 92 c73 -31 89 -193 20 -193 -18 0 -26 12 -19 29 6 17 1 58
-11 93 l-22 64 -29 -56 c-23 -44 -24 -64 -5 -100 18 -33 19 -56 3 -83 -17 -29
-22 -31 -22 -6 -1 18 -37 52 -81 77 -119 66 -73 163 96 201 3 0 35 -11 70 -26z
m-2895 -62 c41 -31 36 -34 -62 -40 -33 -2 -74 -11 -90 -20 -16 -10 -7 7 19 36
56 61 79 65 133 24z m1163 -346 c-2 -30 -17 -67 -34 -81 -23 -20 -24 -29 -5
-37 14 -6 25 -30 25 -55 0 -42 91 -188 111 -177 34 19 88 -2 100 -38 10 -33
17 -36 30 -15 28 45 62 -7 74 -113 8 -69 4 -91 -12 -81 -13 8 -23 26 -23 41 0
75 -60 74 -62 -2 l-2 -77 -43 96 c-38 84 -49 95 -94 86 -44 -8 -50 -2 -50 44
1 29 -10 54 -22 54 -13 0 -30 7 -39 15 -28 28 -67 16 -54 -17 10 -27 5 -29
-28 -11 -48 26 -66 12 -66 -48 0 -53 44 -94 84 -79 28 11 136 -58 136 -87 0
-21 -84 -16 -119 6 -23 15 -22 21 10 33 36 14 35 15 -6 17 -31 1 -45 -11 -45
-37 0 -48 51 -90 91 -74 18 6 50 2 71 -9 134 -72 374 -23 380 77 1 21 7 15 16
-15 17 -60 48 -72 88 -32 35 35 74 41 74 11 0 -11 16 -19 35 -18 21 1 25 5 10
11 -14 6 -20 18 -14 28 14 23 -40 150 -72 170 -19 12 -22 -2 -13 -58 6 -40 3
-77 -7 -84 -11 -6 -19 17 -19 51 0 34 -8 57 -19 51 -22 -14 -49 61 -31 89 16
26 90 26 90 0 0 -11 7 -19 15 -18 48 8 67 -13 94 -106 49 -163 44 -183 -39
-167 -86 16 -89 2 -10 -39 33 -17 60 -40 60 -50 0 -21 -127 -2 -136 21 -3 8
-23 10 -45 5 -27 -7 -39 -1 -39 22 0 36 -31 43 -51 11 -7 -11 -30 -15 -51 -8
-26 8 -38 2 -38 -19 0 -38 -104 -69 -116 -35 -4 13 -16 18 -26 12 -11 -7 -17
-5 -13 5 3 9 -4 18 -15 20 -11 2 -17 -10 -14 -27 15 -71 -11 -91 -76 -57 -33
17 -60 40 -60 51 0 11 -31 39 -70 62 -39 23 -70 57 -70 77 0 25 -20 41 -60 50
-33 7 -60 20 -60 29 0 8 -22 13 -50 10 -54 -6 -63 10 -27 46 18 18 17 30 -1
52 -20 24 -16 32 19 43 35 11 41 25 33 77 -12 79 159 323 226 323 9 0 23 7 32
15 29 30 45 14 42 -40z m706 -85 c26 -17 26 -19 -3 -20 -126 -1 -306 -192
-289 -305 7 -47 6 -76 -3 -65 -8 11 -28 20 -45 20 -22 0 -30 23 -30 90 0 56 9
90 24 90 13 0 56 38 96 85 40 46 101 93 136 103 84 24 80 24 114 2z m116 -117
c65 -42 113 -283 62 -314 -29 -18 -21 -69 11 -69 31 0 71 -59 71 -104 -1 -19
-6 -18 -20 4 -11 17 -20 21 -20 9 0 -36 62 -110 82 -98 27 17 2 -84 -44 -176
-55 -110 -145 -202 -259 -263 l-99 -55 -20 53 c-11 29 -20 73 -20 98 0 24 -18
64 -40 88 -47 50 -36 144 16 144 39 0 163 83 164 110 1 11 28 46 61 78 58 58
74 92 43 92 -9 0 -25 -8 -35 -18 -12 -12 -29 -8 -45 10 -21 23 -20 28 5 28 17
0 31 9 31 20 0 11 -8 20 -18 20 -11 0 -25 27 -32 59 -7 33 -37 77 -66 99 -49
35 -50 41 -18 53 46 18 154 -81 154 -141 0 -90 48 -118 72 -41 12 38 14 65 5
59 -9 -6 -17 10 -17 36 -1 80 -23 134 -60 146 -24 8 -32 24 -26 51 12 43 23
47 62 22z m-1416 -223 c-17 -11 -18 -19 -2 -29 31 -19 27 -51 -6 -51 -15 0
-33 15 -40 33 -15 38 24 92 52 74 13 -7 11 -18 -4 -27z m-22 -135 c34 -19 62
-46 62 -60 0 -41 -67 -28 -115 23 -75 80 -51 96 53 37z m-218 -34 c0 -48 -46
-111 -81 -111 -11 0 -19 -26 -19 -59 0 -79 -27 -90 -89 -36 -50 44 -55 146 -6
130 11 -4 49 23 85 59 78 78 110 83 110 17z m346 -56 c30 -119 67 -197 100
-207 38 -12 29 -38 -12 -38 -13 0 -26 -18 -30 -40 -5 -32 -2 -34 14 -11 11 17
26 24 34 16 7 -8 4 -26 -7 -40 -11 -14 -18 -59 -15 -100 7 -83 -6 -93 -51 -40
-30 36 -31 181 0 212 18 18 -61 113 -94 113 -11 0 -31 14 -45 30 -14 17 -42
30 -62 30 -21 0 -38 10 -38 22 0 13 23 16 65 7 36 -7 74 -15 85 -16 11 -2 20
22 19 52 -1 66 22 72 37 10z m886 -146 c-37 -27 -139 -29 -164 -3 -7 7 13 18
45 24 31 7 71 20 87 29 48 27 76 -17 32 -50z m-1590 11 c26 -22 75 -62 108
-89 40 -32 53 -55 40 -68 -24 -24 -196 93 -230 156 -29 55 16 55 82 1z m-26
-96 c76 -58 74 -86 -7 -107 -103 -28 -175 51 -137 150 14 37 53 25 144 -43z
m1362 -87 c22 -64 30 -152 12 -134 -5 6 -23 52 -38 104 -31 103 -9 130 26 30z
m172 -37 c14 0 40 20 58 45 31 43 32 41 19 -53 -8 -62 -5 -93 7 -85 11 6 32
-13 46 -43 42 -87 44 -124 5 -124 -30 1 -31 3 -5 20 25 16 25 19 2 20 -16 0
-23 6 -16 12 16 17 -94 108 -130 108 -45 0 -109 84 -112 148 l-4 57 53 -52
c29 -29 64 -53 77 -53z m150 -960 c24 -44 17 -49 -85 -66 -30 -4 -55 0 -55 10
0 10 -11 12 -25 5 -14 -7 2 10 35 38 73 63 102 65 130 13z"/>
<path d="M2794 2026 c-9 -13 -30 -19 -47 -12 -27 10 -30 -2 -22 -81 9 -96 33
-143 50 -98 5 14 20 38 35 52 18 18 22 49 12 95 -8 41 -19 58 -28 44z"/>
<path d="M4061 3941 c-23 -14 -23 -24 -4 -47 34 -41 103 -58 89 -22 -5 16 -18
28 -27 28 -9 0 -19 13 -23 29 -4 21 -15 24 -35 12z"/>
<path d="M3740 3931 c0 -5 23 -34 52 -65 80 -87 208 -263 208 -285 0 -22 65
-29 85 -9 7 7 -30 49 -81 93 -52 45 -123 125 -160 178 -55 81 -104 123 -104
88z"/>
<path d="M4040 3710 c62 -63 93 -82 104 -65 25 40 18 75 -14 75 -16 0 -30 13
-30 28 0 31 -42 52 -106 52 -36 0 -30 -13 46 -90z"/>
<path d="M3647 3692 c7 -19 13 -43 13 -51 0 -9 32 -20 70 -25 39 -4 70 -1 70
8 0 9 -29 17 -65 18 -36 2 -49 7 -30 12 36 9 49 46 17 46 -10 0 -35 6 -54 13
-27 11 -32 6 -21 -21z"/>
<path d="M2665 3566 c-74 -27 -2 -152 157 -272 155 -117 195 -122 76 -10 -119
113 -186 206 -169 234 14 24 -33 59 -64 48z"/>
<path d="M4131 3554 c9 -23 3 -34 -19 -34 -58 0 -34 -37 33 -49 94 -19 211
-72 222 -101 7 -17 -4 -22 -33 -16 -24 5 10 -23 76 -62 139 -82 186 -93 135
-29 -169 208 -295 315 -330 280 -17 -17 -32 -14 -60 11 -34 32 -36 32 -24 0z"/>
<path d="M2511 3524 c-29 -29 -4 -79 57 -111 78 -42 241 -206 186 -186 -22 8
-31 5 -23 -8 7 -12 23 -18 35 -14 12 4 44 -18 70 -49 26 -31 59 -56 74 -56 14
0 31 -14 38 -31 7 -20 25 -27 49 -20 22 7 48 -1 63 -19 14 -16 34 -30 46 -30
36 0 -53 83 -135 125 -43 22 -162 123 -264 225 -102 101 -191 180 -196 174z"/>
<path d="M2317 3421 c-54 -46 -47 -49 40 -19 35 12 58 30 52 40 -17 27 -40 22
-92 -21z"/>
<path d="M3448 3050 c-97 -108 -80 -121 21 -17 60 61 88 107 66 107 -3 0 -42
-40 -87 -90z"/>
<path d="M3991 2500 c18 -182 21 -196 47 -227 14 -17 31 -55 39 -85 23 -85 51
-78 102 24 50 100 42 185 -19 204 -22 7 -20 -1 8 -32 35 -41 36 -46 3 -115
-43 -89 -61 -75 -53 42 4 77 -1 91 -41 106 -32 12 -54 45 -71 105 l-25 88 10
-110z"/>
<path d="M3850 2220 c-14 -43 1 -80 31 -80 25 0 25 94 0 109 -10 6 -24 -6 -31
-29z"/>
<path d="M2430 2120 c-20 -33 31 -123 67 -116 46 9 70 96 26 96 -19 0 -45 10
-57 22 -15 15 -26 15 -36 -2z"/>
<path d="M4127 1896 c-58 -107 -60 -116 -28 -145 37 -33 63 -41 57 -16 -1 8 8
54 22 102 45 158 20 187 -51 59z"/>
<path d="M4560 1314 c-38 -13 -65 -30 -60 -37 6 -8 -10 -35 -35 -61 -53 -57
-72 -310 -26 -365 30 -35 221 -45 221 -10 0 11 11 19 25 18 95 -13 155 83 155
246 0 216 -82 277 -280 209z"/>
</g>
</svg>
