<?xml version="1.0" standalone="no"?>
<!DOCTYPE svg PUBLIC "-//W3C//DTD SVG 20010904//EN"
 "http://www.w3.org/TR/2001/REC-SVG-20010904/DTD/svg10.dtd">
<svg version="1.0" xmlns="http://www.w3.org/2000/svg"
 width="300.000000pt" height="277.000000pt" viewBox="0 0 300.000000 277.000000"
 preserveAspectRatio="xMidYMid meet">
<metadata>
Created by potrace 1.10, written by Peter Selinger 2001-2011
</metadata>
<g transform="translate(0.000000,277.000000) scale(0.100000,-0.100000)"
fill="#000000" stroke="none">
<path d="M1393 2737 c-32 -34 -63 -87 -63 -109 0 -7 -13 -41 -29 -75 -31 -64
-66 -93 -114 -93 -45 0 -85 -21 -111 -59 -14 -20 -26 -44 -26 -52 0 -7 -12
-32 -25 -54 -22 -36 -25 -50 -24 -135 l2 -95 8 99 c6 65 15 106 25 117 8 9 20
33 25 54 6 20 25 53 43 72 27 30 40 36 87 41 82 7 100 25 138 136 18 53 42
108 53 121 24 31 69 55 102 55 24 0 24 -1 10 -27 -16 -32 -20 -138 -4 -128 6
3 10 30 10 58 0 31 6 62 16 75 14 20 24 22 99 22 79 0 86 -2 101 -25 20 -30
40 -160 31 -197 -4 -15 -18 -40 -32 -56 -14 -17 -25 -35 -25 -41 0 -6 18 -23
40 -37 38 -25 68 -83 54 -105 -8 -14 37 -93 70 -121 38 -33 48 -33 139 -8 222
61 337 81 337 60 0 -5 -9 -10 -20 -10 -11 0 -20 -5 -20 -12 0 -6 -3 -8 -7 -5
-3 4 -11 3 -17 -2 -20 -16 -117 -43 -132 -37 -9 4 -12 2 -8 -5 4 -8 -1 -9 -16
-4 -17 5 -20 4 -15 -5 6 -10 1 -11 -21 -6 -17 4 -24 3 -16 -2 21 -14 -63 -35
-88 -22 -13 7 -20 7 -20 1 0 -6 -16 -10 -35 -9 -19 1 -38 -2 -43 -7 -4 -4 3
-5 16 -2 32 8 27 -2 -8 -14 -16 -6 -30 -15 -30 -21 0 -6 7 -8 15 -4 8 3 15 2
16 -2 0 -4 2 -17 3 -29 2 -15 -4 -23 -21 -26 -28 -5 -37 6 -29 39 6 23 4 24
-21 18 -16 -4 -29 -8 -31 -9 -1 -1 12 -20 30 -43 18 -22 41 -54 50 -71 10 -17
24 -34 33 -37 21 -8 42 21 43 58 0 21 -4 28 -18 28 -24 0 -36 -20 -19 -31 10
-6 11 -11 3 -19 -9 -9 -16 -4 -27 19 -13 26 -13 31 -1 31 14 0 18 11 15 38 -1
6 2 12 8 12 5 0 7 10 3 22 -3 14 -2 19 6 14 7 -4 12 -1 12 8 0 9 6 16 14 16 8
0 22 3 31 6 10 4 15 2 13 -6 -4 -15 55 -38 100 -39 40 -1 100 -25 129 -53 l22
-20 58 22 c32 12 72 28 89 35 28 12 34 12 53 -6 11 -11 21 -17 21 -13 0 3 7 0
16 -7 11 -9 14 -24 11 -49 l-5 -35 13 30 c8 17 12 38 9 48 -3 10 -2 17 3 16
23 -4 32 2 26 18 -4 11 15 1 46 -25 51 -40 91 -54 91 -31 0 5 -8 9 -17 7 -20
-3 -99 73 -109 104 -8 25 -23 11 -26 -23 -2 -26 -8 -27 -77 -20 -24 2 9 31 35
31 18 0 27 9 37 32 l13 32 85 -75 c46 -42 93 -81 104 -87 19 -11 19 -11 1 -12
-11 0 -27 -6 -35 -13 -28 -23 -70 -37 -77 -26 -3 6 -15 9 -25 6 -13 -3 -19 0
-19 11 0 8 -3 12 -7 9 -3 -4 -15 1 -26 10 -20 18 -20 18 -4 -8 10 -14 14 -29
10 -34 -5 -4 -2 -5 5 -1 7 4 24 0 38 -9 20 -13 28 -14 40 -4 33 27 147 1 122
-28 -8 -10 -6 -13 10 -13 11 0 25 -6 31 -14 15 -18 -10 -61 -39 -69 -23 -6
-53 24 -45 46 4 8 2 18 -4 22 -7 3 -8 0 -5 -9 3 -9 1 -16 -5 -16 -6 0 -11 3
-11 8 0 14 -67 52 -82 47 -9 -4 -22 1 -31 9 -11 12 -27 14 -59 10 -33 -5 -47
-2 -57 10 -7 9 -21 16 -31 16 -10 0 -25 15 -34 35 -9 19 -21 35 -27 35 -5 0
-3 -13 6 -30 14 -27 14 -32 -2 -57 -17 -26 -17 -27 0 -14 10 8 17 9 17 3 0 -6
-8 -16 -17 -21 -10 -6 -13 -11 -6 -11 6 0 14 4 18 10 12 19 35 -4 48 -48 8
-25 19 -48 26 -50 10 -3 10 0 1 18 -10 18 -9 24 1 31 11 7 9 9 -6 9 -16 0 -17
2 -5 10 19 12 27 3 32 -35 3 -34 45 -75 76 -75 15 0 22 9 27 33 4 17 13 36 19
40 6 5 2 7 -11 4 -19 -4 -23 -1 -23 21 0 34 -10 22 -17 -20 -10 -66 -24 -65
-19 2 3 42 2 58 -4 45 -8 -20 -9 -19 -9 1 -1 13 6 24 18 27 24 6 41 -10 41
-37 1 -19 1 -19 11 -3 10 18 39 24 39 8 0 -5 10 -12 23 -15 20 -6 97 -88 97
-104 0 -4 -16 -7 -35 -8 -34 0 -45 9 -25 21 6 3 9 14 9 23 -1 15 -2 15 -6 1
-3 -11 -11 -15 -24 -12 -15 4 -19 0 -19 -20 0 -27 31 -42 49 -24 8 8 14 8 23
-1 9 -9 9 -12 0 -12 -6 0 -9 -6 -6 -14 4 -11 -9 -11 -83 1 -120 20 -140 25
-126 30 10 3 9 8 -2 19 -8 9 -19 12 -25 9 -13 -8 -59 26 -60 45 0 11 -3 11
-12 2 -9 -9 -7 -17 9 -34 11 -13 24 -34 28 -48 6 -23 5 -23 -14 5 -13 19 -21
24 -21 14 0 -19 34 -52 43 -42 4 3 7 0 7 -8 0 -9 7 -24 15 -35 14 -19 15 -18
35 6 16 20 20 22 20 8 0 -16 2 -16 20 2 20 20 56 28 45 10 -3 -5 -1 -10 4 -10
6 0 11 5 11 10 0 15 17 12 24 -5 3 -8 2 -14 -2 -14 -4 1 -20 0 -37 -1 -29 -2
-29 -2 -5 -9 16 -5 40 -1 68 12 33 14 47 16 57 7 9 -7 15 -8 20 0 12 19 26 11
15 -10 -6 -11 -20 -20 -31 -20 -11 0 -17 5 -14 10 9 15 -1 12 -36 -9 -25 -15
-37 -17 -59 -9 -36 12 -102 7 -107 -9 -5 -13 22 -22 74 -26 18 -1 33 -7 33
-14 0 -18 -20 -27 -33 -14 -6 6 -25 11 -42 11 -30 0 -83 39 -70 52 3 3 -17 29
-45 58 -47 50 -65 80 -37 64 6 -4 9 -3 4 1 -10 11 -47 17 -47 8 0 -4 12 -19
27 -35 43 -45 19 -43 -31 2 -25 24 -46 39 -46 34 0 -21 -22 17 -25 44 -5 37
-30 79 -57 93 -20 11 -20 11 1 25 33 23 25 43 -24 65 l-45 20 -29 -20 c-37
-26 -46 -26 -84 1 -57 40 -61 47 -35 58 23 10 23 11 1 6 -13 -2 -23 0 -23 6 0
5 -5 6 -11 3 -6 -4 -8 -13 -5 -21 3 -8 1 -14 -4 -14 -6 0 -10 -10 -9 -22 0
-13 3 -18 6 -11 4 12 12 10 52 -14 2 -2 -4 -12 -14 -23 -25 -27 -7 -25 23 3
20 17 24 18 19 5 -10 -27 36 -27 66 -1 22 20 23 0 0 -22 -12 -13 -26 -15 -53
-11 -51 8 -75 -17 -65 -72 5 -34 3 -41 -19 -56 -30 -19 -35 -66 -10 -87 13
-11 21 -10 50 6 18 10 36 26 39 36 4 11 11 19 17 19 5 0 7 -7 4 -15 -3 -8 -9
-22 -12 -30 -4 -9 -3 -15 2 -13 23 6 95 -44 108 -76 8 -19 26 -42 40 -51 30
-20 78 -101 78 -132 0 -13 4 -23 9 -23 17 0 60 -81 54 -101 -4 -11 -2 -19 4
-19 6 0 11 7 11 15 0 30 16 14 29 -29 10 -36 10 -52 -3 -101 -18 -70 -26 -80
-26 -32 0 20 -4 37 -9 37 -5 0 -13 13 -19 28 -5 15 -24 42 -41 59 l-31 32 26
-2 c15 -1 29 3 31 9 5 14 -27 48 -36 39 -3 -4 2 -12 12 -19 24 -18 21 -24 -8
-19 -38 8 -97 65 -86 83 8 12 13 12 30 -4 12 -11 21 -16 21 -12 0 3 11 -1 25
-10 14 -9 28 -14 32 -11 3 4 -3 10 -13 13 -10 4 -45 34 -76 67 -33 35 -61 56
-68 52 -6 -4 -23 4 -38 16 -26 23 -26 23 -8 1 11 -12 17 -25 14 -27 -6 -6 -58
52 -58 65 0 4 7 13 15 20 10 9 15 9 15 1 0 -8 6 -8 20 1 19 12 19 13 -2 35
-25 27 -43 30 -34 7 4 -9 -1 -28 -9 -41 -17 -25 -15 -33 27 -82 26 -31 46 -43
31 -18 -4 6 11 -3 34 -21 27 -21 40 -38 36 -47 -7 -21 -21 -19 -35 5 -7 11
-18 20 -24 20 -6 0 -33 26 -59 58 -26 31 -53 56 -59 54 -6 -1 0 6 13 16 16 13
20 21 12 26 -6 4 -9 12 -6 17 4 5 -1 9 -9 9 -19 0 -21 -16 -3 -23 9 -4 9 -7 0
-17 -10 -11 -14 -9 -23 11 l-10 24 4 -26 c5 -24 3 -25 -33 -25 -22 1 -43 5
-48 10 -5 5 -2 6 6 1 10 -5 12 -4 7 4 -4 6 -11 9 -16 6 -4 -3 -11 1 -14 7 -3
7 -3 3 -1 -8 4 -16 0 -23 -17 -28 -35 -9 -50 -7 -42 6 4 6 3 8 -4 4 -17 -10
-23 10 -11 41 6 15 13 43 15 61 2 19 6 43 10 55 7 22 7 22 15 2 7 -19 8 -19 8
3 1 16 -5 22 -19 22 -20 0 -24 -8 -20 -47 1 -15 -4 -23 -14 -24 -32 -3 -35 -4
-51 -24 -9 -11 -14 -14 -10 -7 3 6 2 12 -4 12 -14 0 -39 52 -33 69 3 9 0 11
-7 7 -9 -6 -10 0 -5 21 7 25 6 27 -9 14 -10 -8 -17 -9 -17 -3 0 6 -16 19 -35
28 -19 9 -32 20 -29 25 3 5 10 7 15 4 11 -8 12 6 0 23 -6 10 -10 8 -14 -8 -7
-28 -27 -17 -27 14 0 30 -26 81 -34 68 -3 -6 1 -23 9 -38 19 -37 19 -50 0 -34
-8 7 -15 21 -15 31 0 10 -5 21 -10 24 -6 4 -4 12 5 21 17 17 15 65 -5 88 -11
14 -7 16 31 17 24 0 53 5 64 10 16 7 13 8 -15 6 -22 -1 -35 3 -36 11 -1 6 -2
51 -4 100 -1 68 -4 81 -11 57 -4 -16 -9 -57 -10 -91 -2 -66 -11 -95 -23 -75
-4 6 -12 11 -18 11 -7 0 -6 -6 2 -15 19 -23 -2 -18 -38 8 -17 13 -28 28 -24
32 4 5 1 5 -6 1 -11 -6 -7 -15 14 -37 15 -15 31 -26 36 -23 5 3 12 -3 15 -15
3 -12 9 -21 14 -21 5 0 9 -5 9 -11 0 -5 -4 -8 -8 -5 -5 3 -8 -5 -8 -17 1 -16
-4 -21 -16 -19 -10 2 -18 -2 -18 -8 0 -5 -9 -10 -20 -10 -11 0 -20 7 -20 15 0
8 -3 15 -7 15 -5 0 -16 15 -27 33 -17 30 -19 31 -27 12 -8 -17 -8 -16 -4 6 3
18 -2 32 -15 44 -21 19 -27 45 -11 45 5 0 20 -17 32 -37 13 -21 27 -39 31 -41
4 -2 8 -10 8 -18 0 -8 4 -14 9 -14 5 0 13 -9 16 -20 3 -11 10 -20 15 -20 12 0
5 33 -8 38 -7 2 -12 8 -12 13 0 6 -9 19 -20 31 -11 12 -20 26 -20 32 0 18 79
-68 80 -86 0 -25 20 -23 20 2 0 18 -28 49 -76 84 -14 11 -16 17 -7 27 9 11 6
14 -13 15 -20 2 -23 -1 -13 -12 7 -8 9 -17 7 -20 -3 -3 -15 7 -26 21 -13 16
-23 22 -27 15 -5 -7 -12 -5 -21 7 -7 10 -14 14 -14 9 0 -6 -6 -1 -14 9 -15 21
-11 49 10 66 8 6 14 16 14 21 0 17 -31 -14 -42 -42 l-10 -25 -14 25 c-14 23
-15 23 -11 3 3 -12 1 -23 -3 -25 -10 -4 -23 -98 -13 -98 5 0 9 8 10 18 3 30
22 72 34 72 8 0 9 -4 0 -13 -8 -10 -7 -19 5 -33 14 -18 14 -17 3 6 -11 23 -11
24 4 11 18 -15 23 -51 7 -51 -5 0 -7 -7 -4 -15 8 -20 24 -9 24 16 0 10 5 19
10 19 16 0 12 -26 -11 -65 -19 -32 -20 -39 -9 -61 10 -17 10 -30 3 -46 -6 -14
-7 -32 -2 -46 6 -16 4 -30 -7 -48 -11 -16 -13 -28 -7 -37 6 -6 9 -30 8 -52 -4
-56 3 -75 23 -69 14 5 14 4 2 -4 -8 -6 -19 -8 -25 -4 -5 3 -16 7 -23 8 -10 2
-10 -1 -1 -12 6 -7 9 -20 6 -28 -3 -7 2 -24 11 -37 15 -21 14 -22 -3 -16 -14
6 -16 5 -7 -6 6 -7 12 -27 14 -44 1 -21 6 -29 15 -26 9 4 13 -6 13 -32 0 -27
-4 -36 -13 -32 -8 3 -14 -1 -14 -8 0 -8 5 -13 11 -12 6 1 12 -8 14 -20 2 -13
7 -23 12 -23 4 0 6 10 3 23 -4 18 -3 19 6 7 8 -11 11 -12 11 -2 0 7 4 11 9 7
6 -3 8 -14 6 -25 -2 -11 0 -20 6 -20 15 0 10 42 -7 55 -9 6 -17 26 -18 43 -1
21 -8 35 -23 43 -19 10 -21 18 -17 48 3 20 9 38 13 41 4 3 6 16 5 30 -1 14 7
35 18 46 21 23 12 39 -12 23 -22 -13 -37 -10 -18 4 17 13 28 100 15 113 -11
11 -8 83 4 105 6 13 7 25 1 32 -15 19 -23 65 -13 71 10 7 41 -20 41 -35 0 -15
26 -39 34 -32 3 4 6 1 6 -5 0 -6 6 -9 14 -6 8 3 19 -3 25 -15 9 -16 18 -19 43
-14 22 4 29 3 24 -6 -4 -6 -1 -14 7 -17 9 -3 18 -17 22 -31 4 -16 11 -23 20
-19 8 3 15 1 15 -5 0 -6 4 -8 9 -5 15 10 22 -24 9 -47 -10 -19 -9 -20 4 -10
12 10 18 9 34 -10 37 -45 44 -64 34 -96 -5 -19 -5 -29 1 -26 5 4 9 15 9 27 0
18 2 19 17 7 23 -19 -21 56 -55 93 -32 35 -24 45 10 13 14 -13 29 -22 32 -19
3 2 4 1 1 -3 -3 -3 6 -25 20 -49 14 -24 22 -50 19 -59 -5 -11 -2 -16 7 -15 28
4 35 -1 53 -35 23 -43 43 -49 119 -37 32 5 60 5 63 1 3 -5 14 -9 26 -9 11 0
39 -20 62 -44 22 -24 72 -71 110 -104 37 -33 77 -74 87 -92 11 -17 23 -28 29
-25 12 7 60 -76 71 -122 6 -29 3 -48 -13 -86 l-22 -50 30 -21 c16 -11 40 -34
54 -51 36 -42 103 -107 131 -126 19 -13 25 -28 30 -75 l6 -59 2 58 c1 52 -2
61 -26 83 -52 45 -98 92 -147 149 l-49 57 28 81 c19 55 29 103 30 145 1 48 5
66 17 73 9 5 25 24 36 42 17 26 19 43 15 99 l-6 66 38 11 c44 12 64 4 93 -36
11 -16 24 -25 28 -21 4 4 1 14 -5 22 -15 17 -7 36 15 36 10 0 13 -7 8 -25 -7
-30 11 -34 26 -6 13 26 13 34 -2 25 -7 -5 -8 -3 -4 5 5 7 10 10 13 7 3 -3 14
1 25 8 24 17 61 2 80 -33 18 -33 64 -51 100 -39 15 6 28 13 28 17 0 4 17 17
38 28 20 12 50 35 66 52 26 27 28 34 18 56 -6 14 -19 25 -28 25 -10 0 -15 3
-11 6 3 4 -13 16 -36 28 -23 12 -41 27 -39 34 4 20 -8 14 -43 -24 -19 -20 -39
-33 -45 -29 -7 4 -1 16 16 31 14 14 23 28 20 32 -4 3 -18 -7 -31 -23 -13 -17
-26 -27 -30 -23 -4 4 -17 1 -29 -7 -24 -18 -36 -19 -36 -5 0 6 11 16 25 22 16
7 25 19 25 35 0 13 7 26 16 30 8 3 13 12 10 19 -3 7 4 16 15 19 19 6 19 8 5
31 -9 13 -16 32 -16 43 0 28 -32 42 -80 35 -49 -8 -52 2 -5 22 32 13 38 13 60
-2 14 -9 30 -24 35 -33 6 -9 10 -11 10 -4 0 19 -31 52 -75 81 -22 14 -70 52
-106 84 -74 66 -103 77 -122 47 -6 -10 -19 -19 -27 -19 -8 0 -33 -13 -55 -28
-23 -15 -73 -38 -111 -51 l-70 -23 -56 31 c-30 17 -68 31 -84 31 -16 0 -35 4
-43 9 -10 6 25 21 115 50 170 53 199 75 158 116 -19 19 -17 19 -237 -36 -86
-21 -168 -39 -181 -39 -53 0 -106 74 -106 148 0 28 -8 42 -42 74 l-42 38 24
41 c20 37 22 51 17 125 -3 51 -12 97 -23 121 l-19 38 -146 2 -146 2 -30 -32z
m-53 -692 c0 -12 -19 -12 -23 0 -4 9 -1 12 9 8 7 -3 14 -7 14 -8z m30 -61 c0
-8 -5 -12 -10 -9 -6 4 -8 11 -5 16 9 14 15 11 15 -7z m800 -19 c0 -8 -5 -15
-10 -15 -6 0 -51 -42 -101 -94 -50 -52 -99 -96 -110 -99 -29 -8 -36 20 -10 44
22 21 23 23 25 79 1 34 2 35 50 41 39 4 54 11 70 32 23 31 86 40 86 12z m210
-35 c0 -5 -4 -10 -10 -10 -5 0 -10 5 -10 10 0 6 5 10 10 10 6 0 10 -4 10 -10z
m40 -24 c0 -8 10 -12 26 -10 29 3 45 -26 43 -79 -2 -30 -2 -31 -6 -4 -2 15 -9
27 -15 27 -5 0 -8 6 -5 13 6 16 -20 41 -28 27 -3 -6 -10 -10 -15 -10 -13 0
-32 39 -25 50 8 13 25 3 25 -14z m-236 -15 c21 -22 29 -41 32 -78 2 -39 2 -42
-4 -13 -6 28 -15 39 -45 53 -45 21 -69 12 -92 -34 -17 -32 -14 -43 16 -59 22
-12 26 2 6 22 -18 16 -9 56 15 64 10 3 35 -2 55 -11 33 -16 35 -19 31 -61 -3
-38 -1 -42 9 -28 12 16 15 16 37 -5 16 -15 25 -19 28 -10 7 21 28 0 29 -29 1
-17 3 -20 6 -10 4 14 8 16 24 7 11 -5 17 -15 14 -22 -4 -7 0 -4 8 5 13 17 15
17 33 -3 21 -23 22 -32 24 -164 2 -106 0 -121 -10 -80 l-8 30 -1 -32 c-1 -38
1 -37 -38 -18 -39 19 -72 55 -52 56 8 0 24 2 37 5 20 4 22 2 12 -17 -7 -11 -9
-23 -7 -26 3 -2 8 5 12 16 3 12 11 21 16 21 16 0 10 17 -8 24 -10 3 -24 9 -32
12 -8 4 -11 2 -7 -4 8 -13 -29 -26 -45 -17 -6 4 -8 17 -5 29 3 13 -2 32 -11
45 -9 13 -15 41 -15 67 1 44 -21 114 -30 98 -12 -21 25 -182 56 -247 18 -37
27 -62 20 -56 -26 21 -95 175 -87 195 6 17 5 17 -10 6 -14 -12 -20 -10 -42 13
-15 14 -24 32 -22 40 4 8 -10 24 -34 39 -21 15 -38 30 -38 34 3 20 -2 25 -12
12 -9 -13 -10 -13 -6 1 3 9 2 20 -3 25 -8 9 94 134 109 134 4 0 20 -13 35 -29z
m-892 -121 c-2 -22 -6 -40 -8 -40 -2 0 -4 18 -4 40 0 22 3 40 8 40 4 0 6 -18
4 -40z m1252 15 c-4 -8 -8 -15 -10 -15 -2 0 -4 7 -4 15 0 8 4 15 10 15 5 0 7
-7 4 -15z m-70 -65 c19 0 19 -1 4 -17 -14 -13 -20 -14 -32 -3 -9 7 -16 20 -16
28 0 12 3 13 12 4 7 -7 21 -12 32 -12z m382 -17 l-5 -28 11 25 c7 14 13 27 14
28 4 6 53 -32 54 -40 0 -5 -7 -8 -17 -8 -14 0 -14 -3 3 -21 l19 -22 -28 7
c-30 7 -62 -9 -51 -25 3 -5 1 -9 -5 -9 -6 0 -8 -7 -5 -15 4 -8 1 -15 -5 -15
-6 0 -8 -7 -5 -15 9 -22 24 -18 24 5 0 11 5 20 11 20 6 0 8 9 4 20 -7 23 12
28 21 6 3 -8 13 -12 25 -9 14 4 19 14 19 39 0 38 7 42 25 17 11 -14 9 -23 -12
-50 -14 -18 -28 -32 -31 -32 -27 4 -43 -5 -54 -28 -20 -41 -72 -35 -113 11
-34 38 -64 56 -94 56 -11 0 -23 5 -26 10 -7 12 32 9 52 -3 14 -9 59 17 67 39
3 9 10 12 16 9 7 -4 7 -12 0 -25 -8 -15 -6 -17 10 -13 11 3 20 9 20 14 0 5 7
9 15 9 8 0 15 5 15 11 0 6 -9 9 -20 6 -10 -3 -24 1 -30 8 -9 11 -4 13 25 11
19 -2 33 -1 30 2 -5 5 13 32 22 32 3 0 3 -12 -1 -27z m-1081 -35 c-1 -12 -9
-22 -18 -24 -20 -3 -21 0 -5 26 17 26 25 25 23 -2z m-508 -60 c-3 -7 -5 -2 -5
12 0 14 2 19 5 13 2 -7 2 -19 0 -25z m1181 -6 c2 -7 -3 -12 -12 -12 -9 0 -16
7 -16 16 0 17 22 14 28 -4z m190 6 c-3 -7 -13 -13 -23 -13 -10 0 -20 6 -22 13
-3 7 5 12 22 12 17 0 25 -5 23 -12z m-473 -135 l19 -28 -36 30 c-39 32 -50 52
-19 36 10 -6 26 -23 36 -38z m-853 -31 c3 -11 0 -19 -8 -19 -16 0 -16 0 -8 21
8 21 11 20 16 -2z m1058 -63 c0 -5 -11 -9 -25 -9 -22 0 -24 2 -13 19 9 15 15
17 25 9 7 -6 13 -14 13 -19z"/>
<path d="M2135 1890 c-3 -5 -1 -10 4 -10 6 0 11 5 11 10 0 6 -2 10 -4 10 -3 0
-8 -4 -11 -10z"/>
<path d="M2152 1738 c-17 -17 -24 -20 -34 -10 -7 7 -17 12 -22 12 -6 0 -2 -6
9 -14 23 -16 85 -26 85 -14 0 4 -5 8 -11 8 -6 0 -8 9 -4 20 8 25 5 25 -23 -2z"/>
<path d="M2264 1696 c-9 -22 1 -109 14 -131 10 -17 11 -15 4 15 -4 19 -7 56
-7 83 0 49 -2 56 -11 33z"/>
<path d="M2164 1667 c1 -17 6 -23 15 -19 10 4 12 1 6 -9 -6 -11 -5 -12 6 -1
10 9 11 17 3 29 -17 26 -32 26 -30 0z"/>
<path d="M2370 1668 c0 -9 5 -20 11 -23 17 -11 18 -2 3 19 -12 17 -14 17 -14
4z"/>
<path d="M2290 1655 c-10 -12 -9 -16 4 -21 9 -3 13 -11 9 -17 -3 -5 -1 -7 4
-4 6 4 8 18 5 32 -5 29 -6 30 -22 10z"/>
<path d="M2351 1644 c0 -11 3 -14 6 -6 3 7 2 16 -1 19 -3 4 -6 -2 -5 -13z"/>
<path d="M2354 1593 c1 -18 0 -33 -4 -33 -3 0 -6 -9 -7 -20 -2 -18 0 -19 14
-5 12 13 13 22 4 53 -10 36 -10 36 -7 5z"/>
<path d="M2380 1599 c0 -11 4 -18 10 -14 5 3 7 12 3 20 -7 21 -13 19 -13 -6z"/>
<path d="M2307 1593 c-10 -9 -9 -23 1 -23 5 0 9 7 9 15 0 17 -1 18 -10 8z"/>
<path d="M2380 1513 c0 -4 5 -15 10 -23 8 -13 10 -13 10 2 0 9 -4 20 -10 23
-5 3 -10 3 -10 -2z"/>
<path d="M2793 1630 c-19 -11 -40 -17 -50 -13 -17 6 -17 6 0 -11 17 -18 18
-18 32 0 18 23 20 11 3 -16 -10 -16 -10 -23 4 -37 16 -15 18 -15 28 11 8 21 7
32 -1 42 -6 8 -7 14 -2 14 5 0 18 7 29 15 30 23 -4 19 -43 -5z"/>
<path d="M1462 2738 c-21 -21 -13 -118 19 -208 16 -47 38 -118 48 -158 10 -40
22 -76 26 -80 8 -8 -4 62 -16 96 -5 13 -9 30 -9 39 0 14 3 14 20 -2 25 -22 36
-14 20 14 -6 12 -8 27 -4 33 5 7 3 8 -5 4 -7 -5 -10 -14 -7 -22 4 -11 2 -11
-14 -2 -17 11 -28 35 -71 160 -10 29 -10 50 -3 88 6 27 10 50 9 50 0 0 -6 -5
-13 -12z"/>
<path d="M1673 2738 c-21 -28 -53 -137 -52 -179 0 -34 2 -39 9 -24 5 11 9 34
10 50 2 18 4 23 7 13 2 -10 8 -18 13 -18 14 0 21 32 9 47 -17 19 5 43 23 25
16 -16 28 -15 28 3 0 14 -11 19 -37 16 -7 -1 -13 5 -13 14 0 9 3 14 8 11 4 -2
8 9 8 25 2 33 0 34 -13 17z"/>
<path d="M1532 2708 c-6 -18 -12 -49 -12 -68 -4 -69 2 -63 15 15 13 88 12 104
-3 53z"/>
<path d="M1432 2700 c0 -14 2 -19 5 -12 2 6 2 18 0 25 -3 6 -5 1 -5 -13z"/>
<path d="M1565 2700 c-9 -14 -15 -91 -6 -86 4 3 8 21 9 42 2 20 5 41 8 46 3 4
3 8 0 8 -3 0 -7 -4 -11 -10z"/>
<path d="M1394 2676 c-3 -14 -3 -30 1 -35 3 -6 1 -11 -4 -11 -6 0 -11 -7 -11
-15 0 -24 -31 -66 -44 -58 -6 3 -8 3 -4 -2 4 -4 3 -14 -4 -22 -7 -9 0 -7 20 4
29 16 43 37 48 68 1 6 2 12 3 15 4 11 8 80 5 80 -2 0 -6 -11 -10 -24z"/>
<path d="M1599 2673 c-5 -16 -12 -34 -14 -40 -2 -7 0 -13 6 -13 6 0 7 -4 4
-10 -3 -5 -1 -10 6 -10 7 0 9 10 6 26 -2 14 1 31 7 37 15 17 18 37 6 37 -6 0
-15 -12 -21 -27z"/>
<path d="M1421 2630 c0 -25 8 -62 19 -85 l19 -40 -6 39 c-3 21 -11 59 -18 85
l-13 46 -1 -45z"/>
<path d="M1722 2610 c0 -14 2 -19 5 -12 2 6 2 18 0 25 -3 6 -5 1 -5 -13z"/>
<path d="M1652 2548 c-14 -14 -16 -58 -3 -58 5 0 11 16 13 35 2 19 4 35 3 35
-1 0 -6 -5 -13 -12z"/>
<path d="M1410 2533 c0 -5 10 -19 21 -33 l20 -25 -16 33 c-15 30 -25 41 -25
25z"/>
<path d="M1597 2520 c3 -11 7 -20 9 -20 2 0 4 9 4 20 0 11 -4 20 -9 20 -5 0
-7 -9 -4 -20z"/>
<path d="M1700 2536 c0 -2 7 -7 16 -10 8 -3 12 -2 9 4 -6 10 -25 14 -25 6z"/>
<path d="M1340 2513 c0 -4 12 -19 27 -35 26 -27 26 -28 8 -48 -10 -11 -15 -20
-10 -20 4 0 2 -6 -4 -13 -8 -11 -5 -16 14 -25 28 -13 36 -6 24 23 -7 18 -8 18
-8 2 -1 -10 -5 -16 -11 -12 -11 7 4 51 16 46 9 -3 48 -73 58 -105 4 -10 9 -16
12 -13 9 9 -23 85 -56 134 -34 50 -25 56 19 12 41 -41 39 -31 -3 20 -21 25
-36 36 -39 28 -4 -9 -7 -9 -18 1 -14 13 -29 16 -29 5z"/>
<path d="M1595 2460 c-13 -26 -13 -30 -1 -30 8 0 16 -8 19 -17 2 -10 3 3 3 29
-1 27 -2 48 -3 48 -1 0 -9 -13 -18 -30z"/>
<path d="M1306 2470 c-19 -6 -19 -7 -1 -13 20 -8 29 -4 24 11 -2 5 -13 6 -23
2z"/>
<path d="M1633 2473 c-16 -6 -17 -33 -3 -33 11 0 26 28 19 34 -2 2 -10 1 -16
-1z"/>
<path d="M1346 2457 c3 -9 1 -24 -5 -31 -7 -9 -8 -17 -3 -20 14 -9 25 45 12
58 -8 8 -9 6 -4 -7z"/>
<path d="M1470 2458 c0 -4 7 -33 15 -65 10 -38 15 -94 13 -160 -1 -56 1 -106
5 -109 4 -4 7 22 8 57 0 35 2 74 5 87 5 27 -20 153 -35 179 -6 10 -11 15 -11
11z"/>
<path d="M1663 2435 c-3 -9 -3 -18 -1 -21 3 -3 8 4 11 16 6 23 -1 27 -10 5z"/>
<path d="M1163 2421 c-19 -23 -38 -28 -28 -8 4 6 -5 -1 -20 -18 -41 -47 -54
-92 -22 -79 7 2 14 14 14 27 1 12 10 27 20 34 10 7 28 22 39 33 l21 22 42 -26
c62 -39 53 -52 -34 -47 l-30 1 27 -15 c22 -12 31 -13 47 -3 17 10 23 9 40 -6
13 -12 21 -14 21 -7 0 8 7 7 22 -3 12 -9 29 -16 36 -16 14 0 44 -25 42 -35 -4
-20 7 -20 16 0 9 18 9 22 -1 18 -7 -2 -16 5 -20 16 -3 12 -11 21 -16 21 -6 0
-7 5 -4 11 4 6 -2 5 -13 -2 -17 -10 -23 -10 -36 0 -9 8 -16 20 -16 27 0 8 -9
14 -21 14 -12 0 -19 5 -17 12 6 16 -12 35 -32 35 -8 0 -25 3 -37 7 -16 5 -27
1 -40 -13z"/>
<path d="M1632 2399 c0 -18 3 -40 8 -50 5 -9 9 -30 9 -45 0 -16 1 -68 1 -116
l2 -87 -31 1 c-22 1 -31 6 -31 18 0 10 -3 32 -7 50 -4 22 -3 31 5 27 6 -5 8 1
5 15 -4 19 -3 20 6 8 14 -20 14 -4 -1 23 -6 12 -15 51 -19 87 l-8 65 3 -73 c2
-40 -1 -75 -5 -78 -5 -3 -9 -10 -9 -15 0 -6 3 -8 8 -5 4 2 8 -25 9 -60 1 -35
-2 -64 -8 -64 -5 0 -9 -4 -9 -10 0 -12 65 -7 112 10 33 12 37 17 31 39 -4 14
-7 36 -8 49 0 12 -4 22 -8 22 -5 0 -6 4 -2 9 3 5 1 12 -5 16 -6 3 -10 18 -9
33 1 15 -3 40 -10 55 -6 16 -11 40 -11 55 0 41 -17 60 -18 21z"/>
<path d="M1680 2402 c0 -4 4 -12 9 -17 5 -6 18 -50 30 -100 36 -148 43 -166
60 -161 9 3 31 7 49 11 35 7 40 16 17 35 -13 11 -19 9 -37 -10 l-21 -23 -10
24 c-5 13 -9 37 -8 52 3 32 -17 87 -30 87 -5 0 -9 16 -9 36 0 24 -4 33 -12 28
-7 -5 -9 -2 -5 8 3 9 0 21 -6 27 -13 13 -27 15 -27 3z"/>
<path d="M1325 2360 c3 -5 8 -10 11 -10 2 0 4 5 4 10 0 6 -5 10 -11 10 -5 0
-7 -4 -4 -10z"/>
<path d="M1660 2363 c0 -6 8 -17 18 -24 16 -13 16 -13 2 6 -8 11 -16 22 -17
24 -2 2 -3 0 -3 -6z"/>
<path d="M1754 2332 c1 -17 5 -34 9 -38 10 -10 9 38 -2 55 -6 9 -8 4 -7 -17z"/>
<path d="M1601 2320 c0 -19 4 -44 9 -55 7 -16 9 -13 9 15 0 19 -4 44 -9 55 -7
16 -9 13 -9 -15z"/>
<path d="M1120 2329 c0 -5 4 -8 9 -4 5 3 12 1 16 -5 8 -13 35 -13 35 1 0 5 -4
8 -9 4 -5 -3 -12 -1 -16 5 -8 13 -35 13 -35 -1z"/>
<path d="M1631 2314 c0 -11 3 -14 6 -6 3 7 2 16 -1 19 -3 4 -6 -2 -5 -13z"/>
<path d="M1198 2285 c-21 -19 -36 -35 -33 -35 2 0 -13 -25 -35 -57 -23 -32
-40 -67 -39 -82 1 -21 6 -16 26 29 15 30 30 57 35 58 4 2 8 9 8 15 1 16 29 48
66 75 28 19 33 20 44 7 13 -16 30 -20 30 -7 0 7 -48 32 -59 32 -4 0 -23 -16
-43 -35z"/>
<path d="M1058 2286 c-10 -7 -18 -17 -18 -21 0 -4 7 -2 15 5 12 10 18 10 30 0
9 -8 15 -8 15 -2 0 6 -6 13 -12 16 -7 3 -4 4 7 3 12 -2 19 -10 19 -21 -1 -9 1
-15 4 -12 3 3 11 1 19 -5 23 -20 14 6 -10 29 -27 25 -44 27 -69 8z"/>
<path d="M1443 2283 c-10 -10 -14 -14 -7 -10 19 12 23 -5 17 -66 -4 -44 -10
-58 -25 -63 -23 -7 -49 12 -42 31 3 7 1 16 -5 20 -6 3 -15 -3 -19 -15 -8 -21
-8 -21 -21 4 -16 29 -40 41 -54 27 -7 -7 -1 -14 16 -20 15 -6 27 -15 27 -20 0
-13 53 -41 78 -41 11 0 31 -9 45 -20 34 -27 37 -25 27 9 -4 16 -8 62 -9 102 0
39 -2 74 -4 76 -2 2 -13 -4 -24 -14z"/>
<path d="M1319 2283 c-1 -5 0 -16 1 -27 1 -12 -2 -16 -11 -11 -8 5 -10 4 -5
-3 13 -22 26 -12 24 18 -2 28 -7 39 -9 23z"/>
<path d="M1060 2250 c0 -5 5 -10 11 -10 5 0 7 5 4 10 -3 6 -8 10 -11 10 -2 0
-4 -4 -4 -10z"/>
<path d="M1230 2251 c0 -5 5 -13 10 -16 6 -3 10 -2 10 4 0 5 -4 13 -10 16 -5
3 -10 2 -10 -4z"/>
<path d="M1030 2236 c0 -8 5 -18 10 -21 6 -3 10 1 10 9 0 8 -4 18 -10 21 -5 3
-10 -1 -10 -9z"/>
<path d="M1403 2227 c1 -7 -6 -11 -17 -9 -18 3 -18 2 -2 -13 9 -9 16 -25 16
-36 0 -11 7 -19 17 -19 13 0 14 3 6 11 -6 6 -9 18 -6 27 5 11 3 13 -7 7 -8 -5
-11 -3 -8 6 3 8 11 13 17 12 16 -4 13 14 -4 21 -8 3 -14 0 -12 -7z"/>
<path d="M1102 2216 c7 -8 15 -12 17 -11 5 6 -10 25 -20 25 -5 0 -4 -6 3 -14z"/>
<path d="M1180 2220 c-9 -6 -10 -10 -3 -10 6 0 15 5 18 10 8 12 4 12 -15 0z"/>
<path d="M1340 2209 c0 -5 5 -7 10 -4 6 3 10 8 10 11 0 2 -4 4 -10 4 -5 0 -10
-5 -10 -11z"/>
<path d="M1056 2167 c3 -10 9 -15 12 -12 3 3 0 11 -7 18 -10 9 -11 8 -5 -6z"/>
<path d="M1154 2137 l-1 -42 12 30 c7 16 11 35 8 42 -10 25 -18 12 -19 -30z"/>
<path d="M1611 2164 c0 -11 3 -14 6 -6 3 7 2 16 -1 19 -3 4 -6 -2 -5 -13z"/>
<path d="M1296 2162 c-9 -15 9 -31 24 -22 13 8 12 10 -3 10 -10 0 -15 5 -12
10 3 6 4 10 1 10 -3 0 -7 -4 -10 -8z"/>
<path d="M1060 2131 c0 -6 4 -13 10 -16 6 -3 7 1 4 9 -7 18 -14 21 -14 7z"/>
<path d="M1735 2103 c-11 -2 -27 -7 -35 -10 -8 -3 -19 -5 -23 -4 -5 1 -6 -3
-3 -8 3 -5 22 -3 43 4 42 15 55 12 46 -11 -4 -12 -8 -12 -21 -2 -13 11 -14 10
-8 -9 8 -25 -4 -31 -78 -38 -26 -3 -56 -10 -67 -16 -28 -14 -37 -3 -13 16 14
11 15 14 4 14 -8 0 -23 -6 -32 -13 -19 -14 -24 -36 -8 -36 5 0 7 -7 4 -15 -4
-8 -1 -15 6 -15 6 0 9 -4 6 -9 -4 -5 -3 -17 1 -27 6 -16 7 -16 13 2 4 10 3 27
-2 37 -12 24 -3 33 17 17 13 -11 14 -10 9 5 -5 13 -4 16 4 11 7 -4 12 -2 12 3
0 6 7 11 15 11 12 0 14 -4 5 -20 -6 -10 -10 -23 -9 -27 5 -27 -2 -45 -16 -39
-8 3 -15 1 -15 -4 0 -6 4 -10 10 -10 5 0 12 -11 16 -23 4 -19 11 -23 30 -19
13 2 21 8 19 13 -3 4 -11 7 -18 5 -7 -1 -9 -1 -4 1 4 3 5 9 1 14 -3 5 0 9 5 9
6 0 11 9 11 20 0 23 10 26 28 8 18 -18 15 -28 -9 -28 -18 0 -20 -2 -8 -16 9
-11 26 -15 61 -12 30 2 49 -1 52 -8 6 -15 -52 -24 -82 -13 -16 6 -21 6 -17 -2
4 -6 1 -10 -6 -8 -36 4 -59 -2 -59 -17 0 -8 4 -13 9 -9 5 3 13 0 16 -5 5 -8
14 -5 27 7 19 17 20 17 38 -5 11 -13 16 -30 13 -40 -8 -23 7 -8 21 20 15 29
73 68 102 68 28 0 41 18 24 33 -10 10 -11 8 -6 -7 5 -16 2 -15 -17 6 -13 14
-28 27 -33 29 -13 5 -74 86 -74 97 0 5 11 17 24 27 20 15 22 21 13 37 -7 10
-14 17 -17 17 -3 -1 -14 -3 -25 -6z m-5 -108 c5 3 17 -9 26 -26 9 -17 28 -43
42 -57 l27 -25 -25 6 c-14 4 -34 7 -46 7 -12 0 -25 10 -32 25 -6 14 -26 34
-44 45 l-32 19 34 15 c30 13 35 13 38 0 2 -8 7 -12 12 -9z"/>
<path d="M1828 2093 c6 -2 18 -2 25 0 6 3 1 5 -13 5 -14 0 -19 -2 -12 -5z"/>
<path d="M1138 2069 c-14 -15 -14 -18 -2 -23 8 -3 17 1 20 9 10 24 0 32 -18
14z"/>
<path d="M1641 2071 c-11 -7 -11 -9 0 -14 8 -3 2 -6 -13 -6 -16 -1 -28 -5 -28
-11 0 -14 12 -13 51 5 21 8 27 14 16 15 -10 0 -15 5 -12 10 8 12 4 12 -14 1z"/>
<path d="M1225 2060 c-3 -5 -1 -10 4 -10 6 0 11 5 11 10 0 6 -2 10 -4 10 -3 0
-8 -4 -11 -10z"/>
<path d="M2023 2043 c-29 -4 -31 -6 -20 -24 15 -24 22 -24 47 3 18 20 24 21
61 11 24 -6 37 -7 31 -1 -12 12 -75 17 -119 11z"/>
<path d="M1016 2020 c3 -14 15 -39 25 -56 11 -17 19 -35 19 -40 0 -5 -18 -19
-40 -32 -36 -20 -78 -67 -153 -173 -33 -45 -42 -47 -117 -18 -76 30 -188 31
-251 2 -74 -33 -121 -82 -154 -162 -28 -67 -33 -72 -70 -82 -44 -12 -65 -26
-65 -43 0 -6 5 -3 11 7 7 11 22 17 49 17 39 0 39 0 76 78 42 89 60 111 128
155 48 30 55 32 141 31 74 -1 100 -5 147 -27 67 -30 93 -26 107 15 7 19 15 27
22 22 8 -4 9 -3 5 4 -10 17 79 121 141 166 l54 38 -24 32 c-13 17 -32 45 -41
61 -15 26 -16 27 -10 5z"/>
<path d="M1098 2033 c7 -3 16 -2 19 1 4 3 -2 6 -13 5 -11 0 -14 -3 -6 -6z"/>
<path d="M1236 2025 c4 -8 11 -15 16 -15 6 0 5 6 -2 15 -7 8 -14 15 -16 15 -2
0 -1 -7 2 -15z"/>
<path d="M1142 2010 c0 -14 2 -19 5 -12 2 6 2 18 0 25 -3 6 -5 1 -5 -13z"/>
<path d="M2530 2019 c0 -6 -4 -7 -10 -4 -5 3 -10 3 -10 -2 0 -9 48 -33 67 -33
20 0 5 26 -23 38 -16 8 -24 8 -24 1z"/>
<path d="M2385 2010 c-7 -11 2 -30 13 -30 4 0 8 9 8 20 0 21 -11 26 -21 10z"/>
<path d="M2438 1985 c-6 -30 -3 -43 8 -33 3 4 4 19 2 35 l-3 28 -7 -30z"/>
<path d="M1060 1985 c7 -9 15 -13 17 -11 7 7 -7 26 -19 26 -6 0 -6 -6 2 -15z"/>
<path d="M1234 1981 c0 -10 8 -24 17 -29 16 -10 16 -9 2 19 -17 34 -19 35 -19
10z"/>
<path d="M2272 1986 l-23 -12 24 -22 c24 -23 43 -30 32 -12 -3 6 1 10 10 10 9
0 13 5 10 10 -4 6 -15 8 -26 5 -21 -7 -27 10 -6 18 6 2 10 7 7 10 -3 3 -15 0
-28 -7z"/>
<path d="M1139 1963 c-1 -10 -1 -21 0 -25 2 -13 -23 -4 -36 12 -7 9 -12 10
-13 4 0 -6 7 -18 16 -25 14 -12 14 -14 -3 -20 -12 -5 -8 -7 14 -6 31 2 33 4
33 40 0 37 -9 53 -11 20z"/>
<path d="M2217 1971 c10 -11 10 -18 0 -30 -8 -10 -8 -13 0 -8 6 4 18 4 26 1
17 -6 30 -44 16 -44 -5 0 -9 7 -9 15 0 8 -7 15 -16 15 -13 0 -13 -4 4 -27 24
-36 34 -63 22 -63 -17 0 -11 -29 9 -39 16 -9 18 -7 15 24 -1 19 2 38 7 41 6 3
5 12 -3 22 -6 10 7 -1 30 -22 34 -33 39 -42 30 -55 -7 -9 0 -5 15 8 31 28 34
41 10 36 -11 -2 -47 25 -93 69 -41 39 -69 65 -63 57z"/>
<path d="M2600 1970 c0 -5 5 -10 10 -10 6 0 10 5 10 10 0 6 -4 10 -10 10 -5 0
-10 -4 -10 -10z"/>
<path d="M1245 1919 c-4 -6 -5 -12 -2 -15 2 -3 7 2 10 11 7 17 1 20 -8 4z"/>
<path d="M2680 1903 c0 -4 5 -15 10 -23 8 -13 10 -13 10 2 0 9 -4 20 -10 23
-5 3 -10 3 -10 -2z"/>
<path d="M2796 1898 c45 -76 100 -135 146 -159 20 -10 42 -27 47 -36 9 -16 10
-16 11 -1 0 9 -14 27 -30 40 -74 56 -103 84 -131 125 -17 23 -35 43 -40 43 -6
0 -7 -6 -3 -12z"/>
<path d="M1196 1885 c4 -8 8 -15 10 -15 2 0 4 7 4 15 0 8 -4 15 -10 15 -5 0
-7 -7 -4 -15z"/>
<path d="M1232 1884 c10 -10 20 -15 24 -12 3 4 -5 12 -18 18 -22 12 -22 12 -6
-6z"/>
<path d="M1394 1874 c-19 -21 -22 -38 -23 -130 -1 -58 -4 -111 -8 -119 -3 -8
0 -15 6 -15 6 0 11 12 11 26 0 19 4 25 15 21 8 -4 17 -1 21 5 4 7 3 8 -4 4 -9
-5 -12 10 -13 51 0 32 -1 77 -2 100 -2 32 1 39 11 31 9 -8 11 -7 7 5 -4 8 -2
18 4 22 12 7 15 25 4 24 -5 0 -18 -11 -29 -25z"/>
<path d="M1130 1881 c0 -6 4 -12 8 -15 5 -3 9 1 9 9 0 8 -4 15 -9 15 -4 0 -8
-4 -8 -9z"/>
<path d="M1438 1862 c-2 -18 -1 -35 4 -38 15 -9 17 -1 9 36 l-7 35 -6 -33z"/>
<path d="M1033 1860 c-32 -13 -29 -22 5 -14 22 4 24 3 12 -6 -10 -8 -11 -10
-2 -8 8 2 13 8 12 13 -1 5 7 12 17 16 17 7 16 8 -2 8 -11 0 -30 -4 -42 -9z"/>
<path d="M1345 1860 c3 -5 8 -10 11 -10 2 0 4 5 4 10 0 6 -5 10 -11 10 -5 0
-7 -4 -4 -10z"/>
<path d="M1175 1850 c-3 -6 1 -7 9 -4 18 7 21 14 7 14 -6 0 -13 -4 -16 -10z"/>
<path d="M1320 1850 c0 -5 5 -10 11 -10 5 0 7 5 4 10 -3 6 -8 10 -11 10 -2 0
-4 -4 -4 -10z"/>
<path d="M1477 1840 c-3 -10 1 -26 7 -36 10 -13 12 -10 8 20 -5 41 -8 44 -15
16z"/>
<path d="M1872 1840 c-7 -11 -17 -20 -23 -20 -5 0 -7 5 -3 12 4 7 3 8 -5 4 -6
-4 -9 -11 -6 -16 3 -5 1 -11 -5 -15 -6 -4 -8 -11 -4 -16 3 -6 12 -3 21 8 13
16 13 16 3 -5 -7 -13 -9 -26 -6 -29 2 -3 1 -16 -5 -30 -5 -13 -6 -35 -3 -47 4
-18 11 -22 31 -18 23 4 24 8 17 41 -8 40 -10 112 -3 109 2 -1 15 4 28 11 19
10 21 15 10 22 -22 13 -33 11 -47 -11z"/>
<path d="M2728 1853 c-22 -5 -23 -17 -4 -32 10 -8 16 -9 21 -1 3 5 0 10 -7 11
-7 0 -4 4 6 8 23 9 9 19 -16 14z"/>
<path d="M2302 1824 c2 -15 8 -29 14 -31 7 -2 10 6 6 22 -6 35 -24 44 -20 9z"/>
<path d="M1792 1828 c-7 -7 -12 -20 -12 -29 0 -10 -5 -21 -11 -25 -8 -4 -9 1
-4 17 11 34 0 21 -18 -23 -15 -35 -15 -36 8 -41 21 -3 23 -1 15 14 -8 14 -5
21 12 33 12 9 19 18 15 22 -3 4 -2 15 4 25 11 22 8 24 -9 7z"/>
<path d="M1141 1814 c0 -11 3 -14 6 -6 3 7 2 16 -1 19 -3 4 -6 -2 -5 -13z"/>
<path d="M1414 1804 c2 -14 8 -29 15 -34 7 -4 11 -17 9 -30 -2 -15 5 -28 20
-38 22 -15 22 -14 11 14 -6 16 -13 43 -16 59 -6 34 -13 47 -13 22 0 -9 -4 -17
-9 -17 -5 0 -7 8 -4 19 3 10 0 22 -5 25 -7 4 -10 -4 -8 -20z"/>
<path d="M2593 1785 c-2 -59 11 -59 15 0 1 25 -1 45 -5 45 -4 0 -9 -20 -10
-45z"/>
<path d="M2810 1815 c0 -9 -10 -19 -22 -24 -16 -6 -18 -10 -8 -16 9 -5 15 -4
18 3 2 7 9 9 15 5 7 -3 9 -3 5 2 -4 4 -3 16 3 26 6 13 6 19 -1 19 -5 0 -10 -7
-10 -15z"/>
<path d="M1183 1795 c0 -8 4 -12 9 -9 5 3 6 10 3 15 -9 13 -12 11 -12 -6z"/>
<path d="M1225 1801 c-3 -5 -2 -12 3 -15 5 -3 9 1 9 9 0 17 -3 19 -12 6z"/>
<path d="M1060 1790 c-8 -5 -10 -10 -5 -10 6 0 17 5 25 10 8 5 11 10 5 10 -5
0 -17 -5 -25 -10z"/>
<path d="M1511 1783 c-1 -12 5 -25 12 -29 6 -4 9 -4 5 1 -4 4 -2 15 5 23 8 11
8 14 0 9 -6 -4 -14 -1 -16 5 -3 7 -6 3 -6 -9z"/>
<path d="M2835 1780 c3 -5 8 -10 11 -10 2 0 4 5 4 10 0 6 -5 10 -11 10 -5 0
-7 -4 -4 -10z"/>
<path d="M1239 1768 c-5 -16 -4 -46 2 -42 4 2 7 13 6 24 -1 17 -5 26 -8 18z"/>
<path d="M1317 1760 c9 -9 9 -17 2 -26 -7 -9 -6 -12 5 -10 26 4 27 12 4 32
-13 10 -17 12 -11 4z"/>
<path d="M1534 1738 l-19 -23 23 19 c21 18 27 26 19 26 -2 0 -12 -10 -23 -22z"/>
<path d="M1696 1752 c-3 -5 1 -9 9 -9 8 0 12 4 9 9 -3 4 -7 8 -9 8 -2 0 -6 -4
-9 -8z"/>
<path d="M916 1734 c-5 -14 -4 -15 9 -4 17 14 19 20 6 20 -5 0 -12 -7 -15 -16z"/>
<path d="M1490 1740 c0 -5 5 -10 11 -10 5 0 7 5 4 10 -3 6 -8 10 -11 10 -2 0
-4 -4 -4 -10z"/>
<path d="M1568 1732 c-3 -10 1 -27 8 -37 12 -17 14 -17 14 -2 0 9 5 17 10 17
6 0 10 -10 10 -22 0 -12 3 -19 6 -15 10 10 -5 58 -16 52 -6 -3 -10 1 -10 9 0
22 -17 20 -22 -2z"/>
<path d="M1964 1715 c-10 -8 -27 -15 -36 -15 -25 0 -43 -37 -27 -56 6 -8 19
-14 28 -14 14 1 14 2 -1 11 -22 12 -24 41 -3 33 9 -4 15 -1 15 7 0 10 3 10 12
1 10 -10 10 -15 -2 -22 -11 -7 -10 -9 8 -7 23 1 30 21 11 32 -6 5 -4 12 8 20
10 7 15 16 12 19 -3 3 -14 -1 -25 -9z"/>
<path d="M976 1712 c-3 -5 8 -6 25 -4 16 2 29 6 29 8 0 8 -49 4 -54 -4z"/>
<path d="M1120 1700 c-12 -8 -11 -10 7 -10 12 0 25 5 28 10 8 13 -15 13 -35 0z"/>
<path d="M1235 1700 c-3 -5 -1 -10 4 -10 6 0 11 5 11 10 0 6 -2 10 -4 10 -3 0
-8 -4 -11 -10z"/>
<path d="M1530 1696 c0 -8 4 -17 8 -20 4 -2 8 4 8 15 0 10 -4 19 -8 19 -4 0
-8 -6 -8 -14z"/>
<path d="M938 1693 c7 -3 16 -2 19 1 4 3 -2 6 -13 5 -11 0 -14 -3 -6 -6z"/>
<path d="M1048 1693 c6 -2 9 -10 6 -15 -4 -7 -2 -8 5 -4 13 9 5 26 -12 25 -9
0 -8 -2 1 -6z"/>
<path d="M978 1683 c7 -3 16 -2 19 1 4 3 -2 6 -13 5 -11 0 -14 -3 -6 -6z"/>
<path d="M1497 1671 c3 -12 1 -21 -6 -21 -6 0 -11 -4 -11 -10 0 -5 8 -6 17 -3
12 5 15 2 10 -10 -5 -14 -3 -15 18 -5 14 6 25 16 25 21 0 5 -6 4 -14 -2 -15
-13 -32 1 -22 18 3 5 -1 14 -8 20 -12 10 -13 8 -9 -8z"/>
<path d="M1563 1677 c4 -10 7 -21 7 -23 0 -3 5 -2 10 1 6 3 10 2 10 -4 0 -5
-4 -12 -9 -16 -6 -3 -9 -14 -8 -25 1 -10 5 -17 9 -14 4 3 4 12 1 21 -4 11 -3
14 5 9 7 -4 12 -13 12 -20 0 -7 8 -20 18 -29 17 -15 18 -14 20 10 1 15 7 32
12 37 6 6 10 17 10 26 -1 8 -10 -2 -21 -22 -21 -41 -34 -50 -24 -18 4 11 2 20
-4 20 -6 0 -8 7 -5 15 4 8 1 15 -4 15 -6 0 -19 8 -28 18 -17 16 -18 16 -11 -1z"/>
<path d="M923 1670 c-13 -5 -23 -14 -23 -20 0 -5 -5 -10 -11 -10 -5 0 -8 4 -4
9 3 5 1 12 -5 16 -6 4 -10 -5 -10 -20 0 -23 2 -24 20 -15 11 6 20 15 20 20 0
6 9 10 20 10 11 0 20 5 20 10 0 6 -1 10 -2 9 -2 0 -13 -4 -25 -9z"/>
<path d="M1100 1646 c-24 -13 -50 -22 -57 -19 -14 6 -73 -27 -73 -40 0 -5 11
-2 25 7 13 9 32 16 42 17 23 1 143 57 123 58 -8 0 -35 -10 -60 -23z"/>
<path d="M1211 1654 c0 -11 3 -14 6 -6 3 7 2 16 -1 19 -3 4 -6 -2 -5 -13z"/>
<path d="M2060 1661 c0 -17 18 -21 24 -6 3 9 0 15 -9 15 -8 0 -15 -4 -15 -9z"/>
<path d="M775 1638 c11 -15 24 -28 28 -28 15 0 1 23 -23 39 l-24 16 19 -27z"/>
<path d="M1325 1650 c-3 -5 -1 -10 4 -10 6 0 11 5 11 10 0 6 -2 10 -4 10 -3 0
-8 -4 -11 -10z"/>
<path d="M834 1642 c-6 -4 -15 -18 -19 -32 -12 -37 -36 -71 -46 -64 -5 3 -6
11 -3 17 4 7 4 9 0 5 -4 -3 -24 5 -43 18 -55 37 -143 27 -143 -16 0 -12 -4
-19 -9 -15 -5 3 -13 0 -17 -6 -4 -8 -3 -9 4 -5 15 9 15 -9 0 -37 -14 -25 -14
-27 -23 -172 -4 -60 -9 -113 -12 -117 -2 -5 0 -8 5 -8 9 0 22 114 22 190 0 46
35 158 57 182 29 32 103 18 145 -29 16 -18 19 -65 5 -80 -4 -3 -7 -16 -7 -27
0 -15 -3 -17 -9 -8 -6 11 -14 6 -31 -18 -38 -53 -34 -25 4 33 43 64 44 76 12
106 -30 28 -93 33 -110 9 -19 -26 -44 -152 -54 -265 -7 -88 -13 -108 -37 -145
-34 -50 -64 -77 -85 -78 -8 0 -1 9 15 20 17 11 26 20 20 20 -19 -1 -54 -35
-47 -47 14 -23 68 13 107 72 36 54 38 61 45 168 12 180 43 259 98 249 52 -10
65 -42 34 -83 -60 -78 -65 -97 -68 -244 -3 -105 -1 -135 7 -122 6 11 8 36 5
62 -4 23 -2 64 5 89 8 33 9 54 1 70 -11 24 2 61 18 51 5 -3 18 6 29 21 11 14
24 23 29 20 13 -7 34 18 30 35 -2 8 3 13 11 11 11 -2 12 0 4 10 -14 17 28 95
48 89 21 -7 119 -4 126 3 18 18 -60 25 -109 10 -13 -4 -18 0 -18 15 0 11 5 23
12 27 7 5 8 3 3 -6 -5 -8 -4 -11 3 -6 6 4 9 13 5 21 -6 17 -5 17 -19 7z"/>
<path d="M1137 1634 c-15 -8 -25 -19 -23 -23 3 -4 -6 -13 -19 -19 -15 -7 -26
-8 -30 -2 -4 6 -11 10 -16 10 -6 0 -4 -7 5 -15 14 -14 19 -14 55 5 22 11 48
17 58 14 11 -4 14 -3 7 3 -6 4 -10 16 -8 26 1 9 2 17 1 17 -1 -1 -15 -8 -30
-16z m13 -14 c-8 -5 -19 -10 -25 -10 -5 0 -3 5 5 10 8 5 20 10 25 10 6 0 3 -5
-5 -10z"/>
<path d="M1830 1640 c0 -5 4 -10 9 -10 6 0 13 5 16 10 3 6 -1 10 -9 10 -9 0
-16 -4 -16 -10z"/>
<path d="M1870 1646 c0 -2 8 -10 18 -17 15 -13 16 -12 3 4 -13 16 -21 21 -21
13z"/>
<path d="M618 1623 c7 -3 16 -2 19 1 4 3 -2 6 -13 5 -11 0 -14 -3 -6 -6z"/>
<path d="M680 1620 c8 -5 22 -10 30 -10 13 0 13 1 0 10 -8 5 -22 10 -30 10
-13 0 -13 -1 0 -10z"/>
<path d="M1660 1610 c-13 -24 -8 -36 18 -42 12 -4 18 1 19 13 1 11 -5 19 -14
19 -9 0 -13 6 -9 15 8 22 -2 18 -14 -5z m25 -28 c-3 -3 -11 0 -18 7 -9 10 -8
11 6 5 10 -3 15 -9 12 -12z"/>
<path d="M1389 1615 c-3 -5 -9 -23 -13 -38 -4 -15 -11 -25 -17 -22 -5 4 -9 3
-8 -2 1 -4 1 -10 -1 -13 -1 -3 -3 -15 -6 -27 -3 -18 1 -23 19 -24 16 -1 18 -2
5 -6 -23 -6 -22 -37 2 -91 15 -32 17 -49 10 -68 -6 -14 -10 -26 -10 -28 0 -1
9 -2 20 -2 13 0 16 4 10 10 -6 6 -10 17 -10 25 0 10 7 8 25 -9 14 -13 24 -29
21 -36 -3 -7 -2 -15 2 -19 4 -4 7 -10 8 -13 0 -4 4 -22 8 -40 5 -22 4 -38 -5
-50 -7 -9 -10 -14 -5 -10 4 4 19 -6 32 -21 20 -25 23 -39 25 -128 1 -96 2
-100 23 -98 31 4 31 4 10 19 -24 18 -14 29 20 20 21 -5 26 -12 26 -36 0 -16 4
-27 10 -23 5 3 17 -6 26 -20 9 -14 23 -25 31 -25 12 0 13 3 4 14 -15 18 -11
65 6 59 7 -3 13 0 13 6 0 6 -6 11 -12 12 -7 0 -21 2 -31 4 -16 3 -17 -1 -12
-28 6 -25 5 -30 -5 -20 -19 17 -22 76 -4 69 8 -3 14 0 14 6 0 6 9 3 19 -6 13
-12 25 -15 35 -9 14 8 13 13 -9 45 -13 19 -21 39 -17 43 4 5 2 5 -5 1 -7 -4
-9 -14 -6 -24 3 -9 3 -14 -2 -10 -4 4 -15 2 -23 -5 -13 -10 -14 -9 -8 1 4 7 1
15 -8 18 -9 3 -16 11 -16 17 0 5 9 2 20 -8 19 -18 20 -17 20 3 0 14 -6 22 -18
22 -11 0 -22 13 -30 38 -24 70 -24 81 -2 79 24 -2 24 -1 8 -28 -11 -17 -10
-23 0 -26 6 -3 10 -9 7 -14 -4 -5 2 -6 12 -2 16 6 17 5 3 -13 -14 -18 -14 -18
4 -4 18 14 18 15 -3 28 -23 16 -28 33 -8 28 6 -1 9 -1 5 1 -5 3 -3 13 2 23 7
13 5 21 -6 31 -9 7 -14 25 -12 43 2 24 -1 31 -14 30 -10 -1 -14 4 -11 12 3 8
9 11 14 8 5 -3 6 2 3 10 -4 10 -1 16 7 16 8 0 6 5 -6 13 -12 10 -14 16 -7 21
7 4 12 17 12 29 l-1 22 -12 -22 c-7 -12 -15 -22 -20 -22 -4 0 -11 -1 -15 -4
-4 -2 -1 -2 6 -1 6 2 13 -2 13 -9 4 -35 -4 -88 -15 -106 -3 -4 -7 -25 -10 -45
-3 -26 -1 -36 9 -36 9 0 12 -10 10 -30 -3 -20 0 -28 7 -24 6 4 9 1 6 -7 -3 -8
1 -28 9 -46 15 -38 17 -93 3 -93 -5 0 -10 5 -10 11 0 6 -7 9 -15 6 -21 -9 -24
1 -29 99 -6 97 -13 146 -24 154 -4 3 -13 13 -21 23 -12 16 -12 17 5 11 17 -5
17 -4 -1 7 -30 18 -31 19 -15 29 10 7 11 10 3 10 -7 0 -13 7 -13 15 0 8 -5 14
-12 13 -7 -2 -12 3 -13 10 0 7 -7 17 -15 22 -8 5 -12 10 -8 10 4 0 1 17 -6 37
-9 26 -10 51 -4 85 10 52 7 140 -3 123z m-7 -97 c-12 -12 -35 -1 -26 13 3 5
10 7 15 3 5 -3 9 -2 8 3 -3 18 4 27 8 9 3 -10 0 -23 -5 -28z m181 -287 c-2
-10 2 -25 11 -33 8 -9 12 -18 9 -22 -3 -3 -12 2 -20 12 -7 9 -13 13 -12 7 3
-20 -1 -26 -11 -20 -8 5 -8 11 0 20 6 7 10 17 9 21 -3 19 1 34 10 34 5 0 7 -8
4 -19z m-66 -61 c1 -11 -2 -20 -7 -20 -6 0 -10 6 -10 14 0 8 -3 23 -6 33 -6
15 -4 16 6 6 8 -7 15 -22 17 -33z m160 -183 c14 -14 11 -36 -4 -30 -12 5 -12
7 -1 14 9 6 7 9 -9 9 -13 0 -23 4 -23 9 0 10 26 9 37 -2z"/>
<path d="M439 1595 c-15 -8 -29 -22 -33 -32 -5 -16 -5 -16 6 -2 7 9 27 23 43
32 17 9 26 16 20 16 -5 0 -22 -6 -36 -14z"/>
<path d="M1430 1595 c-11 -13 -10 -14 4 -9 9 3 16 10 16 15 0 13 -6 11 -20 -6z"/>
<path d="M1515 1590 c-3 -5 -1 -10 4 -10 6 0 11 5 11 10 0 6 -2 10 -4 10 -3 0
-8 -4 -11 -10z"/>
<path d="M1540 1586 c0 -8 -6 -17 -12 -19 -8 -3 -6 -6 5 -6 11 -1 17 6 17 19
0 11 -2 20 -5 20 -3 0 -5 -6 -5 -14z"/>
<path d="M2085 1590 c-3 -5 -1 -10 4 -10 6 0 11 5 11 10 0 6 -2 10 -4 10 -3 0
-8 -4 -11 -10z"/>
<path d="M991 1561 c-8 -5 -20 -7 -28 -4 -7 3 -13 0 -13 -5 0 -12 21 -9 60 7
14 5 18 10 10 10 -8 0 -21 -3 -29 -8z"/>
<path d="M1231 1562 c-1 -7 -14 -27 -31 -45 -16 -18 -30 -36 -30 -41 0 -4 -7
-5 -16 -2 -9 4 -27 -1 -40 -9 -13 -9 -24 -13 -24 -9 0 3 -16 -4 -36 -17 -35
-21 -38 -21 -49 -5 -9 11 -15 13 -20 6 -3 -5 -11 -8 -16 -4 -14 8 -7 38 10 45
10 4 11 8 3 13 -13 8 -52 -27 -52 -46 0 -10 2 -10 9 0 7 11 9 11 14 -2 4 -9
-1 -16 -11 -19 -15 -4 -14 -5 2 -6 15 -1 16 -4 6 -16 -9 -11 -16 -12 -25 -5
-10 8 -24 -5 -59 -51 -25 -33 -46 -65 -46 -71 0 -5 -5 -6 -10 -3 -6 4 -10 3
-9 -2 4 -21 -2 -25 -14 -8 -11 14 -16 15 -22 5 -5 -8 -4 -11 2 -7 12 8 22 -12
16 -30 -3 -7 -9 -13 -15 -13 -6 0 -8 7 -4 15 8 21 -1 19 -13 -4 -18 -32 22
-20 57 19 17 19 32 29 32 22 0 -8 5 -10 12 -6 15 10 48 13 48 5 0 -3 -7 -15
-15 -25 -14 -18 -20 -15 -15 9 1 6 -4 4 -12 -3 -10 -10 -10 -15 -1 -20 9 -5
-11 -35 -63 -95 -59 -69 -80 -87 -95 -82 -29 10 -23 -3 11 -20 21 -11 28 -12
25 -3 -3 7 20 40 51 73 30 33 62 73 70 88 9 17 21 26 29 23 9 -3 12 0 9 8 -3
7 13 36 36 64 22 28 40 55 40 60 0 5 6 15 14 22 12 9 15 8 13 -9 -1 -12 -6
-21 -11 -21 -5 0 -7 -3 -3 -6 8 -8 47 5 47 16 0 5 -8 6 -17 3 -15 -6 -16 -4
-6 8 17 21 -21 46 -43 28 -9 -7 -14 -8 -14 -1 0 14 41 43 51 36 5 -2 6 -11 2
-19 -3 -11 -1 -13 10 -9 8 3 18 0 22 -5 3 -6 11 -9 16 -5 5 3 7 10 3 15 -3 5
-10 7 -15 4 -5 -4 -9 -2 -9 3 0 9 43 32 60 32 6 0 10 -7 10 -15 0 -13 3 -13
20 -3 11 7 20 16 20 19 0 4 -9 5 -20 2 -27 -7 -25 6 3 16 15 6 27 4 40 -7 15
-14 17 -14 17 1 0 10 5 17 10 17 6 0 10 6 10 14 0 7 9 25 21 40 11 14 18 32
16 39 -4 9 -6 9 -6 -1z m-264 -180 c24 19 14 -3 -23 -54 -27 -36 -39 -46 -45
-36 -7 10 -9 10 -9 1 0 -7 -5 -13 -11 -13 -6 0 -1 17 11 38 l22 37 -36 -40
c-46 -51 -47 -34 -1 24 19 24 35 48 35 53 0 5 10 2 22 -6 16 -11 25 -13 35 -4z"/>
<path d="M915 1370 c-3 -5 -1 -10 4 -10 6 0 11 5 11 10 0 6 -2 10 -4 10 -3 0
-8 -4 -11 -10z"/>
<path d="M924 1338 l-19 -23 23 19 c21 18 27 26 19 26 -2 0 -12 -10 -23 -22z"/>
<path d="M446 1526 c-19 -40 -20 -46 -5 -46 5 0 8 4 5 8 -3 5 2 21 10 37 8 15
13 30 10 32 -2 2 -11 -12 -20 -31z"/>
<path d="M524 1549 c-4 -7 -8 -26 -10 -43 -3 -22 -1 -27 5 -16 6 8 8 18 5 22
-3 4 0 17 6 28 11 21 6 28 -6 9z"/>
<path d="M817 1546 c-4 -10 -1 -13 9 -9 7 3 14 9 14 14 0 14 -17 10 -23 -5z"/>
<path d="M1150 1549 c0 -5 5 -7 10 -4 6 3 10 8 10 11 0 2 -4 4 -10 4 -5 0 -10
-5 -10 -11z"/>
<path d="M1665 1549 c-4 -6 -14 -8 -22 -5 -10 4 -13 2 -10 -6 2 -7 12 -40 22
-73 9 -33 20 -67 25 -75 4 -8 13 -39 19 -67 7 -29 17 -50 23 -47 5 3 7 12 4
20 -3 8 0 11 9 7 8 -3 13 -9 10 -13 -4 -6 67 -6 105 0 3 0 -2 5 -10 10 -8 6
-26 8 -40 5 -14 -2 -40 4 -60 15 -29 16 -31 19 -13 20 12 0 24 -4 28 -9 3 -6
24 -9 46 -8 47 2 48 0 79 -94 15 -46 26 -67 33 -60 5 5 17 7 26 4 13 -4 14 -3
1 5 -8 6 -18 8 -22 6 -4 -3 -9 11 -9 30 -2 48 -2 46 -24 83 -10 18 -23 29 -29
26 -5 -4 -7 1 -3 11 5 12 3 15 -6 9 -21 -13 -69 -11 -106 5 -25 11 -31 17 -19
19 9 3 26 -1 37 -6 20 -11 79 -15 69 -5 -4 3 -17 7 -30 9 -78 13 -108 29 -108
57 0 8 -6 20 -12 27 -10 11 -10 13 0 7 6 -4 12 -3 12 2 0 6 7 12 14 15 10 4
13 1 9 -9 -3 -7 0 -14 6 -14 6 0 11 7 11 16 0 10 6 14 14 11 8 -3 20 0 26 8
10 12 8 13 -12 9 -12 -3 -32 -6 -42 -5 -11 0 -28 -5 -39 -10 -14 -8 -18 -8
-12 0 4 7 1 18 -5 26 -8 10 -9 15 -2 15 6 0 14 -4 17 -10 10 -16 31 -12 41 9
7 14 14 16 29 10 18 -7 18 -8 -5 -8 -19 -1 -21 -4 -11 -10 19 -12 43 -2 37 15
-6 16 10 19 19 4 8 -14 25 -13 25 2 0 6 -3 8 -7 5 -3 -4 -12 1 -20 11 -10 12
-16 14 -19 5 -3 -7 -13 -13 -22 -13 -15 0 -15 2 -2 10 8 5 10 10 5 10 -6 0
-16 -5 -22 -11 -8 -8 -17 -8 -31 0 -15 8 -23 8 -27 0z m30 -20 c11 -17 -1 -21
-15 -4 -8 9 -8 15 -2 15 6 0 14 -5 17 -11z"/>
<path d="M917 1529 c6 -23 9 -24 16 -5 3 8 0 17 -7 19 -10 4 -12 -1 -9 -14z"/>
<path d="M1106 1541 c-4 -5 3 -7 14 -4 23 6 26 13 6 13 -8 0 -17 -4 -20 -9z"/>
<path d="M1830 1543 c1 -5 19 -17 42 -28 29 -14 43 -27 45 -43 2 -15 -1 -21
-8 -16 -7 4 -7 -1 1 -16 19 -35 186 -198 223 -216 17 -9 45 -27 60 -40 33 -28
47 -30 47 -8 0 11 -6 14 -21 9 -15 -5 -19 -4 -15 4 4 6 4 11 -1 11 -4 0 -9 14
-10 31 -3 38 -10 46 -25 31 -18 -18 -41 -15 -34 4 3 8 2 13 -3 10 -5 -3 -22 1
-37 9 -22 11 -25 15 -12 20 9 4 26 2 37 -4 12 -7 22 -8 26 -1 8 13 -38 24 -66
15 -16 -5 -19 -4 -14 6 6 9 3 11 -9 6 -9 -4 -15 -3 -11 2 5 9 -43 55 -67 64
-23 8 8 30 43 29 42 -1 31 8 -14 11 -20 2 -35 -1 -34 -6 4 -21 -20 -16 -32 7
-10 18 -10 28 -1 45 9 18 9 22 -3 19 -8 -2 -23 7 -33 18 -19 22 -74 42 -74 27z
m355 -321 c-1 -1 -10 0 -19 4 -13 5 -14 9 -4 21 10 13 13 13 19 -4 3 -10 5
-19 4 -21z"/>
<path d="M1005 1531 c-18 -7 -17 -8 7 -14 24 -6 78 6 78 18 0 2 -12 0 -26 -5
-33 -13 -54 -13 -34 0 18 11 3 12 -25 1z"/>
<path d="M1514 1529 c-4 -7 -3 -9 4 -5 5 3 13 0 15 -6 4 -9 6 -10 6 -1 1 17
-16 25 -25 12z"/>
<path d="M1931 1524 c0 -11 3 -14 6 -6 3 7 2 16 -1 19 -3 4 -6 -2 -5 -13z"/>
<path d="M1131 1516 l-24 -14 23 -7 c15 -5 25 -3 31 6 19 31 8 36 -30 15z"/>
<path d="M1602 1505 c0 -16 2 -22 5 -12 2 9 2 23 0 30 -3 6 -5 -1 -5 -18z"/>
<path d="M395 1509 c-4 -6 -5 -12 -2 -15 2 -3 7 2 10 11 7 17 1 20 -8 4z"/>
<path d="M870 1500 c6 -11 12 -20 14 -20 2 0 2 9 -1 20 -3 11 -9 20 -15 20 -5
0 -4 -9 2 -20z"/>
<path d="M1835 1510 c3 -5 8 -10 11 -10 2 0 4 5 4 10 0 6 -5 10 -11 10 -5 0
-7 -4 -4 -10z"/>
<path d="M840 1500 c0 -5 5 -10 11 -10 5 0 7 5 4 10 -3 6 -8 10 -11 10 -2 0
-4 -4 -4 -10z"/>
<path d="M1225 1500 c3 -5 8 -10 11 -10 2 0 4 5 4 10 0 6 -5 10 -11 10 -5 0
-7 -4 -4 -10z"/>
<path d="M1542 1498 c-7 -7 -12 -19 -12 -27 0 -14 -2 -14 -11 -1 -9 13 -10 13
-6 0 2 -8 12 -14 21 -12 16 3 19 -17 3 -29 -4 -3 -5 -13 -1 -22 12 -34 21 -16
20 43 -1 33 -1 60 -1 60 -1 0 -6 -5 -13 -12z"/>
<path d="M819 1498 c0 -2 -2 -11 -4 -21 -2 -10 -11 -27 -21 -38 -30 -33 -10
-27 23 8 22 22 27 33 17 33 -8 0 -12 5 -9 10 3 6 4 10 1 10 -3 0 -6 -1 -7 -2z"/>
<path d="M895 1470 c-29 -30 -58 -43 -35 -15 11 13 10 14 -1 10 -8 -3 -20 -15
-27 -26 -11 -17 -11 -20 0 -13 7 5 18 9 23 9 15 0 80 53 74 59 -3 3 -18 -8
-34 -24z"/>
<path d="M1085 1490 c27 -12 43 -12 25 0 -8 5 -22 9 -30 9 -10 0 -8 -3 5 -9z"/>
<path d="M1838 1493 c-10 -2 -18 -9 -18 -14 0 -6 5 -7 11 -3 6 3 3 -6 -7 -22
-21 -32 -21 -31 2 -48 13 -10 14 -15 4 -21 -9 -6 -11 -4 -5 5 5 9 4 11 -4 6
-6 -4 -9 -12 -5 -17 3 -5 9 -7 14 -4 4 3 11 -1 13 -7 3 -7 6 -1 6 14 1 14 -5
29 -11 32 -10 5 -10 7 0 12 6 3 12 14 12 25 0 17 3 18 20 9 17 -9 20 -8 20 9
0 15 -24 36 -33 30 -1 -1 -10 -3 -19 -6z"/>
<path d="M1004 1474 c-18 -14 -18 -15 4 -4 12 6 22 13 22 15 0 8 -5 6 -26 -11z"/>
<path d="M1266 1481 c-4 -7 -5 -15 -2 -18 9 -9 19 4 14 18 -4 11 -6 11 -12 0z"/>
<path d="M376 1465 c-9 -26 -7 -32 5 -12 6 10 9 21 6 23 -2 3 -7 -2 -11 -11z"/>
<path d="M1790 1472 c0 -5 -16 -15 -35 -22 -51 -20 -63 -37 -34 -48 50 -19 69
-23 68 -15 -1 4 0 10 1 13 1 3 3 12 5 20 2 8 7 25 11 38 4 13 2 22 -5 22 -6 0
-11 -4 -11 -8z m-15 -62 c7 -12 -12 -12 -40 0 -18 8 -17 9 7 9 15 1 30 -3 33
-9z"/>
<path d="M1232 1458 c-7 -7 -11 -21 -11 -32 1 -21 1 -21 6 -1 3 11 10 26 15
33 13 15 6 16 -10 0z"/>
<path d="M1590 1453 c-24 -14 -24 -14 -2 -10 12 3 22 2 22 -2 0 -3 8 -11 18
-18 15 -9 19 -8 19 3 0 8 -3 12 -5 9 -8 -8 -32 16 -26 26 6 11 5 11 -26 -8z"/>
<path d="M445 1448 c4 -11 2 -18 -4 -18 -13 0 -15 -46 -2 -54 5 -4 7 3 4 14
-3 11 0 27 7 35 10 13 11 18 1 28 -10 9 -11 8 -6 -5z"/>
<path d="M307 1423 c-4 -3 -7 -11 -7 -17 0 -6 5 -5 12 2 6 6 9 14 7 17 -3 3
-9 2 -12 -2z"/>
<path d="M1156 1415 c-3 -9 -6 -22 -5 -28 0 -7 5 -1 10 12 5 13 8 26 5 28 -2
2 -6 -3 -10 -12z"/>
<path d="M1890 1411 c0 -45 77 -128 144 -156 50 -21 57 -18 15 8 -61 38 -139
114 -139 135 0 12 -4 24 -10 27 -5 3 -10 -3 -10 -14z"/>
<path d="M268 1413 c7 -3 16 -2 19 1 4 3 -2 6 -13 5 -11 0 -14 -3 -6 -6z"/>
<path d="M317 1385 c-24 -50 -21 -68 4 -21 11 21 19 42 17 48 -2 5 -11 -7 -21
-27z"/>
<path d="M816 1391 c-26 -27 -27 -31 -13 -51 8 -12 18 -17 21 -12 3 6 -1 12
-9 16 -20 7 -19 26 2 26 9 0 13 3 10 7 -4 3 0 15 10 25 27 30 9 20 -21 -11z"/>
<path d="M1080 1387 c-25 -16 -35 -26 -22 -22 35 10 26 -10 -15 -31 -21 -10
-44 -25 -51 -31 -7 -7 -19 -13 -25 -13 -8 0 -7 -3 2 -9 11 -7 9 -12 -10 -22
-13 -7 -27 -12 -31 -11 -3 1 -9 -5 -12 -13 -3 -10 0 -12 12 -9 17 6 8 -4 -43
-42 -29 -22 2 -5 62 33 62 39 68 40 58 11 -3 -13 -8 -36 -11 -51 -2 -15 -8
-35 -12 -45 -16 -29 -4 -41 30 -32 49 15 79 50 42 50 -9 0 -14 -6 -11 -12 3
-8 -5 -14 -19 -14 -20 -2 -22 1 -14 16 6 10 10 38 10 62 0 33 3 39 11 28 8
-12 9 -11 4 6 -3 13 1 26 10 34 8 7 15 19 15 27 0 8 9 26 20 40 11 14 18 29
15 33 -3 5 6 12 20 17 14 5 21 12 17 19 -5 7 -22 1 -52 -19z m-42 -96 c-12
-22 -26 -37 -30 -35 -4 3 -18 -2 -30 -10 -36 -25 -46 -18 -13 9 17 13 26 25
20 25 -8 1 64 50 73 50 1 0 -8 -18 -20 -39z"/>
<path d="M1605 1410 c3 -5 8 -10 11 -10 2 0 4 5 4 10 0 6 -5 10 -11 10 -5 0
-7 -4 -4 -10z"/>
<path d="M2174 1411 c7 -11 46 -35 46 -28 0 3 -12 12 -26 22 -15 9 -23 12 -20
6z"/>
<path d="M211 1384 c-1 -32 -50 -87 -111 -127 -19 -12 -36 -32 -37 -42 -3 -17
-1 -16 7 3 5 12 17 22 27 22 10 0 35 16 56 35 21 19 40 35 43 35 12 0 1 -21
-25 -49 -16 -17 -24 -31 -17 -31 6 0 22 18 36 40 24 38 48 56 37 26 -5 -11 -1
-11 24 1 16 8 29 19 29 24 0 18 -19 47 -36 53 -15 6 -15 4 1 -20 19 -29 14
-39 -21 -39 -28 -1 -30 3 -9 19 11 8 13 18 6 41 -7 22 -10 24 -10 9z"/>
<path d="M380 1374 c-11 -27 -13 -51 -5 -42 8 8 25 68 19 68 -2 0 -9 -12 -14
-26z"/>
<path d="M709 1383 c-13 -16 -12 -17 4 -4 16 13 21 21 13 21 -2 0 -10 -8 -17
-17z"/>
<path d="M851 1374 c-13 -13 -19 -24 -14 -24 12 0 48 38 42 44 -2 3 -15 -6
-28 -20z"/>
<path d="M1203 1370 c-4 -23 -9 -28 -18 -20 -9 8 -11 4 -7 -16 4 -21 7 -23 17
-12 14 14 31 78 21 78 -4 0 -9 -14 -13 -30z"/>
<path d="M1446 1385 c4 -8 11 -15 16 -15 6 0 5 6 -2 15 -7 8 -14 15 -16 15 -2
0 -1 -7 2 -15z"/>
<path d="M1591 1384 c0 -11 3 -14 6 -6 3 7 2 16 -1 19 -3 4 -6 -2 -5 -13z"/>
<path d="M1647 1385 c-4 -8 -3 -16 1 -19 4 -3 9 4 9 15 2 23 -3 25 -10 4z"/>
<path d="M1251 1373 c-6 -11 -11 -13 -11 -5 0 14 -20 7 -20 -8 0 -12 33 -5 38
8 2 7 9 9 14 6 7 -4 8 -2 4 4 -10 16 -13 15 -25 -5z"/>
<path d="M1475 1364 c-9 -15 -12 -23 -6 -20 11 7 35 46 28 46 -3 0 -12 -12
-22 -26z"/>
<path d="M2066 1381 c-4 -5 3 -15 15 -21 28 -15 34 -7 10 14 -12 11 -21 13
-25 7z"/>
<path d="M1862 1368 c2 -6 10 -14 16 -16 7 -2 10 2 6 12 -7 18 -28 22 -22 4z"/>
<path d="M670 1362 c0 -6 10 -18 22 -27 21 -14 24 -14 35 1 10 14 12 14 16 -3
4 -17 5 -17 6 0 0 10 6 15 11 12 6 -4 8 -11 4 -16 -3 -5 0 -8 8 -7 7 2 13 -4
12 -13 -1 -9 5 -16 12 -16 9 0 10 5 4 16 -21 35 -39 53 -48 47 -6 -3 -12 0
-15 6 -3 9 -7 8 -12 -4 -6 -16 -9 -16 -31 -1 -14 8 -24 11 -24 5z"/>
<path d="M1361 1344 c0 -11 3 -14 6 -6 3 7 2 16 -1 19 -3 4 -6 -2 -5 -13z"/>
<path d="M1613 1336 c0 -11 1 -15 4 -8 3 6 9 10 14 6 5 -3 9 -1 9 4 0 21 -26
19 -27 -2z"/>
<path d="M1585 1340 c-3 -5 -1 -10 4 -10 6 0 11 5 11 10 0 6 -2 10 -4 10 -3 0
-8 -4 -11 -10z"/>
<path d="M1657 1343 c-4 -3 -7 -20 -6 -37 0 -17 3 -25 6 -18 2 6 9 12 14 12 6
0 7 -5 3 -12 -4 -7 -3 -8 4 -4 6 4 9 13 6 21 -4 8 -9 13 -13 10 -4 -2 -8 3 -8
11 0 9 6 13 14 10 8 -3 11 -1 8 4 -7 12 -19 13 -28 3z"/>
<path d="M1136 1331 c-3 -5 1 -14 8 -20 12 -10 13 -8 9 8 -6 23 -9 25 -17 12z"/>
<path d="M1226 1324 c-5 -14 -4 -15 9 -4 17 14 19 20 6 20 -5 0 -12 -7 -15
-16z"/>
<path d="M1337 1321 c-4 -17 -3 -21 5 -13 5 5 8 16 6 23 -3 8 -7 3 -11 -10z"/>
<path d="M1880 1333 c1 -10 39 -60 40 -51 0 17 -21 58 -30 58 -5 0 -10 -3 -10
-7z"/>
<path d="M272 1284 c-12 -19 -19 -34 -14 -34 9 0 46 59 40 65 -2 2 -13 -12
-26 -31z"/>
<path d="M421 1304 c0 -11 3 -14 6 -6 3 7 2 16 -1 19 -3 4 -6 -2 -5 -13z"/>
<path d="M1620 1312 c-17 -8 -25 -32 -10 -32 6 0 10 5 10 11 0 5 4 8 8 5 5 -3
9 1 9 9 0 8 -1 15 -1 14 -1 0 -8 -3 -16 -7z"/>
<path d="M2310 1316 c0 -2 7 -7 16 -10 8 -3 12 -2 9 4 -6 10 -25 14 -25 6z"/>
<path d="M470 1300 c0 -5 5 -10 10 -10 6 0 10 5 10 10 0 6 -4 10 -10 10 -5 0
-10 -4 -10 -10z"/>
<path d="M725 1297 c10 -8 25 -12 33 -10 17 7 10 13 -24 19 -27 5 -28 4 -9 -9z"/>
<path d="M1247 1303 c-4 -3 -7 -11 -7 -17 0 -6 5 -5 12 2 6 6 9 14 7 17 -3 3
-9 2 -12 -2z"/>
<path d="M351 1292 c-1 -7 -6 -10 -12 -7 -6 4 -5 -3 3 -14 10 -17 14 -18 16
-6 2 8 1 21 -1 28 -4 9 -6 9 -6 -1z"/>
<path d="M1295 1290 c-3 -5 -1 -10 4 -10 6 0 11 5 11 10 0 6 -2 10 -4 10 -3 0
-8 -4 -11 -10z"/>
<path d="M1930 1292 c0 -4 7 -17 15 -28 8 -10 15 -29 15 -41 0 -29 10 -53 21
-53 6 0 5 8 -1 19 -9 18 -7 19 35 17 24 -1 42 1 39 6 -3 4 -14 8 -25 8 -10 0
-19 3 -19 8 0 10 -80 75 -80 64z"/>
<path d="M2160 1289 c0 -5 5 -7 10 -4 6 3 10 8 10 11 0 2 -4 4 -10 4 -5 0 -10
-5 -10 -11z"/>
<path d="M2310 1280 c-18 -12 -2 -12 25 0 13 6 15 9 5 9 -8 0 -22 -4 -30 -9z"/>
<path d="M710 1267 c0 -7 9 -13 20 -13 11 0 20 1 20 3 0 1 -9 7 -20 13 -15 8
-20 8 -20 -3z"/>
<path d="M1516 1257 c3 -10 9 -15 12 -12 3 3 0 11 -7 18 -10 9 -11 8 -5 -6z"/>
<path d="M1598 1252 c-4 -12 -2 -24 2 -27 13 -8 18 8 10 29 -6 19 -7 19 -12
-2z"/>
<path d="M1633 1253 c0 -7 4 -13 9 -13 4 0 8 5 8 11 0 6 9 8 20 4 12 -4 20 -2
20 4 0 6 -13 10 -28 9 -16 -1 -29 -8 -29 -15z"/>
<path d="M1716 1254 c-21 -20 -46 -27 -46 -13 0 5 -9 4 -19 -3 -21 -13 -35
-48 -20 -48 5 0 9 6 9 14 0 8 7 17 16 20 14 5 15 4 4 -9 -7 -9 -8 -15 -2 -15
6 0 13 -8 15 -17 4 -15 5 -15 6 2 1 17 3 18 11 5 7 -12 10 -8 11 15 l1 30 10
-30 c5 -16 10 -38 10 -47 -1 -14 2 -15 13 -5 7 6 10 13 5 15 -4 1 -5 14 -2 27
2 15 0 25 -7 25 -6 0 -11 8 -11 18 1 15 3 15 18 -4 9 -11 22 -22 27 -23 32
-11 35 -15 30 -35 -5 -17 -4 -18 4 -6 6 8 11 22 11 31 0 11 8 15 25 14 16 -2
25 2 25 10 0 10 -7 12 -27 6 -40 -10 -85 1 -93 23 -6 18 -7 18 -24 0z"/>
<path d="M1750 1260 c0 -15 42 -23 50 -10 4 7 17 10 29 7 12 -3 19 -1 16 3 -7
11 -95 11 -95 0z"/>
<path d="M396 1247 c3 -10 9 -15 12 -12 3 3 0 11 -7 18 -10 9 -11 8 -5 -6z"/>
<path d="M1050 1250 c0 -5 5 -10 11 -10 5 0 7 5 4 10 -3 6 -8 10 -11 10 -2 0
-4 -4 -4 -10z"/>
<path d="M1417 1245 c-4 -8 -3 -16 1 -19 4 -3 9 4 9 15 2 23 -3 25 -10 4z"/>
<path d="M1919 1242 c6 -12 9 -28 5 -34 -4 -7 -3 -8 4 -4 17 10 15 31 -5 47
-15 13 -15 12 -4 -9z"/>
<path d="M2214 1248 c3 -15 26 -23 26 -8 0 6 -4 9 -9 6 -5 -4 -12 -1 -14 4 -3
6 -4 5 -3 -2z"/>
<path d="M2325 1250 c3 -5 8 -10 11 -10 2 0 4 5 4 10 0 6 -5 10 -11 10 -5 0
-7 -4 -4 -10z"/>
<path d="M321 1236 c-10 -11 -9 -14 1 -12 14 2 23 15 15 22 -2 2 -10 -2 -16
-10z"/>
<path d="M718 1233 c-23 -6 -23 -19 -1 -27 10 -4 14 -4 10 0 -4 4 -2 13 4 21
6 7 10 12 8 12 -2 -1 -12 -3 -21 -6z"/>
<path d="M1101 1224 c0 -11 3 -14 6 -6 3 7 2 16 -1 19 -3 4 -6 -2 -5 -13z"/>
<path d="M1129 1234 c6 -3 7 -14 1 -29 -6 -15 -6 -27 0 -30 6 -4 10 -1 10 6 0
6 8 18 18 26 16 14 16 14 0 9 -10 -3 -17 0 -15 6 1 6 -4 12 -11 14 -7 1 -8 0
-3 -2z"/>
<path d="M1179 1209 c-22 -23 -23 -27 -8 -26 10 1 16 3 14 6 -3 2 2 13 12 23
26 29 11 26 -18 -3z"/>
<path d="M190 1219 c0 -5 5 -7 10 -4 6 3 10 8 10 11 0 2 -4 4 -10 4 -5 0 -10
-5 -10 -11z"/>
<path d="M2266 1221 c-3 -5 1 -14 8 -20 12 -10 13 -8 9 8 -6 23 -9 25 -17 12z"/>
<path d="M110 1210 c19 -13 30 -13 30 0 0 6 -10 10 -22 10 -19 0 -20 -2 -8
-10z"/>
<path d="M800 1211 c0 -6 4 -13 10 -16 6 -3 7 1 4 9 -7 18 -14 21 -14 7z"/>
<path d="M2080 1213 c8 -3 19 -11 23 -17 6 -7 7 -6 4 4 -2 8 -12 16 -23 17
-13 2 -15 1 -4 -4z"/>
<path d="M160 1202 c0 -5 -12 -14 -26 -21 -21 -9 -30 -9 -42 1 -13 11 -14 10
-4 -9 10 -19 8 -24 -14 -42 -34 -27 -19 -27 24 -1 18 11 30 25 27 30 -3 6 1
10 9 10 21 0 20 -20 -1 -36 -17 -12 -17 -12 2 -9 11 2 26 4 33 4 6 1 12 9 12
19 0 15 -2 15 -11 2 -8 -11 -9 -5 -4 23 3 20 3 37 0 37 -3 0 -5 -4 -5 -8z"/>
<path d="M213 1187 c-13 -10 -23 -23 -23 -29 0 -6 8 -4 18 5 23 21 35 11 21
-17 -10 -20 -9 -20 5 -2 9 10 13 23 10 27 -5 8 25 28 38 26 3 -1 9 0 12 3 15
15 -61 2 -81 -13z"/>
<path d="M1871 1190 c0 -14 4 -32 9 -40 9 -13 10 -13 9 0 -1 8 -5 26 -9 40
l-8 25 -1 -25z"/>
<path d="M429 1183 c-13 -16 -12 -17 4 -4 9 7 17 15 17 17 0 8 -8 3 -21 -13z"/>
<path d="M704 1192 c4 -7 1 -15 -8 -18 -9 -3 -16 -11 -16 -16 0 -6 7 -4 17 3
9 8 24 13 33 11 10 -2 20 4 23 13 7 17 -8 21 -18 5 -5 -8 -12 -7 -23 2 -12 10
-14 10 -8 0z"/>
<path d="M930 1189 c-12 -8 -10 -9 8 -4 12 3 22 5 22 3 0 -2 -36 -31 -80 -63
-43 -33 -77 -61 -75 -64 5 -5 50 24 73 47 37 36 92 72 92 61 0 -7 3 -9 6 -6 7
7 -14 37 -25 37 -3 0 -13 -5 -21 -11z"/>
<path d="M1436 1187 c3 -10 9 -15 12 -12 3 3 0 11 -7 18 -10 9 -11 8 -5 -6z"/>
<path d="M1768 1180 c2 -8 6 -43 9 -77 3 -34 9 -60 13 -58 4 2 5 -7 2 -20 -6
-31 6 -33 17 -3 5 13 4 35 -1 51 -12 33 -2 70 12 47 9 -13 10 -13 9 0 0 8 -4
24 -9 35 -8 19 -9 19 -9 -2 -1 -33 -16 -28 -33 10 -8 17 -12 25 -10 17z"/>
<path d="M1382 1185 c3 -3 16 -8 28 -10 12 -2 20 -1 16 2 -4 4 -16 8 -28 10
-12 2 -19 1 -16 -2z"/>
<path d="M1836 1175 c-3 -8 -1 -15 4 -15 6 0 10 7 10 15 0 8 -2 15 -4 15 -2 0
-6 -7 -10 -15z"/>
<path d="M360 1165 c-7 -8 -8 -15 -2 -15 5 0 15 7 22 15 7 8 8 15 2 15 -5 0
-15 -7 -22 -15z"/>
<path d="M727 1129 c-26 -28 -45 -54 -43 -57 3 -3 15 7 26 21 12 15 27 26 33
24 7 -1 11 4 9 12 -2 7 5 22 14 32 9 11 15 19 13 19 -3 0 -26 -23 -52 -51z"/>
<path d="M1630 1165 c-6 -8 -10 -22 -7 -32 4 -14 5 -13 6 5 1 25 11 28 30 10
11 -11 11 -9 2 10 -14 26 -15 26 -31 7z"/>
<path d="M2043 1164 c-17 -7 -35 -19 -39 -26 -5 -8 -10 -6 -16 8 -8 17 -8 17
-4 -3 2 -12 -2 -30 -10 -40 -7 -10 -14 -26 -14 -35 0 -23 -11 -23 -37 1 -12
11 -24 17 -27 14 -3 -4 -6 -1 -6 5 0 7 10 12 23 12 22 1 22 1 2 16 -18 14 -20
13 -28 -11 -5 -14 -15 -25 -23 -25 -8 0 -14 -6 -15 -12 0 -7 -5 -2 -11 12 -10
22 -12 23 -16 6 -6 -26 15 -36 49 -23 22 9 32 8 41 -2 10 -11 10 -12 1 -7 -7
4 -13 2 -13 -3 0 -6 8 -11 19 -11 23 0 172 -88 186 -109 5 -9 10 -20 10 -25 0
-5 6 -11 13 -14 23 -7 9 29 -25 67 -18 20 -37 37 -43 37 -5 1 -14 2 -20 3 -5
0 -10 8 -10 16 0 9 -6 12 -15 9 -8 -4 -15 -1 -15 6 0 6 -4 9 -9 6 -5 -3 -11 3
-14 14 -3 14 1 24 14 31 11 5 18 18 17 27 -4 21 55 51 100 52 50 0 93 -25 128
-76 24 -35 33 -42 38 -29 3 9 2 13 -4 10 -5 -3 -17 11 -27 32 -35 74 -120 102
-200 67z"/>
<path d="M2276 1165 c4 -8 8 -15 10 -15 2 0 4 7 4 15 0 8 -4 15 -10 15 -5 0
-7 -7 -4 -15z"/>
<path d="M862 1145 c-16 -13 -33 -21 -37 -17 -5 4 -5 1 -1 -6 7 -11 13 -9 30
6 11 11 30 24 41 30 11 6 15 12 8 12 -6 0 -25 -11 -41 -25z"/>
<path d="M685 1130 c-16 -16 -26 -32 -24 -35 3 -2 21 11 39 30 19 19 29 35 24
35 -6 0 -23 -13 -39 -30z"/>
<path d="M1093 1137 c-2 -14 2 -17 15 -12 9 4 22 8 29 8 19 1 5 14 -20 19 -17
3 -23 0 -24 -15z"/>
<path d="M1684 1145 c3 -22 13 -27 19 -11 3 8 0 17 -8 19 -7 3 -12 0 -11 -8z"/>
<path d="M1915 1149 c-4 -6 -5 -12 -2 -15 2 -3 7 2 10 11 7 17 1 20 -8 4z"/>
<path d="M1936 1143 c-6 -14 -5 -15 5 -6 7 7 10 15 7 18 -3 3 -9 -2 -12 -12z"/>
<path d="M955 1139 c-4 -6 -17 -14 -29 -19 -20 -8 -20 -9 -1 -9 11 -1 26 8 33
19 7 11 10 20 8 20 -3 0 -8 -5 -11 -11z"/>
<path d="M1847 1134 c-10 -11 -9 -26 2 -19 5 3 11 -3 13 -12 3 -15 5 -14 10 5
3 12 2 20 -2 17 -5 -3 -10 0 -12 6 -2 5 -7 7 -11 3z"/>
<path d="M2100 1126 c0 -8 5 -18 12 -22 7 -4 8 -3 4 5 -6 9 0 10 21 5 33 -8
21 10 -14 21 -17 5 -23 2 -23 -9z"/>
<path d="M1457 1119 c7 -7 15 -10 18 -7 3 3 -2 9 -12 12 -14 6 -15 5 -6 -5z"/>
<path d="M1720 1120 c0 -6 6 -10 13 -10 9 0 8 -3 -2 -9 -9 -6 -5 -8 13 -8 33
0 33 10 1 25 -15 7 -25 8 -25 2z"/>
<path d="M1945 1120 c-3 -5 -1 -10 4 -10 6 0 11 5 11 10 0 6 -2 10 -4 10 -3 0
-8 -4 -11 -10z"/>
<path d="M285 1110 c-3 -5 1 -10 10 -10 9 0 13 5 10 10 -3 6 -8 10 -10 10 -2
0 -7 -4 -10 -10z"/>
<path d="M1148 1098 c8 -31 -29 -148 -47 -149 -10 0 -8 -4 7 -10 13 -5 20 -13
17 -19 -3 -5 1 -10 10 -10 10 0 13 5 9 12 -5 8 -2 9 9 5 10 -3 17 -2 17 3 0
16 30 11 36 -5 4 -8 10 -15 15 -15 5 0 5 10 0 23 -5 12 -16 21 -25 19 -9 -2
-16 3 -16 9 0 7 -6 5 -13 -6 -8 -10 -19 -15 -25 -11 -16 10 -15 26 1 22 6 -1
9 -1 5 1 -5 3 -8 9 -8 14 0 6 3 8 8 6 4 -3 7 5 8 16 0 12 3 33 6 47 4 14 7 30
8 35 5 20 0 32 -14 32 -8 0 -11 -8 -8 -19z"/>
<path d="M200 1100 c-8 -5 -24 -10 -35 -10 -23 -1 -71 -37 -61 -47 3 -4 13 2
21 13 8 10 15 16 15 11 0 -8 80 30 80 38 0 7 -3 6 -20 -5z"/>
<path d="M1090 1095 c-9 -11 -17 -12 -30 -5 -24 13 -30 13 -30 0 0 -5 7 -10
16 -10 8 0 12 -4 9 -10 -3 -5 -1 -10 5 -10 6 0 8 -5 4 -12 -4 -7 -3 -8 4 -4 7
4 12 13 12 19 0 7 9 13 20 14 11 1 18 -2 15 -8 -4 -5 -2 -9 3 -9 6 0 9 11 8
25 -1 28 -17 33 -36 10z"/>
<path d="M1360 1096 c0 -8 4 -17 9 -20 5 -4 7 3 4 14 -6 23 -13 26 -13 6z"/>
<path d="M1448 1084 c6 -33 22 -41 22 -11 0 14 -6 27 -13 30 -10 4 -13 -2 -9
-19z"/>
<path d="M1650 1101 c0 -7 -4 -9 -10 -6 -5 3 -10 4 -10 1 0 -2 13 -11 30 -19
22 -12 32 -12 37 -4 3 7 3 9 -2 5 -4 -4 -16 2 -26 14 -11 11 -19 16 -19 9z"/>
<path d="M1690 1099 c0 -5 5 -7 10 -4 6 3 10 8 10 11 0 2 -4 4 -10 4 -5 0 -10
-5 -10 -11z"/>
<path d="M22 1066 l-21 -35 25 11 c13 6 24 17 24 25 0 7 10 13 23 13 20 -1 20
-3 -11 -31 -19 -17 -32 -33 -29 -36 3 -2 21 10 41 27 39 36 38 60 -4 60 -21 0
-33 -8 -48 -34z"/>
<path d="M960 1085 c-1 -11 -1 -26 0 -34 1 -8 -4 -17 -10 -21 -6 -4 -12 -14
-14 -22 -1 -8 -10 -28 -21 -44 -16 -26 -16 -27 -1 -15 29 24 57 90 53 124 -2
19 -5 24 -7 12z"/>
<path d="M2031 1093 c0 -4 4 -17 9 -28 8 -19 9 -19 9 2 1 12 -3 25 -9 28 -5 3
-10 3 -9 -2z"/>
<path d="M2131 1095 c0 -5 7 -19 16 -30 13 -16 15 -17 10 -2 -5 13 -1 17 21
17 26 -1 26 -1 8 -15 -21 -16 -10 -21 13 -6 22 14 2 33 -30 29 -16 -3 -31 0
-33 6 -3 6 -5 7 -5 1z"/>
<path d="M641 1074 c-1 -11 6 -29 14 -40 10 -14 14 -47 15 -117 0 -111 -13
-148 -62 -168 -43 -18 -78 -65 -78 -105 0 -19 4 -34 8 -34 5 0 7 14 4 30 -5
36 16 63 70 91 58 30 77 78 80 206 1 56 -3 77 -18 100 -10 15 -22 35 -26 43
-5 11 -7 10 -7 -6z"/>
<path d="M861 1071 c-10 -7 -11 -9 -1 -13 8 -2 -1 -13 -21 -26 -19 -12 -30
-22 -26 -22 4 0 19 7 32 16 13 9 29 13 36 9 8 -6 8 -2 0 12 -6 11 -7 23 -4 27
9 9 0 7 -16 -3z"/>
<path d="M1632 1064 c10 -10 20 -16 22 -13 3 3 -5 11 -17 18 -21 13 -21 12 -5
-5z"/>
<path d="M326 1039 c-62 -28 -83 -32 -193 -37 -128 -5 -153 -22 -33 -21 86 0
195 21 247 48 23 11 46 21 52 21 5 0 13 5 16 10 11 17 -18 10 -89 -21z"/>
<path d="M985 1060 c-3 -5 -1 -10 4 -10 6 0 11 5 11 10 0 6 -2 10 -4 10 -3 0
-8 -4 -11 -10z"/>
<path d="M1420 1060 c0 -5 5 -10 11 -10 5 0 7 5 4 10 -3 6 -8 10 -11 10 -2 0
-4 -4 -4 -10z"/>
<path d="M1740 1056 c0 -13 25 -46 35 -46 2 0 -3 14 -11 30 -17 33 -24 38 -24
16z"/>
<path d="M2110 1062 c0 -12 19 -26 26 -19 2 2 -2 10 -11 17 -9 8 -15 8 -15 2z"/>
<path d="M1357 1040 c-7 -22 -8 -23 -18 -8 -5 10 -20 17 -34 16 -13 -1 -21 -6
-18 -11 2 -4 14 -5 25 -1 17 5 20 3 15 -10 -4 -10 -3 -15 2 -12 5 3 14 -1 21
-9 18 -21 40 -19 40 5 0 11 -4 20 -9 20 -5 0 -11 8 -13 18 -3 13 -5 11 -11 -8z
m17 -25 c3 -8 1 -15 -4 -15 -6 0 -10 7 -10 15 0 8 2 15 4 15 2 0 6 -7 10 -15z"/>
<path d="M1848 1043 c-18 -9 -28 -22 -28 -36 1 -20 2 -20 11 -5 8 15 13 16 29
5 11 -6 20 -17 20 -24 0 -6 6 -14 13 -16 9 -4 9 -7 -1 -15 -10 -7 -9 -12 4
-23 11 -9 15 -9 10 -2 -4 7 -3 20 2 29 7 13 11 12 26 -11 9 -14 22 -23 28 -19
7 4 8 3 4 -4 -4 -7 -3 -12 3 -12 5 0 16 -3 24 -6 12 -4 14 0 10 15 -3 11 -9
19 -13 16 -5 -3 -12 0 -15 6 -4 5 -14 8 -22 5 -8 -3 -12 -2 -8 3 3 5 -11 19
-30 31 -41 25 -62 56 -42 63 6 2 10 6 7 9 -3 2 -17 -2 -32 -9z"/>
<path d="M2217 1041 c-3 -14 0 -17 14 -14 10 3 15 11 12 19 -7 20 -20 17 -26
-5z"/>
<path d="M786 1038 c5 -7 2 -9 -8 -6 -8 4 -15 0 -15 -7 0 -10 5 -11 19 -4 16
9 17 29 2 29 -3 0 -2 -5 2 -12z"/>
<path d="M1667 1043 c-3 -5 -1 -17 4 -28 7 -17 8 -17 8 8 1 27 -4 34 -12 20z"/>
<path d="M1693 1025 c0 -14 3 -28 8 -31 5 -3 6 3 2 12 -5 12 -3 15 6 9 10 -6
11 -3 2 14 -15 27 -18 27 -18 -4z"/>
<path d="M1444 1025 c-4 -8 -4 -24 -1 -35 4 -16 1 -18 -23 -14 -31 7 -46 -8
-32 -33 9 -14 10 -14 16 5 10 29 26 28 26 -2 0 -13 6 -28 13 -34 11 -9 13 -3
11 30 -1 23 2 54 6 70 9 29 -6 41 -16 13z"/>
<path d="M2045 1030 c3 -5 8 -10 11 -10 2 0 4 5 4 10 0 6 -5 10 -11 10 -5 0
-7 -4 -4 -10z"/>
<path d="M897 1010 c-31 -25 -44 -26 -26 -2 13 15 12 16 -4 3 -9 -8 -15 -16
-12 -19 3 -3 -3 -15 -12 -26 -15 -16 45 24 82 56 19 17 -3 7 -28 -12z"/>
<path d="M1030 1008 c-12 -22 -12 -22 6 -6 10 10 15 20 12 24 -4 3 -12 -5 -18
-18z"/>
<path d="M1067 1024 c-3 -3 -3 -12 0 -19 3 -9 -16 -24 -54 -43 -75 -38 -114
-45 -171 -30 -50 12 -79 32 -92 63 -7 15 -9 16 -9 4 -1 -22 37 -63 79 -84 47
-24 131 -22 176 4 38 23 48 26 40 12 -4 -5 0 -11 6 -13 14 -5 -46 -90 -118
-168 -39 -42 -61 -95 -44 -105 5 -3 6 -14 3 -25 -3 -11 0 -20 6 -20 10 0 16
34 12 66 -3 25 31 85 54 96 13 6 23 14 20 18 -2 3 6 17 18 31 56 62 99 134 68
115 -5 -3 -11 0 -14 8 -3 8 9 30 28 49 28 29 30 34 13 29 -14 -3 -19 -1 -14 6
8 13 3 16 -7 6z"/>
<path d="M1297 1000 c-3 -11 -1 -20 4 -20 5 0 9 9 9 20 0 11 -2 20 -4 20 -2 0
-6 -9 -9 -20z"/>
<path d="M1905 1010 c-3 -5 -1 -10 4 -10 6 0 11 5 11 10 0 6 -2 10 -4 10 -3 0
-8 -4 -11 -10z"/>
<path d="M2260 1016 c0 -2 7 -7 16 -10 8 -3 12 -2 9 4 -6 10 -25 14 -25 6z"/>
<path d="M780 995 c-8 -9 -8 -15 -2 -15 12 0 26 19 19 26 -2 2 -10 -2 -17 -11z"/>
<path d="M1748 976 c-2 -19 -1 -42 2 -52 6 -17 7 -17 13 0 10 25 9 74 -2 80
-5 3 -11 -10 -13 -28z"/>
<path d="M1840 997 c0 -9 5 -17 11 -17 5 0 8 -4 4 -9 -3 -5 -1 -12 5 -16 15
-9 12 17 -5 39 -13 17 -15 18 -15 3z"/>
<path d="M2210 995 c14 -17 14 -17 -5 -8 -14 7 -28 7 -45 0 l-25 -10 25 -4
c34 -5 100 -34 100 -44 0 -4 21 -22 48 -39 l47 -31 -38 31 c-28 24 -35 36 -27
45 13 16 -16 54 -48 60 -12 2 -28 7 -35 11 -7 5 -6 0 3 -11z m60 -35 c6 -11 8
-20 6 -20 -3 0 -10 9 -16 20 -6 11 -8 20 -6 20 3 0 10 -9 16 -20z"/>
<path d="M1260 986 c0 -8 4 -17 9 -20 5 -4 7 3 4 14 -6 23 -13 26 -13 6z"/>
<path d="M1955 989 c-4 -6 -5 -12 -2 -15 2 -3 7 2 10 11 7 17 1 20 -8 4z"/>
<path d="M1794 975 c2 -11 7 -28 11 -38 5 -13 3 -16 -8 -11 -8 3 -18 0 -22 -6
-10 -17 -23 -120 -14 -114 4 2 11 25 15 49 7 53 21 56 106 26 29 -11 75 -23
103 -26 66 -9 119 -60 130 -125 4 -25 16 -72 27 -105 11 -33 26 -91 33 -130
13 -68 13 -69 14 -23 1 27 -12 88 -28 140 -16 51 -32 111 -36 133 -5 29 -20
52 -54 87 -43 43 -53 48 -94 48 -25 0 -69 9 -99 20 -43 17 -56 28 -70 58 -10
20 -16 28 -14 17z"/>
<path d="M805 970 c-3 -6 1 -7 9 -4 18 7 21 14 7 14 -6 0 -13 -4 -16 -10z"/>
<path d="M879 963 c-13 -16 -12 -17 4 -4 9 7 17 15 17 17 0 8 -8 3 -21 -13z"/>
<path d="M1820 971 c0 -5 5 -13 10 -16 6 -3 10 -2 10 4 0 5 -4 13 -10 16 -5 3
-10 2 -10 -4z"/>
<path d="M1708 953 c6 -2 9 -10 6 -15 -4 -7 -2 -8 5 -4 13 9 5 26 -12 25 -9 0
-8 -2 1 -6z"/>
<path d="M1995 950 c27 -12 43 -12 25 0 -8 5 -22 9 -30 9 -10 0 -8 -3 5 -9z"/>
<path d="M2130 950 c0 -6 4 -9 9 -5 5 3 13 0 16 -5 4 -6 17 -15 28 -21 29 -12
60 -32 70 -44 5 -6 7 -4 4 5 -8 30 -127 96 -127 70z"/>
<path d="M2060 930 c28 -21 33 -20 24 4 -3 9 -16 16 -28 16 -20 0 -20 -1 4
-20z"/>
<path d="M1680 936 c0 -2 8 -10 18 -17 15 -13 16 -12 3 4 -13 16 -21 21 -21
13z"/>
<path d="M2150 916 c0 -3 9 -10 20 -16 11 -6 20 -8 20 -6 0 3 -9 10 -20 16
-11 6 -20 8 -20 6z"/>
<path d="M1134 896 c-33 -24 -144 -200 -151 -239 -8 -50 42 -126 122 -185 68
-50 71 -54 85 -104 6 -20 26 -50 44 -66 77 -68 68 -101 -29 -105 l-57 -2 -14
47 c-11 34 -26 57 -58 83 -25 20 -49 49 -54 64 -6 15 -31 51 -56 80 -26 29
-43 57 -40 63 4 6 3 8 -4 4 -5 -3 -19 9 -31 26 -11 18 -31 41 -45 52 -21 15
-24 22 -15 38 6 11 8 23 4 26 -3 3 -8 -4 -12 -16 -3 -12 -13 -22 -23 -22 -10
0 -35 -16 -56 -35 l-37 -35 6 -78 c5 -83 16 -111 77 -202 20 -30 40 -68 44
-85 4 -18 30 -51 62 -80 47 -44 54 -55 54 -88 0 -20 5 -37 10 -37 6 0 10 16
10 36 0 31 -8 45 -51 87 -28 27 -61 73 -73 101 -13 28 -29 58 -37 66 -8 8 -29
43 -47 77 -30 57 -33 69 -30 140 3 78 3 78 37 95 44 22 73 8 120 -59 19 -26
46 -60 60 -75 34 -34 42 -45 69 -98 12 -25 38 -55 57 -67 21 -14 37 -34 40
-50 16 -78 45 -97 119 -78 80 21 89 66 25 127 -24 23 -49 59 -58 86 -13 37
-30 57 -86 100 -39 29 -80 70 -92 90 -37 60 -31 89 40 194 78 117 129 146 140
80 3 -15 4 -9 3 13 -1 35 -4 40 -26 43 -14 1 -34 -4 -46 -12z"/>
<path d="M1935 900 c3 -5 8 -10 11 -10 2 0 4 5 4 10 0 6 -5 10 -11 10 -5 0 -7
-4 -4 -10z"/>
<path d="M1494 875 c-47 -21 -54 -29 -69 -74 -9 -28 -21 -54 -27 -58 -8 -4 -9
0 -5 11 4 10 3 15 -4 11 -5 -4 -7 -14 -4 -24 3 -11 -9 -32 -37 -60 -24 -24
-34 -39 -23 -33 35 18 72 65 102 127 21 44 38 65 64 79 l36 20 48 -32 c27 -18
55 -32 62 -32 8 0 27 -7 43 -15 18 -9 31 -11 35 -5 3 6 1 10 -5 10 -6 0 -9 4
-5 9 3 5 0 13 -6 17 -8 4 -9 3 -5 -4 10 -16 6 -15 -57 8 -34 13 -59 29 -67 45
-16 29 -12 30 -76 0z"/>
<path d="M1690 888 c37 -16 49 -17 44 -4 -2 6 -19 13 -37 13 -31 2 -32 2 -7
-9z"/>
<path d="M2063 893 c-20 -8 -15 -22 5 -16 12 3 29 -7 48 -29 17 -19 38 -37 47
-41 9 -3 17 -11 17 -17 0 -5 5 -10 11 -10 5 0 8 4 5 9 -4 5 0 11 6 13 8 3 5 9
-8 16 -12 6 -40 27 -63 47 -44 36 -47 37 -68 28z"/>
<path d="M1404 875 c-4 -8 -3 -23 0 -32 6 -15 9 -13 25 10 10 15 21 24 26 20
4 -5 5 -2 0 6 -7 11 -12 9 -28 -10 -20 -24 -20 -24 -14 -1 6 25 -1 30 -9 7z"/>
<path d="M2150 882 c0 -6 9 -12 20 -15 11 -3 20 -3 20 -1 0 2 -9 8 -20 14 -11
6 -20 7 -20 2z"/>
<path d="M2215 871 c11 -13 28 -27 39 -33 29 -16 11 7 -27 33 l-32 23 20 -23z"/>
<path d="M815 870 c3 -5 8 -10 11 -10 2 0 4 5 4 10 0 6 -5 10 -11 10 -5 0 -7
-4 -4 -10z"/>
<path d="M848 873 c7 -3 16 -2 19 1 4 3 -2 6 -13 5 -11 0 -14 -3 -6 -6z"/>
<path d="M1667 863 c3 -7 9 -10 14 -7 5 3 9 0 9 -5 0 -6 5 -11 10 -11 6 0 6 7
-1 18 -13 21 -40 25 -32 5z"/>
<path d="M2272 868 c3 -7 9 -13 14 -13 5 0 15 -4 22 -9 7 -4 16 -6 19 -3 2 3
-10 13 -27 22 -24 13 -31 13 -28 3z"/>
<path d="M1720 850 c0 -5 5 -10 11 -10 5 0 7 5 4 10 -3 6 -8 10 -11 10 -2 0
-4 -4 -4 -10z"/>
<path d="M2197 853 c-4 -3 -7 -9 -7 -13 0 -8 74 -50 86 -50 5 1 -3 8 -18 16
-16 8 -28 19 -28 24 0 6 -7 10 -16 10 -8 0 -12 5 -9 10 7 11 2 13 -8 3z"/>
<path d="M2385 850 c-3 -5 1 -13 10 -16 22 -9 29 1 11 15 -10 8 -16 9 -21 1z"/>
<path d="M1355 821 c-3 -5 -1 -12 5 -16 5 -3 10 1 10 9 0 18 -6 21 -15 7z"/>
<path d="M1217 772 c29 -92 41 -117 59 -121 16 -3 17 -2 1 14 -24 24 -39 54
-32 65 6 10 -21 76 -35 85 -4 2 -1 -17 7 -43z"/>
<path d="M1241 808 c0 -9 4 -20 9 -23 6 -3 10 -17 10 -31 0 -13 5 -24 10 -24
6 0 10 -5 10 -11 0 -5 -6 -7 -12 -4 -7 4 -3 -2 9 -13 12 -11 19 -22 16 -26 -4
-3 -1 -6 5 -6 18 0 14 18 -5 29 -12 7 -14 10 -4 11 9 0 10 4 3 13 -5 6 -13 27
-17 45 -3 18 -10 30 -15 27 -5 -3 -11 3 -13 12 -4 16 -5 16 -6 1z"/>
<path d="M1390 801 c0 -25 6 -27 13 -6 4 8 2 17 -3 20 -6 4 -10 -3 -10 -14z"/>
<path d="M2420 801 c0 -14 18 -23 31 -15 8 4 7 9 -2 15 -18 11 -29 11 -29 0z"/>
<path d="M2220 791 c0 -5 7 -14 15 -21 12 -10 15 -10 15 3 0 8 -7 17 -15 21
-8 3 -15 2 -15 -3z"/>
<path d="M1351 777 c-1 -11 -5 -15 -13 -11 -7 4 -8 3 -4 -5 4 -6 12 -9 17 -6
5 4 9 1 9 -6 0 -7 2 -10 5 -7 3 3 1 16 -4 29 -7 18 -10 20 -10 6z"/>
<path d="M2155 780 c3 -5 0 -10 -7 -10 -10 0 -9 -3 2 -11 11 -8 12 -12 3 -16
-15 -6 -17 -29 -3 -38 6 -4 7 1 3 12 -6 17 -5 17 15 -1 19 -17 22 -17 22 -3 0
10 5 17 10 17 6 0 10 -7 10 -15 0 -8 4 -15 9 -15 5 0 9 11 9 25 0 29 -14 32
-40 8 -17 -15 -18 -15 -18 6 0 15 4 20 13 15 6 -4 3 2 -7 14 -20 23 -32 30
-21 12z"/>
<path d="M2262 748 c-5 -18 -6 -35 -3 -38 3 -3 7 -42 7 -87 1 -70 6 -89 28
-128 34 -57 56 -60 56 -5 0 38 13 54 23 28 3 -8 6 -7 6 4 1 9 -3 20 -9 23 -9
6 -4 134 6 144 7 7 39 -14 39 -25 0 -5 4 -14 8 -21 4 -6 3 -14 -2 -17 -5 -4
-12 -2 -16 4 -4 6 -11 7 -17 4 -6 -4 4 -15 23 -25 27 -14 29 -18 14 -19 -12 0
-26 5 -33 12 -9 9 -12 9 -12 0 0 -7 1 -12 3 -12 1 0 17 -4 35 -9 20 -6 30 -6
27 0 -4 5 -1 9 6 9 7 0 5 8 -6 20 -17 19 -17 20 1 20 16 1 15 3 -6 16 l-25 15
27 -5 c20 -5 34 1 55 19 l28 25 -31 -17 c-31 -16 -34 -16 -73 2 -22 11 -41 23
-41 27 0 7 -90 68 -101 68 -5 0 -12 -15 -17 -32z m70 -23 c34 -23 36 -26 27
-62 -5 -21 -9 -56 -9 -78 0 -23 -4 -45 -9 -50 -5 -6 -11 -19 -13 -30 -3 -17
-7 -15 -23 15 -20 38 -36 230 -19 230 5 0 26 -11 46 -25z"/>
<path d="M963 735 c-3 -9 -3 -18 -1 -21 3 -3 8 4 11 16 6 23 -1 27 -10 5z"/>
<path d="M2415 736 c10 -7 15 -17 12 -22 -3 -5 3 -10 13 -10 10 0 16 6 13 13
-3 7 0 13 5 13 6 0 12 -8 14 -17 2 -11 6 -14 10 -8 11 18 -5 32 -46 38 -34 5
-36 4 -21 -7z"/>
<path d="M1340 720 c0 -5 7 -7 15 -4 8 4 15 8 15 10 0 2 -7 4 -15 4 -8 0 -15
-4 -15 -10z"/>
<path d="M1316 705 c4 -8 11 -15 16 -15 6 0 5 6 -2 15 -7 8 -14 15 -16 15 -2
0 -1 -7 2 -15z"/>
<path d="M855 689 c-4 -6 -5 -12 -2 -15 2 -3 7 2 10 11 7 17 1 20 -8 4z"/>
<path d="M943 685 c-3 -9 -3 -18 -1 -21 3 -3 8 4 11 16 6 23 -1 27 -10 5z"/>
<path d="M2227 689 c-11 -6 -32 -8 -48 -5 -37 7 -37 1 -1 -18 23 -12 28 -21
27 -46 l-2 -30 19 20 c11 12 21 36 23 55 2 19 2 35 2 35 -1 0 -10 -5 -20 -11z
m3 -29 c0 -5 -4 -10 -10 -10 -5 0 -10 5 -10 10 0 6 5 10 10 10 6 0 10 -4 10
-10z"/>
<path d="M603 672 c-17 -11 -28 -68 -15 -76 6 -4 8 2 5 14 -3 11 2 31 11 45
18 27 18 29 -1 17z"/>
<path d="M774 659 c-19 -22 -19 -22 3 -10 24 12 39 31 25 31 -5 0 -17 -10 -28
-21z"/>
<path d="M2503 647 c-32 -48 -39 -67 -53 -134 -8 -41 -16 -60 -24 -56 -6 4 -6
0 1 -9 23 -27 27 -103 9 -147 -12 -32 -13 -46 -5 -65 21 -45 6 -59 -57 -54
-30 3 -49 1 -42 -3 9 -6 6 -9 -9 -9 -16 0 -26 -11 -39 -40 -18 -40 -50 -60
-74 -45 -14 9 -60 112 -60 136 0 11 19 28 52 46 58 31 69 54 42 84 -9 10 -15
21 -12 24 2 3 18 -10 34 -29 l30 -34 -19 -27 c-14 -18 -16 -30 -9 -37 12 -12
5 -38 -10 -38 -5 0 -6 4 -3 10 3 5 1 10 -5 10 -7 0 -10 -7 -6 -15 3 -8 1 -15
-4 -15 -5 0 -12 11 -16 25 -3 14 -10 25 -15 25 -12 0 -11 -6 7 -42 12 -22 19
-27 27 -19 14 14 50 15 42 0 -4 -6 -15 -13 -25 -17 -17 -6 -17 -9 -3 -27 13
-16 15 -17 10 -2 -4 9 -3 17 1 17 4 0 13 9 20 21 10 16 10 24 1 35 -15 18 2
18 27 -1 10 -8 23 -15 29 -15 5 0 -8 12 -30 27 -53 35 -51 33 -35 43 9 6 17 5
22 -3 7 -11 13 12 9 35 0 5 2 7 7 7 19 -3 30 2 36 17 5 14 4 15 -9 4 -14 -11
-19 -7 -16 12 1 11 -22 5 -31 -7 -4 -5 -11 -6 -15 -1 -4 4 1 14 11 21 14 11
24 12 40 3 19 -10 20 -10 7 6 -16 20 -9 31 15 22 13 -5 16 -16 12 -56 -4 -36
-2 -50 7 -50 7 0 15 7 19 15 3 8 12 15 21 15 8 0 15 5 15 10 0 6 -9 10 -21 10
-11 0 -18 -4 -14 -9 3 -5 1 -12 -5 -16 -13 -8 -13 8 2 40 12 28 28 33 28 10 0
-8 5 -15 10 -15 6 0 5 13 -4 33 -9 22 -10 39 -4 50 6 12 5 17 -5 17 -9 0 -13
-9 -11 -26 1 -15 -4 -28 -13 -31 -18 -7 -33 13 -33 47 -1 23 -2 23 -14 8 -7
-10 -15 -16 -18 -13 -2 3 -4 -5 -4 -18 1 -13 -4 -21 -12 -19 -8 1 -11 -2 -7
-8 3 -5 4 -10 1 -10 -2 0 -12 -3 -22 -7 -13 -5 -15 -3 -9 7 5 8 2 18 -9 26
-10 7 -15 17 -11 23 9 15 25 14 25 -2 0 -7 10 -13 23 -14 18 -2 19 0 5 8 -9 5
-14 17 -11 28 3 10 0 22 -6 25 -6 4 -11 2 -11 -5 0 -10 -3 -10 -12 -1 -10 10
-10 15 1 21 9 6 10 11 2 15 -12 8 -18 -4 -23 -44 -2 -15 -9 -24 -17 -22 -11 2
-12 0 -3 -10 6 -8 7 -19 3 -27 -7 -11 -12 -9 -21 9 -6 12 -14 19 -17 16 -3 -3
6 -25 21 -50 14 -24 26 -47 26 -50 0 -3 -17 -14 -38 -25 -75 -38 -82 -70 -37
-162 26 -53 36 -65 59 -67 28 -4 66 21 66 43 0 6 10 21 21 34 17 18 28 22 54
17 35 -7 84 10 86 28 0 6 2 76 4 156 3 158 15 222 53 288 29 51 26 65 -5 19z
m-233 -268 c0 -4 -7 -6 -15 -3 -8 4 -15 10 -15 15 0 4 7 6 15 3 8 -4 15 -10
15 -15z"/>
<path d="M917 654 c-14 -15 -7 -33 11 -27 14 6 15 4 4 -9 -8 -10 -9 -18 -3
-22 6 -4 7 -14 4 -23 -5 -12 -2 -12 15 3 24 20 28 34 11 34 -5 0 -7 -4 -4 -10
3 -5 2 -10 -3 -10 -17 0 -22 13 -10 27 9 11 8 17 -3 29 -9 8 -18 11 -22 8z"/>
<path d="M615 620 c3 -5 13 -10 21 -10 8 0 14 5 14 10 0 6 -9 10 -21 10 -11 0
-17 -4 -14 -10z"/>
<path d="M656 603 c-6 -14 -5 -15 5 -6 7 7 10 15 7 18 -3 3 -9 -2 -12 -12z"/>
<path d="M2175 610 c3 -5 8 -10 11 -10 2 0 4 5 4 10 0 6 -5 10 -11 10 -5 0 -7
-4 -4 -10z"/>
<path d="M2235 598 c-4 -10 -16 -18 -28 -18 -20 0 -20 0 2 -24 17 -18 19 -25
9 -29 -7 -2 -10 -8 -5 -13 4 -4 14 -1 23 8 14 14 14 17 0 31 -15 14 -15 17 0
25 9 5 14 15 11 23 -4 11 -6 10 -12 -3z"/>
<path d="M571 480 c22 -69 44 -159 48 -201 10 -89 31 -131 80 -156 53 -27 61
-37 62 -85 1 -41 1 -42 10 -13 14 46 -6 82 -61 110 -53 27 -68 54 -71 130 -2
28 -8 67 -15 88 -8 21 -14 53 -16 72 -1 19 -6 35 -11 35 -4 0 -5 10 -2 23 5
18 4 19 -5 7 -9 -12 -10 -9 -6 15 5 22 4 26 -4 15 -8 -12 -10 -10 -11 10 -1
14 -2 31 -2 38 1 7 -1 11 -5 8 -3 -3 -11 2 -18 12 -7 9 5 -39 27 -108z"/>
<path d="M635 558 l-20 -21 23 12 c12 6 22 16 22 21 0 13 -2 12 -25 -12z"/>
<path d="M2380 571 c0 -6 5 -11 10 -11 6 0 10 -9 10 -19 0 -17 29 -39 31 -23
0 4 2 15 4 24 2 10 -2 21 -7 25 -7 4 -9 -2 -6 -15 4 -12 2 -22 -3 -22 -5 0 -9
6 -9 14 0 7 -7 19 -15 26 -10 9 -15 9 -15 1z"/>
<path d="M954 555 c-10 -8 -14 -15 -8 -15 5 0 15 5 22 12 9 9 12 8 12 -4 0
-19 26 -42 34 -30 3 5 -5 19 -17 31 -21 19 -25 19 -43 6z"/>
<path d="M656 545 c-18 -14 -17 -14 12 -12 23 1 28 5 20 15 -6 6 -11 12 -12
12 0 0 -10 -7 -20 -15z"/>
<path d="M620 520 c0 -5 7 -10 16 -10 8 0 13 -4 10 -9 -3 -4 7 -8 21 -7 14 1
28 7 29 14 1 7 0 8 -3 2 -2 -5 -12 -10 -21 -10 -15 0 -15 2 -2 11 13 9 13 10
0 6 -8 -2 -23 0 -32 5 -12 5 -18 5 -18 -2z"/>
<path d="M2221 501 c-10 -6 -10 -10 -1 -16 13 -8 24 -1 19 14 -3 6 -10 7 -18
2z"/>
<path d="M2391 502 c-1 -7 -5 -11 -10 -7 -5 3 -12 2 -15 -3 -2 -4 9 -9 25 -10
16 -1 29 3 29 8 0 6 -4 9 -9 6 -5 -4 -12 0 -14 6 -4 10 -6 10 -6 0z"/>
<path d="M1006 484 c-9 -24 -7 -31 4 -14 9 13 11 13 20 0 5 -8 10 -11 10 -6 0
6 6 1 14 -10 8 -10 18 -16 22 -11 4 4 -2 16 -13 27 -12 10 -24 16 -27 13 -3
-4 -6 -1 -6 5 0 17 -17 15 -24 -4z"/>
<path d="M628 448 c5 -35 18 -36 26 -3 4 14 11 23 16 20 7 -4 6 -14 -1 -27 -8
-15 -8 -19 0 -14 6 4 11 0 11 -9 0 -9 -4 -13 -10 -10 -6 3 -7 -1 -4 -9 8 -20
12 -20 30 -1 9 8 12 15 7 15 -5 0 -10 9 -11 20 -1 11 -2 26 -3 33 -2 8 -15 14
-34 14 -28 0 -31 -3 -27 -29z"/>
<path d="M2207 460 c3 -11 12 -20 19 -20 17 0 18 12 2 28 -18 18 -27 15 -21
-8z"/>
<path d="M2368 448 c3 -15 6 -15 18 -3 18 18 18 21 -5 21 -12 0 -17 -6 -13
-18z"/>
<path d="M1034 424 c-2 -20 0 -21 12 -9 17 17 17 22 2 28 -8 3 -14 -5 -14 -19z"/>
<path d="M1089 433 c-26 -32 -40 -63 -29 -63 6 0 13 7 16 15 5 12 9 11 27 -5
24 -23 16 -39 -10 -19 -16 13 -17 12 -4 -3 16 -21 41 -24 41 -5 0 8 -11 24
-25 37 -23 21 -23 24 -7 36 9 7 14 15 11 18 -3 3 -12 -2 -20 -11z"/>
<path d="M1116 421 c-4 -5 5 -18 19 -27 20 -13 23 -19 14 -30 -10 -12 -8 -13
7 -8 17 5 17 4 4 -8 -20 -18 -24 -39 -5 -32 14 6 20 23 15 53 -3 22 -47 64
-54 52z"/>
<path d="M667 363 c13 -10 20 -10 32 0 12 9 13 9 7 0 -4 -8 -1 -13 8 -13 9 0
13 6 10 14 -4 9 -18 14 -40 13 -30 -2 -32 -4 -17 -14z"/>
<path d="M657 343 c-4 -3 -7 -11 -7 -17 0 -6 5 -5 12 2 6 6 9 14 7 17 -3 3 -9
2 -12 -2z"/>
<path d="M697 324 c2 -7 0 -15 -6 -19 -6 -3 -11 -1 -11 6 0 27 -13 -3 -17 -38
-2 -20 -1 -34 3 -30 4 4 13 2 21 -4 8 -8 13 -8 13 -1 0 6 -5 12 -12 14 -6 2
-13 15 -15 28 -2 13 0 21 3 17 4 -4 13 -2 21 5 20 16 27 3 8 -16 -15 -15 -15
-17 -1 -22 9 -3 16 -13 16 -22 0 -13 2 -13 14 3 12 17 13 17 18 -8 3 -15 1
-24 -3 -21 -5 3 -9 0 -9 -7 0 -8 -5 -7 -17 2 -16 13 -17 12 -5 -3 8 -9 22 -18
33 -20 17 -3 18 -5 5 -29 -13 -25 -12 -26 7 -21 16 4 19 2 14 -11 -4 -10 -2
-17 3 -17 14 0 21 18 10 25 -6 4 -8 11 -4 16 3 5 9 7 14 4 4 -3 14 3 21 13 13
15 12 16 -3 3 -16 -12 -18 -11 -18 3 0 9 5 16 11 16 8 0 8 4 -1 15 -6 8 -9 18
-7 22 6 9 -17 45 -27 44 -22 -3 -27 1 -22 17 3 9 -1 25 -8 34 -14 19 -56 21
-49 2z m37 -10 c9 -23 7 -44 -3 -44 -5 0 -8 8 -6 18 1 9 -2 23 -8 30 -6 8 -6
12 1 12 5 0 13 -7 16 -16z m56 -81 c0 -13 -3 -13 -15 -3 -8 7 -15 16 -15 21 0
5 7 6 15 3 8 -4 15 -13 15 -21z m2 -48 c-2 -14 -9 -28 -15 -32 -7 -4 -8 0 -4
11 4 10 7 24 7 32 0 8 4 14 9 14 4 0 6 -11 3 -25z"/>
<path d="M1187 314 c-4 -4 -7 -18 -7 -31 0 -14 -6 -23 -15 -23 -8 0 -15 -7
-15 -16 0 -12 6 -15 23 -9 12 3 28 7 35 7 6 1 10 4 7 6 -3 3 1 12 7 21 7 9 8
13 3 8 -5 -4 -14 4 -19 19 -6 14 -14 22 -19 18z m10 -56 c-3 -8 -6 -5 -6 6 -1
11 2 17 5 13 3 -3 4 -12 1 -19z"/>
<path d="M2330 291 c0 -6 7 -14 15 -17 8 -4 12 -10 9 -16 -4 -5 -11 -5 -18 1
-9 8 -13 7 -13 -3 0 -8 9 -17 19 -19 10 -3 18 -1 18 4 0 5 11 11 25 15 14 3
25 10 25 14 0 5 -9 6 -20 3 -12 -3 -29 2 -40 12 -12 11 -20 13 -20 6z"/>
<path d="M1235 260 c-3 -5 -1 -10 4 -10 6 0 11 5 11 10 0 6 -2 10 -4 10 -3 0
-8 -4 -11 -10z"/>
<path d="M2236 257 c3 -10 9 -15 12 -12 3 3 0 11 -7 18 -10 9 -11 8 -5 -6z"/>
<path d="M665 220 c3 -5 11 -10 16 -10 6 0 7 5 4 10 -3 6 -11 10 -16 10 -6 0
-7 -4 -4 -10z"/>
<path d="M2180 206 c0 -2 7 -9 15 -16 9 -7 15 -8 15 -2 0 5 -7 12 -15 16 -8 3
-15 4 -15 2z"/>
<path d="M687 193 c-4 -7 -2 -15 5 -20 22 -13 37 -12 31 3 -3 8 -9 12 -13 9
-5 -3 -10 0 -12 7 -3 9 -6 9 -11 1z"/>
<path d="M828 117 c17 -18 19 -26 10 -35 -7 -7 -19 -12 -28 -12 -26 0 -20 -30
7 -36 30 -8 40 1 24 20 -10 12 -9 17 7 25 19 10 32 6 32 -11 0 -5 -4 -7 -8 -4
-4 2 -8 -4 -9 -14 -1 -13 3 -17 13 -13 8 3 14 10 14 17 0 6 5 4 10 -4 8 -13
10 -13 10 1 0 17 -46 69 -62 69 -5 0 -6 5 -3 10 3 6 -4 10 -16 10 l-22 0 21
-23z"/>
<path d="M796 88 c3 -4 11 -5 19 -1 21 7 19 12 -4 10 -11 0 -18 -5 -15 -9z"/>
<path d="M820 16 c0 -2 7 -7 16 -10 8 -3 12 -2 9 4 -6 10 -25 14 -25 6z"/>
<path d="M870 10 c0 -5 5 -10 11 -10 5 0 7 5 4 10 -3 6 -8 10 -11 10 -2 0 -4
-4 -4 -10z"/>
</g>
</svg>
