<?xml version="1.0" standalone="no"?>
<!DOCTYPE svg PUBLIC "-//W3C//DTD SVG 20010904//EN"
 "http://www.w3.org/TR/2001/REC-SVG-20010904/DTD/svg10.dtd">
<svg version="1.0" xmlns="http://www.w3.org/2000/svg"
 width="225.000000pt" height="225.000000pt" viewBox="0 0 225.000000 225.000000"
 preserveAspectRatio="xMidYMid meet">
<metadata>
Created by potrace 1.10, written by Peter Selinger 2001-2011
</metadata>
<g transform="translate(0.000000,225.000000) scale(0.050000,-0.050000)"
fill="#000000" stroke="none">
<path d="M3040 4363 c0 -37 -17 -83 -40 -108 -53 -56 -50 -75 10 -75 45 0 50
8 50 78 0 45 11 83 25 88 18 7 16 19 -10 46 -34 35 -35 34 -35 -29z"/>
<path d="M1600 4300 c0 -11 2 -20 5 -21 145 -22 155 -21 155 9 0 24 -20 32
-80 32 -44 0 -80 -9 -80 -20z"/>
<path d="M424 4236 c-35 -35 -29 -56 16 -56 27 0 40 13 40 40 0 45 -21 51 -56
16z"/>
<path d="M2905 4187 c-14 -6 -25 -21 -25 -34 0 -12 -27 -52 -60 -87 -67 -72
-77 -113 -25 -101 19 4 33 18 30 31 -3 13 9 24 25 24 17 0 30 18 30 41 0 22
15 63 32 90 18 27 29 48 25 47 -4 0 -18 -6 -32 -11z"/>
<path d="M4000 4100 c0 -44 9 -80 20 -80 11 0 20 36 20 80 0 44 -9 80 -20 80
-11 0 -20 -36 -20 -80z"/>
<path d="M850 4089 c33 -28 92 -72 130 -98 95 -64 223 -199 170 -178 -42 16
67 -126 123 -159 55 -33 28 -59 -48 -47 l-75 11 68 -61 68 -62 -73 8 c-84 10
-92 -5 -28 -50 45 -31 45 -31 -19 -32 -111 -2 -267 -43 -253 -66 9 -14 -3 -17
-35 -7 -86 25 -352 38 -364 18 -7 -11 58 -30 152 -44 228 -35 260 -46 184 -63
-65 -14 -59 -18 89 -62 104 -32 139 -84 43 -64 -104 20 -69 -8 53 -43 171 -50
242 -129 90 -100 -84 15 -79 2 17 -47 113 -57 92 -98 -67 -132 -88 -19 -64
-48 30 -37 58 8 79 5 65 -9 -64 -66 -344 -273 -401 -297 -61 -25 -139 -105
-120 -123 4 -4 24 1 44 12 211 114 359 140 242 42 -66 -55 12 -54 95 1 118 78
147 49 49 -51 -105 -107 -94 -129 71 -137 64 -3 65 -118 2 -209 -263 -380 -49
-1074 401 -1303 265 -136 773 -27 964 207 16 18 44 33 64 33 20 0 39 8 42 18
11 29 202 36 212 7 5 -14 -7 -25 -25 -25 -23 0 -30 -10 -22 -32 7 -17 12 -35
12 -40 0 -4 14 -8 30 -8 39 0 39 -4 -22 -132 -41 -87 -47 -116 -28 -138 32
-38 346 -135 460 -142 142 -9 147 -11 199 -56 l49 -42 -34 55 c-42 66 -24 71
40 12 25 -24 46 -34 46 -22 0 13 -9 28 -20 35 -11 7 -20 22 -20 35 0 12 21 2
47 -23 43 -40 49 -41 61 -10 23 59 -59 126 -213 175 -22 7 -30 23 -22 43 15
40 226 32 277 -10 41 -34 59 -14 31 38 -28 52 -169 122 -245 122 -32 0 -90 13
-129 30 -96 40 -132 38 -194 -11 -87 -68 -70 20 22 117 41 44 86 96 99 117 24
35 24 35 14 -3 -11 -40 -11 -40 23 0 33 39 34 39 22 -10 -10 -48 -10 -48 18
-11 50 67 -26 391 -92 391 -27 0 -61 92 -71 196 -5 47 -11 92 -13 100 -3 8 0
14 5 15 22 2 100 79 100 98 1 23 137 120 170 122 11 0 38 11 60 23 22 11 70
28 106 35 106 23 138 190 37 191 -32 1 -19 16 53 61 53 33 106 54 118 47 14
-9 16 -5 7 11 -22 34 -112 14 -210 -48 -44 -28 -92 -51 -106 -52 -35 -1 -85
-42 -100 -83 -11 -28 -131 -96 -169 -96 -13 0 2 128 16 140 16 13 -48 218 -73
237 -90 65 -108 113 -81 214 59 227 150 329 291 329 74 0 76 -19 11 -96 -27
-33 -50 -72 -49 -87 0 -16 18 -6 42 23 23 28 47 51 54 52 7 1 29 8 48 17 21 9
48 5 65 -9 24 -20 42 -20 90 0 89 37 220 -54 220 -153 0 -37 9 -67 20 -67 11
0 20 29 21 65 0 74 37 133 74 120 30 -10 34 129 5 175 -11 17 -20 21 -20 10
-1 -11 -14 -3 -31 19 -16 21 -29 28 -29 15 0 -64 -206 99 -244 194 -12 29 -33
97 -47 152 l-26 100 -2 -110 -2 -110 -55 66 c-30 37 -61 60 -69 52 -8 -8 -5
-26 8 -41 39 -48 -6 -29 -80 34 -153 127 -183 143 -136 71 47 -72 33 -84 -35
-30 -30 23 -60 37 -66 30 -7 -7 -29 3 -49 21 -66 60 -39 9 68 -128 100 -127
101 -131 33 -80 -82 63 -126 75 -55 16 27 -23 36 -40 21 -40 -15 -1 -20 -11
-13 -23 22 -35 -97 -5 -298 75 -201 80 -234 79 -104 -4 100 -63 105 -85 12
-52 -105 36 -67 4 66 -56 80 -35 126 -68 126 -89 0 -42 -25 -41 -44 3 -13 27
-18 20 -27 -33 -12 -71 -52 -95 -218 -131 -56 -12 -64 -9 -64 27 0 28 -13 42
-39 42 -23 0 -90 61 -171 155 -126 148 -196 224 -558 600 -209 218 -243 195
-45 -30 47 -53 22 -59 -48 -11 l-49 33 38 -43 c56 -64 13 -54 -88 21 -49 35
-80 51 -70 35 15 -25 10 -25 -31 2 -27 17 -76 48 -109 69 l-60 37 38 -44 c63
-73 13 -50 -82 38 -49 44 -118 93 -154 108 -35 15 -113 60 -173 99 -131 86
-225 101 -129 20z m915 -687 c96 -71 175 -136 175 -145 0 -9 9 -17 20 -17 11
0 65 -33 121 -72 55 -40 123 -73 150 -73 27 0 55 -8 60 -17 6 -10 -5 -11 -25
-4 -41 15 -2 -47 49 -80 14 -9 25 -26 25 -37 0 -14 -10 -14 -29 2 -16 14 -39
18 -51 11 -14 -9 -20 0 -16 22 6 35 -6 40 -178 79 -25 5 -69 19 -99 30 -30 12
-173 52 -317 89 -144 38 -294 82 -333 99 -77 32 -111 22 -74 -22 40 -49 5 -28
-45 26 -26 29 -38 48 -27 41 12 -6 45 10 74 37 30 27 66 49 81 49 15 0 38 23
51 50 16 37 35 49 68 43 25 -4 33 -3 19 2 -15 5 -22 21 -16 37 13 33 -11 37
-42 6 -12 -12 -32 -16 -44 -9 -33 20 -26 51 8 38 17 -6 35 2 42 20 14 37 69 5
353 -205z m-62 191 c24 -3 110 -73 207 -167 14 -13 29 -21 33 -18 4 4 25 -11
47 -34 38 -38 38 -40 2 -26 -23 8 -45 3 -54 -12 -9 -14 -23 -18 -31 -9 -9 8
-4 23 11 32 21 12 5 33 -60 79 -49 33 -97 68 -108 77 -11 9 -44 35 -74 58 -30
23 -49 48 -42 55 7 7 19 3 27 -9 7 -12 26 -24 42 -26z m1657 -232 c27 -21 44
-44 37 -51 -7 -6 -27 3 -44 20 -18 18 -40 28 -50 22 -9 -6 -16 3 -16 19 0 38
13 36 73 -10z m51 -93 c58 -24 69 -36 47 -49 -18 -12 -35 -8 -50 11 -12 16
-27 24 -34 17 -7 -6 -27 3 -44 21 -41 41 -16 41 81 0z m-2136 -70 c52 -13 111
-31 130 -40 19 -10 50 -18 70 -18 59 0 725 -185 725 -201 0 -16 -41 -26 -195
-50 -47 -7 -80 -20 -75 -29 6 -10 2 -23 -10 -30 -11 -7 -20 -2 -20 11 0 16
-20 20 -61 12 -34 -7 -56 -5 -50 6 6 9 0 22 -14 28 -14 5 1 11 33 11 72 2 63
12 -24 29 -41 8 -61 5 -54 -7 7 -11 2 -20 -10 -20 -12 0 -17 -8 -11 -18 6 -10
-4 -24 -23 -31 -33 -13 -71 24 -54 53 6 8 -6 9 -25 2 -20 -7 -25 -17 -12 -21
12 -4 17 -22 10 -40 -7 -19 -4 -27 10 -18 11 7 25 1 31 -13 5 -14 -13 -36 -40
-49 -40 -18 -47 -18 -39 4 6 15 -4 25 -24 24 -20 -2 -32 11 -30 32 2 31 -16
44 -57 38 -8 -2 -9 11 -3 27 13 35 -34 41 -67 8 -28 -28 38 -107 89 -108 19 0
43 -19 54 -41 20 -39 27 -40 120 -16 54 13 105 21 113 16 8 -5 18 -2 21 7 6
14 375 104 425 104 10 0 -17 -31 -60 -69 -80 -71 -139 -89 -153 -47 -5 16 -12
17 -21 3 -7 -11 6 -41 29 -65 22 -25 34 -51 26 -58 -8 -8 -18 -3 -23 11 -5 14
-22 25 -38 25 -35 0 -38 -60 -3 -61 14 0 5 -17 -20 -38 -25 -21 -45 -48 -45
-62 0 -14 -16 -19 -41 -13 -26 7 -46 0 -53 -18 -16 -43 8 -58 44 -28 16 14 30
16 30 5 0 -33 -57 -70 -89 -58 -16 6 -36 1 -43 -11 -8 -13 -5 -17 8 -9 11 8
27 4 35 -8 7 -12 40 -16 76 -10 57 10 58 9 15 -9 -26 -12 -63 -16 -83 -10 -25
8 -38 -3 -47 -39 -7 -28 -22 -51 -32 -51 -11 0 -20 -13 -20 -30 0 -16 -9 -30
-20 -30 -30 0 -24 39 11 74 36 35 25 56 -20 39 -17 -6 -32 -32 -32 -57 -2 -44
-3 -44 -19 -6 -10 24 -18 28 -19 12 -1 -37 57 -102 92 -102 15 0 27 14 27 30
0 36 32 40 52 7 9 -15 5 -18 -11 -8 -17 11 -23 4 -17 -22 5 -26 21 -35 56 -31
37 4 42 1 22 -13 -22 -15 -19 -23 15 -42 24 -12 43 -39 43 -60 0 -21 11 -42
25 -48 14 -5 1 -11 -29 -11 -39 -2 -62 12 -80 47 -20 37 -34 45 -56 30 -27
-16 -27 -18 0 -19 25 -1 25 -4 2 -18 -21 -14 -18 -21 16 -31 35 -12 39 -20 21
-42 -13 -16 -32 -23 -43 -16 -12 7 -10 19 7 29 19 13 14 17 -20 18 -34 0 -44
-9 -36 -30 7 -16 4 -30 -6 -30 -24 0 -81 58 -81 81 0 11 -13 19 -30 19 -16 0
-30 10 -30 22 0 14 -19 18 -50 10 -32 -8 -50 -4 -50 11 0 23 -28 6 -32 -20 -1
-7 -12 -38 -25 -69 -37 -91 -31 -181 12 -164 106 44 117 35 106 -75 -3 -31 7
-29 91 15 123 65 195 63 323 -11 105 -60 127 -88 80 -104 -44 -16 210 -61 337
-61 120 1 121 0 111 -52 -5 -28 -14 -40 -18 -26 -7 20 -15 20 -37 2 -23 -19
-27 -17 -16 9 10 28 -5 33 -105 33 -106 0 -284 22 -435 53 -32 6 -52 3 -46 -7
7 -10 125 -45 263 -77 238 -56 367 -126 161 -87 -49 9 -101 12 -116 7 -14 -6
-149 8 -301 31 -319 46 -378 49 -253 8 207 -66 583 -168 620 -168 22 0 40 -13
40 -30 0 -35 -32 -40 -51 -8 -10 16 -19 15 -30 -4 -41 -65 -552 79 -596 168
-25 52 -11 -148 18 -265 13 -48 11 -74 -6 -84 -33 -20 -58 0 -48 40 5 18 2
101 -6 183 l-15 150 -4 -150 -4 -150 -61 70 c-174 199 -243 488 -159 670 40
88 122 175 122 130 0 -26 29 -10 31 17 1 30 61 103 84 103 14 0 25 14 25 30 0
17 8 30 19 30 10 0 34 36 54 81 23 52 52 85 83 92 30 8 39 18 24 27 -17 10
-18 36 -4 92 60 237 19 310 -48 87 -54 -180 -328 -463 -328 -339 0 11 -16 21
-35 21 -29 2 -30 4 -5 15 45 21 45 60 0 84 -22 12 -40 37 -40 56 1 29 3 30 20
4 22 -34 26 -19 8 28 -7 18 -20 27 -29 21 -10 -6 -36 8 -58 30 -23 23 -33 41
-22 41 10 0 24 18 31 39 16 50 122 104 178 90 37 -10 44 -2 48 52 5 62 4 63
-71 50 -76 -13 -76 -13 -76 56 1 38 8 65 16 60 8 -5 15 -2 15 7 0 9 25 32 55
52 l55 35 -60 -13 c-49 -11 -56 -8 -35 13 14 15 25 44 25 65 0 31 10 36 49 26
27 -7 54 -4 60 6 6 11 -9 23 -34 27 l-45 8 50 24 c44 20 40 22 -37 11 -71 -10
-94 -4 -132 31 -25 24 -64 44 -87 46 -45 4 -39 35 7 35 16 0 71 -10 124 -22z
m2218 -69 c14 -37 -23 -129 -53 -129 -11 0 -20 36 -20 80 0 83 48 115 73 49z
m-242 -30 c6 -11 -18 -19 -55 -20 -62 0 -64 -2 -27 -30 34 -25 34 -29 5 -29
-19 0 -34 9 -34 20 0 11 -16 20 -35 21 -28 0 -26 5 10 25 56 32 121 37 136 13z
m-237 -52 c-27 -27 29 -69 59 -45 20 17 27 17 27 0 0 -12 -11 -22 -24 -22 -19
0 -19 -5 0 -24 39 -39 29 -61 -65 -156 -49 -50 -90 -108 -91 -130 0 -33 -4
-35 -20 -10 -19 29 -29 -9 -25 -96 0 -14 -9 -22 -22 -17 -13 4 -20 20 -16 36
5 15 12 43 18 62 7 25 -2 35 -32 35 -31 0 -38 9 -29 33 9 25 5 31 -17 22 -24
-9 -31 6 -32 72 -1 76 0 78 15 26 26 -85 140 -156 140 -86 0 34 78 105 135
122 60 18 57 38 -19 101 -50 43 -57 57 -35 71 34 22 51 25 33 6z m-104 -80
c-39 -31 -38 -31 14 -22 37 6 50 2 41 -13 -8 -12 -15 -31 -16 -42 -2 -11 -4
-31 -6 -45 -2 -14 -25 -25 -53 -25 -45 0 -60 19 -52 65 8 54 16 68 52 89 56
35 67 31 20 -7z m-270 -127 c0 -11 -7 -20 -16 -20 -9 0 -34 -13 -55 -30 -31
-23 -22 -23 46 4 91 34 113 30 94 -19 -11 -29 -155 -78 -314 -106 -143 -26
-110 -56 45 -40 l146 14 -77 -81 c-47 -51 -97 -83 -128 -85 -47 -2 -47 -3 -6
-11 l45 -9 -54 -66 -53 -67 -161 11 c-229 15 -241 26 -132 118 50 42 154 143
231 224 132 137 149 148 250 162 60 9 116 17 124 19 8 1 15 -7 15 -18z m164
-267 c7 -12 8 -29 2 -39 -6 -10 -19 -6 -28 9 -15 23 -21 22 -36 -1 -14 -22
-19 -20 -25 10 -7 36 -9 36 -49 -4 -22 -22 -58 -48 -80 -56 -23 -8 -11 12 32
52 70 66 151 79 184 29z m-13 -92 c-14 -22 29 -121 52 -121 8 0 11 12 6 26
-24 61 99 21 143 -48 43 -67 45 -111 4 -86 -12 8 -17 2 -11 -14 5 -15 19 -26
29 -24 11 2 19 -8 19 -23 0 -15 -12 -23 -26 -17 -15 6 -27 0 -27 -13 0 -13 -9
-18 -20 -11 -12 7 -16 21 -10 30 6 9 1 23 -11 31 -12 7 -17 25 -11 40 6 15 2
33 -9 40 -10 6 -19 -2 -19 -18 0 -16 -5 -46 -12 -66 -10 -31 -8 -32 10 -7 12
17 23 23 24 15 2 -8 4 -22 6 -30 9 -43 55 -93 65 -70 19 46 45 26 41 -32 -3
-41 -12 -55 -32 -47 -18 7 -23 2 -14 -13 8 -12 5 -23 -7 -23 -11 0 -21 -10
-21 -22 0 -17 7 -17 26 -1 14 11 43 21 65 20 21 0 59 6 84 14 27 8 45 5 45 -7
0 -38 -24 -84 -43 -84 -11 0 -13 10 -5 23 9 15 5 18 -10 8 -17 -10 -18 -22 -3
-40 17 -20 10 -26 -29 -26 -27 0 -50 8 -50 18 0 9 -13 17 -28 17 -37 0 -136
118 -120 143 15 24 -31 80 -54 66 -10 -6 -18 -3 -18 8 0 11 11 25 25 31 14 6
3 6 -25 -1 -27 -7 -53 -20 -57 -30 -15 -39 -40 -13 -31 33 9 54 -19 65 -72 28
-24 -16 -22 -18 12 -9 29 8 41 2 41 -20 0 -17 -11 -26 -26 -20 -25 9 -36 -13
-29 -55 1 -9 -11 -30 -28 -46 -41 -41 -38 -63 10 -78 22 -7 40 -22 40 -33 0
-10 -9 -14 -20 -7 -11 7 -20 3 -20 -8 0 -34 44 -48 62 -20 15 23 21 23 35 2
13 -20 23 -19 45 9 25 30 24 33 -5 22 -38 -14 -68 36 -34 57 14 9 12 19 -6 31
-22 14 -22 20 3 37 26 17 25 19 -5 20 -19 0 -35 10 -35 21 0 12 9 16 21 8 11
-7 33 -2 48 10 21 17 31 17 42 0 8 -13 2 -31 -13 -40 -29 -18 37 -99 81 -99
31 0 26 -31 -9 -60 -20 -16 -26 -41 -18 -68 11 -34 9 -37 -14 -19 -47 37 -208
11 -208 -35 0 -52 -42 -9 -52 54 -7 41 -27 85 -45 99 -41 30 -43 77 -3 62 17
-7 31 -5 32 3 1 8 4 33 6 57 3 29 -4 40 -21 33 -15 -6 -22 -18 -16 -28 6 -10
-3 -18 -20 -18 -17 0 -31 -9 -31 -21 0 -13 -12 -14 -35 -2 -19 10 -100 24
-179 30 -80 7 -197 30 -260 53 -63 22 -129 40 -146 40 -33 0 -100 67 -100 100
0 29 75 25 88 -5 10 -20 14 -20 24 0 6 14 25 25 41 25 16 0 24 -9 17 -20 -7
-12 16 -20 57 -20 93 0 133 -17 120 -52 -6 -15 -4 -28 6 -29 9 -1 55 -6 102
-12 59 -7 85 -3 85 13 0 15 19 21 49 15 38 -7 50 0 55 33 4 27 29 49 73 64 36
11 74 34 84 50 10 15 19 20 19 9 0 -10 12 -2 27 18 17 23 40 33 60 25 40 -15
44 -54 5 -54 -15 0 -33 -13 -39 -30 -7 -16 -2 -30 9 -30 11 0 15 -9 8 -20 -14
-23 -6 -25 40 -7 26 10 28 16 7 29 -19 12 -13 21 23 36 28 11 39 20 24 21 -19
1 -18 14 5 58 16 32 24 63 18 69 -12 12 8 54 25 54 6 0 5 -8 -1 -19z m-497
-239 c20 -32 18 -40 -15 -48 -22 -6 -34 -2 -28 8 19 30 -15 20 -54 -15 -36
-32 -36 -31 -6 30 36 72 69 80 103 25z m-355 -167 c0 14 10 25 21 25 12 0 11
-16 -4 -39 -32 -52 -6 -76 39 -36 41 38 99 8 98 -50 0 -36 -59 -66 -91 -46
-11 6 -24 3 -31 -7 -7 -11 18 -16 59 -13 86 9 89 -8 8 -54 -72 -41 -100 -44
-93 -10 3 13 -15 27 -40 31 -56 8 -58 36 -4 50 43 11 38 108 -7 137 -10 7 -12
24 -3 38 12 20 20 17 31 -12 8 -22 16 -28 17 -14z m279 -113 c15 -10 21 -28
13 -41 -8 -13 0 -34 18 -48 30 -21 27 -28 -26 -68 -50 -37 -63 -39 -83 -16
-25 31 25 131 66 131 12 0 4 13 -17 29 -42 32 -18 42 29 13z m222 -24 c0 -20
16 -45 35 -57 33 -20 33 -23 -2 -50 -20 -15 -31 -38 -24 -50 8 -12 -2 -21 -23
-21 -47 0 -95 72 -62 93 13 8 27 3 32 -10 10 -31 44 -9 44 30 0 19 -11 27 -28
21 -15 -6 -45 1 -65 17 -35 26 -35 28 9 28 26 1 42 9 36 18 -6 9 3 16 19 16
16 0 29 -16 29 -35z m530 -43 c9 8 11 -1 4 -20 -7 -19 -4 -35 7 -35 10 0 19
-9 19 -20 0 -11 -19 -20 -41 -20 -23 0 -36 -8 -30 -18 6 -10 -5 -14 -26 -9
-24 7 -36 -1 -36 -22 0 -17 9 -31 20 -31 31 0 -4 -27 -42 -33 -18 -3 -45 5
-60 17 -32 27 -42 18 -52 -45 -4 -29 -23 -52 -45 -56 -21 -4 -51 -17 -66 -30
-40 -33 -142 -34 -142 -2 0 15 10 33 23 41 14 9 18 5 9 -9 -9 -14 -2 -23 17
-23 17 0 31 15 31 33 0 19 6 28 13 21 16 -16 86 62 90 99 1 15 3 38 5 52 2 14
18 22 37 19 19 -3 35 2 35 12 0 10 23 14 50 9 57 -11 58 -13 30 -65 -11 -21
-12 -42 -2 -48 9 -6 23 16 29 50 7 33 21 55 32 49 10 -7 17 6 16 27 -2 22 -10
35 -19 29 -25 -15 -19 22 9 50 19 19 29 18 47 -6 12 -17 29 -24 38 -16z m130
-44 c0 -5 -20 -28 -45 -51 -31 -29 -34 -38 -11 -30 26 11 31 4 22 -30 -6 -24
-24 -48 -39 -54 -15 -6 -21 -20 -14 -31 8 -13 2 -17 -16 -10 -33 12 -37 -34
-8 -85 14 -24 12 -25 -10 -5 -22 20 -37 15 -82 -28 -61 -59 -129 -29 -105 47
10 33 8 32 -20 -3 -18 -21 -32 -28 -32 -16 0 24 35 52 74 58 13 2 76 58 140
125 103 108 146 141 146 113z m-582 -138 c44 -54 -134 -133 -301 -133 -115 0
-123 20 -28 71 66 35 73 35 140 3 48 -22 71 -26 71 -10 0 64 82 112 118 69z
m37 -197 c-3 -13 8 -25 25 -25 33 -1 55 -71 21 -71 -11 0 -21 -10 -21 -21 0
-13 18 -16 45 -8 57 18 57 17 60 66 5 67 135 70 135 3 0 -41 -90 -102 -135
-91 -25 7 -45 4 -45 -6 0 -33 59 -43 110 -19 43 19 57 16 99 -23 26 -25 60
-41 75 -35 16 7 11 11 -13 12 -30 2 -33 8 -16 25 26 26 200 -110 203 -159 1
-14 15 -30 32 -37 16 -6 24 -21 17 -32 -8 -13 -23 -8 -39 14 -14 19 -34 29
-45 23 -11 -7 -26 -3 -33 9 -10 14 -22 14 -42 -2 -15 -13 -28 -16 -29 -6 0 9
-14 -1 -30 -23 -30 -39 -181 -66 -158 -28 6 10 27 18 45 18 19 0 48 10 64 22
24 17 22 20 -14 12 -31 -7 -40 -2 -32 18 5 15 17 23 26 18 8 -5 20 7 25 27 9
33 0 36 -73 28 -97 -11 -122 -25 -44 -25 31 0 49 -9 42 -20 -7 -11 -46 -20
-86 -20 -49 -1 -65 -6 -47 -18 17 -11 20 -22 7 -30 -11 -7 -24 -5 -27 3 -18
39 -139 88 -166 66 -20 -17 -30 -16 -38 3 -6 14 -7 0 -3 -32 5 -32 20 -66 34
-75 20 -13 20 -16 1 -17 -14 0 -25 -13 -25 -28 0 -15 -15 -33 -32 -40 -23 -9
-29 -4 -21 17 19 51 -17 51 -78 0 -33 -27 -43 -44 -24 -37 24 9 35 2 35 -21 0
-18 -9 -28 -20 -21 -11 7 -29 -8 -39 -34 l-18 -46 -2 47 -1 47 -38 -47 c-36
-43 -36 -48 -5 -62 21 -10 14 -12 -20 -6 -31 7 -62 -1 -75 -17 -13 -15 -55
-34 -94 -41 -39 -7 -84 -18 -99 -24 -20 -8 -29 3 -29 32 0 24 -9 38 -20 31
-12 -7 -16 -21 -10 -30 19 -30 -19 -37 -56 -10 -23 16 -29 31 -15 39 11 7 21
3 21 -9 0 -12 21 -6 47 14 27 20 44 49 39 66 -8 25 -7 26 10 2 11 -16 17 -47
13 -70 -7 -40 -6 -40 20 -6 17 23 32 28 40 15 9 -13 30 -10 62 12 32 20 49 24
49 9 0 -17 8 -16 28 2 29 27 -9 70 -43 49 -9 -5 -33 3 -54 19 -34 24 -34 28
-5 28 19 0 34 -7 34 -16 0 -8 18 -15 40 -15 22 0 37 9 33 20 -5 12 -19 19 -32
16 -14 -4 -18 4 -9 18 10 17 24 11 49 -19 l34 -42 20 44 c18 38 9 57 -62 133
-46 50 -64 74 -41 55 22 -19 65 -34 95 -34 29 0 53 -10 53 -22 0 -13 -18 -18
-40 -12 -22 6 -35 2 -29 -8 6 -10 25 -18 41 -18 17 0 25 -8 19 -19 -21 -33 26
-43 53 -10 14 18 44 51 66 75 22 24 37 55 34 69 -3 15 12 50 35 78 28 36 41
42 41 22 0 -21 13 -28 40 -21 49 13 52 40 5 52 -37 10 39 22 92 15 15 -2 21 6
14 18 -7 11 -25 21 -38 21 -14 0 -41 33 -61 74 -26 54 -27 67 -6 49 24 -19 27
-15 19 27 -6 29 0 50 13 50 12 0 20 -11 17 -24z m504 -101 c1 -23 -27 -18 -69
13 -33 24 -35 32 -11 61 27 32 77 -14 80 -74z m41 -116 c0 -28 -11 -40 -33
-35 -48 9 -56 51 -13 62 20 5 38 10 41 12 3 1 5 -17 5 -39z m-680 -8 c0 -44
-32 -54 -88 -28 -63 29 -49 57 29 57 38 0 59 -10 59 -29z m-758 -263 c12 -15
7 -33 -15 -50 -29 -24 -32 -24 -24 2 6 17 -11 75 -36 130 -26 55 -46 114 -45
130 1 17 24 -19 51 -80 28 -60 59 -120 69 -132z m118 160 c59 -28 151 -62 204
-75 53 -12 96 -29 96 -37 0 -25 -47 -44 -55 -22 -4 12 -24 17 -45 12 -42 -11
-186 55 -273 126 -74 60 -59 60 73 -4z m75 -160 c25 8 50 0 67 -21 25 -31 24
-32 -11 -13 -29 16 -45 15 -66 -6 -37 -38 -93 -36 -78 1 6 17 -8 45 -34 65
-25 20 -62 63 -83 96 -29 47 -15 39 64 -37 76 -72 112 -94 141 -85z m1193 40
c17 -44 15 -52 -8 -38 -11 7 -20 -6 -20 -28 0 -22 -9 -45 -20 -52 -12 -7 -16
-20 -11 -29 22 -34 -42 -63 -69 -31 -14 16 -19 31 -12 33 6 1 20 3 30 5 29 3
52 33 54 69 5 88 9 103 26 103 10 0 23 -14 30 -32z"/>
<path d="M1460 3360 c-25 -17 -25 -23 -3 -38 23 -14 23 -19 0 -28 -15 -6 -3
-12 27 -12 57 -2 90 27 56 48 -11 7 -15 21 -9 31 15 25 -33 24 -71 -1z"/>
<path d="M1634 3051 c-16 -16 -36 -23 -45 -15 -8 8 -9 2 0 -12 12 -21 20 -21
46 0 28 23 29 21 7 -19 -17 -34 -32 -41 -55 -28 -51 28 -133 -18 -90 -51 28
-21 28 -25 3 -26 -26 0 -26 -3 -1 -19 31 -20 201 126 201 173 0 34 -30 33 -66
-3z"/>
<path d="M1431 2735 c-13 -43 -5 -94 13 -82 10 6 12 28 5 51 -11 34 -6 38 32
26 30 -10 40 -7 30 8 -18 30 -70 28 -80 -3z"/>
<path d="M1468 2469 c-29 -38 -48 -76 -41 -83 16 -16 71 53 72 89 1 14 15 25
31 25 17 0 30 9 30 20 0 40 -39 18 -92 -51z"/>
<path d="M1300 2490 c0 -16 -9 -30 -19 -30 -11 0 -15 -12 -10 -26 6 -14 27
-25 48 -25 28 0 33 6 19 24 -13 15 -13 28 1 36 31 20 25 51 -9 51 -16 0 -30
-13 -30 -30z"/>
<path d="M1290 2360 c-7 -11 6 -20 29 -20 25 0 42 -13 42 -35 2 -30 4 -29 18
5 22 56 -57 101 -89 50z"/>
<path d="M2440 2220 c0 -11 27 -20 59 -20 48 0 57 -7 47 -33 -11 -28 -6 -27
27 5 25 24 32 43 18 53 -32 22 -151 18 -151 -5z"/>
<path d="M1900 2202 c0 -23 58 -45 82 -31 10 7 13 20 7 30 -15 24 -89 25 -89
1z"/>
<path d="M2652 1276 c6 -9 -13 -16 -41 -16 -28 0 -51 -7 -51 -16 0 -9 25 -14
55 -13 30 2 75 5 100 6 65 4 55 37 -14 47 -32 5 -54 1 -49 -8z"/>
<path d="M265 4070 c-35 -39 -31 -50 15 -50 27 0 40 13 40 40 0 47 -20 50 -55
10z"/>
<path d="M2661 4005 c0 -8 19 -46 41 -85 l40 -70 -11 68 c-6 37 -11 75 -11 85
0 9 -13 17 -30 17 -16 0 -30 -7 -29 -15z"/>
<path d="M4320 3101 c0 -23 -13 -41 -30 -41 -16 0 -30 -7 -29 -15 1 -22 57
-93 66 -84 21 24 32 157 14 169 -12 7 -21 -6 -21 -29z"/>
<path d="M320 3020 c0 -11 36 -20 80 -20 44 0 80 9 80 20 0 11 -36 20 -80 20
-44 0 -80 -9 -80 -20z"/>
<path d="M480 1832 c0 -62 22 -92 50 -66 17 16 20 35 7 59 -22 42 -57 46 -57
7z"/>
<path d="M4105 1755 c5 -14 19 -24 32 -23 13 1 41 3 63 5 70 5 43 43 -32 43
-48 0 -69 -8 -63 -25z"/>
<path d="M320 1648 c0 -15 -14 -28 -31 -28 -25 0 -26 -8 -7 -44 l24 -45 16 45
c9 24 31 44 47 44 45 0 38 34 -9 46 -26 7 -40 0 -40 -18z"/>
<path d="M4000 1569 c0 -60 9 -109 20 -109 13 0 16 31 8 80 -9 54 -6 80 9 80
33 0 28 34 -7 47 -24 10 -30 -9 -30 -98z"/>
<path d="M162 1450 c2 -34 7 -45 12 -25 5 19 26 35 47 35 22 0 39 11 39 25 0
14 -22 25 -50 25 -43 0 -50 -9 -48 -60z"/>
<path d="M4289 590 c-9 -22 -28 -49 -43 -60 -22 -16 -21 -28 5 -65 39 -56 69
-58 69 -5 0 22 -10 40 -22 40 -16 0 -16 9 1 29 13 16 20 45 16 65 -8 33 -10
33 -26 -4z"/>
<path d="M322 465 c1 -21 5 -25 11 -10 12 30 107 34 107 5 0 -11 9 -20 20 -20
11 0 20 14 20 30 0 22 -22 30 -80 30 -63 0 -80 -7 -78 -35z"/>
<path d="M4160 393 c0 -17 -15 -39 -33 -49 -18 -10 -26 -29 -19 -41 20 -33 52
-28 52 7 0 17 14 30 31 30 19 0 29 14 25 33 -8 43 -56 60 -56 20z"/>
<path d="M4000 220 c0 -22 -13 -40 -30 -40 -16 0 -30 -8 -30 -18 0 -10 14 -23
30 -29 18 -7 30 0 30 18 0 16 17 29 38 29 28 0 36 10 28 40 -6 22 -23 40 -38
40 -16 0 -28 -18 -28 -40z"/>
<path d="M1442 176 c2 -36 7 -50 12 -31 5 19 23 35 39 35 40 0 23 48 -20 56
-26 6 -32 -8 -31 -60z"/>
</g>
</svg>
