<?xml version="1.0" standalone="no"?>
<!DOCTYPE svg PUBLIC "-//W3C//DTD SVG 20010904//EN"
 "http://www.w3.org/TR/2001/REC-SVG-20010904/DTD/svg10.dtd">
<svg version="1.0" xmlns="http://www.w3.org/2000/svg"
 width="225.000000pt" height="224.000000pt" viewBox="0 0 225.000000 224.000000"
 preserveAspectRatio="xMidYMid meet">
<metadata>
Created by potrace 1.10, written by Peter Selinger 2001-2011
</metadata>
<g transform="translate(0.000000,224.000000) scale(0.050000,-0.050000)"
fill="#000000" stroke="none">
<path d="M2990 4437 c-55 -11 -131 -22 -170 -25 -38 -4 -110 -25 -160 -48
-163 -75 -250 -110 -265 -107 -8 2 -15 -6 -15 -17 0 -11 -31 -20 -68 -20 -38
0 -72 -7 -75 -16 -4 -9 -61 -51 -127 -94 -66 -43 -125 -86 -132 -95 -6 -10
-20 -15 -30 -13 -26 7 -128 -45 -128 -65 0 -9 -7 -15 -15 -13 -8 2 -42 -11
-75 -30 l-60 -34 60 12 c33 7 110 31 170 52 61 22 144 49 185 60 41 12 75 29
75 39 0 46 224 126 251 89 24 -33 29 -33 91 -1 39 20 69 26 73 14 8 -25 126
-2 131 25 2 11 -16 23 -41 26 -172 25 88 157 418 213 40 7 84 25 97 42 29 34
-26 36 -190 6z"/>
<path d="M3220 4185 c-49 -4 -101 -17 -115 -29 -18 -15 -25 -14 -25 2 0 12
-10 22 -21 22 -12 0 -17 -8 -11 -17 6 -10 -11 -13 -38 -8 -27 5 -65 3 -85 -6
-19 -8 -43 -13 -53 -11 -31 7 -212 -45 -212 -61 0 -8 -41 -21 -90 -28 -50 -8
-95 -22 -101 -31 -6 -10 -38 -18 -70 -18 -53 0 -226 -52 -521 -158 -103 -37
-119 -38 -208 -11 -174 52 -296 23 -140 -34 96 -35 88 -63 -15 -49 -81 10 -83
9 -45 -21 35 -28 36 -31 3 -20 -20 7 -47 13 -61 13 -13 0 -42 14 -63 30 -37
28 -35 29 16 11 31 -11 55 -12 55 -2 0 18 -73 36 -157 38 -67 1 -27 -39 95
-96 118 -55 141 -95 72 -121 -45 -17 -71 -44 -35 -37 16 4 59 -11 156 -54 104
-46 469 -471 469 -546 0 -10 13 -44 29 -75 33 -62 10 -114 -41 -94 -34 13
-132 -71 -116 -98 7 -10 23 -8 38 4 19 16 30 15 41 -2 9 -15 7 -19 -6 -11 -12
8 -28 -5 -35 -27 -7 -22 -25 -40 -40 -40 -34 0 -28 85 9 129 17 20 18 31 4 31
-43 0 -132 -159 -105 -186 19 -19 22 -17 12 9 -7 18 -3 39 9 46 21 13 29 -13
22 -67 -2 -15 8 -35 22 -45 21 -13 19 -16 -6 -17 -19 0 -39 11 -46 25 -6 14
-8 5 -3 -20 11 -61 3 -57 -44 23 l-40 67 47 48 c82 82 80 241 -2 209 -32 -12
-31 -17 9 -60 25 -26 38 -51 28 -55 -9 -4 -30 -34 -48 -67 -17 -33 -43 -57
-57 -54 -14 3 -36 -4 -50 -15 -35 -29 -51 -6 -51 72 0 37 -8 67 -18 67 -10 0
-16 16 -13 35 3 19 1 24 -3 10 -14 -39 -146 -4 -146 39 0 10 17 8 38 -3 29
-15 41 -13 49 8 13 33 -100 99 -118 70 -6 -10 -28 -16 -49 -13 -60 10 -70 32
-11 25 28 -3 57 2 63 12 6 9 28 8 50 -4 21 -11 49 -15 62 -7 13 8 17 5 9 -7
-7 -11 1 -26 19 -33 41 -16 24 75 -44 226 -48 106 -49 107 -89 71 -31 -28 -45
-31 -63 -13 -19 19 -18 25 0 27 13 1 35 3 49 5 23 2 26 16 18 72 -4 29 -98 25
-109 -5 -4 -14 -6 -9 -3 10 3 20 -7 35 -24 35 -16 0 -24 9 -16 21 8 14 22 13
41 -3 37 -31 61 -8 30 29 -33 40 -118 37 -112 -4 2 -18 0 -22 -4 -8 -5 14 -20
25 -32 26 -13 0 -8 9 11 21 19 11 43 15 53 9 10 -6 23 0 27 14 7 18 20 15 50
-12 38 -33 77 -48 140 -51 14 -1 25 -15 25 -32 0 -35 -33 -40 -44 -7 -5 13
-24 26 -44 29 -33 5 -33 1 4 -38 22 -24 58 -75 79 -114 36 -66 105 -107 105
-62 0 11 -14 16 -30 9 -22 -8 -27 -2 -18 22 8 19 -3 50 -25 75 -20 24 -26 36
-12 28 18 -10 25 4 25 48 0 36 -8 57 -20 50 -11 -7 -20 -3 -20 9 0 11 11 21
23 21 13 0 18 6 11 13 -7 7 -27 1 -43 -12 -32 -26 -77 47 -66 105 3 14 -11 21
-33 17 -46 -7 -75 34 -60 84 10 31 6 33 -29 15 -64 -35 -67 -55 -12 -91 28
-18 44 -43 37 -55 -9 -15 -24 -9 -42 16 -15 21 -34 38 -42 39 -8 0 -41 15 -74
33 -115 61 -234 84 -254 48 -10 -18 -29 -32 -42 -32 -14 0 -49 -23 -79 -51
-48 -44 -57 -47 -68 -18 -14 37 29 74 62 54 12 -7 9 3 -6 21 -66 82 -150 30
-121 -74 9 -32 12 -66 6 -75 -17 -28 -48 2 -50 49 -2 39 -5 38 -24 -11 -30
-75 -57 -70 -31 5 12 33 29 60 39 60 10 0 18 14 18 31 0 17 -9 26 -20 19 -11
-7 -20 -2 -20 11 0 18 -7 18 -29 0 -16 -13 -25 -35 -20 -47 5 -13 1 -51 -9
-84 l-19 -60 -1 54 c-1 29 -11 59 -21 65 -24 15 -4 71 23 65 12 -2 25 7 30 21
13 35 -24 31 -54 -5 -28 -33 -70 -42 -50 -10 7 11 3 20 -8 20 -11 0 -25 -9
-32 -20 -7 -11 -26 -20 -42 -20 -16 0 -50 -19 -74 -42 l-44 -43 50 15 c28 9
55 21 60 28 6 6 32 14 59 17 27 3 42 0 35 -8 -8 -8 -1 -28 15 -46 20 -21 23
-42 10 -61 -14 -24 -18 -20 -19 17 0 67 -170 46 -231 -28 -45 -54 -70 -47 -67
19 2 37 4 36 18 -8 l16 -50 2 53 c1 29 -11 58 -27 64 -25 9 -25 19 2 74 22 44
38 56 53 41 15 -15 10 -33 -16 -62 -50 -56 6 -55 66 1 53 49 56 90 10 116 -29
16 -30 24 -8 51 15 17 32 28 39 24 7 -4 25 5 39 20 21 23 20 28 -3 28 -15 0
-39 14 -53 30 -14 17 -31 26 -36 20 -6 -6 6 -23 27 -39 37 -28 36 -30 -27 -43
-60 -12 -66 -19 -54 -66 12 -49 11 -50 -16 -13 -27 36 -31 31 -61 -70 -19 -65
-24 -112 -12 -116 10 -3 19 -21 18 -40 0 -30 -2 -30 -21 2 -24 41 -58 46 -58
8 0 -15 22 -37 50 -49 27 -13 50 -32 50 -43 0 -40 75 -62 129 -38 52 24 59 38
52 104 -3 24 4 32 19 23 13 -8 19 -32 13 -54 -9 -35 -2 -39 57 -32 37 4 64 2
59 -5 -14 -23 85 -57 134 -46 39 9 42 6 17 -13 -25 -19 -20 -22 24 -14 30 4
50 1 44 -9 -6 -9 21 -17 59 -17 53 0 73 10 83 40 17 53 103 27 153 -47 19 -27
83 2 65 30 -9 15 -5 18 10 8 18 -11 18 -22 2 -41 -44 -53 36 -140 88 -96 23
20 46 38 51 42 6 3 -3 14 -19 24 -16 10 -23 24 -16 31 15 15 136 -102 136
-130 0 -10 16 -19 35 -19 126 0 204 -52 149 -97 -19 -16 -24 -23 -11 -17 12 6
35 -3 50 -21 24 -29 21 -31 -23 -18 -60 18 -122 69 -77 64 50 -6 32 37 -26 61
-48 20 -57 19 -57 -5 0 -33 -36 -37 -80 -9 -20 13 -22 19 -5 20 20 0 20 8 0
40 -13 22 -40 40 -59 40 -19 0 -44 -18 -56 -40 -17 -32 -15 -40 8 -40 20 0 27
-15 20 -50 -6 -37 0 -50 24 -50 20 0 28 -11 21 -30 -7 -16 -4 -30 6 -30 10 0
21 11 26 24 5 15 13 11 21 -10 7 -19 4 -34 -7 -34 -10 0 -19 -22 -19 -50 0
-57 33 -68 46 -15 5 19 4 4 -1 -35 -5 -38 -17 -80 -27 -92 -23 -29 -2 -48 36
-34 25 10 27 5 8 -30 -27 -51 -29 -90 -2 -74 11 7 20 30 20 51 0 22 10 39 22
39 14 0 11 18 -9 47 -28 44 -28 51 7 88 21 23 32 46 25 53 -6 7 3 12 22 12 20
0 33 -16 33 -40 0 -27 -13 -40 -40 -40 -22 0 -40 -13 -40 -30 0 -16 10 -30 21
-30 12 0 15 10 7 23 -9 15 -5 18 9 9 13 -8 18 -24 11 -36 -8 -12 -2 -17 14
-11 15 5 26 20 23 32 -3 13 5 23 17 23 12 0 17 -13 12 -28 -16 -39 7 -56 39
-29 20 16 27 16 27 -1 0 -12 9 -22 19 -22 11 0 17 11 14 25 -4 14 -3 18 2 10
5 -8 19 -9 32 -1 13 7 11 -2 -4 -20 -18 -22 -20 -34 -5 -34 12 0 22 -9 22 -20
0 -12 -17 -10 -43 5 -34 20 -44 20 -51 0 -6 -17 -22 -11 -47 20 -22 26 -38 34
-38 19 -1 -15 -11 -20 -23 -13 -15 10 -18 -1 -9 -33 11 -37 9 -41 -7 -18 -12
17 -22 22 -22 12 0 -11 15 -35 33 -55 18 -21 24 -37 13 -37 -29 0 -18 -80 14
-100 32 -20 66 -6 50 20 -5 9 16 39 49 66 32 27 53 56 46 63 -8 7 2 7 21 0 29
-11 31 -19 10 -46 -18 -22 -3 -18 49 12 61 36 75 38 75 13 0 -17 9 -25 20 -18
11 7 20 -2 20 -19 0 -21 -19 -31 -58 -31 -33 0 -63 -13 -69 -30 -7 -17 -3 -30
8 -30 10 0 19 -15 19 -32 0 -27 -5 -28 -30 -8 -19 16 -26 41 -18 65 8 27 5 35
-10 26 -27 -17 -29 -84 -2 -101 11 -7 20 -29 20 -50 0 -21 16 -47 35 -58 30
-16 31 -24 8 -46 -22 -20 -30 -21 -37 -1 -5 14 -23 25 -40 25 -42 0 1 -52 84
-103 33 -20 47 -36 30 -36 -42 1 -156 55 -121 57 21 1 16 12 -15 33 -25 18
-39 40 -33 50 6 11 2 19 -10 19 -11 0 -22 16 -23 35 -1 22 -7 17 -16 -15 -10
-33 -6 -55 12 -66 46 -28 30 -69 -24 -59 -27 5 -45 17 -40 25 24 39 15 204
-12 221 -28 18 -52 -26 -55 -101 -1 -23 3 -22 19 5 11 19 30 35 42 35 12 0 6
-18 -14 -40 -20 -22 -48 -40 -62 -40 -15 0 -36 -17 -47 -39 -32 -59 -24 -78 9
-21 22 38 29 42 29 15 1 -45 19 -45 53 0 15 20 27 24 27 11 1 -13 -30 -47 -67
-76 -70 -53 -107 -110 -71 -110 10 0 19 13 19 28 0 15 14 33 30 39 17 7 30 2
30 -11 0 -12 20 -5 45 16 37 32 40 32 17 3 -15 -20 -58 -50 -95 -68 -38 -18
-64 -36 -59 -41 5 -6 -8 -49 -28 -97 -25 -58 -30 -89 -15 -94 13 -4 16 -23 7
-46 -8 -22 -14 -41 -13 -44 3 -12 31 -4 33 10 6 49 46 113 47 75 0 -22 -12
-65 -28 -95 -27 -51 -26 -55 10 -55 25 0 49 -24 67 -65 16 -36 29 -53 30 -39
1 15 12 20 25 12 16 -10 19 2 9 41 -9 35 -6 50 7 41 35 -21 23 22 -15 57 -27
24 -42 27 -59 10 -17 -17 -20 -12 -12 20 12 44 47 60 47 22 0 -12 10 -15 23
-7 14 9 18 5 9 -9 -8 -13 -5 -23 7 -23 11 0 21 14 21 31 0 17 8 26 18 20 10
-6 42 -2 71 9 36 13 49 13 41 0 -14 -23 100 -78 148 -71 39 6 54 51 16 51 -16
0 -79 22 -140 49 -91 40 -115 44 -133 23 -33 -41 -112 -34 -112 9 0 20 6 35
14 33 8 -2 29 14 47 36 18 22 27 29 20 15 -7 -15 1 -25 20 -25 19 0 27 9 18
23 -8 13 -3 19 14 13 15 -5 28 -20 28 -33 0 -36 54 -64 98 -50 27 8 33 4 22
-16 -13 -22 -11 -22 11 -2 22 20 37 16 77 -20 28 -25 41 -31 29 -15 -23 31
-22 63 5 130 13 34 11 36 -15 15 -24 -20 -30 -19 -30 4 0 16 7 25 16 19 10 -6
17 -1 17 10 0 11 -16 19 -35 18 -91 -4 -185 61 -132 91 24 13 40 9 56 -12 16
-23 32 -26 57 -12 24 14 34 12 34 -7 1 -19 6 -18 20 4 15 23 19 14 20 -36 0
-40 8 -61 21 -54 11 7 19 24 17 37 -7 54 4 73 42 73 53 0 50 -23 -10 -80 -47
-44 -70 -140 -34 -140 9 0 38 36 65 80 27 43 65 85 84 91 20 7 31 19 26 27 -5
8 17 15 49 15 32 0 56 -5 54 -12 -2 -6 5 -11 16 -11 11 0 18 20 14 43 -6 52
30 81 62 49 16 -16 16 -22 -2 -22 -13 0 -24 -9 -24 -21 0 -13 14 -13 42 2 32
17 49 15 76 -9 20 -18 39 -28 44 -23 5 5 11 -14 14 -42 l4 -51 -70 41 c-74 44
-87 37 -41 -24 34 -44 126 -58 147 -21 13 23 29 20 87 -11 70 -37 97 -36 97 5
0 10 -18 14 -39 8 -126 -32 -36 156 107 225 49 24 93 56 100 72 6 16 24 29 40
29 58 0 55 44 -6 120 -35 44 -57 90 -50 107 11 29 -63 87 -98 77 -10 -3 -12 4
-5 14 14 24 -120 64 -160 49 -16 -6 -29 -24 -29 -39 0 -15 -9 -28 -20 -28 -19
0 -8 95 13 119 5 5 37 -1 73 -13 141 -49 149 -49 160 -7 5 23 27 46 47 52 20
7 53 20 72 30 62 34 77 23 343 -251 235 -242 312 -305 312 -253 0 9 -41 60
-91 115 -112 120 -161 211 -174 323 -11 100 -12 100 73 35 95 -73 135 -60 50
16 -114 101 -82 162 62 120 138 -40 147 -20 34 77 -52 44 -94 92 -94 107 0 36
-106 110 -175 123 -30 5 -71 25 -92 43 -20 18 -63 35 -96 36 -59 3 -164 81
-147 108 13 21 -250 113 -294 104 -8 -2 -40 6 -70 18 -90 36 -570 145 -644
147 -67 1 -118 51 -53 51 18 0 37 11 42 25 6 16 56 26 137 28 71 2 176 17 235
34 59 16 149 28 200 26 52 -2 89 3 84 12 -5 8 5 15 23 15 18 0 28 -7 23 -16
-11 -17 185 -13 202 5 7 6 -10 11 -37 12 -81 1 -117 42 -74 84 34 33 35 32 31
-10 -4 -38 3 -44 50 -39 33 4 59 -4 66 -20 15 -39 120 -42 157 -5 57 57 39 89
-48 89 -66 0 -80 7 -80 38 0 47 35 62 95 40 24 -9 58 -12 75 -5 30 11 41 -15
17 -40 -23 -22 -20 -111 2 -97 42 26 72 20 100 -21 31 -44 22 -84 -13 -62 -13
7 -16 4 -9 -8 7 -12 31 -16 53 -11 30 8 35 18 21 35 -12 14 -15 31 -7 38 7 7
2 13 -12 13 -13 0 -18 10 -10 23 10 16 22 12 40 -12 15 -21 36 -29 52 -20 21
12 21 10 1 -12 -14 -15 -25 -40 -25 -57 0 -24 5 -22 26 5 24 33 26 33 28 -6 3
-32 -8 -41 -49 -41 -69 0 -52 -12 38 -26 62 -9 76 -4 98 38 14 26 42 48 62 48
21 0 37 9 37 20 0 11 -21 20 -46 20 -68 0 -182 124 -164 179 16 50 84 81 180
81 81 0 170 31 170 60 0 20 -42 21 -220 5z m-1405 -574 c36 -8 65 -22 65 -32
0 -10 12 -13 27 -7 15 6 33 -3 39 -20 7 -17 48 -48 92 -71 44 -22 93 -61 111
-85 17 -25 31 -37 31 -28 0 9 25 1 55 -19 l55 -35 -39 44 c-28 32 -30 41 -8
32 17 -7 42 2 56 18 21 26 18 29 -17 22 -23 -4 -46 1 -53 11 -6 11 -27 19 -47
19 -19 0 -56 23 -82 50 l-47 50 69 0 c86 -1 123 -24 115 -72 -5 -28 5 -37 43
-38 31 0 52 -13 56 -36 4 -19 18 -34 31 -32 54 7 102 -3 81 -17 -12 -8 -32
-33 -44 -55 -23 -39 -24 -39 -36 4 -12 44 -68 81 -68 45 0 -10 9 -19 20 -19
11 0 20 -10 20 -21 0 -12 -11 -15 -25 -7 -14 8 -8 -4 13 -28 20 -24 44 -39 53
-33 9 5 20 -2 26 -16 5 -14 11 -1 11 28 1 34 15 56 41 62 26 7 35 2 27 -17 -5
-15 -17 -24 -25 -19 -22 14 -18 -55 4 -84 11 -14 28 -25 39 -25 10 0 4 15 -14
32 -29 30 -29 36 2 70 38 42 68 49 68 17 0 -12 -9 -16 -20 -9 -11 7 -20 8 -20
3 0 -5 -6 -26 -14 -46 -11 -32 -9 -33 18 -12 17 14 46 20 65 13 27 -11 29 -17
8 -30 -57 -35 164 -199 267 -197 45 0 45 1 7 30 -37 28 -36 29 15 29 30 0 54
-10 54 -21 0 -12 8 -16 18 -10 10 6 23 -2 28 -17 12 -29 -21 -72 -54 -72 -11
0 -2 14 19 31 38 30 37 30 -5 10 -24 -12 -53 -37 -63 -55 -15 -27 -25 -29 -48
-10 -49 41 -58 -1 -10 -53 39 -43 40 -46 4 -21 -122 85 -169 129 -168 157 0
24 8 22 35 -11 35 -41 104 -57 104 -24 0 9 -25 27 -55 40 -30 13 -73 38 -95
55 -37 29 -37 29 -12 -4 44 -58 5 -40 -151 66 -81 55 -167 109 -192 120 -51
22 -162 93 -319 203 -115 80 -247 128 -201 72 13 -16 19 -35 12 -42 -6 -7 12
-18 41 -25 28 -7 52 -21 52 -31 0 -9 -13 -12 -30 -5 -16 6 -30 2 -30 -9 0 -12
27 -27 60 -34 33 -7 60 -24 60 -37 0 -13 9 -10 20 7 11 17 19 21 19 10 0 -11
-8 -33 -18 -49 -12 -20 -8 -37 15 -55 32 -24 31 -25 -1 -14 -56 19 -41 -27 20
-63 30 -17 39 -26 18 -20 -20 6 -50 11 -66 11 -16 0 -24 9 -17 19 6 11 -5 36
-24 56 -85 86 -183 261 -173 308 9 41 7 43 -17 15 -31 -37 -94 -42 -135 -10
-21 16 -25 16 -15 0 8 -15 -4 -19 -36 -13 -65 13 -46 39 46 64 92 26 123 26
84 1 -24 -16 -21 -19 17 -20 36 0 44 8 35 33 -10 25 -7 28 13 12 14 -11 54
-27 90 -34z m-1093 -177 c47 -44 78 -29 63 29 -8 30 -4 39 12 29 13 -8 23 -3
23 12 1 20 5 20 18 -2 17 -27 12 -39 -52 -110 -13 -15 -19 -33 -12 -40 16 -16
-68 -11 -144 8 l-60 15 67 3 c56 2 65 8 52 37 -8 19 -17 58 -19 85 -3 32 -1
35 5 10 5 -22 26 -56 47 -76z m305 97 c36 -8 52 -5 44 8 -13 21 50 5 69 -18 6
-7 36 -28 67 -48 80 -51 55 -60 -40 -14 -44 21 -123 41 -174 44 -51 2 -93 10
-93 17 0 23 23 38 47 30 13 -4 49 -12 80 -19z m-5 -180 c11 -12 18 -4 19 20 1
35 4 34 20 -6 10 -25 27 -45 38 -45 30 0 26 75 -4 87 -15 6 -10 10 11 11 43 2
43 -130 0 -147 -14 -5 -23 1 -21 14 3 12 -22 28 -55 34 -33 6 -59 23 -58 36 8
102 13 117 22 65 5 -27 18 -59 28 -69z m1738 -70 c0 -9 23 -22 50 -29 66 -17
64 -68 -3 -85 -83 -20 -177 88 -135 156 12 20 88 -16 88 -42z m-688 -4 c21
-24 27 -38 14 -30 -13 7 -28 5 -34 -5 -7 -10 12 -24 41 -31 50 -12 50 -14 14
-42 -20 -16 -28 -28 -17 -25 11 2 49 -11 85 -30 69 -37 88 -62 32 -40 -26 10
-31 5 -21 -20 7 -18 5 -37 -5 -43 -25 -16 -67 44 -55 77 7 17 -5 32 -29 39
-23 6 -36 19 -29 29 6 11 -2 31 -18 44 -25 21 -44 120 -23 120 4 0 24 -20 45
-43z m123 -32 c5 -15 -9 -25 -33 -25 -25 0 -42 13 -42 31 0 37 62 32 75 -6z
m148 -76 c57 -30 58 -34 28 -68 -32 -35 -24 -101 12 -101 10 0 3 -22 -14 -49
-31 -48 -31 -49 12 -41 57 11 76 30 30 30 -30 0 -32 5 -10 31 23 28 28 28 46
-5 11 -20 28 -42 39 -49 10 -7 12 -23 4 -37 -12 -19 -19 -18 -34 3 -15 21 -17
19 -9 -8 12 -35 -18 -51 -30 -17 -15 40 -147 35 -144 -5 2 -25 -3 -31 -17 -17
-36 36 -8 94 42 89 29 -3 42 4 37 20 -4 14 -33 28 -64 32 -32 3 -50 -2 -43
-13 6 -11 -2 -31 -18 -44 -24 -20 -30 -19 -30 3 1 56 38 87 99 80 34 -3 61 3
61 15 0 12 -11 22 -24 22 -27 0 -116 79 -116 103 0 10 14 17 30 17 17 0 30 9
30 20 0 27 12 25 83 -11z m671 -242 c-16 -16 25 -70 44 -58 7 4 15 -16 18 -45
2 -33 -3 -44 -12 -29 -9 14 -41 27 -71 29 -34 3 -50 14 -44 30 5 14 3 25 -5
23 -56 -8 -68 7 -24 31 52 29 117 42 94 19z m-534 -113 c0 -8 19 -5 42 7 50
27 82 4 32 -24 -20 -11 -29 -30 -21 -43 8 -14 0 -12 -20 4 -75 61 -191 46
-182 -23 7 -54 5 -57 -18 -25 -54 73 -19 128 79 124 48 -2 88 -11 88 -20z
m-277 -14 c2 -11 4 -31 5 -45 1 -14 13 -34 25 -45 38 -32 65 -159 42 -200 -14
-25 -14 -32 2 -22 13 8 23 1 23 -17 0 -17 -8 -31 -19 -31 -30 0 -150 118 -135
133 8 7 31 -2 51 -21 32 -28 40 -29 49 -5 8 19 -6 34 -38 42 -27 7 -44 22 -37
33 7 11 26 16 41 10 15 -6 28 -2 28 10 0 11 -28 30 -61 41 -39 14 -58 32 -51
49 6 16 1 28 -11 28 -12 0 -17 -16 -12 -36 6 -24 -7 -44 -41 -59 -27 -13 -44
-19 -38 -12 7 6 -1 25 -17 41 -34 34 -38 66 -8 66 12 0 16 -9 9 -20 -24 -38
24 -20 78 30 55 51 110 65 115 30z m-33 -140 c7 -11 -1 -26 -19 -32 -17 -7
-27 -18 -22 -26 4 -8 -9 -15 -30 -17 -21 -1 -43 6 -50 16 -6 11 3 19 20 19 18
0 37 14 44 30 13 35 39 39 57 10z m350 -85 c0 -11 -15 -14 -33 -6 -19 7 -41 1
-50 -13 -11 -17 -16 -7 -17 29 0 51 3 53 50 31 28 -12 50 -31 50 -41z m-504
-3 c14 3 16 0 5 -5 -46 -23 -18 -45 29 -23 54 24 83 13 60 -24 -8 -13 -31 -19
-52 -14 -53 14 -70 -23 -28 -63 20 -18 29 -22 22 -8 -10 17 -4 21 19 12 30
-12 28 -18 -14 -50 -26 -20 -36 -36 -23 -37 14 0 41 18 62 41 34 36 41 37 63
10 28 -34 81 -42 81 -13 0 18 -77 50 -146 60 -9 1 -2 17 16 35 30 30 35 29 69
-5 20 -21 55 -54 79 -73 48 -39 56 -95 14 -95 -16 0 -32 8 -35 17 -4 9 -34 23
-66 31 -59 15 -59 14 -24 -25 22 -23 50 -35 68 -28 21 8 27 4 17 -12 -11 -18
0 -21 41 -12 44 9 50 7 27 -9 -16 -12 -54 -17 -83 -11 -29 6 -59 2 -66 -10 -8
-12 2 -21 21 -21 39 0 27 -21 -15 -27 -15 -2 -39 -12 -53 -21 -48 -29 -52 7
-6 50 52 49 46 85 -17 95 -30 4 -41 -1 -31 -17 8 -12 27 -18 42 -12 36 14 36
-16 0 -46 -28 -23 -91 64 -92 126 -1 12 -18 45 -40 72 -22 28 -39 59 -39 70 0
11 8 7 18 -9 31 -49 49 -6 24 54 -19 45 -19 49 2 23 14 -17 36 -29 51 -26z
m534 -79 c12 -10 4 -12 -17 -5 -27 9 -34 4 -27 -16 8 -19 0 -24 -28 -17 -37
10 -38 12 -6 48 19 20 40 31 46 22 7 -8 21 -22 32 -32z m-662 -105 c36 -9 53
-6 46 6 -7 11 0 19 15 19 22 0 22 -8 -3 -46 -29 -44 -103 -70 -76 -27 7 11
-10 20 -40 20 -29 0 -47 8 -41 18 6 10 0 24 -14 30 -25 11 -1 7 113 -20z m-3
-91 c19 -10 35 -27 35 -38 0 -11 -27 -6 -59 11 -33 16 -96 32 -141 33 -45 2
-86 11 -92 21 -13 21 209 -3 257 -27z m704 8 c28 5 45 2 39 -8 -6 -9 -20 -17
-31 -17 -31 0 -162 -63 -202 -97 -44 -37 -55 -26 -33 34 11 28 29 43 46 37 15
-6 38 10 53 37 20 37 32 43 52 26 15 -12 49 -17 76 -12z m-760 -64 c6 -10 3
-24 -9 -31 -11 -7 -20 -2 -20 11 0 18 -8 18 -30 -1 -24 -20 -30 -20 -30 0 0
13 -13 19 -30 13 -16 -7 -30 -3 -30 8 0 24 134 25 149 0z m-421 -223 c-19 -21
-45 -38 -59 -38 -14 0 -30 -13 -36 -29 -6 -15 -31 -39 -57 -52 -39 -21 -38
-17 10 28 32 30 50 63 42 76 -10 16 0 20 30 12 33 -9 42 -5 35 15 -6 15 0 31
13 36 45 16 57 -10 22 -48z m167 -24 c13 -10 39 -13 56 -6 23 8 30 1 25 -25
-3 -20 8 -53 24 -73 29 -36 28 -36 -25 -1 -30 19 -49 45 -42 56 8 12 4 15 -9
7 -13 -7 -57 4 -98 26 l-76 40 60 -2 c33 -2 71 -12 85 -22z"/>
<path d="M465 4077 c-14 -14 -25 -37 -25 -51 0 -14 -7 -24 -15 -22 -28 7 -165
-88 -154 -106 6 -10 1 -18 -11 -18 -12 0 -17 -8 -11 -19 7 -10 38 -18 71 -17
32 1 54 9 49 18 -5 8 6 25 26 36 21 13 25 21 9 21 -37 1 -8 41 29 41 22 0 27
-11 18 -35 -11 -28 -8 -30 12 -10 28 28 105 35 88 7 -6 -10 5 -24 24 -31 33
-13 32 -16 -4 -42 -21 -16 -30 -30 -20 -31 11 -1 -3 -9 -31 -18 -47 -15 -48
-16 -5 -18 26 -1 57 18 77 48 18 28 43 50 55 50 13 0 10 -9 -7 -20 -40 -26
-20 -25 62 3 70 24 97 49 98 90 0 18 -15 17 -55 -2 -139 -67 -149 -65 -142 42
6 103 -72 150 -138 84z"/>
<path d="M982 3885 c-14 -25 -44 -35 -109 -35 -63 0 -84 -7 -71 -22 20 -24
-58 -68 -122 -68 -43 0 -72 -33 -38 -44 15 -5 12 -16 -8 -32 -24 -21 -36 -19
-62 7 -18 18 -45 28 -60 23 -15 -6 -37 -1 -48 10 -29 29 -84 5 -84 -36 0 -28
5 -29 33 -5 30 24 31 23 9 -19 l-24 -45 70 29 c54 22 67 23 60 3 -13 -33 41
-45 142 -32 69 10 81 19 93 71 7 33 13 45 15 27 3 -51 62 -92 64 -44 0 20 6
26 11 13 18 -45 61 -5 54 50 -6 41 -4 45 9 17 15 -34 18 -34 65 5 42 36 43 40
9 30 -33 -10 -34 -8 -10 10 38 27 154 29 170 2 21 -34 50 -22 50 19 0 79 -180
133 -218 66z"/>
<path d="M445 3829 c-97 -59 -99 -60 -46 -60 22 0 35 4 30 9 -5 5 25 29 66 55
41 25 66 46 55 46 -11 0 -58 -22 -105 -50z"/>
<path d="M2473 3787 c-8 -9 -385 -32 -566 -35 -90 -1 -159 -9 -154 -17 5 -8
-2 -16 -17 -17 -14 -1 13 -10 61 -20 48 -9 105 -22 128 -29 30 -10 36 -7 25
14 -13 22 -11 22 11 2 36 -33 80 -32 67 2 -10 26 43 52 107 53 48 0 25 -57
-30 -76 -54 -18 -53 -19 35 -37 55 -12 95 -12 103 -1 6 10 17 6 23 -9 6 -15
12 -17 12 -6 1 14 37 17 102 9 69 -9 94 -6 80 8 -32 32 -24 112 11 112 33 0
36 -6 69 -136 13 -49 31 -80 42 -73 12 7 16 25 10 40 -6 15 0 34 12 41 13 8
17 5 9 -7 -7 -11 1 -26 18 -33 18 -6 26 -3 19 8 -7 11 1 14 19 8 17 -7 26 -20
20 -30 -6 -10 3 -12 21 -5 18 7 28 25 22 40 -6 15 -2 27 9 27 10 0 19 -9 19
-21 0 -11 18 -40 40 -64 28 -30 40 -34 40 -14 1 24 4 24 20 -1 16 -25 19 -25
20 -2 0 16 6 23 13 16 7 -7 -1 -34 -18 -60 -32 -49 -15 -114 30 -114 17 0 17
6 -1 24 -36 36 -29 72 21 98 l45 24 -40 -47 -40 -46 49 33 c66 45 95 43 53 -4
-37 -41 -14 -62 68 -62 46 0 128 111 107 144 -8 14 -13 50 -11 80 3 41 -3 52
-25 44 -15 -6 -45 -2 -65 9 -31 18 -29 21 18 17 30 -2 54 4 55 13 1 10 -46 20
-104 23 -58 3 -132 15 -165 27 -56 21 -385 62 -397 50z m-107 -74 c6 -15 3
-38 -5 -52 -27 -43 -140 8 -141 64 0 27 135 16 146 -12z"/>
<path d="M326 3713 c-9 -15 -27 -31 -40 -35 -16 -6 -14 -20 8 -48 26 -34 29
-34 19 -4 -7 21 -1 40 16 46 33 13 58 68 31 68 -10 0 -25 -12 -34 -27z"/>
<path d="M980 3701 c0 -28 11 -37 40 -31 22 4 40 0 40 -10 0 -16 123 -100 147
-100 7 0 13 14 13 31 0 19 -10 26 -25 17 -20 -11 -20 -8 0 13 38 41 30 63 -14
40 -65 -35 -87 -26 -72 32 13 53 13 53 -38 20 -44 -30 -51 -30 -51 -3 0 16 -9
30 -20 30 -11 0 -20 -17 -20 -39z"/>
<path d="M3202 3702 c-17 -11 -22 -32 -14 -53 7 -19 18 -29 25 -23 6 6 29 -5
52 -26 54 -51 33 -130 -45 -170 -33 -17 -60 -40 -60 -52 0 -11 -8 -15 -19 -9
-10 6 -24 2 -31 -9 -7 -11 -21 -15 -31 -9 -26 16 -62 -9 -48 -32 7 -12 27 -11
51 2 36 19 39 16 34 -33 -3 -30 5 -58 19 -63 16 -5 21 3 13 23 -9 25 1 32 45
33 49 0 52 3 22 21 -19 11 -46 14 -58 6 -13 -8 -18 -5 -10 7 21 34 113 44 113
11 0 -17 10 -23 25 -13 17 10 17 4 -2 -19 -15 -18 -23 -46 -17 -62 16 -41 -5
-53 -54 -30 -34 17 -32 13 8 -20 28 -23 57 -41 65 -42 8 0 15 -12 15 -28 0
-31 68 -80 135 -97 73 -18 71 18 -5 65 -92 57 -114 100 -78 149 15 21 28 59
28 83 0 25 12 57 27 72 15 15 26 49 25 77 -2 52 -2 53 155 27 143 -24 71 35
-123 102 -102 34 -196 78 -209 96 -17 22 -34 27 -53 16z"/>
<path d="M2400 3577 c73 -30 138 -35 128 -9 -5 12 -47 24 -93 26 -76 4 -80 2
-35 -17z"/>
<path d="M2720 3509 c0 -38 35 -76 89 -96 22 -8 34 -9 26 -1 -7 7 -6 28 4 47
15 27 9 33 -35 32 -33 -1 -52 9 -49 24 3 14 -4 25 -15 25 -11 0 -20 -14 -20
-31z"/>
<path d="M1528 3237 c-8 -13 -5 -18 6 -11 10 7 40 -37 65 -97 26 -64 54 -104
66 -96 12 7 15 4 8 -9 -15 -24 45 -164 71 -164 9 0 16 10 16 21 0 12 9 16 20
9 11 -7 14 1 7 19 -8 23 -19 26 -37 11 -28 -23 -59 24 -34 50 37 36 14 107
-37 117 -51 10 -69 70 -33 106 21 21 17 51 -6 37 -10 -6 -37 -2 -58 9 -29 15
-44 15 -54 -2z"/>
<path d="M1560 2981 c21 -54 41 -131 43 -170 3 -39 11 -71 18 -71 8 0 9 -22 4
-50 -8 -39 -1 -50 28 -50 58 1 77 24 80 98 3 51 -2 62 -16 40 -16 -21 -18 -18
-11 16 5 24 3 47 -5 50 -8 3 -38 58 -68 121 -70 149 -131 163 -73 16z"/>
<path d="M1301 2521 c-12 -21 -21 -54 -21 -74 0 -54 45 0 52 62 6 61 -3 65
-31 12z"/>
<path d="M1499 2448 c-22 -26 -20 -42 10 -100 41 -75 70 -89 66 -29 -2 21 -13
37 -24 35 -12 -2 -21 25 -21 61 0 76 2 74 -31 33z"/>
<path d="M3132 2256 c-50 -55 -55 -70 -41 -144 8 -45 16 -118 17 -162 2 -44
12 -79 22 -78 30 3 92 133 82 173 -4 19 0 30 10 24 10 -6 18 0 18 14 0 18 6
19 22 3 13 -13 33 -19 45 -14 13 5 24 -13 26 -41 2 -44 -1 -46 -28 -19 -39 39
-53 23 -33 -35 9 -26 17 -51 17 -57 7 -52 76 -173 161 -280 56 -71 109 -143
116 -160 8 -16 49 -88 93 -160 43 -71 93 -160 109 -196 32 -70 55 -68 157 14
39 31 53 -10 18 -49 -29 -31 -45 -126 -23 -139 11 -7 15 1 8 17 -6 16 -1 35
11 42 11 7 21 -1 21 -19 0 -18 9 -27 20 -20 32 20 23 -35 -19 -113 -21 -40
-32 -80 -25 -88 8 -8 4 -10 -9 -2 -12 7 -34 -1 -47 -17 -14 -17 -17 -30 -8
-30 9 0 5 -11 -9 -25 -19 -19 -11 -29 41 -46 l66 -22 -55 -11 c-29 -6 -49 -3
-43 7 6 9 -4 17 -22 17 -18 0 -27 -9 -20 -20 6 -10 2 -37 -10 -59 -17 -33 -15
-38 10 -28 16 6 30 3 30 -7 0 -10 -26 -19 -58 -19 -40 0 -55 9 -48 27 6 14 19
26 30 26 11 0 15 13 9 29 -6 17 -3 35 8 42 10 6 19 20 19 31 0 10 -24 3 -53
-16 -29 -19 -43 -37 -31 -41 26 -9 -11 -105 -40 -105 -10 0 -7 19 5 42 24 45
14 70 -20 49 -12 -8 -16 -24 -8 -37 10 -18 7 -18 -12 -1 -18 17 -52 15 -135
-7 -109 -28 -315 -25 -424 6 -31 9 -44 7 -36 -6 7 -11 -10 -30 -38 -43 -73
-34 -84 -27 -30 18 54 45 52 53 -18 66 -28 5 -66 16 -85 23 -21 9 -35 5 -35
-8 0 -12 -18 -22 -40 -22 -41 0 -41 0 -2 -77 36 -70 37 -79 8 -109 -27 -26
-28 -37 -7 -63 32 -39 21 -39 -52 -1 -31 16 -44 30 -29 30 19 0 13 13 -16 38
-31 27 -36 41 -18 48 18 7 15 11 -7 12 -52 3 -83 -48 -47 -78 16 -14 30 -35
30 -47 0 -12 -14 -2 -31 22 -19 28 -42 39 -63 31 -22 -9 -28 -5 -18 11 8 13 1
28 -17 35 -42 16 -39 48 4 48 29 1 30 4 6 19 -69 44 -103 -13 -56 -94 l43 -75
-44 38 c-24 20 -39 45 -33 53 5 9 1 22 -11 29 -42 26 -64 90 -30 90 18 0 27
-9 20 -20 -7 -11 2 -14 21 -7 23 9 26 17 9 27 -28 17 7 100 41 100 10 0 19 14
19 31 0 17 8 26 18 20 10 -6 14 -29 8 -51 -6 -22 -19 -35 -28 -29 -10 6 -18
-2 -18 -18 0 -16 14 -34 32 -41 44 -17 52 -15 38 8 -7 11 -2 20 11 20 18 0 18
8 -1 30 -14 17 -16 30 -5 30 10 0 35 -36 55 -80 38 -84 69 -99 109 -52 27 34
-4 62 -50 44 -34 -12 -37 5 -9 48 18 27 22 27 40 0 12 -19 19 -21 20 -6 0 14
13 20 28 14 15 -6 33 -2 40 9 7 11 -21 31 -62 44 -55 18 -76 19 -82 2 -4 -13
-17 -23 -30 -23 -16 0 -15 7 1 23 18 18 16 29 -9 48 -43 31 -51 88 -14 102 15
6 28 24 28 39 0 16 -12 22 -30 15 -16 -6 -30 -1 -30 12 0 13 9 18 20 11 11 -7
26 3 34 23 8 20 3 38 -11 43 -13 4 -19 14 -15 22 5 7 -8 15 -29 17 -48 3 -48
-3 -5 -46 31 -31 31 -33 -5 -26 -24 5 -39 24 -39 51 0 23 -7 49 -15 58 -8 8
-14 38 -13 66 2 32 6 39 12 18 4 -18 25 -32 45 -31 45 4 32 48 -19 61 -47 12
-60 0 -60 -58 0 -25 -9 -51 -20 -58 -11 -7 -20 -22 -20 -34 0 -14 9 -14 27 2
22 18 26 12 22 -29 -4 -37 6 -56 38 -69 23 -10 35 -18 26 -19 -10 0 -9 -12 2
-26 24 -30 25 -95 2 -95 -9 0 -17 9 -17 21 0 14 -15 13 -45 -1 -42 -21 -43
-20 -8 8 35 28 35 32 4 76 -31 42 -33 42 -27 6 3 -24 -4 -38 -20 -35 -37 8
-55 -56 -22 -77 20 -12 21 -17 3 -18 -16 0 -25 -30 -25 -81 0 -56 7 -77 23
-67 15 9 18 5 9 -9 -8 -13 -23 -19 -32 -13 -9 6 -23 2 -30 -10 -7 -11 -23 -20
-36 -20 -16 1 -14 7 4 18 16 11 31 64 36 133 5 73 22 133 46 164 29 37 34 59
19 86 -26 49 -70 76 -53 33 8 -23 3 -29 -18 -21 -19 8 -25 26 -16 52 9 29 5
36 -13 24 -15 -9 -20 -7 -12 6 16 26 -35 70 -57 50 -9 -8 -10 -4 -3 9 8 14 -3
33 -26 45 -25 14 -35 34 -28 56 8 23 0 19 -22 -10 -20 -27 -28 -62 -21 -85 7
-24 4 -40 -9 -40 -15 0 -14 -10 3 -28 18 -19 37 -22 60 -10 22 12 39 10 48 -5
9 -15 5 -18 -12 -7 -19 12 -23 8 -15 -15 7 -19 0 -36 -17 -43 -17 -6 -26 -5
-21 4 5 8 -11 25 -37 37 -40 18 -45 17 -35 -11 9 -25 3 -24 -33 7 -38 34 -47
35 -63 10 -14 -21 -18 -22 -19 -3 0 15 -9 21 -20 14 -11 -7 -15 1 -8 18 9 23
0 28 -40 21 -29 -6 -52 -1 -52 11 0 11 9 20 19 20 11 0 15 16 9 35 -8 27 -5
26 16 -5 14 -22 44 -43 66 -47 22 -4 50 -15 62 -25 30 -24 52 3 27 33 -11 14
-37 21 -57 15 -25 -6 -51 11 -81 52 -24 34 -53 62 -65 62 -14 0 -14 -8 0 -26
54 -64 -82 -90 -150 -29 -21 19 -65 44 -98 55 -62 22 -123 97 -95 118 40 29
63 96 43 124 -16 22 -17 21 -9 -7 7 -19 3 -35 -8 -35 -23 0 -24 41 -1 77 13
21 19 20 29 -5 6 -18 22 -32 34 -32 12 0 17 7 12 16 -13 20 21 77 36 62 19
-19 -31 -138 -59 -138 -32 0 -51 -117 -22 -135 34 -22 78 -26 132 -13 l50 12
-50 23 c-27 13 -51 39 -53 58 -3 46 10 44 59 -10 l40 -45 -11 45 c-6 25 -3 45
7 45 10 0 18 -31 18 -70 0 -38 -9 -70 -21 -70 -14 0 -14 -13 1 -40 12 -22 37
-40 56 -39 32 0 32 2 -1 27 -43 33 -46 60 -4 44 20 -7 26 -4 17 12 -10 16 -3
18 24 7 21 -9 66 -15 100 -13 49 2 62 -5 60 -33 -1 -19 4 -35 11 -35 7 0 33
-18 58 -40 25 -22 40 -30 33 -18 -7 12 -1 39 14 59 24 32 18 44 -56 104 -45
38 -100 83 -122 102 -23 19 -72 33 -115 32 -41 0 -75 6 -75 15 0 9 -19 16 -41
16 -23 0 -36 9 -29 20 8 13 25 13 50 0 94 -50 196 -35 130 20 -16 13 -24 34
-17 45 7 12 5 16 -5 10 -33 -21 -266 53 -241 75 22 20 37 21 113 13 27 -3 27
-6 0 -23 -24 -16 -21 -19 14 -14 25 4 52 14 60 23 9 10 5 11 -8 4 -13 -8 -37
6 -55 32 -17 25 -36 43 -41 40 -6 -3 -43 8 -82 25 -40 16 -81 25 -91 18 -10
-6 -17 -4 -15 6 8 47 -7 47 -52 -2 -27 -30 -50 -63 -50 -74 0 -11 -24 -44 -53
-73 l-53 -53 68 -59 c37 -32 57 -52 43 -44 -14 7 -25 6 -25 -3 0 -10 29 -28
64 -41 35 -13 57 -30 50 -38 -8 -7 -4 -24 7 -38 11 -14 18 -36 15 -51 -3 -14
21 -39 54 -55 33 -16 65 -35 70 -43 6 -7 27 -19 48 -27 29 -11 33 -20 16 -37
-16 -16 -30 -16 -48 -1 -19 16 -36 14 -62 -5 -23 -17 -29 -31 -15 -39 12 -8
16 -22 10 -32 -6 -11 -2 -19 10 -19 11 0 21 11 22 25 0 14 9 9 21 -10 25 -44
9 -73 -37 -66 -20 3 -35 22 -34 43 0 21 -4 43 -10 48 -47 45 -124 143 -96 122
19 -15 35 -19 35 -10 0 9 11 5 24 -8 13 -13 42 -24 65 -23 39 0 39 2 -7 40
-48 40 -82 41 -209 9 -60 -16 -199 -130 -157 -130 13 0 24 -12 24 -28 0 -52
66 -231 81 -221 9 5 22 1 29 -11 7 -11 3 -20 -9 -20 -23 0 19 -78 80 -150 19
-22 40 -76 47 -120 11 -67 9 -73 -11 -40 -12 22 -25 43 -28 47 -11 13 -89 -20
-81 -34 5 -8 -8 -14 -28 -14 -20 0 -33 7 -27 15 5 9 1 16 -10 16 -11 0 -24
-11 -30 -25 -8 -20 -10 -20 -11 0 -1 14 -18 25 -37 24 -27 0 -21 -12 25 -51
l60 -51 -64 31 c-69 35 -146 42 -146 15 0 -35 72 -78 125 -75 30 2 55 -4 55
-12 0 -25 -110 -18 -136 8 -39 39 -27 -3 16 -58 42 -54 37 -91 -11 -73 -16 6
-29 32 -29 58 0 65 -32 78 -67 28 -16 -23 -34 -33 -41 -23 -6 11 2 25 18 31
17 7 30 25 30 41 0 16 11 32 24 37 16 5 17 12 3 21 -11 7 -51 -14 -89 -45 -84
-71 -53 -159 66 -186 62 -15 917 1 1046 19 94 14 309 15 435 4 63 -6 115 -3
115 6 0 9 18 16 40 16 22 0 40 -8 40 -18 0 -9 128 -19 285 -21 157 -2 294 -4
305 -4 124 -2 634 23 649 32 10 6 24 3 31 -8 7 -13 29 -5 54 19 23 21 50 34
59 28 9 -6 17 13 17 41 0 28 -10 51 -21 51 -12 0 -35 13 -52 30 -23 23 -39 25
-71 8 -30 -16 -37 -16 -27 0 7 12 5 22 -6 22 -11 0 -23 -8 -26 -19 -9 -24
-257 -45 -257 -21 0 9 18 23 41 30 22 7 62 35 89 62 26 26 58 48 69 48 12 0
21 13 21 28 0 16 7 32 15 35 28 13 182 227 204 284 30 80 11 346 -28 385 -17
17 -31 41 -31 52 0 22 -117 176 -184 242 -20 19 -36 44 -36 55 0 10 -12 19
-26 19 -15 0 -47 23 -71 51 -24 28 -53 45 -64 38 -11 -6 -18 -4 -14 6 3 11
-38 59 -90 109 -52 49 -95 97 -95 106 0 8 -13 26 -29 38 -16 12 -45 64 -65
114 -31 80 -144 230 -199 264 -10 6 -43 -17 -75 -50z m368 -516 c0 -22 9 -41
20 -42 11 -2 31 -4 45 -6 14 -2 23 -24 20 -49 -3 -25 3 -41 12 -35 9 6 16 -3
16 -19 0 -35 -12 -36 -58 -1 -37 28 -49 63 -15 42 11 -7 20 -3 20 9 0 25 -82
61 -105 47 -19 -10 -20 62 -2 81 26 25 47 13 47 -27z m-1877 -85 c-3 -8 -11
-32 -17 -55 -6 -22 -19 -40 -30 -40 -10 0 -13 -9 -6 -20 7 -11 4 -20 -7 -20
-11 0 -29 -25 -40 -55 l-20 -55 -1 65 c-1 36 -11 65 -22 65 -11 0 -20 10 -20
22 0 12 15 17 32 10 26 -10 30 -3 21 35 -7 26 -7 52 -1 59 17 16 119 6 111
-11z m2073 -135 c-5 -63 -12 -68 -64 -48 -38 15 -41 51 -8 84 44 44 77 27 72
-36z m107 -111 c28 -9 38 -25 31 -51 -6 -21 -2 -43 8 -49 29 -18 -2 -53 -35
-41 -19 8 -24 3 -15 -13 8 -14 -7 -4 -32 22 -32 33 -38 52 -22 62 15 9 6 22
-27 37 -58 26 -65 54 -20 72 18 6 25 22 17 35 -9 14 -5 18 9 9 13 -8 24 -3 26
12 2 14 7 2 11 -28 5 -32 25 -59 49 -67z m141 -104 c-13 -5 -18 -18 -11 -30 7
-12 4 -15 -8 -8 -11 7 -25 -5 -31 -27 -6 -22 -2 -45 8 -51 28 -17 21 -49 -13
-62 -18 -7 -51 7 -79 33 l-48 45 74 50 c41 27 77 58 81 68 3 9 16 11 29 3 16
-9 15 -16 -2 -21z m73 -195 c-2 -58 -2 -58 -16 10 -8 39 -20 93 -27 120 -11
40 -8 38 15 -10 16 -33 29 -87 28 -120z m-2528 -49 c17 -14 31 -18 32 -8 0 9
10 1 21 -20 12 -20 16 -41 10 -48 -7 -6 -12 -1 -12 12 0 13 -9 23 -20 23 -11
0 -20 -14 -20 -32 0 -20 -11 -28 -30 -21 -16 7 -30 3 -30 -8 0 -26 -54 -24
-71 2 -7 12 -1 19 14 16 15 -3 48 6 75 21 l47 26 -77 36 c-68 31 -71 35 -24
31 29 -2 68 -16 85 -30z m451 -137 c0 -3 -8 -1 -18 5 -9 6 -22 -8 -28 -31 -7
-27 -20 -37 -36 -27 -17 11 -21 6 -13 -15 7 -17 -2 -51 -19 -75 l-30 -44 -38
62 c-40 65 -51 141 -20 141 27 0 47 -68 23 -76 -24 -8 -8 -44 20 -44 11 0 19
34 19 75 1 56 6 68 20 45 17 -25 22 -23 32 13 10 38 88 13 88 -29z m133 1 c31
13 57 -66 27 -85 -27 -17 -14 -29 25 -22 24 3 18 -18 -23 -75 -21 -29 -40 -62
-42 -73 -15 -62 -24 -67 -71 -46 -41 19 -44 28 -25 64 21 39 20 40 -15 12 -33
-26 -32 -22 5 40 43 70 46 78 46 124 0 18 6 18 24 0 19 -19 20 -34 1 -63 -18
-29 -18 -42 2 -58 18 -15 31 -10 48 17 14 21 16 40 5 44 -10 3 -22 28 -26 55
-7 48 -54 85 -54 43 0 -11 -20 -39 -44 -62 -25 -23 -45 -61 -45 -86 -1 -52
-57 -60 -67 -9 -4 19 3 35 14 35 12 0 35 32 51 71 17 40 39 67 49 60 11 -6 26
-1 34 12 8 14 6 18 -7 10 -11 -7 -26 1 -32 17 -11 27 -5 27 47 0 33 -17 65
-28 73 -25z m116 -60 c-4 -90 -11 -98 -30 -37 -17 58 -10 92 18 92 8 0 13 -25
12 -55z m-640 4 c20 -21 31 -23 31 -8 0 18 7 18 30 -1 16 -13 45 -19 65 -12
19 7 10 -7 -20 -30 -65 -49 -74 -90 -13 -57 50 27 49 28 67 -68 10 -57 7 -73
-10 -62 -15 9 -21 4 -15 -13 6 -15 27 -25 47 -21 32 6 33 2 10 -25 -18 -23
-34 -26 -50 -12 -14 11 -31 13 -40 5 -8 -8 -9 22 -2 68 15 100 -58 139 -136
73 -38 -33 -40 -33 -15 -1 15 19 19 36 9 37 -9 1 6 9 33 18 l50 16 -54 2 c-29
1 -60 12 -67 24 -10 15 0 18 28 9 24 -8 43 -5 43 6 0 11 -18 26 -40 33 -22 7
-40 21 -40 31 0 30 54 22 89 -12z m818 -169 c-5 -62 -21 -102 -52 -128 -25
-20 -42 -47 -39 -58 4 -12 -5 -11 -22 2 -15 13 -34 17 -42 9 -8 -7 -23 -1 -33
16 -10 16 -19 19 -19 6 0 -30 -69 -46 -103 -24 -22 15 -21 18 4 13 40 -8 159
91 159 132 0 16 9 35 20 42 11 7 20 31 20 55 0 23 -7 35 -15 27 -8 -9 -15 -24
-15 -34 0 -10 -8 -16 -18 -13 -15 4 -55 -68 -60 -109 -4 -29 -49 -60 -70 -47
-14 8 -8 28 18 56 22 23 40 51 40 61 0 42 117 127 150 109 25 -14 27 -24 8
-47 -19 -24 -18 -27 9 -16 19 7 34 36 34 65 2 47 4 48 18 13 8 -22 12 -80 8
-130z m-727 -19 c0 -10 -26 -31 -57 -47 -53 -26 -57 -26 -48 7 5 21 21 32 37
25 15 -5 28 0 28 12 0 12 9 22 20 22 11 0 20 -8 20 -19z m296 -101 c47 -23 84
-55 84 -73 0 -25 -6 -27 -28 -8 -20 16 -33 16 -41 2 -8 -12 -2 -21 11 -21 14
0 20 -5 14 -11 -26 -26 -120 20 -147 72 -49 95 -27 103 107 39z m1044 -23 c0
-9 -14 -17 -32 -17 -27 0 -26 -11 11 -72 54 -93 -15 -235 -71 -145 -8 14 -5
18 8 10 11 -8 27 -5 34 7 7 11 -2 20 -19 20 -40 0 -40 38 0 53 26 10 25 16 -5
41 -20 16 -25 23 -11 16 15 -7 25 1 25 20 0 24 -11 29 -40 20 -54 -17 -51 19
4 44 54 24 96 25 96 3z m651 -35 c-6 -9 16 -28 49 -42 65 -27 69 -35 40 -80
-17 -26 -19 -25 -20 4 0 18 -9 39 -20 46 -11 7 -14 -1 -8 -19 9 -23 4 -28 -20
-19 -17 7 -33 20 -34 30 -2 10 -5 29 -7 43 -4 28 6 55 21 55 6 0 5 -8 -1 -18z
m-137 -15 c-8 -7 -4 -25 7 -38 15 -18 15 -29 0 -38 -12 -8 -21 2 -21 21 0 32
-3 32 -40 -2 -22 -20 -40 -28 -40 -18 1 28 27 61 60 73 42 17 48 17 34 2z m93
0 c7 -8 -1 -30 -19 -49 -30 -34 -29 -37 20 -49 75 -19 64 -44 -18 -40 -78 4
-70 -21 10 -33 45 -7 44 -8 -14 -18 -39 -7 -59 -3 -52 9 8 12 -1 15 -21 7 -44
-17 -42 10 7 66 22 25 40 63 40 83 0 37 22 48 47 24z m-1421 -60 c9 -15 28
-27 43 -27 14 0 37 -13 49 -28 13 -15 53 -33 89 -40 36 -7 83 -26 105 -42 44
-34 -128 -22 -197 14 -20 10 -45 12 -55 6 -11 -7 -20 -5 -20 5 0 9 -28 15 -63
13 -59 -4 -197 46 -197 71 0 6 43 8 95 4 l95 -8 -39 44 -40 44 60 -15 c32 -8
66 -26 75 -41z m965 -107 c-14 -16 -21 -43 -16 -58 6 -17 1 -22 -12 -14 -13 8
-23 37 -23 64 0 29 9 45 20 38 11 -7 20 -3 20 8 0 11 -8 25 -18 31 -26 16 -68
-43 -51 -71 9 -15 7 -19 -7 -11 -12 8 -20 31 -19 52 2 21 10 34 18 29 8 -5 20
0 27 12 7 11 3 20 -9 20 -11 0 -21 15 -21 34 0 25 17 14 58 -35 49 -57 54 -74
33 -99z m193 128 c-31 -21 -42 -44 -34 -69 7 -21 -2 -59 -19 -83 -17 -25 -31
-34 -31 -20 0 13 -10 24 -21 24 -12 0 -15 -10 -8 -22 10 -15 1 -15 -29 1 -34
18 -37 28 -17 50 15 16 30 19 37 7 7 -11 18 -6 24 12 7 17 4 36 -7 43 -10 6
-19 21 -19 33 0 14 9 13 28 -2 21 -18 29 -14 38 18 6 25 27 40 57 40 l46 0
-45 -32z m-1517 -52 c11 -42 -87 -36 -142 9 -18 14 -25 11 -25 -11 0 -17 11
-35 25 -40 14 -5 20 -14 14 -20 -6 -7 -35 8 -65 34 -67 58 -58 66 75 66 90 0
110 -6 118 -38z m1632 -77 c-13 -25 -11 -39 6 -46 14 -5 16 -10 5 -11 -37 -2
-83 40 -55 51 46 19 26 42 -30 34 -47 -6 -49 -5 -15 11 22 11 30 20 18 21 -12
0 -21 14 -21 29 0 21 14 18 55 -13 44 -32 52 -49 37 -76z m-1964 56 c-3 -13
16 -27 42 -31 34 -5 43 0 32 17 -10 16 -7 20 8 11 47 -29 22 -56 -42 -47 -106
16 -156 -17 -131 -88 11 -33 15 -65 8 -71 -6 -7 -12 2 -12 19 0 42 -58 32 -93
-15 -26 -37 -27 -37 -27 0 0 56 82 166 150 199 73 37 71 36 65 6z m474 -55
c72 -27 67 -80 -9 -80 -33 0 -60 10 -60 22 0 15 -24 18 -75 7 -41 -8 -101 -13
-132 -11 -32 1 -70 -7 -85 -20 -21 -17 -28 -17 -28 2 0 13 -12 20 -26 14 -14
-5 -51 1 -83 14 -56 23 -56 23 31 24 48 1 147 5 218 9 72 3 152 -1 180 -10 45
-15 47 -13 22 16 -31 38 -24 40 47 13z m-454 -98 c27 10 45 9 45 -2 0 -34
-103 -48 -122 -18 -27 43 -20 72 8 36 18 -23 37 -28 69 -16z"/>
<path d="M2322 714 c-1 -20 -11 -31 -22 -24 -11 7 -20 0 -20 -16 0 -15 -18
-44 -40 -64 -22 -20 -40 -46 -40 -58 0 -12 9 -8 20 8 11 17 20 23 20 14 0 -8
18 -6 41 6 22 12 35 31 28 42 -7 11 -2 33 11 48 13 16 19 40 13 54 -6 16 -10
12 -11 -10z"/>
<path d="M2633 2145 c8 -58 5 -85 -11 -85 -14 0 -18 -18 -10 -50 8 -31 4 -50
-10 -50 -12 0 -41 -21 -63 -47 -35 -41 -54 -46 -140 -37 -86 8 -98 5 -87 -23
7 -18 33 -33 58 -33 25 0 56 -13 70 -30 14 -16 41 -30 60 -30 19 0 68 -22 108
-50 95 -64 173 -64 251 2 76 64 67 78 -48 71 -140 -9 -224 67 -124 112 49 22
88 182 62 251 -15 38 -69 61 -69 30 0 -13 -13 -6 -30 15 -28 36 -29 32 -17
-46z"/>
<path d="M1978 2065 c-2 -8 -4 -24 -5 -35 -2 -11 -51 -68 -110 -126 -66 -65
-102 -117 -95 -135 17 -45 43 -35 102 36 29 36 68 83 86 105 19 22 35 54 37
70 1 17 9 46 17 65 9 21 5 35 -8 35 -12 0 -23 -7 -24 -15z"/>
<path d="M2100 1991 c0 -27 10 -55 22 -62 12 -8 18 -35 13 -61 -5 -27 -4 -48
3 -48 19 1 74 39 56 40 -8 0 -6 18 6 39 16 32 13 43 -20 61 -22 12 -40 35 -40
51 0 16 -9 29 -20 29 -11 0 -20 -22 -20 -49z"/>
<path d="M2332 1965 c-8 -8 -25 -15 -38 -15 -62 0 -24 -41 41 -45 65 -4 70 -2
36 18 -39 23 -39 24 0 39 29 11 31 16 7 17 -17 0 -38 -6 -46 -14z"/>
<path d="M2063 1898 c-2 -18 -21 -31 -47 -30 -30 2 -62 -25 -101 -83 -36 -53
-73 -85 -98 -85 -59 0 -34 -49 28 -56 41 -5 59 6 83 53 54 104 132 160 132 94
0 -15 -16 -34 -36 -40 -20 -6 -52 -43 -70 -81 -18 -39 -47 -70 -64 -70 -16 0
-30 -13 -30 -30 0 -50 77 -33 114 25 19 30 49 75 67 99 l33 44 22 -48 c18 -38
17 -46 -4 -38 -14 6 -49 -25 -79 -71 -29 -45 -64 -81 -76 -81 -15 0 -15 -9 2
-29 25 -30 81 -21 81 13 0 11 23 47 50 80 46 54 50 56 50 16 0 -24 -11 -55
-25 -69 -67 -71 -95 -115 -84 -132 23 -38 61 -18 85 46 20 52 29 59 44 35 16
-24 19 -22 20 14 0 62 -41 252 -61 276 -9 11 -20 56 -24 100 -5 44 -10 66 -12
48z"/>
<path d="M2185 1710 c0 -27 8 -50 18 -50 9 0 17 10 17 21 0 12 9 16 20 9 31
-19 24 -76 -8 -64 -19 8 -24 0 -17 -27 11 -46 45 -52 45 -10 0 16 18 39 40 51
47 25 55 70 9 52 -18 -6 -26 -3 -19 8 7 11 -6 20 -29 20 -22 0 -41 9 -41 20 0
11 -8 20 -17 20 -10 0 -18 -22 -18 -50z"/>
<path d="M1080 1677 c-38 -34 -104 -77 -145 -96 -113 -52 -189 -170 -179 -276
11 -116 32 -121 84 -20 66 128 183 219 166 129 -8 -38 6 -53 72 -85 45 -21 82
-46 82 -55 0 -9 -11 -10 -25 -2 -19 11 -20 8 -1 -12 29 -31 200 -30 238 2 39
32 29 139 -11 133 -21 -3 -33 14 -38 55 -3 33 -15 69 -27 80 -14 14 -16 6 -7
-25 15 -50 -23 -64 -42 -15 -6 17 -24 30 -40 30 -16 0 -24 9 -17 20 23 37 -54
48 -81 12 -15 -21 -30 -26 -38 -14 -7 11 -27 15 -45 8 -26 -10 -25 -5 6 27 22
23 43 31 51 19 25 -35 77 30 73 91 -3 31 -5 57 -5 56 -1 0 -32 -28 -71 -62z"/>
<path d="M2218 1525 c-2 -8 -1 -23 0 -32 2 -9 -18 -36 -45 -60 -56 -50 -84
-124 -53 -143 12 -7 31 14 43 51 19 52 26 58 41 32 12 -22 7 -49 -16 -83 -30
-47 -30 -50 1 -50 18 0 28 8 22 19 -6 10 0 25 14 33 14 8 18 7 10 -2 -8 -9 -2
-31 14 -48 15 -18 29 -41 31 -52 1 -11 14 -18 29 -15 14 3 38 -10 53 -30 25
-32 25 -32 -7 -8 -50 39 -43 14 11 -45 55 -59 102 -74 103 -32 1 33 -131 160
-166 160 -13 0 -23 12 -23 26 0 14 -18 60 -40 103 -28 57 -33 85 -18 104 12
14 16 35 9 46 -8 12 -4 21 6 21 11 0 26 -18 33 -41 10 -30 24 -37 54 -28 27 9
38 5 33 -10 -4 -13 -16 -23 -25 -21 -30 6 -51 -48 -26 -64 39 -25 54 -19 74
34 10 28 30 50 45 50 44 1 -31 39 -78 40 -23 0 -48 14 -54 30 -12 31 -71 42
-75 15z"/>
<path d="M2324 1292 c15 -27 26 -33 31 -17 5 14 17 25 28 25 11 0 14 -8 8 -18
-15 -24 42 -68 68 -52 12 7 16 21 10 31 -6 11 -1 19 12 19 14 0 18 -14 9 -35
-8 -19 -18 -46 -24 -60 -22 -54 33 -22 62 36 33 67 8 97 -61 71 -17 -7 -45 -2
-61 11 -53 45 -107 37 -82 -11z"/>
<path d="M2646 1090 c-2 -40 4 -66 15 -59 11 6 19 -5 19 -26 0 -20 11 -48 23
-60 18 -18 16 -27 -9 -36 -25 -10 -28 -22 -15 -48 28 -52 42 -144 19 -130 -10
6 -14 20 -8 29 6 9 2 23 -8 29 -38 23 -40 -24 -3 -58 42 -38 98 21 70 74 -7
14 6 3 29 -25 23 -27 41 -40 42 -27 0 32 50 22 97 -20 25 -23 44 -28 52 -14
17 26 -6 65 -29 51 -9 -6 -23 -2 -30 10 -17 27 56 26 84 -2 13 -13 18 -35 12
-51 -7 -18 0 -24 21 -16 66 26 -17 124 -94 111 -22 -4 7 85 34 102 12 7 -7 13
-43 12 -62 -2 -87 -39 -44 -66 12 -7 15 -21 9 -32 -7 -10 -35 -1 -63 22 -28
22 -62 40 -74 40 -13 0 -25 19 -27 42 -2 30 6 38 28 30 17 -7 39 -12 50 -12
11 0 14 -8 8 -19 -6 -10 -3 -24 9 -31 22 -13 22 -13 30 89 5 60 3 64 -17 30
-13 -21 -36 -42 -51 -45 -23 -5 -24 -1 -4 23 21 25 15 31 -32 37 -44 5 -57 17
-62 61 -9 78 -33 68 -38 -15z"/>
<path d="M3785 988 c0 -26 8 -48 18 -48 10 0 9 -18 -3 -39 -11 -22 -33 -35
-48 -29 -15 6 -32 -4 -39 -22 -7 -18 -22 -27 -33 -20 -11 7 -20 1 -20 -14 -1
-19 -6 -18 -22 4 -19 27 -20 27 -13 0 6 -19 27 -28 62 -24 29 4 53 -1 53 -10
0 -25 -159 -64 -172 -43 -6 9 3 17 20 17 19 0 26 11 19 31 -9 24 -17 25 -41 5
-25 -20 -35 -18 -56 10 -23 33 -26 32 -35 -5 -6 -22 2 -50 17 -63 22 -18 28
-17 28 4 0 19 9 17 34 -7 44 -44 33 -50 -69 -40 -59 6 -85 19 -85 40 0 23 6
25 28 7 23 -19 27 -14 25 26 -3 47 -6 48 -48 20 -25 -16 -44 -22 -43 -14 11
68 -3 85 -55 65 -70 -27 -107 -11 -107 45 -1 37 -4 40 -20 16 -11 -16 -20 -22
-20 -13 0 10 -12 8 -27 -4 -15 -13 -33 -17 -40 -9 -7 7 -13 -5 -13 -26 -1 -27
-11 -19 -33 28 -18 36 -38 58 -45 50 -6 -9 -21 -23 -32 -33 -12 -10 -3 -11 20
-4 32 11 35 8 16 -11 -20 -20 -16 -30 20 -47 24 -12 44 -38 44 -57 0 -20 14
-44 30 -54 35 -22 29 -24 -124 -28 -87 -3 -109 2 -94 20 14 17 12 29 -4 39
-15 10 -19 7 -10 -8 15 -24 -40 -23 -79 1 -11 7 -22 -4 -24 -25 -3 -45 16 -50
52 -14 21 20 25 19 19 -5 -4 -19 9 -30 34 -30 22 0 50 -13 62 -28 13 -16 33
-22 47 -12 14 8 31 5 39 -6 7 -12 53 -28 101 -36 63 -10 83 -8 73 9 -8 13 -6
23 5 23 11 0 23 -11 28 -25 18 -55 267 -34 292 24 17 41 19 42 11 6 -8 -32 -2
-45 21 -45 52 0 171 56 171 80 0 12 8 17 19 11 10 -6 24 -2 32 10 7 12 25 17
40 11 15 -6 34 1 42 14 7 13 6 17 -3 9 -21 -19 -76 59 -60 85 7 11 -1 15 -17
8 -16 -6 -34 -2 -41 8 -6 11 6 24 27 30 39 10 71 -31 63 -81 -11 -72 72 8 137
132 23 43 22 45 -19 23 -24 -13 -39 -28 -33 -34 6 -6 -2 -24 -19 -41 -16 -16
-36 -23 -44 -15 -8 9 -3 19 11 24 14 5 25 17 25 27 0 10 -12 13 -26 8 -20 -8
-25 8 -21 58 3 44 -5 73 -21 80 -18 6 -27 -7 -27 -39z m-578 -273 c-5 -8 -30
1 -56 20 -26 19 -43 42 -38 50 5 8 -2 15 -15 15 -15 0 -10 16 12 41 37 40 37
40 72 -35 19 -41 30 -82 25 -91z m117 81 c-35 -35 -29 -56 16 -56 28 0 40 -13
40 -45 0 -25 -7 -36 -15 -25 -8 11 -42 30 -75 41 -33 11 -63 37 -67 57 -5 28
2 35 24 26 18 -7 37 -4 44 7 6 10 22 19 34 19 17 0 16 -7 -1 -24z m436 -86 c0
-16 -7 -29 -15 -28 -42 7 -66 -4 -53 -25 9 -14 5 -18 -9 -9 -13 8 -24 3 -25
-12 -1 -20 -3 -20 -11 -1 -6 14 -19 20 -29 14 -10 -6 -18 -1 -18 12 0 13 14
18 32 11 23 -9 29 -4 21 16 -7 21 1 27 28 22 21 -4 43 1 50 11 17 28 29 23 29
-11z m-540 -60 c0 -4 -18 -4 -40 0 -22 4 -47 -6 -56 -22 -15 -27 -20 -27 -43
1 -23 28 -22 30 9 18 27 -10 32 -7 20 13 -11 17 -8 21 7 12 13 -8 23 -5 23 8
0 15 11 15 40 0 22 -12 40 -25 40 -30z m88 4 c15 -23 14 -40 -2 -56 -18 -18
-21 -14 -13 17 6 22 -1 47 -14 56 -16 9 -20 7 -12 -7 8 -11 5 -27 -7 -34 -11
-7 -20 7 -20 30 0 49 36 45 68 -6z m139 -30 c-6 -24 -20 -39 -30 -32 -10 6
-12 21 -6 34 7 13 -2 7 -20 -15 -17 -21 -31 -28 -31 -16 0 21 81 90 93 79 3
-3 0 -26 -6 -50z"/>
<path d="M700 259 c0 -10 -13 -13 -30 -6 -18 7 -30 0 -30 -19 0 -33 55 -55
160 -63 39 -4 54 -2 35 3 -19 5 -35 26 -35 47 0 22 -7 40 -15 41 -8 0 -31 4
-50 8 -19 3 -35 -1 -35 -11z"/>
</g>
</svg>
