<?xml version="1.0" standalone="no"?>
<!DOCTYPE svg PUBLIC "-//W3C//DTD SVG 20010904//EN"
 "http://www.w3.org/TR/2001/REC-SVG-20010904/DTD/svg10.dtd">
<svg version="1.0" xmlns="http://www.w3.org/2000/svg"
 width="300.000000pt" height="456.000000pt" viewBox="0 0 300.000000 456.000000"
 preserveAspectRatio="xMidYMid meet">
<metadata>
Created by potrace 1.10, written by Peter Selinger 2001-2011
</metadata>
<g transform="translate(0.000000,456.000000) scale(0.050000,-0.050000)"
fill="#000000" stroke="none">
<path d="M2940 7603 c0 -11 50 -44 110 -72 61 -29 110 -64 110 -78 0 -14 18
-45 40 -68 52 -56 51 -96 -3 -100 -24 -2 -50 -14 -58 -27 -18 -28 -181 -56
-251 -43 -70 14 -47 56 26 49 65 -6 107 44 55 64 -20 7 -29 43 -29 120 0 132
-17 148 -86 76 -130 -135 -167 -397 -86 -609 64 -166 64 -168 4 -183 -136 -34
-190 -135 -202 -383 -2 -55 -24 -144 -47 -197 -54 -122 -61 -253 -11 -203 22
22 29 52 21 90 -9 47 -5 55 23 48 66 -17 119 -78 132 -147 l12 -71 -85 3 c-47
2 -109 9 -139 16 -50 11 -55 6 -86 -93 -18 -58 -37 -117 -43 -131 -7 -15 5
-31 27 -37 50 -13 56 -140 12 -272 -35 -108 -12 -152 96 -185 26 -8 86 -54
132 -102 53 -55 95 -83 114 -76 68 26 69 -18 2 -64 -76 -51 -122 -63 -98 -25
9 14 5 18 -8 9 -14 -8 -39 19 -64 67 -22 45 -50 81 -60 81 -31 0 -24 -21 30
-92 l51 -67 -56 -27 c-30 -16 -174 -71 -319 -123 -164 -60 -288 -117 -328
-153 -49 -44 -71 -52 -91 -35 -15 12 -45 17 -67 11 -22 -6 -45 -2 -51 8 -6 10
-1 18 12 18 13 0 19 12 13 28 -6 15 -1 37 12 50 16 16 14 22 -10 22 -37 0 -64
83 -33 102 13 8 25 53 27 100 l5 86 -37 -46 c-35 -43 -38 -44 -38 -7 0 21 -45
157 -100 302 -68 178 -97 279 -88 312 6 27 5 60 -4 74 -9 14 -19 57 -22 96
-11 115 -23 133 -56 89 -16 -21 -29 -53 -29 -72 -1 -52 -31 -59 -115 -28 -143
54 -220 57 -286 13 -33 -23 -87 -59 -120 -82 -33 -22 -60 -35 -60 -28 0 31
115 167 185 220 58 44 70 61 45 66 -25 5 -30 19 -20 60 16 62 47 86 95 71 25
-8 32 -2 23 21 -19 47 -128 41 -128 -7 0 -21 -9 -42 -20 -45 -11 -4 -23 -34
-27 -67 -4 -33 -35 -92 -71 -130 -128 -141 -165 -251 -151 -452 7 -98 12 -211
10 -251 -3 -77 25 -116 52 -72 16 25 18 35 24 101 2 22 12 31 26 22 16 -10 18
-5 6 14 -10 15 -15 48 -12 73 4 27 -7 50 -26 57 -17 7 -31 32 -31 55 1 35 4
38 20 13 17 -27 20 -27 22 0 1 17 5 39 7 50 3 11 6 32 8 46 11 92 283 284 283
199 0 -10 13 -14 28 -9 15 6 34 5 42 -2 7 -8 19 -15 27 -16 93 -11 175 -97
142 -149 -10 -16 -19 -82 -19 -147 0 -110 -57 -346 -98 -410 -16 -25 -26 -24
-69 4 -55 36 -81 19 -60 -38 11 -28 7 -32 -25 -19 -79 32 -299 91 -339 91 -36
0 -47 -26 -85 -195 -52 -229 -53 -237 -15 -252 23 -9 31 22 42 148 20 225 73
244 252 86 51 -44 87 -61 116 -53 26 7 58 -3 82 -25 31 -28 45 -31 63 -13 29
29 56 31 56 4 0 -11 -14 -20 -31 -20 -19 0 -26 -10 -17 -25 8 -14 7 -18 -2
-10 -9 8 -28 5 -43 -8 -30 -25 -37 -66 -8 -48 10 6 24 3 31 -9 7 -11 -1 -20
-18 -20 -16 0 -35 9 -41 19 -15 24 -71 4 -71 -25 0 -13 -18 -41 -39 -63 -22
-23 -71 -77 -110 -120 l-71 -79 0 55 c0 91 -34 133 -106 132 -57 0 -60 -3 -29
-27 43 -33 45 -52 5 -52 -17 0 -40 23 -51 52 -24 64 -67 53 -75 -19 -5 -36 11
-75 45 -115 28 -34 51 -69 51 -78 0 -34 64 -80 111 -80 37 0 45 8 35 35 -10
29 -7 30 15 10 62 -57 219 17 219 103 0 89 94 132 216 99 33 -9 42 -22 33 -50
-33 -103 240 -493 392 -561 46 -20 58 -38 57 -86 -2 -101 25 -178 83 -230 99
-89 119 -102 137 -91 19 12 46 -53 76 -183 19 -79 17 -83 -17 -64 -20 11 -37
37 -37 59 0 22 -13 45 -30 52 -16 6 -30 23 -30 37 0 14 -26 51 -57 83 -32 31
-67 75 -80 97 -19 35 -22 32 -22 -30 -1 -80 86 -244 178 -336 70 -70 79 -135
21 -150 -65 -17 -46 -48 50 -85 75 -29 101 -54 164 -162 68 -116 106 -155 106
-109 0 45 143 321 195 378 33 35 32 64 -2 64 -32 0 -135 111 -118 128 6 7 -2
12 -19 12 -37 0 -103 93 -86 121 20 31 -8 92 -41 92 -38 0 -36 -142 4 -207 39
-64 33 -79 -10 -29 -49 56 -74 55 -34 -1 17 -25 31 -64 31 -88 0 -24 15 -55
34 -71 29 -23 31 -23 15 3 -45 75 -21 91 66 43 47 -26 59 -72 25 -93 -12 -7
-19 -6 -17 4 5 24 -25 86 -42 86 -9 0 -13 -23 -10 -50 l6 -50 -61 43 c-85 60
-143 199 -131 310 6 48 2 93 -7 98 -30 19 -20 45 16 42 20 -2 38 14 43 36 6
33 77 120 156 192 9 9 42 39 73 68 31 28 61 51 67 51 5 0 80 70 165 155 86 85
175 172 198 193 l43 37 -12 -137 c-10 -114 -8 -134 14 -113 15 14 33 91 41
172 14 148 74 373 99 373 71 0 108 -698 50 -950 -17 -73 -31 -167 -31 -210 0
-42 -19 -155 -41 -251 -48 -200 -52 -186 51 -172 l80 11 -60 15 c-44 12 -35
13 35 7 72 -7 123 3 205 39 60 27 147 53 194 58 78 10 356 140 356 167 0 58
-96 91 -141 49 -111 -103 -236 -96 -138 8 21 23 39 50 39 59 0 53 132 230 171
230 38 0 45 -14 56 -118 6 -64 25 -157 41 -205 16 -48 44 -195 62 -327 18
-132 41 -248 50 -257 26 -27 60 5 60 57 0 38 18 53 100 80 55 18 100 42 100
53 0 11 9 14 20 7 26 -16 26 50 0 90 -17 27 -20 27 -21 0 -1 -16 -14 2 -29 40
-35 90 -36 106 -5 88 14 -8 18 -7 9 3 -43 47 -75 25 -62 -43 9 -51 5 -68 -15
-68 -37 0 -102 76 -86 101 6 10 -3 19 -21 19 -18 0 -27 9 -20 20 7 11 40 20
74 20 52 0 57 4 36 30 -14 17 -37 30 -52 30 -16 0 -28 12 -28 27 0 15 -16 49
-35 75 -61 82 -108 198 -80 198 27 -1 135 -183 135 -228 0 -15 23 -42 50 -60
67 -44 92 6 44 87 -18 30 -35 87 -37 128 -3 40 -14 73 -24 73 -10 0 -13 -32
-7 -70 6 -39 3 -70 -7 -70 -11 0 -19 17 -19 39 0 21 -8 44 -19 50 -73 46 -234
431 -179 431 12 0 1 18 -25 39 -55 46 -19 56 74 21 102 -39 288 49 259 122 -7
19 -48 29 -121 32 -77 3 -106 -2 -97 -18 9 -13 5 -17 -9 -8 -28 18 -30 85 -3
102 30 18 24 43 -10 43 -16 0 -30 -11 -30 -25 0 -13 -11 -30 -25 -36 -20 -10
-20 -14 0 -24 14 -6 25 -27 25 -46 0 -19 11 -45 24 -58 32 -32 14 -45 -41 -31
-59 16 -103 105 -103 209 l0 83 88 -12 c69 -9 91 -5 100 19 10 26 -2 29 -73
20 -129 -15 -175 -33 -176 -69 0 -28 -5 -26 -30 7 -27 35 -27 42 0 62 17 12
31 33 31 45 0 44 266 7 355 -49 40 -26 45 -25 45 3 0 24 11 28 45 18 65 -20
64 -17 65 -189 0 -86 6 -162 12 -169 25 -25 115 28 125 73 7 33 8 28 6 -14 -2
-49 -15 -63 -66 -78 -75 -23 -111 -220 -55 -300 l28 -41 0 41 c0 22 -10 50
-22 62 -17 17 -5 39 45 84 37 33 56 61 42 61 -14 1 -25 20 -25 43 0 68 50 31
51 -38 1 -68 29 -116 29 -52 1 56 45 134 80 139 17 3 47 12 69 21 36 14 35 9
-8 -61 -46 -74 -46 -78 -11 -104 20 -14 32 -32 25 -39 -7 -6 0 -45 14 -86 21
-58 21 -86 2 -132 -19 -48 -17 -85 15 -209 21 -83 58 -232 81 -331 24 -99 51
-192 60 -207 13 -19 0 -17 -45 6 -34 18 -62 41 -62 52 0 10 -15 19 -32 19 -32
0 -31 52 4 190 7 28 5 32 -7 14 -31 -44 -56 11 -92 196 -18 94 -38 194 -45
224 -11 46 -5 56 40 67 45 12 52 24 52 90 0 133 -57 140 -175 22 -53 -53 -107
-101 -119 -105 -13 -4 -25 -53 -29 -107 l-6 -100 95 6 c54 4 94 -3 94 -14 0
-31 -30 -44 -109 -47 -79 -3 -81 -6 -43 -74 15 -26 22 -65 17 -85 -11 -43 77
-180 143 -224 49 -32 200 -256 221 -328 19 -62 -29 -59 -105 5 -33 27 -74 50
-92 50 -44 0 -40 32 10 82 60 60 37 66 -100 25 -100 -29 -120 -42 -111 -71 7
-20 2 -36 -9 -36 -11 0 -16 -12 -10 -27 6 -17 -14 -34 -56 -48 -50 -16 -56
-21 -22 -23 76 -4 158 -42 128 -61 -78 -48 151 -75 280 -32 135 44 144 32 154
-194 8 -191 -53 -493 -131 -645 -32 -62 -67 -175 -71 -234 -1 -18 -11 -32 -22
-30 -11 2 -23 -11 -27 -29 -5 -25 3 -31 33 -23 27 7 45 33 53 77 7 36 32 83
54 103 23 20 35 25 28 12 -9 -14 2 -35 25 -50 24 -15 33 -32 23 -45 -21 -26
-3 -131 22 -131 66 0 63 189 -3 210 -22 7 -40 26 -40 41 0 16 -13 29 -30 29
-46 0 -36 35 21 73 34 22 44 38 28 47 -17 11 -15 30 8 72 22 40 32 47 32 23 1
-19 8 -35 16 -35 26 0 67 80 53 103 -7 12 -1 29 14 39 33 20 32 203 -1 214
-33 11 -3 44 40 44 46 0 48 16 9 68 -32 42 -23 72 21 72 20 0 29 -24 29 -80 0
-44 10 -80 21 -80 12 0 16 -8 10 -19 -13 -21 26 -51 43 -33 7 6 2 23 -10 37
-16 20 -14 51 9 116 16 49 27 122 23 163 -4 40 -3 69 3 64 10 -10 65 91 209
382 136 276 236 760 177 857 -16 28 -44 -32 -46 -97 0 -33 -14 -87 -30 -120
-29 -59 -29 -59 -22 50 4 61 -3 135 -16 165 -27 64 -56 52 -39 -16 6 -24 2
-51 -10 -58 -14 -8 -23 11 -23 53 -4 191 -43 165 -79 -53 -12 -76 -36 -170
-53 -210 -27 -61 -44 -198 -76 -617 -4 -61 2 -90 21 -98 32 -12 38 -86 8 -86
-11 0 -21 -20 -22 -45 -1 -42 -3 -41 -26 10 -32 73 -50 52 -38 -41 10 -74 -53
-172 -88 -137 -7 7 4 27 25 43 38 28 37 29 -11 30 -34 0 -42 6 -24 17 27 17
26 64 -2 85 -9 7 1 44 23 83 22 39 36 75 31 80 -5 5 5 21 22 35 16 14 30 40
29 57 0 23 -9 17 -29 -17 -16 -27 -30 -45 -31 -40 -1 6 -5 38 -9 73 -4 35 -17
82 -29 106 -13 23 -17 52 -9 65 9 13 5 17 -9 8 -35 -22 -19 73 17 103 27 22
26 28 -3 51 -34 26 -13 107 22 85 9 -6 29 5 44 23 18 23 19 29 2 19 -14 -9
-25 -6 -25 6 0 11 14 21 31 21 17 0 26 9 19 20 -7 11 -26 20 -42 20 -17 0 -25
-8 -19 -18 12 -20 -63 -122 -90 -122 -30 0 -22 70 20 167 33 78 34 94 10 114
-41 34 -36 49 22 76 69 31 71 30 49 -28 -31 -80 -25 -83 39 -18 32 32 85 85
118 118 70 68 94 131 49 131 -19 0 -26 11 -18 31 7 19 3 26 -10 18 -11 -7 -16
-25 -11 -40 6 -14 -4 -38 -22 -53 -24 -19 -29 -19 -18 -1 22 36 -18 31 -56 -7
-25 -25 -27 -39 -9 -60 17 -20 17 -29 0 -30 -40 -5 -51 -9 -98 -35 -62 -35
-129 -22 -139 27 -30 145 -26 190 18 190 37 0 33 8 -29 55 -75 57 -82 109 -22
157 34 27 36 50 4 43 -14 -3 -30 36 -40 101 -20 132 -121 376 -153 369 -12 -3
-23 8 -23 23 0 16 -8 32 -18 35 -10 4 -5 19 10 33 18 16 28 18 28 4 0 -12 8
-17 18 -11 10 6 14 -5 9 -26 -7 -25 13 -54 63 -92 46 -35 69 -66 61 -85 -14
-36 7 -126 30 -126 9 0 8 27 -1 60 -9 33 -10 60 -2 60 29 0 82 -73 82 -112 1
-26 5 -30 17 -13 11 18 88 -48 253 -217 263 -268 358 -348 389 -329 26 16 28
96 3 122 -10 10 -12 55 -5 99 8 44 6 148 -3 230 -9 83 -16 190 -17 239 0 48
-17 129 -36 180 -20 50 -43 148 -51 217 -15 132 -102 226 -205 223 -29 -1 -28
-4 6 -18 61 -25 117 -117 91 -149 -15 -17 -15 -31 0 -46 15 -15 14 -26 -2 -36
-14 -8 -30 -7 -37 3 -7 11 -56 44 -108 74 -91 52 -122 93 -72 93 13 0 20 4 14
9 -5 5 -26 5 -48 -1 -33 -8 -13 -36 123 -174 201 -204 226 -268 216 -540 -7
-164 -3 -191 22 -181 21 8 30 -2 30 -30 0 -22 8 -46 18 -52 9 -5 22 -30 28
-53 11 -42 11 -42 -37 3 -35 32 -49 38 -49 17 -1 -15 -14 -1 -31 32 -16 33
-129 159 -249 280 -121 121 -220 236 -220 255 0 51 -128 298 -177 342 -34 31
-39 53 -30 125 51 370 -230 1147 -527 1457 -25 27 -35 60 -29 105 10 91 -45
173 -108 161 -26 -5 -43 -2 -37 8 6 9 -10 17 -36 17 -25 0 -59 10 -76 22 -26
19 -26 20 2 12 88 -28 82 26 -7 66 -52 23 -95 50 -95 60 0 9 -18 23 -40 30
-22 7 -45 35 -52 61 -7 27 -19 49 -28 49 -8 0 -21 20 -27 44 -14 54 -27 44
-43 -34 -7 -33 -14 -71 -17 -84 -7 -34 -33 -58 -33 -30 0 13 -13 18 -30 11
-16 -6 -30 -28 -30 -49 0 -21 -9 -38 -20 -38 -33 0 -23 43 27 108 92 121 95
136 64 312 -33 189 -92 291 -206 354 -91 50 -205 78 -205 49z m206 -397 c-17
-6 -21 -36 -13 -97 8 -58 4 -99 -13 -119 -33 -40 -82 -39 -67 1 7 17 24 27 39
21 16 -6 22 1 15 19 -13 33 -67 40 -67 9 0 -11 -26 -20 -59 -20 -32 0 -81 -9
-110 -20 -33 -12 -51 -12 -51 0 0 11 13 20 29 20 29 0 78 67 61 83 -4 4 28 7
72 6 59 -2 85 7 100 34 14 27 12 37 -6 38 -14 0 -4 13 24 28 27 15 54 23 60
17 5 -6 -1 -15 -14 -20z m34 -309 c0 -16 -85 -39 -98 -26 -5 5 8 26 30 46 35
34 67 25 68 -20z m-220 -7 c0 -16 13 -30 29 -30 37 0 53 -27 60 -106 4 -35 10
-77 14 -94 4 -19 -8 -30 -33 -30 -22 0 -45 -6 -51 -14 -24 -32 -109 36 -106
85 4 80 6 84 36 72 23 -9 24 0 8 48 -12 33 -25 59 -31 59 -6 0 -5 -13 1 -30 7
-16 3 -30 -8 -30 -34 0 -20 77 16 86 60 16 65 15 65 -16z m450 -88 c-44 -42
-87 -73 -95 -69 -8 5 -15 -1 -15 -13 0 -12 -9 -17 -20 -10 -34 21 -22 50 20
50 22 0 69 27 105 59 95 87 99 74 5 -17z m74 -46 c-32 -32 -30 -49 5 -49 16 0
25 7 19 16 -6 9 12 8 39 -2 27 -10 54 -13 61 -6 7 6 12 1 12 -12 0 -12 -20
-24 -45 -25 -98 -5 -105 -9 -103 -53 1 -28 -11 -45 -29 -45 -23 0 -25 -6 -8
-23 13 -13 16 -39 6 -65 -8 -23 -12 -63 -8 -89 6 -39 0 -46 -32 -37 -22 5 -39
4 -38 -3 5 -41 -9 -39 -58 6 -62 58 -85 64 -85 21 0 -16 -10 -30 -22 -30 -12
0 -17 14 -10 32 22 58 -7 124 -50 113 -36 -9 -37 -13 -9 -44 17 -19 31 -54 31
-78 0 -31 12 -43 43 -43 55 0 44 -10 -30 -28 -40 -10 -52 -7 -42 9 8 13 2 31
-13 41 -38 24 -63 23 -48 -2 7 -11 -6 -20 -28 -20 -22 0 -45 -9 -52 -20 -7
-12 -23 -14 -36 -6 -13 7 -10 -3 6 -24 17 -21 19 -31 6 -24 -13 8 -29 6 -36
-6 -7 -11 6 -20 28 -20 22 0 48 -13 57 -30 13 -24 30 -26 85 -10 78 22 146 9
134 -27 -4 -13 -27 -22 -51 -21 -29 1 -43 -11 -43 -35 0 -48 6 -47 111 15 51
29 83 61 76 73 -9 14 -1 17 20 9 44 -17 244 94 316 176 58 67 170 100 222 66
35 -22 -14 -52 -111 -69 -41 -7 -71 -17 -65 -22 5 -6 -10 -26 -35 -45 -42 -32
-93 -63 -324 -191 -127 -71 -124 -68 -89 -90 18 -11 20 -19 5 -19 -13 0 -30
10 -38 23 -9 15 -19 13 -31 -9 -9 -17 -44 -37 -77 -44 -33 -7 -60 -21 -60 -30
0 -10 -20 -23 -45 -31 -25 -8 -61 -28 -80 -44 -19 -17 -35 -23 -35 -13 0 10
-23 -8 -50 -40 -28 -32 -50 -52 -50 -43 0 18 -134 -61 -194 -115 -25 -22 -40
-47 -35 -56 5 -8 -1 -22 -14 -30 -14 -9 -18 -6 -9 9 8 13 5 23 -7 23 -11 0
-21 -13 -21 -30 0 -16 -11 -30 -23 -30 -13 0 -18 6 -11 13 8 7 -1 24 -19 37
-27 20 -1 42 176 150 114 70 242 149 285 176 l79 49 -49 39 c-26 22 -35 33
-20 25 19 -10 23 -7 14 8 -23 38 -50 26 -64 -27 -7 -27 -19 -46 -27 -41 -20
13 10 246 36 277 15 19 11 32 -18 50 -21 13 -39 32 -39 41 0 40 157 181 225
202 73 23 119 61 75 61 -55 0 9 38 85 51 47 7 96 23 110 33 13 11 38 15 55 9
18 -7 30 0 30 17 0 15 16 37 35 48 43 24 61 10 29 -22z m189 -124 c-4 -12 -23
-19 -43 -15 -24 4 -32 -3 -24 -24 6 -16 -7 -46 -31 -66 -23 -21 -34 -24 -25
-9 12 22 8 26 -18 16 -20 -8 -29 -6 -22 6 7 11 5 20 -5 20 -9 0 -18 19 -20 42
-2 37 5 41 55 31 32 -6 63 -4 68 4 15 25 74 19 65 -5z m-830 -83 c5 5 10 -9
12 -31 2 -37 0 -37 -36 6 -21 25 -38 35 -38 22 -1 -13 9 -30 21 -37 12 -8 14
-20 4 -26 -9 -7 -38 -39 -63 -72 l-45 -59 8 70 c9 85 71 165 105 137 12 -10
27 -15 32 -10z m907 -9 c7 -11 -2 -20 -19 -20 -17 0 -31 -10 -31 -23 0 -13 -6
-18 -13 -11 -23 24 -87 -27 -126 -102 -25 -47 -40 -61 -40 -38 -1 23 -10 31
-25 22 -13 -8 6 22 43 68 37 46 74 78 82 73 9 -5 22 0 29 11 7 11 21 15 31 9
11 -6 19 -2 19 10 0 27 34 27 50 1z m229 -360 c117 -182 273 -508 312 -650 62
-227 68 -260 80 -420 13 -177 -10 -400 -71 -665 -31 -137 -22 -135 -288 -65
-260 67 -506 174 -694 301 -161 108 -153 99 -117 119 17 10 107 72 200 138 92
66 175 114 183 106 8 -8 76 -128 151 -267 141 -262 216 -382 191 -307 -27 83
-327 630 -345 630 -6 0 -101 -67 -211 -150 -110 -82 -205 -150 -212 -150 -54
0 -515 605 -570 749 -7 17 31 50 106 92 64 36 165 97 225 136 l109 70 41 -57
c22 -31 98 -133 167 -226 70 -93 119 -176 110 -185 -9 -9 -110 -63 -226 -121
-115 -57 -200 -108 -187 -112 34 -12 467 210 467 239 0 14 -70 114 -155 222
-196 250 -200 256 -173 266 12 5 87 49 167 98 80 49 151 89 158 89 7 0 74
-121 149 -268 l137 -268 193 131 c209 140 265 185 232 185 -12 0 -106 -58
-210 -130 -229 -159 -197 -164 -299 45 -47 96 -107 209 -132 250 l-47 74 45
28 c153 97 407 228 418 217 7 -8 50 -72 96 -144z m-1379 16 c0 -59 -7 -96 -17
-85 -16 18 -8 189 9 189 4 0 8 -47 8 -104z m200 -58 c0 -45 -8 -75 -19 -69
-10 7 -18 27 -17 46 1 19 -1 44 -4 55 -10 40 0 72 20 60 11 -7 20 -48 20 -92z
m-140 -823 c26 -47 35 -74 19 -62 -40 33 -105 147 -84 147 10 0 39 -38 65 -85z
m-1203 -82 c135 -291 146 -421 38 -428 -14 -1 -69 -7 -122 -13 l-98 -12 13 55
c6 30 21 139 33 241 35 315 53 336 136 157z m1123 23 c0 -29 9 -59 20 -66 11
-7 20 -23 19 -36 0 -13 -15 0 -33 29 -18 30 -58 58 -90 65 -71 14 -71 43 -1
80 63 33 84 15 85 -72z m210 -136 c7 -22 23 -40 35 -40 12 0 16 -5 10 -12 -18
-18 295 -320 421 -405 170 -116 406 -231 614 -300 94 -31 11 -26 -117 7 -199
52 -528 225 -579 305 -9 14 -26 25 -37 25 -45 0 -397 399 -397 450 0 28 39 5
50 -30z m-1554 -267 c-22 -85 -56 -126 -56 -70 0 30 65 178 74 169 4 -3 -4
-48 -18 -99z m1556 -3 c6 -26 6 -56 0 -67 -15 -23 111 -231 144 -238 13 -3 22
5 19 18 -3 12 6 26 20 31 43 16 28 -82 -18 -122 -33 -28 -40 -30 -31 -6 25 65
-17 51 -60 -20 -25 -42 -48 -71 -52 -66 -3 6 -70 -62 -148 -150 -78 -88 -254
-265 -391 -394 -137 -129 -261 -263 -275 -297 -21 -50 -30 -57 -44 -32 -9 17
-30 26 -46 20 -17 -6 -25 -19 -19 -29 6 -10 8 -18 4 -18 -20 0 -138 184 -125
196 17 17 90 -70 90 -108 0 -15 14 -28 30 -28 37 0 37 -1 2 83 -15 37 -33 112
-39 167 l-12 100 31 -90 c17 -49 32 -101 33 -115 1 -14 9 -25 19 -25 9 0 11
35 4 79 -12 73 -10 78 30 67 23 -6 42 -19 42 -28 0 -10 8 -18 19 -18 10 0 18
26 17 57 -1 32 4 67 11 78 7 12 4 25 -7 28 -18 7 -28 143 -16 227 4 24 -6 39
-24 40 -22 0 -30 24 -30 93 0 51 -7 89 -16 83 -9 -5 -30 7 -47 27 -28 35 -29
33 -18 -18 21 -97 33 -356 20 -399 -21 -65 -43 -11 -86 216 l-38 196 82 96
c88 102 238 182 307 163 23 -6 130 25 248 71 196 77 208 79 247 47 23 -19 30
-21 16 -5 -31 35 -32 74 -1 107 40 43 95 34 108 -17z m-192 12 c0 -10 -25 -24
-55 -31 -30 -7 -106 -44 -168 -82 -62 -38 -134 -69 -160 -68 -30 0 27 37 153
98 215 105 230 110 230 83z m1877 -127 c-4 -5 5 -24 20 -42 22 -26 22 -33 2
-33 -14 0 17 -47 68 -105 230 -258 300 -342 263 -315 -76 58 -92 70 -126 102
-19 17 -62 48 -96 68 -81 46 -172 184 -151 228 9 18 14 53 12 78 -2 25 0 41 5
36 5 -5 6 -13 3 -17z m-2968 -50 c7 -30 18 -71 23 -90 11 -37 -172 -53 -225
-20 -32 21 -51 150 -20 139 12 -5 21 -19 18 -31 -7 -33 17 -28 85 17 80 53
103 50 119 -15z m1591 -146 c17 -40 31 -53 41 -38 8 14 44 -39 88 -134 41 -86
93 -191 115 -233 22 -42 35 -94 30 -115 -6 -24 7 -55 35 -82 29 -28 41 -59 35
-90 -10 -53 -34 -62 -51 -19 -5 16 -38 34 -71 42 -64 14 -102 93 -102 213 0
28 -13 84 -30 124 -16 39 -30 77 -30 84 0 8 14 8 30 2 37 -14 37 5 1 53 -20
27 -29 29 -36 10 -5 -14 -38 31 -73 100 -35 69 -58 134 -51 145 17 29 40 8 69
-62z m-1780 -79 c31 -58 24 -71 -36 -76 -87 -6 -131 36 -115 110 15 69 107 48
151 -34z m456 53 c4 -19 -6 -33 -25 -33 -18 0 -31 17 -31 42 0 48 47 42 56 -9z
m-294 -64 c-48 -27 -89 -47 -90 -44 -1 3 -13 25 -27 50 -25 44 -24 45 90 45
l115 0 -88 -51z m121 -147 c19 -76 71 -213 116 -305 108 -217 137 -332 74
-291 -29 19 -45 54 -50 106 l-8 78 -23 -66 -23 -65 -67 50 c-164 120 -355 421
-312 490 7 12 -1 16 -19 9 -23 -9 -28 -4 -19 20 21 53 88 40 88 -18 0 -73 36
-61 44 13 5 58 67 103 156 115 6 1 25 -60 43 -136z m2746 21 c-31 -89 -62 -96
-219 -43 l-120 39 100 -10 c55 -6 115 -16 133 -21 23 -7 44 14 70 69 45 94 71
70 36 -34z m-990 -59 c20 -57 30 -109 20 -115 -10 -6 -23 14 -30 45 -6 31 -24
86 -40 122 -34 77 -37 100 -9 72 12 -12 38 -67 59 -124z m1083 81 c52 -132 75
-254 51 -270 -43 -27 -53 -15 -54 70 0 47 -8 123 -17 170 -19 98 -11 110 20
30z m-844 -30 c-2 -48 -55 -166 -56 -128 -2 32 -7 34 -32 13 -25 -21 -29 -21
-22 2 5 15 14 53 21 83 12 56 93 83 89 30z m806 -147 c5 -156 -3 -231 -23
-219 -10 7 -17 88 -16 182 2 178 34 208 39 37z m-110 -26 c46 -68 61 -142 28
-142 -9 0 -27 41 -40 90 -14 54 -34 90 -51 90 -16 0 -35 10 -42 22 -35 57 65
0 105 -60z m-661 -334 c27 -42 28 -48 2 -48 -16 0 -58 53 -92 118 -62 116 -82
196 -43 172 11 -7 21 -1 21 14 1 14 20 -27 42 -91 21 -65 53 -139 70 -165z
m869 195 c-44 -81 -82 -93 -82 -25 0 53 7 62 51 62 43 0 47 -6 31 -37z m-1163
-307 c38 -41 39 -45 7 -81 -40 -43 -18 -67 79 -88 67 -15 69 0 -15 -170 -114
-230 -260 -397 -347 -397 -35 0 -17 209 22 256 13 15 25 88 28 161 5 144 40
365 45 283 2 -39 7 -43 21 -21 10 16 13 38 7 48 -16 26 33 -3 87 -51 29 -27
47 -32 57 -17 15 26 -26 86 -50 71 -9 -5 -27 4 -40 20 -42 50 52 37 99 -14z
m277 -40 c17 -17 17 -30 1 -50 -33 -39 -97 -33 -97 11 0 64 50 85 96 39z
m1540 -276 c3 -59 -3 -100 -15 -100 -23 0 -29 165 -8 187 8 7 14 13 15 13 1 0
5 -45 8 -100z m-45 -340 c-15 -16 -33 -59 -40 -95 -15 -69 -51 -108 -51 -55 0
18 10 51 22 74 13 24 14 36 2 29 -24 -15 -49 42 -32 71 8 13 19 11 28 -5 12
-18 23 -14 42 17 19 30 31 35 41 19 8 -13 3 -38 -12 -55z m-2971 -188 c0 -32
-98 -1 -108 33 -25 94 -11 105 48 37 33 -37 60 -69 60 -70z m1880 -12 c0 -11
19 -20 42 -20 59 0 36 -49 -26 -56 -51 -6 -89 39 -65 78 15 24 49 23 49 -2z
m661 -310 c2 -22 2 -53 1 -70 -5 -55 -41 23 -42 89 0 65 34 49 41 -19z"/>
<path d="M2912 6148 c-18 -48 -14 -58 12 -32 13 13 33 24 43 24 11 0 14 -5 8
-12 -18 -18 26 -128 52 -128 68 1 81 37 32 86 -78 76 -133 100 -147 62z"/>
<path d="M3391 5933 c5 -29 2 -53 -8 -53 -39 0 -39 -79 0 -91 28 -9 33 -19 19
-37 -14 -17 -14 -32 -1 -45 11 -11 14 -38 5 -59 -13 -32 -16 -29 -26 22 -7 43
-26 65 -70 79 -33 12 -70 33 -81 48 -12 15 -36 24 -54 20 -24 -5 11 -64 138
-234 94 -124 167 -229 164 -232 -4 -2 -117 -57 -252 -121 -135 -64 -245 -125
-245 -134 0 -10 10 -12 22 -5 12 8 30 2 39 -12 12 -20 23 -21 43 -4 45 37 196
8 196 -38 0 -32 -7 -35 -39 -18 -56 31 -59 28 -55 -59 3 -74 34 -119 34 -49 0
17 9 26 19 20 27 -17 303 189 288 214 -8 12 -4 15 9 8 12 -8 33 -2 47 13 20
22 38 -2 98 -125 173 -355 309 -576 336 -547 18 19 20 35 6 53 -22 26 -1 77
29 72 37 -7 97 5 73 14 -14 6 -25 21 -25 33 0 13 23 -1 50 -31 29 -31 63 -49
80 -42 36 13 44 -1 -169 294 -94 131 -192 269 -217 306 -28 43 -55 63 -70 54
-18 -11 -17 -6 1 16 14 17 106 65 205 106 109 45 175 83 167 96 -8 12 -4 15
10 7 12 -8 39 -5 58 6 19 12 24 21 11 21 -12 1 -26 14 -30 29 -8 38 -156 -19
-156 -60 0 -15 -18 -28 -40 -28 -35 0 -37 5 -15 40 13 22 31 40 39 40 8 0 30
29 48 64 41 78 54 182 21 162 -95 -58 -331 -220 -368 -252 -54 -49 -35 -72
-185 216 -137 264 -163 303 -149 223z m375 -523 c31 -6 50 -20 43 -31 -6 -11
-21 -14 -31 -8 -44 28 -78 -8 -58 -60 16 -44 14 -51 -20 -51 -22 0 -40 13 -40
30 0 31 -24 40 -46 17 -8 -7 -4 -25 8 -39 16 -20 3 -25 -61 -24 -44 0 -81 7
-81 14 0 32 65 101 84 90 11 -7 28 -1 37 14 10 16 8 32 -5 40 -42 27 3 55 59
37 30 -10 80 -23 111 -29z"/>
<path d="M4070 5360 c-88 -43 -171 -78 -185 -79 -31 -1 -31 -12 -4 -64 37 -67
341 -485 385 -527 l41 -40 -37 60 c-20 33 -111 164 -203 292 -193 269 -185
246 -102 279 102 40 315 142 315 151 0 21 -63 -1 -210 -72z"/>
<path d="M2590 4556 c-55 -32 -88 -79 -76 -110 9 -23 66 -39 66 -18 0 4 14 40
30 80 17 39 28 72 25 71 -3 0 -23 -11 -45 -23z"/>
<path d="M2467 4405 c-6 -24 -28 -49 -49 -56 -42 -13 -89 -85 -69 -105 28 -28
121 55 134 120 16 74 2 108 -16 41z"/>
<path d="M3281 4065 c-1 -93 7 -104 37 -50 12 24 10 52 -9 85 -27 49 -28 48
-28 -35z"/>
<path d="M1369 6189 c-77 -168 -137 -231 -212 -218 -72 12 -100 -5 -110 -66
-5 -35 52 -31 66 5 14 37 67 40 67 4 0 -15 -13 -44 -29 -65 -47 -62 -37 -102
11 -47 43 48 43 48 29 3 -10 -33 -6 -45 17 -45 28 0 27 106 -1 138 -9 11 55
82 74 82 32 0 33 -101 1 -120 -22 -13 -24 -19 -6 -19 47 -1 79 49 104 160 28
127 20 257 -11 188z"/>
<path d="M1415 5928 c-18 -18 7 -69 27 -57 10 6 18 -7 18 -30 0 -22 9 -41 19
-41 11 0 15 14 8 30 -8 22 -2 27 20 19 17 -7 40 -36 52 -66 l21 -53 -7 54
c-11 81 75 11 108 -89 14 -41 33 -75 42 -75 22 0 21 14 0 56 -10 19 -24 60
-31 92 -27 113 39 20 78 -109 38 -126 70 -171 70 -100 0 22 -8 41 -18 41 -10
0 -22 29 -27 65 -5 36 -16 82 -25 103 -12 28 -9 35 12 29 34 -11 138 -209 138
-266 1 -22 20 -63 42 -91 34 -41 39 -43 28 -10 -45 130 -71 235 -61 245 6 7
11 1 11 -11 0 -12 18 -43 40 -68 248 -286 348 -356 165 -116 -52 69 -114 156
-138 195 -71 117 -116 150 -210 155 -51 2 -125 26 -177 57 -85 49 -178 68
-205 41z"/>
<path d="M1729 5467 c-11 -41 -30 -78 -44 -82 -16 -5 -21 3 -13 23 12 31 -13
44 -37 20 -19 -19 28 -108 57 -108 14 0 30 -16 35 -35 29 -101 34 -167 15
-201 -22 -42 25 -134 59 -113 11 6 19 3 19 -8 0 -11 -11 -24 -25 -29 -20 -7
-19 -19 3 -55 17 -30 20 -50 7 -54 -11 -4 -16 -24 -11 -46 6 -21 19 -34 28
-28 10 6 18 -13 18 -43 0 -30 6 -48 14 -41 18 19 22 173 4 162 -25 -16 -37 51
-25 138 7 51 2 105 -11 130 -18 34 -18 43 2 43 16 0 18 6 6 15 -11 8 -23 29
-27 45 -3 17 -19 45 -36 63 -23 25 -26 60 -16 155 16 137 5 159 -22 49z"/>
<path d="M1776 5433 c-4 -39 3 -84 16 -102 18 -26 21 -13 13 63 -13 119 -18
127 -29 39z"/>
<path d="M903 5296 c3 -67 -3 -106 -19 -111 -13 -5 -23 -32 -22 -62 0 -29 6
-42 11 -28 14 35 87 32 87 -4 0 -15 27 -42 60 -58 58 -29 60 -29 60 19 0 34
-11 48 -38 48 -20 0 -52 23 -71 51 l-33 51 71 -13 c69 -13 101 14 46 39 -14 6
-5 7 20 0 31 -7 45 -2 45 18 0 16 19 53 43 83 l43 55 -121 -7 c-67 -4 -128 0
-137 8 -36 36 -51 8 -45 -89z"/>
<path d="M1847 5251 c-3 -56 118 -79 138 -26 19 53 -8 79 -39 36 l-29 -42 -33
42 c-34 41 -34 41 -37 -10z"/>
<path d="M2080 5130 c0 -16 -10 -30 -21 -30 -12 0 -16 -8 -10 -18 6 -10 3 -39
-8 -65 -10 -26 -19 -34 -20 -18 -1 22 -7 23 -24 6 -14 -14 -16 -43 -6 -79 8
-31 14 -62 13 -70 -2 -8 10 -9 27 -3 21 8 24 19 10 36 -12 14 -14 32 -6 41 8
9 2 9 -15 0 -17 -9 -23 -9 -14 1 29 32 72 25 85 -13 14 -46 40 -49 57 -6 17
45 15 72 -6 59 -10 -6 -13 7 -8 30 11 41 60 43 51 2 -7 -31 81 4 92 37 6 18
-5 23 -35 15 -35 -9 -40 -6 -23 14 47 56 -4 109 -55 57 -32 -31 -34 -31 -40 0
-8 42 -44 45 -44 4z"/>
<path d="M1640 5073 c0 -59 35 -89 52 -45 7 17 -2 45 -20 63 -29 29 -32 28
-32 -18z"/>
<path d="M4917 4555 c-11 -21 -6 -135 6 -135 31 0 117 -111 117 -151 0 -39 34
-89 61 -89 6 0 8 27 3 60 -5 36 0 60 14 60 12 0 22 -10 22 -23 0 -13 4 -20 9
-14 32 32 -17 96 -64 84 -46 -11 -50 -8 -39 32 6 25 6 40 0 33 -18 -18 -86 70
-86 111 0 30 -31 53 -43 32z"/>
<path d="M4075 3832 c-20 -15 -74 -33 -120 -41 -76 -12 -81 -16 -50 -39 19
-15 36 -48 37 -74 2 -68 47 -184 74 -193 15 -5 22 11 20 43 -3 29 -11 52 -20
52 -8 0 -10 16 -4 35 44 136 108 173 98 55 -4 -38 1 -70 11 -70 10 0 17 59 17
130 -2 137 -7 145 -63 102z"/>
<path d="M4765 3759 c-25 -10 -45 -23 -45 -30 0 -6 9 -6 20 1 17 11 28 -13 23
-53 -3 -22 124 -6 132 17 4 14 -8 19 -33 12 -32 -8 -37 -2 -28 32 12 46 0 49
-69 21z"/>
<path d="M2728 3496 c-8 -14 -29 -48 -47 -75 -19 -30 -21 -44 -6 -34 14 8 25
7 25 -4 0 -19 -46 -43 -82 -43 -10 0 -18 14 -18 30 0 17 -9 30 -19 30 -11 0
-15 12 -9 27 7 19 -17 34 -75 49 -84 22 -127 15 -84 -12 11 -8 33 -36 47 -64
14 -27 18 -43 10 -35 -19 18 -70 -21 -70 -52 1 -15 6 -16 15 -3 58 78 207 57
236 -32 18 -57 59 -46 62 17 3 84 14 111 54 145 33 28 34 35 7 57 -25 20 -33
20 -46 -1z"/>
<path d="M2297 3405 c-71 -16 -50 -85 29 -93 8 -1 24 -15 34 -32 15 -23 19
-15 20 33 0 68 -32 104 -83 92z"/>
<path d="M2420 3161 c0 -87 61 -137 109 -90 17 18 32 24 32 15 1 -9 9 2 18 24
9 22 12 47 7 55 -12 22 -166 18 -166 -4z"/>
<path d="M2793 3030 c-17 -16 -44 -24 -62 -18 -39 15 -39 -1 0 -61 41 -62 -30
-144 -94 -109 -56 29 -49 -39 11 -108 l49 -57 -84 -163 c-45 -89 -94 -175
-108 -190 -14 -15 -25 -33 -25 -40 0 -8 -23 -40 -51 -73 -30 -35 -45 -71 -38
-90 7 -17 29 -94 50 -171 20 -77 55 -181 77 -230 106 -241 142 -618 75 -790
-48 -123 -89 -236 -106 -292 -29 -92 292 -53 360 44 49 70 45 126 -7 98 -23
-12 -48 -17 -57 -12 -9 6 -52 12 -95 15 -100 5 -114 13 -83 48 67 74 79 95 89
159 12 75 62 100 99 51 13 -16 18 -59 12 -95 -13 -85 20 -85 51 0 40 112 53
272 18 229 -36 -44 -100 -26 -84 25 6 19 -3 46 -19 59 -17 14 -25 35 -18 46 7
10 1 26 -12 34 -28 18 -54 181 -29 180 26 -1 120 -159 137 -228 9 -41 19 -51
30 -33 9 16 -12 114 -53 239 -79 245 -112 393 -158 713 -3 22 -16 92 -28 156
-26 134 25 245 147 324 77 50 97 188 30 205 -25 6 -32 18 -20 32 17 22 44 133
32 133 -4 0 -20 -13 -36 -30z m-21 -200 c-16 -84 -72 -132 -72 -60 0 17 8 30
18 30 9 0 22 18 28 40 15 57 36 49 26 -10z m-134 -735 c49 -109 74 -245 41
-224 -13 8 -30 4 -37 -8 -9 -14 -22 -8 -36 16 -20 31 -18 35 15 26 23 -6 39 0
39 15 0 38 -79 99 -112 87 -15 -6 -28 -1 -28 12 0 13 9 18 20 11 40 -25 19 29
-23 58 -36 25 -39 35 -18 61 47 56 98 36 139 -54z"/>
<path d="M2520 2730 c-17 -20 -18 -30 -2 -30 12 0 22 -13 22 -30 0 -16 -8 -30
-18 -30 -28 0 -109 -145 -106 -190 2 -27 -3 -32 -14 -14 -12 21 -21 19 -41 -5
-18 -22 -19 -31 -3 -31 15 0 11 -18 -10 -50 -18 -27 -44 -50 -58 -50 -14 0
-30 -22 -35 -50 -10 -54 13 -67 39 -22 9 16 66 83 126 149 143 156 158 175
192 239 32 63 36 91 9 75 -10 -6 -31 7 -47 29 -25 36 -31 37 -54 10z m8 -190
c-29 -44 -56 -80 -59 -80 -17 0 21 83 54 118 60 66 63 50 5 -38z"/>
<path d="M2194 2506 c-6 -9 -28 -62 -49 -117 -21 -55 -80 -165 -132 -245 -123
-188 -152 -273 -151 -450 1 -157 -46 -380 -106 -499 -29 -59 -32 -84 -15 -117
14 -26 15 -49 3 -64 -11 -13 -26 -55 -34 -94 -8 -38 -35 -115 -61 -170 -76
-166 -86 -325 -21 -341 222 -56 481 205 342 344 -26 26 -26 36 1 89 32 61 39
358 8 358 -23 0 -44 -68 -23 -75 10 -4 14 -29 9 -56 -15 -76 -102 -68 -118 11
-7 33 -20 60 -29 60 -10 0 -18 14 -18 32 0 21 11 28 31 20 18 -6 26 -3 19 8
-7 11 -3 20 9 20 11 0 21 -9 21 -20 0 -38 37 -20 51 25 8 25 25 59 40 75 14
17 29 57 33 90 3 33 12 65 18 70 50 40 40 105 -13 91 -50 -12 -53 -10 -30 18
15 18 41 27 59 22 45 -14 162 202 162 298 0 39 -9 71 -20 71 -11 0 -20 -17
-20 -38 0 -23 -13 -36 -34 -35 -20 2 -38 -16 -45 -47 -30 -121 -160 -123 -161
-2 0 85 102 150 138 87 16 -29 24 -30 45 -9 22 21 18 27 -17 37 -62 16 -78
102 -27 146 23 20 41 47 41 60 0 13 32 63 71 111 48 58 62 89 45 95 -21 7 -20
19 3 63 28 52 31 53 57 18 25 -33 27 -32 21 14 -7 50 -81 82 -103 46z m-240
-1127 c-29 -40 -29 -40 -26 15 4 79 40 132 48 71 4 -24 -6 -63 -22 -86z m-81
-448 c-17 -45 22 -153 66 -185 40 -28 56 -84 26 -88 -73 -12 -205 -6 -205 8 0
10 -17 14 -39 9 -50 -14 -48 60 3 87 20 11 36 41 36 67 0 28 22 65 53 90 62
48 75 51 60 12z"/>
<path d="M2181 2107 c-58 -75 -51 -109 8 -37 46 56 62 90 42 90 -4 0 -27 -24
-50 -53z"/>
<path d="M2291 2066 c-9 -25 -18 -28 -28 -11 -10 16 -22 12 -39 -16 -13 -21
-16 -39 -6 -39 10 0 23 11 29 25 5 14 11 8 11 -13 2 -36 82 39 82 76 0 27 -37
10 -49 -22z"/>
<path d="M4852 1883 c-7 -11 -4 -26 8 -33 11 -7 20 -26 20 -42 0 -17 -9 -25
-20 -18 -11 7 -20 -2 -20 -19 0 -27 -22 -39 -63 -34 -23 3 -57 -172 -57 -294
0 -218 184 -298 286 -124 37 61 45 121 17 121 -10 0 -14 25 -10 55 8 53 7 54
-16 10 -13 -25 -32 -45 -42 -45 -11 0 -14 -14 -7 -31 7 -19 3 -26 -9 -18 -11
7 -33 3 -47 -10 -28 -23 -92 -9 -92 20 0 9 24 35 53 58 l52 41 -54 0 c-42 0
-52 8 -43 32 7 17 12 44 12 60 0 15 10 28 21 28 12 0 16 -11 9 -25 -7 -14 10
2 38 35 42 49 49 73 40 130 -14 79 -56 136 -76 103z"/>
<path d="M4265 1088 c-97 -111 -32 -180 157 -163 283 26 316 153 47 181 -54 6
-112 16 -129 22 -18 7 -48 -10 -75 -40z"/>
</g>
</svg>
