<?xml version="1.0" standalone="no"?>
<!DOCTYPE svg PUBLIC "-//W3C//DTD SVG 20010904//EN"
 "http://www.w3.org/TR/2001/REC-SVG-20010904/DTD/svg10.dtd">
<svg version="1.0" xmlns="http://www.w3.org/2000/svg"
 width="300.000000pt" height="358.000000pt" viewBox="0 0 300.000000 358.000000"
 preserveAspectRatio="xMidYMid meet">
<metadata>
Created by potrace 1.10, written by Peter Selinger 2001-2011
</metadata>
<g transform="translate(0.000000,358.000000) scale(0.050000,-0.050000)"
fill="#000000" stroke="none">
<path d="M1804 5987 c-88 -36 -128 -344 -72 -557 8 -29 5 -32 -8 -13 -14 20
-21 14 -29 -25 -5 -30 0 -52 12 -52 66 0 -32 -39 -117 -46 -123 -11 -250 -162
-250 -298 0 -40 -9 -79 -20 -86 -30 -19 -24 -70 9 -70 38 0 49 -22 33 -67 -11
-30 -33 -11 -119 105 l-105 141 -57 -42 c-47 -34 -67 -38 -114 -21 -31 12 -43
22 -26 22 41 3 83 114 52 139 -95 74 -213 46 -213 -52 0 -16 -11 -25 -25 -20
-37 12 -63 173 -36 224 23 41 3 195 -28 227 -20 20 -188 -76 -232 -132 -130
-165 -119 -627 19 -827 65 -95 74 -95 89 0 7 43 26 89 43 103 16 14 30 54 30
90 0 91 74 184 115 144 22 -22 24 -39 7 -70 -17 -32 -14 -45 17 -67 32 -24 35
-41 21 -137 -10 -60 -18 -153 -19 -205 -1 -67 -13 -107 -41 -135 -43 -43 -53
-129 -18 -151 24 -15 8 -304 -23 -411 -13 -46 -9 -62 18 -77 62 -33 77 5 92
226 8 120 18 228 23 240 10 28 197 113 246 113 20 0 80 14 134 31 54 18 123
36 154 40 30 5 73 18 93 29 21 11 85 20 141 20 122 0 180 26 180 82 0 64 -324
51 -397 -16 -58 -54 -75 -57 -91 -14 -17 43 -2 61 79 100 77 36 84 58 36 111
-18 21 -23 37 -11 37 12 0 27 -9 34 -20 7 -12 22 -15 33 -8 11 7 17 -4 13 -25
-5 -31 6 -37 64 -34 134 5 160 13 136 42 -16 19 -16 33 -1 48 32 32 61 5 87
-82 15 -50 38 -82 65 -89 23 -6 35 -17 27 -24 -7 -8 -4 -26 9 -41 16 -20 15
-27 -5 -27 -45 0 8 -37 69 -48 85 -15 84 -26 -1 -40 -42 -8 -101 -23 -132 -36
-46 -18 -60 -16 -82 14 -22 31 -27 32 -38 4 -9 -23 -35 -30 -104 -26 -50 3
-96 -2 -102 -11 -6 -10 -19 -17 -30 -17 -11 0 -14 10 -7 22 9 13 -7 19 -44 15
-33 -4 -55 -18 -52 -33 3 -14 -8 -85 -25 -157 -36 -157 -57 -887 -27 -966 11
-28 36 -69 56 -91 20 -22 52 -89 71 -150 20 -60 83 -200 141 -310 58 -110 112
-231 119 -270 8 -38 32 -124 54 -190 60 -179 74 -495 24 -532 -45 -33 -168
-210 -168 -241 0 -14 52 -19 152 -14 178 9 210 35 194 156 -7 53 0 96 25 137
31 52 32 71 10 157 -13 53 -28 185 -33 294 -4 108 -13 205 -19 215 -10 16 -68
502 -61 511 1 1 30 -2 65 -7 94 -15 165 -411 104 -585 -33 -96 21 -158 176
-201 67 -18 165 -61 217 -96 210 -139 575 -54 461 109 -45 63 -130 91 -222 72
-64 -14 -106 -7 -227 38 -199 74 -193 62 -155 292 46 276 45 284 -25 279 -32
-2 -58 -8 -57 -14 1 -5 -6 -26 -14 -45 -9 -20 -11 -53 -5 -75 6 -22 1 -40 -9
-40 -11 0 -18 -56 -15 -130 3 -71 -1 -134 -9 -140 -7 -5 -9 -4 -3 3 5 7 -5 24
-24 37 -29 22 -30 40 -7 172 14 82 19 180 12 218 -8 39 -13 108 -11 155 1 53
-7 85 -21 85 -14 0 -19 -17 -14 -39 16 -58 -50 -113 -85 -72 -14 17 -19 31
-12 31 7 0 4 18 -8 41 -18 33 -35 38 -91 28 -89 -17 -262 25 -279 67 -10 28
-15 29 -30 4 -14 -23 -34 -11 -99 59 -93 101 -101 156 -31 217 l50 44 3 -50
c1 -28 4 -59 7 -70 3 -11 6 -34 8 -52 4 -64 120 -146 224 -160 54 -7 104 -21
110 -31 6 -10 21 -11 34 -3 13 9 31 16 39 16 50 1 14 41 -39 43 -77 4 -206 44
-206 64 0 8 -19 16 -43 18 -88 6 -104 47 -78 201 21 120 20 149 -7 197 l-30
57 -4 -60 c-1 -33 -2 -70 0 -83 1 -12 -20 -37 -48 -55 -27 -18 -50 -24 -50
-12 0 11 10 20 21 20 12 0 15 11 6 25 -9 14 -14 52 -12 85 3 58 2 58 -14 10
-21 -61 -19 -63 -50 110 -14 77 -32 158 -41 180 -9 22 13 1 48 -46 87 -118
108 -121 214 -31 50 42 120 92 155 111 34 19 50 35 33 36 -20 1 -14 10 16 27
25 14 38 33 30 42 -9 10 -5 11 9 3 13 -7 42 -4 65 8 65 35 46 3 -25 -40 -104
-64 -40 -46 78 22 l107 61 19 -46 c12 -31 19 -36 20 -14 0 18 13 57 29 86 l28
53 46 -64 c26 -37 47 -99 49 -142 4 -76 29 -136 29 -69 0 45 34 42 59 -6 27
-49 27 -87 0 -71 -21 14 -19 -2 24 -170 35 -139 44 -357 16 -391 -13 -16 -27
-92 -32 -169 l-8 -140 66 -3 65 -2 -70 -13 c-86 -15 -105 -71 -31 -90 29 -7
69 -4 90 8 21 11 60 20 86 20 26 0 83 17 126 38 47 23 102 34 134 28 33 -7 55
-2 55 12 0 12 18 22 40 22 22 0 40 9 40 20 0 55 93 16 130 -55 22 -40 113
-151 202 -245 89 -94 168 -196 175 -225 31 -122 -105 -537 -196 -601 -34 -23
-64 -49 -67 -57 -4 -8 -33 -48 -65 -89 -82 -102 -77 -108 77 -108 150 0 184
19 184 103 0 58 45 117 91 117 16 0 33 31 41 75 7 41 49 201 93 355 99 353
100 350 -12 469 -277 296 -129 398 213 147 56 -41 164 -108 239 -147 182 -96
300 -237 358 -429 136 -454 287 -677 388 -576 74 74 -3 286 -104 286 -48 0
-59 29 -29 77 10 17 -25 127 -101 309 -65 156 -128 317 -141 359 -17 56 -44
88 -107 124 -46 28 -121 93 -165 146 l-80 95 -7 260 c-7 239 -12 270 -66 380
-33 66 -63 128 -67 137 -13 26 81 -7 122 -43 20 -18 69 -94 108 -170 138 -262
296 -376 575 -415 152 -21 379 -10 421 20 11 8 63 27 116 41 58 15 87 32 73
41 -17 10 -11 19 17 28 69 22 103 77 37 60 -74 -19 -67 20 9 52 70 29 221 149
207 164 -6 5 4 21 21 35 69 57 23 56 -80 -2 -79 -44 -107 -53 -98 -30 7 18 24
32 38 32 37 0 240 156 241 185 0 14 8 37 17 52 14 22 9 23 -24 5 -51 -27 -78
-66 -35 -50 17 7 31 7 31 0 0 -18 -300 -212 -328 -212 -12 0 3 17 35 38 31 20
55 43 53 51 -2 8 3 20 12 28 8 7 7 1 -2 -15 -11 -18 -7 -24 12 -18 15 5 28 19
28 31 0 12 8 29 18 38 11 10 12 6 2 -11 -10 -18 -7 -24 10 -19 15 5 29 25 32
45 4 32 32 59 116 116 12 8 15 20 7 28 -8 7 -26 4 -40 -7 -14 -11 -61 -41
-105 -65 -44 -24 -111 -62 -150 -84 -70 -39 -70 -39 -20 0 145 116 302 282
263 279 -22 -2 -39 -12 -37 -23 2 -11 -5 -21 -17 -21 -11 -1 -102 -66 -202
-145 -370 -295 -693 -270 -1006 78 -218 242 -502 279 -586 75 l-25 -60 -71 49
c-96 65 -262 112 -400 112 -67 0 -123 10 -135 25 -14 17 -91 27 -227 30 -178
4 -333 25 -434 57 -18 5 -5 33 42 88 135 157 163 239 137 394 -13 75 -28 163
-33 195 -5 33 -29 80 -53 105 -42 45 -42 46 -3 46 62 0 69 20 24 67 -23 24
-69 91 -102 150 -56 99 -158 176 -198 151 -25 -15 -37 57 -14 85 18 23 12 40
-28 83 -47 49 -107 198 -144 353 -35 148 -178 217 -327 158z m166 -167 c31
-59 30 -61 -21 -80 -45 -18 -50 -28 -39 -80 8 -38 5 -60 -8 -60 -12 0 -22 26
-22 58 0 40 -12 60 -39 67 -37 10 -39 34 -10 130 16 51 107 28 139 -35z m103
-117 c7 -56 19 -103 27 -103 7 0 7 -43 -1 -95 -8 -52 -7 -98 3 -102 42 -15 17
-83 -30 -83 -27 0 -95 -11 -150 -23 -115 -27 -129 -21 -112 47 10 39 25 48 80
48 116 0 213 75 175 135 -8 13 -16 67 -18 121 -2 53 -10 121 -17 150 -9 37 -7
46 9 30 12 -11 28 -68 34 -125z m-64 -117 c-10 -104 -48 -158 -97 -139 -36 13
-44 53 -11 53 12 0 15 10 8 22 -10 15 0 18 28 9 26 -8 43 -5 43 8 0 11 -25 22
-55 22 -51 1 -52 3 -12 19 32 13 41 29 33 59 -8 32 -1 41 31 41 38 0 41 -9 32
-94z m-153 17 c4 -23 -3 -43 -15 -43 -11 0 -21 8 -21 18 0 10 -6 34 -13 53 -9
24 -5 32 15 25 15 -5 31 -29 34 -53z m341 -371 c-18 -40 -13 -60 31 -124 64
-94 64 -107 7 -96 -25 5 -34 3 -20 -4 32 -15 85 -115 85 -161 0 -28 -11 -24
-58 21 -52 50 -60 52 -77 22 -10 -18 -25 -33 -32 -32 -47 7 -80 -1 -62 -13 15
-10 13 -30 -4 -65 -23 -44 -37 -41 -29 5 1 8 -8 15 -19 15 -12 0 -15 11 -6 25
11 19 7 18 -17 -1 -22 -17 -37 -19 -45 -5 -8 12 -5 21 4 21 10 0 18 14 18 30
0 17 -6 30 -15 30 -25 0 -7 62 23 81 40 26 52 23 52 -9 0 -16 -12 -24 -27 -18
-18 7 -22 0 -14 -22 11 -28 30 -35 83 -31 8 1 13 19 10 40 -2 22 5 39 16 39
12 0 16 -9 9 -20 -7 -11 5 -20 26 -20 42 0 37 82 -13 204 -19 48 -15 58 33 94
68 51 67 51 41 -6z m-457 -14 c0 -11 -9 -15 -20 -8 -11 7 -14 -1 -8 -19 7 -17
2 -31 -10 -31 -12 0 -22 -12 -22 -27 0 -28 -75 -106 -87 -91 -53 63 -45 158
13 158 17 -1 16 -6 -3 -18 -21 -13 -20 -19 5 -28 17 -7 30 -6 27 2 -2 8 13 34
34 58 37 43 71 44 71 4z m346 9 c-6 -15 -23 -28 -38 -29 -32 -3 -66 -11 -73
-17 -20 -16 -95 -10 -89 7 4 12 16 22 26 22 10 0 29 8 43 16 14 9 33 11 44 5
10 -6 23 -4 29 5 17 28 69 20 58 -9z m239 -20 c-14 -6 -25 -19 -25 -30 0 -11
8 -14 18 -8 9 6 17 -1 17 -14 -4 -90 4 -102 40 -69 34 30 35 27 27 -52 -4 -46
-12 -73 -17 -59 -4 14 -17 20 -27 14 -33 -21 -105 169 -77 202 13 16 34 28 46
27 15 -1 14 -5 -2 -11z m-457 -44 c11 -18 51 -16 159 4 48 9 53 7 31 -19 -14
-17 -16 -29 -6 -27 48 10 68 -5 68 -51 0 -43 -12 -54 -60 -55 -5 0 -36 6 -67
13 -31 8 -52 6 -46 -4 13 -20 -47 -19 -81 3 -14 8 -33 -3 -46 -28 -23 -42 -70
-45 -70 -4 0 12 -6 28 -14 36 -18 17 19 90 62 123 38 30 56 32 70 9z m-1284
-72 c5 5 26 -22 47 -60 42 -78 26 -117 -26 -65 -26 26 -27 34 -6 34 20 0 17
11 -11 37 -21 21 -44 35 -51 31 -7 -4 -18 6 -24 23 -10 24 -5 26 25 10 20 -11
41 -15 46 -10z m923 -104 c27 -32 29 -47 11 -58 -16 -10 -19 -7 -8 11 12 19 7
23 -16 14 -39 -15 -62 16 -45 60 6 17 14 28 17 24 2 -4 21 -27 41 -51z m202
20 c18 7 28 5 22 -5 -6 -10 2 -28 18 -41 33 -28 124 19 96 48 -8 9 5 4 29 -10
24 -15 39 -34 34 -43 -6 -9 1 -17 16 -18 21 -1 21 -3 0 -12 -19 -7 -20 -17 -3
-37 18 -22 14 -26 -23 -19 -35 7 -11 -26 98 -136 146 -147 177 -193 104 -154
-23 12 -48 17 -57 12 -10 -6 -66 7 -125 29 -59 21 -111 39 -115 39 -4 0 -2 14
5 31 7 18 -9 53 -38 85 -28 29 -50 69 -50 87 0 19 -11 38 -25 44 -19 7 -19 10
-1 11 27 2 71 -66 54 -83 -5 -5 26 -24 70 -42 71 -28 119 -91 105 -139 -2 -10
7 -10 20 -2 13 8 34 -1 48 -20 14 -19 30 -27 36 -17 16 26 -339 365 -384 365
-25 0 -31 26 -9 47 7 7 20 3 28 -10 8 -12 29 -17 47 -10z m-1156 -30 c-5 -20
-1 -37 8 -37 10 0 28 -19 40 -41 21 -40 20 -41 -34 -13 -60 32 -84 127 -32
127 17 0 24 -14 18 -36z m1107 -96 c0 -9 -18 -21 -41 -27 -31 -8 -38 -23 -31
-64 8 -45 5 -49 -19 -29 -42 35 -35 90 16 124 44 30 75 28 75 -4z m834 14 c9
-14 35 -81 57 -150 l42 -125 -45 0 c-25 0 -57 -5 -71 -10 -32 -12 -137 145
-137 206 0 72 119 133 154 79z m-1434 -195 c64 -50 80 -50 80 0 0 52 41 51
112 -4 98 -75 120 -165 55 -219 -30 -24 -31 -23 -12 13 43 81 -19 124 -99 68
-36 -26 -69 -54 -73 -63 -11 -26 -245 -180 -256 -168 -18 17 31 356 55 385 32
38 79 34 138 -12z m1339 -147 c11 -11 8 -35 -8 -61 -15 -23 -27 -95 -27 -159
-1 -142 -2 -143 -98 -110 -84 29 -107 52 -103 97 2 17 -4 46 -12 66 -10 23 -4
48 17 71 17 20 32 50 32 66 0 16 29 68 65 114 l64 84 26 -75 c14 -41 34 -83
44 -93z m-364 -65 c43 -48 58 -88 34 -88 -18 0 -189 80 -189 89 0 4 -6 22 -12
40 -21 52 113 20 167 -41z m-838 -190 c-41 -26 -77 -21 -77 11 0 46 66 74 87
37 12 -20 8 -37 -10 -48z m822 -96 c15 -29 13 -41 -10 -50 -17 -6 -26 -4 -21
5 19 30 -96 -2 -146 -40 -57 -45 -102 -48 -102 -7 0 17 -9 30 -20 30 -11 0
-18 -10 -15 -23 3 -15 -48 -25 -158 -28 -150 -5 -162 -2 -152 33 5 21 15 34
22 30 8 -5 81 0 163 11 83 11 182 22 220 24 39 3 88 15 110 28 57 34 86 30
109 -13z m381 -92 c0 -55 -25 -145 -53 -187 -2 -4 -24 0 -48 7 -35 11 -38 18
-17 32 20 12 13 17 -25 18 -53 0 -77 31 -77 102 0 21 -11 39 -25 40 -26 2 53
31 155 56 79 20 90 12 90 -68z m-443 -3 c-24 -30 -23 -31 13 -12 38 20 40 16
33 -57 -5 -51 -17 -78 -36 -78 -16 0 -24 -8 -18 -18 6 -10 -19 -11 -59 -2 -40
9 -75 8 -81 -2 -7 -10 -19 -14 -29 -8 -9 6 -30 -3 -46 -19 -26 -26 -31 -25
-40 10 -6 22 0 40 13 40 13 1 5 10 -17 19 -39 17 -39 17 3 19 23 0 48 15 54
31 7 17 23 30 38 30 14 0 57 17 95 39 87 48 113 51 77 8z m583 -156 c0 8 20
-2 45 -23 27 -23 35 -26 20 -6 -25 32 -15 58 21 58 12 0 16 -56 9 -145 -11
-137 -10 -141 15 -75 15 39 28 54 28 34 1 -20 10 -31 21 -25 10 6 25 1 33 -12
8 -14 6 -18 -8 -10 -11 8 -27 4 -35 -9 -9 -14 0 -19 24 -15 20 4 37 19 37 33
0 14 10 32 22 40 12 8 37 41 56 74 22 39 30 45 22 17 -6 -24 -3 -49 7 -55 42
-26 1 -109 -121 -251 l-73 -85 -43 40 c-37 34 -40 47 -20 85 16 29 17 39 2 30
-15 -9 -22 20 -22 91 0 101 -1 103 -37 70 -36 -32 -39 -31 -49 9 -6 24 -20 37
-31 31 -26 -16 -50 21 -32 49 9 14 21 14 39 -1 21 -18 26 -12 21 29 -4 41 0
47 22 29 15 -13 27 -16 27 -7z m460 -111 c9 0 13 29 10 65 -4 36 -2 48 3 27 9
-31 15 -33 31 -10 16 22 17 21 9 -6 -6 -19 -3 -40 8 -47 31 -19 23 -95 -9 -83
-16 7 -37 -11 -53 -43 l-25 -53 -13 50 c-8 28 -5 56 8 65 14 10 14 14 0 15
-13 0 -17 29 -10 75 l10 75 7 -65 c4 -36 14 -65 24 -65z m1180 98 c23 -16 17
-19 -29 -12 -62 10 -165 -18 -144 -40 7 -6 -3 -25 -22 -40 -31 -25 -30 -26 11
-6 25 12 40 31 33 41 -31 50 196 -1 251 -56 17 -17 19 -24 5 -17 -63 36 -14
-41 85 -133 72 -66 103 -109 91 -123 -23 -28 53 -117 137 -161 77 -40 210 -51
382 -31 l130 15 -110 4 c-120 4 -235 37 -140 39 28 1 102 -7 166 -17 118 -20
183 -11 163 21 -6 10 -4 19 5 20 9 1 52 5 96 9 l80 6 -70 -37 c-38 -21 -119
-54 -180 -73 -97 -31 -104 -37 -60 -49 36 -10 40 -15 15 -19 -87 -11 -199 -2
-188 16 5 8 -28 16 -74 18 -75 3 -78 2 -23 -13 33 -8 51 -17 40 -20 -11 -2 3
-11 30 -20 49 -16 48 -16 -11 -18 -96 -3 -270 56 -364 124 -91 65 -104 80 -53
60 20 -7 6 24 -35 78 -37 50 -83 120 -103 156 -19 36 -41 60 -48 52 -7 -7 -3
-23 10 -36 28 -28 32 -76 6 -76 -32 0 -143 103 -131 122 6 10 -12 28 -40 41
-28 13 -51 31 -51 40 0 9 -10 17 -21 17 -12 0 -16 -9 -9 -20 7 -11 -4 -21 -24
-22 -20 -1 -58 -4 -86 -7 -90 -11 -109 28 -46 94 86 91 249 128 326 73z
m-2624 -15 c14 -9 20 -31 13 -50 -17 -42 -49 -43 -49 -2 0 17 -9 26 -20 19
-22 -14 -28 16 -7 37 18 17 31 16 63 -4z m1610 -16 c-8 -21 -5 -29 9 -20 14 9
18 -6 12 -44 -6 -40 1 -62 22 -70 39 -15 20 -66 -30 -79 -27 -7 -39 0 -40 23
-2 26 -5 24 -18 -7 -9 -22 -13 -46 -9 -53 4 -7 -6 -18 -23 -25 -18 -6 -28 -19
-23 -27 5 -8 -23 -30 -62 -49 l-71 -34 82 84 c45 46 89 111 96 144 8 33 28 72
46 88 30 25 29 26 -5 14 -23 -8 -45 -3 -55 12 -26 41 -20 53 28 62 25 5 47 10
49 11 3 2 -1 -12 -8 -30z m323 -1 c39 -18 71 -44 71 -56 0 -26 84 -70 133 -70
29 0 194 -167 236 -237 16 -28 11 -27 -35 2 -43 29 -51 30 -41 5 6 -16 18 -30
26 -30 8 0 14 -13 14 -29 0 -16 -7 -25 -15 -20 -8 5 -21 1 -27 -9 -7 -11 -30
-16 -51 -12 -22 4 -40 -2 -40 -14 0 -12 -14 -10 -35 6 -27 21 -25 16 4 -19 22
-25 43 -36 47 -24 4 11 24 1 45 -24 21 -25 38 -35 38 -22 1 31 60 22 81 -13 9
-14 12 -38 7 -51 -5 -14 0 -31 12 -38 31 -20 26 -51 -9 -51 -16 0 -30 -2 -30
-5 0 -3 -8 -34 -18 -69 -15 -51 -13 -61 10 -53 15 6 28 23 28 38 0 15 7 31 15
36 25 15 3 -152 -23 -176 -42 -39 -66 -30 -57 20 6 28 0 49 -13 49 -12 0 -22
23 -22 51 0 34 -8 46 -23 37 -16 -10 -20 0 -11 32 8 32 1 55 -22 73 -31 24
-31 26 -1 26 72 2 26 71 -50 75 -80 5 -94 -17 -36 -58 44 -31 70 -158 29 -142
-15 6 -26 -3 -26 -21 0 -19 11 -27 28 -21 31 12 117 -87 100 -116 -7 -10 -24
-2 -38 18 -15 20 -33 29 -41 21 -8 -8 -3 -28 10 -44 14 -17 20 -45 13 -62 -9
-25 1 -30 52 -25 47 4 78 -7 113 -43 47 -47 49 -47 76 -10 30 40 66 16 67 -45
0 -13 23 -41 52 -64 33 -26 49 -55 45 -85 -9 -59 -45 -68 -90 -22 -20 21 -76
49 -123 63 -48 13 -104 42 -125 63 -22 22 -39 34 -39 27 0 -7 -27 17 -60 52
-66 71 -75 100 -31 100 16 0 34 9 41 21 17 26 -88 3 -129 -29 -23 -18 -26 -15
-15 14 11 28 6 35 -21 29 -19 -4 -33 -18 -30 -31 3 -13 -15 -24 -40 -23 -52 0
-115 43 -115 77 0 13 -27 35 -60 49 -34 14 -55 32 -48 39 23 23 9 240 -22 349
l-31 104 58 81 c36 49 69 130 84 210 15 72 29 130 32 130 3 0 37 -15 76 -34z
m-1033 -151 c10 -36 15 -69 11 -74 -14 -15 -42 28 -55 84 -18 78 23 69 44 -10z
m440 -66 c-14 -17 -51 -55 -81 -84 -59 -56 -70 -85 -30 -85 35 0 197 132 181
147 -7 7 -31 -3 -54 -22 -42 -35 -42 -35 -4 10 20 24 45 40 53 34 9 -5 30 9
46 32 27 39 31 39 48 9 21 -38 -47 -125 -133 -170 -43 -22 -44 -27 -15 -43 18
-11 33 -28 33 -39 0 -11 -9 -15 -20 -8 -11 7 -20 1 -21 -14 0 -19 -6 -18 -25
4 -13 17 -49 32 -80 33 -52 3 -54 0 -25 -32 17 -19 30 -56 29 -83 -2 -41 -4
-40 -16 12 -17 81 -49 69 -64 -24 -7 -42 -14 -60 -15 -40 -2 20 -12 31 -23 24
-72 -45 -12 129 81 230 55 61 105 131 112 158 11 40 15 42 31 15 12 -22 9 -44
-8 -64z m-399 -76 c19 -22 18 -31 -6 -40 -21 -8 -31 0 -31 27 0 26 -10 35 -30
27 -19 -7 -30 1 -30 22 0 36 53 17 97 -36z m1 -93 c28 1 28 3 2 20 -26 17 -26
19 3 20 74 0 155 -241 89 -266 -38 -15 -40 -6 -10 52 l23 44 -46 -44 -45 -43
-34 43 c-19 24 -39 94 -45 154 -10 87 -7 101 10 65 11 -25 35 -45 53 -45z
m2151 -118 c-10 -9 -165 96 -182 123 -6 10 34 -12 89 -48 56 -37 97 -71 93
-75z m-1491 13 c16 -43 31 -254 25 -348 -3 -48 -157 -147 -228 -147 -22 0 -71
-19 -109 -42 -86 -54 -98 -41 -47 46 69 116 113 278 100 362 -8 43 -4 81 7 88
12 7 14 1 6 -16 -8 -15 -2 -12 14 7 24 30 151 89 199 94 9 0 24 -19 33 -44z
m-1788 -171 c-12 -32 -14 -32 -32 1 -14 24 -12 43 6 63 31 34 48 -7 26 -64z
m1250 -24 c0 -46 -29 -89 -131 -195 -72 -74 -122 -116 -111 -93 11 23 34 53
52 68 42 35 93 158 77 185 -8 12 -4 15 10 7 13 -8 23 -2 23 16 0 24 46 68 75
71 3 1 5 -26 5 -59z m159 -65 c-16 -85 -34 -104 -212 -205 -168 -95 -172 -89
-35 55 65 69 140 158 167 197 61 92 101 68 80 -47z m-95 -258 c-49 -77 -131
-112 -224 -96 l-70 12 150 73 c184 89 194 90 144 11z m525 -8 c21 -16 57 -29
80 -29 34 -1 36 -4 11 -20 -23 -15 -24 -19 -3 -20 19 0 24 -14 14 -45 -38
-131 -30 -166 25 -111 31 31 55 5 71 -74 6 -33 7 -49 1 -35 -8 17 -22 19 -47
5 -36 -19 -116 38 -89 65 6 6 -6 21 -28 33 -34 18 -46 42 -75 147 -2 8 -5 22
-7 30 -1 8 -10 3 -20 -12 -25 -40 -40 -1 -20 52 19 52 34 55 87 14z m-1549
-88 c0 -11 13 -15 28 -9 17 6 38 -7 51 -30 12 -23 36 -42 53 -42 25 0 29 -16
20 -75 -6 -41 -11 -78 -11 -82 -1 -4 -23 7 -50 24 -43 29 -52 29 -78 3 -42
-42 -93 -37 -93 8 0 20 -13 62 -28 91 -40 78 -20 131 50 131 32 0 58 -9 58
-19z m478 -639 c16 -11 22 -32 15 -52 -11 -28 -19 -30 -43 -10 -57 47 -33 100
28 62z"/>
<path d="M3590 3686 c33 -30 44 -48 25 -40 -26 9 -35 3 -35 -24 0 -38 56 -74
78 -50 7 8 0 18 -14 23 -19 6 -14 18 17 40 l44 31 -47 37 c-82 62 -141 47 -68
-17z"/>
<path d="M3730 3632 c0 -34 7 -43 23 -29 15 12 27 10 35 -7 6 -14 9 -4 6 24
-6 67 -64 78 -64 12z"/>
<path d="M3481 3591 c-14 -17 -18 -31 -8 -31 9 0 5 -8 -10 -18 -22 -14 -22
-24 0 -59 34 -54 77 -56 63 -3 -6 22 -20 34 -33 26 -13 -7 -8 5 11 26 20 23
27 49 18 64 -12 20 -21 19 -41 -5z"/>
<path d="M3369 3398 c-10 -16 -7 -19 11 -8 19 12 23 7 14 -16 -7 -18 -3 -38 7
-45 11 -6 14 -22 6 -33 -8 -13 -4 -16 10 -8 32 20 29 82 -5 111 -22 17 -32 17
-43 -1z"/>
<path d="M3600 3279 c0 -12 -9 -16 -20 -9 -11 7 -20 -4 -21 -24 0 -34 -1 -34
-21 -1 -26 46 -58 28 -44 -25 7 -26 1 -40 -17 -40 -19 0 -28 -26 -30 -80 -1
-43 6 -74 16 -68 10 6 12 19 6 29 -6 11 -2 19 9 19 11 0 16 12 11 26 -6 15 8
43 30 63 37 33 41 34 41 4 0 -41 37 -43 53 -3 6 16 21 24 32 17 14 -9 17 -1 8
21 -7 20 -13 48 -13 64 0 15 -9 28 -20 28 -11 0 -20 -10 -20 -21z"/>
<path d="M2464 3440 c-2 -80 64 -120 97 -59 12 24 17 48 11 54 -7 6 -12 1 -12
-13 0 -17 -9 -16 -30 5 -39 39 -38 55 3 39 23 -9 29 -5 19 11 -30 49 -86 25
-88 -37z"/>
<path d="M2015 3690 c-20 -27 -48 -44 -63 -38 -46 18 -58 -30 -22 -85 19 -29
24 -46 12 -38 -15 9 -22 -14 -22 -69 0 -50 -8 -77 -20 -70 -11 7 -20 -9 -20
-38 0 -27 9 -55 20 -62 12 -7 14 2 6 22 -9 25 -6 30 14 18 16 -10 21 -8 14 3
-7 11 1 45 17 76 16 30 29 76 29 102 0 70 20 108 52 96 21 -9 28 7 28 61 0 85
0 85 -45 22z"/>
<path d="M1787 3686 c-17 -6 -14 -30 8 -87 33 -83 80 -112 56 -34 -8 25 -14
61 -14 80 1 39 -17 53 -50 41z"/>
<path d="M2079 3570 c-1 -11 -5 -65 -9 -120 l-7 -100 27 89 c18 57 21 100 10
120 -11 17 -20 22 -21 11z"/>
<path d="M1625 3389 c5 -26 2 -43 -8 -37 -37 23 -14 -68 33 -132 28 -37 50
-79 50 -92 0 -74 157 -152 255 -127 52 13 132 23 178 21 111 -3 122 36 36 128
-38 40 -69 65 -69 56 -1 -19 -39 37 -40 58 0 7 16 17 35 22 26 7 24 10 -10 12
-37 2 -45 -8 -45 -56 0 -32 -6 -74 -13 -92 -8 -22 -3 -32 15 -29 63 9 98 -3
98 -31 0 -36 -9 -37 -56 -8 -27 17 -54 14 -112 -10 -81 -34 -76 -35 -175 46
-25 21 -30 39 -16 63 14 27 5 46 -40 81 -46 37 -56 58 -48 100 9 42 2 55 -33
64 -38 10 -43 5 -35 -37z"/>
</g>
</svg>
