<?xml version="1.0" standalone="no"?>
<!DOCTYPE svg PUBLIC "-//W3C//DTD SVG 20010904//EN"
 "http://www.w3.org/TR/2001/REC-SVG-20010904/DTD/svg10.dtd">
<svg version="1.0" xmlns="http://www.w3.org/2000/svg"
 width="300.000000pt" height="300.000000pt" viewBox="0 0 300.000000 300.000000"
 preserveAspectRatio="xMidYMid meet">
<metadata>
Created by potrace 1.10, written by Peter Selinger 2001-2011
</metadata>
<g transform="translate(0.000000,300.000000) scale(0.050000,-0.050000)"
fill="#000000" stroke="none">
<path d="M5290 5959 c-44 -11 -93 -25 -110 -32 -16 -8 -42 -11 -57 -9 -14 2
-31 -14 -37 -36 -12 -46 -64 -69 -113 -50 -26 10 -33 0 -34 -45 0 -70 -64
-151 -106 -135 -26 9 -29 -6 -21 -95 12 -126 -12 -179 -60 -138 -53 44 -40
-27 18 -95 62 -74 64 -119 5 -129 -42 -7 -41 -9 18 -45 96 -59 164 -190 98
-190 -64 0 -50 -43 25 -75 86 -37 199 -203 149 -220 -43 -14 -27 -45 23 -45
71 0 172 -136 125 -170 -48 -35 -41 -56 15 -42 65 16 168 -108 116 -141 -27
-17 -19 -26 47 -58 83 -41 135 -161 83 -193 -16 -9 -12 -25 12 -51 44 -49 47
-154 4 -138 -29 11 -41 -30 -31 -105 15 -105 -39 -151 -73 -62 -30 79 -69 79
-53 -1 15 -72 -35 -139 -103 -139 -36 0 -48 16 -62 83 -20 95 -58 121 -75 53
-22 -91 -59 -120 -119 -98 -61 24 -66 48 -25 127 39 75 -3 98 -54 28 -54 -75
-95 -67 -231 47 -66 55 -137 100 -158 100 -68 0 -113 48 -101 108 7 37 3 48
-10 35 -35 -35 -71 25 -66 109 9 147 8 146 64 142 30 -2 57 8 63 24 6 20 -1
24 -24 15 -37 -14 -105 110 -81 148 13 22 50 26 46 4 -5 -24 26 -85 43 -85 9
0 12 18 6 40 -13 47 24 54 42 8 20 -51 14 -68 -23 -68 -30 -1 -31 -3 -5 -20
17 -10 45 -15 63 -9 22 7 36 -5 45 -40 26 -102 82 -21 75 108 -1 28 -3 126 -3
217 0 177 -60 284 -159 284 -24 0 -47 27 -68 79 -32 80 -83 123 -127 107 -37
-13 -206 93 -206 130 0 42 -234 270 -261 253 -14 -8 -11 -29 10 -60 52 -80 21
-166 -66 -179 -40 -7 -120 -27 -177 -45 -90 -28 -108 -29 -138 -4 -26 22 -388
47 -388 27 0 -1 41 -28 90 -59 52 -33 90 -72 90 -93 0 -41 -32 -49 -45 -11 -7
18 -21 15 -51 -12 -31 -27 -58 -34 -98 -25 -110 26 -114 25 -127 -53 -29 -170
-126 -197 -247 -67 -97 104 -262 212 -323 212 -70 0 -97 48 -71 123 34 97 28
103 -57 55 -58 -32 -86 -39 -105 -23 -14 12 -60 27 -103 33 -42 7 -124 36
-182 64 l-106 52 99 97 c57 54 94 106 87 118 -22 36 -307 3 -394 -44 -70 -39
-78 -39 -156 -8 -45 18 -125 33 -177 33 -52 0 -113 12 -135 27 -48 34 -129 10
-129 -39 0 -26 -11 -29 -55 -17 -63 18 -343 26 -341 10 5 -60 -9 -66 -47 -21
-36 44 -38 51 -9 57 48 9 18 43 -39 43 -46 0 -127 -97 -164 -197 -16 -42 -90
-151 -110 -160 -8 -3 -15 -31 -15 -61 0 -30 -8 -63 -19 -73 -18 -19 -26 -133
-23 -303 2 -105 80 -172 250 -216 62 -17 149 -48 193 -70 43 -23 121 -47 172
-54 52 -7 169 -51 260 -99 129 -68 187 -87 263 -87 113 0 144 -39 144 -186 0
-46 7 -75 15 -63 19 25 98 22 170 -8 93 -38 74 -156 -37 -224 -204 -126 -367
-557 -328 -868 29 -238 25 -266 -81 -477 -42 -86 -83 -189 -89 -230 -24 -153
-56 -235 -141 -359 -92 -135 -108 -176 -163 -435 -19 -88 -58 -200 -88 -250
-30 -49 -74 -141 -97 -203 -23 -62 -80 -157 -126 -210 -190 -220 -302 -325
-357 -338 -34 -7 -58 -25 -58 -43 0 -25 5 -26 30 -6 17 14 37 19 45 12 17 -18
-25 -83 -50 -78 -10 2 -19 -50 -20 -116 -1 -100 4 -116 27 -96 30 24 35 15 29
-57 -5 -59 26 -57 110 7 79 60 129 52 129 -21 0 -63 38 -66 103 -6 27 25 68
59 92 75 35 24 48 61 62 184 23 191 83 314 215 445 56 56 109 124 117 151 34
117 155 338 239 435 67 79 93 129 103 198 16 104 95 208 187 246 41 17 71 54
101 123 58 134 94 128 105 -17 15 -184 67 -271 175 -289 48 -8 97 -24 109 -36
39 -39 87 -19 164 70 42 50 87 87 100 82 14 -5 41 10 61 33 31 35 32 40 4 30
-25 -9 -30 -3 -22 27 8 30 16 34 37 16 22 -18 28 -16 28 7 0 17 21 44 47 61
93 61 149 191 138 319 -11 133 -8 135 70 56 35 -34 92 -64 137 -72 145 -27
248 -186 168 -259 -22 -20 -75 -101 -119 -180 -94 -172 -235 -317 -352 -361
-74 -29 -88 -44 -106 -116 -15 -58 -39 -93 -80 -115 -31 -18 -61 -54 -66 -80
-13 -67 -3 -387 13 -437 16 -53 70 -54 70 -1 0 60 31 48 77 -30 51 -86 83 -90
83 -9 0 84 54 101 105 32 49 -68 79 -51 51 30 -16 44 -16 73 -1 97 12 18 19
103 16 188 -5 129 0 156 29 172 19 10 40 45 46 77 8 40 71 112 207 235 108 98
227 213 266 255 39 42 103 94 142 114 120 61 175 163 191 354 l14 166 89 39
c134 59 136 51 35 -100 -101 -150 -96 -173 93 -455 120 -181 120 -201 -2 -430
-126 -235 -224 -335 -332 -339 -76 -3 -275 -77 -295 -110 -35 -59 -37 -191 -3
-178 21 8 42 3 51 -12 12 -19 24 -16 53 10 44 39 87 44 119 12 15 -15 44 -15
99 0 42 11 109 25 149 32 66 10 81 26 180 194 76 129 173 250 328 411 231 239
247 264 213 333 -209 423 -180 553 162 718 241 116 290 80 546 -400 73 -137
180 -202 368 -224 147 -18 151 -21 279 -264 146 -275 204 -453 216 -669 l11
-182 -66 -75 c-36 -41 -67 -92 -69 -113 -1 -21 -18 -54 -36 -75 -28 -31 -30
-48 -12 -101 24 -69 58 -85 58 -26 0 79 129 55 161 -29 23 -61 55 -61 70 -2 6
25 31 54 55 65 80 35 52 548 -34 634 -15 15 -33 58 -41 96 -10 51 -8 61 7 39
18 -25 21 -24 22 9 0 65 43 5 71 -103 l26 -96 2 82 c0 45 -16 131 -37 191 -20
60 -57 217 -81 348 -70 376 -79 406 -153 462 -37 28 -72 68 -79 90 -7 21 -59
75 -116 120 -134 106 -131 100 -154 352 -10 118 -33 265 -49 325 l-30 110 55
45 c30 25 61 45 68 45 24 0 201 248 238 332 174 403 113 787 -172 1098 -41 44
-102 113 -137 153 -34 40 -69 73 -78 74 -26 3 -114 117 -114 149 0 16 -18 51
-40 77 -35 41 -39 42 -28 7 11 -37 9 -38 -18 -5 -15 19 -24 56 -19 82 4 26 -4
59 -20 75 -72 73 -106 338 -43 338 21 0 28 11 20 32 -16 40 9 139 27 110 8
-14 40 14 80 70 75 104 160 148 285 148 242 -1 440 -295 283 -419 -62 -49
-137 -56 -119 -11 7 17 17 44 24 60 14 35 -23 41 -43 8 -8 -12 -62 -43 -120
-69 -58 -26 -111 -56 -118 -68 -8 -12 -35 -21 -62 -21 -27 0 -49 -9 -49 -20 0
-11 18 -20 39 -20 22 0 60 -8 85 -18 220 -86 299 -90 249 -13 -44 66 -42 71
26 71 152 0 251 108 233 253 -13 98 -70 227 -102 227 -12 0 -42 26 -65 58 -57
77 -232 115 -375 81z m-3605 -441 c-14 -54 -51 -67 -106 -38 -49 27 -33 52 41
66 28 5 56 10 63 11 7 2 8 -16 2 -39z m-857 -29 c99 -12 237 -112 202 -145 -9
-8 -19 -3 -24 11 -5 14 -18 25 -29 25 -11 0 -14 -9 -7 -20 27 -44 -31 -16 -61
29 -48 72 -141 98 -257 70 -47 -11 -51 -15 -17 -17 43 -2 67 -42 25 -42 -11 0
-20 -7 -20 -17 0 -9 48 -12 107 -7 120 10 139 -5 146 -111 3 -45 -4 -65 -24
-65 -16 0 -29 -9 -29 -20 0 -11 -18 -20 -40 -20 -22 0 -40 13 -40 30 0 36 -33
40 -45 6 -11 -33 -173 15 -188 55 -6 16 -23 29 -38 29 -49 0 -50 37 -4 86 25
27 65 72 88 101 33 40 57 51 100 44 32 -5 101 -15 155 -22z m312 -27 c0 -10
-18 -39 -39 -65 l-40 -47 0 65 c-1 52 7 65 39 65 22 0 40 -8 40 -18z m333 -62
c113 -19 179 -64 154 -105 -6 -10 8 -31 31 -48 49 -34 54 -72 12 -107 -24 -20
-37 -16 -68 23 -21 26 -45 40 -54 32 -8 -9 1 -28 22 -42 51 -38 27 -103 -28
-74 -28 15 -42 14 -49 -4 -6 -14 -9 -3 -7 25 3 38 -7 51 -41 56 -24 4 -74 42
-111 84 -52 61 -82 79 -139 83 -62 4 -69 10 -49 34 34 41 138 83 177 71 18 -5
86 -18 150 -28z m-1207 -129 c16 -16 33 -25 38 -20 5 5 26 -9 46 -31 33 -37
34 -45 7 -71 -26 -27 -37 -22 -93 40 -83 91 -81 165 2 82z m3714 -56 c0 -10
-7 -14 -15 -9 -8 4 -31 14 -51 21 -30 10 -32 17 -10 42 26 29 76 -6 76 -54z
m-2910 -21 c18 -48 58 -116 88 -152 l56 -65 107 31 c120 36 251 42 269 12 7
-11 30 -20 51 -20 88 0 150 -101 85 -137 -27 -15 -34 -43 -31 -118 4 -85 -3
-105 -55 -155 -45 -43 -60 -49 -60 -25 0 18 9 38 20 45 34 21 22 61 -18 64
-48 4 -69 -44 -41 -95 11 -22 13 -39 5 -39 -9 0 -2 -9 14 -20 26 -17 26 -19
-2 -20 -17 0 -48 -18 -68 -40 -20 -22 -51 -40 -68 -40 -23 1 -18 12 18 40 l50
40 -65 -13 c-61 -11 -96 19 -43 37 14 5 10 17 -10 34 -28 24 -32 20 -32 -36 0
-61 -2 -62 -97 -62 -95 0 -97 1 -88 55 13 74 101 165 159 165 31 0 55 17 70
50 23 52 46 63 64 33 12 -19 111 -6 114 14 17 93 12 125 -22 143 -47 25 -120
26 -120 2 0 -10 -17 -14 -38 -8 -48 12 -122 -26 -122 -64 0 -16 -21 -43 -47
-60 -26 -17 -57 -53 -69 -80 -13 -28 -36 -50 -52 -50 -16 0 -35 -16 -41 -36
-19 -61 -89 -124 -122 -111 -27 10 -24 20 16 65 42 46 76 116 153 308 27 68
-134 244 -203 222 -23 -7 -35 0 -35 21 0 52 58 60 101 14 59 -63 110 -35 62
34 -66 95 -68 103 -26 103 28 0 49 -25 73 -86z m77 -6 l34 -72 110 13 c129 16
165 -37 41 -60 -109 -20 -247 76 -251 176 -2 40 35 7 66 -57z m134 40 c22 -26
22 -34 0 -48 -52 -32 -109 25 -68 67 21 21 40 16 68 -19z m774 -22 c42 -10 42
-12 -21 -55 -145 -98 -332 -60 -271 55 21 38 133 38 292 0z m-1575 -77 c0 -18
-22 -61 -50 -97 -27 -36 -50 -76 -50 -89 0 -13 -9 -23 -20 -23 -11 0 -20 23
-20 51 0 29 -9 46 -20 39 -11 -7 -20 -1 -20 12 0 14 -6 19 -13 12 -18 -18 -67
24 -67 57 0 21 13 22 60 6 33 -12 60 -31 60 -44 0 -13 18 6 40 42 41 68 100
88 100 34z m199 -33 c116 -34 237 -141 125 -111 -19 5 -47 -4 -61 -19 -35 -38
-73 -22 -72 30 1 27 -21 54 -65 77 -68 37 -93 82 -31 57 19 -8 66 -23 104 -34z
m2714 20 c83 -30 118 -112 74 -174 -34 -48 -67 -39 -67 19 0 20 -32 69 -71
108 -77 77 -58 91 64 47z m480 -1 c72 -32 147 -97 147 -128 0 -14 10 -31 23
-39 17 -10 20 4 11 49 -12 59 -10 62 26 43 50 -27 60 -172 10 -153 -16 7 -30
3 -30 -8 0 -40 -40 -17 -69 40 -30 57 -135 83 -162 40 -5 -8 -27 -11 -49 -5
-22 6 -40 2 -40 -9 0 -10 -32 -36 -70 -56 -39 -21 -75 -54 -81 -74 -18 -54
-83 -82 -104 -44 -15 27 -22 25 -54 -10 -57 -62 -86 -50 -94 39 -6 56 0 80 17
80 15 0 26 -18 26 -40 0 -58 22 -50 90 32 106 127 128 147 183 161 30 7 77 5
106 -6 56 -20 121 -14 121 13 0 9 -34 28 -75 41 -41 13 -84 32 -94 41 -29 27
96 22 162 -7z m-2046 -133 c-4 -69 -10 -75 -25 -22 -8 31 -31 52 -58 56 -24 4
-44 19 -44 34 0 24 10 24 64 1 46 -19 64 -40 63 -69z m-1360 -69 c-9 -71 -21
-93 -48 -93 -40 0 -25 114 22 171 36 43 41 28 26 -78z m1743 66 c53 -12 61
-25 54 -87 -8 -65 -75 -85 -146 -41 -21 13 -22 -4 -5 -89 12 -62 13 -63 61
-31 77 50 73 25 -15 -108 -90 -135 -106 -148 -87 -73 11 44 6 50 -40 50 -58 0
-67 -23 -22 -60 17 -14 30 -38 30 -53 0 -46 -59 -56 -90 -15 -26 34 -29 35
-29 4 -1 -19 18 -45 41 -57 49 -26 -1 -105 -61 -95 -17 3 -52 -15 -76 -39 -61
-61 -102 -59 -90 4 12 61 65 113 65 63 0 -17 10 -32 22 -32 14 0 17 27 8 80
-10 61 -6 83 16 91 68 26 188 254 265 505 6 18 19 20 44 7 19 -11 44 -21 55
-24z m-1890 -80 c0 -42 -54 -15 -89 45 l-38 63 64 -45 c34 -24 63 -53 63 -63z
m3986 60 c-13 -47 -53 -42 -62 8 -5 22 6 33 33 33 30 0 37 -10 29 -41z m-3395
-21 c20 -32 -34 -60 -65 -34 -14 11 -26 29 -26 38 0 26 75 22 91 -4z m1449
-17 c0 -27 10 -36 30 -28 17 6 35 -3 42 -21 7 -17 20 -27 29 -22 39 25 38 -36
-1 -70 -24 -21 -59 -65 -77 -98 -69 -124 -276 -366 -363 -423 -49 -32 -111
-81 -137 -109 -52 -56 -74 -61 -95 -26 -9 13 -3 28 13 33 16 5 75 57 132 116
58 61 107 98 111 84 15 -44 50 1 96 123 44 117 99 175 140 150 11 -7 20 11 20
40 0 29 10 71 22 94 18 34 17 40 -6 31 -27 -10 -30 61 -5 140 12 40 49 29 49
-14z m-1708 -9 c22 -16 71 -32 109 -35 48 -5 71 -18 76 -45 7 -39 -33 -39
-152 -1 -37 11 -43 8 -33 -19 14 -37 1 -40 -53 -12 -22 12 -33 33 -26 50 7 19
-1 30 -21 30 -33 0 -42 23 -19 47 22 22 75 15 119 -15z m2595 4 c35 -33 16
-119 -30 -131 -40 -10 -50 -37 -17 -48 13 -5 12 -35 -2 -86 -28 -102 -14 -187
50 -288 29 -45 52 -96 52 -113 0 -16 9 -30 19 -30 69 0 86 -157 25 -219 -24
-24 -16 -40 66 -116 52 -48 90 -92 85 -96 -18 -19 -135 17 -135 41 0 14 -18
30 -40 36 -22 6 -40 27 -41 47 0 20 -37 78 -81 127 -45 50 -77 74 -70 55 17
-55 -4 -41 -38 26 -18 33 -27 68 -21 77 5 9 -3 68 -19 130 -40 153 -39 165 25
228 107 106 115 196 20 230 -56 20 -41 60 40 108 90 53 81 51 112 22z m-1356
-43 c10 -24 -79 -228 -110 -253 -6 -5 -23 -35 -36 -65 -13 -30 -33 -55 -45
-55 -37 0 -21 82 30 149 28 36 65 107 82 158 32 93 60 117 79 66z m118 -18
c-36 -125 -129 -270 -129 -202 0 45 95 246 116 247 18 0 22 -14 13 -45z m1932
24 c22 -11 39 -40 39 -64 0 -33 -5 -38 -24 -19 -37 37 -160 28 -216 -16 -106
-83 -142 -19 -38 68 65 55 169 69 239 31z m-2939 -127 c-18 -98 -50 -151 -76
-125 -8 8 -4 32 10 54 13 21 24 47 24 57 0 33 41 128 51 118 5 -5 1 -52 -9
-104z m3238 90 c0 -23 -51 -42 -107 -41 -41 0 -41 2 7 29 57 33 100 38 100 12z
m167 -12 c17 -16 44 -30 62 -30 43 0 39 -34 -8 -59 -60 -32 -146 -24 -201 19
l-50 39 60 2 c33 1 49 7 35 12 -14 6 -20 19 -14 29 18 28 83 21 116 -12z
m-1412 -104 c-38 -113 -31 -325 16 -481 25 -84 -27 -46 -62 44 -67 176 -12
551 81 551 2 0 -14 -51 -35 -114z m-2366 41 c76 -26 105 -28 134 -9 54 33 78
-33 26 -71 -50 -36 -96 -35 -82 3 8 20 -1 30 -28 30 -21 0 -39 -10 -39 -21 0
-32 -85 0 -116 43 -18 27 -41 34 -82 25 -32 -6 -63 -1 -71 11 -21 34 147 27
258 -11z m1972 -36 c-26 -31 -81 -43 -81 -18 0 8 15 31 34 51 41 46 86 14 47
-33z m-2221 9 c48 -37 48 -39 8 -40 -23 0 -63 18 -88 40 -65 56 8 56 80 0z
m3520 2 c0 -36 -65 -70 -89 -46 -32 32 -8 84 39 84 36 0 50 -11 50 -38z m142
-19 c-11 -20 -25 -72 -30 -115 -5 -43 -11 -82 -13 -88 -2 -5 -2 -26 0 -45 2
-23 -10 -35 -35 -35 -134 0 -203 -366 -102 -538 60 -101 26 -102 -68 -2 -77
83 -84 86 -90 45 -16 -106 -143 -30 -194 116 -17 49 -62 139 -99 200 -37 60
-74 137 -82 170 -8 32 -27 74 -43 93 -34 39 -27 106 11 106 14 0 37 14 50 30
59 74 212 70 213 -5 0 -8 20 -15 45 -15 61 -1 204 -84 208 -121 1 -16 3 -40 5
-54 3 -39 97 29 114 82 33 104 88 213 108 213 15 0 15 -12 2 -37z m-1174 -26
c-9 -14 -16 -49 -17 -76 -1 -35 -10 -48 -31 -43 -16 5 -52 9 -80 10 l-50 2 5
-210 c6 -269 12 -295 115 -503 48 -96 94 -217 101 -269 8 -52 31 -123 50 -157
43 -74 49 -231 9 -231 -15 0 -33 28 -40 61 -20 89 -36 57 -20 -38 9 -58 21
-78 42 -70 79 31 -3 -202 -99 -281 -81 -66 -118 -296 -55 -335 21 -13 34 -38
28 -56 -7 -23 -2 -22 21 6 18 22 41 31 55 22 17 -11 21 -3 13 30 -27 102 129
316 175 241 73 -118 15 -457 -74 -429 -35 11 -37 8 -16 -30 21 -40 19 -43 -34
-37 -89 10 -166 72 -121 98 19 11 35 35 35 54 -1 26 -4 28 -18 7 -29 -47 -130
66 -130 146 0 42 -8 63 -23 58 -17 -7 -19 18 -8 87 8 53 11 119 5 146 -6 36 6
67 42 106 29 31 52 63 52 71 0 8 22 81 48 161 44 133 46 155 22 223 -15 42
-23 97 -18 122 l9 47 -20 -45 c-24 -55 -75 -79 -105 -49 -16 16 -7 29 31 46
68 31 67 53 -7 155 -36 49 -60 108 -60 144 0 34 -9 56 -19 50 -30 -19 -59 121
-48 234 12 119 -23 244 -54 194 -10 -16 -13 -45 -7 -65 6 -20 2 -47 -10 -62
-15 -18 -13 -36 8 -64 33 -44 40 -127 10 -130 -11 -2 -31 -5 -45 -6 -14 -2
-23 -15 -20 -28 7 -34 -10 -30 -87 17 -37 23 -76 36 -88 29 -11 -7 -21 8 -22
34 -2 34 -5 37 -12 11 -5 -19 -26 -35 -47 -35 -25 0 -39 -14 -39 -38 0 -61
-22 -102 -55 -102 -23 0 -27 14 -17 63 6 34 12 74 12 90 0 15 7 26 15 25 66
-11 102 7 114 57 15 59 65 125 95 125 10 0 12 -11 5 -25 -7 -14 19 11 58 55
78 87 94 137 39 116 -28 -11 -26 -3 9 45 88 119 123 159 139 160 9 0 36 12 61
26 25 14 55 19 65 13 11 -7 39 6 63 29 46 43 72 42 45 -2z m1410 -34 c40 -42
86 -82 102 -89 67 -26 -38 -71 -151 -65 -60 4 -104 -2 -98 -11 6 -10 35 -18
64 -18 37 0 47 -6 32 -21 -30 -30 -128 12 -141 61 -6 22 -18 40 -26 40 -16 0
17 109 46 155 30 46 100 25 172 -52z m-310 32 c-52 -92 -144 -112 -223 -50
-49 39 -24 53 43 24 63 -26 73 -25 115 11 54 44 86 52 65 15z m-2088 -98 c0
-13 -38 -58 -85 -101 -47 -44 -67 -72 -45 -64 27 9 14 -14 -39 -69 -98 -103
-180 -119 -111 -23 24 34 58 59 76 55 18 -3 33 9 34 25 1 17 37 68 80 114 91
95 90 94 90 63z m640 -18 c0 -23 -56 -77 -168 -161 -90 -67 -150 -79 -65 -12
31 24 90 78 130 119 74 76 103 91 103 54z m2014 -55 c17 -11 5 -23 -34 -38
-66 -25 -101 0 -45 32 43 25 48 26 79 6z m-1706 -122 c15 -114 52 -229 67
-213 6 6 24 0 40 -13 24 -20 21 -29 -16 -57 l-44 -33 48 -49 c135 -141 169
-215 114 -249 -46 -28 -233 282 -208 346 5 15 2 47 -7 71 -27 72 -48 321 -26
308 10 -7 25 -57 32 -111z m-1228 18 c-12 -22 -29 -40 -39 -40 -10 0 -32 -5
-49 -12 -53 -20 -36 20 23 57 73 45 91 44 65 -5z m2693 -45 c2 -25 5 -54 7
-65 10 -43 -1 -110 -18 -110 -30 0 -65 112 -51 167 16 65 58 70 62 8z m-220
-89 c-6 -6 -35 8 -64 31 -54 42 -52 45 31 68 29 8 57 -75 33 -99z m-175 -87
c-9 -56 -10 -116 -3 -135 21 -60 109 -164 137 -164 32 0 75 -73 58 -100 -21
-34 -43 -22 -92 50 -51 74 -85 93 -64 35 12 -30 9 -31 -19 -9 -57 47 -83 336
-34 395 34 42 35 40 17 -72z m-2182 -23 c9 -46 -72 -89 -88 -47 -18 47 8 95
47 87 19 -3 37 -21 41 -40z m330 -51 c-11 -39 -203 -194 -220 -178 -12 13 103
132 173 179 61 42 59 42 47 -1z m2145 -27 c7 -12 5 -30 -6 -41 -25 -25 -116
49 -97 80 16 25 78 1 103 -39z m-161 -57 c19 -22 52 -45 73 -52 20 -6 37 -24
37 -39 0 -15 22 -53 49 -84 48 -54 50 -54 50 -12 1 24 -7 49 -17 55 -31 19
-39 89 -12 111 23 19 123 -233 101 -256 -23 -23 -168 42 -191 86 -15 28 -66
83 -114 122 -47 39 -86 79 -86 89 0 34 73 20 110 -20z m-1568 -82 c66 -27 80
-69 15 -48 -28 9 -38 6 -28 -9 7 -12 3 -22 -11 -22 -13 0 7 -27 44 -60 42 -37
87 -59 118 -57 70 4 160 -36 160 -73 0 -37 -22 -39 -60 -5 -24 21 -24 20 -2
-10 62 -81 5 -102 -77 -28 -201 181 -480 251 -686 173 -135 -51 -174 -51 -108
1 29 23 53 54 53 69 0 94 157 133 204 51 32 -57 40 -59 152 -55 124 4 136 33
44 107 -36 29 84 7 182 -34z m-633 -98 c-34 -35 -109 21 -109 81 0 33 6 33 68
-8 59 -38 64 -48 41 -73z m810 34 c-1 -35 -49 -95 -76 -95 -33 0 -28 41 10 83
38 43 67 48 66 12z m-714 -330 c36 -50 62 -110 62 -145 0 -33 7 -60 17 -60 30
0 -31 -77 -79 -98 -35 -16 -49 -16 -56 3 -53 144 -129 390 -129 419 0 53 -27
44 -67 -24 -19 -33 -45 -57 -58 -55 -13 3 -24 -4 -24 -15 -2 -35 -55 -150 -69
-150 -8 0 -12 -34 -9 -75 l6 -75 -17 66 c-10 36 -21 68 -25 70 -69 38 -86 50
-92 69 -5 16 16 19 64 11 76 -12 138 34 117 87 -5 13 3 45 17 70 14 26 24 54
21 62 -2 8 5 15 16 15 12 0 31 22 43 49 l23 49 89 -94 c49 -52 117 -132 150
-179z m2615 247 c0 -16 -23 -56 -50 -89 -46 -54 -47 -61 -15 -68 32 -8 31 -10
-5 -23 -22 -8 -84 -31 -138 -52 -136 -54 -216 -9 -224 125 -4 60 26 75 46 23
11 -29 14 -29 31 2 18 31 24 30 63 -19 59 -75 272 12 272 111 0 10 5 18 10 18
6 0 10 -13 10 -28z m-1408 -47 c-10 -45 -9 -48 9 -20 26 43 59 46 59 5 0 -22
13 -27 48 -19 51 13 135 -76 117 -126 -4 -14 8 -31 28 -39 21 -7 47 -27 59
-43 15 -20 26 -22 35 -7 8 12 -1 30 -20 40 -41 23 -2 144 46 144 22 0 24 -9 8
-39 -28 -52 -26 -70 4 -47 70 53 134 29 132 -49 -2 -41 4 -117 12 -168 13 -81
10 -96 -25 -115 -29 -15 -43 -51 -53 -135 -8 -62 -20 -127 -26 -143 -7 -19 -4
-25 10 -17 13 8 29 54 36 104 8 49 21 94 31 100 26 16 -2 -257 -31 -291 -13
-16 -36 -59 -50 -94 -13 -35 -37 -68 -53 -74 -15 -6 -28 -21 -28 -34 0 -15 14
-12 37 9 20 18 42 27 49 20 14 -14 94 160 94 205 0 43 48 188 62 188 27 0 39
245 17 365 -25 138 -46 175 -100 175 -46 0 -63 26 -46 70 10 26 29 32 80 23
36 -5 72 -2 78 9 8 13 23 11 41 -3 15 -13 40 -19 55 -13 32 12 152 -102 155
-147 1 -19 4 -21 11 -5 12 30 87 -10 87 -46 0 -12 23 -46 50 -76 58 -62 62
-75 20 -59 -17 6 -35 -3 -43 -23 -17 -44 -46 -1 -47 69 0 35 -6 43 -22 27 -15
-15 -15 -43 -1 -95 22 -78 1 -176 -50 -230 -24 -26 -27 -25 -27 5 0 19 -9 34
-20 34 -11 0 -20 -21 -20 -46 0 -25 -11 -57 -24 -70 -33 -33 -3 -55 34 -24 16
14 31 22 32 17 10 -45 6 -122 -6 -130 -9 -5 -16 -27 -16 -49 0 -100 -161 -338
-229 -338 -16 0 -34 -8 -40 -18 -10 -16 -91 -8 -91 9 0 4 22 30 48 59 27 29
64 85 82 126 19 41 51 107 71 147 20 41 43 108 50 150 8 42 20 86 26 97 22 37
22 259 -1 340 l-22 80 -14 -60 c-15 -71 -2 -210 20 -210 26 0 -1 -148 -32
-172 -15 -12 -28 -41 -28 -64 0 -48 -32 -76 -46 -39 -4 14 -16 18 -24 10 -9
-8 -5 -27 8 -43 17 -20 17 -32 3 -42 -12 -7 -16 -21 -10 -31 6 -11 2 -19 -10
-19 -11 0 -21 -19 -21 -42 0 -80 -115 -273 -134 -223 -13 34 -43 31 -82 -9
-32 -31 -34 -28 -40 53 -4 48 2 93 13 99 28 18 77 169 70 214 -12 67 -12 137
0 188 19 81 -38 225 -63 160 -12 -29 -12 -58 -2 -69 21 -23 21 -125 0 -179
-16 -41 -67 75 -101 228 -30 141 -81 222 -81 131 0 -32 -36 -61 -54 -43 -7 6
17 40 53 74 40 38 58 69 46 81 -26 26 -76 2 -103 -49 -19 -36 -21 -37 -11 -4
25 80 24 133 -2 123 -14 -6 -30 7 -35 28 -6 22 -25 39 -42 39 -40 0 -40 -9 0
-70 17 -26 28 -64 24 -84 -13 -62 -79 61 -88 165 -10 102 0 129 45 129 24 0
28 -13 19 -55z m2542 -10 c-14 -87 -52 -183 -67 -169 -6 6 0 44 13 85 18 53
18 79 2 95 -34 34 -26 54 21 54 37 0 41 -9 31 -65z m-3409 21 c50 2 79 -65 64
-146 -18 -96 -104 -102 -122 -10 -14 72 -39 76 -91 15 -42 -48 -96 -14 -96 60
0 15 -9 22 -20 15 -23 -14 -28 56 -5 79 8 8 65 9 125 1 61 -8 126 -14 145 -14z
m309 -171 c101 -112 102 -117 33 -134 -56 -14 -86 11 -87 73 0 18 -22 51 -50
72 -58 46 -65 84 -16 84 19 0 73 -43 120 -95z m2060 22 c-8 -7 -4 -25 9 -40
12 -15 17 -45 11 -68 -6 -23 4 -67 22 -99 31 -54 30 -68 -24 -288 -53 -212
-92 -294 -92 -192 0 22 -7 41 -15 42 -145 19 -207 -42 -85 -85 60 -21 62 -26
49 -101 -13 -76 -12 -78 29 -53 23 15 42 45 43 67 2 155 80 143 110 -19 8 -42
27 -101 42 -129 50 -97 24 -136 -42 -63 -19 21 -36 71 -37 110 -1 39 -7 71
-13 71 -27 -1 -57 -33 -64 -70 -6 -34 -22 -39 -95 -36 -108 6 -107 5 -71 74
33 65 37 92 12 92 -10 0 -29 -40 -43 -89 -29 -104 -132 -154 -305 -145 -79 3
-93 -1 -84 -29 11 -35 -76 -72 -88 -36 -3 10 -15 14 -25 8 -42 -26 -13 32 51
104 38 42 77 95 87 117 45 101 69 184 68 234 -1 30 6 60 17 67 10 6 19 27 19
47 0 19 22 56 49 81 28 26 45 55 39 64 -6 9 11 17 38 17 47 0 94 93 94 187 0
20 11 28 30 20 17 -6 30 -24 30 -39 0 -38 33 -35 48 4 14 37 -3 73 -28 58 -10
-6 -16 7 -15 28 2 22 10 35 19 29 9 -5 16 1 16 13 0 12 9 17 21 9 11 -7 34 -2
50 12 23 19 36 18 63 -4 18 -15 27 -17 20 -4 -8 13 -3 28 11 34 37 15 43 15
29 0z m-1525 -166 c55 -114 57 -124 25 -155 -40 -41 -57 -27 -66 53 -4 34 -25
97 -48 140 -50 100 -52 129 -4 103 19 -10 61 -74 93 -141z m-929 49 c81 -28
164 -45 183 -39 59 19 142 -49 131 -108 -7 -36 5 -61 46 -96 87 -73 107 -276
34 -339 -28 -24 -46 -49 -39 -56 6 -7 -7 -12 -29 -12 -46 0 -65 264 -22 315
17 20 14 23 -11 13 -37 -14 -47 -48 -59 -204 -10 -124 -53 -186 -103 -145 -17
14 -26 32 -21 41 5 8 -17 26 -50 40 -33 14 -60 38 -60 54 0 15 -9 23 -20 16
-11 -7 -20 6 -20 29 0 32 -13 41 -58 41 -36 0 -81 22 -121 59 -64 60 -67 107
-6 97 85 -15 151 218 82 293 -55 60 -31 60 143 1z m2730 -3 c38 -11 62 -33 66
-60 4 -24 48 -71 102 -108 115 -78 157 -152 169 -299 5 -60 20 -157 33 -214
15 -62 19 -142 11 -198 l-14 -94 -41 41 c-32 32 -42 72 -47 198 -16 377 -30
417 -151 433 -45 6 -94 27 -109 47 -19 25 -28 28 -28 10 -1 -16 -14 -22 -31
-16 -16 7 -30 3 -30 -8 0 -10 11 -19 23 -19 13 0 18 -6 10 -14 -7 -7 3 -32 24
-55 39 -42 150 -423 176 -601 11 -82 16 -91 27 -50 18 73 51 5 69 -147 11 -87
26 -127 63 -158 88 -77 47 -188 -50 -136 -36 19 -42 17 -42 -20 0 -55 -48 -40
-56 18 -4 23 -21 43 -38 43 -24 0 -28 15 -17 71 17 91 -11 174 -121 356 -50
85 -96 192 -108 252 -11 57 -24 111 -29 120 -6 8 0 95 11 193 31 264 36 372
16 422 -14 39 -12 43 18 28 19 -9 61 -25 94 -35z m681 32 c7 -12 -1 -37 -19
-57 -18 -19 -32 -49 -32 -66 0 -33 -54 -88 -71 -72 -16 16 28 116 51 116 11 0
20 14 20 30 0 17 -13 30 -29 30 -16 0 -34 9 -41 20 -7 12 13 20 48 20 33 0 66
-10 73 -21z m-2858 -164 c-38 -91 -114 -148 -139 -104 -24 44 -9 133 26 149
17 7 48 23 70 35 59 31 77 -1 43 -80z m87 45 c0 -33 -9 -60 -20 -60 -22 0 -28
86 -7 107 23 22 27 15 27 -47z m2635 -96 c5 -13 -6 -24 -23 -24 -18 0 -32 -9
-32 -20 0 -11 -22 -20 -50 -20 -52 0 -66 36 -28 74 16 16 15 34 -1 65 -23 43
-22 42 52 -4 41 -26 78 -58 82 -71z m-4012 -68 c-12 -47 -25 -112 -28 -144 -7
-84 -55 -93 -55 -10 0 94 63 283 87 259 12 -12 11 -50 -4 -105z m279 59 c2
-14 1 -40 -1 -58 -1 -19 11 -67 28 -108 27 -65 27 -77 2 -97 -33 -25 -99 -264
-81 -293 7 -10 4 -19 -6 -19 -37 0 -44 -166 -9 -191 29 -22 26 -31 -29 -86
-65 -65 -86 -55 -86 39 0 22 -15 63 -34 91 -43 66 -65 237 -42 323 30 109 66
65 67 -82 1 -74 8 -139 15 -147 8 -8 14 9 14 36 0 28 7 57 15 65 51 52 56 162
8 207 -37 34 -43 51 -26 72 13 14 17 32 10 39 -18 18 32 136 80 189 45 50 72
57 75 20z m1498 -50 c0 -17 15 -48 33 -68 34 -38 92 -293 74 -322 -6 -10 -4
-32 4 -51 37 -90 15 -264 -33 -264 -10 0 -18 -14 -18 -31 0 -17 8 -26 18 -20
10 6 22 1 26 -12 5 -14 20 -10 42 12 40 40 49 -1 15 -64 -10 -19 -23 -51 -29
-70 -17 -56 -58 -42 -44 15 7 28 5 50 -4 50 -17 0 -32 41 -96 257 -21 70 -54
135 -73 145 -43 24 -45 65 -6 97 22 18 26 48 18 112 -7 48 -5 103 4 123 8 20
14 44 11 53 -2 9 2 34 9 55 14 44 49 32 49 -17z m-470 -50 c-22 -131 -49 -161
-49 -54 -1 77 24 139 55 139 4 0 1 -38 -6 -85z m-711 -232 c33 -5 81 -117 81
-191 0 -78 -31 -113 -49 -55 -22 69 -86 127 -126 114 -25 -7 -52 3 -75 29 -65
72 17 122 169 103z m-619 -23 c0 -11 -37 -20 -81 -20 -49 0 -76 8 -69 20 7 11
43 20 81 20 38 0 69 -9 69 -20z m1555 -60 c-13 -22 -36 -40 -50 -40 -14 0 -25
-10 -25 -23 0 -13 -6 -18 -13 -10 -15 14 70 113 97 113 9 0 5 -18 -9 -40z
m-1562 -99 c3 -47 -2 -59 -14 -40 -10 16 -19 20 -19 9 -2 -22 -58 70 -59 96
-1 9 19 14 44 10 36 -5 46 -20 48 -75z m427 -31 c0 -48 83 -130 131 -130 27 0
49 -9 49 -20 0 -29 -166 -25 -205 5 -20 15 -39 70 -47 135 l-14 110 43 -38
c24 -21 43 -49 43 -62z m400 -21 c0 -35 -56 -114 -61 -86 -27 142 -10 226 34
167 15 -21 27 -57 27 -81z m368 79 c71 -27 24 -148 -58 -148 -22 0 -61 -14
-86 -32 -65 -45 -40 59 32 137 55 59 63 62 112 43z m-621 -65 c28 -31 29 -41
7 -60 -38 -31 -105 19 -88 64 17 43 40 42 81 -4z m398 -117 c-9 -76 -9 -168 0
-205 11 -40 9 -89 -4 -126 -31 -90 -26 -136 9 -75 28 50 29 49 29 -30 0 -99
-30 -160 -50 -99 -7 21 -20 57 -29 79 -41 97 -44 232 -6 275 33 39 33 41 1 29
-27 -10 -35 -2 -35 37 0 27 9 49 20 49 11 0 20 32 20 71 0 69 34 162 52 143 5
-5 2 -71 -7 -148z m155 -34 c0 -15 -13 -38 -28 -51 -39 -31 -62 9 -28 48 33
37 56 39 56 3z m-317 -25 c34 -31 51 -87 26 -87 -25 0 -124 59 -148 89 -37 45
72 43 122 -2z m-203 -46 c0 -21 9 -44 20 -51 11 -7 20 2 20 19 0 39 18 39 94
1 66 -33 96 -115 74 -202 -8 -29 -4 -48 10 -48 12 0 23 16 25 35 1 19 8 4 16
-35 19 -103 7 -125 -51 -87 -26 17 -48 45 -48 61 0 33 -55 110 -155 221 -70
76 -83 125 -35 125 17 0 30 -17 30 -39z m-144 -55 c104 -66 224 -200 237 -265
7 -35 27 -69 45 -74 18 -6 48 -18 67 -28 19 -11 48 -19 65 -19 45 0 36 -55
-11 -70 -38 -13 -102 23 -142 78 -7 10 -36 0 -64 -22 -68 -53 -146 -38 -192
36 -32 53 -35 179 -4 175 41 -5 60 6 51 31 -14 36 -89 56 -119 31 -48 -40 -72
90 -25 137 30 30 27 31 92 -10z m731 -103 c-13 -21 -47 26 -47 65 0 74 29 81
41 9 6 -37 9 -70 6 -74z m1406 7 c-52 -83 -113 -93 -113 -19 0 78 97 168 131
121 21 -29 18 -46 -18 -102z m-138 84 c30 -1 33 -38 5 -66 -12 -12 -12 -45 1
-94 12 -41 14 -86 6 -99 -9 -14 -14 -43 -11 -65 5 -34 2 -35 -17 -10 -19 25
-20 23 -8 -10 8 -22 19 -67 24 -100 5 -33 22 -70 38 -83 35 -28 16 -127 -24
-127 -27 0 -81 77 -73 104 10 38 -38 117 -69 112 -18 -3 -37 5 -42 19 -4 14 1
25 13 25 30 0 82 108 83 174 0 53 2 54 29 19 26 -35 27 -33 20 20 -4 31 -8 64
-9 73 0 9 -10 11 -20 5 -11 -7 -33 13 -51 43 -22 39 -28 43 -20 14 7 -26 -4
-61 -29 -90 -29 -35 -40 -40 -43 -18 -11 114 43 189 121 169 28 -8 62 -14 76
-15z m-2572 -9 c1 -8 4 -35 7 -58 2 -24 10 -83 17 -130 12 -81 -31 -50 -47 33
-2 11 -11 29 -20 40 -20 25 -2 130 22 130 10 0 19 -7 21 -15z m399 -51 c-42
-42 -28 -334 16 -334 48 0 55 -137 9 -193 -27 -34 -29 -30 -20 48 7 64 2 85
-19 85 -15 0 -28 17 -28 39 0 21 -10 45 -22 52 -12 7 -16 37 -10 66 6 29 5 41
-1 27 -15 -34 -67 7 -67 53 0 18 -13 58 -29 88 -16 30 -20 55 -10 55 11 0 19
-7 19 -15 1 -8 18 -37 40 -65 34 -44 37 -45 28 -8 -12 46 94 192 108 149 5
-13 -2 -35 -14 -47z m3553 -73 l-7 -51 -25 58 c-13 31 -18 76 -11 99 19 58 53
-30 43 -106z m-328 48 c31 -38 53 -79 48 -93 -4 -13 -37 18 -72 70 -75 109
-60 123 24 23z m-1671 -42 c6 -71 -53 -164 -78 -125 -14 22 -17 21 -18 -6 0
-19 -17 -44 -39 -55 -50 -27 -52 -27 -90 11 -39 38 6 86 81 87 22 1 62 24 88
51 26 28 40 50 32 50 -8 0 -9 9 -2 20 18 29 21 26 26 -33z m-1483 -101 c-24
-24 -59 30 -44 68 14 33 17 32 36 -9 12 -25 15 -51 8 -59z m-577 50 c13 -13
24 -40 24 -60 0 -20 14 -36 30 -36 36 0 39 -23 7 -55 -27 -27 -43 -109 -40
-213 3 -82 -42 -140 -94 -121 -20 7 -24 -3 -15 -41 14 -54 -51 -231 -100 -272
-15 -13 -28 -16 -28 -8 0 38 104 350 117 350 8 0 16 56 17 125 6 288 30 383
82 331z m4311 -199 c43 -42 74 -78 70 -79 -75 -19 -177 -8 -218 24 -44 33 -45
37 -11 38 37 0 37 2 -5 46 -136 146 17 118 164 -29z m-2318 -138 c-29 -31 -82
-67 -116 -81 -35 -13 -76 -36 -93 -49 -52 -42 -120 -55 -120 -23 0 54 91 164
131 159 21 -2 84 20 139 51 118 65 148 36 59 -57z m-1348 -47 c-78 -127 -101
-80 -40 81 19 49 23 51 52 22 30 -29 28 -38 -12 -103z m105 35 c8 -7 3 -26 -9
-41 -33 -40 -7 -53 30 -16 18 18 42 27 53 20 30 -18 24 -50 -9 -50 -15 0 -34
-18 -41 -40 -16 -50 -32 -50 -75 0 -47 55 2 176 51 127z m3787 -88 c36 -79 54
-265 24 -255 -20 7 -95 240 -97 303 0 33 51 -1 73 -48z m-4752 -76 c-13 -41
-22 -82 -19 -93 5 -21 -12 -66 -94 -245 -54 -118 -61 -150 -22 -97 22 30 23
18 6 -75 -23 -128 -30 -129 -54 -5 -13 73 -7 117 32 232 26 78 43 154 37 170
-16 43 53 207 90 215 46 9 52 -18 24 -102z m1132 62 c-2 -24 9 -33 34 -29 23
4 34 -3 29 -19 -20 -58 -109 -38 -109 24 0 33 10 59 24 59 14 0 23 -16 22 -35z
m686 -220 c-1 -26 -53 -85 -74 -85 -14 0 -14 17 2 50 21 45 74 71 72 35z
m1098 -64 c4 -31 -2 -43 -20 -37 -15 5 -30 30 -34 55 -4 31 2 43 20 37 15 -5
30 -30 34 -55z m-1277 -118 c0 -40 -91 -101 -120 -81 -20 14 -22 24 -8 30 12
5 39 22 60 38 43 33 68 38 68 13z m-129 -112 c35 -26 35 -30 5 -30 -21 -1 -31
-12 -24 -29 6 -15 1 -34 -11 -41 -11 -7 -21 -24 -21 -37 0 -15 8 -13 19 5 23
37 50 14 34 -28 -15 -41 -90 -40 -136 2 -91 82 36 232 134 158z m-1751 -203
c0 -64 -28 -117 -114 -218 -37 -44 -75 -90 -85 -102 -21 -28 -50 -114 -45
-134 3 -9 -13 -40 -36 -68 -22 -28 -40 -68 -40 -89 0 -54 -37 -45 -65 15 -20
44 -18 56 11 77 19 14 34 32 34 40 0 7 22 43 50 79 27 36 72 107 99 157 27 51
67 111 90 134 22 22 41 67 41 98 0 31 6 62 13 69 23 23 47 -7 47 -58z m5171
-197 c32 -77 39 -191 11 -191 -9 0 -23 43 -31 95 -7 52 -18 111 -23 130 -19
62 13 37 43 -34z m-2554 -9 c20 -12 12 -20 -27 -30 -63 -16 -93 1 -49 29 36
23 42 23 76 1z m2594 -380 c-21 -65 -68 -93 -101 -60 -25 24 -23 37 13 93 45
72 113 46 88 -33z m-151 42 c0 -28 -47 -64 -84 -64 -46 0 -46 32 -1 58 42 25
85 28 85 6z m-5460 -62 c0 -10 -22 -23 -50 -30 -27 -7 -50 -26 -50 -43 0 -17
-13 -35 -30 -42 -16 -6 -30 -23 -30 -37 0 -45 -58 -80 -86 -52 -19 20 0 46 86
123 104 93 160 121 160 81z m80 -101 c0 -9 -13 -27 -30 -41 -16 -14 -30 -37
-30 -52 0 -32 -73 -75 -100 -58 -35 22 -21 86 27 124 49 38 133 56 133 27z
m64 -82 c-6 -79 -17 -94 -46 -65 -28 28 -3 151 29 140 13 -5 21 -38 17 -75z"/>
<path d="M1399 5272 c73 -76 101 -89 101 -45 0 35 -57 85 -120 103 -47 14 -46
10 19 -58z"/>
<path d="M3161 4273 c-1 -26 66 -133 83 -133 9 0 16 7 16 15 0 22 -98 138 -99
118z"/>
<path d="M3300 4577 c0 -55 78 -117 149 -117 58 0 66 -6 57 -40 -8 -32 3 -45
52 -62 89 -31 132 -127 141 -313 0 -14 11 -25 23 -25 14 0 19 21 13 51 -6 28
4 106 21 172 18 72 22 126 12 134 -11 7 -34 37 -53 67 -39 61 -152 100 -264
93 -44 -3 -84 8 -110 32 -32 29 -41 31 -41 8z"/>
<path d="M4153 3647 c-21 -22 67 -63 110 -52 47 12 48 43 2 41 -19 -1 -49 5
-66 12 -17 7 -38 7 -46 -1z"/>
<path d="M3392 3465 c-26 -26 -10 -65 28 -65 22 0 40 13 40 28 0 30 -49 57
-68 37z"/>
<path d="M4531 3324 c-8 -7 -23 -15 -33 -16 -10 -2 -25 -4 -34 -5 -22 -4 -104
-81 -104 -99 0 -8 27 -14 60 -14 60 0 77 17 40 40 -42 26 -18 54 39 46 37 -6
63 1 69 17 12 30 -15 53 -37 31z"/>
<path d="M4273 3190 c6 -16 1 -30 -11 -30 -12 0 -22 -24 -22 -54 0 -51 1 -52
29 -15 34 44 41 129 12 129 -11 0 -15 -13 -8 -30z"/>
<path d="M4144 2921 c-58 -78 -58 -77 46 -68 50 4 90 -1 90 -12 0 -21 -40 -50
-68 -51 -10 0 -22 -11 -27 -25 -14 -43 85 -28 128 20 50 57 52 148 2 139 -19
-3 -55 8 -81 25 -44 29 -49 28 -90 -28z"/>
<path d="M2300 3271 c0 -16 8 -33 17 -39 10 -6 13 -56 8 -111 -7 -65 -2 -101
12 -101 32 0 53 140 26 183 -13 20 -23 50 -23 67 0 16 -9 30 -20 30 -11 0 -20
-13 -20 -29z"/>
<path d="M2080 2464 c0 -20 86 -104 107 -104 8 0 5 18 -7 40 -23 42 -100 92
-100 64z"/>
</g>
</svg>
