<?xml version="1.0" standalone="no"?>
<!DOCTYPE svg PUBLIC "-//W3C//DTD SVG 20010904//EN"
 "http://www.w3.org/TR/2001/REC-SVG-20010904/DTD/svg10.dtd">
<svg version="1.0" xmlns="http://www.w3.org/2000/svg"
 width="147.000000pt" height="300.000000pt" viewBox="0 0 147.000000 300.000000"
 preserveAspectRatio="xMidYMid meet">
<metadata>
Created by potrace 1.10, written by Peter Selinger 2001-2011
</metadata>
<g transform="translate(0.000000,300.000000) scale(0.050000,-0.050000)"
fill="#000000" stroke="none">
<path d="M1406 5941 c-83 -51 -119 -110 -135 -221 -7 -49 -38 -142 -69 -206
-53 -110 -54 -117 -19 -136 34 -18 35 -23 6 -67 -37 -56 -21 -154 23 -138 20
8 28 -6 28 -52 0 -35 -8 -58 -18 -52 -11 6 -32 -2 -49 -19 -55 -55 -115 -12
-142 100 -8 33 -24 66 -36 73 -15 9 -11 30 12 65 31 47 80 74 68 37 -3 -8 4
-18 15 -21 10 -4 21 0 24 10 23 73 -199 120 -256 53 -42 -50 -98 -205 -98
-273 0 -30 -24 -90 -52 -134 -29 -43 -64 -136 -78 -205 -13 -69 -31 -143 -39
-165 -12 -32 -10 -34 7 -10 18 25 21 23 22 -14 0 -46 -39 -87 -41 -42 0 14
-14 1 -31 -31 -17 -31 -26 -70 -20 -86 6 -16 3 -24 -7 -18 -10 6 -24 -15 -31
-47 -7 -32 -56 -108 -108 -168 -170 -194 -287 -539 -321 -944 -33 -390 -31
-403 74 -517 l89 -96 -14 -173 c-26 -311 33 -466 270 -709 209 -215 244 -229
344 -145 89 75 148 67 177 -25 13 -41 59 -157 102 -257 127 -301 100 -436
-135 -681 l-122 -127 -122 0 c-67 0 -127 -9 -134 -20 -7 -12 20 -20 69 -20 71
0 81 -6 81 -46 0 -101 87 -119 263 -55 59 21 131 43 160 50 34 7 61 31 74 66
34 88 94 145 155 145 30 0 49 6 41 13 -7 8 21 33 62 56 90 50 104 123 58 299
-22 84 -25 146 -12 247 32 243 23 485 -21 582 -22 48 -35 107 -29 131 12 46
-50 61 -106 26 -32 -21 -65 -1 -65 40 0 21 -13 27 -42 20 -30 -8 -38 -3 -30
17 6 17 -1 29 -19 29 -16 0 -40 23 -53 50 -12 28 -34 50 -49 50 -50 0 -57 3
-92 35 -27 24 -35 25 -35 5 0 -18 -16 -12 -46 17 -54 50 -83 56 -67 13 15 -39
3 -38 -47 4 -69 60 2 168 83 125 22 -13 57 -18 77 -13 20 5 50 -8 68 -29 18
-21 42 -33 53 -27 31 20 22 50 -14 50 -19 0 -50 15 -70 33 -21 19 -73 34 -122
35 -93 2 -120 23 -103 78 6 20 1 49 -12 64 -13 16 -18 37 -12 47 22 36 -40 66
-68 33 -22 -26 -20 -36 10 -57 49 -36 62 -353 15 -353 -35 0 -127 93 -249 255
-49 63 -101 115 -117 115 -45 0 -46 -65 0 -104 22 -19 41 -46 41 -60 0 -15 11
-26 25 -27 14 0 43 -29 65 -65 24 -38 83 -85 146 -116 58 -28 118 -69 134 -92
17 -24 80 -55 154 -75 154 -43 176 -60 176 -135 0 -32 9 -76 20 -96 16 -29 9
-50 -29 -94 l-50 -56 -3 55 c-2 30 -4 66 -5 79 -4 31 -129 116 -171 115 -21 0
-16 -10 18 -29 33 -19 39 -29 18 -29 -38 -1 -287 156 -272 172 6 5 29 0 52
-12 23 -12 42 -18 42 -12 0 5 -29 25 -65 43 -100 52 -199 133 -178 146 10 7
-3 28 -29 48 -38 28 -45 29 -35 5 6 -17 20 -31 30 -31 11 0 14 -8 8 -19 -7
-10 29 -68 79 -129 49 -61 90 -120 90 -131 0 -24 154 -102 275 -141 90 -28 95
-34 66 -79 -13 -21 -25 -23 -44 -7 -33 26 -157 45 -157 24 0 -9 9 -21 20 -28
37 -23 20 -50 -32 -50 -45 0 -51 7 -43 50 5 28 0 51 -13 52 -12 1 -39 4 -60 5
-21 2 -40 18 -43 37 -4 23 5 30 28 21 38 -15 42 -20 -151 215 -133 162 -138
168 -109 151 22 -13 23 -8 6 24 -12 22 -34 45 -49 51 -19 7 -32 63 -40 172 -7
89 -22 180 -33 201 -60 111 -3 408 74 388 32 -8 125 -173 125 -220 0 -32 112
-142 159 -157 l46 -14 -37 51 c-21 29 -48 52 -61 52 -28 1 -79 61 -52 61 106
0 354 -121 484 -236 17 -15 69 -53 116 -86 88 -60 154 -173 207 -353 17 -58
42 -94 78 -112 l54 -27 -35 142 c-19 78 -49 204 -67 280 -19 84 -67 197 -122
289 -90 153 -111 224 -65 222 41 -1 128 -84 164 -156 39 -77 54 -68 88 51 14
48 49 105 85 135 96 80 125 62 71 -45 -71 -142 -103 -754 -36 -699 19 17 31
15 44 -6 26 -42 24 -57 -20 -112 -38 -49 -38 -50 0 -113 21 -35 39 -83 39
-107 0 -24 28 -96 63 -160 39 -74 72 -176 88 -277 15 -88 47 -263 71 -390 54
-279 53 -381 -3 -507 -29 -67 -36 -104 -22 -118 14 -14 -19 -59 -104 -143
-108 -106 -194 -238 -171 -261 16 -16 612 -24 652 -9 122 45 228 496 141 593
-57 63 -58 131 -4 355 72 300 76 631 10 780 -34 78 -42 122 -33 200 16 143 17
398 1 551 l-14 130 96 50 c111 57 199 178 220 305 19 111 78 244 147 332 191
242 224 560 87 833 -95 191 -110 259 -113 529 l-2 253 -87 116 c-63 82 -114
127 -180 155 -481 208 -521 241 -544 447 -23 198 -119 331 -239 328 -18 0 -10
-12 20 -29 35 -20 40 -29 17 -29 -23 -1 -30 -13 -23 -41 6 -22 19 -35 28 -29
10 6 18 -21 18 -61 l0 -73 -65 39 c-75 45 -119 45 -210 0 -35 -18 -69 -25 -75
-16 -21 33 40 126 100 152 59 26 59 26 10 29 -49 2 -49 3 10 30 46 21 51 27
20 28 -22 0 -69 -17 -104 -38z m380 -156 c7 -34 0 -66 -17 -84 -25 -26 -29
-19 -29 55 0 94 30 113 46 29z m-66 -105 c35 -33 77 -60 92 -60 35 0 37 -48 3
-75 -72 -58 -505 -1 -505 66 0 21 11 37 24 34 14 -2 58 18 98 45 104 71 205
67 288 -10z m-144 -188 c64 -2 114 -13 119 -27 11 -34 -128 -54 -187 -28 -63
29 -68 29 -68 -5 0 -41 111 -75 171 -52 27 11 49 12 50 5 0 -8 12 0 26 19 24
31 29 28 59 -35 18 -38 42 -69 54 -69 33 0 23 -51 -19 -89 -22 -20 -49 -28
-63 -20 -15 10 -19 7 -10 -8 22 -36 -79 -75 -116 -45 -15 13 -33 16 -39 6 -21
-32 -133 -2 -133 36 0 52 110 92 180 66 46 -17 54 -15 52 12 -1 19 12 31 33
29 19 -1 35 5 35 14 0 29 -140 50 -275 42 -114 -7 -29 -34 90 -29 93 4 123 0
95 -12 -22 -10 -75 -13 -118 -7 -55 8 -74 4 -64 -11 7 -12 -5 -41 -27 -63
l-41 -41 -43 43 -42 42 9 -62 c7 -51 4 -58 -19 -39 -17 14 -23 39 -15 65 8 22
13 68 12 101 -1 51 2 55 19 25 26 -44 50 -31 91 49 35 67 40 65 -62 24 -21 -9
-30 0 -30 28 0 44 59 66 128 49 21 -5 88 -11 148 -13z m213 -12 c58 -22 69
-80 15 -80 -42 0 -84 37 -84 74 0 31 3 31 69 6z m216 -123 c-4 -20 13 -37 43
-45 47 -12 56 -38 26 -85 -10 -17 3 -18 53 -3 142 44 149 -9 14 -95 -68 -43
-114 -81 -102 -85 11 -4 45 10 76 32 179 126 284 149 371 79 l56 -45 -116 -6
c-94 -5 -126 -16 -166 -58 -43 -44 -44 -49 -10 -36 91 37 185 33 267 -9 56
-28 83 -34 83 -17 0 16 11 14 32 -8 74 -74 -29 -103 -109 -31 -46 42 -49 42
-37 5 12 -35 9 -34 -19 5 -46 65 -78 56 -36 -10 l35 -55 -48 42 c-62 55 -146
78 -130 36 9 -24 -6 -29 -73 -25 -47 3 -105 -2 -130 -10 -27 -10 -45 -8 -45 4
0 11 19 26 42 33 22 8 37 18 32 22 -4 5 -48 -9 -96 -30 -48 -22 -74 -40 -58
-41 41 -3 -59 -59 -107 -60 -31 -1 -34 4 -13 29 14 17 39 30 56 30 17 0 25 6
18 13 -8 7 -5 24 6 38 30 36 -33 85 -66 51 -19 -19 -16 -21 11 -11 52 20 42
-22 -18 -79 -68 -63 -151 -63 -180 0 -23 47 33 128 87 128 68 0 195 205 141
227 -18 8 -15 17 10 33 19 12 35 36 35 52 0 19 14 28 35 24 19 -4 33 -22 30
-39z m-1033 -163 c11 2 22 -32 25 -76 5 -88 -77 -103 -131 -23 -14 19 -34 46
-46 60 -36 42 4 28 53 -18 l46 -43 -20 68 c-24 83 -24 83 1 68 11 -7 21 12 23
44 2 51 4 49 15 -14 7 -38 23 -68 34 -66z m387 -152 c46 -110 106 -148 194
-124 99 28 107 27 107 -5 0 -43 -195 -75 -297 -49 -46 11 -83 29 -83 38 0 10
-12 18 -27 18 -47 0 -104 77 -77 104 19 19 30 18 48 0 46 -46 102 -29 91 26
-13 68 15 63 44 -8z m-494 -98 c25 -22 61 -26 138 -17 92 10 116 5 225 -56
137 -77 182 -86 312 -64 50 8 162 7 250 -4 91 -10 168 -10 179 0 10 9 50 17
89 17 84 0 204 40 234 78 18 23 35 24 88 5 37 -13 71 -19 77 -13 31 31 83 -63
83 -152 0 -88 -27 -147 -44 -97 -4 12 -29 25 -56 29 -78 12 -193 43 -220 60
-17 11 -21 3 -11 -27 15 -48 -24 -60 -65 -19 -36 36 -30 -24 7 -73 51 -68 40
-303 -16 -318 -75 -20 -135 -15 -135 13 0 14 -43 37 -95 51 -89 24 -224 81
-385 163 -40 21 -74 55 -81 83 -15 63 -67 60 -75 -4 -14 -122 18 -150 347
-311 307 -150 311 -153 299 -209 -7 -32 1 -96 19 -149 21 -63 25 -103 12 -128
-16 -29 -32 -98 -39 -167 -1 -8 -21 -34 -44 -57 -23 -23 -37 -46 -32 -51 6 -5
52 32 102 82 105 105 120 80 40 -65 -114 -208 -362 -404 -510 -404 -19 0 -47
-12 -62 -26 -39 -38 -156 -42 -156 -4 0 40 -28 38 -63 -4 -15 -18 -17 -28 -4
-20 13 8 27 -4 33 -27 9 -34 6 -37 -18 -17 -23 19 -27 18 -18 -5 14 -37 -102
-43 -225 -13 -110 27 -108 46 3 46 49 0 84 -7 79 -15 -5 -8 13 -15 41 -15 38
0 48 8 39 32 -14 36 -88 68 -156 68 -54 0 -157 96 -142 134 9 23 -13 35 -54
28 -9 -1 -13 29 -8 67 9 82 -2 100 -41 67 -24 -19 -26 -14 -15 31 15 58 -49
131 -116 132 -62 2 -41 110 67 347 129 282 124 277 393 407 124 59 225 117
225 127 0 26 -254 26 -270 1 -6 -11 -74 -38 -149 -61 -126 -37 -139 -46 -152
-104 -12 -56 -16 -59 -34 -26 -27 49 33 307 98 422 58 101 58 101 -2 116 -27
7 -54 32 -61 57 -34 117 -34 115 4 102 20 -7 52 -26 71 -43z m1577 -347 c59
-17 84 -17 105 1 23 19 37 13 72 -31 23 -30 35 -59 27 -65 -9 -7 -18 -50 -19
-97 -6 -123 -11 -142 -38 -132 -13 5 -29 -4 -35 -21 -9 -23 -25 -26 -75 -12
-91 26 -109 47 -156 177 -75 204 -56 232 119 180z m-1742 -103 c0 -29 -39 -74
-64 -74 -9 0 -16 23 -16 50 0 37 11 50 40 50 22 0 40 -12 40 -26z m1584 -244
c12 -27 30 -50 39 -50 9 0 17 -14 17 -31 0 -17 16 -54 35 -84 25 -38 38 -112
47 -264 7 -116 19 -231 27 -256 13 -38 8 -45 -28 -45 -23 0 -71 -14 -104 -32
-84 -43 -92 -28 -109 199 -12 167 -21 204 -59 243 -55 54 -55 208 -1 267 17
20 32 46 32 58 0 20 29 40 65 43 9 1 26 -20 39 -48z m453 -65 c9 -19 16 -55
14 -79 -2 -24 8 -49 22 -55 39 -14 33 -114 -14 -233 l-41 -104 54 36 54 35
-13 -64 c-17 -86 -63 -181 -118 -241 -109 -122 -199 -244 -231 -316 -19 -43
-51 -94 -70 -113 -20 -20 -41 -62 -47 -93 -9 -41 -22 -55 -49 -51 -64 9 -64
28 -1 132 84 135 64 189 -29 79 -37 -45 -68 -90 -68 -101 0 -10 -17 -9 -40 3
-32 17 -40 15 -40 -9 0 -17 -11 -31 -25 -31 -18 -1 -17 -5 3 -18 34 -22 16
-54 -39 -68 -65 -17 9 187 82 226 48 26 106 134 91 172 -11 28 8 36 73 29 43
-4 46 36 5 52 -49 19 -189 -84 -177 -130 7 -27 -9 -52 -54 -84 l-65 -46 13 53
c25 99 -3 55 -58 -91 -30 -80 -85 -206 -122 -281 -63 -126 -67 -144 -55 -266
24 -230 -86 -394 -192 -288 -51 51 -50 73 1 105 82 50 125 148 114 261 -7 69
2 141 25 214 19 61 51 166 70 234 32 116 129 253 131 184 0 -15 19 15 42 67
23 52 49 90 57 85 8 -5 35 9 60 30 56 48 80 51 80 8 0 -17 7 -28 16 -25 9 4
88 36 175 72 156 64 161 68 194 163 39 109 45 193 15 212 -11 7 -21 37 -22 66
-2 42 -5 45 -12 14 -24 -100 -41 -60 -39 88 l3 162 74 0 c40 0 79 9 86 20 19
30 47 24 67 -15z m-2142 -120 c20 -26 15 -39 -24 -76 -32 -29 -45 -59 -38 -85
11 -40 -51 -147 -113 -198 -16 -14 -22 -25 -13 -25 23 -1 -26 -61 -50 -61 -9
0 -9 16 2 35 66 123 99 218 55 157 -54 -74 -75 7 -33 127 21 59 34 112 29 118
-5 5 -1 20 10 33 26 31 144 14 175 -25z m-363 -582 c-41 -41 -46 15 -7 78 25
40 25 40 32 -3 3 -24 -8 -57 -25 -75z m377 73 c17 -25 31 -68 31 -95 0 -28 15
-91 32 -141 19 -55 29 -141 26 -220 -9 -233 -7 -240 68 -240 69 0 114 -29 114
-74 0 -40 -90 -31 -130 14 -20 22 -51 36 -68 31 -58 -19 -162 62 -162 125 0
93 -58 234 -121 295 -82 79 -74 122 45 243 119 121 123 122 165 62z m-309
-282 c0 -9 -16 -13 -35 -10 -20 4 -35 -7 -35 -24 0 -16 -8 -36 -19 -43 -11 -8
-8 -27 8 -45 22 -27 21 -32 -4 -32 -60 0 -81 52 -54 134 14 42 23 79 20 84 -2
4 8 15 22 24 26 16 95 -48 97 -88z m1461 -285 c-22 -61 -58 -144 -79 -185 -21
-41 -44 -142 -52 -224 -15 -163 -22 -184 -51 -139 -44 69 -5 394 67 564 39 91
82 101 70 16 -12 -78 17 -58 35 24 17 81 34 111 44 79 5 -13 -11 -73 -34 -135z
m743 19 c-23 -76 -48 -120 -70 -124 -44 -9 -44 42 -1 107 18 28 27 56 21 62
-7 7 8 28 32 48 59 48 60 44 18 -93z m-2224 55 c0 -9 -22 -37 -50 -63 -27 -26
-50 -58 -50 -72 0 -44 -37 -51 -58 -11 -27 50 14 139 68 149 72 15 90 14 90
-3z m682 -150 c65 -46 80 -41 58 17 -11 29 -11 50 -1 50 29 0 126 -215 110
-242 -10 -15 -7 -19 8 -10 22 13 31 -15 28 -84 0 -15 4 -22 10 -16 13 13 64
-49 64 -78 0 -11 -15 -2 -32 20 -22 28 -34 32 -41 15 -25 -66 -83 -21 -142
110 -34 74 -89 181 -122 238 -33 56 -54 108 -47 115 7 7 23 -13 37 -45 13 -32
45 -73 70 -90z m1298 -87 c0 -44 -7 -49 -54 -40 -37 7 -63 -1 -80 -23 -13 -18
-25 -27 -25 -19 -2 28 123 156 141 145 10 -6 18 -34 18 -63z m-240 -8 c0 -22
14 -73 31 -113 20 -48 23 -77 10 -81 -14 -5 -13 -21 2 -51 21 -39 20 -40 -10
-16 -28 24 -33 23 -33 -4 0 -17 11 -38 25 -47 71 -45 105 -204 64 -301 -16
-38 -24 -77 -18 -87 6 -10 -27 -19 -75 -20 -47 -1 -108 -8 -136 -16 l-50 -15
60 -35 c33 -19 44 -29 23 -23 -20 6 -81 11 -135 11 -106 0 -117 12 -63 75 96
114 110 132 113 153 2 12 9 32 17 44 19 31 21 143 5 249 -12 74 -6 109 30 180
76 152 140 196 140 97z m-1640 -697 c22 -44 68 -112 102 -150 34 -39 53 -71
42 -71 -28 0 -149 122 -135 136 6 6 -1 30 -15 52 -32 50 -56 112 -44 112 5 0
27 -36 50 -79z m819 -80 c27 -49 27 -115 1 -131 -19 -12 -59 61 -73 135 -9 48
46 45 72 -4z m728 -75 c8 -8 26 -16 41 -18 82 -12 114 -32 92 -58 -16 -19 -16
-30 2 -41 16 -10 19 -7 8 11 -11 17 -8 21 7 12 13 -8 23 -23 23 -33 0 -10 20
-42 45 -70 49 -56 80 -163 53 -180 -9 -6 -8 -32 1 -58 10 -26 15 -51 10 -56
-5 -4 -11 -61 -14 -127 -4 -92 -14 -124 -45 -144 -34 -23 -34 -25 -4 -15 41
12 36 -175 -6 -217 -11 -11 -20 -39 -20 -63 0 -35 -9 -42 -48 -34 -52 10 -71
73 -62 205 3 39 -3 80 -12 92 -10 12 -21 84 -26 160 -4 76 -22 170 -38 208
-37 86 -24 169 40 255 26 36 38 65 26 65 -12 0 -40 -31 -63 -70 -45 -76 -130
-96 -175 -42 -19 23 -9 37 57 74 105 59 103 80 -6 65 -92 -12 -127 9 -105 64
11 30 192 43 219 15z m-542 -232 c-6 -46 -22 -102 -36 -124 -13 -22 -23 -74
-21 -115 4 -90 -40 -118 -69 -43 -10 28 -19 62 -19 75 0 14 -11 36 -23 48 -18
18 -18 36 0 75 12 29 23 70 23 91 0 28 18 44 60 52 32 6 55 20 49 29 -6 10 2
13 18 6 21 -8 26 -32 18 -94z m716 -986 c10 -28 14 -60 8 -70 -6 -10 -15 -106
-19 -213 -8 -181 -6 -189 16 -107 l25 88 24 -54 c28 -60 34 -272 9 -272 -9 0
-26 10 -39 23 -16 16 -26 4 -35 -48 -13 -70 -15 -71 -97 -60 -46 6 -85 17 -88
24 -3 7 -51 10 -107 6 -68 -5 -97 0 -89 14 8 12 -11 30 -41 42 -62 23 -53 42
25 50 32 4 64 -6 77 -24 19 -26 25 -23 46 21 13 30 15 52 4 52 -10 0 -13 14
-7 31 7 17 25 27 40 21 15 -6 27 2 27 19 0 16 8 29 18 29 10 0 14 -20 10 -45
-8 -42 -8 -42 10 -5 27 56 26 95 -1 78 -13 -8 -18 -5 -11 5 6 11 25 103 41
205 39 236 105 319 154 190z"/>
<path d="M1456 5659 c-86 -82 -57 -106 134 -105 187 2 191 6 103 95 -89 89
-152 91 -237 10z m180 -3 c37 -37 29 -56 -24 -56 -82 0 -117 20 -90 52 28 34
82 36 114 4z"/>
<path d="M1940 3490 c-13 -16 -34 -24 -45 -17 -12 7 -15 4 -8 -8 7 -11 -8 -26
-32 -33 -36 -9 -39 -16 -17 -30 40 -26 67 -11 106 58 37 65 35 77 -4 30z"/>
<path d="M1149 3439 c-18 -29 -11 -33 78 -50 74 -14 76 -13 54 28 -24 45 -109
59 -132 22z"/>
<path d="M1110 3273 c-32 -24 -25 -29 68 -47 103 -20 144 -8 97 29 -46 36
-128 45 -165 18z"/>
<path d="M1990 125 c4 -30 8 -59 9 -65 1 -5 11 5 22 23 20 35 6 97 -22 97 -9
0 -13 -25 -9 -55z"/>
<path d="M1360 2602 c0 -42 52 -71 71 -40 14 22 -25 78 -53 78 -10 0 -18 -17
-18 -38z"/>
<path d="M500 2610 c0 -7 29 -42 64 -77 l64 -63 -39 68 c-36 62 -89 105 -89
72z"/>
</g>
</svg>
