<?xml version="1.0" standalone="no"?>
<!DOCTYPE svg PUBLIC "-//W3C//DTD SVG 20010904//EN"
 "http://www.w3.org/TR/2001/REC-SVG-20010904/DTD/svg10.dtd">
<svg version="1.0" xmlns="http://www.w3.org/2000/svg"
 width="191.000000pt" height="264.000000pt" viewBox="0 0 191.000000 264.000000"
 preserveAspectRatio="xMidYMid meet">
<metadata>
Created by potrace 1.10, written by Peter Selinger 2001-2011
</metadata>
<g transform="translate(0.000000,264.000000) scale(0.050000,-0.050000)"
fill="#000000" stroke="none">
<path d="M3520 2639 l0 -2642 149 6 150 5 -2 256 c-1 179 -8 256 -24 256 -16
1 -16 5 1 16 29 18 31 1144 3 1144 -9 0 -17 -9 -17 -19 0 -11 -13 -15 -30 -8
-49 18 -34 47 25 49 54 2 54 2 -10 20 -82 24 -85 44 -5 31 33 -5 60 -1 60 9 0
10 -13 18 -30 18 -16 0 -30 13 -30 28 0 16 -9 32 -19 35 -40 14 -31 2283 9
2289 51 7 75 38 65 81 -8 34 -10 34 -27 -6 -14 -33 -23 -37 -41 -18 -14 16
-16 36 -5 53 15 23 17 23 18 -2 0 -16 14 -4 30 27 38 73 38 80 -5 65 -32 -11
-32 -10 -2 14 45 35 49 390 6 423 -21 16 -23 29 -7 51 18 25 20 25 11 -5 -7
-19 -3 -35 7 -35 11 0 19 97 18 229 0 191 -5 227 -29 218 -16 -6 -29 -2 -29 9
0 11 10 24 22 28 12 4 -42 10 -120 12 l-142 5 0 -2642z m192 2391 c1 -123 -5
-150 -31 -150 -25 0 -31 27 -31 150 0 122 6 150 31 150 26 0 31 -28 31 -150z
m-1 -295 c4 -23 -8 -35 -33 -35 -25 0 -38 14 -38 41 0 52 64 46 71 -6z m-16
-69 c-28 -7 -30 -14 -10 -34 38 -38 34 -262 -5 -262 -24 0 -31 32 -34 155 -4
149 -3 155 40 153 33 -2 36 -5 9 -12z m21 -361 c-10 -52 -76 -58 -76 -6 0 28
13 41 41 41 29 0 40 -11 35 -35z m24 -2725 c0 -27 -14 -41 -45 -43 l-45 -2 44
-9 c41 -8 67 -248 26 -245 -87 5 -116 339 -29 339 36 0 49 -11 49 -40z m0
-352 c0 -17 -21 -28 -50 -28 -46 0 -67 36 -39 64 20 21 89 -8 89 -36z m-5 -88
c-2 -25 -19 -41 -44 -42 -35 -2 -34 -4 9 -18 l50 -16 -55 -2 c-54 -2 -81 66
-42 105 31 30 84 12 82 -27z m-4 -155 c-1 -44 -11 -56 -54 -61 -48 -6 -52 -1
-41 40 10 37 14 39 20 11 9 -47 35 -45 35 3 0 27 -12 36 -45 33 -25 -3 -46 2
-46 12 0 9 30 17 66 17 59 0 66 -6 65 -55z m9 -177 c0 -57 -8 -68 -45 -70 -43
-2 -43 -3 5 -18 l50 -16 -55 -2 c-73 -3 -80 89 -10 118 l45 18 -45 13 c-61 18
-57 46 5 34 42 -8 50 -21 50 -77z m-6 -166 c2 -21 -8 -43 -22 -49 -39 -14 -79
19 -66 55 18 45 85 41 88 -6z m2 -98 c-8 -42 -96 -59 -96 -19 0 38 10 46 60
50 30 2 41 -7 36 -31z m-2 -144 c5 -71 -37 -90 -92 -41 -54 46 -53 61 3 63 25
0 34 6 20 11 -43 17 -28 42 20 33 33 -6 46 -24 49 -66z m-22 -135 c26 -18 68
-94 68 -123 0 -12 -22 -36 -50 -54 -100 -66 -199 65 -117 155 35 39 63 45 99
22z"/>
<path d="M1560 5079 c0 -12 -8 -16 -18 -10 -55 33 -117 -213 -84 -329 17 -56
18 -54 62 116 30 117 87 109 164 -22 l57 -97 -41 -51 c-22 -28 -40 -77 -40
-108 0 -53 -5 -56 -60 -45 -33 7 -60 4 -59 -5 1 -34 75 -108 107 -108 40 0 41
6 -16 -111 -54 -111 -108 -171 -232 -259 -103 -73 -140 -152 -140 -302 0 -199
-42 -369 -113 -463 -61 -80 -106 -193 -107 -265 0 -16 -24 -79 -52 -140 -29
-60 -65 -159 -81 -220 -16 -60 -42 -130 -58 -154 -45 -69 -36 -92 69 -192 54
-52 103 -105 107 -119 29 -80 40 44 30 345 -4 114 83 281 205 390 45 41 100
132 100 167 0 46 -69 4 -89 -53 -11 -35 -41 -83 -66 -108 l-45 -45 1 50 c0 27
13 66 30 88 16 21 29 55 29 75 0 20 9 36 20 36 11 0 20 10 20 21 0 12 14 36
31 53 17 16 25 47 19 66 -15 49 10 152 30 120 8 -13 35 -34 61 -47 25 -13 50
-36 55 -51 7 -22 -2 -20 -38 5 -54 38 -97 44 -62 9 13 -13 24 -40 24 -60 0
-20 10 -36 21 -36 12 0 16 9 9 20 -7 11 -4 20 7 20 10 0 24 -13 30 -30 7 -16
2 -30 -10 -30 -13 0 -8 -21 11 -50 43 -66 25 -63 -43 6 -30 31 -53 52 -50 47
2 -5 -5 -21 -17 -35 -17 -21 -12 -25 20 -18 50 9 49 14 15 -94 -42 -133 -73
-333 -74 -476 -1 -71 -2 -251 -3 -400 -3 -307 18 -898 35 -995 19 -112 -25
-209 -134 -296 -272 -216 -287 -249 -144 -314 89 -40 122 -27 237 95 44 46
105 90 135 97 55 14 55 15 55 181 0 97 13 202 30 252 38 107 38 127 0 113 -43
-17 -78 56 -41 86 31 26 70 -31 120 -177 l25 -72 45 87 c24 49 71 124 103 168
37 52 58 106 58 149 0 78 53 193 80 176 33 -20 140 -264 140 -317 0 -29 24
-113 52 -188 81 -208 84 -493 7 -667 -38 -86 -50 -135 -37 -151 24 -28 184
-22 264 10 31 13 64 23 74 23 37 0 29 114 -15 216 -25 59 -40 115 -34 126 7
10 -3 58 -21 107 -38 98 -34 243 11 396 32 111 7 244 -64 342 -36 50 -44 102
-59 380 -9 178 -27 368 -38 423 -12 55 -20 163 -18 240 1 77 -8 190 -22 250
-46 199 -17 400 57 400 26 0 63 -146 63 -249 0 -71 18 -126 72 -223 94 -168
133 -312 99 -362 -36 -52 -111 -312 -111 -384 0 -75 31 -82 49 -10 8 35 22 48
42 40 16 -7 40 -17 54 -22 14 -6 69 29 122 77 l98 87 -25 148 c-14 81 -38 197
-53 257 -15 60 -27 186 -27 280 -1 125 -11 194 -39 255 -41 90 -58 352 -32
496 20 114 -23 228 -108 285 -38 25 -112 86 -164 134 -53 48 -123 104 -156
124 -64 37 -80 100 -37 143 13 13 25 80 27 149 2 100 15 147 66 237 68 120 77
187 35 244 -34 43 -117 -29 -204 -178 -65 -111 -72 -110 -154 17 -38 58 -85
119 -106 136 -73 61 -148 100 -148 78z m304 -497 c-8 -21 -1 -25 24 -16 23 9
29 6 20 -10 -10 -15 -4 -19 16 -11 16 6 42 3 58 -7 20 -12 21 -17 3 -18 -14 0
-25 -13 -25 -30 0 -16 -12 -30 -28 -30 -15 0 -39 -15 -55 -34 -15 -18 -18 -29
-7 -22 26 15 110 -17 110 -41 0 -11 -34 -28 -75 -39 l-75 -20 74 -2 c40 -1 80
-12 88 -25 10 -16 5 -18 -14 -6 -23 14 -24 11 -2 -15 21 -26 20 -33 -5 -43
-17 -6 -31 -4 -31 6 0 9 -19 12 -43 6 -26 -7 -52 1 -65 19 -12 16 -42 40 -67
54 -36 19 -41 31 -26 60 11 20 13 43 6 50 -8 8 2 8 21 1 19 -7 34 -8 34 -1 0
7 -24 22 -53 33 -37 14 -47 27 -33 41 15 15 33 14 61 -4 24 -15 54 -18 77 -8
21 9 45 15 53 13 30 -6 14 28 -25 52 -32 20 -48 20 -79 1 -22 -14 -46 -17 -55
-8 -9 10 -5 21 8 26 13 5 20 20 14 33 -6 16 11 24 49 24 42 -1 55 -9 47 -29z
m-68 -371 c6 -6 -5 -11 -24 -11 -19 0 -30 -8 -24 -17 6 -10 38 -15 72 -11 59
7 81 -17 38 -43 -12 -8 -30 -2 -39 12 -19 31 -79 -8 -79 -51 0 -14 -14 -37
-31 -51 -18 -14 -28 -43 -22 -63 5 -20 2 -40 -7 -46 -9 -6 -12 -27 -6 -49 8
-31 1 -37 -37 -29 l-47 9 46 -20 c50 -22 43 -67 -7 -48 -16 6 -29 2 -29 -9 0
-12 18 -24 41 -28 22 -3 39 -15 38 -26 -2 -11 -12 -18 -22 -15 -10 3 -16 -10
-13 -29 5 -29 -14 -38 -104 -49 -60 -7 -126 -19 -145 -27 -19 -8 -36 -7 -37 3
-1 9 -5 42 -10 72 -10 57 9 70 45 34 15 -15 25 -13 34 10 6 17 3 31 -8 31 -10
0 -19 13 -19 28 0 16 -11 34 -25 40 -14 6 -2 10 25 9 83 -3 88 1 50 43 -47 52
-33 63 79 65 51 1 98 10 104 20 19 30 -37 54 -76 34 -46 -25 -50 -24 -50 10 0
16 7 25 16 19 10 -6 17 -2 17 9 0 10 14 24 31 31 17 6 26 4 20 -6 -17 -29 54
-46 73 -18 48 71 58 104 48 147 -12 44 46 58 84 20z m211 -121 c33 -33 65 -39
78 -15 5 8 6 4 2 -10 -4 -18 11 -22 49 -15 29 6 43 5 29 -2 -14 -6 -20 -20
-14 -30 6 -10 -6 -18 -26 -18 -21 0 -45 -7 -53 -15 -26 -26 -192 -18 -192 8 0
38 43 55 62 25 10 -16 18 -22 18 -15 0 8 5 30 12 50 10 31 8 32 -10 7 -18 -25
-21 -22 -22 15 0 52 24 58 67 15z m-107 -10 c0 -11 -12 -20 -28 -20 -15 0 -38
-13 -52 -30 -21 -25 -18 -30 13 -30 30 -1 32 -4 8 -19 -56 -35 -4 -52 219 -68
39 -3 76 4 84 16 55 82 89 -146 35 -235 -21 -35 -39 -53 -39 -39 0 14 -9 25
-19 25 -11 0 -15 -13 -8 -30 7 -19 -1 -30 -21 -30 -18 0 -32 -9 -32 -20 0 -26
-79 -25 -196 2 -150 35 -160 40 -114 59 34 14 35 16 5 18 -21 0 -35 17 -35 40
0 21 16 42 35 46 29 7 26 13 -15 31 -27 12 -43 22 -35 23 7 0 6 22 -4 48 -18
47 36 65 74 24 8 -10 4 -11 -9 -4 -36 21 -49 -19 -15 -48 26 -21 37 -20 63 7
40 40 5 95 -54 84 -70 -14 -46 107 28 140 76 33 112 36 112 10z m533 -277
c-43 -47 -42 -136 2 -161 46 -27 14 -28 -36 -1 -50 26 -52 134 -4 171 52 39
76 34 38 -9z m-147 -136 c-9 -23 -5 -29 12 -18 15 9 23 5 19 -12 -3 -15 9 -58
26 -97 67 -152 76 -199 44 -230 -34 -34 -67 -39 -67 -10 0 11 -11 20 -25 20
-34 0 -80 76 -63 104 9 13 5 17 -9 8 -16 -10 -23 10 -23 65 0 94 17 147 42
132 10 -6 18 7 18 30 0 22 9 41 19 41 11 0 14 -15 7 -33z m-579 -73 c30 29 10
-11 -24 -51 -49 -56 -54 -55 -59 18 -4 54 -1 59 33 41 21 -11 43 -15 50 -8z
m-132 -65 c5 -69 58 -167 91 -168 9 -1 11 7 5 18 -20 31 74 203 105 192 15 -6
36 -11 46 -11 10 0 18 -13 18 -29 0 -18 12 -25 30 -18 16 6 24 20 17 31 -8 13
5 15 35 5 27 -9 64 -15 83 -14 19 1 39 -6 46 -16 6 -11 3 -19 -8 -19 -11 0
-35 -6 -55 -13 -23 -10 -30 -6 -20 10 32 52 -27 18 -83 -47 -68 -80 -96 -87
-111 -28 -16 58 -58 38 -66 -30 -5 -47 1 -54 33 -46 32 9 35 4 18 -28 -24 -44
-45 -47 -100 -13 -33 21 -43 20 -58 -4 -21 -34 -7 -67 21 -50 10 6 13 22 5 33
-8 14 -4 16 12 7 18 -11 18 -22 3 -37 -28 -28 -29 -74 -2 -74 11 0 20 19 20
42 0 35 11 40 69 35 38 -3 76 2 85 12 9 9 6 11 -7 4 -33 -18 -21 41 13 72 24
21 24 20 3 -9 -22 -28 -19 -37 18 -57 28 -15 39 -15 31 -2 -8 12 5 33 27 47
23 14 41 34 41 43 0 10 -14 7 -30 -7 -41 -34 -66 -7 -29 29 41 40 151 66 129
31 -12 -20 -5 -23 27 -15 43 11 63 -30 25 -54 -10 -6 -14 -29 -8 -51 7 -26 -2
-44 -27 -54 -33 -13 -31 -16 13 -27 l50 -13 -60 -26 c-33 -15 -71 -25 -85 -22
-14 2 -20 -9 -13 -26 10 -27 18 -27 60 1 27 18 54 27 60 21 7 -6 -17 -26 -52
-44 -49 -25 -58 -38 -41 -59 67 -81 -86 -225 -213 -202 -43 8 -67 25 -68 47
-1 20 -5 24 -11 9 -8 -18 -20 -19 -51 -3 -23 13 -36 14 -29 2 13 -21 -62 -42
-102 -29 -12 4 -17 22 -10 40 7 20 4 27 -11 18 -12 -8 -32 4 -44 26 -14 28
-15 41 -1 41 12 0 21 -10 21 -21 0 -12 10 -15 21 -8 12 7 35 -4 52 -24 29 -36
30 -36 16 3 -7 22 -17 67 -21 100 -5 33 -12 71 -18 85 -7 20 0 21 29 5 21 -11
57 -20 80 -20 45 0 47 -2 29 -48 -7 -18 -35 -32 -64 -32 -35 0 -45 -7 -32 -20
24 -24 161 -31 223 -12 55 18 60 -18 10 -74 -34 -39 -34 -39 10 -12 25 15 45
35 45 44 0 9 9 11 20 4 12 -7 15 -21 9 -31 -19 -32 24 -21 52 12 45 54 41 157
-4 116 -21 -18 -43 -28 -50 -20 -8 7 4 29 25 48 43 40 58 85 28 85 -11 0 -20
-9 -20 -20 0 -11 -14 -20 -31 -20 -17 0 -26 -9 -19 -20 7 -11 1 -20 -12 -20
-14 0 -19 -6 -12 -13 18 -17 -47 -66 -89 -66 -32 -1 -63 66 -41 88 6 6 32 11
59 11 26 0 77 22 113 50 45 34 71 43 86 28 15 -15 24 -3 30 38 10 73 -15 68
-143 -30 -117 -88 -245 -90 -316 -5 -41 51 -42 57 -11 82 19 15 28 17 21 5 -7
-12 0 -21 17 -21 20 0 23 6 9 20 -30 30 -26 79 5 67 19 -7 24 6 18 48 -5 32
-16 58 -26 58 -48 0 -79 117 -33 126 25 5 50 10 55 11 6 2 12 -29 15 -68z
m-141 9 c-7 -24 -1 -32 18 -24 20 7 25 0 16 -22 -7 -17 -3 -32 8 -32 26 0 42
-91 21 -124 -12 -20 -16 -20 -17 -1 0 14 2 29 5 33 3 4 -11 25 -30 47 -19 21
-29 44 -22 52 8 7 2 13 -12 13 -14 0 -21 12 -15 28 6 15 2 36 -8 46 -12 12 -8
19 13 19 21 0 29 -12 23 -35z m1016 -415 c0 -84 -5 -95 -37 -87 -28 7 -30 13
-10 26 21 13 22 21 2 41 -32 32 -2 117 41 117 2 0 4 -44 4 -97z m-863 -338
c28 -55 17 -133 -19 -137 -10 -1 -33 -8 -52 -16 -98 -44 -188 66 -129 156 49
75 161 74 200 -3z m216 -95 c-8 -96 -51 -141 -85 -88 -17 28 -28 1 -20 -48 2
-10 -6 -11 -18 -4 -11 7 -21 1 -21 -14 -1 -14 -8 -8 -16 14 -28 74 -12 170 34
202 36 25 43 25 43 2 0 -15 14 -27 31 -27 17 0 26 11 21 24 -5 14 -4 30 2 37
26 25 36 -10 29 -98z m97 47 c0 -10 22 -12 48 -6 26 7 54 3 61 -9 7 -12 4 -22
-8 -22 -11 0 -19 -10 -16 -23 5 -25 -138 -90 -157 -71 -26 25 15 172 44 161
15 -6 28 -19 28 -30z m90 -152 c-8 -19 -28 -73 -44 -120 -34 -98 -57 -118 -96
-85 -16 13 -39 17 -51 9 -13 -8 -30 -4 -37 8 -7 12 -33 16 -58 10 -60 -16 -67
-169 -7 -158 59 12 99 -21 65 -53 -21 -21 -29 -21 -36 -1 -14 37 -62 30 -85
-13 -16 -29 -10 -51 24 -95 28 -37 32 -47 9 -30 -18 16 -35 20 -36 10 -16
-122 -15 -130 11 -108 20 17 29 16 35 -2 9 -27 56 -6 56 25 0 11 -10 14 -22 7
-15 -10 -15 -1 1 29 12 23 15 42 7 42 -9 0 -2 9 14 20 26 16 26 19 1 20 -24 0
-24 4 -2 25 21 20 28 20 35 0 5 -14 17 -21 25 -15 42 26 45 -249 3 -302 -23
-29 -36 -63 -29 -75 8 -13 6 -17 -2 -9 -9 8 -47 -9 -85 -38 -50 -39 -61 -57
-42 -69 30 -20 -18 -63 -49 -44 -28 17 -13 260 16 260 19 0 21 -13 7 -48 -23
-62 -23 -70 4 -54 14 9 13 -4 -3 -33 -25 -46 -25 -47 23 -15 26 18 47 51 47
74 -1 22 5 39 13 37 7 -2 13 5 12 16 -2 11 -14 18 -27 14 -13 -3 -30 4 -37 16
-7 12 -6 20 4 18 36 -6 66 3 66 20 0 25 -49 16 -86 -15 -43 -35 -52 -8 -35
105 10 59 7 120 -6 155 -16 43 -16 68 1 95 23 37 16 62 -19 62 -9 0 -12 -9 -5
-20 7 -11 3 -20 -9 -20 -13 0 -17 -20 -9 -50 8 -31 4 -50 -10 -50 -41 0 -18
146 32 207 25 31 46 72 46 91 0 33 190 139 211 118 4 -5 16 -44 27 -87 17 -76
18 -76 20 -17 1 35 21 86 43 115 47 60 91 71 69 18z m-245 -267 c-5 -21 -18
-38 -27 -38 -21 0 -23 43 -5 90 17 45 46 -1 32 -52z m155 -28 c0 -27 -9 -50
-20 -50 -11 0 -20 -10 -20 -21 0 -12 9 -16 20 -9 11 7 20 -2 20 -19 0 -17 9
-31 19 -31 11 0 15 14 8 30 -18 48 10 107 34 69 15 -23 18 -23 19 -2 0 23 6
23 30 3 17 -14 30 -35 30 -47 0 -13 -9 -9 -20 7 -17 26 -19 25 -20 -5 0 -19
14 -35 30 -35 17 0 30 -9 30 -20 0 -11 9 -20 19 -20 11 0 15 16 9 35 -9 30 -8
30 13 -2 19 -30 18 -41 -4 -55 -15 -10 -30 -9 -34 3 -11 31 -63 22 -63 -12 0
-17 -8 -26 -19 -20 -10 6 -23 4 -29 -6 -7 -10 7 -23 30 -29 23 -6 36 -21 29
-32 -7 -11 -25 -15 -42 -9 -16 6 -29 1 -29 -11 0 -12 18 -22 41 -22 29 0 43
-17 52 -61 8 -37 22 -57 37 -52 17 7 24 -10 21 -54 -2 -34 -13 -61 -25 -59
-12 2 -18 -27 -15 -70 l6 -74 -24 71 c-12 39 -43 96 -68 128 -53 66 -55 83
-15 98 17 7 30 23 30 36 0 20 -5 20 -24 1 -46 -46 -59 -23 -47 91 8 80 6 102
-7 72 -53 -119 -80 -30 -49 158 14 84 47 102 47 25z m627 20 c15 -40 -2 -83
-34 -83 -16 0 -22 20 -17 56 9 62 33 74 51 27z m-964 -420 c6 -83 3 -100 -19
-95 -13 3 -23 -2 -22 -10 7 -41 -6 -61 -43 -71 -31 -8 -40 -3 -34 23 4 18 18
31 31 28 13 -3 24 8 24 24 0 16 14 37 32 47 30 16 29 19 -1 31 -18 7 -28 22
-21 33 19 30 50 24 53 -10z m-153 -243 c-44 -43 -57 -24 -27 41 20 45 27 49
42 23 12 -21 7 -42 -15 -64z m806 -238 c0 -38 11 -84 25 -100 20 -25 19 -28
-8 -17 -25 9 -33 1 -33 -35 1 -39 4 -42 22 -17 19 27 20 27 13 0 -17 -63 -63
-30 -68 48 -3 43 -15 88 -26 99 -44 44 -22 76 62 91 7 1 13 -30 13 -69z"/>
<path d="M1932 3852 c19 -49 69 -54 122 -12 28 22 42 40 30 40 -12 0 -27 -9
-34 -20 -7 -11 -21 -20 -32 -20 -11 0 -15 9 -8 20 7 11 -10 20 -38 20 -36 0
-47 -8 -40 -28z"/>
<path d="M1421 2791 c-39 -47 -18 -120 37 -128 51 -7 85 27 68 70 -15 39 -66
33 -66 -8 1 -27 4 -29 18 -8 12 19 21 21 31 5 16 -26 -37 -52 -68 -33 -34 22
-24 68 20 92 51 27 98 -5 101 -68 2 -36 4 -37 12 -7 21 80 -101 147 -153 85z"/>
<path d="M480 2761 c0 -23 -13 -41 -30 -41 -16 0 -30 -13 -30 -30 0 -16 14
-30 30 -30 17 0 30 14 30 30 0 17 9 30 20 30 11 0 20 13 20 29 0 16 -9 34 -20
41 -11 7 -20 -6 -20 -29z"/>
<path d="M554 908 c-27 -27 -15 -108 16 -108 32 0 36 27 13 86 -8 20 -21 30
-29 22z"/>
</g>
</svg>
