<?xml version="1.0" standalone="no"?>
<!DOCTYPE svg PUBLIC "-//W3C//DTD SVG 20010904//EN"
 "http://www.w3.org/TR/2001/REC-SVG-20010904/DTD/svg10.dtd">
<svg version="1.0" xmlns="http://www.w3.org/2000/svg"
 width="300.000000pt" height="370.000000pt" viewBox="0 0 300.000000 370.000000"
 preserveAspectRatio="xMidYMid meet">
<metadata>
Created by potrace 1.10, written by Peter Selinger 2001-2011
</metadata>
<g transform="translate(0.000000,370.000000) scale(0.050000,-0.050000)"
fill="#000000" stroke="none">
<path d="M295 7385 c168 -3 442 -3 610 0 168 3 31 6 -305 6 -335 0 -473 -3
-305 -6z"/>
<path d="M2545 7385 c635 -3 1675 -3 2310 0 635 3 116 5 -1155 5 -1270 0
-1790 -2 -1155 -5z"/>
<path d="M1311 7190 c11 -75 8 -90 -19 -90 -43 0 -41 -31 6 -78 28 -28 32 -44
16 -60 -15 -15 -16 -28 -1 -43 29 -29 87 -1 87 43 0 42 30 51 52 15 8 -13 -5
-39 -31 -60 l-45 -37 62 13 c34 6 63 4 64 -5 1 -10 4 -58 6 -108 2 -49 11
-109 19 -132 9 -29 0 -59 -31 -99 -25 -31 -47 -74 -51 -96 -7 -50 -25 -70 -25
-30 0 18 -34 42 -80 57 -65 21 -80 36 -80 77 0 27 -27 98 -60 156 -69 122 -70
127 -32 127 35 0 57 54 29 72 -14 9 -15 17 -1 26 69 42 -53 198 -135 172 -79
-25 -49 -75 40 -67 83 8 106 -64 40 -130 -31 -31 -26 -117 10 -169 17 -24 24
-44 14 -44 -21 0 -205 181 -205 202 0 8 -26 44 -57 78 l-57 63 -57 -48 c-37
-32 -51 -60 -43 -82 17 -45 88 -42 118 6 23 37 28 34 78 -42 63 -95 161 -189
216 -206 51 -17 67 -64 39 -117 -15 -28 -27 -35 -32 -19 -5 14 -20 25 -35 25
-45 0 -9 -78 52 -115 120 -70 43 -78 -103 -10 -94 45 -305 44 -332 -1 -8 -12
12 -16 50 -10 60 9 61 7 30 -27 -18 -20 -34 -57 -35 -82 -2 -37 -13 -44 -62
-40 -54 5 -57 3 -25 -22 49 -38 44 -56 -13 -42 -63 16 -85 -23 -30 -52 30 -16
48 -17 64 -1 42 42 101 -37 61 -81 -43 -48 -18 -74 29 -30 55 49 99 43 54 -7
-38 -42 -15 -57 25 -17 17 17 44 1 109 -62 47 -47 111 -98 141 -113 64 -34 73
-88 15 -88 -22 0 -40 -13 -40 -29 0 -23 20 -28 84 -21 97 9 127 -3 95 -41 -17
-21 -15 -38 9 -73 46 -65 42 -122 -7 -106 -92 29 -252 45 -274 27 -12 -10 -30
-17 -40 -15 -44 8 -58 -6 -60 -62 -3 -65 58 -88 80 -31 20 52 140 103 123 52
-9 -29 -4 -41 19 -41 17 0 31 11 32 25 0 14 9 9 21 -10 25 -43 78 -46 78 -5 0
38 34 38 73 0 19 -19 48 -26 78 -18 39 10 49 4 49 -25 1 -55 55 -202 111 -297
28 -48 44 -99 37 -117 -7 -18 -3 -33 8 -33 11 0 24 9 28 21 13 39 138 -114
173 -213 35 -97 90 -131 128 -79 8 12 15 7 15 -13 0 -24 10 -31 32 -22 28 10
29 6 10 -31 -19 -35 -18 -43 7 -43 47 0 37 -39 -14 -59 -43 -17 -43 -18 20
-41 84 -31 84 -67 0 -55 -35 5 -79 0 -96 -11 -22 -13 -45 -12 -71 3 -37 21
-37 22 1 22 30 1 34 6 15 25 -40 40 -27 65 14 27 37 -33 40 -32 60 6 32 59 29
63 -48 63 -48 0 -70 9 -70 29 0 16 -34 97 -76 181 l-76 152 -32 -66 c-17 -36
-40 -95 -52 -130 -71 -224 -144 -270 -313 -196 -62 28 -121 46 -130 41 -9 -6
-28 3 -41 19 -29 36 -110 42 -88 7 19 -31 -140 -6 -220 34 -88 44 -212 -20
-153 -78 18 -17 33 -12 62 24 32 39 47 44 93 28 l56 -18 -55 -14 c-96 -24 -70
-77 30 -62 216 34 277 32 410 -9 220 -68 218 -81 -15 -76 -115 2 -246 -2 -290
-10 -44 -7 -64 -9 -45 -3 19 5 35 19 35 30 0 19 -68 14 -225 -16 -68 -13 -53
-47 21 -47 l54 -1 -50 -39 c-57 -45 -199 -53 -259 -16 -22 14 -46 18 -55 9 -8
-8 -2 -24 15 -34 20 -12 21 -18 4 -19 -14 0 -25 -9 -25 -20 0 -20 86 -15 145
10 26 11 33 7 24 -15 -6 -17 3 -35 22 -42 39 -16 74 2 64 32 -11 34 165 119
255 124 44 2 112 11 150 19 l70 15 -50 -40 c-27 -22 -44 -46 -37 -53 7 -6 26
2 43 19 34 34 224 44 243 13 6 -10 -25 -49 -69 -87 -44 -38 -74 -75 -66 -82 7
-8 44 16 81 52 66 63 69 64 96 26 37 -50 37 -91 0 -91 -44 0 -57 -37 -24 -70
26 -25 31 -25 42 5 11 29 16 30 31 5 11 -18 11 -37 -1 -49 -10 -10 -19 -40
-19 -65 0 -25 -9 -46 -20 -46 -11 0 -20 20 -20 44 0 34 -5 39 -24 20 -18 -18
-12 -36 30 -80 62 -65 73 -108 14 -54 -25 22 -40 27 -40 12 0 -13 -9 -19 -20
-12 -12 7 -21 -15 -23 -54 -6 -127 6 -186 47 -244 47 -65 31 -162 -26 -162
-38 0 -158 -111 -158 -146 0 -15 -8 -21 -19 -15 -10 6 -25 1 -33 -12 -8 -14
-6 -18 7 -10 35 22 41 -35 7 -61 -41 -31 -69 -33 -50 -3 9 14 5 18 -9 9 -13
-8 -23 -6 -23 5 0 11 -18 15 -40 9 -47 -12 -232 -188 -224 -212 3 -10 -5 -11
-17 -3 -25 15 -226 -183 -211 -208 5 -8 -8 -16 -29 -18 -72 -5 -137 -73 -168
-176 -20 -68 -49 -115 -90 -145 -38 -28 -61 -63 -61 -92 0 -26 -14 -53 -32
-60 -23 -9 -28 -27 -18 -73 11 -47 5 -68 -23 -89 -20 -15 -30 -33 -22 -42 24
-24 95 54 95 105 0 26 8 47 18 47 22 0 125 -171 117 -194 -3 -9 4 -19 15 -22
32 -9 36 96 4 133 -30 35 -74 151 -74 196 0 16 23 37 51 47 27 11 55 35 61 55
27 84 56 123 96 129 30 4 40 18 36 49 -9 66 94 166 182 177 42 6 74 1 74 -10
0 -11 18 -2 40 20 22 22 54 40 71 40 46 0 149 58 238 133 43 37 89 67 101 67
13 0 119 48 236 107 117 58 220 99 229 90 28 -28 114 32 148 105 47 99 83 125
111 81 18 -29 6 -52 -68 -134 -99 -109 -99 -108 -47 -389 11 -62 13 -113 3
-116 -10 -3 -13 -42 -7 -87 8 -57 2 -87 -17 -101 -19 -13 -21 -22 -6 -28 71
-30 93 -61 70 -103 -16 -31 -16 -46 0 -56 16 -10 15 -19 -4 -30 -36 -22 -58
-5 -58 44 0 29 -9 38 -30 30 -16 -7 -30 -4 -30 6 0 10 10 21 23 25 36 12 -1
96 -43 96 -50 0 -66 31 -41 78 16 29 13 41 -12 50 -20 8 -28 27 -21 53 7 28
-4 50 -38 72 -37 24 -48 49 -48 109 0 49 -9 78 -25 78 -17 0 -24 -30 -21 -95
12 -285 32 -338 147 -386 46 -18 59 -37 59 -80 0 -32 10 -79 22 -106 20 -43
15 -60 -35 -125 -31 -42 -46 -69 -32 -61 18 11 25 -6 25 -67 0 -45 13 -107 29
-137 18 -36 22 -66 10 -84 -25 -39 -24 -84 1 -69 11 7 20 -10 20 -39 0 -28
-11 -51 -26 -51 -38 0 -72 -41 -60 -72 6 -16 23 -28 38 -28 15 0 28 -13 28
-28 0 -16 33 -90 73 -165 40 -76 75 -172 79 -214 5 -71 28 -132 28 -75 0 13
10 18 21 11 14 -8 10 -26 -12 -51 -19 -20 -41 -33 -50 -27 -17 10 -50 -68 -42
-97 2 -10 -6 -11 -18 -3 -23 14 -19 62 11 139 15 38 13 38 -30 -3 -42 -40 -43
-50 -22 -140 42 -177 42 -183 3 -173 -52 14 -181 -47 -181 -85 0 -24 10 -29
35 -19 28 11 241 48 287 50 6 0 38 22 69 49 32 27 61 45 66 40 5 -5 40 14 76
42 37 28 67 43 67 33 0 -9 -22 -29 -50 -44 -51 -27 -67 -60 -30 -60 30 0 200
183 200 215 0 52 118 152 149 126 20 -17 30 -16 38 3 8 20 15 19 31 -4 15 -20
21 -22 22 -5 0 30 72 34 90 5 7 -11 4 -20 -6 -20 -35 0 -164 -133 -164 -169 0
-28 -6 -31 -28 -13 -41 34 -52 -12 -30 -128 21 -112 17 -122 -40 -87 -49 31
-51 44 -17 81 14 15 27 38 30 51 8 39 -31 29 -54 -13 -23 -44 -128 -102 -183
-102 -19 0 -48 -13 -64 -29 -20 -20 -88 -30 -236 -33 -115 -3 -224 -13 -243
-22 -26 -13 -35 -9 -35 13 0 34 -91 43 -137 13 -40 -25 8 -49 69 -33 41 10 49
5 44 -23 -4 -21 5 -34 20 -31 94 20 264 36 264 26 0 -28 -186 -64 -293 -56
-65 5 -148 1 -186 -7 -78 -18 -105 -6 -60 24 45 32 -61 0 -115 -34 -29 -18
-45 -20 -50 -5 -9 25 -185 34 -208 11 -39 -38 41 -58 230 -57 111 0 206 -7
212 -17 20 -32 505 19 595 63 30 15 51 38 46 50 -5 13 6 29 23 36 46 17 56 -2
19 -39 -17 -17 -27 -44 -21 -59 7 -16 -4 -30 -26 -35 -21 -4 -27 -12 -15 -20
12 -8 45 -2 73 13 62 32 121 8 81 -32 -40 -40 -29 -58 23 -34 34 15 76 15 153
-1 114 -25 146 -18 81 17 -48 26 -56 61 -13 61 15 0 44 16 63 35 20 19 63 35
96 35 45 0 63 11 71 44 10 39 15 40 50 15 21 -16 28 -29 15 -29 -13 0 -24 -13
-24 -28 0 -15 -22 -33 -50 -40 -27 -7 -50 -25 -50 -40 0 -15 -15 -33 -33 -41
-24 -9 -27 -19 -12 -34 14 -14 35 -13 68 5 28 15 113 25 212 24 91 -1 160 5
155 14 -5 9 4 21 22 28 48 19 104 14 112 -9 3 -11 27 -22 51 -24 25 -2 45 -15
45 -29 0 -46 84 -76 111 -39 13 18 42 33 65 33 98 0 140 58 69 98 -75 42 2 47
87 5 51 -24 131 -50 180 -56 94 -13 110 -32 53 -65 -29 -17 -24 -21 31 -21 41
-1 70 10 77 31 10 25 31 28 110 18 62 -9 97 -6 97 7 0 11 -43 24 -95 28 -86 7
-83 8 30 11 131 4 179 44 53 44 -60 0 -69 5 -50 28 19 22 36 23 82 6 62 -24
101 -7 66 28 -31 31 -186 49 -186 21 0 -43 -52 -23 -118 45 -49 50 -63 79 -53
110 10 29 -1 55 -33 88 -26 26 -58 78 -70 115 -44 130 -83 249 -116 359 -18
61 -52 130 -75 155 -37 39 -39 51 -16 93 16 30 21 75 13 115 -27 136 -25 142
76 219 54 41 110 102 124 136 19 45 39 62 74 62 75 0 154 232 84 246 -11 2
-23 -18 -26 -46 -9 -80 -45 -156 -79 -169 -43 -17 -52 -1 -27 46 12 22 22 75
23 117 1 140 35 172 185 174 102 2 144 12 192 47 33 25 73 45 87 45 15 0 45
14 66 31 38 31 38 32 -3 23 -34 -7 -40 -1 -32 39 7 38 0 47 -34 47 -38 0 -41
-5 -20 -43 26 -50 0 -79 -116 -129 -73 -32 -246 -38 -246 -9 0 26 174 126 202
117 13 -4 50 18 83 48 32 31 77 56 98 56 22 0 35 8 29 17 -24 38 -155 7 -232
-54 -43 -35 -90 -58 -107 -52 -34 14 -52 -5 -144 -150 -48 -76 -69 -133 -69
-187 0 -47 -16 -98 -40 -129 -22 -28 -40 -71 -40 -97 0 -97 -65 -86 -68 12 -1
33 -11 60 -22 60 -23 0 -24 -93 -1 -145 13 -30 5 -35 -54 -35 -82 0 -199 37
-185 60 5 8 -1 45 -13 81 -18 49 -17 88 2 162 28 110 9 192 -74 324 -52 83
-50 205 3 225 15 6 52 75 83 154 32 79 83 175 115 212 63 74 67 227 7 272 -15
11 -32 63 -38 116 -5 53 -25 112 -43 132 -18 20 -28 49 -22 65 7 18 -8 40 -38
56 -27 14 -53 43 -58 63 -6 21 -31 45 -55 55 l-45 16 47 34 c51 35 46 38 -81
41 -60 2 -69 8 -65 47 2 25 -4 45 -15 45 -11 0 -20 40 -20 90 0 60 -8 88 -24
85 -13 -3 -25 9 -26 25 -1 17 -10 46 -19 66 -9 20 -12 40 -6 45 16 16 75 -14
75 -38 0 -13 27 -49 60 -80 33 -31 60 -65 60 -75 0 -10 9 -18 20 -18 11 0 151
-63 311 -140 161 -77 300 -140 310 -140 25 0 219 -194 219 -219 0 -27 74 -28
90 -1 7 11 53 -9 106 -45 52 -36 144 -91 205 -123 75 -39 135 -91 185 -160 92
-127 288 -319 339 -332 38 -10 62 -61 125 -260 19 -58 22 -96 9 -109 -10 -10
-19 -39 -19 -64 0 -24 -9 -50 -21 -57 -11 -7 -18 -43 -16 -80 5 -65 -58 -148
-113 -149 -46 -2 -172 -105 -167 -137 9 -66 -27 -204 -57 -221 -17 -10 -27
-29 -23 -43 15 -44 109 62 146 165 19 52 29 103 22 113 -15 24 22 48 49 32 13
-8 13 -26 -2 -53 -11 -22 -16 -45 -10 -52 22 -22 71 41 84 108 9 48 28 76 59
87 49 19 88 76 77 110 -16 48 52 103 80 65 15 -19 41 -35 59 -35 37 0 45 -33
11 -44 -38 -13 21 -175 60 -164 17 5 12 -1 -13 -14 -25 -13 -45 -32 -45 -42 0
-10 9 -13 20 -6 11 7 20 -1 20 -17 0 -16 -11 -34 -25 -38 -19 -7 -17 -19 7
-47 128 -152 146 -448 27 -448 -27 0 -49 -9 -49 -20 0 -11 10 -20 21 -20 14 0
17 -31 8 -90 -24 -158 13 -115 161 193 17 35 20 80 10 135 -11 60 -8 82 10 82
14 0 31 -38 38 -85 16 -96 79 -175 140 -174 37 0 35 6 -21 55 -74 63 -111 184
-57 184 20 0 47 -32 66 -80 38 -90 54 -100 59 -37 2 24 -19 70 -47 103 -53 63
-51 68 41 162 37 38 39 38 60 2 11 -20 39 -55 60 -77 26 -27 37 -63 34 -105
-7 -75 34 -113 51 -48 9 34 23 42 63 34 49 -10 50 -9 14 18 -21 15 -46 28 -55
28 -9 0 -16 12 -16 27 0 15 -18 43 -40 63 -22 20 -40 62 -40 93 0 44 -9 57
-40 57 -32 0 -40 13 -40 68 0 69 -14 87 -190 249 -61 56 -70 76 -60 124 11 50
3 63 -69 110 -54 37 -81 69 -81 99 0 25 -18 67 -40 95 -46 58 -52 107 -15 122
15 6 12 10 -9 11 -18 1 -39 20 -46 41 -14 44 -171 182 -304 267 -62 39 -90 73
-105 129 -29 105 -33 109 -207 215 -123 74 -153 102 -144 130 8 26 -10 52 -69
93 -55 39 -89 82 -105 133 -19 62 -42 86 -120 126 -53 27 -96 58 -96 68 0 11
-13 20 -28 20 -59 0 -123 73 -94 108 23 28 22 32 -11 32 -23 0 -72 46 -125
120 -48 66 -96 120 -106 120 -22 0 16 -73 77 -147 54 -64 61 -113 17 -113 -16
0 -30 -9 -30 -20 0 -11 21 -20 48 -20 63 0 100 -44 67 -79 -20 -20 -17 -23 18
-12 32 9 62 -3 110 -45 37 -32 87 -65 112 -73 25 -7 45 -30 45 -49 0 -20 25
-47 55 -61 30 -15 45 -30 32 -35 -12 -4 -66 20 -119 53 -53 34 -120 61 -150
61 -30 0 -100 31 -156 69 -56 38 -134 80 -172 94 -77 28 -92 57 -30 57 26 0
49 20 61 53 27 70 -26 127 -196 211 -183 90 -187 135 -13 136 94 0 148 45 148
124 0 82 75 90 96 10 19 -72 42 -84 93 -47 44 32 26 73 -33 73 -32 0 -36 6
-19 27 34 40 202 40 246 0 24 -22 37 -25 37 -9 0 15 15 20 38 13 21 -7 44 -4
51 7 23 38 -66 61 -211 54 -123 -6 -141 -4 -111 18 24 18 90 24 209 20 182 -6
243 13 202 63 -30 36 -85 35 -72 -1 9 -22 -13 -28 -106 -25 l-118 2 44 50 44
49 -50 -34 c-205 -138 -310 -190 -322 -157 -8 21 0 37 20 43 119 38 200 101
184 144 -25 68 -56 65 -46 -3 7 -49 1 -61 -29 -62 -20 0 -54 -13 -76 -30 -43
-33 -160 -40 -141 -9 7 11 3 20 -9 20 -11 0 -21 -7 -21 -16 0 -8 -27 -31 -60
-51 -60 -35 -140 -30 -140 10 0 10 9 14 20 7 11 -7 15 1 8 17 -7 18 5 34 31
43 42 13 57 50 21 50 -11 0 -20 14 -20 30 0 19 19 30 52 30 45 0 49 5 28 30
-14 17 -17 30 -7 31 9 0 0 13 -22 30 -37 28 -36 29 15 29 36 0 54 -11 54 -31
0 -23 12 -28 40 -19 33 10 40 4 40 -36 0 -59 121 -63 202 -7 l47 33 -63 0
c-35 0 -85 -8 -112 -19 -53 -20 -99 82 -56 125 24 24 62 1 62 -37 0 -16 7 -29
17 -29 9 0 12 28 7 61 -7 51 -3 61 26 55 20 -3 40 5 44 18 7 18 -7 19 -58 2
-36 -12 -93 -24 -126 -26 -36 -3 -58 -15 -54 -30 12 -50 -191 34 -261 108
-118 126 -83 222 56 154 l79 -38 -56 -26 c-57 -26 -66 -77 -16 -94 21 -7 25 3
16 36 -8 33 -6 40 10 24 15 -15 30 -13 51 9 22 21 52 26 104 17 57 -9 81 -4
103 22 26 32 24 33 -14 12 -48 -25 -71 -14 -54 28 6 18 -3 28 -27 29 -35 0
-35 2 -2 27 47 36 45 59 -4 33 -51 -27 -101 -27 -101 1 0 13 18 18 40 12 61
-16 64 15 7 68 -51 47 -52 47 -39 4 17 -54 -44 -93 -116 -75 -56 14 -90 105
-49 131 36 22 63 -1 37 -31 -15 -20 -13 -30 11 -39 53 -20 61 -15 101 58 22
42 48 67 64 61 14 -6 46 13 71 41 25 29 68 53 99 55 55 3 74 42 29 60 -19 8
-19 10 1 11 15 1 21 11 14 22 -17 28 -50 25 -51 -5 -1 -35 -156 -155 -200
-155 -73 0 -100 21 -78 62 21 40 79 53 79 18 0 -38 73 -20 114 28 l42 48 -58
11 c-76 16 -74 48 7 83 51 22 56 29 22 29 -23 1 -52 13 -64 28 -13 14 -61 38
-107 52 -93 28 -73 68 44 94 89 19 103 26 89 49 -19 30 -169 9 -252 -34 -58
-29 -65 -30 -81 0 -10 18 -35 32 -56 32 -21 0 -43 8 -49 18 -15 25 48 72 97
72 23 0 42 11 42 25 0 81 178 141 250 85 68 -53 81 -50 76 19 -4 52 -10 57
-57 48 -54 -11 -94 33 -68 75 19 30 -91 63 -123 36 -39 -32 -35 -44 27 -82 52
-31 53 -34 15 -48 -22 -8 -91 -49 -152 -90 -101 -68 -117 -73 -150 -48 -37 28
-36 29 6 29 65 1 76 38 18 60 -38 15 -48 29 -39 55 22 61 52 88 84 76 16 -6
37 0 46 14 24 39 20 56 -13 56 -16 0 -30 10 -30 22 0 14 19 18 49 10 62 -16
164 65 145 115 -17 43 -114 45 -114 2 0 -20 -14 -29 -35 -25 -41 8 -117 -78
-109 -125 7 -45 -67 -106 -114 -94 -26 7 -42 -2 -48 -27 -8 -28 0 -38 29 -38
26 0 38 -11 33 -31 -10 -52 -44 -39 -80 31 -19 37 -44 73 -56 80 -13 8 -24 56
-26 107 -4 95 -34 133 -34 43 0 -28 -10 -48 -22 -45 -13 3 -27 -6 -32 -20 -5
-14 4 -25 21 -25 17 0 36 -9 43 -20 14 -23 -80 -66 -138 -64 -110 5 -231 -157
-232 -311 0 -25 -9 -45 -21 -45 -39 0 -181 82 -192 111 -6 16 -28 29 -49 29
-46 0 -50 46 -8 87 27 27 26 32 -9 43 -51 16 -32 67 31 82 26 7 42 21 36 31
-7 12 17 14 65 5 70 -13 75 -11 50 19 -30 36 -143 46 -143 13 0 -28 -67 -25
-96 4 -18 18 -30 16 -49 -11 -14 -19 -48 -46 -75 -59 -28 -14 -51 -39 -53 -55
-1 -16 -3 -46 -5 -66 -2 -30 -12 -35 -57 -24 -78 19 -93 41 -55 78 46 47 16
41 -46 -8 l-53 -42 -15 55 c-19 71 15 115 78 99 31 -8 46 -3 46 16 0 15 29 37
65 48 l65 21 -59 2 -60 2 43 43 c46 46 118 38 99 -12 -12 -31 39 -59 57 -31 7
11 32 9 61 -4 39 -18 56 -17 75 3 19 21 19 28 -2 35 -14 6 -55 36 -90 69 -46
42 -77 55 -109 47 -25 -6 -45 -2 -45 10 0 11 -14 20 -32 20 -24 0 -29 -12 -20
-47 9 -39 -8 -66 -93 -145 l-105 -98 -6 57 c-4 32 7 72 25 91 40 45 39 62 -1
62 -77 0 -265 215 -224 256 15 15 12 31 -10 53 -49 49 -57 38 -43 -59z m1364
-541 c54 12 57 9 53 -50 -4 -53 2 -61 34 -53 47 13 48 -2 5 -49 -37 -41 -80
-48 -91 -16 -4 12 -22 8 -46 -10 -40 -30 -40 -30 5 -43 51 -14 56 -29 21 -64
-19 -19 -37 -10 -80 41 -39 45 -56 55 -56 32 0 -27 -56 -70 -70 -52 -67 82
-47 156 32 114 34 -18 48 -19 54 -2 4 13 31 24 61 25 41 2 44 5 13 13 -22 5
-52 27 -67 49 -15 21 -40 34 -55 28 -44 -17 -33 22 16 56 39 28 47 28 79 0 23
-22 53 -28 92 -19z m-926 -134 c45 -56 55 -61 77 -35 28 34 114 49 114 20 0
-11 -10 -20 -23 -20 -13 0 -18 -5 -12 -12 22 -21 -72 -108 -116 -108 -63 0
-97 -47 -71 -97 24 -45 -29 -80 -65 -44 -15 15 -9 21 18 22 37 0 37 1 3 21
-30 17 -32 27 -11 51 20 24 19 34 -4 48 -19 12 -36 8 -51 -11 -12 -17 -32 -30
-43 -30 -29 0 -47 83 -25 110 12 15 11 31 -2 44 -15 15 -4 34 33 63 75 59 117
54 178 -22z m1202 -58 c-45 -35 -151 -52 -151 -23 0 48 131 121 164 92 33 -29
32 -33 -13 -69z m-1620 -49 c-39 -39 -71 -35 -71 9 0 29 11 35 49 28 42 -8 45
-13 22 -37z m-239 -11 c7 -12 -1 -31 -20 -41 -18 -10 -28 -27 -21 -37 6 -11
30 -7 55 8 58 36 224 29 224 -9 0 -16 -15 -28 -34 -28 -18 0 -40 -7 -48 -15
-8 -8 0 -15 19 -15 22 0 33 -17 33 -52 0 -28 15 -78 34 -109 40 -68 24 -94
-39 -65 -76 36 -206 66 -287 66 -112 1 -172 20 -160 53 6 15 -2 27 -20 27 -17
0 -25 9 -18 20 7 11 3 20 -9 20 -24 0 34 60 91 92 21 12 41 41 44 65 8 48 129
64 156 20z m1096 -48 c67 -43 68 -40 -40 -88 -69 -30 -101 -35 -130 -20 -45
24 -50 59 -8 59 38 0 38 18 -1 61 -42 47 104 37 179 -12z m-707 -29 c10 0 41
-35 68 -78 28 -45 63 -77 83 -75 18 2 38 -10 44 -27 9 -26 6 -26 -23 -3 -28
24 -33 23 -33 -4 0 -17 -15 -39 -33 -49 -32 -19 -31 -68 3 -149 12 -29 4 -35
-46 -35 -65 0 -144 76 -144 138 0 18 -13 52 -29 75 -16 23 -23 48 -16 55 8 8
3 21 -10 29 -42 26 5 66 62 52 52 -13 64 -43 56 -134 -2 -33 1 -33 46 -4 54
35 41 88 -34 145 -20 15 -34 50 -33 80 2 34 6 41 12 19 5 -19 17 -35 27 -35z
m1479 31 c0 -16 -10 -35 -22 -42 -16 -10 -15 -19 4 -30 34 -21 -12 -79 -63
-79 -20 0 -42 -9 -48 -19 -7 -11 -27 -14 -44 -7 -25 10 -29 2 -19 -36 6 -26 7
-38 1 -26 -13 27 -109 12 -109 -17 0 -51 -141 -101 -167 -60 -22 36 81 121
134 110 43 -8 53 -2 53 31 0 48 -32 76 -46 39 -12 -34 -79 5 -85 51 -7 41 0
42 121 5 114 -34 224 -22 188 22 -13 15 -34 27 -48 27 -14 0 -31 14 -37 30
-10 24 8 30 88 30 73 0 99 -8 99 -29z m-1057 -123 c-30 -23 -30 -27 1 -62 34
-37 20 -96 -22 -96 -11 0 -34 -18 -50 -40 -35 -48 -62 -27 -81 65 -16 74 21
90 78 34 28 -29 31 -26 31 28 0 47 -10 62 -43 67 -56 8 -71 53 -24 67 21 7 51
19 67 28 47 25 87 -60 43 -91z m1318 11 c22 -11 39 -29 39 -40 0 -26 -87 -24
-114 3 -16 16 -33 15 -64 -1 -50 -27 -54 -16 -11 28 37 36 95 40 150 10z
m-765 -32 c26 -45 -43 -122 -124 -137 -115 -22 -214 -74 -192 -100 37 -45 -43
-94 -106 -65 -57 27 -57 75 -1 131 15 15 23 35 17 44 -6 10 19 40 55 67 115
87 317 122 351 60z m940 -62 c-36 -84 -80 -131 -98 -103 -19 32 -78 7 -78 -33
0 -17 9 -26 20 -19 11 7 20 4 20 -7 0 -11 5 -32 11 -48 8 -21 -9 -29 -70 -32
-78 -3 -81 0 -69 47 14 58 -12 66 -44 15 -25 -39 -309 -35 -321 5 -14 43 26
75 67 53 49 -26 127 -8 114 26 -6 13 2 34 16 46 36 30 127 40 122 13 -7 -37
59 -23 69 15 7 26 29 37 72 38 35 1 81 10 103 19 77 33 91 25 66 -35z m-2176
-125 c0 -11 -20 -21 -45 -22 -25 0 -34 -6 -20 -11 14 -6 20 -19 14 -29 -6 -10
16 -18 49 -18 72 0 98 -33 57 -74 -48 -48 -235 64 -235 141 0 14 58 28 125 31
30 1 55 -7 55 -18z m1228 3 c18 -28 -11 -103 -40 -103 -16 0 -28 -10 -28 -21
0 -13 17 -16 40 -9 22 7 40 4 40 -7 0 -11 -20 -26 -45 -33 -125 -35 -255 -98
-255 -122 0 -17 -21 -28 -50 -28 -27 0 -50 6 -50 14 0 34 93 146 123 146 40 0
85 51 68 78 -15 24 51 62 109 62 23 0 37 9 30 20 -7 11 1 20 18 20 16 0 34 -7
40 -17z m-1014 -108 c30 -30 42 -55 29 -55 -14 0 -20 -9 -13 -20 7 -12 21 -15
31 -9 11 6 19 -2 19 -19 0 -16 -8 -35 -18 -41 -28 -17 -82 10 -82 41 0 15 -9
28 -20 28 -11 0 -20 -13 -20 -30 0 -16 -13 -30 -30 -30 -40 0 -38 14 11 75
l40 52 -60 39 c-34 21 -61 45 -61 54 0 30 121 -29 174 -85z m296 8 c7 -18 0
-24 -19 -16 -17 6 -43 -2 -59 -18 -40 -40 -41 -39 -46 50 l-5 79 59 -34 c33
-19 64 -46 70 -61z m988 45 c-13 -16 -18 -35 -11 -42 20 -20 -71 -57 -151 -62
-65 -5 -77 2 -87 44 -18 70 3 97 54 71 32 -17 35 -28 16 -50 -50 -61 52 -29
106 32 53 61 123 67 73 7z m-823 -104 c-12 -14 -34 -21 -49 -15 -16 6 -23 3
-18 -6 20 -31 -103 -129 -147 -117 -47 12 -105 -53 -87 -98 8 -21 -10 -28 -70
-28 -44 0 -84 -10 -88 -22 -4 -12 -20 2 -36 31 -22 42 -23 57 -3 69 13 8 19
32 12 54 -11 35 -10 35 11 3 12 -19 17 -43 11 -53 -32 -52 54 -32 103 24 90
102 232 210 286 217 64 9 104 -23 75 -59z m1145 -7 c50 -14 91 -26 93 -26 34
-9 24 -151 -11 -151 -65 0 -57 -122 13 -215 43 -57 47 -70 19 -59 -39 15 -77
-13 -99 -71 -18 -47 16 -44 65 5 31 31 40 33 40 10 0 -16 -10 -30 -22 -30 -12
0 -17 -13 -11 -29 8 -20 -4 -27 -41 -25 -28 2 -56 -7 -60 -21 -5 -14 1 -25 14
-25 12 0 16 10 8 23 -9 14 -5 18 9 9 35 -22 28 -92 -9 -92 -19 0 -28 -11 -22
-28 25 -64 -114 -101 -170 -45 -47 46 -124 80 -176 77 -78 -5 -116 27 -85 70
15 20 44 73 65 118 22 46 53 94 70 108 16 14 30 37 30 53 0 15 45 55 100 89
55 34 95 70 89 80 -7 10 -36 2 -65 -18 -30 -21 -83 -50 -118 -65 -36 -16 -67
-45 -70 -67 -3 -21 -16 -42 -28 -46 -14 -5 -19 11 -14 41 9 42 -34 90 -128
142 -3 2 1 23 7 47 13 48 57 59 74 19 6 -15 10 -11 11 10 2 29 17 33 89 26 57
-6 101 1 125 19 21 16 63 29 93 29 96 1 59 41 -40 43 -78 2 -86 5 -45 18 28 9
64 13 80 9 17 -4 71 -19 120 -32z m-1110 -179 c-1 -50 -9 -66 -30 -60 -17 4
-59 13 -94 20 -75 14 -67 43 24 91 80 41 100 31 100 -51z m550 -40 c73 -49
146 -158 106 -158 -29 0 -126 72 -132 99 -4 19 -18 4 -38 -40 -17 -39 -54 -97
-83 -128 -29 -31 -53 -74 -53 -94 0 -57 -77 -48 -91 12 -15 59 -54 76 -142 59
-37 -7 -67 -6 -67 1 0 44 48 88 109 99 50 10 85 35 125 92 46 65 111 111 166
118 6 1 51 -26 100 -60z m-760 2 c0 -12 -23 -30 -51 -40 -28 -11 -46 -28 -40
-38 6 -11 -4 -23 -24 -27 -19 -4 8 -9 61 -11 52 -1 103 -7 112 -13 10 -6 22 8
28 31 15 54 98 45 106 -12 11 -69 -24 -104 -71 -75 -55 34 -89 32 -57 -3 14
-15 33 -24 41 -19 8 5 15 -9 15 -32 0 -23 13 -41 30 -41 35 0 40 -31 9 -51
-27 -16 41 -87 72 -76 11 5 47 -19 79 -52 37 -40 47 -61 29 -61 -24 -1 -24 -4
1 -20 25 -17 25 -23 3 -37 -22 -14 -22 -21 -2 -34 16 -9 38 0 59 26 40 50 220
73 220 28 0 -17 12 -23 32 -15 23 9 29 4 21 -16 -11 -30 15 -30 190 -1 43 7
78 3 86 -10 13 -21 -11 -29 -69 -23 -26 3 -26 1 -1 -16 16 -11 35 -16 43 -11
8 5 19 -5 26 -22 12 -32 -59 -71 -111 -61 -94 19 -156 40 -220 74 -82 43 -137
49 -137 14 0 -13 -13 -6 -29 15 -40 55 -85 13 -52 -48 24 -46 15 -132 -18
-172 -25 -29 -6 -97 21 -80 10 6 18 2 18 -9 0 -38 -34 -40 -101 -4 -73 39
-113 131 -76 176 15 18 16 34 1 51 -25 31 -85 200 -74 211 14 15 50 -18 50
-47 0 -41 35 -36 45 6 5 22 -32 73 -100 140 -59 58 -102 114 -95 125 7 11 3
20 -9 20 -11 0 -21 -9 -21 -20 0 -11 -10 -20 -22 -20 -13 0 -17 15 -9 35 11
28 8 30 -12 10 -43 -43 -63 -27 -30 23 39 59 13 75 -98 61 -117 -15 -145 76
-32 104 29 8 65 30 79 50 28 40 84 50 84 17z m460 -30 c0 -5 -36 -28 -80 -50
-44 -22 -80 -33 -80 -23 0 25 42 57 90 69 60 14 70 15 70 4z m304 -145 c45
-52 56 -120 24 -147 -15 -12 -28 -35 -28 -50 0 -35 -72 -37 -93 -3 -21 34 -24
95 -4 107 9 6 17 31 17 56 0 77 36 93 84 37z m-924 -65 c0 -11 14 -20 31 -20
17 0 26 -9 19 -20 -7 -11 7 -20 30 -20 28 0 38 -8 28 -25 -11 -20 -8 -20 13 0
27 25 79 1 79 -37 0 -49 -196 -18 -208 32 -7 28 -22 50 -32 50 -11 0 -20 14
-20 30 0 17 14 30 30 30 17 0 30 -9 30 -20z m535 -80 l51 -41 -48 6 c-46 5
-77 29 -78 60 0 24 21 17 75 -25z m1195 -52 c-27 -25 -50 -60 -50 -77 0 -40
-32 -40 -48 0 -6 17 1 35 18 42 39 15 38 47 -1 47 -17 0 -26 9 -18 21 7 11 30
15 51 8 27 -8 38 -2 38 22 0 28 5 29 30 9 26 -22 24 -31 -20 -72z m-1537 -88
c16 0 24 9 17 20 -18 30 62 24 86 -6 34 -40 1 -67 -82 -68 -41 -1 -88 -13
-104 -26 -24 -20 -33 -16 -47 23 -22 56 -10 84 28 69 15 -6 34 0 42 13 11 17
16 17 22 -1 5 -13 22 -24 38 -24z m434 -11 c-14 -37 -67 -38 -67 -1 0 29 39
53 64 39 8 -5 9 -21 3 -38z m981 -21 c18 -7 27 -20 21 -30 -6 -10 4 -18 24
-18 25 0 29 -6 14 -21 -30 -30 -152 -15 -163 19 -7 20 1 24 23 16 21 -8 33 -2
33 17 0 33 4 34 48 17z m-165 -128 c11 0 15 -7 11 -15 -22 -38 60 -88 92 -56
40 40 67 40 34 1 -21 -25 -16 -39 29 -81 42 -39 53 -65 47 -110 -6 -40 3 -70
27 -92 21 -18 36 -52 35 -75 -1 -35 -5 -33 -21 13 -11 30 -28 51 -36 45 -20
-12 -35 42 -32 115 1 30 -5 55 -13 55 -9 0 -16 -10 -16 -21 0 -12 -9 -16 -19
-10 -11 7 -14 27 -7 45 9 22 5 28 -11 18 -12 -8 -23 -5 -23 6 0 11 -13 16 -30
9 -19 -7 -30 1 -30 21 0 18 -9 32 -20 32 -11 0 -20 12 -20 28 0 15 -20 42 -45
61 -35 26 -37 31 -8 22 20 -6 45 -11 56 -11z m557 -77 c0 -34 -195 -178 -220
-163 -22 13 -22 23 -3 46 13 17 22 41 19 55 -9 39 146 122 178 95 14 -11 26
-27 26 -33z m-1215 -21 c25 -3 17 -78 -10 -88 -20 -7 -20 -14 0 -35 20 -21 31
-20 61 7 81 74 196 16 174 -87 -8 -34 -3 -61 12 -70 15 -10 19 -7 10 8 -21 34
19 28 48 -7 14 -16 41 -30 60 -30 20 0 41 -13 47 -30 7 -16 26 -30 44 -30 17
0 27 7 22 15 -5 8 35 17 89 20 55 3 98 -4 98 -15 0 -11 13 -20 29 -20 16 0 42
-19 58 -42 29 -41 30 -41 51 -3 18 35 10 44 -59 75 -43 20 -79 44 -79 53 0 24
11 22 95 -23 41 -22 85 -40 97 -40 32 0 97 -202 71 -218 -12 -8 -7 -28 13 -53
45 -53 135 -126 116 -94 -8 14 -5 25 7 25 11 0 21 -9 21 -19 0 -11 33 -25 73
-33 55 -10 65 -18 41 -31 -88 -49 -355 121 -392 249 -14 50 -19 54 -20 19 -1
-25 -10 -45 -20 -45 -22 0 -49 60 -45 100 3 24 -26 30 -155 32 -106 1 -156 -6
-150 -20 12 -33 -24 -79 -50 -63 -12 7 -18 21 -12 30 17 28 -84 42 -141 21
-44 -17 -49 -26 -29 -51 22 -26 29 -25 53 6 25 31 26 29 14 -23 -11 -50 -8
-57 22 -45 22 8 32 5 27 -10 -7 -21 -176 -83 -176 -65 0 4 0 15 0 23 0 8 15
15 33 15 19 0 37 14 42 30 7 27 6 27 -13 0 -31 -43 -66 11 -56 86 9 69 -9 82
-58 42 -33 -27 -34 -30 -3 -20 19 6 35 2 35 -9 0 -10 -9 -19 -20 -19 -11 0
-20 -12 -20 -28 0 -52 -54 -77 -66 -30 -6 23 -20 37 -30 31 -10 -7 -14 10 -9
37 5 27 26 54 47 61 21 6 38 21 38 32 0 10 8 14 18 8 11 -6 33 3 50 20 28 28
32 28 32 2 0 -17 10 -37 23 -45 14 -8 18 -5 10 7 -7 12 -2 26 12 32 18 8 16
16 -8 32 -19 12 -53 53 -77 91 -44 71 -120 96 -120 40 0 -16 -10 -30 -22 -30
-13 0 -17 15 -9 35 10 27 8 30 -10 11 -28 -27 -9 -95 21 -76 11 7 26 -1 32
-18 16 -41 -54 -155 -88 -143 -14 6 -22 3 -16 -5 21 -35 -23 -66 -75 -53 -53
13 -67 44 -37 80 33 39 108 291 98 329 -6 26 -2 35 11 27 13 -8 17 -2 11 15
-11 27 8 31 109 20z m558 -83 c54 -29 46 -58 -24 -82 -48 -17 -58 -30 -47 -62
13 -42 -115 -38 -160 6 -119 114 67 225 231 138z m205 -109 c136 -57 93 -87
-60 -40 -60 18 -101 22 -105 10 -3 -11 -20 -20 -38 -20 -27 0 -26 6 5 40 43
48 100 51 198 10z m435 -227 c40 -42 38 -103 -4 -103 -25 0 -47 15 -53 39 -5
21 -22 34 -36 28 -18 -7 -12 -24 22 -61 63 -68 61 -118 -2 -70 -84 64 -196
208 -154 198 29 -7 50 -1 57 16 10 26 132 -8 170 -47z m-1769 -79 c-36 -7 -36
-8 0 -35 34 -26 34 -28 -5 -28 -28 -1 -46 -21 -60 -66 -21 -71 -55 -80 -65
-16 -4 23 -15 41 -26 41 -10 0 -3 24 16 53 l35 54 -97 -14 c-84 -11 -94 -9
-72 16 14 18 48 27 86 23 34 -4 81 -1 103 8 23 9 58 6 81 -6 37 -21 38 -23 4
-30z m551 -116 c41 -18 69 -41 63 -52 -7 -10 5 -31 25 -47 52 -39 6 -36 -50 3
-25 18 -41 44 -35 59 7 19 -13 32 -64 41 -76 14 -124 40 -124 70 0 9 25 3 55
-12 30 -16 89 -44 130 -62z m448 67 c9 -14 2 -17 -20 -9 -26 10 -37 -1 -46
-46 -15 -77 -54 -108 -118 -92 -44 12 -47 17 -21 43 16 16 43 23 61 17 20 -8
31 -1 31 20 0 18 9 32 19 32 11 0 15 12 10 26 -12 32 65 40 84 9z m-703 -35
c7 -12 -17 -20 -60 -20 -43 0 -67 8 -60 20 7 11 34 20 60 20 26 0 53 -9 60
-20z m804 -25 c1 -25 -2 -34 -8 -20 -5 14 -17 25 -27 25 -10 0 -12 -15 -5 -34
12 -30 10 -31 -17 -6 -22 21 -25 35 -9 53 34 40 63 31 66 -18z m-81 -72 c0
-18 5 -45 9 -60 4 -16 -3 -32 -17 -37 -15 -6 -25 7 -25 32 0 23 -9 42 -20 42
-11 0 -20 23 -20 50 0 59 70 33 73 -27z m-793 34 c0 -11 -9 -14 -20 -7 -11 7
-20 3 -20 -9 0 -30 31 -26 60 9 35 42 50 38 90 -22 55 -84 5 -118 -100 -67
-106 50 -105 50 -100 -37 5 -84 31 -143 81 -185 25 -21 23 -9 -9 48 -52 93
-32 153 47 138 50 -9 74 -65 28 -65 -14 0 -18 -24 -11 -66 11 -73 -87 -153
-155 -127 -43 16 -39 -21 10 -82 27 -35 34 -58 20 -72 -13 -13 -12 -29 3 -48
13 -16 21 -64 19 -108 -3 -52 3 -76 16 -68 12 8 21 6 21 -4 0 -9 -36 -39 -79
-66 -44 -27 -80 -56 -80 -64 -1 -8 -21 -15 -46 -15 -34 -1 -38 -5 -17 -18 28
-18 18 -82 -12 -82 -54 1 -63 35 -46 170 10 77 13 160 7 185 -6 25 4 102 23
172 32 117 32 132 3 176 -44 67 34 272 117 305 69 28 150 33 150 9z m300 -66
c0 -15 16 -32 35 -37 24 -7 20 -10 -14 -12 l-49 -2 43 -40 c24 -22 48 -40 54
-40 6 0 11 18 11 40 0 51 24 51 69 1 24 -26 31 -52 20 -75 -8 -20 -18 -49 -21
-65 -3 -16 -25 -44 -49 -61 -60 -46 -48 -144 21 -161 43 -12 45 -16 15 -28
-19 -9 -35 -27 -35 -42 0 -87 -93 -31 -113 69 -14 71 -62 96 -97 49 -31 -42
-16 -103 33 -133 20 -13 37 -32 37 -43 0 -10 -11 -8 -24 5 -27 27 -56 32 -56
9 0 -8 40 -60 89 -115 67 -76 83 -105 67 -125 -16 -19 -16 -33 0 -49 17 -17
28 -9 42 29 11 28 38 57 61 65 33 10 37 20 21 49 -28 53 30 71 77 24 47 -47
32 -83 -36 -83 -48 0 -54 -7 -46 -48 5 -26 -1 -53 -13 -61 -12 -7 -22 -29 -22
-48 0 -45 -95 -183 -127 -183 -17 0 -23 24 -18 75 6 64 4 70 -17 37 -23 -37
-24 -37 -56 3 -17 22 -54 47 -82 56 -48 14 -49 13 -16 -24 74 -82 118 -234 63
-213 -23 9 -29 5 -19 -11 24 -38 -19 -26 -57 16 -49 54 -74 194 -40 222 14 12
23 52 20 91 -6 76 -3 75 122 -45 27 -26 61 -40 84 -34 49 13 74 -26 42 -64
-31 -37 -5 -38 32 0 36 35 37 71 4 72 -66 3 -275 375 -275 489 0 16 -13 30
-30 30 -48 0 -24 61 63 167 30 35 47 82 47 126 0 38 9 87 21 108 24 46 119 54
119 10z m253 -32 c11 -11 49 -22 83 -25 35 -2 64 -15 64 -28 0 -13 14 -37 31
-54 42 -42 21 -70 -46 -62 -70 8 -92 -6 -60 -37 33 -33 101 -59 85 -33 -7 11
-5 21 4 22 9 0 32 4 51 8 19 3 35 -2 35 -12 0 -10 16 -18 35 -19 26 -1 22 -7
-15 -25 -29 -14 -52 -44 -55 -71 -3 -26 -27 -64 -53 -85 -32 -25 -45 -51 -38
-78 6 -22 1 -40 -12 -40 -12 0 -22 -18 -22 -40 0 -27 -13 -40 -40 -40 -22 0
-40 13 -40 28 0 15 -24 34 -53 41 -38 10 -47 19 -31 35 16 16 30 16 52 -3 32
-26 112 -11 112 22 0 11 -18 14 -40 7 -24 -8 -40 -4 -40 10 0 12 -8 17 -19 11
-10 -6 -24 -3 -30 8 -7 11 8 25 34 32 28 7 46 26 46 49 0 29 -7 33 -34 18 -19
-10 -42 -18 -52 -18 -22 0 -15 121 8 138 18 13 67 95 67 111 0 5 -28 41 -62
80 -60 69 -29 114 35 50z m-966 -48 c40 16 43 -4 7 -40 -32 -32 -93 4 -78 46
6 20 13 21 23 5 8 -13 29 -18 48 -11z m2127 -5 l52 -35 -58 -24 c-36 -16 -45
-26 -23 -26 19 -1 35 -10 35 -22 0 -14 -12 -14 -39 0 -54 29 -68 58 -43 89 12
14 16 32 8 39 -25 25 16 13 68 -21z m-834 -104 c1 -28 3 -28 20 -2 17 26 19
26 20 -3 0 -24 12 -30 45 -23 44 11 44 10 5 -20 -30 -23 -49 -25 -80 -9 -22
12 -44 22 -50 23 -5 1 -8 18 -5 37 2 20 -8 35 -25 35 -17 0 -30 9 -30 20 0 11
20 10 50 -4 28 -12 50 -37 50 -54z m1145 -35 c-36 -15 -31 -47 7 -47 27 0 29
-5 8 -31 -23 -26 -29 -25 -49 15 -24 46 -7 77 39 74 11 -1 9 -6 -5 -11z
m-2465 -90 c0 -10 -13 -23 -30 -30 -16 -6 -30 -25 -30 -42 0 -18 -5 -27 -10
-22 -23 23 15 134 42 123 15 -5 28 -19 28 -29z m2665 -3 c53 -27 115 -83 115
-104 0 -7 -27 7 -60 30 -50 35 -60 37 -60 11 0 -35 -31 -42 -50 -11 -7 11 -1
20 14 21 16 0 12 8 -9 21 -68 39 -22 70 50 32z m-1345 -15 c0 -9 -18 -27 -40
-39 -33 -18 -40 -15 -40 15 0 22 16 38 40 40 22 1 40 -6 40 -16z m220 -36 c0
-8 -19 -16 -43 -18 -70 -5 -95 -45 -28 -45 l58 0 -44 -46 c-23 -26 -43 -57
-43 -70 0 -13 -10 -24 -23 -24 -13 0 -19 -5 -12 -11 20 -21 91 38 80 66 -8 21
3 27 37 22 50 -7 87 -137 39 -137 -11 0 -21 -11 -21 -23 0 -13 -15 -40 -33
-60 -31 -34 -31 -37 0 -37 18 0 33 14 33 30 0 33 31 41 49 12 12 -20 -50 -142
-72 -142 -7 0 -8 20 -2 44 10 39 8 41 -20 15 -17 -16 -26 -37 -20 -47 6 -10
-12 -12 -42 -5 -31 8 -53 5 -53 -7 0 -19 42 -29 97 -21 23 3 23 -1 0 -26 -15
-16 -34 -25 -42 -20 -8 5 -15 -16 -15 -47 0 -31 -14 -82 -31 -115 -27 -52 -27
-60 0 -76 53 -29 -6 -95 -86 -95 -71 0 -76 31 -31 185 8 26 2 32 -24 21 -24
-9 -30 -6 -19 12 8 14 27 20 41 15 14 -6 43 3 63 20 35 29 35 30 -8 20 -61
-13 -57 0 33 120 81 107 130 187 114 187 -5 0 -22 5 -38 11 -19 7 -33 -5 -41
-35 -24 -96 -90 -105 -78 -10 14 116 57 214 93 214 16 0 35 9 42 20 7 12 -14
20 -51 20 -47 0 -66 -11 -74 -42 -6 -22 -31 -49 -57 -59 -26 -10 -53 -42 -62
-75 -15 -55 -157 -199 -177 -180 -17 17 80 176 108 176 14 0 23 11 18 25 -4
13 5 38 21 54 25 25 24 30 -7 41 -36 13 80 76 117 64 10 -3 12 3 6 13 -6 10 1
29 16 42 18 14 33 16 40 4 7 -12 43 -5 87 17 71 34 105 35 105 3z m-1632 -148
c14 -9 9 -15 -12 -15 -18 0 -39 -18 -46 -40 -18 -58 -48 -31 -46 41 2 42 10
58 29 51 15 -6 28 0 29 14 0 14 6 11 13 -6 6 -16 21 -37 33 -45z m86 -85 c2
-51 -5 -70 -28 -70 -19 0 -26 11 -19 30 7 17 1 31 -13 32 -18 1 -18 3 0 11 13
5 19 23 13 38 -7 17 0 29 16 29 17 0 28 -26 31 -70z m906 -26 c0 -9 -27 -36
-60 -61 -48 -35 -60 -38 -60 -14 0 17 9 31 20 31 11 0 20 14 20 30 0 17 18 30
40 30 22 0 40 -7 40 -16z m-1017 -24 c4 -40 8 -50 23 -74 8 -13 28 -19 45 -13
16 6 29 2 29 -9 0 -12 5 -34 11 -50 14 -35 -41 -94 -88 -94 -27 0 -35 20 -38
93 -3 52 -10 110 -16 130 -6 21 -2 37 10 37 11 0 22 -9 24 -20z m1351 -157
c-25 -128 -51 -198 -101 -272 -64 -93 -68 -109 -80 -337 -5 -97 -12 -180 -17
-184 -19 -20 -92 16 -83 40 13 35 -60 75 -87 48 -13 -13 -29 -9 -47 13 -35 42
11 76 65 47 22 -12 36 -12 36 -1 0 11 18 15 40 9 51 -14 51 10 -2 66 -66 71
-62 144 14 271 37 62 68 122 68 134 0 12 23 28 52 35 33 9 43 19 28 28 -17 11
-9 38 29 98 56 89 102 92 85 5z m554 45 c17 -45 15 -68 -8 -68 -11 0 -20 14
-20 30 0 17 -10 30 -21 30 -12 0 -16 9 -9 20 18 30 44 24 58 -12z m-2026 -144
c-11 -22 -44 -44 -73 -49 l-52 -10 66 68 c66 69 98 63 59 -9z m1895 -37 c23
-110 15 -139 -42 -154 -56 -15 -93 10 -44 28 42 16 37 19 -67 51 -15 4 -20 18
-13 30 10 16 19 14 31 -5 13 -21 18 -17 21 13 3 42 9 90 14 115 12 60 82 6
100 -78z m142 32 c-11 -22 -29 -39 -39 -39 -25 0 -47 40 -31 56 7 7 22 0 32
-17 14 -23 18 -19 19 17 0 26 9 41 20 34 13 -8 13 -25 -1 -51z m-1799 -19 c0
-21 -8 -23 -125 -30 -61 -3 -71 1 -53 23 26 31 178 37 178 7z m971 -42 c15
-25 -29 -61 -55 -45 -9 5 -16 22 -16 38 0 34 52 39 71 7z m-541 -68 c-3 -39
-13 -70 -22 -69 -18 1 -17 64 2 114 16 45 24 27 20 -45z m-930 -46 c0 -9 -34
-34 -75 -55 -116 -59 -120 -58 -49 9 63 59 124 81 124 46z m1313 -112 c-7 -18
-24 -26 -42 -19 -22 8 -28 2 -20 -18 14 -37 -49 -65 -79 -35 -14 14 0 39 46
82 68 61 121 56 95 -10z m867 58 c0 -4 -45 -54 -100 -110 -55 -56 -100 -115
-100 -130 0 -15 -10 -30 -21 -34 -27 -9 -45 -376 -19 -376 11 0 25 23 32 51
10 39 18 45 39 28 15 -12 37 -17 48 -10 24 15 26 7 9 -37 -7 -18 -18 -28 -25
-24 -7 4 -26 -6 -42 -23 -25 -28 -22 -30 25 -21 48 9 52 6 41 -38 -8 -34 -1
-57 26 -77 48 -37 3 -73 -73 -57 -39 9 -44 7 -20 -10 17 -12 50 -22 74 -22 24
0 50 -10 57 -22 10 -15 0 -18 -28 -9 -51 16 -58 -19 -10 -45 22 -13 25 -23 10
-32 -36 -22 -28 -78 8 -64 20 7 36 -4 47 -33 13 -35 9 -48 -22 -60 -57 -22
-27 -50 43 -39 61 9 83 52 36 71 -19 7 -19 10 -1 11 29 2 75 -76 56 -95 -13
-12 -20 -14 -71 -20 -12 -2 -16 -12 -9 -23 7 -11 4 -20 -7 -20 -11 0 -34 -5
-51 -12 -20 -8 -32 -1 -32 17 0 17 -15 42 -34 58 -26 21 -30 21 -18 1 13 -22
9 -22 -25 -1 -28 17 -38 39 -31 67 6 26 -4 55 -29 77 -23 21 -35 51 -28 74 7
30 2 37 -23 27 -17 -7 -32 -3 -32 8 0 11 10 24 23 28 23 8 -44 153 -98 212
-21 22 -18 37 15 78 26 34 34 59 21 74 -44 54 25 352 82 352 10 0 17 10 17 22
0 37 158 189 200 192 22 2 40 0 40 -4z m-2200 -51 c0 -12 -8 -16 -18 -11 -9 6
-52 -21 -94 -61 -74 -70 -179 -127 -232 -127 -14 1 17 28 69 60 52 33 99 60
104 60 5 0 33 23 63 50 56 52 108 66 108 29z m1162 -103 c11 -44 8 -50 -26
-41 -31 8 -38 2 -33 -27 6 -28 22 -36 62 -32 35 5 55 -3 55 -20 1 -19 6 -18
20 4 16 25 19 24 20 -7 0 -30 -10 -35 -52 -24 -37 9 -59 3 -77 -21 -26 -36
-18 -128 11 -128 10 0 18 -11 18 -24 0 -19 -5 -19 -24 0 -29 29 -96 32 -96 4
0 -11 10 -18 22 -15 12 3 30 -15 39 -40 11 -26 10 -45 0 -45 -16 0 -17 -32 -3
-126 1 -9 13 -9 27 -1 15 9 12 -4 -7 -33 -43 -65 -88 -79 -73 -23 8 30 2 43
-18 43 -18 0 -24 -10 -15 -25 9 -17 7 -18 -6 -5 -46 46 -72 251 -36 278 20 14
38 61 43 113 14 154 19 175 43 204 13 16 19 33 14 38 -6 6 10 9 34 7 29 -2 49
-21 58 -54z m209 2 c20 -32 -34 -60 -65 -35 -14 12 -21 30 -15 39 16 25 64 22
80 -4z m495 -19 c22 -84 -43 -167 -73 -94 -6 15 -10 11 -11 -10 -1 -19 -15
-35 -32 -35 -27 0 -39 24 -32 65 1 8 -11 15 -26 15 -29 0 -59 53 -43 78 23 37
207 20 217 -19z m234 -117 c0 -41 -26 -82 -52 -82 -34 0 -35 10 -3 60 26 42
55 53 55 22z m-387 -113 c-9 -108 -10 -109 -69 -87 -58 22 -52 91 7 82 34 -5
32 0 -11 36 -27 22 -35 35 -17 29 18 -6 39 -2 46 10 30 48 51 15 44 -70z
m-363 -123 c-5 -51 -17 -101 -26 -110 -21 -21 -18 45 3 79 10 16 4 25 -16 25
-17 0 -31 9 -31 20 0 11 9 20 19 20 11 0 15 14 8 30 -7 19 0 30 21 30 26 0 30
-17 22 -94z m308 -154 c30 -28 42 -62 42 -124 0 -47 9 -91 21 -98 23 -15 5
-146 -25 -184 -27 -33 0 -73 97 -143 68 -49 86 -76 97 -147 8 -47 31 -118 51
-157 20 -39 50 -143 68 -230 17 -87 42 -185 55 -216 21 -52 17 -62 -46 -120
-37 -35 -83 -86 -101 -113 l-33 -50 -58 55 c-32 31 -65 50 -72 43 -7 -7 -2 14
10 47 22 57 17 68 -80 185 -72 85 -104 141 -104 180 0 84 -32 154 -112 247
l-71 83 13 150 c11 134 7 163 -38 265 -50 113 -51 114 -11 135 82 44 101 156
49 285 -12 29 -3 35 47 35 33 0 67 10 75 23 9 14 27 -3 49 -45 19 -37 54 -85
77 -106z m-443 103 c-3 -14 6 -23 20 -20 40 8 29 -32 -16 -56 -68 -36 -113 14
-56 64 51 44 59 46 52 12z m3165 -115 c28 -22 58 -39 68 -40 41 -1 92 -70 92
-124 0 -148 -154 -292 -194 -181 -6 19 -25 50 -41 69 -21 24 -26 58 -16 120 7
47 14 111 15 141 2 65 10 67 76 15z m-3447 -49 c-6 -17 4 -39 23 -50 19 -11
23 -20 9 -20 -14 -1 -25 -24 -25 -52 0 -29 9 -46 20 -39 11 7 19 -8 17 -34 -1
-25 4 -61 12 -79 19 -46 -14 -60 -85 -35 -79 27 -106 121 -52 180 32 36 32 38
2 27 -47 -18 -42 18 11 79 50 57 86 69 68 23z m376 -98 c-7 -18 -20 -28 -29
-23 -9 5 -21 -4 -27 -20 -7 -17 -32 -30 -56 -30 -42 0 -40 5 23 70 66 68 114
70 89 3z m550 -32 c29 -53 27 -61 -14 -61 -65 1 -96 33 -66 68 34 42 55 40 80
-7z m-696 -61 c13 0 19 -5 13 -11 -25 -25 -116 17 -116 53 0 37 2 36 40 -2 22
-22 51 -40 63 -40z m17 -60 c0 -11 -11 -21 -25 -22 -20 -1 -20 -3 0 -11 14 -6
25 -18 25 -28 0 -10 -14 -12 -31 -6 -18 7 -43 -4 -59 -25 -16 -21 -29 -31 -29
-22 -1 23 84 134 103 134 9 0 16 -9 16 -20z m-325 -137 c40 -50 31 -114 -17
-118 -37 -2 -41 6 -34 65 4 37 -1 66 -11 64 -10 -2 -22 7 -27 21 -13 34 56 10
89 -32z m73 34 c-10 -16 -4 -20 19 -11 41 16 42 -22 2 -75 -28 -38 -29 -38
-29 4 0 23 -5 56 -12 73 -7 18 -2 32 11 32 13 0 17 -11 9 -23z m383 -87 c-2
-49 -11 -96 -21 -105 -9 -8 -10 2 -3 22 10 27 6 35 -15 26 -16 -6 -34 2 -40
18 -6 16 -3 29 5 29 9 0 27 23 39 50 33 71 39 63 35 -40z m-218 -30 c15 0 27
-10 27 -21 0 -12 -9 -16 -20 -9 -11 7 -20 3 -20 -9 0 -11 20 -21 43 -21 46 0
117 -52 117 -86 0 -11 -18 -4 -40 16 -36 33 -40 33 -40 3 0 -18 -9 -33 -20
-33 -11 0 -18 10 -15 23 3 12 -8 27 -23 32 -18 7 -22 2 -12 -15 8 -14 4 -32
-11 -41 -19 -11 -10 -20 32 -29 115 -26 123 -31 85 -52 -19 -10 -29 -32 -23
-48 6 -17 17 -26 25 -21 8 5 26 1 41 -8 31 -20 11 -61 -30 -61 -16 0 -29 -9
-29 -19 0 -11 -13 -15 -30 -8 -16 6 -30 1 -30 -12 0 -13 -9 -18 -20 -11 -23
14 -27 51 -5 48 66 -11 81 3 58 52 -13 27 -30 50 -39 50 -25 0 -74 53 -63 68
5 7 -2 3 -15 -8 -18 -15 -17 -26 6 -45 40 -33 86 -95 71 -95 -35 0 -114 115
-107 155 5 25 1 45 -9 45 -9 0 -17 -11 -17 -24 0 -18 -6 -18 -22 -2 -28 28 -6
66 38 66 27 1 23 10 -16 41 -50 39 -50 40 -10 70 37 29 40 28 46 -10 4 -23 16
-41 27 -41 11 0 14 19 6 45 -28 89 -30 104 -7 60 13 -25 36 -45 51 -45z m1315
44 c22 -37 -23 -73 -57 -44 -26 21 -28 30 -7 43 33 21 51 21 64 1z m-1513
-151 c-22 -23 -35 -25 -52 -8 -32 32 -29 51 12 60 52 12 75 -18 40 -52z m1481
-10 c4 -13 0 -23 -9 -21 -54 9 -72 -2 -47 -32 20 -25 19 -30 -9 -30 -18 0 -28
-9 -21 -20 23 -38 -21 -20 -58 24 -37 42 -37 44 3 76 47 38 129 39 141 3z
m-1546 -63 c0 -26 -10 -50 -22 -54 -13 -4 -21 17 -20 53 2 70 42 71 42 1z
m481 -74 c-5 -14 0 -26 11 -26 11 0 14 -10 7 -22 -18 -29 -49 18 -36 53 5 14
0 31 -12 38 -12 8 -21 -2 -21 -21 0 -19 -5 -29 -12 -23 -6 7 -5 32 3 57 14 44
15 44 42 7 15 -21 23 -49 18 -63z m842 42 c26 -24 47 -49 47 -57 0 -23 55 -71
81 -71 18 0 18 -8 -1 -30 -22 -26 -20 -29 7 -18 18 7 33 27 33 45 1 28 3 29
19 3 16 -24 23 -20 39 20 12 33 20 38 21 17 0 -19 6 -47 13 -64 8 -23 1 -27
-30 -19 -30 7 -42 1 -42 -21 0 -21 -12 -28 -35 -22 -19 6 -15 0 10 -13 24 -13
50 -41 56 -62 8 -23 24 -34 41 -28 16 6 28 -2 28 -19 0 -24 -8 -26 -40 -9 -22
12 -40 13 -40 3 0 -10 -18 -23 -40 -29 -24 -6 -40 0 -40 15 0 46 -68 106 -105
93 -33 -12 -33 -15 3 -46 21 -18 43 -28 49 -22 6 6 17 -12 24 -40 7 -28 31
-67 54 -88 37 -31 40 -32 30 -3 -13 35 20 57 82 57 29 -1 29 -3 3 -21 -26 -17
-25 -24 10 -54 22 -19 57 -62 78 -95 35 -55 32 -54 -38 15 -74 73 -141 106
-90 45 17 -20 18 -30 3 -30 -16 0 -16 -14 1 -50 12 -28 31 -50 40 -50 10 0 13
-8 7 -18 -28 -46 16 -138 89 -184 42 -26 88 -66 101 -88 23 -36 22 -37 -7 -13
-27 22 -36 20 -58 -15 -31 -51 -55 -54 -58 -7 -3 33 -3 33 -12 0 -11 -42 -46
-47 -46 -6 0 15 -15 43 -32 61 -18 17 -28 37 -22 43 7 6 -6 44 -27 84 -22 40
-39 83 -39 95 0 13 -13 34 -30 48 -16 13 -25 33 -18 42 6 10 -8 42 -31 71 -22
29 -41 61 -41 71 0 10 -17 56 -38 102 -55 124 -68 174 -43 174 11 0 22 -16 23
-35 2 -32 3 -32 12 -1 4 18 -10 52 -33 75 -24 24 -37 51 -31 62 7 10 0 19 -16
19 -45 0 -80 96 -38 105 52 13 66 8 117 -37z m-1198 -32 c-4 -13 9 -40 29 -60
21 -21 32 -47 25 -58 -7 -11 -1 -33 12 -49 14 -17 19 -36 12 -42 -6 -7 -18 2
-25 20 -7 18 -23 33 -37 33 -38 0 -98 74 -72 89 11 7 21 31 21 52 0 22 10 39
22 39 12 0 18 -11 13 -24z m-102 -65 c-6 -15 -1 -32 12 -36 26 -9 5 -75 -24
-75 -11 0 -15 12 -9 27 6 15 -4 33 -22 40 -27 10 -28 18 -6 42 34 38 63 39 49
2z m527 -52 c0 -11 -11 -19 -25 -20 -14 0 -9 -9 10 -21 19 -11 35 -30 35 -41
0 -27 -55 16 -80 62 -13 25 -8 33 22 36 21 1 38 -6 38 -16z m-334 -227 c71
-43 56 -67 -40 -64 -70 2 -76 7 -77 59 0 32 -17 69 -37 84 -21 15 -30 36 -21
51 11 17 31 6 67 -36 29 -32 77 -75 108 -94z m174 108 c0 -33 9 -38 48 -29 27
7 54 2 62 -12 11 -17 19 -17 31 3 9 15 24 19 33 10 9 -10 4 -22 -11 -27 -15
-5 -42 -27 -59 -47 -30 -34 -35 -35 -68 -4 -34 31 -36 29 -24 -31 10 -49 6
-63 -18 -63 -22 0 -28 18 -24 68 4 38 -6 85 -21 105 -38 51 -36 67 11 67 27 0
40 -13 40 -40z m-57 -85 c-15 -15 -30 -14 -52 4 -43 36 -18 66 32 39 29 -15
35 -28 20 -43z m185 -109 c-18 -13 -27 -32 -20 -43 15 -24 -42 -163 -67 -163
-10 0 -22 11 -27 25 -5 15 -16 18 -26 7 -11 -10 -8 -21 7 -26 14 -5 25 -23 25
-39 0 -16 -9 -24 -20 -17 -12 7 -53 -7 -92 -31 -47 -29 -78 -37 -91 -24 -31
31 41 90 96 80 26 -5 47 -2 47 8 0 9 -9 17 -20 17 -11 0 -16 20 -12 45 4 25
-3 57 -14 72 -16 19 -14 31 7 44 43 27 53 24 108 -36 49 -52 51 -53 51 -11 0
24 -9 49 -20 56 -39 24 -22 73 21 60 22 -7 39 -6 37 3 -7 41 4 54 22 27 14
-21 10 -37 -12 -54z m780 -10 c-7 -10 7 -37 30 -58 49 -46 54 -89 12 -105 -17
-7 -30 -1 -30 14 0 35 -47 133 -64 133 -8 0 -10 13 -4 29 6 16 24 24 40 18 15
-6 22 -20 16 -31z m-1186 -196 c21 0 38 -10 38 -21 0 -12 -9 -16 -21 -9 -13 9
-16 -5 -8 -39 11 -42 7 -49 -19 -39 -22 8 -32 1 -33 -25 -2 -34 -3 -34 -19 3
-27 62 -25 128 2 90 16 -23 19 -16 10 30 -6 33 -6 49 0 35 6 -14 29 -25 50
-25z m1178 27 c0 -7 -34 -51 -75 -98 -166 -191 -215 -254 -222 -286 -5 -18 22
-1 60 39 37 40 79 68 94 63 19 -7 10 -26 -29 -67 -31 -32 -45 -58 -33 -58 12
0 28 9 35 20 14 23 50 27 50 5 0 -22 -223 -109 -238 -93 -6 7 -2 17 11 22 12
4 19 24 13 43 -5 20 5 48 23 62 17 14 31 38 31 53 0 32 234 308 261 308 10 0
19 -6 19 -13z m108 -19 c38 -15 42 -70 7 -105 -20 -20 -19 -23 8 -13 28 11 31
0 22 -79 -9 -79 -6 -90 22 -79 18 7 33 2 33 -10 0 -12 -17 -22 -38 -22 -102 0
-88 -87 16 -89 69 -1 80 -51 12 -51 -40 0 -51 -8 -43 -30 7 -16 8 -30 4 -30
-4 0 -21 -5 -38 -12 -22 -8 -27 -1 -20 28 11 42 -53 79 -93 54 -11 -7 -20 0
-20 16 0 15 23 38 52 51 52 24 57 63 9 79 -15 5 -21 0 -14 -12 13 -20 -105
-93 -122 -76 -4 5 24 44 63 88 40 43 72 96 72 116 -1 31 -4 33 -19 9 -10 -16
-14 -36 -9 -44 5 -8 -9 -25 -31 -37 -33 -17 -41 -15 -41 9 0 17 9 31 20 31 11
0 20 13 20 29 0 16 15 37 33 47 22 13 29 34 21 63 -8 34 -4 41 20 32 21 -8 27
-2 19 19 -13 34 -10 35 35 18z m404 -93 c20 -47 40 -92 44 -100 4 -8 -3 -15
-15 -15 -20 0 -64 81 -70 130 -2 11 -13 18 -26 15 -13 -2 -19 8 -12 25 19 50
41 34 79 -55z m-959 -31 c2 -34 -5 -44 -27 -35 -32 12 -31 -8 6 -129 13 -44
11 -47 -16 -24 -27 21 -33 17 -45 -29 -12 -49 -16 -51 -45 -21 -27 27 -28 37
-6 63 22 28 20 30 -12 18 -33 -13 -35 -10 -12 18 15 18 40 28 55 22 44 -17 34
29 -11 53 -31 17 -37 15 -28 -8 11 -29 -26 -65 -46 -45 -29 29 17 151 60 158
95 16 124 6 127 -41z m-361 -196 c-9 -22 -4 -29 16 -22 39 16 16 -62 -25 -84
-43 -23 -187 1 -198 33 -4 13 13 32 38 42 39 15 148 53 174 61 4 1 2 -13 -5
-30z m1459 -77 c35 -27 36 -30 4 -30 -19 -1 -35 7 -35 16 0 10 -22 13 -50 8
-29 -6 -50 0 -50 13 0 32 86 27 131 -7z m-216 -31 c16 -25 18 -40 5 -40 -12 0
-27 14 -33 32 -8 20 -17 24 -26 10 -9 -15 -26 -13 -52 7 -37 28 -36 30 21 30
39 1 69 -13 85 -39z"/>
<path d="M2276 3959 c-12 -78 18 -97 44 -29 27 71 25 90 -8 90 -15 0 -31 -27
-36 -61z"/>
<path d="M2580 3914 c35 -28 45 -61 44 -141 -1 -53 0 -55 27 -20 15 20 28 48
28 62 1 14 11 23 24 20 12 -3 27 8 32 23 8 20 -3 25 -40 18 -34 -6 -57 2 -72
27 -13 20 -35 37 -48 36 -17 0 -16 -8 5 -25z"/>
<path d="M3039 2341 c17 -10 24 -25 16 -33 -8 -7 -26 -4 -40 8 -19 16 -31 9
-48 -27 -27 -57 0 -85 44 -48 23 19 42 20 80 2 48 -22 49 -21 25 22 -13 25
-22 56 -19 70 3 14 -15 25 -41 25 -36 -1 -40 -5 -17 -19z"/>
<path d="M1189 7179 c-8 -13 -3 -31 12 -39 33 -21 83 -2 73 27 -10 32 -67 40
-85 12z"/>
<path d="M3130 7160 c-7 -11 -30 -20 -51 -20 -22 0 -39 -2 -39 -5 3 -41 58
-155 59 -120 1 25 10 45 21 45 11 0 20 13 20 28 0 16 27 35 60 42 33 7 60 21
60 32 0 25 -114 23 -130 -2z"/>
<path d="M1977 7046 c-24 -29 -23 -32 10 -20 20 8 54 14 76 14 22 0 34 9 27
20 -19 31 -82 24 -113 -14z"/>
<path d="M3540 6870 c-14 -16 -36 -30 -49 -30 -26 0 -111 -83 -111 -108 0 -9
28 8 62 36 33 29 81 52 105 52 69 1 111 35 73 60 -41 26 -51 25 -80 -10z"/>
<path d="M860 6740 c0 -50 89 -56 108 -8 18 47 17 48 -48 48 -47 0 -60 -9 -60
-40z"/>
<path d="M1057 6626 c-24 -29 -23 -32 10 -20 20 8 49 14 65 14 15 0 28 9 28
20 0 33 -73 23 -103 -14z"/>
<path d="M3490 6311 c-61 -19 -70 -28 -40 -34 45 -10 130 20 130 46 0 9 -2 16
-5 15 -3 -1 -41 -13 -85 -27z"/>
<path d="M3606 6246 l-64 -8 43 -43 c26 -26 45 -34 50 -20 4 13 20 18 35 12
45 -17 76 12 49 45 -13 15 -30 27 -36 25 -7 -2 -42 -7 -77 -11z"/>
<path d="M3665 5995 c23 -65 23 -65 37 -15 8 28 15 37 16 22 1 -16 7 -24 12
-18 22 21 -15 76 -51 76 -33 0 -34 -7 -14 -65z"/>
<path d="M4019 5978 c-96 -86 -179 -144 -179 -124 0 31 -122 12 -176 -28 -38
-28 -76 -38 -124 -32 -65 8 -67 6 -33 -22 20 -16 31 -39 23 -52 -18 -29 29
-85 62 -72 17 7 22 -7 16 -44 -16 -95 -26 -107 -83 -101 -55 5 -185 -41 -185
-66 0 -28 140 -28 169 0 24 25 34 25 62 3 23 -20 36 -21 46 -5 8 12 39 32 69
44 47 17 52 27 35 59 -30 57 -27 62 38 62 36 0 70 15 87 40 26 38 32 39 100
10 91 -38 105 -38 74 0 -14 17 -43 30 -65 30 -35 0 -36 4 -12 33 24 30 22 32
-28 20 -30 -8 -55 -6 -55 4 0 44 122 36 166 -10 50 -52 137 -61 173 -18 32 39
10 71 -49 71 -26 0 -53 9 -60 20 -7 12 22 15 79 9 71 -9 91 -5 91 18 0 42 -99
53 -309 35 -10 -1 -1 -15 20 -31 42 -32 41 -33 -103 -41 -22 -1 -63 -23 -90
-48 -66 -62 -140 -103 -101 -55 25 30 21 33 -35 33 -34 0 -62 8 -62 18 0 25
64 38 110 22 26 -10 59 -1 96 25 30 21 67 40 81 42 14 3 52 29 84 59 32 30 88
68 124 85 36 17 65 39 65 50 0 37 -54 18 -121 -43z"/>
<path d="M813 5416 c-16 -61 -1 -69 47 -26 50 45 51 70 2 70 -22 0 -42 -18
-49 -44z"/>
<path d="M3684 5317 c3 -24 17 -48 31 -52 36 -12 56 56 23 77 -45 28 -61 21
-54 -25z"/>
<path d="M4099 5199 c-25 -17 -25 -22 1 -39 42 -27 60 -25 60 9 0 39 -26 52
-61 30z"/>
<path d="M593 4647 c-27 -28 -12 -47 37 -47 56 0 67 29 18 48 -39 15 -38 15
-55 -1z"/>
<path d="M5316 2962 c31 -28 72 -74 90 -101 19 -28 34 -38 34 -22 0 50 -87
158 -135 167 -44 8 -44 6 11 -44z"/>
<path d="M670 2721 c-21 -25 -25 -42 -11 -50 47 -29 19 -84 -60 -119 -57 -25
-78 -45 -70 -66 6 -16 11 -55 11 -87 0 -35 23 -84 60 -126 69 -78 76 -125 23
-142 -78 -25 -129 -106 -128 -201 1 -70 -8 -97 -41 -120 -60 -42 -23 -65 42
-25 47 28 54 46 57 134 2 106 25 151 84 166 33 9 36 -7 33 -189 -3 -171 11
-242 41 -212 4 4 10 71 12 147 3 76 11 148 19 159 33 48 -7 231 -65 293 -54
58 -60 97 -15 97 62 0 133 -126 143 -253 8 -103 21 -142 61 -184 55 -59 70
-198 34 -322 -14 -50 -11 -81 13 -126 24 -47 26 -71 9 -109 -28 -61 -28 -66 5
-66 51 0 75 93 48 192 -19 73 -19 93 3 107 55 33 36 294 -25 358 -40 41 -57
85 -67 165 -12 108 -87 258 -129 258 -14 0 -17 23 -8 65 7 36 18 95 24 131 15
86 47 73 83 -33 20 -60 51 -100 106 -137 91 -60 90 -55 37 -112 l-41 -44 41
-27 c28 -19 41 -49 41 -95 0 -79 34 -91 52 -18 8 32 0 69 -22 103 -34 51 -34
55 1 80 70 51 181 0 131 -60 -18 -23 -22 -61 -12 -133 8 -57 6 -112 -5 -126
-38 -48 -45 -94 -14 -94 16 0 29 12 29 28 0 15 14 39 31 53 22 18 29 55 25
137 -6 103 -2 113 39 118 94 14 -62 180 -174 185 -73 4 -149 72 -180 163 -46
137 -200 214 -271 137z"/>
<path d="M4300 2672 c0 -28 58 -61 76 -43 12 13 -35 71 -58 71 -10 0 -18 -13
-18 -28z"/>
<path d="M1600 2080 c0 -11 9 -20 19 -20 11 0 15 -12 9 -27 -5 -15 4 -38 21
-52 20 -17 25 -35 14 -49 -11 -14 -4 -36 18 -59 35 -36 36 -35 35 26 -1 34
-16 71 -34 81 -27 16 -28 22 -4 38 38 25 12 82 -37 82 -23 0 -41 -9 -41 -20z"/>
<path d="M1495 5 c828 -3 2182 -3 3010 0 828 3 151 5 -1505 5 -1655 0 -2333
-2 -1505 -5z"/>
</g>
</svg>
