<?xml version="1.0" standalone="no"?>
<!DOCTYPE svg PUBLIC "-//W3C//DTD SVG 20010904//EN"
 "http://www.w3.org/TR/2001/REC-SVG-20010904/DTD/svg10.dtd">
<svg version="1.0" xmlns="http://www.w3.org/2000/svg"
 width="300.000000pt" height="276.000000pt" viewBox="0 0 300.000000 276.000000"
 preserveAspectRatio="xMidYMid meet">
<metadata>
Created by potrace 1.10, written by Peter Selinger 2001-2011
</metadata>
<g transform="translate(0.000000,276.000000) scale(0.050000,-0.050000)"
fill="#000000" stroke="none">
<path d="M4165 4644 c-48 -7 -63 -44 -19 -44 65 0 149 -128 162 -247 11 -96 8
-116 -15 -107 -17 7 -37 -9 -50 -38 -19 -41 -29 -46 -62 -29 -53 29 -62 26
-46 -14 17 -47 57 -86 73 -71 6 7 12 3 12 -10 0 -12 -18 -39 -41 -60 -36 -34
-37 -41 -10 -63 26 -22 31 -20 31 7 0 47 31 39 76 -18 l40 -50 12 50 c7 27 7
85 0 129 -10 64 -6 83 19 93 22 8 29 27 21 58 -6 25 -2 52 10 59 94 58 -96
374 -213 355z"/>
<path d="M3855 4485 c-46 -51 -115 -271 -115 -364 0 -121 -90 -524 -139 -618
-50 -100 -96 -107 -197 -30 -53 40 -91 53 -152 50 -373 -15 -362 -16 -369 33
-3 25 4 59 17 74 16 20 17 48 2 102 -17 63 -15 85 18 138 78 126 118 410 59
410 -32 0 -99 -78 -99 -115 1 -30 4 -31 22 -5 34 47 5 -88 -40 -191 -53 -120
-154 -126 -173 -11 -34 202 -153 400 -277 461 -104 52 -134 30 -44 -32 105
-71 142 -158 222 -517 19 -85 -34 -174 -95 -162 l-57 11 54 -69 c29 -39 60
-70 69 -70 9 0 23 -42 31 -94 15 -103 -63 -197 -232 -279 -38 -18 -79 -44 -90
-57 -109 -130 -275 -50 -395 190 -130 260 -141 319 -116 648 28 386 44 418
121 245 33 -74 37 -77 39 -31 2 94 -134 337 -166 296 -3 -4 -20 -91 -38 -193
-28 -163 -228 -672 -295 -751 -24 -28 -140 98 -140 152 0 32 -23 67 -66 100
-36 27 -88 82 -115 122 -52 76 -86 95 -65 37 24 -70 155 -277 217 -345 127
-138 132 -191 30 -289 l-58 -56 -53 105 c-29 57 -48 116 -43 130 6 14 -5 30
-23 36 -20 5 -57 69 -90 157 -62 162 -59 156 -144 273 -62 85 -105 111 -80 49
8 -19 19 -71 25 -115 5 -44 21 -93 34 -110 45 -56 111 -182 111 -211 0 -16 9
-29 20 -29 11 0 20 -22 20 -48 0 -27 8 -52 17 -55 44 -17 123 -213 91 -225
-132 -50 -212 5 -247 168 -26 129 -137 415 -167 434 -13 8 -15 -1 -5 -26 8
-21 20 -101 26 -177 8 -107 20 -147 51 -172 28 -22 41 -59 43 -121 6 -165 41
-194 256 -212 151 -13 164 -31 82 -113 -29 -29 -43 -53 -31 -53 11 0 -11 -74
-51 -165 -90 -207 -89 -239 10 -485 82 -203 124 -367 215 -850 57 -296 89
-420 110 -420 7 0 -3 83 -23 185 -51 264 -46 311 16 155 62 -155 75 -171 264
-324 188 -153 208 -133 39 40 -213 217 -206 514 8 334 91 -77 162 -70 87 9
-61 63 -62 121 -7 306 30 101 36 97 113 -74 61 -137 65 -155 43 -222 -70 -212
11 -393 209 -467 l101 -38 -6 -117 c-20 -352 -189 -619 -430 -677 -62 -15 -91
-35 -111 -77 -31 -64 -18 -90 26 -54 17 14 78 26 136 28 73 2 129 18 183 51
65 41 101 48 215 45 148 -4 159 6 107 97 -42 74 -36 420 8 420 15 0 182 -349
182 -380 0 -25 13 -25 61 1 37 19 32 33 -79 255 l-118 235 68 75 c58 62 81 74
150 74 45 0 137 14 203 31 90 24 125 26 135 9 10 -16 18 -14 26 8 13 33 214
143 214 116 0 -9 -8 -25 -17 -35 -52 -57 -59 -145 -21 -281 45 -164 49 -294 9
-327 -18 -15 -24 -46 -17 -89 6 -37 0 -86 -13 -110 -21 -39 -16 -46 48 -73 47
-19 71 -43 71 -68 0 -30 18 -42 75 -51 41 -7 91 -15 110 -19 19 -4 35 1 35 11
0 10 14 18 30 18 43 0 37 46 -15 107 -68 79 -145 180 -146 192 -1 6 -8 39 -16
74 -20 83 19 367 68 496 22 55 39 142 39 192 0 50 11 107 25 126 24 32 54 40
250 67 100 13 110 36 23 53 -107 22 -239 15 -233 -11 3 -13 -10 -27 -28 -31
-43 -9 -62 70 -45 193 15 113 -20 404 -63 526 -25 70 -26 103 -7 182 17 72 17
103 0 120 -12 12 -22 38 -22 58 0 20 -9 36 -20 36 -11 0 -20 14 -20 30 0 46
65 37 241 -33 198 -78 345 -212 439 -396 l64 -128 -25 -263 c-29 -308 -21
-356 36 -228 53 122 186 271 207 233 23 -41 -68 -399 -122 -477 -25 -37 -78
-102 -117 -143 -39 -41 -65 -80 -58 -87 18 -18 271 228 287 278 7 22 51 99 98
172 152 235 180 338 231 842 10 94 31 242 47 330 45 234 42 251 -74 475 -59
113 -128 255 -153 316 l-45 112 52 103 c59 117 65 202 22 323 -22 63 -23 82
-5 75 14 -4 22 -25 18 -45 -6 -33 -3 -34 28 -8 19 16 38 27 42 24 4 -3 7 0 7
5 0 6 0 25 0 42 0 27 -5 28 -30 8 -25 -21 -30 -18 -30 19 0 24 -9 38 -20 31
-11 -7 -20 -1 -20 14 -1 14 -20 -4 -44 -42 -38 -59 -40 -70 -13 -90 33 -24 71
-143 40 -124 -24 15 -43 -34 -43 -111 0 -89 -55 -137 -71 -63 -39 179 -89 228
-64 63 21 -135 1 -183 -55 -137 -18 15 -27 38 -22 53 6 14 2 31 -8 37 -10 6
-13 24 -8 39 6 16 -8 38 -32 51 -26 14 -39 35 -32 53 6 16 -24 92 -68 170 -44
77 -80 149 -80 159 0 10 -8 18 -18 18 -33 0 -40 86 -11 142 62 119 16 283 -56
203z m131 -870 c17 -57 16 -81 -3 -100 -39 -39 -80 56 -65 150 1 8 -5 15 -15
15 -9 0 -17 11 -18 25 -2 14 -7 70 -13 125 l-10 100 51 -120 c28 -66 61 -154
73 -195z m-2317 87 c-14 -86 -36 -177 -49 -202 -19 -36 -19 -49 3 -62 24 -16
10 -26 -27 -21 -7 1 -19 -16 -26 -37 -7 -22 -22 -40 -33 -40 -11 0 -7 -13 9
-28 19 -20 29 -80 30 -185 4 -235 26 -448 46 -436 10 6 18 -3 18 -21 0 -18 -9
-27 -20 -20 -12 7 -20 -13 -20 -49 0 -98 -26 -72 -120 118 -84 173 -86 181
-52 218 33 38 33 40 -8 53 l-42 13 42 71 c46 79 55 76 -77 34 -73 -22 -65 49
17 157 63 83 80 122 80 188 0 66 10 89 50 115 28 18 50 44 50 58 0 23 133 234
148 234 3 0 -5 -71 -19 -158z m1131 120 c0 -26 -55 -43 -94 -28 -30 12 -29 15
5 28 54 21 89 21 89 0z m-18 -88 c-34 -34 -26 -53 17 -44 27 5 35 -1 28 -21
-6 -15 -17 -27 -24 -26 -7 1 -17 0 -23 -2 -56 -22 -83 -15 -74 20 8 29 0 39
-28 39 -47 0 -51 35 -4 44 84 16 130 12 108 -10z m1338 -206 c0 -28 -49 -81
-155 -165 -161 -127 -212 -143 -345 -105 l-50 14 60 21 c33 12 65 21 70 21 66
-4 100 54 102 172 0 68 6 111 13 95 6 -16 19 -39 29 -50 9 -12 29 -38 43 -58
35 -52 193 40 193 112 1 36 4 39 20 15 11 -16 20 -49 20 -72z m-1300 14 c0
-10 5 -33 12 -50 10 -25 -1 -32 -50 -32 -34 0 -62 10 -62 21 0 12 -7 17 -16
12 -9 -6 -28 -3 -44 7 -20 12 -9 22 41 37 91 26 119 27 119 5z m1530 -178 c7
-52 43 -170 79 -263 67 -169 71 -221 19 -221 -39 0 -35 -28 10 -68 58 -53 77
-256 20 -221 -10 6 -18 -3 -18 -20 0 -17 -10 -31 -21 -31 -12 0 -17 7 -11 16
5 9 -8 27 -29 40 -34 21 -39 19 -41 -16 -4 -57 -6 -64 -36 -119 -15 -27 -34
-72 -43 -100 -12 -39 -16 -24 -17 63 -1 62 7 119 19 127 14 8 14 21 -2 41 -25
29 23 272 62 320 20 23 15 83 -18 218 -42 169 -51 352 -17 339 18 -7 36 -49
44 -105z m-1374 8 c24 0 44 -6 44 -15 0 -10 -8 -17 -18 -17 -11 0 -45 -22 -78
-49 -32 -28 -64 -44 -71 -37 -7 7 -13 3 -13 -9 0 -53 138 -19 175 43 40 69
171 77 136 9 -8 -15 5 -5 28 21 42 48 85 46 46 -3 -11 -14 -30 -57 -43 -96
-12 -39 -49 -99 -81 -134 -73 -81 -42 -105 48 -37 57 43 69 46 79 20 18 -46
15 -72 -7 -59 -12 8 -16 -16 -10 -59 11 -87 -29 -111 -108 -65 -123 71 -171
65 -270 -36 -51 -51 -91 -98 -90 -106 9 -65 -11 -55 -34 17 -36 113 -36 120 0
120 17 0 44 27 61 60 l31 60 -92 -45 c-86 -42 -93 -42 -112 -10 -10 20 -43 35
-73 35 -151 1 -83 146 71 151 43 2 89 9 102 17 13 8 30 10 39 4 9 -5 26 7 39
28 22 35 17 37 -98 30 -116 -7 -120 -6 -88 29 18 20 41 62 50 94 l18 57 1 -54
c1 -35 16 -58 44 -66 52 -17 74 3 39 35 -21 20 -24 20 -13 0 8 -14 6 -25 -5
-25 -10 0 -22 27 -27 60 l-9 61 56 -54 c31 -30 59 -50 62 -46 4 5 22 44 42 88
l36 78 24 -48 c16 -31 42 -48 69 -47z m1244 33 c0 -19 6 -84 12 -145 l12 -110
-67 126 c-57 107 -62 128 -37 145 47 29 80 22 80 -16z m-760 -44 c0 -29 -71
-44 -133 -29 -50 13 -52 16 -16 30 56 22 149 21 149 -1z m709 -204 c66 -156
81 -178 102 -149 22 30 25 29 35 -9 7 -28 0 -45 -23 -53 -18 -7 -48 -25 -67
-41 -56 -48 -233 329 -188 400 39 62 62 38 141 -148z m-2478 38 c66 -208 134
-366 179 -423 l47 -58 146 92 c151 94 192 91 140 -14 -12 -23 -30 -76 -41
-117 -17 -69 -98 -176 -277 -369 -52 -55 -76 -68 -114 -58 -27 7 -54 3 -61 -8
-7 -11 -35 -20 -62 -20 -38 0 -57 -17 -79 -69 -33 -80 -37 -118 -10 -102 31
20 121 -11 121 -41 0 -15 14 -28 30 -28 56 0 108 -141 63 -168 -101 -59 -122
-89 -131 -177 -3 -30 -46 -14 -82 29 -41 52 -26 115 45 191 62 66 61 102 -2
101 -98 -2 -103 2 -103 77 0 142 63 297 100 247 62 -83 104 -32 59 73 -46 106
-50 179 -11 193 19 8 37 -20 60 -92 76 -241 112 -200 66 74 -20 113 -30 219
-24 235 6 16 -7 50 -29 76 -36 42 -41 43 -41 10 0 -110 -41 26 -52 174 -21
266 7 343 63 172z m264 -99 c28 -30 77 -60 109 -67 l59 -13 -67 -49 -66 -49
-37 46 c-58 71 -133 230 -133 280 0 40 5 37 42 -24 23 -38 65 -94 93 -124z
m2107 -107 c43 -131 87 -255 98 -274 11 -19 21 -55 22 -80 3 -68 33 33 36 120
1 36 10 65 19 65 25 0 -9 -222 -81 -520 -43 -176 -68 -249 -72 -210 -10 106
-48 172 -127 222 -93 59 -94 68 -14 114 58 33 60 37 27 61 -28 21 -31 34 -13
68 49 92 15 166 -41 89 -133 -183 -344 -117 -426 132 -19 59 -47 112 -63 118
-16 6 -25 24 -19 39 6 15 2 27 -10 27 -12 0 -17 -44 -14 -108 3 -59 13 -104
21 -99 8 5 15 1 15 -10 0 -11 -11 -23 -24 -28 -15 -5 -22 -40 -19 -91 4 -79
-11 -103 -45 -69 -9 8 -26 15 -39 15 -40 0 -22 417 24 535 12 30 16 69 9 88
-11 28 -2 30 56 18 37 -7 117 -20 176 -27 118 -15 156 -55 73 -76 -37 -9 -82
3 -151 38 -55 29 -104 44 -109 35 -6 -9 3 -22 20 -29 18 -6 26 -21 19 -32 -20
-32 52 -49 73 -18 14 22 17 19 13 -10 -17 -114 188 -131 225 -19 15 45 33 66
50 60 14 -6 61 15 103 47 103 77 100 80 188 -191z m-2683 -98 c0 -37 -3 -37
-29 9 -39 69 -39 124 1 71 16 -21 29 -57 28 -80z m555 -15 c-33 -21 -59 -20
-45 2 6 9 -10 43 -34 74 l-45 57 74 -59 c51 -40 67 -63 50 -74z m455 10 c-13
-80 -133 -248 -159 -223 -35 35 15 199 70 227 30 16 61 44 68 62 22 57 34 18
21 -66z m-1129 36 c0 -8 -11 -25 -24 -38 -19 -19 -12 -24 29 -24 49 0 64 -22
164 -233 132 -277 131 -257 33 -502 -42 -107 -89 -249 -104 -315 l-27 -120
-14 80 c-26 152 -22 299 10 370 31 70 14 109 -62 143 -15 7 -105 181 -105 204
0 24 40 13 77 -22 175 -166 185 -174 172 -135 -35 106 -75 171 -137 225 -42
37 -62 69 -52 84 8 14 1 77 -16 140 -33 124 -24 187 25 169 17 -7 31 -19 31
-26z m1299 -163 l60 -89 -55 -7 c-80 -9 -104 -43 -31 -43 80 0 165 -85 128
-129 -13 -16 -20 -36 -15 -45 17 -29 -24 -106 -58 -106 -28 0 -31 -17 -20
-125 l14 -125 -112 -58 c-122 -63 -364 -276 -409 -360 -15 -28 -34 -52 -41
-52 -14 0 -140 260 -140 289 0 10 -14 34 -32 53 -29 32 -26 38 29 79 33 25 71
70 83 100 13 31 74 89 137 131 l113 75 -165 -175 c-267 -282 -223 -281 80 3
147 138 263 210 375 233 107 22 140 74 44 68 -85 -5 -136 28 -110 71 6 10 -1
14 -16 9 -15 -5 -40 -34 -55 -64 -15 -30 -30 -52 -34 -47 -16 16 36 160 82
229 27 39 49 91 49 115 0 41 19 79 33 65 3 -3 33 -46 66 -95z m399 46 c2 39
18 43 60 17 15 -10 23 -35 17 -57 -7 -30 0 -39 31 -37 32 2 42 -11 44 -58 6
-108 52 -202 80 -163 14 18 38 33 55 33 47 0 -2 -92 -65 -122 l-50 -25 60 -12
c59 -12 59 -13 11 -26 -27 -7 -60 -4 -74 7 -17 15 -30 9 -46 -21 -19 -35 -30
-38 -64 -19 -25 13 -37 14 -29 2 7 -11 1 -24 -12 -29 -36 -12 -116 7 -116 28
0 9 -38 13 -85 8 -47 -5 -69 -5 -50 1 44 14 44 20 -4 87 -46 64 -31 97 21 49
33 -29 40 -26 107 43 62 63 81 72 133 62 60 -12 61 -11 47 52 -7 36 -17 68
-20 72 -12 14 -49 -20 -40 -36 6 -9 -5 -29 -23 -44 -30 -24 -32 -22 -19 11 11
30 8 33 -13 16 -35 -30 -44 89 -12 168 l24 58 15 -50 c10 -33 16 -38 17 -15z
m1442 -464 c-12 -23 -31 -37 -41 -30 -10 6 -19 -5 -19 -25 -1 -20 -19 -58 -41
-86 l-41 -50 30 75 c17 42 30 82 30 90 -1 7 15 20 36 28 20 8 28 15 19 16 -10
0 -6 15 9 33 34 42 48 4 18 -51z m-1179 -30 c-14 -16 -19 -38 -12 -49 6 -11
-6 -18 -27 -17 -22 2 -37 8 -34 14 3 6 11 27 18 46 7 19 28 35 46 35 27 0 28
-6 9 -29z m-421 -29 c0 -18 -82 -46 -96 -33 -4 5 -2 18 5 30 16 25 91 28 91 3z
m240 -20 c0 -22 -81 -44 -106 -29 -10 7 -6 20 9 29 35 23 97 23 97 0z m23 -58
c-44 -14 -25 -61 20 -49 28 7 39 4 30 -10 -7 -12 -2 -26 12 -32 14 -5 5 -11
-20 -11 -28 -1 -45 -15 -45 -34 0 -27 5 -28 30 -8 43 35 37 6 -12 -63 -45 -63
-131 -34 -105 35 11 28 -45 63 -66 41 -7 -6 3 -49 22 -95 35 -88 48 -315 23
-393 -23 -71 -52 -53 -52 33 0 103 -19 156 -42 119 -12 -18 -17 -3 -17 43 0
46 5 61 16 43 27 -41 41 91 23 207 -9 55 -12 107 -7 115 14 23 87 18 87 -6 0
-12 9 -16 20 -9 31 19 24 46 -15 56 -21 6 -13 10 21 12 32 1 61 16 68 36 10
26 15 28 23 6 5 -15 -1 -31 -14 -36z m1355 -62 c-44 -83 -50 -188 -12 -226 58
-58 53 -112 -13 -139 -96 -40 -108 -37 -121 26 -6 33 -21 54 -32 47 -28 -18
-25 17 5 47 20 20 18 23 -10 12 -62 -24 -40 59 41 153 41 48 92 114 112 146
53 84 80 26 30 -66z m-1630 55 c-10 -17 5 -20 54 -10 48 9 59 7 38 -7 -43 -28
-86 -25 -131 9 -38 29 -38 30 7 30 30 1 41 -7 32 -22z m53 -110 c12 -30 14
-93 6 -145 -12 -80 -16 -86 -29 -42 -12 43 -15 39 -18 -30 -7 -144 -32 -195
-48 -100 -7 44 -27 132 -43 195 -35 136 -34 135 -9 135 11 0 21 -16 22 -35 1
-28 3 -29 13 -5 10 25 62 77 80 79 4 1 15 -23 26 -52z m391 -48 c-7 -62 -3
-96 9 -89 10 7 19 -10 19 -38 0 -27 -10 -56 -21 -63 -12 -7 -30 -36 -41 -64
-44 -116 -57 55 -19 241 30 143 68 153 53 13z m-563 -55 c28 -88 -22 -304 -70
-304 -13 0 -14 12 -1 36 10 19 16 84 13 144 -8 147 27 221 58 124z m413 -356
l-40 -98 -4 90 c-8 165 6 288 39 338 55 84 59 -198 5 -330z m-602 156 c-33
-78 -60 -176 -60 -219 0 -42 -13 -126 -28 -186 -16 -60 -25 -131 -20 -159 5
-27 -8 -86 -28 -130 l-37 -80 -114 236 c-62 129 -113 245 -113 257 0 70 259
330 410 412 57 32 57 25 -10 -131z m826 -59 c6 -30 2 -68 -7 -85 -13 -22 -18
-23 -18 -4 -1 15 -11 20 -24 12 -16 -10 -19 0 -10 34 7 26 13 59 13 73 0 48
35 25 46 -30z m-1793 -225 l-53 -63 0 99 c0 70 -9 103 -30 111 -16 7 -30 28
-30 47 0 26 22 14 83 -48 l83 -83 -53 -63z m1266 50 c0 -44 -13 -102 -29 -130
-31 -55 -38 -101 -15 -98 44 7 65 -6 65 -41 0 -22 24 -63 53 -92 l52 -52 -13
53 c-14 56 4 190 26 190 40 0 82 -163 53 -204 -26 -38 -26 -45 5 -69 57 -44
-10 -68 -331 -117 -94 -15 -119 51 -61 156 13 24 30 104 37 178 23 242 159
437 158 226z m451 -193 l0 -194 -85 -41 c-95 -46 -102 -34 -47 75 31 61 80
302 83 409 0 13 11 6 25 -16 14 -24 24 -116 24 -233z m-1109 -139 c95 -190 90
-214 -21 -103 -70 71 -80 91 -80 173 0 123 6 118 101 -70z"/>
<path d="M2934 3120 c-6 -25 -2 -35 11 -27 14 9 17 1 9 -20 -13 -33 15 -47 34
-16 13 21 -9 103 -28 103 -8 0 -20 -18 -26 -40z"/>
<path d="M2766 3107 c8 -7 2 -27 -11 -44 -21 -25 -19 -28 9 -18 19 7 40 5 47
-6 15 -25 69 -25 69 1 0 11 -14 20 -32 20 -20 0 -28 11 -21 30 8 21 -1 30 -31
30 -23 0 -37 -6 -30 -13z"/>
<path d="M3687 2844 c7 -11 4 -24 -8 -28 -11 -3 8 -34 43 -66 35 -33 57 -47
48 -32 -13 22 -8 26 22 15 33 -11 34 -10 8 12 -16 14 -40 43 -51 64 -12 21
-34 43 -48 47 -15 5 -21 0 -14 -12z"/>
<path d="M2986 2426 c-34 -5 -75 -23 -90 -40 -23 -29 -21 -30 21 -7 26 14 73
21 103 17 40 -6 53 -1 46 18 -6 14 -12 25 -13 23 -2 -2 -32 -7 -67 -11z"/>
<path d="M4192 4390 c14 -58 -43 -95 -75 -48 -12 19 -14 8 -5 -32 17 -75 19
-78 58 -63 18 7 27 22 20 33 -7 11 -4 20 6 20 34 0 69 105 40 123 -45 28 -57
19 -44 -33z"/>
<path d="M4321 3845 c4 -82 36 -117 38 -40 0 41 -8 75 -19 75 -11 0 -19 -16
-19 -35z"/>
</g>
</svg>
