<?xml version="1.0" standalone="no"?>
<!DOCTYPE svg PUBLIC "-//W3C//DTD SVG 20010904//EN"
 "http://www.w3.org/TR/2001/REC-SVG-20010904/DTD/svg10.dtd">
<svg version="1.0" xmlns="http://www.w3.org/2000/svg"
 width="300.000000pt" height="178.000000pt" viewBox="0 0 300.000000 178.000000"
 preserveAspectRatio="xMidYMid meet">
<metadata>
Created by potrace 1.10, written by Peter Selinger 2001-2011
</metadata>
<g transform="translate(0.000000,178.000000) scale(0.050000,-0.050000)"
fill="#000000" stroke="none">
<path d="M3370 3248 c-152 -79 -222 -207 -236 -433 -5 -87 0 -93 25 -30 l18
45 2 -44 c1 -44 41 -88 41 -46 0 12 10 16 22 9 15 -9 15 -20 1 -34 -15 -15
-30 -14 -50 2 -22 19 -30 16 -38 -14 -5 -20 -49 -59 -97 -85 -124 -69 -185
-165 -170 -272 6 -46 3 -89 -6 -95 -10 -6 -23 -42 -31 -80 -7 -39 -24 -77 -37
-85 -14 -9 -41 -41 -60 -72 -20 -30 -44 -50 -55 -43 -10 6 -19 -5 -19 -26 0
-21 -13 -55 -29 -76 -17 -22 -30 -54 -30 -72 -1 -18 -15 -38 -32 -45 -17 -6
-43 -42 -59 -78 -42 -102 -63 -111 -398 -171 -226 -41 -320 -66 -338 -91 -17
-23 -65 -38 -144 -46 -95 -9 -115 -6 -97 14 13 13 65 29 116 35 91 10 149 45
74 45 -115 0 -57 144 86 214 110 54 135 78 86 81 -14 1 -68 8 -120 16 -129 18
-210 0 -324 -72 l-96 -61 67 -36 c98 -52 158 -158 110 -193 -37 -27 -39 -139
-2 -139 106 -2 88 -286 -25 -399 l-48 -49 86 -43 c263 -135 586 -16 799 294
102 148 6 172 -146 36 -81 -73 -196 -114 -275 -97 -40 9 -44 7 -21 -10 26 -19
26 -21 -2 -22 -18 0 -55 18 -83 40 -28 21 -74 48 -103 59 -55 21 -72 81 -24
81 16 0 32 -7 35 -15 4 -8 34 -37 67 -65 49 -41 53 -42 23 -7 -48 58 -66 191
-30 220 15 12 162 45 327 75 165 29 320 58 344 65 35 9 47 1 57 -42 25 -96
245 -33 299 86 11 24 35 48 55 55 19 6 35 23 35 38 0 15 5 41 12 58 8 22 1 32
-25 33 -33 0 -32 4 8 38 25 21 45 46 43 55 -6 37 3 66 22 66 27 0 25 -53 -3
-106 -29 -53 -37 -141 -17 -173 8 -13 -3 -57 -23 -97 -20 -40 -37 -84 -37 -98
0 -14 -12 -26 -27 -26 -28 0 -22 -112 8 -150 8 -11 25 -87 36 -168 24 -171 12
-191 -192 -344 -120 -91 -130 -123 -44 -158 75 -31 212 -15 315 38 42 21 108
45 148 52 130 25 163 75 148 225 -16 157 16 225 105 225 69 0 154 -158 146
-273 -3 -41 11 -96 34 -133 21 -35 45 -93 52 -128 40 -187 351 -290 351 -116
0 37 13 52 55 62 272 63 488 428 537 908 6 61 17 124 23 140 18 48 7 320 -18
430 -87 385 -379 530 -598 297 l-69 -74 70 48 70 47 -70 -79 c-39 -43 -92
-113 -117 -154 -26 -43 -56 -69 -68 -62 -14 9 -17 1 -9 -21 8 -19 -1 -67 -18
-108 -178 -419 -113 -1152 114 -1281 79 -45 68 -82 -26 -97 -109 -17 -259 390
-267 728 -3 123 -11 233 -17 243 -7 11 -4 23 7 26 24 9 80 277 57 277 -21 0
-136 179 -136 212 0 19 11 19 48 1 27 -12 44 -29 39 -38 -5 -8 11 -44 35 -78
l45 -63 18 48 c10 26 21 62 25 79 3 17 38 84 76 150 39 65 65 128 58 139 -7
11 -16 4 -20 -15 -4 -20 -15 -30 -26 -24 -10 7 -14 19 -8 29 6 9 -8 23 -31 30
-24 8 -45 37 -53 73 -19 97 -60 17 -71 -139 -1 -14 -14 -21 -30 -15 -27 10
-145 -39 -145 -61 0 -6 8 -5 18 1 32 20 79 -11 76 -49 -1 -21 -9 -33 -18 -28
-8 5 -38 -5 -65 -23 -48 -31 -51 -31 -51 0 0 18 9 28 20 21 11 -7 14 1 8 19
-17 44 -48 18 -48 -40 0 -37 11 -50 45 -51 34 -2 37 -5 10 -12 -20 -5 -30 -17
-24 -28 16 -26 -41 -78 -85 -77 -33 2 -32 4 4 21 29 13 12 16 -58 8 -54 -5
-119 -10 -146 -10 -32 0 -44 -8 -36 -25 7 -14 -6 -3 -30 24 -31 35 -40 66 -33
115 5 36 1 71 -9 77 -10 6 -18 72 -18 146 0 89 -10 149 -31 178 -28 40 -28 51
1 112 27 58 131 178 130 151 0 -4 -12 -53 -27 -108 -65 -244 45 -603 147 -480
32 39 60 38 60 -2 0 -42 110 59 153 140 38 71 107 314 107 377 1 65 46 145 82
145 36 0 102 -60 84 -77 -6 -7 5 -18 26 -26 39 -15 86 -65 87 -93 1 -9 -10
-11 -24 -4 -14 7 -10 1 8 -14 18 -15 32 -45 32 -67 -1 -75 5 -91 30 -79 14 7
9 0 -11 -16 -32 -26 -32 -31 -3 -42 57 -21 70 -13 101 59 49 119 21 198 -104
293 -107 80 -116 93 -109 160 2 19 -6 68 -17 110 -12 42 -21 83 -21 91 2 47
-131 252 -187 290 -79 53 -86 54 -164 13z m110 -68 c9 0 23 -29 31 -65 7 -36
23 -77 35 -92 18 -21 10 -26 -37 -23 -127 9 -222 -42 -198 -106 11 -27 20 -30
41 -13 15 13 38 19 52 14 14 -5 41 -2 60 8 50 26 62 -13 25 -84 -21 -41 -42
-58 -62 -51 -17 7 -35 12 -40 12 -5 0 -5 7 1 17 8 12 -50 16 -83 5 -43 -15
-40 66 8 238 44 159 80 210 119 171 17 -17 38 -31 48 -31z m88 -444 c9 -45 4
-72 -18 -90 -16 -14 -21 -15 -10 -2 25 30 26 76 2 76 -10 0 -23 -22 -30 -50
-12 -48 -52 -71 -52 -30 0 11 -17 20 -38 20 -49 0 -95 55 -68 82 22 22 86 4
86 -24 0 -38 42 -16 60 32 26 68 52 63 68 -14z m-248 -161 c1 -17 7 -15 22 5
16 23 18 13 9 -39 -6 -39 -22 -79 -34 -90 -16 -15 -19 -14 -9 4 18 32 -12 33
-44 1 -19 -19 -24 -11 -24 36 0 57 30 108 64 108 9 0 16 -11 16 -25z m124 -62
c-37 -77 -50 -122 -46 -153 3 -27 1 -27 -17 0 -36 53 -25 143 19 154 23 6 41
28 42 53 1 25 6 32 12 16 6 -15 1 -46 -10 -70z m-159 -145 c6 -6 3 -39 -7 -74
-11 -39 -10 -70 2 -82 11 -11 20 -29 19 -41 0 -12 -10 -5 -21 15 -21 36 -22
36 -49 0 -25 -33 -28 -33 -28 -2 -1 18 8 39 19 46 12 7 11 26 -4 49 -32 52 28
130 69 89z m1040 -216 c19 -14 35 -37 35 -49 0 -13 12 -23 27 -23 28 0 73 -81
73 -131 0 -16 -10 -29 -21 -29 -12 0 -19 -16 -17 -35 8 -61 -26 -185 -54 -201
-22 -12 -25 -37 -12 -105 8 -49 14 -102 13 -119 -2 -16 -4 -49 -6 -73 -3 -37
-19 -27 -110 68 -73 76 -115 106 -133 95 -20 -12 -12 -28 31 -62 72 -58 54
-82 -29 -39 -55 28 -62 29 -62 2 0 -17 -9 -31 -19 -31 -25 0 -11 -44 51 -164
31 -59 41 -98 28 -106 -32 -20 -3 -50 36 -36 46 16 125 89 114 106 -4 7 4 13
20 13 23 0 23 -9 -2 -57 -16 -31 -25 -65 -19 -74 6 -10 -5 -16 -24 -15 -25 2
-37 -14 -42 -55 -5 -49 -1 -55 30 -44 30 12 32 9 12 -11 -34 -34 -31 -58 5
-44 50 19 36 -90 -20 -157 -27 -32 -51 -52 -51 -43 -1 10 -10 -1 -19 -23 -13
-30 -18 -32 -19 -8 0 17 14 61 31 97 38 76 15 112 -42 67 -39 -30 -39 -31 8
-20 45 11 46 9 16 -20 -26 -27 -37 -28 -63 -7 -43 36 -39 56 14 72 73 22 89
45 79 110 -7 51 -17 60 -49 52 -59 -16 -129 73 -155 198 -58 276 170 655 300
499 48 -58 134 51 111 141 -19 78 -51 57 -51 -35 0 -113 -33 -75 -48 54 -7 61
-5 81 5 50 15 -50 15 -50 27 -5 7 25 4 50 -5 56 -9 5 -13 26 -7 45 6 19 -4 9
-21 -21 -38 -64 -60 -72 -45 -15 6 22 2 35 -8 29 -24 -15 -23 45 3 92 24 46
37 47 84 11z m-146 -49 c16 -31 17 -43 3 -34 -15 9 -22 -17 -22 -78 0 -50 -9
-91 -20 -91 -11 0 -20 4 -20 8 0 5 -5 25 -12 45 -9 28 -7 30 8 10 14 -20 19
-14 19 25 0 71 -11 65 -48 -22 -21 -51 -24 -77 -9 -82 12 -4 22 -22 22 -41 -1
-29 -3 -29 -21 -3 -17 26 -23 25 -43 -9 -21 -37 -25 -35 -48 30 -28 79 -35
160 -13 157 41 -7 65 5 65 32 0 17 13 30 30 30 16 0 41 18 54 39 14 22 26 37
28 35 1 -2 14 -25 27 -51z m-1213 -4 c-6 -22 -28 -49 -48 -60 -46 -25 -31 36
19 76 40 33 41 32 29 -16z m687 -44 c31 -14 58 -41 60 -60 3 -43 -30 -44 -83
-2 -32 26 -33 30 -5 20 51 -17 43 17 -10 43 -63 30 -32 29 38 -1z m587 -149
c0 -59 -6 -66 -55 -65 -48 0 -51 3 -19 21 30 18 35 37 25 105 -12 77 -11 80
18 44 17 -21 31 -68 31 -105z m-290 -25 c39 -118 11 -203 -89 -277 l-57 -42
-13 68 c-8 46 -3 84 17 114 16 26 40 89 53 141 30 120 48 120 89 -4z m-1041
40 c6 -10 -9 -24 -34 -32 -25 -8 -53 -24 -62 -37 -10 -13 -12 -8 -5 15 7 20
12 45 12 55 0 24 74 23 89 -1z m-83 -130 c35 -26 35 -28 -7 -41 -34 -11 -38
-18 -17 -31 38 -24 11 -44 -98 -72 -116 -31 -124 -32 -124 -8 0 33 86 101 128
101 39 0 39 0 1 31 -37 30 -37 31 15 23 30 -4 50 -1 44 9 -16 26 17 19 58 -12z
m1674 6 c0 -9 -9 -17 -19 -17 -11 0 -15 -13 -8 -30 7 -19 -1 -30 -23 -30 -23
0 -30 10 -22 32 7 17 12 38 12 46 0 9 14 15 30 15 17 0 30 -7 30 -16z m-1307
-101 c-5 -20 -1 -36 9 -36 10 0 18 23 18 50 0 28 10 50 22 50 14 0 17 -19 9
-52 -8 -33 -5 -47 8 -38 12 7 21 24 21 39 0 36 61 58 88 31 15 -15 14 -33 -4
-60 -13 -22 -24 -53 -24 -70 0 -16 -13 -30 -29 -30 -16 0 -34 -9 -41 -20 -7
-12 -1 -19 13 -15 14 3 29 -16 33 -42 9 -57 -36 -50 -66 10 -11 22 -31 37 -45
32 -14 -5 -25 2 -25 14 0 13 -22 -2 -49 -33 -35 -39 -50 -47 -50 -25 -1 17 10
42 23 55 19 19 19 29 0 48 -18 18 -16 31 8 58 21 24 24 38 8 48 -16 10 -16 21
2 42 31 38 85 -4 71 -56z m784 -50 c-15 -18 -25 -51 -22 -74 4 -40 4 -40 -14
3 -14 33 -10 60 15 105 23 41 36 50 41 29 3 -17 -6 -45 -20 -63z m-406 36 c-6
-10 0 -23 14 -28 14 -4 18 -16 10 -25 -9 -9 -26 -6 -39 7 -43 43 -81 30 -55
-18 15 -27 16 -49 3 -62 -12 -12 -23 -2 -31 28 -6 25 -14 55 -17 66 -3 11 21
25 54 32 33 7 63 14 66 16 4 1 1 -6 -5 -16z m-771 -161 c0 -14 -52 -38 -103
-48 -8 -2 -20 -10 -29 -18 -26 -26 -48 -16 -48 23 0 27 21 43 75 57 77 19 105
15 105 -14z m1079 -21 c27 0 42 -60 28 -113 -9 -37 -17 -43 -29 -25 -8 15 -8
36 2 49 21 24 -47 94 -71 72 -8 -7 -2 10 12 37 23 42 28 44 35 15 4 -19 14
-35 23 -35z m-811 -29 c17 -27 32 -73 32 -103 0 -41 8 -51 36 -43 28 7 37 -4
40 -53 3 -34 10 -78 16 -97 8 -25 2 -32 -21 -23 -17 7 -31 3 -31 -8 0 -12 16
-24 35 -28 26 -6 19 -15 -30 -40 -73 -37 -81 -31 -77 56 1 36 -14 77 -36 100
-22 21 -31 25 -22 8 12 -23 10 -25 -8 -8 -19 18 -18 39 6 95 16 40 24 73 16
73 -8 0 -15 27 -16 60 -3 73 17 76 60 11z m424 -31 c15 0 28 -13 28 -30 0 -16
-11 -30 -25 -30 -17 -1 -15 -7 5 -20 26 -17 25 -19 -5 -20 -19 0 -35 -9 -35
-19 0 -10 16 -28 35 -39 28 -16 22 -19 -30 -18 -36 1 -71 -4 -79 -11 -7 -7 5
-13 26 -13 21 0 52 -10 68 -22 23 -16 15 -19 -35 -10 -37 6 -65 2 -65 -8 0
-11 16 -20 35 -20 19 0 46 -7 59 -16 20 -13 -76 -16 -198 -7 -45 4 -42 215 4
232 17 7 53 25 80 41 28 16 62 25 77 20 14 -6 39 -10 55 -10z m359 -88 c36
-55 57 -252 26 -252 -10 0 -15 -8 -9 -17 6 -10 -12 -13 -40 -8 l-51 10 51 53
c66 69 54 160 -15 112 -56 -40 -84 -38 -44 2 50 50 87 126 44 91 -29 -25 -33
-23 -33 15 0 56 32 53 71 -6z m579 -52 c9 -47 8 -63 -6 -50 -11 11 -26 52 -34
90 -9 47 -8 63 6 50 11 -11 26 -51 34 -90z m-259 9 c-43 -32 -74 -30 -86 7 -5
15 16 24 58 23 64 0 65 -2 28 -30z m188 -27 c34 -32 46 -136 19 -153 -10 -6
-12 5 -6 25 10 32 8 32 -20 -3 -36 -44 -40 -35 -13 35 30 81 -63 112 -116 38
-22 -30 -47 -46 -56 -37 -19 19 107 133 141 127 11 -2 35 -17 51 -32z m-397
-312 c-35 -61 -58 -120 -51 -131 6 -10 -3 -19 -20 -19 -49 0 -85 94 -48 125
16 14 55 60 85 102 88 119 113 63 34 -77z m404 115 c5 -8 -5 -46 -22 -85 l-30
-70 -16 57 c-23 83 32 163 68 98z m-297 -347 c-23 -37 -49 6 -48 78 l1 74 29
-67 c16 -37 24 -75 18 -85z m-119 -18 c-7 -11 -4 -20 7 -20 10 0 28 -25 39
-56 22 -64 -32 -87 -77 -33 -13 16 -31 24 -39 19 -9 -6 -26 18 -38 52 -18 53
-17 59 7 39 23 -19 26 -15 16 21 -9 36 -5 42 22 32 19 -8 33 -3 34 12 0 13 9
8 21 -11 11 -19 15 -44 8 -55z m-830 40 c49 -16 49 -16 -10 -18 -45 -2 -53 -7
-31 -21 23 -14 16 -23 -30 -41 -32 -13 -86 -37 -119 -54 -78 -40 -170 -67
-169 -50 1 23 157 124 194 125 30 2 29 4 -5 19 -35 15 -33 17 16 19 32 0 51
10 44 21 -14 23 38 23 110 0z"/>
<path d="M4222 1662 l-47 -41 47 -38 c26 -21 58 -34 71 -29 36 14 50 66 18 66
-16 0 -31 19 -35 42 l-6 42 -48 -42z"/>
<path d="M3310 1700 c-7 -11 -5 -20 4 -21 9 0 -5 -12 -32 -27 -35 -19 -41 -30
-22 -42 28 -17 80 38 80 84 0 31 -13 34 -30 6z"/>
</g>
</svg>
