<?xml version="1.0" standalone="no"?>
<!DOCTYPE svg PUBLIC "-//W3C//DTD SVG 20010904//EN"
 "http://www.w3.org/TR/2001/REC-SVG-20010904/DTD/svg10.dtd">
<svg version="1.0" xmlns="http://www.w3.org/2000/svg"
 width="182.000000pt" height="277.000000pt" viewBox="0 0 182.000000 277.000000"
 preserveAspectRatio="xMidYMid meet">
<metadata>
Created by potrace 1.10, written by Peter Selinger 2001-2011
</metadata>
<g transform="translate(0.000000,277.000000) scale(0.050000,-0.050000)"
fill="#000000" stroke="none">
<path d="M2896 5445 c-16 -19 2 -25 82 -25 68 0 102 8 102 25 0 16 -30 25 -82
25 -45 0 -91 -11 -102 -25z"/>
<path d="M3160 5445 c0 -17 39 -25 130 -25 91 0 130 8 130 25 0 17 -39 25
-130 25 -91 0 -130 -8 -130 -25z"/>
<path d="M879 5348 c-38 -39 -97 -83 -131 -97 -87 -37 -167 -364 -104 -427 18
-18 15 -32 -10 -60 -19 -21 -34 -70 -34 -111 0 -45 -17 -98 -44 -134 -41 -55
-42 -63 -13 -124 51 -111 22 -312 -60 -415 -60 -74 -66 -91 -54 -170 12 -78 9
-88 -33 -101 -120 -37 -217 -236 -175 -362 19 -57 18 -76 -7 -103 -39 -45 -16
-240 45 -375 76 -167 83 -210 81 -477 -1 -267 26 -352 112 -352 14 0 59 -31
99 -70 101 -95 169 -95 169 0 0 63 5 70 56 70 88 0 156 169 100 247 -98 134
-83 388 37 620 102 199 116 494 22 477 -73 -12 -65 111 20 296 77 168 146 190
198 65 18 -41 62 -109 99 -150 78 -86 87 -155 28 -230 -22 -28 -40 -75 -40
-106 0 -31 -18 -98 -40 -149 -22 -52 -39 -131 -38 -177 2 -46 -12 -132 -30
-193 -18 -60 -32 -173 -32 -250 2 -213 2 -215 -11 -292 -10 -55 0 -97 41 -179
79 -154 66 -272 -46 -429 -88 -122 -100 -166 -59 -207 20 -20 17 -32 -18 -59
-73 -59 -79 -231 -12 -397 61 -151 60 -185 -13 -481 -52 -211 44 -392 150
-286 14 14 33 8 58 -20 62 -69 220 -57 260 20 32 61 37 64 138 68 90 3 121
272 32 272 -68 0 -91 500 -28 595 37 57 44 309 10 355 -26 34 8 326 43 365 61
68 135 232 135 298 0 37 9 67 20 67 11 0 20 -7 20 -16 0 -9 41 -42 91 -74 156
-98 235 -282 160 -370 -87 -102 -102 -364 -26 -480 18 -28 46 -153 64 -290 53
-390 70 -425 229 -460 37 -8 120 -45 184 -83 128 -75 206 -76 225 -3 7 28 21
37 42 29 17 -7 44 -18 59 -25 109 -44 66 164 -50 241 -263 174 -319 387 -165
622 27 42 26 58 -6 160 l-36 113 75 68 c61 57 74 82 74 147 0 78 -10 95 -90
150 -48 33 -51 149 -10 323 43 177 -88 411 -280 500 -81 37 -100 56 -100 96 0
28 -10 73 -23 101 -19 42 -17 57 11 89 28 30 31 47 14 79 -46 85 11 243 88
243 15 0 30 11 35 25 5 14 24 -1 46 -35 20 -33 58 -85 83 -117 53 -64 66 -205
18 -187 -20 8 -32 -10 -41 -59 -14 -75 134 -287 201 -287 78 0 142 -346 79
-430 -95 -126 -105 -211 -34 -270 35 -29 63 -63 63 -76 0 -75 187 -47 236 35
19 32 51 88 72 125 21 36 41 98 44 136 12 181 53 333 123 461 l75 137 -56 58
c-42 43 -69 56 -107 48 -49 -9 -51 -6 -37 55 24 108 -22 187 -101 172 -74 -14
-99 34 -77 146 8 39 1 76 -20 106 -18 25 -32 69 -32 97 0 63 198 366 201 306
0 -9 13 1 30 23 67 90 -5 263 -100 239 -62 -15 -108 103 -73 188 38 93 15 209
-49 248 -67 41 -118 21 -137 -53 -24 -95 -117 -60 -172 63 -21 49 -48 84 -58
77 -58 -36 -210 285 -183 385 13 45 12 83 -1 107 -13 24 -13 50 0 74 52 97
-93 239 -261 256 -121 13 -213 -43 -292 -175 -18 -32 -50 -63 -70 -69 -19 -7
-30 -20 -24 -30 6 -11 -16 -19 -49 -19 -62 0 -97 -28 -62 -50 33 -20 23 -79
-18 -104 -31 -19 -41 -19 -49 4 -6 15 0 32 13 38 16 6 12 17 -12 32 -29 18
-31 29 -13 52 20 23 13 28 -39 28 -34 0 -62 9 -62 20 0 30 -87 10 -95 -22 -6
-22 -4 -22 10 -3 14 20 26 17 55 -15 20 -22 31 -40 24 -40 -7 0 10 -22 37 -49
100 -100 29 -177 -74 -79 -64 62 -130 182 -110 201 6 7 3 29 -8 50 -17 30 -13
37 20 37 24 0 36 -10 30 -26 -6 -15 6 -25 31 -25 22 0 40 10 40 24 0 54 -27
87 -71 87 -52 0 -149 39 -149 59 0 113 -202 132 -301 29z m152 -86 c-5 -18
-14 -95 -19 -172 -11 -167 12 -113 50 114 14 84 33 149 43 143 10 -6 13 -24 7
-40 -7 -16 -4 -24 6 -18 42 26 34 -346 -8 -386 -45 -42 -110 -47 -111 -9 -1
30 -5 29 -23 -9 -27 -55 -45 -56 -96 -5 -42 42 -71 54 -50 20 7 -11 3 -20 -9
-20 -40 0 -46 59 -13 135 31 70 32 71 21 13 -8 -45 -3 -61 18 -61 16 0 34 21
39 46 4 26 2 47 -7 47 -8 0 2 33 23 74 21 41 38 91 38 110 0 20 10 36 21 36
12 0 16 9 8 21 -7 11 -1 35 13 52 30 36 67 -32 49 -91z m1182 33 c-11 -43 -10
-44 18 -6 33 44 39 8 8 -50 -29 -56 -54 -48 -49 16 5 74 8 85 22 85 7 0 8 -20
1 -45z m-49 -42 c13 -24 21 -43 18 -43 -2 0 2 -17 10 -39 14 -36 16 -36 28 -1
15 43 100 63 100 23 0 -109 -248 -79 -265 32 -16 103 59 121 109 28z m-152 18
c27 -71 -3 -101 -36 -36 -28 55 -29 65 -4 65 16 0 34 -13 40 -29z m-1143 -78
c1 -30 -5 -65 -13 -79 -11 -17 -16 -16 -16 6 0 17 -18 4 -40 -30 -30 -45 -40
-51 -40 -24 0 20 -9 31 -20 24 -32 -20 -24 5 31 92 57 90 94 94 98 11z m1082
-74 c7 -11 32 -15 56 -7 42 13 42 12 7 -28 -36 -39 -36 -41 0 -52 44 -14 57
-92 15 -92 -16 0 -29 9 -29 20 0 11 -18 2 -40 -20 -52 -52 -51 -67 2 -39 38
21 70 20 182 -5 84 -19 118 -77 81 -139 -34 -57 -65 -75 -65 -37 0 11 9 20 20
20 11 0 20 10 20 21 0 12 -20 8 -44 -10 -57 -39 -88 -40 -56 -1 16 19 17 30 4
30 -12 0 -27 -9 -34 -20 -16 -26 -84 -26 -100 0 -7 12 3 14 24 7 35 -12 35
-11 0 25 -29 31 -39 33 -52 11 -22 -35 -51 6 -30 42 8 14 7 18 -2 10 -50 -45
-93 97 -51 165 16 24 22 22 35 -14 14 -38 20 -40 54 -15 36 26 35 28 -14 51
-31 14 -50 38 -48 61 3 40 43 50 65 16z m216 -47 c6 -16 -2 -34 -18 -40 -33
-12 -89 5 -89 27 0 46 90 57 107 13z m-806 -205 c94 -19 118 -64 58 -109 -27
-21 -58 -45 -69 -55 -12 -9 -32 -12 -45 -8 -14 5 -25 -6 -25 -23 0 -38 -27
-41 -84 -10 -33 18 -36 26 -14 41 28 18 -9 62 -70 83 -15 6 -10 29 13 69 19
34 35 95 35 136 l0 75 72 -94 c46 -61 91 -98 129 -105z m999 158 c0 -14 -13
-25 -29 -25 -16 0 -38 -16 -49 -35 -17 -28 -21 -29 -22 -5 -1 24 -6 23 -28 -5
-16 -22 -40 -31 -60 -23 -25 10 -28 19 -10 40 12 15 30 23 39 17 9 -5 21 6 27
26 13 41 132 50 132 10z m-618 -207 c-22 -18 -35 -39 -28 -46 19 -18 -20 -14
-50 5 -22 14 -21 31 4 92 17 40 40 69 50 62 11 -6 26 -1 34 12 9 14 6 18 -9 9
-13 -8 -23 -6 -23 5 0 11 11 23 25 28 46 16 44 -130 -3 -167z m-954 -1 c17 26
65 9 80 -28 5 -15 0 -34 -12 -41 -13 -8 -17 -5 -9 8 8 11 5 27 -5 33 -11 6
-25 2 -32 -10 -16 -25 -70 13 -70 48 0 14 8 12 18 -4 11 -18 21 -20 30 -6z
m201 -31 c39 -18 71 -38 70 -45 -1 -26 -58 -109 -58 -85 -1 16 -22 23 -56 20
-51 -6 -55 0 -58 69 -3 85 4 88 102 41z m551 -2 c0 -25 -101 -124 -126 -123
-16 0 -14 9 6 25 17 13 43 48 58 78 25 48 62 60 62 20z m154 -56 c64 -28 146
-64 182 -80 36 -16 60 -38 53 -49 -8 -13 6 -16 39 -8 58 15 99 -42 51 -71 -21
-14 -22 -23 -1 -48 14 -16 20 -39 13 -50 -7 -11 6 -29 27 -41 57 -30 62 -27
62 35 0 89 102 157 170 112 27 -18 50 -26 50 -17 0 8 18 -1 41 -22 22 -20 36
-49 30 -64 -7 -17 -2 -22 12 -13 16 10 18 5 6 -14 -20 -31 -13 -102 10 -118
14 -10 47 -93 81 -205 10 -33 10 -55 -1 -55 -11 0 -19 18 -19 39 0 26 -10 36
-28 29 -15 -6 -34 -1 -41 11 -7 11 -35 21 -61 21 -26 0 -53 9 -60 21 -9 13 7
16 43 9 l57 -12 -50 29 c-27 16 -55 22 -61 12 -12 -19 -99 -2 -99 19 0 8 11
25 24 38 13 13 17 24 7 24 -9 0 -32 -18 -52 -41 -19 -22 -43 -39 -52 -37 -44
8 -67 -5 -67 -37 -1 -21 -14 -9 -33 31 -33 65 -21 118 14 63 15 -24 18 -23 19
7 0 30 7 32 43 13 32 -18 46 -17 58 3 26 41 4 56 -84 54 -45 0 -88 10 -96 22
-8 13 -34 27 -60 32 -43 8 -181 101 -181 122 0 13 34 -6 113 -64 55 -41 66
-43 88 -17 20 24 19 28 -3 20 -15 -5 -59 17 -97 50 -40 34 -57 59 -40 59 25 1
25 3 -1 20 -16 11 -48 19 -70 19 -33 0 -35 -3 -10 -19 17 -11 20 -20 7 -20
-12 0 -33 14 -47 30 -14 17 -33 30 -44 30 -10 0 -32 13 -48 29 -16 16 -43 24
-61 17 -36 -14 -22 58 20 107 29 32 14 35 147 -25z m-543 -23 c-6 -16 9 -46
34 -66 50 -42 16 -92 -45 -66 -16 7 -46 13 -65 14 -37 2 -50 33 -14 33 12 0
17 7 13 15 -17 28 22 98 55 98 20 0 29 -11 22 -28z m-411 -69 c0 -7 16 -14 35
-14 139 -3 327 -95 253 -124 -63 -25 -129 -20 -140 11 -7 16 -54 49 -105 74
-51 24 -100 54 -108 66 -27 39 -15 52 25 26 22 -13 40 -31 40 -39z m1601 7 c0
18 11 13 31 -13 17 -22 41 -37 54 -33 13 3 18 0 10 -7 -7 -8 9 -37 37 -65 39
-39 48 -64 39 -108 -12 -64 -13 -64 55 -38 61 23 91 -25 37 -60 -29 -19 -28
-20 11 -12 26 5 46 -1 47 -14 1 -15 4 -15 11 2 6 14 19 25 29 25 27 0 22 -55
-7 -67 -19 -7 -18 -15 5 -31 23 -16 36 -5 60 54 57 140 160 245 160 163 0 -25
-61 -124 -89 -143 -14 -9 -12 -23 4 -39 14 -14 25 -48 25 -77 0 -29 11 -64 25
-79 20 -22 19 -25 -8 -15 -26 9 -38 -8 -55 -76 -25 -99 -51 -124 -93 -89 -17
14 -29 15 -29 4 0 -11 14 -31 30 -45 26 -22 43 -80 22 -80 -42 0 -172 174
-172 231 0 69 29 108 47 64 6 -15 10 -10 11 11 1 20 -28 53 -68 77 -41 24 -70
57 -70 79 0 21 -17 82 -38 137 -20 54 -32 104 -26 110 6 6 2 11 -9 11 -11 0
-39 18 -63 41 -24 22 -44 30 -44 17 0 -17 -7 -17 -29 1 -16 13 -24 37 -17 53
8 22 17 24 38 6 22 -18 28 -17 29 5z m-726 -75 c39 -26 80 -48 91 -48 11 0 16
-5 10 -11 -6 -5 -53 8 -106 31 -107 46 -137 42 -61 -8 28 -18 51 -28 51 -23 0
10 108 -46 233 -120 70 -42 114 -101 97 -130 -7 -10 -60 17 -118 61 -58 44
-114 80 -124 79 -10 0 -1 -13 21 -29 21 -16 33 -34 27 -40 -15 -15 -122 28
-140 56 -31 50 -39 -9 -10 -70 35 -71 16 -90 -96 -93 -39 -2 -39 -1 -1 28 21
16 31 29 22 29 -9 0 -4 15 12 34 15 19 17 28 3 20 -13 -8 -28 -6 -35 4 -15 25
43 82 85 83 19 0 3 14 -36 31 -57 25 -78 25 -120 5 -27 -14 -55 -27 -61 -30
-17 -7 -11 80 7 108 9 14 34 25 55 25 22 0 39 9 39 20 0 11 -11 20 -25 20 -17
1 -15 7 5 20 37 24 84 10 175 -52z m-753 -113 c40 -41 88 -75 107 -75 18 0 29
-7 24 -15 -5 -9 3 -33 19 -54 15 -21 28 -31 28 -21 0 9 23 -4 51 -31 27 -26
46 -59 40 -74 -6 -15 -2 -22 8 -16 10 7 17 -6 16 -27 -2 -22 -8 -39 -14 -38
-50 4 -78 -10 -87 -44 -6 -22 -20 -40 -32 -40 -26 0 -85 110 -68 127 7 7 2 13
-11 13 -13 0 -23 13 -23 29 0 17 -11 25 -25 20 -19 -7 -25 15 -23 83 2 51 -2
85 -9 74 -7 -10 -30 -25 -50 -33 -31 -11 -33 -19 -13 -43 21 -25 17 -27 -33
-8 -55 20 -198 174 -179 193 18 18 110 -66 121 -110 6 -25 25 -45 41 -45 41 0
38 19 -13 74 -24 25 -34 46 -21 46 17 0 17 12 0 50 -12 28 -30 50 -39 50 -25
0 -20 -36 6 -44 13 -5 19 -21 13 -37 -6 -20 -20 -8 -43 35 -37 72 -44 112 -11
66 17 -24 20 -22 12 13 l-9 43 72 -43 c40 -23 105 -76 145 -118z m294 -5 c8
-11 39 -33 70 -49 46 -24 54 -38 44 -80 -22 -88 -62 -114 -91 -58 -14 26 -56
76 -92 112 -37 35 -67 72 -67 82 0 24 118 18 136 -7z m187 -262 c-23 -50 -54
-59 -99 -31 -21 13 -14 32 28 82 64 76 112 41 71 -51z m-684 57 c-3 -62 -36
-125 -38 -72 0 24 -6 58 -13 75 -8 21 -1 32 20 32 18 0 31 -16 31 -35z m100
-22 c10 -21 46 -49 79 -62 100 -41 152 -159 92 -207 -11 -9 -2 -13 20 -10 44
7 52 -90 11 -131 -31 -31 -50 2 -21 37 17 20 18 30 2 30 -12 0 -22 -9 -22 -20
0 -43 -34 -17 -66 50 -23 48 -47 70 -76 70 -37 0 -41 8 -31 60 7 36 4 60 -9
60 -11 0 -15 -9 -8 -20 7 -11 0 -20 -15 -20 -20 0 -28 29 -28 100 -1 106 33
135 72 63z m1516 -96 c34 -33 29 -33 -52 -5 -35 12 -63 31 -63 41 0 25 79 0
115 -36z m-770 10 c-27 -27 -125 -40 -125 -17 0 18 46 34 109 38 29 1 33 -4
16 -21z m484 -9 c18 -18 29 -45 23 -60 -11 -29 44 -52 144 -58 77 -5 179 -141
184 -247 0 -3 -37 -3 -82 0 -59 4 -89 -4 -107 -28 -20 -28 -28 -29 -53 -6 -15
15 -50 31 -78 34 -55 8 -125 72 -108 100 6 9 -3 17 -18 17 -16 0 -40 14 -54
30 -49 59 123 38 206 -25 75 -57 97 -92 44 -72 -16 6 -30 1 -30 -11 0 -40 55
-46 106 -13 53 35 79 112 51 155 -11 17 -16 3 -17 -39 0 -77 -18 -81 -93 -17
-32 26 -100 62 -154 80 -53 18 -123 46 -156 63 -79 42 -237 53 -183 14 20 -15
52 -23 72 -18 20 6 41 -3 47 -19 6 -15 24 -28 39 -28 15 0 28 -13 28 -29 0
-38 -122 -19 -146 22 -9 15 -28 27 -43 27 -27 0 -51 42 -51 87 0 67 368 102
429 41z m171 -8 c28 -22 66 -39 85 -40 19 0 35 -7 35 -15 0 -8 28 -27 62 -42
33 -15 67 -44 75 -64 12 -35 19 -39 63 -39 11 0 20 -25 19 -55 0 -54 -1 -54
-32 -15 -32 40 -32 40 -18 0 19 -51 27 -85 16 -65 -4 8 -25 6 -45 -5 -40 -21
-72 4 -51 39 33 53 -112 233 -229 281 -33 14 -60 33 -60 42 0 28 26 21 80 -22z
m-915 -107 c-87 -102 -165 -127 -165 -54 0 57 131 157 165 127 34 -31 34 -34
0 -73z m165 27 c7 -11 26 -20 43 -20 16 0 58 -21 93 -47 35 -26 115 -62 177
-81 61 -19 131 -54 153 -78 40 -43 44 -51 44 -94 0 -11 20 -19 45 -19 43 2 43
3 5 19 -38 16 -38 17 5 19 47 1 55 -13 29 -53 -11 -18 -37 -14 -101 15 -68 31
-95 34 -130 16 -79 -40 -151 -120 -139 -154 10 -27 7 -28 -15 -8 -15 14 -67
25 -115 25 -70 0 -96 10 -128 50 -21 28 -47 45 -57 39 -10 -6 -14 2 -8 17 6
16 -1 41 -16 57 -69 68 -46 191 27 146 10 -6 18 3 18 20 0 17 14 31 30 31 17
0 30 -9 30 -21 0 -24 219 -239 244 -239 36 0 9 38 -134 185 -82 86 -150 164
-150 175 0 26 34 26 50 0z m1585 -70 c-19 -35 -18 -37 11 -13 18 14 42 20 54
13 29 -18 -12 -68 -74 -92 -29 -10 -46 -34 -47 -63 -2 -44 -2 -44 -21 5 -11
27 -16 65 -11 85 5 19 2 31 -7 25 -20 -12 -44 47 -29 72 26 42 146 11 124 -32z
m-2435 -59 c0 7 32 -15 71 -49 39 -34 83 -62 98 -62 29 0 61 -79 81 -196 15
-88 -55 -56 -105 47 -31 66 -81 100 -58 40 15 -40 -27 -64 -49 -29 -25 40 -22
58 11 58 47 0 49 27 5 70 -22 22 -33 27 -24 12 10 -18 8 -23 -5 -15 -60 37
-68 -48 -10 -122 32 -41 95 -130 141 -197 45 -68 100 -128 123 -134 23 -5 41
-21 41 -33 0 -13 -10 -17 -21 -10 -12 7 -34 -4 -50 -24 -16 -22 -28 -27 -28
-12 -1 14 -13 25 -28 25 -15 0 -53 25 -84 55 -31 30 -49 44 -41 30 9 -16 4
-21 -17 -13 -17 7 -26 20 -20 30 6 10 2 18 -10 18 -11 0 -21 14 -21 30 0 17
-9 30 -20 30 -13 0 -15 22 -7 55 12 46 9 51 -15 31 -33 -27 -65 -12 -83 38 -9
24 -5 31 16 23 22 -9 26 -2 15 26 -12 33 -10 34 20 10 42 -34 44 -16 5 43 -20
30 -23 54 -10 74 10 17 19 23 19 14 0 -8 13 -4 28 10 19 18 22 37 9 61 -10 19
-12 35 -4 35 8 0 -3 14 -24 31 -37 30 -37 30 6 9 25 -12 45 -16 45 -9z m280
-56 c47 -77 49 -88 13 -88 -15 0 -27 9 -27 21 1 57 -7 92 -21 90 -33 -6 -47 3
-35 22 19 31 27 25 70 -45z m2058 -84 c0 -33 -6 -50 -11 -36 -6 14 -21 25 -35
25 -44 0 -73 44 -49 74 12 14 14 26 4 26 -9 0 -3 9 13 20 41 26 80 -29 78
-109z m-518 -91 c9 0 21 16 26 35 8 29 10 29 11 -5 1 -22 -6 -53 -17 -70 -13
-20 -19 -22 -20 -5 0 14 -13 25 -28 25 -20 0 -24 14 -16 45 10 37 14 38 20 10
4 -19 15 -35 24 -35z m170 20 c7 -22 23 -41 36 -41 13 -1 6 -10 -16 -21 -29
-13 -19 -15 39 -7 66 10 75 8 55 -16 -18 -22 -9 -32 48 -53 49 -18 67 -35 59
-55 -6 -17 -11 -48 -11 -69 0 -31 -15 -38 -83 -38 -95 0 -95 -16 0 -27 35 -5
80 -23 100 -40 20 -18 42 -27 50 -20 7 8 13 -1 13 -18 0 -17 11 -36 25 -42 14
-5 6 -11 -18 -11 -23 -1 -53 11 -66 27 -13 15 -49 28 -79 27 -31 -1 -67 5 -81
14 -19 11 -22 3 -12 -32 12 -45 11 -46 -12 -8 -13 22 -26 53 -29 70 -11 76
-34 123 -49 99 -8 -13 -10 18 -4 70 7 66 3 100 -15 111 -16 10 -21 35 -12 68
15 62 44 68 62 12z m-270 -43 c0 12 17 6 39 -16 21 -21 35 -54 32 -75 -3 -20
-1 -25 3 -11 19 53 114 -7 103 -65 -12 -63 -114 -77 -129 -18 -7 26 -20 48
-30 48 -24 0 -23 -46 2 -76 11 -13 6 -12 -12 3 -26 23 -28 42 -10 105 17 66
16 73 -6 43 -27 -36 -56 -28 -40 12 5 13 -12 23 -40 23 -48 0 -51 -13 -22
-100 12 -33 10 -35 -10 -10 -18 24 -20 13 -11 -50 9 -54 6 -71 -7 -51 -16 23
-24 24 -50 2 -26 -21 -34 -20 -44 7 -7 17 -20 27 -30 21 -29 -18 -21 -46 19
-58 70 -22 89 -104 50 -219 -19 -56 -38 -87 -42 -69 -5 21 -21 29 -46 23 -27
-7 -39 -1 -39 22 0 17 -13 32 -30 32 -42 0 -37 -34 10 -75 47 -40 51 -76 11
-92 -20 -8 -26 -1 -18 23 9 29 8 30 -11 4 -33 -46 -26 -66 18 -54 22 6 35 3
29 -7 -5 -9 8 -27 30 -39 48 -25 56 -70 10 -52 -17 6 -46 2 -65 -10 -39 -24
-164 66 -164 118 0 14 -9 21 -21 14 -13 -8 -16 9 -9 48 11 62 -54 107 -108 73
-20 -12 32 -134 63 -148 8 -3 15 -15 15 -26 0 -11 -9 -14 -20 -7 -29 18 -24
-41 6 -66 15 -13 37 -15 53 -5 16 10 42 8 63 -5 22 -13 28 -28 16 -35 -11 -7
7 -14 41 -15 88 -2 104 -19 98 -99 -8 -85 26 -106 69 -44 l31 43 22 -42 c28
-52 116 -56 154 -7 26 33 27 33 15 0 -8 -24 -2 -35 21 -35 36 0 41 -4 166
-111 87 -75 117 -146 50 -119 -19 8 -51 19 -70 25 -19 5 -35 21 -35 35 0 29
-96 53 -153 38 -46 -12 -227 61 -227 92 0 13 -9 17 -20 10 -11 -7 -20 -2 -20
11 0 14 -17 19 -40 13 -23 -6 -40 0 -41 13 0 13 -9 8 -20 -11 -22 -38 -142 52
-151 113 -10 67 -225 207 -273 178 -14 -8 -12 2 5 23 27 34 27 36 -5 24 -28
-10 -98 7 -151 37 -3 2 5 29 17 61 12 32 21 60 20 63 -10 36 74 75 104 48 25
-21 29 -34 13 -44 -16 -10 -16 -18 0 -28 12 -7 22 -4 22 7 0 11 18 18 40 16
23 -1 37 -13 32 -25 -5 -13 9 -38 30 -56 40 -34 54 -17 16 21 -16 16 -10 34
21 65 46 46 48 102 6 116 -14 5 -25 -5 -25 -21 0 -17 -19 -29 -48 -29 -39 0
-44 5 -25 25 17 19 27 20 38 3 21 -33 18 -5 -5 56 -18 48 -16 50 19 32 21 -12
55 -21 75 -21 20 1 -4 19 -52 41 -48 22 -84 44 -79 49 14 13 129 -30 252 -94
58 -31 105 -47 105 -36 0 11 -9 20 -20 20 -11 0 -20 14 -20 30 0 37 23 39 59
5 21 -20 24 -19 17 4 -4 15 -24 36 -42 45 -92 44 -104 54 -101 84 1 20 -13 32
-38 32 -87 0 61 101 220 149 79 24 49 -24 -45 -71 -98 -49 -107 -78 -12 -39
33 14 68 19 79 13 11 -7 23 -1 28 12 6 19 22 16 62 -10 45 -30 53 -31 53 -4 0
16 -7 29 -15 28 -40 -7 -66 4 -55 22 7 12 21 16 30 10 9 -6 23 -2 29 8 6 11 3
25 -7 31 -11 6 -25 3 -32 -9 -20 -32 -41 -23 -45 20 -1 22 5 40 15 40 9 0 32
6 52 13 26 10 30 7 18 -13 -11 -17 0 -15 31 6 45 32 49 31 93 -10 25 -24 46
-32 46 -19z m520 43 c0 -11 12 -20 27 -20 15 0 25 -19 23 -45 -4 -61 -54 -57
-64 4 -4 27 -18 56 -32 65 -17 11 -13 15 11 16 19 0 35 -9 35 -20z m-2435
-169 c29 -43 14 -51 -35 -19 -27 18 -50 40 -50 50 0 21 65 -2 85 -31z m1252
-84 c93 -11 113 -25 105 -72 -1 -8 13 -15 31 -15 19 0 28 -6 20 -13 -7 -8 -33
-4 -58 7 -158 75 -185 83 -209 62 -20 -16 -26 -8 -26 37 1 37 6 48 17 31 9
-14 63 -31 120 -37z m-1243 -16 c96 -85 126 -117 126 -135 0 -10 -33 14 -73
53 -40 39 -84 71 -98 71 -14 0 -30 14 -36 30 -17 45 18 36 81 -19z m134 -37
c21 -41 54 -78 74 -85 68 -21 143 -93 116 -110 -19 -12 -14 -27 23 -57 54 -45
89 -55 67 -19 -10 16 -3 16 23 2 35 -20 56 -125 25 -125 -9 0 -15 -7 -14 -15
9 -54 -3 -64 -52 -41 -27 12 -50 33 -50 47 0 13 -16 23 -35 23 -39 -1 -186 63
-155 67 11 2 -2 9 -30 17 -54 15 -73 72 -41 122 15 24 24 25 44 5 38 -38 89
-34 57 5 -32 39 -1 38 55 -1 32 -22 42 -24 34 -5 -5 15 -36 38 -69 53 -33 14
-60 38 -60 51 0 14 -22 46 -50 72 -53 50 -66 89 -25 75 14 -5 42 -41 63 -81z
m1751 38 c17 -22 17 -32 -1 -43 -15 -10 -19 -7 -10 8 8 13 10 23 4 23 -6 0
-24 -25 -41 -55 -16 -30 -30 -43 -30 -29 -1 15 -11 20 -23 13 -12 -8 -30 -2
-40 13 -25 41 -22 63 7 45 45 -28 71 -24 81 15 12 45 22 47 53 10z m-1908 -60
c32 -24 39 -52 38 -165 -1 -92 7 -146 26 -165 19 -19 21 -34 6 -49 -55 -55 21
-76 81 -21 54 49 203 -94 206 -197 2 -76 -34 -72 -59 8 -19 59 -148 130 -265
146 -57 8 -99 23 -93 32 5 9 23 12 39 6 26 -10 26 1 1 84 -16 52 -28 101 -27
107 1 7 -8 37 -21 68 -54 132 -18 209 68 146z m1162 -102 c-13 -33 -53 -24
-53 12 0 11 8 16 17 10 10 -6 14 14 10 44 -7 52 -7 52 15 10 13 -24 18 -58 11
-76z m1405 -167 c17 -24 42 -34 67 -28 45 12 74 -24 75 -90 0 -27 -12 -45 -30
-45 -17 0 -30 18 -30 40 0 22 -10 40 -21 40 -12 0 -20 -16 -18 -35 8 -89 -21
-126 -67 -84 -43 41 -94 52 -94 21 0 -10 14 -23 32 -30 21 -8 27 -25 19 -47
-7 -18 -7 -27 1 -20 8 8 28 3 44 -10 24 -20 32 -20 39 0 5 14 26 25 47 25 21
0 38 -11 38 -25 1 -17 6 -16 19 4 22 36 81 -5 81 -56 0 -45 -141 -49 -174 -5
-22 28 -25 26 -25 -13 -1 -35 -13 -45 -52 -45 -29 0 -46 9 -39 20 7 11 3 20
-8 20 -12 0 -27 25 -34 55 -8 30 -22 66 -33 80 -11 13 -14 38 -8 54 6 16 0 41
-14 55 -27 28 -57 116 -38 116 6 0 23 -16 37 -35 18 -23 27 -26 27 -9 1 15 11
20 22 13 12 -7 27 6 33 29 13 52 68 54 104 5z m-838 -87 c0 -10 7 -14 16 -8
23 14 76 -23 58 -40 -18 -18 -154 44 -154 70 0 10 18 14 40 8 22 -6 40 -19 40
-30z m585 -91 c36 -37 48 -65 37 -83 -21 -33 -89 27 -107 95 -15 58 7 54 70
-12z m-1140 -87 c19 -23 35 -36 35 -29 0 7 21 -10 47 -38 26 -28 58 -51 70
-51 13 0 23 -10 23 -21 0 -12 14 -35 30 -52 19 -19 30 -68 30 -131 l0 -101
-80 77 c-44 43 -80 89 -80 102 0 14 -13 20 -28 14 -16 -6 -69 3 -119 20 -49
17 -122 33 -162 35 -58 4 -69 12 -60 41 8 24 1 36 -20 36 -48 0 -37 36 14 44
102 15 277 -29 336 -85 32 -30 59 -51 59 -46 0 6 27 -10 60 -33 117 -83 54 0
-89 116 -62 51 -202 103 -277 104 -43 0 -71 8 -65 19 7 11 25 15 40 9 15 -6
34 0 42 13 22 36 153 7 194 -43z m-1079 7 c5 -8 2 -33 -7 -55 -16 -40 -16 -40
-18 0 -1 33 -5 35 -21 10 -11 -16 -20 -24 -20 -17 0 8 -5 28 -12 45 -13 33 60
48 78 17z m145 -20 c51 -57 129 -185 113 -185 -8 0 -35 14 -60 31 -24 17 -44
22 -44 11 0 -11 16 -29 35 -40 19 -12 28 -21 20 -21 -8 -1 0 -19 19 -40 57
-67 50 -101 -21 -101 -48 1 -56 5 -33 20 18 12 21 20 6 20 -13 0 -34 -16 -47
-35 -21 -33 -22 -33 -11 0 7 22 0 35 -16 35 -42 0 -59 57 -61 205 -1 146 31
178 100 100z m1564 -75 c-4 -86 -35 -132 -35 -51 0 21 -16 48 -35 59 -31 19
-30 21 10 21 26 1 45 13 45 31 0 17 4 30 10 30 5 0 7 -40 5 -90z m1039 -3 c29
-62 15 -99 -26 -66 -29 25 -40 119 -13 119 8 0 26 -24 39 -53z m-121 -122 c-7
-42 -31 -89 -57 -110 l-46 -36 80 10 c44 5 64 5 45 -1 -19 -6 -35 -18 -35 -27
0 -8 -35 -6 -79 6 -43 11 -74 28 -69 37 6 8 -5 10 -24 3 -23 -9 -31 -5 -24 14
5 15 31 34 57 41 30 9 36 15 15 16 -60 4 61 114 132 120 9 1 12 -32 5 -73z
m-1653 -61 c121 -25 200 -99 202 -189 2 -47 7 -69 12 -50 14 53 42 42 52 -20
8 -53 8 -53 11 8 2 42 -8 67 -30 75 -18 7 -28 17 -23 23 55 55 134 -75 89
-146 -9 -14 -6 -25 6 -25 11 0 21 -19 21 -42 0 -36 -5 -39 -30 -18 -16 14 -48
20 -70 14 -22 -6 -40 -2 -40 8 0 11 -20 27 -45 36 -70 27 -195 135 -180 154 8
10 1 6 -15 -8 -26 -23 -26 -28 0 -45 17 -10 21 -19 9 -19 -11 0 -40 14 -64 31
-24 17 -69 32 -100 35 -53 4 -57 10 -59 94 l-3 90 24 -77 c26 -87 53 -78 53
19 0 67 37 94 100 73 17 -6 53 -15 80 -21z m614 -44 c26 0 46 -7 46 -17 0 -24
133 -61 178 -49 23 6 56 -8 82 -34 24 -24 49 -38 55 -32 15 16 65 -27 65 -55
-1 -16 -5 -16 -16 0 -8 13 -73 29 -144 36 l-130 11 77 -30 c43 -16 86 -25 95
-18 10 6 44 -8 76 -31 32 -22 67 -41 78 -41 10 0 30 -14 44 -30 31 -37 5 -30
-154 43 -57 26 -120 47 -140 47 -69 1 -128 25 -119 50 6 14 -12 37 -39 51 -26
14 -48 33 -48 42 0 10 -28 17 -61 17 -36 0 -56 -8 -49 -20 7 -11 30 -20 53
-20 39 0 110 -54 93 -71 -5 -4 -39 0 -75 11 -37 10 -74 14 -84 8 -77 -47 -120
49 -47 104 28 21 46 50 41 64 -8 18 2 17 34 -5 24 -17 64 -31 89 -31z m-1359
-99 c-3 -10 11 -30 31 -45 34 -25 33 -27 -15 -31 -46 -4 -55 5 -49 48 1 7 -11
20 -25 29 -19 13 -14 17 18 18 25 0 43 -8 40 -19z m2345 -22 c0 -12 9 -16 20
-9 11 7 20 2 20 -11 0 -15 -18 -19 -52 -10 -33 8 -47 5 -38 -8 7 -12 4 -21 -5
-21 -34 0 -45 26 -22 53 26 32 77 36 77 6z m-2571 -69 c-9 -48 -6 -70 10 -70
13 0 19 7 15 15 -5 8 -2 33 7 55 16 39 17 39 30 -5 16 -52 40 -58 57 -14 6 18
3 26 -8 19 -11 -7 -14 1 -8 19 15 39 36 39 68 1 14 -16 18 -30 10 -30 -7 0 6
-33 30 -74 25 -44 35 -78 23 -82 -11 -3 -16 -19 -11 -33 6 -15 2 -32 -9 -39
-40 -25 -82 14 -100 95 -18 78 -34 47 -25 -47 2 -22 -5 -19 -27 9 -17 21 -31
51 -31 67 0 17 -12 24 -30 17 -24 -9 -30 6 -30 78 0 49 9 89 21 89 13 0 16
-26 8 -70z m364 -99 c-6 -17 -28 -30 -47 -29 -20 0 -25 6 -12 11 13 5 19 23
13 38 -6 16 -5 45 3 64 19 47 62 -36 43 -84z m1317 60 c33 -14 83 -27 110 -29
148 -8 320 -108 320 -187 0 -34 -3 -35 -31 -6 -18 17 -42 32 -55 32 -13 1 -45
6 -71 11 -70 13 -42 -38 29 -53 33 -7 77 -23 99 -36 40 -26 -51 -20 -201 12
-33 7 -68 11 -77 8 -10 -2 -29 6 -44 18 -15 12 -37 17 -48 9 -44 -27 -98 10
-89 61 8 42 1 49 -47 50 -46 2 -49 4 -16 17 37 14 36 16 -7 27 -26 7 -40 22
-33 34 9 13 -15 21 -67 21 -44 0 -85 8 -91 19 -18 28 249 22 319 -8z m-838
-42 c-9 -24 -2 -29 28 -19 22 7 40 5 40 -5 0 -28 95 -65 135 -53 27 9 29 7 7
-8 -22 -16 -19 -24 18 -44 39 -21 44 -20 35 5 -9 22 -2 28 23 21 24 -6 37 -29
38 -67 l1 -58 -73 31 c-41 17 -96 36 -122 41 -112 21 -202 109 -162 157 32 39
48 38 32 -1z m1652 0 c46 -5 98 -23 115 -41 29 -30 25 -32 -39 -19 -38 8 -95
18 -127 23 -71 10 -97 25 -82 50 6 10 20 13 31 7 10 -7 56 -16 102 -20z m36
-141 c0 -17 -21 -28 -50 -28 -31 0 -50 -11 -50 -29 0 -16 -18 -39 -40 -51 -35
-19 -40 -15 -40 30 0 31 14 57 35 64 19 7 47 30 62 51 29 40 83 16 83 -37z
m-1712 -10 c10 -9 17 -48 16 -87 -2 -50 6 -71 27 -71 16 0 29 -14 29 -32 0
-25 8 -22 36 12 33 41 41 42 84 18 100 -57 115 -90 38 -82 -6 1 -10 -30 -9
-68 2 -54 -4 -67 -28 -58 -23 7 -22 3 4 -17 46 -36 44 -53 -5 -53 -22 0 -40
-11 -40 -25 -1 -18 -6 -17 -18 3 -15 22 -20 20 -29 -10 -6 -24 -10 -16 -10 22
2 89 -4 105 -21 61 -15 -37 -16 -37 -27 5 -6 24 -3 44 7 44 10 0 18 10 18 21
0 12 -10 15 -22 8 -15 -10 -15 -1 1 29 17 31 17 42 0 42 -13 0 -18 13 -12 29
7 17 -4 34 -27 41 -21 7 -34 23 -28 37 5 13 -7 42 -28 64 -81 88 -42 148 44
67z m282 -98 c22 -24 26 -40 11 -50 -12 -7 -20 -1 -16 13 3 14 -4 26 -15 28
-38 5 -90 33 -90 49 0 26 75 -1 110 -40z m690 -47 c0 26 147 20 176 -8 15 -14
38 -25 52 -25 16 0 22 -20 17 -58 l-9 -58 -95 48 c-53 26 -117 51 -143 55 -27
4 -51 23 -55 44 -7 33 -3 34 25 11 17 -15 32 -19 32 -9z m329 -95 c-6 -10 3
-18 20 -18 17 0 31 -17 31 -37 0 -29 -11 -35 -50 -28 -62 12 -84 44 -48 67 19
12 20 17 4 18 -14 0 -20 14 -13 31 9 23 18 25 39 7 15 -12 23 -31 17 -40z
m-279 -38 c11 -8 70 -31 130 -50 132 -42 161 -64 120 -91 -37 -23 -66 -25 -52
-3 5 9 -17 26 -49 38 -49 19 -59 17 -59 -7 0 -16 8 -24 18 -18 29 18 102 -88
102 -148 0 -29 10 -63 23 -76 17 -17 12 -22 -20 -20 -24 2 -43 15 -43 29 0 14
-8 26 -18 26 -9 0 -28 26 -41 59 -21 49 -68 91 -87 75 -3 -2 -26 16 -52 40
-27 25 -55 40 -64 35 -27 -17 -44 33 -19 58 18 17 20 14 10 -17 -10 -31 -8
-33 8 -11 12 18 13 42 2 62 -30 56 23 67 91 19z m-899 -340 c29 0 46 -9 39
-20 -7 -11 1 -14 19 -8 37 15 91 -25 91 -66 0 -19 -13 -25 -40 -17 -22 6 -58
16 -80 22 -24 7 -40 2 -40 -12 0 -12 18 -27 40 -33 41 -11 56 -46 20 -46 -11
0 -20 -9 -20 -21 0 -11 16 -18 35 -15 24 4 35 -7 35 -34 0 -42 -2 -42 -105
-21 -49 11 -65 7 -65 -14 0 -17 23 -30 60 -32 104 -5 120 -9 120 -28 0 -11
-13 -14 -30 -8 -16 7 -30 3 -30 -8 0 -13 -15 -12 -42 2 -66 35 -103 9 -88 -61
7 -33 5 -60 -4 -60 -24 0 -66 120 -66 187 0 40 -16 64 -60 89 -33 19 -60 47
-60 63 0 23 5 24 24 5 13 -13 41 -24 62 -24 21 0 64 -19 96 -41 l58 -42 -1 57
c-1 42 -5 47 -16 21 -13 -33 -19 -32 -82 15 -38 27 -81 50 -95 50 -14 0 -26
15 -26 32 0 24 7 27 25 12 34 -28 34 105 0 139 -61 61 -16 54 75 -11 55 -40
123 -72 151 -72z m779 100 c40 -44 80 -54 60 -15 -7 14 0 9 15 -10 16 -19 35
-29 42 -21 7 7 13 2 13 -12 0 -13 8 -19 18 -13 9 6 39 -21 65 -59 30 -45 63
-70 92 -70 35 0 45 -12 45 -50 0 -31 -11 -50 -30 -50 -16 0 -30 -14 -30 -31 0
-16 14 -35 30 -42 49 -19 34 -47 -25 -48 -53 0 -53 -2 -16 -30 37 -28 36 -29
-20 -31 l-59 -1 59 -22 c53 -19 56 -23 21 -35 -62 -22 -107 -2 -95 42 8 32 -1
38 -67 38 -77 0 -76 28 2 45 31 6 24 13 -30 28 -59 17 -101 67 -55 67 8 0 37
0 64 0 26 0 61 -13 77 -29 59 -59 104 15 75 125 0 3 -13 -6 -28 -20 -16 -14
-23 -39 -17 -56 10 -25 6 -26 -21 -4 -18 15 -28 38 -23 52 5 14 -4 37 -21 51
-26 22 -31 20 -31 -7 0 -38 -9 -39 -62 -11 -21 11 -36 14 -33 5 3 -9 -4 -16
-15 -16 -11 0 -17 14 -14 30 14 73 13 86 -11 95 -16 5 -26 -12 -28 -48 -2 -48
-4 -50 -11 -12 -5 25 -16 41 -25 35 -9 -5 -15 13 -14 40 2 28 9 50 16 50 7 0
9 18 3 40 -7 27 -1 40 19 40 16 0 45 -18 65 -40z m-996 -364 c14 -11 26 -29
26 -38 0 -26 -64 5 -120 57 l-50 47 59 -22 c33 -12 71 -32 85 -44z m4 -114
c31 -24 40 -41 25 -50 -39 -24 -25 -55 17 -42 23 7 40 4 40 -9 0 -11 14 -21
30 -21 17 0 30 -14 30 -31 0 -17 11 -29 25 -27 35 6 95 -22 95 -44 0 -10 -18
-18 -40 -18 -22 0 -40 11 -40 25 -1 19 -4 19 -16 2 -19 -31 -135 -44 -130 -15
2 12 -19 34 -46 49 -49 26 -52 43 -18 125 10 24 7 34 -11 30 -15 -3 -30 10
-34 29 -10 45 12 44 73 -3z m1223 -278 c0 -32 2 -31 27 1 34 45 54 23 40 -43
-10 -48 -9 -49 19 -16 20 25 34 29 43 14 19 -31 1 -45 -60 -45 -28 0 -56 -9
-63 -21 -8 -12 -2 -14 15 -6 15 8 11 1 -11 -17 -41 -33 -162 -43 -179 -13 -6
9 18 24 53 31 36 8 54 19 40 25 -35 13 -31 46 5 46 19 0 30 19 30 51 0 56 40
49 41 -7z m-1086 -109 c25 0 45 -10 45 -22 0 -13 10 -10 22 7 17 23 19 18 12
-24 -4 -30 -1 -51 7 -46 8 6 20 -4 27 -21 6 -18 20 -26 30 -20 11 6 25 3 31
-7 22 -36 -25 -42 -96 -12 -40 17 -110 31 -157 33 -68 2 -73 5 -26 12 99 14
95 36 -6 29 -64 -4 -85 0 -66 13 16 11 22 33 15 54 -12 30 -5 32 52 19 36 -9
85 -15 110 -15z m1184 -46 c-23 -28 -19 -30 30 -17 41 10 53 7 43 -9 -8 -13
-22 -19 -30 -14 -9 5 -46 -13 -83 -40 -37 -27 -75 -49 -84 -49 -23 0 23 45 75
76 26 15 30 23 11 23 -21 1 -18 9 10 30 51 39 60 38 28 0z m156 -62 c-48 -49
-172 -89 -167 -54 6 39 28 54 87 62 30 4 58 12 63 16 5 5 18 9 30 9 11 0 6
-15 -13 -33z m-1376 -76 c18 -17 69 -38 112 -47 43 -10 77 -28 74 -41 -6 -30
20 -30 51 1 19 19 30 18 49 -3 17 -18 18 -23 1 -14 -13 8 -32 -1 -42 -19 -10
-18 -42 -33 -71 -33 -55 0 -73 -42 -28 -63 14 -7 -14 -8 -62 -4 -82 8 -85 7
-45 -21 41 -29 41 -67 0 -67 -11 0 -15 9 -8 20 7 11 -1 14 -19 8 -20 -8 -31
-1 -31 21 0 18 -8 28 -18 22 -36 -22 -63 40 -34 80 15 20 23 49 18 63 -13 33
-60 34 -72 1 -7 -19 -15 -19 -36 3 -16 15 -18 22 -5 15 30 -17 77 38 48 56
-12 8 -30 8 -41 1 -11 -7 -20 -3 -20 7 0 18 44 33 118 40 16 2 44 -10 61 -26z"/>
<path d="M2300 4460 c0 -10 -24 -31 -53 -46 -41 -22 -45 -30 -21 -40 17 -6 42
2 55 18 14 16 41 24 62 17 47 -15 47 -6 -3 36 -22 19 -40 26 -40 15z"/>
<path d="M2671 4065 c-18 -47 -12 -105 10 -105 12 0 16 17 10 38 -8 23 -1 42
18 49 17 6 31 20 31 29 0 29 -57 19 -69 -11z"/>
<path d="M1351 3783 c8 -15 4 -34 -8 -41 -32 -20 72 -113 145 -131 76 -18 41
32 -48 69 -33 14 -55 31 -50 39 5 8 -5 32 -22 53 -17 21 -25 26 -17 11z"/>
<path d="M1690 3261 c-16 -52 25 -127 62 -113 20 8 28 -5 28 -49 0 -32 9 -59
20 -59 11 0 20 -18 20 -40 0 -22 13 -40 28 -40 15 0 33 -13 39 -30 7 -18 24
-24 45 -16 34 13 3 51 -58 71 -12 4 -8 25 8 54 22 36 23 48 3 55 -14 5 -25 24
-25 43 -1 87 -147 194 -170 124z"/>
<path d="M600 3190 c0 -16 32 -47 108 -105 68 -54 107 -60 57 -10 -50 50 -165
130 -165 115z"/>
<path d="M280 3323 c0 -67 51 -100 66 -43 7 27 1 34 -22 25 -23 -9 -28 -3 -18
21 7 18 4 38 -7 45 -10 6 -19 -15 -19 -48z"/>
<path d="M2102 2166 c-2 -73 12 -87 68 -65 22 9 29 17 15 18 -14 0 -25 15 -25
32 0 17 -8 26 -18 20 -11 -6 -23 4 -28 24 -5 19 -10 6 -12 -29z"/>
<path d="M1260 1420 c0 -11 10 -20 22 -20 12 0 17 -14 10 -32 -8 -20 -3 -28
13 -22 14 5 23 19 20 32 -3 12 4 22 15 22 11 0 20 9 20 20 0 11 -22 20 -50 20
-27 0 -50 -9 -50 -20z"/>
<path d="M1 825 c0 -47 8 -85 19 -85 24 0 24 74 0 130 -13 31 -18 21 -19 -45z"/>
<path d="M3380 165 c-64 -11 -103 -44 -87 -70 8 -12 3 -15 -10 -7 -13 8 -23 5
-23 -6 0 -36 33 -41 72 -12 21 16 61 29 88 29 41 0 44 -4 20 -21 -23 -16 -18
-17 20 -7 108 31 140 49 140 84 -1 30 -3 31 -20 5 -12 -19 -19 -21 -20 -5 0
18 -14 19 -51 5 -66 -25 -95 -25 -79 0 7 11 10 19 6 17 -3 -1 -28 -7 -56 -12z"/>
<path d="M3209 142 c6 -10 -6 -14 -27 -8 -29 7 -38 1 -34 -26 7 -47 35 -55 81
-21 36 26 29 73 -11 73 -11 0 -15 -8 -9 -18z"/>
</g>
</svg>
