<?xml version="1.0" standalone="no"?>
<!DOCTYPE svg PUBLIC "-//W3C//DTD SVG 20010904//EN"
 "http://www.w3.org/TR/2001/REC-SVG-20010904/DTD/svg10.dtd">
<svg version="1.0" xmlns="http://www.w3.org/2000/svg"
 width="171.000000pt" height="295.000000pt" viewBox="0 0 171.000000 295.000000"
 preserveAspectRatio="xMidYMid meet">
<metadata>
Created by potrace 1.10, written by Peter Selinger 2001-2011
</metadata>
<g transform="translate(0.000000,295.000000) scale(0.050000,-0.050000)"
fill="#000000" stroke="none">
<path d="M2520 5680 c0 -55 9 -100 20 -100 11 0 20 45 20 100 0 55 -9 100 -20
100 -11 0 -20 -45 -20 -100z"/>
<path d="M1606 5547 c-56 -52 -67 -74 -49 -92 27 -27 31 -63 6 -47 -10 6 -13
-11 -8 -39 7 -36 1 -49 -23 -49 -44 0 -43 144 1 211 18 28 27 55 21 61 -17 18
-71 -99 -81 -175 -18 -138 -53 -203 -92 -168 -58 53 -87 39 -72 -34 16 -76 17
-135 3 -245 -8 -68 -7 -71 7 -20 13 49 17 52 19 15 1 -25 10 -45 20 -45 10 0
11 30 2 70 -11 48 -9 66 6 57 13 -9 16 0 6 25 -9 25 -8 31 5 18 28 -27 42
-190 17 -190 -12 0 -15 -48 -8 -127 14 -144 -28 -213 -129 -213 -28 0 -75 -22
-105 -50 -48 -44 -64 -48 -170 -37 -319 33 -494 -115 -446 -380 12 -71 15
-158 6 -205 -27 -144 11 -286 112 -416 79 -102 84 -103 253 -61 71 18 152 -59
155 -145 0 -31 13 -92 28 -136 l28 -80 -12 100 c-6 55 -5 94 3 87 15 -14 27
-55 82 -287 38 -161 41 -165 126 -189 62 -18 63 -17 33 25 -16 24 -30 65 -30
91 0 45 5 42 58 -31 55 -76 203 -111 255 -60 6 7 44 0 84 -15 116 -44 142 -35
156 52 16 104 55 100 41 -4 -10 -75 -7 -80 32 -67 40 12 40 11 8 -21 -20 -20
-49 -29 -72 -22 -21 7 -44 3 -51 -8 -8 -12 0 -16 18 -9 23 9 28 4 19 -21 -7
-18 -18 -28 -24 -22 -13 14 -60 -74 -50 -94 5 -8 17 -15 28 -15 11 0 14 10 7
21 -21 34 92 109 195 129 29 6 31 0 12 -41 -13 -27 -37 -47 -54 -44 -20 3 -31
-8 -29 -30 1 -19 -7 -35 -18 -35 -11 0 -9 -13 5 -30 20 -24 20 -42 0 -90 -13
-32 -19 -80 -13 -105 6 -25 3 -59 -8 -75 -19 -30 -20 -25 -27 110 -3 50 -192
68 -192 18 0 -15 -13 -28 -30 -28 -50 0 -33 -50 18 -53 31 -2 54 12 66 39 13
29 24 34 34 18 8 -13 5 -24 -6 -24 -11 0 -16 -13 -10 -28 13 -34 -65 -119 -93
-102 -10 7 -19 -1 -19 -17 0 -38 49 -56 78 -27 16 16 22 16 22 -1 0 -45 87
-104 173 -116 48 -8 87 -22 87 -31 0 -10 10 -18 22 -18 12 0 17 14 10 31 -6
18 -3 26 8 19 31 -19 23 -84 -12 -98 -44 -17 -52 -15 -38 8 7 11 6 30 -2 43
-9 14 -23 6 -40 -25 -22 -39 -27 -41 -27 -12 -1 31 -5 33 -28 10 -17 -17 -24
-53 -18 -92 7 -49 2 -64 -23 -64 -17 0 -32 -9 -32 -20 0 -11 14 -20 31 -20 17
0 26 -9 19 -20 -7 -11 -34 -20 -61 -20 -35 0 -49 -11 -49 -39 0 -21 -9 -44
-20 -51 -11 -7 -20 -22 -20 -34 0 -14 10 -13 28 3 20 16 33 16 41 2 8 -12 4
-21 -8 -21 -11 0 -21 -13 -21 -29 0 -15 -19 -34 -43 -42 -62 -20 -217 -168
-217 -208 0 -18 -10 -43 -22 -55 -37 -37 1 -71 64 -59 50 10 58 6 60 -32 3
-57 4 -55 -13 -125 l-13 -60 36 50 c19 28 45 57 57 65 13 9 13 15 1 15 -11 1
-5 10 14 21 19 11 30 32 24 48 -6 15 -1 33 11 40 11 7 21 -1 21 -19 0 -26 7
-27 43 -8 38 20 49 16 84 -32 80 -109 134 -150 204 -153 111 -5 118 -6 132
-24 7 -10 19 47 27 126 17 174 -43 331 -129 331 -86 0 -96 -58 -25 -139 35
-40 65 -83 67 -97 19 -145 -1 -163 -115 -104 -116 60 -250 214 -208 240 11 7
20 6 20 -2 0 -8 17 6 39 31 21 24 34 59 28 78 -9 26 -7 27 9 5 16 -22 27 -16
57 30 20 32 50 70 67 84 16 15 19 21 5 14 -14 -7 -25 -2 -25 10 0 12 -8 17
-19 11 -10 -6 -24 -3 -31 9 -7 11 -4 20 6 20 11 0 24 19 30 42 8 31 21 38 52
29 59 -19 122 22 122 80 0 27 9 49 20 49 11 0 20 27 20 59 0 67 -68 144 -112
127 -16 -6 -28 2 -28 20 0 20 13 27 40 20 57 -15 49 11 -10 34 -47 18 -61 54
-54 143 2 18 -10 44 -26 57 -29 24 -22 128 13 172 9 12 20 57 24 100 4 43 22
111 40 151 30 69 30 76 -9 125 l-41 52 46 185 c49 199 74 235 160 235 160 0
266 138 269 348 1 78 13 169 26 201 111 273 -63 579 -333 583 -112 2 -135 9
-177 55 -27 29 -56 54 -64 56 -8 1 -34 4 -58 7 -25 2 -68 20 -97 39 -61 40
-55 44 -86 -63 -13 -46 -37 -97 -54 -114 -16 -16 -29 -43 -29 -59 0 -17 -8
-35 -17 -41 -26 -16 -11 205 16 237 12 15 21 34 19 44 -8 49 8 67 60 67 50 0
59 9 70 67 7 38 31 89 54 115 27 31 37 63 30 97 -11 50 -11 50 12 6 15 -32 16
-59 2 -90 -18 -39 -15 -45 25 -45 25 0 40 8 34 18 -7 11 10 4 36 -15 31 -21
87 -33 158 -33 80 1 103 6 81 20 -26 17 -23 25 15 55 45 35 45 36 5 60 -22 14
-40 39 -40 56 0 17 -9 26 -20 19 -11 -7 -20 -3 -20 9 0 13 -19 9 -47 -9 -97
-63 -220 31 -160 122 l36 55 -55 -14 c-61 -16 -65 30 -15 187 24 79 8 204 -21
158 -25 -40 -22 -83 4 -67 25 16 7 -95 -26 -157 -24 -46 -66 -33 -65 19 1 27
-13 40 -46 43 -32 3 -43 -4 -33 -21 11 -20 8 -20 -13 0 -38 35 -69 31 -39 -5
20 -24 19 -30 -5 -30 -17 0 -36 14 -42 30 -7 17 -26 30 -44 30 -19 0 -26 -9
-17 -25 8 -14 7 -18 -3 -9 -45 41 -29 94 30 94 34 0 67 14 77 33 16 27 20 24
31 -18 15 -58 81 -83 115 -43 12 15 31 22 42 15 11 -6 10 7 -3 31 -13 24 -18
51 -12 60 20 33 -59 104 -135 121 -69 16 -81 12 -148 -52z m174 -310 c0 -15
-46 -26 -85 -19 -19 3 -20 -47 -2 -65 21 -21 21 -115 0 -128 -11 -6 -12 0 -3
15 10 17 6 22 -12 16 -60 -20 -81 38 -39 107 21 35 35 70 31 77 -5 7 18 13 51
13 32 0 59 -7 59 -16z m-275 -117 c10 0 11 10 4 22 -10 15 -1 15 29 -1 23 -12
41 -38 40 -57 -1 -20 -5 -24 -11 -9 -8 19 -17 18 -39 -4 -30 -30 -20 -80 27
-135 20 -23 23 -43 9 -68 -28 -50 -83 80 -94 222 0 11 -9 34 -18 50 -15 24
-13 25 9 5 15 -14 35 -25 44 -25z m342 -24 c38 2 33 -215 -7 -266 -9 -11 -20
-38 -26 -60 -5 -22 -10 -4 -12 41 -1 45 6 90 15 100 10 10 23 50 31 87 l12 68
-38 -43 -38 -44 -22 63 c-29 83 -28 85 13 67 19 -8 52 -14 72 -13z m-173 -111
c46 -15 67 -14 74 2 6 13 7 -3 2 -34 -4 -31 -18 -69 -31 -84 -12 -15 -17 -36
-10 -47 7 -11 -8 -31 -33 -44 -41 -22 -43 -21 -20 7 17 21 19 36 5 44 -14 9
-15 26 -1 50 16 32 13 36 -25 27 -34 -7 -38 -5 -17 10 23 16 19 22 -18 27 -30
5 -49 23 -53 52 -6 37 -1 42 28 28 19 -10 64 -27 99 -38z m-202 -303 c15 -28
28 -43 28 -32 1 38 39 -40 39 -80 0 -34 -3 -35 -21 -10 -30 43 -3 -45 50 -165
46 -104 81 -129 128 -90 25 19 28 20 17 0 -10 -17 -2 -25 27 -25 23 0 37 -9
30 -20 -7 -11 -3 -20 9 -20 11 0 21 -13 21 -30 0 -17 -18 -30 -40 -30 -22 0
-40 -11 -40 -25 -1 -17 -7 -15 -20 5 -10 17 -15 44 -9 62 8 25 -3 29 -52 22
-33 -5 -59 -1 -57 9 8 32 -26 87 -54 87 -15 0 -28 10 -28 21 0 12 -11 15 -24
7 -19 -12 -19 -17 0 -23 42 -14 26 -40 -25 -40 -49 0 -128 65 -106 87 17 17
58 -11 45 -31 -5 -9 3 -22 19 -28 23 -9 24 0 8 48 -12 33 -36 59 -54 59 -27 1
-28 4 -5 18 19 12 38 8 57 -10 63 -63 86 -19 33 63 -24 36 -27 56 -11 76 12
14 14 34 5 44 -9 11 -22 64 -28 119 -10 86 -8 92 10 42 12 -31 33 -81 48 -110z
m104 -157 c-4 -40 3 -54 26 -53 23 2 30 -9 23 -35 -9 -36 -12 -35 -47 6 -41
47 -44 58 -26 105 19 49 30 38 24 -23z m409 -61 c-8 -22 -1 -25 34 -14 34 10
43 7 37 -13 -11 -33 -76 -44 -114 -19 -34 22 -17 75 24 75 18 0 26 -11 19 -29z
m-105 -35 c0 -16 -10 -29 -21 -29 -12 0 -15 -11 -6 -25 10 -18 5 -17 -18 2
-27 21 -29 34 -10 63 25 41 55 35 55 -11z m-940 -49 c0 -11 11 -20 26 -20 37
0 94 -74 94 -121 0 -90 -83 -196 -106 -134 -5 14 -16 18 -26 9 -9 -9 -4 -24
12 -34 37 -23 -23 -95 -87 -104 -50 -7 -72 -76 -24 -76 17 0 31 11 32 25 0 17
8 15 25 -6 13 -17 40 -27 59 -23 19 4 35 -2 35 -13 0 -11 -16 -24 -35 -29 -26
-7 -24 -10 10 -12 33 -1 45 9 45 40 0 44 41 44 56 -1 6 -17 0 -21 -16 -11 -20
12 -22 3 -12 -40 19 -74 -26 -105 -69 -48 -35 45 -42 -48 -9 -103 11 -17 5
-18 -25 -2 -34 19 -76 122 -68 168 2 8 -23 15 -54 15 -38 0 -56 -10 -56 -31 0
-21 12 -29 35 -23 19 5 40 -1 45 -15 6 -16 -10 -23 -49 -21 -36 2 -58 -6 -58
-23 0 -15 -13 -21 -30 -14 -39 15 -38 -2 2 -64 18 -27 45 -49 60 -49 16 0 28
-8 28 -19 0 -10 26 -18 57 -17 32 1 68 -4 80 -12 13 -8 28 -2 34 12 6 17 41
27 91 26 44 -1 90 10 102 24 28 34 96 33 96 -1 0 -130 -519 -130 -578 0 -31
69 -27 127 8 127 17 0 30 8 30 18 0 10 -13 23 -30 29 -35 14 -41 73 -8 73 17
0 17 7 1 26 -15 19 -11 32 19 50 22 14 38 36 36 50 -8 62 6 80 26 34 11 -27
24 -40 29 -27 5 12 26 18 48 13 42 -11 45 -6 27 42 -7 18 -25 32 -40 32 -15 0
-33 25 -39 55 -7 30 -16 67 -21 82 -4 14 5 45 22 69 49 70 170 123 170 74z
m379 -37 c11 -21 14 -43 7 -50 -12 -12 42 -22 80 -15 10 2 11 -6 4 -18 -8 -12
18 -20 67 -20 76 0 122 -56 105 -127 -2 -10 11 -12 28 -6 21 8 27 5 18 -10
-10 -16 0 -20 29 -12 74 19 126 -107 73 -176 -28 -38 -29 -37 -25 11 4 40 -3
49 -35 43 -64 -11 -62 -21 16 -89 88 -76 94 -127 19 -157 -30 -13 -113 -49
-183 -81 -129 -57 -208 -46 -126 18 30 23 30 25 2 15 -30 -10 -43 9 -68 103
-3 12 -21 48 -39 80 l-33 58 14 -60 c8 -33 15 -80 16 -105 1 -25 9 -45 17 -45
8 0 25 -40 37 -90 21 -83 45 -112 61 -74 21 47 147 83 153 43 4 -22 14 -35 24
-29 9 5 12 30 6 55 -8 36 -5 39 12 15 19 -26 21 -26 22 3 0 37 74 64 85 31 4
-12 19 -14 33 -5 22 13 22 19 0 32 -18 11 -9 20 30 30 31 8 48 20 39 27 -44
32 -65 142 -26 142 27 0 41 -20 50 -70 8 -38 20 -70 28 -70 8 0 3 -47 -12
-104 -33 -130 -37 -257 -5 -176 11 27 24 87 29 132 4 45 17 105 27 133 11 28
16 55 11 60 -5 4 2 10 16 11 110 14 124 12 131 -19 4 -24 -4 -31 -31 -24 -71
18 -111 -59 -115 -223 -3 -138 9 -179 39 -131 7 11 45 7 94 -10 108 -38 247
-37 308 3 53 36 60 27 28 -34 -24 -44 -253 -42 -372 3 -40 15 -58 15 -63 0
-10 -30 -78 -26 -90 5 -5 14 -78 37 -167 51 -369 60 -406 68 -395 86 19 32
-55 302 -105 382 -49 78 -48 87 9 57 93 -50 462 -78 425 -33 -28 34 -12 71 30
71 16 0 29 11 29 25 1 17 7 15 22 -5 19 -27 20 -27 12 0 -10 32 -17 33 -92 10
-35 -11 -43 -8 -31 11 9 16 7 20 -7 12 -11 -8 -17 -35 -12 -62 4 -27 -2 -55
-15 -63 -16 -10 -20 -4 -11 19 7 18 4 33 -7 33 -30 0 -23 52 11 80 36 30 32
81 -10 114 -35 29 -148 35 -131 7 6 -10 -18 -4 -54 13 -84 41 -82 39 -45 53
18 7 27 4 20 -7 -7 -11 1 -14 19 -8 17 7 25 21 19 31 -7 11 -25 15 -42 8 -44
-17 -72 8 -45 40 28 34 8 70 -37 67 -21 -1 -24 -5 -9 -11 14 -6 25 -19 25 -30
0 -11 -9 -14 -20 -7 -11 7 -15 -1 -8 -18 10 -25 1 -27 -50 -13 -38 11 -62 11
-62 0 0 -11 21 -19 48 -19 62 0 112 -55 71 -80 -15 -10 -33 -12 -38 -4 -24 31
-61 22 -61 -14 0 -28 10 -36 38 -28 21 5 44 0 51 -13 9 -14 25 -9 47 17 26 29
44 34 74 20 37 -17 37 -18 -5 -10 -25 4 -50 0 -56 -10 -6 -10 -2 -18 10 -18
11 0 21 -18 21 -40 0 -22 8 -40 18 -40 25 0 64 52 49 66 -7 7 7 9 30 5 23 -5
40 1 38 13 -9 40 35 36 62 -6 17 -28 19 -50 7 -62 -13 -13 -24 -12 -33 2 -20
33 -82 26 -114 -11 -24 -30 -23 -31 15 -7 27 17 57 20 80 10 35 -16 35 -18 -7
-25 -25 -4 -40 -16 -34 -26 6 -11 -13 -10 -43 2 -41 15 -59 14 -71 -5 -15 -24
-25 -7 -19 31 2 9 -14 11 -35 4 -27 -9 -41 -1 -49 28 -5 23 -21 41 -35 41 -19
0 -19 -6 0 -29 32 -39 8 -81 -29 -51 -20 17 -31 14 -44 -9 -21 -37 -34 188
-16 270 10 47 70 77 70 36 0 -9 10 -17 22 -17 12 0 17 13 11 29 -21 56 96 69
126 14z m671 -23 c0 -61 -58 -77 -110 -30 -24 22 -40 25 -49 11 -8 -12 -23
-16 -34 -9 -31 19 86 87 143 82 39 -3 50 -15 50 -54z m180 -20 c8 -13 26 -13
53 2 37 19 39 17 27 -25 -7 -26 -18 -64 -24 -85 -6 -21 -2 -32 9 -25 11 7 16
-7 11 -33 -15 -83 84 -161 187 -147 48 7 87 6 86 -2 -1 -27 -53 -85 -75 -85
-12 0 -22 -16 -24 -35 -1 -19 -6 -107 -11 -195 -9 -174 -47 -234 -163 -263
-88 -22 -275 17 -283 60 -6 32 -1 33 37 13 24 -13 82 -19 127 -14 220 26 301
112 185 197 -9 7 2 19 25 26 47 15 56 41 21 62 -12 7 -17 30 -12 51 6 21 1 44
-11 51 -13 8 -15 4 -6 -12 12 -19 5 -22 -26 -12 -27 9 -43 5 -43 -9 0 -12 8
-17 18 -11 9 6 23 -10 29 -34 7 -25 13 -49 14 -55 2 -5 -26 -7 -61 -3 -58 6
-63 2 -52 -40 6 -26 6 -36 0 -22 -6 14 -24 25 -40 25 -32 0 -38 -51 -8 -70 33
-21 22 -50 -18 -50 -21 0 -43 -11 -49 -25 -6 -15 -10 -11 -11 10 -2 28 -13 33
-52 23 -38 -9 -50 -4 -50 20 0 32 19 40 83 33 19 -1 39 7 46 18 8 12 3 21 -9
21 -40 0 -12 89 30 97 40 7 40 7 0 -24 -22 -16 -33 -37 -24 -46 9 -9 22 -6 30
6 8 11 35 32 61 46 53 28 36 61 -34 66 -49 4 -61 75 -13 75 17 0 30 -9 30 -20
0 -11 14 -20 30 -20 17 0 30 18 30 41 0 23 -9 36 -20 29 -41 -25 -153 148
-132 203 7 16 3 24 -8 17 -11 -7 -20 11 -20 40 0 46 -4 49 -29 24 -23 -23 -25
-41 -7 -88 24 -63 7 -175 -23 -156 -10 6 -28 -5 -39 -25 -18 -30 -24 -31 -41
-6 -10 17 -12 35 -3 40 9 6 15 38 13 71 -2 33 10 83 27 110 29 46 29 48 -2 23
-51 -39 -125 -22 -132 32 -8 55 37 77 94 46 33 -17 54 -15 97 10 30 17 37 26
15 19 -31 -10 -35 -7 -16 12 19 19 31 19 53 1 22 -19 31 -17 40 6 13 35 45 41
63 11z m-1432 -130 c1 -11 -8 -6 -19 10 -17 25 -20 23 -17 -10 5 -54 -22 -113
-45 -98 -18 11 -11 47 28 148 19 50 49 22 53 -50z m1621 29 c-25 -48 5 -99 58
-99 21 1 25 6 11 15 -15 10 -17 31 -6 60 16 42 56 63 59 30 1 -8 6 -35 10 -60
12 -61 -65 -100 -128 -66 -55 29 -55 161 0 161 10 0 9 -18 -4 -41z m-499 -89
c31 -37 -5 -90 -62 -90 -40 0 -87 69 -68 100 19 30 102 24 130 -10z m-700
-301 c0 -16 -9 -29 -20 -29 -11 0 -20 9 -20 20 0 11 -18 20 -41 20 -34 0 -36
5 -15 28 31 33 96 7 96 -39z m115 -284 c15 -44 -110 -86 -250 -83 -74 1 -160
-8 -191 -20 -62 -24 -145 3 -122 41 8 14 19 14 34 -1 30 -30 94 -28 94 4 0 19
32 24 125 19 98 -6 140 1 195 33 74 42 103 44 115 7z m-198 -153 c29 -27 80
-71 113 -99 33 -27 55 -54 49 -60 -6 -6 -64 37 -130 97 -65 59 -111 109 -102
109 9 1 41 -21 70 -47z m236 -79 c23 -13 24 -22 6 -45 -19 -23 -16 -28 19 -28
23 0 42 -10 42 -22 0 -13 18 -18 40 -12 24 6 35 2 28 -10 -19 -31 114 3 149
38 20 20 35 22 50 7 30 -30 59 -26 46 7 -16 44 86 62 125 22 29 -31 29 -33 -8
-29 -83 8 -101 -2 -51 -29 80 -45 214 11 188 79 -5 14 -1 30 9 37 34 20 43
-71 12 -118 -47 -72 -193 -94 -286 -42 -40 22 -57 22 -106 -3 -88 -44 -277 1
-307 73 -34 80 -43 160 -22 182 17 17 25 8 30 -34 3 -31 20 -63 36 -73z m811
-54 c-36 -33 -75 -54 -86 -47 -31 18 61 108 110 107 37 0 34 -7 -24 -60z
m-844 -111 c0 -17 18 -37 41 -42 26 -7 37 -22 30 -44 -6 -19 5 -43 28 -57 33
-20 38 -19 28 5 -9 25 -2 25 50 -2 64 -32 163 3 163 58 0 12 18 2 41 -22 22
-24 56 -45 75 -45 19 -1 58 -5 87 -9 52 -7 97 48 97 121 0 16 9 29 20 29 36 0
21 -93 -23 -150 -49 -62 -191 -64 -252 -3 -29 28 -34 28 -56 -2 -18 -24 -51
-33 -112 -31 -131 4 -195 13 -192 25 6 31 -49 179 -70 188 -15 6 -10 11 10 11
19 1 35 -12 35 -30z m840 20 c0 -7 -14 -66 -31 -133 -17 -66 -26 -133 -20
-149 6 -17 2 -23 -11 -15 -12 8 -20 -2 -17 -24 6 -60 0 -87 -19 -87 -34 0 -40
88 -10 151 17 35 34 90 38 122 4 31 9 62 11 67 2 6 2 26 0 45 -2 20 10 35 28
35 17 0 31 -5 31 -12z m-148 -990 c19 -21 25 -38 13 -38 -12 0 -25 11 -30 25
-5 15 -18 6 -34 -22 -15 -30 -17 -43 -3 -34 12 7 22 0 22 -17 0 -19 -11 -26
-30 -19 -16 6 -30 19 -30 29 0 10 -13 18 -30 18 -16 0 -30 14 -30 30 0 17 9
30 19 30 11 0 15 12 9 27 -15 41 81 18 124 -29z m68 -317 c-12 -23 -31 -37
-41 -30 -25 15 -24 -36 1 -67 14 -17 13 -19 -2 -6 -13 11 -35 14 -50 8 -34
-13 -37 37 -4 70 13 13 15 24 5 24 -10 0 8 18 41 40 65 43 86 27 50 -39z
m-120 -269 c0 -15 -25 -32 -55 -38 -67 -13 -78 -4 -45 36 31 38 100 40 100 2z
m-109 -124 c-21 -15 -53 -28 -70 -29 -46 -1 -146 -95 -129 -122 9 -14 5 -18
-9 -9 -13 8 -23 27 -23 42 0 33 139 133 163 118 10 -6 17 -1 17 9 0 21 62 42
80 28 5 -5 -8 -21 -29 -37z m-71 -117 c0 -53 -34 -86 -60 -58 -20 21 11 107
39 107 12 0 21 -22 21 -49z"/>
<path d="M2169 4203 c9 -54 5 -65 -19 -56 -34 13 -38 -4 -10 -47 13 -20 19
-22 20 -5 0 14 10 25 21 25 12 0 16 -9 9 -20 -7 -11 -3 -20 8 -20 23 0 8 112
-22 160 -13 20 -15 9 -7 -37z"/>
<path d="M2350 5020 c-44 -8 -70 -16 -57 -17 12 -2 28 -25 35 -53 10 -38 26
-50 67 -51 56 -2 87 -18 257 -134 141 -96 268 -84 268 27 0 24 -22 58 -49 76
-58 38 -89 42 -55 8 13 -13 24 -36 24 -50 0 -51 -67 -24 -153 62 -70 70 -229
164 -252 149 -3 -1 -41 -9 -85 -17z"/>
<path d="M1120 3028 c0 -10 9 -49 19 -86 18 -61 14 -73 -31 -112 -57 -49 -62
-146 -8 -133 17 3 24 0 16 -8 -8 -8 3 -39 25 -70 48 -68 50 -93 4 -57 -19 15
-15 4 10 -24 54 -61 58 -88 10 -67 -19 8 -57 13 -83 12 -83 -5 -142 49 -142
127 0 67 -3 70 -65 65 -204 -16 34 -313 251 -315 78 0 137 -58 77 -74 -24 -6
-43 -17 -43 -24 0 -45 -121 -18 -148 33 -28 51 -30 51 -31 11 -1 -24 6 -48 16
-54 18 -12 6 -132 -14 -132 -22 0 -67 -118 -53 -140 19 -31 50 -24 37 10 -17
45 8 36 34 -11 17 -32 15 -52 -10 -90 -17 -26 -31 -59 -31 -73 1 -18 6 -17 20
4 16 24 19 22 20 -14 0 -24 -15 -52 -33 -62 -18 -10 -34 -35 -36 -56 -4 -37
-12 -63 -53 -165 -22 -54 10 -254 49 -304 40 -53 153 -123 181 -112 15 5 37 0
50 -13 27 -27 30 -61 3 -45 -10 6 -18 -18 -18 -54 0 -36 -5 -105 -10 -155 -5
-49 -1 -100 9 -112 26 -32 -29 -73 -86 -65 -57 9 -72 83 -26 129 42 43 30 96
-24 104 -106 15 -171 -183 -95 -292 42 -59 182 -61 255 -4 l51 41 53 -69 c48
-63 117 -258 98 -277 -50 -50 280 -186 398 -164 49 9 79 1 118 -30 56 -44 247
-89 322 -76 33 5 22 14 -46 35 -112 34 -114 34 -148 37 -15 2 -71 44 -123 93
l-96 90 -48 -45 c-48 -45 -48 -45 -77 -5 -25 33 -33 35 -47 11 -14 -22 -24
-23 -47 -4 -16 13 -46 18 -66 11 -26 -8 -30 -6 -13 6 32 23 4 126 -56 201 -40
52 -41 55 -6 62 76 14 79 49 3 37 -63 -9 -72 -6 -62 22 7 19 5 28 -3 20 -19
-17 -91 17 -91 42 0 34 78 38 87 5 5 -22 9 -17 11 13 1 26 11 41 22 34 11 -7
20 3 20 21 0 25 -7 28 -25 13 -88 -73 -124 167 -40 261 57 64 -22 42 -87 -24
-72 -75 -88 -76 -87 -6 2 49 4 50 19 15 18 -43 28 -15 21 57 -3 21 5 32 16 25
29 -18 103 49 103 92 0 49 -51 45 -86 -5 -29 -40 -29 -40 -42 11 -15 58 0 96
34 85 12 -4 37 5 56 21 48 41 -11 151 -65 122 -53 -28 -69 -21 -26 11 37 28
37 30 -17 30 -63 1 -91 -45 -54 -89 19 -23 19 -30 1 -30 -15 0 -12 -11 8 -32
17 -17 26 -40 20 -50 -17 -27 -52 0 -36 28 7 13 6 17 -3 9 -24 -21 -90 44 -90
88 0 21 -14 37 -32 37 -23 0 -28 10 -18 35 33 82 48 152 36 173 -7 12 -5 16 3
8 23 -20 91 20 91 53 0 15 12 31 28 37 17 7 23 30 17 62 -5 28 -17 47 -25 42
-20 -12 -37 32 -25 65 4 14 21 25 37 25 15 0 28 14 28 30 0 17 -9 30 -21 30
-11 0 -25 -13 -32 -30 -20 -54 -47 -32 -47 40 0 51 9 70 32 70 20 0 28 -11 21
-29 -7 -19 -1 -25 16 -19 15 6 23 29 17 54 -9 43 -9 43 32 -3 23 -26 42 -60
42 -75 0 -35 16 -34 80 2 49 28 49 29 5 29 -25 1 -45 11 -45 22 0 12 -8 16
-19 10 -10 -7 -17 6 -16 29 2 22 10 40 17 40 21 0 40 61 26 84 -8 13 -19 10
-30 -7 -10 -15 -18 -17 -18 -5 0 13 18 45 39 73 22 27 35 54 30 59 -5 5 4 9
19 9 24 0 23 -7 -2 -47 -17 -26 -24 -54 -16 -62 9 -8 19 -3 24 11 15 41 46 28
48 -20 2 -34 5 -36 12 -10 16 64 82 38 148 -57 45 -66 68 -85 79 -66 26 41
-103 200 -259 318 -78 60 -95 132 -28 125 32 -3 43 6 41 34 -2 21 -8 35 -14
32 -6 -3 -29 1 -51 10 -34 14 -35 16 -5 18 19 0 35 11 35 23 0 15 26 18 75 9
41 -7 95 -13 120 -14 25 -1 45 -8 45 -16 0 -8 11 -15 25 -15 14 -1 50 -6 80
-12 30 -6 55 -4 55 5 0 23 -55 42 -87 29 -38 -14 -76 40 -66 95 8 44 3 47 -87
47 -53 0 -96 -4 -96 -10 3 -41 -8 -60 -34 -60 -16 0 -30 -9 -30 -20 0 -11 -18
-20 -40 -20 -22 0 -40 11 -40 25 0 14 -14 51 -30 82 -17 32 -44 113 -62 180
-30 117 -48 162 -48 121z m376 -359 c60 -43 35 -77 -27 -36 -47 31 -65 67 -33
67 8 0 35 -14 60 -31z m-286 -274 c13 -12 -4 -14 -50 -5 -105 22 -147 53 -50
38 44 -7 89 -22 100 -33z m75 -1521 c-11 -13 -25 -49 -33 -79 -14 -60 -52 -75
-52 -21 0 42 87 173 97 145 4 -11 -2 -31 -12 -45z m-285 -66 c0 -14 -9 -31
-20 -38 -29 -18 -60 7 -48 37 13 34 68 34 68 1z m40 -218 c0 -5 -22 1 -50 14
-27 12 -50 39 -50 58 0 31 7 29 50 -14 28 -27 50 -54 50 -58z"/>
<path d="M1870 2520 c7 -11 -6 -20 -29 -20 -26 0 -41 -13 -41 -35 1 -27 4 -29
18 -8 13 21 26 22 58 5 51 -27 79 5 43 49 -27 32 -68 40 -49 9z"/>
<path d="M2171 2433 c-42 -31 -19 -97 37 -105 24 -3 32 12 32 64 0 74 -13 82
-69 41z"/>
<path d="M707 2309 c-16 -41 16 -72 51 -50 30 18 16 81 -18 81 -12 0 -27 -14
-33 -31z"/>
<path d="M1328 2124 c-30 -20 -50 -84 -35 -108 7 -12 25 8 40 44 30 71 28 86
-5 64z"/>
<path d="M1600 1746 c0 -52 6 -61 40 -52 22 6 40 14 40 19 0 5 -18 28 -40 52
l-40 43 0 -62z"/>
<path d="M746 1748 c-12 -33 30 -73 58 -55 9 5 16 27 16 48 0 47 -56 52 -74 7z"/>
<path d="M1423 1684 c-2 -15 -12 -21 -23 -14 -25 16 -26 -89 -1 -129 23 -37
49 51 35 122 -5 26 -10 35 -11 21z"/>
<path d="M2364 1625 c4 -24 28 -36 76 -39 39 -3 57 1 40 8 -16 7 -41 24 -56
39 -38 38 -68 34 -60 -8z"/>
<path d="M1082 1487 c-13 -29 -17 -58 -10 -65 7 -6 17 -1 22 13 5 14 22 25 38
25 35 0 36 28 1 57 -21 18 -32 11 -51 -30z"/>
<path d="M1733 1096 c-6 -25 -7 -79 0 -119 13 -82 -37 -188 -60 -128 -6 17 -3
31 8 31 10 0 19 34 18 75 l-1 75 -32 -70 c-34 -72 -37 -86 -58 -240 -7 -49
-22 -101 -33 -115 -25 -32 15 -85 65 -85 47 0 87 -52 72 -92 -16 -41 69 -123
144 -139 30 -6 68 -20 84 -30 313 -190 375 -217 498 -215 159 2 155 21 -13 52
-128 24 -163 42 -368 190 -29 21 -83 44 -120 52 -61 13 -67 21 -67 84 0 75
-45 138 -99 138 -45 0 -129 82 -96 94 14 5 25 35 25 67 0 43 8 55 30 46 58
-22 109 138 82 258 -24 111 -60 143 -79 71z"/>
<path d="M1980 700 c0 -22 13 -40 30 -40 17 0 30 18 30 40 0 22 -13 40 -30 40
-17 0 -30 -18 -30 -40z"/>
<path d="M507 449 c3 -39 -3 -76 -14 -83 -10 -7 -13 -2 -5 11 8 13 5 23 -7 23
-11 0 -21 -14 -21 -32 0 -24 12 -29 48 -20 26 6 76 2 110 -10 47 -17 78 -16
123 2 59 25 87 90 29 67 -16 -6 -30 -18 -30 -27 0 -30 -60 -38 -124 -16 -82
27 -83 28 -66 57 11 17 19 16 32 -4 13 -21 17 -21 18 -1 0 14 -13 30 -30 37
-16 6 -30 24 -30 39 0 15 -9 28 -19 28 -11 0 -17 -32 -14 -71z"/>
<path d="M620 427 c0 -25 16 -38 50 -40 31 -2 50 8 50 25 0 15 -8 28 -18 28
-10 0 -33 5 -50 12 -22 9 -32 1 -32 -25z"/>
<path d="M540 240 c0 -27 13 -40 40 -40 47 0 50 13 11 51 -38 39 -51 36 -51
-11z"/>
<path d="M700 265 c1 -41 39 -74 41 -35 1 37 3 36 20 -5 24 -59 40 -57 34 5
-3 46 -96 80 -95 35z"/>
</g>
</svg>
