<?xml version="1.0" standalone="no"?>
<!DOCTYPE svg PUBLIC "-//W3C//DTD SVG 20010904//EN"
 "http://www.w3.org/TR/2001/REC-SVG-20010904/DTD/svg10.dtd">
<svg version="1.0" xmlns="http://www.w3.org/2000/svg"
 width="300.000000pt" height="273.000000pt" viewBox="0 0 300.000000 273.000000"
 preserveAspectRatio="xMidYMid meet">
<metadata>
Created by potrace 1.10, written by Peter Selinger 2001-2011
</metadata>
<g transform="translate(0.000000,273.000000) scale(0.050000,-0.050000)"
fill="#000000" stroke="none">
<path d="M91 4762 c-11 -18 62 -90 179 -176 44 -33 51 -45 26 -45 -19 -1 -66
26 -104 60 -38 34 -97 69 -131 79 -132 37 -36 -168 124 -267 30 -19 53 -44 50
-57 -3 -13 21 -29 54 -35 32 -6 58 -20 58 -31 -3 -54 40 -128 82 -138 28 -7
46 -25 44 -47 -2 -27 13 -35 69 -36 133 -1 205 -71 135 -132 l-43 -37 63 -12
c44 -9 63 -24 63 -50 0 -21 9 -38 20 -38 12 0 31 -22 44 -50 16 -36 38 -50 79
-50 35 0 66 -15 82 -40 15 -24 46 -40 80 -40 84 0 80 -106 -5 -143 -33 -15
-60 -32 -60 -39 0 -22 247 -17 274 6 19 15 35 13 58 -5 27 -23 27 -30 4 -48
-16 -12 -34 -37 -42 -56 -7 -20 -40 -41 -74 -48 -48 -10 -56 -18 -38 -39 12
-15 30 -23 39 -17 9 5 60 14 113 20 205 21 407 75 380 101 -6 6 -29 2 -51 -10
-48 -26 -243 -30 -243 -5 0 10 52 24 115 31 143 16 263 52 326 96 l49 34 -80
1 c-44 0 -124 -13 -177 -29 -117 -35 -194 -12 -95 29 151 63 127 123 -30 73
-61 -19 -117 -30 -123 -24 -6 7 -24 1 -39 -11 -15 -12 -33 -16 -41 -8 -8 8 12
36 45 62 58 47 95 64 220 102 70 21 95 87 32 87 -22 0 -47 -12 -56 -27 -16
-26 -288 -177 -300 -166 -14 15 46 112 65 105 12 -4 43 9 70 30 27 20 65 37
84 38 19 0 35 14 35 30 0 32 -24 40 -48 15 -9 -8 -48 -16 -89 -17 -40 -1 -126
-17 -191 -35 -70 -20 -126 -27 -137 -16 -10 10 6 23 39 30 31 7 79 30 106 52
l50 40 -90 3 c-49 1 -98 1 -109 -1 -48 -9 -109 21 -98 49 6 17 2 30 -10 30
-12 0 -62 40 -110 88 -55 55 -111 92 -146 96 l-57 6 57 32 57 31 -47 30 c-26
17 -72 37 -103 44 -31 8 -51 22 -45 31 6 9 -31 32 -81 52 -59 22 -87 44 -80
61 5 14 -1 30 -14 35 -15 6 -10 15 12 24 37 16 181 -37 230 -85 15 -14 36 -25
47 -25 26 0 244 -100 257 -118 6 -8 71 -48 145 -89 74 -41 135 -88 135 -103 0
-34 -50 -20 -110 29 -73 60 -213 144 -224 134 -6 -6 36 -39 92 -74 57 -34 111
-79 122 -99 24 -46 220 -93 241 -59 9 16 39 10 96 -20 51 -26 101 -37 130 -30
57 14 302 -101 282 -133 -7 -11 2 -37 20 -57 18 -20 30 -44 27 -53 -8 -26 99
-133 111 -112 13 21 144 19 165 -2 8 -8 -7 -14 -34 -14 -38 -1 -42 -5 -18 -20
23 -15 16 -22 -37 -32 -46 -10 -58 -19 -40 -31 21 -13 19 -16 -7 -17 -18 0
-38 -7 -43 -15 -5 -8 58 -12 141 -8 113 5 147 0 136 -17 -11 -17 -3 -20 27
-11 32 10 62 -6 127 -68 46 -44 75 -81 65 -82 -10 0 6 -14 36 -30 30 -17 55
-38 55 -47 0 -10 23 -23 50 -30 66 -17 70 -91 5 -94 -42 -1 -42 -3 9 -25 30
-13 77 -44 105 -69 28 -24 59 -44 68 -44 24 0 103 -89 103 -116 0 -13 25 -29
55 -35 95 -21 105 -27 105 -61 0 -25 -12 -29 -50 -20 -67 17 -72 -61 -5 -87
47 -18 -19 -61 -94 -61 -15 0 -48 -19 -74 -41 l-47 -41 48 23 c48 23 102 -11
102 -65 0 -9 14 -16 30 -16 17 0 30 8 30 18 0 10 -13 23 -30 29 -16 7 -30 26
-30 45 0 19 11 28 28 22 15 -6 48 8 73 31 29 28 77 44 135 48 157 9 233 129
114 178 -37 16 -80 46 -95 68 -15 22 -63 67 -106 99 -81 62 -109 84 -277 224
-116 96 -296 235 -365 280 -27 18 -126 104 -220 190 -94 87 -188 174 -209 193
-42 38 -67 46 -48 15 7 -11 -8 -20 -34 -20 -30 0 -58 21 -79 59 -19 32 -68 77
-110 100 -43 23 -90 50 -107 60 -16 9 -79 37 -140 61 -108 43 -312 143 -587
287 -76 40 -172 104 -215 143 -90 81 -106 86 -87 28 17 -54 -36 -28 -120 60
-65 69 -85 76 -95 34 -4 -22 -39 -9 -136 49 -141 84 -152 88 -169 61z m1929
-982 c0 -24 -54 -24 -110 0 -32 14 -25 17 35 19 41 0 75 -8 75 -19z"/>
<path d="M4672 4675 c9 -36 17 -130 17 -209 0 -79 7 -133 15 -120 10 15 16 7
16 -20 0 -34 -8 -42 -35 -31 -21 8 -5 -22 40 -75 41 -48 75 -103 75 -122 0
-20 9 -41 20 -48 30 -18 24 55 -7 101 -15 21 -33 75 -41 119 -10 57 -8 71 7
50 11 -16 21 -46 21 -66 0 -20 9 -31 19 -25 11 7 14 28 8 47 -9 26 -5 25 18
-6 16 -22 35 -76 43 -120 10 -61 8 -73 -8 -50 -18 23 -20 17 -11 -30 7 -36 -1
-83 -19 -118 -28 -52 -28 -62 0 -92 43 -47 39 -54 -39 -69 -83 -15 -92 -26
-69 -87 15 -40 24 -43 63 -24 44 22 44 21 5 -10 -48 -40 -180 -29 -227 18 -36
37 -11 41 66 12 28 -10 51 -16 51 -13 0 30 -86 171 -109 180 -46 17 -38 51 9
39 31 -8 40 -1 40 34 0 43 1 44 52 11 28 -19 55 -30 60 -25 5 5 -14 24 -41 42
-28 18 -51 45 -51 59 0 14 -18 25 -41 25 -29 -2 -51 23 -81 87 l-40 90 51 -48
51 -48 0 44 c0 71 -109 290 -180 363 l-66 67 16 -78 c8 -44 18 -108 21 -143 3
-35 11 -73 18 -84 6 -10 3 -24 -7 -31 -25 -15 -4 -90 41 -149 41 -53 48 -102
15 -102 -14 0 -17 -19 -9 -52 20 -81 -25 -37 -51 50 -21 72 -158 211 -158 160
0 -13 -19 0 -41 29 -83 106 -117 -24 -39 -152 57 -93 52 -101 -62 -90 -92 9
-100 6 -90 -28 37 -118 38 -123 15 -109 -29 18 -29 7 0 -57 33 -71 6 -87 -53
-31 -40 38 -50 41 -50 15 0 -18 10 -39 22 -46 12 -7 17 -30 12 -51 -6 -21 -2
-43 8 -49 10 -6 18 4 18 22 0 60 136 -96 210 -241 26 -49 103 -89 174 -90 29
0 59 -9 66 -20 7 -11 2 -20 -10 -20 -13 0 -37 -14 -54 -31 -27 -28 -36 -27
-81 3 -47 30 -50 30 -39 0 12 -29 8 -29 -38 1 -31 20 -42 38 -29 46 13 8 -15
48 -69 99 -50 47 -108 119 -130 161 -42 83 -127 161 -175 161 -26 0 -25 -6 2
-45 74 -102 76 -112 33 -155 -22 -22 -40 -53 -40 -70 0 -17 -18 -30 -40 -30
-26 0 -44 -18 -52 -52 -10 -39 -23 -49 -53 -41 -32 8 -37 3 -27 -33 6 -24 12
-60 12 -79 0 -40 72 -49 86 -10 7 17 18 13 39 -13 19 -25 41 -34 65 -25 34 13
34 15 0 53 -49 55 -5 52 88 -4 l72 -44 -65 74 c-91 105 -87 157 6 76 87 -77
124 -80 74 -7 -106 152 -2 186 115 37 28 -35 27 -37 -18 -23 l-48 16 53 -96
c61 -108 56 -127 -22 -88 -30 15 -62 31 -70 35 -8 4 -15 -5 -15 -21 0 -38 89
-83 132 -67 35 13 67 -16 68 -61 0 -36 -67 -52 -89 -22 -48 63 -97 60 -84 -5
11 -55 7 -60 -42 -62 -52 -1 -50 -4 25 -38 l79 -37 -51 -20 c-110 -42 -151
-35 -215 34 -72 76 -76 87 -31 69 67 -25 17 62 -57 101 -41 22 -79 55 -85 74
-14 43 -146 67 -186 34 -16 -14 -44 -25 -62 -25 -17 0 -32 -13 -32 -29 0 -35
81 -80 143 -81 23 0 53 -13 67 -30 31 -37 23 -37 -91 1 -127 43 -177 33 -185
-38 -13 -112 130 -315 171 -242 17 31 23 29 62 -12 70 -75 19 -88 -120 -30
-18 8 -39 4 -46 -8 -7 -11 -3 -21 9 -21 64 0 171 -143 130 -174 -39 -29 -38
-30 10 -15 28 8 52 21 55 28 4 8 33 10 65 5 33 -5 55 -16 49 -26 -6 -10 -1
-18 11 -18 12 0 17 -9 9 -21 -7 -11 -29 -15 -50 -9 -23 8 -53 -4 -79 -30 -43
-43 -38 -80 11 -80 16 0 29 -10 29 -22 0 -12 15 -17 33 -10 18 7 0 -20 -39
-61 -40 -41 -67 -81 -62 -90 18 -29 88 22 144 104 30 43 70 83 89 90 20 6 31
19 25 29 -6 9 17 23 51 30 63 14 52 70 -14 70 -22 0 -19 10 9 41 43 46 104 34
104 -20 0 -42 131 -182 153 -164 9 7 6 0 -6 -17 -13 -18 -15 -46 -6 -70 22
-55 22 -70 -1 -70 -11 0 -18 11 -15 24 3 14 -15 34 -40 45 -25 11 -45 31 -45
43 0 42 -99 45 -150 4 -28 -21 -59 -33 -70 -26 -11 7 -20 -2 -20 -19 0 -17 -9
-31 -19 -31 -11 0 -29 -36 -41 -80 -12 -44 -33 -80 -47 -80 -36 0 -106 -78
-155 -172 -54 -104 -118 -308 -97 -308 84 0 139 -162 59 -173 -27 -4 -61 -12
-75 -17 -33 -12 -33 -56 0 -45 13 4 37 -4 52 -19 17 -17 36 -21 50 -9 59 46
133 43 213 -7 80 -50 119 -27 50 30 -35 29 -19 68 22 52 43 -17 88 8 88 49 0
20 15 45 33 55 23 14 26 22 8 33 -14 9 -43 -2 -67 -25 -65 -61 -164 -67 -165
-10 0 63 -28 82 -42 30 -16 -62 -34 -55 -76 31 -63 130 -42 299 31 253 10 -5
33 22 52 61 18 39 46 71 61 71 16 0 42 36 60 80 20 53 42 79 63 75 22 -3 34
13 38 51 8 67 51 89 98 51 25 -21 34 -22 41 -2 11 34 45 32 45 -4 0 -15 10
-54 23 -85 23 -56 24 -96 6 -181 -5 -25 -1 -45 9 -45 28 0 105 142 94 173 -6
15 11 60 39 100 56 83 59 103 19 155 -16 21 -24 46 -18 55 6 10 -4 23 -22 30
-18 7 -28 23 -23 35 4 13 -18 49 -49 81 -32 32 -58 69 -58 83 0 14 -10 32 -22
39 -15 10 -18 0 -9 -28 15 -47 -18 -61 -35 -16 -7 17 -41 28 -88 28 -149 0
-220 34 -408 199 -117 102 -127 117 -86 122 28 4 42 16 36 33 -16 40 166 -3
214 -51 51 -51 48 -71 -17 -107 -30 -16 -43 -30 -29 -30 15 -1 44 8 66 20 32
17 41 13 56 -26 23 -60 57 -86 132 -103 57 -12 58 -11 21 18 -34 27 -35 30 -4
30 19 0 39 -13 46 -30 25 -67 164 4 166 86 1 14 15 31 32 37 17 7 50 51 72 99
42 89 115 171 332 375 70 66 125 134 125 156 0 22 9 34 21 26 154 -95 427 680
308 873 -9 15 -18 41 -20 58 -1 16 -19 84 -38 150 -84 281 -105 298 -94 76 9
-169 -40 -189 -69 -29 -17 92 -62 183 -91 183 -15 0 -17 -21 -5 -65z m-300
-667 c17 -39 27 -81 23 -93 -8 -24 -95 106 -95 142 0 49 44 19 72 -49z m-102
-45 c-6 -16 9 -50 33 -76 24 -26 35 -47 24 -47 -35 0 -100 91 -114 160 -13 66
-13 66 28 29 22 -20 35 -50 29 -66z m160 -263 c24 0 190 -163 190 -186 0 -10
-23 -3 -51 15 -79 52 -95 29 -37 -56 59 -88 51 -113 -21 -65 -50 32 -50 32
-27 -18 12 -28 18 -55 12 -61 -18 -18 -117 14 -104 33 6 10 21 12 34 4 38 -22
-28 55 -112 131 -98 90 -120 132 -127 249 -4 52 -15 112 -26 132 -44 82 14 56
128 -57 67 -67 130 -121 141 -121z m148 80 c22 0 46 -10 54 -23 17 -28 -129
-4 -167 27 -46 38 -26 61 24 28 27 -17 67 -32 89 -32z m-745 -1013 c-15 -16
-113 85 -113 117 0 10 29 -9 64 -42 36 -33 58 -67 49 -75z"/>
<path d="M1741 3229 c-119 -75 -151 -85 -134 -40 17 45 -16 54 -88 23 -56 -23
-72 -23 -121 5 -70 40 -93 19 -56 -50 22 -42 23 -55 3 -62 -55 -18 3 -45 97
-45 113 0 116 -28 6 -49 -105 -20 -57 -55 78 -58 61 -2 106 -10 101 -18 -5 -8
1 -15 14 -15 14 0 19 -17 13 -41 -10 -37 -4 -40 48 -29 56 13 81 -13 38 -40
-61 -38 34 -95 118 -70 75 21 78 2 12 -76 -64 -76 -63 -97 5 -109 94 -18 156
-4 149 32 -14 81 119 213 214 213 60 0 53 -15 -49 -105 -96 -84 -179 -221
-162 -265 18 -46 93 -9 146 70 36 56 63 75 103 75 52 0 51 -2 -35 -77 -49 -42
-83 -83 -75 -91 8 -7 0 -36 -18 -62 -39 -60 -31 -69 43 -46 158 48 232 57 220
26 -15 -38 23 -85 69 -85 20 0 41 -13 47 -30 8 -21 41 -30 110 -30 99 0 99 0
96 -65 -3 -72 75 -88 144 -29 40 35 123 57 123 33 0 -9 -33 -42 -72 -72 -40
-31 -63 -59 -50 -63 27 -9 -41 -114 -116 -179 -42 -36 -45 -45 -17 -45 19 0
35 -10 35 -22 0 -13 -18 -18 -40 -12 -22 6 -40 2 -40 -7 0 -10 -41 -41 -91
-71 -59 -34 -87 -63 -81 -81 8 -19 -29 -54 -106 -103 -182 -115 -200 -128
-156 -115 70 21 11 -31 -93 -80 -56 -27 -143 -91 -193 -142 -49 -51 -148 -130
-220 -176 -71 -46 -128 -95 -125 -107 3 -13 -18 -38 -45 -56 -56 -36 -68 -79
-18 -60 26 10 30 3 20 -38 -16 -63 -6 -63 78 2 73 55 119 49 99 -14 -17 -55
48 -50 139 12 41 28 94 50 119 50 25 0 56 11 69 24 74 74 58 -25 -18 -111 -71
-82 -100 -163 -34 -97 13 13 39 24 56 24 18 0 68 42 111 92 136 160 332 349
350 337 33 -20 -50 -193 -143 -298 -128 -146 -7 -151 141 -6 l107 105 -13 -97
c-11 -85 -9 -95 17 -73 17 14 30 37 30 52 0 16 17 28 39 28 21 0 44 9 51 20 7
11 42 20 79 20 60 0 68 7 80 69 7 39 23 77 37 85 48 31 72 102 60 177 -8 50
-5 71 9 62 31 -19 45 36 45 181 l0 131 -75 -55 c-41 -30 -109 -92 -151 -137
-49 -53 -81 -74 -87 -58 -15 37 -42 31 -119 -28 -87 -66 -100 -54 -40 35 51
75 97 214 80 241 -6 10 8 43 31 75 22 32 41 76 41 97 0 21 18 55 40 75 21 19
34 43 28 53 -6 9 7 17 29 17 30 0 37 -10 30 -45 -11 -48 11 -29 112 98 18 23
50 46 70 50 45 8 57 37 33 74 -14 22 -26 21 -69 -7 -29 -19 -53 -25 -53 -13 0
11 9 26 20 33 11 7 20 37 20 67 0 31 12 72 27 92 42 58 -37 176 -107 160 -228
-52 -263 -56 -280 -30 -9 15 -30 21 -48 15 -63 -25 59 169 130 207 23 12 36
27 30 34 -6 6 -2 23 10 38 14 16 16 48 7 82 -9 30 -13 67 -11 83 4 19 -6 23
-31 12 -21 -8 -58 -20 -84 -25 -33 -7 -60 -39 -86 -98 -42 -95 -113 -155 -162
-136 -17 6 -35 -2 -42 -20 -6 -17 -20 -31 -30 -31 -35 0 20 158 59 171 21 6
38 22 38 34 0 16 -7 16 -24 -1 -28 -28 -56 -31 -56 -6 0 9 27 29 61 42 39 16
57 36 50 53 -6 17 9 35 37 46 117 45 59 103 -66 67 -40 -11 -88 -27 -107 -35
-28 -12 -33 -8 -22 20 11 29 6 33 -32 23 -45 -11 -45 -11 6 43 108 113 2 109
-178 -7 -104 -66 -209 -92 -209 -51 0 22 125 121 153 121 26 0 117 97 104 110
-6 6 -49 -3 -96 -20 -96 -33 -261 -40 -261 -11 0 11 -43 14 -103 7 -76 -9 -99
-6 -89 11 9 14 2 23 -18 23 -26 0 -27 5 -6 27 21 22 43 21 133 -11 109 -39
271 -18 201 25 -17 11 -3 26 43 47 l69 32 -70 -9 c-266 -34 -311 -34 -272 -2
22 17 71 36 110 44 125 22 175 47 141 68 -51 33 -106 20 -218 -52z m612 -537
c-2 -27 -10 -44 -18 -39 -8 5 -15 2 -15 -7 0 -9 -28 -18 -62 -20 l-62 -5 75
60 c90 71 85 70 82 11z m387 -51 c0 -11 16 -14 35 -7 22 8 14 -8 -21 -41 -72
-68 -84 -67 -84 7 0 44 9 60 35 60 19 0 35 -9 35 -19z m-180 -220 c0 -44 -31
-71 -49 -43 -14 24 8 82 31 82 10 0 18 -17 18 -39z m20 -1091 c0 -113 -161
-239 -330 -258 -116 -13 -118 -15 130 136 88 54 160 110 160 125 0 15 9 27 20
27 11 0 20 -14 20 -30z m408 -102 c15 -40 16 -259 1 -243 -7 6 -12 62 -12 123
0 86 -7 112 -30 112 -16 0 -24 9 -17 20 18 30 44 24 58 -12z m-103 -98 c-12
-38 -17 -88 -11 -110 9 -34 1 -40 -52 -40 -71 0 -83 31 -20 51 32 10 40 25 32
65 -12 65 25 153 53 125 13 -13 13 -43 -2 -91z m-885 -179 c0 -47 -45 -116
-60 -91 -15 24 -24 22 -59 -9 -40 -36 -56 -23 -26 20 32 46 145 108 145 80z"/>
<path d="M2165 3190 c-99 -43 -134 -148 -38 -111 29 11 53 12 53 3 0 -18 88
-8 150 18 22 9 56 22 76 28 45 15 25 52 -27 52 -22 0 -39 9 -39 20 0 29 -99
23 -175 -10z"/>
<path d="M3886 3032 c4 -12 32 -25 63 -29 68 -8 52 28 -19 42 -33 6 -49 2 -44
-13z"/>
<path d="M2482 2992 c-18 -21 -14 -30 21 -39 50 -13 124 20 106 48 -17 28
-101 23 -127 -9z"/>
<path d="M3331 2581 c-19 -21 -48 -33 -64 -27 -23 9 -26 -1 -15 -46 7 -32 14
-62 15 -68 4 -29 -53 -159 -66 -151 -9 6 -12 51 -6 101 11 96 3 102 -90 77
-56 -15 -58 -39 -5 -53 27 -7 40 -27 40 -61 0 -83 88 -148 113 -83 6 16 18 26
27 20 8 -5 20 28 26 73 7 50 31 103 63 136 33 35 48 67 39 88 -16 43 -34 42
-77 -6z"/>
<path d="M3360 2065 c7 -183 1 -230 -25 -220 -18 7 -25 -19 -26 -93 -1 -56 -9
-122 -18 -147 -9 -27 -8 -45 4 -45 11 0 26 37 33 82 7 46 31 122 53 171 36 79
79 252 79 320 0 16 -21 27 -51 27 -49 0 -52 -5 -49 -95z"/>
<path d="M3158 2090 c-9 -106 -5 -149 12 -143 27 9 38 173 11 173 -11 0 -22
-13 -23 -30z"/>
<path d="M3121 1768 c-43 -36 -56 -59 -40 -68 17 -11 17 -19 1 -29 -12 -7 -22
-4 -22 8 0 34 -30 25 -92 -29 -32 -27 -68 -50 -80 -50 -23 0 -140 -255 -124
-270 5 -5 46 26 91 69 62 61 84 72 93 49 15 -38 82 -6 146 70 l45 52 2 -100
c3 -154 46 -270 99 -270 36 0 48 -144 14 -169 -48 -35 -69 -135 -25 -118 19 7
42 35 53 62 10 27 36 54 58 59 22 6 40 19 40 28 0 36 34 16 57 -33 13 -28 33
-45 44 -38 14 9 11 25 -10 48 -59 65 13 155 80 100 43 -36 35 9 -9 49 -28 26
-56 31 -110 21 -48 -9 -72 -6 -72 9 0 12 -10 20 -22 17 -67 -15 -105 101 -107
324 -3 258 -18 287 -110 209z"/>
<path d="M2368 815 c-8 -14 -29 -47 -47 -75 l-31 -50 48 31 c50 32 95 119 63
119 -10 0 -25 -11 -33 -25z"/>
</g>
</svg>
