<?xml version="1.0" standalone="no"?>
<!DOCTYPE svg PUBLIC "-//W3C//DTD SVG 20010904//EN"
 "http://www.w3.org/TR/2001/REC-SVG-20010904/DTD/svg10.dtd">
<svg version="1.0" xmlns="http://www.w3.org/2000/svg"
 width="200.000000pt" height="200.000000pt" viewBox="0 0 200.000000 200.000000"
 preserveAspectRatio="xMidYMid meet">
<metadata>
Created by potrace 1.10, written by Peter Selinger 2001-2011
</metadata>
<g transform="translate(0.000000,200.000000) scale(0.050000,-0.050000)"
fill="#000000" stroke="none">
<path d="M1799 3795 c-143 -103 -177 -178 -108 -236 27 -23 30 -20 20 23 -20
83 86 153 179 118 57 -22 63 -55 21 -111 -16 -22 -36 -82 -43 -134 -15 -110
-42 -128 -39 -25 1 39 -4 70 -11 70 -22 0 -58 -53 -45 -66 7 -7 3 -25 -9 -39
-13 -16 -15 -38 -5 -54 29 -46 -56 -101 -114 -75 -56 26 -51 82 9 90 64 9 86
104 24 104 -11 0 -15 -9 -8 -20 7 -11 -6 -20 -28 -20 -68 0 -112 -107 -70
-170 35 -53 24 -119 -17 -105 -14 5 -25 30 -25 55 -1 26 -11 50 -23 54 -39 13
-25 -102 18 -148 34 -37 36 -50 15 -75 -28 -35 -80 -42 -80 -11 0 12 -22 6
-50 -12 -31 -20 -50 -24 -50 -10 0 12 -12 22 -27 22 -17 0 -26 -22 -25 -60 1
-33 9 -60 17 -60 8 0 15 -19 15 -42 0 -36 -8 -40 -55 -29 -101 24 -133 104
-66 166 55 51 34 145 -33 145 -24 0 -26 -6 -8 -27 18 -22 8 -39 -48 -81 -72
-55 -100 -285 -40 -328 26 -18 33 -124 9 -124 -11 0 -20 11 -21 25 -1 14 -9 3
-17 -25 -8 -29 -26 -47 -43 -43 -15 5 -44 12 -63 18 -19 5 -35 -1 -35 -14 0
-13 7 -19 16 -13 38 23 68 -22 42 -63 -21 -34 -19 -50 10 -95 45 -69 29 -121
-28 -90 -22 12 -40 34 -40 49 0 43 -57 53 -129 23 -74 -31 -102 -63 -71 -82
11 -7 20 -39 20 -71 0 -33 9 -59 20 -59 11 0 20 35 20 79 0 90 17 107 88 90
96 -24 81 -69 -72 -219 -154 -150 -205 -171 -344 -138 -41 10 -54 7 -44 -9 9
-14 1 -22 -22 -19 -96 9 -198 -42 -146 -74 11 -7 20 -28 20 -46 0 -19 26 -49
58 -67 58 -33 58 -34 30 -116 -27 -79 -26 -87 40 -226 64 -135 67 -152 49
-250 -24 -133 -4 -171 114 -216 69 -27 96 -30 114 -12 13 13 39 23 59 23 48 0
46 6 -24 83 -33 36 -60 73 -60 81 0 23 76 19 90 -4 21 -35 43 -22 42 25 -2 41
6 44 84 40 47 -3 104 4 126 16 112 60 213 -74 177 -235 -20 -87 4 -69 76 59
86 154 96 211 45 265 -44 47 -52 91 -30 164 11 36 5 47 -33 56 -75 19 -69 177
8 233 66 48 95 34 95 -44 0 -41 -10 -59 -32 -59 -35 0 -29 -43 8 -55 31 -11
65 79 50 133 -19 75 47 47 92 -39 50 -95 51 -101 15 -87 -15 6 -34 -5 -41 -23
-8 -22 1 -36 28 -43 22 -6 40 -23 40 -38 0 -16 13 -28 28 -28 35 0 73 -103 58
-159 -6 -22 -69 -100 -139 -172 -121 -123 -267 -376 -267 -461 0 -37 -29 -35
-60 2 -35 42 -148 41 -132 -2 7 -17 12 -49 12 -70 0 -21 12 -38 28 -38 15 0
39 -15 55 -33 24 -31 21 -33 -39 -21 -45 9 -62 7 -53 -8 9 -13 -1 -19 -23 -15
-20 4 -47 28 -60 54 -23 45 -23 45 -32 -16 -8 -55 -1 -67 72 -107 51 -27 82
-59 82 -82 0 -54 65 -91 91 -52 17 26 22 26 40 -5 12 -19 38 -35 59 -35 21 0
57 -20 79 -44 37 -39 41 -40 41 -7 0 26 7 30 25 16 14 -11 48 -24 75 -30 28
-5 66 -16 85 -25 20 -8 35 -6 35 6 0 10 -18 24 -40 30 -55 14 -51 56 5 52 89
-8 120 1 108 32 -9 22 2 30 39 30 28 0 45 8 39 18 -6 11 12 37 39 59 l51 40
-45 31 c-25 18 -56 32 -70 32 -15 0 -26 23 -26 50 0 28 7 50 16 50 8 0 90 49
180 110 206 137 217 137 344 -9 103 -119 113 -161 39 -161 -22 0 -39 -3 -39
-7 0 -26 140 -149 182 -159 105 -27 208 -164 113 -150 -28 4 -44 19 -42 40 3
45 -46 62 -62 21 -16 -42 86 -127 135 -112 20 5 58 -4 85 -22 27 -17 49 -23
49 -11 0 11 -9 20 -20 20 -11 0 -20 10 -20 21 0 12 11 15 24 7 33 -21 136 -25
124 -5 -17 28 30 19 83 -16 57 -37 87 -23 50 22 -34 41 26 66 71 30 27 -23 29
-19 17 27 -10 41 2 76 49 147 34 52 63 104 64 115 14 139 12 151 -35 182 -60
40 -87 24 -87 -51 0 -33 -9 -59 -20 -59 -27 0 -26 134 1 151 12 7 17 25 11 40
-6 15 -3 32 6 38 18 11 5 111 -14 111 -6 0 -26 -14 -46 -31 -32 -29 -35 -27
-48 35 -24 113 -101 222 -240 336 l-133 110 13 88 c18 117 47 177 92 188 30 8
35 23 26 67 -9 45 3 75 52 137 35 44 77 105 93 136 36 70 113 69 123 -1 5 -30
21 -45 47 -45 36 0 37 3 8 32 -43 43 -18 75 32 40 39 -27 97 -119 97 -153 0
-9 -19 -22 -42 -30 -85 -27 -127 -227 -66 -320 41 -62 65 -63 54 -2 -26 134
77 229 158 146 25 -26 80 -67 121 -92 83 -49 92 -70 40 -99 -55 -30 -22 -40
55 -15 39 13 70 36 70 51 0 16 14 33 30 38 17 5 23 2 15 -6 -8 -9 -5 -27 6
-41 15 -18 7 -36 -30 -65 -63 -50 -64 -64 -3 -64 87 0 184 56 239 138 65 100
65 104 1 201 -59 89 -57 153 5 147 63 -7 139 172 87 204 -12 7 -19 6 -17 -4
10 -38 -29 -147 -50 -140 -35 11 -39 88 -8 151 54 108 26 283 -46 283 -34 0
-48 20 -42 63 1 7 -13 25 -31 40 -29 24 -32 22 -21 -19 15 -57 -18 -73 -92
-45 -29 11 -53 13 -53 3 0 -16 -196 27 -218 49 -13 13 47 53 108 71 57 16 89
0 76 -39 -9 -25 -6 -28 13 -10 54 50 4 113 -78 99 -111 -17 -165 44 -99 110
46 46 67 118 34 118 -9 0 -23 -16 -30 -35 -7 -19 -25 -42 -39 -51 -15 -9 -27
-27 -27 -40 0 -50 -129 -131 -166 -104 -19 13 -34 33 -34 43 0 10 -18 31 -40
47 -47 34 -52 85 -10 120 39 32 38 88 0 120 -19 16 -26 42 -19 68 11 40 10 40
-19 5 -16 -20 -25 -49 -19 -63 17 -44 -60 -46 -108 -3 l-44 39 41 68 c47 76
21 150 -61 176 -41 13 -59 90 -21 90 11 0 20 9 20 20 0 44 -61 17 -90 -40 -23
-44 -26 -71 -11 -99 32 -60 25 -84 -23 -77 -36 5 -46 20 -48 73 -2 38 -14 74
-26 82 -32 20 -5 81 30 68 15 -6 28 -1 28 11 0 12 -9 22 -20 22 -11 0 -20 10
-20 21 0 12 9 16 20 9 31 -19 24 5 -14 50 -54 62 -90 52 -55 -15 26 -51 25
-56 -11 -73 -22 -10 -40 -35 -40 -55 0 -20 -11 -37 -25 -38 -14 0 0 -14 30
-30 55 -30 69 -58 38 -77 -28 -17 -103 11 -103 39 0 14 -27 46 -61 70 -74 53
-77 132 -4 124 46 -5 61 23 25 45 -12 7 -15 46 -8 91 9 51 4 89 -12 109 -37
45 -62 36 -49 -18 18 -72 -120 -88 -189 -21 -46 44 -47 48 -15 97 47 72 41
119 -25 190 -73 78 -112 78 -223 -3z m188 -353 c6 -32 6 -88 0 -125 -8 -52 -1
-76 31 -105 23 -21 42 -55 42 -75 0 -20 18 -48 40 -62 22 -13 40 -40 40 -60 0
-19 13 -35 28 -35 15 0 35 -16 43 -35 13 -29 17 -24 27 23 14 70 62 95 62 32
0 -50 51 -108 80 -90 30 19 24 -15 -12 -67 -30 -43 -30 -49 14 -95 39 -42 43
-56 22 -89 -29 -47 -30 -59 -4 -59 11 0 20 14 20 30 0 17 7 30 15 30 36 2 110
76 96 98 -11 18 -21 15 -39 -9 -23 -31 -27 -31 -58 0 -37 37 -46 111 -13 111
11 0 45 17 75 38 127 90 193 21 69 -73 -30 -23 -31 -30 -2 -80 25 -45 26 -64
6 -102 -22 -41 -18 -138 5 -116 8 8 20 57 24 98 5 45 43 4 62 -66 14 -53 30
-76 46 -67 13 8 4 -5 -20 -29 -53 -51 -73 -53 -106 -13 -14 17 -30 26 -36 21
-47 -47 89 -103 139 -58 40 36 52 10 13 -29 -19 -19 -18 -24 2 -24 22 0 22 -6
2 -30 -18 -21 -18 -30 -2 -30 13 0 32 23 42 50 10 28 26 50 35 50 68 2 71 41
7 98 l-68 61 48 40 c57 48 78 51 78 12 0 -16 19 -42 43 -59 40 -28 40 -32 9
-63 -41 -41 -26 -65 18 -29 20 17 30 18 30 2 0 -12 19 -22 41 -22 38 0 39 -3
10 -31 -37 -38 -42 -63 -6 -33 26 21 135 10 135 -15 0 -7 -13 -31 -29 -52 -35
-46 -39 -69 -11 -69 12 0 31 23 44 50 22 50 76 64 144 38 47 -18 39 -53 -8
-38 -28 9 -37 5 -29 -14 5 -15 -4 -45 -20 -67 -20 -27 -30 -30 -30 -11 -1 33
-72 -24 -104 -84 -18 -33 -16 -35 24 -13 35 18 48 18 63 -4 13 -19 15 -13 6
18 -9 30 -4 45 14 45 14 0 38 18 51 40 14 22 44 40 66 40 23 0 36 -9 29 -20
-7 -11 1 -14 19 -8 17 7 31 2 31 -10 0 -14 19 -18 50 -10 55 13 98 -13 134
-80 20 -37 19 -39 -9 -16 -22 18 -35 20 -45 4 -8 -13 -37 -17 -70 -10 -77 17
-88 -13 -38 -99 40 -68 38 -135 -2 -70 -36 57 -114 -48 -81 -109 15 -28 38
-44 54 -38 41 16 33 -1 -33 -64 l-59 -57 3 137 c2 84 -5 140 -18 145 -32 10
-7 90 42 130 23 19 31 34 18 35 -30 0 -108 -81 -96 -100 5 -8 -8 -30 -28 -49
-47 -42 -79 -6 -39 44 23 28 22 31 -7 20 -23 -9 -31 -5 -24 13 7 18 -16 31
-71 40 -83 13 -113 52 -41 52 64 0 46 35 -30 60 -64 21 -74 19 -106 -20 -35
-43 -35 -43 -27 43 9 100 -8 100 -24 0 -11 -73 -26 -97 -46 -76 -8 7 -3 37 10
65 35 77 20 76 -65 -4 -62 -59 -74 -82 -67 -132 7 -48 0 -63 -37 -77 -25 -9
-56 -38 -70 -63 -31 -60 -63 -80 -81 -51 -11 17 -28 16 -66 -5 -37 -19 -45
-32 -26 -43 32 -20 -30 -69 -110 -88 -30 -6 -60 -20 -66 -31 -22 -35 -52 -18
-39 22 9 28 4 40 -17 40 -47 0 -63 -43 -26 -70 18 -14 33 -36 33 -51 0 -14 20
-48 45 -74 l44 -48 -49 -38 c-28 -21 -63 -33 -80 -26 -113 47 -181 55 -211 24
-29 -28 -26 -33 30 -57 35 -14 71 -42 82 -63 11 -20 49 -51 85 -70 35 -18 71
-43 79 -55 26 -38 57 32 47 103 -5 36 -1 65 9 65 11 0 19 -10 19 -22 0 -46
101 102 107 157 9 74 24 99 79 128 36 18 33 13 -11 -29 -60 -57 -73 -100 -25
-81 17 6 30 18 30 27 0 9 13 21 29 27 32 12 16 -43 -68 -235 -33 -78 -37 -102
-17 -115 19 -12 17 -16 -9 -17 -20 0 -52 -27 -72 -60 -20 -33 -42 -55 -50 -50
-7 6 -9 5 -5 -1 15 -21 -70 -239 -103 -264 -62 -47 -102 -30 -117 50 -8 41
-29 87 -46 101 -22 18 -25 30 -9 36 17 7 17 27 2 74 -12 35 -24 75 -27 89 -4
13 -20 19 -36 13 -37 -14 -194 92 -239 161 -19 28 -52 51 -73 51 -22 0 -40 9
-40 20 0 11 14 20 30 20 45 0 36 32 -22 87 -31 28 -44 53 -32 61 12 7 33 0 48
-14 32 -33 136 -62 136 -38 0 9 -36 32 -80 52 -44 19 -80 42 -80 52 0 28 82
-4 135 -53 53 -49 105 -62 105 -26 0 11 -20 28 -45 38 -43 18 -44 19 -3 20 23
0 58 -17 78 -39 20 -22 48 -40 61 -40 14 0 29 -9 32 -20 10 -28 215 -60 229
-36 22 35 -11 89 -34 55 -16 -22 -18 -19 -9 13 17 59 -86 168 -158 168 -30 0
-72 10 -95 22 -51 28 -36 -65 21 -130 32 -36 31 -37 -12 -10 -25 15 -45 34
-45 42 0 8 -27 45 -60 83 -33 38 -60 81 -60 97 0 47 -19 54 -82 32 -60 -21
-79 -56 -30 -56 15 0 39 -15 54 -33 25 -29 22 -31 -22 -17 -70 21 -68 17 -78
140 -3 33 -138 170 -166 168 -20 -1 -20 -3 -1 -11 35 -14 31 -47 -5 -47 -16 0
-30 -9 -30 -20 0 -22 44 -19 61 5 6 8 32 -9 58 -38 33 -38 37 -50 14 -41 -21
8 -34 2 -35 -17 -2 -16 -5 -38 -8 -49 -3 -11 -6 -27 -8 -35 -2 -8 -12 1 -24
20 -11 19 -29 35 -40 35 -11 0 -15 -8 -9 -19 6 -10 3 -24 -9 -31 -11 -7 -20 2
-20 19 0 17 -9 31 -20 31 -11 0 -20 -18 -20 -40 0 -42 -29 -54 -50 -20 -7 12
-22 15 -33 8 -11 -6 -24 6 -30 28 -6 21 -33 50 -61 62 -67 31 -48 49 22 23 39
-15 50 -15 41 1 -16 26 66 5 105 -26 17 -14 21 -3 16 44 -6 43 1 66 23 74 23
9 14 19 -33 39 -85 36 -88 35 -143 -23 -26 -27 -63 -49 -82 -50 -47 0 -44 -54
5 -85 43 -27 55 -115 16 -115 -19 0 -19 -5 0 -24 40 -40 27 -54 -25 -29 -28
13 -53 37 -56 53 -5 24 -9 23 -20 -6 -10 -26 -2 -40 30 -53 25 -10 33 -19 19
-20 -15 0 -21 -10 -14 -21 7 -12 21 -15 31 -9 11 6 19 -3 19 -20 0 -37 -31
-41 -52 -7 -10 16 -19 11 -29 -15 -16 -47 0 -103 20 -70 20 32 102 -63 109
-127 3 -29 25 -80 49 -112 52 -71 53 -82 8 -73 -77 15 -108 39 -98 76 6 23 -1
37 -19 37 -29 0 -35 19 -28 98 3 39 -4 46 -38 37 -33 -9 -42 -2 -42 32 -1 24
-19 66 -41 93 l-40 50 9 -50 c41 -222 30 -460 -20 -418 -19 16 -22 33 -8 59
39 71 25 199 -21 199 -27 0 -36 8 -27 23 10 16 4 20 -19 11 -18 -7 -33 -5 -33
4 0 10 -15 23 -33 30 -34 13 -32 -219 2 -318 13 -35 9 -34 -27 7 -23 26 -42
58 -42 71 0 48 -64 118 -82 89 -12 -18 -17 -7 -18 36 0 35 -11 68 -25 74 -19
8 -19 14 -1 27 13 9 21 41 18 70 -4 30 -1 52 6 50 7 -2 15 5 19 16 20 58 48
90 79 91 38 0 147 57 112 58 -47 2 -19 64 34 74 31 7 60 23 65 37 6 15 38 32
72 40 33 7 61 22 61 34 0 12 -21 15 -53 7 -47 -12 -50 -9 -29 17 14 16 45 32
68 36 24 3 45 17 47 31 1 14 3 43 5 65 1 22 14 40 30 40 40 0 89 64 57 75 -30
10 -34 65 -5 65 11 0 20 -7 20 -17 0 -37 97 -70 129 -44 58 49 36 79 -64 85
-98 6 -96 4 -87 106 3 38 60 39 74 2 6 -16 27 -23 51 -17 32 8 39 3 33 -27 -4
-21 6 -48 22 -60 33 -25 108 -13 90 15 -6 9 17 23 50 30 52 10 60 19 50 57 -6
26 -1 52 13 60 17 11 19 2 9 -32 -8 -27 -8 -41 1 -33 8 8 25 6 38 -4 38 -32
24 89 -15 127 -20 21 -34 25 -34 11 0 -13 -13 -18 -30 -12 -16 7 -30 4 -30 -6
0 -10 11 -21 24 -26 34 -11 0 -55 -44 -55 -21 0 -48 -16 -60 -35 -16 -25 -25
-28 -33 -10 -6 14 -26 25 -46 25 -48 0 -97 112 -64 145 32 32 29 48 -18 91
-22 21 -35 51 -29 68 10 24 24 19 73 -27 34 -31 82 -57 107 -57 26 0 50 -10
54 -23 14 -41 91 -40 102 2 7 28 21 35 53 27 88 -23 128 -166 46 -166 -27 0
-26 -6 5 -40 19 -21 43 -34 53 -28 9 6 17 1 17 -11 0 -11 -13 -21 -30 -21 -16
0 -30 -9 -30 -20 0 -11 -16 -21 -35 -22 -22 -1 -25 -5 -10 -11 14 -6 54 -1 87
11 52 18 60 16 51 -7 -7 -19 -1 -25 16 -19 33 13 31 209 -3 238 -13 11 -26 46
-30 78 -3 33 -18 63 -33 68 -20 6 -23 -3 -12 -38 13 -43 12 -44 -20 -12 -19
19 -46 34 -61 34 -37 0 -53 29 -38 68 13 35 104 24 135 -16 10 -13 12 -4 7 23
-6 25 -4 45 3 45 26 -1 65 -34 60 -52 -3 -10 24 -49 61 -88 60 -64 65 -65 50
-20 -8 28 -16 66 -16 85 0 19 -16 40 -34 46 -19 6 -40 35 -48 65 -13 48 -16
50 -29 15 -9 -24 -19 -30 -28 -17 -7 12 -33 17 -58 12 -44 -11 -44 -11 -5 21
36 28 36 32 5 32 -43 1 -45 41 -4 92 30 38 31 38 19 -4 -7 -26 -1 -46 17 -53
15 -6 28 0 27 13 -2 81 6 98 35 74 16 -14 39 -19 50 -11 12 7 26 -1 33 -17 16
-42 72 -59 91 -29 12 19 16 17 17 -9 0 -19 13 -35 28 -35 15 0 33 -13 39 -30
7 -18 0 -30 -16 -30 -15 0 -31 -10 -35 -22 -11 -34 -147 50 -140 88 3 17 -4
37 -15 44 -12 7 -21 -5 -21 -27 0 -59 21 -103 50 -103 26 0 92 -86 98 -130 6
-42 70 -124 71 -90 0 17 -8 43 -17 58 -10 16 -14 40 -8 55 12 31 78 36 96 7
22 -36 70 -21 70 21 0 23 -9 36 -20 29 -11 -7 -29 10 -39 37 -10 27 -28 55
-39 62 -25 15 -101 183 -104 229 -1 17 -10 1 -21 -36 -20 -68 -20 -68 -59 -28
-51 50 -17 155 44 135 37 -11 78 85 78 186 0 65 33 56 47 -13z m206 -92 c16
-16 23 -40 15 -53 -10 -16 -22 -12 -41 14 -48 65 -29 94 26 39z m-65 -62 c13
-33 -5 -88 -29 -88 -31 0 -44 44 -18 61 22 13 22 22 0 48 -23 27 -22 30 5 20
17 -7 36 -25 42 -41z m61 -159 c38 -58 23 -104 -20 -61 -16 16 -29 39 -29 51
0 11 -10 21 -21 21 -12 0 -16 9 -9 20 20 32 43 23 79 -31z m-729 -219 c0 -16
10 -30 22 -30 12 0 17 -11 13 -25 -5 -14 -24 -22 -42 -19 -38 7 -44 -37 -10
-71 17 -17 13 -20 -17 -12 -30 7 -38 22 -31 59 6 26 0 60 -12 75 -27 32 -10
53 40 53 21 0 37 -13 37 -30z m1267 -174 l57 -65 -44 -35 c-57 -46 -80 -45
-80 3 0 21 -9 44 -19 50 -11 7 -14 25 -8 42 6 16 1 29 -11 29 -12 0 -22 9 -22
20 0 43 74 17 127 -44z m483 -236 c27 -44 -40 -102 -82 -70 -37 30 -37 30 1
60 45 35 64 37 81 10z m398 -219 c48 -18 112 -129 112 -193 0 -48 -34 -31 -59
29 -13 31 -49 85 -81 120 -61 66 -55 75 28 44z m-659 -188 c-7 -28 -26 -62
-41 -75 -37 -30 -35 -15 6 71 37 79 54 81 35 4z m556 -43 c19 -1 41 -10 50
-19 8 -9 -20 -11 -63 -5 -43 7 -88 23 -100 36 -16 17 -9 19 28 7 28 -9 66 -17
85 -19z m26 -72 c6 -10 3 -18 -8 -18 -32 0 0 -87 50 -134 26 -24 47 -56 47
-70 -1 -20 -5 -20 -18 2 -22 35 -64 11 -49 -29 7 -17 -1 -29 -19 -29 -16 0
-35 -23 -42 -51 -19 -74 -45 -44 -40 45 3 42 7 81 8 86 7 19 -2 170 -12 203
-10 36 61 31 83 -5z m-3062 -143 c-32 -36 -65 -73 -73 -83 -22 -29 -76 27 -76
79 0 39 12 48 75 54 41 5 88 10 104 12 17 2 5 -23 -30 -62z m1031 26 c0 -21 9
-44 20 -51 11 -7 20 -28 20 -46 -1 -29 -3 -30 -20 -4 -11 17 -20 22 -20 13 0
-24 -60 27 -60 51 0 10 10 12 23 4 16 -10 20 -1 12 29 -6 24 -3 43 7 43 10 0
18 -17 18 -39z m-820 -33 c0 -17 -21 -28 -51 -28 -30 0 -46 9 -39 20 7 12 23
15 35 7 14 -9 17 -2 9 19 -8 22 -3 29 17 21 16 -6 29 -24 29 -39z m2565 22 c2
-28 -137 -94 -179 -86 -25 5 -10 22 54 60 91 55 122 61 125 26z m-837 -119
c-16 -41 -148 -115 -183 -102 -46 18 -17 60 45 65 31 2 71 18 88 35 39 39 64
40 50 2z m1215 -155 c-47 -93 -55 -72 -21 51 15 55 27 72 42 57 15 -15 9 -47
-21 -108z m-2413 -136 c16 -51 -8 -95 -32 -57 -23 36 -23 97 1 97 10 0 24 -18
31 -40z m-650 -221 c0 -20 -9 -42 -20 -49 -11 -7 -20 5 -20 27 0 22 -6 56 -14
76 -12 33 -9 34 20 10 19 -16 34 -44 34 -64z m1891 -10 c-48 -49 -43 -106 6
-62 20 18 49 33 65 32 15 0 3 -14 -26 -30 -52 -28 -97 -86 -95 -123 0 -9 11
-2 25 16 13 17 60 38 104 46 57 10 71 8 50 -7 -16 -11 -46 -21 -65 -21 -51 0
-43 -36 10 -46 l45 -9 -45 -15 c-47 -15 -62 -50 -23 -50 15 0 14 -12 -4 -35
-14 -19 0 -11 33 18 71 63 148 105 164 89 6 -7 1 -12 -12 -12 -12 0 -23 -18
-23 -40 0 -25 -13 -40 -36 -40 -20 0 -67 -27 -104 -60 -37 -33 -58 -60 -48
-60 11 0 31 11 44 24 13 13 24 17 24 9 0 -8 20 -1 44 16 25 17 61 31 80 31 23
0 36 15 36 41 0 23 9 36 20 29 12 -7 15 -22 8 -34 -7 -11 -1 -28 14 -38 24
-15 23 -21 -2 -38 -20 -14 -23 -25 -8 -35 12 -8 32 -33 44 -55 13 -22 23 -29
23 -15 1 14 12 25 25 25 19 0 19 -5 0 -24 -38 -38 -82 -35 -95 6 -7 25 -31 38
-65 39 l-54 0 50 30 c42 25 43 29 10 25 -25 -4 -54 -38 -78 -90 -21 -46 -51
-89 -66 -95 -15 -6 -23 -2 -16 9 7 11 1 21 -14 23 -14 1 -48 6 -76 10 -27 5
-66 10 -85 12 -42 4 -43 12 -7 53 28 32 77 182 59 182 -5 0 -25 -35 -44 -79
-25 -55 -43 -73 -62 -62 -14 9 -20 27 -12 39 7 12 20 19 28 14 7 -5 29 29 48
75 26 62 27 73 5 44 -17 -21 -31 -35 -32 -30 -14 64 -13 179 2 179 11 0 20
-13 20 -30 0 -16 9 -30 20 -30 11 0 20 23 20 51 0 34 -8 46 -23 37 -15 -9 -18
-5 -8 10 8 14 20 20 26 13 6 -6 24 7 39 29 16 22 37 40 49 40 11 0 6 -14 -12
-31z m-526 -148 c-18 -29 -19 -55 -4 -94 25 -66 -14 -103 -55 -51 -24 31 -25
31 -13 -4 10 -27 7 -34 -10 -24 -37 23 -69 -7 -41 -40 19 -23 18 -27 -7 -17
-21 8 -36 -3 -45 -30 -7 -22 -19 -42 -26 -43 -8 0 -30 -4 -49 -8 -21 -4 -35 6
-35 23 0 17 10 23 23 15 14 -8 18 -5 10 7 -7 12 -32 16 -54 10 -30 -7 -35 -17
-20 -32 47 -47 21 -76 -32 -34 -57 45 -87 52 -87 21 0 -11 18 -20 40 -20 55 0
50 -25 -12 -54 -90 -42 -143 -5 -138 97 3 47 15 89 26 92 12 4 17 21 11 36 -7
17 1 29 19 29 39 0 134 78 96 79 -16 1 -23 6 -17 13 23 22 221 26 263 5 40
-21 41 -20 7 15 -23 24 -64 37 -115 37 -46 0 -83 11 -89 26 -6 15 6 25 31 25
22 0 35 9 28 20 -7 11 -3 20 9 20 11 0 21 -7 21 -15 0 -8 23 -25 50 -38 46
-21 50 -19 50 25 0 26 10 48 22 48 12 0 18 -12 12 -26 -5 -14 2 -47 15 -73
l25 -46 15 57 c9 35 6 60 -7 64 -12 4 -22 18 -22 30 0 13 29 -6 65 -42 56 -56
61 -69 40 -103z m374 -161 c0 -22 -6 -20 -22 8 -21 36 -24 34 -48 -20 -14 -32
-26 -44 -27 -27 -3 52 60 128 80 96 10 -15 17 -40 17 -57z m-970 -145 c-17
-47 23 -141 67 -157 26 -10 44 -9 44 3 0 10 -16 19 -35 19 -30 1 -31 3 -5 20
23 15 41 6 75 -35 52 -64 60 -102 12 -63 -29 25 -31 22 -17 -22 25 -83 55
-111 73 -67 12 33 14 32 16 -8 0 -25 -10 -45 -22 -45 -32 0 -97 60 -97 90 0
12 -22 44 -50 70 -46 43 -50 44 -50 9 0 -30 -4 -32 -25 -10 -20 21 -20 28 2
36 22 8 23 13 2 26 -44 27 -33 159 13 159 4 0 3 -11 -3 -25z m1411 -66 c0 -6
-16 -34 -35 -64 -37 -57 -14 -53 60 11 45 39 47 5 5 -84 -34 -71 -121 -100
-100 -33 6 21 3 43 -8 50 -21 13 -10 63 24 106 19 25 54 34 54 14z m-1186 -68
c-4 -54 -6 -56 -39 -26 -36 32 -49 76 -16 56 10 -6 24 -3 31 9 21 34 29 22 24
-39z m-420 -34 c6 -15 5 -42 -2 -60 -15 -37 -112 36 -112 84 0 32 100 12 114
-24z m1446 -6 c27 -21 43 -45 35 -53 -8 -8 -15 -4 -15 9 0 13 -18 23 -40 23
-22 0 -40 -12 -40 -26 0 -36 42 -74 82 -74 36 0 69 -105 36 -117 -10 -3 -18
-24 -18 -45 0 -58 -62 -47 -198 34 -144 86 -178 120 -146 152 19 19 160 -84
224 -164 25 -31 77 -35 88 -7 23 58 12 88 -38 107 -68 26 -102 101 -71 157 27
52 37 53 101 4z m460 -68 c0 -83 -61 -181 -86 -139 -30 51 -8 127 34 114 34
-10 37 -8 17 14 -35 36 -31 98 5 98 22 0 30 -23 30 -87z m-160 -15 c0 -10 -13
-18 -28 -18 -44 0 -56 -62 -19 -103 35 -39 30 -45 -21 -25 -31 12 -47 146 -21
172 16 17 89 -5 89 -26z m-1747 -54 c13 -8 30 -39 38 -70 13 -54 13 -55 -44
-31 -122 53 -140 73 -86 95 61 24 64 25 92 6z m1627 -228 c0 -10 -20 -13 -45
-5 -44 13 -44 13 -5 -18 39 -31 39 -32 -15 -32 -45 -1 -54 7 -51 45 4 47 116
57 116 10z"/>
<path d="M2173 2750 c8 -20 -1 -30 -28 -30 -53 0 -93 -50 -76 -95 11 -28 8
-30 -12 -10 -44 44 -89 32 -48 -14 19 -21 29 -48 22 -60 -11 -17 21 -29 70
-25 5 1 20 -32 33 -72 l23 -74 -48 55 c-26 30 -56 55 -67 55 -11 0 -43 24 -70
54 l-50 54 -20 -52 c-11 -29 -30 -59 -43 -67 -17 -10 -16 -19 4 -31 22 -15 22
-21 1 -35 -21 -13 -20 -22 6 -43 26 -22 29 -21 18 7 -14 38 -2 41 47 14 19
-10 60 -24 90 -30 69 -15 72 -51 4 -51 -28 0 -47 7 -42 16 6 8 -7 15 -27 15
-33 0 -29 -39 10 -87 2 -3 28 4 57 15 53 20 87 0 63 -39 -8 -13 -26 -13 -53 1
-36 20 -38 18 -18 -19 28 -53 13 -53 -61 -1 -32 23 -58 34 -58 25 0 -29 83
-90 133 -98 26 -4 68 -12 94 -16 75 -12 143 62 180 196 37 138 26 174 -34 109
l-43 -47 -6 65 c-5 49 -18 68 -54 77 -48 12 -112 68 -77 68 9 0 57 -23 105
-51 96 -55 125 -50 85 14 -14 22 -21 45 -16 51 6 6 -14 32 -43 60 -36 33 -42
46 -19 38 40 -12 47 28 11 64 -33 33 -57 30 -43 -6z"/>
<path d="M2480 2631 c0 -16 -16 -38 -35 -49 -27 -16 -28 -21 -5 -21 43 0 95
45 85 74 -12 34 -45 32 -45 -4z"/>
<path d="M1793 2624 c-13 -20 38 -100 53 -84 6 6 13 28 17 49 7 41 -49 69 -70
35z"/>
<path d="M2495 2406 c-22 -37 -11 -146 14 -146 70 0 96 143 28 156 -18 3 -37
-1 -42 -10z"/>
<path d="M1460 2332 c0 -19 26 -61 58 -94 35 -34 48 -58 32 -58 -15 0 -33 9
-40 20 -16 26 -50 26 -50 -1 0 -11 27 -36 60 -55 33 -19 56 -45 50 -59 -5 -14
9 -44 32 -67 43 -43 78 -38 44 7 -30 37 -48 152 -26 165 10 6 25 -11 32 -39 7
-28 19 -46 28 -41 8 5 15 -2 15 -15 -3 -84 12 -115 85 -165 45 -31 76 -61 70
-67 -6 -6 -21 0 -34 13 -28 28 -63 32 -47 5 20 -32 135 -81 190 -81 29 0 63
-10 75 -22 24 -24 76 -12 132 30 53 41 10 128 -61 121 -53 -6 -165 62 -165
101 0 26 -158 170 -186 170 -10 0 -13 -13 -7 -29 6 -17 3 -35 -8 -42 -10 -6
-19 6 -19 28 0 25 -23 50 -60 66 -33 15 -56 38 -51 52 5 13 -8 34 -30 45 -29
16 -39 15 -39 -2 0 -15 -16 -10 -40 12 -37 34 -40 34 -40 2z"/>
<path d="M2599 2318 c-37 -68 8 -85 48 -18 30 52 31 60 5 60 -17 0 -41 -19
-53 -42z"/>
<path d="M1340 2270 c14 -16 43 -30 65 -30 33 0 36 5 15 30 -14 17 -43 30 -65
30 -33 0 -36 -5 -15 -30z"/>
<path d="M2413 2211 c-28 -23 -70 -83 -93 -135 -23 -52 -57 -104 -76 -115 -32
-19 -32 -20 1 -20 19 -1 35 -10 35 -22 0 -11 -16 -26 -35 -34 -28 -11 -22 -16
25 -26 81 -15 176 31 207 101 14 32 53 85 88 119 34 33 51 61 37 61 -15 0 -20
14 -13 38 24 75 -95 97 -176 33z m132 -51 c-6 -16 -36 -53 -69 -80 -32 -28
-61 -69 -64 -90 -3 -25 -24 -42 -54 -46 l-48 -7 45 33 c52 37 60 75 13 56 -47
-18 0 66 52 94 22 12 40 34 40 49 0 16 19 26 47 24 33 -2 45 -12 38 -33z"/>
<path d="M2064 2047 c52 -52 54 -53 124 -19 79 37 110 72 64 72 -16 0 -35 -9
-42 -20 -7 -11 -39 -20 -71 -20 -33 0 -59 9 -59 20 0 11 -16 20 -35 20 -28 0
-24 -10 19 -53z"/>
<path d="M1320 1960 c0 -11 13 -20 28 -20 16 0 33 -11 38 -25 5 -14 15 -19 24
-11 26 25 -7 76 -49 76 -23 0 -41 -9 -41 -20z"/>
<path d="M2260 1811 c0 -39 26 -52 61 -30 25 17 25 22 -1 39 -42 27 -60 25
-60 -9z"/>
<path d="M741 1676 c-22 -35 -35 -70 -29 -79 15 -24 88 47 88 86 0 19 16 38
35 43 26 7 24 10 -10 12 -31 1 -58 -18 -84 -62z"/>
<path d="M1795 1544 c-64 -8 -72 -36 -16 -54 34 -10 121 17 121 39 0 14 -52
22 -105 15z"/>
<path d="M2102 1181 c-22 -13 -24 -32 -10 -79 22 -74 57 -59 77 33 15 68 -8
84 -67 46z"/>
<path d="M1190 3309 c1 -107 68 -176 97 -99 7 18 0 30 -18 30 -32 0 -40 51
-11 69 22 13 91 -78 122 -159 12 -31 26 -51 32 -44 17 16 -68 197 -116 249
-71 75 -106 59 -106 -46z"/>
<path d="M3650 2545 c9 -19 18 -48 21 -65 12 -67 35 -120 50 -120 26 0 5 117
-30 172 -37 56 -62 64 -41 13z"/>
<path d="M360 2064 c0 -25 45 -64 74 -64 21 0 22 8 1 40 -24 39 -75 55 -75 24z"/>
<path d="M2989 1091 c-35 -27 -36 -30 -4 -30 43 -1 46 -67 5 -108 -35 -35 -38
-53 -10 -53 36 0 95 119 85 171 -11 57 -23 60 -76 20z"/>
<path d="M720 740 c0 -12 22 -29 48 -39 27 -11 56 -31 65 -45 39 -61 94 -89
78 -40 -31 97 -191 201 -191 124z"/>
</g>
</svg>
