<?xml version="1.0" standalone="no"?>
<!DOCTYPE svg PUBLIC "-//W3C//DTD SVG 20010904//EN"
 "http://www.w3.org/TR/2001/REC-SVG-20010904/DTD/svg10.dtd">
<svg version="1.0" xmlns="http://www.w3.org/2000/svg"
 width="300.000000pt" height="457.000000pt" viewBox="0 0 300.000000 457.000000"
 preserveAspectRatio="xMidYMid meet">
<metadata>
Created by potrace 1.10, written by Peter Selinger 2001-2011
</metadata>
<g transform="translate(0.000000,457.000000) scale(0.050000,-0.050000)"
fill="#000000" stroke="none">
<path d="M3200 9101 c-38 -22 -94 -40 -124 -40 -29 -1 -58 -9 -64 -18 -6 -9
-92 -23 -192 -31 -186 -14 -438 -87 -420 -121 6 -11 88 -20 184 -20 165 0 172
-2 142 -35 -30 -33 -29 -36 12 -36 24 0 48 -12 54 -27 5 -15 32 -25 58 -22 56
6 19 -74 -52 -112 -59 -32 -380 -23 -447 12 -41 21 -85 27 -140 18 -66 -11
-76 -8 -56 13 14 14 25 42 25 62 0 23 15 36 40 36 45 0 51 21 17 55 -17 17
-30 15 -51 -6 -16 -16 -39 -29 -52 -28 -13 0 -7 13 15 30 45 34 26 39 -33 7
-45 -24 -122 3 -176 64 -135 150 -355 137 -676 -42 -58 -32 -118 -54 -133 -48
-15 6 -48 -12 -74 -39 -32 -34 -129 -75 -308 -132 -336 -106 -516 -220 -598
-378 -16 -33 -53 -77 -81 -99 -76 -60 -85 -185 -21 -295 28 -47 51 -95 51
-107 0 -11 36 -94 80 -184 44 -90 80 -172 80 -182 0 -119 324 -592 532 -777
132 -117 157 -160 235 -409 28 -88 69 -209 91 -270 25 -67 41 -161 41 -240 1
-75 14 -154 31 -187 17 -32 30 -75 30 -95 0 -21 22 -81 49 -133 120 -234 153
-367 131 -517 -11 -76 -26 -176 -33 -222 -13 -91 28 -406 53 -406 26 0 38 54
17 75 -13 13 -9 24 12 32 17 6 31 2 31 -10 0 -13 15 -33 33 -47 23 -17 26 -28
10 -38 -13 -8 -23 -5 -23 7 0 11 -9 21 -20 21 -11 0 -20 -11 -20 -25 0 -14
-29 -37 -65 -52 -116 -47 -155 -69 -155 -88 0 -10 20 -11 45 -4 25 8 1 -19
-55 -61 -139 -106 -152 -175 -31 -168 21 1 23 5 6 11 -14 6 -20 19 -14 29 6
10 -5 19 -25 20 -28 1 -29 4 -6 12 17 6 45 24 63 40 42 36 67 2 38 -52 -28
-52 -27 -62 8 -62 20 0 26 12 17 35 -10 29 -7 30 15 10 33 -30 159 -33 159 -4
0 12 -8 16 -18 10 -9 -6 -29 3 -42 19 -14 17 -17 31 -7 33 47 8 61 12 110 33
60 24 93 64 53 64 -19 1 -18 6 4 20 17 11 44 19 60 19 26 0 26 -2 1 -18 -17
-10 -24 -25 -17 -32 22 -21 93 11 100 45 4 25 32 34 106 38 69 3 88 -1 60 -12
-22 -10 -65 -18 -95 -19 -30 0 -55 -11 -55 -23 0 -12 13 -17 29 -11 89 34 171
37 171 5 0 -17 9 -32 20 -32 11 0 20 -15 20 -32 0 -24 -13 -30 -50 -23 -28 5
-56 2 -62 -8 -6 -10 -20 -12 -32 -4 -13 7 -2 23 26 39 27 15 36 27 22 27 -14
1 -51 -18 -83 -41 -54 -40 -115 -38 -90 3 15 25 -6 22 -91 -12 l-70 -28 78 12
c91 15 86 -21 -6 -40 -62 -12 -177 -105 -156 -126 7 -7 27 -1 43 12 17 14 44
20 60 14 19 -7 25 -1 18 18 -8 20 -2 26 20 18 53 -21 12 -69 -80 -92 -115 -29
-219 -233 -135 -265 17 -7 25 -3 18 8 -7 11 -3 20 8 20 11 0 25 -9 32 -20 7
-11 28 -20 46 -20 21 0 26 6 13 15 -12 8 -28 32 -36 52 -8 23 -25 33 -44 25
-18 -6 -26 -3 -19 8 7 11 24 20 38 20 13 0 55 27 92 60 36 33 96 65 133 72 37
7 62 20 57 28 -6 9 -30 12 -55 7 -43 -9 -42 -8 5 20 27 16 57 25 66 20 8 -6
27 -2 40 9 13 10 48 17 77 16 30 -2 50 4 44 12 -14 23 -162 20 -177 -4 -8 -12
-22 -10 -39 5 -37 34 -19 56 45 54 30 -1 92 5 139 12 58 10 85 7 85 -8 0 -13
14 -23 30 -23 17 0 30 8 30 17 0 10 23 13 51 8 34 -7 49 -2 45 15 -3 14 7 30
22 35 18 7 22 2 13 -14 -9 -15 1 -28 27 -35 65 -17 50 -40 -23 -35 -68 4 -122
-23 -104 -53 24 -38 -35 -15 -82 31 l-49 50 13 -55 c19 -80 167 -108 167 -32
0 20 28 28 100 28 55 0 100 -7 100 -15 0 -8 38 -16 84 -16 l84 -1 -59 24 c-32
13 -66 20 -74 15 -8 -5 -29 4 -45 20 -34 34 -7 65 35 41 17 -9 19 -7 5 8 -11
11 -51 25 -90 29 -38 5 0 10 85 12 103 2 155 -5 155 -19 0 -13 18 -18 40 -12
27 7 40 0 40 -20 0 -21 -13 -27 -41 -20 -34 9 -37 6 -18 -18 19 -22 18 -28 -4
-29 -15 -1 -9 -9 13 -18 22 -9 48 -11 58 -5 32 19 132 20 132 2 0 -10 17 -18
38 -18 66 0 92 -53 39 -81 -33 -18 -47 -19 -53 -2 -4 13 -16 23 -27 23 -11 0
-14 -8 -8 -18 6 -10 -12 -16 -39 -15 -28 2 -50 10 -50 18 0 8 -13 15 -30 15
-16 0 -30 -13 -30 -30 0 -35 -95 -102 -116 -81 -7 8 4 27 25 43 36 26 34 28
-30 31 l-69 2 70 15 c77 16 56 23 -120 40 -75 7 -188 1 -178 -9 5 -5 43 -13
84 -17 77 -9 127 -34 68 -34 -19 0 -28 -11 -22 -27 6 -17 -8 -33 -36 -40 -67
-18 -76 -16 -76 17 0 17 18 30 43 30 24 0 38 6 30 13 -30 31 -131 22 -268 -24
-80 -27 -166 -49 -190 -49 l-44 0 45 31 c24 17 51 27 60 21 9 -5 29 0 45 11
24 17 23 19 -6 10 -19 -7 -35 -4 -35 6 0 10 19 24 43 32 33 10 36 17 15 31
-37 23 -63 23 -48 -1 6 -11 -11 -26 -39 -33 -28 -7 -51 -20 -51 -30 0 -10 -12
-18 -26 -18 -35 0 -119 -115 -104 -140 7 -11 -1 -20 -18 -20 -16 0 -35 9 -42
20 -16 25 -50 26 -50 1 0 -10 18 -24 40 -31 49 -16 53 -49 5 -52 -22 -1 -26
-5 -9 -12 14 -5 67 22 118 62 51 40 104 72 118 72 13 0 39 6 57 12 23 9 28 4
19 -19 -6 -18 -18 -31 -25 -30 -43 6 -66 -9 -86 -53 -13 -27 -40 -55 -60 -61
-20 -6 -37 -25 -37 -40 0 -16 -9 -29 -19 -29 -31 0 -101 -85 -101 -123 0 -22
14 -33 39 -32 27 2 33 11 20 26 -23 28 -4 49 43 49 19 0 49 14 67 31 40 41 65
-7 33 -66 -14 -27 -14 -45 1 -60 14 -14 4 -36 -34 -71 -53 -49 -53 -94 0 -94
14 0 37 -13 51 -30 27 -33 110 -42 90 -10 -7 11 -3 20 8 20 11 0 16 12 10 27
-6 17 6 32 31 39 25 6 36 2 28 -10 -7 -12 0 -17 15 -12 15 5 25 28 22 50 -8
58 48 100 62 46 7 -29 27 -40 71 -40 48 0 59 7 50 31 -9 22 -27 28 -61 20 -43
-11 -46 -8 -27 27 28 53 27 62 -10 62 -17 0 -27 -8 -21 -17 6 -9 -23 -17 -64
-17 -73 -1 -73 -1 -19 20 30 12 55 34 55 49 0 16 10 21 23 13 13 -8 18 -5 10
6 -8 14 21 19 82 14 72 -5 80 -3 35 8 -40 10 -52 20 -35 31 14 8 25 8 25 -1 0
-9 8 -5 17 9 12 20 30 20 83 2 52 -18 70 -18 76 0 11 34 85 28 129 -11 25 -23
42 -27 51 -13 8 13 56 26 107 30 51 4 90 1 85 -6 -4 -7 6 -18 24 -25 45 -17
52 -15 36 11 -8 13 -6 18 5 11 28 -17 32 -158 5 -175 -12 -8 -19 -26 -15 -39
7 -19 18 -16 43 9 18 18 42 29 52 23 9 -7 28 31 41 83 13 52 35 101 47 109 24
15 21 16 -41 16 -8 0 -15 -16 -16 -35 0 -48 -43 -118 -60 -100 -8 8 -5 26 7
40 24 29 21 111 -4 152 -9 14 -11 31 -4 38 7 6 12 1 12 -12 0 -13 10 -23 22
-23 12 0 17 15 10 33 -7 18 2 49 21 70 26 29 29 43 11 61 -32 32 -31 77 1 66
39 -14 117 61 103 98 -8 22 -1 32 25 34 41 1 26 8 -59 27 -31 7 -50 21 -44 31
6 10 27 13 46 6 30 -11 29 -7 -4 31 -21 23 -50 43 -65 43 -15 0 -27 7 -27 17
0 26 94 69 118 54 38 -23 24 21 -19 60 -22 20 -36 48 -31 61 11 29 -35 74 -55
55 -7 -8 -31 7 -53 33 -44 51 -51 69 -19 49 14 -8 18 21 12 91 -5 57 0 136 12
177 11 40 22 226 24 413 4 338 4 341 79 550 41 116 87 269 103 340 51 235 62
270 116 355 29 46 70 129 91 184 83 218 133 278 299 357 84 40 158 78 163 84
6 6 60 46 120 89 118 84 356 316 444 433 30 40 92 108 138 150 184 171 183
170 170 233 -7 33 -12 66 -12 74 0 8 -27 44 -60 81 -33 37 -60 87 -60 112 0
60 -81 208 -114 208 -14 0 -26 16 -26 36 0 54 -145 239 -244 310 -47 35 -92
72 -100 83 -8 11 -19 14 -26 8 -6 -7 1 -25 17 -40 178 -165 297 -294 323 -349
17 -37 42 -74 56 -82 13 -9 41 -65 62 -126 21 -60 64 -146 95 -189 65 -89 73
-160 23 -188 -39 -22 -114 113 -93 168 9 23 2 26 -35 12 -25 -9 -50 -29 -55
-45 -8 -24 -5 -24 24 -1 18 16 33 19 33 8 0 -12 -15 -26 -33 -33 -32 -13 -23
-39 15 -44 10 -2 24 -4 31 -5 7 -2 -20 -35 -60 -74 -40 -39 -73 -84 -73 -99 0
-17 -12 -24 -29 -18 -22 9 -24 23 -10 61 26 68 24 75 -12 39 -35 -36 -41 -75
-21 -162 10 -46 8 -51 -6 -20 -19 40 -34 4 -24 -56 2 -9 -11 -36 -28 -60 -20
-29 -30 -34 -31 -13 0 17 -13 8 -29 -21 -16 -27 -29 -38 -29 -24 -1 44 38 103
64 97 14 -4 19 -3 12 1 -7 4 -8 24 -3 45 5 20 0 43 -12 50 -28 17 -122 -84
-122 -132 0 -87 -375 -448 -483 -464 -47 -7 -77 -34 -77 -69 1 -29 3 -30 20
-4 11 17 20 20 20 7 0 -12 -14 -34 -31 -48 -17 -14 -30 -17 -28 -7 8 39 -2 64
-31 75 -21 8 -28 -1 -25 -32 3 -28 -8 -46 -32 -51 -30 -6 -33 -1 -17 28 15 27
13 42 -8 57 -24 18 -25 30 -3 76 30 65 45 70 50 15 1 -22 -6 -40 -17 -40 -11
0 -15 -9 -7 -21 8 -14 23 -12 45 5 24 19 28 20 17 1 -19 -30 -3 -32 48 -4 22
11 39 35 39 53 0 18 34 65 75 105 105 101 196 226 188 259 -4 18 5 23 25 15
18 -6 32 -3 32 7 0 23 124 207 145 217 8 3 15 19 15 34 0 15 12 34 27 43 39
24 57 86 25 86 -24 0 -51 56 -52 107 0 22 180 11 230 -14 109 -54 122 -41 121
124 -1 123 -7 154 -33 159 -24 4 -30 -9 -25 -60 l7 -66 -29 60 c-16 33 -30 85
-30 116 -1 33 -9 51 -21 44 -11 -7 -36 15 -55 49 -27 46 -49 61 -95 61 -74 0
-122 80 -88 144 17 32 13 45 -20 69 -41 29 -61 81 -22 57 13 -8 13 5 0 40 -13
33 -13 48 -1 40 57 -35 43 96 -16 157 -35 36 -63 74 -63 84 0 11 -18 30 -40
44 -21 14 -57 61 -80 105 -22 44 -50 80 -62 80 -11 0 -51 23 -89 52 -90 69
-199 80 -289 29z m233 -46 c38 -26 71 -69 78 -101 10 -43 21 -53 49 -44 45 14
68 -42 48 -119 -15 -61 -55 -58 -64 6 -8 51 -43 58 -46 8 -2 -19 -2 -42 0 -50
1 -8 -7 -15 -18 -15 -11 0 -20 -12 -20 -28 0 -15 -12 -37 -28 -50 -51 -42 -60
102 -13 187 51 90 51 98 1 71 -22 -12 -40 -39 -40 -60 0 -20 -10 -44 -22 -51
-12 -7 -17 -30 -12 -51 14 -53 -32 -48 -56 6 -23 50 -119 63 -154 21 -21 -25
-95 -23 -261 8 -102 19 -12 75 96 60 55 -8 89 -4 89 8 0 14 13 14 39 0 31 -17
41 -13 51 20 11 35 18 37 45 15 28 -22 31 -21 19 9 -9 26 -3 35 26 35 21 0 48
17 59 39 31 57 26 67 -24 52 -96 -28 -135 -31 -135 -11 0 11 2 20 5 20 3 0 41
14 85 29 108 39 127 38 203 -14z m-323 -75 c7 -12 6 -19 -4 -17 -9 2 -29 -2
-46 -8 -96 -37 -160 -46 -239 -34 -49 7 -121 6 -160 -3 -77 -17 -100 -9 -67
24 12 12 77 21 145 21 68 -1 143 7 167 17 61 24 189 24 204 0z m-1313 -40 c3
-11 17 -20 30 -20 57 -1 82 -35 52 -72 -16 -20 -19 -29 -6 -22 50 30 143 -7
131 -53 -9 -36 -6 -39 19 -19 36 30 117 11 117 -27 0 -38 -54 -57 -86 -30 -14
12 -51 19 -83 17 -42 -3 -77 16 -139 77 -96 94 -195 147 -113 60 52 -56 52
-60 -14 -80 -34 -10 -42 -7 -34 16 7 16 1 36 -13 44 -17 11 -21 5 -12 -18 8
-22 2 -39 -16 -46 -16 -6 -26 -18 -21 -26 6 -8 -2 -31 -17 -51 -33 -46 -92
-26 -92 31 0 25 -10 39 -25 34 -14 -5 -22 -29 -18 -54 4 -29 -2 -40 -15 -32
-28 17 -29 104 -2 121 11 7 20 21 20 32 0 11 -9 15 -20 8 -11 -7 -20 1 -20 17
0 29 75 93 140 120 44 18 229 -3 237 -27z m-397 -124 c0 -10 -9 -13 -20 -6
-11 7 -20 3 -20 -8 0 -12 -22 -27 -50 -34 -27 -7 -50 -19 -50 -28 0 -9 -14
-21 -31 -28 -24 -9 -30 -1 -25 33 3 25 17 45 30 45 13 0 43 21 67 46 42 45 99
34 99 -20z m2365 -104 c8 8 15 0 15 -17 0 -17 11 -36 25 -41 18 -7 15 -19 -11
-47 -26 -26 -33 -28 -25 -6 8 21 -1 31 -29 33 -45 4 -50 -18 -17 -79 19 -36
15 -48 -23 -79 -49 -40 -80 -46 -80 -16 0 11 14 20 30 20 17 0 30 8 30 18 0
10 -13 23 -30 29 -16 7 -30 26 -30 42 0 32 -23 41 -47 18 -7 -8 2 -30 20 -51
25 -26 28 -43 12 -59 -24 -24 -59 29 -56 83 1 17 -7 37 -18 45 -14 9 -12 14 4
15 14 0 25 13 25 28 0 15 15 33 32 40 25 10 30 3 23 -26 -11 -43 30 -46 70 -5
20 20 18 30 -10 45 -19 11 -35 37 -35 58 0 63 67 59 90 -5 12 -32 28 -51 35
-43z m-1934 13 c-8 -19 -19 -102 -24 -184 -8 -117 -19 -155 -49 -176 -46 -33
-48 -52 -7 -94 29 -28 29 -32 0 -44 -52 -19 -54 -3 -30 196 13 103 24 216 25
251 0 35 8 59 18 54 9 -6 16 -1 16 11 0 11 14 21 32 21 23 0 28 -10 19 -35z
m-651 -30 c0 -12 -6 -16 -13 -8 -8 7 -30 -2 -50 -20 -35 -31 -37 -31 -37 8 0
24 15 46 35 50 43 10 65 0 65 -30z m2066 32 c8 -7 4 -26 -9 -40 -12 -15 -24
-63 -25 -107 -4 -97 -39 -142 -68 -87 -22 40 -10 147 16 147 9 0 21 23 28 50
13 49 33 62 58 37z m-1860 -67 c11 -42 -36 -59 -50 -19 -11 34 -116 -59 -116
-103 0 -48 -58 -74 -81 -37 -24 40 3 75 113 149 105 71 118 72 134 10z m-358
-5 c-9 -25 -17 -67 -19 -94 -1 -32 -23 -61 -61 -83 -32 -18 -57 -46 -56 -63 2
-19 -10 -27 -32 -21 -20 5 -42 0 -49 -12 -19 -31 -56 -28 -41 3 7 14 -1 8 -17
-12 -42 -51 -77 -26 -53 38 23 61 14 62 -42 4 -41 -42 -43 -42 -31 -5 11 35 8
34 -27 -7 -22 -26 -40 -37 -40 -24 0 13 -9 18 -20 11 -12 -7 -16 -20 -11 -28
14 -22 -65 -102 -100 -102 -16 0 -29 -12 -29 -27 0 -40 -74 -100 -107 -87 -18
7 -33 -4 -39 -27 -6 -22 -2 -34 8 -28 10 6 18 -11 18 -39 0 -27 -10 -56 -23
-64 -16 -10 -18 -5 -6 14 14 23 11 24 -16 2 -39 -32 -83 29 -63 90 10 32 7 31
-21 -4 -21 -25 -30 -64 -24 -103 7 -53 2 -62 -24 -52 -88 32 -84 128 8 209 39
34 85 88 101 120 28 54 185 212 201 201 4 -2 39 13 77 35 39 22 87 40 106 41
19 0 120 35 224 78 229 93 226 92 208 36z m2301 -37 c-7 -35 -15 -77 -18 -94
-8 -55 -46 -48 -57 10 -6 33 1 75 18 101 43 66 74 57 57 -17z m-1669 -68 c0
-99 -4 -110 -42 -110 -35 0 -38 5 -19 28 24 29 -8 112 -44 112 -8 0 -15 11
-15 24 0 19 5 19 24 0 33 -33 63 -30 50 4 -6 15 -6 33 1 40 31 32 45 3 45 -98z
m674 68 c12 -12 54 -22 94 -22 68 0 111 -23 77 -42 -32 -18 -372 37 -380 61
-11 32 177 35 209 3z m-314 -16 c0 -49 -25 -77 -61 -67 -60 15 -50 85 11 85
28 0 50 -8 50 -18z m640 -80 c0 -24 -23 -49 -60 -65 -33 -15 -60 -34 -60 -42
0 -36 135 0 240 64 83 51 174 81 246 81 l79 0 -11 -95 c-24 -192 -50 -356 -64
-390 -8 -20 -5 -35 7 -35 29 0 123 127 123 166 0 17 10 38 22 45 16 10 18 -5
9 -48 -8 -35 -7 -63 2 -62 22 0 147 207 147 242 1 122 69 218 91 128 7 -26 25
-53 41 -59 15 -6 28 -25 28 -41 0 -17 9 -31 20 -31 11 0 20 -18 20 -40 0 -33
13 -40 80 -40 84 0 88 -5 60 -70 -16 -38 -17 -37 -19 7 0 28 -11 43 -26 37
-63 -22 78 -371 187 -463 53 -44 85 -130 38 -101 -11 7 -40 -2 -64 -19 -25
-17 -70 -31 -101 -31 -122 0 -355 -171 -433 -317 -18 -34 -44 -44 -118 -46
l-94 -4 85 -8 c86 -7 133 -85 52 -85 -45 0 -187 -64 -187 -84 0 -9 -12 -16
-27 -16 -31 0 -193 -168 -193 -200 0 -33 14 -24 98 60 84 85 140 113 64 32
l-45 -48 44 -14 c31 -10 50 -5 62 16 10 18 33 26 57 20 103 -27 -2 -115 -187
-155 -38 -9 -52 -6 -43 9 9 15 -5 17 -43 8 -70 -17 -85 -28 -38 -28 24 0 31
-10 23 -31 -7 -20 11 -52 50 -88 70 -64 100 -234 45 -255 -15 -6 -22 -18 -16
-28 23 -37 -13 -59 -53 -31 -39 28 -130 22 -149 -8 -16 -27 66 -61 122 -51 44
8 48 5 28 -19 -23 -28 -177 -24 -227 6 -21 13 -88 23 -197 32 -121 9 -151 129
-44 177 24 11 43 35 40 53 -6 36 80 103 132 103 18 0 38 14 44 30 15 38 -7 38
-78 1 -31 -16 -64 -24 -74 -18 -10 6 -38 -7 -61 -29 -44 -42 -136 -15 -107 31
5 9 -6 18 -25 19 -39 3 -44 -111 -7 -160 35 -47 32 -181 -3 -167 -20 7 -32 1
-32 -18 0 -16 -9 -29 -20 -29 -11 0 -20 8 -20 17 0 50 -170 41 -219 -11 -33
-36 -52 -44 -57 -27 -5 14 2 32 16 41 15 9 17 20 4 27 -23 15 -144 -24 -144
-47 0 -42 -63 -36 -83 9 -35 77 -171 82 -167 5 2 -30 -3 -60 -11 -65 -27 -16
-77 86 -70 144 3 31 7 70 9 85 2 32 32 11 32 -23 0 -12 10 -25 23 -29 46 -16
22 90 -26 116 -59 31 -28 75 59 82 30 3 54 11 54 18 0 21 164 98 183 86 10 -6
38 -4 62 4 41 13 37 18 -41 51 -111 47 -94 76 30 53 53 -10 139 -21 193 -25
72 -5 111 -21 154 -62 56 -53 60 -54 97 -21 66 59 220 90 306 60 81 -28 156
-17 156 22 0 102 177 335 306 403 30 16 50 38 43 49 -7 11 -2 32 11 48 28 34
7 202 -33 259 -15 22 -27 55 -27 73 0 18 -15 45 -33 61 -40 33 -127 223 -127
278 0 47 -15 48 -97 8 -34 -18 -85 -34 -112 -37 -28 -3 -66 -20 -86 -37 -29
-27 -43 -28 -81 -7 -60 32 -220 -18 -309 -96 -32 -29 -67 -52 -77 -52 -10 0
-18 -22 -18 -49 0 -65 -16 -72 -115 -45 -104 27 -110 21 -75 -77 43 -121 39
-196 -9 -183 -22 5 -38 3 -35 -5 10 -34 -119 -120 -144 -95 -19 19 -31 16 -53
-15 -35 -46 -38 -91 -7 -91 16 0 15 -9 -2 -30 -20 -24 -18 -32 10 -43 22 -8
42 -1 53 20 11 18 29 33 40 33 14 0 13 -11 -3 -30 -35 -42 -12 -59 26 -21 17
17 44 31 60 31 17 0 34 12 40 27 8 19 -4 24 -40 17 -46 -9 -48 -6 -28 32 12
24 20 54 17 68 -3 17 21 26 70 28 79 2 91 -8 51 -48 -35 -35 -3 -54 37 -22 31
26 31 24 1 -34 -22 -42 -76 -85 -172 -136 -77 -40 -146 -82 -153 -93 -7 -11
-38 15 -69 58 -61 84 -135 142 -231 180 -43 18 -79 58 -120 137 -60 114 -210
283 -317 356 -207 142 -208 150 -12 280 148 98 314 230 289 230 -7 0 -3 14 11
30 34 40 -15 40 -68 0 -21 -16 -46 -24 -55 -18 -9 6 -17 2 -17 -9 0 -10 -31
-38 -70 -60 -38 -23 -70 -33 -70 -22 0 10 11 19 23 19 13 0 18 6 10 14 -7 7
-32 -7 -54 -30 -22 -24 -50 -44 -61 -44 -11 0 -15 -9 -8 -20 7 -11 -5 -20 -26
-20 -48 0 -91 -85 -59 -117 12 -12 15 -29 6 -38 -9 -8 -21 -4 -25 10 -5 14
-18 20 -28 14 -34 -21 -18 56 17 85 19 16 24 23 10 16 -14 -7 -25 -3 -25 9 0
11 9 21 20 21 11 0 20 13 20 29 0 16 20 50 45 76 25 25 38 38 30 27 -24 -32
-18 -43 25 -43 23 0 37 10 32 23 -6 15 24 29 81 37 66 10 87 22 79 42 -5 15
12 54 39 87 30 36 42 64 30 72 -27 16 -27 50 -1 50 11 0 20 -12 20 -27 0 -48
102 -133 160 -133 63 0 119 49 76 66 -17 7 -13 11 9 12 19 1 35 11 35 22 0 11
16 20 35 20 20 0 46 17 59 38 60 96 103 31 102 -155 -1 -186 58 -357 115 -335
18 7 29 -11 33 -54 13 -141 87 21 105 232 4 42 10 80 14 84 11 10 161 -45 175
-64 19 -27 123 -68 142 -56 10 6 54 -4 100 -22 137 -55 111 39 -35 124 -89 53
-106 52 -54 -1 29 -28 28 -31 -7 -31 -22 0 -50 14 -64 30 -14 17 -33 30 -44
30 -21 0 -76 50 -76 69 0 7 28 -2 62 -20 34 -18 66 -28 71 -22 6 5 -15 22 -46
36 -174 83 -36 167 263 160 182 -4 228 1 249 26 37 44 101 40 101 -7z m-993
-273 c-17 -43 -56 -25 -64 29 -5 40 -1 43 35 23 25 -13 36 -34 29 -52z m-1021
-84 c5 -8 2 -34 -7 -57 -17 -47 -111 -76 -128 -40 -6 12 -5 0 1 -26 10 -39 6
-46 -21 -35 -19 7 -43 13 -53 13 -12 0 -12 15 1 38 22 41 136 68 147 34 4 -11
13 -4 20 15 8 21 6 30 -6 23 -22 -14 -27 16 -7 37 18 17 43 17 53 -2z m3140
-45 c-7 -27 -1 -40 20 -40 17 0 35 16 40 35 5 19 6 10 2 -20 -8 -64 6 -70 46
-20 25 31 26 30 5 -12 -12 -26 -18 -65 -12 -87 17 -67 -4 -98 -49 -70 -40 25
-53 94 -17 94 12 0 10 12 -5 28 -14 15 -31 25 -37 21 -6 -3 -13 25 -16 64 -2
40 4 65 14 59 11 -7 15 -30 9 -52z m-3166 -201 c0 -33 -47 -119 -64 -119 -10
0 -13 9 -6 20 7 11 3 20 -9 20 -11 0 -21 -19 -21 -42 0 -28 9 -39 28 -31 16 6
34 -2 40 -18 6 -16 1 -29 -11 -29 -12 0 -17 -18 -11 -40 6 -22 2 -35 -8 -29
-10 6 -18 -3 -18 -21 0 -18 9 -27 20 -20 11 7 20 3 20 -9 0 -11 -16 -21 -35
-21 -30 -1 -31 -3 -5 -20 46 -30 12 -24 -52 9 -44 23 -62 24 -85 5 -26 -21
-28 -14 -16 46 8 42 6 59 -4 43 -15 -22 -29 -21 -80 6 -70 36 -84 82 -24 82
21 0 34 -7 28 -15 -5 -9 1 -16 14 -16 12 0 28 18 33 40 9 32 17 36 38 18 15
-12 22 -32 15 -43 -7 -11 0 -16 15 -11 15 5 31 25 35 45 4 23 -3 32 -20 27
-34 -12 -77 31 -78 78 0 35 -1 35 -28 0 -30 -40 -58 -16 -39 34 9 24 21 27 51
10 26 -14 48 -14 63 -1 46 38 214 39 214 2z m2113 -14 c66 -59 58 -132 -9 -95
-108 59 -137 90 -104 110 43 28 69 24 113 -15z m-356 -76 c35 -18 63 -39 63
-49 0 -20 -39 -16 -77 8 -21 13 -24 7 -15 -23 19 -59 -55 -47 -106 17 -64 82
11 108 135 47z m191 16 c9 -8 25 -15 37 -15 12 0 25 -13 30 -30 7 -27 5 -27
-15 0 -19 24 -21 16 -12 -37 10 -59 8 -65 -18 -43 -17 14 -30 36 -30 50 0 14
-16 37 -35 53 -32 24 -32 24 -8 -7 15 -19 22 -46 17 -60 -6 -16 -17 -6 -29 24
-23 56 -15 80 23 80 14 0 32 -7 40 -15z m-1863 -133 c19 -14 35 -37 35 -49 0
-13 8 -23 18 -23 10 0 30 -31 45 -69 20 -50 35 -64 55 -52 20 12 21 25 5 54
-12 20 -22 28 -23 17 -1 -18 -60 102 -60 122 0 5 15 8 33 8 75 0 430 -456 371
-475 -13 -5 -13 -30 1 -74 16 -53 14 -76 -12 -113 -31 -44 -33 -44 -35 -7 0
21 -6 28 -11 14 -18 -44 -47 -27 -47 27 0 44 -5 49 -28 29 -24 -19 -27 -16
-17 21 8 30 4 40 -12 30 -14 -9 -18 -3 -11 15 6 17 0 51 -14 76 l-26 47 -14
-50 c-14 -49 -14 -49 -18 10 -4 59 -4 59 -20 10 -15 -48 -16 -48 -18 -5 -1 25
-11 45 -22 45 -11 0 -20 16 -20 35 -1 30 -3 31 -20 5 -17 -26 -19 -25 -20 3 0
40 -64 157 -85 157 -8 0 -15 23 -15 50 0 35 -16 58 -50 74 -27 12 -50 39 -50
59 0 43 35 47 85 9z m1512 -10 c20 -12 13 -20 -26 -30 -29 -7 -48 -21 -41 -31
10 -18 -26 -52 -40 -38 -73 73 16 157 107 99z m373 -54 c28 -18 56 -55 63 -82
7 -29 22 -44 38 -38 14 5 38 -4 52 -21 14 -18 43 -38 65 -46 21 -8 30 -20 19
-27 -31 -19 -219 80 -274 146 -28 33 -56 51 -63 40 -7 -11 -32 -20 -56 -21
-42 0 -142 -59 -103 -59 11 0 6 -9 -11 -20 -25 -16 -23 -19 12 -20 23 0 48 -7
56 -15 25 -24 170 -61 176 -44 13 33 85 29 92 -7 6 -32 -9 -34 -169 -27 -98 4
-195 1 -217 -7 -57 -21 -127 11 -149 68 -10 26 -51 74 -90 105 -99 79 -89 101
18 39 108 -64 128 -64 191 -6 110 102 235 117 350 42z m290 26 c0 -9 8 -12 17
-6 9 6 16 -3 16 -19 0 -16 -12 -29 -26 -29 -15 0 -27 -20 -28 -45 0 -42 -2
-42 -27 -10 -14 19 -37 35 -49 35 -25 0 -29 21 -12 66 12 30 109 37 109 8z
m881 -63 c-20 -24 -15 -32 27 -42 79 -20 54 -109 -31 -109 -24 0 -32 -10 -24
-30 8 -21 -1 -30 -29 -30 -22 0 -45 11 -51 25 -5 14 -11 -1 -11 -33 -2 -74
-202 -263 -202 -192 0 13 -9 17 -20 10 -12 -7 -15 -23 -7 -35 9 -14 2 -17 -20
-9 -19 8 -33 3 -33 -12 -1 -16 -6 -15 -18 4 -10 15 -28 21 -40 13 -12 -7 -22
-3 -22 9 0 12 -10 16 -23 8 -12 -7 3 32 34 88 32 55 65 97 73 91 9 -5 16 6 16
24 0 50 114 146 238 199 133 58 179 64 143 21z m-3395 -33 c6 -23 21 -36 33
-29 11 7 21 -1 21 -18 0 -17 9 -31 20 -31 11 0 20 9 20 21 0 25 161 -137 260
-262 39 -49 68 -96 65 -105 -4 -9 2 -12 12 -6 9 6 38 -11 64 -39 36 -38 39
-49 15 -49 -26 0 -19 -25 31 -130 35 -71 71 -130 80 -130 10 0 7 14 -7 30 -33
40 -11 39 29 -1 39 -40 40 -77 2 -62 -17 6 -35 3 -42 -8 -6 -10 -1 -19 11 -19
12 0 16 -11 8 -24 -12 -19 -17 -19 -23 0 -5 13 -21 24 -37 24 -15 0 -26 7 -23
16 3 8 -17 39 -45 68 -208 217 -257 300 -198 338 16 9 18 18 6 18 -40 0 -120
90 -151 170 -18 44 -59 98 -93 120 -33 22 -66 54 -72 70 -7 17 -17 41 -24 55
-6 14 -3 25 8 25 11 0 24 -19 30 -42z m1586 -108 c2 -50 -4 -90 -12 -90 -21 0
-41 113 -27 150 21 55 37 31 39 -60z m577 28 c-7 -10 -28 -9 -51 3 -21 11 -48
15 -58 9 -11 -7 -20 -3 -20 7 0 27 84 39 115 17 13 -10 20 -27 14 -36z m-509
-73 c-1 -56 -6 -67 -20 -45 -25 39 -25 120 0 120 11 0 20 -34 20 -75z m736
-29 c13 -13 24 -40 24 -59 0 -53 -85 -16 -93 40 -7 47 30 58 69 19z m-645 -57
c7 -12 13 -53 13 -92 0 -67 1 -68 35 -33 19 20 31 47 26 61 -6 15 9 25 38 26
26 0 70 13 97 29 100 57 340 -48 340 -148 0 -16 -37 9 -82 55 -56 57 -90 78
-105 65 -13 -10 -50 -22 -83 -27 -46 -7 -40 -10 30 -13 90 -3 225 -83 194
-114 -7 -8 -30 -1 -49 16 -19 17 -55 41 -80 54 -78 40 -55 -33 25 -81 73 -43
92 -107 46 -153 -35 -35 -47 -30 -73 27 -14 30 -15 46 -3 39 11 -7 26 2 33 20
19 51 -6 57 -51 12 -23 -23 -42 -33 -42 -21 0 14 -13 13 -40 -1 -22 -12 -39
-15 -38 -6 7 42 -5 66 -32 66 -16 0 -30 -13 -30 -30 0 -21 -17 -27 -64 -22
-36 4 -85 0 -110 -10 -32 -12 -46 -10 -46 7 -1 19 -5 18 -17 -1 -14 -21 -20
-21 -37 0 -36 46 -42 113 -15 150 15 20 28 48 28 62 2 56 68 102 92 63z m655
-74 c22 -25 26 -45 13 -65 -17 -26 -24 -24 -49 9 -58 75 -26 124 36 56z
m-2317 -33 c15 6 32 2 39 -8 6 -11 -6 -24 -28 -30 -27 -7 -47 2 -60 26 -26 49
-25 80 1 36 11 -19 32 -30 48 -24z m965 -87 c128 -123 204 -237 191 -286 -5
-21 -18 -34 -27 -28 -10 6 -18 -5 -18 -25 -1 -30 -4 -31 -20 -6 -11 17 -20 21
-20 11 0 -10 -10 -9 -22 3 -39 39 -80 9 -57 -41 21 -42 20 -42 -10 -4 -17 21
-31 55 -31 75 0 41 -32 49 -46 11 -7 -17 -19 -13 -40 15 -17 22 -23 43 -14 46
10 4 13 22 7 40 -9 29 -8 30 11 4 17 -23 21 -8 17 65 -3 52 -13 95 -22 95 -10
0 -12 14 -6 30 7 17 3 30 -8 30 -10 0 -19 14 -19 30 0 49 30 35 134 -65z
m-424 -85 c50 0 198 -167 250 -281 27 -60 58 -115 67 -122 10 -7 12 -22 5 -35
-16 -25 -78 27 -98 83 -8 23 -24 30 -48 21 -32 -12 -33 -9 -9 20 16 19 20 34
9 34 -35 0 -187 168 -177 195 6 15 2 22 -8 15 -23 -13 -61 53 -60 104 0 34 1
34 21 1 11 -19 33 -35 48 -35z m850 19 c0 -12 9 -16 20 -9 11 7 20 -6 20 -30
0 -53 -62 -149 -79 -122 -7 11 -41 23 -77 26 -76 5 -81 34 -17 90 71 61 133
82 133 45z m1314 -47 c-13 -34 60 -58 73 -25 6 13 11 7 11 -12 1 -19 -8 -35
-19 -35 -12 0 -16 -9 -9 -20 7 -11 -5 -20 -26 -20 -20 0 -47 20 -58 45 -22 50
-14 95 18 95 11 0 15 -13 10 -28z m212 3 c7 -20 14 -20 36 0 40 39 76 30 64
-15 -10 -38 -31 -49 -76 -41 -11 2 -9 -8 5 -22 36 -36 31 -67 -5 -37 -26 22
-29 20 -17 -10 9 -25 6 -32 -10 -22 -12 8 -23 5 -23 -7 0 -11 -8 -21 -18 -21
-10 0 -13 18 -8 41 8 28 2 39 -16 35 -19 -4 -26 10 -23 43 8 69 72 108 91 56z
m-1326 -85 c0 -16 2 -37 4 -45 5 -19 -104 -41 -141 -28 -18 6 -10 23 28 56 63
54 109 61 109 17z m267 -20 c14 -35 -144 -101 -173 -72 -16 16 -16 22 2 22 13
0 41 17 61 37 41 41 97 48 110 13z m924 -291 c7 -11 4 -32 -7 -45 -11 -13 -62
-105 -115 -204 -52 -99 -115 -201 -140 -228 l-45 -47 6 77 c22 295 216 584
301 447z m-2213 -59 c19 0 15 -74 -4 -93 -8 -7 -15 -5 -15 5 -1 10 -5 50 -8
88 -4 39 -3 54 3 35 5 -19 16 -35 24 -35z m242 -114 c42 -54 40 -179 -4 -311
-34 -101 -106 -106 -127 -10 -7 36 -20 74 -29 85 -16 21 -39 127 -46 210 -2
31 6 48 21 45 14 -3 25 3 25 14 0 39 122 14 160 -33z m1020 -297 c10 -25 27
-51 39 -58 11 -7 21 -23 21 -36 0 -12 -6 -16 -14 -8 -18 18 -108 -68 -93 -91
6 -10 28 -3 48 15 21 19 51 29 68 22 17 -6 32 -5 33 3 1 8 4 35 6 60 6 53 84
139 106 117 8 -8 3 -23 -12 -32 -18 -11 -20 -20 -4 -30 12 -7 22 -3 22 9 0 12
10 16 23 8 14 -9 18 -5 9 9 -9 15 3 23 37 23 28 0 51 -10 51 -21 0 -12 9 -16
20 -9 26 16 26 -22 -1 -71 -14 -27 -14 -39 0 -39 12 0 21 13 21 28 0 15 14 33
30 39 22 9 30 -2 30 -38 0 -30 11 -49 30 -49 17 0 30 9 30 20 0 12 18 12 50 0
28 -10 50 -14 50 -7 0 7 12 2 27 -10 36 -30 18 -132 -30 -176 -37 -33 -38 -33
-26 4 10 31 4 28 -28 -11 -35 -43 -47 -46 -80 -26 -40 25 -106 -17 -76 -48 12
-12 -110 -106 -137 -106 -31 0 -70 61 -70 109 0 28 -9 51 -20 51 -11 0 -20
-13 -20 -28 0 -15 -13 -33 -29 -39 -21 -8 -28 -45 -26 -142 1 -76 9 -121 18
-107 9 15 17 17 17 4 0 -11 -16 -38 -36 -58 -23 -25 -32 -60 -28 -101 8 -65 9
-64 -99 -51 -29 4 -97 178 -95 243 2 64 3 65 18 19 18 -55 32 188 15 262 -3
12 6 27 18 32 13 4 27 -12 30 -38 6 -37 137 -79 137 -43 0 48 -45 108 -68 89
-20 -17 -33 -15 -52 8 -46 56 -102 38 -90 -29 6 -34 0 -65 -13 -73 -14 -8 -18
-5 -10 7 17 28 -6 88 -29 74 -34 -22 -18 45 20 79 29 27 40 29 48 8 9 -21 15
-20 31 3 15 21 14 34 -3 45 -19 12 -18 15 0 16 14 0 20 12 14 27 -8 22 -22 22
-80 -5 -39 -17 -61 -34 -49 -38 36 -12 23 -35 -20 -39 -23 -1 -60 -26 -82 -54
-22 -28 -53 -51 -68 -51 -16 0 -29 -9 -29 -20 0 -11 -14 -20 -31 -20 -17 0
-26 -9 -19 -20 7 -11 3 -20 -8 -20 -11 0 -15 -14 -9 -31 6 -17 -5 -46 -26 -65
-26 -24 -38 -66 -42 -144 -3 -82 -14 -118 -45 -143 -22 -18 -40 -43 -40 -55 0
-12 -9 -22 -20 -22 -11 0 -20 12 -20 28 0 15 -13 38 -30 52 -16 14 -30 37 -30
51 0 64 -41 136 -65 112 -35 -35 -55 -28 -55 19 0 22 -27 69 -61 102 -56 56
-123 253 -76 224 9 -6 18 -26 19 -44 0 -19 5 -24 11 -11 7 17 24 17 69 0 49
-18 64 -17 80 7 17 26 19 26 16 0 -3 -16 6 -55 19 -86 13 -31 23 -68 23 -81 0
-40 60 -113 93 -113 25 0 29 13 18 55 -8 30 -19 85 -25 123 -7 43 -24 71 -48
77 -21 5 -38 18 -38 28 0 10 -23 27 -52 38 -28 11 -57 37 -62 59 -6 22 -23 40
-38 40 -16 0 -28 11 -28 25 0 14 -6 47 -13 73 -13 45 -10 47 60 34 57 -11 76
-7 85 17 7 17 22 31 34 31 15 0 14 -8 -2 -24 -28 -28 -32 -76 -6 -76 10 0 23
23 30 50 7 28 22 50 34 50 11 0 16 -8 10 -17 -6 -9 58 -13 142 -7 121 8 149 4
136 -16 -12 -19 -8 -21 11 -9 15 9 56 15 91 12 47 -3 82 12 127 53 74 68 154
65 181 -7z m-212 -414 c-9 -50 -6 -58 10 -35 17 23 19 13 9 -40 -7 -38 -21
-81 -31 -94 -10 -12 -17 -35 -15 -50 7 -52 -4 -165 -14 -141 -15 37 -47 10
-47 -40 0 -66 -57 -118 -103 -94 -20 11 -37 30 -37 42 0 14 10 13 30 -3 37
-31 40 -7 3 30 -21 21 -34 22 -55 4 -15 -13 -12 -6 7 17 20 24 29 58 22 84 -6
23 2 69 19 102 16 33 22 67 13 76 -34 35 40 97 126 105 9 1 25 25 35 52 27 70
41 62 28 -15z m777 -28 c-14 -6 -25 -18 -25 -28 0 -10 14 -13 30 -6 49 19 34
-38 -30 -111 -33 -37 -60 -57 -60 -45 0 13 -18 23 -40 23 -22 0 -39 -7 -38
-15 20 -124 -89 -224 -180 -167 -75 48 -37 222 41 181 26 -15 42 -8 66 26 18
25 36 43 41 40 27 -13 145 64 136 88 -7 18 5 26 37 25 26 0 36 -6 22 -11z
m-1529 -102 c-3 -8 24 -46 59 -83 35 -38 58 -77 53 -86 -6 -9 -4 -16 6 -14 41
7 59 -7 94 -71 20 -38 50 -74 66 -80 19 -7 24 -25 15 -53 -9 -29 -6 -39 9 -29
12 7 28 0 34 -18 7 -17 19 -26 28 -21 18 11 43 -39 54 -110 5 -39 2 -43 -13
-20 -19 27 -30 14 -23 -26 2 -10 -6 -11 -17 -4 -23 13 -19 65 8 108 12 19 10
24 -6 14 -13 -8 -23 -7 -23 3 0 22 -120 92 -121 71 -1 -9 -10 4 -20 29 -10 25
-29 45 -43 45 -20 -1 -20 -4 1 -18 21 -13 21 -19 -3 -28 -35 -13 -94 45 -94
93 0 18 -9 33 -20 33 -11 0 -20 18 -20 40 0 22 -8 40 -19 40 -19 0 -29 27 -51
135 -10 51 -7 65 18 65 18 0 30 -7 28 -15z m792 -448 c-22 -36 -38 -14 -35 48
2 36 6 101 8 145 3 67 7 59 21 -48 9 -71 12 -136 6 -145z m674 183 c-19 -44
-57 -98 -84 -121 -26 -24 -48 -53 -48 -66 -1 -14 -27 -21 -65 -18 -41 3 -65
-4 -65 -20 -1 -17 -7 -15 -20 5 -19 29 -22 27 -28 -25 -2 -14 -18 -24 -37 -22
-18 1 -33 -3 -32 -10 7 -53 -5 -61 -57 -41 -54 20 -54 20 -17 -21 27 -30 30
-41 10 -41 -21 0 -22 -5 -3 -24 32 -32 30 -47 -7 -85 -35 -34 -99 -43 -79 -11
22 36 -11 100 -51 100 -23 0 -40 15 -42 35 -15 190 -16 187 50 177 36 -6 68 0
77 14 12 18 21 16 36 -6 16 -25 19 -25 20 6 0 20 8 31 18 25 10 -6 41 -3 69 8
43 16 49 14 39 -13 -9 -22 -5 -28 11 -18 13 8 23 4 23 -10 0 -15 15 -10 40 12
22 20 40 30 40 22 0 -34 54 43 67 94 8 32 34 63 62 73 26 10 53 28 60 40 35
56 45 12 13 -59z m-731 -253 c-7 -21 -14 -41 -14 -47 0 -5 -10 -22 -22 -37
-16 -19 -16 -30 0 -40 32 -20 -16 -78 -60 -72 -19 3 -31 -1 -26 -9 4 -8 -10
-26 -33 -40 -38 -24 -40 -22 -33 33 5 34 -3 69 -19 84 -23 21 -27 19 -23 -12
7 -71 -1 -77 -31 -20 -16 31 -25 66 -18 76 6 10 3 30 -7 43 -9 13 -17 38 -16
54 1 38 91 45 91 7 0 -37 33 -34 48 4 6 17 20 26 30 20 34 -20 85 13 72 47 -8
22 1 19 32 -11 29 -29 39 -56 29 -80z m591 -33 c-15 -15 -8 -27 24 -43 37 -19
44 -39 45 -137 1 -106 -16 -147 -37 -89 -5 14 -16 18 -24 10 -9 -8 -4 -28 11
-46 27 -33 -8 -79 -44 -57 -8 5 -21 -2 -29 -15 -9 -14 -6 -18 9 -9 13 8 23 4
23 -9 0 -13 12 -19 26 -13 18 7 23 -9 18 -58 -9 -76 -51 -124 -75 -86 -10 16
-7 19 11 8 20 -12 23 -5 15 27 -6 24 -3 43 7 43 10 0 18 9 18 19 0 26 -58 3
-114 -46 -58 -51 -58 -54 14 -130 41 -43 60 -53 60 -31 0 39 50 25 51 -14 0
-15 7 -40 17 -54 26 -42 -4 -53 -61 -22 -42 22 -55 23 -62 3 -6 -18 -25 -14
-68 17 -55 39 -57 45 -30 86 17 26 25 73 20 113 -20 162 -21 221 -4 231 9 6
17 30 18 54 1 70 54 199 88 219 18 10 26 27 18 39 -8 13 -4 16 10 8 13 -8 23
-4 23 8 0 12 10 16 22 9 15 -10 15 -20 0 -35z m-998 -171 c57 -148 54 -204
-12 -248 -15 -10 -14 -14 3 -15 16 0 11 -21 -15 -65 -22 -36 -39 -78 -38 -95
0 -16 10 -5 21 25 13 35 35 55 60 55 37 0 37 -2 7 -33 -19 -19 -25 -38 -13
-45 22 -14 46 -142 26 -139 -59 8 -70 -7 -29 -41 24 -20 39 -42 33 -48 -6 -6
-1 -27 11 -47 16 -28 21 -30 22 -7 1 26 4 26 26 -1 27 -34 114 -48 114 -18 0
11 -20 19 -45 20 -55 0 -103 37 -111 84 -4 24 7 35 35 35 23 0 41 8 41 19 0
10 22 17 49 15 27 -2 49 3 49 13 -1 9 18 32 41 52 22 20 41 50 41 68 0 18 8
33 18 33 23 0 64 -51 51 -64 -6 -6 13 -15 41 -21 49 -9 50 -8 18 28 -27 29
-28 37 -6 37 45 -1 84 -34 70 -58 -9 -13 -3 -17 15 -10 16 6 35 1 42 -11 9
-14 25 -15 51 -1 47 25 68 -3 49 -63 -11 -34 -7 -40 18 -31 19 8 43 -3 59 -27
15 -21 34 -33 41 -26 7 8 13 3 13 -10 0 -12 -19 -23 -41 -23 -23 0 -36 -9 -29
-20 7 -11 2 -20 -11 -20 -18 0 -17 -8 1 -30 14 -17 19 -37 11 -45 -7 -8 -32 8
-54 35 -40 49 -40 49 -31 5 9 -41 3 -45 -68 -45 -65 0 -78 -7 -78 -41 0 -22
-11 -39 -25 -37 -14 3 -50 -3 -81 -11 -38 -11 -65 -8 -80 9 -19 20 -18 22 3
11 19 -11 25 -5 20 20 -8 42 -57 52 -140 28 -39 -11 -76 -10 -100 2 -25 14
-37 14 -37 0 0 -12 -14 -21 -32 -21 -20 0 -28 11 -21 30 10 26 -25 42 -57 25
-5 -3 -23 15 -41 40 -36 51 -17 111 19 61 12 -16 45 -40 72 -54 43 -21 45 -20
17 3 -18 14 -36 49 -40 76 -4 30 -22 51 -47 55 -30 5 -33 1 -13 -12 20 -14 14
-19 -24 -19 l-51 0 44 39 c25 23 31 35 14 30 -22 -6 -31 7 -32 49 -1 31 8 58
20 59 12 1 0 9 -28 17 -28 8 -47 27 -44 42 4 15 10 73 14 128 5 56 16 99 25
97 9 -2 18 30 20 70 2 53 -1 63 -12 35 -14 -32 -18 -33 -28 -6 -7 17 -7 37 0
43 18 19 21 92 3 92 -8 0 -19 -11 -24 -25 -6 -14 -9 -5 -8 19 1 24 8 39 16 35
7 -5 25 5 39 22 47 57 86 21 143 -128z m569 -53 c0 -38 7 -69 16 -68 9 1 24
-11 33 -25 13 -21 17 -18 18 10 0 20 11 32 25 28 14 -5 22 -26 18 -47 -4 -21
0 -32 8 -24 8 8 32 -8 53 -35 35 -45 36 -52 7 -80 -17 -18 -31 -40 -31 -50 0
-11 -14 -19 -31 -19 -17 0 -26 -9 -19 -20 7 -11 -2 -20 -20 -20 -49 0 -113 39
-99 61 6 10 -2 19 -18 19 -36 0 -59 54 -30 72 14 8 14 19 -1 34 -12 12 -22 31
-22 43 0 12 9 8 20 -9 16 -26 19 -25 20 6 0 19 -12 40 -27 46 -15 5 -27 39
-28 74 l0 64 24 -57 25 -58 13 63 c16 84 48 79 46 -8z m-134 -45 c0 -19 -13
-51 -28 -71 -15 -20 -22 -53 -17 -73 12 -47 -62 -124 -103 -108 -17 6 -26 19
-20 29 6 10 -4 18 -22 18 -20 0 -29 -11 -23 -28 11 -27 -20 -72 -50 -72 -9 0
-16 10 -16 21 0 12 10 15 23 7 15 -9 18 -5 8 10 -11 17 -22 18 -41 2 -21 -18
-23 -8 -7 54 33 125 31 157 -8 150 -19 -3 -35 4 -35 15 0 12 18 21 40 21 22 0
40 10 40 22 0 17 7 17 27 0 16 -12 43 -17 60 -10 20 7 33 2 34 -15 1 -15 10
-7 20 18 22 56 119 64 118 10z m511 -505 c-12 -19 14 -28 65 -21 14 1 25 -7
25 -19 0 -12 -20 -20 -45 -18 -116 10 -147 -28 -80 -98 34 -36 31 -57 -9 -73
-30 -11 -30 -16 -6 -31 16 -10 34 -11 39 -2 18 26 161 47 161 23 0 -12 20 -21
45 -21 32 -1 37 -5 18 -18 -14 -9 -26 -23 -26 -32 0 -9 12 -23 26 -32 22 -14
22 -17 0 -18 -18 0 -24 -14 -17 -39 5 -22 -2 -50 -17 -62 -22 -18 -30 -11 -40
30 -12 44 -18 48 -45 27 -24 -20 -28 -20 -17 -1 22 35 -17 31 -47 -5 -20 -24
-19 -30 6 -30 18 0 37 -8 43 -18 13 -21 -83 -15 -104 6 -24 25 83 102 135 97
45 -4 46 -2 10 14 -55 25 -135 26 -120 1 7 -11 3 -20 -9 -20 -11 0 -21 13 -21
29 0 16 -19 40 -42 52 -24 13 -37 14 -31 3 17 -27 -131 -43 -164 -18 -19 16
-32 13 -46 -7 -17 -25 -19 -25 -12 1 6 19 31 29 66 28 53 -3 109 30 109 63 0
8 15 25 33 39 35 25 19 80 -16 58 -13 -8 -12 3 2 29 12 23 47 56 77 72 65 36
70 37 54 11z m5 -122 c-3 -13 10 -25 28 -28 73 -13 112 -49 53 -49 -57 -1
-124 50 -105 81 16 25 30 23 24 -4z m-200 -104 c-9 -27 -72 -36 -86 -12 -6 10
-6 26 0 36 15 25 94 2 86 -24z m-163 -6 c-7 -17 -12 -45 -12 -61 0 -21 -14
-26 -45 -19 -25 7 -34 6 -20 0 54 -24 22 -50 -48 -39 -60 10 -69 7 -49 -16 18
-23 13 -30 -25 -37 -34 -7 -47 -1 -45 22 4 62 59 102 140 102 62 0 75 5 56 24
-36 36 -29 56 18 56 30 0 39 -9 30 -32z m279 -124 c-7 -6 -45 -13 -86 -16
l-75 -4 59 26 c55 24 127 19 102 -6z m282 -379 c-6 -54 -17 -74 -41 -72 -17 1
-32 -5 -32 -13 0 -20 -186 -16 -200 4 -6 8 -51 5 -99 -6 -48 -11 -115 -14
-149 -8 -47 9 -55 7 -32 -8 17 -12 60 -22 96 -22 37 0 61 -8 55 -18 -12 -19
66 -40 105 -27 13 5 19 16 14 25 -6 10 7 16 30 15 22 -2 40 -10 40 -17 0 -7
11 -12 25 -11 14 2 30 -6 35 -17 6 -13 -72 -22 -210 -26 -199 -5 -216 -3 -180
25 40 30 23 42 -47 32 -15 -2 -22 5 -15 15 15 25 -78 43 -112 21 -17 -11 -8
-16 30 -17 32 0 51 -9 44 -20 -7 -11 -39 -20 -72 -20 -33 0 -55 -8 -49 -18 6
-9 -5 -30 -24 -45 -31 -24 -32 -23 -9 6 40 51 2 58 -91 15 -88 -41 -97 -85
-22 -105 34 -8 39 -3 30 32 -10 39 -9 39 22 8 29 -29 30 -36 4 -61 -45 -43
-176 -92 -190 -71 -6 11 -2 19 10 19 11 0 21 14 21 30 0 17 11 30 23 30 13 0
18 6 11 13 -7 7 -27 1 -44 -13 -18 -15 -30 -17 -30 -4 0 11 -5 35 -12 52 -8
21 5 34 45 44 31 8 66 27 77 41 11 15 45 29 75 31 30 3 55 12 55 21 0 9 -31
11 -70 4 -75 -14 -85 0 -42 56 27 36 63 50 43 16 -7 -11 19 -14 64 -7 83 13
108 27 70 40 -35 13 -31 59 5 73 18 7 30 0 30 -18 0 -17 25 -40 55 -51 71 -27
203 -41 164 -17 -23 14 -22 19 6 30 19 7 30 21 24 31 -6 10 -1 18 11 18 12 0
19 -16 16 -35 -7 -42 59 -39 152 7 72 35 72 35 72 -2 0 -17 23 -40 51 -50 69
-27 69 -27 69 26 0 51 34 94 75 94 18 0 24 -22 18 -75z m-965 -516 c12 -32 -4
-42 -93 -57 -30 -5 -55 -1 -55 9 0 16 94 76 123 78 7 1 18 -13 25 -30z"/>
<path d="M1816 6618 c-17 -9 -70 -19 -118 -22 -55 -4 -101 -20 -123 -44 -46
-50 -44 -59 10 -44 25 8 76 18 114 23 38 6 80 20 94 31 14 12 33 16 43 10 10
-6 34 1 54 16 44 32 -22 59 -74 30z"/>
<path d="M2592 6565 c-27 -27 -7 -36 79 -40 50 -2 86 4 80 14 -6 9 -30 12 -54
6 -25 -7 -38 -3 -32 8 13 20 -54 32 -73 12z"/>
<path d="M2232 7227 c-20 -52 15 -71 80 -45 51 21 53 25 18 33 -22 5 -50 18
-63 28 -15 12 -27 6 -35 -16z"/>
<path d="M1816 6032 c-35 -26 -193 -29 -232 -5 -36 23 -6 -45 53 -120 45 -57
121 -74 90 -20 -8 13 -6 17 2 9 18 -16 100 21 84 38 -14 14 38 66 66 66 11 0
21 8 21 18 0 30 -50 39 -84 14z"/>
<path d="M2513 6003 c-35 -14 -35 -16 2 -61 45 -57 105 -45 154 29 l32 49 -76
-1 c-41 -1 -91 -8 -112 -16z"/>
<path d="M2179 4329 c-17 -20 -43 -27 -73 -20 -49 13 -69 -37 -21 -55 14 -5
18 -16 9 -26 -9 -9 -23 -6 -32 8 -18 30 -102 49 -102 23 0 -11 -7 -18 -15 -17
-41 7 -65 -5 -65 -31 0 -21 25 -27 100 -25 67 3 103 -5 110 -23 16 -43 12 -48
-30 -37 -22 6 -45 2 -51 -8 -18 -28 75 -20 131 12 45 26 46 29 10 30 -31 1
-27 8 20 29 54 25 42 41 -25 32 -14 -1 -25 11 -25 28 0 28 28 39 96 36 18 0
19 6 5 24 -11 14 -15 31 -7 38 7 7 8 13 2 13 -6 0 -23 -14 -37 -31z"/>
<path d="M4020 8282 c0 -16 -15 -20 -40 -12 -28 9 -40 4 -40 -19 0 -41 72 -40
88 2 7 18 8 37 2 43 -5 6 -10 0 -10 -14z"/>
<path d="M4036 7612 c-46 -63 -21 -84 27 -23 20 26 37 53 37 59 0 26 -32 8
-64 -36z"/>
<path d="M5635 3560 c-61 -64 -68 -79 -35 -74 32 5 140 119 140 148 0 23 -41
-6 -105 -74z"/>
<path d="M5391 3470 c-21 -16 -31 -36 -22 -45 9 -8 20 -4 25 10 5 14 41 25 79
25 41 0 64 8 57 20 -18 29 -94 23 -139 -10z"/>
<path d="M4990 3382 c-7 -32 -25 -64 -41 -70 -35 -13 -39 -85 -6 -96 16 -6 11
-26 -14 -65 -74 -113 -27 -158 63 -61 26 28 74 56 107 63 40 8 61 24 61 47 0
20 13 41 28 47 16 6 40 42 54 80 14 40 42 75 66 81 22 6 36 15 30 20 -25 26
-98 -18 -126 -75 -16 -35 -48 -74 -71 -88 -22 -14 -41 -39 -41 -55 0 -42 -54
-37 -113 8 -48 39 -48 39 -8 67 22 16 46 57 53 92 17 81 -24 85 -42 5z"/>
<path d="M2944 3265 c16 -19 51 -72 76 -118 38 -69 61 -87 133 -106 48 -12
107 -41 130 -64 23 -23 88 -54 144 -69 57 -15 106 -37 110 -49 4 -11 20 -32
36 -45 17 -13 49 -42 73 -64 31 -28 75 -40 153 -43 82 -2 117 -13 141 -42 52
-64 175 -96 218 -57 19 18 48 32 64 32 17 0 7 -18 -25 -45 -49 -42 -52 -53
-42 -172 6 -77 16 -117 26 -101 9 15 12 69 7 120 -12 105 63 219 112 171 17
-17 19 -14 9 12 -9 24 -4 35 18 35 35 0 62 -33 35 -43 -51 -18 35 -77 95 -65
86 18 80 46 -7 34 -85 -11 -93 22 -12 50 70 25 214 151 267 234 l38 60 -12
-62 c-11 -54 -4 -69 56 -114 88 -67 108 -49 29 27 -47 45 -58 69 -48 107 6 27
3 52 -9 56 -12 4 -8 22 10 46 30 38 30 38 18 2 -13 -37 -12 -37 26 1 46 46 54
107 14 107 -27 0 -127 -142 -127 -180 0 -82 -257 -275 -317 -237 -31 19 -51
20 -92 1 -29 -13 -70 -24 -92 -24 -21 0 -39 -9 -39 -20 0 -47 -124 -19 -176
40 -47 53 -66 60 -163 60 -110 0 -286 121 -327 224 -8 18 -11 16 -12 -7 -2
-37 -89 -15 -182 47 -27 18 -75 40 -107 47 -31 8 -61 26 -67 41 -5 15 -20 22
-31 15 -13 -8 -15 -4 -6 11 16 27 -25 87 -50 71 -9 -5 -22 11 -30 36 -15 45
-44 74 -77 75 -10 0 -5 -16 12 -35z"/>
<path d="M2484 3225 c-6 -70 -22 -82 -54 -39 -14 20 -31 28 -38 17 -6 -10 2
-24 18 -30 44 -17 37 -53 -10 -53 -22 0 -40 8 -40 19 0 11 -25 11 -65 0 -86
-25 -95 -24 -95 11 0 17 22 41 49 53 28 13 45 31 38 41 -6 10 -26 6 -44 -10
-18 -16 -63 -29 -100 -30 -76 -2 -93 -12 -74 -43 8 -12 35 -17 62 -12 58 10
63 -4 14 -41 -33 -25 -33 -27 0 -27 19 -1 36 -12 36 -26 1 -14 9 -7 18 15 15
37 18 37 31 5 17 -41 54 -48 38 -7 -8 20 4 27 39 25 40 -2 46 -9 30 -38 -12
-23 -11 -35 2 -35 12 0 21 7 21 15 0 29 246 17 256 -13 6 -18 0 -23 -18 -13
-16 8 -8 -4 17 -26 54 -47 38 -62 -73 -66 -99 -4 -102 -10 -17 -35 64 -18 64
-18 9 -20 -30 -1 -60 -15 -66 -30 -15 -40 -88 -15 -88 30 0 24 -14 38 -37 38
-20 0 -36 14 -36 30 0 17 11 30 24 30 13 0 35 -13 49 -30 29 -35 69 -41 49 -8
-8 12 -2 30 13 40 24 15 23 21 -1 37 -19 12 -39 11 -55 -2 -14 -12 -53 -18
-86 -13 -33 5 -60 1 -60 -9 0 -9 -8 -12 -18 -6 -22 13 -142 -51 -142 -76 0
-10 14 -7 30 7 17 14 34 22 39 18 11 -12 -64 -99 -83 -96 -48 8 -66 -8 -66
-60 0 -33 -13 -63 -30 -69 -55 -21 14 -193 78 -193 11 0 10 10 -4 24 -13 13
-24 40 -24 60 0 20 -15 36 -33 36 -27 0 -25 7 10 37 24 21 43 57 43 80 0 30 9
38 32 30 17 -7 23 -18 13 -25 -66 -44 -11 -181 73 -183 54 -1 111 -57 115
-114 2 -30 4 -63 5 -72 1 -10 29 -13 62 -6 50 10 60 6 60 -27 0 -51 22 -51 65
0 38 44 66 51 85 20 7 -11 34 -20 61 -20 27 0 49 -9 49 -20 0 -12 -22 -17 -49
-12 -27 5 -52 0 -55 -10 -4 -11 -42 -32 -86 -48 -44 -15 -67 -29 -52 -29 22
-1 20 -10 -7 -40 -41 -45 -26 -81 33 -81 33 0 36 5 17 29 -20 24 -10 33 58 53
45 14 81 37 81 53 0 19 18 26 55 22 30 -3 66 1 79 9 29 18 120 4 154 -24 21
-18 112 -23 112 -7 0 27 -86 91 -94 70 -13 -36 -46 -10 -46 36 0 22 12 39 27
39 15 0 35 40 47 95 22 98 14 225 -15 225 -9 0 -13 40 -10 89 6 96 -30 171
-82 171 -16 0 -69 27 -117 60 -66 45 -110 60 -180 60 -104 0 -108 39 -4 41 92
2 149 27 114 49 -17 10 -31 8 -35 -5 -14 -41 -109 17 -98 59 5 20 3 40 -5 45
-7 4 -15 -15 -18 -44z m-121 -428 c-7 -8 -44 -22 -83 -32 -56 -14 -71 -28 -76
-71 -4 -30 -15 -50 -25 -43 -10 6 -13 -3 -7 -20 16 -40 -9 -40 -55 2 -59 53
28 194 105 172 10 -3 18 3 18 13 0 10 15 23 32 30 24 9 30 4 21 -23 -8 -21 1
-17 21 12 32 44 35 45 48 10 7 -20 8 -43 1 -50z m459 52 c48 -25 59 -43 54
-84 -7 -64 -48 -82 -65 -28 -7 21 -41 53 -77 70 -51 26 -56 33 -24 35 22 2 4
10 -40 18 l-80 14 86 3 c47 2 113 -11 146 -28z m-146 -121 c96 -96 157 -135
185 -117 13 8 31 2 41 -13 29 -47 20 -63 -29 -51 -60 16 -77 -2 -51 -51 26
-48 12 -66 -36 -45 -20 8 -43 14 -51 12 -8 -2 -15 10 -15 26 0 18 -12 25 -29
19 -16 -6 -24 -24 -18 -40 15 -37 -8 -36 -46 2 -50 50 -144 37 -222 -32 -63
-55 -153 -40 -97 17 7 6 12 -1 12 -17 0 -15 16 4 35 42 22 43 49 69 70 67 19
-1 35 4 35 13 0 8 19 20 41 26 33 9 37 5 19 -16 -17 -21 -14 -25 14 -20 20 4
54 8 76 10 38 2 38 3 -3 20 -66 26 -77 60 -19 60 27 0 55 -9 62 -20 7 -11 30
-20 51 -20 34 0 36 5 15 39 -16 26 -39 36 -65 30 -37 -9 -148 -22 -231 -28
-26 -1 -26 -4 -1 -20 23 -15 18 -23 -25 -43 -30 -13 -54 -32 -54 -41 0 -9 -13
-17 -30 -17 -32 0 -39 36 -15 70 22 30 100 70 135 70 17 0 36 12 42 27 7 18
36 24 94 19 82 -8 83 -7 39 24 -25 18 -40 41 -34 51 18 29 28 24 105 -53z
m-161 40 c-21 -21 -155 -44 -155 -27 0 16 53 31 128 36 21 2 33 -2 27 -9z
m-205 -68 c-7 -11 -1 -20 14 -21 16 0 11 -12 -13 -30 -21 -16 -41 -43 -43 -61
-7 -46 -26 -58 -50 -34 -15 15 -15 25 0 35 12 7 22 35 22 61 0 42 21 64 66 68
9 1 11 -7 4 -18z m470 -330 c0 -15 11 -31 25 -37 14 -6 10 -11 -11 -11 -44 -2
-101 50 -85 77 16 26 71 3 71 -29z"/>
<path d="M2715 2583 c-33 -13 -33 -16 5 -48 33 -29 40 -30 40 -5 0 17 10 30
21 30 12 0 16 9 9 20 -14 23 -25 23 -75 3z"/>
<path d="M2880 3188 c0 -53 211 -242 285 -256 48 -9 87 -32 107 -63 19 -29 52
-49 79 -49 26 0 52 -9 58 -19 7 -11 23 -15 37 -11 64 23 122 -68 89 -138 -29
-61 -29 -69 0 -99 22 -21 31 -61 28 -119 -3 -68 5 -95 40 -125 24 -22 36 -26
27 -11 -11 19 -9 24 7 14 17 -11 15 -26 -7 -58 -67 -96 0 -234 115 -234 29 0
78 -10 109 -23 31 -13 68 -26 83 -29 15 -3 33 -12 40 -20 7 -8 -3 -9 -22 -2
-36 13 -49 -15 -17 -35 31 -19 39 -113 10 -125 -16 -6 -28 -22 -28 -37 0 -15
-18 -37 -40 -49 -22 -12 -40 -34 -40 -50 0 -17 -33 -34 -85 -44 -67 -14 -95
-33 -133 -92 -28 -42 -65 -74 -86 -74 -39 0 -124 -79 -161 -150 -26 -49 45 5
111 86 25 30 51 41 75 34 28 -9 50 8 88 69 80 126 181 82 168 -72 -6 -67 -1
-78 37 -83 34 -5 48 -25 58 -80 8 -41 31 -114 52 -162 26 -61 31 -95 17 -109
-12 -12 -21 -46 -21 -77 0 -31 -9 -56 -20 -56 -11 0 -20 -14 -20 -31 0 -16
-13 -35 -30 -42 -17 -6 -29 -34 -28 -64 l1 -53 24 50 c55 120 92 118 93 -4 0
-29 9 -59 20 -66 22 -14 28 115 7 137 -16 16 -18 138 -3 165 21 37 36 128 21
128 -15 0 -65 95 -65 124 0 9 14 16 30 16 17 0 30 -13 30 -30 0 -30 20 -38 87
-31 20 2 50 -12 66 -32 29 -36 30 -36 19 0 -7 20 -12 40 -12 45 0 4 -31 8 -70
8 -43 0 -70 10 -70 25 0 14 -27 40 -60 59 -33 19 -60 48 -60 65 0 18 -17 31
-40 31 -46 0 -50 24 -15 80 20 32 19 48 -2 82 -22 35 -21 47 6 76 17 20 31 50
31 68 0 45 75 83 108 56 14 -12 32 -15 40 -7 8 7 8 -3 0 -24 -12 -30 -8 -35
20 -25 19 8 29 5 23 -5 -20 -31 64 -44 108 -17 22 14 41 32 41 41 0 8 14 15
31 15 20 0 26 9 16 25 -10 17 -3 16 20 -3 36 -30 66 -19 44 17 -22 36 -82 23
-129 -27 -58 -62 -162 -23 -162 61 0 28 -19 77 -42 110 l-42 59 48 -12 c32 -8
58 -2 75 18 14 18 34 27 43 21 10 -6 18 -2 18 9 0 34 -38 45 -80 22 -34 -18
-56 -13 -115 23 -41 25 -88 48 -105 50 -179 26 -224 57 -205 142 17 81 -9 308
-44 390 -11 26 -3 40 32 54 45 18 45 20 7 31 -22 7 -62 43 -90 81 -30 41 -67
68 -94 68 -24 1 -49 10 -56 21 -7 11 -29 20 -50 20 -21 0 -49 17 -64 37 -33
46 -101 83 -155 83 -25 0 -86 47 -151 115 -61 63 -110 105 -110 93z"/>
<path d="M5335 3045 c-28 -65 -90 -125 -128 -125 -17 0 -27 -23 -27 -60 0 -49
-8 -59 -45 -57 -25 2 -79 -7 -121 -19 -78 -22 -133 -14 -158 24 -8 11 -20 14
-29 6 -27 -27 34 -63 109 -63 63 0 75 -7 77 -45 2 -40 -1 -41 -28 -14 -53 53
-51 13 3 -45 33 -36 52 -46 52 -28 0 38 41 -1 47 -44 3 -17 18 -47 34 -66 16
-19 49 -67 74 -107 l46 -72 -13 78 c-13 73 -11 77 29 67 24 -6 43 -2 43 9 0
13 12 11 30 -4 23 -19 37 -19 58 -1 23 18 38 13 73 -23 l44 -46 -14 45 c-11
36 -6 45 26 45 21 0 44 15 51 32 8 22 29 29 61 23 31 -6 53 2 60 19 7 18 25
24 51 16 52 -17 51 13 -2 46 -36 23 -42 21 -52 -15 -6 -22 -19 -35 -29 -29
-10 6 -40 -3 -66 -20 -26 -17 -78 -34 -116 -38 -38 -4 -80 -14 -93 -23 -13 -8
-35 -5 -49 6 -14 12 -62 19 -107 17 -46 -3 -79 0 -75 7 4 7 -11 27 -32 45 -21
19 -39 47 -39 64 0 16 -9 30 -20 30 -34 0 -22 58 17 78 20 11 55 15 78 9 41
-11 81 51 58 89 -6 8 16 27 48 41 33 15 59 38 59 52 0 14 18 48 40 76 45 57
49 75 20 75 -12 0 -32 -25 -45 -55z"/>
<path d="M2091 2998 c6 -10 -7 -18 -29 -18 -22 0 -45 -9 -52 -20 -7 -12 -21
-15 -32 -9 -10 6 -32 -3 -50 -20 -17 -17 -46 -31 -64 -32 -32 0 -32 -2 -1 -25
24 -19 28 -35 14 -60 -13 -22 -12 -34 2 -34 12 0 21 10 21 21 0 12 8 16 18 10
10 -6 23 3 30 20 7 19 30 29 57 25 36 -5 45 4 45 43 0 34 17 55 57 72 54 21
55 24 15 34 -23 6 -37 3 -31 -7z"/>
<path d="M2924 2989 c44 -24 53 -41 47 -89 -5 -33 0 -65 10 -71 11 -6 19 25
19 69 0 80 -37 123 -104 121 -14 0 -2 -14 28 -30z"/>
<path d="M2994 2790 c-18 -38 -25 -70 -15 -70 24 0 81 81 81 114 0 48 -32 26
-66 -44z"/>
<path d="M4610 2708 c-39 -39 -70 -82 -70 -94 0 -13 18 -3 41 21 22 24 62 66
89 94 26 28 39 51 29 51 -11 0 -51 -32 -89 -72z"/>
<path d="M5926 2686 c-20 -20 -59 -47 -86 -60 l-50 -23 47 -2 c53 -1 174 90
144 109 -11 6 -36 -5 -55 -24z"/>
<path d="M3772 2685 c-25 -25 -10 -45 33 -45 25 0 68 -20 95 -45 28 -25 77
-47 110 -49 l60 -5 -60 22 c-33 12 -78 37 -100 55 -62 50 -125 81 -138 67z"/>
<path d="M4088 2455 c16 -177 30 -212 106 -283 89 -83 160 -101 86 -22 -26 28
-61 51 -78 52 -18 1 -9 9 18 18 33 11 38 17 15 18 -19 1 -36 13 -36 27 -1 14
-9 7 -18 -15 -19 -46 -19 -43 -62 175 -26 135 -41 151 -31 30z"/>
<path d="M5250 2299 c8 -11 -5 -56 -28 -100 -25 -48 -41 -114 -40 -165 2 -46
7 -68 12 -49 14 56 106 -12 106 -79 0 -15 23 -36 51 -46 64 -25 69 -25 69 0 0
11 -18 20 -40 20 -22 0 -40 12 -40 26 0 37 -91 156 -107 140 -27 -26 -11 85
18 123 33 45 39 151 8 151 -12 0 -16 -9 -9 -21z"/>
<path d="M5596 2288 c-8 -12 -6 -53 5 -90 10 -37 19 -97 19 -133 0 -42 10 -65
28 -65 30 0 22 160 -9 180 -9 6 -18 37 -22 70 -4 34 -13 50 -21 38z"/>
<path d="M2984 2206 c-60 -64 -41 -82 41 -41 40 20 52 33 31 34 -22 1 -31 12
-23 31 15 40 6 35 -49 -24z"/>
<path d="M2680 2206 c-27 -5 -59 -18 -69 -28 -10 -10 -35 -18 -55 -18 -53 0
-48 -92 7 -122 44 -23 43 -23 -15 -49 -39 -17 -46 -26 -22 -27 50 -3 60 -45
26 -111 -31 -60 -23 -113 15 -105 13 2 29 19 37 38 8 19 47 40 90 47 42 7 97
27 124 43 26 17 53 22 60 13 6 -10 37 -29 68 -43 l56 -24 -6 75 c-5 68 -13 78
-91 104 -96 33 -106 51 -40 68 74 20 100 15 88 -16 -7 -18 11 -47 43 -72 91
-72 31 -265 -71 -229 -14 5 -25 0 -25 -10 0 -10 -40 -18 -90 -17 -109 2 -112
16 -19 66 58 32 79 34 110 15 45 -28 59 -30 59 -8 0 53 -122 59 -218 11 -130
-64 -157 -98 -125 -150 14 -22 20 -56 13 -77 -6 -20 -2 -42 9 -49 37 -23 23
-47 -42 -69 -83 -29 -64 -47 23 -22 37 11 71 16 76 11 17 -18 -20 -51 -57 -51
-49 0 -51 -34 -4 -45 29 -7 26 -13 -15 -31 -28 -12 -37 -22 -20 -23 24 -2 23
-6 -5 -23 -19 -11 -35 -37 -35 -58 0 -21 -9 -43 -20 -50 -12 -7 -15 -21 -9
-32 14 -22 -38 -78 -72 -78 -13 0 -19 -12 -13 -28 6 -15 1 -37 -11 -49 -16
-16 -14 -24 7 -31 15 -5 42 -13 58 -19 17 -5 2 -11 -33 -11 -34 -1 -74 -16
-88 -33 -23 -28 -19 -30 28 -18 33 8 53 5 53 -9 0 -12 -17 -22 -39 -22 -53 0
-68 -31 -16 -35 23 -2 49 -15 58 -29 12 -19 16 -16 17 11 0 28 11 35 40 27 22
-6 40 -2 40 8 0 10 11 16 24 13 37 -8 36 130 -2 161 -27 22 -22 24 36 13 46
-9 63 -7 53 9 -7 12 -3 22 9 22 12 0 16 10 8 23 -10 16 -1 20 26 13 33 -9 38
-3 30 40 -8 38 -3 47 18 35 15 -7 11 0 -11 18 -21 17 -29 31 -18 31 11 0 20
13 20 29 0 16 -8 27 -19 25 -10 -2 -23 7 -28 21 -13 35 51 31 87 -5 46 -46 78
-36 36 11 -21 23 -29 40 -18 38 48 -9 69 4 69 46 0 28 19 54 50 68 31 14 45
15 37 3 -7 -12 -1 -17 13 -13 15 5 29 29 33 54 4 25 0 41 -8 37 -28 -17 -105
25 -105 57 0 17 9 26 20 19 12 -7 15 -21 9 -31 -6 -11 -2 -19 9 -19 28 0 49
89 35 146 -10 39 -1 49 53 65 35 10 64 28 64 39 0 11 8 31 16 45 9 13 10 58 2
100 -8 41 -18 63 -23 49 -12 -36 -65 9 -65 56 0 48 -51 87 -98 75 -26 -7 -42
2 -48 26 -9 32 -16 34 -62 13 -34 -16 -42 -26 -22 -30 36 -8 40 -57 6 -69 -15
-5 -17 -18 -5 -36 26 -41 32 -99 11 -99 -33 0 -64 123 -39 154 19 23 14 24
-31 7 -70 -27 -113 -26 -67 1 49 28 44 57 -10 61 -25 1 -10 8 33 15 44 7 83
23 87 37 8 25 -5 27 -95 11z m23 -206 c22 0 34 -8 28 -18 -6 -10 0 -23 14 -28
14 -5 -2 -20 -35 -33 -33 -12 -71 -37 -85 -55 -13 -18 -31 -26 -40 -18 -8 8 1
24 20 34 19 11 35 33 35 49 0 16 11 29 25 30 15 0 12 10 -10 27 -19 14 -28 32
-20 40 8 8 17 5 21 -7 4 -11 25 -21 47 -21z m126 -320 c62 -23 69 -61 8 -45
-28 7 -39 4 -30 -10 8 -12 5 -28 -7 -35 -11 -7 -20 -4 -20 7 0 11 -25 29 -55
40 l-55 20 56 1 c32 1 51 11 44 22 -15 25 -6 25 59 0z m91 -212 c0 -26 -14
-30 -75 -19 -54 9 -67 7 -45 -8 23 -16 17 -20 -30 -19 -33 1 -49 6 -35 11 14
6 19 20 12 32 -7 12 -5 16 6 9 10 -6 32 -3 48 7 48 30 119 22 119 -13z"/>
<path d="M4319 2143 c11 -21 14 -43 7 -50 -7 -7 7 -35 32 -61 24 -26 57 -94
72 -151 15 -57 38 -116 51 -132 66 -80 -31 -194 -151 -177 -69 9 -87 3 -129
-41 -45 -48 -51 -50 -63 -17 -10 24 -14 15 -13 -29 1 -74 24 -84 56 -23 12 22
34 36 49 31 15 -6 31 -1 35 11 5 15 19 15 50 -1 35 -19 46 -17 63 12 39 67 25
-110 -16 -200 -58 -129 -87 -233 -76 -276 5 -20 -6 -67 -25 -103 -54 -102 -68
-178 -31 -163 16 6 30 29 30 50 0 22 13 64 29 95 16 30 33 91 38 134 17 132
32 158 67 109 15 -23 39 -41 51 -41 17 0 16 7 -1 24 -13 13 -24 47 -24 75 -1
36 -6 43 -18 24 -11 -19 -21 -20 -30 -6 -8 12 4 37 25 55 22 19 35 45 30 59
-5 14 0 31 12 38 11 7 21 36 21 64 0 79 75 171 127 156 24 -6 33 -5 20 5 -12
9 -42 52 -66 96 l-44 80 69 -70 c67 -67 124 -181 76 -151 -14 8 -22 -5 -22
-38 0 -57 39 -72 42 -16 1 19 10 4 20 -35 17 -71 16 -74 -83 -310 -38 -92 -41
-263 -4 -255 13 2 33 -13 45 -35 16 -30 15 -40 -4 -41 -16 0 -10 -12 13 -30
21 -16 29 -29 18 -29 -11 0 -21 -11 -22 -25 0 -14 -7 -56 -15 -95 -10 -52 -8
-62 8 -40 18 26 21 25 22 -6 0 -46 56 -154 79 -154 10 0 3 29 -14 65 -22 43
-31 107 -28 190 3 100 -5 143 -46 219 -57 107 -63 159 -25 217 110 164 119
424 17 526 -68 68 -125 164 -154 257 -16 53 -61 130 -99 171 -77 82 -102 95
-71 38z"/>
<path d="M4624 1395 c-11 -14 -32 -65 -46 -115 -29 -99 -162 -310 -207 -327
-53 -20 -60 -145 -12 -226 31 -52 37 -77 20 -88 -15 -9 -18 -37 -10 -77 8 -34
7 -62 -2 -62 -10 0 -18 -20 -19 -45 -1 -25 -9 -74 -18 -110 -10 -44 -8 -65 8
-65 12 0 21 7 19 15 -2 8 2 29 8 45 7 17 16 53 22 80 5 28 21 88 34 134 21 75
19 94 -19 166 -23 45 -42 102 -42 128 0 85 147 204 183 148 12 -19 16 -17 17
9 0 19 -13 35 -30 35 -16 0 -30 5 -30 11 0 25 47 100 73 115 15 9 27 36 27 60
0 24 18 73 39 108 38 62 26 111 -15 61z"/>
<path d="M1789 1359 c-7 -12 -25 -17 -40 -11 -35 13 -59 -62 -30 -96 12 -15
17 -40 10 -57 -8 -21 5 -33 40 -40 44 -8 48 -5 26 21 -22 27 -19 28 20 7 56
-30 56 -22 4 39 l-42 47 44 36 c24 19 56 35 71 35 15 0 28 9 28 20 0 27 -114
26 -131 -1z"/>
<path d="M3034 1260 c-18 -26 -27 -53 -19 -59 60 -44 -17 -166 -121 -192 -30
-7 -59 -21 -65 -31 -6 -10 -28 -18 -48 -18 -20 0 -42 -15 -49 -33 -11 -26 -8
-28 16 -9 20 17 32 18 42 2 13 -22 -22 -80 -47 -77 -43 6 -63 -8 -63 -43 0
-22 -9 -40 -21 -40 -12 0 -30 -25 -41 -56 -23 -68 -211 -68 -205 1 1 19 -5 30
-15 24 -30 -19 -97 64 -72 89 16 16 12 22 -13 22 -20 0 -30 9 -23 20 7 11 4
20 -7 20 -11 0 -24 -11 -30 -25 -7 -19 -10 -19 -11 -1 -2 27 67 71 84 53 6 -6
9 3 6 21 -2 17 -10 37 -18 45 -8 7 -14 30 -14 49 0 19 -19 41 -41 48 -25 8
-38 25 -31 41 5 15 3 32 -7 38 -18 11 -41 -34 -41 -80 0 -16 23 -34 50 -41 55
-14 68 -48 19 -48 -17 0 -26 -9 -18 -21 7 -12 -21 -7 -62 10 -40 17 -96 27
-122 22 -52 -9 -147 56 -147 101 0 14 -9 31 -20 38 -11 7 -16 -20 -12 -69 7
-86 -12 -100 -73 -53 -38 29 -27 55 17 38 15 -5 28 -1 28 10 0 25 -77 45 -91
23 -5 -9 -23 -13 -38 -7 -15 6 -33 1 -40 -11 -7 -11 -2 -21 13 -22 65 -1 109
-59 68 -90 -29 -21 -46 -23 -65 -6 -21 17 -27 14 -27 -11 0 -17 -13 -32 -30
-32 -111 0 7 -56 186 -88 83 -14 67 18 -17 35 -63 13 -66 52 -4 49 19 -1 68
13 109 31 46 21 78 25 86 13 7 -11 4 -20 -7 -20 -10 0 -25 -15 -32 -34 -11
-30 -8 -30 28 3 22 20 35 44 29 54 -23 38 15 13 81 -53 38 -38 84 -70 102 -70
18 0 25 -9 18 -22 -9 -15 -1 -18 25 -10 25 8 52 -1 73 -25 33 -36 32 -39 -21
-50 -41 -8 -65 0 -89 28 -28 32 -43 36 -86 19 -35 -13 -49 -13 -41 0 15 24
-29 26 -65 4 -18 -12 -13 -25 18 -52 30 -25 48 -29 63 -14 29 29 55 28 49 -3
-3 -13 15 -27 40 -31 58 -9 63 -84 6 -84 -21 0 -44 9 -51 19 -6 11 -36 15 -66
9 -31 -6 -80 3 -114 20 -72 38 -170 42 -170 7 0 -14 -22 2 -49 35 -31 39 -41
67 -29 80 13 13 26 9 39 -10 10 -17 19 -20 19 -9 0 21 101 23 134 3 9 -5 28 3
42 18 14 15 23 28 20 29 -257 27 -336 10 -336 -70 0 -37 -2 -37 -69 -11 -40
15 -51 13 -51 -10 0 -19 -19 -30 -50 -30 -27 0 -50 10 -50 21 0 38 41 100 59
89 28 -16 121 26 121 56 0 19 -33 26 -113 27 -63 0 -97 -6 -77 -13 43 -15 0
-40 -69 -40 -40 0 -75 59 -35 61 13 0 -7 17 -46 38 -70 37 -112 36 -88 -2 7
-11 31 -28 55 -37 34 -14 36 -18 8 -19 -19 0 -35 -10 -35 -22 0 -23 82 -59
105 -45 24 14 17 -15 -10 -42 -30 -30 -72 -20 -121 31 -19 20 -55 37 -80 37
-32 -1 -37 -5 -17 -18 23 -14 23 -19 0 -27 -16 -6 -5 -16 28 -25 83 -22 53
-90 -39 -90 -25 0 -46 -9 -46 -20 0 -11 12 -20 28 -20 15 0 37 -12 50 -28 32
-38 182 -39 182 -1 0 16 -13 29 -30 29 -16 0 -30 9 -30 20 0 28 38 25 67 -5
63 -66 11 -115 -139 -127 -162 -14 -208 -25 -208 -50 0 -14 29 -17 82 -8 53 9
88 6 96 -8 21 -32 136 6 179 60 45 54 143 40 143 -20 0 -42 -37 -62 -114 -62
-43 0 -47 -5 -26 -30 39 -47 10 -58 -62 -22 -73 36 -229 43 -249 11 -19 -32 1
-43 79 -43 39 0 80 -12 92 -26 16 -19 39 -22 81 -10 32 10 60 13 62 9 1 -5 3
-16 5 -24 25 -112 64 -139 152 -104 6 2 28 3 50 2 22 -1 29 3 15 9 -14 6 -25
20 -25 30 0 32 43 19 78 -25 39 -48 223 -59 325 -20 56 22 157 5 155 -25 -2
-40 120 -79 156 -49 23 18 29 19 19 2 -10 -17 -2 -25 24 -25 22 0 44 11 50 25
7 18 15 19 26 3 31 -40 188 -68 200 -36 15 37 47 36 47 -2 0 -16 8 -30 18 -30
9 0 28 14 42 30 17 21 63 30 151 30 140 0 256 48 243 101 -8 31 54 42 96 17
26 -16 156 -9 186 9 12 8 81 8 153 1 92 -10 131 -7 131 9 0 13 14 23 30 23 17
0 30 -9 30 -21 0 -14 12 -15 33 -2 20 10 58 11 93 1 41 -12 76 -8 116 13 32
17 58 22 58 12 0 -30 117 -39 128 -10 12 29 -58 75 -87 58 -26 -16 -81 45 -81
91 0 40 -87 88 -122 67 -10 -6 -37 -6 -59 1 -49 16 -18 70 40 70 67 0 119 57
64 72 -35 10 -40 18 -20 30 20 13 21 17 2 18 -14 0 -25 14 -25 31 0 17 -9 26
-20 19 -11 -7 -14 2 -7 21 10 27 5 31 -28 21 -33 -11 -255 -51 -281 -52 -4 0
-1 -8 5 -18 6 -10 40 -12 76 -5 79 17 175 7 175 -17 0 -10 -34 -24 -75 -32
-41 -8 -82 -24 -90 -36 -10 -15 -14 -14 -15 3 0 14 -17 25 -39 25 -43 0 -74
-32 -35 -36 13 -1 50 -9 82 -16 41 -10 54 -7 44 9 -10 16 13 23 77 23 50 0 91
-8 91 -19 0 -10 -34 -14 -75 -8 -48 7 -66 4 -49 -8 19 -13 12 -24 -25 -41 -40
-18 -51 -18 -51 1 -1 18 -6 17 -18 -2 -13 -20 -27 -22 -56 -6 -30 16 -50 14
-82 -8 -26 -19 -46 -22 -54 -9 -7 11 -1 21 14 21 14 1 -19 16 -73 32 -99 31
-100 31 -144 -21 -44 -51 -82 -72 -57 -32 7 12 -11 15 -49 7 -50 -10 -60 -6
-50 19 8 19 -12 57 -51 98 l-64 66 7 -70 c4 -43 -2 -69 -16 -70 -13 0 -30 -7
-39 -15 -8 -8 -36 -15 -63 -15 -30 0 -42 -8 -34 -22 9 -14 45 -18 92 -12 42 6
73 3 67 -6 -30 -48 129 -99 215 -68 135 48 292 4 294 -83 1 -11 -17 -20 -39
-20 -22 0 -40 11 -40 25 0 33 -34 34 -47 1 -6 -16 -16 -18 -26 -5 -10 11 -39
23 -67 26 -27 3 -70 10 -95 15 -25 5 -45 1 -45 -11 0 -11 7 -20 15 -20 8 0 16
-22 18 -49 2 -33 -6 -45 -25 -37 -15 5 -23 17 -18 26 12 20 -30 15 -64 -6 -57
-36 -165 -9 -154 38 8 30 0 51 -25 65 -35 21 -35 22 3 24 40 2 40 2 0 19 -60
26 -76 23 -63 -10 8 -21 -1 -28 -33 -25 -32 4 -44 -6 -44 -33 0 -59 -40 -59
-67 0 -27 59 -3 108 53 108 27 0 27 4 -1 35 -17 19 -35 53 -41 75 -8 36 -10
36 -12 3 -1 -29 -14 -35 -52 -28 -56 11 -57 9 -31 -81 13 -46 12 -61 -4 -51
-13 8 -18 2 -12 -15 13 -38 -56 -106 -70 -69 -5 14 -1 35 9 45 30 30 -1 86
-43 79 -21 -3 -45 -13 -53 -22 -9 -10 -2 -11 14 -3 17 8 13 1 -9 -16 -21 -17
-81 -37 -135 -44 -93 -13 -122 -34 -71 -55 15 -6 11 -10 -10 -11 -19 -1 -35
-12 -35 -23 0 -12 9 -16 20 -9 11 7 20 -10 20 -39 0 -58 -41 -68 -81 -19 -22
26 -22 34 2 48 15 10 21 25 13 33 -9 9 -33 5 -55 -9 -21 -13 -54 -23 -74 -22
-21 1 -25 5 -10 11 14 6 20 19 14 29 -6 10 -2 18 10 18 11 0 21 -10 21 -23 0
-15 13 -12 35 7 19 17 49 36 65 42 17 6 -24 8 -90 3 -76 -5 -102 -3 -70 7 50
16 50 16 5 28 -25 7 -45 5 -45 -4 0 -24 -101 -9 -187 27 -43 18 -86 33 -97 33
-10 0 -12 10 -5 21 7 12 27 16 44 10 18 -7 39 -1 47 12 12 20 27 19 70 0 78
-36 109 4 35 46 -63 37 -21 27 108 -25 88 -35 111 -64 51 -64 -20 0 -26 -7
-15 -17 24 -22 169 -5 169 20 0 10 -14 24 -31 30 -51 20 -73 78 -29 78 21 0
37 -4 36 -10 -4 -44 16 -55 99 -58 68 -2 87 3 65 17 -16 11 -57 20 -90 21 -60
1 -60 1 18 33 65 27 84 28 120 6 38 -24 39 -23 15 6 -25 31 100 75 163 58 9
-3 31 4 51 14 36 20 158 -24 187 -67 8 -12 19 -7 27 13 7 19 38 39 70 46 32 7
63 21 69 30 5 9 -10 11 -35 5 -41 -11 -42 -9 -16 23 47 58 247 38 251 -25 2
-26 -8 -51 -23 -57 -15 -6 -27 -19 -27 -29 0 -10 28 -3 63 14 46 24 66 27 77
9 10 -17 18 -15 26 6 8 21 -5 34 -38 43 -52 13 -48 51 4 51 17 0 25 -9 18 -20
-7 -11 2 -20 20 -20 18 0 27 9 20 20 -7 11 3 20 22 20 18 0 46 16 62 35 26 32
26 31 7 -9 -28 -59 -26 -72 9 -59 17 7 44 7 60 0 36 -14 40 -80 5 -94 -14 -5
-6 -11 18 -11 49 -2 78 71 44 112 -12 14 -14 26 -4 27 9 0 -9 14 -40 31 -53
29 -54 33 -20 58 20 14 43 22 52 17 8 -5 15 0 15 12 0 11 8 21 18 21 10 0 13
-19 7 -43 -13 -48 7 -41 89 30 l46 40 -64 27 c-55 24 -66 23 -81 -3 -30 -55
-215 -133 -215 -91 0 11 12 20 26 20 34 0 154 135 154 172 0 15 9 28 19 28 25
0 121 96 121 121 0 10 11 20 25 20 14 1 7 9 -15 18 -48 19 -110 -9 -110 -50 0
-16 -10 -29 -21 -29 -12 0 -16 -9 -9 -20 7 -11 -2 -20 -20 -20 -18 0 -27 -9
-20 -20 7 -11 0 -20 -16 -20 -34 0 -99 -68 -81 -86 7 -7 -11 -22 -41 -33 -29
-11 -58 -34 -65 -51 -14 -38 -47 -39 -47 -2 0 15 -13 38 -30 52 -25 21 -30 18
-30 -16 0 -100 -35 -128 -77 -62 -22 36 -20 48 11 83 24 29 26 37 6 25 -16 -9
-23 -9 -15 0 24 27 135 23 135 -5 0 -20 8 -20 41 0 l40 25 -43 35 c-58 48
-102 44 -165 -14 -29 -26 -58 -40 -64 -29 -6 10 -20 13 -30 7 -11 -6 -19 -4
-19 5 0 20 124 95 146 89 10 -2 11 6 3 19 -9 15 -1 18 25 10 28 -9 56 7 102
60 64 71 88 160 39 143 -14 -5 -22 -24 -19 -42 3 -18 -12 -52 -34 -75 -37 -40
-39 -41 -29 -4 5 22 2 70 -8 107 l-17 67 -34 -48z m-147 -404 c-23 -36 -22
-63 2 -83 13 -10 9 -13 -9 -7 -16 5 -27 20 -24 34 4 17 -6 20 -30 10 -130 -53
-133 -21 -4 49 73 39 92 39 65 -3z m234 -123 c1 -13 10 -5 20 17 19 40 19 40
14 0 -7 -53 -59 -60 -89 -13 -21 34 -19 37 15 28 22 -5 40 -20 40 -32z m-1597
-87 c-18 -7 -2 -32 49 -77 83 -74 81 -91 -8 -93 -62 -2 -181 62 -124 66 16 2
2 9 -31 16 -64 13 -65 47 -3 57 21 3 52 14 70 25 18 10 42 18 53 18 11 -1 8
-6 -6 -12z m176 -11 c0 -8 31 -30 69 -49 38 -18 65 -40 59 -49 -6 -9 -35 -5
-64 10 -30 15 -64 24 -77 19 -24 -8 -53 25 -59 68 -2 13 13 22 34 20 21 -1 38
-10 38 -19z m277 -46 c3 -3 -12 -24 -35 -47 -22 -22 -46 -32 -52 -21 -7 10 -3
19 9 19 41 0 21 32 -34 55 -51 21 -49 22 25 11 44 -6 83 -14 87 -17z m1504
-197 c-19 -24 -14 -28 29 -23 37 4 51 -3 49 -27 -8 -75 -1 -88 32 -61 17 14
25 40 19 57 -10 25 -7 27 12 7 40 -39 -36 -110 -107 -100 -30 4 -55 1 -55 -8
0 -10 -10 -17 -21 -17 -12 0 -16 9 -9 20 7 11 3 20 -9 20 -36 0 -23 78 19 120
46 46 77 54 41 12z m-1842 -61 c19 -22 49 -29 102 -23 91 11 93 -58 2 -77 -78
-16 -191 17 -128 37 53 17 41 52 -18 52 -24 0 -45 -17 -51 -40 -6 -22 -21 -40
-33 -39 -30 0 -107 59 -79 59 12 0 43 22 68 48 49 51 85 46 137 -17z m2021 49
c0 -10 22 -25 49 -32 45 -11 47 -15 19 -42 -16 -17 -32 -27 -35 -23 -48 69
-70 117 -53 117 11 0 20 -9 20 -20z m-1161 -124 c-22 -77 -13 -89 46 -60 36
17 38 22 10 23 -19 0 -35 10 -35 22 0 14 14 13 41 -2 49 -26 42 -66 -13 -76
-21 -4 -45 -18 -53 -30 -10 -16 -14 -15 -15 3 0 18 -14 22 -45 13 -42 -12 -43
-11 -9 15 20 15 35 36 33 47 -6 31 24 109 42 109 9 0 8 -29 -2 -64z m-187 13
c-6 -18 -3 -26 8 -19 11 7 19 -8 18 -34 0 -25 -6 -35 -11 -21 -6 14 -23 25
-38 25 -15 0 -37 18 -49 40 -19 35 -15 40 31 40 40 0 50 -8 41 -31z"/>
<path d="M1471 1261 c-14 -22 124 -132 142 -114 7 7 -2 18 -20 25 -18 7 -33
23 -33 35 0 32 -75 77 -89 54z"/>
<path d="M2931 1228 c-45 -68 -29 -80 27 -20 25 26 36 53 26 60 -11 6 -35 -12
-53 -40z"/>
<path d="M1343 1245 c4 -8 20 -49 36 -90 16 -41 43 -79 60 -85 17 -5 40 -29
51 -54 11 -24 47 -51 79 -59 72 -19 94 -3 45 32 -19 15 -33 34 -30 44 3 9 -29
53 -69 97 -41 44 -75 91 -75 105 0 14 -23 25 -52 25 -28 0 -48 -7 -45 -15z"/>
<path d="M1923 1167 c-33 -37 -27 -43 57 -60 48 -10 62 -7 52 10 -8 13 -27 23
-42 23 -15 0 -30 13 -34 28 -5 24 -10 23 -33 -1z"/>
<path d="M3735 1119 c-30 -43 -49 -79 -41 -79 36 0 146 94 146 125 0 58 -47
38 -105 -46z"/>
<path d="M3282 1134 c-38 -13 -73 -35 -77 -49 -14 -42 50 -28 109 24 64 56 62
58 -32 25z"/>
<path d="M3548 977 c-6 -9 -5 -25 1 -36 14 -22 131 14 131 40 0 21 -118 18
-132 -4z"/>
<path d="M808 717 c-24 -39 21 -57 138 -56 92 0 115 5 90 20 -52 30 -215 56
-228 36z"/>
<path d="M4182 595 c-27 -75 -44 -215 -24 -215 20 0 51 131 44 188 -3 21 7 45
21 54 21 14 21 17 2 18 -15 0 -33 -20 -43 -45z"/>
<path d="M780 588 c0 -17 20 -28 50 -28 28 0 50 -9 50 -20 0 -11 -15 -20 -34
-20 -20 0 -26 -7 -15 -16 36 -31 232 -4 201 27 -15 15 -46 24 -69 19 -23 -4
-48 2 -56 14 -9 15 2 18 33 10 25 -6 38 -4 28 5 -35 32 -188 40 -188 9z"/>
<path d="M4633 396 c-18 -68 -16 -176 4 -176 23 0 44 185 24 206 -9 9 -21 -4
-28 -30z"/>
</g>
</svg>
