<?xml version="1.0" standalone="no"?>
<!DOCTYPE svg PUBLIC "-//W3C//DTD SVG 20010904//EN"
 "http://www.w3.org/TR/2001/REC-SVG-20010904/DTD/svg10.dtd">
<svg version="1.0" xmlns="http://www.w3.org/2000/svg"
 width="300.000000pt" height="300.000000pt" viewBox="0 0 300.000000 300.000000"
 preserveAspectRatio="xMidYMid meet">
<metadata>
Created by potrace 1.10, written by Peter Selinger 2001-2011
</metadata>
<g transform="translate(0.000000,300.000000) scale(0.050000,-0.050000)"
fill="#000000" stroke="none">
<path d="M4520 5044 c17 -10 63 -25 104 -32 104 -19 111 -46 15 -62 -93 -16
-314 5 -330 32 -18 28 -49 21 -49 -11 0 -59 81 -77 309 -67 254 11 294 5 287
-40 -8 -44 135 -69 307 -54 81 7 138 4 146 -8 26 -43 -90 -68 -378 -83 -166
-8 -341 -26 -391 -40 -49 -14 -98 -24 -108 -21 -92 23 -166 -92 -92 -144 54
-38 30 -55 -43 -30 -41 14 -62 37 -70 77 -10 50 -16 54 -49 33 -80 -50 12
-194 124 -194 30 0 61 -9 68 -20 7 -11 -1 -20 -17 -20 -16 0 -34 -11 -39 -25
-7 -19 -16 -17 -37 6 -55 64 -134 102 -123 60 19 -72 121 -145 257 -183 214
-59 287 -182 135 -227 -35 -10 -74 -39 -88 -64 -13 -25 -31 -41 -40 -36 -8 5
-56 -1 -106 -15 -83 -22 -96 -20 -147 17 -115 85 -225 83 -225 -3 0 -26 -19
-80 -43 -120 -31 -53 -39 -92 -31 -151 5 -43 3 -79 -6 -79 -44 0 -280 232
-280 276 0 11 -13 25 -30 31 -34 13 -41 73 -10 73 12 0 29 -20 40 -45 43 -104
112 -152 95 -67 -6 32 -1 45 15 39 13 -5 21 -29 17 -53 -5 -28 15 -69 54 -114
53 -59 61 -63 53 -25 -6 25 -2 45 8 45 10 0 18 14 18 30 0 17 19 71 43 121
l42 91 -42 45 c-49 52 -54 93 -18 132 20 22 19 25 -8 15 -59 -20 -144 14 -147
60 -2 30 6 39 27 31 18 -7 24 -3 16 10 -27 44 36 129 131 177 102 52 136 104
41 64 -30 -13 -64 -31 -74 -40 -10 -9 -48 -16 -83 -16 -35 0 -74 -13 -87 -29
-49 -59 -216 -152 -250 -139 -22 9 -53 -6 -90 -41 -41 -40 -61 -48 -72 -29
-10 15 5 41 41 69 38 31 52 57 45 85 -7 29 18 65 97 137 102 92 127 127 93
127 -37 0 -235 -184 -237 -221 -2 -22 -18 -57 -37 -78 -19 -21 -42 -71 -51
-112 l-17 -73 61 12 c34 7 90 12 126 12 49 0 90 22 160 85 180 162 252 180
121 30 -105 -121 -106 -138 -2 -164 96 -24 190 -156 154 -214 -13 -20 -23 -66
-24 -102 l-1 -65 -38 70 c-42 77 -51 151 -20 170 23 14 27 90 5 90 -40 -1 -65
-36 -52 -72 13 -33 11 -35 -19 -11 -18 15 -29 36 -23 45 7 10 -3 33 -21 51
-30 30 -33 29 -44 -10 -15 -61 -46 -53 -48 12 -1 32 -6 43 -13 25 -17 -44 -65
-87 -80 -71 -8 7 -1 21 15 31 24 15 25 23 4 44 -21 21 -29 21 -43 -2 -9 -15
-27 -21 -40 -13 -12 8 -37 2 -55 -12 -26 -21 -34 -22 -41 -2 -13 38 -39 30
-51 -15 -10 -41 -54 -57 -54 -20 0 11 -9 20 -20 20 -11 0 -20 -19 -20 -42 0
-36 -8 -40 -55 -29 -30 8 -49 8 -41 0 29 -29 -24 -94 -55 -68 -24 20 -29 15
-29 -27 0 -48 -5 -51 -73 -40 l-74 12 34 -47 c49 -70 41 -82 -40 -67 l-73 14
33 -48 c48 -68 41 -83 -30 -67 l-64 14 43 -55 c50 -64 40 -100 -19 -68 -53 28
-91 -5 -48 -41 39 -33 40 -81 2 -81 -19 0 -25 -12 -18 -31 7 -19 26 -26 49
-18 42 13 71 -33 47 -73 -11 -17 -23 -14 -42 13 -16 21 -27 26 -27 11 0 -18
-18 -21 -63 -11 -62 13 -62 13 -30 -33 42 -59 43 -106 3 -90 -16 7 -43 17 -58
23 -23 10 -26 -4 -18 -70 12 -87 -18 -110 -64 -48 -35 49 -72 14 -63 -60 4
-34 3 -47 -1 -27 -7 29 -15 32 -38 13 -38 -32 -37 -119 2 -119 36 0 40 -32 6
-52 -13 -8 -27 -4 -31 8 -5 13 -20 24 -34 24 -18 0 -23 34 -19 120 3 67 -2
120 -13 120 -10 0 -19 -9 -19 -20 0 -38 -30 -20 -55 34 -25 54 -15 95 12 50
11 -18 27 -13 59 17 59 54 55 65 -16 49 -65 -14 -79 9 -30 50 17 14 30 35 30
46 0 14 -8 14 -24 -2 -48 -48 -82 -28 -68 40 10 51 8 60 -12 40 -42 -42 -101
-31 -77 15 32 58 26 88 -10 52 -43 -43 -104 -43 -69 -1 58 70 -4 47 -113 -41
-128 -103 -208 -191 -194 -213 4 -8 -3 -32 -17 -54 -41 -67 -6 -68 110 -2 110
61 253 71 195 13 -16 -16 -27 -16 -37 -1 -23 35 -146 -24 -131 -63 7 -19 -7
-49 -35 -75 l-47 -44 45 -6 45 -7 -40 -50 c-21 -27 -34 -65 -28 -83 9 -28 7
-29 -10 -5 -31 45 -47 14 -24 -46 11 -29 34 -53 50 -53 31 0 32 -36 2 -105
-26 -60 -49 -38 -30 28 10 34 11 56 4 48 -44 -43 -62 -176 -25 -185 32 -9 51
-40 71 -123 18 -77 33 -38 23 63 -10 98 -5 120 29 153 59 55 47 195 -22 257
l-51 47 52 -11 c48 -10 56 -2 100 108 59 148 93 153 154 20 26 -56 55 -96 65
-89 11 6 19 -12 19 -40 0 -28 7 -50 15 -49 39 7 48 -5 25 -32 -14 -16 -38 -30
-55 -30 -18 0 -25 12 -18 30 7 18 0 30 -18 30 -16 0 -29 14 -29 30 0 22 -22
30 -80 30 l-80 0 0 -90 c0 -49 1 -97 1 -105 2 -18 34 -15 89 6 40 16 40 16 0
-29 -34 -40 -36 -49 -10 -69 17 -13 30 -36 30 -53 0 -18 22 -33 55 -36 67 -8
70 -31 10 -75 l-45 -33 55 12 c71 16 71 -14 0 -47 -57 -26 -24 -81 49 -81 41
0 30 -36 -15 -50 -75 -24 -139 39 -139 137 0 90 -33 213 -58 213 -71 0 -102
-66 -102 -218 l0 -156 96 9 c87 8 103 3 182 -64 123 -102 140 -109 293 -115
l136 -6 65 90 c37 50 90 119 119 155 l52 64 -41 53 c-23 30 -42 65 -42 78 0
14 -28 37 -62 51 -80 33 -110 82 -140 233 -25 123 -5 205 44 175 10 -6 18 30
18 80 0 91 0 91 70 91 67 0 68 2 46 50 -24 53 -13 83 23 61 11 -7 21 -35 21
-62 0 -27 9 -49 20 -49 11 0 20 -9 20 -20 0 -11 -22 -20 -50 -20 -30 0 -50
-11 -50 -29 0 -15 -16 -32 -35 -37 -19 -5 -1 -10 40 -12 92 -3 101 -42 10 -42
-45 -1 -56 -6 -37 -18 15 -10 21 -28 13 -41 -10 -16 1 -19 37 -10 43 11 55 4
72 -40 25 -66 25 -71 0 -71 -11 0 -20 14 -20 30 0 39 -32 39 -47 0 -7 -17 -26
-30 -45 -30 -20 0 -28 11 -21 30 15 39 -21 38 -61 -1 -28 -28 -27 -32 11 -43
48 -12 55 -46 19 -82 -19 -19 -14 -24 22 -24 33 0 43 -9 35 -30 -8 -21 1 -30
29 -30 22 0 35 -8 29 -18 -16 -26 9 -82 37 -82 68 0 120 -214 57 -235 -14 -5
-25 -21 -25 -37 0 -15 -13 -28 -30 -28 -20 0 -30 -20 -30 -61 0 -54 -6 -60
-42 -48 -36 11 -40 7 -29 -29 11 -33 5 -42 -28 -42 -22 0 -40 -7 -39 -15 13
-83 -50 -117 -102 -55 -13 16 -33 24 -43 18 -25 -15 19 -68 55 -68 16 0 28 -9
28 -20 0 -11 -13 -20 -30 -20 -16 0 -30 11 -30 23 0 13 -6 18 -13 10 -8 -7
-31 2 -52 21 -37 34 -38 33 -25 -17 13 -52 -70 -106 -87 -56 -13 38 -63 18
-63 -26 l0 -44 -47 49 c-27 28 -44 56 -40 64 25 43 -71 92 -146 75 -157 -35
-245 -299 -99 -299 11 0 9 11 -4 24 -36 36 -31 123 6 109 41 -16 90 5 90 39 0
15 14 28 30 28 17 0 30 -7 30 -15 0 -9 20 -24 45 -35 56 -25 68 -80 26 -121
-17 -18 -31 -25 -31 -17 0 8 -18 -7 -40 -32 -22 -25 -40 -39 -40 -29 0 9 -12
0 -27 -20 -15 -21 -37 -31 -50 -23 -13 8 -23 4 -23 -8 0 -12 -8 -17 -19 -11
-10 7 -28 -4 -39 -24 -12 -19 -21 -26 -22 -15 0 11 -9 7 -20 -10 -17 -27 -20
-27 -21 0 -1 20 -7 17 -19 -10 -17 -40 -17 -40 -19 0 -1 33 -5 35 -21 10 -17
-26 -19 -26 -20 3 0 18 -14 38 -32 45 -48 19 -108 14 -108 -8 0 -11 14 -20 31
-20 17 0 26 -9 19 -20 -7 -12 -21 -15 -31 -9 -11 6 -19 -5 -19 -25 -1 -31 -4
-31 -20 -6 -18 27 -22 27 -40 0 -11 -16 -20 -21 -22 -10 -1 11 -9 -2 -18 -30
l-16 -50 -2 47 c-2 39 -10 46 -47 36 -25 -7 -61 -13 -79 -13 -83 0 -114 -161
-49 -250 27 -36 28 -31 18 55 -12 107 2 117 59 45 51 -65 83 -63 140 7 75 93
140 124 268 127 137 3 202 38 365 195 59 57 112 99 117 93 6 -5 -35 -55 -92
-110 -56 -55 -102 -109 -102 -121 0 -11 -13 -21 -28 -21 -16 0 -32 -9 -36 -21
-4 -12 -20 -23 -36 -26 -17 -2 -40 -10 -52 -18 -12 -7 -60 -20 -106 -27 -60
-10 -81 -21 -74 -41 6 -15 1 -27 -10 -27 -11 0 -15 -9 -8 -20 7 -11 -2 -20
-20 -20 -24 0 -29 -11 -19 -43 11 -33 7 -40 -17 -31 -32 12 -53 -37 -54 -128
0 -102 150 -176 240 -118 23 15 15 19 -33 20 -52 0 -61 7 -54 37 6 20 -6 53
-25 72 -34 34 -34 37 -2 61 19 13 34 44 34 67 0 63 105 121 197 110 110 -14
313 147 272 215 -5 8 0 21 12 29 26 16 15 -70 -20 -161 -13 -33 -24 -64 -24
-70 0 -5 -10 -21 -21 -35 -12 -14 -15 -25 -7 -25 7 0 -1 -20 -18 -44 -94 -135
90 -255 208 -137 136 136 157 341 35 341 -35 0 -34 -4 9 -40 l47 -40 -47 -39
c-25 -22 -40 -49 -33 -61 12 -19 -62 -98 -93 -99 -26 -2 -42 122 -19 145 12
12 22 41 22 64 0 50 163 305 222 346 23 16 55 60 70 97 16 37 38 67 50 67 73
0 379 266 439 384 57 108 55 511 -2 583 -29 36 -32 52 -14 59 18 6 19 15 3 32
-30 32 -88 6 -88 -40 0 -21 -9 -38 -20 -38 -11 0 -20 36 -20 80 0 44 -9 80
-20 80 -11 0 -20 14 -20 30 0 17 9 30 20 30 11 0 20 14 20 30 0 17 10 30 21
30 12 0 16 9 9 20 -7 11 -29 17 -50 14 -44 -7 -79 -34 -43 -34 13 0 23 -13 23
-30 0 -48 -52 -34 -77 21 -42 93 -27 130 36 90 19 -12 39 -11 55 2 28 23 86
-21 86 -66 0 -19 6 -19 23 -2 17 17 34 15 67 -7 25 -16 53 -28 63 -26 9 3 42
-6 73 -19 72 -29 74 -29 74 7 0 17 18 30 40 30 24 0 50 21 64 50 26 57 108
117 137 100 30 -19 23 -56 -9 -44 -20 8 -24 -1 -17 -31 9 -33 4 -39 -23 -28
-28 10 -32 5 -21 -30 11 -35 7 -41 -22 -30 -30 12 -31 9 -8 -18 22 -27 22 -35
0 -49 -29 -17 -15 -80 18 -80 11 0 15 14 8 30 -6 17 -1 30 11 30 12 0 22 18
22 40 0 22 9 40 20 40 11 0 20 17 20 38 0 20 14 49 31 63 21 17 24 32 10 46
-12 12 -21 30 -21 41 0 11 18 0 40 -23 48 -51 51 -85 10 -85 -16 0 -30 -13
-30 -30 0 -36 33 -40 46 -5 5 14 15 19 23 11 8 -7 1 -34 -17 -59 -36 -51 -43
-106 -12 -87 25 15 180 242 180 263 0 8 -27 -11 -60 -43 -55 -53 -116 -58 -64
-6 38 38 32 107 -6 76 -25 -20 -30 -19 -30 9 0 18 -9 28 -21 20 -11 -7 -33 -2
-48 10 -20 17 -30 14 -40 -13 -12 -32 -17 -31 -39 11 l-26 48 -14 -48 -14 -47
-22 45 c-25 51 -56 60 -56 16 0 -54 -31 -48 -66 12 l-34 60 135 -9 c468 -32
542 -65 440 -196 -141 -180 -140 -177 -126 -249 14 -73 -7 -89 -49 -39 -39 46
-60 36 -60 -30 0 -66 -33 -83 -44 -21 -6 41 -152 -37 -170 -92 -12 -36 434
-66 657 -43 187 19 508 136 373 136 -29 0 -57 -11 -62 -25 -6 -17 -23 -11 -58
20 -61 56 -116 59 -116 5 0 -55 -40 -51 -42 5 0 25 -5 61 -10 80 -29 106 -28
148 1 185 25 32 29 33 19 5 -15 -43 28 -48 45 -5 14 38 47 39 47 1 0 -16 24
-31 55 -35 56 -6 101 -156 46 -156 -60 0 -9 -36 64 -46 104 -14 145 16 80 60
-50 35 -61 77 -15 59 22 -9 30 2 30 38 0 30 11 49 30 49 20 0 30 -21 31 -65
l0 -65 46 52 c25 29 63 62 85 74 36 22 36 23 -6 23 -92 2 -190 118 -183 215 5
52 -1 84 -13 79 -11 -4 -67 -23 -125 -42 -116 -38 -223 -143 -286 -281 -20
-45 -37 -64 -38 -44 -2 52 53 153 126 232 l63 68 -67 -38 c-38 -21 -107 -85
-154 -143 l-86 -106 58 -142 c67 -163 66 -185 -7 -98 -62 73 -157 84 -186 22
-11 -26 -27 -34 -43 -24 -30 19 89 283 127 283 13 0 29 29 37 65 7 36 25 92
41 125 l27 60 -12 -70 -12 -69 101 89 c112 100 120 119 29 71 -69 -35 -90 -39
-75 -14 6 10 -52 24 -130 32 -94 9 -138 21 -132 37 9 28 -91 75 -153 72 -30
-1 -22 -8 27 -24 95 -29 14 -45 -89 -17 -44 12 -96 13 -134 2 -38 -11 -75 -10
-95 1 -26 15 -26 19 -3 19 23 1 24 6 5 25 -47 47 -23 55 48 15 40 -23 77 -36
83 -31 6 6 -13 21 -42 34 -29 14 -53 32 -53 42 0 9 25 4 55 -11 125 -64 148
-53 41 20 -106 72 -168 148 -142 174 6 7 56 -31 109 -82 122 -117 191 -159 82
-50 -76 76 -121 165 -83 165 10 0 18 -7 18 -16 0 -9 14 -34 31 -55 30 -38 30
-38 10 5 -26 55 -28 206 -1 206 10 0 25 -22 32 -50 7 -27 20 -45 29 -39 10 6
32 -19 50 -55 19 -36 52 -86 75 -111 22 -25 35 -45 27 -45 -20 0 -120 65 -137
89 -8 11 -21 12 -30 3 -29 -29 166 -184 289 -229 122 -44 521 -65 497 -25 -6
9 31 14 83 10 l95 -7 -87 19 c-109 23 -149 55 -135 109 10 40 9 40 -19 2 -16
-21 -34 -33 -40 -26 -17 17 28 95 57 98 13 1 43 4 67 7 72 7 107 27 107 59 0
17 9 31 20 31 29 0 25 -47 -10 -113 -35 -66 -38 -119 -10 -137 11 -7 20 9 20
38 0 27 9 55 20 62 11 7 20 -12 20 -44 1 -43 5 -49 20 -26 11 17 20 21 20 10
0 -11 8 -8 18 7 13 21 29 14 73 -30 l57 -56 16 64 c10 36 25 65 35 65 18 0 -2
-97 -30 -141 -10 -17 -18 -17 -28 0 -11 17 -28 17 -67 -1 -29 -13 -48 -31 -43
-40 5 -8 1 -21 -11 -28 -11 -7 -19 -41 -18 -76 l2 -64 16 67 c9 37 32 82 51
100 32 31 34 30 20 -7 -8 -22 -19 -69 -25 -105 -6 -36 -20 -65 -31 -65 -11 0
-8 -14 6 -31 22 -27 30 -26 67 8 23 21 78 58 122 82 179 96 241 141 271 194
17 30 75 82 129 116 312 195 421 560 200 671 -87 44 -219 187 -226 246 -7 59
5 64 214 94 238 33 310 92 288 233 l-10 64 -126 -1 c-69 0 -173 15 -229 34
-67 22 -183 36 -327 39 -123 3 -255 12 -294 20 -47 9 -60 7 -40 -5z m495 -115
c34 -17 117 -40 185 -52 169 -30 137 -43 -63 -25 -92 8 -156 18 -142 23 17 6
10 21 -20 46 -55 46 -41 49 40 8z m358 -59 c6 -16 21 -24 34 -16 13 8 11 -2
-4 -20 -29 -35 -53 -47 -34 -16 6 9 -19 32 -54 49 l-65 32 56 1 c31 0 60 -13
67 -30z m-472 -315 l2 -45 18 45 c18 46 70 65 53 20 -5 -14 10 -45 32 -70 23
-25 31 -45 19 -45 -13 0 -29 10 -36 22 -7 12 -32 17 -54 11 -67 -18 -120 21
-95 68 29 52 60 49 61 -6z m-93 -57 c20 -19 -118 -18 -148 2 -22 14 -7 18 54
14 46 -3 89 -10 94 -16z m-104 -40 c58 -12 115 -30 125 -40 34 -32 53 -19 31
21 -25 48 143 -14 200 -73 27 -28 25 -28 -16 -7 -25 13 -57 20 -70 16 -13 -5
3 -23 36 -40 103 -53 135 -105 144 -230 5 -63 3 -108 -5 -101 -7 8 -42 -29
-78 -80 -35 -52 -116 -148 -180 -214 -160 -166 -166 -173 -182 -236 -16 -65
-35 -56 -38 18 -2 30 12 59 33 70 20 11 50 48 69 84 18 35 45 71 60 80 15 9
27 32 27 53 0 20 16 48 35 64 32 24 32 24 8 -8 -43 -54 -2 -41 61 19 64 62 77
112 14 54 -23 -21 -48 -36 -55 -34 -30 10 -102 -20 -133 -54 -19 -21 -46 -33
-61 -27 -14 6 -54 -20 -87 -56 -34 -37 -61 -55 -61 -41 -1 15 -11 20 -23 13
-13 -8 -20 4 -18 34 7 74 2 92 -27 103 -19 7 -24 -3 -18 -35 6 -34 -3 -48 -36
-57 -34 -9 -39 -6 -22 11 13 13 23 44 23 69 0 38 97 106 152 106 19 0 5 -40
-23 -69 -49 -48 28 -41 127 12 90 47 129 105 132 196 1 33 9 61 17 61 22 0 18
-128 -5 -189 l-19 -52 59 31 c148 77 163 265 30 386 -79 73 -123 72 -55 -1 56
-60 83 -136 65 -185 -12 -35 -16 -32 -28 22 -8 34 -59 113 -115 175 l-100 113
-164 0 c-112 1 -154 7 -133 20 40 26 174 25 304 -2z m-48 -81 c26 -9 40 -27
33 -38 -7 -12 4 -34 24 -50 33 -25 29 -26 -30 -6 -41 14 -58 28 -43 37 13 8
-24 21 -82 28 -162 22 -227 78 -68 60 66 -8 141 -21 166 -31z m-16 -112 c-1
-57 -37 -66 -102 -27 l-68 42 85 0 c47 0 85 -7 85 -15z m646 -157 c-1 -40 -13
-82 -25 -95 -18 -17 -21 -10 -11 30 7 29 4 87 -8 128 -19 71 -19 74 13 43 20
-20 32 -62 31 -106z m-506 72 c22 -22 39 -65 38 -95 -2 -54 -2 -54 -20 10 -21
71 -98 130 -98 75 0 -18 -9 -27 -20 -20 -11 7 -20 25 -20 41 0 42 74 35 120
-11z m-54 -224 c-20 -35 -50 -67 -66 -72 -23 -8 -22 -1 5 30 19 21 35 67 35
101 0 34 11 66 25 70 40 14 41 -61 1 -129z m-678 -69 c12 -31 -53 -175 -90
-198 -13 -8 -17 -42 -9 -86 11 -68 10 -70 -19 -34 -43 56 -37 111 22 198 32
47 49 94 43 123 -10 51 33 49 53 -3z m955 -142 c-15 -5 -59 -38 -99 -72 l-72
-63 49 67 c47 65 118 110 139 88 6 -6 -2 -15 -17 -20z m-1948 -85 c46 0 63
-154 21 -196 -42 -42 -53 -26 -31 44 22 72 8 143 -24 123 -23 -14 -66 58 -46
77 8 8 24 0 37 -17 12 -17 32 -31 43 -31z m-158 -9 c12 -60 -33 -85 -54 -29
-10 26 -14 55 -9 64 15 26 55 4 63 -35z m303 -12 c0 -10 -12 -19 -28 -19 -33
0 -77 49 -59 66 16 16 87 -22 87 -47z m-360 -89 c13 -16 19 -45 12 -63 -8 -19
-3 -40 9 -48 13 -7 19 -31 13 -51 -9 -34 -11 -34 -24 7 -18 54 -50 60 -50 8 0
-55 -23 -67 -52 -28 -38 50 -34 85 9 85 29 0 34 12 27 60 -9 65 16 78 56 30z
m320 -99 c0 -27 -9 -54 -20 -61 -12 -7 -20 13 -20 49 0 33 9 61 20 61 11 0 20
-22 20 -49z m-99 -100 c-14 -17 -34 -31 -43 -31 -26 0 -22 48 6 76 35 35 69
-6 37 -45z m1276 -96 c5 40 39 29 66 -20 21 -41 20 -42 -10 -18 -40 34 -47
-13 -12 -78 32 -60 -11 -47 -67 20 -34 40 -47 75 -40 105 21 97 33 106 47 36
7 -38 15 -59 16 -45z m-2237 67 c0 -9 -13 -28 -28 -41 -32 -26 -64 4 -42 39
15 25 70 27 70 2z m740 -20 c0 -42 -52 -71 -71 -40 -14 22 25 78 53 78 10 0
18 -17 18 -38z m390 -2 c16 -26 -7 -100 -31 -100 -11 0 -19 27 -19 60 0 59 26
79 50 40z m90 -39 c0 -20 -13 -42 -30 -48 -31 -12 -45 65 -17 93 20 21 47 -5
47 -45z m512 -456 c-18 -18 -112 23 -112 48 0 24 10 23 59 -6 33 -19 57 -38
53 -42z m-2037 -16 c6 -49 -22 -67 -45 -29 -7 12 -21 15 -31 9 -11 -6 -19 -1
-19 12 0 13 14 18 32 11 23 -9 29 -4 22 16 -12 30 5 59 23 41 6 -6 14 -33 18
-60z m445 15 c0 -30 -48 -64 -89 -63 -39 0 -39 2 6 40 50 41 83 50 83 23z
m431 -75 c-26 -20 -46 -22 -59 -9 -13 13 -7 29 19 49 26 19 46 22 59 8 13 -13
7 -29 -19 -48z m-351 28 c0 -41 -65 -97 -112 -97 -76 0 -73 34 7 77 89 48 105
51 105 20z m419 -58 c-42 -60 -61 -70 -86 -46 -17 17 91 127 112 114 9 -5 -3
-36 -26 -68z m161 41 c0 -23 13 -40 32 -40 17 0 28 -11 23 -25 -5 -14 -19 -24
-32 -23 -12 1 -45 3 -73 5 -47 3 -76 63 -30 63 11 0 20 14 20 30 0 17 14 30
30 30 17 0 30 -18 30 -40z m-562 -172 c-48 -51 -118 -65 -118 -23 1 37 23 62
90 96 78 41 95 -2 28 -73z m506 -35 c-3 -18 4 -33 15 -33 12 0 21 -9 21 -20 0
-11 -17 -20 -39 -20 -40 0 -73 65 -50 101 19 31 60 10 53 -28z m-436 -63 c-19
-29 -60 -57 -91 -64 -46 -9 -53 -17 -35 -39 32 -39 62 -34 146 23 93 63 143
67 112 10 -56 -104 -228 -144 -307 -71 -77 71 -73 140 7 124 48 -10 73 0 125
46 73 65 95 50 43 -29z m122 -192 c-31 -82 -195 -133 -250 -78 -50 50 -53 89
-5 70 90 -35 157 -33 205 6 55 44 67 45 50 2z m310 -17 c22 -15 24 -25 7 -42
-28 -28 -67 -9 -67 32 0 33 18 36 60 10z m-50 -121 c0 -43 -58 -37 -67 7 -5
27 3 35 30 30 20 -4 37 -21 37 -37z"/>
<path d="M2302 4879 c-81 -21 -157 -46 -170 -56 -12 -10 -58 -29 -102 -44
-172 -55 -524 -234 -566 -289 -57 -72 -58 -197 -3 -287 23 -37 37 -72 31 -77
-19 -20 -57 21 -92 100 -33 72 -37 75 -44 32 -13 -88 101 -231 138 -173 17 27
141 124 233 182 52 33 54 39 25 71 -36 39 -41 117 -12 162 15 23 19 15 20 -33
0 -122 115 -115 630 42 11 3 -4 12 -33 20 -36 10 -70 3 -107 -21 -44 -29 -56
-30 -70 -8 -13 21 -24 22 -44 5 -14 -12 -83 -25 -151 -28 -69 -4 -125 -14
-125 -23 0 -9 -9 -11 -20 -4 -30 19 -24 50 10 50 17 0 30 7 30 15 0 8 31 50
69 92 54 61 66 68 57 32 -12 -44 -11 -44 66 8 42 29 89 53 103 53 14 0 34 22
45 49 13 36 38 52 94 61 42 7 96 23 120 34 38 19 230 14 299 -7 13 -4 26 2 29
13 6 18 -205 68 -282 68 -16 0 -96 -18 -178 -39z m-752 -519 c0 -143 -14 -161
-66 -83 -27 39 -26 43 3 31 26 -10 33 0 33 45 1 48 19 147 27 147 2 0 3 -63 3
-140z"/>
<path d="M3071 4537 c-106 -118 -165 -209 -101 -157 42 35 43 37 -57 -166 -43
-87 -82 -194 -88 -239 l-11 -81 88 60 c48 33 107 66 130 74 24 7 59 50 80 97
21 46 57 113 81 148 81 119 -16 105 -104 -15 -40 -54 -81 -98 -92 -98 -26 0
-2 116 37 178 24 37 25 50 5 62 -17 11 2 45 68 115 51 55 93 105 93 112 0 35
-45 3 -129 -90z"/>
<path d="M1408 4606 c-81 -16 -354 -401 -379 -535 -11 -57 89 -516 119 -546
30 -29 30 20 3 150 -69 327 -44 439 152 688 41 52 50 77 32 84 -18 8 -15 17
10 33 19 12 35 33 35 47 0 14 29 40 65 58 63 31 50 38 -37 21z"/>
<path d="M2520 4537 c-60 -22 -200 -72 -310 -110 -257 -88 -349 -131 -350
-162 0 -14 -13 -25 -30 -25 -34 0 -39 -56 -11 -124 10 -25 24 -71 30 -101 14
-67 50 -70 108 -9 37 41 40 55 22 109 -18 51 -15 77 18 148 39 85 40 86 42 27
5 -138 136 -334 199 -296 21 14 42 17 46 8 3 -9 69 -22 145 -29 l140 -12 -69
34 c-38 19 -74 55 -79 79 -8 34 -18 40 -41 26 -47 -30 -60 -24 -60 29 0 27 -9
54 -20 61 -11 7 -20 -6 -20 -29 0 -43 -40 -59 -41 -16 0 14 -9 9 -21 -10 -11
-19 -35 -35 -54 -35 -24 1 -27 5 -10 16 37 23 87 157 74 198 -11 34 -10 34 18
1 28 -34 30 -34 40 5 6 24 27 40 52 40 23 0 52 17 65 38 14 21 37 33 53 27 17
-6 40 2 52 19 51 69 154 101 296 91 142 -10 202 11 93 33 -116 23 -267 11
-377 -31z"/>
<path d="M1235 4164 c-62 -130 -69 -237 -32 -494 21 -142 57 -249 57 -168 0
90 45 370 64 392 11 14 12 26 2 26 -36 0 -106 82 -106 125 0 37 7 34 51 -26
56 -76 103 -88 136 -35 17 27 15 41 -12 60 -39 31 -75 119 -75 187 0 77 -26
57 -85 -67z"/>
<path d="M889 4157 c-68 -32 -95 -99 -99 -242 -5 -139 2 -153 50 -110 24 21
24 20 3 -8 -30 -40 -12 -136 33 -171 26 -22 24 -27 -16 -42 -32 -12 -39 -22
-22 -32 13 -9 39 -10 58 -3 27 11 29 8 9 -12 -38 -39 -34 -89 5 -57 17 14 37
20 44 13 7 -7 2 -13 -12 -13 -13 0 14 -45 60 -100 101 -120 109 -121 125 -26
11 67 5 79 -68 141 -43 38 -79 82 -79 100 0 18 -13 46 -28 63 -34 39 -46 151
-23 230 14 48 9 65 -26 94 -56 45 -54 74 11 142 55 58 47 68 -25 33z"/>
<path d="M1652 4112 c-13 -54 19 -165 64 -217 41 -47 21 -62 -44 -32 -70 31
-101 3 -74 -68 19 -51 12 -75 -23 -75 -11 0 -14 14 -8 30 24 63 -41 27 -73
-41 -42 -88 -45 -123 -6 -90 17 13 33 15 40 4 6 -10 -2 -30 -18 -43 -61 -50
-27 -56 56 -9 54 30 99 75 120 120 19 39 26 66 14 59 -11 -7 -20 -3 -20 9 0
11 12 21 26 21 15 0 53 28 85 61 l59 62 -55 40 c-31 23 -65 60 -76 84 -16 32
-10 30 26 -12 52 -62 75 -69 75 -25 0 17 -7 30 -17 30 -9 0 -12 26 -8 58 5 33
-2 64 -16 73 -19 12 -22 -1 -12 -53 l13 -68 -40 50 c-21 28 -39 57 -40 65 -1
35 -37 11 -48 -33z"/>
<path d="M2021 4095 c23 -79 24 -100 3 -87 -9 5 -28 -9 -42 -32 -23 -38 -22
-40 11 -26 20 9 65 20 100 25 l63 9 -63 87 c-76 104 -97 111 -72 24z"/>
<path d="M1509 4014 c-140 -149 -149 -166 -178 -316 -35 -182 -28 -191 40 -55
29 59 94 150 145 202 80 82 92 105 87 169 -6 97 -3 97 -94 0z"/>
<path d="M2002 3904 c-105 -41 -161 -224 -58 -193 36 11 41 8 22 -11 -34 -36
-86 -9 -87 44 l0 46 -40 -47 c-46 -55 -52 -143 -11 -143 16 0 33 -11 39 -25 8
-20 10 -20 11 0 1 14 14 25 28 25 42 0 294 277 294 323 0 27 -103 18 -198 -19z"/>
<path d="M2221 3848 c-22 -50 -79 -138 -126 -194 -79 -96 -81 -100 -22 -58 64
44 222 64 197 24 -7 -11 -34 -20 -61 -20 -30 0 -49 -12 -49 -30 0 -16 -13 -30
-30 -30 -33 0 -41 -31 -12 -49 10 -6 23 0 29 14 5 14 11 6 11 -17 1 -23 21
-59 44 -80 23 -21 64 -81 90 -133 68 -134 109 -127 177 30 37 84 57 167 61
255 l5 130 -36 -110 c-20 -60 -37 -132 -38 -160 l-2 -50 -29 50 c-77 133 -150
294 -148 330 0 22 6 29 11 15 15 -37 47 -10 49 41 2 24 11 -10 20 -75 38 -257
74 -299 118 -137 15 53 36 108 47 123 12 15 38 60 57 100 20 40 31 53 24 28
-7 -29 -2 -45 15 -45 19 0 20 -5 1 -24 -13 -13 -24 -65 -23 -115 l1 -91 36 70
c20 39 43 122 51 185 l14 115 -221 0 -220 0 -41 -92z m219 -26 c0 -21 -6 -54
-13 -72 -18 -48 -43 0 -32 61 11 58 45 66 45 11z"/>
<path d="M5272 3652 c-49 -83 -307 -351 -414 -429 -25 -18 -80 -69 -122 -113
-42 -44 -76 -71 -76 -59 0 12 11 32 24 45 19 19 15 24 -18 24 -52 0 -119 -95
-88 -126 25 -25 202 86 339 215 48 44 79 63 67 41 -39 -77 -187 -229 -265
-273 -59 -33 -76 -54 -68 -81 13 -39 -11 -48 -43 -16 -14 14 -46 11 -99 -12
-100 -41 -96 -37 -69 -88 13 -24 28 -39 33 -34 6 6 38 2 71 -7 80 -23 107 -5
64 43 -49 55 -29 61 77 23 119 -43 141 -20 54 55 -38 32 -59 59 -46 59 12 1
34 -13 48 -30 15 -18 63 -52 108 -75 l81 -44 -130 -12 c-71 -6 -121 -13 -110
-15 43 -8 -44 -42 -110 -43 -99 -2 -37 -35 170 -93 175 -48 157 -56 -65 -27
-140 18 -287 75 -317 123 -10 17 -3 19 23 9 33 -12 31 -7 -8 35 -56 59 -112
50 -139 -24 -39 -104 -44 -125 -24 -113 11 7 20 4 20 -7 0 -11 21 -45 47 -76
26 -32 53 -82 60 -111 21 -86 -39 -49 -99 61 l-50 93 11 -110 11 -110 -40 48
c-59 69 -67 127 -34 241 35 119 8 137 -77 52 -56 -56 -61 -107 -20 -221 53
-147 27 -173 -71 -68 -54 58 -83 156 -38 128 11 -7 20 6 20 29 0 22 -9 41 -20
41 -11 0 -20 19 -20 42 0 37 -4 39 -32 16 -26 -21 -30 -49 -20 -136 7 -61 6
-103 -2 -94 -9 8 -20 71 -26 139 -12 150 -70 183 -70 39 0 -95 -14 -90 -49 19
-13 41 -33 75 -45 75 -26 0 -11 -87 33 -190 48 -111 -7 -54 -77 80 l-52 100 0
-67 c0 -44 -8 -63 -25 -58 -14 5 -24 40 -23 82 3 81 2 82 -56 51 -29 -15 -45
-16 -54 -1 -18 29 -182 54 -182 27 0 -59 283 -230 577 -349 l187 -75 233 11
c231 10 417 34 533 70 33 10 95 23 137 30 42 6 72 17 66 23 -19 19 -173 42
-173 25 0 -22 -80 2 -160 50 l-70 41 59 7 c39 4 68 -5 84 -28 22 -29 60 -35
231 -37 271 -2 323 29 773 455 85 80 224 295 208 321 -7 11 -22 3 -34 -17 -63
-108 -238 -306 -300 -339 -39 -21 -71 -49 -71 -63 0 -35 -134 -149 -217 -183
-38 -16 -87 -51 -108 -78 -24 -31 -57 -47 -91 -46 l-54 2 54 22 c29 11 59 42
65 67 7 30 27 47 52 47 22 0 78 36 125 79 82 78 70 112 -21 62 -19 -10 -88
-38 -153 -61 -64 -23 -136 -55 -159 -71 -46 -32 -293 -42 -293 -11 0 24 73 41
180 42 109 1 199 54 125 73 -77 20 -49 38 46 30 106 -8 169 34 169 112 0 39
-7 46 -35 34 -44 -18 -204 -29 -250 -16 -57 16 -40 47 26 47 56 0 59 3 30 31
-17 18 -31 33 -31 35 6 92 73 232 156 328 94 110 217 320 198 339 -5 5 -33
-32 -62 -81z m-751 -1111 c17 -19 64 -51 106 -71 41 -19 72 -38 69 -41 -16
-15 -202 48 -255 87 -108 80 -95 42 28 -78 61 -59 34 -86 -33 -33 -48 38 -136
180 -136 219 0 41 167 -21 221 -83z"/>
<path d="M1350 3480 c-33 -71 -62 -135 -65 -141 -3 -7 17 -24 45 -39 66 -35
64 -60 -6 -60 -36 0 -73 -20 -107 -59 -29 -33 -57 -54 -63 -48 -7 6 -11 -6 -9
-27 4 -49 -44 -166 -67 -166 -29 0 -21 -67 14 -117 37 -53 23 -81 -22 -43 -26
22 -29 20 -18 -7 7 -18 22 -33 34 -33 13 0 -6 -25 -41 -55 -38 -33 -66 -78
-69 -111 -4 -39 -25 -68 -66 -90 -33 -19 -66 -42 -73 -52 -7 -9 -22 -11 -33
-4 -12 7 -27 4 -34 -8 -7 -11 -1 -20 14 -20 19 -1 18 -6 -4 -20 -24 -15 -20
-20 20 -21 45 -2 46 -3 10 -18 -40 -16 -40 -16 0 -26 33 -8 34 -11 5 -13 -39
-2 -49 -62 -11 -62 13 0 7 -12 -13 -27 -48 -35 -12 -154 60 -202 47 -31 49
-30 49 14 -1 56 -27 99 -55 91 -11 -3 -22 3 -24 14 -2 11 13 23 33 27 119 21
186 48 186 74 0 16 14 29 32 29 20 0 28 11 21 30 -7 18 0 30 18 30 18 0 29 20
29 51 0 34 -8 46 -23 37 -41 -25 -3 133 43 183 24 25 79 50 126 58 46 7 99 27
118 45 20 18 36 23 36 11 0 -11 27 -24 60 -29 47 -7 55 -4 37 18 -35 42 6 30
55 -16 l45 -42 14 70 c23 125 -58 148 -170 48 l-48 -44 38 68 c24 42 58 71 88
75 64 10 65 11 40 80 -32 93 -74 74 -109 -47 -36 -123 -89 -186 -158 -186
-126 0 -248 -62 -261 -134 -14 -72 -61 -83 -61 -14 0 41 126 173 151 157 30
-18 -8 78 -45 115 -37 37 -37 39 3 90 23 28 41 68 41 88 0 64 44 65 103 1 33
-35 49 -63 37 -63 -12 0 -3 -20 19 -44 23 -24 41 -53 41 -65 -1 -14 -5 -14
-15 -1 -48 67 -176 85 -191 28 -11 -41 -10 -41 32 -5 24 20 33 23 19 7 -14
-15 -25 -49 -25 -74 0 -55 98 -66 140 -16 13 16 33 25 42 19 17 -11 26 17 20
61 -1 11 12 2 30 -20 32 -39 32 -38 20 20 -8 33 -36 78 -62 100 -44 37 -46 43
-16 62 49 30 14 68 -64 68 -81 0 -106 30 -51 60 23 12 41 35 41 52 0 75 90 19
116 -72 15 -49 36 -112 48 -140 l21 -50 18 48 c12 31 11 56 -2 69 -30 30 -26
53 9 53 17 0 30 8 30 17 0 9 23 27 50 39 28 13 50 40 50 60 0 20 11 47 24 60
19 19 17 32 -9 57 -31 31 -32 30 -21 -12 11 -42 8 -44 -33 -22 -41 22 -44 21
-32 -17 11 -32 7 -39 -18 -30 -18 7 -31 2 -31 -12 0 -15 -14 -19 -34 -11 -30
11 -29 8 3 -28 44 -48 5 -58 -42 -10 -58 57 48 159 308 299 102 55 133 90 79
90 -14 0 -36 -10 -48 -22 -15 -15 -25 -15 -35 0 -19 31 -51 27 -51 -6 0 -19
-14 -25 -43 -17 -30 8 -39 4 -29 -12 10 -15 -4 -23 -39 -23 -39 0 -50 -8 -42
-30 8 -20 0 -30 -23 -30 -57 1 -80 27 -87 100 -7 70 -7 70 -67 -60z m110 -82
c0 -10 -19 -18 -42 -18 -33 0 -40 -9 -32 -40 11 -43 -1 -49 -43 -22 -22 14
-19 29 18 79 43 59 99 59 99 1z m-484 -943 c2 -14 9 -54 16 -90 10 -49 5 -68
-21 -77 -39 -15 -70 8 -37 28 22 14 33 51 28 102 -3 41 -77 -30 -88 -85 -6
-29 -9 -22 -11 21 -3 61 14 80 109 125 1 1 3 -10 4 -24z m75 -83 c0 -52 -9
-102 -20 -111 -14 -12 -21 21 -21 101 0 70 8 115 20 111 11 -3 20 -49 21 -101z"/>
<path d="M1160 3420 c0 -33 8 -60 18 -60 10 0 14 -18 8 -40 -6 -22 -1 -40 12
-40 27 0 30 113 3 129 -11 7 -14 25 -8 42 6 16 1 29 -11 29 -12 0 -22 -27 -22
-60z"/>
<path d="M1073 3099 c-19 -32 -48 -59 -65 -59 -43 0 -78 -91 -55 -142 27 -60
96 4 79 73 -8 29 -1 49 18 56 28 11 79 110 65 125 -4 4 -23 -20 -42 -53z"/>
<path d="M4103 3050 c8 -70 74 -92 117 -40 22 27 21 37 -9 66 -33 32 -35 31
-21 -16 l15 -50 -54 50 -54 50 6 -60z"/>
<path d="M1941 3032 c-12 -30 -21 -56 -21 -58 0 -2 23 -5 50 -7 59 -3 58 -7
21 64 l-29 56 -21 -55z"/>
<path d="M3080 3046 c0 -21 -11 -49 -24 -62 -20 -20 -20 -33 0 -64 32 -52 30
-67 -6 -53 -25 10 -27 5 -10 -27 29 -55 28 -55 121 82 94 137 94 130 -6 148
-65 13 -75 10 -75 -24z"/>
<path d="M3763 3028 c-28 -61 -22 -74 24 -56 36 13 42 43 16 84 -12 18 -23 10
-40 -28z"/>
<path d="M310 3040 c-7 -11 -6 -20 3 -20 8 0 -3 -13 -24 -28 -21 -16 -46 -24
-56 -18 -9 6 -11 -8 -4 -30 9 -30 1 -48 -30 -64 -26 -14 -38 -35 -30 -53 7
-20 -3 -34 -28 -41 -22 -6 -44 -25 -48 -43 -32 -118 -31 -141 7 -186 l40 -47
-20 56 c-30 84 -25 96 30 82 44 -11 52 -5 63 51 15 76 70 109 156 93 35 -7 69
-7 76 0 28 28 -14 66 -88 78 -77 13 -78 15 -45 52 44 49 98 49 132 0 30 -42
136 -37 136 7 0 41 -74 98 -86 67 -9 -21 -14 -21 -29 0 -10 14 -38 27 -62 29
-24 2 -43 11 -43 19 0 23 -35 20 -50 -4z"/>
<path d="M3286 2938 c-1 -49 3 -72 8 -53 5 19 17 35 27 35 27 0 23 26 -8 69
-23 32 -26 27 -27 -51z"/>
<path d="M547 2855 c-34 -54 -24 -103 12 -56 33 44 99 40 103 -6 11 -110 20
-143 50 -175 29 -33 30 -38 4 -38 -48 0 -73 43 -80 139 -6 93 -44 130 -62 62
-7 -28 -27 -41 -63 -41 -29 0 -57 -13 -64 -30 -6 -16 -19 -30 -29 -30 -10 0
-18 14 -18 30 0 44 -23 37 -91 -25 -74 -69 -119 -153 -98 -187 12 -19 20 -16
31 13 12 28 15 19 12 -31 -4 -74 119 -112 142 -43 7 21 1 22 -33 0 -60 -37
-109 9 -54 50 26 19 34 43 26 81 -21 114 65 111 175 -6 104 -111 163 -127 268
-73 82 43 114 171 42 171 -22 0 -40 9 -40 19 0 11 -12 15 -27 9 -21 -8 -25 3
-18 41 6 30 1 51 -13 51 -12 0 -21 7 -20 15 13 81 -112 130 -155 60z"/>
<path d="M3210 2860 c7 -11 -2 -26 -19 -33 -20 -7 -28 -25 -21 -48 7 -23 -2
-44 -24 -57 -29 -17 -31 -25 -8 -39 32 -22 13 -63 -29 -63 -16 0 -29 -9 -29
-20 0 -11 8 -20 19 -20 27 0 11 -107 -17 -116 -18 -6 -18 -15 1 -37 15 -18 17
-35 6 -44 -11 -7 -19 -40 -19 -73 0 -33 -8 -75 -19 -94 -14 -25 -9 -45 18 -75
36 -40 36 -41 -8 -41 l-45 0 47 -39 47 -40 -55 0 c-56 -1 -75 -30 -30 -48 14
-5 9 -11 -12 -11 -29 -2 -35 -13 -28 -51 6 -31 -1 -53 -20 -60 -32 -12 -22
-64 12 -56 12 2 16 -9 10 -25 -8 -21 2 -30 31 -30 23 0 42 -9 42 -20 0 -11 -7
-19 -15 -18 -96 16 -105 -21 -35 -146 87 -156 257 -227 360 -150 36 28 32 30
-65 31 -162 1 -241 79 -185 182 31 59 24 95 -29 148 -59 59 -37 175 39 209 50
23 49 106 -3 166 -15 17 -23 35 -18 40 5 5 11 65 13 133 3 69 13 125 24 125
10 0 14 18 8 39 -5 22 1 43 13 47 16 5 14 18 -6 43 -27 32 -26 35 9 28 26 -5
44 -29 51 -67 l11 -60 11 55 c16 78 -2 155 -37 155 -21 0 -26 11 -16 35 8 19
19 51 25 70 5 19 17 35 27 35 9 0 12 14 5 30 -6 17 -20 30 -30 30 -11 0 -14
-9 -7 -20z"/>
<path d="M5523 2734 c-48 -56 -115 -123 -149 -148 -34 -25 -51 -46 -37 -46 36
0 143 58 143 77 0 9 21 26 46 38 37 17 107 158 88 178 -2 2 -43 -42 -91 -99z"/>
<path d="M1472 2596 c-30 -72 -32 -158 -4 -155 10 2 25 -10 34 -24 14 -21 17
-20 18 6 0 19 22 60 50 93 46 55 47 60 15 88 -72 61 -85 60 -113 -8z"/>
<path d="M1257 2616 c-73 -19 -162 -137 -116 -153 11 -4 33 -33 50 -64 23 -45
55 -66 144 -91 63 -19 125 -48 138 -66 19 -25 19 -12 1 55 -20 75 -25 81 -35
40 -9 -38 -15 -31 -28 43 -30 156 -31 182 -5 168 18 -11 19 -8 1 12 -13 13
-19 37 -13 52 12 32 -28 33 -137 4z m103 -14 c0 -10 -10 -22 -23 -26 -14 -5
-8 -22 15 -46 37 -36 37 -37 -7 -25 -50 12 -58 -4 -21 -41 37 -37 -6 -29 -47
9 -32 29 -37 29 -37 3 0 -17 20 -45 45 -63 25 -17 36 -31 25 -32 -24 -1 -130
94 -129 115 2 37 179 141 179 106z"/>
<path d="M3320 2528 c0 -50 198 -422 281 -527 84 -106 412 -235 803 -314 l174
-36 351 117 c426 141 707 305 886 516 89 106 122 156 100 156 -3 0 -71 -62
-152 -139 -158 -148 -200 -171 -346 -190 -82 -11 -98 -22 -148 -101 -69 -109
-112 -132 -96 -52 9 45 3 58 -31 67 -79 21 -43 50 48 40 60 -7 90 -3 90 12 0
13 -18 23 -40 23 -46 0 -51 20 -15 58 21 22 11 24 -55 13 -114 -21 -156 -47
-144 -93 14 -51 -35 -97 -86 -84 -48 13 -122 -45 -107 -84 5 -14 1 -31 -10
-38 -11 -7 -26 17 -33 53 -8 36 -33 82 -57 102 -40 34 -40 36 -3 21 127 -51
245 -7 202 75 -24 45 -23 51 6 49 20 -1 35 17 39 48 9 71 58 117 136 132 48 9
66 22 62 45 -3 23 10 33 43 33 47 0 102 57 78 80 -10 11 -72 -18 -270 -127
-26 -14 -110 -41 -185 -58 l-138 -33 80 -90 c87 -99 75 -128 -28 -68 -48 28
-67 54 -71 102 -7 71 -10 73 -65 43 -79 -42 -45 -156 87 -294 66 -68 75 -85
45 -85 -37 0 -183 140 -246 236 -27 40 -27 49 2 81 38 42 44 72 10 51 -13 -8
-58 -13 -100 -11 -144 5 -141 -160 8 -329 54 -63 54 -99 -1 -44 -35 35 -29 -7
8 -61 43 -61 26 -73 -31 -20 -140 131 -233 346 -171 397 16 13 25 32 20 41
-12 19 -122 -10 -162 -43 -22 -18 -28 -16 -28 10 0 43 -26 40 -70 -7 -30 -35
-32 -48 -10 -100 30 -74 60 -79 60 -12 0 88 70 102 73 14 1 -41 28 -123 59
-183 32 -61 61 -117 65 -127 21 -46 -121 56 -147 107 -17 33 -41 60 -53 60
-15 0 -15 -8 -2 -25 28 -36 44 -115 24 -115 -30 0 -114 128 -128 195 -8 36
-23 65 -35 65 -20 0 -14 -64 15 -155 11 -37 7 -43 -18 -33 -17 6 -45 54 -60
105 -19 60 -30 77 -31 47 -3 -66 -35 -37 -47 41 -19 128 13 164 85 92 69 -69
69 -69 88 11 13 52 11 56 -17 33 -26 -22 -31 -20 -31 18 0 27 -10 41 -25 35
-14 -5 -40 5 -59 21 -45 39 -96 19 -83 -32 6 -22 1 -56 -11 -76 -18 -30 -21
-19 -18 58 3 94 -37 178 -58 120 -13 -34 -46 -32 -46 3 0 23 -222 192 -252
192 -5 0 -8 -14 -8 -32z m271 -203 c30 -22 66 -157 49 -185 -10 -16 -19 -13
-28 13 -12 30 -17 31 -33 6 -13 -20 -18 -3 -19 60 0 69 -5 84 -24 65 -35 -35
-56 -29 -56 16 0 41 67 56 111 25z m1289 -57 c0 -21 -11 -28 -32 -20 -17 7
-40 12 -51 12 -11 0 -14 9 -7 20 20 33 90 23 90 -12z m-440 -129 c0 -94 6
-107 99 -200 106 -106 109 -115 25 -71 -140 73 -247 281 -180 348 43 43 56 26
56 -77z"/>
<path d="M1562 2457 c-30 -85 -28 -89 18 -47 40 37 55 110 22 110 -10 0 -28
-28 -40 -63z"/>
<path d="M1578 2366 c-36 -96 26 -183 82 -116 20 24 20 30 -3 30 -22 1 -22 4
-1 17 21 13 21 27 2 70 -31 67 -54 67 -80 -1z"/>
<path d="M3290 2359 c59 -268 206 -503 356 -569 517 -230 638 -271 792 -268
180 3 239 34 70 36 -236 3 -371 50 -193 67 l75 6 -60 16 c-716 189 -772 228
-981 668 -56 118 -79 135 -59 44z"/>
<path d="M1502 2360 c-4 -80 26 -177 55 -186 18 -5 50 -17 71 -25 29 -12 35
-9 22 11 -12 20 -7 23 18 13 20 -7 40 -13 45 -13 5 0 4 -9 -3 -20 -7 -11 -27
-20 -44 -20 -17 0 -52 -22 -78 -50 -40 -43 -64 -50 -172 -50 -149 -1 -209 -27
-270 -118 -82 -122 -30 -302 88 -302 29 0 27 5 -11 32 -93 65 -89 193 8 257
l49 32 0 -87 c0 -93 32 -138 116 -163 46 -14 104 16 104 54 0 12 -11 11 -27
-3 -39 -32 -89 -7 -124 59 -59 116 -2 193 127 172 53 -8 90 -3 120 18 30 21
65 27 112 18 62 -12 72 -7 100 48 41 79 42 163 2 163 -20 0 -30 20 -30 60 0
33 -8 60 -17 60 -24 0 -4 -167 22 -183 20 -13 -53 -137 -80 -137 -7 0 -2 11
11 24 29 29 32 156 4 156 -11 0 -20 14 -20 31 0 25 -8 26 -42 8 -52 -28 -95 8
-131 107 -13 35 -25 51 -25 34z"/>
<path d="M1080 2187 c0 -11 27 -45 60 -77 33 -32 60 -48 60 -37 0 11 -27 45
-60 77 -33 32 -60 48 -60 37z"/>
<path d="M1020 2146 c0 -37 44 -126 63 -126 25 0 21 12 -23 85 -22 36 -40 54
-40 41z"/>
</g>
</svg>
