<?xml version="1.0" standalone="no"?>
<!DOCTYPE svg PUBLIC "-//W3C//DTD SVG 20010904//EN"
 "http://www.w3.org/TR/2001/REC-SVG-20010904/DTD/svg10.dtd">
<svg version="1.0" xmlns="http://www.w3.org/2000/svg"
 width="136.000000pt" height="300.000000pt" viewBox="0 0 136.000000 300.000000"
 preserveAspectRatio="xMidYMid meet">
<metadata>
Created by potrace 1.10, written by Peter Selinger 2001-2011
</metadata>
<g transform="translate(0.000000,300.000000) scale(0.050000,-0.050000)"
fill="#000000" stroke="none">
<path d="M1351 5909 c-14 -15 -32 -22 -39 -15 -6 7 -12 -11 -12 -39 0 -29 -7
-57 -16 -63 -9 -5 -18 -47 -21 -94 -3 -46 -13 -100 -23 -118 -13 -23 -9 -47
10 -72 45 -60 35 -76 -25 -37 l-55 35 39 -44 c30 -34 32 -41 7 -31 -36 13 -68
-22 -36 -41 25 -16 27 -110 1 -110 -33 0 -50 -222 -19 -242 17 -10 31 -8 35 5
5 14 14 12 24 -4 13 -22 22 -22 47 0 22 17 32 18 32 3 0 -12 -9 -22 -20 -22
-11 0 -20 -45 -20 -100 0 -60 9 -100 22 -100 13 0 19 -21 13 -50 -5 -27 -3
-50 5 -50 17 0 54 87 65 150 6 37 9 37 39 -10 37 -56 42 -85 38 -237 l-2 -107
-65 41 c-36 23 -88 86 -116 141 -28 55 -65 116 -82 136 -18 20 -35 48 -40 62
-4 14 -18 -2 -31 -35 -20 -54 -18 -61 13 -61 141 0 79 -104 -139 -236 -182
-109 -225 -178 -208 -331 11 -94 8 -124 -16 -141 -47 -35 -122 -272 -120 -382
0 -55 -8 -129 -19 -163 -10 -35 -19 -217 -20 -404 -1 -313 -4 -340 -38 -349
-71 -19 -47 -162 39 -239 47 -41 71 -79 66 -102 -6 -31 3 -35 59 -30 60 6 80
-7 186 -119 185 -196 182 -294 -21 -784 -52 -126 -53 -138 -41 -401 10 -207 6
-296 -16 -383 -16 -62 -35 -170 -43 -241 l-13 -129 93 -78 c166 -140 290 -177
447 -135 45 12 66 87 24 87 -12 0 -34 29 -49 65 -16 36 -65 104 -109 151 -45
47 -81 93 -81 102 0 10 -13 28 -30 42 -41 34 -37 215 8 380 56 203 262 736
305 788 30 36 112 -95 125 -199 6 -57 25 -141 42 -188 16 -48 30 -111 30 -142
0 -31 9 -62 20 -69 27 -17 25 -191 -3 -302 -36 -146 -14 -170 216 -236 520
-152 555 -92 158 267 -122 110 -128 142 -111 561 16 379 30 479 68 504 15 10
20 99 15 265 -5 228 -2 256 35 309 23 32 42 74 42 92 0 29 13 25 73 -21 175
-134 382 -67 456 147 133 383 -40 1173 -361 1654 -219 329 -508 575 -508 432
0 -21 -11 -42 -24 -47 -15 -5 -17 -21 -6 -46 9 -22 15 -52 13 -69 -3 -23 3
-21 25 7 23 29 37 32 69 15 29 -16 43 -15 51 3 16 36 -1 -108 -18 -150 -17
-43 -19 -43 -81 -2 -47 30 -53 30 -90 -3 -38 -35 -39 -35 -41 12 -4 134 8 271
26 293 15 18 13 25 -6 25 -15 0 -7 14 18 31 27 20 44 52 44 85 0 30 5 86 11
124 8 48 -1 93 -28 145 l-39 76 43 30 c31 22 44 53 46 114 2 47 12 123 23 170
11 52 11 85 0 85 -10 0 -13 9 -6 20 7 11 1 33 -14 48 -14 15 -43 51 -64 80
-29 41 -44 47 -65 30 -18 -16 -27 -16 -27 -2 0 31 -157 24 -189 -7z m119 -389
c30 -88 50 -263 29 -249 -9 5 -22 36 -29 68 -18 84 -59 112 -121 84 -60 -27
-65 1 -19 109 39 94 106 89 140 -12z m-117 -210 c-42 -31 -44 -78 -2 -62 37
14 109 -28 109 -63 0 -14 11 -25 25 -25 19 -1 20 -4 1 -16 -18 -11 -12 -30 22
-70 59 -68 53 -282 -7 -245 -11 7 -21 43 -21 79 0 66 -37 114 -105 138 -52 19
-42 54 15 54 28 0 50 9 50 20 0 11 -20 17 -44 15 -33 -4 -45 6 -45 35 -1 22
-14 40 -31 40 -16 0 -30 -11 -30 -25 0 -29 -87 -94 -104 -78 -6 7 -3 24 8 38
10 14 31 63 45 109 19 59 39 86 69 91 61 10 83 -7 45 -35z m209 -831 c8 -16
20 -46 27 -67 11 -35 14 -35 50 7 l38 44 23 -43 c13 -24 18 -56 12 -73 -7 -16
5 -63 25 -103 45 -91 45 -191 1 -200 -32 -6 -140 153 -196 291 -15 36 -39 65
-54 65 -16 0 -28 10 -28 21 0 12 11 15 23 7 16 -10 20 -3 10 21 -26 68 35 95
69 30z m-283 1 c105 -30 177 -111 193 -218 7 -51 25 -109 40 -130 30 -44 -18
-152 -67 -152 -15 0 -22 9 -15 20 20 33 -49 47 -99 21 -49 -26 -131 18 -131
71 0 13 -31 47 -70 77 -61 46 -103 114 -51 82 10 -6 24 9 32 34 7 25 32 65 55
90 29 32 35 52 20 67 -27 27 -46 6 -133 -142 -72 -122 -195 -179 -165 -77 21
70 29 104 30 130 8 109 194 175 361 127z m586 -135 c52 -115 50 -104 53 -270
1 -106 9 -135 32 -135 17 0 30 -9 30 -20 0 -11 -14 -20 -31 -20 -17 0 -26 -9
-19 -20 7 -11 3 -20 -9 -20 -11 0 -21 14 -21 30 0 39 -58 39 -73 0 -6 -16 -20
-25 -30 -18 -11 7 -9 23 5 40 26 32 33 358 10 463 -22 94 3 80 53 -30z m195
-142 c0 -17 16 -49 36 -72 39 -45 174 -368 159 -383 -32 -32 -110 79 -121 172
-8 65 -37 142 -83 216 -81 131 -95 192 -31 134 22 -20 40 -50 40 -67z m142
-48 c24 -47 49 -89 56 -95 6 -5 13 -19 15 -30 1 -11 8 -42 15 -70 7 -27 -9 -5
-34 50 -29 61 -51 89 -57 71 -8 -23 -12 -22 -23 6 -8 21 -6 30 6 23 28 -17 25
2 -11 71 -16 32 -25 59 -20 59 6 0 30 -38 53 -85z m-442 -339 c0 -25 -15 -36
-48 -36 -52 0 -71 42 -72 156 0 37 -7 62 -16 57 -9 -6 -12 22 -7 61 l8 72 68
-137 c37 -75 67 -153 67 -173z m-767 226 c-14 -72 -117 -237 -172 -276 -49
-34 -54 -22 -10 23 18 17 22 31 10 31 -16 0 -16 11 -2 39 12 21 21 66 21 100
0 71 61 141 123 141 36 0 40 -9 30 -58z m217 -63 c105 -72 147 -82 210 -49
114 59 194 36 115 -33 -42 -36 -42 -38 -5 -28 66 18 102 -59 45 -98 -64 -45
-121 -41 -105 8 11 34 5 37 -44 24 -87 -23 -141 -6 -187 59 -23 32 -49 54 -58
49 -29 -19 -84 39 -70 75 17 43 26 43 99 -7z m-142 -271 c40 -84 73 -167 73
-185 2 -26 6 -24 19 7 17 40 23 28 26 -55 2 -33 -8 -43 -34 -39 -32 6 -35 -3
-24 -65 11 -55 7 -74 -18 -84 -45 -17 -101 -136 -130 -274 -13 -65 -41 -168
-62 -229 -45 -132 -45 -125 -10 -112 20 8 32 -12 41 -68 12 -67 21 -79 63 -79
60 0 86 -21 51 -43 -19 -12 -18 -21 6 -41 18 -15 31 -58 31 -102 0 -69 284
-429 338 -429 7 0 13 86 15 190 6 308 11 320 136 320 101 0 105 -2 96 -50 -9
-46 -12 -47 -52 -20 -118 83 -158 -5 -98 -212 37 -127 38 -148 13 -233 -28
-92 -28 -94 32 -164 82 -97 168 -240 153 -255 -7 -7 -42 21 -78 63 -36 41
-164 180 -286 308 -250 264 -319 351 -336 424 -6 28 -60 99 -120 158 -103 102
-107 109 -80 159 22 42 22 56 1 72 -98 76 -108 268 -32 573 21 85 38 195 38
246 0 74 121 367 153 371 1 0 35 -68 75 -152z m274 57 c101 -35 118 -70 41
-81 -44 -7 -163 64 -163 97 0 26 10 24 122 -16z m764 -7 c30 -13 54 -40 54
-60 0 -39 27 -64 47 -44 7 7 3 23 -8 37 -15 19 -8 24 30 22 65 -4 65 -39 -1
-91 -58 -46 -88 -39 -88 18 0 21 -9 43 -20 50 -32 20 -23 -63 10 -90 17 -14
30 -38 30 -55 0 -23 15 -27 65 -18 51 10 57 8 30 -9 -20 -11 -31 -29 -24 -39
6 -11 4 -19 -5 -18 -28 1 -86 52 -86 76 0 13 -9 23 -19 23 -11 0 -15 -13 -8
-30 10 -26 5 -26 -44 -1 -31 16 -63 25 -72 19 -53 -33 -157 -26 -177 12 -20
37 -16 40 60 34 108 -9 114 9 28 85 -128 113 6 166 198 79z m-338 -64 c27
-102 14 -214 -26 -214 -26 0 -38 15 -39 45 0 25 -7 74 -14 110 -24 115 49 170
79 59z m-152 -5 c48 -34 65 -213 23 -240 -14 -8 -8 -23 15 -40 67 -49 4 -74
-172 -66 -183 8 -226 33 -208 124 9 47 19 55 60 47 l49 -9 -52 54 c-28 29 -51
59 -51 67 0 26 97 14 126 -15 33 -33 54 -21 54 31 0 69 86 95 156 47z m-876
-200 c0 -49 -9 -89 -20 -89 -11 0 -20 46 -20 101 0 63 8 97 20 89 11 -7 20
-52 20 -101z m1371 -30 c44 -37 26 -230 -21 -222 -55 9 -72 29 -90 106 l-16
67 -2 -76 c-3 -99 49 -178 110 -170 25 3 46 -2 45 -12 0 -10 12 -25 26 -34 34
-21 57 169 28 238 -31 76 57 114 119 51 35 -35 26 -311 -12 -359 -10 -12 -12
-27 -5 -34 24 -25 -38 -74 -94 -74 -36 0 -70 18 -95 50 -53 66 -84 65 -66 -4
14 -53 62 -90 62 -47 0 14 12 14 39 -3 21 -13 34 -31 29 -40 -6 -9 11 -16 36
-16 72 0 151 102 143 183 -6 54 -4 59 11 27 97 -207 -84 -481 -225 -340 -17
17 -43 30 -59 30 -75 0 -149 218 -161 470 -2 38 6 58 22 55 28 -6 30 -1 13 43
-7 18 -19 28 -27 22 -8 -5 -11 13 -6 41 8 42 2 49 -43 49 -28 0 -52 8 -52 17
0 24 260 8 291 -18z m-335 -62 c-3 -24 -19 -48 -36 -52 -27 -7 -27 -6 0 13 26
18 25 21 -5 22 -36 0 -46 22 -22 47 31 30 70 11 63 -30z m67 -116 c6 -42 -6
-54 -73 -80 l-80 -31 27 -150 c14 -82 43 -235 63 -340 20 -104 35 -191 33
-193 -2 -2 -30 -6 -62 -10 l-59 -7 -36 230 c-19 127 -37 282 -40 345 -3 63
-15 115 -26 115 -13 0 -16 -80 -8 -225 15 -266 34 -395 60 -395 11 0 10 -17
-3 -41 -52 -97 -128 -43 -142 101 -22 225 -19 440 5 440 15 0 14 11 -4 32 -22
27 -21 36 8 57 53 39 41 51 -51 51 -100 0 -169 66 -91 87 24 6 58 2 78 -8 45
-24 138 -25 138 0 0 18 20 26 125 50 46 10 55 5 55 -30 0 -23 -7 -37 -16 -31
-9 5 -29 1 -45 -9 -21 -14 -16 -17 21 -11 28 5 66 10 86 11 34 1 34 4 5 32
-34 35 -39 55 -17 76 19 20 42 -10 49 -66z m-603 9 c0 -16 1 -37 2 -44 0 -8
-9 -18 -20 -22 -12 -4 -22 16 -22 44 0 29 9 52 20 52 11 0 20 -13 20 -30z
m-177 -355 c-35 -146 -74 -279 -85 -295 -16 -23 -18 -20 -8 13 6 24 2 49 -9
56 -31 20 -25 51 9 51 22 0 27 13 19 48 -7 27 -1 69 13 95 25 47 55 162 67
257 3 28 7 59 8 69 2 10 14 8 27 -5 19 -19 10 -82 -41 -289z m370 166 c-6 -31
-17 -181 -25 -334 l-14 -278 -69 8 -70 8 13 183 c7 100 18 245 25 322 l12 140
70 4 c66 3 69 1 58 -53z m378 -9 c7 -34 35 -139 61 -234 56 -198 43 -340 -18
-198 -26 61 -80 281 -108 442 -14 77 49 68 65 -10z m-630 -110 c-19 -36 -61
-59 -61 -33 0 45 45 114 63 96 14 -14 14 -33 -2 -63z m-10 -271 c-7 -50 -22
-91 -33 -91 -11 0 -15 9 -8 20 7 11 3 20 -9 20 -36 0 -23 40 14 42 19 0 24 6
11 11 -18 7 -18 22 -2 58 32 70 43 45 27 -60z m226 -361 c5 -5 -1 -45 -14 -88
-28 -94 -77 -121 -102 -56 -9 25 -31 58 -49 72 -69 58 -40 102 61 91 52 -5 98
-14 104 -19z m443 -150 c0 -24 -21 -50 -49 -63 -28 -13 -46 -30 -40 -38 5 -8
-9 -11 -31 -5 -45 12 -56 86 -12 86 15 0 38 14 52 30 36 43 80 37 80 -10z"/>
<path d="M2706 3940 c0 -71 4 -101 8 -65 5 36 5 94 0 130 -4 36 -8 7 -8 -65z"/>
</g>
</svg>
