<?xml version="1.0" standalone="no"?>
<!DOCTYPE svg PUBLIC "-//W3C//DTD SVG 20010904//EN"
 "http://www.w3.org/TR/2001/REC-SVG-20010904/DTD/svg10.dtd">
<svg version="1.0" xmlns="http://www.w3.org/2000/svg"
 width="300.000000pt" height="384.000000pt" viewBox="0 0 300.000000 384.000000"
 preserveAspectRatio="xMidYMid meet">
<metadata>
Created by potrace 1.10, written by Peter Selinger 2001-2011
</metadata>
<g transform="translate(0.000000,384.000000) scale(0.050000,-0.050000)"
fill="#000000" stroke="none">
<path d="M2491 7609 c-6 -27 -25 -49 -41 -49 -17 0 -30 -13 -30 -30 0 -50 -52
-34 -78 24 -20 43 -28 48 -43 25 -16 -25 -22 -25 -37 -1 -18 29 -66 -54 -89
-155 -13 -57 23 -143 60 -143 17 0 27 -25 27 -69 0 -102 89 -123 104 -24 4 24
17 41 29 39 12 -2 43 20 69 50 45 50 45 51 3 16 -62 -52 -57 -9 9 71 48 61 45
59 -30 -12 -74 -70 -84 -74 -84 -36 0 24 25 60 58 84 41 29 55 53 48 81 -6 22
-1 40 11 40 12 0 17 -13 10 -30 -6 -16 -2 -30 9 -30 11 0 25 11 31 25 7 18 10
17 11 -4 2 -21 10 -18 31 10 34 44 42 118 11 99 -11 -7 -20 1 -20 17 0 52 -55
54 -69 2z m-181 -220 c-4 -33 -9 -86 -11 -119 -2 -33 -12 -2 -21 68 -17 130
-6 191 24 138 9 -16 13 -55 8 -87z"/>
<path d="M2874 7540 c-104 -95 -193 -142 -134 -70 14 17 37 30 52 30 27 0 79
76 63 92 -5 4 -24 -9 -44 -31 -19 -21 -48 -33 -63 -27 -18 6 -25 0 -19 -17 6
-15 -15 -44 -45 -66 -54 -38 -54 -38 -20 1 20 23 28 49 18 65 -12 19 -34 2
-79 -59 -67 -91 -83 -140 -33 -98 39 33 38 10 -4 -61 -45 -76 -23 -94 51 -41
33 23 74 37 91 30 66 -25 137 10 127 62 -5 27 -2 44 8 38 9 -6 17 2 17 16 0
25 27 51 96 94 15 9 29 30 31 47 3 17 17 45 31 63 63 76 -40 27 -144 -68z"/>
<path d="M3050 7600 c-33 -22 -50 -40 -37 -40 34 0 10 -71 -38 -114 -39 -33
-41 -33 -29 -1 18 48 0 44 -27 -7 -18 -33 -16 -46 10 -65 29 -21 26 -30 -33
-73 -149 -111 -475 -166 -392 -65 17 20 14 23 -12 13 -19 -7 -56 -45 -83 -85
-27 -40 -49 -65 -49 -55 0 9 -11 8 -25 -3 -28 -23 -114 2 -117 34 -18 141
-146 246 -229 186 -30 -22 -43 -48 -37 -70 6 -19 2 -35 -9 -35 -36 0 -15 -86
32 -133 25 -25 45 -34 45 -20 0 14 -10 35 -23 48 -16 16 -14 21 11 17 61 -9
122 -191 73 -222 -24 -14 8 -104 54 -155 17 -19 26 -40 20 -47 -7 -6 -21 6
-33 28 -11 22 -36 45 -55 53 -30 11 -30 7 3 -29 31 -34 33 -46 11 -59 -15 -9
-21 -31 -15 -49 7 -18 4 -32 -7 -32 -11 0 -6 -21 11 -48 17 -26 30 -55 29 -65
-5 -30 25 -107 42 -107 9 0 22 20 29 45 24 84 60 145 116 193 31 26 52 59 46
73 -11 30 35 53 76 37 15 -6 34 -1 41 11 8 12 -1 27 -18 33 -42 17 -39 63 7
91 21 13 33 36 28 51 -6 15 4 26 24 26 23 0 30 10 22 31 -9 24 -2 29 28 19 30
-10 37 -5 28 19 -15 37 -23 38 -110 7 -75 -26 -131 -83 -150 -151 -19 -71 -63
-50 -49 23 1 10 -11 53 -28 95 -41 103 -39 118 10 57 l40 -50 39 47 c22 26 40
39 40 28 0 -11 25 -17 55 -13 30 3 91 8 135 10 44 3 112 20 150 39 39 19 79
36 90 38 11 1 46 23 78 47 66 51 190 70 151 23 -12 -15 -19 -38 -15 -50 4 -12
38 16 75 63 38 47 56 77 40 68 -25 -15 -25 -13 -2 16 30 37 53 47 33 14 -18
-29 4 -25 60 12 71 47 200 -29 144 -85 -6 -6 -2 -38 7 -72 15 -51 11 -67 -22
-90 -46 -32 -35 -65 22 -65 30 0 39 -14 39 -60 0 -33 -8 -60 -19 -60 -10 0
-13 -32 -7 -71 9 -54 3 -77 -24 -97 -21 -15 -30 -36 -21 -50 8 -14 -15 -53
-57 -97 -71 -73 -113 -80 -76 -13 13 23 13 54 2 84 -12 32 -11 58 2 74 12 14
19 38 16 53 -4 18 13 27 49 26 56 -1 79 54 35 81 -12 7 -15 21 -9 31 6 11 2
19 -9 19 -11 0 -25 -9 -32 -20 -18 -28 -52 -25 -49 5 7 53 -2 75 -31 75 -40 0
-38 13 10 65 22 23 40 67 40 96 0 82 -121 38 -184 -67 -25 -43 -56 -87 -67
-100 -12 -12 -18 -43 -13 -68 5 -29 -11 -75 -44 -123 -72 -105 -68 -183 15
-272 105 -110 154 -60 73 74 -46 75 -20 170 29 103 15 -20 38 -29 58 -22 23 9
42 -5 64 -49 18 -34 23 -56 12 -49 -11 7 -26 4 -33 -8 -7 -11 -3 -20 8 -20 11
0 15 -14 9 -32 -9 -22 -17 -25 -27 -8 -10 15 -19 7 -27 -23 -6 -26 -32 -56
-57 -67 -60 -26 -50 -81 25 -144 33 -27 59 -59 59 -71 0 -12 -17 -6 -38 13
-26 23 -42 27 -52 13 -7 -12 15 -48 48 -80 59 -55 80 -101 46 -101 -9 0 -27
11 -41 25 -20 20 -23 18 -12 -10 18 -48 -3 -44 -65 14 -114 105 -265 164 -401
156 -162 -9 -229 36 -121 82 36 15 83 47 104 70 21 24 50 43 65 43 67 0 -85
151 -168 167 -96 18 -82 -37 21 -82 77 -34 54 -58 -58 -60 -181 -3 -243 -156
-94 -236 82 -44 83 -45 45 -80 -22 -20 -39 -25 -39 -12 0 13 -16 23 -36 23
-20 0 -47 11 -60 24 -16 16 -24 16 -24 2 0 -11 14 -32 30 -46 53 -44 19 -43
-66 2 -92 50 -124 117 -63 133 45 11 49 27 15 61 -24 24 -136 -71 -136 -115 0
-9 -16 -22 -35 -29 -19 -6 -48 -18 -65 -25 -27 -12 -27 -9 0 24 17 21 19 30 5
22 -16 -10 -25 -4 -25 16 0 17 -13 31 -30 31 -16 0 -48 18 -70 40 -22 22 -58
40 -80 40 -39 0 -39 3 -9 48 24 38 26 50 5 58 -18 6 -13 15 14 25 22 9 47 26
55 38 24 33 97 -71 85 -121 -6 -29 9 -58 50 -95 85 -76 110 -17 82 192 -1 8
-21 15 -44 15 -33 0 -40 9 -32 40 6 23 0 40 -14 40 -37 0 -78 163 -55 222 14
38 10 60 -19 96 -46 56 -48 82 -8 82 48 0 75 -98 60 -217 -14 -109 31 -151 47
-44 3 25 24 74 45 108 35 58 56 209 23 162 -38 -53 -185 23 -185 95 0 23 -15
36 -43 36 -44 0 -95 51 -96 95 -1 37 47 30 104 -15 63 -49 120 -53 111 -7 -4
20 -31 35 -73 40 -89 10 -167 58 -208 129 -36 64 -111 84 -84 23 8 -19 19 -64
24 -100 5 -36 17 -65 27 -65 10 0 18 -45 18 -99 0 -61 15 -126 38 -168 27 -48
37 -99 33 -175 -6 -121 12 -159 70 -144 29 8 39 1 39 -30 0 -42 -28 -69 -78
-77 -37 -6 -64 -50 -52 -84 6 -15 4 -37 -4 -50 -21 -32 -20 -153 1 -153 10 0
12 -15 5 -32 -9 -24 -4 -29 20 -20 26 10 30 3 22 -29 -7 -27 2 -49 28 -65 21
-13 38 -35 38 -49 0 -32 74 -33 86 0 6 14 9 -15 7 -65 -3 -79 2 -91 42 -96 52
-8 53 -11 20 -65 -20 -33 -20 -43 3 -58 22 -13 10 -26 -50 -55 -75 -36 -78
-41 -74 -127 3 -49 -5 -140 -17 -203 -22 -111 -21 -115 40 -189 74 -89 65
-116 -13 -41 -69 66 -91 67 -119 6 -12 -26 -51 -80 -86 -120 -35 -40 -51 -68
-36 -62 15 6 53 47 85 90 80 107 91 108 219 17 128 -91 132 -91 63 3 -55 75
-63 103 -25 95 18 -4 23 24 18 98 -5 89 0 107 35 126 57 30 53 61 -7 61 -27 0
-55 10 -62 21 -20 34 7 47 40 20 16 -13 38 -19 49 -12 11 7 28 -19 39 -57 26
-93 135 -211 186 -201 89 17 110 33 177 140 137 217 240 306 208 180 -7 -30 0
-66 20 -94 43 -62 40 -108 -11 -155 -40 -38 -40 -118 1 -93 29 18 42 -45 21
-102 -41 -107 -19 -200 44 -191 45 7 58 21 68 75 7 36 25 71 40 77 26 9 29 24
30 129 1 49 119 51 136 3 10 -32 103 -24 103 9 0 16 -9 34 -20 41 -12 7 -16
20 -11 29 6 9 -6 21 -26 26 -21 5 -49 37 -64 70 -16 36 -38 57 -53 51 -17 -7
-22 0 -15 19 6 17 -2 35 -20 42 -17 6 -31 34 -31 60 0 48 -51 89 -64 52 -9
-28 -96 38 -96 72 0 69 136 7 251 -115 260 -275 363 -435 408 -636 14 -60 42
-168 62 -240 60 -214 62 -232 24 -263 -19 -16 -62 -28 -95 -26 -33 1 -69 -4
-80 -12 -43 -32 -233 -78 -225 -55 4 13 36 33 70 45 72 24 130 71 88 71 -17 0
-23 23 -19 65 7 77 118 110 144 43 19 -51 -19 -80 -59 -47 -30 24 -33 23 -26
-12 8 -37 27 -41 116 -22 34 8 54 53 23 53 -12 0 -22 14 -22 30 0 17 10 30 21
30 12 0 19 20 15 45 -3 27 -18 43 -36 40 -41 -6 -89 71 -63 102 18 21 30 107
25 168 -4 45 -65 26 -125 -38 -55 -59 -56 -65 -25 -99 31 -35 31 -38 -1 -50
-21 -8 -31 -28 -25 -49 5 -20 -1 -53 -14 -73 -12 -20 -22 -61 -20 -92 1 -40
-14 -67 -55 -96 -48 -34 -57 -36 -57 -9 0 17 -14 31 -31 31 -17 0 -26 -9 -19
-20 7 -11 -5 -20 -27 -20 -24 0 -43 -18 -51 -47 -8 -36 -34 -54 -100 -73 -86
-24 -89 -27 -88 -102 1 -68 5 -75 37 -57 20 10 44 19 53 19 9 -1 -33 -28 -93
-61 -61 -33 -129 -78 -152 -100 -49 -46 -215 87 -167 135 16 16 17 45 2 99
-19 74 -20 75 -22 17 -7 -168 -67 -82 -64 91 1 69 -2 72 -62 63 l-62 -9 12
105 c7 58 26 126 43 151 29 44 14 69 -36 61 -9 -1 -27 17 -40 41 -39 73 -302
364 -329 366 -14 0 -31 -14 -38 -32 -21 -55 -165 -184 -212 -191 -30 -4 -44
-20 -45 -51 0 -24 -9 -42 -20 -40 -10 3 -17 12 -14 20 3 8 -4 15 -15 15 -11 0
-20 17 -20 39 0 45 -33 73 -44 38 -5 -13 -64 51 -133 142 -124 165 -140 220
-89 306 22 38 129 12 196 -48 87 -76 100 -65 99 80 -1 110 -105 364 -125 304
-5 -13 8 -41 27 -62 87 -97 -4 -26 -117 91 -113 116 -135 130 -205 130 -75 1
-82 6 -129 102 -94 193 -266 202 -288 15 -5 -43 -18 -65 -35 -62 -15 3 -11 -7
10 -24 41 -32 35 -107 -14 -155 -15 -15 -43 -61 -62 -101 -47 -99 -64 -95 -64
14 0 49 -12 102 -25 119 -14 16 -22 51 -18 76 6 42 11 40 61 -34 53 -77 55
-77 55 -26 0 30 9 59 21 67 14 8 14 21 -2 41 -13 15 -17 28 -8 28 9 0 -7 25
-35 55 -67 72 -96 131 -96 195 l0 53 -58 -41 c-125 -90 -181 -510 -62 -472 62
20 100 -10 100 -78 0 -78 -31 -112 -102 -112 -39 0 -59 -14 -75 -55 -189 -482
-153 -928 91 -1131 174 -144 523 -200 643 -103 4 3 -30 39 -75 79 -170 154
-277 531 -201 708 48 112 119 189 134 146 5 -15 30 -34 55 -44 25 -10 89 -83
143 -163 53 -80 151 -199 217 -266 l120 -121 -7 -150 c-25 -506 -25 -620 -2
-620 18 0 18 -7 -1 -30 -28 -33 -14 -533 17 -642 10 -33 25 -135 33 -225 19
-215 23 -215 186 12 77 107 191 254 253 325 63 72 142 166 176 210 35 44 97
110 139 147 l76 68 0 -60 c0 -33 14 -71 30 -85 23 -19 25 -32 9 -52 -13 -14
-17 -35 -11 -46 15 -23 -52 -77 -176 -143 -76 -40 -92 -57 -83 -91 8 -32 -15
-66 -89 -136 -55 -52 -100 -111 -100 -131 0 -19 -27 -69 -60 -111 -33 -42 -60
-81 -60 -88 0 -6 -23 -38 -50 -70 -57 -67 -59 -83 -20 -152 16 -27 29 -75 29
-105 1 -48 7 -54 48 -44 42 11 46 6 38 -45 -11 -77 21 -196 53 -196 41 0 81
-93 81 -191 1 -102 38 -199 76 -199 32 0 32 -45 2 -75 -18 -18 -18 -37 2 -79
43 -94 59 -165 40 -177 -11 -6 -19 -33 -19 -60 0 -27 -8 -49 -18 -49 -10 0
-46 -49 -80 -110 -40 -70 -79 -113 -109 -121 -38 -10 -45 -22 -37 -64 9 -44 4
-50 -33 -40 -24 6 -43 3 -43 -8 0 -11 -9 -14 -20 -7 -12 7 -20 -13 -20 -50 0
-77 -108 -228 -188 -262 -32 -14 -79 -45 -104 -68 -34 -32 -70 -42 -132 -41
-112 4 -191 -23 -206 -70 -7 -20 -28 -42 -47 -48 -20 -6 -56 -30 -79 -52 -51
-47 -60 -109 -14 -92 27 11 27 6 0 -47 -49 -95 -13 -146 50 -70 40 48 76 37
65 -20 -9 -48 12 -66 43 -35 21 21 168 62 180 50 6 -6 2 -27 -9 -48 -24 -45
-19 -45 65 -8 36 16 122 45 190 64 68 19 118 44 111 54 -7 12 4 14 27 5 47
-18 41 -18 138 -11 l80 5 -100 14 -100 14 100 6 100 6 -80 14 c-70 13 -73 15
-20 17 33 2 123 21 200 43 77 22 167 41 200 42 42 2 48 6 20 12 -115 28 -48
42 173 35 232 -6 237 -6 89 11 -226 26 -243 60 -31 61 136 1 159 6 119 22 -31
13 -129 16 -255 7 -136 -8 -205 -6 -205 8 0 14 184 18 555 14 532 -6 925 -38
925 -75 0 -45 70 -13 73 33 3 46 -4 50 -80 47 -46 -1 -173 12 -283 29 -110 18
-231 36 -270 40 -38 5 61 9 220 9 315 0 490 21 400 47 -27 8 -180 16 -340 18
-179 2 -271 10 -240 20 78 25 493 23 665 -3 120 -19 161 -19 179 -1 19 19 -1
24 -85 24 -69 1 -99 7 -82 18 23 14 23 19 0 29 -43 20 286 -7 355 -29 86 -27
541 -53 633 -37 57 10 75 7 75 -14 0 -16 22 -27 58 -27 41 0 60 -12 68 -42 13
-50 54 -32 54 23 0 30 14 39 60 39 47 0 60 -9 60 -40 0 -22 9 -40 20 -40 11 0
20 36 20 80 0 44 9 80 20 80 11 0 20 -9 20 -20 0 -11 14 -20 30 -20 17 0 30
-18 30 -40 0 -22 8 -40 17 -40 23 0 66 99 52 121 -6 10 26 24 70 31 107 17 94
69 -19 76 -20 1 -30 24 -31 65 -1 41 -24 88 -65 136 -35 40 -64 79 -65 87 -8
109 -18 189 -29 223 -15 47 -1 50 87 19 106 -37 119 -5 15 40 -54 24 -93 48
-86 54 6 6 53 -7 105 -30 52 -23 106 -42 122 -42 15 0 62 -35 106 -79 99 -99
113 -65 31 79 -35 61 -59 122 -55 134 15 45 325 -23 325 -71 0 -23 124 -146
135 -135 6 6 -2 27 -17 47 -15 20 -5 15 24 -10 96 -86 126 -55 47 48 -28 37
-47 75 -41 83 5 9 -17 32 -49 51 -122 73 -31 88 107 19 107 -54 104 -12 -6 91
-60 56 -121 102 -135 103 -14 0 -25 10 -25 23 0 15 27 18 81 9 115 -18 81 35
-115 180 -208 154 -251 177 -436 238 -191 61 -397 184 -265 157 28 -6 17 6
-30 32 -58 33 -75 54 -75 96 -1 131 -53 189 -98 110 -21 -39 -18 -44 -58 101
-17 60 -15 79 6 87 15 5 33 55 40 110 11 73 32 118 82 173 105 115 80 444 -35
444 -14 0 -10 15 10 37 27 30 30 49 14 91 -18 47 -15 56 28 75 50 23 52 30 50
177 -1 106 -6 111 -102 126 -60 9 -81 2 -120 -39 -80 -86 -117 -97 -117 -35 0
43 7 51 40 42 34 -9 38 -3 28 38 -27 108 67 215 105 118 24 -62 65 -31 71 55
6 90 39 108 57 33 11 -49 59 -78 58 -35 0 15 -13 44 -30 66 -41 55 -40 145 1
111 47 -39 61 -6 18 42 -35 39 -36 43 -3 67 43 31 43 50 5 124 -16 31 -30 87
-30 123 0 37 -10 86 -23 109 -18 35 -15 48 17 74 28 23 35 44 24 72 -22 56 2
532 29 579 13 23 24 156 27 320 3 154 8 370 12 480 10 249 -2 279 -183 467
-126 132 -147 146 -196 134 -49 -12 -52 -11 -25 21 26 32 22 34 -56 23 -107
-14 -116 -3 -55 69 80 96 69 113 -44 66 -111 -46 -154 -40 -142 20 7 39 4 46
-16 29 -20 -16 -24 -12 -16 17 6 21 41 53 80 71 73 35 74 79 1 65 -24 -5 -75
-15 -114 -22 l-70 -13 45 40 c42 37 63 77 30 56 -20 -12 -188 -39 -215 -35
-11 2 -78 10 -150 18 -79 8 -120 20 -105 30 14 9 41 12 60 6 19 -6 67 -3 105
7 l70 17 -74 2 c-83 2 -114 30 -64 58 104 58 -17 77 -141 22 -91 -40 -151 -37
-90 4 21 14 0 18 -71 14 -84 -5 -99 -1 -94 28 4 29 -4 30 -67 13 -39 -11 -98
-14 -131 -7 -59 13 -127 -18 -108 -50 13 -21 -47 -69 -65 -52 -8 8 -5 20 6 28
18 13 75 104 64 104 -3 0 -32 -18 -65 -40z m161 -71 c-21 -16 -46 -29 -56 -29
-10 0 -12 -9 -5 -20 7 -11 -2 -14 -21 -7 -40 15 36 86 91 86 23 0 21 -7 -9
-30z m469 -193 c81 -50 104 -55 280 -59 72 -2 105 -7 75 -12 -90 -13 -160 -56
-130 -79 45 -35 90 -43 112 -21 35 35 82 36 69 1 -10 -24 -2 -28 33 -16 32 10
42 7 32 -8 -7 -12 -30 -22 -50 -22 -38 0 -43 -29 -13 -77 12 -19 40 -24 96
-15 55 9 87 4 107 -16 52 -52 62 -53 -271 22 l-50 11 47 -51 c37 -39 57 -48
90 -35 49 18 173 4 173 -19 0 -9 -32 -35 -70 -57 -85 -51 -141 -35 -200 55
-50 77 -88 94 -84 38 2 -23 19 -46 39 -52 36 -9 95 -100 95 -145 0 -17 -10
-16 -34 4 -23 18 -29 19 -19 2 26 -42 -3 -28 -55 28 l-50 54 -13 -54 c-17 -66
6 -198 32 -182 10 6 19 -2 19 -18 0 -16 11 -34 25 -39 40 -14 10 -31 -79 -45
-80 -13 -82 -12 -108 58 -14 40 -30 68 -34 63 -14 -13 84 -309 102 -310 9 0
11 18 4 40 -9 28 -4 40 18 40 18 0 26 -11 20 -29 -8 -20 0 -25 28 -18 27 7 36
22 29 49 -5 21 5 60 23 87 17 27 32 81 32 119 0 80 24 105 60 62 36 -43 80
-37 80 11 0 22 13 45 30 52 16 6 25 18 20 27 -15 24 47 41 102 28 29 -8 48 -4
48 10 0 12 9 22 20 22 11 0 20 -12 20 -26 0 -28 -120 -94 -171 -94 -18 0 -29
-19 -29 -50 0 -27 -9 -50 -20 -50 -11 0 -20 -20 -20 -44 0 -24 -11 -73 -24
-110 -38 -103 43 -203 82 -103 30 75 143 188 161 159 11 -18 21 -16 40 7 14
17 38 31 53 31 36 0 35 6 -12 95 -22 41 -40 86 -40 100 0 44 35 27 48 -24 7
-26 39 -68 72 -91 33 -24 60 -56 60 -73 0 -16 10 -49 23 -73 l23 -43 16 43
c17 48 2 126 -24 126 -10 0 -18 13 -18 28 0 16 -10 32 -23 36 -14 5 -17 25 -7
55 13 41 17 43 33 14 11 -18 32 -33 48 -33 16 0 29 -8 29 -17 0 -10 31 -48 70
-85 79 -78 84 -93 35 -131 -33 -25 -32 -29 11 -63 51 -40 55 -63 37 -234 -36
-332 -45 -358 -104 -309 -35 29 -38 122 -5 155 19 19 19 24 0 24 -14 0 -33
-21 -42 -46 -10 -25 -32 -58 -50 -72 -20 -17 -27 -43 -20 -74 8 -31 4 -48 -12
-48 -14 0 -19 13 -12 31 9 24 -2 22 -46 -10 l-58 -41 23 49 c13 27 38 53 57
58 19 5 40 34 48 66 8 31 23 63 33 69 10 7 -5 17 -33 23 -56 10 -84 -12 -95
-75 -10 -56 -96 -79 -130 -34 -34 45 -33 64 3 64 17 0 30 9 30 20 0 31 -23 24
-72 -22 -26 -24 -40 -55 -34 -72 8 -21 1 -28 -25 -23 -29 6 -38 29 -43 117 -8
123 -1 137 84 182 33 17 58 41 56 52 -2 11 18 32 45 47 52 27 69 71 20 52 -17
-6 -32 3 -37 23 -6 26 -13 21 -30 -21 -13 -30 -32 -55 -42 -55 -11 0 -49 -27
-85 -60 -68 -62 -98 -67 -113 -21 -6 16 0 21 13 13 13 -8 23 -5 23 7 0 11 -4
21 -8 21 -5 0 -24 6 -43 13 -27 11 -31 5 -20 -30 10 -30 4 -47 -18 -55 -62
-24 -8 -243 67 -271 23 -9 42 -33 42 -55 0 -40 28 -68 75 -75 17 -2 21 12 13
45 -8 29 -4 48 10 48 12 0 22 -12 22 -27 0 -15 18 -43 40 -63 22 -20 40 -48
40 -63 0 -15 10 -27 21 -27 12 0 16 -9 9 -20 -7 -11 1 -20 18 -20 16 0 35 -9
42 -21 9 -13 -6 -16 -42 -7 l-55 14 51 -56 c49 -52 63 -56 222 -57 161 -2 169
-4 150 -40 -47 -88 -479 23 -444 114 8 21 -3 25 -40 18 -130 -24 -171 31 -172
230 0 25 -9 45 -20 45 -11 0 -20 -22 -20 -49 0 -60 -32 -83 -71 -50 -16 13
-29 15 -29 5 0 -11 -69 -54 -153 -97 -84 -42 -142 -81 -129 -85 14 -5 40 6 60
24 51 46 101 42 88 -8 -7 -28 -1 -40 22 -40 19 0 32 -16 32 -40 0 -22 -9 -40
-21 -40 -26 0 13 -77 64 -126 53 -51 47 -94 -14 -94 -43 0 -49 7 -39 40 7 23
4 40 -9 40 -11 0 -21 21 -21 47 0 58 -67 122 -111 105 -37 -14 -32 -74 9 -88
17 -6 22 0 14 13 -9 14 1 23 27 23 53 0 53 -52 0 -81 -31 -16 -49 -16 -71 3
-21 17 -36 18 -51 3 -25 -25 -136 2 -159 39 -22 35 15 92 88 137 80 49 56 51
-31 4 -121 -66 -175 -109 -162 -129 14 -23 138 -80 196 -90 21 -4 53 -20 70
-35 17 -16 54 -33 81 -38 215 -39 273 -77 241 -161 -26 -68 -69 -66 -124 7
-24 33 -51 55 -60 49 -9 -6 -17 1 -17 16 0 16 -6 18 -15 6 -10 -14 -51 -13
-125 3 -87 18 -96 24 -45 25 78 2 83 23 15 55 -38 18 -50 18 -50 0 0 -13 -9
-10 -20 7 -11 17 -20 21 -20 10 -1 -11 -10 -5 -21 13 -11 20 -34 29 -56 23
-28 -7 -41 4 -51 42 -14 55 -40 67 -64 29 -9 -15 -5 -18 12 -7 17 11 21 8 12
-7 -8 -13 -23 -19 -33 -12 -10 6 -39 -3 -66 -21 -42 -27 -50 -28 -72 -1 -21
25 -19 33 12 42 20 7 51 20 67 30 17 11 49 28 73 38 63 27 76 60 39 97 -29 30
-32 30 -32 -2 0 -19 -13 -34 -30 -34 -16 0 -30 -9 -30 -20 0 -11 -13 -20 -28
-20 -16 0 -32 -10 -36 -22 -4 -13 -19 -8 -37 14 -23 28 -23 32 -1 19 39 -24
11 88 -30 118 -16 11 -36 48 -45 81 -13 48 -26 60 -67 58 -49 -2 -51 2 -46
100 3 56 -3 113 -14 127 -12 14 -14 25 -5 25 23 0 129 -124 129 -151 0 -13 11
-33 25 -45 27 -22 34 196 8 256 -20 46 19 96 50 65 14 -14 32 -25 41 -25 32 0
14 37 -48 98 -56 54 -61 69 -41 102 15 24 17 43 5 50 -11 7 -30 32 -43 56 -12
24 -16 38 -8 30 9 -7 34 4 56 25 23 20 49 33 58 27 26 -16 20 -83 -8 -97 -14
-6 -4 -7 22 -3 44 9 45 7 14 -27 -19 -21 -25 -42 -15 -48 51 -32 78 127 33
196 -29 44 -28 49 22 88 33 26 47 51 37 67 -8 14 4 10 27 -10 53 -47 79 -11
36 50 -39 57 -40 98 -1 83 17 -6 35 3 42 22 17 43 -9 68 -32 31 -15 -24 -23
-25 -43 -5 -20 20 -18 25 11 25 29 0 34 11 24 55 -10 42 -8 47 8 22 12 -21 35
-29 60 -23 22 6 40 1 40 -12 0 -12 8 -22 19 -22 10 0 1 40 -20 88 -22 49 -34
103 -27 121 8 20 -4 51 -31 80 -30 32 -37 51 -22 61 17 10 17 21 0 41 -18 22
-12 24 40 9 38 -11 57 -10 50 1 -39 64 38 73 131 15z m-1583 -157 c6 -41 3
-44 -25 -21 -38 32 -43 89 -7 77 14 -4 28 -29 32 -56z m1390 -32 c7 -7 -5 -26
-26 -41 -24 -16 -34 -40 -27 -59 10 -27 6 -28 -32 -4 -34 21 -36 28 -13 33 17
4 31 24 31 45 0 38 40 53 67 26z m-1281 -146 c8 -33 5 -35 -28 -15 -21 13 -38
41 -38 61 0 48 50 12 66 -46z m2374 -71 c-58 -33 -100 -38 -100 -11 0 19 46
35 110 38 35 1 33 -2 -10 -27z m-170 -10 c-7 -11 0 -20 15 -20 15 0 42 -44 59
-100 38 -119 34 -124 -25 -29 -28 46 -64 75 -101 82 -69 14 -75 42 -13 66 61
25 80 25 65 1z m-1954 -515 c-8 -43 -76 -60 -76 -18 0 27 26 48 66 51 10 1 14
-14 10 -33z m674 -45 c16 -26 -22 -26 -72 1 -21 12 -34 30 -27 40 12 21 78 -6
99 -41z m-421 -131 c43 -44 39 -67 -9 -55 -22 6 -40 27 -40 48 0 46 8 47 49 7z
m-249 -99 c0 -16 -7 -30 -16 -30 -19 0 -64 -118 -64 -169 0 -22 -10 -31 -29
-24 -20 8 -30 -6 -35 -48 -5 -44 -13 -54 -34 -40 -23 14 -21 32 17 103 32 62
35 78 12 59 -52 -43 -51 -17 0 69 36 59 49 69 49 40 1 -34 6 -32 35 15 38 61
65 71 65 25z m410 -63 c93 -114 111 -243 24 -170 -37 30 -63 -20 -29 -54 12
-12 18 -27 12 -32 -5 -6 -38 28 -72 74 -35 47 -80 108 -101 135 -123 159 37
205 166 47z m-730 33 c32 -49 24 -98 -8 -55 -33 44 -59 44 -94 3 -40 -48 42
-108 149 -109 80 0 81 -1 35 -27 -57 -32 -116 -21 -175 32 -37 33 -49 35 -84
13 -35 -21 -46 -21 -68 1 -21 23 -19 26 9 16 23 -8 46 3 65 31 42 59 39 69
-19 83 -85 22 -55 42 61 42 76 0 116 -9 129 -30z m-1818 -41 c-12 -44 -19
-103 -20 -174 -1 -36 -12 -65 -24 -65 -14 0 -19 21 -13 52 6 32 0 55 -17 62
-34 13 -35 48 -4 116 24 54 92 61 78 9z m443 -29 c6 -34 1 -50 -18 -50 -17 0
-27 23 -27 61 0 71 31 63 45 -11z m1876 -58 c-15 -39 -10 -51 32 -70 27 -12
44 -30 38 -40 -6 -10 4 -16 22 -15 18 2 37 -10 42 -25 6 -17 1 -22 -12 -14
-14 8 -23 1 -23 -17 0 -46 -113 -41 -139 6 -11 21 -14 43 -7 50 13 13 -26 21
-63 14 -11 -2 -5 12 13 33 18 20 43 61 55 92 11 31 30 51 40 44 12 -7 13 -30
2 -58z m-107 -26 c-11 -25 -29 -39 -40 -32 -13 8 -16 -1 -8 -21 7 -18 3 -33
-8 -33 -12 0 -19 -25 -16 -55 7 -84 -42 -286 -73 -298 -15 -6 -33 -28 -40 -49
-6 -21 -30 -48 -53 -60 -47 -25 -41 -11 37 93 46 62 114 228 99 243 -4 5 -27
-19 -51 -53 -24 -33 -59 -61 -77 -60 -30 0 -31 3 -3 25 17 13 27 40 23 59 -4
19 7 40 23 47 17 6 26 22 21 35 -5 14 9 44 32 68 22 24 40 65 40 91 0 40 10
48 57 46 52 -2 56 -6 37 -46z m-1679 -31 c30 -38 51 -141 26 -125 -37 22 -22
-43 17 -78 35 -32 99 -162 130 -264 11 -38 2 -46 -78 -66 -51 -13 -87 -31 -81
-41 7 -10 1 -25 -12 -33 -14 -9 -18 -6 -9 9 8 13 5 23 -7 23 -37 0 -23 37 19
50 46 15 54 70 10 70 -16 0 -30 11 -30 25 0 14 -19 34 -43 45 -30 14 -52 54
-72 130 -37 142 -42 164 -43 197 -1 18 -17 24 -47 16 l-45 -11 47 39 c54 44
187 53 218 14z m196 -87 c33 -27 34 -30 4 -20 -37 11 -49 -17 -15 -38 11 -7
20 -28 20 -46 0 -21 -6 -26 -15 -13 -8 12 -31 28 -50 35 -19 7 -35 27 -35 43
0 17 -11 32 -25 32 -14 1 -7 10 15 19 56 24 58 24 101 -12z m2137 -260 c14
-37 -170 113 -225 183 -21 26 -43 43 -49 36 -6 -6 -7 7 -1 29 11 42 245 -170
275 -248z m-2515 128 c6 -47 25 -111 41 -142 15 -31 25 -67 21 -80 -12 -34
-92 189 -106 291 -9 66 -7 77 10 51 12 -19 27 -73 34 -120z m1442 115 c36 -8
65 -25 66 -38 0 -12 9 -7 21 12 31 53 58 42 58 -25 0 -71 1 -71 -89 -18 -40
23 -90 38 -111 32 -23 -6 -40 0 -40 13 0 13 -9 10 -20 -7 -11 -16 -20 -24 -20
-17 0 8 -5 27 -12 44 -12 32 20 33 147 4z m2661 -15 c33 -33 30 -56 -9 -56
-26 0 -30 -15 -22 -79 9 -61 5 -76 -17 -67 -15 5 -28 18 -28 28 0 10 -18 18
-40 18 -48 0 -50 23 -8 112 33 70 81 87 124 44z m-2683 -81 c8 -12 4 -15 -10
-7 -13 8 -23 5 -23 -6 0 -11 10 -26 21 -33 12 -7 17 -25 12 -39 -17 -44 60
-101 96 -71 24 20 32 16 43 -28 17 -71 3 -80 -70 -42 -34 17 -68 29 -77 26 -8
-3 -18 24 -21 59 -5 46 -14 61 -35 53 -18 -7 -29 1 -29 21 0 37 -63 43 -122
11 -21 -11 -50 -14 -63 -6 -33 21 104 78 194 81 39 1 77 -7 84 -19z m2003 1
c13 -13 24 -49 24 -80 0 -60 18 -70 55 -33 18 18 26 17 33 -5 26 -82 29 -86
30 -42 2 53 42 40 42 -14 0 -61 65 -122 96 -89 58 62 224 -36 224 -133 0 -45
100 -87 180 -76 43 7 60 1 60 -20 0 -24 -23 -27 -117 -19 -129 12 -161 26
-326 150 -63 47 -123 85 -134 85 -11 0 -24 11 -28 25 -16 44 -89 -66 -79 -118
l9 -48 36 42 c20 23 31 56 25 73 -10 26 -5 27 31 8 44 -24 58 -62 23 -62 -11
0 -18 -11 -15 -23 3 -13 -17 -35 -43 -49 -27 -14 -57 -39 -66 -57 -10 -17 -25
-31 -33 -31 -20 0 -23 138 -3 150 9 6 12 27 6 48 -5 21 0 44 12 51 37 22 25
86 -18 97 -27 7 -47 -3 -61 -28 -23 -42 -59 -34 -59 13 0 16 14 29 30 29 17 0
30 11 30 25 0 14 6 45 13 70 9 34 3 45 -22 45 -18 0 -28 9 -21 20 16 26 37 25
66 -4z m-1870 -73 c26 14 34 11 34 -12 0 -17 13 -31 28 -31 18 0 25 -14 18
-40 -12 -45 -46 -54 -46 -12 0 30 -53 58 -80 42 -24 -15 -65 45 -49 72 11 18
21 16 38 -7 16 -23 32 -26 57 -12z m-1871 -128 c-5 -14 -25 -28 -45 -32 -96
-19 -103 -41 -160 -501 -16 -123 -34 -94 -27 43 4 77 -1 138 -13 142 -25 8 41
220 78 252 15 12 23 40 18 60 -8 31 3 40 57 46 37 5 75 10 84 12 9 2 13 -8 8
-22z m307 -171 c-14 -5 -34 -32 -45 -61 -20 -50 -22 -50 -37 -13 -10 26 -5 52
15 75 17 19 23 35 13 35 -10 0 -5 9 12 19 21 14 35 9 48 -14 12 -22 10 -36 -6
-41z m131 -21 c2 -15 -1 -21 -8 -15 -7 7 -34 -8 -62 -33 -42 -38 -47 -39 -36
-8 7 20 13 40 13 45 0 4 14 8 30 8 23 0 28 14 19 55 -11 51 -10 52 14 15 14
-22 27 -52 30 -67z m3992 68 c19 -8 35 -24 35 -34 0 -11 -8 -14 -19 -8 -10 6
-24 3 -31 -9 -13 -21 -130 -29 -130 -9 0 71 61 96 145 60z m-4335 -73 c42 -47
9 -36 -58 20 -36 30 -38 29 -26 -4 8 -20 5 -31 -5 -25 -10 7 -17 29 -16 50 4
45 44 30 105 -41z m2958 -20 c19 16 33 17 41 3 8 -12 35 -21 62 -21 27 0 49
-8 49 -19 0 -10 48 -46 108 -80 59 -34 112 -79 118 -101 6 -22 21 -40 33 -40
14 0 19 15 12 36 -8 27 0 35 36 33 43 -2 181 -89 142 -89 -9 0 1 -13 22 -29
28 -21 31 -30 11 -30 -16 -1 -47 15 -68 34 -39 34 -39 34 -16 -10 14 -27 42
-45 69 -45 51 0 77 -17 63 -41 -6 -8 -41 -8 -80 1 -63 14 -73 10 -102 -39 -38
-64 -143 -36 -189 51 -13 25 -46 50 -72 57 -68 17 -138 104 -130 163 3 26 -4
48 -16 48 -11 0 -21 -14 -21 -31 0 -17 -9 -26 -21 -18 -14 9 -14 21 2 40 28
34 5 76 -33 61 -15 -6 -28 -1 -28 10 0 11 -9 15 -20 8 -11 -7 -20 -2 -20 10 0
12 -9 17 -20 10 -11 -7 -20 8 -19 34 0 44 1 45 29 8 23 -30 35 -33 58 -14z
m992 -20 c0 -10 21 -18 46 -18 50 0 174 -118 174 -166 0 -33 68 -25 116 12 35
27 69 -9 52 -54 -11 -28 -17 -30 -31 -9 -14 22 -21 22 -37 -3 -24 -36 -26 -66
-4 -52 9 5 28 2 43 -7 42 -26 -50 -47 -97 -22 -84 45 -122 -3 -62 -79 22 -27
39 -61 40 -75 1 -55 106 -227 132 -217 15 6 32 1 39 -10 7 -12 26 -16 41 -10
15 6 28 2 28 -9 0 -10 -27 -19 -61 -19 -68 0 -335 238 -311 277 7 11 4 26 -8
33 -11 7 -20 3 -20 -9 0 -14 -24 -10 -62 10 -52 27 -60 40 -50 85 11 47 9 49
-10 17 -17 -28 -17 -50 0 -87 12 -27 18 -57 12 -66 -21 -33 14 -75 62 -75 52
0 136 -66 173 -135 19 -36 18 -37 -12 -13 -19 17 -33 19 -33 7 0 -12 16 -33
35 -48 35 -26 52 -176 20 -176 -8 0 -15 18 -15 40 0 22 -9 40 -20 40 -11 0
-20 -11 -20 -23 0 -13 -16 -42 -35 -63 -23 -26 -27 -43 -12 -48 31 -11 9 -86
-26 -86 -21 0 -25 19 -15 77 11 67 7 79 -30 88 -26 7 -42 27 -42 54 0 34 9 40
46 30 55 -14 88 19 94 91 11 127 -21 131 -89 10 -23 -42 -54 -81 -67 -85 -35
-12 -29 54 6 68 43 16 37 47 -10 47 -22 0 -40 10 -40 22 0 32 -50 9 -51 -24 0
-15 -7 -39 -16 -53 -9 -14 -6 -25 6 -25 11 0 21 -22 21 -49 0 -27 11 -55 23
-63 16 -10 20 -4 11 19 -7 18 -5 33 5 33 22 0 50 -118 32 -136 -7 -7 -19 -3
-27 8 -30 47 -127 52 -138 9 -13 -51 -23 -51 -79 2 -53 49 -129 38 -87 -13 31
-37 -18 -44 -54 -8 -28 28 -72 3 -58 -33 6 -15 2 -33 -9 -40 -36 -22 -19 -49
32 -49 29 0 46 -9 39 -20 -7 -11 -40 -20 -74 -20 -55 0 -58 -3 -33 -34 24 -29
23 -32 -8 -20 -19 7 -35 5 -35 -4 0 -22 42 -57 79 -65 17 -4 57 -31 90 -61 33
-30 64 -49 70 -43 6 5 -24 42 -66 81 -76 69 -75 105 2 106 18 0 19 14 4 52
-31 82 47 127 107 63 39 -41 43 -123 6 -109 -43 17 -58 -16 -21 -47 34 -28 95
30 79 76 -5 13 9 34 30 45 51 27 117 -12 134 -80 6 -27 22 -63 34 -79 13 -18
14 -24 1 -16 -11 7 -34 4 -49 -5 -17 -11 -39 -9 -55 4 -34 28 -50 10 -50 -54
0 -40 -5 -46 -27 -28 -36 30 -95 6 -81 -32 15 -38 1 -37 -97 9 l-80 38 -7 -50
c-5 -40 -15 -49 -47 -40 -28 7 -35 4 -22 -9 11 -11 39 -21 63 -23 24 -2 43
-12 43 -23 0 -10 15 -35 33 -55 45 -50 5 -47 -60 4 -54 42 -61 39 -54 -28 3
-22 -4 -32 -17 -24 -12 7 -22 31 -22 53 0 22 -8 35 -19 29 -10 -6 -24 -3 -31
9 -7 11 -21 20 -31 20 -11 0 3 -36 30 -79 29 -46 42 -84 31 -91 -11 -7 -20 -2
-20 10 0 14 -16 18 -42 9 -36 -11 -40 -7 -29 29 10 30 -1 55 -40 91 -48 44
-50 52 -20 64 28 10 19 20 -42 48 -42 20 -83 31 -92 26 -26 -16 -16 -47 16
-47 17 0 26 -9 18 -21 -7 -11 -30 -15 -51 -8 -21 6 -56 6 -77 -1 -60 -19 -27
-67 56 -81 124 -20 159 -42 156 -96 -3 -41 -9 -46 -40 -29 -42 22 -101 6 -83
-24 23 -37 -63 -21 -159 31 -53 27 -112 45 -131 39 -22 -7 -58 8 -93 39 -56
49 -15 82 44 36 11 -8 10 -4 -1 9 -22 25 -79 34 -190 29 -77 -4 -48 -42 33
-43 59 0 105 -56 66 -81 -22 -14 -23 -18 -3 -19 18 0 22 -14 14 -40 -7 -22 -4
-40 8 -40 11 0 46 -28 78 -62 57 -61 58 -61 70 -19 9 37 -3 50 -72 81 l-83 37
105 -5 c58 -3 116 -17 130 -31 20 -21 15 -21 -23 -1 l-48 24 38 -52 c25 -37
51 -50 82 -45 36 6 41 2 23 -19 -12 -15 -28 -26 -35 -25 -65 9 -93 -7 -96 -55
-2 -29 -22 -72 -45 -95 l-42 -42 0 43 c0 24 -9 49 -20 56 -28 18 -25 105 5
115 13 4 -19 25 -71 45 -65 24 -94 46 -91 68 3 18 -7 55 -22 82 -25 46 -25 48
6 22 19 -15 40 -21 48 -14 31 31 -112 85 -168 64 -44 -17 13 -83 89 -102 47
-11 49 -16 19 -33 -19 -10 -35 -37 -35 -59 0 -34 -6 -36 -42 -17 -22 12 -56
16 -75 8 -30 -12 -29 -15 5 -28 80 -29 -221 -195 -303 -166 -32 11 -33 59 -1
70 39 13 0 75 -48 77 -25 0 -35 6 -21 11 37 15 31 61 -10 76 -32 13 -31 17 10
51 58 47 11 115 -55 80 -50 -27 -65 -54 -39 -71 12 -7 -16 -31 -62 -54 -89
-44 -135 -23 -99 45 25 46 299 180 370 180 152 1 132 44 -40 89 -131 34 -149
45 -104 62 17 7 52 1 77 -13 26 -14 72 -24 103 -21 30 2 75 -7 100 -21 94 -53
187 -76 264 -66 108 15 310 76 310 95 0 8 10 15 23 15 12 0 33 15 46 33 13 17
49 32 79 32 43 0 56 11 65 57 7 31 21 55 32 52 11 -2 39 29 63 68 64 111 158
231 195 250 19 10 85 48 147 85 62 37 118 62 124 56 37 -37 175 110 169 180
-4 47 1 67 15 58 12 -7 22 -4 22 7 0 11 -9 25 -20 32 -13 8 -9 24 10 43 56 56
25 102 -38 56 -28 -21 -34 -42 -24 -94 11 -58 4 -75 -53 -126 -35 -32 -49 -41
-31 -19 24 30 28 49 13 76 -13 24 -12 79 3 170 13 74 24 148 24 164 3 45 96
152 96 110 0 -29 3 -30 30 -3 17 17 30 40 30 51 0 11 14 16 30 9 17 -6 30 -19
30 -29z m-3259 -175 c44 -69 70 -120 57 -112 -14 9 -19 4 -13 -13 5 -15 20
-26 32 -23 13 3 44 -30 71 -72 61 -96 246 -252 492 -413 201 -132 492 -381
534 -455 13 -25 25 -38 25 -29 1 9 10 11 21 4 12 -8 9 -34 -11 -71 -37 -73
-58 -76 -40 -6 12 47 9 51 -38 42 -39 -7 -50 -2 -46 23 3 20 -8 31 -29 29 -29
-2 -31 5 -14 37 12 22 16 45 10 51 -7 6 -12 -1 -12 -17 0 -17 -6 -20 -15 -7
-8 11 -62 55 -120 96 -58 42 -100 85 -94 95 6 10 -10 18 -36 18 -26 0 -65 14
-86 32 -33 27 -34 30 -4 20 19 -6 35 -7 35 -3 0 16 -144 91 -159 82 -8 -5 -36
12 -62 40 -25 27 -39 49 -31 49 8 0 1 14 -15 30 -17 17 -48 30 -70 30 -22 0
-60 25 -83 55 -24 30 -90 105 -147 166 -129 140 -338 409 -357 460 -27 71 22
40 72 -47 47 -79 172 -217 172 -189 0 6 -40 59 -90 117 -49 58 -90 124 -89
147 1 50 15 34 140 -166z m-573 114 c31 -159 20 -173 -68 -87 -100 97 -103
138 -12 145 61 4 68 -1 80 -58z m-131 -152 c84 -83 100 -139 22 -81 -35 26
-89 44 -130 44 -75 0 -85 38 -12 48 23 4 43 15 43 25 0 30 17 22 77 -36z
m3057 -25 c36 -45 2 -63 -70 -35 -37 14 -64 38 -64 58 0 68 72 55 134 -23z
m-3097 -71 c72 -36 83 -59 22 -43 -36 9 -38 7 -15 -21 16 -21 17 -27 2 -19
-13 8 -29 6 -36 -6 -7 -11 6 -20 29 -20 44 0 59 -67 21 -90 -12 -7 -16 -21 -9
-31 6 -10 -3 -13 -20 -7 -17 7 -27 19 -21 27 5 9 -11 33 -35 53 -32 27 -37 28
-19 5 21 -27 21 -35 0 -42 -15 -5 15 -35 69 -70 219 -139 239 -277 26 -183
-84 37 -101 56 -163 184 -88 184 -88 329 0 255 20 -16 33 -14 52 9 30 36 21
36 97 -1z m1470 -49 c18 0 33 -10 33 -22 0 -13 -17 -18 -39 -13 -22 6 -43 -1
-49 -17 -6 -15 0 -29 14 -31 13 -2 34 -4 47 -5 25 -3 123 -50 162 -78 18 -14
12 -28 -25 -58 -63 -49 -63 -72 -2 -87 42 -11 46 -19 31 -82 -16 -71 -39 -113
-39 -70 0 13 -22 23 -49 23 -27 0 -55 10 -62 22 -10 16 -19 15 -30 -4 -23 -37
-159 58 -143 101 9 25 6 26 -18 7 -24 -19 -49 -6 -139 74 -113 100 -111 157 5
159 19 1 41 12 50 26 24 37 105 78 127 64 11 -6 19 -5 17 5 -7 43 5 49 39 19
20 -18 51 -33 70 -33z m1780 15 c32 -23 32 -26 -2 -47 -44 -28 -125 -1 -125
41 0 38 78 41 127 6z m-3478 -170 c33 -180 257 -354 441 -343 75 5 94 -2 129
-46 52 -66 53 -102 1 -40 -34 42 -46 44 -112 26 -63 -17 -79 -15 -101 14 -25
32 -28 32 -48 -1 -12 -20 -30 -31 -41 -24 -10 6 -13 20 -7 30 6 11 -1 19 -15
19 -99 0 -296 302 -296 452 0 41 38 -26 49 -87z m3396 66 c38 -16 77 -23 86
-15 8 8 10 4 3 -8 -14 -24 178 -115 206 -98 8 5 27 -4 40 -20 14 -17 40 -30
57 -30 29 -1 29 -3 3 -20 -44 -28 -60 -24 -61 15 0 22 -11 13 -28 -25 -24 -51
-28 -54 -29 -17 -2 42 -41 71 -107 78 -19 2 -84 38 -145 80 -141 97 -147 111
-25 60z m1235 -51 c0 -66 -29 -79 -57 -25 -22 44 -9 85 29 85 18 0 28 -22 28
-60z m-1227 -47 c32 -25 72 -52 91 -59 38 -13 126 -190 106 -211 -8 -7 -33 12
-58 42 -51 64 -92 71 -92 16 0 -21 -16 -48 -35 -60 -36 -22 -6 -63 63 -88 12
-4 16 -14 8 -22 -22 -25 -136 10 -136 41 0 16 -13 34 -30 41 -44 17 -38 33 40
116 39 40 70 83 70 93 0 11 -31 33 -70 49 -38 16 -70 43 -70 59 0 44 49 37
113 -17z m-2194 -247 c0 9 53 -28 116 -83 63 -55 139 -109 169 -121 98 -37
317 -191 307 -216 -9 -24 67 -88 134 -112 49 -18 45 -60 -5 -44 -45 14 -55
-27 -16 -66 31 -31 110 -31 121 0 5 15 13 10 21 -11 8 -21 6 -30 -6 -23 -32
20 -23 -13 14 -54 30 -34 31 -40 2 -69 -29 -29 -33 -28 -45 11 -19 58 -53 53
-122 -20 -33 -34 -88 -77 -123 -95 -36 -18 -90 -71 -120 -117 -31 -46 -119
-167 -197 -270 -78 -102 -162 -221 -189 -264 -45 -75 -48 -77 -67 -35 -15 33
-12 50 11 68 17 14 37 48 43 76 7 29 30 73 52 98 23 26 41 55 41 65 0 10 8 13
18 7 9 -6 55 32 101 84 116 132 113 127 126 222 12 93 59 143 118 128 20 -5
52 -3 72 6 19 9 43 16 53 17 33 3 97 108 82 133 -12 18 -25 13 -49 -19 -58
-78 -221 -55 -221 31 0 32 52 36 70 7 7 -12 22 -15 33 -8 28 17 -44 67 -98 67
-64 1 -102 86 -59 129 17 17 35 43 40 57 7 18 18 14 38 -13 26 -32 31 -33 41
-7 21 53 -71 110 -198 124 -33 4 -43 -1 -30 -14 11 -11 15 -32 10 -46 -6 -14
0 -45 13 -69 20 -37 16 -51 -21 -91 -51 -54 -43 -125 22 -190 30 -30 35 -49
20 -75 -19 -32 -20 -32 -20 0 -1 47 -50 26 -92 -38 -24 -36 -27 -56 -11 -72
16 -16 22 -10 22 21 0 31 9 40 30 32 16 -6 25 -19 19 -29 -6 -10 -1 -18 12
-18 15 0 19 -16 10 -45 -7 -25 -15 -58 -18 -75 -18 -124 -143 -260 -187 -203
-23 30 -25 30 -25 -2 -1 -47 -17 -44 -62 10 -20 25 -33 60 -28 77 6 18 1 56
-10 85 -13 34 -13 53 -1 53 11 0 20 17 20 39 0 52 30 67 77 39 44 -28 103 -12
103 28 0 28 -80 74 -130 74 -16 0 -46 19 -68 43 -54 58 -35 88 126 198 72 49
131 100 132 114 0 37 -36 30 -63 -12 -27 -44 -127 21 -108 71 5 14 -3 26 -20
26 -38 0 -37 35 1 73 34 34 40 118 10 137 -11 7 -37 -18 -60 -54 l-40 -66 0
55 c0 36 11 55 30 55 35 0 43 129 10 150 -11 7 -19 32 -19 56 2 42 2 43 19 4
9 -22 18 -33 19 -24z m792 -241 c-11 -29 -15 -29 -44 -1 -28 28 -27 37 6 88
l37 57 6 -56 c4 -31 1 -71 -5 -88z m1049 -52 c0 -147 -28 -271 -62 -275 -10
-2 -43 -5 -73 -6 -30 -2 -76 -11 -103 -20 -35 -12 -43 -10 -32 8 11 17 4 21
-23 12 -21 -7 -72 6 -116 30 -60 32 -100 40 -164 31 -187 -26 -96 53 290 251
292 149 283 150 283 -31z m285 112 c-13 -34 -69 -32 -116 4 -36 27 -33 29 43
25 57 -3 80 -12 73 -29z m-65 -111 c36 -31 59 -62 52 -69 -7 -7 -51 26 -98 73
-89 92 -64 90 46 -4z m1009 -26 c7 -29 8 -58 1 -64 -20 -21 -76 52 -63 84 18
48 47 38 62 -20z m-3134 -203 c-5 -41 -8 -7 -8 75 0 83 3 116 8 75 4 -41 4
-109 0 -150z m3430 -5 c-24 -22 -53 -40 -66 -40 -12 0 -35 -13 -52 -30 -16
-16 -39 -30 -50 -30 -34 0 -7 49 41 73 25 12 55 32 68 45 12 12 40 22 62 22
38 0 38 -1 -3 -40z m-275 -127 c60 -23 68 -31 34 -32 -26 -1 -41 -10 -34 -21
11 -17 -71 -11 -144 11 -36 11 -51 -25 -16 -38 17 -7 30 -30 30 -52 0 -50
-114 -60 -133 -11 -6 16 -18 26 -26 21 -22 -14 -66 92 -47 111 9 9 30 8 46 -3
19 -11 21 -18 6 -19 -14 0 -20 -13 -14 -29 9 -23 19 -24 49 -6 35 22 36 26 3
62 -33 38 -32 39 23 25 51 -12 55 -9 42 30 -13 41 -11 42 44 12 31 -17 93 -45
137 -61z m205 -33 c36 -22 65 -50 65 -63 0 -15 -12 -12 -35 7 -19 17 -62 45
-95 63 -33 17 -46 32 -30 32 17 1 59 -17 95 -39z m-192 -98 c14 21 16 17 8
-14 -7 -26 0 -53 21 -69 32 -27 49 -32 156 -47 73 -9 159 -172 91 -172 -11 0
-19 -13 -19 -30 0 -16 -10 -30 -21 -30 -12 0 -16 -17 -10 -38 8 -24 1 -42 -20
-50 -22 -8 -36 1 -43 26 -5 21 -27 43 -48 48 -25 7 -38 28 -38 63 0 46 -5 50
-39 32 -47 -26 -79 43 -40 90 34 41 7 96 -41 83 -47 -12 -55 42 -16 112 23 41
25 41 32 6 7 -31 12 -33 27 -10z m187 -23 c18 -81 -1 -97 -54 -44 -36 36 -38
48 -17 74 38 46 56 38 71 -30z m-698 -10 c-6 -15 -2 -33 9 -40 10 -6 19 -3 19
7 0 44 101 38 151 -9 28 -26 57 -47 64 -47 30 0 125 -110 125 -145 0 -36 -2
-36 -60 -2 -34 20 -57 47 -52 60 5 13 -3 34 -18 47 -35 29 -43 -25 -30 -206 6
-79 2 -145 -10 -157 -14 -15 -11 -19 9 -13 41 12 63 114 42 191 -21 78 8 87
76 24 47 -44 42 -78 -13 -81 -19 -2 -7 -8 26 -15 57 -13 160 -263 109 -263
-15 0 -94 99 -96 120 -2 32 -30 80 -45 80 -39 0 -16 -100 30 -130 26 -18 52
-49 58 -71 12 -48 85 -52 110 -7 19 34 54 -69 45 -131 -4 -24 0 -25 28 -2 60
50 79 -5 34 -102 -41 -88 -47 -86 -72 28 -9 42 -24 55 -61 55 -31 0 -50 11
-50 30 0 17 -9 30 -20 30 -11 0 -20 9 -20 20 0 39 -87 118 -143 131 -32 7 -52
21 -46 31 18 29 -1 21 -48 -19 -57 -50 -55 -55 25 -55 73 0 132 -36 132 -80 0
-16 -19 -27 -45 -27 -50 2 -140 35 -100 38 36 2 31 41 -5 41 -50 0 -34 -57 25
-89 51 -27 52 -29 11 -30 -24 -1 -57 18 -73 40 -17 25 -32 33 -37 18 -12 -38
-196 -51 -196 -14 0 47 56 82 131 84 81 1 80 0 29 55 -46 50 -28 84 56 107 51
14 49 16 -34 31 -109 21 -106 17 -117 138 -10 99 -45 142 -45 55 -1 -92 -26
-137 -93 -165 -67 -28 -93 -90 -37 -90 17 0 30 -8 30 -18 0 -42 -26 -82 -53
-82 -21 0 -26 -13 -16 -45 16 -53 44 -87 59 -71 20 20 45 216 27 216 -9 0 -17
14 -17 30 0 17 17 30 38 30 46 0 38 -207 -11 -304 -15 -30 -26 -62 -25 -70 6
-37 -3 -66 -22 -66 -11 0 -20 14 -20 30 0 17 -9 30 -20 30 -12 0 -16 -24 -10
-55 6 -32 4 -42 -5 -24 -22 44 -116 39 -112 -6 1 -19 -5 -35 -15 -35 -10 0
-18 -9 -18 -20 0 -11 19 -20 43 -20 23 0 54 -16 69 -35 24 -32 25 -31 15 10
-7 25 -26 46 -44 47 -23 1 -25 4 -7 12 15 5 43 -5 63 -23 32 -29 37 -29 48 -2
19 50 48 36 70 -34 26 -88 44 -342 25 -372 -15 -25 -302 -11 -302 15 0 7 -5
109 -10 227 -5 118 -3 215 5 215 25 0 63 99 43 111 -10 6 -18 2 -18 -10 0 -11
-10 -21 -23 -21 -31 0 -4 403 29 425 18 11 17 19 -3 33 -51 32 33 342 92 342
14 0 25 -4 25 -8 0 -5 5 -23 12 -40 8 -20 1 -32 -17 -32 -30 0 -33 -135 -4
-181 6 -11 -5 -19 -25 -19 -35 0 -40 -17 -47 -145 -1 -19 -10 -35 -21 -35 -12
0 -11 -15 2 -40 22 -42 108 -55 130 -20 7 11 -2 40 -19 64 -17 25 -31 34 -31
20 0 -13 -9 -24 -20 -24 -11 0 -20 19 -20 42 0 35 9 41 50 33 34 -6 50 0 50
18 0 15 -20 27 -45 27 l-45 1 50 40 c28 22 70 36 95 32 28 -5 45 3 45 19 0 44
45 127 63 116 33 -20 17 18 -18 43 -19 14 -28 33 -19 42 9 9 25 3 35 -14 15
-23 18 -21 19 13 0 67 42 169 63 156 11 -7 15 -24 9 -39z m-448 -259 c-12
-122 -19 -140 -54 -140 -27 -1 -40 -14 -39 -42 1 -32 -13 -41 -65 -45 -36 -2
-66 5 -66 16 0 12 22 21 49 21 36 0 47 8 38 30 -7 20 -27 26 -59 18 -29 -8
-48 -4 -48 10 0 12 22 22 49 22 27 0 55 10 62 22 10 16 19 14 31 -5 14 -21 17
-22 18 -1 0 15 9 21 19 15 10 -7 24 22 31 63 35 215 54 224 34 16z m-1119 9
c25 -22 63 -58 86 -80 22 -21 53 -39 68 -39 66 0 164 -152 112 -172 -16 -7
-35 -29 -42 -50 -6 -21 -20 -33 -31 -27 -10 7 -17 5 -14 -5 15 -45 -51 -147
-87 -135 -43 14 -46 3 -14 -49 33 -52 7 -102 -52 -102 -105 0 -26 -54 99 -68
11 -1 23 -22 26 -47 5 -34 -1 -42 -25 -33 -56 22 -33 -29 38 -83 68 -52 80
-85 42 -113 -11 -8 -31 10 -46 40 -25 54 -25 54 -17 4 13 -76 -17 -146 -36
-85 -28 87 -48 44 -38 -80 9 -101 6 -120 -14 -101 -14 13 -27 69 -28 125 -1
58 -10 98 -22 93 -11 -4 -17 -18 -14 -31 3 -14 -6 -21 -20 -16 -14 4 -29 26
-33 47 -13 65 -83 94 -83 33 1 -30 3 -31 20 -5 16 25 19 23 20 -12 0 -22 23
-62 50 -88 31 -29 46 -61 40 -82 -6 -18 4 -66 23 -106 26 -55 29 -78 11 -96
-17 -17 -33 -1 -64 66 -38 81 -44 60 -9 -32 27 -71 -25 -7 -90 110 -33 61 -60
103 -61 94 0 -26 118 -250 140 -264 11 -7 20 -55 19 -106 l0 -94 -49 55 c-66
76 -69 71 -27 -53 31 -93 33 -125 14 -221 -21 -103 -72 -151 -64 -60 2 20 -10
47 -28 60 -17 13 -26 31 -21 41 21 35 -17 95 -65 102 -60 8 -108 65 -79 94 25
25 27 152 2 152 -10 0 -22 -11 -27 -25 -5 -14 -20 9 -34 51 -21 66 -20 82 7
111 28 32 27 38 -11 71 -45 38 -75 19 -77 -48 -1 -23 -7 -21 -23 7 -16 27 -15
50 3 83 55 103 -3 197 -80 130 l-46 -40 -28 54 c-37 71 -21 106 43 94 38 -6
51 0 51 24 0 18 -11 28 -26 22 -34 -13 -77 54 -62 95 15 37 61 41 75 6 7 -19
15 -18 31 5 29 41 118 -54 135 -145 7 -36 51 -146 99 -245 47 -99 90 -207 95
-240 12 -81 33 -130 56 -130 11 0 10 15 -2 37 -10 21 -25 68 -31 105 -22 127
-47 197 -88 250 -23 30 -42 69 -42 87 0 19 -6 41 -14 48 -19 19 -26 73 -9 73
7 -1 35 -23 61 -51 26 -28 57 -47 69 -43 32 10 40 54 10 54 -54 0 -137 89
-137 145 0 181 -5 172 71 123 43 -29 49 -29 49 -2 0 17 -10 34 -23 38 -24 8
-6 96 20 96 8 0 30 -27 50 -60 40 -68 83 -81 67 -20 -11 41 14 55 36 20 27
-44 47 -16 27 39 -27 79 59 168 148 152 40 -7 55 -2 55 20 0 16 -13 29 -28 29
-47 0 -99 156 -64 191 16 16 39 29 51 29 11 0 21 10 21 22 0 12 -13 17 -30 11
-19 -8 -30 0 -30 23 -1 29 -6 28 -35 -8 -38 -47 -226 -65 -285 -28 -23 15 -18
19 23 20 29 0 58 14 64 30 7 19 38 30 82 30 39 0 71 8 71 18 0 19 -60 51 -85
45 -19 -4 -20 26 -2 44 25 24 66 14 112 -28z m626 -107 c-4 -42 50 -92 100
-92 23 0 5 48 -26 72 -31 24 -28 27 30 27 71 1 82 -25 34 -88 -43 -57 -36 -73
22 -51 29 11 56 20 60 20 19 0 7 -73 -21 -128 -17 -31 -36 -92 -43 -135 -7
-42 -21 -77 -32 -77 -10 0 -14 14 -8 30 8 20 0 30 -24 30 -47 0 -67 -21 -46
-48 10 -12 34 -85 53 -162 20 -77 46 -152 57 -167 12 -15 24 -46 27 -70 5 -36
38 -119 61 -152 3 -4 19 9 35 30 31 42 41 19 31 -74 -1 -19 7 -40 19 -47 15
-9 20 39 16 162 l-6 176 -70 17 c-75 20 -145 71 -130 95 5 9 69 -4 142 -27
l133 -43 -11 -206 c-7 -113 -21 -234 -32 -270 -95 -307 -147 -447 -179 -479
-27 -27 -32 7 -6 36 24 27 143 364 143 405 0 40 -104 -170 -110 -222 -2 -19
-13 -45 -25 -57 -28 -28 -71 -1 -57 36 7 16 -2 49 -18 74 -52 80 -51 208 2
198 24 -5 49 1 57 13 7 12 1 22 -13 22 -27 0 -96 68 -96 93 0 7 17 -3 39 -22
47 -43 81 -25 81 43 0 43 -5 47 -30 26 -25 -20 -30 -19 -30 8 0 18 -11 38 -25
43 -14 5 -26 48 -28 97 -3 66 -21 110 -75 181 -83 109 -94 161 -30 140 31 -10
40 -6 33 14 -5 15 -25 26 -44 24 -22 -2 -30 7 -23 26 7 16 3 24 -6 18 -22 -14
-82 7 -82 29 0 8 40 25 89 38 112 28 119 41 63 111 -38 48 -51 53 -83 35 -37
-21 -36 -23 9 -23 27 -1 43 -7 36 -13 -27 -28 -113 12 -100 45 9 23 5 29 -11
19 -38 -23 -26 -1 20 40 24 21 37 27 29 13 -9 -16 -3 -25 17 -25 28 0 29 7 1
72 -37 90 -39 81 20 96 27 7 49 19 48 27 -4 23 1 45 10 45 5 0 6 -22 3 -48z
m-197 -42 c107 -14 112 -59 17 -135 -79 -63 -91 -66 -91 -24 0 16 16 36 35 43
83 31 41 103 -61 105 -21 1 -31 10 -23 22 7 12 28 16 46 8 18 -8 53 -16 77
-19z m-638 -84 c19 -18 32 -36 29 -40 -26 -34 10 -35 77 -3 92 45 111 36 130
-58 15 -76 -59 -109 -143 -65 -33 18 -97 22 -223 13 l-176 -13 75 65 c41 36
75 76 75 88 0 52 109 61 156 13z m1304 -29 c0 -36 -15 -74 -35 -90 -33 -26
-33 -28 0 -48 108 -65 26 -212 -115 -207 -154 6 -182 10 -155 21 14 6 25 37
25 69 0 44 9 58 39 58 26 0 36 10 29 28 -7 17 14 47 51 74 33 25 62 60 62 77
1 22 6 20 17 -8 13 -33 17 -30 28 25 17 82 54 83 54 1z m1000 13 c14 -16 33
-30 44 -30 10 0 34 -15 51 -33 31 -30 30 -31 -11 -18 -28 8 -44 5 -44 -9 0
-12 7 -18 16 -12 9 5 29 1 45 -9 23 -14 20 -18 -15 -19 -40 0 -166 110 -166
145 0 26 54 16 80 -15z m-2291 -189 c-51 -51 -75 -81 -118 -147 -43 -66 -102
-71 -118 -9 -9 35 -17 39 -36 20 -18 -18 -19 -36 0 -76 l23 -51 -90 13 c-57 9
-90 6 -90 -7 0 -11 -40 -34 -90 -51 -121 -41 -114 -32 47 64 182 108 222 154
118 138 -89 -15 -90 -12 -24 54 54 54 100 63 149 30 26 -17 25 -24 -9 -49 -37
-29 -36 -30 16 -30 32 0 76 21 106 52 43 43 108 81 146 87 5 0 -9 -17 -30 -38z
m684 9 c0 -21 -12 -27 -37 -19 -31 10 -36 4 -28 -39 5 -29 1 -52 -9 -52 -11 0
-19 18 -19 40 0 22 -9 40 -20 40 -11 0 -20 9 -20 19 0 11 14 15 30 8 17 -6 30
-1 30 11 0 12 17 22 37 22 20 0 36 -14 36 -30z m1337 -134 c22 1 54 -15 70
-36 17 -22 50 -42 74 -46 66 -9 137 -107 105 -145 -35 -43 -51 -37 -96 41 -23
39 -49 68 -57 66 -9 -3 -40 11 -70 31 -93 62 -123 38 -73 -59 29 -57 52 -80
75 -74 18 4 60 -6 92 -23 33 -17 75 -31 94 -31 50 0 67 -77 25 -108 -25 -18
-28 -30 -12 -40 34 -21 29 -93 -6 -80 -20 8 -30 -7 -35 -55 l-6 -67 -52 107
c-28 58 -59 103 -68 100 -9 -4 -19 15 -23 41 -9 58 -42 102 -76 102 -38 0 -97
-75 -80 -102 9 -14 0 -35 -20 -50 -38 -28 -26 -68 20 -68 16 0 29 -11 29 -25
1 -17 7 -15 20 5 16 24 19 21 20 -16 0 -28 9 -41 21 -33 12 7 17 25 12 39 -6
15 3 32 19 38 16 6 35 -2 41 -18 6 -16 19 -25 29 -19 10 6 18 -30 18 -81 0
-57 8 -88 20 -80 12 7 15 21 9 31 -6 11 -6 19 1 19 7 0 25 -31 41 -70 32 -76
89 -95 89 -30 0 22 11 41 25 42 17 1 18 4 2 11 -16 6 -14 26 7 70 21 40 24 67
11 80 -28 28 -7 94 34 107 19 6 69 42 112 79 89 79 83 79 91 1 4 -33 13 -70
22 -81 13 -19 79 -357 70 -360 -101 -36 -99 -46 11 -48 130 -1 137 6 61 71
l-54 46 129 -30 c71 -17 153 -34 183 -38 83 -12 216 -55 216 -70 0 -8 36 -24
79 -37 52 -16 76 -33 69 -51 -5 -14 13 -41 41 -60 54 -35 68 -72 27 -72 -13 0
-57 23 -98 52 -41 28 -141 73 -221 99 -81 26 -133 48 -117 49 24 1 23 6 -5 22
-49 28 -200 14 -211 -20 -5 -16 0 -22 12 -14 24 14 204 -67 204 -92 0 -8 61
-47 135 -86 117 -61 126 -70 65 -61 l-70 10 70 -32 c39 -17 93 -41 120 -52
103 -44 -19 -39 -165 6 -242 74 -396 176 -369 245 7 18 -8 38 -38 51 -40 19
-48 17 -48 -11 0 -29 -6 -28 -45 7 -42 38 -140 61 -130 31 6 -16 -13 -24 -55
-24 -16 0 -30 9 -30 20 0 11 14 20 31 20 17 0 26 8 20 18 -6 10 -4 22 4 25 26
12 105 134 103 161 -1 20 -3 20 -11 1 -19 -47 -52 -26 -39 25 10 41 5 50 -28
50 -34 0 -40 -13 -40 -90 0 -63 -12 -102 -40 -130 -22 -22 -40 -53 -40 -70 0
-16 -8 -30 -19 -30 -10 0 -21 -20 -25 -45 -3 -25 -23 -48 -46 -52 -51 -10 -87
-60 -75 -105 10 -39 -54 -161 -77 -147 -9 5 -21 0 -28 -11 -24 -39 -50 3 -50
81 0 44 -9 79 -20 79 -11 0 -20 -26 -20 -58 0 -33 -13 -63 -30 -69 -16 -7 -30
-26 -30 -44 0 -17 -10 -25 -22 -18 -15 10 -15 20 0 35 12 12 22 36 22 53 -1
27 -3 27 -20 1 -16 -25 -20 -23 -22 10 -2 36 -4 36 -12 4 -9 -36 -10 -36 -39
0 -21 26 -32 29 -40 11 -11 -28 -47 -15 -47 17 0 11 9 15 21 8 13 -9 16 6 7
43 -20 84 -33 99 -50 56 -15 -38 -15 -38 -17 1 0 22 -19 85 -42 140 -36 89
-39 92 -30 30 9 -56 3 -75 -30 -96 -40 -25 -41 -23 -28 63 10 70 6 93 -19 107
-52 29 -21 146 38 146 52 0 75 43 58 109 -8 35 -1 48 30 56 57 15 75 71 33
102 -29 21 -33 44 -21 139 17 134 50 154 41 25 -5 -76 -1 -88 31 -85 22 1 38
18 38 38 0 20 14 36 31 36 23 0 28 -13 20 -45 l-11 -45 23 46 c41 80 1 148
-108 183 -52 17 -92 39 -89 50 10 30 160 68 224 56 33 -6 78 -10 100 -9z
m-1487 -69 c91 -31 157 -65 157 -80 0 -33 0 -33 -87 3 -100 42 -104 39 -43
-33 112 -133 310 -588 278 -640 -8 -14 -6 -18 7 -10 75 46 49 -335 -30 -450
-71 -103 -146 -176 -111 -107 11 22 27 75 35 119 10 55 19 70 31 50 15 -23 60
45 60 90 0 19 -100 22 -102 3 -18 -174 -54 -293 -103 -347 -23 -25 -36 -51
-28 -58 26 -27 277 123 366 219 107 114 103 115 120 -43 12 -114 47 -175 47
-82 0 23 14 68 31 101 17 32 26 67 19 78 -6 10 7 28 29 40 29 15 41 42 41 90
0 37 9 73 20 80 12 7 16 21 10 30 -6 9 0 24 13 32 32 20 77 -48 77 -116 0 -31
9 -56 21 -56 13 0 18 48 15 124 -5 105 -1 126 29 132 28 5 35 -7 35 -60 1
-112 159 -313 252 -321 55 -4 104 -61 154 -175 l31 -70 2 80 2 80 41 -55 c51
-68 70 -69 86 -5 7 27 26 50 41 50 16 0 38 16 49 35 17 32 25 30 83 -25 40
-38 68 -51 73 -36 11 30 65 11 116 -41 66 -69 24 -453 -50 -453 -7 0 -13 -13
-13 -30 0 -16 7 -30 16 -30 10 0 17 -10 17 -23 0 -16 -67 -19 -245 -9 -163 9
-235 7 -215 -6 19 -13 -116 -17 -400 -9 -307 7 -421 4 -400 -11 36 -26 -335
-29 -485 -4 -52 9 -95 8 -95 -1 0 -9 -36 -17 -80 -17 -44 0 -80 -9 -80 -20 0
-11 -46 -20 -101 -20 -63 0 -97 8 -89 20 7 11 3 20 -9 20 -11 0 -21 -8 -21
-19 0 -10 -34 -22 -75 -27 -103 -12 -10 -15 455 -17 308 -1 330 -3 180 -17
-93 -9 -243 -17 -333 -18 -118 -1 -166 -10 -173 -29 -8 -20 -72 -32 -217 -42
-114 -8 -218 -23 -230 -34 -13 -11 -67 -17 -120 -13 l-97 6 92 70 c51 39 114
99 140 134 31 42 60 61 81 54 25 -7 31 0 24 27 -6 25 7 46 42 64 28 15 51 36
51 45 0 10 19 7 42 -5 31 -16 39 -17 29 -1 -7 12 1 28 18 34 17 7 31 34 31 60
0 29 12 48 30 48 17 0 30 9 30 20 0 12 21 15 52 8 59 -15 67 69 8 89 -27 8
-27 5 0 -29 27 -34 27 -36 -2 -13 -18 14 -31 46 -29 70 2 25 -4 65 -12 90 -9
24 -9 44 -1 42 41 -6 48 6 16 29 -34 25 -34 29 -3 60 18 19 28 42 22 53 -16
26 11 281 29 281 9 0 20 -18 26 -40 12 -48 74 -33 70 17 -7 90 5 123 45 123
36 0 39 9 30 90 -11 91 11 119 45 57 14 -25 22 -9 33 65 20 135 62 77 81 -113
16 -155 34 -175 61 -66 18 72 69 118 69 63 0 -14 18 -38 40 -51 46 -29 49 -20
18 39 -19 36 -18 40 10 30 21 -8 32 -2 32 18 0 21 -12 27 -38 19 -33 -11 -47
11 -99 143 -73 190 -236 523 -278 571 -41 46 -28 45 158 -18z m1839 -135 c-23
-24 -43 -62 -43 -83 -2 -38 -2 -38 -18 1 -19 49 -6 90 29 90 14 0 31 20 39 45
9 30 17 36 24 19 6 -15 -8 -47 -31 -72z m563 -436 c30 -11 50 -28 45 -36 -6
-9 17 -26 50 -37 33 -12 60 -31 60 -44 0 -16 -9 -17 -25 -5 -14 10 -90 44
-170 75 -80 32 -145 66 -145 76 0 20 98 5 185 -29z m-1594 -65 c74 -80 74
-176 -1 -185 -70 -9 -169 -114 -169 -180 -1 -53 -65 -124 -78 -86 -4 13 1 30
12 37 11 7 26 51 34 98 8 47 21 85 29 85 8 0 31 56 51 125 54 182 52 181 122
106z m1340 -356 c12 -64 9 -74 -19 -63 -40 15 -42 -19 -3 -58 18 -18 38 -111
52 -246 25 -223 76 -385 145 -454 28 -28 32 -44 16 -60 -16 -16 -28 -16 -45 1
-26 26 -60 0 -84 -64 -14 -36 -18 -34 -51 20 -25 41 -31 70 -19 94 10 19 12
35 5 35 -8 0 2 18 22 40 39 43 14 100 -42 100 -30 0 -36 36 -16 88 7 18 20 27
30 21 10 -6 18 5 18 25 0 20 -18 48 -40 61 -22 14 -40 18 -40 9 0 -10 -14 -17
-31 -17 -22 0 -29 15 -25 51 4 31 -9 66 -31 86 -45 42 -28 76 32 62 34 -7 38
-5 17 10 -23 17 -22 22 10 29 21 6 13 6 -19 3 -99 -13 -155 47 -116 127 18 38
42 62 56 56 14 -5 31 0 38 10 6 11 20 14 30 8 11 -6 19 -3 19 7 0 10 -40 34
-90 53 -49 19 -90 42 -90 51 0 33 42 44 71 19 23 -19 29 -18 29 7 0 106 149 9
171 -111z m-2891 -18 c0 -12 16 -35 35 -49 28 -22 30 -31 8 -45 -30 -20 1
-103 38 -103 11 0 28 -22 38 -49 12 -31 39 -51 75 -57 50 -7 49 -8 -14 -12
-66 -3 -68 -5 -26 -28 64 -36 55 -63 -22 -64 -49 0 -63 7 -50 22 13 16 -2 27
-47 37 l-65 15 70 26 c66 26 67 27 16 28 -49 2 -55 12 -76 117 -12 63 -27 131
-33 150 -6 23 1 35 22 35 17 0 31 -10 31 -23z m3025 -16 c15 -22 79 -59 142
-83 109 -42 112 -46 80 -81 -44 -49 -45 -49 -170 35 -157 107 -174 125 -137
148 43 28 54 25 85 -19z m-2785 -436 c-1 -32 -37 -69 -56 -58 -11 7 -26 -3
-33 -22 -13 -33 -15 -33 -34 1 -18 33 -22 32 -58 -10 -38 -45 -39 -46 -69 -7
-29 37 -26 42 35 74 65 35 215 50 215 22z m52 -96 c-7 -27 -21 -49 -30 -49
-24 0 -17 107 8 124 27 20 37 -15 22 -75z m-271 -81 c60 -62 89 -102 64 -90
-25 13 -45 15 -45 6 0 -18 -185 34 -209 59 -33 33 53 30 117 -4 91 -50 107
-49 62 1 -20 22 -51 40 -69 40 -20 0 -34 19 -36 50 -6 65 -11 68 116 -62z
m2781 47 c-1 -8 -2 -28 -2 -45 0 -16 -9 -30 -20 -30 -11 0 -20 23 -20 52 0 28
10 48 22 44 11 -4 20 -14 20 -21z m-2966 -239 c6 3 14 -9 16 -26 5 -32 -18
-25 -77 26 -19 17 -35 39 -35 50 0 11 19 3 42 -18 23 -21 47 -36 54 -32z
m2999 -59 c0 -77 -2 -80 -25 -37 -17 31 -29 38 -39 22 -11 -18 -23 -14 -44 12
-28 34 -29 33 -20 -9 6 -29 0 -45 -17 -45 -74 0 -28 127 57 159 61 23 88 -7
88 -102z m-3058 -75 c13 -37 23 -76 23 -85 0 -16 -77 18 -100 44 -5 7 -26 18
-45 25 -46 17 -44 38 10 97 51 57 69 44 112 -81z m-77 -96 c0 -4 -17 2 -38 13
-28 15 -41 14 -47 -4 -10 -29 -75 15 -75 50 0 11 14 9 30 -5 17 -14 37 -20 44
-13 7 7 2 13 -11 13 -12 0 -23 9 -23 21 0 11 27 0 60 -24 33 -25 60 -48 60
-51z m-182 -74 c44 -53 134 -78 185 -51 39 20 43 19 22 -3 -14 -14 -25 -42
-25 -62 0 -59 -87 -88 -143 -47 l-47 33 52 -12 c38 -9 56 -4 65 19 12 31 -93
91 -159 91 -30 0 -37 24 -15 47 21 20 40 16 65 -15z m-3 -151 c18 -29 15 -44
-13 -74 -19 -21 -52 -63 -72 -93 -28 -44 -141 -114 -182 -114 -37 0 3 107 53
144 41 30 58 57 52 81 -8 29 -1 34 29 24 22 -6 38 -5 36 4 -11 67 60 87 97 28z
m270 26 c-42 -17 -28 -67 20 -69 58 -3 -50 -33 -125 -34 -50 -1 -50 -1 -5 20
24 12 49 38 56 59 6 20 27 36 45 35 21 -1 24 -5 9 -11z m-540 -31 c-50 -24
-63 -62 -15 -43 55 21 36 -88 -22 -126 -28 -19 -60 -57 -71 -85 -18 -48 -22
-49 -45 -17 -14 19 -32 28 -40 20 -8 -7 -22 -2 -31 13 -12 19 8 52 63 106 114
112 86 123 -89 33 -28 -14 -35 -9 -35 23 0 45 3 47 150 75 147 29 193 29 135
1z"/>
<path d="M3588 7231 c-15 -38 32 -95 126 -154 37 -22 82 -69 100 -104 27 -50
36 -56 42 -27 4 20 -7 58 -24 84 -29 45 -29 48 0 36 23 -8 30 -2 25 24 -11 57
-253 183 -269 141z"/>
<path d="M3620 7004 c2 -64 55 -154 93 -156 41 -2 42 1 19 68 -21 60 -113 132
-112 88z"/>
<path d="M3586 6764 c-34 -46 -37 -62 -16 -90 46 -64 102 -17 91 76 -8 68 -32
73 -75 14z"/>
<path d="M3783 6795 c-32 -32 -29 -108 5 -122 30 -11 52 25 52 87 0 48 -27 65
-57 35z"/>
<path d="M4047 6585 c-39 -95 -67 -241 -53 -277 9 -26 5 -32 -17 -23 -23 9
-29 0 -22 -35 17 -89 -77 -407 -101 -343 -7 18 -5 37 5 42 9 6 13 45 7 87 -7
53 -1 83 20 101 16 13 25 42 20 64 -6 21 -3 39 7 39 9 0 18 22 20 50 3 49 -31
59 -87 24 -13 -8 -29 -5 -36 6 -7 11 -22 15 -33 8 -11 -6 -32 5 -48 25 -23 31
-28 32 -28 5 -1 -40 65 -102 100 -94 38 9 46 -54 12 -88 -18 -19 -23 -40 -11
-59 9 -18 9 -56 -2 -89 -10 -32 -24 -83 -30 -113 -13 -66 -64 -73 -76 -10 -7
39 -9 37 -11 -10 -2 -42 -13 -55 -45 -55 -36 0 -41 -9 -32 -55 10 -51 8 -52
-18 -16 -26 36 -28 35 -28 -19 0 -82 -32 -38 -48 65 -9 65 -6 85 15 85 30 0 4
133 -48 245 -50 107 -71 74 -29 -45 42 -119 38 -134 -22 -78 l-53 48 16 -70
c9 -38 18 -115 20 -170 2 -55 13 -125 26 -156 13 -31 23 -65 23 -74 0 -24 187
70 220 110 14 16 36 30 50 30 14 0 30 12 36 27 6 15 36 33 67 39 105 23 187
88 187 149 -1 43 -5 48 -20 25 -15 -23 -19 -14 -20 36 0 39 8 61 20 54 12 -8
20 31 20 104 0 64 18 175 40 246 47 152 45 146 20 130 -11 -7 -20 -3 -20 9 0
11 10 21 21 21 12 0 16 8 10 18 -6 10 0 23 14 29 17 7 16 10 -5 11 -17 1 -40
-23 -53 -53z"/>
<path d="M3653 6607 c-7 -8 -13 -31 -13 -52 0 -20 -9 -32 -20 -25 -26 16 -25
8 11 -100 17 -50 25 -100 19 -110 -7 -11 -4 -20 7 -20 10 0 25 42 32 93 8 51
24 109 36 128 32 51 -31 126 -72 86z"/>
<path d="M3505 6425 c-34 -11 6 -85 46 -85 16 0 29 -10 29 -23 0 -13 6 -18 12
-11 20 20 -59 129 -87 119z"/>
<path d="M4507 6357 c-22 -25 -28 -45 -15 -53 11 -8 40 -43 65 -79 48 -68 123
-88 123 -34 0 17 -9 26 -20 19 -11 -7 -15 1 -8 18 6 17 4 42 -5 56 -16 25 -19
35 -24 74 -6 37 -82 37 -116 -1z"/>
<path d="M4685 6264 c2 -20 19 -37 39 -39 42 -3 46 17 12 51 -34 34 -54 30
-51 -12z"/>
<path d="M4420 6195 c0 -78 29 -114 80 -101 46 12 17 116 -42 147 -34 18 -38
13 -38 -46z"/>
<path d="M3711 5541 c-7 -11 -24 -15 -38 -9 -31 11 -86 -46 -65 -67 8 -8 23
-1 33 16 10 16 19 19 19 7 0 -42 57 -21 66 25 9 50 4 59 -15 28z"/>
<path d="M731 5901 c-18 -29 56 -62 90 -40 25 17 25 22 -1 39 -38 25 -74 25
-89 1z"/>
<path d="M749 5798 c-14 -22 25 -78 53 -78 10 0 18 17 18 38 0 42 -52 71 -71
40z"/>
<path d="M852 5563 c-6 -10 4 -31 22 -46 29 -23 31 -23 17 1 -13 22 -9 26 17
15 24 -9 33 -5 27 12 -10 31 -67 44 -83 18z"/>
<path d="M3560 5089 c0 -21 55 -67 67 -56 6 7 38 2 72 -10 78 -27 87 19 10 54
-53 24 -149 32 -149 12z"/>
<path d="M4280 5180 c-55 -30 -61 -38 -28 -39 23 -1 48 -8 56 -16 9 -8 24 -16
34 -17 10 -2 27 -4 38 -5 11 -2 20 -28 20 -58 0 -30 9 -68 20 -85 17 -26 19
-26 20 3 0 34 30 38 73 11 67 -41 122 72 59 124 -36 30 -60 -52 -28 -97 13
-17 -24 16 -82 73 -58 57 -100 114 -92 125 18 31 -11 24 -90 -19z"/>
<path d="M4429 5178 c-8 -12 8 -44 35 -71 l48 -48 -8 70 c-8 70 -47 95 -75 49z"/>
<path d="M4069 4451 c-37 -28 -37 -30 16 -30 36 -1 55 9 55 29 0 38 -22 38
-71 1z"/>
<path d="M3772 3988 c-6 -15 -25 -28 -41 -28 -37 0 -40 -23 -7 -56 30 -30 96
-31 96 -2 0 13 18 18 40 12 31 -8 38 -1 33 32 -8 51 -105 85 -121 42z"/>
<path d="M3330 3787 c40 -62 89 -105 119 -106 11 -1 -1 13 -26 31 -28 20 -43
48 -39 75 5 32 -6 45 -43 50 l-48 7 37 -57z"/>
<path d="M2628 3572 c-17 -44 4 -92 41 -92 40 0 40 68 1 100 -24 20 -32 18
-42 -8z"/>
<path d="M1697 4805 c-93 -12 -82 -165 12 -165 7 0 8 22 3 49 -7 36 1 53 29
61 77 25 43 66 -44 55z"/>
<path d="M1469 3798 c-8 -12 6 -41 29 -65 47 -47 81 -25 82 52 0 40 -88 50
-111 13z"/>
<path d="M1445 3458 c-52 -19 -54 -30 -17 -96 l26 -48 43 43 c69 69 35 134
-52 101z"/>
<path d="M4624 3465 c3 -19 27 -38 52 -42 45 -6 45 -5 11 35 -44 51 -72 54
-63 7z"/>
<path d="M4108 3551 c-7 -16 -5 -41 4 -55 13 -21 10 -21 -15 -1 -27 22 -30 18
-22 -27 10 -48 7 -50 -31 -30 -23 12 -46 15 -51 7 -17 -28 11 -125 37 -125 14
0 31 -15 38 -32 10 -26 3 -30 -38 -20 -27 7 -50 5 -50 -5 0 -28 50 -42 81 -22
16 10 38 8 52 -4 19 -15 24 -3 21 51 -2 44 -14 72 -30 72 -20 0 -19 8 5 31 17
18 31 66 31 110 0 81 -13 101 -32 50z"/>
<path d="M3558 2995 c-34 -77 -8 -135 59 -134 62 0 68 4 41 25 -18 13 -39 44
-46 69 -12 37 -45 61 -54 40z"/>
<path d="M3730 2600 c-8 -13 -32 -19 -53 -13 -25 6 -36 1 -31 -14 5 -12 20
-20 34 -17 13 3 37 -5 52 -18 21 -17 30 -15 40 11 16 41 -21 86 -42 51z"/>
<path d="M3660 2480 c-50 -12 -69 -60 -29 -74 28 -9 96 43 87 67 -5 11 -30 14
-58 7z"/>
<path d="M2228 2591 c-7 -17 -31 -31 -54 -31 -66 0 -7 -46 61 -48 49 -2 56 5
49 43 -11 58 -41 77 -56 36z"/>
<path d="M3088 3123 c7 -38 12 -79 12 -93 0 -14 14 -31 30 -37 46 -18 37 87
-12 147 l-41 50 11 -67z"/>
<path d="M3308 2927 c-26 -27 -47 -60 -46 -73 1 -17 4 -17 11 -1 5 12 25 19
44 13 20 -5 48 5 62 23 14 17 43 31 65 31 53 0 28 33 -35 45 -37 7 -66 -4
-101 -38z"/>
<path d="M4658 2416 c-13 -25 -34 -53 -46 -62 -12 -8 5 -9 38 -2 73 16 65 10
73 56 10 56 -36 62 -65 8z"/>
<path d="M4187 2235 c-19 -31 17 -97 50 -91 54 10 56 115 3 110 -24 -1 -47
-10 -53 -19z"/>
<path d="M3961 2201 c-53 -98 33 -212 90 -120 8 14 22 13 42 -3 21 -18 23 -28
5 -39 -13 -8 -17 -24 -10 -36 19 -31 92 17 92 60 0 31 -52 67 -86 60 -9 -2
-25 24 -37 57 -24 69 -66 78 -96 21z"/>
<path d="M4278 2065 c-21 -56 -6 -92 33 -77 14 5 31 -1 36 -14 7 -16 10 -15
11 4 1 15 18 39 37 53 28 21 30 31 10 51 -43 44 -107 36 -127 -17z"/>
<path d="M4094 1946 c-31 -49 25 -119 88 -110 60 9 66 19 46 72 -24 64 -82 31
-69 -38 3 -13 -3 -13 -16 0 -10 11 -22 38 -27 60 -4 26 -12 32 -22 16z"/>
<path d="M2912 1905 c15 -61 83 -145 118 -145 45 0 8 122 -42 141 -27 10 -48
27 -48 39 0 11 -9 20 -20 20 -12 0 -15 -22 -8 -55z"/>
<path d="M4176 1299 c-45 -44 -58 -73 -51 -111 8 -39 -2 -56 -45 -78 -125 -65
-86 -160 59 -144 134 15 267 190 172 226 -26 10 -25 18 2 60 69 105 -41 143
-137 47z m115 0 c17 -29 -28 -79 -73 -79 -26 0 -33 -10 -24 -33 9 -23 5 -29
-11 -19 -31 20 -29 55 8 108 33 47 78 58 100 23z m18 -138 c39 -63 -181 -209
-240 -160 -40 33 15 99 84 99 57 0 62 -40 7 -54 -39 -10 -57 -46 -23 -46 32 0
107 97 93 121 -9 13 -3 31 12 41 36 23 53 22 67 -1z"/>
<path d="M4341 1205 c2 -46 59 -90 87 -67 19 16 33 17 41 3 23 -36 64 -23 87
29 15 32 16 50 3 50 -11 0 -26 -14 -32 -31 -11 -27 -16 -27 -48 2 -33 29 -37
29 -56 -5 -19 -34 -21 -34 -34 -1 -13 34 -50 49 -48 20z"/>
<path d="M4328 918 c-5 -10 35 -18 91 -18 55 0 101 7 101 15 0 21 -178 24
-192 3z"/>
<path d="M4732 1670 c18 -27 47 -50 65 -50 24 0 19 13 -21 50 -30 28 -59 50
-66 50 -6 0 4 -22 22 -50z"/>
<path d="M2903 7098 c-26 -10 -74 -41 -107 -68 -32 -28 -80 -50 -106 -50 -26
0 -53 -9 -60 -20 -7 -11 0 -20 15 -20 19 0 26 -19 22 -55 -5 -43 10 -68 67
-115 49 -40 69 -49 61 -26 -9 24 -5 31 16 23 25 -10 42 33 24 61 -3 4 13 27
35 52 37 41 37 44 4 63 -33 18 -30 26 25 89 34 38 61 74 61 79 0 11 2 11 -57
-13z"/>
<path d="M2800 6590 c0 -33 -4 -35 -20 -10 -17 26 -19 26 -20 -3 0 -42 45 -79
74 -61 16 10 15 28 -5 64 -25 44 -28 46 -29 10z"/>
<path d="M2794 6352 c-6 -15 0 -39 13 -52 18 -20 17 -23 -2 -12 -60 34 -18 -8
46 -46 93 -55 101 -53 59 11 -32 49 -32 52 -1 40 53 -20 15 24 -48 57 -47 24
-59 24 -67 2z"/>
<path d="M1000 5936 c0 -33 6 -38 23 -21 22 22 135 -36 154 -80 3 -8 26 -25
50 -36 24 -12 -6 24 -67 80 -120 110 -160 124 -160 57z"/>
<path d="M2044 5247 c4 -10 -2 -18 -12 -20 -72 -14 -59 -229 19 -296 57 -49
119 -47 100 3 -31 82 -31 127 -1 186 28 54 29 69 7 90 -33 31 -120 59 -113 37z"/>
<path d="M3046 5165 c-19 -54 -69 -105 -102 -105 -16 0 -42 16 -58 35 -26 32
-28 29 -18 -31 6 -36 1 -106 -13 -156 -19 -72 -19 -98 3 -132 23 -38 22 -40
-11 -26 -47 19 -125 16 -177 -8 -22 -10 -58 -25 -80 -33 -23 -8 -30 -17 -16
-23 13 -4 49 5 81 21 56 29 58 29 79 -28 l22 -58 74 30 c40 17 91 25 113 18
35 -11 39 -5 33 54 -5 53 -15 67 -50 68 -90 1 -36 106 55 108 57 2 111 52 72
67 -45 17 -41 68 7 94 34 18 40 15 40 -18 0 -55 30 -68 63 -28 24 29 23 32 -8
20 -39 -14 -49 17 -10 33 15 6 11 10 -10 11 -27 2 -33 13 -24 49 15 58 -45 93
-65 38z"/>
<path d="M2345 5099 c-25 -10 -45 -31 -45 -46 0 -16 -22 -34 -48 -41 -73 -18
-75 -60 -9 -160 l60 -91 68 54 c54 43 63 59 43 82 -19 23 -18 31 3 39 23 7 23
12 0 28 -19 13 -10 16 28 7 30 -6 55 -5 55 4 -1 31 -36 70 -54 59 -11 -7 -18
7 -17 30 1 50 -23 60 -84 35z"/>
<path d="M2475 4648 c-7 -7 -7 -25 -1 -40 10 -26 2 -31 -57 -36 -13 -1 -49
-27 -80 -58 -64 -64 -53 -89 52 -124 45 -15 65 -39 80 -94 28 -97 55 -121 39
-35 -7 38 -13 74 -13 79 1 52 9 63 35 53 24 -9 27 -4 14 22 -23 48 -19 83 13
103 14 9 23 33 20 54 -5 28 4 37 33 34 26 -3 20 5 -20 24 -66 31 -97 36 -115
18z"/>
<path d="M2360 4265 c1 -124 28 -172 60 -104 17 39 15 66 -9 124 -41 98 -51
95 -51 -20z"/>
<path d="M2495 486 c36 -5 94 -5 130 0 36 4 7 8 -65 8 -71 0 -101 -4 -65 -8z"/>
<path d="M2720 489 c76 -17 180 -19 180 -5 0 9 -47 15 -105 14 -58 -2 -91 -6
-75 -9z"/>
<path d="M2760 400 c0 -12 77 -19 195 -18 128 1 178 7 145 18 -74 24 -340 24
-340 0z"/>
</g>
</svg>
