<?xml version="1.0" standalone="no"?>
<!DOCTYPE svg PUBLIC "-//W3C//DTD SVG 20010904//EN"
 "http://www.w3.org/TR/2001/REC-SVG-20010904/DTD/svg10.dtd">
<svg version="1.0" xmlns="http://www.w3.org/2000/svg"
 width="300.000000pt" height="531.000000pt" viewBox="0 0 300.000000 531.000000"
 preserveAspectRatio="xMidYMid meet">
<metadata>
Created by potrace 1.10, written by Peter Selinger 2001-2011
</metadata>
<g transform="translate(0.000000,531.000000) scale(0.050000,-0.050000)"
fill="#000000" stroke="none">
<path d="M3800 10478 c-103 -28 -260 -102 -250 -118 12 -20 -151 -82 -176 -66
-11 7 -14 2 -6 -11 8 -13 2 -23 -14 -23 -16 0 -40 -14 -54 -30 -18 -22 -48
-28 -98 -20 -45 6 -27 -4 48 -27 100 -30 123 -46 140 -94 12 -33 32 -80 47
-105 22 -39 18 -60 -27 -151 -56 -115 -45 -177 43 -243 47 -36 79 -38 51 -4
-27 32 -5 64 44 64 21 0 42 11 47 25 10 30 -67 34 -85 5 -20 -32 -50 -23 -50
16 0 20 -9 45 -19 55 -12 12 -12 31 -1 49 22 34 94 1 85 -38 -3 -12 3 -22 13
-22 24 0 135 59 117 62 -37 7 -48 11 -90 34 -46 26 -62 84 -24 84 13 0 16 17
9 41 -9 26 -5 38 11 35 13 -4 29 7 34 22 7 20 0 25 -22 16 -21 -8 -40 2 -54
29 -20 36 -18 39 13 21 24 -13 50 -13 80 1 25 11 62 13 82 4 20 -8 47 -13 61
-11 14 2 25 -4 25 -14 0 -9 29 -13 65 -8 l65 9 -38 -42 c-21 -24 -50 -43 -65
-43 -15 0 -27 -9 -27 -20 0 -11 20 -20 45 -20 33 -1 38 -5 18 -18 -35 -22 24
-37 202 -53 126 -11 136 -9 228 57 85 60 232 107 319 101 13 -1 18 16 12 39
-9 36 -3 35 61 -16 39 -32 67 -69 61 -83 -13 -33 -50 -35 -82 -3 -19 19 -24
19 -24 0 0 -13 -22 -24 -49 -24 -38 0 -47 8 -39 35 7 21 -11 11 -45 -26 -36
-39 -79 -63 -117 -65 -41 -2 -81 -27 -127 -79 l-67 -75 45 77 45 77 -63 -33
c-35 -17 -63 -37 -63 -43 0 -6 9 -5 21 2 13 9 16 -6 8 -43 -20 -93 -27 -107
-50 -107 -12 0 -16 9 -9 20 34 56 -37 10 -92 -60 -36 -44 -68 -77 -72 -73 -18
19 37 113 66 113 21 0 28 11 20 32 -7 17 -12 38 -12 47 0 26 -96 37 -119 14
-29 -29 -26 -53 7 -53 18 0 25 -14 18 -40 -18 -70 -53 -37 -74 70 -27 134 -63
150 -159 67 -77 -65 -97 -110 -39 -88 31 12 31 9 3 -23 -76 -89 -59 -124 26
-52 34 30 71 -15 46 -56 -6 -10 -3 -18 8 -18 11 0 24 11 29 25 6 16 15 11 25
-15 9 -22 29 -49 43 -60 15 -11 35 -47 44 -80 15 -54 19 -56 33 -20 9 22 21
45 28 50 6 6 36 48 66 95 31 47 67 85 80 84 15 0 11 -11 -10 -27 -35 -27 -51
-84 -17 -63 10 6 14 -7 8 -28 -6 -22 -21 -38 -33 -35 -13 2 -20 -8 -17 -23 3
-15 -5 -39 -17 -54 -15 -18 -16 -38 -2 -63 18 -31 22 -29 44 24 105 257 156
323 175 227 7 -36 -33 -147 -47 -133 -6 6 -1 35 11 66 34 88 10 78 -35 -15
-55 -112 -85 -209 -85 -273 -1 -42 -5 -46 -22 -22 -18 25 -23 26 -32 2 -8 -19
-27 -3 -61 50 -38 60 -46 67 -37 28 6 -27 12 -59 12 -71 0 -11 26 -49 59 -85
32 -35 51 -64 41 -64 -10 0 -24 10 -31 22 -10 16 -20 14 -33 -5 -16 -22 -18
-21 -11 3 5 17 -7 47 -28 68 -35 37 -37 37 -37 2 0 -34 -2 -34 -37 -3 -20 18
-47 33 -60 33 -12 0 -23 17 -23 37 0 20 -20 54 -43 75 -24 21 -37 27 -29 13
19 -32 -8 -31 -53 3 -48 36 -44 50 10 40 42 -9 42 -8 4 9 -37 17 -226 -1 -265
-24 -8 -6 -17 13 -20 40 -4 49 -1 50 81 37 81 -13 83 -12 45 20 -40 33 -40 33
3 24 23 -5 55 -1 70 8 19 12 8 21 -38 30 -36 7 -71 21 -77 31 -6 9 -37 17 -69
17 -33 0 -59 9 -59 20 0 11 9 20 20 20 11 0 20 22 20 49 0 35 -9 46 -29 39
-21 -8 -25 0 -17 32 7 25 1 51 -13 59 -19 12 -15 25 15 53 117 109 67 217
-146 322 -81 41 -144 80 -139 88 22 35 -282 71 -396 46 -66 -14 -73 -48 -10
-49 74 -1 147 -43 255 -146 123 -118 123 -118 -51 -239 -77 -53 -137 -105
-134 -115 2 -10 -58 -68 -135 -129 -141 -113 -168 -150 -107 -150 19 0 28 -5
22 -12 -7 -6 -40 -6 -75 2 -62 14 -62 14 -26 56 35 40 34 40 -27 -2 -35 -24
-86 -44 -114 -44 -28 0 -57 -10 -65 -23 -9 -14 -5 -18 9 -9 13 8 23 5 23 -7 0
-11 -15 -21 -33 -21 -41 0 -241 -109 -302 -166 -64 -59 -55 -80 18 -43 34 18
68 25 75 15 6 -9 37 -28 67 -41 53 -23 76 -65 35 -65 -11 0 -20 -10 -20 -23 0
-13 6 -18 13 -10 8 7 31 -2 51 -21 36 -32 37 -32 25 5 -10 34 -9 35 10 6 27
-42 7 -98 -31 -84 -15 6 -22 21 -15 32 9 14 1 17 -22 8 -49 -19 -190 25 -258
81 -83 68 -144 42 -214 -95 -44 -87 -19 -109 33 -29 40 62 96 64 136 6 28 -40
28 -47 -3 -82 -19 -21 -44 -61 -56 -90 -14 -35 -26 -45 -36 -28 -9 13 -5 24 7
24 12 0 17 9 10 20 -7 12 -21 15 -32 9 -10 -6 -32 3 -50 20 -72 72 -115 41
-163 -116 -56 -185 -56 -189 9 -322 l54 -110 -41 -56 c-22 -30 -53 -103 -68
-162 -18 -69 -61 -150 -123 -230 -53 -68 -96 -129 -96 -137 0 -7 -45 -86 -100
-175 -192 -314 -235 -568 -158 -933 64 -299 61 -401 -12 -493 -58 -73 -136
-390 -130 -535 1 -27 3 -81 5 -120 1 -38 -4 -97 -13 -130 l-15 -60 -38 47
c-21 25 -47 40 -58 33 -12 -7 -32 -6 -45 2 -17 11 -14 18 9 26 30 12 -116 240
-166 258 -9 4 -27 37 -39 74 -22 67 -23 68 -121 56 -60 -7 -121 -2 -159 14
-108 45 -78 -79 42 -176 32 -26 58 -58 58 -73 0 -14 22 -49 49 -78 27 -30 105
-119 174 -198 68 -80 140 -157 160 -171 22 -15 37 -51 37 -85 0 -33 18 -77 40
-99 22 -22 40 -48 40 -57 0 -9 18 -33 40 -53 22 -20 40 -62 40 -94 0 -35 19
-75 47 -102 26 -24 54 -65 62 -90 15 -49 83 -84 162 -84 60 0 62 -27 7 -82
-23 -23 -37 -45 -33 -50 5 -5 21 5 35 22 14 16 37 30 51 30 32 0 48 24 60 85
10 51 61 95 110 95 21 0 38 21 45 57 10 46 34 67 133 111 66 30 121 62 121 72
0 23 51 50 128 68 54 13 57 12 30 -20 -25 -32 -24 -34 12 -19 84 35 162 40
136 8 -15 -17 -17 -39 -6 -57 25 -41 6 -60 -60 -60 -32 0 -108 -19 -169 -41
-67 -25 -129 -36 -156 -28 -44 13 -44 12 -6 -17 46 -34 60 -10 -160 -274 -157
-189 -210 -287 -225 -415 -5 -52 -18 -83 -32 -79 -12 5 -20 25 -17 46 2 21 8
63 12 93 10 74 -22 92 -38 21 -24 -106 -26 -95 -15 64 15 209 -5 186 -43 -48
-30 -186 -30 -187 15 -224 77 -66 181 -44 195 42 13 78 71 200 96 200 29 0 63
-48 63 -90 0 -36 30 -51 205 -105 372 -115 472 -204 444 -401 -11 -80 -21 -93
-135 -164 -68 -43 -164 -108 -214 -144 -49 -36 -117 -79 -150 -95 -104 -51
-241 -239 -261 -357 -7 -41 -25 -114 -41 -163 -15 -48 -28 -107 -28 -130 0
-109 -109 -376 -174 -426 -79 -60 -83 -107 -15 -170 l50 -47 -40 -129 c-22
-71 -41 -141 -41 -156 0 -15 -15 -58 -33 -96 -41 -86 -17 -149 78 -207 135
-83 213 -75 545 49 127 48 157 52 316 40 140 -10 196 -5 272 22 105 38 221 29
262 -22 42 -50 59 -32 57 62 -2 75 -14 104 -70 163 -37 39 -67 79 -67 88 0 23
-113 9 -146 -19 -53 -44 -117 -4 -111 69 8 96 -24 121 -123 95 -83 -22 -96
-12 -57 51 14 22 17 52 7 74 -72 162 -15 269 242 459 114 84 154 128 195 214
28 60 65 120 82 134 17 14 31 50 31 78 1 55 107 243 137 243 10 0 29 -43 44
-95 14 -52 33 -106 44 -119 12 -15 3 -43 -24 -80 -39 -53 -60 -138 -99 -401
-8 -58 -21 -110 -27 -117 -7 -6 6 -54 28 -105 44 -102 40 -230 -12 -336 -48
-99 -38 -260 21 -309 22 -18 26 -52 16 -146 -11 -110 -7 -130 41 -199 29 -43
61 -118 70 -166 9 -49 32 -106 51 -127 27 -30 31 -58 20 -139 -13 -95 -10
-103 48 -152 37 -31 70 -85 84 -135 20 -78 149 -274 180 -274 24 0 39 61 51
213 11 126 18 147 51 147 38 0 270 -231 304 -302 32 -67 68 -42 90 63 29 133
28 138 -18 228 -22 43 -35 83 -30 88 15 14 90 -60 90 -89 0 -40 100 -108 161
-108 52 0 137 -74 166 -144 8 -20 15 -19 32 4 24 31 18 223 -8 285 -23 53 34
44 89 -15 29 -31 69 -50 105 -50 59 0 176 -94 199 -160 21 -58 66 17 64 106
-4 134 -93 286 -183 315 -41 13 -95 42 -119 64 -31 28 -59 36 -94 27 -204 -51
-683 414 -563 546 37 42 40 105 8 194 -30 82 21 290 92 379 l48 59 56 -44
c414 -321 1219 -745 1657 -873 99 -29 268 -79 375 -111 203 -60 262 -49 104
18 -86 37 -289 171 -416 274 -31 25 -64 42 -72 36 -9 -5 -29 6 -44 24 -18 23
-19 29 -2 19 36 -22 31 -2 -9 30 -23 18 -29 19 -19 2 26 -42 -17 -28 -64 21
-24 26 -37 54 -28 64 8 9 4 10 -9 3 -13 -8 -77 32 -147 92 -68 58 -151 128
-185 157 -44 38 -53 55 -32 63 15 5 54 -14 87 -42 l58 -53 -48 64 c-37 47 -59
60 -89 50 -281 -91 -660 357 -660 781 l0 215 -70 28 c-78 31 -90 28 -73 -17 6
-17 35 -31 65 -31 54 0 54 0 41 -119 -16 -156 13 -303 87 -446 72 -139 65
-150 -15 -20 -78 128 -123 266 -138 427 l-12 134 -83 32 c-52 21 -84 25 -89
12 -3 -11 -31 0 -62 26 -30 25 -105 72 -168 103 -62 32 -113 64 -113 72 0 9
-16 12 -35 7 -48 -11 -140 61 -105 82 16 10 21 8 14 -4 -7 -10 1 -19 17 -19
21 0 23 6 6 26 -12 15 -35 27 -51 27 -15 0 -23 9 -16 20 7 11 -7 20 -30 20
-29 0 -37 8 -27 25 12 20 8 20 -16 0 -35 -28 -59 -14 -44 25 10 27 -240 260
-280 260 -29 0 -71 36 -61 53 4 7 -8 25 -27 40 -31 24 -32 23 -9 -6 60 -76
-20 -51 -131 42 -66 55 -125 94 -132 87 -7 -7 -13 -4 -13 6 0 11 -28 36 -63
56 -56 34 -59 40 -27 57 27 15 40 12 54 -12 10 -18 33 -33 52 -32 35 1 -105
138 -226 222 -55 38 -55 37 8 -21 71 -66 54 -84 -29 -30 -27 18 -49 28 -49 22
0 -5 -43 32 -96 83 -55 53 -88 99 -76 107 29 19 52 0 52 -45 0 -28 14 -39 50
-39 70 0 70 1 -130 160 -99 79 -180 151 -180 160 0 32 -207 190 -215 165 -9
-28 -45 -14 -45 17 0 11 8 15 18 9 10 -6 23 2 29 17 6 16 61 39 122 52 61 12
111 33 111 46 0 14 9 12 20 -6 11 -16 20 -85 20 -153 l0 -124 135 -116 c74
-64 144 -127 155 -139 58 -64 151 -109 199 -96 72 18 65 34 -49 104 -55 35
-109 84 -119 111 -10 26 -32 53 -49 60 -17 6 -26 25 -20 41 7 17 -9 43 -41 63
-29 19 -47 39 -41 45 6 6 -9 31 -32 56 -77 82 -30 87 59 7 47 -44 97 -79 111
-79 13 0 123 -96 243 -214 121 -117 203 -208 184 -200 -51 19 -43 -6 25 -86
33 -38 72 -95 85 -125 34 -76 56 -69 50 15 -4 53 -12 67 -34 59 -17 -6 -23 -5
-15 3 8 8 -1 31 -19 51 -46 51 -10 47 45 -5 25 -23 41 -53 36 -65 -5 -13 11
-35 34 -50 35 -21 39 -21 26 1 -11 18 -4 16 21 -4 36 -29 36 -30 -5 -36 -23
-4 -48 -24 -54 -45 -12 -36 -16 -37 -56 -9 -111 78 -103 -39 9 -138 l84 -74
51 121 c63 146 61 146 163 17 85 -107 93 -155 49 -290 -19 -57 234 -247 546
-410 l218 -113 30 63 c17 35 63 103 103 150 40 48 77 119 85 160 7 41 26 116
42 168 27 84 27 104 -1 190 -17 53 -41 204 -53 336 -21 224 -46 418 -72 560
l-11 60 55 -67 c93 -115 206 -210 283 -236 97 -33 103 -22 16 30 -73 43 -81
57 -56 96 10 16 55 -2 144 -55 123 -75 182 -95 180 -63 0 8 -38 39 -85 68 -46
29 -138 97 -204 150 -66 53 -107 78 -90 57 29 -39 28 -39 -18 0 -26 22 -97
108 -157 190 -122 166 -224 280 -250 280 -10 0 13 -38 50 -85 83 -104 155
-221 155 -254 0 -13 21 -52 47 -87 78 -106 81 -129 5 -44 -39 44 -86 112 -105
150 -18 39 -72 126 -120 195 -48 69 -87 137 -87 153 0 28 -148 255 -234 359
-26 32 -60 88 -76 125 -17 41 -42 68 -64 69 -34 0 -106 43 -106 63 0 5 29 5
65 0 61 -9 63 -8 35 27 -17 21 -19 30 -5 22 16 -10 25 -4 25 16 0 17 11 31 25
31 19 1 18 5 -2 18 -20 12 -15 20 20 29 97 26 122 17 112 -39 -12 -64 3 -85
225 -309 145 -147 192 -181 322 -235 169 -70 378 -106 378 -66 0 14 -9 19 -19
12 -11 -6 -30 6 -43 27 -16 24 -39 34 -64 27 -24 -6 -46 3 -58 23 -10 18 -36
33 -57 33 -21 0 -39 11 -39 25 0 16 -38 27 -110 29 -132 6 -190 33 -190 88 0
22 9 35 20 28 11 -7 20 -2 20 10 0 15 -21 19 -60 10 -50 -11 -58 -8 -48 19 14
35 -27 97 -53 80 -18 -11 -46 25 -52 69 -6 38 -50 63 -90 51 -41 -13 -72 30
-37 51 15 9 18 26 9 41 -11 19 -6 22 22 12 35 -14 35 -13 3 23 -42 46 -44 84
-4 84 17 0 30 -13 30 -29 0 -16 10 -35 23 -43 14 -9 18 -5 9 9 -9 15 2 24 32
25 25 0 35 6 21 11 -15 6 -1 29 39 63 40 34 66 45 71 30 6 -18 20 -18 58 -1
58 26 94 -8 78 -74 -5 -21 0 -51 12 -65 12 -14 16 -26 9 -26 -7 0 -4 -17 7
-39 15 -27 15 -43 0 -52 -14 -8 -6 -24 20 -42 22 -16 41 -41 41 -54 0 -14 20
-47 45 -74 25 -26 43 -54 40 -62 -2 -8 25 -20 60 -28 35 -8 79 -24 98 -36 49
-30 71 0 39 52 -44 69 -53 281 -15 313 44 36 93 14 94 -42 2 -45 2 -45 23 4
12 31 24 40 30 24 5 -14 -3 -45 -19 -70 -37 -58 -18 -120 54 -177 33 -25 52
-35 44 -22 -8 13 -6 56 4 95 18 65 -1 101 -24 45 -5 -14 -11 -2 -11 26 -1 27
12 70 29 95 17 24 25 44 16 44 -8 0 0 11 18 25 22 17 29 43 21 80 -13 66 -57
72 -74 10 -7 -28 -18 -37 -27 -23 -8 13 -34 29 -58 36 -69 22 -114 257 -53
281 19 7 38 4 42 -8 4 -12 29 -16 55 -9 39 10 67 -7 144 -83 l95 -96 -6 -150
c-7 -169 -12 -183 -62 -183 -29 0 -34 -16 -31 -93 7 -165 -64 -231 -137 -127
-28 40 -28 40 -75 -1 -52 -45 -24 -89 42 -68 17 5 49 -7 70 -26 44 -41 107
-37 143 9 13 17 49 31 80 30 37 -1 71 17 101 52 42 51 46 52 79 19 23 -24 26
-35 9 -35 -19 0 -18 -8 4 -30 17 -16 40 -30 53 -30 12 0 17 -9 10 -20 -23 -38
24 -20 62 23 34 39 34 42 3 31 -19 -7 -55 -5 -80 5 -25 10 -38 19 -29 20 8 0
5 20 -7 44 -16 29 -17 46 -2 55 13 8 14 24 3 42 -14 23 -22 19 -39 -20 -19
-44 -20 -42 -9 19 16 87 51 144 81 133 28 -11 67 27 67 64 0 22 -7 23 -27 7
-15 -13 -32 -17 -38 -11 -7 6 -22 -7 -34 -30 -25 -48 -71 -58 -54 -12 7 17 3
30 -8 30 -28 0 -22 104 9 145 14 19 33 28 42 20 8 -8 3 5 -12 30 -15 25 -41
45 -58 46 -16 0 -46 12 -65 27 -36 27 -47 54 -20 50 79 -13 78 58 -2 108 -32
20 -52 41 -46 48 7 6 34 -3 62 -21 27 -18 57 -33 65 -33 9 0 6 7 -6 15 -54 37
-50 121 7 140 52 18 49 21 -60 45 -63 15 -115 33 -115 40 0 8 -20 12 -45 10
-25 -3 -58 -6 -75 -8 -25 -2 -25 -6 -2 -20 15 -10 20 -28 12 -42 -12 -19 -19
-18 -32 3 -14 21 -17 19 -18 -8 0 -19 -9 -35 -20 -35 -11 0 -20 10 -20 22 0
29 -82 96 -118 97 -16 1 -23 6 -17 13 7 7 5 33 -5 59 -15 39 -8 54 46 94 85
64 135 82 121 44 -6 -16 -21 -23 -34 -16 -13 8 -16 6 -7 -4 22 -24 99 -33 84
-9 -7 11 -2 20 11 20 12 0 27 -18 33 -40 6 -22 27 -40 46 -40 20 0 41 -13 47
-29 7 -19 39 -28 94 -27 50 0 91 -10 101 -27 10 -15 18 -18 18 -7 1 11 10 4
22 -15 11 -20 28 -31 38 -25 9 6 24 0 32 -13 8 -14 6 -18 -8 -10 -11 8 -27 4
-34 -8 -9 -13 6 -19 42 -15 58 6 145 -99 97 -117 -11 -4 -17 -40 -12 -80 10
-87 42 -51 43 48 0 88 29 82 68 -15 58 -145 26 -574 -48 -648 -27 -27 -26 -57
2 -48 11 4 18 11 15 17 -4 5 15 44 41 86 26 43 47 105 46 139 -1 48 3 56 19
33 15 -21 17 -15 8 26 -8 39 -3 59 18 67 41 16 59 84 30 119 -19 23 -18 29 6
29 34 0 64 89 43 124 -8 12 -13 45 -12 74 1 39 -18 66 -69 101 -45 31 -67 60
-61 81 7 29 -8 33 -110 28 -130 -5 -157 16 -116 92 34 63 -63 250 -143 278
-32 11 -63 34 -69 51 -16 40 -48 40 -48 1 0 -23 -13 -27 -53 -17 -37 9 -49 6
-39 -10 8 -13 5 -23 -7 -23 -11 0 -20 -7 -19 -15 9 -53 -3 -66 -42 -45 -61 32
-48 75 39 135 52 36 80 71 80 100 1 25 10 45 21 45 11 0 20 -17 20 -38 0 -22
18 -42 44 -49 57 -15 64 -6 38 44 -12 22 -16 57 -9 77 10 29 8 31 -13 12 -21
-20 -32 -17 -53 10 -24 32 -26 32 -26 -1 -1 -21 -16 -35 -40 -35 -27 0 -36
-10 -28 -30 8 -22 2 -27 -21 -18 -20 8 -27 21 -16 35 25 35 17 98 -14 109 -15
5 -22 1 -16 -10 7 -11 -1 -19 -18 -19 -17 0 -25 11 -19 27 21 56 -30 2 -68
-70 -47 -92 -172 -215 -189 -187 -35 57 50 249 91 208 31 -31 100 -6 89 32 -5
18 -19 80 -32 138 -13 58 -32 105 -41 105 -19 0 -12 -143 9 -177 21 -33 -19
-28 -47 6 -14 16 -19 39 -12 50 8 12 1 16 -18 9 -21 -8 -28 -3 -21 15 17 45
-133 101 -159 59 -6 -10 8 -13 32 -7 34 9 41 4 31 -21 -8 -21 -3 -29 14 -22
17 7 25 -10 25 -52 0 -43 -8 -59 -26 -51 -20 7 -27 -11 -27 -65 0 -41 -13 -99
-29 -129 -27 -52 -27 -54 9 -35 56 30 59 26 46 -53 -10 -60 -7 -70 16 -56 19
12 15 -2 -9 -42 -60 -95 -133 -140 -133 -82 0 14 -23 47 -50 73 -38 35 -44 51
-25 63 15 10 35 4 49 -16 21 -28 23 -26 21 12 -3 36 -14 43 -57 36 -60 -8
-109 47 -102 115 4 34 0 32 -25 -10 -51 -86 28 -229 127 -230 17 0 35 -17 39
-37 4 -21 -2 -32 -13 -26 -11 7 -25 -18 -32 -55 -19 -98 -66 -183 -132 -239
-32 -27 -52 -54 -46 -61 30 -29 -21 -8 -75 32 -93 69 -38 149 65 94 72 -39 86
-4 16 39 -70 43 -165 65 -100 23 24 -16 21 -19 -15 -20 -31 0 -45 -12 -45 -38
0 -20 -13 -63 -30 -95 -41 -79 -41 -121 2 -86 26 22 34 22 48 -1 22 -36 4 -66
-32 -52 -16 6 -28 -2 -28 -19 0 -35 -3 -35 82 -6 69 23 243 153 298 223 17 21
55 67 86 101 l57 63 -34 -60 c-26 -47 -15 -40 48 30 45 50 82 102 82 117 1 29
45 22 55 -9 22 -65 -185 -277 -247 -254 -30 11 -46 -16 -55 -93 -4 -38 -40
-98 -94 -157 -49 -53 -106 -118 -128 -146 -75 -93 -148 -128 -181 -85 -15 21
-25 42 -22 47 3 6 19 39 34 75 15 36 39 65 53 65 14 0 26 9 26 20 0 11 -13 20
-30 20 -16 0 -30 -9 -30 -20 0 -11 -13 -20 -29 -20 -15 0 -33 -16 -38 -35 -14
-50 1 112 18 190 9 42 6 65 -8 65 -12 0 -19 11 -16 25 4 14 3 19 -2 11 -4 -8
-23 -8 -41 -2 -23 8 -20 -1 11 -28 43 -39 45 -106 4 -106 -9 0 -28 -31 -42
-70 -14 -38 -33 -70 -43 -70 -10 0 -5 -21 13 -48 38 -58 26 -72 -59 -72 -79 0
-96 21 -58 72 16 21 29 77 29 125 1 96 95 242 158 244 22 0 15 10 -21 30 -60
33 -25 149 45 149 17 0 42 11 56 25 21 20 22 15 6 -27 -22 -58 3 -121 34 -88
27 28 123 313 112 331 -5 8 5 26 21 39 17 14 30 33 30 44 0 10 21 65 47 122
26 57 52 118 58 134 8 19 13 12 15 -20 2 -42 7 -38 32 30 16 44 54 99 83 123
30 24 56 55 57 70 1 15 3 38 5 52 2 14 29 25 61 25 32 0 63 13 68 28 12 31 -2
52 -34 52 -12 0 -8 -10 8 -22 24 -17 25 -20 1 -13 -47 12 -47 51 0 76 26 13
39 15 31 2 -7 -11 -4 -25 6 -32 10 -6 24 14 31 45 11 47 22 56 71 52 32 -2 69
9 83 25 20 25 16 28 -27 17 -40 -10 -53 -4 -61 26 -9 35 -4 38 42 24 135 -41
239 -86 309 -132 41 -27 85 -43 98 -36 13 8 17 5 9 -7 -7 -11 12 -31 42 -44
57 -25 330 -343 337 -393 3 -15 -10 -38 -29 -49 -25 -16 -27 -24 -7 -32 20 -8
20 -17 2 -39 -17 -21 -17 -28 1 -28 13 0 18 -9 11 -20 -7 -12 16 -20 58 -20
80 0 89 -11 149 -194 68 -209 92 -629 40 -716 -26 -43 -78 -252 -67 -270 15
-25 -49 -123 -71 -109 -24 14 -99 -64 -99 -102 0 -17 9 -26 20 -19 11 7 20 24
20 39 0 14 14 37 30 51 71 59 -29 -114 -142 -248 -37 -43 -62 -86 -55 -96 6
-10 -1 -16 -16 -13 -15 3 -76 -27 -137 -66 -273 -177 -473 -259 -555 -228 -39
15 47 62 165 90 33 8 58 25 55 38 -3 13 4 23 15 23 11 0 20 8 20 17 0 23 -65
22 -95 -2 -14 -11 -25 -13 -25 -5 0 8 -16 -4 -35 -26 -48 -55 -184 -73 -243
-31 -27 19 -52 24 -59 13 -7 -10 -35 -12 -63 -4 l-50 14 50 3 c36 1 13 18 -88
61 -75 32 -156 75 -178 94 -28 25 -36 27 -24 6 15 -26 13 -26 -17 -2 -66 54
-195 220 -203 262 -9 48 -144 180 -183 180 -58 0 3 -98 178 -287 52 -57 95
-112 95 -123 -1 -13 -6 -13 -15 0 -8 11 -37 38 -64 60 l-49 40 36 -60 c79
-129 283 -388 307 -389 13 -1 58 -46 98 -100 50 -67 94 -104 135 -113 33 -7
97 -32 141 -55 131 -69 559 -72 466 -4 -30 22 -20 28 75 49 120 27 156 72 40
51 -38 -8 -70 -6 -70 4 0 20 -264 19 -297 -1 -59 -37 -268 32 -304 99 -14 27
-30 45 -35 39 -6 -5 -31 20 -58 55 -26 36 -80 88 -120 115 -78 54 -121 121
-53 83 20 -11 67 -48 104 -82 124 -115 517 -285 569 -246 13 10 69 35 124 55
430 158 820 618 923 1090 81 370 34 839 -105 1042 -28 40 -47 81 -44 90 16 53
-147 291 -302 443 -155 151 -227 204 -190 140 8 -15 7 -18 -4 -8 -10 9 -18 27
-18 40 0 70 -714 336 -765 285 -25 -25 22 -178 57 -187 40 -10 55 -105 17
-105 -12 0 -16 -8 -10 -18 6 -10 4 -22 -5 -25 -22 -9 -186 -309 -175 -320 5
-5 -8 -19 -30 -33 -47 -30 -55 5 -11 54 46 53 132 229 132 270 0 46 -20 31
-29 -21 -4 -20 -17 -34 -31 -31 -15 3 -20 -7 -13 -25 6 -17 3 -31 -8 -31 -10
0 -19 -16 -19 -36 0 -20 -12 -53 -27 -73 -25 -34 -27 -32 -23 26 1 35 5 102 7
149 3 78 9 88 68 109 64 24 65 26 71 168 10 231 -6 281 -133 426 -282 322
-295 358 -190 544 88 159 96 162 263 111 300 -93 552 -54 625 96 62 129 48
253 -21 171 -35 -44 -67 -3 -96 126 -24 104 -15 173 16 124 8 -14 20 13 28 62
30 194 53 250 84 208 15 -21 34 -32 41 -25 7 8 -2 31 -21 52 -30 33 -31 44 -8
81 30 50 -47 139 -92 104 -12 -10 -75 -34 -140 -54 -232 -72 -294 -132 -339
-335 -59 -260 56 -564 186 -495 42 23 46 22 34 -9 -13 -32 -1 -35 127 -25 160
11 170 5 66 -38 -183 -76 -394 27 -437 215 l-15 68 -17 -60 c-10 -37 -9 -63 3
-67 11 -3 20 -24 20 -45 0 -37 -4 -37 -58 -9 -75 39 -131 196 -117 325 17 149
52 149 51 0 -1 -136 10 -174 50 -174 17 0 23 46 20 155 -2 102 2 138 12 105
20 -59 32 -34 51 98 7 49 27 116 45 150 17 34 38 76 46 92 7 17 44 51 82 77
37 26 66 55 63 65 -7 25 70 23 85 -2 7 -11 3 -20 -9 -20 -11 0 -21 -8 -21 -17
0 -18 214 24 235 46 6 6 -4 27 -22 47 -41 46 -43 102 -3 117 74 28 -109 287
-203 287 -18 0 -63 19 -101 42 -37 24 -73 38 -78 33 -12 -12 183 -135 212
-135 11 0 57 -36 102 -80 l83 -80 -68 13 c-37 8 -78 28 -92 45 -14 18 -23 23
-20 12 3 -11 -4 -20 -15 -20 -20 0 -23 9 -28 70 -2 29 -149 120 -194 120 -12
0 -39 19 -60 43 -38 42 -38 42 12 30 28 -7 14 5 -30 27 -88 43 -377 53 -510
18z m30 -47 l-60 -28 70 -2 c71 -2 140 -39 140 -75 0 -11 27 -19 59 -19 32 0
73 -12 91 -27 68 -56 238 -101 262 -69 12 15 28 22 36 15 7 -8 37 -15 66 -15
69 -1 77 -59 13 -89 -45 -20 -47 -19 -26 21 22 41 22 41 -23 10 -33 -23 -52
-26 -72 -10 -19 16 -26 16 -26 -2 0 -13 -9 -18 -20 -11 -11 7 -75 16 -142 20
-81 5 -136 20 -162 44 -36 33 -42 33 -63 3 -21 -28 -29 -29 -62 -5 -48 35
-117 37 -106 3 5 -14 23 -24 41 -22 18 1 27 -9 20 -25 -6 -16 -16 -28 -23 -27
-23 1 -86 99 -64 99 12 0 21 9 21 20 0 11 -22 20 -50 20 -27 0 -50 -9 -50 -20
0 -11 9 -20 20 -20 11 0 20 -9 20 -20 0 -11 -11 -20 -24 -20 -13 0 -42 -17
-65 -39 -37 -35 -46 -35 -91 -8 l-50 29 55 -11 c32 -7 55 -3 55 9 0 11 -13 20
-30 20 -38 0 -39 52 -1 67 18 7 25 1 19 -15 -11 -29 44 -60 60 -35 6 9 -3 41
-19 72 -34 66 -23 91 41 91 26 0 54 10 62 23 10 17 -4 20 -52 10 -84 -17 -71
-2 32 35 105 39 181 41 98 3z m-701 -408 c23 -29 38 -63 35 -76 -8 -36 30 -51
43 -17 25 64 50 25 49 -75 -1 -58 4 -127 10 -155 11 -46 10 -47 -15 -14 -30
40 -64 13 -39 -31 7 -14 0 -11 -16 5 -17 17 -46 80 -65 140 -18 61 -56 144
-82 185 -83 126 -14 158 80 38z m1079 -4 c33 13 52 13 52 1 0 -11 16 -21 35
-22 22 -1 11 -12 -28 -29 -35 -15 -70 -37 -77 -48 -7 -12 -39 -21 -72 -21 -38
0 -55 8 -47 21 7 12 25 17 40 11 15 -6 33 -1 40 9 7 11 5 19 -5 17 -9 -1 -47
-2 -86 0 l-70 2 60 49 c51 42 63 45 83 19 17 -22 34 -24 75 -9z m583 -256 l48
-38 -85 -11 c-95 -13 -130 -22 -176 -42 -18 -8 -45 -11 -60 -8 -20 4 -31 -24
-38 -104 l-10 -110 -35 64 c-44 81 -44 90 5 146 22 25 40 39 40 30 0 -9 16 -2
35 15 27 24 178 88 222 94 4 1 28 -16 54 -36z m-1851 -32 c-20 -25 -12 -37 49
-73 50 -30 67 -50 53 -64 -14 -14 -10 -28 14 -46 19 -13 27 -31 19 -39 -21
-22 -75 31 -75 73 0 24 -14 38 -37 38 -77 0 -171 110 -108 126 81 21 111 16
85 -15z m-111 -62 c41 -42 39 -47 -9 -35 -32 9 -38 4 -27 -24 12 -31 8 -32
-35 -10 -69 36 -69 37 -27 70 50 37 59 37 98 -1z m414 -79 c80 -38 160 -71
176 -71 17 -1 9 -11 -19 -22 -27 -11 -89 -14 -136 -7 -56 8 -97 4 -116 -11
-16 -14 -35 -19 -42 -12 -7 7 0 13 16 13 23 1 23 4 -2 20 -23 15 -16 19 29 20
l60 0 -65 59 c-111 102 -94 104 99 11z m-477 -21 c32 -22 29 -25 -30 -34 -93
-14 -154 18 -103 54 36 27 71 22 133 -20z m-108 -94 c26 -67 7 -79 -64 -42
-81 41 -81 40 -65 66 25 40 111 24 129 -24z m1968 -30 c6 -30 2 -68 -7 -85
-19 -32 -22 -25 -30 75 -7 79 22 87 37 10z m-1431 -13 c36 1 65 -6 65 -15 0
-10 13 -17 29 -17 16 0 34 -9 41 -19 6 -11 -16 -10 -52 3 -48 17 -81 16 -133
-3 -39 -14 -76 -18 -82 -8 -16 21 -75 22 -95 2 -8 -8 -1 -15 16 -15 17 0 54
-24 83 -53 l53 -52 92 35 c59 22 120 31 171 24 64 -8 78 -5 69 18 -9 23 -3 25
27 9 21 -12 52 -15 70 -9 17 7 31 2 31 -10 0 -12 12 -22 28 -22 36 0 80 -53
55 -68 -10 -6 -57 2 -103 18 -82 29 -120 26 -120 -9 0 -22 119 -64 142 -50 10
6 12 -2 6 -19 -7 -19 -38 -29 -89 -28 -43 0 -73 9 -67 19 17 27 -71 127 -114
129 -21 2 -38 -4 -38 -12 0 -9 -42 -22 -93 -29 -150 -23 -194 -48 -85 -50 64
-1 102 -13 127 -40 41 -45 114 -17 97 38 -6 22 0 19 22 -8 46 -55 41 -89 -11
-76 -30 8 -39 4 -29 -12 8 -13 26 -23 40 -23 14 0 46 -22 72 -50 26 -27 40
-50 32 -50 -8 0 -47 23 -88 50 -40 28 -81 50 -90 50 -10 0 -41 18 -69 40 -28
22 -65 40 -83 40 -18 0 -5 -14 28 -31 33 -17 74 -45 90 -62 27 -29 25 -29 -17
-8 -25 13 -57 20 -71 15 -14 -6 -87 43 -163 108 -77 65 -168 127 -204 139 -84
29 -86 67 -2 48 43 -9 58 -7 48 9 -7 12 -26 22 -42 22 -16 0 -29 10 -29 21 0
14 31 17 90 8 65 -10 90 -7 90 11 0 18 24 20 95 8 52 -9 124 -16 160 -16z
m-579 -70 c189 -66 368 -192 498 -350 152 -185 170 -204 158 -167 -6 19 -1 35
11 35 12 0 17 -18 11 -42 -19 -71 308 -439 506 -570 91 -61 148 -51 177 28 19
51 20 49 21 -30 2 -103 -39 -152 -106 -127 -132 50 41 -216 184 -283 8 -3 38
-33 68 -66 l54 -60 -47 -22 c-39 -18 -46 -17 -37 5 20 52 -55 4 -85 -55 -30
-57 -50 -70 -75 -45 -16 15 78 131 124 152 21 10 14 13 -22 8 -30 -4 -52 2
-50 14 2 11 -14 23 -36 26 -22 4 -29 1 -16 -5 24 -11 -36 -135 -79 -161 -32
-20 -102 74 -75 101 16 16 26 14 38 -5 23 -37 53 10 45 70 -4 32 7 46 41 53
34 6 27 10 -24 13 -38 2 -59 9 -45 14 30 12 34 107 5 107 -11 0 -20 16 -20 35
0 102 -139 228 -214 194 -37 -17 -58 -23 -101 -27 -15 -1 -36 -27 -48 -57 -13
-32 -26 -44 -31 -29 -6 14 -1 36 10 50 29 34 -76 184 -127 183 -27 -1 -39 12
-39 44 0 56 62 24 161 -85 53 -57 69 -64 119 -51 57 15 57 16 19 55 -22 22
-92 103 -158 179 -65 76 -161 184 -214 239 -53 55 -96 107 -96 115 -1 8 -1 29
-1 46 0 17 -8 26 -19 20 -10 -6 -25 -1 -33 12 -9 14 -6 18 9 9 61 -38 11 33
-89 126 -142 132 -168 115 -37 -23 55 -57 80 -88 57 -69 -23 19 -46 29 -52 23
-7 -6 -31 16 -55 50 -34 47 -54 58 -89 50 -51 -13 -104 35 -81 73 9 15 7 19
-7 11 -11 -8 -26 -6 -32 4 -18 29 44 69 89 57 34 -9 37 -6 18 18 -28 33 -79
37 -79 6 0 -14 -19 -10 -49 10 -27 17 -66 32 -87 32 -20 0 -57 19 -83 43 -25
24 -74 50 -108 58 l-63 15 60 2 c33 1 135 -24 226 -56z m1909 -99 c113 -111
122 -157 30 -171 -87 -12 -155 -7 -155 12 0 9 -12 16 -28 16 -30 0 -51 59 -52
145 0 60 18 69 57 30 20 -20 23 -18 12 10 -7 19 -21 35 -31 35 -10 0 -18 10
-18 21 0 42 91 -6 185 -98z m-2114 64 c164 -56 614 -547 501 -547 -14 0 -35
20 -46 45 -41 87 -191 257 -218 247 -32 -12 -92 65 -74 96 7 12 5 15 -4 7 -9
-8 -45 12 -82 44 -36 31 -97 69 -137 83 -142 52 -87 74 60 25z m-76 -66 c151
-75 185 -112 116 -126 -66 -12 -464 144 -427 168 55 35 193 17 311 -42z m1472
-301 c7 0 11 10 8 23 -11 50 112 52 165 3 l49 -46 -65 0 c-79 0 -190 -53 -172
-82 7 -12 34 -16 60 -9 49 12 57 -1 36 -56 -6 -18 -24 -25 -42 -19 -21 8 -28
3 -22 -15 14 -42 -73 -127 -114 -112 -47 18 -90 -32 -76 -89 11 -46 10 -47
-26 -13 -49 47 -59 173 -12 166 51 -7 84 32 52 63 -14 14 -37 26 -52 27 -16 0
-13 8 9 21 20 11 51 16 70 10 19 -6 49 -2 65 8 27 17 24 23 -12 19 -6 -1 -28
18 -48 42 -21 23 -47 37 -59 30 -12 -8 -16 -1 -9 17 6 17 4 42 -5 56 -69 111
18 136 115 33 40 -42 78 -77 85 -77z m1063 99 c-17 -26 -140 -82 -200 -90 -22
-3 -56 -12 -75 -19 -20 -8 -35 -5 -35 6 0 12 -5 33 -10 47 -10 28 74 78 129
76 23 -1 19 -10 -14 -32 -95 -67 -26 -79 100 -18 42 20 81 44 87 55 7 10 17
14 22 9 6 -6 4 -21 -4 -34z m-1317 -75 c26 -76 25 -89 -3 -117 -24 -24 -26
-38 -8 -59 15 -18 15 -28 2 -28 -11 0 -35 -5 -52 -12 -20 -8 -37 2 -46 25 -17
47 -57 87 -85 87 -35 0 -24 36 14 46 27 7 25 10 -9 12 -24 1 -50 12 -57 24 -7
12 -31 17 -53 11 -35 -9 -132 58 -112 78 31 30 268 -96 286 -152 21 -65 63
-22 62 62 -1 43 -9 79 -18 79 -9 0 -11 9 -3 21 23 38 53 9 82 -77z m-1011 -14
l60 14 -10 -97 c-6 -53 -18 -128 -27 -167 -19 -78 -12 -140 16 -140 11 0 19
-13 19 -29 0 -18 12 -25 30 -18 17 6 30 2 30 -9 0 -27 -85 -47 -107 -25 -10
10 -39 89 -64 175 -25 86 -55 154 -67 151 -11 -2 -16 8 -10 23 6 16 -8 65 -31
109 -56 110 -52 116 30 54 55 -43 83 -51 131 -41z m165 17 c86 -107 120 -168
86 -155 -17 6 -45 33 -62 60 -17 26 -46 71 -63 98 -43 66 -15 64 39 -3z m-818
-66 c7 -11 24 -15 37 -10 14 6 41 -2 61 -17 60 -43 -62 -163 -147 -144 -74 16
-75 35 -5 88 30 23 39 37 20 30 -38 -13 -41 -8 -23 40 14 36 40 42 57 13z
m442 -62 c18 -30 -1 -44 -60 -44 -79 0 -60 -25 43 -57 89 -28 95 -34 102 -109
4 -43 20 -93 36 -111 48 -54 30 -92 -38 -80 -10 2 -12 -5 -6 -15 7 -11 -1 -24
-17 -30 -32 -12 -113 73 -165 174 -17 35 -67 115 -111 180 -74 109 -92 186
-23 102 17 -22 26 -29 20 -16 -19 38 45 48 68 11 19 -31 21 -30 18 6 -1 22 -2
47 0 56 3 19 114 -37 133 -67z m408 -48 c34 -41 183 -122 356 -194 80 -34 145
-68 145 -77 0 -9 6 -32 13 -50 20 -52 -127 -27 -166 28 -35 50 -67 55 -67 10
0 -17 18 -36 40 -42 26 -7 40 -27 40 -59 0 -45 6 -48 81 -39 45 6 79 4 75 -4
-65 -129 -58 -124 -144 -111 l-82 13 57 -54 c32 -30 51 -60 44 -68 -22 -22
-371 354 -371 401 0 41 1 41 50 -5 28 -26 50 -37 50 -24 0 46 -91 86 -147 65
-71 -27 -80 -3 -50 129 28 117 38 127 76 81z m-692 -96 c-5 -8 -2 -15 7 -15 9
-1 43 -46 76 -102 33 -56 70 -112 81 -125 82 -89 95 -132 46 -150 -26 -10 -64
-37 -85 -61 -53 -58 -51 -59 -163 99 -54 77 -133 186 -175 240 l-76 100 65
-12 c36 -6 76 -20 89 -31 21 -17 58 27 53 62 -1 6 19 10 45 10 25 0 42 -7 37
-15z m1113 -37 c0 -9 27 -31 60 -48 33 -17 60 -41 60 -54 0 -13 16 -41 35 -64
19 -23 -19 7 -85 66 -125 112 -155 150 -102 130 18 -7 32 -20 32 -30z m-1412
-48 c51 -47 52 -52 23 -109 -39 -74 -39 -101 -1 -101 98 0 7 -35 -98 -38 -150
-4 -164 15 -113 149 59 153 105 177 189 99z m2029 -150 c0 -134 -15 -147 -75
-62 l-42 57 55 62 c30 34 57 62 59 62 2 1 4 -53 3 -119z m-1764 -243 l63 -71
-43 -53 c-30 -37 -51 -47 -71 -35 -33 21 -9 69 29 54 45 -17 11 42 -45 79 -34
22 -45 24 -34 6 58 -93 26 -116 -66 -45 -37 28 -105 73 -152 99 l-84 49 74 0
c78 0 136 41 137 96 0 34 17 18 192 -179z m627 140 c0 -11 -8 -15 -17 -9 -9 6
-37 -11 -62 -37 -25 -26 -66 -53 -93 -60 -26 -6 -62 -39 -79 -73 -42 -81 31
-67 115 22 32 35 57 48 61 34 5 -13 32 14 62 61 29 47 69 85 87 85 27 0 29 -5
10 -24 -36 -36 -29 -54 16 -42 27 7 40 1 40 -19 0 -39 83 -61 106 -29 12 17
15 16 9 -6 -5 -16 4 -42 19 -57 43 -43 22 -127 -47 -188 -92 -81 -100 -67 -18
32 67 82 100 150 47 97 -34 -34 -57 -30 -42 9 9 23 5 29 -11 19 -12 -8 -23
-28 -23 -44 0 -29 -95 -126 -124 -127 -8 -1 -9 15 -2 34 12 31 9 32 -20 8 -19
-16 -34 -20 -34 -10 0 23 -90 23 -113 1 -9 -9 1 -10 22 -2 31 12 35 8 24 -20
-7 -19 -13 -52 -13 -73 0 -21 -18 -47 -40 -59 -33 -17 -37 -15 -27 12 12 29 8
30 -35 6 -26 -15 -57 -24 -68 -22 -11 3 -6 -7 12 -21 17 -14 28 -37 23 -51 -7
-19 5 -22 43 -13 63 16 63 10 11 -94 -70 -137 -177 -272 -254 -320 -156 -99
-233 -137 -273 -135 -37 2 -37 4 -5 12 24 6 33 22 27 48 -10 36 85 180 120
181 26 1 93 117 67 117 -12 0 -27 -13 -34 -30 -6 -16 -21 -30 -32 -30 -12 0
-50 -29 -86 -65 -68 -69 -118 -93 -104 -51 4 14 -4 65 -18 114 -15 49 -23 93
-17 99 5 5 10 -1 10 -13 0 -12 18 -32 40 -44 31 -17 39 -16 35 4 -3 15 10 24
30 20 22 -4 36 7 37 30 1 22 5 26 11 10 6 -14 0 -39 -14 -55 -13 -16 -16 -29
-6 -29 9 0 44 40 77 90 62 92 79 104 100 71 7 -12 30 -13 57 -2 38 14 45 10
49 -33 6 -81 28 -96 57 -39 26 49 19 154 -10 150 -35 -5 -63 6 -92 35 -36 36
-27 40 -216 -101 -52 -39 -95 -63 -95 -52 0 11 -13 15 -30 8 -48 -18 -35 9 40
84 84 85 85 86 15 73 -126 -23 -209 -170 -143 -255 28 -37 32 -349 4 -372 -33
-28 -59 73 -29 110 16 19 16 41 -2 80 -27 56 -45 66 -65 33 -7 -11 -3 -20 10
-20 14 0 18 -33 11 -95 -6 -52 -15 -144 -21 -204 -6 -59 -19 -118 -28 -130
-16 -20 -36 -101 -51 -213 -7 -55 -69 -278 -77 -278 -2 0 -5 52 -7 115 -4 158
-27 268 -52 252 -14 -9 -17 24 -9 102 12 119 2 178 -27 160 -10 -6 -25 19 -35
55 -17 63 -18 64 -33 19 -9 -28 -6 -56 7 -69 31 -31 27 -55 -5 -42 -32 12 -61
-45 -33 -62 12 -7 9 -28 -5 -51 -19 -31 -18 -49 8 -94 49 -84 23 -122 -36 -52
-37 42 -44 46 -28 13 12 -24 31 -50 42 -57 26 -16 3 -92 -37 -121 -37 -27 -47
-108 -18 -144 14 -18 13 -33 -3 -49 -17 -17 -23 -12 -23 23 0 33 -9 43 -29 35
-17 -6 -39 4 -50 23 -11 19 -20 23 -20 10 -1 -13 8 -29 19 -36 11 -7 20 -37
20 -66 0 -30 9 -67 19 -83 10 -16 11 -39 3 -50 -64 -81 -37 -251 38 -251 l56
0 -5 145 c-3 80 1 154 9 165 14 18 34 100 99 395 10 42 13 96 8 120 -7 41 -6
40 13 -4 12 -27 33 -62 46 -79 13 -17 14 -24 2 -17 -15 9 -17 -15 -7 -81 8
-53 6 -99 -4 -106 -10 -6 -13 -26 -6 -45 8 -18 5 -33 -5 -33 -9 0 -19 -16 -20
-35 -9 -103 -46 -267 -66 -295 -41 -56 -40 -130 3 -173 l43 -43 -52 13 c-39
10 -65 1 -107 -38 -30 -28 -67 -46 -82 -40 -16 6 -68 11 -116 11 -85 0 -87 2
-70 48 10 26 13 53 7 59 -6 6 15 17 47 25 89 21 110 45 84 94 -13 23 -24 97
-25 163 -1 67 -8 126 -16 131 -23 18 -37 357 -16 370 13 8 9 24 -8 41 -33 32
-61 39 -43 10 6 -10 3 -24 -8 -30 -25 -16 -4 325 23 377 40 74 111 -52 100
-180 -10 -120 8 -216 37 -198 10 7 19 -2 19 -20 0 -18 -9 -27 -20 -20 -11 7
-20 -9 -20 -38 0 -27 8 -54 17 -60 10 -6 23 -38 30 -72 11 -55 53 -87 53 -40
0 11 -9 20 -20 20 -11 0 -20 10 -20 21 0 12 9 16 20 9 31 -19 23 13 -13 53
-18 21 -23 37 -11 37 12 0 27 -9 34 -20 7 -11 26 -20 43 -20 24 0 20 9 -13 36
-88 71 -35 583 77 737 45 62 53 59 81 -33 13 -44 32 -80 43 -80 10 0 19 -29
19 -65 0 -36 12 -87 26 -115 27 -54 30 -125 6 -195 -9 -28 -7 -45 7 -45 12 0
21 -45 21 -110 0 -60 8 -110 18 -110 22 0 34 132 33 365 -1 96 5 175 13 175
24 0 0 120 -33 172 -18 26 -50 48 -71 48 -22 0 -40 13 -40 30 0 17 4 30 8 30
5 0 24 6 44 13 22 9 30 6 22 -7 -8 -12 2 -34 21 -49 32 -24 32 -24 8 8 -24 31
-23 35 10 35 30 0 26 9 -23 49 -33 27 -52 50 -43 50 10 1 7 14 -7 31 -25 30
-60 24 -60 -11 0 -10 13 -13 29 -7 24 10 25 3 6 -38 -13 -27 -34 -45 -47 -41
-12 5 -49 -13 -82 -41 -34 -29 -60 -40 -62 -26 -1 13 -6 49 -10 79 -5 30 -1
55 9 55 9 0 17 13 17 28 0 34 49 58 140 70 24 2 21 10 -9 33 -37 28 -35 29 30
19 63 -10 65 -9 19 11 -27 11 -65 17 -84 12 -29 -7 -32 -2 -15 29 11 21 28 38
38 38 24 0 141 99 141 119 0 9 -23 11 -51 6 l-51 -10 43 73 c47 79 62 86 98
43 24 -29 106 -36 88 -7 -22 37 68 11 123 -36 l60 -50 -80 10 c-44 6 -64 6
-44 0 59 -18 28 -53 -72 -82 -52 -15 -94 -35 -94 -45 0 -10 -18 -24 -40 -31
-52 -17 -52 -50 1 -50 23 0 36 -8 30 -19 -24 -38 24 -38 65 0 23 21 51 39 62
39 11 0 32 17 46 37 20 29 59 40 163 46 96 7 145 19 162 42 15 21 33 26 51 15
37 -23 280 -23 280 0 0 9 -15 20 -33 24 -23 4 -10 22 45 61 l78 55 -65 0 c-36
0 -65 -8 -65 -19 0 -10 -18 -17 -40 -16 -22 2 -40 11 -40 20 0 10 -20 3 -44
-14 -51 -35 -84 -41 -66 -11 7 11 -1 14 -19 8 -17 -7 -31 -2 -31 11 0 13 -10
17 -23 9 -15 -9 -18 -5 -9 9 8 13 23 18 34 12 10 -6 24 3 30 20 7 17 25 31 40
31 25 0 37 25 30 65 -1 8 8 15 19 15 13 0 17 -19 9 -45 -12 -43 -10 -43 35 7
26 28 94 72 151 98 57 26 104 54 104 63 0 9 14 11 30 4 17 -6 30 -20 30 -30z
m681 -156 c-13 -23 -36 -41 -53 -41 -31 0 -30 2 32 96 37 56 55 9 21 -55z m92
28 c18 -46 -34 -131 -72 -120 -17 6 -44 2 -60 -8 -40 -25 5 -77 74 -85 46 -5
113 -117 68 -115 -34 1 -231 198 -199 198 39 1 136 98 136 136 0 36 39 31 53
-6z m-382 -122 c-8 -22 -1 -26 27 -18 27 9 40 0 48 -30 12 -47 -21 -139 -50
-139 -10 0 -12 -10 -5 -22 43 -69 -200 -203 -372 -206 -102 -2 -142 -31 -44
-33 205 -3 233 -13 435 -146 110 -73 225 -155 256 -183 31 -27 69 -50 85 -50
16 0 29 -12 29 -27 0 -15 18 -43 41 -64 36 -32 39 -33 28 -3 -14 35 14 42 131
35 43 -3 50 6 50 57 0 41 -10 59 -30 58 -148 -10 -311 46 -265 92 7 8 -2 8
-22 0 -24 -9 -45 0 -64 28 -16 23 -81 71 -144 107 -189 107 -204 148 -85 227
33 22 60 51 60 63 0 13 11 27 23 31 13 5 23 42 21 84 -3 74 -2 75 40 47 43
-28 81 -93 41 -68 -11 7 -25 -6 -31 -28 -8 -32 -3 -38 24 -30 19 6 52 -2 73
-18 22 -17 28 -30 14 -30 -43 -1 -27 -33 30 -61 30 -15 61 -26 67 -24 7 1 48
-27 90 -64 75 -63 170 -103 223 -94 45 7 64 -86 36 -170 -15 -43 -32 -146 -40
-229 -18 -202 -29 -216 -116 -162 -38 24 -98 43 -132 43 -95 0 -243 82 -186
103 57 21 54 37 -7 37 -31 0 -50 -11 -50 -30 0 -17 -18 -30 -40 -30 -22 0 -38
11 -35 25 3 14 -13 26 -35 27 -78 4 -90 8 -90 34 0 14 -19 41 -42 61 -35 30
-40 50 -30 115 10 62 6 78 -18 78 -18 0 -30 -18 -30 -45 -1 -63 -21 -87 -83
-99 -59 -11 -46 64 21 119 26 22 25 25 -5 25 -20 0 -30 9 -23 20 7 12 -2 14
-22 6 -28 -10 -32 -5 -20 25 8 21 8 32 0 24 -7 -7 -31 -4 -53 8 -30 16 -44 14
-57 -6 -13 -20 -17 -20 -18 -2 0 14 -10 25 -21 25 -12 0 -16 -8 -10 -19 6 -10
3 -24 -9 -31 -11 -7 -20 4 -21 24 0 34 -1 34 -21 1 -11 -19 -40 -35 -64 -34
-42 0 -42 2 -8 28 20 15 34 39 31 54 -8 42 24 119 44 106 11 -6 19 2 19 17 0
30 57 53 129 54 106 0 251 179 251 307 0 34 8 50 21 42 12 -7 17 -26 10 -42z
m676 -48 c38 -26 66 -53 62 -61 -7 -11 -18 -73 -34 -188 -11 -82 -104 -95
-185 -25 -58 51 -108 261 -57 241 15 -6 34 10 45 39 23 61 74 59 169 -6z m520
-174 c44 -88 57 -185 25 -185 -17 0 -33 35 -41 93 -8 50 -19 104 -25 120 -19
49 12 28 41 -28z m336 -136 c5 5 10 -9 12 -32 2 -29 -6 -37 -28 -29 -17 7 -38
12 -47 12 -9 0 -11 18 -6 40 8 30 18 35 35 21 14 -12 29 -17 34 -12z m297
-130 c18 -22 229 -159 246 -159 45 0 252 -190 253 -233 1 -12 12 -27 26 -32
14 -6 53 -65 85 -133 33 -67 67 -122 76 -122 9 0 12 -7 6 -16 -5 -9 13 -79 41
-155 67 -185 104 -429 87 -579 -15 -129 -18 -119 -31 106 -5 80 -33 219 -61
310 -29 90 -59 187 -67 214 -8 28 -21 46 -30 40 -17 -11 -89 115 -90 157 -2
49 -177 276 -275 356 -97 79 -256 187 -276 187 -50 0 -168 104 -145 128 23 26
111 -13 155 -69z m-3562 -132 c-13 -15 -11 -26 5 -31 18 -6 13 -25 -19 -65
-24 -31 -44 -75 -44 -98 0 -25 -7 -34 -18 -22 -10 11 -10 72 0 149 25 182 35
201 68 140 17 -32 20 -58 8 -73z m2676 74 c91 -56 146 -115 144 -156 -1 -22
-5 -25 -11 -10 -6 15 -64 62 -129 106 -65 44 -118 85 -118 90 0 21 54 6 114
-30z m-1208 -39 c46 -18 51 -36 37 -128 -2 -9 -13 -10 -25 -3 -16 10 -14 19 5
31 21 14 19 17 -8 18 -19 0 -35 9 -35 20 0 11 -13 20 -30 20 -31 0 -40 24 -17
47 17 16 15 17 73 -5z m1197 -112 c22 -38 53 -70 68 -70 36 0 55 -35 41 -72
-10 -26 -20 -25 -70 11 -43 30 -61 35 -69 16 -6 -15 -10 -10 -11 11 -2 27 -12
33 -40 25 -44 -14 -64 38 -40 105 24 64 74 54 121 -26z m-1307 0 l73 -50 -55
0 c-31 0 -81 13 -112 29 -32 16 -61 25 -67 19 -6 -5 -15 4 -22 21 -19 51 98
38 183 -19z m-116 -60 c14 -17 30 -27 35 -21 6 5 37 -5 71 -22 41 -21 94 -29
165 -23 98 8 107 5 138 -48 40 -68 110 -106 230 -124 80 -12 281 -123 311
-172 6 -10 24 -13 39 -8 16 7 38 -8 52 -33 20 -39 19 -43 -9 -33 -31 12 -47
-16 -17 -29 35 -16 85 -134 63 -148 -12 -8 -30 -2 -40 13 -11 18 -17 20 -18 4
0 -35 -62 -41 -144 -14 -97 33 -156 94 -142 147 6 24 1 41 -13 41 -15 0 -19
15 -11 40 14 44 -20 56 -36 13 -25 -66 -161 -7 -182 78 -7 27 -26 49 -42 49
-16 0 -57 38 -91 85 -57 78 -70 86 -175 98 -128 15 -167 3 -115 -35 20 -15 29
-36 20 -50 -9 -15 -7 -19 6 -11 11 7 48 -18 82 -57 l61 -69 -8 62 c-4 35 -17
72 -29 84 -46 46 -17 48 61 4 49 -28 102 -81 130 -131 72 -127 66 -145 -47
-133 -114 13 -165 30 -165 58 0 11 -13 9 -30 -5 -24 -20 -30 -20 -30 3 0 16
-25 43 -55 61 -123 73 -150 122 -134 244 14 117 27 132 69 82z m-180 -50 c0
-11 15 -20 32 -20 26 0 30 -13 20 -65 -13 -69 -23 -140 -29 -205 -4 -38 -5
-38 -25 -4 -15 26 -14 44 3 65 26 32 5 38 -38 11 -22 -14 -22 -24 0 -59 22
-36 22 -50 -1 -87 -55 -88 -62 -151 -18 -163 55 -14 35 -62 -31 -69 l-53 -7
62 -52 c34 -29 117 -116 184 -194 67 -77 128 -139 136 -137 7 3 12 -11 11 -30
-2 -19 8 -32 21 -29 15 3 20 -8 12 -29 -8 -21 -5 -28 9 -19 13 8 28 -5 35 -28
27 -86 130 -180 172 -158 22 12 38 13 38 2 0 -38 -67 -43 -106 -8 -39 34 -39
34 -17 -9 47 -90 108 -113 149 -57 21 28 48 44 65 38 21 -8 29 3 29 40 0 28 9
56 20 63 12 8 13 26 3 46 -10 19 -14 45 -9 59 5 14 0 25 -12 25 -12 0 -22 -11
-23 -25 -1 -63 -56 -100 -128 -87 -112 22 -97 51 106 217 56 45 97 44 198 -5
46 -22 92 -40 103 -40 11 0 27 -11 36 -25 50 -78 87 -84 137 -24 26 33 48 48
48 34 1 -14 -6 -25 -16 -25 -9 0 -17 -11 -18 -25 -16 -194 -25 -245 -43 -251
-12 -4 -22 -29 -22 -56 0 -55 -42 -80 -95 -56 -41 19 -60 23 -120 26 -50 2
-63 42 -14 42 17 0 26 9 19 20 -7 11 -34 20 -61 20 -27 0 -49 -9 -49 -20 0
-11 9 -20 20 -20 33 0 23 -35 -15 -49 -19 -7 -37 -4 -41 8 -4 12 -16 16 -26
10 -22 -14 -24 -70 -3 -66 8 2 42 -8 75 -22 112 -47 387 -53 420 -9 17 23 29
28 29 13 1 -17 17 -22 50 -13 64 16 101 -6 71 -43 -20 -24 -310 -65 -373 -52
-13 2 -30 -5 -37 -17 -14 -23 70 -60 140 -60 26 0 54 -10 62 -23 15 -24 -9
-21 -261 32 -70 15 -74 19 -35 33 58 22 56 58 -3 58 -185 0 -386 172 -632 540
-48 72 -164 204 -258 294 l-171 164 34 189 c34 195 67 306 85 288 6 -5 1 -67
-12 -138 -46 -263 -47 -310 -6 -321 34 -9 37 6 39 202 2 179 9 225 47 297 42
79 81 111 81 65z m1583 -109 c65 -60 60 -148 -12 -225 -27 -29 -45 -60 -40
-68 13 -21 -64 -192 -109 -240 -58 -63 -89 -30 -76 80 10 85 6 96 -52 146 -61
54 -62 56 -24 84 48 35 51 33 57 -41 4 -38 15 -54 34 -49 81 22 109 12 102
-35 -4 -30 2 -42 15 -34 34 21 26 107 -11 128 -23 12 -36 54 -43 131 l-9 113
67 -10 c60 -10 64 -8 33 16 -19 15 -35 33 -35 40 0 29 54 10 103 -36z m-2036
-126 c7 -41 13 -101 13 -133 0 -33 14 -74 31 -93 65 -72 62 -231 -7 -295 -71
-66 -119 -212 -84 -254 17 -21 4 -41 -59 -92 -82 -66 -100 -111 -58 -153 17
-17 6 -53 -40 -143 -35 -66 -63 -138 -63 -158 0 -21 -19 -63 -42 -93 l-43 -53
44 -12 c34 -9 41 -21 31 -54 -7 -23 -18 -62 -24 -87 -25 -105 -62 -44 -74 120
-43 595 -36 662 98 918 43 81 82 198 101 298 52 274 151 434 176 284z m173 8
c0 -40 -8 -46 -50 -38 -57 11 -67 58 -15 71 62 16 65 15 65 -33z m441 -138
c73 -61 105 -135 58 -135 -12 0 -16 9 -9 20 23 37 -10 60 -50 35 -27 -17 -32
-30 -17 -48 24 -29 3 -147 -26 -147 -10 0 -28 27 -40 60 -12 33 -28 60 -37 60
-28 0 -37 78 -11 99 14 11 31 16 38 11 7 -5 4 1 -7 14 -78 93 -2 116 101 31z
m2186 -10 c13 -21 -38 -88 -54 -71 -24 24 -13 86 16 86 16 0 33 -7 38 -15z
m-1799 -88 c45 -13 100 -39 122 -58 22 -19 78 -41 125 -49 123 -20 175 -68
169 -158 -3 -43 4 -72 18 -72 12 0 17 14 11 30 -7 17 -3 30 8 30 10 0 19 15
19 32 0 30 4 30 50 0 44 -29 50 -29 50 -3 0 21 15 28 45 24 47 -7 75 -199 32
-225 -9 -6 -17 -28 -17 -50 0 -33 -6 -36 -41 -18 -22 12 -35 31 -28 41 6 10 2
19 -10 19 -11 0 -21 -9 -21 -20 0 -11 -22 -20 -50 -20 -31 0 -50 11 -50 30 0
21 -21 30 -70 30 -70 0 -160 62 -133 91 7 8 -12 10 -42 5 -33 -6 -56 -1 -56
12 -1 12 -5 53 -8 92 -4 38 1 86 12 105 27 50 -13 45 -63 -9 -34 -37 -39 -60
-28 -132 l13 -87 -97 14 c-54 8 -113 22 -131 31 -22 12 -37 9 -42 -6 -4 -12
-26 3 -48 36 -45 64 -77 168 -51 168 29 0 61 -44 51 -70 -5 -14 12 -30 40 -37
27 -7 66 -18 86 -25 27 -8 23 0 -13 29 -27 23 -50 62 -50 87 0 34 -10 44 -38
39 -28 -4 -34 3 -25 27 7 18 13 46 13 62 0 35 130 38 248 5z m1692 -86 c0 -16
-9 -34 -20 -41 -12 -7 -10 -26 5 -50 19 -31 16 -45 -14 -79 -38 -42 -104 -58
-80 -20 7 12 -6 27 -29 33 -54 14 -54 14 21 107 65 80 117 103 117 50z m240
-168 c0 -26 -79 -91 -93 -76 -8 7 3 31 23 53 38 42 70 52 70 23z m105 -28 c79
-44 141 -95 116 -95 -13 0 -37 13 -54 30 -44 44 -126 60 -153 30 -19 -20 -17
-23 11 -14 43 16 99 -4 83 -29 -6 -10 -4 -16 6 -13 22 7 126 -64 126 -86 0
-29 -33 -21 -144 32 -57 28 -119 45 -138 39 -19 -6 -41 -1 -48 11 -7 11 -6 19
4 16 9 -3 42 20 74 49 67 64 60 62 117 30z m-2330 -45 c55 -27 146 -59 203
-71 96 -21 121 -78 35 -79 -13 0 -44 -32 -69 -71 -44 -68 -84 -77 -84 -19 0
16 -18 38 -40 50 -22 12 -40 34 -40 48 0 15 -37 64 -82 110 -96 95 -69 106 77
32z m-424 -21 c-37 -38 -37 -39 -10 -166 19 -87 16 -112 -22 -202 -38 -87 -42
-123 -31 -256 9 -114 6 -169 -15 -207 -23 -43 -23 -60 -2 -100 65 -120 53
-266 -27 -329 -15 -11 -24 -29 -20 -40 3 -10 -3 -20 -14 -22 -11 -2 -17 6 -14
17 3 12 -8 16 -25 9 -17 -6 -31 -3 -31 8 0 10 16 19 35 19 26 1 23 7 -13 25
-138 71 -199 352 -77 355 7 0 5 -25 -7 -55 -27 -70 -6 -185 34 -185 17 0 27
-15 24 -35 -9 -55 95 -59 124 -5 37 68 19 116 -26 71 -50 -50 -63 -28 -14 24
47 51 22 154 -41 171 -48 13 -50 69 -5 135 l35 49 -52 -34 c-92 -60 -94 28 -4
160 26 38 48 80 48 92 1 12 10 4 21 -18 16 -34 17 -32 11 15 -4 30 -1 55 6 55
8 0 24 32 36 70 12 39 13 70 3 70 -10 0 -18 18 -18 39 0 27 10 36 30 28 21 -8
30 2 30 32 0 24 -9 38 -20 31 -11 -7 -20 -2 -20 10 0 12 -8 17 -18 11 -23 -14
-42 36 -42 113 l0 60 37 -45 37 -46 13 54 c8 29 28 53 45 53 28 0 28 -3 -1
-31z m-157 -207 c19 -31 18 -41 -5 -50 -33 -12 -40 -72 -9 -72 11 0 18 -31 15
-70 -3 -38 -13 -70 -22 -70 -10 0 -13 18 -7 40 6 22 2 40 -9 40 -44 0 -72 48
-44 76 15 15 27 53 27 85 0 68 20 76 54 21z m2438 -42 c29 -44 66 -80 81 -80
15 0 27 -10 27 -21 0 -12 -11 -15 -25 -6 -17 10 -16 3 3 -20 35 -44 13 -67
-30 -31 -28 23 -37 21 -65 -14 -37 -44 -99 -77 -138 -70 -14 2 -31 -10 -38
-27 -14 -38 29 -96 58 -78 12 7 15 4 8 -8 -16 -25 4 -85 28 -85 10 0 50 -22
91 -50 l74 -50 -122 0 c-126 0 -202 -51 -205 -138 -1 -24 -6 -22 -17 8 -20 50
-4 114 23 97 13 -8 15 -3 5 13 -13 20 -22 18 -43 -11 -26 -35 -27 -34 -27 7 0
24 9 44 21 44 14 0 14 12 0 37 -15 29 -11 46 17 72 41 36 35 111 -9 111 -34 0
-32 120 2 133 14 5 30 28 36 50 5 22 28 45 51 51 22 6 46 27 53 48 6 21 30 38
53 38 34 0 37 5 16 30 -17 20 -18 30 -3 30 12 0 46 -36 75 -80z m-2121 8 c57
-38 65 -77 13 -63 -28 7 -36 -1 -33 -33 6 -77 -12 -97 -53 -60 -50 45 -48 99
3 135 31 21 35 32 15 39 -14 6 -19 12 -10 12 8 1 38 -13 65 -30z m2409 -90 c0
-22 8 -35 19 -29 10 6 24 3 31 -9 7 -11 -4 -20 -24 -21 -28 0 -23 -8 19 -34
30 -19 55 -46 55 -60 0 -14 14 -25 30 -25 17 0 30 -9 30 -20 0 -36 -71 -21
-121 25 -26 25 -54 43 -60 41 -7 -2 -13 7 -15 20 -1 13 -4 38 -6 54 -2 17 -3
51 -1 76 4 56 43 39 43 -18z m596 -11 c17 -17 17 -29 2 -38 -11 -7 -38 5 -59
28 -36 38 -36 40 -2 38 20 -2 46 -14 59 -28z m-2862 -10 c14 -12 26 -43 26
-68 0 -29 33 -75 92 -127 60 -52 89 -92 81 -111 -9 -23 16 -38 103 -62 142
-40 284 -92 284 -103 0 -32 -818 210 -909 269 -58 37 5 32 77 -6 75 -39 161
-19 102 24 -42 30 -44 29 100 35 81 2 86 7 28 29 -65 24 -106 134 -51 138 23
2 53 -7 67 -18z m2938 -86 c6 -27 4 -60 -5 -75 -9 -14 -19 -43 -22 -65 -11
-69 -21 -56 -35 47 -18 133 32 210 62 93z m-4214 -222 c8 5 14 -22 13 -60 -1
-39 7 -67 19 -64 12 3 21 -4 21 -15 -1 -11 -9 -17 -19 -14 -32 11 -50 -42 -28
-83 17 -33 15 -37 -12 -26 -30 11 -29 7 2 -35 34 -44 38 -45 80 -14 49 35 59
74 23 86 -17 6 -16 27 2 83 14 42 21 97 16 123 -6 33 -1 43 18 36 14 -5 23
-28 20 -51 -4 -22 6 -77 21 -121 l28 -81 -106 -111 c-58 -61 -107 -114 -108
-117 -9 -24 -73 38 -155 150 l-97 132 32 67 c18 37 32 90 32 117 0 36 11 49
40 49 38 0 39 -3 10 -47 -16 -25 -25 -51 -18 -58 6 -6 2 -29 -9 -50 -15 -28
-14 -38 3 -38 13 0 25 22 27 50 3 52 60 110 90 91 9 -6 17 -1 17 11 0 11 -11
21 -25 21 -17 1 -15 7 5 20 23 14 32 9 36 -21 4 -22 14 -35 22 -30z m580 -24
c-11 -30 -42 -82 -70 -115 l-49 -60 20 55 c18 49 100 175 114 175 3 0 -4 -25
-15 -55z m598 4 c47 -33 61 -79 19 -63 -14 5 -23 19 -20 32 3 12 -4 22 -15 22
-11 0 -20 -9 -20 -20 0 -11 -13 -20 -30 -20 -30 0 -41 42 -17 67 20 19 33 16
83 -18z m-2016 -130 c0 -30 -10 -39 -35 -32 -19 5 -62 16 -95 25 l-60 15 70
14 c113 22 120 21 120 -22z m2142 10 c47 -16 98 -25 113 -20 15 6 22 2 15 -9
-20 -32 44 -23 78 10 27 28 37 23 100 -40 39 -38 85 -70 103 -70 17 0 26 -9
19 -20 -8 -13 5 -13 36 -1 27 10 57 11 66 2 30 -27 168 -45 168 -22 0 12 27
21 59 21 44 0 57 -8 49 -29 -6 -16 -24 -24 -40 -18 -47 18 -32 -22 17 -43 24
-11 54 -40 66 -64 17 -34 28 -39 45 -22 31 31 33 27 91 -133 54 -146 34 -271
-37 -244 -18 7 -24 1 -17 -18 18 -47 -21 -34 -78 26 -54 57 -95 143 -95 200 0
27 5 26 29 -6 17 -22 30 -29 30 -18 1 12 -12 39 -28 60 -17 22 -30 66 -31 99
-1 94 -33 130 -72 80 -17 -22 -39 -38 -49 -35 -10 2 -12 -11 -5 -30 7 -19 5
-29 -3 -21 -25 23 -64 -30 -78 -106 -16 -82 42 -163 81 -114 34 45 50 88 18
47 -40 -49 -47 -38 -31 49 8 39 15 59 16 45 2 -14 13 -25 24 -25 13 0 16 17 8
42 -10 33 -5 40 24 34 112 -23 -59 -312 -187 -315 -69 -2 -202 213 -169 272
12 22 22 25 31 10 32 -51 86 12 80 91 -3 42 -6 92 -7 112 -1 35 -3 35 -49 0
-27 -20 -41 -45 -33 -56 28 -36 37 -127 12 -118 -13 5 -60 -27 -106 -71 -45
-45 -96 -81 -113 -81 -17 0 -46 -22 -64 -50 -29 -44 -86 -76 -60 -33 6 10 -5
32 -25 51 -92 82 -105 265 -23 306 28 14 39 26 25 26 -30 0 -34 72 -5 90 25
15 26 50 2 50 -10 0 -32 -36 -50 -81 -20 -51 -41 -76 -55 -67 -15 9 -18 5 -9
-9 21 -34 -98 -175 -168 -200 -79 -28 -93 1 -42 84 23 37 36 73 28 80 -7 7 -4
13 7 13 10 0 28 -9 39 -20 14 -14 28 1 43 50 12 39 13 70 3 70 -10 0 -18 19
-18 41 0 23 9 36 20 29 11 -7 20 1 20 18 0 122 48 149 182 101z m-230 -73
c-18 -10 -32 -41 -32 -68 0 -28 -8 -46 -17 -40 -22 14 -15 92 10 109 11 7 27
31 37 53 16 39 17 39 25 2 5 -22 -5 -46 -23 -56z m2623 39 c45 -58 44 -118 -2
-111 -32 4 -45 22 -49 71 -7 67 16 84 51 40z m-3115 -65 c19 0 30 -19 30 -50
0 -28 -11 -48 -24 -45 -32 6 -93 -101 -136 -235 -46 -146 -70 -168 -70 -64 0
119 129 449 159 408 6 -8 25 -14 41 -14z m2580 -89 c0 -65 -9 -124 -21 -132
-28 -17 -82 30 -66 56 7 12 4 15 -9 8 -11 -8 -27 -5 -34 7 -7 11 -4 20 5 20
10 0 14 28 9 62 -10 65 17 97 81 98 29 0 35 -19 35 -119z m-3920 59 c25 -16
22 -19 -13 -20 -23 0 -53 -13 -67 -30 -42 -50 -64 -33 -26 19 39 54 60 60 106
31z m4502 -84 c19 -36 15 -58 -24 -130 -54 -99 -72 -106 -98 -36 -10 28 -33
50 -50 50 -16 0 -30 3 -30 8 0 9 42 90 66 127 27 41 110 29 136 -19z m-3572
-76 c-15 -49 -4 -51 40 -7 47 47 63 18 97 -179 33 -192 7 -362 -59 -387 -19
-8 -25 -27 -17 -54 8 -29 6 -35 -7 -17 -15 23 -84 -45 -84 -83 0 -4 -35 -47
-79 -94 l-78 -86 -69 47 c-63 44 -84 120 -32 120 10 0 16 11 13 24 -3 13 21
36 52 52 40 20 54 39 47 66 -9 31 -4 34 28 17 44 -24 47 -41 13 -78 -14 -15 5
-10 42 11 76 44 129 97 76 76 -25 -9 -42 9 -70 71 l-38 83 -11 -58 c-15 -73
-93 -79 -124 -9 -11 25 -30 45 -42 45 -13 0 -38 20 -56 45 l-33 45 12 -45 c14
-54 -13 -58 -56 -10 -32 35 -1 124 31 92 7 -7 29 16 48 50 39 68 43 71 83 45
22 -14 22 -24 0 -59 -23 -38 -21 -48 21 -88 44 -41 46 -42 32 -5 -8 22 -14 69
-12 105 2 43 -7 70 -27 78 -17 6 -31 24 -31 39 0 15 -13 28 -30 28 -16 0 -30
11 -31 25 0 14 -15 -2 -33 -35 -17 -33 -44 -67 -59 -76 -15 -9 -27 -36 -27
-60 -1 -70 -28 -98 -84 -84 -43 11 -48 21 -38 80 16 90 146 235 195 216 33
-12 34 -9 10 20 -41 50 -13 41 48 -15 74 -69 221 -41 269 49 29 54 87 54 70 0z
m390 -67 c0 -59 13 -71 60 -59 23 6 34 22 27 43 -5 18 4 11 20 -17 18 -30 23
-58 12 -71 -10 -12 -28 -71 -40 -130 -36 -173 -77 -284 -78 -212 -1 52 -5 55
-34 30 -18 -15 -39 -27 -45 -27 -7 0 -10 -5 -8 -11 2 -6 -12 -21 -31 -33 -38
-23 2 288 59 459 28 84 58 99 58 28z m678 -205 c31 -52 34 -68 13 -68 -16 0
-34 17 -40 38 -25 78 -78 100 -68 28 11 -75 -31 -106 -63 -47 -27 52 -25 61
13 61 19 0 28 5 22 12 -19 19 32 64 59 54 13 -5 42 -40 64 -78z m-218 23 c0
-42 86 -182 96 -154 22 67 87 7 170 -157 69 -136 98 -187 132 -227 14 -17 20
-41 13 -52 -22 -34 -51 -24 -51 18 0 21 -12 46 -28 55 -15 9 -64 74 -110 145
-90 139 -115 170 -96 116 11 -30 7 -31 -27 -10 -21 14 -39 36 -39 50 0 14 -9
25 -20 25 -11 0 -20 14 -20 30 0 17 -10 30 -22 30 -13 0 -18 18 -12 40 8 30 0
40 -29 40 -32 0 -35 6 -17 40 25 47 60 53 60 11z m-205 -44 c46 -35 74 -45 83
-30 9 15 25 10 46 -16 18 -21 28 -42 23 -48 -30 -29 179 -305 244 -321 27 -7
49 -24 49 -37 0 -98 381 -474 453 -447 15 6 27 -2 27 -19 0 -16 11 -29 23 -29
30 0 97 -60 97 -86 0 -10 -14 -8 -30 6 -17 14 -36 20 -43 14 -7 -7 -40 1 -75
18 l-62 30 50 -40 c28 -23 58 -41 67 -42 9 0 47 -31 84 -70 91 -93 156 -96 74
-4 -34 39 -34 39 9 17 28 -15 48 -16 56 -3 7 11 21 20 32 20 11 0 15 -9 7 -21
-7 -11 22 -62 64 -112 88 -104 137 -177 167 -243 11 -26 29 -41 40 -34 12 7
20 6 18 -4 -7 -43 5 -64 32 -53 21 8 30 -2 30 -31 0 -23 8 -42 18 -42 10 0 23
-30 30 -66 7 -36 30 -101 52 -144 50 -99 51 -170 1 -263 -22 -41 -34 -82 -27
-93 7 -11 3 -15 -8 -8 -11 7 -16 36 -11 63 13 70 -11 156 -39 139 -15 -10 -19
-1 -12 25 6 22 -2 57 -17 77 -34 47 -35 73 -2 69 62 -8 80 1 58 28 -13 15 -17
33 -9 40 7 7 -6 13 -29 13 -23 0 -55 -13 -71 -29 -36 -36 -59 -18 -35 28 11
20 11 45 0 62 -27 43 -23 59 11 46 48 -18 35 29 -15 55 -25 12 -75 51 -111 85
-41 39 -61 49 -53 28 32 -83 -69 -2 -156 125 -34 50 -64 93 -67 97 -3 4 -15 1
-28 -7 -16 -10 -15 -23 4 -46 18 -22 7 -19 -34 9 -33 22 -78 52 -100 65 -40
25 -40 25 0 14 59 -17 -128 149 -195 172 -30 11 -55 33 -55 48 0 15 -16 28
-35 28 -25 1 -28 5 -10 16 18 12 2 38 -55 94 -57 56 -73 82 -55 94 18 11 12
20 -20 28 -25 7 -45 25 -45 40 0 16 -13 28 -30 28 -16 0 -30 10 -30 21 0 12
-14 36 -31 53 -17 17 -27 43 -21 57 5 14 -3 31 -19 37 -16 6 -29 26 -29 44 0
47 -121 166 -155 153 -19 -7 -14 -17 19 -33 29 -15 49 -47 57 -92 12 -74 142
-304 234 -417 129 -157 94 -172 -41 -17 -229 263 -416 548 -374 574 14 8 19
26 11 39 -8 12 -4 36 10 52 35 42 8 95 -41 79 -28 -9 -40 -4 -40 19 0 17 -13
31 -30 31 -20 0 -30 20 -30 60 0 73 8 74 95 7z m1984 -159 c39 -32 94 -82 124
-111 31 -28 59 -48 65 -43 5 6 4 -9 -2 -32 -15 -58 -63 -29 -231 139 -133 133
-203 270 -80 156 30 -28 86 -77 124 -109z m-1213 57 c-54 -41 -69 -29 -33 26
25 39 37 45 50 25 10 -16 4 -35 -17 -51z m-61 -35 c30 -26 55 -55 55 -64 0 -9
21 -39 47 -67 25 -27 43 -60 39 -72 -10 -28 48 -87 85 -87 16 0 29 -10 29 -21
0 -12 20 -19 45 -15 36 5 46 -5 51 -46 3 -29 33 -78 65 -109 32 -31 59 -67 59
-80 0 -14 23 -39 50 -57 28 -18 50 -47 50 -65 0 -17 26 -64 57 -104 32 -40 72
-101 89 -134 17 -34 45 -74 63 -88 17 -14 31 -46 31 -71 0 -25 14 -56 30 -70
17 -14 30 -36 30 -50 0 -14 14 -36 30 -50 17 -14 30 -41 30 -61 0 -20 11 -48
25 -63 43 -44 73 -130 85 -240 l11 -106 -40 80 c-70 142 -181 388 -181 403 0
31 -104 147 -132 147 -17 0 -25 9 -18 20 7 11 3 20 -8 20 -11 0 -15 14 -9 31
7 17 4 29 -6 27 -39 -7 -63 4 -75 33 -6 18 -3 26 8 19 11 -7 20 -4 20 7 0 11
-7 23 -15 26 -8 4 -37 50 -65 103 -27 52 -89 133 -137 180 -61 58 -80 70 -63
37 27 -54 16 -50 -90 29 -33 25 -85 51 -115 59 -52 13 -78 49 -35 49 44 0 16
64 -62 140 -55 53 -78 90 -70 112 8 21 -1 35 -26 42 -21 5 -43 27 -48 48 -9
33 -18 35 -64 18 -45 -17 -53 -16 -43 9 6 16 3 35 -8 42 -45 28 -16 67 56 74
41 5 84 10 95 11 11 2 45 -19 75 -46z m976 -75 c118 -124 137 -155 99 -155
-11 0 -20 14 -20 30 0 17 -11 30 -25 31 -41 1 -238 219 -197 219 13 0 77 -56
143 -125z m-550 64 c8 -14 20 -14 37 -1 29 25 120 -29 101 -60 -15 -24 34 -73
100 -98 35 -13 56 -39 64 -80 7 -33 24 -60 38 -60 14 0 32 -29 40 -65 7 -36
25 -78 39 -95 39 -45 70 -177 70 -300 0 -61 9 -141 20 -179 10 -38 16 -72 11
-77 -14 -13 -71 112 -71 156 0 23 -9 37 -20 30 -19 -12 -29 17 -21 58 2 10
-16 60 -40 110 -120 255 -176 351 -199 346 -14 -3 -20 6 -14 23 8 20 0 26 -24
19 -26 -6 -46 11 -70 63 -19 40 -70 94 -113 122 -92 58 -94 64 -34 88 60 25
70 25 86 0z m431 -83 c15 -27 12 -45 -11 -68 -36 -36 -40 -68 -10 -68 12 0 16
9 9 20 -20 32 52 49 73 18 10 -15 27 -41 37 -58 15 -24 23 -25 36 -5 17 27 21
24 196 -125 l71 -60 -51 -44 c-49 -43 -50 -43 -62 -5 -7 21 -20 39 -29 39 -9
0 -22 23 -29 50 -7 28 -26 50 -43 50 -43 0 91 -217 173 -280 7 -5 19 -32 28
-60 12 -41 10 -45 -12 -25 -14 14 -35 25 -47 24 -12 0 5 -21 36 -47 81 -66
115 -385 54 -500 -21 -40 -23 -58 -5 -76 17 -17 17 -30 1 -50 -16 -19 -16 -26
2 -26 15 0 12 -11 -8 -32 -17 -17 -26 -39 -20 -49 6 -10 -4 -40 -22 -68 -18
-27 -28 -57 -22 -67 6 -9 -1 -64 -17 -122 l-27 -105 43 28 c50 32 134 191 120
227 -5 13 0 29 11 36 40 25 42 -88 4 -185 -22 -55 -43 -125 -47 -156 -6 -48
-18 -58 -76 -64 l-68 -6 50 -28 c44 -24 45 -28 10 -28 -65 -1 -168 72 -160
113 4 20 8 51 8 70 1 21 13 31 30 24 50 -19 50 155 1 340 -17 68 21 57 53 -15
16 -37 18 -36 8 12 -6 31 -2 55 10 55 11 0 19 25 19 55 -1 53 -2 53 -20 10
-18 -45 -59 -62 -59 -25 0 11 11 20 25 20 19 1 19 4 -1 17 -31 20 -10 83 28
83 15 0 28 10 28 21 0 13 -18 16 -45 8 l-45 -14 45 40 c47 41 40 121 -14 154
-34 21 -24 51 12 37 21 -8 29 -5 20 9 -7 12 -2 26 12 32 14 5 -1 11 -32 11
-50 2 -54 6 -32 33 22 27 18 28 -30 10 -47 -18 -53 -16 -46 14 4 19 16 33 27
32 10 -2 15 31 11 75 -4 43 -15 78 -24 78 -10 0 -28 38 -42 85 -13 47 -34 98
-45 113 -16 21 -13 33 12 49 30 19 24 32 -55 107 -49 47 -89 95 -89 107 0 11
-31 50 -69 85 -57 53 -65 69 -45 96 51 67 112 57 156 -26z m-662 33 c0 -17 9
-26 21 -18 11 7 41 -1 67 -18 25 -16 63 -33 84 -36 21 -4 49 -28 63 -54 35
-66 32 -72 -22 -37 -37 24 -53 26 -73 8 -19 -19 -27 -18 -35 3 -8 23 -12 23
-27 0 -12 -19 -21 -8 -30 39 -9 46 -20 60 -34 46 -22 -22 -75 53 -60 83 15 27
46 16 46 -16z m-1911 -137 c12 -52 10 -56 -18 -33 -25 21 -37 21 -61 1 -45
-37 -40 37 5 81 41 40 55 31 74 -49z m2366 -242 c45 -69 39 -82 -25 -57 -24 9
-26 17 -10 27 17 10 11 27 -21 57 -25 23 -52 37 -60 32 -8 -5 -20 4 -26 20
-22 57 96 -8 142 -79z m-666 -66 c-8 -8 -18 -3 -23 11 -5 14 -22 25 -38 25
-30 0 -37 24 -15 47 8 7 31 -5 52 -28 22 -23 32 -48 24 -55z m-1014 -189 c62
-58 185 -173 274 -256 88 -84 224 -209 301 -279 77 -70 164 -151 192 -181 29
-29 69 -66 90 -81 21 -16 59 -60 86 -98 28 -41 -30 4 -140 111 -185 178 -478
447 -783 718 -139 123 -179 171 -143 171 6 0 62 -47 123 -105z m1430 0 c5 -14
-6 -35 -23 -48 -28 -20 -25 -27 23 -48 61 -28 70 -49 28 -65 -16 -6 -61 25
-105 72 -43 45 -64 73 -48 62 45 -31 90 -21 87 17 -3 40 26 47 38 10z m-1398
-183 c62 -53 108 -104 103 -112 -13 -21 64 -86 86 -72 10 6 36 -8 56 -32 21
-24 25 -35 10 -26 -19 11 -24 9 -14 -7 8 -13 26 -22 39 -19 12 2 87 -58 166
-135 79 -76 180 -173 225 -215 45 -42 82 -84 82 -94 0 -10 20 -29 45 -42 25
-13 50 -32 57 -42 6 -10 32 -20 57 -21 46 -4 130 -99 107 -122 -7 -7 1 -13 17
-13 18 0 42 -34 57 -80 27 -82 49 -100 67 -55 6 15 10 11 11 -10 2 -39 -38
-47 -71 -14 -14 14 -17 0 -11 -45 5 -36 26 -82 47 -102 20 -19 37 -54 37 -76
0 -22 8 -36 17 -30 25 16 88 -44 150 -143 93 -149 212 -256 437 -397 143 -90
276 -210 276 -249 0 -25 54 -72 160 -140 88 -57 160 -112 160 -122 0 -11 8
-15 17 -9 9 6 70 -24 135 -66 65 -42 186 -120 268 -174 128 -83 357 -213 666
-378 41 -22 66 -43 55 -46 -98 -33 -1316 649 -1575 882 -24 21 -57 34 -74 28
-100 -39 -975 830 -905 899 4 5 17 -17 28 -48 11 -32 69 -97 128 -145 l107
-89 -102 111 c-57 60 -109 130 -117 154 -7 24 -24 44 -37 44 -14 0 -37 29 -52
65 -173 401 -776 943 -1112 1001 l-128 22 -14 107 c-12 99 -9 112 42 165 67
70 111 55 297 -108z m2029 -354 c-2 -46 -7 -54 -20 -31 -9 17 -29 27 -44 21
-15 -6 -33 5 -40 24 -10 27 -7 29 15 11 21 -18 33 -17 53 7 34 42 38 39 36
-32z m-402 -295 c-7 -24 52 -183 69 -183 8 0 10 14 4 31 -10 26 -4 27 41 6 33
-15 51 -39 51 -65 -2 -41 -2 -41 -19 -2 -13 30 -18 32 -19 8 -1 -40 -68 -118
-100 -118 -16 0 -20 19 -11 60 8 36 5 60 -7 60 -24 0 -67 124 -75 217 -6 66
-5 67 32 33 21 -19 37 -40 34 -47z m806 -93 c0 -29 -12 -50 -27 -50 -18 0 -24
16 -18 50 5 28 18 50 27 50 10 0 18 -22 18 -50z m-1926 -75 c23 -25 48 -65 55
-90 8 -25 21 -45 30 -45 32 0 126 -183 105 -204 -21 -21 -90 59 -73 86 16 26
-29 41 -64 21 -30 -16 -28 -24 20 -72 29 -29 53 -69 53 -89 0 -40 -46 -89 -65
-70 -7 6 -28 1 -48 -12 -36 -22 -36 -23 0 -11 28 8 34 4 26 -19 -7 -17 -1 -30
13 -30 13 0 -5 -18 -41 -40 -36 -22 -65 -44 -65 -49 0 -12 100 29 135 56 14
10 31 14 37 8 6 -6 -34 -36 -89 -67 -55 -31 -96 -64 -90 -73 34 -55 -202 -311
-265 -287 -22 8 -29 4 -22 -14 11 -31 -58 -81 -87 -63 -10 6 -19 2 -19 -10 0
-11 -13 -21 -30 -21 -16 0 -30 9 -30 20 0 40 -36 18 -91 -54 -37 -48 -45 -69
-24 -61 18 7 36 1 42 -15 10 -26 -26 -50 -76 -50 -44 0 -55 63 -16 94 19 16
24 23 10 16 -14 -7 -25 -5 -25 5 0 9 11 29 25 44 20 21 20 28 -2 36 -23 8 -23
13 0 27 20 13 17 17 -14 18 -23 0 -61 -18 -85 -41 -24 -22 -60 -38 -78 -35
-58 10 -77 -184 -27 -276 40 -76 81 -52 81 50 0 22 9 45 20 52 11 7 20 -9 20
-35 0 -62 19 -81 54 -52 93 78 54 -111 -55 -264 -23 -32 -32 -59 -21 -59 11 0
41 36 66 80 53 92 63 96 105 36 l31 -45 2 50 c2 32 6 37 12 15 5 -19 -1 -52
-13 -75 -19 -34 -17 -38 14 -29 30 10 30 7 -4 -20 -64 -53 -320 -47 -440 10
-186 88 -236 179 -142 257 28 23 30 21 18 -11 -13 -33 -10 -35 18 -12 35 28
115 172 115 205 0 11 15 44 34 73 19 29 32 80 29 117 -6 65 114 147 133 90 4
-11 39 -2 80 20 98 52 196 52 210 -1 6 -22 1 -40 -10 -40 -11 0 -15 -13 -9
-29 8 -20 1 -25 -21 -17 -22 9 -28 5 -18 -11 8 -13 42 -21 75 -19 63 5 103 36
46 36 -24 0 -29 10 -19 35 8 19 19 50 24 69 6 18 37 43 71 55 79 27 81 27 68
-9 -23 -58 35 -29 123 63 49 52 73 87 52 79 -353 -136 -877 -207 -818 -112 15
25 110 27 110 2 0 -40 383 19 440 68 38 33 196 76 230 63 14 -6 43 3 63 20 20
16 26 24 12 17 -14 -7 -25 -4 -25 7 0 10 14 24 30 30 44 17 36 67 -13 80 -38
10 -114 -49 -116 -90 -1 -21 -124 -58 -146 -44 -12 7 -16 5 -10 -6 20 -31
-101 -71 -194 -64 -48 4 -84 1 -79 -6 21 -34 -100 -36 -149 -3 -29 19 -58 33
-65 32 -14 -5 -11 128 4 143 6 6 41 -16 78 -49 49 -44 72 -54 83 -35 9 15 -3
40 -32 65 -44 37 -91 110 -91 141 0 8 14 3 30 -11 31 -26 41 -3 15 32 -8 11
30 -27 85 -84 104 -108 142 -133 235 -156 88 -21 64 17 -41 64 -53 24 -123 71
-155 105 l-59 62 95 -53 c108 -60 131 -55 28 6 -48 28 -70 58 -77 101 -9 63
29 103 56 59 9 -13 5 -17 -9 -8 -12 8 28 -37 90 -99 103 -102 175 -149 231
-149 14 0 13 10 -3 28 -14 18 -16 33 -4 40 11 7 24 1 30 -13 6 -15 10 -11 11
10 2 37 -47 48 -68 15 -23 -38 -67 -20 -92 38 -17 38 -36 54 -57 47 -17 -6 -1
21 37 61 69 73 97 72 127 -6 7 -18 12 -9 13 23 1 28 16 63 32 77 17 14 30 36
30 49 0 14 18 41 41 62 23 20 38 56 35 80 -13 100 88 141 158 64z m726 -176
c61 -56 244 -230 407 -386 164 -156 306 -281 317 -278 10 4 13 -3 6 -15 -7
-11 2 -20 20 -20 20 0 27 -9 18 -23 -10 -16 -4 -20 17 -12 18 7 43 0 56 -16
13 -16 16 -29 7 -29 -9 0 19 -36 61 -79 43 -44 85 -75 94 -69 9 6 17 -1 17
-15 0 -14 43 -70 95 -125 87 -91 82 -89 -55 29 -82 71 -156 137 -163 147 -7 9
-23 11 -35 3 -12 -7 -22 0 -22 16 0 16 -154 176 -343 356 -576 549 -689 660
-647 640 22 -11 90 -67 150 -124z m240 -121 c0 -27 -23 -22 -63 15 -54 49 -45
73 13 35 28 -18 50 -41 50 -50z m-90 -135 c0 -7 18 -32 40 -56 111 -119 133
-147 114 -147 -12 0 -34 -5 -50 -11 -20 -8 -43 17 -73 78 -24 50 -53 94 -66
98 -13 4 -16 23 -8 44 12 33 43 29 43 -6z m357 -93 c-4 -12 15 -23 43 -25 63
-6 170 -59 170 -86 0 -10 22 -19 49 -19 68 0 158 -117 210 -275 47 -144 41
-189 -11 -79 -18 38 -55 80 -81 92 -26 11 -47 35 -47 52 0 26 -25 40 -48 25
-12 -8 -92 69 -92 87 0 9 11 14 25 11 14 -4 18 -3 10 2 -8 5 -15 21 -15 37 0
15 -16 28 -36 28 -20 0 -49 11 -64 25 -23 21 -23 18 0 -15 22 -30 14 -28 -30
10 -102 87 -120 107 -121 129 0 11 -13 18 -28 15 -23 -5 -23 -1 -3 24 28 33
84 2 69 -38z m-27 -238 c1 -12 41 -62 90 -111 82 -81 120 -142 70 -111 -12 7
-20 6 -18 -4 10 -56 -5 -65 -46 -27 -23 22 -37 47 -30 54 16 16 -23 67 -51 67
-11 0 -8 -16 8 -35 24 -32 24 -32 -8 -8 -19 16 -35 49 -35 74 0 27 -15 51 -37
58 -56 18 -99 109 -62 131 30 19 119 -47 119 -88z m-578 -178 c-14 -14 -30
-12 -53 7 -27 22 -35 22 -49 0 -21 -34 -80 -12 -80 30 0 17 8 26 18 20 9 -6
28 3 42 19 21 26 32 24 84 -13 41 -29 53 -48 38 -63z m38 -83 c-27 -16 -41
-30 -30 -31 11 0 7 -9 -10 -20 -40 -26 -146 -26 -130 0 7 11 -12 20 -44 21
-89 2 59 48 174 54 88 5 89 4 40 -24z m180 -121 c0 -38 10 -70 22 -70 12 0 18
-11 13 -25 -5 -14 -21 -25 -37 -25 -15 -1 -27 -16 -25 -35 1 -19 0 -35 -3 -35
-21 0 -135 59 -115 59 45 2 25 30 -45 63 -63 29 -91 11 -40 -27 11 -8 -5 -15
-36 -15 -33 0 -51 8 -44 20 7 11 -6 20 -29 20 -30 0 -41 13 -41 50 0 46 7 49
95 48 52 -1 118 7 145 19 103 42 140 30 140 -47z m832 -79 c42 -88 -63 -86
-109 2 -17 34 -17 46 2 52 44 15 84 -6 107 -54z m-2143 -29 c13 -21 -82 -48
-110 -31 -11 6 -14 20 -8 30 15 24 103 25 118 1z m1122 -63 c25 -28 35 -66 32
-120 -3 -43 2 -79 11 -78 37 1 89 58 75 81 -10 15 -7 19 8 10 14 -9 23 0 23
22 1 30 4 31 20 6 15 -23 19 -24 20 -3 0 16 12 22 30 16 24 -9 28 -1 19 35
-18 71 24 81 81 20 48 -52 20 -129 -35 -95 -8 5 -21 -5 -27 -22 -7 -17 -24
-31 -38 -31 -14 0 -40 -36 -58 -80 -36 -92 -42 -148 -12 -130 11 7 20 4 20 -7
0 -10 -13 -24 -30 -30 -16 -7 -30 -27 -30 -46 0 -31 -3 -30 -29 4 -17 22 -30
53 -30 69 0 27 2 27 19 0 16 -24 19 -21 20 15 0 54 -7 55 -52 10 -32 -31 -34
-32 -23 -1 7 18 0 44 -16 57 -16 13 -25 30 -20 37 5 8 -8 25 -29 37 -33 21
-36 19 -25 -21 6 -24 12 -78 12 -120 1 -56 8 -72 29 -65 54 21 60 -11 24 -148
-39 -151 -37 -161 35 -161 39 0 45 8 35 40 -7 23 -4 40 9 40 11 0 20 -7 19
-15 -8 -48 8 -65 62 -65 63 0 75 17 38 54 -16 16 -12 37 14 77 20 30 40 44 44
32 28 -84 64 -13 64 126 0 256 62 434 132 375 9 -8 4 2 -11 21 -30 40 -12 74
21 41 15 -15 11 -52 -15 -127 -28 -80 -31 -107 -12 -114 39 -13 29 -100 -14
-130 -45 -31 -49 -148 -6 -164 14 -5 25 -37 25 -70 0 -42 10 -61 31 -61 49 0
14 -38 -67 -72 -92 -38 -308 -58 -434 -39 -105 16 -311 191 -309 264 0 29 7
26 29 -15 25 -46 201 -178 237 -178 26 0 12 56 -17 67 -36 14 -40 95 -7 128
18 18 11 28 -30 44 -29 11 -53 29 -53 41 0 29 55 25 66 -5 5 -14 18 7 29 45
16 59 13 77 -19 113 -22 23 -41 58 -44 76 -3 19 -18 42 -33 52 -22 14 -15 18
25 19 29 0 59 -8 65 -18 5 -9 29 -22 51 -28 70 -18 57 146 -15 191 -49 30 -51
34 -13 34 23 1 58 -17 79 -40z m-1087 -148 c17 -24 -22 -75 -46 -60 -10 6 -18
29 -18 50 0 33 -11 38 -72 30 -58 -7 -69 -3 -60 22 7 17 12 39 12 49 0 21 161
-59 184 -91z m37 -98 c-8 -23 -27 -45 -41 -50 -18 -6 -22 3 -13 26 7 19 13 41
13 49 0 9 13 15 28 15 20 0 24 -12 13 -40z m799 -143 c0 -31 -11 -50 -30 -50
-16 0 -30 8 -30 18 0 10 -5 33 -12 50 -9 23 0 32 30 32 31 0 42 -12 42 -50z
m-833 -20 c-8 -21 12 -39 66 -61 42 -17 96 -40 120 -52 24 -12 52 -16 63 -10
10 7 19 -10 19 -37 0 -29 -12 -50 -27 -50 -16 0 -28 9 -28 20 0 23 -106 28
-127 6 -23 -23 -118 -30 -104 -8 33 54 -74 81 -137 33 -34 -26 -92 -53 -128
-61 -37 -7 -71 -26 -77 -41 -6 -14 -36 -25 -69 -25 -64 2 -82 36 -18 36 51 0
52 32 1 59 -46 25 -87 27 -73 4 14 -22 -99 -138 -150 -154 -99 -31 -115 88
-20 148 58 37 85 110 33 91 -22 -9 -31 0 -31 32 0 39 7 43 55 31 135 -33 171
-36 157 -14 -10 15 6 23 47 23 41 0 61 -10 61 -30 0 -17 18 -30 40 -30 22 0
40 9 40 20 0 27 88 60 186 70 43 4 83 13 90 19 19 19 23 12 11 -19z m1179
-510 c13 -33 30 -60 40 -60 9 0 11 -9 4 -20 -7 -11 -4 -20 6 -20 11 0 24 17
29 38 20 77 207 44 242 -43 8 -19 14 -19 30 3 16 24 24 23 53 -5 29 -29 29
-33 1 -33 -17 0 -31 -10 -31 -21 0 -13 -18 -16 -45 -8 l-45 14 40 -45 c22 -25
80 -64 128 -87 110 -54 180 -143 95 -122 -33 8 -53 5 -53 -8 0 -12 14 -17 30
-10 36 14 42 -43 7 -65 -27 -16 -124 85 -107 112 6 10 0 24 -13 32 -13 8 -18
6 -10 -7 17 -28 -59 -45 -85 -19 -12 12 -22 37 -22 55 0 18 -7 39 -15 47 -8 9
-15 26 -15 39 0 12 -20 26 -45 29 -52 8 -59 -20 -15 -56 16 -14 39 -57 49 -97
12 -45 38 -81 65 -93 25 -11 64 -56 86 -101 22 -44 56 -105 75 -134 19 -30 35
-78 35 -108 l0 -54 -50 47 c-27 26 -50 58 -50 71 0 14 -15 30 -33 37 -18 7
-28 18 -22 24 15 14 -47 88 -74 89 -23 1 -142 235 -139 271 1 12 -18 18 -42
13 -25 -5 -51 1 -59 13 -7 12 -2 22 11 22 15 0 10 15 -12 40 -48 53 -67 50
-90 -11 -30 -79 -66 -38 -53 59 7 53 5 68 -6 42 -17 -42 -61 29 -61 100 0 94
133 118 166 30z m94 -339 c0 -10 28 -63 62 -118 46 -74 57 -108 43 -134 -17
-29 -22 -25 -41 29 -12 34 -32 62 -44 62 -12 0 -20 11 -18 25 3 14 -6 50 -19
81 -28 69 -28 74 -3 74 11 0 20 -8 20 -19z m-65 -47 c15 6 25 -8 25 -32 0 -33
-13 -42 -60 -42 -51 0 -60 8 -60 51 0 42 6 47 35 32 19 -9 46 -14 60 -9z m645
-94 c12 -22 38 -40 57 -40 43 0 203 -146 203 -185 0 -14 -18 -26 -40 -26 -22
0 -40 7 -40 16 0 24 -125 95 -145 82 -10 -6 -22 7 -28 30 -7 24 -22 36 -39 29
-16 -6 -28 2 -28 20 0 16 -13 35 -30 41 -40 16 -15 73 31 73 21 0 47 -18 59
-40z m409 9 c17 -18 31 -35 31 -39 0 -14 -120 34 -131 52 -19 31 67 20 100
-13z m-1053 -50 c14 -22 33 -36 43 -30 9 6 21 -1 27 -16 7 -19 -3 -24 -38 -17
-38 7 -46 2 -36 -24 15 -40 -5 -41 -43 -3 -36 35 -38 131 -4 131 14 0 37 -18
51 -41z m1315 -63 c3 -4 11 -33 18 -66 l13 -60 -35 60 c-29 50 -36 54 -43 23
-7 -34 -9 -34 -46 -1 -28 25 -32 39 -15 50 21 13 93 9 108 -6z m-1294 -205
c12 -60 -33 -85 -54 -29 -10 26 -14 55 -9 64 15 26 55 4 63 -35z"/>
<path d="M2904 8483 c-36 -23 24 -72 68 -55 26 10 28 18 8 42 -28 34 -40 36
-76 13z"/>
<path d="M2086 8418 c-40 -40 -8 -100 41 -75 61 32 61 32 27 66 -37 37 -40 37
-68 9z"/>
<path d="M1614 8480 c-19 -23 -29 -51 -23 -62 8 -12 25 -4 43 21 40 58 24 92
-20 41z"/>
<path d="M2226 7515 c-53 -68 -50 -80 11 -44 35 21 63 45 63 53 0 25 -53 19
-74 -9z"/>
<path d="M1073 6030 c12 -33 58 -40 75 -13 6 10 36 14 67 10 47 -6 49 -5 15
11 -68 32 -171 27 -157 -8z"/>
<path d="M3220 7832 c0 -49 44 -101 67 -78 23 23 14 46 -18 46 -23 0 -28 12
-19 40 7 23 4 40 -9 40 -11 0 -21 -21 -21 -48z"/>
<path d="M3429 7735 c-6 -17 -38 -42 -70 -56 -78 -32 -74 -64 11 -110 39 -21
70 -44 70 -51 0 -7 18 -18 40 -24 22 -6 35 -2 29 8 -6 10 -2 18 10 18 11 0 21
-7 21 -16 0 -23 121 -90 136 -75 7 7 2 30 -12 52 -13 21 -24 51 -24 67 0 31
-92 112 -126 112 -12 0 -2 -19 23 -41 43 -40 43 -79 0 -79 -12 0 -16 14 -9 31
6 17 3 26 -7 19 -11 -6 -29 8 -42 32 -18 34 -17 47 4 60 22 13 21 23 -7 51
-31 31 -36 31 -47 2z"/>
<path d="M3373 6871 c-6 -15 3 -33 20 -39 16 -7 24 -21 17 -32 -7 -11 1 -20
17 -20 50 0 53 55 4 88 -40 25 -49 26 -58 3z"/>
<path d="M3104 6285 c4 -8 20 -40 36 -71 23 -47 23 -60 1 -73 -38 -24 -11 -77
53 -106 31 -13 62 -33 70 -44 10 -14 22 -13 36 1 30 30 3 128 -34 128 -18 0
-26 12 -19 28 6 16 -4 34 -21 41 -18 6 -26 18 -19 25 18 18 -47 86 -82 86 -15
0 -25 -7 -21 -15z"/>
<path d="M4331 6181 c-34 -38 -33 -38 21 -24 30 8 59 26 63 39 13 38 -45 28
-84 -15z"/>
<path d="M1066 5644 c-17 -11 -7 -42 36 -110 35 -57 68 -90 82 -82 15 10 14
21 -6 36 -40 31 -99 144 -84 159 17 18 1 16 -28 -3z"/>
<path d="M2560 5590 c0 -38 9 -70 20 -70 11 0 20 32 20 70 0 39 -9 70 -20 70
-11 0 -20 -31 -20 -70z"/>
<path d="M2807 5570 c7 -16 4 -30 -6 -30 -10 0 -22 11 -28 25 -6 16 -10 13
-11 -8 -1 -18 -15 -38 -32 -44 -34 -13 -41 -73 -9 -73 11 0 25 14 32 30 6 17
24 30 40 30 71 0 113 41 74 71 -49 37 -74 36 -60 -1z"/>
<path d="M3040 5499 c0 -10 10 -19 21 -19 12 0 16 -9 9 -20 -7 -11 -4 -20 7
-20 11 0 34 -5 51 -12 55 -21 34 21 -28 56 -33 19 -60 26 -60 15z"/>
<path d="M2780 5351 c0 -17 -12 -25 -28 -19 -15 6 -34 0 -42 -12 -10 -16 4
-21 43 -17 53 7 98 77 48 77 -11 0 -21 -13 -21 -29z"/>
<path d="M2622 5267 c-1 -13 -7 -38 -14 -55 -19 -50 42 -39 104 18 59 55 56
60 -19 31 -36 -13 -53 -12 -60 5 -7 18 -10 18 -11 1z"/>
<path d="M2951 5192 c3 -63 25 -92 73 -92 40 0 40 2 9 37 -18 20 -33 46 -33
57 0 12 -12 26 -26 32 -16 6 -24 -7 -23 -34z"/>
<path d="M1347 5316 c1 -14 -10 -91 -24 -170 -31 -168 -14 -225 36 -123 39 80
44 299 8 311 -13 5 -22 -4 -20 -18z"/>
<path d="M1213 5267 c-33 -34 9 -207 50 -207 26 0 20 64 -13 127 -16 31 -25
65 -19 75 13 21 2 24 -18 5z"/>
<path d="M2932 4563 c-7 -11 15 -39 48 -63 72 -51 80 -26 12 38 -28 26 -53 37
-60 25z"/>
<path d="M3181 4910 c-1 -11 21 -47 48 -80 27 -33 50 -51 50 -40 1 11 -21 47
-48 80 -27 33 -50 51 -50 40z"/>
<path d="M3951 3153 c-20 -14 -33 -37 -28 -51 5 -16 25 -6 56 27 51 54 34 69
-28 24z"/>
<path d="M1690 4111 c44 -40 98 -82 120 -93 48 -24 -54 67 -140 125 -42 28
-36 19 20 -32z"/>
<path d="M1570 4099 c7 -11 73 -60 147 -109 73 -49 196 -143 272 -208 77 -66
144 -116 149 -111 5 5 5 12 0 15 -4 3 -66 56 -138 117 -254 216 -474 368 -430
296z"/>
<path d="M1500 4062 c0 -11 9 -25 20 -32 12 -7 15 -21 9 -31 -13 -22 84 -63
127 -55 17 4 -8 33 -64 72 -50 37 -92 57 -92 46z"/>
<path d="M2092 3024 c-8 -13 -7 -24 2 -24 9 0 3 -9 -14 -20 -26 -16 -23 -25
18 -64 36 -35 45 -38 36 -12 -8 23 6 49 40 75 52 41 42 57 -14 21 -22 -13 -33
-9 -42 14 -8 24 -15 26 -26 10z"/>
<path d="M1195 1856 c-87 -97 -87 -107 4 -60 49 24 69 49 73 89 7 68 12 70
-77 -29z"/>
<path d="M1318 1768 c-66 -69 -67 -72 -29 -99 64 -47 142 -36 182 26 20 30 48
67 63 81 54 55 34 76 -42 41 -38 -17 -58 -17 -78 0 -21 17 -42 6 -96 -49z"/>
<path d="M3820 2552 c0 -32 67 -172 82 -172 24 0 23 3 -12 86 -26 62 -70 116
-70 86z"/>
<path d="M3613 9950 c-20 -15 -27 -31 -16 -38 11 -7 15 -32 9 -57 -6 -31 -4
-37 9 -19 10 14 33 20 52 12 56 -21 124 51 78 82 -61 41 -96 46 -132 20z"/>
<path d="M2571 9679 c-43 -32 -72 -59 -64 -59 16 0 173 102 173 113 0 19 -37
1 -109 -54z"/>
<path d="M3620 9521 c0 -10 16 -21 35 -25 28 -6 23 -15 -25 -43 l-60 -35 58 9
c32 5 88 -4 125 -19 79 -34 86 -13 18 51 -28 26 -46 52 -42 59 4 7 -19 14 -51
16 -32 3 -58 -4 -58 -13z"/>
<path d="M3790 9320 c20 -22 29 -40 21 -40 -9 0 -5 -13 9 -30 14 -16 33 -30
42 -30 34 0 18 53 -28 97 -58 54 -93 57 -44 3z"/>
<path d="M4593 7547 c-21 -21 -15 -51 7 -37 11 7 20 3 20 -9 0 -11 18 -21 39
-21 25 0 36 -10 30 -27 -6 -14 10 -36 35 -48 l46 -22 -51 -2 c-45 -1 -128 63
-107 84 4 5 -15 19 -43 32 -59 27 -56 17 33 -97 30 -38 61 -92 69 -120 l15
-49 16 44 c40 108 150 -2 140 -139 -4 -58 5 -87 31 -107 50 -37 68 -36 53 4
-8 22 -5 29 9 20 40 -24 38 56 -2 92 -32 29 -35 43 -17 80 18 38 21 40 23 8 0
-20 19 -62 40 -92 22 -31 34 -61 27 -68 -7 -7 5 -14 26 -14 33 -2 33 -4 -8
-24 -47 -23 -62 -175 -16 -175 11 0 9 -11 -4 -24 -35 -35 -30 -52 21 -67 143
-45 257 -204 243 -339 -6 -54 -3 -71 10 -51 17 26 53 40 117 46 13 1 30 18 36
37 7 23 23 31 42 24 26 -10 29 -1 17 56 -38 172 -61 224 -108 241 -41 15 -44
14 -22 -13 21 -25 19 -30 -8 -30 -44 0 -152 80 -152 113 0 14 -18 35 -40 47
-76 41 -52 117 40 124 l80 6 -145 152 c-162 169 -233 226 -398 316 -124 68
-124 68 -144 49z"/>
<path d="M4679 7140 c-15 -70 -12 -77 44 -85 57 -8 107 25 60 41 -13 4 -18 16
-12 26 6 10 2 18 -10 18 -11 0 -21 -15 -21 -34 0 -29 -4 -29 -29 5 -17 22 -31
35 -32 29z"/>
<path d="M5446 6414 c8 -22 6 -31 -6 -24 -28 17 -100 -8 -100 -34 0 -11 22
-16 49 -11 28 5 45 2 40 -6 -17 -28 29 -119 61 -119 28 0 28 5 0 47 -19 29
-25 62 -16 85 13 32 17 29 28 -22 11 -51 13 -47 14 30 0 50 -4 78 -10 64 -8
-21 -16 -21 -42 0 -27 22 -30 21 -18 -10z"/>
<path d="M4500 6394 c0 -30 109 -99 127 -80 19 19 16 50 -4 38 -10 -6 -34 7
-53 28 -42 46 -70 52 -70 14z"/>
<path d="M5075 6156 c52 -56 63 -167 15 -149 -16 7 -50 4 -75 -5 -44 -16 -44
-16 -2 -30 23 -7 56 -7 74 0 22 8 33 2 33 -19 0 -20 -11 -27 -30 -20 -38 14
-40 -40 -3 -71 22 -18 32 -11 50 33 60 151 42 233 -62 287 l-45 23 45 -49z"/>
<path d="M5229 5865 c-12 -8 -28 -31 -35 -51 -8 -20 -23 -31 -33 -24 -21 13
-53 -84 -34 -103 26 -26 70 12 59 52 -10 37 7 50 57 44 6 -1 12 21 12 48 0 27
-1 49 -2 49 -2 0 -13 -7 -24 -15z"/>
<path d="M3855 5566 c28 -6 45 -23 45 -47 0 -53 63 -50 96 3 24 38 23 40 -15
28 -24 -7 -41 -4 -41 9 0 11 -29 20 -65 18 -47 -2 -53 -5 -20 -11z"/>
<path d="M4869 5161 c0 -21 8 -37 19 -35 11 2 23 -11 27 -29 10 -45 -60 -38
-79 8 -8 19 -26 35 -39 35 -19 0 -19 -6 -3 -22 13 -13 18 -35 12 -50 -6 -16
-3 -29 7 -30 9 0 34 -4 56 -8 22 -5 58 13 84 41 25 27 58 49 74 49 15 0 39 13
52 29 20 24 8 27 -78 19 -63 -6 -101 -2 -101 11 0 12 -7 21 -16 21 -8 0 -15
-17 -15 -39z"/>
<path d="M1204 4319 c-24 -38 -22 -42 20 -36 25 4 46 20 46 35 0 46 -38 46
-66 1z"/>
<path d="M1133 4196 c-32 -32 -54 -60 -50 -63 4 -2 24 -18 45 -34 36 -27 38
-26 25 25 -11 43 -7 53 15 44 17 -6 38 6 50 28 35 66 -21 66 -85 0z"/>
</g>
</svg>
