<?xml version="1.0" standalone="no"?>
<!DOCTYPE svg PUBLIC "-//W3C//DTD SVG 20010904//EN"
 "http://www.w3.org/TR/2001/REC-SVG-20010904/DTD/svg10.dtd">
<svg version="1.0" xmlns="http://www.w3.org/2000/svg"
 width="300.000000pt" height="300.000000pt" viewBox="0 0 300.000000 300.000000"
 preserveAspectRatio="xMidYMid meet">
<metadata>
Created by potrace 1.10, written by Peter Selinger 2001-2011
</metadata>
<g transform="translate(0.000000,300.000000) scale(0.050000,-0.050000)"
fill="#000000" stroke="none">
<path d="M3350 5703 c-330 -64 -728 -206 -1125 -404 -146 -73 -265 -127 -265
-121 1 7 32 70 70 141 77 142 77 150 7 124 -348 -133 -357 -637 -16 -874 108
-74 77 -169 -55 -169 -106 0 -238 -50 -311 -117 -80 -74 -84 -46 -14 109 114
251 100 465 -41 615 l-78 83 2 -170 3 -170 -154 -295 c-117 -224 -153 -313
-153 -375 0 -123 -81 -75 -152 90 l-35 80 -25 -80 c-37 -120 -34 -152 32 -284
57 -113 233 -307 300 -329 25 -9 23 -27 -10 -125 l-40 -116 52 -44 c71 -61
158 -193 158 -240 0 -92 81 -208 200 -285 65 -42 119 -87 119 -100 2 -58 75
-117 110 -88 40 33 70 3 71 -71 0 -23 20 -73 45 -110 44 -66 53 -178 14 -178
-10 0 -13 -13 -6 -30 11 -28 -14 -38 -88 -35 -13 0 -20 -6 -15 -15 13 -21 -44
-66 -66 -52 -10 6 -24 62 -30 124 -14 135 -45 181 -66 96 -7 -32 -18 -65 -23
-74 -15 -28 -62 26 -75 87 -17 77 -53 77 -37 0 19 -94 -58 -57 -121 58 -91
167 -138 181 -83 24 37 -105 15 -106 -60 -3 -71 95 -98 102 -82 18 9 -44 6
-59 -12 -53 -41 13 -156 177 -169 238 -19 97 -46 63 -45 -58 1 -102 16 -166
68 -290 12 -27 6 -35 -29 -35 -71 0 -35 -47 62 -80 49 -17 116 -51 149 -76 65
-51 72 -51 -91 -13 -88 21 52 -83 180 -134 138 -54 164 -84 137 -154 -11 -29
-23 -66 -27 -83 -4 -16 -13 -46 -20 -65 -10 -25 -5 -35 18 -35 40 0 42 -52 3
-67 -41 -15 -39 -231 3 -278 17 -19 39 -29 49 -23 23 14 22 -19 -2 -43 -35
-37 200 -255 254 -234 24 9 29 0 21 -42 -6 -29 -5 -54 2 -55 6 0 80 -5 162
-10 83 -5 170 -19 194 -31 24 -13 59 -15 80 -6 20 8 43 14 51 12 8 -2 15 10
15 26 0 16 10 35 23 43 20 12 44 17 134 25 18 2 22 20 13 61 -11 53 -7 60 49
72 42 9 61 25 61 52 0 21 10 38 22 38 24 0 25 2 -46 -251 -50 -182 -115 -249
-238 -249 -85 0 -198 -117 -198 -204 0 -63 18 -66 128 -24 21 8 32 1 32 -20 0
-40 41 -41 133 -2 90 38 87 38 87 -10 0 -40 129 -11 189 43 10 9 39 17 63 17
92 0 135 64 151 223 43 418 41 414 122 346 139 -117 674 -329 830 -329 l73 0
-66 -68 c-114 -117 -109 -300 6 -210 l52 41 0 -60 c0 -90 25 -90 111 -2 96 98
153 106 136 20 -22 -113 6 -136 80 -64 36 35 83 67 104 72 132 26 229 127 229
238 0 37 17 61 58 82 138 72 242 259 242 438 0 253 -247 580 -620 822 -249
161 -360 285 -360 400 0 30 -28 82 -67 126 -53 58 -78 115 -111 249 -69 283
-189 586 -272 687 -41 50 -71 93 -67 96 141 94 426 242 547 284 101 36 192 85
247 132 86 75 219 135 395 180 107 27 128 62 73 123 -90 98 -29 254 99 254 31
0 37 8 25 35 -46 109 -56 184 -33 260 24 80 175 330 206 342 36 13 16 43 -69
101 -175 120 -141 342 65 427 87 35 -90 59 -358 48 -208 -9 -845 -145 -1050
-225 -45 -18 22 84 134 204 99 106 42 111 -374 31z m-80 -94 c-44 -14 -94 -27
-112 -27 -69 -4 -617 -225 -788 -318 -353 -192 -383 -215 -408 -313 -35 -138
-29 -156 77 -231 136 -96 141 -140 6 -57 -115 71 -185 186 -185 305 -1 73 -6
94 -20 72 -15 -24 -19 -20 -19 20 0 66 63 201 116 248 40 35 39 32 -8 -65 -87
-182 -66 -219 75 -126 190 126 910 433 1156 493 141 34 215 34 110 -1z m303
-67 c-48 -75 -85 -107 -153 -133 -49 -19 -174 -74 -277 -123 -223 -106 -218
-108 -122 49 42 69 73 125 68 125 -96 0 -244 -129 -277 -242 l-26 -85 -268
-54 c-240 -48 -272 -51 -303 -24 -38 34 -26 74 17 57 27 -10 361 144 552 255
51 30 218 92 370 136 342 101 452 133 469 135 8 1 -15 -42 -50 -96z m857 58
c-206 -48 -534 -139 -772 -215 -104 -33 -252 -81 -331 -105 -208 -65 -285
-116 -381 -250 -87 -123 -106 -176 -60 -166 15 3 71 -31 125 -76 55 -46 236
-175 404 -287 l305 -204 0 -113 c-1 -143 3 -138 -200 -270 -93 -61 -197 -137
-230 -170 -86 -84 -121 -101 -90 -45 22 41 20 44 -23 32 -151 -40 -197 -61
-207 -89 -15 -43 -92 -126 -148 -158 -74 -43 -70 -12 6 46 39 29 120 114 181
189 l111 135 102 -16 c106 -17 234 44 393 188 92 84 55 268 -65 325 -39 19
-70 47 -70 62 0 16 -9 24 -21 17 -23 -15 -189 77 -213 117 -18 30 -246 184
-300 202 -94 32 -152 371 -64 371 11 0 111 44 224 97 365 172 1197 420 1414
420 47 0 18 -12 -90 -37z m370 -85 c-70 -115 -48 -221 66 -318 l62 -53 -259
-12 c-541 -26 -1301 -85 -1586 -123 l-88 -11 48 59 c26 32 79 74 117 93 l70
34 -55 -51 c-74 -68 -69 -80 12 -32 37 22 116 54 175 71 59 18 158 53 218 78
192 80 1005 294 1245 328 8 1 -3 -27 -25 -63z m-1859 -230 c-66 -126 -80 -142
-81 -92 0 38 87 167 112 167 5 0 -9 -34 -31 -75z m-172 -222 c-37 -34 -489
-113 -489 -86 0 9 92 32 204 51 112 18 208 38 214 43 5 5 27 9 49 9 24 0 33
-7 22 -17z m2111 -22 c0 -10 -10 -25 -22 -33 -60 -36 -141 -272 -128 -369 l13
-96 -116 28 c-64 15 -256 51 -427 79 -1233 203 -1254 207 -1130 232 118 23
252 21 200 -4 -30 -14 -21 -16 40 -10 363 41 527 61 840 104 300 40 460 60
705 85 14 2 25 -5 25 -16z m-2597 -176 c85 -185 80 -356 -15 -615 -62 -165
-71 -213 -62 -302 11 -105 -52 -208 -127 -208 -96 0 -75 425 34 677 80 186 96
322 60 532 -23 134 29 94 110 -84z m1657 164 c-16 -3 -174 -21 -350 -39 -176
-19 -391 -46 -479 -61 -87 -16 -163 -24 -168 -18 -34 34 75 57 380 81 191 15
370 31 397 35 60 9 263 11 220 2z m-1146 -202 l30 -47 -225 7 c-201 5 -228 10
-241 44 -27 69 -19 79 57 80 122 3 267 30 255 49 -6 9 10 20 35 24 37 5 46 -5
51 -52 4 -32 21 -79 38 -105z m-1212 -141 c-12 -42 -54 -125 -94 -186 -40 -60
-96 -162 -123 -226 -28 -63 -54 -111 -59 -107 -9 9 123 291 213 453 39 71 62
142 64 200 4 85 4 86 11 16 5 -40 -1 -108 -12 -150z m558 164 c0 -44 -9 -50
-70 -50 -83 0 -104 71 -25 86 87 17 95 14 95 -36z m1330 -122 c372 -75 364
-84 -24 -28 -319 47 -333 51 -369 94 -24 28 -21 30 23 16 28 -9 194 -46 370
-82z m-600 -13 c13 -14 -2 -16 -47 -8 -38 7 -148 13 -245 13 -98 0 -178 8
-178 19 0 25 444 2 470 -24z m617 -96 c-21 -8 32 -19 123 -27 212 -17 450 -48
728 -94 125 -21 250 -38 278 -38 47 0 48 -2 17 -37 -38 -42 -43 -108 -11 -166
30 -56 20 -59 -93 -28 -428 119 -705 193 -857 229 -141 34 -206 63 -305 134
-156 111 -157 108 15 71 97 -21 131 -35 105 -44z m-1020 31 c-10 -26 27 -30
260 -30 l271 0 140 -84 c77 -47 137 -87 134 -90 -23 -24 -771 52 -818 83 -68
45 -78 151 -15 151 27 0 36 -10 28 -30z m68 -222 c137 -86 165 -119 165 -187
-1 -48 -6 -46 -85 43 -47 51 -114 108 -150 125 -36 18 -65 45 -65 62 0 40 4
39 135 -43z m533 -20 c131 -7 262 -21 290 -30 35 -12 10 -15 -78 -8 -71 5
-238 15 -370 22 -132 7 -253 21 -270 31 -20 13 7 16 80 9 61 -6 217 -17 348
-24z m1052 -123 c6 -6 -12 -5 -40 2 -27 7 -109 18 -181 25 -94 9 -147 26 -190
60 -59 47 -57 47 171 -14 127 -34 235 -66 240 -73z m-2569 50 c-38 -118 -34
-265 7 -362 72 -166 18 -302 -88 -221 -133 101 -229 289 -161 315 16 6 58 68
93 137 77 153 186 249 149 131z m469 17 c0 -4 -29 -69 -65 -145 -102 -217 -99
-544 5 -577 66 -21 360 218 360 293 0 9 45 66 100 127 118 130 127 181 37 201
-67 14 -144 -49 -123 -103 5 -13 -9 -59 -32 -101 -53 -101 -52 -59 2 127 53
183 64 188 213 98 172 -105 175 -112 103 -219 -63 -93 -112 -208 -95 -224 5
-5 50 52 100 128 109 163 147 184 482 266 134 33 263 73 288 89 56 36 56 19
-1 -82 -51 -91 -135 -143 -370 -233 -214 -81 -311 -153 -371 -272 -100 -200
-90 -283 21 -175 40 39 79 70 88 70 22 0 46 82 40 136 -5 44 28 104 57 104 8
0 10 -27 5 -60 -11 -74 -4 -74 58 -7 26 29 37 47 23 39 -36 -20 -31 19 6 57
40 39 57 40 42 1 -18 -48 12 -35 59 25 45 55 86 54 55 -2 -23 -41 -280 -305
-352 -361 l-59 -46 32 -125 c54 -210 25 -330 -144 -598 -47 -74 -71 -139 -79
-216 -8 -84 -17 -106 -39 -98 -24 9 -27 -11 -15 -122 l14 -134 -133 74 c-155
85 -147 83 -156 38 -5 -27 -16 -21 -53 31 l-46 65 80 -13 c111 -18 247 49 291
141 48 101 39 122 -26 58 -93 -92 -117 -107 -176 -107 -71 1 -207 62 -246 111
-27 33 -24 33 30 -4 217 -147 411 -2 540 404 41 131 80 228 84 214 18 -50 66
-26 66 33 0 90 -35 105 -161 66 l-109 -33 90 -11 90 -10 -120 -95 c-98 -77
-324 -215 -353 -215 -44 0 -2 141 47 159 109 37 170 96 192 185 25 98 15 127
-16 46 -12 -31 -26 -51 -32 -45 -16 16 47 155 71 155 97 0 87 181 -14 261 -83
64 -124 48 -49 -20 98 -90 81 -130 -56 -133 -172 -4 -285 -89 -380 -285 -60
-123 -92 -130 -110 -24 -11 66 -2 101 48 200 72 142 52 160 -33 32 -59 -89
-60 -89 -95 -50 -20 21 -53 39 -74 39 -30 0 -23 -12 31 -60 56 -49 70 -78 76
-150 8 -105 9 -105 -117 -41 -54 27 -140 60 -192 74 -92 25 -95 28 -82 86 18
86 23 91 90 91 35 0 55 8 48 20 -7 11 -34 20 -61 20 -41 0 -49 10 -49 62 0 52
6 60 35 48 102 -43 117 -37 162 67 24 55 43 139 44 187 0 50 25 145 60 225 32
77 59 151 59 164 0 13 38 37 85 54 81 28 175 42 175 25z m1200 -26 c47 -12 46
-13 -20 -27 -38 -8 -152 -36 -252 -63 l-183 -49 -19 82 -18 81 221 -6 c121 -3
244 -11 271 -18z m320 -56 c17 -21 18 -30 2 -30 -12 0 -22 -8 -22 -17 0 -9
-36 -55 -80 -103 -60 -65 -80 -103 -80 -154 0 -78 -30 -96 -130 -77 l-71 13
52 68 c29 37 82 85 118 107 38 22 83 76 110 131 48 99 63 108 101 62z m320 -8
c0 -10 -11 -23 -25 -28 -14 -5 29 -15 95 -23 66 -9 181 -28 256 -43 75 -15
162 -28 192 -28 95 0 85 -23 -34 -80 -63 -30 -140 -83 -173 -117 -32 -35 -66
-63 -75 -63 -30 0 -16 47 27 94 24 25 34 46 22 46 -12 0 -42 -33 -67 -73 -29
-48 -75 -85 -136 -111 -144 -61 -188 -82 -242 -118 -117 -77 -318 -177 -327
-163 -24 39 18 130 84 182 105 81 140 97 91 41 -23 -26 -63 -79 -90 -118 l-48
-70 70 43 c39 24 87 73 108 110 22 37 85 103 140 148 113 90 153 230 83 288
-45 38 -40 101 9 101 22 0 40 -8 40 -18z m-240 -108 c0 -47 -66 -121 -165
-184 -93 -59 -71 30 34 138 100 103 131 114 131 46z m-2379 -280 c13 -30 50
-88 82 -128 32 -40 53 -76 48 -82 -29 -28 -270 239 -271 300 0 18 -9 39 -20
46 -11 7 -20 22 -20 34 0 34 154 -110 181 -170z m1501 -179 c-18 -47 -62 -93
-62 -65 0 24 63 133 72 125 5 -5 0 -32 -10 -60z m407 -126 c21 -16 59 -29 85
-29 28 0 46 -12 46 -30 0 -34 31 -40 51 -9 18 29 60 -10 141 -129 86 -128 80
-130 -79 -31 -247 155 -174 43 95 -147 40 -28 50 -51 48 -110 -2 -41 5 -119
14 -174 26 -147 24 -239 -5 -242 -45 -5 -47 -8 -25 -48 29 -54 6 -90 -35 -56
-28 23 -30 19 -18 -28 8 -33 4 -59 -11 -68 -59 -37 58 -42 122 -5 78 45 104
34 54 -21 -34 -37 -34 -39 14 -33 67 7 176 -138 143 -190 -6 -11 -2 -19 10
-19 11 0 21 -10 21 -21 0 -12 -11 -16 -25 -8 -37 19 68 -68 113 -94 33 -19 36
-17 22 16 -41 99 -68 180 -69 210 -1 18 -36 85 -79 150 -65 97 -90 164 -141
387 -34 149 -67 288 -74 310 -7 26 -5 33 8 20 24 -25 90 -230 145 -447 27
-107 66 -202 111 -267 38 -55 69 -121 69 -147 0 -26 9 -52 19 -59 35 -21 142
-391 175 -603 26 -171 38 -207 66 -207 19 0 46 -13 59 -29 14 -16 64 -52 113
-81 107 -63 158 -156 176 -320 7 -66 28 -177 46 -246 55 -212 -3 -289 -191
-252 -75 15 -84 48 -13 48 49 0 50 3 53 175 3 149 5 160 16 75 l12 -100 26 85
c19 65 20 114 3 207 -39 211 -49 222 -211 248 -68 10 -90 27 -148 111 -83 122
-90 122 -74 9 7 -54 4 -90 -7 -90 -11 0 -20 23 -20 50 0 35 -15 57 -48 69 -27
10 -55 39 -63 65 -8 25 -53 89 -100 141 -171 191 -284 561 -223 730 41 112
-97 11 -177 -130 -62 -107 -110 -23 -64 109 17 50 17 76 -4 114 -41 77 -12
185 60 222 32 17 59 40 59 52 0 11 -8 15 -18 9 -18 -11 -202 83 -202 103 0 6
18 6 40 0 55 -14 170 19 203 60 24 29 21 31 -28 19 -175 -42 -172 -43 -85 37
76 69 78 72 25 61 -51 -11 -53 -8 -36 37 42 111 13 159 -53 87 -75 -83 -106
-147 -127 -267 -12 -65 -38 -167 -58 -228 -20 -60 -51 -155 -69 -210 -18 -55
-32 -123 -32 -152 0 -36 -15 -59 -50 -74 -44 -20 -50 -19 -50 16 0 22 -9 40
-20 40 -41 0 -22 -123 20 -134 22 -6 40 -12 40 -13 0 -6 -115 -322 -130 -358
-8 -21 -5 -35 7 -35 12 0 17 -13 10 -30 -6 -16 -23 -30 -38 -30 -35 0 -42 -13
-58 -115 -12 -70 -9 -85 17 -85 35 0 37 -8 19 -75 -6 -24 -21 -39 -32 -32 -11
7 -16 0 -11 -15 5 -15 33 -40 62 -54 56 -27 55 -83 -3 -86 -22 -1 -24 -5 -7
-12 20 -7 20 -16 2 -38 -30 -37 -72 -36 -93 2 -19 34 -116 0 -163 -58 -13 -15
-44 -22 -72 -17 -28 5 -72 -5 -99 -23 -59 -38 -71 -40 -71 -9 0 13 -14 39 -31
58 -28 31 -26 33 20 24 30 -6 51 0 51 13 0 12 -14 22 -31 22 -21 0 -28 12 -20
36 17 53 -41 124 -69 84 -18 -27 -22 -27 -41 0 -17 25 -20 23 -14 -10 4 -22
19 -38 33 -34 16 3 21 -8 13 -32 -7 -23 5 -59 30 -91 23 -29 35 -63 27 -76 -7
-12 6 -37 30 -56 29 -21 39 -44 31 -67 -12 -31 -23 -36 -94 -42 -14 -1 -23 16
-19 41 3 24 -8 47 -25 54 -19 7 -31 1 -31 -18 0 -37 -32 -38 -47 0 -6 15 0 32
13 37 13 5 -1 20 -31 35 -30 14 -55 35 -55 46 0 13 9 12 24 -3 44 -44 97 -30
78 20 -22 61 -46 64 -109 15 -56 -44 -74 -111 -25 -92 47 17 57 -50 15 -93
-43 -43 -83 -31 -83 23 0 22 -27 45 -70 60 -100 36 -81 120 28 128 51 4 56 35
7 35 -19 0 -55 6 -80 13 -36 9 -43 5 -33 -21 21 -55 -28 -35 -64 26 -19 32
-45 54 -58 49 -23 -9 -74 122 -55 142 6 6 24 -5 40 -24 27 -33 28 -33 16 3 -6
20 -1 50 12 66 37 45 34 102 -5 112 -48 13 -61 -4 -38 -47 14 -26 11 -38 -12
-47 -24 -9 -29 1 -24 53 5 59 13 66 83 75 l77 10 -62 77 c-34 43 -57 86 -51
95 6 10 3 18 -8 18 -10 0 -24 22 -31 49 -7 26 -28 64 -47 83 -33 33 -30 34 50
23 59 -8 90 -3 107 17 30 37 9 58 -60 58 -81 0 -219 130 -205 195 1 8 -24 28
-57 45 -58 30 -77 20 -45 -22 8 -11 -14 11 -50 49 -69 74 -91 132 -28 76 20
-19 77 -46 125 -60 48 -15 86 -37 83 -50 -3 -13 -7 -33 -10 -45 -6 -28 51 -39
86 -17 22 13 22 26 2 70 -38 83 -13 80 37 -5 36 -60 48 -69 58 -43 18 51 195
-65 227 -148 17 -43 95 -47 95 -5 0 40 20 38 51 -4 16 -22 19 -50 8 -78 -9
-25 -8 -51 4 -63 13 -13 3 -17 -31 -10 -51 10 -72 -20 -32 -45 12 -7 14 -23 6
-36 -9 -16 -3 -16 18 1 17 14 46 20 64 13 22 -8 32 -4 28 14 -3 14 3 27 14 29
93 12 137 36 94 51 -26 10 -44 34 -44 57 0 23 -13 41 -28 41 -18 0 -25 -14
-18 -40 6 -22 2 -40 -10 -40 -26 0 -47 56 -26 69 32 19 42 95 12 84 -18 -7
-24 -1 -17 18 6 16 21 23 32 16 13 -8 16 5 8 38 -11 45 -6 52 52 60 62 9 103
-15 82 -49 -18 -29 15 -96 47 -96 29 0 29 4 2 35 -32 37 -27 94 7 73 10 -6 30
-2 44 10 44 36 114 -29 108 -102 -6 -71 35 -99 55 -37 7 23 31 51 54 63 30 16
37 16 27 -1 -20 -32 -32 -141 -15 -141 8 0 33 -6 56 -12 38 -10 44 -1 52 85
11 118 117 303 135 237 6 -22 16 90 21 248 9 252 14 289 44 293 108 16 255
220 256 354 0 76 -17 68 -112 -51 -55 -71 -95 -103 -125 -102 -49 1 -57 -22
-13 -39 25 -10 26 -21 5 -65 l-24 -54 -15 68 c-7 37 -10 131 -6 208 16 276 30
312 173 424 94 75 93 75 146 35z m-829 -130 c0 -139 -113 -239 -269 -239 -83
0 -85 4 -28 87 124 181 297 270 297 152z m-665 -291 c96 -42 109 -68 34 -68
-67 0 -123 31 -151 83 -25 48 -29 48 117 -15z m225 -78 c10 6 60 12 111 13
106 2 161 -33 103 -66 -39 -22 -49 -44 -135 -277 l-56 -150 -31 74 c-63 148
-88 536 -28 428 10 -18 27 -28 36 -22z m609 -129 c-42 -135 -57 -160 -79 -141
-39 33 -70 7 -70 -57 0 -53 -31 -103 -64 -103 -9 0 -16 19 -16 42 0 36 5 39
30 18 17 -14 30 -16 30 -5 0 11 -14 32 -32 46 -37 31 -70 -4 -66 -71 4 -73 -3
-80 -32 -30 -38 66 -37 119 3 202 43 89 41 88 76 59 39 -33 71 -10 71 50 0 57
14 61 62 17 33 -30 38 -26 78 62 64 140 68 97 9 -89z m-879 60 c-14 -24 89 -7
121 20 24 20 29 12 29 -51 l0 -75 -73 12 c-83 13 -97 24 -116 88 -11 35 -7 42
18 33 17 -7 27 -19 21 -27z m1176 -180 c-7 -27 -27 -41 -60 -41 -32 0 -47 9
-41 25 5 14 21 59 36 100 l27 74 24 -58 c14 -32 20 -77 14 -100z m-682 -91
l-38 -96 -23 67 c-20 56 -19 70 7 84 16 9 30 36 30 60 0 39 3 41 31 13 28 -28
27 -41 -7 -128z m611 -88 c39 -33 45 -58 45 -178 l0 -139 -138 -112 c-75 -61
-143 -105 -150 -99 -22 23 -12 46 21 46 28 0 31 16 19 113 -11 94 -8 109 14
90 43 -35 55 -5 41 107 -7 62 -2 134 12 177 26 78 39 78 136 -5z m-535 -26 c0
-9 -13 -16 -30 -16 -20 0 -30 19 -29 55 0 53 2 53 30 16 16 -21 29 -46 29 -55z
m1113 53 c40 10 51 8 36 -7 -11 -12 -44 -24 -72 -26 -59 -5 -62 -51 -9 -152
18 -34 32 -71 32 -83 0 -39 -34 -21 -58 32 -31 68 -48 50 -23 -25 10 -32 23
-92 28 -134 8 -69 27 -102 108 -190 32 -35 34 -33 -30 -37 -30 -2 -71 11 -90
28 -43 38 -66 22 -39 -27 16 -29 4 -46 -73 -96 -51 -33 -100 -70 -108 -81 -32
-46 -11 15 52 153 51 109 76 206 102 384 39 268 49 308 72 271 9 -16 35 -19
72 -10z m-292 -607 c-23 -45 -45 -82 -50 -82 -14 0 18 89 48 134 47 70 48 38
2 -52z m1612 -432 c132 -130 227 -266 227 -324 0 -5 -52 47 -115 114 -63 68
-164 160 -225 206 -60 46 -167 131 -236 189 -70 58 -134 105 -143 105 -13 0
-61 103 -61 132 0 29 425 -295 553 -422z m-1236 290 c22 0 77 -89 173 -282
156 -314 231 -405 372 -447 196 -58 211 -73 241 -245 l27 -156 -123 -6 c-295
-14 -1047 284 -1047 415 0 23 -34 61 -85 95 -83 56 -85 60 -95 192 -13 173
-18 164 137 243 73 37 174 99 223 138 50 39 102 67 117 62 14 -5 41 -9 60 -9z
m922 -255 c461 -350 556 -559 355 -780 -58 -63 -74 -56 -74 32 0 124 -44 309
-88 369 -59 81 -212 194 -262 194 -39 0 -48 18 -73 150 -16 83 -25 150 -19
150 5 0 77 -52 161 -115z m10 -941 c-9 -41 -17 -83 -19 -94 -20 -120 -70 -221
-70 -142 0 17 -23 46 -51 64 l-50 34 59 36 c59 36 100 129 103 238 2 50 2 50
23 -6 11 -32 14 -88 5 -130z m-1512 -93 c4 -121 -16 -148 -79 -104 -24 17 -57
25 -74 18 -20 -8 -26 -4 -16 12 8 12 26 23 41 23 44 0 84 60 52 79 -20 13 -16
20 16 30 24 8 43 22 43 32 0 73 15 -3 17 -90z m-201 -26 c-24 -41 -44 -77 -46
-79 -1 -3 -29 3 -61 13 -32 10 -49 18 -37 19 12 1 56 29 98 62 96 76 98 75 46
-15z m1420 -98 c-3 -19 -19 -38 -34 -43 -20 -7 -24 1 -16 23 24 61 -8 33 -36
-32 -32 -73 -41 -45 -10 34 22 59 108 75 96 18z m124 16 c0 -9 -22 -37 -50
-63 -56 -53 -67 -33 -19 36 31 44 69 59 69 27z m-1675 -67 c-24 -24 -50 -38
-57 -30 -20 19 31 74 69 74 26 0 23 -9 -12 -44z"/>
<path d="M3360 2760 c39 -25 94 -25 110 0 7 12 -18 20 -64 20 -56 -1 -68 -6
-46 -20z"/>
<path d="M2873 2707 c-21 -22 -15 -283 7 -297 13 -8 20 46 20 149 0 161 -2
172 -27 148z"/>
<path d="M1560 2088 c0 -42 65 -110 95 -99 16 6 42 2 56 -10 18 -15 30 -14 40
3 9 14 -5 39 -33 60 -56 43 -78 47 -78 15 0 -13 -17 -8 -40 13 -22 20 -40 28
-40 18z"/>
<path d="M2750 2042 c-7 -23 -20 -42 -29 -42 -22 0 -41 -78 -22 -89 19 -12 92
145 76 161 -6 6 -17 -8 -25 -30z"/>
<path d="M2728 1870 c-42 -65 -133 -110 -175 -86 -21 12 -48 7 -81 -15 -38
-24 -59 -27 -89 -10 -56 29 -58 28 -93 -39 -31 -61 -31 -61 29 -73 34 -7 61
-21 61 -31 0 -28 53 -76 85 -76 15 0 50 -23 77 -52 30 -32 37 -49 18 -45 -18
4 -32 -11 -36 -39 -5 -35 -16 -43 -46 -34 -21 7 -38 3 -38 -9 0 -11 18 -21 40
-21 24 0 40 -13 40 -34 0 -32 2 -32 35 0 28 28 29 39 9 51 -19 12 -5 41 55
114 45 54 81 111 81 127 0 16 14 45 32 64 30 33 65 258 40 258 -6 0 -26 -22
-44 -50z m-60 -162 c37 -14 41 -51 10 -82 -23 -23 -138 9 -138 38 0 24 29 19
57 -9 14 -14 24 -16 22 -5 -12 63 0 77 49 58z"/>
<path d="M1826 1853 c-9 -15 -38 -27 -66 -25 -40 2 -51 -9 -56 -53 -6 -50 -2
-53 40 -37 25 10 44 28 41 40 -3 12 12 22 33 22 21 0 43 13 49 29 15 39 -20
60 -41 24z"/>
<path d="M2055 1752 c-30 -24 -55 -58 -55 -76 0 -23 -20 -35 -65 -40 -36 -3
-62 -10 -59 -16 4 -5 -1 -32 -11 -60 -20 -54 25 -120 71 -105 13 5 24 -1 24
-13 0 -12 15 -22 33 -22 19 0 28 6 21 13 -8 7 -4 25 9 40 17 21 14 27 -11 27
-17 0 -32 -9 -32 -21 0 -14 -13 -14 -40 1 -22 12 -40 30 -40 40 0 19 104 12
140 -10 11 -7 35 2 53 20 42 42 124 24 172 -36 19 -24 34 -36 35 -26 0 11 -15
35 -33 55 -22 24 -25 37 -9 37 13 0 19 9 11 21 -7 11 -29 15 -49 9 -26 -8 -44
5 -66 48 -20 40 -23 62 -8 67 14 5 12 22 -8 49 l-29 42 -54 -44z"/>
<path d="M3991 1699 c7 -12 15 -44 18 -72 3 -27 17 -60 31 -73 20 -19 23 -10
13 44 -7 37 -13 79 -13 95 0 15 -14 27 -31 27 -17 0 -25 -10 -18 -21z"/>
<path d="M2331 1562 c-7 -11 0 -50 15 -86 15 -36 24 -76 20 -89 -5 -13 0 -28
10 -34 31 -20 27 179 -4 205 -18 16 -33 17 -41 4z"/>
<path d="M2231 1390 c-63 -55 -55 -77 35 -98 51 -12 54 -10 35 26 -31 58 -26
103 9 89 17 -6 30 -1 30 11 0 37 -47 25 -109 -28z"/>
<path d="M1864 1296 c-2 -14 -7 -50 -11 -79 -8 -48 -4 -52 44 -44 29 6 73 11
98 13 25 2 45 9 44 14 -1 23 -61 88 -84 92 -14 2 -39 10 -57 17 -18 8 -32 2
-34 -13z"/>
<path d="M5894 5407 c-7 -7 -3 -30 9 -52 19 -37 16 -40 -31 -31 -44 9 -52 3
-52 -37 0 -26 9 -47 19 -47 11 0 15 14 8 30 -7 19 1 30 21 30 29 0 41 -24 34
-66 -2 -10 5 -12 14 -7 9 6 14 49 10 96 -7 90 -12 104 -32 84z"/>
<path d="M5498 5170 c-9 -46 -3 -111 11 -115 25 -7 31 63 7 77 -13 8 -10 19 7
30 20 13 20 17 2 18 -14 0 -26 -4 -27 -10z"/>
<path d="M5951 5141 c-8 -12 -24 -16 -37 -8 -13 7 -17 6 -9 -3 8 -9 6 -26 -4
-39 -12 -14 -12 -34 0 -52 14 -23 18 -19 19 17 0 30 8 41 23 32 14 -8 18 -5
10 7 -7 12 -2 26 12 31 14 4 19 15 12 23 -7 7 -19 4 -26 -8z"/>
<path d="M5844 5032 c8 -9 5 -35 -6 -56 -18 -34 -16 -37 15 -19 40 20 50 23
97 23 17 0 30 14 30 31 0 29 -3 29 -32 -1 -30 -29 -36 -29 -75 4 -24 19 -37
28 -29 18z"/>
<path d="M5903 4858 c-19 -51 -6 -158 20 -158 10 0 12 24 4 53 -11 44 -7 51
20 41 18 -7 33 -5 33 4 0 10 -14 23 -32 30 -18 7 -27 25 -21 42 7 17 7 30 2
30 -6 0 -17 -19 -26 -42z"/>
<path d="M2135 686 c-37 -9 -41 -33 -17 -93 13 -35 16 -35 45 10 67 105 66
108 -28 83z"/>
<path d="M3080 680 c0 -18 133 -160 150 -160 7 0 6 10 -1 22 -10 16 -3 16 24
2 20 -11 46 -20 57 -21 10 0 23 -11 27 -25 6 -16 -6 -20 -34 -13 -24 6 -38 4
-33 -5 6 -10 2 -23 -10 -30 -11 -7 -20 4 -21 24 0 31 -4 30 -25 -7 -28 -51
-120 -127 -153 -127 -12 0 -44 -14 -69 -31 -149 -97 -532 -134 -708 -67 -27
11 -53 15 -58 10 -5 -4 10 -14 32 -22 23 -7 42 -21 42 -31 0 -11 47 -19 105
-19 58 -1 145 -10 195 -22 104 -24 560 82 623 145 91 91 577 21 577 -83 0 -27
40 -40 215 -68 118 -19 271 -44 339 -55 229 -39 636 153 636 299 0 28 11 54
25 59 71 24 7 45 -135 45 -129 0 -160 -6 -160 -30 0 -16 10 -30 22 -30 12 0
17 -13 11 -29 -7 -18 -1 -25 15 -19 14 5 25 -4 25 -21 0 -17 -7 -31 -16 -31
-9 0 -34 -17 -55 -38 -67 -67 -166 -104 -356 -135 -81 -13 -418 27 -471 56
-47 25 -274 231 -265 240 11 11 -189 2 -219 -10 -15 -6 -33 3 -39 20 -17 44
-16 47 28 47 22 0 40 -8 40 -17 0 -23 151 5 186 34 15 12 31 20 36 18 5 -3 -3
5 -18 18 -15 13 -82 33 -150 45 -68 12 -189 34 -269 50 -80 15 -145 21 -145
12z"/>
<path d="M1213 503 c-97 -107 256 -231 635 -222 100 2 223 -2 272 -10 l90 -14
-80 47 c-92 54 -109 102 -57 160 36 40 36 41 -4 29 -97 -31 -659 -19 -724 14
-80 42 -91 41 -132 -4z"/>
</g>
</svg>
