<?xml version="1.0" standalone="no"?>
<!DOCTYPE svg PUBLIC "-//W3C//DTD SVG 20010904//EN"
 "http://www.w3.org/TR/2001/REC-SVG-20010904/DTD/svg10.dtd">
<svg version="1.0" xmlns="http://www.w3.org/2000/svg"
 width="224.000000pt" height="224.000000pt" viewBox="0 0 224.000000 224.000000"
 preserveAspectRatio="xMidYMid meet">
<metadata>
Created by potrace 1.10, written by Peter Selinger 2001-2011
</metadata>
<g transform="translate(0.000000,224.000000) scale(0.050000,-0.050000)"
fill="#000000" stroke="none">
<path d="M1011 3799 c-173 -14 -227 -26 -257 -56 -38 -38 -37 -38 52 -28 l91
10 29 -98 c18 -60 22 -106 11 -120 -10 -12 -16 -32 -13 -42 3 -11 -56 -93
-131 -184 -75 -90 -145 -194 -156 -232 -10 -37 -53 -111 -96 -165 -133 -168
-212 -384 -141 -384 11 0 20 17 20 37 0 21 18 60 40 88 22 28 40 61 40 72 0
179 628 389 1160 389 128 -1 604 -80 618 -103 7 -11 48 -24 92 -28 44 -4 115
-26 157 -48 l77 -40 -188 -94 c-223 -110 -217 -110 -443 -33 -97 33 -200 60
-230 61 l-53 1 60 29 c33 16 42 24 20 17 -22 -7 -131 -15 -243 -18 -220 -6
-332 -32 -402 -96 -46 -42 -60 -94 -25 -94 11 0 20 8 20 18 0 26 118 75 215
90 106 16 264 -56 301 -137 15 -33 45 -56 84 -64 57 -11 60 -17 60 -107 0
-122 -79 -171 -121 -75 l-20 45 9 -45 c15 -80 -65 -102 -94 -26 -12 33 -30 61
-38 61 -8 0 -5 -22 7 -49 23 -51 12 -111 -21 -111 -10 0 -42 47 -70 105 -28
58 -51 89 -51 69 -1 -19 17 -70 38 -113 48 -94 9 -163 -51 -89 -29 36 -29 36
-10 -4 17 -35 12 -50 -24 -80 -24 -21 -38 -30 -30 -20 8 10 -1 41 -21 70 -20
28 -44 70 -52 92 -10 25 -19 31 -25 15 -5 -13 11 -60 36 -104 58 -104 20 -181
-49 -98 -41 48 -40 44 2 -59 6 -16 -7 -31 -32 -38 -24 -6 -43 -23 -43 -37 0
-15 -11 -33 -23 -41 -17 -10 -19 -3 -9 24 35 89 30 115 -37 178 -81 77 -221
120 -325 101 -83 -16 -195 -68 -180 -84 6 -6 29 -1 51 11 166 89 509 -59 381
-164 -44 -35 -65 -37 -238 -22 -411 37 -558 6 -671 -141 -55 -73 -76 -252 -31
-267 12 -4 22 -23 22 -41 0 -32 102 -91 154 -89 13 1 22 -15 20 -35 -2 -38
-11 -36 -99 28 -80 59 -90 26 -10 -35 136 -103 615 -158 534 -61 -12 15 -17
35 -11 45 6 10 -26 18 -70 18 -68 0 -80 -6 -72 -36 7 -24 1 -32 -18 -24 -33
12 -37 78 -6 97 12 8 29 3 38 -11 11 -17 19 -18 29 -2 8 13 22 18 31 12 9 -6
23 -1 30 10 7 11 22 15 32 9 21 -13 78 25 78 53 0 9 -16 12 -35 6 -19 -5 19
17 85 49 66 33 143 65 170 72 l50 14 -50 -41 c-27 -23 -78 -51 -113 -62 -98
-34 -120 -111 -77 -265 19 -68 38 -195 41 -282 7 -167 20 -197 93 -205 94 -12
228 -41 252 -55 13 -9 24 -6 24 6 0 27 74 28 90 1 19 -32 50 -23 37 10 -15 39
22 38 62 -1 28 -29 31 -29 31 0 0 37 32 41 47 6 6 -15 10 -11 11 10 3 57 -67
109 -176 133 -144 31 -202 73 -202 146 0 46 -7 57 -31 48 -17 -6 -27 -4 -21 4
5 9 2 28 -7 42 -10 17 -21 1 -30 -49 -8 -45 -5 -83 8 -96 27 -27 27 -73 1 -73
-11 0 -18 8 -15 18 5 17 -5 22 -38 22 -7 0 3 -18 23 -40 28 -30 42 -35 63 -17
20 16 27 16 27 -1 0 -12 -10 -22 -22 -22 -13 0 -17 -15 -10 -35 10 -30 8 -30
-17 3 -24 30 -36 33 -59 14 -22 -19 -32 -19 -43 0 -10 15 -7 19 8 10 14 -9 23
-1 23 18 0 19 -9 27 -22 19 -15 -10 -18 1 -8 32 8 26 16 70 18 98 1 29 22 74
47 100 52 56 59 91 14 74 -18 -8 -56 13 -96 52 -36 36 -44 48 -19 26 25 -21
77 -39 114 -40 37 0 64 -8 59 -16 -8 -13 24 -22 38 -11 6 5 66 -43 176 -139
73 -64 113 -84 89 -45 -7 11 -2 20 10 20 12 0 19 -16 16 -35 -6 -36 295 -204
368 -205 49 0 136 197 136 309 0 92 -27 123 -46 52 -5 -22 1 -43 13 -48 16 -7
15 -10 -2 -11 -14 -1 -25 -22 -25 -47 -1 -84 -27 -103 -96 -67 -99 51 -102 79
-7 62 72 -12 83 -9 83 23 -1 30 -4 32 -19 8 -22 -35 -115 -1 -134 50 -17 44
-5 49 79 30 43 -10 74 -9 74 1 0 10 -19 18 -41 18 -64 0 -119 37 -119 80 0 22
11 35 25 31 127 -39 135 -36 135 49 0 66 -7 80 -39 80 -27 0 -36 -10 -28 -30
6 -16 18 -25 27 -20 8 5 15 -12 15 -38 0 -38 -8 -45 -42 -37 -90 22 -127 93
-58 111 33 9 33 9 0 12 -81 5 -42 102 40 100 41 0 64 -6 50 -11 -14 -6 -25
-25 -25 -44 1 -28 3 -29 20 -3 17 27 20 27 21 0 2 -16 10 -4 19 27 10 32 10
77 0 104 -10 26 -12 52 -3 57 8 5 12 42 7 81 -8 70 -30 90 -54 51 -7 -12 -21
-16 -30 -10 -9 6 -23 2 -30 -10 -7 -11 -3 -20 9 -20 11 0 21 -22 21 -48 0 -26
13 -53 28 -59 59 -22 13 -96 -56 -89 -66 6 -100 163 -44 201 15 10 14 14 -3
15 -14 0 -25 22 -25 49 0 27 -9 54 -20 61 -32 20 -23 93 15 122 32 23 30 25
-13 14 -26 -7 -52 -29 -57 -49 -11 -43 -37 -49 -52 -12 -6 15 -11 10 -11 -11
-1 -22 -11 -31 -25 -22 -14 9 -18 5 -9 -9 8 -13 33 -23 55 -23 29 0 38 -9 29
-31 -6 -17 -3 -26 6 -20 26 16 21 -174 -6 -208 -16 -21 -16 -25 1 -15 34 20
52 -46 22 -82 -19 -25 -20 -28 0 -17 16 10 26 3 26 -21 1 -20 6 -56 10 -81 11
-58 -1 -57 -63 5 -29 29 -39 50 -24 50 17 1 19 6 5 15 -45 31 -50 85 -8 85 34
0 36 5 15 28 -14 16 -34 27 -44 25 -9 -2 -21 8 -26 22 -5 14 5 25 22 25 37 0
42 31 9 52 -15 9 -18 5 -7 -12 12 -19 8 -21 -12 -9 -50 32 -68 25 -71 -27 -2
-38 2 -44 17 -22 16 23 18 22 10 -3 -8 -27 1 -94 33 -236 6 -29 73 -75 73 -51
0 8 18 -2 40 -22 44 -40 54 -98 15 -85 -14 5 -25 20 -25 35 0 15 -11 30 -25
35 -17 6 -22 -7 -17 -38 5 -26 10 -60 11 -77 1 -27 4 -27 21 0 13 20 19 22 20
5 0 -14 14 -25 30 -25 17 0 30 -14 30 -31 0 -23 -12 -28 -45 -19 l-45 12 45
-39 c25 -22 45 -51 45 -66 0 -15 -22 0 -48 33 -27 33 -44 67 -39 75 5 8 1 15
-9 15 -9 0 -28 23 -40 50 -18 39 -18 50 1 50 18 1 17 6 -3 18 -16 10 -21 28
-11 43 10 16 7 20 -8 11 -14 -9 -23 -2 -23 17 0 40 -81 72 -176 69 -41 -2 -58
-7 -39 -12 67 -17 35 -48 -45 -43 -44 3 -80 12 -80 21 0 9 -13 16 -29 16 -40
0 -155 115 -131 130 11 7 29 7 40 0 11 -7 20 3 20 21 0 20 11 29 28 22 16 -6
34 3 40 20 7 16 19 25 29 19 9 -6 35 5 56 24 62 54 123 84 151 74 43 -15 99
80 78 134 -39 103 183 236 414 247 80 4 165 12 190 19 29 9 35 7 18 -6 -17
-12 33 -22 147 -30 175 -12 336 -76 362 -143 5 -15 27 -22 49 -16 53 14 102
-51 75 -100 -14 -26 -33 -32 -73 -23 -67 16 -94 39 -66 57 12 7 22 3 22 -9 0
-12 10 -16 22 -9 16 10 14 19 -5 31 -39 25 -78 22 -72 -6 3 -13 -11 -27 -30
-31 -23 -5 -35 4 -35 26 0 28 -5 30 -30 9 -25 -21 -38 -19 -72 12 l-42 38 47
12 c40 10 35 14 -33 27 -44 8 -151 37 -238 64 -182 56 -214 51 -83 -12 112
-55 114 -65 11 -49 -54 9 -80 6 -80 -9 0 -13 8 -23 18 -23 31 0 50 -123 22
-140 -19 -12 -19 -18 0 -30 19 -12 18 -19 -3 -34 -21 -15 -22 -21 -2 -29 14
-6 20 -19 13 -31 -11 -17 -19 -104 -28 -306 -2 -50 -5 -54 -18 -21 -14 36 -17
35 -26 -14 -9 -47 -6 -51 27 -33 23 12 37 41 37 79 0 73 37 76 101 8 37 -40
42 -55 21 -68 -19 -11 -20 -20 -4 -30 13 -8 17 -24 9 -35 -8 -14 -4 -16 11 -7
13 8 39 2 58 -12 31 -25 31 -24 5 10 -26 33 -25 39 5 56 46 26 43 56 -4 43
-54 -14 -116 75 -70 100 21 12 40 9 55 -7 18 -19 17 -22 -2 -11 -33 19 -32 3
1 -25 33 -27 41 46 11 103 -15 28 -15 35 1 25 13 -8 23 2 24 23 0 20 13 6 28
-34 l27 -70 3 70 c2 51 7 60 17 34 8 -21 21 -36 29 -35 77 8 82 -2 27 -51 -32
-28 -70 -46 -84 -40 -17 6 -23 -1 -16 -19 6 -16 26 -29 44 -30 55 -2 173 -70
168 -96 -4 -18 5 -19 30 -5 20 10 68 23 106 29 38 5 71 11 74 14 3 2 14 5 26
7 11 1 29 16 39 32 11 17 20 21 20 9 0 -12 -10 -31 -22 -43 -23 -23 32 -149
100 -232 28 -34 27 -35 -24 -15 -101 38 -175 83 -165 99 5 9 -12 12 -39 7 -39
-8 -44 -15 -24 -35 13 -15 45 -53 70 -86 25 -33 66 -65 92 -72 74 -18 121
-101 59 -105 -28 -2 -42 6 -34 18 8 13 4 15 -10 7 -13 -8 -18 -23 -12 -33 6
-11 2 -19 -10 -19 -11 0 -21 10 -21 23 0 13 -7 17 -15 9 -8 -9 3 -29 25 -45
40 -31 40 -31 0 -24 -23 4 -43 26 -46 51 -4 24 -53 78 -115 125 -60 45 -106
93 -104 107 3 13 -10 21 -29 18 -19 -3 -49 18 -68 46 -19 29 -62 66 -96 84
-52 27 -58 27 -37 2 13 -16 18 -36 10 -44 -7 -8 3 -8 24 0 30 12 35 8 25 -20
-8 -19 -6 -29 4 -23 21 12 131 -86 115 -103 -7 -6 -24 -1 -39 11 -15 12 -34
17 -41 9 -7 -7 -13 -2 -13 11 0 13 -14 23 -31 23 -17 0 -26 -9 -19 -20 17 -27
171 -106 183 -93 5 5 36 -15 67 -44 32 -29 72 -65 89 -79 17 -14 31 -34 31
-44 0 -28 -138 66 -139 95 -1 14 -11 25 -22 25 -12 0 -15 -11 -7 -25 8 -14 -6
-7 -32 15 -26 22 -40 29 -32 15 21 -36 -8 -31 -54 10 -29 25 -37 27 -31 6 10
-30 24 -39 144 -91 108 -47 73 -63 -42 -19 -52 21 -102 36 -110 33 -8 -2 -15
4 -15 13 0 10 -22 13 -50 8 -59 -11 -71 58 -21 114 43 47 17 111 -61 153 -37
21 -68 43 -68 49 0 21 -102 60 -121 48 -24 -15 -25 -69 -1 -69 30 0 135 -185
150 -265 17 -90 44 -106 212 -124 72 -7 150 -27 175 -43 25 -16 45 -20 45 -8
0 11 -11 20 -24 20 -18 0 -18 6 -1 23 18 18 31 17 55 -3 18 -15 65 -30 104
-34 40 -4 88 -16 108 -27 19 -10 71 -19 115 -19 48 0 93 -13 114 -34 31 -31
33 -31 26 5 -5 23 -42 51 -97 72 -50 19 -80 35 -68 36 34 2 251 -76 281 -101
15 -13 27 -15 27 -5 -1 27 -27 58 -70 84 -35 21 -33 22 20 11 33 -8 71 -23 85
-34 41 -31 47 -6 12 44 -25 36 -45 43 -90 34 -64 -12 -79 18 -18 38 21 6 67
-2 101 -20 61 -32 62 -32 41 8 -42 79 -116 100 -198 58 -136 -70 -287 -13
-228 86 40 69 46 70 176 16 l102 -42 83 40 c68 33 87 35 105 13 12 -15 73 -37
136 -50 175 -36 262 -77 275 -130 14 -55 159 -109 296 -109 49 0 95 -9 102
-20 7 -11 21 -20 31 -20 11 0 8 17 -5 39 -13 21 -33 33 -43 27 -11 -7 -13 -2
-5 11 20 33 65 29 127 -12 51 -33 52 -33 40 0 -17 44 1 45 48 2 57 -52 48 11
-12 80 -45 52 -63 58 -185 61 -89 3 -160 17 -206 42 -38 21 -76 37 -83 35 -48
-13 -297 262 -268 294 22 24 27 54 18 101 -9 43 -6 62 7 54 25 -16 76 39 95
102 13 42 -4 97 -72 229 -10 19 -14 35 -8 35 5 0 28 -34 50 -75 29 -56 39 -65
40 -34 2 73 -46 145 -109 163 -33 10 -60 26 -61 37 0 10 -12 53 -27 95 -14 42
-23 120 -19 175 7 103 -9 132 -30 54 -20 -72 -15 -185 9 -209 16 -16 16 -33 0
-63 -31 -56 -27 -72 8 -43 17 14 37 20 44 13 7 -7 1 -13 -14 -13 -15 0 -21 -6
-14 -13 8 -7 2 -28 -11 -45 -22 -28 -21 -29 7 -7 47 37 82 -13 86 -120 1 -47
10 -96 19 -110 25 -41 -4 -136 -58 -186 -59 -56 -62 -34 -9 76 50 103 50 129
1 70 l-38 -46 -39 56 c-31 43 -37 77 -30 155 5 55 0 123 -11 150 -17 42 -21
32 -22 -70 l-2 -120 -50 56 c-27 31 -49 78 -49 104 0 26 -9 53 -21 61 -12 7
-14 22 -3 36 31 42 26 213 -6 226 -47 18 -38 72 10 57 22 -7 40 -4 40 7 0 11
-9 23 -21 27 -12 4 -8 23 11 46 32 39 32 39 20 -5 -21 -75 18 -51 70 44 26 49
52 86 57 81 4 -5 35 6 68 23 43 22 73 25 103 12 23 -10 61 -17 84 -16 66 6 48
-45 -22 -58 -55 -10 -221 -111 -183 -111 8 0 42 20 75 45 45 33 85 44 150 41
50 -1 84 5 77 16 -6 10 2 18 19 18 39 0 59 -34 27 -47 -20 -8 -20 -10 0 -11
37 -3 99 -71 89 -99 -4 -13 0 -23 9 -21 43 7 65 -5 77 -43 7 -23 45 -72 83
-110 38 -38 63 -78 57 -89 -7 -11 -1 -20 14 -20 18 -1 19 -5 3 -15 -15 -10 9
-43 68 -94 99 -86 155 -67 141 47 -3 27 5 52 19 57 14 5 25 -5 25 -21 0 -56
80 -11 115 64 18 39 37 81 42 91 5 11 -16 3 -46 -17 -31 -20 -50 -27 -44 -16
7 11 -1 30 -17 44 -25 21 -25 30 -2 63 25 35 16 68 -77 293 -147 357 -145 344
-44 345 159 1 28 47 -272 96 l-95 16 9 -107 c8 -85 4 -106 -19 -106 -17 0 -28
11 -25 25 3 14 -11 24 -30 22 -19 -1 -31 4 -26 11 5 8 -13 41 -38 73 l-47 59
10 -55 c12 -64 -65 -45 -164 41 -70 61 -63 17 10 -59 33 -35 60 -71 60 -80 0
-25 55 -21 64 6 5 14 21 9 45 -14 21 -22 27 -40 15 -44 -12 -4 -16 -21 -10
-38 9 -23 0 -29 -36 -23 -26 4 -46 18 -43 31 3 14 -5 23 -17 20 -13 -3 -26 12
-29 33 -9 51 -49 73 -92 51 -51 -28 -70 -23 -30 7 32 22 25 30 -66 68 -96 40
-99 41 -80 4 11 -21 33 -38 49 -38 15 0 32 -8 38 -17 14 -22 -243 -15 -263 7
-8 8 10 10 40 2 65 -15 97 32 58 86 -36 50 -65 121 -104 252 -20 66 -37 104
-38 85 -2 -55 -24 -41 -131 86 -55 65 -131 138 -170 162 -212 131 -455 231
-510 210 -16 -6 -94 1 -174 16 -94 18 -177 22 -231 12 -47 -9 -90 -9 -95 -1
-44 70 -483 125 -799 99z m479 -82 c28 -12 18 -14 -34 -7 -112 17 -332 -10
-344 -43 -9 -23 -3 -24 31 -5 44 23 344 -15 327 -41 -4 -7 23 -11 61 -10 37 1
63 -4 58 -12 -10 -17 61 -38 126 -39 29 0 46 -13 46 -35 2 -30 4 -29 19 5 9
22 18 28 19 14 0 -15 9 -21 19 -15 27 16 324 -114 410 -178 39 -31 72 -46 72
-35 0 11 -29 39 -65 61 -36 22 -87 63 -112 90 -26 28 -58 46 -72 41 -13 -5
-66 9 -118 31 -118 50 -403 120 -506 124 -61 2 -52 5 43 18 68 8 135 7 154 -3
19 -10 91 -20 160 -22 133 -3 258 -51 368 -141 32 -27 103 -78 158 -114 55
-37 125 -90 155 -118 38 -35 55 -42 56 -22 0 16 18 -2 38 -41 21 -38 63 -88
94 -110 89 -62 207 -196 207 -234 0 -18 10 -40 22 -47 12 -8 17 -39 11 -71
-10 -47 -6 -54 23 -45 28 9 29 7 5 -10 -36 -25 -61 -11 -61 35 0 19 -22 56
-50 82 -27 26 -50 40 -50 30 0 -9 -16 -3 -35 13 -19 17 -75 42 -125 57 -64 19
-79 29 -50 35 56 12 78 38 49 56 -17 10 -20 7 -9 -11 20 -33 -49 -17 -172 40
l-88 40 75 -11 c41 -6 75 -3 75 7 0 23 -116 184 -133 184 -6 0 -1 -13 13 -30
38 -46 -15 -39 -100 13 -38 24 -159 73 -268 110 -109 36 -215 85 -236 107 -21
22 -78 50 -127 62 -49 13 -89 28 -89 35 0 16 -30 19 -320 38 l-230 15 50 37
50 37 -64 -11 c-92 -17 -99 17 -10 44 128 40 383 39 474 0z m790 -110 c78 -14
320 -131 309 -148 -13 -22 102 -101 121 -83 9 8 9 1 0 -14 -11 -19 -9 -24 8
-13 13 8 36 5 50 -8 15 -12 41 -16 58 -10 22 9 43 -11 73 -69 49 -95 55 -150
9 -85 -17 25 -42 41 -55 37 -13 -5 -60 24 -105 64 -133 118 -164 139 -178 125
-7 -7 -12 -4 -9 7 8 40 -2 63 -26 65 -50 2 -286 96 -335 133 -38 28 -41 34
-10 23 22 -8 63 -19 90 -24z m247 -42 c35 -19 77 -45 93 -58 17 -13 36 -23 43
-21 8 2 36 -16 64 -39 27 -24 54 -39 60 -33 25 24 55 -18 32 -45 -19 -23 -30
-23 -71 4 -26 17 -48 26 -48 19 0 -7 -22 2 -50 20 -27 18 -45 40 -39 50 6 10
-32 45 -84 78 -103 65 -103 82 0 25z m-1034 -47 c168 -23 207 -38 286 -111
l51 -47 -57 0 c-31 0 -78 17 -105 38 -30 24 -65 34 -92 27 -42 -11 -42 -12 -5
-26 21 -7 52 -9 67 -3 18 7 23 2 15 -12 -17 -26 104 -64 207 -64 76 -1 247
-42 310 -75 22 -11 87 -41 145 -66 122 -53 138 -83 30 -55 -245 63 -801 134
-1084 137 -150 2 -217 28 -126 48 95 21 96 44 2 57 -195 26 -130 59 93 47 236
-12 257 15 31 39 -171 18 -232 39 -161 55 165 38 197 39 393 11z m1537 -336
c33 -38 50 -63 39 -56 -14 8 -21 -13 -20 -56 1 -65 3 -67 44 -40 45 30 67 21
67 -26 0 -25 -5 -25 -33 -1 -29 23 -32 23 -23 -3 5 -16 28 -29 49 -29 81 3 48
-63 -35 -68 -66 -4 -78 1 -78 35 0 22 -9 45 -21 53 -11 7 -15 29 -9 49 6 20
-7 83 -29 141 -22 58 -33 97 -25 87 8 -10 41 -49 74 -86z m-1440 -20 c47 -15
22 -19 -120 -21 -259 -4 -429 -19 -472 -42 -21 -11 -38 -14 -38 -6 0 8 -11 4
-24 -9 -13 -13 -38 -24 -54 -24 -57 0 22 57 139 101 115 43 430 43 569 1z
m850 -162 c22 -14 10 -19 -46 -20 -46 0 -71 8 -64 20 16 25 71 25 110 0z
m1673 -261 c37 -159 35 -166 -32 -117 -47 35 -121 162 -121 207 0 10 83 27
109 22 10 -2 30 -52 44 -112z m-1338 29 c-4 -54 -39 -33 -48 31 -5 28 2 36 23
28 16 -6 27 -32 25 -59z m-185 1 c-33 -17 -69 -41 -80 -53 -14 -15 -12 -17 8
-6 19 11 23 9 14 -7 -8 -13 -22 -19 -31 -14 -9 6 -40 -20 -69 -58 -62 -81 -54
-117 55 -247 39 -47 82 -116 96 -155 35 -96 57 -86 57 26 0 52 5 131 10 175 5
44 4 64 -2 45 -6 -19 -20 -35 -31 -35 -11 0 -14 -19 -6 -45 14 -45 14 -45 -29
-6 -24 21 -39 51 -33 66 6 15 2 22 -9 15 -11 -7 -31 -5 -45 4 -31 20 -39 91
-9 81 12 -4 38 9 59 30 38 38 104 41 107 5 1 -22 25 -154 41 -229 8 -40 14
-44 30 -20 16 23 18 21 8 -9 -7 -22 -5 -44 3 -50 9 -7 11 -66 4 -132 l-11
-120 -4 103 c-3 114 -18 167 -45 167 -33 0 -19 -169 20 -232 46 -76 73 -188
45 -188 -11 0 -26 8 -32 18 -6 10 -27 14 -47 9 -54 -14 -164 96 -164 163 0 48
-4 51 -31 29 -28 -23 -30 -19 -17 30 11 44 8 53 -12 41 -17 -11 -21 -8 -12 6
7 13 -5 59 -27 103 -23 43 -41 100 -42 125 0 25 -18 82 -39 126 -47 97 -48
110 -12 110 16 0 56 23 89 50 64 54 174 108 223 109 17 0 3 -13 -30 -30z m89
-12 c-18 -32 -17 -46 1 -57 15 -9 7 -19 -23 -27 -25 -6 -54 -4 -62 4 -24 24 6
87 36 75 14 -5 31 3 37 19 6 16 16 29 22 29 6 0 1 -19 -11 -43z m-999 -27 c69
-35 203 -60 155 -30 -20 13 -55 26 -78 31 -54 10 -74 29 -31 29 68 0 199 -65
171 -84 -18 -13 -10 -15 27 -7 134 29 323 -91 364 -230 16 -52 43 -122 60
-155 18 -34 32 -93 32 -131 l0 -69 -75 17 c-41 8 -128 26 -192 39 -110 22
-115 25 -70 48 35 18 46 38 41 79 -6 58 42 124 76 103 11 -7 20 5 20 27 0 25
-25 50 -75 71 -41 18 -100 46 -130 62 -40 21 -55 22 -55 4 -1 -18 -4 -18 -16
0 -18 28 -145 102 -289 169 -52 25 -95 52 -95 61 0 20 89 1 160 -34z m1589
-11 c12 -12 5 -19 -20 -19 -72 0 -190 -42 -177 -62 6 -12 25 -16 40 -10 44 17
157 -10 125 -30 -14 -8 -36 -7 -48 3 -28 23 -234 -76 -217 -105 8 -13 20 -12
34 2 30 30 48 28 62 -9 6 -18 3 -26 -8 -19 -20 12 -147 -110 -131 -125 4 -5
29 2 54 14 40 20 42 19 15 -3 -32 -27 -78 -102 -78 -129 0 -8 13 3 29 24 38
50 38 32 1 -58 -36 -87 -37 -99 -5 -83 14 7 9 0 -10 -15 -19 -16 -28 -36 -20
-45 8 -9 4 -10 -10 -2 -15 9 -25 2 -25 -17 0 -20 18 -31 51 -31 31 0 46 -8 38
-21 -7 -11 -2 -33 11 -49 13 -16 16 -39 7 -54 -9 -14 -15 -44 -13 -66 2 -25 0
-28 -6 -9 -10 34 -118 31 -139 -3 -6 -10 -25 -18 -41 -18 -29 0 -293 -199
-318 -240 -7 -11 -21 -15 -31 -9 -11 6 -19 -7 -19 -30 0 -22 -9 -41 -20 -41
-59 0 -6 109 60 123 17 4 59 50 96 102 36 52 74 95 86 95 11 0 15 8 9 18 -14
22 120 70 148 53 10 -7 29 6 41 28 25 48 60 54 60 12 0 -18 12 -25 30 -18 17
6 30 20 30 31 0 10 -13 32 -30 49 -16 16 -30 23 -30 14 0 -8 -11 -4 -24 9 -29
29 -83 32 -66 4 7 -11 3 -20 -9 -20 -12 0 -20 42 -18 105 3 86 5 92 12 30 8
-78 26 -93 60 -50 19 25 13 155 -14 295 -1 6 -9 -2 -18 -16 -27 -43 -87 170
-62 218 12 22 29 34 38 29 21 -13 173 126 166 152 -4 11 2 15 13 8 10 -6 39
-2 65 9 52 22 197 8 226 -21z m164 -9 c4 -12 38 -18 74 -14 54 6 69 -1 89 -44
19 -42 18 -52 -4 -52 -15 0 -32 -19 -38 -43 -8 -29 -22 -38 -44 -30 -18 7 -51
13 -73 13 -22 0 -35 8 -29 17 6 10 -11 13 -39 8 -27 -5 -49 -16 -49 -25 0 -8
-24 -10 -53 -4 -37 7 -49 3 -39 -13 8 -13 1 -29 -16 -35 -24 -9 -27 -21 -11
-50 25 -46 6 -85 -33 -70 -15 6 -28 2 -28 -9 0 -10 -9 -19 -20 -19 -11 0 -20
14 -20 30 0 17 -10 30 -23 30 -13 0 -17 7 -9 15 15 14 23 17 76 23 18 1 18 8
1 25 -31 31 5 97 53 97 21 0 49 14 63 31 14 18 43 27 63 22 20 -5 36 -3 36 5
0 8 27 11 60 6 33 -5 55 -16 49 -26 -6 -10 7 -18 31 -18 36 0 38 6 19 41 -18
34 -34 39 -85 29 -49 -10 -57 -7 -34 9 23 17 18 19 -24 10 -46 -11 -53 -7 -51
29 4 44 92 54 108 12z m755 -356 c13 -9 1 -13 -26 -10 -54 7 -58 12 -142 199
-86 190 -75 189 43 -4 57 -93 114 -176 125 -185z m-319 274 c34 -51 34 -51
-10 -38 -30 10 -40 7 -30 -8 7 -12 5 -22 -5 -22 -11 0 -25 16 -32 35 -6 19
-17 46 -24 60 -22 49 67 25 101 -27z m-99 -47 c-10 -33 -4 -37 52 -30 81 10
130 -17 146 -80 17 -68 101 -148 167 -159 30 -5 58 -9 62 -10 5 -1 -4 -17 -20
-36 -18 -23 -19 -29 -2 -19 16 10 25 4 25 -16 0 -17 9 -31 20 -31 11 0 20 -22
20 -50 0 -66 -24 -63 -66 9 -25 41 -45 55 -68 47 -25 -10 -30 -5 -20 20 14 36
-77 122 -109 102 -10 -6 -32 0 -48 13 -24 20 -28 19 -19 -5 7 -17 0 -29 -17
-29 -42 0 -35 93 8 110 32 12 31 18 -15 73 -28 33 -44 49 -37 35 10 -19 -12
-23 -93 -17 -142 11 -184 28 -154 64 32 39 56 35 99 -17 21 -25 38 -34 38 -21
1 13 -9 30 -21 37 -16 10 -14 19 5 31 44 28 61 21 47 -21z m-1830 -127 c129
-78 163 -153 61 -138 -33 4 -57 14 -53 21 4 7 0 31 -9 53 -15 38 -16 38 -18
-5 -2 -76 -93 -61 -108 18 -28 139 -23 141 127 51z m1420 37 c0 -6 -27 -24
-60 -41 -58 -30 -89 -5 -47 37 15 15 107 18 107 4z m927 -138 c13 7 16 6 8 -3
-8 -9 -5 -28 7 -43 13 -15 17 -40 11 -57 -7 -16 -2 -30 9 -30 11 0 15 -9 8
-20 -22 -36 -51 1 -38 49 8 33 -1 55 -30 76 -23 16 -35 35 -27 43 8 8 17 5 21
-7 4 -12 18 -15 31 -8z m-1151 -68 c-3 -19 -24 -38 -46 -42 -22 -4 -47 -18
-55 -30 -9 -15 -14 -11 -15 11 0 32 70 96 106 96 9 0 14 -16 10 -35z m921 -71
c12 -14 16 -45 11 -67 -8 -27 6 -60 40 -97 29 -31 52 -67 52 -80 0 -13 18 -40
40 -60 48 -44 50 -62 9 -78 -17 -6 -26 -4 -20 6 6 10 -3 23 -20 30 -18 6 -26
21 -19 32 7 11 -1 14 -20 7 -17 -6 -30 -4 -28 6 7 31 -64 172 -103 205 -27 22
-35 46 -27 77 14 50 52 59 85 19z m-983 -129 c-17 -16 -40 -24 -51 -17 -26 16
-6 74 36 106 43 32 56 -47 15 -89z m1097 36 c-14 -23 58 -65 77 -46 8 8 8 -2
1 -21 -11 -27 -5 -32 24 -22 28 9 30 7 9 -8 -15 -11 -21 -29 -14 -40 7 -12 3
-27 -8 -34 -11 -7 -15 -21 -9 -31 29 -48 -13 -12 -54 45 -24 35 -35 57 -23 50
12 -8 27 -1 32 14 8 20 -1 25 -32 18 -37 -8 -39 -6 -14 14 25 20 23 22 -14 14
-26 -6 -48 2 -54 19 -7 16 -3 24 7 18 10 -7 24 -3 31 9 7 11 21 20 32 20 11 0
15 -9 9 -19z m-1048 -154 c-19 -33 -22 -33 -22 -3 -1 36 -36 67 -55 48 -7 -6
-1 -24 13 -41 13 -16 18 -40 10 -53 -10 -16 -23 -8 -41 24 -38 69 -34 94 17
103 64 10 105 -30 78 -78z m-1949 -106 c-47 -51 -78 -71 -87 -57 -8 13 7 37
34 55 27 17 62 45 79 63 64 67 42 15 -26 -61z m-114 27 c0 -17 -18 -36 -40
-42 -22 -6 -40 -19 -40 -28 0 -10 -13 -18 -30 -18 -16 0 -30 -13 -30 -29 0
-23 -179 -140 -218 -142 -7 0 -37 -16 -66 -36 -63 -42 -278 -60 -356 -30 -71
27 -13 58 66 35 95 -27 87 -6 -10 25 -101 32 -121 88 -55 148 37 34 85 40 356
51 297 11 403 32 403 79 0 10 5 19 10 19 6 0 10 -14 10 -32z m2002 -124 c-12
-4 -15 -33 -8 -69 9 -43 6 -57 -11 -47 -29 18 -30 97 -1 126 15 15 15 25 0 35
-12 7 -22 2 -22 -11 0 -14 -6 -19 -13 -12 -7 7 -1 28 14 45 24 29 29 28 44
-14 11 -29 10 -49 -3 -53z m-1725 34 c-15 -10 -18 -18 -7 -19 11 0 -34 -24
-100 -52 -66 -28 -145 -69 -175 -91 -43 -30 -55 -33 -55 -10 0 16 27 40 60 54
33 14 60 35 60 47 0 37 91 70 130 48 25 -14 31 -14 22 2 -22 36 4 60 50 48 31
-8 35 -15 15 -27z m854 24 c-15 -25 43 -68 76 -56 16 6 36 4 46 -5 9 -9 44
-22 77 -30 56 -13 58 -12 20 16 -22 16 -46 25 -55 20 -8 -5 -15 0 -15 12 0 26
-4 26 120 -1 86 -18 98 -26 78 -51 -20 -23 -28 -24 -41 -3 -11 17 -16 7 -17
-31 0 -44 -13 -61 -60 -79 -33 -13 -60 -32 -60 -44 0 -38 -42 -66 -82 -55 -60
15 -45 47 17 35 43 -8 37 -2 -25 28 -44 22 -118 40 -165 41 -63 1 -85 9 -85
32 0 17 -9 26 -20 19 -26 -16 -26 42 1 91 14 27 14 39 0 39 -12 0 -21 -10 -21
-21 0 -12 -10 -15 -21 -8 -12 7 -17 18 -11 24 20 20 170 24 182 4 14 -22 51
-26 48 -4 -4 25 1 45 13 45 6 0 6 -8 0 -18z m798 -192 c0 -60 7 -110 16 -110
10 0 11 -10 3 -23 -9 -15 -5 -18 9 -9 13 8 18 23 12 33 -15 25 4 24 52 -1 32
-18 36 -15 25 13 -12 32 -10 32 35 0 27 -18 50 -54 51 -78 3 -61 28 -115 53
-115 11 0 8 15 -8 33 -23 29 -23 32 3 24 65 -22 33 -85 -45 -90 -51 -3 -72 2
-62 17 8 14 4 16 -11 7 -27 -16 -87 25 -71 50 5 9 -9 22 -32 29 -23 8 -37 19
-31 25 7 6 2 23 -11 38 -12 15 -15 27 -7 27 8 0 4 14 -10 30 -19 23 -32 25
-52 9 -14 -13 -36 -17 -47 -10 -12 8 -21 5 -21 -5 0 -11 -22 -19 -50 -19 -78
0 -59 30 49 76 78 34 152 99 111 99 -22 0 -257 -148 -305 -193 l-55 -51 65 44
c52 34 65 37 65 12 0 -16 -15 -38 -33 -48 -18 -10 -27 -28 -20 -39 13 -22 198
38 248 80 20 16 23 13 14 -11 -7 -18 -30 -38 -51 -45 -41 -13 -52 -49 -15 -49
13 0 18 -6 11 -13 -7 -7 -27 -1 -44 13 -17 14 -37 19 -45 12 -8 -8 -1 -23 16
-33 25 -16 25 -18 -2 -19 -17 0 -42 11 -55 24 -35 35 -54 3 -23 -39 14 -19 -3
-4 -39 33 -36 38 -72 60 -79 50 -12 -18 -113 -68 -136 -68 -6 0 -6 13 0 29 6
17 -4 38 -22 49 -34 19 -5 82 37 82 16 0 110 66 256 181 27 20 56 33 65 27 9
-6 17 4 17 21 0 17 9 32 20 34 11 1 28 3 38 5 10 1 26 9 34 17 36 36 77 -47
77 -155z m293 -35 c54 -65 62 -87 52 -155 -5 -44 -2 -80 7 -80 10 0 13 -13 6
-30 -18 -47 -42 -35 -42 20 0 55 -40 115 -66 99 -9 -5 -23 1 -31 14 -9 14 -6
18 9 9 13 -8 23 -5 23 7 0 11 -8 21 -18 21 -23 0 -109 136 -109 172 0 14 -12
31 -27 37 -22 8 -22 18 -1 51 24 41 26 40 79 -24 30 -36 83 -100 118 -141z
m-3078 95 c12 -27 31 -50 42 -50 10 0 8 -14 -6 -30 -25 -30 -120 40 -120 88 0
57 56 52 84 -8z m2203 -276 c43 -57 33 -95 -15 -55 -16 13 -24 38 -17 56 8 21
4 27 -12 17 -29 -18 -68 4 -51 30 17 29 50 13 95 -48z m-1482 9 c8 -29 -1 -38
-38 -38 -52 0 -59 15 -23 51 34 34 50 30 61 -13z m2075 -75 c0 -16 9 -28 20
-28 28 0 25 -54 -3 -72 -16 -10 -20 -4 -12 16 14 38 -20 76 -69 76 -41 0 -46
22 -12 56 27 27 76 -4 76 -48z m-2030 -17 l60 -28 -73 -1 c-41 -1 -83 11 -97
28 -33 40 24 40 110 1z m338 -77 c-18 -10 -58 -14 -90 -9 -63 9 -71 -2 -33
-45 21 -24 20 -24 -9 -3 -18 14 -32 43 -30 64 3 41 24 51 43 21 16 -26 82 -12
76 16 -4 16 7 15 34 -2 35 -22 36 -27 9 -42z m1619 -49 c36 -16 52 -17 58 -1
5 15 20 15 51 -2 24 -12 64 -18 90 -11 62 15 110 -37 75 -80 -45 -54 -101 -58
-153 -9 -54 50 -66 31 -16 -25 49 -53 -95 -28 -209 37 -82 47 -85 47 -64 8 18
-34 17 -39 -9 -29 -16 6 -30 27 -30 47 0 19 -13 46 -30 60 -16 14 -30 44 -29
67 1 35 8 30 41 -27 37 -64 39 -66 29 -15 -7 31 -3 55 9 55 11 0 20 -7 21 -15
0 -8 25 -32 55 -53 30 -21 43 -26 29 -11 -14 15 -25 50 -24 78 l1 51 27 -51
c16 -28 51 -62 78 -74z m389 24 c4 -32 -5 -41 -44 -41 -27 0 -46 5 -42 12 22
36 -26 57 -96 41 -40 -9 -74 -9 -74 0 0 17 88 31 190 30 45 -1 61 -11 66 -42z
m124 -49 c0 -10 13 -14 28 -8 15 6 34 1 41 -11 7 -11 2 -21 -13 -21 -14 -1 -3
-18 24 -39 43 -34 45 -38 10 -31 -22 4 -48 8 -57 8 -10 1 -13 19 -8 41 7 27 2
35 -17 27 -43 -16 -34 -38 37 -95 l65 -51 -83 35 c-46 19 -80 41 -75 48 4 7
-8 11 -26 10 -45 -4 -58 58 -16 74 18 7 27 4 21 -6 -7 -10 -1 -25 12 -33 14
-9 18 -6 9 9 -8 13 -3 23 10 23 15 0 9 17 -14 43 -38 43 -38 43 7 19 25 -13
45 -32 45 -42z m371 -341 c44 -22 57 -34 30 -27 -81 22 -173 66 -140 67 18 1
67 -17 110 -40z"/>
<path d="M2480 2169 c0 -17 9 -26 20 -19 18 11 29 -15 22 -55 -1 -8 7 -15 18
-15 11 0 18 -11 15 -25 -3 -14 7 -22 22 -19 17 3 24 -6 17 -24 -14 -36 36 -84
55 -53 11 17 -139 241 -161 241 -5 0 -8 -14 -8 -31z"/>
<path d="M1460 3001 c0 -21 -17 -44 -38 -50 -45 -15 -68 -84 -33 -98 14 -5 37
-1 53 9 15 9 20 18 11 18 -10 0 -7 13 5 28 16 19 48 25 102 18 42 -6 130 -4
194 5 l116 15 -80 18 c-44 10 -114 14 -155 9 -41 -5 -71 -3 -67 4 4 7 -4 24
-19 38 -21 19 -28 17 -35 -10 -9 -33 -10 -33 -12 0 -3 48 -42 45 -42 -4z"/>
<path d="M1930 2840 c-89 -12 -82 -14 55 -13 85 1 155 9 155 17 0 18 -61 16
-210 -4z"/>
<path d="M1169 1573 c57 -41 20 -83 -39 -45 -40 26 -48 27 -57 1 -7 -15 -5
-27 3 -25 8 2 34 -3 58 -11 28 -10 65 -4 100 15 41 22 46 31 20 31 -19 1 -40
15 -47 31 -6 17 -26 30 -43 30 -26 0 -25 -5 5 -27z"/>
</g>
</svg>
