<?xml version="1.0" standalone="no"?>
<!DOCTYPE svg PUBLIC "-//W3C//DTD SVG 20010904//EN"
 "http://www.w3.org/TR/2001/REC-SVG-20010904/DTD/svg10.dtd">
<svg version="1.0" xmlns="http://www.w3.org/2000/svg"
 width="300.000000pt" height="312.000000pt" viewBox="0 0 300.000000 312.000000"
 preserveAspectRatio="xMidYMid meet">
<metadata>
Created by potrace 1.10, written by Peter Selinger 2001-2011
</metadata>
<g transform="translate(0.000000,312.000000) scale(0.050000,-0.050000)"
fill="#000000" stroke="none">
<path d="M3170 5754 c-135 -73 -566 -356 -653 -430 -164 -137 -205 -340 -107
-529 69 -134 171 -245 194 -210 10 16 15 7 16 -26 0 -28 23 -82 50 -119 53
-71 62 -100 32 -100 -10 0 -23 23 -30 51 -20 79 -65 81 -158 8 -46 -37 -67
-47 -46 -23 70 81 -15 51 -191 -68 -166 -112 -231 -170 -290 -260 -17 -26 -44
-48 -59 -48 -32 0 -66 -60 -54 -95 6 -15 -8 -25 -32 -25 -23 0 -42 -13 -42
-29 0 -16 -24 -54 -52 -85 -29 -31 -42 -40 -28 -21 21 29 20 35 -6 35 -18 0
-37 -9 -44 -20 -7 -12 -20 -16 -28 -11 -52 32 -444 -517 -410 -572 7 -11 -4
-31 -23 -45 -21 -16 -30 -39 -23 -58 6 -18 -2 -60 -19 -94 -17 -35 -33 -84
-34 -110 -2 -25 -9 -43 -16 -38 -7 4 -19 -17 -26 -47 -9 -33 -5 -57 8 -61 12
-4 -2 -26 -31 -49 l-53 -42 10 -231 c10 -214 39 -355 99 -476 21 -42 -1 -318
-33 -418 -17 -51 153 -238 200 -220 139 53 -100 -265 -291 -388 -54 -35 -104
-80 -110 -101 -7 -21 -43 -90 -81 -152 -122 -203 -89 -245 162 -211 213 28
240 52 276 241 30 160 97 264 214 333 37 22 114 87 170 145 56 58 113 105 125
105 13 0 36 25 52 56 27 52 145 168 250 246 40 30 53 29 178 -17 121 -44 152
-47 328 -35 218 15 251 4 315 -99 24 -38 74 -88 111 -111 149 -92 282 -319
273 -466 -2 -30 6 -73 17 -95 27 -50 -4 -173 -52 -208 -64 -47 -11 -66 180
-67 256 -2 302 12 303 91 1 34 25 92 55 132 37 47 54 95 54 147 1 129 39 345
71 408 28 54 28 66 0 122 -39 78 -39 124 -1 156 17 15 25 42 19 68 -6 24 3 87
21 139 18 53 30 115 27 139 -3 24 0 53 6 64 23 37 -29 259 -67 286 -39 28 -51
76 -13 52 12 -7 2 15 -24 49 -26 35 -54 64 -63 66 -39 5 -48 9 -76 26 -25 16
-26 14 -4 -13 14 -17 30 -65 35 -106 5 -41 26 -98 46 -127 20 -29 42 -69 49
-88 15 -40 -16 -48 -40 -10 -9 14 -43 39 -76 56 -65 33 -91 120 -51 168 16 20
14 29 -8 38 -17 6 -31 25 -31 41 0 16 -24 57 -52 91 -29 35 -49 67 -44 71 18
18 167 -36 228 -83 64 -49 206 -41 279 15 30 23 287 24 472 1 344 -41 625
-253 508 -382 -24 -27 -26 -48 -9 -111 12 -42 19 -152 15 -244 -9 -205 8 -202
104 20 120 275 130 316 90 339 -24 13 -31 33 -22 67 7 28 3 48 -9 48 -11 0
-35 30 -53 67 -18 40 -60 82 -100 100 -37 18 -67 40 -67 50 0 10 -28 24 -62
30 -33 7 -90 26 -125 42 -104 50 -371 91 -584 91 -178 0 -257 13 -449 72 -49
15 -48 13 15 -59 59 -67 81 -113 55 -113 -10 0 -101 139 -108 164 -12 45 -156
176 -228 207 -46 20 -97 47 -114 60 -27 22 -96 43 -183 56 -19 3 -46 16 -61
28 -15 13 -63 32 -107 43 -43 10 -97 25 -119 32 -37 11 -40 4 -36 -94 2 -88 1
-94 -11 -36 -19 96 -63 23 -48 -80 9 -58 14 -63 26 -30 8 22 10 -14 4 -80 -16
-175 -71 -237 -305 -346 -104 -49 -215 -107 -246 -129 -59 -41 -90 -37 -61 9
9 14 35 75 57 134 61 166 219 250 182 97 -4 -19 -3 -35 3 -35 24 0 64 73 64
120 0 40 -4 44 -19 20 -17 -27 -19 -26 -20 1 0 17 27 46 60 66 63 37 192 197
248 307 70 139 14 267 -58 134 -35 -65 -301 -264 -323 -241 -17 16 36 100 91
143 84 65 195 177 219 220 19 33 20 28 10 -30 -11 -67 -10 -68 20 -30 34 42
46 140 15 121 -10 -6 -13 9 -7 34 11 43 9 43 -27 12 -42 -38 -368 -162 -368
-141 1 25 227 214 287 239 57 25 101 17 62 -11 -10 -8 -36 -34 -57 -59 -69
-81 17 -54 111 35 46 45 124 94 172 111 128 43 183 75 298 175 96 82 115 90
250 103 143 14 330 94 307 131 -5 9 4 21 21 28 73 27 -79 121 -163 100 -39
-10 -45 -18 -25 -31 17 -12 7 -14 -28 -5 -37 8 -73 1 -109 -23 -44 -29 -56
-30 -63 -7 -5 15 -47 67 -94 114 -114 115 -118 133 -37 162 37 14 68 32 68 41
0 27 -248 68 -256 43 -9 -28 -75 -28 -125 -1 -27 14 -39 14 -39 0 0 -12 14
-21 30 -21 17 0 30 -8 30 -17 0 -10 46 -24 102 -31 140 -19 107 -40 -52 -34
-104 4 -153 -6 -243 -47 -140 -64 -157 -54 -43 25 153 106 172 136 129 211
l-37 63 50 -47 c39 -36 58 -42 88 -26 25 13 70 11 145 -9 133 -34 301 -57 301
-41 0 20 -120 75 -138 64 -10 -6 -50 29 -89 77 -73 89 -129 119 -173 92 -15
-9 -42 2 -66 26 l-41 41 -16 -45 c-42 -114 -140 46 -102 168 l20 65 -59 -32
c-33 -19 -81 -76 -109 -130 -27 -53 -55 -92 -60 -86 -6 6 3 30 20 55 29 42 28
49 -27 118 -202 255 -52 493 575 917 69 46 125 89 125 94 0 19 -33 6 -150 -57z
m-405 -1069 c-12 -124 -25 -135 -25 -22 0 75 11 117 30 117 2 0 0 -43 -5 -95z
m73 -305 c-1 -38 -6 -59 -11 -45 -6 14 -30 25 -54 25 -25 0 -34 7 -21 15 25
17 5 92 -31 114 -11 7 -21 23 -21 35 0 13 11 12 30 -4 25 -21 30 -18 30 13 0
29 9 24 40 -23 22 -33 39 -91 38 -130z m-299 -171 c-72 -74 -102 -84 -136 -43
-38 46 -3 107 84 147 122 56 151 -2 52 -104z m-157 95 c-10 -20 -32 -103 -48
-185 -29 -146 -32 -152 -183 -304 -183 -184 -172 -181 -169 -50 3 153 20 236
37 187 13 -36 17 -34 52 18 70 104 216 232 233 205 12 -20 15 -19 16 1 0 35
55 164 70 164 6 0 3 -16 -8 -36z m737 -163 c28 -32 82 -76 120 -96 83 -45 107
-92 38 -75 -26 6 -138 23 -249 37 -389 50 -408 179 -29 191 52 1 80 -12 120
-57z m-439 -46 c0 -12 6 -16 13 -9 13 14 65 -43 66 -72 1 -8 -19 -5 -44 9 -39
20 -42 20 -20 -6 13 -17 61 -42 105 -57 44 -14 80 -34 80 -43 0 -9 9 -17 20
-17 11 0 20 14 20 32 0 27 16 30 105 18 109 -15 179 -50 99 -50 -25 0 -60 -18
-79 -40 -18 -22 -45 -40 -59 -40 -15 0 -26 -9 -26 -21 0 -12 -27 -30 -60 -42
-33 -12 -60 -29 -60 -39 0 -10 -16 -18 -35 -18 -27 -1 -29 -5 -9 -17 17 -11
-9 -21 -75 -29 -73 -9 -112 -4 -137 15 -19 16 -63 52 -98 81 -71 57 -108 176
-69 215 17 17 23 12 23 -19 0 -54 63 -131 112 -138 31 -4 27 3 -17 39 -56 46
-99 173 -57 173 12 0 22 -21 22 -47 0 -90 180 -197 323 -190 172 8 117 43 -71
44 -71 1 -202 118 -223 199 -28 112 39 81 89 -40 17 -41 47 -71 88 -85 l62
-22 -66 65 c-71 69 -103 131 -88 170 11 28 66 11 66 -19z m-314 -330 c6 -63
16 -133 23 -155 10 -31 -8 -56 -76 -110 -48 -38 -102 -95 -120 -125 -60 -105
-133 -4 -133 186 0 21 -10 39 -22 39 -12 0 22 35 75 77 53 43 123 106 156 140
79 84 85 81 97 -52z m842 92 c-6 -9 1 -17 16 -17 50 -1 -32 -39 -84 -40 -35 0
-42 -6 -23 -18 20 -12 16 -19 -15 -27 -23 -6 -37 -3 -31 7 6 10 -3 18 -21 18
-25 0 -27 5 -7 26 13 14 47 25 76 23 28 -2 35 0 16 5 -56 14 -40 39 24 39 33
0 55 -7 49 -16z m-1406 -297 l11 90 4 -97 c2 -67 11 -94 28 -88 27 10 27 33 4
180 -10 66 -8 95 8 95 13 0 23 -26 23 -58 0 -31 13 -88 29 -126 18 -44 22 -78
10 -97 -10 -16 -19 -21 -19 -11 0 10 -18 2 -40 -18 -22 -20 -40 -48 -40 -63 0
-15 -12 -27 -27 -27 -35 0 -59 210 -38 327 14 80 15 78 26 -57 10 -133 11
-135 21 -50z m-236 -105 c-11 -199 -16 -213 -106 -315 l-80 -90 0 67 c0 53 7
65 32 55 62 -24 116 71 118 211 2 111 21 217 39 217 3 0 2 -65 -3 -145z m1136
126 c-22 -13 -14 -20 30 -26 50 -8 47 -10 -22 -15 -154 -10 -174 -15 -207 -50
-31 -33 -30 -34 24 -22 37 9 52 6 43 -7 -7 -12 -24 -21 -38 -21 -14 0 -53 -29
-85 -65 -71 -77 -213 -196 -223 -186 -18 18 59 147 114 191 34 27 62 61 62 74
0 33 145 106 209 106 28 0 51 9 51 20 0 11 16 20 35 20 29 -1 30 -4 7 -19z
m-1019 -269 c-16 -33 -20 -14 -20 88 l1 130 20 -88 c13 -59 13 -102 -1 -130z
m370 8 c0 -80 16 -92 76 -53 66 44 71 42 71 -22 -1 -91 -44 -144 -175 -218
-112 -62 -125 -65 -125 -31 0 21 -6 93 -13 159 l-12 121 77 51 c99 65 101 65
101 -7z m-263 -159 c28 -134 28 -148 -7 -216 l-37 -72 -36 54 c-30 46 -34 81
-24 210 21 275 50 282 104 24z m-177 -5 c1 -34 -4 -51 -12 -37 -24 38 -41 -26
-41 -147 0 -58 -6 -112 -14 -119 -8 -8 -12 -57 -9 -109 3 -69 -1 -86 -16 -64
-11 17 -21 66 -23 110 -1 44 -10 103 -19 130 -11 32 -13 1 -6 -85 13 -155 -1
-177 -29 -45 -23 110 9 312 38 235 9 -25 23 -45 31 -45 7 0 8 5 2 12 -6 6 -3
40 8 75 59 185 83 209 90 89z m797 -99 c-6 -16 -40 -45 -76 -65 -35 -20 -91
-66 -124 -102 -50 -55 -78 -68 -168 -77 l-107 -11 53 56 c54 57 50 101 -6 57
-29 -22 -29 -21 -4 11 16 20 43 33 60 30 17 -4 47 9 67 29 20 20 65 35 105 35
38 0 98 18 134 39 70 43 83 42 66 -2z m-762 -116 c7 -44 28 -112 46 -152 l34
-71 111 12 c61 7 138 17 171 23 l60 10 -70 -56 c-164 -130 -368 -344 -413
-434 -54 -106 -85 -113 -49 -11 12 35 22 98 22 140 0 58 7 74 28 66 30 -11
112 175 112 253 0 131 -92 -16 -104 -168 -8 -96 -26 -55 -23 52 10 352 46 513
75 336z m741 24 c-9 -19 -16 -55 -17 -80 -1 -25 -13 -45 -25 -45 -13 0 -82
-65 -154 -144 -121 -134 -129 -139 -116 -78 8 40 67 125 153 223 136 153 190
195 159 124z m291 -14 c0 -16 -241 -251 -257 -251 -8 0 -42 -37 -74 -82 -33
-45 -83 -111 -113 -147 -30 -35 -64 -86 -75 -113 -11 -26 -35 -70 -53 -98 -20
-30 -4 -20 39 25 40 41 73 67 73 58 0 -31 -138 -198 -174 -211 -24 -8 -20 1
14 30 33 28 38 38 15 30 -19 -6 -35 -7 -35 -3 0 28 126 265 164 308 40 46 37
45 -19 -6 -109 -99 -72 -29 63 117 74 80 137 132 150 123 12 -7 22 0 22 18 0
17 9 31 20 31 11 0 20 14 20 30 0 17 25 42 55 55 30 13 71 39 91 59 33 33 74
48 74 27z m-1263 -201 c18 -72 18 -76 -8 -41 -16 21 -29 47 -29 58 0 11 -14
36 -32 55 -26 29 -27 42 -6 81 l26 47 15 -60 c8 -33 23 -96 34 -140z m1551
137 c18 -40 39 -55 166 -116 35 -17 73 -46 83 -66 11 -19 26 -29 34 -21 7 7
-16 41 -50 75 -72 71 -71 111 3 112 59 1 102 -108 126 -311 17 -145 -5 -196
-110 -252 l-86 -46 -57 40 c-31 22 -57 49 -57 60 0 10 -23 45 -52 77 -49 54
-52 73 -57 280 -6 221 11 270 57 168z m487 -80 c20 -19 21 -27 4 -27 -27 0 83
-110 162 -163 l49 -33 -73 0 c-62 0 -77 9 -98 57 -13 32 -54 81 -91 109 -79
60 -94 121 -24 99 24 -8 56 -27 71 -42z m-1086 -26 c7 -10 0 -26 -14 -35 -73
-47 -258 -270 -247 -298 7 -18 -5 -56 -25 -85 -33 -47 -123 -235 -123 -257 0
-4 11 -2 25 6 14 8 3 -10 -23 -39 -52 -56 -45 -67 19 -32 75 40 38 4 -68 -67
-104 -68 -373 -376 -373 -426 0 -100 -58 -58 -91 67 -20 74 -42 144 -50 155
-41 56 -63 242 -39 330 l24 90 25 -70 c13 -38 17 -80 8 -91 -23 -32 68 -154
162 -216 79 -52 121 -55 121 -9 0 12 35 60 78 107 61 65 82 107 92 182 18 136
64 268 112 327 l40 50 -29 -60 c-39 -81 -95 -274 -83 -286 13 -13 116 215 122
269 6 58 57 135 172 264 53 58 96 114 96 125 0 24 54 23 69 -1z m-1107 -143
c13 -65 31 -124 41 -130 25 -15 21 28 -12 137 -33 107 -5 111 79 12 41 -48 60
-332 25 -368 -8 -9 -15 7 -15 35 0 59 -70 156 -111 156 -21 0 -29 25 -29 85
-1 158 -29 199 -40 57 -9 -114 -15 -129 -60 -145 l-50 -17 44 35 c37 29 43 53
40 146 -6 166 55 164 88 -3z m728 -38 c-7 -23 -4 -40 8 -40 12 0 -13 -64 -54
-143 -95 -182 -112 -128 -23 75 61 140 97 196 69 108z m1510 -161 c23 -95 21
-156 -10 -249 -11 -32 -10 -34 8 -10 17 24 21 18 20 -30 -1 -33 -6 -49 -11
-35 -8 18 -24 14 -61 -15 -62 -48 -86 -51 -86 -9 0 17 8 26 19 20 11 -7 11 13
0 53 -26 91 -25 176 1 136 17 -25 19 -23 16 10 -5 49 47 230 66 230 8 0 25
-46 38 -101z m-620 -65 c0 -24 -18 -73 -40 -109 -22 -36 -38 -72 -36 -80 6
-23 -84 -190 -130 -240 -30 -33 -34 -45 -12 -46 15 0 6 -13 -22 -28 -83 -46
-88 -11 -10 69 46 47 71 90 66 113 -7 30 -14 26 -41 -26 -19 -34 -48 -68 -66
-75 -35 -13 21 70 111 163 28 28 37 45 20 36 -16 -8 -4 7 28 34 42 35 59 66
59 112 0 76 -22 103 -50 62 -17 -25 -19 -25 -12 1 5 17 21 30 37 30 15 0 35
11 44 25 23 36 54 12 54 -41z m-1570 -15 c18 -33 26 -69 20 -80 -7 -10 -3 -19
9 -19 11 0 21 -22 21 -50 0 -27 -10 -50 -21 -50 -12 0 -15 -11 -6 -25 10 -17
4 -16 -19 2 -29 24 -34 24 -35 0 0 -18 -7 -16 -21 8 -11 19 -33 35 -49 35 -16
0 -29 10 -29 21 0 41 41 99 70 99 23 0 25 11 10 51 -36 94 3 100 50 8z m1410
-41 c0 -24 -84 -181 -164 -308 -45 -71 -208 -209 -222 -188 -3 4 -15 35 -27
68 -12 33 -29 76 -37 95 -10 24 -3 39 23 48 20 8 57 35 81 61 24 25 57 46 74
46 16 0 32 13 36 28 11 53 236 195 236 150z m-267 -87 c-6 -17 -59 -54 -117
-81 -58 -28 -86 -47 -61 -42 63 12 56 0 -30 -55 -91 -57 -176 -87 -156 -55 18
30 -14 28 -49 -3 -16 -14 -11 -4 11 23 21 26 107 80 189 119 83 40 162 88 177
109 31 41 54 32 36 -15z m516 -109 c-50 -93 -73 -110 -197 -151 -29 -9 -33 -6
-18 14 12 14 54 70 95 125 148 199 226 206 120 12z m371 133 c-1 -45 -35 -81
-61 -64 -14 9 -20 7 -13 -4 6 -10 -6 -30 -27 -43 -55 -34 -48 2 13 74 54 65
88 79 88 37z m-1516 -96 c-12 -67 -25 -88 -51 -86 -19 2 -31 -7 -26 -20 10
-27 -67 -173 -91 -173 -10 0 -23 15 -30 34 -12 31 -14 31 -25 -1 -11 -31 -17
-29 -56 16 -40 45 -41 51 -10 52 45 1 93 43 203 175 101 122 107 122 86 3z
m1770 36 c0 -14 7 -58 15 -98 9 -46 7 -77 -7 -86 -12 -7 -22 -29 -22 -47 1
-29 3 -30 20 -4 16 25 19 22 20 -12 0 -24 6 -73 13 -110 13 -62 11 -65 -20
-41 -18 16 -33 52 -34 80 l-1 53 -25 -60 c-21 -49 -21 -65 1 -86 37 -38 37
-38 -73 -85 -122 -53 -143 -94 -61 -125 71 -27 77 -48 15 -60 -37 -7 -35 -9
13 -11 31 -2 88 16 125 39 l67 41 55 -44 c51 -41 51 -43 9 -30 -41 13 -44 10
-27 -22 11 -20 26 -55 34 -77 13 -36 16 -35 41 20 l28 60 -12 -80 c-14 -86
-57 -150 -102 -150 -24 0 -132 147 -152 208 -5 15 -18 13 -41 -5 -18 -15 -28
-36 -22 -45 6 -10 4 -18 -5 -18 -9 0 -29 29 -44 65 -86 203 -251 256 -436 139
-24 -15 -60 -24 -80 -19 -43 10 143 101 201 99 37 -2 37 -1 1 25 -21 15 -47
22 -58 15 -11 -6 -8 4 7 22 43 53 12 40 -59 -25 -57 -52 -68 -55 -88 -28 -20
28 -32 27 -111 -12 l-89 -43 70 60 c39 34 84 61 101 61 17 1 62 33 100 72 70
73 293 194 309 169 5 -8 -27 -51 -70 -96 -109 -110 -105 -232 4 -155 25 17 54
31 65 31 11 0 -1 -15 -27 -33 -36 -25 -40 -36 -19 -49 45 -29 95 -20 137 22
36 36 37 40 5 41 -33 0 -33 1 0 20 19 12 45 41 58 65 22 42 21 42 -15 12 -72
-61 -98 -64 -43 -5 63 68 68 87 24 87 -19 0 -26 -9 -17 -23 9 -14 5 -18 -9 -9
-63 39 20 126 98 102 34 -11 36 -19 15 -56 -14 -24 -26 -69 -28 -100 -6 -106
44 4 82 176 40 181 62 238 64 165z m-467 -48 c-9 -37 -6 -49 10 -39 13 8 23 4
23 -9 0 -13 -13 -18 -29 -12 -19 7 -43 -9 -63 -43 -44 -70 -168 -178 -216
-187 -70 -13 -60 95 11 124 33 14 73 45 90 70 16 25 60 60 98 78 38 18 69 41
69 52 0 10 5 19 10 19 6 0 5 -24 -3 -53z m685 -170 c65 -56 123 -107 128 -112
9 -9 -57 8 -116 30 -17 7 -12 -23 16 -95 49 -124 42 -148 -17 -56 -23 36 -43
57 -43 46 0 -11 -9 -6 -20 10 -20 31 -31 -8 -21 -77 2 -15 -5 -21 -16 -15 -11
7 -31 -3 -43 -23 -21 -31 -21 -31 -7 5 21 53 21 243 0 325 -22 89 0 83 139
-38z m-1557 -112 c14 -18 25 -48 25 -66 0 -43 -83 -118 -94 -85 -6 17 -27 12
-72 -15 -83 -50 -84 -50 -86 22 -1 34 -21 87 -44 118 -23 31 -36 63 -28 71 26
27 273 -10 299 -45z m-294 -80 c25 -85 19 -195 -11 -196 -51 -2 -117 -59 -148
-130 l-35 -78 -43 58 c-24 32 -62 61 -85 65 -41 6 -40 8 14 56 48 42 51 43 19
5 -38 -44 -38 -45 3 -45 70 0 277 276 236 314 -9 9 -21 4 -26 -11 -6 -16 -37
-56 -69 -90 l-60 -63 42 63 c51 77 54 104 6 61 -33 -30 -35 -30 -35 8 0 32 10
39 46 32 25 -5 51 -1 57 9 25 40 68 12 89 -58z m836 37 c62 -39 -85 -143 -186
-132 -51 5 -114 0 -141 -10 -53 -20 -95 12 -51 39 13 9 23 23 21 32 -4 22 62
46 93 35 13 -5 49 5 80 22 63 34 143 40 184 14z m783 -194 c0 -34 -48 -36 -99
-4 -37 23 -37 24 5 47 48 25 94 4 94 -43z m-2203 -69 c5 -93 -55 -254 -81
-214 -45 71 11 295 74 295 1 0 4 -37 7 -81z m1870 -33 c6 -41 8 -78 4 -82 -12
-12 -131 43 -131 59 0 8 -5 27 -12 44 -10 28 14 39 104 50 13 2 28 -30 35 -71z
m44 -128 c35 -57 44 -158 17 -192 -39 -49 -133 57 -115 128 7 28 2 46 -12 46
-13 0 -18 9 -11 20 17 27 104 25 121 -2z m-1591 -7 c0 -30 -49 -107 -80 -127
-61 -38 -64 6 -5 72 50 55 85 78 85 55z m1780 -87 c0 -9 16 -34 35 -55 113
-126 148 -297 88 -434 -21 -47 -47 -110 -60 -140 -34 -84 -53 -66 -55 50 0 58
-15 151 -32 207 -32 108 -28 388 7 388 9 0 17 -7 17 -16z m-1920 -83 c0 -11
-27 -34 -60 -51 -70 -36 -81 -7 -16 39 52 36 76 39 76 12z m-320 -430 c0 -6
-27 -24 -59 -41 -64 -33 -87 -66 -110 -160 l-14 -60 56 50 57 50 -50 -57
c-108 -123 -156 -74 -90 92 27 67 -54 37 -137 -50 -44 -47 -67 -62 -50 -35 17
28 43 70 58 94 17 26 56 49 100 56 40 7 107 25 151 40 93 33 88 32 88 21z"/>
<path d="M2260 4091 c-14 -27 -34 -45 -43 -39 -9 5 -11 -4 -5 -20 8 -21 -6
-39 -40 -55 -35 -16 -52 -39 -52 -71 0 -27 -9 -43 -20 -36 -11 7 -14 -1 -8
-19 8 -20 1 -31 -20 -31 -18 0 -32 -9 -32 -20 0 -43 47 -15 151 89 91 91 109
120 109 180 0 84 -5 87 -40 22z"/>
<path d="M2960 4145 c0 -9 -34 -13 -75 -9 -53 6 -69 2 -55 -13 42 -44 255 -54
247 -11 -7 38 -117 69 -117 33z"/>
<path d="M2593 3787 c-27 -27 14 -47 93 -45 80 2 81 3 22 17 -34 8 -71 20 -82
27 -11 7 -26 7 -33 1z"/>
<path d="M2109 3611 c-21 -50 -24 -90 -11 -145 l18 -76 3 70 c1 39 15 104 30
145 33 94 -1 99 -40 6z"/>
<path d="M2963 2639 c10 -45 14 -88 8 -97 -5 -8 19 -49 54 -91 60 -74 63 -75
79 -32 10 29 27 41 46 34 38 -15 40 39 3 61 -15 9 -43 46 -61 82 -19 36 -42
60 -52 54 -10 -6 -28 7 -40 29 -36 68 -57 46 -37 -40z"/>
<path d="M2560 2126 c-35 -64 -93 -142 -127 -175 -38 -35 -48 -53 -26 -45 20
8 39 14 43 14 11 0 125 173 161 243 58 112 15 80 -51 -37z"/>
<path d="M3911 4916 c-20 -273 -72 -437 -170 -535 l-77 -77 48 -21 c140 -64
247 220 248 662 0 240 -32 221 -49 -29z"/>
<path d="M3450 4321 c-44 -21 -102 -56 -128 -77 l-48 -39 121 -81 c107 -73
124 -79 157 -54 36 25 36 28 3 39 -47 15 -73 27 -152 68 -60 32 -63 38 -33 63
29 24 36 24 53 -5 15 -28 27 -30 73 -10 81 34 98 54 64 76 -25 15 -23 18 10
19 33 1 35 4 10 20 -39 25 -37 25 -130 -19z"/>
<path d="M3559 4223 c-55 -44 -40 -75 46 -94 57 -13 60 -17 25 -30 -33 -13
-34 -16 -6 -18 57 -2 84 73 47 130 -38 59 -53 60 -112 12z"/>
<path d="M3689 4227 c9 -20 20 -53 26 -72 5 -19 19 -35 31 -35 11 0 36 -14 56
-31 37 -34 77 24 48 71 -28 45 -177 107 -161 67z"/>
<path d="M3904 3865 c3 -19 23 -38 43 -42 31 -6 33 -1 14 35 -27 51 -67 56
-57 7z"/>
<path d="M3621 3681 c-35 -35 -38 -49 -19 -86 19 -33 18 -45 -2 -52 -14 -4
-42 -25 -62 -45 -37 -37 -38 -37 -38 2 0 43 -32 51 -79 21 -23 -15 -24 -23 -2
-49 14 -17 35 -26 46 -19 11 7 16 1 12 -13 -14 -42 -75 -40 -98 2 -26 48 -52
49 -64 0 -14 -52 14 -96 37 -59 13 19 21 6 28 -43 8 -54 21 -71 55 -76 25 -4
41 -14 36 -23 -12 -19 47 -90 89 -106 17 -7 1 -13 -34 -13 -71 -2 -75 -62 -5
-62 20 0 43 -10 50 -22 9 -14 43 -18 89 -10 71 11 77 8 109 -58 37 -79 49 -82
132 -39 114 59 18 289 -110 264 -27 -5 -48 -4 -48 3 4 35 -5 62 -22 62 -20 0
-14 -107 9 -165 12 -29 3 -35 -47 -35 -47 0 -59 7 -50 30 6 17 1 30 -12 30
-12 0 -20 16 -17 35 3 19 -4 33 -16 31 -14 -2 -23 45 -26 125 -4 120 -1 129
39 129 24 0 75 32 114 71 64 64 73 68 104 40 74 -67 112 -17 74 95 l-25 71
-38 -58 c-39 -57 -117 -37 -104 27 8 40 -63 37 -105 -5z"/>
<path d="M3920 3499 c0 -12 -8 -17 -17 -11 -10 6 -3 -20 14 -59 20 -44 42 -66
59 -59 15 5 36 10 46 10 33 0 19 58 -26 99 -48 45 -76 52 -76 20z"/>
<path d="M3784 3416 c-37 -37 -29 -56 26 -56 37 0 50 11 50 40 0 45 -39 53
-76 16z"/>
<path d="M3174 3394 c-13 -34 30 -90 61 -79 35 12 31 45 -4 45 -18 0 -25 12
-18 30 6 17 2 30 -9 30 -11 0 -24 -12 -30 -26z"/>
<path d="M3109 3235 c8 -25 14 -62 14 -82 -1 -37 0 -37 30 0 16 20 24 26 17
12 -8 -16 2 -25 27 -25 21 0 44 -15 51 -33 12 -30 16 -29 41 5 18 24 21 49 10
70 -22 41 -123 63 -145 31 -9 -13 -11 -3 -4 22 10 34 4 45 -21 45 -26 0 -30
-11 -20 -45z"/>
<path d="M2698 2605 c-11 -30 -36 -72 -54 -93 -33 -36 -32 -37 11 -14 25 13
45 25 45 28 0 2 8 33 19 69 22 79 8 86 -21 10z"/>
</g>
</svg>
