<?xml version="1.0" standalone="no"?>
<!DOCTYPE svg PUBLIC "-//W3C//DTD SVG 20010904//EN"
 "http://www.w3.org/TR/2001/REC-SVG-20010904/DTD/svg10.dtd">
<svg version="1.0" xmlns="http://www.w3.org/2000/svg"
 width="300.000000pt" height="200.000000pt" viewBox="0 0 300.000000 200.000000"
 preserveAspectRatio="xMidYMid meet">
<metadata>
Created by potrace 1.10, written by Peter Selinger 2001-2011
</metadata>
<g transform="translate(0.000000,200.000000) scale(0.050000,-0.050000)"
fill="#000000" stroke="none">
<path d="M2415 3906 c-37 -6 -55 -21 -55 -45 0 -20 -21 -50 -47 -67 -26 -17
-58 -59 -72 -92 -26 -64 -54 -82 -55 -37 -1 14 -8 40 -15 59 -14 33 89 109
114 84 6 -5 16 5 22 22 10 26 4 30 -32 20 -94 -27 -145 -82 -145 -154 0 -39
-12 -84 -26 -102 -20 -23 -21 -42 -5 -71 11 -22 21 -59 21 -82 0 -22 8 -41 18
-41 9 0 22 -18 28 -40 6 -22 27 -40 48 -40 21 0 56 -13 77 -29 55 -42 117 -38
159 9 55 61 81 48 85 -42 2 -45 23 -137 47 -205 24 -67 48 -193 53 -278 l10
-154 -107 32 c-269 81 -394 39 -673 -228 -189 -182 -202 -171 -87 77 43 93 98
254 122 358 25 105 70 258 102 340 70 180 72 199 13 146 -25 -23 -63 -47 -86
-54 -22 -7 -75 -56 -116 -110 -41 -54 -117 -136 -169 -182 -52 -46 -225 -211
-385 -367 -160 -156 -328 -318 -375 -362 -46 -43 -84 -94 -84 -115 0 -49 26
-46 50 7 11 24 40 51 65 60 l45 16 2 -405 c1 -222 8 -494 16 -604 9 -131 5
-252 -11 -350 -39 -230 -39 -329 0 -388 48 -74 55 -66 41 54 -10 80 -5 114 17
136 19 19 35 94 44 204 26 307 106 317 315 40 144 -191 161 -227 211 -446 26
-115 53 -230 58 -253 13 -52 101 -140 120 -121 7 8 -3 32 -24 55 -23 26 -38
75 -40 135 -2 52 -23 171 -45 264 -37 152 -75 381 -56 330 4 -11 28 -87 53
-170 53 -177 128 -351 159 -370 35 -22 49 6 20 41 -15 17 -33 69 -41 115 -8
46 -61 236 -117 421 -126 418 -126 413 -12 460 128 52 222 134 370 319 158
197 177 204 230 80 22 -52 43 -102 47 -110 3 -9 -15 -16 -42 -16 -163 0 -297
-296 -200 -442 19 -29 59 -89 89 -134 30 -44 74 -95 99 -112 59 -41 43 -52
-79 -55 -57 -1 -127 -15 -156 -30 -30 -15 -58 -24 -63 -19 -13 13 -72 -46
-116 -116 l-38 -58 45 24 c37 20 44 18 44 -11 0 -32 2 -31 27 2 18 24 36 31
54 20 15 -9 61 -14 103 -12 64 4 74 -1 64 -31 -10 -34 -10 -34 11 -1 24 36
169 51 189 19 17 -28 -24 -73 -89 -94 -43 -15 -72 -43 -92 -89 -27 -66 -27
-67 9 -35 61 56 174 70 147 19 -22 -40 -22 -40 53 -2 50 26 72 50 68 74 -3 20
10 50 29 65 31 25 33 24 19 -12 -17 -46 -18 -49 -14 -90 2 -35 123 -43 147
-10 8 11 15 -7 16 -40 l2 -60 18 58 c9 32 13 66 7 75 -6 9 0 17 12 17 37 0
136 -57 146 -85 6 -17 14 -13 25 13 22 54 -16 102 -81 102 -33 0 -60 13 -66
30 -7 24 -4 25 18 5 37 -35 68 -31 38 5 -14 17 -53 37 -88 46 -69 18 -87 80
-91 300 -1 115 25 144 97 105 59 -32 52 -75 -18 -111 -33 -17 -60 -36 -60 -43
0 -25 111 18 188 73 54 39 101 56 137 52 30 -4 55 1 55 11 0 9 -15 17 -33 17
-19 0 -28 6 -21 12 7 7 36 7 64 0 l53 -13 -70 -65 c-89 -80 -158 -215 -149
-288 l6 -56 35 60 34 60 0 -90 c-1 -49 8 -121 18 -160 l19 -70 3 70 c2 60 5
65 24 33 11 -20 16 -54 11 -75 -6 -21 -2 -43 8 -49 10 -6 18 10 18 37 0 62 40
180 68 198 11 8 22 30 23 50 1 20 4 65 6 101 2 43 13 65 33 65 55 0 27 -166
-40 -233 -20 -20 -29 -66 -28 -133 l3 -104 41 135 c50 165 75 174 59 22 -14
-138 16 -132 55 12 27 99 120 156 120 72 0 -16 8 -34 18 -40 10 -6 14 6 9 26
-16 58 70 73 93 16 14 -34 18 -36 19 -8 1 40 53 48 67 10 5 -14 14 -20 21 -14
41 38 -142 234 -192 205 -8 -5 -26 -1 -40 8 -14 8 -34 16 -45 16 -56 1 -27
113 69 264 56 88 101 180 101 204 0 53 24 48 214 -41 175 -82 191 -158 84
-395 -32 -70 -58 -140 -58 -156 0 -45 -64 -231 -97 -283 -28 -44 -28 -47 8
-40 45 9 128 125 143 203 13 62 259 335 411 456 80 63 89 77 58 87 -47 15 -97
-3 -111 -41 -6 -15 -23 -28 -38 -28 -14 0 -47 -28 -72 -62 -62 -84 -71 -63
-22 53 23 53 37 107 32 121 -5 13 4 41 20 61 28 35 29 34 8 -8 -29 -61 7 -58
39 4 15 27 20 64 12 85 -14 34 -16 34 -31 -4 -32 -82 -49 141 -20 260 3 11 3
29 0 40 -2 11 -2 107 0 214 1 106 -7 211 -18 233 -52 96 -83 292 -40 245 22
-23 50 -42 64 -41 13 0 -9 30 -49 65 -55 49 -81 94 -103 178 -16 63 -49 140
-72 173 -52 73 -53 90 -3 64 21 -12 41 -41 45 -66 4 -25 17 -43 29 -41 13 3
29 -18 36 -46 7 -29 34 -74 59 -102 26 -28 58 -87 72 -133 14 -46 55 -155 91
-243 85 -205 249 -782 249 -874 0 -111 -25 -316 -38 -316 -7 0 -12 48 -12 107
0 90 -5 104 -30 88 -35 -21 -34 -262 2 -461 11 -63 14 -135 7 -158 -8 -24 -16
-89 -19 -145 -2 -55 -12 -123 -21 -151 -15 -46 -13 -48 19 -22 72 60 81 97
131 542 10 94 33 266 50 383 l32 213 -101 347 c-56 191 -110 380 -121 421 -11
41 -41 99 -66 130 -55 68 -206 300 -283 436 -31 55 -70 116 -86 135 -43 50 -4
43 105 -18 71 -39 92 -61 85 -89 -7 -24 9 -54 44 -83 30 -25 72 -82 93 -126
25 -51 55 -81 83 -85 24 -4 71 -37 103 -74 33 -37 65 -62 71 -55 7 6 12 -6 12
-27 1 -21 50 -104 110 -186 61 -81 110 -155 110 -165 0 -9 9 -17 20 -17 11 0
20 16 20 35 1 43 54 -19 132 -155 46 -81 288 -866 288 -936 0 -16 15 -41 33
-54 23 -17 33 -52 32 -117 -2 -107 21 -121 52 -32 17 49 12 92 -27 225 -27 90
-95 340 -152 554 -70 270 -116 408 -150 450 -267 336 -269 339 -277 462 -4 65
-9 126 -9 137 -1 10 -15 2 -30 -19 -25 -34 -32 -35 -64 -9 -31 26 -34 25 -20
-1 12 -24 10 -24 -12 1 -14 18 -77 64 -139 104 -116 74 -176 134 -107 108 30
-12 32 -9 10 17 -14 16 -19 30 -12 30 22 0 199 -86 277 -134 41 -25 83 -46 94
-46 11 0 81 -44 156 -97 74 -53 167 -109 205 -124 39 -14 104 -47 145 -73 41
-25 84 -46 96 -46 11 0 44 -23 72 -51 28 -28 56 -47 61 -42 20 20 -18 94 -60
116 -85 44 -785 503 -834 547 -27 25 -77 51 -110 58 -176 40 -541 218 -665
324 l-84 73 9 -146 c6 -82 1 -155 -10 -169 -32 -39 -46 -198 -29 -323 16 -111
17 -113 29 -47 l13 70 15 -100 c9 -55 23 -133 31 -173 30 -142 -12 -121 -115
57 -134 233 -177 273 -301 275 l-97 1 -35 180 c-61 320 -254 790 -369 899 -34
32 -62 71 -62 85 0 53 -125 76 -285 52z m202 -240 c-24 -29 -20 -31 33 -19
l60 13 -56 -46 c-55 -46 -56 -81 -2 -60 16 6 28 -2 28 -19 0 -39 -21 -57 -48
-40 -28 18 -153 23 -143 6 14 -22 -109 -65 -145 -51 -28 11 -24 18 26 41 l60
29 -70 -12 c-38 -6 -88 -16 -110 -22 -30 -8 -35 -5 -18 13 20 21 60 35 116 39
10 1 3 18 -15 39 -46 50 -41 83 12 86 103 5 140 13 152 29 7 10 31 21 53 24
22 4 49 20 60 36 17 24 21 22 27 -12 3 -23 -6 -57 -20 -74z m-440 -78 c7 4 12
-20 11 -54 -2 -82 -41 -92 -58 -16 -13 61 9 136 25 86 5 -13 14 -21 22 -16z
m598 -78 c0 -59 -29 -84 -61 -52 -16 16 -16 22 2 22 13 0 24 23 24 51 0 28 8
46 18 41 9 -6 17 -34 17 -62z m71 -144 c-9 -23 -5 -28 14 -16 17 11 21 8 12
-7 -8 -13 -32 -23 -53 -23 -22 0 -39 -11 -39 -24 0 -19 -5 -19 -24 0 -18 18
-13 35 23 73 50 53 88 51 67 -3z m-174 -83 c129 -74 307 -343 227 -343 -12 0
-8 -14 10 -31 37 -38 41 -89 7 -89 -13 0 -7 -12 13 -27 21 -15 31 -37 23 -50
-9 -15 -4 -22 12 -18 14 3 24 -6 21 -20 -3 -14 5 -25 16 -25 12 0 16 -8 10
-19 -7 -10 -30 -15 -52 -11 -22 4 -35 -1 -28 -11 6 -10 2 -19 -10 -19 -11 0
-21 9 -21 20 0 11 -7 20 -17 20 -9 0 -16 -13 -16 -30 0 -16 16 -30 36 -30 21
0 37 -11 38 -25 0 -14 9 -9 21 10 32 56 75 43 70 -23 -3 -39 5 -56 24 -53 35
5 76 71 45 71 -12 0 -21 -15 -21 -33 0 -19 -5 -28 -12 -22 -21 21 12 88 43 88
33 0 67 -97 37 -107 -10 -3 -17 -47 -16 -96 4 -112 -4 -114 -33 -7 -16 59 -27
76 -39 57 -14 -23 -22 -23 -50 0 -29 24 -36 23 -53 -6 -10 -19 -36 -34 -57
-34 -21 0 -42 -7 -47 -15 -5 -8 17 -15 49 -15 39 0 62 12 70 36 9 28 17 31 39
13 15 -12 36 -17 46 -11 10 6 23 -16 28 -50 10 -71 -3 -161 -22 -150 -7 4 -31
-1 -53 -10 -36 -16 -35 -17 8 -13 63 6 79 -39 18 -51 -41 -8 -40 -9 9 -11 46
-3 55 5 55 47 0 34 11 50 35 51 31 2 30 4 -4 17 -21 8 -30 21 -19 27 32 20 75
-17 57 -47 -26 -42 -10 -206 24 -231 25 -20 23 -26 -17 -38 -44 -14 -44 -16
-6 -31 22 -8 29 -16 15 -17 -14 0 -25 -15 -25 -32 0 -17 8 -26 19 -20 10 6 24
3 30 -7 15 -24 -68 -105 -92 -90 -9 6 -17 -3 -17 -20 0 -17 -25 -47 -55 -66
-30 -19 -60 -42 -66 -50 -15 -21 -152 -76 -190 -76 -44 0 -89 49 -89 99 0 40
-28 56 -45 26 -5 -8 -6 -4 -3 9 3 12 -7 34 -22 46 -18 15 -24 44 -17 82 11 54
-2 69 -47 53 -25 -9 -22 -84 7 -139 42 -83 26 -350 -19 -322 -12 7 -6 -9 13
-35 56 -81 30 -305 -31 -266 -14 8 -16 4 -7 -11 8 -13 2 -39 -12 -57 -21 -25
-21 -29 -1 -17 37 22 24 -123 -14 -154 -23 -19 -26 -19 -15 1 24 39 -5 71 -39
44 -15 -13 -29 -21 -30 -16 -14 70 -12 79 13 70 18 -8 23 -1 15 21 -9 22 -5
28 11 18 16 -10 23 7 23 56 0 66 -55 130 -85 100 -6 -6 -17 -1 -24 11 -7 11
-4 21 8 21 11 0 21 10 21 21 0 12 -7 17 -16 12 -8 -6 -17 24 -19 66 -3 76 14
89 68 55 16 -9 20 0 14 31 -9 40 -7 41 13 10 12 -19 31 -35 41 -35 10 0 19 16
19 35 -1 30 -3 31 -20 5 -12 -19 -20 -21 -20 -6 0 14 -16 41 -35 60 -19 20
-32 34 -27 32 20 -12 82 39 70 57 -8 14 -19 14 -34 -1 -32 -32 -52 -27 -51 13
0 19 -6 55 -14 80 -9 30 -5 45 11 45 14 0 19 -13 12 -31 -9 -24 -2 -29 28 -19
32 10 37 5 28 -24 -10 -29 -8 -31 9 -6 15 21 12 39 -13 68 -19 21 -23 32 -9
24 19 -11 22 3 14 55 -9 58 -4 72 30 83 l42 13 -42 58 c-38 54 -38 113 0 89 9
-5 22 4 28 20 10 24 1 28 -41 17 -41 -10 -48 -7 -35 15 14 23 11 24 -15 2 -19
-15 -28 -42 -21 -68 7 -27 4 -37 -10 -29 -14 8 -17 -2 -10 -30 8 -30 4 -39
-12 -29 -13 8 -23 36 -23 63 0 27 -9 49 -20 49 -11 0 -20 16 -20 35 1 28 4 29
18 7 14 -22 22 -19 40 15 13 23 34 39 47 36 14 -4 18 -3 10 2 -57 32 -11 139
78 182 l94 46 -31 -47 c-17 -25 -41 -47 -53 -48 -13 -2 -33 -4 -44 -5 -12 -2
-14 -14 -6 -28 9 -14 14 -40 11 -58 -3 -17 8 -37 25 -44 21 -8 31 0 31 24 0
47 52 117 72 97 9 -8 1 -41 -18 -73 -39 -66 -42 -81 -14 -81 11 0 20 14 20 31
0 17 9 26 19 20 11 -7 7 -45 -10 -94 -34 -97 -36 -124 -9 -107 11 7 20 2 20
-11 0 -13 14 -18 30 -12 17 7 30 1 30 -13 0 -15 8 -13 20 6 28 43 25 56 -15
66 -29 8 -27 12 12 25 31 10 39 19 22 30 -19 11 -19 30 -2 80 32 92 29 110
-27 173 -78 89 -81 93 -85 152 -3 33 3 51 15 44 11 -7 21 -5 23 4 1 9 5 34 10
56 4 22 10 62 14 89 3 26 20 53 37 60 17 6 28 27 25 46 -3 19 2 40 12 45 9 6
3 43 -14 83 -27 65 -27 71 2 60 23 -9 31 1 31 38 0 27 -11 49 -25 50 -14 0
-51 57 -83 125 -31 68 -65 140 -75 159 -9 19 -17 40 -17 46 0 12 74 -7 112
-28z m-929 -429 c-34 -54 -91 -209 -136 -364 -65 -230 -93 -362 -118 -566 -17
-136 -39 -292 -50 -348 -29 -154 -23 -246 31 -476 27 -116 49 -218 50 -227 0
-40 -58 34 -70 88 -7 33 -21 59 -31 59 -10 0 -23 20 -30 45 -17 67 -154 128
-220 98 -28 -13 -53 -23 -56 -23 -7 0 0 60 40 349 31 222 80 382 198 651 36
83 71 164 78 180 18 42 53 100 107 175 26 36 38 65 26 65 -11 0 -29 -16 -40
-35 -38 -69 -44 -7 -6 67 36 70 40 72 53 32 7 -24 22 -44 32 -44 28 0 23 68
-6 97 -20 21 -16 33 20 63 25 20 45 42 45 50 0 22 105 152 115 142 5 -6 -9
-40 -32 -78z m2217 66 c0 -11 17 -20 38 -20 21 0 43 -15 50 -33 22 -56 -1 -52
-71 11 -37 33 -56 61 -42 61 14 1 25 -8 25 -19z m-137 -293 c10 -42 23 -109
27 -148 5 -40 19 -98 32 -130 25 -62 35 -117 43 -224 3 -38 16 -65 31 -65 15
0 20 10 12 23 -9 15 -5 18 12 7 21 -13 19 -21 -7 -40 -30 -22 -47 -73 -52
-150 -1 -27 -4 -27 -21 0 -16 24 -19 21 -20 -16 0 -26 -9 -63 -20 -84 -12 -22
-13 -42 -2 -49 10 -6 23 12 30 40 7 28 22 45 32 39 10 -6 13 -26 6 -44 -9 -24
-5 -28 14 -16 22 13 24 -16 13 -160 -18 -232 -30 -278 -64 -249 -15 12 -37 17
-48 9 -14 -8 -19 11 -13 57 7 55 2 68 -20 60 -15 -6 -28 0 -28 13 0 16 19 21
50 15 28 -5 50 -3 50 5 0 8 -28 21 -61 27 -53 11 -60 19 -49 58 11 40 10 41
-11 8 -18 -28 -43 -35 -116 -30 -77 6 -93 1 -90 -26 1 -22 -8 -30 -26 -23 -16
6 -41 -5 -55 -25 -15 -21 -39 -30 -58 -23 -22 8 -29 3 -21 -17 6 -16 1 -29
-11 -29 -12 0 -22 -13 -22 -30 0 -16 -10 -30 -22 -30 -12 0 -17 -13 -11 -30 6
-16 5 -29 -3 -27 -39 5 -51 -6 -24 -23 27 -17 26 -19 -1 -20 -16 0 -52 15 -80
34 -34 24 -43 26 -27 5 43 -58 51 -103 13 -82 -34 19 -125 -52 -125 -98 0 -10
-9 -19 -20 -19 -39 0 -19 73 32 118 28 25 45 51 37 58 -8 8 -19 3 -23 -11 -5
-14 -17 -20 -27 -14 -18 11 -118 -44 -144 -81 -8 -11 -15 -4 -15 17 0 28 -11
35 -40 27 -22 -6 -40 -3 -40 5 0 9 -27 13 -61 9 -53 -7 -62 0 -72 52 -7 33
-18 56 -25 51 -8 -5 -13 25 -13 65 1 68 6 74 59 74 63 0 119 -60 81 -86 -37
-24 -48 -80 -18 -92 19 -7 34 14 49 68 21 79 66 140 103 140 10 0 14 -9 7 -20
-20 -32 12 -160 40 -160 16 0 22 15 16 40 -17 64 8 110 44 80 24 -20 30 -19
32 3 1 23 3 23 12 0 8 -21 15 -22 26 -4 10 18 18 16 27 -7 7 -20 1 -32 -16
-32 -16 0 -35 -11 -43 -25 -8 -14 -7 -18 2 -10 9 8 30 3 47 -10 24 -20 28 -20
16 0 -9 14 -8 25 1 25 9 0 28 19 43 42 42 68 -9 218 -74 218 -41 0 -44 4 -22
31 14 17 39 26 55 20 16 -7 43 0 60 14 16 14 35 25 42 25 6 0 9 11 6 25 -3 14
6 25 20 25 18 1 19 5 4 15 -30 20 -56 105 -31 105 33 0 45 64 24 128 -11 34
-23 96 -28 138 -4 42 -18 87 -30 99 -13 13 -23 32 -22 44 0 12 9 5 21 -14 11
-19 30 -35 41 -35 12 0 15 15 7 35 -38 95 -47 147 -24 140 13 -5 25 -17 26
-27 4 -51 34 -128 50 -128 10 0 18 -10 18 -21 0 -12 -8 -16 -19 -10 -10 6 -24
3 -30 -8 -7 -10 5 -16 25 -12 110 22 225 -234 137 -306 -26 -22 -29 -18 -23
35 4 34 -2 67 -13 74 -14 9 -13 18 3 28 27 17 -23 88 -85 122 -29 16 -35 11
-35 -26 1 -34 5 -39 18 -18 23 36 64 -35 53 -90 -21 -105 -39 -159 -59 -173
-16 -10 -15 -14 1 -15 17 0 15 -26 -5 -93 -15 -52 -24 -97 -20 -102 5 -4 14
10 21 32 15 47 104 110 131 93 11 -7 14 2 7 20 -31 82 95 119 227 67 93 -37
155 24 198 194 10 38 4 49 -22 49 -28 0 -33 -12 -23 -59 6 -33 3 -65 -8 -71
-10 -7 -19 2 -19 19 0 18 -13 37 -28 43 -21 8 -27 42 -23 130 6 151 23 167 55
51 13 -51 31 -93 39 -93 28 0 30 71 3 124 -14 30 -35 124 -47 210 -11 86 -25
179 -31 206 -18 83 32 16 55 -73z m-2394 -82 c-17 -41 -63 -150 -101 -241 -38
-92 -104 -236 -146 -320 -69 -138 -80 -185 -112 -444 -19 -159 -41 -302 -49
-317 -23 -43 -7 559 17 657 42 168 70 250 91 264 14 10 13 22 -3 38 -18 18
-18 29 0 48 43 45 97 125 144 214 25 47 56 87 68 89 12 1 34 3 50 5 15 1 32
20 38 42 6 22 16 40 22 40 7 0 -2 -34 -19 -75z m962 57 c-6 -10 4 -23 21 -30
26 -10 28 -18 8 -42 -25 -30 -5 -42 50 -30 78 16 94 17 81 4 -8 -8 -23 -15
-33 -16 -10 -2 -27 -4 -38 -5 -11 -2 -20 -15 -20 -30 0 -15 -18 -43 -40 -63
-51 -46 -52 -78 -1 -51 52 28 62 26 48 -9 -6 -16 -18 -25 -27 -20 -9 5 -21 -4
-28 -21 -6 -18 -20 -26 -30 -20 -10 6 -23 0 -29 -14 -7 -14 -6 2 2 35 7 33 13
76 13 95 0 19 8 35 16 35 9 0 16 10 16 22 0 45 -51 2 -64 -54 -13 -57 -13 -56
-13 12 1 103 -2 113 -22 81 -10 -17 -25 -24 -32 -17 -24 25 14 58 53 46 29
-10 35 -5 26 19 -10 24 -4 28 25 18 30 -11 32 -8 12 14 -31 33 -32 59 -4 59
12 0 16 -8 10 -18z m1089 -212 c-20 -24 -17 -33 21 -46 38 -15 40 -19 12 -30
-19 -8 -33 -3 -33 12 -1 17 -5 16 -18 -3 -13 -21 -19 -19 -30 10 -9 23 -2 45
21 61 46 34 57 33 27 -4z m-1325 -85 c-24 -41 -62 -90 -85 -109 -22 -19 -29
-35 -16 -35 14 -1 42 18 63 41 44 46 67 27 49 -40 -9 -35 -16 -39 -31 -19 -14
20 -16 17 -7 -10 7 -20 12 -49 12 -65 0 -30 27 -10 154 112 29 28 45 37 36 20
-13 -24 -11 -25 11 -5 76 70 76 12 0 -71 -54 -59 -120 -91 -91 -44 7 11 3 20
-9 20 -11 0 -21 -13 -21 -30 0 -16 -9 -30 -19 -30 -11 0 -15 -16 -8 -35 9 -29
7 -30 -10 -5 -18 25 -31 19 -84 -35 -55 -56 -105 -77 -164 -67 -23 3 -18 -34
6 -42 40 -13 -5 -75 -73 -99 -37 -14 -68 -37 -68 -51 0 -14 -10 -26 -22 -26
-27 0 -96 -82 -97 -115 -1 -14 -10 -25 -21 -25 -11 0 -38 -18 -60 -40 -40 -40
-40 -40 -38 125 2 286 89 424 202 321 34 -30 36 -28 36 41 0 73 -52 75 -102 6
-7 -10 -19 -8 -26 4 -8 12 5 33 27 47 23 14 41 42 41 62 0 22 -9 31 -23 22
-14 -9 -18 -5 -9 8 8 14 30 16 56 7 51 -19 136 -6 136 21 0 10 10 12 23 4 15
-9 18 -5 8 10 -10 16 0 29 27 36 23 6 42 17 42 25 0 8 24 26 54 39 30 14 66
42 81 63 49 70 65 41 20 -36z m-535 -54 c0 -16 -8 -33 -17 -39 -10 -6 -13 -33
-8 -59 5 -27 0 -53 -10 -60 -20 -12 -32 139 -14 169 18 28 49 21 49 -11z
m1975 -24 c31 -8 45 -27 45 -59 0 -61 -11 -60 -71 5 -67 72 -64 79 26 54z
m138 -197 c3 -38 -3 -74 -14 -81 -20 -12 -23 -4 -24 61 -3 130 28 146 38 20z
m-73 49 c0 -12 -8 -16 -19 -10 -10 6 -24 -7 -31 -29 -15 -46 -50 -54 -50 -11
0 16 16 38 35 49 45 27 65 27 65 1z m-2043 -54 c17 17 23 15 23 -9 0 -31 -73
-63 -102 -45 -8 5 -9 28 -3 52 10 38 14 39 35 11 18 -25 29 -27 47 -9z m685
-562 c10 16 15 -5 13 -57 -3 -65 -13 -87 -44 -97 -36 -12 -37 -14 -6 -23 19
-5 40 -30 47 -57 19 -74 3 -93 -47 -58 -47 33 -61 117 -24 140 14 8 9 27 -15
54 -20 23 -25 35 -11 27 14 -8 25 -5 25 6 0 11 16 16 35 10 33 -10 33 -10 0
12 -20 12 -30 33 -22 45 10 17 17 16 23 -3 7 -22 12 -22 26 1z m137 -333 c9 5
16 -13 16 -39 0 -43 -4 -45 -29 -20 -16 16 -38 29 -50 29 -12 0 -10 13 6 32
17 21 29 24 34 10 4 -12 15 -18 23 -12z m-11 -273 c-6 -9 1 -17 16 -17 19 -1
18 -6 -4 -20 -27 -17 -27 -19 0 -20 36 -1 -13 -39 -50 -39 -11 0 -7 8 9 18 21
13 9 21 -45 32 -84 15 -100 49 -23 49 29 0 46 -9 39 -20 -7 -11 1 -20 18 -20
19 0 26 11 19 30 -6 17 -18 30 -26 30 -8 0 -14 14 -14 30 0 26 5 25 36 -3 20
-18 31 -40 25 -50z m637 -12 c-5 -14 -17 -20 -27 -14 -10 6 -18 2 -18 -10 0
-11 9 -21 21 -21 12 0 10 -12 -5 -28 -43 -46 -54 6 -20 92 26 66 34 74 45 43
7 -20 9 -48 4 -62z"/>
<path d="M2875 2527 c36 -15 31 -42 -10 -54 -23 -7 -19 -9 11 -7 25 2 45 13
43 23 -1 11 14 26 35 34 25 10 15 14 -34 14 -38 0 -59 -5 -45 -10z"/>
<path d="M2753 2097 c-5 -20 5 -40 24 -47 28 -10 28 -15 2 -31 -16 -10 -20
-19 -8 -19 34 0 69 45 69 90 0 51 -73 58 -87 7z"/>
<path d="M3077 2110 c-17 -16 7 -150 26 -150 11 0 14 9 7 20 -7 11 -1 20 14
20 21 1 20 4 -1 18 -23 14 -23 19 0 28 21 8 21 11 1 12 -15 1 -21 10 -15 21
12 19 -17 47 -32 31z"/>
<path d="M3420 1728 c0 -20 -11 -28 -30 -21 -29 11 -40 -18 -31 -82 1 -14 -11
-25 -28 -25 -17 0 -31 -9 -31 -20 0 -11 -12 -20 -27 -20 -14 0 -26 -13 -26
-30 0 -16 17 -30 38 -30 60 0 115 38 115 80 0 20 8 43 18 49 23 14 40 131 19
131 -10 0 -17 -14 -17 -32z"/>
<path d="M1954 2127 c-30 -16 -50 -37 -43 -48 11 -19 -15 -27 -71 -21 -25 3
-26 1 -2 -15 16 -11 40 -15 55 -9 15 6 27 1 27 -10 0 -10 -19 -24 -43 -31 -37
-9 -40 -16 -18 -42 64 -77 165 2 114 89 -27 46 -28 57 -7 49 16 -6 35 4 42 23
18 47 10 49 -54 15z"/>
<path d="M4895 2241 c54 -45 58 -64 10 -47 -29 10 -30 7 -10 -15 14 -15 26
-50 27 -78 0 -28 6 -40 11 -26 6 14 19 20 29 14 10 -6 18 -2 18 10 0 11 -9 21
-20 21 -11 0 -20 10 -20 21 0 12 7 17 16 12 9 -6 28 -3 43 6 32 20 -67 120
-119 120 -21 0 -17 -11 15 -38z"/>
<path d="M4680 1889 c0 -19 -9 -26 -23 -17 -14 9 -18 5 -9 -9 8 -13 7 -34 -1
-48 -9 -14 -16 -38 -16 -55 -1 -17 -19 -29 -43 -29 -23 1 -41 -10 -41 -24 0
-14 7 -21 16 -15 10 6 17 -19 17 -56 0 -36 9 -79 19 -95 12 -19 11 -35 -2 -43
-18 -11 -22 -39 -18 -158 1 -16 -1 -48 -4 -70 -4 -34 8 -41 80 -44 90 -4 113
26 55 74 -16 14 -30 41 -30 61 0 20 -8 42 -18 48 -25 15 -17 151 11 201 34 59
57 310 29 310 -12 0 -22 -14 -22 -31z"/>
</g>
</svg>
