<?xml version="1.0" standalone="no"?>
<!DOCTYPE svg PUBLIC "-//W3C//DTD SVG 20010904//EN"
 "http://www.w3.org/TR/2001/REC-SVG-20010904/DTD/svg10.dtd">
<svg version="1.0" xmlns="http://www.w3.org/2000/svg"
 width="300.000000pt" height="350.000000pt" viewBox="0 0 300.000000 350.000000"
 preserveAspectRatio="xMidYMid meet">
<metadata>
Created by potrace 1.10, written by Peter Selinger 2001-2011
</metadata>
<g transform="translate(0.000000,350.000000) scale(0.050000,-0.050000)"
fill="#000000" stroke="none">
<path d="M1510 6474 c-346 -187 -506 -355 -573 -604 -60 -218 -115 -372 -170
-469 -44 -80 -46 -93 -18 -113 50 -36 40 -157 -15 -194 -52 -33 -145 -323
-213 -661 -42 -211 -41 -222 11 -113 49 102 69 102 46 -1 -19 -83 -58 -159
-81 -159 -28 0 -137 -124 -137 -156 0 -18 33 -66 74 -108 55 -56 65 -76 40
-76 -64 0 -118 -75 -90 -125 13 -25 26 -85 28 -135 9 -163 22 -226 51 -248 33
-24 31 -169 -3 -292 -36 -129 -28 -157 52 -172 120 -22 161 15 187 170 48 286
32 256 168 297 68 21 172 37 233 35 61 -2 144 5 185 16 66 18 174 2 257 -39 7
-3 -58 -78 -145 -166 -86 -88 -157 -171 -157 -185 0 -13 -35 -61 -78 -105
-170 -175 -302 -424 -302 -568 0 -91 -10 -140 -32 -165 -46 -51 -19 -111 76
-171 95 -59 263 -85 288 -43 17 26 19 35 25 100 2 19 32 50 68 69 93 48 169
142 206 257 18 55 63 155 100 223 38 67 81 173 98 235 16 61 57 150 90 197 34
47 95 132 134 190 40 58 80 105 88 105 53 0 22 -104 -131 -438 -62 -137 -102
-266 -139 -452 -55 -275 -98 -409 -205 -646 -84 -186 -85 -173 42 -357 233
-337 296 -352 321 -76 15 150 29 177 100 178 25 1 43 19 51 50 13 58 135 81
210 41 31 -17 65 -18 114 -4 76 21 276 -7 276 -39 0 -9 13 -17 30 -17 100 0
-121 -247 -239 -266 -95 -15 -200 -68 -274 -137 -45 -42 -84 -58 -149 -62 -48
-3 -88 -10 -88 -17 0 -6 -11 -11 -25 -11 -14 0 -53 -6 -85 -13 -33 -7 -49 -8
-35 -2 38 17 30 48 -12 48 -21 0 -59 17 -85 37 -80 62 -518 111 -518 58 0 -8
-13 -15 -30 -15 -16 0 -30 8 -30 18 0 10 -25 14 -55 9 -85 -14 -206 -13 -305
3 -49 8 -102 16 -117 19 -14 2 -34 17 -44 32 -15 23 -19 21 -20 -11 -1 -22 -7
-29 -12 -15 -6 14 -34 24 -64 23 l-53 -2 50 -16 c50 -16 50 -16 4 -18 -42 -2
-44 -5 -16 -33 26 -26 192 -51 340 -51 21 0 53 -8 72 -18 18 -10 80 -20 137
-22 56 -3 103 -11 103 -19 0 -25 106 -36 157 -16 34 13 54 11 64 -4 9 -15 189
-28 552 -40 296 -9 547 -18 558 -21 36 -9 339 24 421 47 68 18 90 38 130 113
26 51 100 148 163 216 63 69 115 143 115 165 0 23 7 40 15 38 32 -7 85 29 85
57 0 30 25 29 104 -3 23 -10 43 1 66 36 28 43 40 48 79 30 30 -14 59 -15 81
-2 64 36 123 7 146 -72 52 -182 51 -195 -15 -223 -82 -33 -89 -49 -49 -110 33
-50 14 -110 -35 -110 -11 0 -39 -23 -63 -51 -43 -50 -53 -52 -310 -58 -235 -5
-269 -10 -299 -45 -34 -39 -136 -69 -325 -98 -80 -12 -85 -15 -43 -31 26 -9
55 -12 65 -6 10 6 18 1 18 -12 0 -17 44 -22 157 -15 l157 9 -7 -55 c-7 -65 3
-70 214 -97 267 -35 530 -27 620 19 43 23 135 55 204 73 222 56 250 115 135
285 -65 96 -72 134 -37 210 28 62 -5 112 -74 112 -77 0 -91 235 -19 320 36 43
45 84 71 320 12 115 31 215 42 222 13 8 5 65 -23 156 -23 79 -40 172 -36 207
8 80 56 99 56 22 0 -31 14 -83 30 -114 17 -32 30 -109 30 -173 0 -63 14 -147
30 -187 36 -86 38 -200 7 -433 l-23 -174 74 -98 c51 -66 72 -112 66 -143 -21
-109 159 -160 303 -86 113 57 135 90 97 147 -27 42 -26 58 18 184 70 200 43
379 -114 760 -32 77 -76 209 -97 294 -21 84 -52 179 -68 210 -16 31 -35 119
-43 196 -10 92 -48 225 -111 390 l-97 250 44 35 c41 33 41 35 4 24 -31 -9 -33
-8 -10 7 124 77 206 24 337 -220 57 -106 91 -356 48 -356 -31 0 -65 -302 -45
-400 10 -49 19 -126 20 -170 2 -98 118 -337 167 -347 32 -6 34 10 24 164 -17
280 80 209 120 -87 7 -49 30 -114 51 -144 21 -30 38 -64 38 -75 0 -12 21 -21
47 -21 65 0 82 123 40 305 -61 271 12 182 94 -114 63 -227 187 -292 177 -93
-3 52 8 118 26 152 17 33 36 87 44 120 7 33 28 87 45 121 31 60 30 62 -57 190
-49 71 -105 172 -125 225 -19 54 -47 101 -62 107 -14 5 -49 45 -77 88 -29 43
-74 84 -101 90 -80 21 -191 307 -241 623 -14 90 -78 147 -197 177 -31 8 -107
61 -170 119 -62 57 -135 112 -163 120 -27 9 -59 28 -70 43 -11 15 -50 30 -86
34 -36 5 -68 11 -71 15 -4 5 -31 42 -62 83 -55 74 -57 75 -194 75 -131 0 -143
4 -209 68 l-70 68 128 22 c177 31 178 30 337 -49 141 -72 172 -76 151 -21 -13
31 -350 262 -414 282 -59 19 -50 35 45 81 99 48 126 109 48 109 -54 0 -328 62
-444 100 -82 27 -85 47 -19 144 80 119 49 167 -69 106 -64 -33 -69 -78 -16
-145 13 -17 12 -44 -5 -85 -40 -96 -20 -115 113 -107 84 5 106 2 77 -11 -22
-11 -64 -20 -94 -21 -29 0 -59 -10 -66 -21 -8 -13 -25 -13 -49 -1 -19 11 -41
14 -48 7 -7 -6 -39 -14 -73 -17 -74 -5 -80 34 -11 71 70 37 135 172 98 202
-31 26 -87 -8 -87 -54 0 -36 -66 -167 -85 -168 -8 0 -15 10 -15 21 0 12 -9 16
-21 9 -50 -31 -175 142 -190 263 -8 64 -24 124 -37 133 -13 10 -6 13 18 9 22
-5 63 3 91 17 28 14 69 23 90 21 22 -1 37 8 34 22 -3 14 35 34 90 48 51 13 84
27 72 31 -13 5 -77 -11 -144 -33 -159 -53 -180 -52 -122 10 30 32 36 47 16 39
-21 -8 -35 1 -42 29 -15 56 21 74 56 28 15 -20 28 -27 28 -14 1 37 -56 72 -99
61 -48 -12 -54 22 -7 40 18 7 60 -2 95 -20 66 -35 252 -71 227 -44 -8 9 -5 28
7 43 39 46 80 -16 59 -90 -12 -42 -10 -64 6 -70 13 -6 -1 -11 -31 -11 -37 -2
-53 -13 -53 -37 1 -63 -59 -195 -91 -201 -46 -10 -40 -44 8 -44 22 0 57 17 78
38 21 21 43 35 48 30 5 -5 29 56 54 136 25 80 59 157 75 170 69 56 -80 299
-262 424 -316 218 -1210 226 -1031 10 27 -33 -2 -67 -57 -68 -14 0 -25 -20
-26 -45 0 -25 -13 -62 -29 -82 -15 -21 -51 -116 -79 -210 -28 -95 -69 -232
-91 -304 -22 -73 -40 -165 -40 -205 0 -189 -116 -388 -295 -508 -129 -86 -131
-113 -13 -165 l92 -41 -43 -65 c-100 -150 -202 -442 -167 -477 16 -16 43 18
96 120 64 121 83 142 127 142 77 1 253 51 344 98 137 72 143 20 8 -62 -49 -30
-98 -77 -108 -104 -11 -28 -42 -65 -70 -83 -37 -25 -51 -51 -51 -98 0 -48 -13
-71 -50 -91 -27 -14 -54 -41 -60 -58 -5 -18 -42 -67 -81 -110 l-72 -78 -146
11 c-194 15 -335 76 -377 164 -40 85 -29 95 69 60 l80 -28 -3 154 c-1 85 5
197 15 249 11 54 11 106 0 125 -25 46 -25 206 1 321 13 55 37 181 54 280 31
178 68 330 148 600 23 77 42 146 42 153 0 25 -104 38 -131 16 -15 -12 -36 -17
-48 -10 -11 7 -26 -12 -33 -43 -7 -31 -43 -168 -79 -306 -37 -137 -91 -372
-122 -521 -52 -257 -57 -272 -99 -264 -32 7 -48 -3 -57 -33 -48 -149 -124 -66
-102 110 15 115 6 128 -52 75 -21 -19 -37 -24 -37 -11 0 13 25 36 56 52 l56
29 5 -82 c7 -111 83 -164 83 -58 0 18 13 57 29 87 19 37 26 104 22 205 -3 83
2 151 12 151 9 0 18 -20 18 -45 2 -44 2 -44 21 5 11 27 15 69 9 93 -6 24 -2
69 10 99 11 30 14 69 7 86 -23 53 -25 82 -6 82 10 0 18 -10 18 -22 0 -12 10
-18 22 -14 11 4 20 15 18 24 -2 10 4 23 13 30 33 24 91 224 83 283 -6 41 -3
54 11 40 26 -26 59 -28 44 -3 -52 84 62 146 132 72 86 -91 127 -69 166 90 27
112 109 341 184 515 18 41 -36 28 -163 -41z m-79 -204 c-88 -85 -164 -119
-146 -65 8 28 188 155 219 155 11 0 -22 -40 -73 -90z m1392 -78 c10 6 44 5 73
-4 54 -15 54 -15 -16 -27 -75 -13 -101 5 -97 69 2 34 4 33 11 -5 5 -25 18 -40
29 -33z m-208 -15 c18 -18 36 -18 73 -2 39 18 54 17 73 -7 42 -49 15 -57 -158
-47 -58 4 -92 -4 -104 -23 -13 -20 -18 -9 -19 37 0 70 82 95 135 42z m-176
-32 c0 -43 -91 -112 -129 -98 -53 21 9 133 74 133 40 0 56 -10 55 -35z m-1089
-25 c32 -14 34 -17 6 -19 -18 0 -36 -20 -40 -45 -4 -33 -28 -51 -91 -69 -99
-29 -102 -22 -34 78 51 75 85 87 159 55z m-319 -122 c-28 -48 -51 -76 -51 -61
0 37 87 191 95 168 3 -10 -16 -58 -44 -107z m1985 71 c57 -17 104 -39 104 -50
0 -26 -27 -24 -56 5 -13 13 -29 18 -36 11 -6 -7 14 -25 45 -41 61 -32 139
-109 125 -123 -5 -4 -71 20 -148 54 -157 70 -403 104 -386 53 5 -16 40 -33 78
-40 167 -31 246 -90 187 -139 -17 -14 -27 -36 -22 -48 14 -37 -43 -99 -113
-123 -47 -17 -63 -33 -59 -64 5 -52 -87 -129 -136 -114 -20 7 -41 2 -48 -9 -8
-12 7 -21 36 -21 85 0 113 -21 113 -84 0 -56 -4 -60 -55 -47 -30 7 -73 16 -95
19 -25 3 -44 25 -50 58 -8 41 -17 49 -40 34 -25 -16 -26 -25 -4 -61 33 -52 26
-60 -92 -102 -62 -22 -79 -34 -49 -35 91 -4 40 -37 -120 -79 -199 -52 -194
-52 -181 -4 5 21 44 52 86 68 78 32 124 139 68 161 -49 19 -72 -75 -23 -95 14
-6 -1 -7 -32 -3 -56 8 -100 30 -61 30 11 0 22 29 24 64 3 35 15 75 27 90 18
21 15 24 -10 14 -18 -7 -33 -4 -33 7 0 20 190 65 273 65 26 0 47 -9 47 -20 0
-31 54 -23 67 10 8 20 41 30 97 31 124 2 170 23 128 57 -55 46 -270 28 -241
-19 13 -21 -57 -26 -77 -6 -7 7 -51 16 -97 20 -92 8 -118 21 -84 43 11 8 32
35 46 61 18 35 36 44 71 35 27 -7 50 -2 54 11 9 25 336 32 375 8 12 -8 16 -1
10 15 -19 49 -155 98 -309 112 -215 19 -291 102 -93 102 13 0 42 12 64 28 35
24 170 59 309 79 115 17 219 11 316 -18z m-133 -658 c0 -110 140 -275 254
-300 35 -8 58 -23 51 -34 -6 -11 -38 -14 -70 -7 -45 10 -58 6 -58 -18 0 -18
-9 -32 -20 -32 -11 0 -20 14 -20 30 0 17 -18 30 -40 30 -27 0 -40 -13 -40 -42
0 -34 -6 -38 -27 -21 -15 13 -30 19 -35 15 -4 -5 -152 -33 -328 -62 -176 -30
-335 -62 -354 -72 -59 -32 -78 -21 -64 37 l13 55 -72 -68 c-46 -45 -128 -88
-232 -124 -193 -67 -208 -57 -36 22 71 33 108 59 85 60 -28 1 -17 13 39 41 43
22 84 47 90 57 6 9 43 21 81 27 114 16 326 74 383 106 30 16 83 25 120 20 37
-4 93 -9 124 -10 45 -1 53 -7 36 -27 -17 -20 -5 -26 58 -25 43 1 79 7 79 14 0
8 5 27 11 43 6 16 -15 58 -50 96 -33 37 -61 74 -61 82 0 8 -15 9 -33 2 -19 -7
-29 -5 -24 6 5 10 22 45 37 78 70 148 103 155 103 21z m817 -442 c66 -12 212
-103 194 -121 -7 -8 -91 23 -224 83 -33 15 -91 36 -130 48 l-70 21 80 -9 c44
-5 112 -15 150 -22z m-285 -49 c10 -55 -155 -225 -208 -215 -51 10 -57 1 -28
-44 16 -25 26 -25 70 -2 62 33 94 11 40 -27 -22 -15 -84 -64 -139 -110 -55
-45 -112 -78 -126 -72 -14 5 -20 0 -14 -11 7 -11 -29 -39 -81 -61 -190 -85
-550 3 -748 183 -142 129 -123 155 82 113 119 -24 155 -25 187 -5 22 13 65 31
95 38 30 8 55 22 55 33 0 64 254 106 345 57 112 -60 268 -22 342 84 57 81 117
99 128 39z m-608 -30 c8 -19 0 -30 -23 -30 -19 0 -54 -6 -79 -13 -27 -7 -45
-3 -45 11 0 12 14 22 30 22 17 0 30 9 30 20 0 32 74 23 87 -10z m394 -2 c33
-39 -3 -67 -86 -68 -64 0 -68 13 -22 63 41 45 74 47 108 5z m-661 -36 c0 -57
-57 -81 -101 -41 -31 28 -34 40 -14 52 41 26 115 19 115 -11z m1206 -6 c30
-18 -30 -66 -83 -66 -37 -1 -45 -6 -26 -18 21 -13 20 -19 -7 -29 -48 -19 -186
-16 -198 4 -22 36 14 103 55 103 24 0 57 10 73 21 28 18 148 9 186 -15z
m-1336 -66 c39 -43 32 -48 -74 -65 -65 -11 -83 21 -40 70 39 45 69 44 114 -5z
m-370 -59 c0 -21 -49 -73 -115 -122 -63 -48 -162 -132 -220 -187 -137 -131
-133 -101 10 75 103 128 107 137 45 93 l-70 -49 32 49 c19 30 56 53 89 57 32
3 73 25 93 47 23 27 49 37 77 30 35 -9 41 -4 33 27 -6 22 -2 34 8 28 10 -6 18
-28 18 -48z m1510 -61 c7 -11 -1 -20 -18 -20 -17 0 -45 -27 -62 -60 -17 -33
-42 -60 -56 -60 -13 0 -71 -22 -129 -49 -127 -59 -135 -53 -20 16 47 28 121
83 165 121 87 76 101 83 120 52z m-2614 -65 c12 -25 22 -33 23 -18 1 23 7 23
31 3 33 -27 42 -70 11 -51 -10 7 -29 -6 -41 -28 -12 -23 -15 -41 -8 -41 7 0 3
-12 -10 -27 -12 -15 -21 -45 -19 -65 7 -82 -4 -150 -23 -138 -11 7 -20 32 -20
55 0 42 -1 42 -29 4 -36 -47 -39 -71 -8 -64 12 3 27 -8 32 -23 8 -21 -1 -25
-33 -17 -33 9 -43 3 -41 -22 7 -67 -2 -81 -71 -106 -81 -29 -92 -80 -26 -126
l45 -31 -51 0 c-106 0 -202 168 -108 192 36 9 47 25 46 65 -1 30 17 98 41 151
49 110 53 156 20 218 -22 42 -21 42 15 12 21 -18 48 -29 60 -25 29 11 3 -142
-52 -307 -39 -118 -37 -151 5 -109 25 25 71 175 126 408 34 144 50 161 85 90z
m1224 -88 c0 -26 -98 -95 -114 -80 -5 6 -3 22 6 37 10 14 18 35 19 46 2 11 4
31 6 45 4 33 83 -13 83 -48z m1508 -25 c37 -41 17 -70 -35 -50 -18 6 -61 -3
-97 -22 -36 -18 -97 -37 -136 -42 -38 -5 -119 -22 -180 -38 -60 -16 -128 -32
-150 -37 -22 -5 -9 -9 29 -11 37 -1 96 6 130 17 33 10 151 38 261 62 110 24
256 60 325 81 l124 37 70 -45 c121 -78 62 -145 -109 -123 -65 8 -77 -12 -31
-50 21 -18 39 -18 70 -1 23 12 50 17 60 11 10 -7 57 2 105 18 107 38 116 38
116 3 0 -16 -30 -33 -69 -40 -37 -7 -72 -24 -76 -38 -14 -40 -520 -56 -586
-18 -36 21 -34 23 21 24 67 2 288 51 305 69 7 6 -39 11 -100 11 -62 0 -118 -8
-124 -18 -6 -9 -80 -23 -166 -31 -244 -21 -236 -14 -192 -177 6 -22 0 -33 -16
-30 -15 4 -25 -8 -22 -25 7 -44 -120 -107 -185 -91 -86 22 -156 104 -146 173
5 33 5 59 1 59 -16 0 -66 -59 -64 -74 3 -14 -36 -31 -211 -97 -57 -22 -65 -24
-118 -26 -29 -2 -51 -18 -58 -43 -6 -22 -20 -40 -31 -40 -12 0 -17 13 -11 29
8 20 0 25 -28 18 -67 -18 -69 31 -4 96 l62 62 -161 -14 c-132 -11 -159 -9
-150 14 16 43 186 97 344 109 80 7 145 19 145 29 0 26 64 20 127 -13 72 -38
171 -39 185 -2 6 15 30 35 54 43 35 13 26 17 -46 24 l-90 9 190 56 c105 32
258 84 340 117 180 71 280 78 328 25z m-1397 -63 c7 -11 48 -43 93 -71 94 -60
91 -75 -9 -47 -81 23 -135 67 -135 110 0 34 32 39 51 8z m2129 -198 c0 -34
-74 -61 -164 -60 l-86 1 70 38 c74 41 180 53 180 21z m-890 -83 c78 -12 317
-18 540 -15 494 9 557 -43 190 -154 -43 -13 -46 -11 -24 16 14 17 49 37 77 44
29 7 47 18 42 23 -10 10 -180 -37 -265 -72 -22 -10 -67 -26 -100 -37 -36 -12
-45 -20 -24 -21 63 -3 15 -42 -52 -43 l-64 -1 70 -24 c39 -14 119 -23 178 -20
68 2 124 -7 150 -25 22 -16 33 -29 23 -29 -10 0 -2 -12 19 -27 114 -84 -173
-49 -373 45 -180 84 -228 94 -254 49 -19 -31 -22 -32 -22 -4 -1 41 -46 78 -99
82 -26 2 -54 29 -73 69 -41 87 -47 84 -43 -29 4 -97 95 -179 169 -150 14 5 25
-5 25 -23 0 -19 17 -32 40 -32 22 0 40 -9 40 -20 0 -11 18 -20 40 -20 22 0 40
-9 40 -20 0 -21 -25 -27 -85 -21 -19 2 -35 -10 -35 -25 0 -30 -82 -94 -118
-94 -11 0 -36 34 -55 75 -20 41 -60 115 -91 164 -63 100 -70 131 -26 114 46
-18 36 11 -28 78 -94 101 -104 195 -19 180 37 -6 130 -21 207 -33z m-2621 -23
c-18 -60 -49 -92 -49 -51 0 48 22 96 43 96 11 0 14 -20 6 -45z m164 -105 c-12
-38 -63 -20 -70 26 -6 42 -2 44 36 20 22 -14 38 -35 34 -46z m3655 11 c104
-45 124 -70 30 -37 -40 14 -68 14 -81 1 -13 -13 1 -24 41 -32 69 -13 96 -54
109 -166 13 -118 -15 -151 -61 -71 -20 35 -43 64 -51 64 -8 0 -15 9 -15 21 0
11 -18 40 -40 64 -22 23 -40 59 -40 79 0 20 -7 35 -15 34 -47 -8 -105 5 -105
23 0 20 69 55 113 58 13 0 65 -17 115 -38z m-2408 7 c0 -73 -133 -188 -207
-179 -48 6 -92 0 -110 -15 -24 -20 -243 -76 -243 -62 0 2 40 30 90 61 49 31
90 67 90 80 0 30 94 90 170 108 75 19 210 23 210 7z m-1521 -36 c16 -20 16
-33 2 -41 -28 -18 -61 4 -61 40 0 37 28 37 59 1z m154 -27 c41 -26 6 -127 -51
-152 -32 -14 -50 -36 -47 -55 4 -17 -6 -42 -21 -55 -24 -19 -27 -15 -19 27 9
44 3 50 -48 49 -48 0 -52 -3 -22 -21 38 -22 48 -108 14 -129 -37 -22 -47 9
-21 66 l25 54 -45 -39 c-25 -22 -38 -28 -30 -14 9 15 18 50 21 78 11 98 181
231 244 191z m1872 -53 c-6 -10 2 -14 18 -7 17 6 31 1 33 -12 1 -13 8 -48 16
-78 17 -75 -27 -73 -102 5 -51 53 -53 70 -6 63 8 -2 9 11 3 27 -13 35 -47 40
-47 7 0 -13 -5 -19 -10 -13 -32 32 15 70 59 49 26 -12 42 -31 36 -41z m-249 0
c46 50 66 32 52 -47 -7 -41 -19 -82 -27 -90 -16 -19 -222 18 -248 44 -12 12
-34 11 -58 -2 -31 -16 -38 -15 -31 6 14 40 178 59 218 25 43 -38 68 -35 29 3
-47 48 -43 106 4 64 30 -27 39 -27 61 -3z m496 -168 c-146 -177 -162 -216 -77
-195 30 8 59 20 65 28 5 7 27 23 49 34 63 35 65 76 4 65 -75 -15 -66 -1 24 35
60 24 85 51 118 125 31 67 39 77 30 34 -16 -80 -97 -263 -124 -279 -12 -8 -21
-32 -21 -54 0 -35 -10 -40 -60 -33 -56 8 -58 7 -29 -25 44 -48 6 -65 -64 -29
-31 16 -50 30 -41 30 9 0 10 11 1 24 -9 16 -27 -3 -50 -54 -36 -83 -35 -104 3
-80 13 8 18 27 12 42 -6 16 2 28 19 28 32 0 38 -54 11 -97 -10 -16 -33 -22
-56 -15 -67 22 -206 -188 -206 -313 0 -14 -7 -16 -19 -4 -26 26 -30 132 -12
294 13 111 11 135 -13 135 -30 0 -108 154 -88 175 7 6 12 -1 13 -17 0 -15 14
-3 30 27 54 99 84 54 73 -109 -3 -37 4 -52 21 -45 31 12 36 -94 6 -115 -14 -9
-8 -27 15 -50 34 -34 36 -34 47 11 9 33 23 43 49 37 57 -15 39 66 -27 122 -30
26 -51 54 -46 63 5 8 -8 50 -30 92 -51 102 -53 208 -3 204 57 -5 97 -55 43
-55 -64 0 -36 -49 32 -57 33 -4 64 -15 71 -26 6 -11 47 26 89 82 63 82 89 101
138 101 34 0 74 9 90 19 63 40 40 -2 -87 -155z m1427 97 c43 -27 16 -44 -85
-56 -101 -11 -150 26 -60 46 31 7 65 16 76 19 33 11 39 10 69 -9z m-3850 -66
c-19 -90 -27 -99 -60 -67 -51 51 -37 132 23 132 47 0 50 -5 37 -65z m2684 -5
c-7 -18 0 -30 18 -30 16 0 30 -16 32 -35 2 -19 4 -44 6 -55 6 -49 97 -210 118
-210 13 0 44 14 67 30 29 20 48 23 56 9 31 -50 173 -121 199 -100 14 12 41 16
58 9 36 -14 44 -59 14 -77 -11 -7 -14 -25 -8 -42 6 -16 1 -29 -11 -29 -12 0
-22 -18 -22 -40 0 -43 -221 -220 -275 -220 -20 0 -13 14 22 41 91 71 58 82
-54 19 -108 -61 -173 -63 -173 -7 0 16 9 24 20 17 11 -7 20 -2 20 10 0 12 9
17 19 11 11 -7 44 -5 75 3 54 15 53 16 -24 26 -44 6 -87 1 -95 -10 -8 -12 -15
-8 -15 10 0 19 -6 22 -15 8 -26 -38 -132 -56 -118 -20 6 17 3 36 -8 43 -36 22
84 187 127 174 9 -4 11 4 3 16 -10 16 -20 16 -35 1 -12 -12 -48 -22 -79 -22
-49 0 -56 -6 -45 -41 12 -38 8 -40 -60 -28 -79 15 -80 -25 -1 -90 17 -14 26
-34 20 -43 -6 -10 2 -18 19 -18 16 0 39 -16 50 -35 10 -19 22 -31 26 -27 3 5
40 -3 82 -17 58 -19 71 -31 54 -51 -15 -18 -13 -28 9 -37 43 -16 94 6 77 34
-8 13 0 12 19 -3 27 -22 46 -20 117 15 107 52 200 31 138 -31 -13 -13 -6 -21
19 -22 44 -4 36 47 -12 87 -23 18 -16 30 37 64 36 23 81 53 98 66 27 19 43 12
94 -45 34 -37 53 -71 43 -75 -27 -9 -23 -91 5 -119 13 -13 17 -24 9 -24 -8 0
-4 -19 8 -42 20 -37 18 -39 -17 -20 -31 16 -43 15 -51 -8 -6 -15 -45 -51 -87
-78 -42 -28 -120 -83 -173 -123 l-97 -72 14 86 c19 117 62 162 143 153 49 -6
67 1 74 28 5 20 -1 36 -13 36 -13 0 -3 14 22 31 24 17 51 27 60 21 9 -5 29 -1
45 9 25 16 25 18 0 19 -23 0 -24 5 -5 24 13 13 24 38 24 55 -1 22 -13 16 -40
-19 -22 -27 -39 -39 -40 -26 0 14 -13 20 -30 13 -16 -6 -25 -18 -20 -27 15
-24 -42 -40 -147 -42 -51 -2 -77 -7 -58 -12 20 -5 30 -19 22 -33 -8 -15 -4
-15 14 2 15 14 41 25 58 24 77 -2 -212 -122 -403 -168 -121 -29 -148 -24 -110
22 76 91 75 91 126 58 25 -17 58 -31 72 -31 18 1 17 6 -4 20 -23 15 -15 19 34
20 35 0 68 7 73 15 5 8 -32 12 -83 8 -87 -7 -91 -6 -63 28 18 23 19 31 4 22
-14 -9 -108 -18 -209 -20 -130 -4 -186 -13 -192 -31 -7 -22 -12 -21 -26 1 -14
21 -17 20 -18 -7 0 -18 9 -39 20 -46 34 -21 1 -52 -34 -33 -18 10 -51 13 -74
7 -36 -9 -38 -7 -16 20 21 26 20 37 -7 64 -52 52 -96 41 -80 -21 10 -42 7 -50
-18 -40 -17 6 -31 2 -31 -10 0 -14 -10 -13 -30 3 -44 37 -37 94 15 107 82 22
170 14 182 -17 7 -16 23 -30 37 -30 19 1 18 5 -2 19 -22 13 -14 19 30 25 l58
7 -64 34 c-73 40 -94 44 -76 15 7 -12 -15 -20 -54 -20 -36 0 -86 -6 -111 -13
-33 -8 -45 -3 -45 21 0 17 14 32 30 32 17 0 30 11 30 25 1 18 5 18 15 3 26
-39 113 -58 99 -22 -11 28 -2 28 82 3 52 -16 123 -29 158 -29 35 0 69 -9 76
-20 15 -24 190 -27 190 -3 0 9 -11 17 -25 17 -201 7 -569 102 -560 145 3 12 7
45 10 72 4 54 5 54 183 -13 140 -52 192 -2 71 67 -34 19 -56 44 -49 55 7 11 3
20 -8 20 -11 0 -26 -10 -33 -22 -10 -16 -19 -14 -30 4 -23 37 -4 58 52 58 36
0 49 -11 49 -40 0 -22 8 -40 19 -40 11 0 11 25 0 65 -23 79 -23 75 1 75 11 0
21 -16 22 -35 0 -19 5 -25 11 -12 5 12 24 19 43 15 61 -15 96 23 57 62 -56 56
-10 116 49 63 22 -19 22 -17 0 12 -34 45 82 355 133 355 5 0 4 -13 -2 -30z
m1619 -154 c31 -130 25 -156 -32 -156 -32 0 -38 19 -43 150 -11 240 20 242 75
6z m-2595 122 c83 -29 78 -178 -6 -178 -62 0 -211 80 -211 112 0 31 -3 31 -35
4 -37 -32 -160 -2 -151 37 10 45 295 63 403 25z m-1349 -10 c44 -17 40 -33
-25 -108 -85 -97 -147 -31 -72 76 33 47 47 51 97 32z m176 -153 c6 -30 3 -55
-5 -55 -9 0 -30 -14 -48 -31 -28 -29 -31 -24 -31 55 0 47 -6 109 -13 136 l-13
50 50 -50 c28 -27 55 -75 60 -105z m616 85 c22 -22 49 -40 60 -40 32 0 23 -63
-14 -104 -24 -27 -27 -43 -11 -59 25 -25 67 7 90 68 8 19 25 34 39 33 20 -1
21 -3 1 -11 -14 -6 -25 -27 -25 -47 0 -19 -12 -40 -27 -46 -15 -6 -42 -43 -61
-82 -29 -62 -43 -72 -103 -72 -78 0 -92 28 -24 50 l45 15 -45 9 c-62 12 -57
42 8 50 113 13 71 52 -53 49 -130 -3 -159 16 -160 100 0 49 108 98 167 75 25
-9 30 -4 21 20 -18 46 43 41 92 -8z m2065 -85 c13 -126 8 -135 -63 -135 -97 0
-121 82 -50 168 80 96 101 90 113 -33z m-3196 34 c39 -40 40 -89 3 -89 -16 0
-43 -6 -61 -12 -22 -9 -28 -4 -20 17 6 17 -2 35 -20 42 -40 15 -17 73 30 73
20 0 50 -14 68 -31z m688 -1 c15 -12 -19 -148 -37 -148 -25 0 -34 20 -51 107
-13 73 30 93 88 41z m2794 -31 c18 -34 36 -90 40 -125 4 -34 13 -116 20 -182
8 -66 13 -144 11 -174 -1 -30 12 -90 29 -133 18 -44 29 -109 24 -146 l-7 -67
-22 51 c-12 28 -36 63 -54 77 -18 15 -32 42 -32 59 0 18 -33 128 -72 243 -40
116 -74 228 -76 250 -3 22 -11 61 -20 86 -34 102 110 158 159 61z m-3186 -69
c20 -19 -7 -68 -37 -68 -15 0 -29 11 -30 25 -1 20 -3 20 -11 0 -6 -14 -18 -20
-28 -14 -31 19 4 69 50 69 24 0 50 -5 56 -12z m1526 -33 c8 -25 31 -61 51 -80
31 -30 35 -57 26 -190 -6 -85 -13 -189 -15 -230 -1 -41 -9 -75 -16 -75 -7 0
-18 -22 -25 -50 -7 -27 -22 -50 -34 -50 -11 0 -16 -7 -11 -16 15 -23 -55 -220
-113 -322 -54 -94 -154 -137 -154 -66 1 27 4 28 18 7 30 -48 58 32 41 121 -18
97 -3 173 26 133 14 -21 16 -19 8 6 -6 19 7 79 28 136 22 56 39 124 39 152 0
28 14 78 31 111 23 44 26 68 10 86 -25 31 -10 247 19 282 12 14 15 40 8 57 -8
22 -2 33 19 33 16 0 37 -20 44 -45z m-1721 -35 c0 -18 -15 -27 -37 -24 -21 4
-32 -2 -25 -13 22 -35 -28 -48 -89 -22 -61 25 -78 68 -34 86 54 23 185 4 185
-27z m1579 -45 c-8 -46 -26 -102 -40 -125 -14 -22 -32 -80 -40 -130 -8 -49
-23 -112 -35 -140 -22 -53 -32 -119 -39 -255 -3 -52 -15 -85 -30 -85 -14 0
-26 -20 -27 -45 -1 -25 -5 -67 -10 -95 -13 -76 -13 -83 3 -185 10 -66 8 -95
-8 -95 -13 0 -23 18 -23 40 0 22 -10 40 -22 40 -13 0 -16 -14 -8 -35 39 -95
38 -111 -7 -87 -49 27 -51 22 -20 -46 18 -40 17 -60 -6 -96 -24 -38 -25 -58
-4 -116 14 -38 24 -92 23 -120 l-1 -50 -10 48 c-5 27 -23 63 -41 80 -29 29
-31 29 -19 -2 7 -19 5 -40 -5 -46 -11 -7 -10 -32 2 -64 14 -39 13 -57 -6 -69
-14 -8 -26 -23 -26 -31 -1 -48 -59 -144 -101 -167 -27 -14 -49 -35 -49 -47 -1
-29 -140 131 -140 161 0 33 124 296 144 304 9 3 16 41 16 83 0 43 10 84 21 91
12 7 17 26 11 41 -6 15 -4 26 4 25 41 -9 84 32 83 80 l-1 53 -29 -55 c-64
-117 -112 -60 -52 61 21 41 49 110 62 154 14 44 56 143 93 220 76 157 82 190
36 190 -23 0 -28 11 -19 35 8 19 19 60 25 90 6 30 19 49 29 43 10 -6 12 -19 6
-29 -6 -11 14 -19 45 -19 31 0 47 7 36 15 -30 23 -34 66 -8 97 18 22 16 28 -9
28 -17 0 -41 -16 -53 -35 -18 -30 -20 -28 -16 15 6 47 17 54 156 94 26 7 26
11 -2 27 -18 10 -44 45 -58 79 -14 33 -33 60 -44 60 -10 0 -12 11 -3 25 11 20
8 20 -15 1 -17 -14 -40 -17 -57 -7 -15 10 -39 13 -54 7 -15 -6 -27 2 -27 17 0
20 28 25 115 21 63 -4 138 2 165 13 94 38 105 30 89 -62z m2020 -185 c7 -99
18 -209 24 -245 15 -87 -12 -342 -33 -304 -17 33 -80 535 -80 645 0 60 35 101
73 85 2 0 9 -82 16 -181z m671 171 c0 -10 -16 -28 -35 -39 -33 -20 -33 -21 0
-21 19 -1 35 -10 35 -21 0 -18 -12 -22 -85 -28 -29 -2 -34 66 -8 103 21 29 93
34 93 6z m159 -193 c45 -38 57 -59 42 -77 -11 -14 -16 -29 -10 -35 5 -6 -4
-22 -21 -36 -38 -32 -39 -80 -1 -80 18 0 25 12 18 30 -17 44 53 64 83 24 13
-19 30 -28 37 -20 7 7 13 -7 13 -32 0 -33 -9 -42 -35 -34 -19 6 -48 2 -65 -10
-24 -17 -22 -19 10 -10 22 6 51 4 65 -5 15 -9 -28 -25 -110 -41 -74 -13 -178
-33 -231 -43 -128 -25 -154 -23 -94 7 27 13 69 61 94 104 28 51 62 84 94 90
51 10 51 10 -19 55 -67 44 -69 44 -69 5 0 -79 -94 -52 -104 30 -8 73 17 91
164 116 28 5 56 10 63 11 8 2 42 -21 76 -49z m-3592 -123 c5 -9 -7 -56 -26
-105 -20 -50 -62 -168 -92 -264 -78 -245 -144 -319 -91 -102 85 344 170 534
209 471z m-170 -153 c-9 -60 -35 -150 -56 -201 -22 -50 -40 -98 -41 -106 -3
-32 -43 -178 -61 -220 -10 -25 -27 -65 -38 -90 -77 -186 -86 -199 -117 -167
-80 79 36 630 133 631 15 1 32 20 38 42 6 24 22 37 37 31 16 -6 22 1 15 19 -6
16 -3 29 7 29 10 0 29 32 43 70 38 105 59 84 40 -38z m3503 66 c0 -9 15 -11
32 -4 28 10 29 6 10 -30 -36 -68 -54 -67 -77 5 -17 56 -15 66 7 57 16 -6 28
-18 28 -28z m-420 -180 c24 -138 20 -196 -33 -537 -22 -147 -46 -4 -47 282 0
431 33 537 80 255z m715 -58 c5 -67 4 -68 -26 -30 -70 87 -76 114 -26 107 38
-6 48 -21 52 -77z m92 50 c16 -16 35 -65 43 -110 8 -48 24 -80 41 -80 36 0 65
-105 32 -116 -13 -4 -23 -25 -23 -46 0 -56 -37 -46 -63 17 -13 30 -36 86 -52
123 -18 40 -25 99 -19 144 6 47 1 80 -13 85 -17 7 -17 10 1 11 13 1 36 -11 53
-28z m-2136 -9 c-7 -10 4 -28 24 -39 28 -17 20 -21 -43 -21 -43 -1 -73 5 -66
12 8 7 4 25 -9 40 -17 22 -9 27 42 27 35 0 58 -8 52 -19z m1869 -7 c0 -61 -50
-101 -80 -64 -25 30 -24 38 10 62 47 35 70 36 70 2z m457 -72 c32 -63 35 -81
13 -89 -35 -14 -90 70 -90 137 0 67 25 51 77 -48z m-1460 -102 c-10 -71 -17
-218 -17 -325 1 -122 -6 -195 -19 -195 -12 0 -21 9 -21 20 0 56 -37 10 -48
-60 -10 -63 -21 -80 -54 -80 -58 0 -37 -45 29 -62 58 -16 60 -14 82 87 15 71
40 70 70 -4 31 -74 12 -137 -45 -145 -30 -4 -47 -24 -54 -62 -11 -60 -100 -28
-100 37 0 15 -27 78 -60 139 -33 61 -60 121 -60 133 0 12 -18 38 -41 58 -177
153 36 489 241 379 24 -13 42 -13 49 -1 19 30 -58 61 -152 61 -102 0 -91 16
77 111 140 80 146 75 123 -91z m853 65 c-17 -126 -26 -150 -50 -135 -22 14
-28 195 -7 217 45 44 69 9 57 -82z m286 -100 c13 -78 13 -119 -1 -128 -11 -7
-14 -23 -6 -35 7 -12 1 -22 -13 -22 -33 0 -103 257 -85 306 26 68 84 1 105
-121z m-2469 100 c127 -70 181 -141 88 -115 -39 10 -40 9 -10 -10 19 -12 33
-42 32 -66 -1 -24 4 -60 12 -79 30 -69 -20 -32 -76 57 -32 49 -62 85 -68 79
-6 -5 13 -46 42 -90 63 -96 67 -134 13 -151 -22 -7 -41 -23 -42 -36 -2 -13 -4
-37 -5 -54 -2 -16 -32 -39 -68 -49 -36 -11 -65 -30 -65 -44 0 -47 -158 -83
-245 -55 -37 11 -51 136 -17 157 10 6 23 33 30 61 24 95 254 430 296 430 11 0
48 -16 83 -35z m463 14 c-7 -10 -77 -19 -156 -19 -79 0 -133 7 -120 16 36 23
290 26 276 3z m330 -85 c0 -11 14 -8 30 6 26 22 31 2 34 -163 7 -309 9 -326
33 -371 62 -117 -9 -282 -113 -262 -58 11 -57 143 2 181 37 25 46 45 39 92
-11 73 -64 101 -79 43 -17 -66 -46 -45 -48 35 -1 41 -8 156 -16 255 -13 166
-11 183 27 221 41 42 91 21 91 -37z m-456 -14 c27 0 37 -10 29 -29 -6 -17 -4
-34 6 -40 9 -6 10 -41 2 -78 -9 -38 -7 -83 4 -102 18 -33 8 -266 -17 -396 -13
-63 -48 -55 -48 11 0 43 0 43 -32 -3 -47 -67 -46 -235 1 -270 21 -15 31 -37
23 -50 -23 -37 -52 -27 -52 18 0 59 -55 71 -106 23 -49 -46 -154 -92 -154 -67
0 8 36 42 79 74 81 60 169 230 127 244 -20 6 -15 157 7 225 5 16 13 124 17
240 4 115 8 213 9 217 0 4 15 2 33 -5 17 -7 49 -12 72 -12z m116 -19 c0 -11
25 -15 56 -9 82 17 111 -30 106 -169 -2 -66 10 -147 28 -189 35 -85 39 -177 8
-208 -16 -16 -16 -33 0 -63 64 -118 -76 -395 -149 -295 -44 60 -80 313 -48
333 45 28 56 23 44 -23 -9 -35 -3 -40 46 -35 89 11 78 46 -31 95 -107 48 -128
97 -69 156 17 17 25 36 19 43 -7 6 -20 -1 -30 -16 -10 -17 -16 57 -14 185 2
117 11 214 19 214 8 0 15 -9 15 -19z m1468 -96 c21 -197 18 -270 -14 -425 -17
-82 -42 -238 -55 -345 -13 -108 -31 -200 -40 -205 -35 -22 -40 158 -11 392 16
136 36 325 42 418 21 303 56 376 78 165z m-2443 -368 c-18 -18 -11 -38 27 -83
43 -51 48 -72 37 -142 -16 -95 -46 -123 -82 -76 -19 25 -26 27 -26 7 -2 -61
-56 20 -69 102 -8 47 -19 108 -25 135 l-10 50 41 -50 c23 -27 41 -38 42 -24 0
15 10 20 21 13 12 -7 20 -1 18 14 -7 52 1 77 25 77 18 0 18 -6 1 -23z m511
-58 c24 -22 44 -53 44 -69 0 -55 47 -130 81 -130 31 0 33 -8 13 -59 -25 -67
-84 -90 -144 -55 -212 122 -335 220 -250 200 28 -6 62 -21 77 -33 20 -15 25
-13 21 8 -29 142 66 224 158 138z m2058 -154 c9 -120 -30 -315 -80 -400 -44
-76 -100 -89 -85 -20 11 54 31 210 43 327 11 111 42 194 68 178 11 -7 20 -1
20 12 0 65 28 -14 34 -97z m-934 -93 c0 -39 0 -39 -29 -1 -17 22 -30 57 -30
79 0 39 1 39 30 1 16 -21 29 -57 29 -79z m-1426 9 c-9 -60 -28 -69 -52 -25
-22 42 -11 64 31 64 15 0 24 -17 21 -39z m726 -182 c0 -51 -5 -58 -34 -42 -47
26 -49 103 -3 103 28 0 37 -15 37 -61z m-95 -89 c58 -24 40 -43 -35 -37 -38 3
-70 -3 -70 -14 0 -11 -20 -8 -45 6 -25 14 -48 27 -52 29 -68 35 118 51 202 16z
m-133 -220 c82 -34 82 -73 0 -82 -61 -6 -179 49 -187 88 -7 34 101 30 187 -6z
m-170 -61 c27 -10 111 -126 94 -131 -218 -59 -494 -37 -434 35 32 38 206 86
262 72 43 -11 44 -9 16 25 -27 32 -27 35 0 23 17 -7 44 -18 62 -24z m1288
-150 c-6 -19 -2 -41 9 -48 68 -42 -38 -187 -149 -205 -47 -8 -70 -3 -70 13 0
13 -10 17 -21 10 -14 -8 -8 -22 14 -39 30 -22 -2 -26 -199 -26 -129 0 -234 7
-234 16 0 44 128 123 179 110 107 -27 192 -34 161 -12 -49 34 4 70 120 82 21
2 22 6 5 13 -71 29 -23 72 65 60 102 -14 108 -5 46 61 l-43 47 64 -23 c49 -17
62 -31 53 -59z m-716 -140 c-115 -56 -192 -78 -204 -59 -15 25 43 53 145 69
47 8 80 23 74 33 -6 9 4 12 22 5 27 -10 19 -21 -37 -48z"/>
<path d="M2815 4702 c-41 -20 -69 -41 -62 -49 8 -7 7 -13 -1 -13 -8 0 -28 14
-45 30 -33 33 -107 41 -107 11 0 -10 9 -24 20 -31 42 -26 17 -68 -55 -89 -41
-13 -109 -33 -150 -45 -97 -29 -88 -35 81 -53 135 -14 143 -13 166 31 14 25
43 47 66 48 23 0 58 4 77 8 19 3 40 -2 47 -13 7 -11 24 -9 43 7 27 22 29 19
17 -24 -9 -32 -8 -40 3 -24 10 14 32 20 48 14 16 -6 46 7 66 29 21 23 49 41
64 41 15 0 27 9 27 20 0 27 -88 25 -183 -3 -98 -30 -113 -15 -48 50 92 93 59
117 -74 55z"/>
<path d="M2241 4581 c-16 -10 -13 -23 11 -43 27 -22 36 -22 43 -3 5 15 42 25
90 25 45 0 78 3 73 7 -18 16 -196 27 -217 14z"/>
<path d="M3046 4230 c-125 -31 -142 -58 -59 -97 90 -43 138 -42 68 2 -30 19
-55 42 -55 52 0 24 147 -6 165 -34 10 -16 14 -13 14 7 -1 69 -44 92 -133 70z"/>
<path d="M2900 4103 c0 -106 169 -155 251 -74 46 46 69 106 32 83 -46 -29
-243 -45 -243 -20 0 14 -9 31 -20 38 -11 7 -20 -6 -20 -27z"/>
<path d="M3609 4019 c-11 -19 140 -99 186 -99 22 0 21 6 -3 31 -18 17 -41 26
-52 19 -11 -7 -20 -5 -20 4 0 25 -99 65 -111 45z"/>
<path d="M2709 3641 c27 -52 38 -58 71 -41 81 43 60 86 -46 97 l-57 6 32 -62z"/>
<path d="M2834 3588 c-6 -7 -7 -24 -1 -38 5 -14 0 -32 -12 -39 -27 -17 -28
-51 -1 -51 11 0 20 14 20 30 0 17 9 30 20 30 24 0 27 54 3 68 -10 6 -23 6 -29
0z"/>
<path d="M3360 3384 c0 -9 9 -25 21 -37 14 -14 11 -29 -10 -46 -45 -38 -38
-61 19 -61 31 0 50 11 50 30 0 17 9 30 20 30 11 0 20 -28 20 -61 0 -55 -5 -60
-45 -47 -25 8 -63 16 -85 16 -22 1 -47 11 -55 22 -8 11 -15 0 -15 -25 0 -27
12 -45 30 -45 17 0 30 9 30 20 0 11 10 20 21 20 12 0 16 -9 9 -20 -7 -11 1
-14 20 -7 20 8 30 2 26 -15 -3 -15 14 -30 39 -34 25 -4 45 3 45 15 0 11 14 21
30 21 17 0 30 -14 30 -32 0 -33 124 27 170 83 12 13 39 29 60 34 29 8 23 11
-20 14 l-60 3 60 27 60 28 -55 1 c-33 1 -55 13 -55 30 0 15 -18 32 -40 38 -26
7 -40 0 -40 -18 0 -15 14 -28 30 -28 41 0 38 -34 -8 -92 -32 -41 -41 -44 -62
-18 -14 17 -32 30 -40 30 -8 0 -48 32 -89 70 -72 68 -111 87 -111 54z"/>
<path d="M2826 3050 c-29 -31 178 -83 394 -100 167 -13 79 23 -125 51 -74 10
-160 31 -190 46 -45 23 -59 24 -79 3z"/>
<path d="M3791 3022 c-14 -23 8 -82 30 -82 29 0 40 36 14 47 -19 7 -18 15 5
31 26 19 26 21 -4 22 -18 0 -39 -8 -45 -18z"/>
<path d="M3700 2700 c-27 -22 -43 -39 -34 -40 22 0 134 59 134 71 0 22 -54 5
-100 -31z"/>
<path d="M1972 2608 c-20 -53 -13 -103 17 -115 42 -16 75 36 60 95 -15 58 -58
69 -77 20z"/>
<path d="M1864 2116 c-35 -35 -29 -110 10 -125 56 -21 91 31 61 95 -28 60 -37
64 -71 30z"/>
<path d="M1743 1688 c-21 -45 -20 -60 4 -84 48 -48 97 -15 89 61 -8 83 -60 96
-93 23z"/>
<path d="M1271 2730 c-17 -41 -31 -85 -31 -98 0 -13 -8 -33 -17 -43 -19 -21
-49 -129 -36 -129 16 0 138 322 127 333 -7 6 -26 -22 -43 -63z"/>
<path d="M2600 2598 c67 -31 152 -42 126 -16 -11 11 -55 24 -98 29 -71 9 -74
8 -28 -13z"/>
<path d="M3052 5376 c14 -22 128 -20 128 2 0 10 -31 17 -69 16 -38 -1 -64 -9
-59 -18z"/>
</g>
</svg>
