<?xml version="1.0" standalone="no"?>
<!DOCTYPE svg PUBLIC "-//W3C//DTD SVG 20010904//EN"
 "http://www.w3.org/TR/2001/REC-SVG-20010904/DTD/svg10.dtd">
<svg version="1.0" xmlns="http://www.w3.org/2000/svg"
 width="300.000000pt" height="280.000000pt" viewBox="0 0 300.000000 280.000000"
 preserveAspectRatio="xMidYMid meet">
<metadata>
Created by potrace 1.10, written by Peter Selinger 2001-2011
</metadata>
<g transform="translate(0.000000,280.000000) scale(0.050000,-0.050000)"
fill="#000000" stroke="none">
<path d="M30 5504 c7 -30 27 -70 45 -89 17 -19 23 -35 14 -35 -10 0 22 -40 69
-88 47 -48 87 -96 87 -105 3 -44 57 -143 84 -154 17 -6 31 -23 31 -37 0 -15
27 -52 60 -83 33 -31 60 -66 60 -79 0 -25 298 -314 325 -314 9 0 12 -9 5 -20
-7 -11 31 -39 84 -63 53 -23 84 -46 70 -51 -39 -15 74 -111 130 -111 26 0 56
-17 67 -37 11 -21 66 -64 122 -96 90 -51 97 -60 64 -79 -34 -20 -34 -22 -2
-22 19 -1 77 -27 130 -59 52 -32 133 -64 180 -72 47 -7 85 -22 85 -32 0 -10
17 -18 39 -18 41 0 62 -51 39 -100 -34 -75 -67 -240 -69 -349 l-3 -119 -124
-111 c-573 -510 -717 -745 -586 -953 132 -209 317 -174 807 151 316 210 435
268 362 175 -50 -62 -109 -295 -118 -464 -15 -285 -19 -300 -137 -432 -87 -98
-110 -139 -121 -214 -18 -130 -78 -323 -136 -437 -39 -78 -46 -117 -38 -199 8
-91 5 -103 -33 -113 -88 -23 -8 -235 89 -235 14 0 29 -7 32 -16 19 -44 136
-98 217 -101 50 -2 138 -7 197 -11 137 -10 213 22 313 134 75 83 90 90 230
113 83 13 203 38 267 54 89 22 229 28 570 26 249 -2 507 3 573 10 108 13 226
2 628 -62 38 -6 140 -37 227 -69 268 -99 612 -75 678 47 49 92 -41 271 -124
245 -27 -9 -39 -3 -39 17 0 43 -128 147 -201 163 -85 19 -403 342 -469 479
-98 201 -94 223 54 290 122 55 182 109 313 280 66 87 77 144 59 323 -12 130
-9 172 21 243 31 75 33 109 14 295 -28 284 -19 336 69 382 39 20 81 46 94 57
32 28 194 -32 294 -109 90 -69 110 -54 54 38 -41 65 -178 152 -243 152 -24 1
-24 4 1 20 86 56 344 1 369 -78 23 -71 51 -47 51 43 0 149 -96 255 -230 255
-33 0 -49 13 -54 44 -25 178 -552 274 -821 151 -126 -58 -146 -46 -101 61 15
36 22 74 16 84 -7 11 3 41 21 69 18 27 27 58 21 68 -7 11 -2 45 10 76 29 73
39 244 16 258 -10 6 -18 29 -18 49 0 42 -115 172 -135 152 -6 -7 -50 11 -97
38 -91 53 -118 62 -98 31 6 -11 -27 3 -74 30 -92 52 -126 61 -106 29 16 -26
-3 -25 -56 3 -24 13 -71 26 -104 29 -166 15 -290 27 -390 40 -60 8 -137 17
-170 21 -33 3 -100 11 -150 16 -222 23 -261 29 -300 41 -23 7 -84 17 -136 22
-52 5 -121 13 -154 18 -33 5 -132 14 -220 20 -197 13 -261 22 -292 41 -14 9
-183 17 -376 19 -286 2 -364 9 -416 36 -35 19 -84 33 -110 32 -25 -1 -95 8
-156 20 -67 14 -112 16 -116 4 -4 -12 -27 -12 -60 -1 -30 9 -108 21 -174 27
-105 8 -154 20 -290 69 -16 6 -39 11 -50 12 -11 1 -42 17 -68 36 -27 18 -55
29 -62 25 -8 -5 -111 40 -229 100 -215 109 -215 109 -201 54z m423 -356 c60
-29 105 -57 100 -62 -12 -12 -233 86 -233 103 0 19 18 13 133 -41z m843 -58
c160 -9 274 -49 225 -79 -12 -8 -50 7 -86 32 -36 25 -54 31 -40 14 24 -30 15
-57 -20 -57 -9 0 -12 9 -5 20 7 12 -14 20 -54 19 -90 -2 -138 7 -190 36 -24
14 -56 20 -73 14 -16 -7 -35 -2 -42 9 -9 14 10 18 53 12 36 -6 141 -14 232
-20z m-688 -70 c29 -29 -5 -25 -114 12 -52 17 -94 39 -94 48 0 20 181 -33 208
-60z m248 -32 c43 -17 62 -36 52 -51 -10 -16 -1 -20 29 -12 24 6 39 4 33 -5
-18 -28 108 -118 186 -132 41 -8 83 -26 94 -40 11 -14 74 -46 140 -71 114 -43
129 -48 165 -55 8 -1 2 -11 -15 -22 -23 -15 -18 -19 25 -20 30 0 55 -9 55 -20
0 -11 -32 -20 -72 -20 -58 0 -70 6 -60 32 10 25 3 30 -27 22 -24 -6 -61 8 -95
38 -31 26 -71 48 -89 48 -17 0 -43 14 -57 30 -14 17 -73 44 -132 62 -59 17
-112 39 -119 49 -6 11 -27 19 -46 19 -19 0 -79 46 -134 103 -105 108 -98 113
67 45z m-242 -6 c60 -3 237 -176 190 -187 -24 -6 -13 -17 36 -39 59 -26 64
-34 34 -46 -21 -9 -63 -2 -100 16 -35 16 -86 40 -114 51 l-50 20 60 3 c57 2
55 4 -30 37 -64 24 -90 45 -90 73 0 24 -16 42 -40 47 -68 12 -71 33 -4 30 35
-2 84 -5 108 -5z m1516 -2 c-4 -6 44 -10 107 -9 62 1 142 -10 177 -25 77 -31
92 -33 76 -6 -15 25 -6 25 55 2 27 -10 61 -11 76 -2 15 10 36 12 48 5 22 -14
80 -25 136 -27 19 0 35 -8 35 -17 0 -9 14 -22 31 -29 17 -6 26 -4 20 6 -5 9
26 16 69 15 44 -1 80 -9 80 -18 0 -8 14 -15 31 -15 17 0 26 9 19 20 -7 11 -3
20 9 20 11 0 21 -11 21 -25 0 -14 18 -37 40 -50 47 -30 53 -65 10 -65 -16 0
-30 9 -30 19 0 10 -36 17 -80 14 -44 -2 -80 3 -80 11 0 9 -34 16 -75 17 -130
1 -280 45 -271 79 6 20 1 19 -14 -5 -24 -38 -100 -49 -100 -14 0 14 -12 14
-39 0 -48 -26 -67 -27 -52 -2 7 11 -16 14 -56 8 -40 -7 -74 -2 -82 11 -7 12
-2 22 11 22 14 0 19 6 12 13 -7 7 -26 2 -42 -11 -22 -19 -49 -19 -106 -3 -42
11 -116 21 -165 21 -82 0 -86 2 -50 29 35 27 194 36 179 11z m-615 -94 c117
-6 180 -17 173 -30 -7 -11 -39 -15 -71 -8 -37 7 -54 4 -47 -8 7 -11 46 -20 86
-20 41 0 88 -9 104 -20 23 -15 14 -19 -36 -20 -110 0 -51 -40 62 -41 109 -2
232 -35 140 -38 -25 0 -54 -19 -66 -40 -13 -25 -33 -35 -55 -28 -30 9 -30 7
-5 -11 17 -11 48 -16 70 -11 40 11 40 11 0 -22 -38 -33 -37 -33 36 -22 59 8
85 2 115 -28 25 -25 30 -40 14 -41 -14 -2 2 -10 35 -18 l60 -15 -71 -3 c-39
-1 -89 11 -110 27 -73 55 -82 3 -13 -68 25 -24 24 -32 -4 -52 -18 -13 -32 -28
-32 -34 0 -15 156 -95 184 -95 13 0 38 -14 57 -31 20 -18 72 -30 131 -31 169
0 326 -58 233 -85 -21 -6 -16 -9 13 -7 64 5 75 -33 18 -63 -32 -17 -34 -20 -6
-11 61 21 119 20 126 -2 12 -37 -134 -58 -172 -25 -46 41 -124 63 -124 36 0
-11 19 -21 41 -21 23 0 36 -9 29 -20 -7 -11 6 -20 29 -20 22 0 41 -9 41 -20 0
-11 19 -20 41 -20 23 0 36 -9 29 -20 -7 -11 -45 -20 -85 -20 -39 0 -66 6 -59
13 22 21 -27 67 -71 67 -27 0 -36 10 -28 30 9 22 -2 30 -39 30 -28 0 -45 9
-38 20 7 11 0 20 -15 20 -15 0 -48 23 -73 52 -25 28 -51 45 -58 37 -8 -8 -4
-18 9 -23 12 -4 18 -27 12 -50 -9 -34 -4 -40 22 -30 18 7 33 3 33 -9 0 -14
-24 -17 -65 -9 -36 7 -81 13 -100 14 -19 0 -35 9 -35 19 0 11 -24 19 -54 19
-72 0 -38 27 74 60 l90 26 -63 26 c-35 15 -70 36 -77 47 -7 12 -30 21 -52 21
-22 0 -44 14 -51 30 -6 17 -29 30 -50 30 -22 0 -34 9 -27 20 7 11 -7 20 -30
20 -23 0 -37 9 -30 20 7 11 -6 20 -29 20 -22 0 -41 9 -41 20 0 11 -12 20 -27
20 -15 0 -43 18 -63 40 -35 39 -35 40 24 40 34 0 75 -17 96 -40 39 -43 102
-51 150 -20 23 15 15 19 -34 20 -79 0 -104 34 -42 59 l46 18 -45 2 c-53 1 -61
40 -10 44 19 2 -5 8 -55 15 -57 8 -88 21 -85 37 3 16 -21 25 -71 25 -42 0 -94
13 -115 29 -22 17 -55 30 -75 30 -20 1 -31 10 -24 21 7 11 -1 20 -17 20 -16 0
-33 9 -36 19 -4 11 -40 24 -81 29 -116 14 -139 40 -46 52 128 16 189 17 385 6z
m526 -74 c37 -41 96 -77 150 -92 49 -14 89 -31 89 -38 0 -24 -199 2 -222 30
-12 15 -44 28 -70 28 -27 0 -66 18 -88 40 -22 22 -69 53 -105 68 l-65 29 125
1 c116 2 128 -2 186 -66z m1193 16 c23 -50 22 -51 -19 -23 -51 34 -69 75 -32
75 15 0 38 -24 51 -52z m226 -29 c0 -13 -16 -12 -42 2 -30 16 -39 16 -29 1 17
-29 10 -28 -77 8 -83 35 -95 59 -22 45 28 -5 50 -1 50 8 0 10 27 4 60 -13 33
-17 60 -40 60 -51z m106 37 c19 1 79 -20 133 -47 53 -27 109 -50 124 -50 15
-1 9 -10 -13 -19 -50 -22 4 -24 59 -2 40 16 14 37 -67 54 -15 3 -36 14 -46 24
-27 27 191 8 313 -28 54 -15 122 -28 151 -28 29 0 69 -12 90 -28 21 -15 50
-23 64 -18 15 6 40 -1 56 -14 16 -13 43 -19 60 -13 16 7 30 5 30 -3 0 -36 116
-147 126 -121 6 15 12 0 13 -33 1 -42 7 -52 19 -33 9 15 21 20 27 10 14 -27
12 -267 -3 -267 -16 0 -93 -125 -87 -143 2 -7 -28 -37 -66 -66 -38 -30 -64
-63 -56 -75 8 -13 4 -16 -9 -8 -13 7 -60 -23 -106 -68 -49 -47 -68 -76 -46
-69 31 11 33 9 8 -9 -16 -11 -47 -16 -68 -9 -24 7 -32 4 -23 -11 8 -13 -8 -30
-37 -41 -28 -11 -56 -41 -63 -69 -7 -27 -25 -54 -41 -60 -15 -6 -28 -25 -28
-41 0 -17 -9 -31 -20 -31 -11 0 -20 15 -20 33 0 54 -22 17 -27 -46 -3 -31 -16
-55 -29 -52 -35 7 -29 -29 6 -42 35 -14 39 -89 8 -133 -17 -24 -20 -21 -12 15
6 25 2 50 -8 56 -10 6 -18 1 -18 -11 0 -12 -7 -18 -15 -13 -23 14 -13 -210 12
-273 13 -31 23 -63 23 -71 0 -8 19 -31 43 -51 36 -31 41 -32 31 -4 -7 17 -5
32 5 32 10 0 24 -18 31 -39 6 -21 43 -58 81 -82 141 -86 60 -147 -92 -69 -63
33 -101 8 -90 -61 3 -21 -4 -51 -15 -65 -16 -20 -7 -39 33 -76 29 -27 53 -41
53 -30 0 11 -9 25 -19 31 -41 26 4 75 60 67 43 -7 62 2 81 37 18 34 31 41 50
26 18 -15 30 -12 42 10 23 40 146 4 146 -42 0 -16 9 -24 20 -17 11 7 20 -7 20
-30 0 -23 8 -38 17 -32 9 6 30 -14 45 -44 41 -79 98 -139 98 -103 1 48 78 -64
101 -146 11 -41 31 -72 44 -70 32 7 32 -50 0 -75 -15 -12 -29 -43 -33 -70 -27
-232 -110 -340 -112 -146 0 49 -49 106 -91 106 -16 0 -29 -11 -29 -25 0 -49
-70 -74 -73 -27 -2 23 -8 69 -13 102 -5 33 -1 76 9 95 14 26 11 35 -12 35 -31
0 -39 20 -32 86 9 81 -89 125 -140 63 -21 -26 -16 -61 30 -207 48 -150 53
-185 34 -244 -21 -64 -20 -91 8 -223 18 -84 40 -81 40 6 0 43 12 89 27 103 20
19 24 19 14 2 -7 -14 0 -52 17 -84 38 -74 38 -82 1 -82 -43 0 -37 -73 9 -105
22 -15 47 -46 55 -69 9 -22 75 -106 146 -186 214 -238 220 -245 220 -263 0 -9
19 -17 42 -17 39 0 38 5 -20 71 -34 39 -62 79 -62 90 0 10 -15 19 -32 19 -23
0 -29 12 -22 40 6 23 -3 54 -19 70 -17 17 -25 30 -19 30 5 0 -12 24 -39 53
-144 155 -222 426 -158 549 36 70 69 59 69 -23 0 -31 13 -87 28 -123 16 -36
39 -106 53 -156 42 -151 176 -353 352 -530 92 -93 167 -174 167 -182 0 -25
-126 12 -150 45 -19 26 -27 27 -40 7 -24 -38 65 -96 170 -112 160 -23 178 -52
114 -184 -22 -46 -108 -56 -100 -11 2 12 -16 17 -43 12 -25 -5 -52 1 -60 13
-7 12 -36 22 -63 22 -79 0 -164 55 -218 141 -28 43 -55 79 -61 79 -6 0 -5 -10
2 -21 46 -76 -86 51 -143 136 -39 58 -81 105 -94 105 -13 0 -55 32 -92 70 -37
39 -80 70 -94 70 -70 0 -163 67 -187 136 -38 103 -50 212 -23 195 12 -7 23
-29 24 -47 1 -22 5 -25 11 -8 6 14 -4 48 -23 77 -25 39 -31 74 -21 144 7 51
12 138 11 193 -1 55 -1 165 -1 245 0 113 -7 145 -29 145 -43 0 -96 -116 -83
-182 9 -41 2 -62 -22 -76 -30 -17 -29 -23 16 -59 l49 -40 -50 -92 c-27 -50
-61 -91 -75 -91 -35 0 -31 20 10 54 31 25 22 28 -79 19 -102 -9 -116 -5 -127
30 -9 29 -25 38 -53 30 -36 -9 -39 -3 -27 58 15 78 9 82 -60 36 -43 -27 -67
-29 -160 -10 -60 12 -121 17 -135 12 -52 -20 -104 56 -98 141 8 95 31 126 70
93 42 -35 197 -22 252 20 28 22 64 33 86 26 21 -7 49 -3 62 7 13 11 46 23 72
27 27 4 53 21 59 37 8 26 5 26 -24 3 -20 -17 -33 -20 -33 -6 0 12 18 31 40 43
22 12 40 40 40 62 0 33 9 38 45 27 25 -8 39 -7 31 1 -7 8 -5 35 5 61 10 27 10
52 0 58 -24 15 -14 126 14 154 18 18 31 17 55 -3 47 -39 55 -13 11 34 -21 23
-33 47 -26 54 6 7 -3 12 -22 12 -20 0 -33 16 -33 41 0 23 -9 59 -21 80 -13 25
-13 39 -1 39 11 0 18 18 17 40 -2 22 -9 40 -16 40 -7 0 -13 25 -13 55 -1 30
-7 78 -15 105 -12 45 -11 46 14 16 24 -29 27 -15 20 105 -4 89 1 139 14 139
12 0 21 9 21 21 0 41 66 122 80 98 9 -14 20 -3 28 29 7 29 26 52 42 52 17 0
30 15 30 33 0 19 6 28 13 21 7 -8 27 -2 44 11 25 21 28 20 14 -5 -10 -16 1
-12 23 10 23 22 37 47 32 55 -4 8 15 15 43 15 30 0 51 11 51 28 0 15 14 33 30
39 17 7 30 31 30 55 0 36 5 39 30 18 25 -21 30 -18 30 19 0 28 8 38 23 29 16
-10 20 -1 13 26 -9 32 -3 39 27 31 20 -5 37 1 37 14 0 13 -11 17 -25 8 -16 -9
-15 -2 3 20 16 19 27 66 26 104 -2 38 6 69 17 69 28 0 23 33 -11 67 -16 17
-30 39 -30 49 0 11 -18 24 -41 30 -22 6 -38 22 -35 36 4 15 -14 28 -38 29 -24
2 -69 14 -100 26 -31 12 -74 26 -96 31 -80 16 -129 37 -121 51 5 7 -20 10 -55
6 -44 -5 -56 -2 -37 11 19 13 20 23 5 33 -12 7 -41 -5 -64 -26 -26 -25 -59
-36 -85 -30 -24 6 -70 12 -103 14 -85 6 -149 46 -112 70 22 15 18 24 -18 43
-39 21 -44 20 -34 -6 15 -39 -45 -64 -74 -32 -17 18 -13 21 13 12 48 -17 44 2
-10 49 -41 37 -41 39 -5 26 22 -8 56 -14 76 -13z m-2601 -72 c-3 -13 15 -24
40 -24 25 0 59 -9 75 -20 24 -15 20 -19 -20 -20 -49 0 -49 -1 10 -32 33 -18
94 -33 134 -33 72 0 89 -34 20 -36 -28 -2 -26 -5 6 -18 31 -13 18 -19 -60 -30
-163 -22 -167 -26 -30 -31 112 -5 120 -7 60 -20 l-70 -15 67 -2 c51 -2 64 -10
56 -33 -8 -19 0 -30 22 -30 20 0 26 -7 14 -18 -23 -23 -129 -5 -129 22 0 11
-29 14 -65 8 -45 -8 -53 -7 -25 5 37 16 35 20 -25 50 -80 42 -84 88 -10 97 55
6 55 6 -19 42 -85 40 -114 74 -64 74 29 0 28 6 -9 37 -52 46 -55 69 -8 58 19
-4 33 -18 30 -31z m1331 4 c-22 -23 -49 -28 -94 -19 -103 23 -92 51 21 51 97
0 103 -3 73 -32z m204 -4 c56 -26 33 -73 -40 -86 l-70 -11 85 -16 c84 -16 118
-51 50 -51 -26 -1 -22 -7 15 -26 27 -14 53 -42 57 -62 7 -39 -6 -39 -165 0
-40 9 -54 7 -44 -8 8 -14 -12 -30 -52 -41 l-66 -19 90 -5 c173 -10 201 -13
214 -26 7 -7 -14 -13 -46 -13 -45 -1 -51 -5 -28 -20 17 -11 51 -20 76 -20 26
0 41 -9 34 -20 -19 -31 -142 -24 -170 10 -14 17 -46 30 -72 30 -27 0 -48 9
-48 20 0 11 -8 20 -18 20 -9 0 -69 31 -133 69 -128 78 -118 98 44 87 l97 -7
-70 -23 -70 -22 90 -2 c128 -2 162 24 99 76 -43 36 -45 41 -12 41 31 1 34 6
13 31 -21 25 -18 30 13 31 35 0 35 2 2 21 -79 46 33 83 125 42z m221 -55 c67
-9 96 -24 110 -56 17 -39 37 -44 239 -53 l220 -10 -140 -16 c-204 -24 -215
-29 -70 -33 l130 -4 -70 -27 c-38 -15 -54 -28 -35 -28 48 -3 44 -42 -4 -42
-21 0 -44 -9 -51 -20 -7 -11 -40 -20 -73 -20 -72 0 -69 43 4 61 61 14 -60 38
-195 39 -60 0 -99 14 -140 49 l-56 50 60 2 c59 1 59 2 12 21 -79 31 -140 132
-67 110 19 -5 76 -15 126 -23z m-1857 -29 c45 0 103 -61 81 -83 -25 -25 -112
10 -167 65 l-44 44 48 -13 c26 -7 63 -13 82 -13z m1184 -52 c13 -33 -61 -38
-108 -8 -25 17 -25 23 -3 38 35 22 97 6 111 -30z m219 -8 c17 -17 -2 -21 -75
-16 -63 4 -102 16 -108 34 -11 34 147 19 183 -18z m-827 -59 c6 -1 -3 -10 -20
-21 -19 -12 -21 -20 -6 -20 14 0 20 -13 13 -30 -7 -19 1 -30 21 -30 18 0 32
-9 32 -20 0 -11 18 -20 40 -20 44 0 54 -30 15 -48 -14 -7 2 -8 35 -2 57 10 58
9 21 -20 -51 -40 -119 -40 -104 0 9 22 -2 30 -39 30 -29 0 -45 9 -38 20 7 12
-22 36 -64 54 -66 30 -70 35 -31 41 37 6 41 14 25 45 -20 37 -8 39 100 21z
m2189 7 c-12 -5 -61 -17 -110 -27 -66 -13 -37 -15 109 -7 162 9 195 6 188 -16
-7 -19 -44 -28 -118 -28 -122 0 -192 -28 -127 -50 27 -10 3 -19 -75 -28 -85
-11 -128 -7 -174 17 -33 17 -78 31 -101 31 -23 0 -41 9 -41 20 0 11 27 20 59
20 44 0 57 8 49 29 -9 23 13 30 105 36 185 12 259 13 236 3z m400 -47 c6 -10
-9 -22 -34 -26 -33 -6 -22 -13 40 -24 47 -9 85 -27 85 -41 0 -14 23 -30 50
-35 28 -5 50 -3 50 6 0 37 82 -10 92 -53 7 -27 22 -48 34 -48 15 0 16 -6 1
-21 -13 -13 -48 -14 -100 -3 -63 14 -80 12 -80 -9 0 -15 8 -27 18 -27 35 0 -6
-35 -51 -44 -93 -18 -133 17 -54 47 l70 27 -95 10 c-111 12 -127 44 -31 62 56
11 58 13 15 15 -77 4 -148 61 -79 63 47 2 46 4 -19 36 -100 50 -101 84 -4 84
44 0 86 -8 92 -19z m-1235 -54 c122 -15 122 -47 0 -47 -101 1 -174 18 -174 42
0 21 33 22 174 5z m1054 -19 c18 -7 27 -21 20 -31 -6 -10 -1 -31 11 -46 27
-33 -87 -60 -168 -40 -56 15 -72 -19 -19 -39 18 -7 27 -25 21 -42 -7 -17 -2
-30 9 -30 11 0 15 -9 8 -19 -14 -23 -291 -25 -328 -2 -32 20 98 47 143 30 17
-6 37 -2 44 10 8 13 -8 21 -42 21 -112 0 111 117 233 122 34 2 22 9 -35 21
-47 11 -81 28 -74 38 13 21 129 26 177 7z m-575 -38 c6 -17 0 -44 -13 -60 -28
-34 -100 -41 -100 -10 0 11 -24 20 -54 20 -98 0 11 61 140 78 8 1 20 -12 27
-28z m-1123 -23 c-38 -30 -36 -31 40 -19 l80 12 -55 -30 c-72 -41 -70 -58 4
-43 33 6 65 2 72 -9 8 -12 37 -16 66 -9 l53 13 -54 -51 c-38 -36 -76 -51 -129
-51 -70 0 -72 2 -36 29 37 28 37 30 -17 30 -32 1 -51 10 -44 21 7 11 -6 20
-29 20 -22 0 -41 12 -41 28 0 15 -20 33 -45 41 -61 18 2 48 105 49 67 1 68 0
30 -31z m1390 -7 c-25 -16 -23 -20 10 -22 23 -1 6 -13 -40 -27 -44 -13 -67
-29 -51 -34 43 -14 5 -57 -50 -57 -32 0 -49 -11 -49 -32 0 -24 -12 -29 -50
-20 -29 7 -50 4 -50 -8 0 -11 34 -20 75 -21 l75 -1 -80 -29 c-102 -36 -123
-36 -123 1 0 17 7 30 16 30 10 0 17 9 17 20 0 11 -14 20 -31 20 -55 0 -9 40
47 41 53 2 53 2 8 20 -70 28 -32 65 53 51 50 -7 60 -6 33 6 -34 14 -26 21 50
41 50 13 99 26 110 30 41 16 59 10 30 -9z m-653 -62 c-55 -36 -55 -38 -11 -38
26 0 61 14 78 31 36 36 138 31 131 -6 -3 -16 18 -25 57 -25 82 0 66 -45 -23
-63 -81 -16 -110 -4 -78 35 20 23 15 28 -27 28 -28 0 -54 -10 -58 -23 -5 -13
-59 -27 -120 -32 -82 -7 -110 -17 -103 -36 11 -29 -154 -63 -192 -40 -35 22
-4 51 55 52 30 1 95 18 144 38 l90 36 -106 0 c-191 0 -171 37 39 74 171 29
203 21 124 -31z m-1519 10 c8 -21 27 -29 52 -22 22 6 36 4 31 -4 -11 -18 61
-82 93 -82 12 0 17 -5 11 -12 -18 -17 -236 50 -269 83 -16 16 -41 29 -56 29
-15 0 -33 9 -40 20 -8 12 22 20 77 20 63 0 92 -9 101 -32z m381 -46 c-31 -30
-162 -59 -189 -42 -16 10 15 24 82 36 59 10 112 20 117 22 5 1 0 -6 -10 -16z
m2131 -2 c0 -25 -91 -48 -119 -31 -12 8 -16 22 -10 32 15 25 129 24 129 -1z
m-1342 -12 c92 -19 75 -48 -27 -48 -84 0 -125 20 -97 47 16 16 44 16 124 1z
m-698 -28 c0 -11 -41 -30 -90 -42 -50 -13 -96 -31 -102 -40 -14 -24 -88 -23
-88 1 0 29 38 46 159 73 61 13 113 25 116 26 3 1 5 -7 5 -18z m2160 -26 c0
-37 -42 -74 -84 -74 -20 0 -36 -9 -36 -20 0 -22 84 -8 147 25 27 13 34 12 24
-3 -8 -13 3 -22 28 -22 22 0 41 -9 41 -20 0 -45 131 23 194 100 22 26 25 26
25 -3 1 -33 -119 -137 -158 -137 -11 0 -21 -9 -21 -19 0 -11 16 -14 35 -7 31
12 32 9 8 -20 -16 -19 -50 -34 -78 -34 -42 0 -46 5 -25 30 39 47 -15 38 -124
-20 -115 -61 -144 -63 -130 -9 9 33 3 38 -28 28 -26 -8 -38 -2 -38 20 0 17
-10 31 -22 31 -12 0 -17 14 -11 30 7 19 0 30 -19 30 -58 0 -17 45 73 82 106
43 199 49 199 12z m280 7 c0 -27 -83 -81 -124 -81 -55 0 -42 26 29 62 80 40
95 43 95 19z m-2339 -47 c21 6 39 2 39 -9 0 -25 -124 -51 -139 -29 -6 9 -33
10 -61 2 -27 -8 -38 -15 -24 -16 15 -1 20 -12 13 -24 -9 -14 -46 -17 -104 -8
-62 9 -85 6 -76 -8 15 -25 -21 -26 -79 -3 -31 13 -19 19 60 31 55 9 105 21
110 28 24 31 210 74 216 50 3 -13 24 -19 45 -14z m1055 11 c-4 -23 -28 -37
-71 -41 -75 -8 -86 20 -20 52 67 32 99 28 91 -11z m164 -33 c0 -29 -59 -51
-135 -52 -54 0 -59 30 -10 58 52 31 145 27 145 -6z m-332 -9 c11 -18 -136 -83
-185 -83 -50 0 -10 50 59 74 84 29 112 31 126 9z m732 -3 c-40 -26 -126 -26
-110 0 7 11 41 20 76 20 49 -1 57 -5 34 -20z m-652 -94 c-71 -30 -205 -35
-177 -7 42 42 178 77 207 54 22 -18 16 -27 -30 -47z m782 59 c72 -54 -12 -157
-94 -115 -14 7 -12 1 6 -14 39 -32 84 -113 93 -166 3 -22 15 -43 26 -47 35
-12 -2 -43 -52 -43 -34 0 -45 8 -36 30 6 17 1 30 -12 30 -13 0 -18 9 -11 20 7
11 2 20 -10 20 -13 0 -20 11 -15 25 13 39 -43 85 -70 58 -17 -17 -16 -23 6
-23 25 -1 25 -4 -1 -20 -45 -29 -80 -24 -67 10 13 35 -10 38 -82 10 -28 -10
-51 -12 -51 -3 0 25 64 77 115 92 25 8 40 22 34 32 -19 31 85 69 116 43 15
-12 38 -15 53 -5 43 26 -48 47 -135 31 -49 -9 -66 -6 -53 7 17 17 66 27 190
39 17 2 39 -3 50 -11z m-510 -25 c0 -11 -10 -20 -22 -20 -12 0 -45 -18 -73
-40 -28 -22 -70 -40 -95 -40 -24 0 -60 -18 -80 -40 -36 -40 -164 -58 -140 -20
7 11 3 20 -8 20 -11 0 -25 -9 -32 -20 -15 -25 -130 -27 -130 -2 0 29 63 48
185 53 80 4 131 19 168 48 29 22 78 41 110 41 31 0 57 9 57 20 0 11 14 20 30
20 17 0 30 -9 30 -20z m180 -10 c-56 -32 -140 -41 -109 -12 20 19 77 36 129
39 17 1 8 -11 -20 -27z m-1512 -22 c18 -7 27 -21 20 -31 -7 -11 12 -14 45 -7
l57 12 -50 -29 c-27 -16 -59 -24 -70 -17 -11 7 -42 10 -68 7 -35 -5 -45 1 -36
23 8 21 0 27 -27 19 -22 -5 -39 0 -39 13 0 23 115 30 168 10z m1562 -8 c-7
-11 -1 -20 14 -21 34 -1 -100 -59 -136 -59 -48 0 -30 32 37 65 76 38 102 43
85 15z m-1420 -60 c-7 -11 1 -20 17 -20 16 0 33 -10 37 -23 10 -28 75 3 70 33
-2 11 28 23 66 26 53 4 63 0 40 -15 -25 -17 -24 -21 10 -21 72 -2 120 -52 76
-79 -31 -20 -28 -22 21 -11 36 7 52 4 43 -9 -7 -12 4 -21 24 -21 30 -1 31 -4
6 -20 -26 -17 -25 -19 5 -20 19 0 35 -9 35 -20 0 -11 -19 -20 -41 -20 -23 0
-36 -9 -29 -20 15 -24 124 -24 180 0 35 15 33 17 -16 19 -32 0 -51 10 -44 21
7 11 3 20 -9 20 -42 0 -20 40 29 50 28 5 73 15 100 20 68 15 64 -22 -5 -40
-32 -9 -44 -19 -28 -25 14 -5 60 6 102 25 41 18 97 30 123 26 l48 -8 -50 -23
c-27 -12 -84 -28 -125 -35 -41 -6 -75 -19 -75 -28 0 -9 23 -12 50 -7 29 6 50
0 50 -13 0 -12 -14 -22 -31 -22 -17 0 -26 -9 -20 -19 17 -28 -66 -67 -106 -49
-26 11 -20 17 27 29 42 10 14 14 -90 14 -82 0 -134 -4 -115 -9 70 -18 36 -61
-60 -75 -166 -23 -273 -91 -143 -91 106 0 84 -105 -31 -148 -29 -10 -33 -18
-15 -30 18 -10 8 -23 -30 -42 -46 -22 -50 -28 -20 -35 31 -7 32 -13 10 -40
-23 -28 -21 -31 13 -18 36 14 36 12 8 -21 -56 -65 -60 -83 -16 -72 26 7 51 -2
67 -25 16 -21 39 -31 59 -23 27 10 29 6 13 -27 -11 -21 -29 -57 -40 -79 -28
-56 -25 -69 10 -40 26 22 29 20 18 -7 -16 -43 9 -42 58 2 39 34 39 34 15 -12
-23 -44 -22 -45 20 -23 29 16 39 17 30 2 -7 -12 -60 -43 -117 -70 -57 -26
-162 -84 -234 -130 -71 -45 -154 -95 -184 -112 -30 -17 -115 -75 -188 -130
-216 -161 -372 -181 -417 -53 -36 103 189 410 448 611 67 52 145 127 174 167
28 39 77 82 108 95 133 56 172 276 76 435 -77 128 -155 210 -187 198 -17 -7
-30 -4 -30 5 0 13 83 51 216 100 4 1 1 -7 -6 -18z m1770 0 c0 -11 14 -20 32
-20 19 0 28 -11 22 -28 -6 -15 -1 -37 12 -50 16 -16 8 -22 -32 -22 -59 0 -68
18 -29 58 20 21 13 24 -40 13 -71 -15 -89 13 -30 47 45 27 65 27 65 2z m-528
-62 c-2 -43 -18 -70 -52 -89 -83 -46 -117 -34 -56 20 36 31 46 52 30 58 -16 7
-12 20 15 42 55 44 67 39 63 -31z m-152 24 c0 -24 -51 -42 -117 -41 -51 0 -51
1 -14 30 42 32 131 40 131 11z m20 -61 c0 -11 -18 -29 -40 -41 -22 -12 -40
-34 -40 -49 0 -15 -11 -32 -25 -38 -14 -6 0 -8 30 -3 54 7 78 -19 31 -35 -13
-4 -24 -34 -25 -66 -1 -47 -11 -60 -51 -66 -39 -5 -45 -1 -26 18 18 19 17 31
-6 54 -23 22 -24 36 -6 57 18 22 16 28 -10 28 -38 0 -42 31 -7 54 14 9 25 29
25 46 0 25 43 43 135 58 8 1 15 -7 15 -17z m1480 -19 c0 -35 -104 -143 -197
-205 -51 -35 -131 -99 -178 -144 -55 -53 -85 -70 -85 -50 0 17 18 47 40 67 45
41 53 90 15 91 -14 0 -9 9 10 21 19 11 45 14 56 7 11 -7 54 20 94 59 41 40 81
72 90 72 9 0 41 23 71 50 56 52 84 63 84 32z m-1178 -30 c-18 -21 -16 -30 11
-40 30 -12 30 -16 -5 -43 -32 -25 -33 -27 -3 -17 40 14 46 -13 11 -48 -13 -13
-17 -24 -9 -24 9 0 -4 -27 -27 -60 -43 -61 -93 -83 -74 -33 6 15 -7 39 -27 54
-37 27 -37 28 4 72 l42 44 -48 -10 c-41 -9 -38 -2 28 61 73 71 146 104 97 44z
m2063 -12 c61 -23 116 -54 122 -69 20 -52 -153 -69 -243 -24 -58 30 -118 31
-163 4 -21 -13 -25 -9 -15 17 12 29 5 28 -46 -8 -58 -41 -79 -80 -43 -80 49 0
111 -86 112 -156 1 -48 10 -72 26 -69 14 3 25 -14 25 -36 0 -23 -8 -36 -19
-30 -10 6 -24 -7 -32 -31 -22 -70 -84 -124 -95 -82 -5 19 -11 -15 -13 -76 -3
-81 -8 -100 -21 -70 -22 52 -25 33 -20 -163 2 -89 -6 -168 -16 -175 -30 -18
-44 39 -25 106 14 47 12 57 -11 49 -34 -13 -39 -201 -6 -247 16 -24 18 -22 9
12 -8 29 -2 41 19 41 22 0 27 -12 18 -41 -7 -23 -6 -35 3 -27 9 9 23 54 30
100 l14 85 2 -84 c2 -46 17 -97 34 -115 45 -44 49 -40 37 34 -7 46 -5 56 8 35
29 -45 49 -194 28 -207 -10 -7 -29 12 -42 40 -13 29 -29 47 -36 40 -7 -7 -24
-3 -39 10 -21 17 -27 14 -27 -14 0 -34 -2 -34 -29 2 -18 23 -30 29 -30 13 -1
-19 -11 -20 -41 -4 -31 17 -44 13 -64 -19 -23 -37 -26 -36 -52 25 -26 58 -30
60 -44 24 -22 -55 -49 18 -42 111 4 64 142 197 143 139 2 -50 2 -50 20 -5 10
25 27 45 38 45 11 0 34 33 51 72 36 86 36 88 10 88 -11 0 -20 -11 -20 -25 0
-29 -70 -78 -87 -61 -6 6 -3 28 8 49 26 48 -11 51 -38 3 -15 -26 -26 -29 -46
-12 -38 31 -159 -111 -144 -168 19 -75 -51 -103 -104 -41 -45 52 -59 54 -164
23 -32 -9 -45 -4 -45 17 0 21 -15 27 -50 20 -28 -6 -50 0 -50 12 0 12 -13 17
-30 10 -42 -16 -39 49 7 124 22 35 56 61 82 63 43 4 44 2 11 -34 -32 -35 -32
-37 8 -26 27 7 46 -1 54 -22 9 -24 20 -27 37 -13 18 15 31 6 49 -32 23 -50 25
-51 52 -15 33 44 39 76 10 58 -11 -7 -20 -3 -20 9 0 11 9 21 20 21 12 0 31 23
44 50 12 28 31 50 40 50 10 0 12 -11 4 -23 -10 -16 -4 -20 19 -11 41 16 43
-13 3 -46 -16 -14 -30 -41 -30 -60 0 -19 -13 -46 -30 -60 -16 -14 -30 -40 -29
-57 0 -29 4 -28 28 4 26 34 28 34 38 -10 9 -46 10 -46 9 3 -1 138 4 164 33
153 29 -11 75 29 68 60 -2 9 7 42 20 73 28 69 28 74 3 74 -11 0 -20 -20 -20
-45 -1 -33 -5 -38 -18 -18 -13 21 -26 22 -59 4 -24 -12 -43 -18 -43 -13 0 5
-6 24 -13 43 -9 24 -5 32 14 25 17 -5 50 25 84 78 59 93 67 116 35 96 -11 -7
-14 1 -8 19 7 17 24 31 39 31 50 0 50 -37 -1 -92 -70 -76 -45 -86 34 -14 64
57 102 124 53 94 -16 -10 -20 -2 -13 26 14 53 -117 59 -134 5 -13 -41 -90
-114 -90 -85 0 11 20 46 45 77 24 32 45 67 47 78 6 51 34 111 52 111 11 0 15
-13 9 -29 -7 -18 -1 -25 15 -19 45 17 28 68 -23 68 -30 0 -42 8 -33 23 37 60
-166 -93 -241 -182 -22 -27 -62 -70 -87 -97 -25 -26 -69 -85 -98 -131 -92
-148 -295 -313 -272 -220 44 170 152 299 409 487 92 67 188 148 213 181 35 43
64 59 110 59 44 -1 56 -6 36 -18 -29 -19 -14 -62 23 -62 12 0 42 19 67 42 106
99 387 128 573 58z m-2578 -24 c-9 -14 -17 -35 -17 -46 0 -11 -25 -23 -55 -26
-74 -9 -70 28 9 76 68 41 91 40 63 -4z m353 14 c-14 -16 -17 -30 -7 -30 9 0 4
-9 -13 -20 -71 -46 -113 -22 -54 31 62 54 115 68 74 19z m311 -8 c-6 -10 0
-23 14 -28 14 -5 0 -16 -31 -24 -71 -19 -96 4 -45 42 44 32 79 37 62 10z m15
-137 c-64 -48 -97 -29 -46 25 35 38 51 44 63 25 10 -15 3 -35 -17 -50z m179
14 c-71 -66 -82 -99 -35 -99 17 0 30 11 30 24 0 55 83 116 115 84 34 -34 36
-32 -50 -76 -71 -36 -85 -71 -30 -73 21 0 4 -17 -41 -41 -42 -22 -73 -51 -68
-64 11 -30 -21 -94 -47 -94 -23 0 -26 74 -2 83 9 4 23 32 30 61 17 70 -31 58
-64 -15 -22 -49 -63 -67 -63 -28 0 11 15 44 34 72 33 51 33 52 -10 38 -62 -19
-55 6 20 72 37 33 77 53 96 47 19 -6 49 7 70 30 20 22 46 40 58 40 12 0 -7
-28 -43 -61z m-853 0 c-1 -22 -15 -49 -32 -59 -25 -16 -23 -19 9 -20 38 0 38
0 0 -30 -38 -30 -38 -30 1 -16 35 12 37 10 13 -20 -33 -40 -75 -45 -78 -9 -2
14 -6 43 -11 65 -5 22 2 47 14 55 13 9 6 15 -18 16 -32 2 -27 8 20 30 80 36
85 36 82 -12z m276 -21 c-64 -67 -82 -72 -79 -23 5 58 27 80 82 80 l52 0 -55
-57z m-463 11 c38 -14 21 -124 -22 -137 -18 -6 -8 -8 22 -4 72 9 69 -3 -10
-40 -65 -30 -65 -30 -7 -18 46 10 55 7 40 -14 -10 -14 -18 -48 -18 -76 0 -27
-9 -57 -20 -65 -11 -8 -4 -15 16 -15 20 0 31 -9 24 -20 -7 -11 -1 -20 14 -21
35 -1 -61 -79 -97 -79 -16 0 -24 8 -18 19 6 10 2 24 -10 32 -14 8 -9 23 15 41
34 27 34 27 -2 15 -31 -11 -36 -7 -26 20 8 19 3 33 -12 34 -13 0 -4 17 21 38
38 31 40 39 13 49 -21 8 -27 24 -18 47 8 19 15 46 16 60 0 14 19 26 42 26 41
2 41 2 2 19 -27 12 -30 18 -10 19 25 1 25 5 2 19 -15 10 -21 28 -13 40 15 25
18 26 56 11z m-126 -49 c34 0 -7 -104 -47 -120 -29 -12 -32 -18 -10 -19 24 -1
32 -22 32 -86 0 -93 -18 -115 -94 -113 -49 1 -49 2 10 29 38 17 47 28 25 28
-52 1 -43 41 10 43 43 2 43 3 -5 18 -27 9 -42 17 -33 18 10 1 7 16 -7 32 -20
24 -20 30 3 30 21 1 21 4 -2 19 -26 16 -26 21 3 31 17 7 30 28 27 46 -8 48 8
69 43 55 16 -6 36 -11 45 -11z m3009 -3 c-10 -17 -3 -19 24 -9 93 37 167 38
181 2 20 -52 -35 -83 -192 -110 -74 -12 -160 -36 -190 -51 -183 -95 -114 52
78 165 54 32 118 34 99 3z m-2381 -9 c18 -7 25 -24 18 -43 -8 -23 -4 -27 15
-15 17 11 21 8 12 -7 -8 -13 -23 -19 -33 -12 -10 6 -41 -4 -68 -22 -52 -34
-70 -16 -27 27 19 19 18 24 -5 25 -21 0 -18 8 10 30 45 34 39 32 78 17z m221
-31 c-36 -42 -36 -43 -1 -30 36 13 36 11 0 -50 -40 -68 -103 -107 -81 -51 6
17 1 35 -12 40 -15 6 -2 32 35 71 65 70 119 88 59 20z m1237 -39 c12 -8 11
-18 -3 -27 -12 -7 -22 -3 -22 10 0 18 -8 17 -30 -1 -47 -39 -61 -6 -19 41 28
31 40 35 46 16 5 -15 18 -33 28 -39z m-1615 -38 c-7 -11 -3 -20 9 -20 11 0 19
-7 17 -15 -7 -28 27 -105 47 -105 10 0 14 -9 7 -20 -7 -11 1 -20 18 -20 43 0
20 -50 -42 -91 -54 -35 -97 -10 -76 46 5 14 -1 25 -12 25 -11 0 -15 9 -8 20 7
11 -3 20 -21 20 -28 0 -29 5 -9 30 19 22 19 30 1 30 -13 0 -18 8 -12 18 6 10
0 23 -14 29 -19 8 -19 14 3 29 23 16 21 21 -10 28 -32 7 -29 13 22 40 62 34
111 6 80 -44z m214 -90 c-18 -22 -20 -29 -4 -15 38 34 61 32 47 -5 -6 -16 -2
-30 9 -30 27 0 7 -73 -28 -102 -22 -18 -28 -16 -28 8 0 18 9 37 20 44 11 7 20
22 20 34 0 12 -18 6 -40 -14 -37 -34 -40 -34 -40 -2 0 19 -9 29 -20 22 -35
-22 -21 16 25 69 39 44 39 46 3 16 -61 -52 -82 -42 -29 14 60 63 119 28 65
-39z m218 53 c-27 -49 -80 -92 -96 -76 -14 15 71 113 98 113 10 0 9 -16 -2
-37z m-609 -8 c-7 -45 -35 -75 -69 -74 -30 0 -29 4 5 30 38 29 38 29 0 29 -33
1 -34 4 -9 20 42 27 77 25 73 -5z m1732 -24 c-10 -51 -135 -211 -165 -211 -29
0 17 128 59 163 22 17 33 39 25 48 -8 8 -4 10 9 2 12 -7 34 1 47 17 33 40 36
38 25 -19z m-2198 -60 c14 -36 4 -42 -92 -59 -47 -9 -75 -6 -75 7 0 12 24 21
54 21 51 0 52 1 15 29 -37 28 -36 30 24 30 37 1 67 -11 74 -28z m448 -25 c-30
-30 -60 -48 -67 -40 -15 14 70 92 102 93 10 1 -5 -23 -35 -53z m671 -1 c-35
-94 -120 -176 -94 -90 6 19 -4 10 -21 -20 -37 -62 -42 -65 -80 -30 -30 28 10
135 50 135 13 0 12 -16 -2 -45 -17 -34 -9 -30 31 15 41 46 51 51 42 20 -10
-36 -8 -35 21 5 38 53 71 60 53 10z m218 11 c-13 -13 -24 -51 -25 -85 0 -41
-16 -73 -50 -97 -48 -35 -49 -35 -49 5 0 52 92 201 124 201 18 0 18 -6 0 -24z
m-854 -47 c-78 -64 -117 -63 -44 2 31 27 67 49 80 48 13 0 -3 -23 -36 -50z
m688 -68 c-44 -92 -78 -120 -78 -63 0 65 44 142 81 142 33 0 33 -5 -3 -79z
m1004 -18 c-23 -44 -39 -92 -35 -107 4 -14 3 -19 -2 -11 -5 8 -31 -3 -59 -25
-70 -54 -89 -50 -74 15 16 65 47 108 68 95 9 -5 40 22 70 62 69 90 85 76 32
-29z m-2193 58 c12 -19 -129 -68 -146 -51 -7 7 99 63 131 69 2 1 9 -8 15 -18z
m537 -14 c-9 -23 -5 -29 11 -19 46 29 22 -26 -30 -67 -65 -51 -87 -37 -35 22
38 43 38 43 -7 19 -59 -31 -59 6 -1 47 58 40 78 39 62 -2z m-358 -19 c18 -46
-3 -68 -64 -67 l-54 0 50 30 50 29 -55 -12 c-66 -15 -73 6 -10 31 63 26 69 25
83 -11z m599 -42 c-43 -58 -87 -82 -87 -48 0 25 104 124 118 111 5 -5 -9 -34
-31 -63z m-767 15 c0 -10 -16 -22 -35 -27 -26 -7 -23 -10 11 -12 68 -3 32 -42
-38 -42 -35 0 -55 8 -48 20 7 11 1 20 -13 20 -35 0 4 34 53 46 65 15 70 15 70
-5z m606 -157 c-21 -28 -49 -55 -61 -59 -38 -13 -21 81 23 135 l42 50 -55 -48
c-30 -27 -62 -42 -70 -34 -8 9 11 38 43 66 l59 50 28 -55 c26 -49 25 -59 -9
-105z m226 123 c-11 -27 -8 -29 18 -7 41 34 40 -6 -2 -71 -36 -55 -79 -67 -60
-17 9 23 4 29 -18 21 -40 -16 -38 25 3 70 41 46 76 48 59 4z m-475 -20 c-25
-31 -23 -31 23 -7 l50 26 -40 -45 c-47 -53 -109 -89 -125 -72 -7 6 5 24 26 40
37 27 36 28 -11 16 -27 -7 -62 -24 -76 -39 -15 -14 -41 -26 -59 -26 -43 0 -26
14 99 81 122 66 152 73 113 26z m682 -7 c1 26 4 26 20 1 10 -16 15 -35 10 -43
-17 -27 62 -7 86 22 21 26 26 24 37 -15 7 -24 20 -40 28 -35 25 15 39 -70 20
-120 -27 -71 -60 -80 -60 -17 0 52 -1 53 -29 16 -28 -36 -30 -37 -30 -3 -1 20
-10 31 -21 24 -11 -7 -20 -2 -20 10 0 12 -9 17 -20 10 -11 -7 -20 1 -20 18 0
19 -14 27 -40 22 -47 -9 -55 47 -15 110 23 37 26 37 38 5 11 -27 15 -28 16 -5z
m1703 -56 c-13 -4 -17 -28 -9 -59 9 -36 6 -47 -10 -37 -30 19 -29 82 2 133 23
36 26 37 32 5 4 -19 -2 -38 -15 -42z m-1833 -25 c-16 -33 -39 -59 -50 -59 -27
0 -24 15 15 81 44 74 75 55 35 -22z m-869 43 c0 -15 -103 -62 -135 -62 -32 0
17 48 55 54 26 4 52 11 57 16 15 15 23 12 23 -8z m369 -60 c-21 -21 -61 -44
-89 -53 l-50 -14 40 45 c40 45 112 83 129 67 5 -4 -9 -25 -30 -45z m259 15
c-10 -16 -4 -20 19 -11 22 8 33 2 33 -18 0 -18 9 -25 23 -16 16 10 19 3 10
-22 -12 -31 -10 -32 20 -8 30 25 33 23 22 -17 -6 -25 -3 -40 7 -34 41 26 14
-48 -35 -93 l-52 -48 25 50 c25 48 24 49 -12 17 -49 -43 -95 -5 -63 52 14 26
14 33 -3 22 -52 -32 -83 42 -40 97 41 52 73 72 46 29z m-588 -7 c0 -13 -124
-90 -145 -90 -35 0 -11 40 40 67 57 30 105 40 105 23z m167 -39 c10 -27 -5
-46 -65 -81 -21 -12 -26 -8 -17 14 9 24 2 29 -26 21 -57 -14 -48 9 16 44 69
37 78 37 92 2z m212 -13 c-16 -30 -16 -39 -1 -29 36 22 25 -20 -15 -57 -21
-18 -63 -37 -95 -41 -32 -4 -74 -14 -93 -21 -20 -8 -35 -5 -35 7 0 22 76 54
113 46 13 -2 30 5 37 16 7 12 1 21 -14 22 -27 0 82 99 110 99 8 0 5 -19 -7
-42z m903 -113 c-8 -68 -21 -130 -28 -138 -28 -28 -36 11 -17 86 10 42 25 103
32 134 22 96 29 51 13 -82z m-1302 78 c0 -14 -85 -63 -111 -63 -52 0 15 50
106 78 3 1 5 -6 5 -15z m962 -41 c12 19 17 20 18 4 0 -14 14 -20 30 -13 21 8
30 -2 30 -36 1 -38 4 -41 20 -17 14 22 20 9 21 -50 l1 -80 27 60 28 60 1 -72
c1 -39 -3 -77 -10 -83 -21 -21 -88 32 -88 69 0 23 -10 31 -30 23 -20 -7 -30 1
-30 25 0 33 -2 33 -29 -3 -17 -22 -29 -66 -29 -99 l1 -60 20 55 c32 86 77 26
63 -83 -13 -98 -45 -129 -49 -48 -2 47 -4 49 -11 11 -10 -50 -10 -50 -54 -33
-43 16 -40 76 9 206 33 87 35 104 10 83 -27 -22 -31 -19 -31 23 0 62 47 115
57 64 6 -28 10 -29 25 -6z m1378 -18 c-1 -19 -18 -56 -40 -84 -22 -27 -39 -66
-40 -85 0 -37 -30 -47 -48 -18 -6 10 13 67 43 128 53 107 85 130 85 59z m320
-15 c0 -27 -9 -49 -20 -49 -11 0 -20 28 -20 61 0 36 8 56 20 49 11 -7 20 -34
20 -61z m-2620 33 c0 -21 -117 -72 -132 -56 -7 6 14 25 45 42 66 35 87 39 87
14z m418 -15 c-25 -29 -22 -31 22 -17 l50 15 -48 -53 c-45 -48 -119 -75 -93
-34 6 11 -4 22 -24 27 -27 6 -20 17 35 51 84 53 94 54 58 11z m762 -77 c-29
-89 -68 -93 -49 -5 16 75 54 131 65 97 4 -12 -3 -53 -16 -92z m-439 -8 c-35
-70 -81 -109 -81 -71 0 38 99 177 115 161 4 -4 -11 -45 -34 -90z m-724 45
c-24 -30 -22 -33 18 -22 61 15 57 -13 -6 -42 -72 -33 -99 -30 -69 7 22 26 20
29 -12 19 -31 -10 -29 -5 9 29 57 50 99 56 60 9z m461 -61 l-48 -54 50 31 c49
31 121 4 85 -31 -6 -7 0 -12 15 -12 18 0 16 -12 -10 -40 -37 -40 -103 -57 -80
-20 7 11 1 20 -14 20 -14 1 -3 19 24 42 l50 40 -64 -31 c-74 -36 -93 -39 -76
-11 7 11 -4 20 -24 20 -26 0 -18 11 27 38 34 22 69 49 77 62 8 12 19 18 25 11
7 -6 -10 -35 -37 -65z m289 -35 c-16 -48 -52 -103 -78 -120 -27 -18 -49 -44
-49 -58 0 -15 -18 -43 -40 -63 -22 -20 -40 -26 -40 -14 0 13 -13 18 -30 11
-49 -19 32 147 89 182 32 20 25 -21 -9 -49 -34 -28 -40 -80 -10 -80 11 0 20
16 20 37 0 20 23 58 52 85 28 26 65 73 80 103 43 82 50 67 15 -34z m573 54
c-1 -58 -23 -125 -42 -125 -21 0 -25 127 -5 147 25 24 47 14 47 -22z m-1480
-15 c-19 -22 -19 -30 -1 -30 13 0 18 -8 12 -18 -6 -9 9 -22 32 -29 30 -7 38
-21 29 -45 -11 -27 -8 -29 16 -10 23 20 31 16 42 -18 11 -36 18 -38 45 -16 28
23 29 21 8 -19 -26 -48 -103 -99 -103 -68 0 11 -26 28 -59 40 -36 12 -59 34
-59 57 1 65 -12 116 -32 130 -10 8 3 23 30 34 68 26 68 26 40 -8z m380 0 c-14
-16 -37 -30 -52 -30 -14 0 -49 -22 -76 -50 -28 -27 -62 -50 -76 -50 -41 0 150
158 191 159 31 1 34 -4 13 -29z m560 -111 c-14 -32 -32 -54 -42 -48 -9 6 -1
42 17 81 39 83 61 54 25 -33z m-472 36 c-25 -45 -74 -95 -92 -95 -9 0 3 27 27
60 43 58 94 85 65 35z m34 -52 c-22 -40 -82 -95 -82 -75 0 7 15 36 32 63 38
57 79 68 50 12z m-220 -40 c-25 -46 -118 -123 -149 -123 -12 0 18 40 67 90 90
92 119 104 82 33z m1080 32 c1 -20 3 -20 11 0 16 38 47 9 47 -43 0 -58 -13
-70 -61 -57 -27 7 -39 27 -39 67 0 55 38 85 42 33z m-854 -91 c-31 -46 -38
-49 -44 -18 -4 21 9 55 29 77 49 54 60 10 15 -59z m658 1 c-6 -36 -20 -65 -31
-65 -11 0 -14 20 -8 45 7 25 13 63 13 84 0 24 7 32 18 20 10 -10 13 -48 8 -84z
m-783 26 c29 18 12 -8 -72 -111 l-41 -50 50 40 c58 47 101 51 146 13 18 -15
42 -21 53 -14 12 8 21 3 21 -9 0 -12 9 -17 21 -10 13 9 16 -7 8 -43 -11 -54
-10 -55 20 -18 17 21 31 46 31 55 0 9 9 16 20 16 12 0 12 -19 -1 -55 l-20 -55
43 50 c35 42 40 44 30 10 -12 -39 -12 -39 18 -1 17 21 30 28 30 14 0 -14 9
-20 19 -14 11 7 14 26 8 42 -6 16 5 54 24 83 33 51 36 52 51 15 12 -31 15 -32
17 -6 1 40 81 27 81 -13 0 -40 -48 -70 -80 -50 -38 24 -60 7 -60 -48 0 -25
-20 -63 -45 -85 -48 -43 -135 -58 -135 -23 0 13 -10 12 -29 -3 -16 -14 -38
-19 -49 -12 -10 6 -25 3 -32 -9 -19 -32 -56 -23 -43 10 20 52 -130 116 -184
78 -27 -19 -43 -22 -43 -8 0 12 -9 17 -20 10 -54 -34 -11 52 50 99 39 29 70
62 70 74 0 11 -38 -12 -84 -51 -86 -74 -122 -91 -104 -47 18 45 176 154 190
131 8 -12 25 -14 41 -5z m277 10 c0 -27 -99 -135 -99 -109 -1 22 74 128 90
128 5 0 9 -8 9 -19z m618 -176 c-13 -41 -28 -64 -33 -50 -5 14 -17 20 -27 14
-10 -6 -18 13 -18 42 0 38 8 50 28 42 18 -7 34 9 43 43 12 41 17 46 24 19 4
-20 -3 -69 -17 -110z m-1257 -5 c11 0 19 -13 19 -30 0 -16 8 -30 18 -30 9 0
23 -20 30 -45 12 -42 14 -43 40 -10 31 41 61 47 46 9 -5 -14 12 -47 38 -72 26
-25 48 -60 48 -76 0 -27 5 -27 46 0 43 28 49 27 71 -8 27 -44 92 -37 195 22
62 35 165 34 171 -2 1 -10 4 -29 6 -43 7 -42 -92 -200 -178 -285 -119 -117
-279 -235 -287 -211 -12 36 -333 -138 -404 -218 -5 -6 -44 -34 -85 -61 -41
-28 -75 -67 -75 -87 0 -20 -12 -61 -28 -90 -62 -120 -99 -367 -62 -413 11 -14
72 -41 135 -59 99 -28 115 -39 115 -81 0 -55 -93 -30 -199 54 -36 28 -52 32
-58 14 -8 -24 53 -87 101 -103 16 -5 9 -29 -22 -72 l-45 -64 -54 38 c-29 21
-73 44 -99 52 -96 30 -138 247 -65 341 8 11 22 47 31 80 l15 60 26 -60 26 -60
21 56 c12 31 22 72 22 92 0 42 53 213 88 282 14 28 37 91 51 140 14 50 48 153
76 230 36 102 52 192 57 330 7 180 48 320 93 320 8 0 15 26 15 57 0 69 28 103
36 45 4 -23 15 -42 25 -42z m1140 -47 c-17 -17 -27 -16 -39 4 -12 19 -20 14
-30 -20 -12 -44 -15 -45 -40 -12 -29 39 -72 47 -72 14 0 -12 -14 -7 -32 10
-18 18 -27 45 -21 62 14 36 133 40 133 4 1 -17 7 -15 20 5 18 26 22 26 39 1
16 -25 21 -24 35 10 15 36 16 36 23 -8 3 -26 -4 -58 -16 -70z m1347 64 c13
-19 44 -28 79 -23 40 6 52 1 41 -16 -10 -17 -4 -21 17 -13 51 20 103 -75 78
-144 -15 -43 -12 -63 11 -87 36 -36 -58 -184 -106 -166 -14 5 -36 -3 -49 -19
-47 -57 -72 -18 -31 47 9 15 11 31 5 37 -6 6 -2 32 8 58 11 29 10 52 -2 59
-10 7 -19 44 -19 84 0 64 -3 68 -33 43 -30 -24 -31 -23 -10 18 20 36 19 42 -5
33 -15 -6 -35 0 -43 14 -9 15 -7 19 7 11 11 -8 28 -3 36 10 9 14 6 18 -9 9
-13 -8 -23 -3 -23 11 0 13 -13 7 -29 -14 -23 -30 -30 -32 -31 -9 -1 27 -3 27
-20 0 -11 -16 -20 -23 -20 -14 -1 80 104 131 148 71z m-1612 -66 c-4 -28 -23
-42 -61 -44 -62 -5 -64 -1 -31 52 32 51 100 46 92 -8z m1902 -9 c15 -10 21
-28 13 -40 -20 -32 -38 -27 -66 18 -28 44 -1 56 53 22z m-1423 -683 c136 -62
146 -71 144 -128 -4 -138 152 -519 256 -625 47 -48 85 -91 85 -97 0 -5 -110
-9 -245 -9 l-245 0 -35 62 c-19 34 -35 71 -35 84 0 62 -148 174 -231 174 -120
0 -210 37 -284 119 -116 127 -112 192 26 393 49 72 89 151 89 176 0 73 15 72
176 -7 85 -41 219 -105 299 -142z m-662 96 c-86 -156 -123 -215 -137 -215 -8
0 -9 -15 -2 -33 7 -19 5 -28 -6 -22 -51 32 -43 -221 8 -257 25 -17 64 -51 86
-74 33 -36 43 -38 57 -15 14 23 32 16 90 -35 40 -35 80 -64 88 -64 21 0 16
-143 -6 -178 -9 -14 -22 -19 -28 -9 -7 9 -31 26 -53 38 -22 12 -58 59 -79 104
-28 60 -55 87 -94 96 -30 6 -68 33 -86 60 -17 27 -39 47 -48 44 -24 -8 -163
120 -163 149 1 18 6 17 20 -4 16 -24 19 -21 20 16 0 26 -9 41 -20 34 -11 -7
-20 -3 -20 8 0 11 9 25 19 31 11 7 14 25 9 40 -6 15 7 46 29 68 21 21 43 56
47 76 5 20 20 34 35 31 15 -3 54 19 87 50 l60 56 -47 -65 c-44 -61 -61 -72
-92 -60 -16 6 -51 -87 -38 -101 16 -16 70 38 135 135 49 74 150 180 170 181 3
0 -16 -38 -41 -85z m-502 -286 c-93 -137 -60 -235 109 -319 122 -60 280 -193
313 -263 17 -37 40 -67 49 -67 10 0 18 -8 18 -17 0 -44 -198 -73 -465 -69
-288 4 -296 2 -242 -58 18 -20 28 -42 22 -48 -7 -6 -35 25 -64 70 -49 77 -78
94 -191 106 -169 20 75 464 380 689 124 93 145 86 71 -24z m-553 -36 c30 -37
9 -86 -43 -100 -58 -15 -79 3 -63 54 22 71 68 91 106 46z m2341 -422 c22 -26
19 -31 -17 -31 -23 0 -42 9 -42 21 0 11 -15 18 -33 15 -22 -4 -41 18 -59 70
l-27 76 77 -60 c42 -33 87 -74 101 -91z m-859 -115 c0 -34 56 -76 104 -77 43
-2 44 -3 6 -19 -76 -33 -78 -31 -168 150 -5 11 6 8 24 -7 19 -16 34 -36 34
-47z m-69 -110 c7 -57 -19 -59 -76 -6 -26 24 -32 40 -16 40 20 0 21 6 2 28
-18 23 -16 30 13 36 40 9 70 -29 77 -98z m1189 -47 c97 -14 88 -16 -74 -12
-126 2 -192 12 -210 30 -22 23 -10 25 74 13 55 -8 150 -22 210 -31z m909 -30
c45 -46 38 -70 -14 -51 -25 9 -48 31 -51 49 -9 42 24 42 65 2z m-98 -98 c27
-27 49 -64 49 -82 0 -51 -128 31 -136 87 -9 58 26 56 87 -5z m-3051 -31 c44
-44 57 -132 15 -108 -57 33 -95 77 -95 111 0 48 30 47 80 -3z m-171 -111 c50
-51 41 -96 -14 -67 -52 28 -76 59 -62 82 15 25 41 19 76 -15z"/>
<path d="M1350 4859 c-6 -9 21 -23 59 -30 82 -16 89 -34 26 -65 -39 -18 -32
-21 53 -23 l98 -1 -51 47 c-74 69 -166 104 -185 72z"/>
<path d="M1660 4711 c0 -31 66 -52 97 -33 12 8 -4 23 -38 36 -46 18 -59 17
-59 -3z"/>
<path d="M1783 4422 c-11 -7 2 -23 28 -35 37 -17 53 -17 69 3 23 28 -60 55
-97 32z"/>
<path d="M3693 2107 c-31 -32 -7 -47 72 -46 l85 1 -67 29 c-79 34 -73 33 -90
16z"/>
<path d="M4469 1230 c54 -49 102 -85 106 -81 15 15 -36 91 -61 91 -14 0 -41
18 -59 40 -19 22 -46 40 -60 39 -14 0 19 -41 74 -89z"/>
<path d="M4640 1033 c0 -28 62 -93 88 -93 8 0 -2 27 -21 60 -38 63 -67 78 -67
33z"/>
<path d="M2845 4548 c31 -16 66 -24 78 -16 30 19 -20 48 -83 47 l-50 -1 55
-30z"/>
<path d="M3390 4480 c7 -11 34 -20 60 -20 26 0 53 9 60 20 7 12 -17 20 -60 20
-43 0 -67 -8 -60 -20z"/>
<path d="M4120 4341 c-25 -17 -23 -21 10 -22 22 -1 65 -4 96 -6 32 -3 61 3 67
11 5 9 -7 16 -27 16 -20 0 -54 5 -76 11 -22 5 -53 1 -70 -10z"/>
<path d="M3990 4100 c-7 -11 -6 -20 2 -20 8 0 -3 -20 -24 -43 -24 -28 -27 -38
-8 -27 57 31 99 75 88 93 -14 23 -43 22 -58 -3z"/>
<path d="M3454 3952 c-27 -21 -29 -30 -9 -37 26 -10 95 28 95 52 0 22 -48 13
-86 -15z"/>
<path d="M1963 3860 c68 -62 82 -68 102 -48 22 22 -73 108 -120 108 -46 0 -45
-2 18 -60z"/>
<path d="M2090 3900 c-36 -15 -35 -17 13 -19 71 -1 90 -53 26 -70 -62 -15 -65
-71 -4 -72 43 -2 43 -3 5 -17 -38 -15 -37 -17 10 -32 28 -8 56 -24 62 -35 7
-10 41 9 76 43 35 34 56 62 48 62 -9 0 -4 8 11 18 20 12 13 20 -25 30 -29 7
-52 22 -52 32 0 11 -10 20 -21 20 -12 0 -35 14 -52 30 -33 34 -40 34 -97 10z
m168 -118 c37 -24 9 -62 -44 -60 -24 0 -33 6 -20 11 13 5 19 23 13 38 -13 33
9 37 51 11z"/>
<path d="M4908 3405 c-6 -19 -24 -59 -40 -88 -15 -29 -28 -76 -28 -103 0 -28
-11 -55 -25 -60 -20 -7 -20 -14 0 -35 32 -35 165 98 165 166 0 26 11 59 25 74
20 22 19 25 -10 15 -19 -7 -35 -3 -35 8 0 11 -11 14 -23 6 -16 -10 -20 -4 -11
19 7 18 8 33 3 33 -6 0 -15 -16 -21 -35z m0 -142 c-7 -35 -21 -63 -31 -63 -16
0 -4 88 18 126 18 33 25 -1 13 -63z"/>
<path d="M2481 2210 c0 -11 -21 -29 -46 -40 -26 -11 -45 -38 -46 -62 0 -23
-14 -63 -31 -90 -17 -26 -47 -97 -67 -158 -20 -60 -44 -126 -53 -145 -45 -89
3 -101 86 -21 31 29 56 67 56 83 0 16 5 24 12 18 7 -7 31 5 54 26 23 22 57 39
75 39 39 0 91 54 72 74 -7 7 -34 3 -60 -9 -64 -29 -90 -7 -78 70 7 46 20 65
46 65 24 0 34 12 30 35 -11 52 -48 138 -50 115z"/>
<path d="M2830 409 c-214 -29 -246 -40 -305 -105 -45 -50 -11 -122 42 -90 9 6
120 12 246 14 165 3 235 12 246 31 9 14 25 21 35 15 10 -7 31 5 45 25 15 21
42 32 64 26 20 -5 37 0 37 11 0 12 25 8 61 -9 37 -19 133 -33 245 -37 101 -4
198 -8 214 -10 61 -5 221 26 234 46 7 12 1 14 -16 6 -15 -8 -10 0 12 18 36 29
37 35 8 56 -45 34 -684 31 -725 -3 -22 -18 -33 -19 -43 -2 -8 13 -35 17 -64
10 -27 -7 -60 -5 -73 5 -28 23 -38 22 -263 -7z"/>
<path d="M4119 432 c-33 -33 6 -432 42 -432 45 0 47 8 16 65 -20 38 5 121 58
194 10 14 143 16 140 3 -7 -26 48 -102 66 -91 11 6 15 19 9 29 -15 24 46 80
86 80 90 -1 124 -24 124 -85 0 -52 4 -57 32 -34 25 21 39 21 70 3 34 -22 38
-19 38 33 0 67 60 95 126 60 31 -17 36 -35 27 -89 -6 -41 -3 -64 8 -57 11 6
19 42 19 80 0 38 9 69 20 69 11 0 20 -27 20 -60 0 -33 8 -60 19 -60 32 0 44
38 23 77 -18 34 -13 38 58 38 70 0 76 -4 59 -38 -20 -37 32 -153 57 -127 6 6
1 21 -12 34 -33 33 -30 87 7 125 65 64 139 1 120 -102 -12 -62 -9 -67 38 -67
28 0 51 9 51 19 0 11 -13 15 -30 8 -24 -9 -30 7 -31 76 0 99 -96 172 -170 131
-27 -15 -31 -13 -18 8 13 22 10 23 -12 6 -54 -40 -127 -6 -88 42 27 33 30 34
21 5 -6 -19 -2 -35 9 -35 10 0 19 10 19 21 0 12 9 16 20 9 11 -7 20 -3 20 8 0
11 13 16 29 10 16 -6 45 -2 65 10 26 15 -123 21 -527 21 -310 1 -576 6 -591
12 -16 5 -32 6 -37 1z"/>
<path d="M1295 392 c-46 -35 -45 -41 19 -100 97 -90 307 -96 300 -9 -7 96
-234 173 -319 109z"/>
<path d="M5630 400 c19 -31 157 -96 183 -86 13 4 29 -1 36 -13 8 -12 24 -21
37 -21 14 0 12 8 -6 20 -18 12 -20 20 -6 20 13 0 29 -8 35 -19 30 -48 91 -12
91 53 l0 66 -191 0 c-124 0 -187 -7 -179 -20z"/>
<path d="M5440 190 c-38 -46 71 -162 117 -125 25 20 28 20 15 -1 -13 -22 -9
-22 23 -3 52 33 94 99 63 99 -16 0 -15 9 2 30 20 24 19 30 -6 30 -19 0 -34
-21 -38 -55 -7 -60 -62 -81 -116 -45 -24 16 -25 23 -4 37 21 13 20 21 -2 40
-22 18 -34 17 -54 -7z"/>
</g>
</svg>
