<?xml version="1.0" standalone="no"?>
<!DOCTYPE svg PUBLIC "-//W3C//DTD SVG 20010904//EN"
 "http://www.w3.org/TR/2001/REC-SVG-20010904/DTD/svg10.dtd">
<svg version="1.0" xmlns="http://www.w3.org/2000/svg"
 width="236.000000pt" height="195.000000pt" viewBox="0 0 236.000000 195.000000"
 preserveAspectRatio="xMidYMid meet">
<metadata>
Created by potrace 1.10, written by Peter Selinger 2001-2011
</metadata>
<g transform="translate(0.000000,195.000000) scale(0.050000,-0.050000)"
fill="#000000" stroke="none">
<path d="M2240 3847 c0 -24 102 -147 122 -147 11 0 15 9 8 20 -13 22 15 28 36
8 37 -38 -44 -62 -156 -46 -65 8 -126 11 -136 4 -33 -20 34 -45 122 -46 59 0
99 -13 130 -42 l44 -41 -73 13 c-45 8 -78 5 -86 -8 -7 -12 -4 -22 8 -22 11 0
21 -19 21 -42 0 -36 8 -40 52 -29 33 8 47 5 38 -8 -14 -24 -76 -28 -97 -8 -19
20 -117 23 -163 5 -34 -13 -30 -16 20 -18 52 -2 55 -5 20 -20 -38 -16 -38 -17
5 -19 25 0 45 -10 45 -21 0 -11 14 -20 30 -20 17 0 30 -10 30 -21 0 -12 -9
-16 -20 -9 -11 7 -20 -2 -20 -19 0 -39 4 -39 -109 11 -52 23 -100 35 -108 27
-7 -8 -3 -18 10 -23 39 -14 115 -86 90 -86 -31 0 -29 -31 4 -64 14 -14 32 -49
39 -77 21 -82 75 -204 87 -193 5 6 -4 37 -20 69 -28 53 -28 62 0 90 32 32 20
85 -14 64 -11 -6 -19 -3 -19 7 0 24 97 60 154 58 51 -3 85 -123 46 -162 -17
-16 -19 -12 -8 18 14 38 13 39 -25 5 -49 -43 -81 -46 -47 -6 19 24 18 36 -6
60 -27 27 -29 21 -20 -55 23 -192 3 -274 -63 -263 -28 6 -51 -2 -58 -20 -16
-41 67 -33 118 12 23 20 65 39 93 41 29 2 48 14 43 27 -5 12 5 34 23 49 45 38
81 -1 52 -56 -16 -31 -15 -44 3 -53 14 -6 -1 -6 -33 0 -37 7 -65 2 -77 -15
-14 -20 -20 -21 -28 -1 -13 30 -43 2 -84 -78 -36 -69 -132 -118 -113 -57 14
43 -20 57 -37 15 -8 -19 -10 -19 -11 1 -1 15 -11 21 -22 14 -21 -13 -27 21
-20 117 3 51 -1 54 -37 35 -81 -44 -91 -20 -18 43 42 36 75 76 75 90 0 14 9
25 20 25 11 0 19 34 17 75 l-2 75 -15 -70 c-8 -38 -16 -59 -17 -45 -6 54 -74
185 -96 185 -15 0 -10 -27 15 -79 47 -98 50 -136 8 -101 -25 21 -30 19 -30
-11 0 -38 -108 99 -140 177 -14 35 -18 37 -19 9 -1 -37 -41 -50 -41 -14 0 12
-9 16 -19 10 -33 -21 -3 -62 63 -86 35 -14 58 -30 52 -36 -21 -21 -137 52
-159 99 -21 48 -98 59 -155 23 -46 -28 -46 6 -1 53 25 25 39 35 31 21 -8 -14
-5 -25 7 -25 11 0 21 8 21 18 0 10 39 57 86 105 223 227 146 355 -176 295
-338 -62 -494 -170 -906 -625 -122 -135 -172 -225 -74 -133 28 26 50 42 50 35
0 -15 -214 -334 -255 -380 -17 -19 -27 -40 -21 -46 6 -6 30 19 53 55 23 36 42
57 43 46 0 -11 -18 -47 -40 -80 -51 -78 -51 -114 1 -52 91 109 50 17 -61 -140
-66 -92 -120 -174 -120 -182 0 -18 260 257 305 323 19 27 40 43 46 36 13 -12
-84 -165 -137 -219 -154 -153 -394 -647 -394 -810 0 -55 35 -23 46 41 12 76
124 314 172 367 18 20 67 84 110 142 91 125 114 126 43 2 -77 -134 -61 -134
51 1 57 68 107 119 112 113 13 -12 -128 -262 -165 -293 -16 -13 -29 -36 -29
-52 0 -50 194 186 269 328 71 135 233 322 204 235 -22 -64 156 135 267 300
116 171 176 207 70 41 -39 -60 -70 -116 -70 -124 0 -41 253 260 361 430 14 21
25 25 31 10 15 -34 96 10 122 67 16 33 16 50 0 60 -12 7 -25 2 -29 -10 -5 -13
-19 -24 -31 -24 -13 0 -8 14 10 33 22 22 49 28 84 19 56 -14 72 -52 22 -52
-56 0 -30 -59 35 -79 l65 -21 -65 10 c-60 8 -93 -17 -43 -34 11 -4 2 -25 -22
-46 l-43 -39 14 55 c17 70 -17 70 -46 -1 l-22 -55 10 60 c9 57 8 58 -22 21
-17 -22 -31 -28 -31 -14 0 14 -9 20 -20 13 -12 -7 -15 -23 -7 -34 8 -14 4 -16
-13 -6 -20 12 -23 7 -14 -18 8 -19 5 -29 -5 -22 -23 13 -81 -92 -81 -144 1
-23 12 -13 33 29 34 68 74 90 55 30 -7 -20 7 -11 32 20 69 87 129 67 79 -26
-31 -58 -3 -47 54 21 60 71 99 80 65 15 -14 -27 4 -16 44 29 38 40 91 79 118
86 34 9 41 7 23 -6 -19 -14 -21 -23 -5 -33 13 -8 17 -22 11 -33 -6 -10 -20
-14 -30 -7 -10 6 -13 -3 -7 -20 15 -37 -49 -67 -71 -33 -11 18 -21 16 -41 -8
-22 -26 -21 -29 7 -18 24 9 33 1 33 -31 0 -49 -101 -161 -145 -161 -15 0 -59
-28 -96 -62 -85 -76 -151 -111 -319 -171 -71 -25 -109 -46 -84 -47 l46 0 -49
-65 c-27 -36 -82 -132 -123 -215 -41 -82 -94 -177 -119 -210 -112 -153 -73
-142 50 14 43 55 79 97 79 93 0 -4 -19 -56 -42 -117 -27 -69 -42 -150 -40
-216 4 -137 -39 -211 -148 -253 -76 -29 -226 -140 -347 -256 -25 -25 -69 -94
-97 -155 -115 -250 -125 -280 -86 -280 11 0 20 17 20 38 0 20 12 47 28 60 15
13 32 49 39 82 12 61 142 220 179 220 11 0 2 -20 -20 -45 -101 -111 -133 -242
-87 -362 30 -79 61 -65 36 17 -41 134 85 357 251 443 71 37 93 21 44 -33 -53
-59 -12 -48 79 21 45 34 93 55 112 49 32 -11 124 77 234 221 l44 59 -40 -98
c-61 -150 6 -79 91 96 50 102 69 128 70 92 0 -27 -14 -76 -30 -107 -34 -65
-38 -93 -13 -93 33 0 148 285 162 401 18 154 41 175 42 37 0 -86 4 -101 22
-71 11 20 21 67 21 105 0 37 7 68 16 68 27 0 106 -207 113 -299 3 -49 16 -98
27 -109 11 -11 20 -29 20 -41 0 -12 -9 -7 -20 9 -13 20 -19 22 -20 5 0 -14
-18 -25 -40 -25 -46 0 -71 -73 -52 -150 17 -65 52 -64 52 1 0 42 7 49 38 40
21 -7 44 -3 51 8 24 38 48 22 93 -59 58 -102 77 -101 72 4 l-4 84 115 4 c106
3 118 -1 142 -47 26 -48 27 -48 38 -9 16 61 -28 131 -95 151 -90 27 -115 42
-139 84 -11 22 -32 46 -46 55 -14 9 -44 53 -67 98 -28 56 -47 74 -57 57 -22
-35 -45 6 -28 49 10 27 16 28 29 7 12 -19 17 -19 18 -3 0 13 -9 29 -20 36 -11
7 -20 20 -20 30 0 20 172 -51 220 -89 152 -124 251 64 149 280 -61 129 -61
129 -146 39 -37 -38 -75 -71 -85 -72 -10 -2 -26 -4 -36 -5 -10 -2 -25 -10 -34
-18 -31 -32 74 -13 135 24 60 36 66 37 89 5 35 -48 -38 -121 -83 -83 -17 14
-36 19 -43 12 -7 -7 -2 -13 12 -13 13 0 19 -8 13 -18 -13 -21 -115 24 -150 67
-43 52 140 210 211 183 32 -12 39 39 8 58 -28 17 -1 114 43 152 20 18 37 42
37 53 0 34 51 65 122 73 37 4 74 9 82 10 7 1 27 16 45 33 17 18 31 23 31 12 0
-11 -13 -33 -29 -49 -16 -16 -23 -35 -16 -42 7 -7 15 -24 18 -38 2 -13 9 -45
15 -72 6 -26 1 -65 -11 -87 -15 -29 -15 -36 1 -26 30 18 28 -55 -2 -85 -18
-18 -18 -24 -1 -24 13 0 32 16 43 35 26 44 30 -3 4 -51 -28 -54 -49 -222 -22
-179 36 57 51 40 44 -50 -4 -50 6 -109 23 -144 44 -83 19 -104 -48 -40 -32 31
-53 63 -47 72 6 9 -4 17 -21 17 -17 0 -31 10 -31 21 0 12 10 15 22 8 13 -8 12
5 -4 34 l-26 47 -19 -68 c-18 -61 -15 -71 33 -106 30 -22 88 -90 129 -153 40
-62 108 -157 149 -210 87 -110 92 -137 36 -193 -46 -46 -43 -48 29 -20 29 11
60 40 70 65 18 45 18 45 20 -6 0 -27 -13 -71 -31 -96 -45 -64 -18 -79 42 -23
76 72 20 270 -76 270 -11 0 -33 38 -49 85 -20 61 -39 85 -67 85 -21 0 -38 13
-38 28 0 15 -13 33 -30 39 -16 7 -30 22 -30 34 0 12 8 17 17 11 10 -6 14 25 8
68 -5 50 -1 80 13 80 12 0 22 -22 22 -50 0 -31 11 -50 30 -50 17 0 30 -13 30
-29 0 -35 93 -251 108 -251 5 0 4 34 -2 75 -13 85 11 75 49 -21 17 -43 22 -48
15 -14 -33 146 -36 186 -13 172 13 -8 24 -39 25 -68 0 -30 14 -85 30 -124 l28
-70 -8 120 c-4 66 -3 107 3 90 5 -16 45 -105 88 -196 42 -92 77 -183 77 -204
0 -21 9 -43 20 -50 13 -8 20 41 20 131 l0 143 95 -105 c52 -57 121 -144 153
-192 71 -108 82 -103 40 21 -18 52 -27 100 -21 106 21 21 117 -219 131 -324
l13 -100 36 90 c21 50 46 113 57 140 32 81 100 -152 91 -315 -4 -69 0 -125 9
-125 9 0 16 4 16 9 0 5 13 59 29 120 60 229 56 669 -6 656 -13 -3 -23 13 -23
35 0 23 -13 40 -31 40 -23 0 -28 -12 -19 -40 21 -66 -10 -45 -40 28 -40 94
-236 199 -247 132 -7 -47 32 -106 58 -89 10 6 46 -19 81 -55 34 -36 71 -64 80
-61 10 3 23 -20 30 -50 20 -81 33 -97 48 -55 11 32 18 29 56 -25 41 -57 42
-125 2 -125 -28 0 -98 67 -98 94 0 14 -23 31 -50 38 -28 7 -63 30 -78 51 -40
57 -165 116 -190 91 -15 -15 -31 2 -52 52 -17 41 -35 74 -41 74 -6 0 -6 -11 1
-25 7 -14 0 -9 -16 10 -39 48 -59 44 -45 -10 12 -42 10 -41 -17 5 -34 56 -41
88 -15 72 9 -6 10 32 2 84 -8 52 -11 101 -6 109 5 8 0 15 -12 15 -11 0 -22
-16 -22 -35 -1 -26 -8 -22 -25 15 -13 28 -31 56 -41 62 -9 7 10 27 44 43 44
22 64 24 70 8 7 -16 10 -15 11 2 3 36 42 31 42 -5 0 -16 -7 -30 -15 -30 -14 0
-17 -100 -7 -220 l5 -50 19 50 c11 27 15 70 9 95 -8 29 -3 45 14 45 18 1 17 6
-3 19 -25 15 -24 27 3 82 31 64 31 64 58 22 31 -51 97 -57 97 -10 0 31 3 31
37 0 23 -21 51 -29 73 -20 25 10 33 5 25 -15 -5 -15 -20 -26 -32 -23 -14 3
-23 -24 -23 -67 0 -48 8 -68 25 -62 14 4 23 28 20 53 -3 25 13 70 35 101 22
31 40 69 40 85 0 44 23 57 55 31 21 -18 31 -18 43 1 10 16 28 9 60 -25 26 -27
40 -59 33 -71 -7 -11 -3 -21 9 -21 12 0 17 -8 11 -18 -6 -9 17 -29 50 -42 68
-28 99 -75 98 -144 0 -41 -2 -42 -21 -11 -11 20 -30 30 -43 22 -12 -7 -43 13
-68 45 -26 32 -47 46 -47 32 0 -20 -9 -20 -42 -3 -54 29 -57 24 -38 -71 9 -46
16 -60 18 -34 3 60 42 36 42 -26 0 -26 8 -53 19 -59 11 -7 14 19 8 64 -8 56
-5 68 11 45 12 -16 22 -55 22 -86 0 -31 13 -60 31 -67 35 -14 109 -157 109
-212 0 -21 9 -55 21 -76 11 -21 28 -77 38 -124 10 -47 42 -143 73 -215 30 -71
54 -148 52 -169 -1 -22 6 -49 17 -62 10 -12 41 -80 69 -151 l52 -128 -11 93
c-12 112 -69 240 -99 223 -13 -7 -12 -1 2 14 18 20 16 36 -8 73 -17 26 -25 47
-19 47 7 0 37 -38 66 -85 29 -47 92 -131 141 -188 48 -56 101 -144 118 -195
18 -50 39 -96 47 -101 19 -12 -6 131 -29 169 -9 14 25 -2 75 -37 91 -62 195
-227 195 -308 0 -21 8 -32 18 -26 49 30 -55 300 -168 441 -120 149 -255 359
-313 488 -59 131 -65 195 -8 84 17 -33 81 -116 141 -184 61 -68 110 -134 110
-148 0 -14 15 -37 33 -52 77 -64 -4 101 -200 410 -62 98 -113 191 -113 206 0
46 -100 228 -119 216 -10 -6 -24 -2 -31 10 -7 11 -1 20 12 20 15 0 10 15 -12
40 -71 78 -12 62 78 -21 51 -46 92 -74 92 -63 0 29 -182 247 -251 301 -70 55
-44 55 45 1 126 -78 88 -26 -65 88 -148 110 -150 113 -95 126 93 22 100 36 26
50 -38 8 -133 30 -210 49 -77 19 -171 31 -210 28 -342 -33 -732 50 -763 163
-48 170 -83 357 -87 464 -3 68 -6 131 -7 140 -2 9 -32 43 -67 75 -50 46 -59
64 -40 83 19 19 29 19 48 0 49 -49 62 -37 172 156 42 73 39 340 -4 364 -17 10
-32 33 -32 52 0 19 -10 48 -21 64 -15 22 -17 14 -7 -28 l14 -58 -88 61 c-48
33 -106 80 -128 105 -43 47 -150 110 -150 87z m-515 -297 c-6 -29 -19 -43 -36
-37 -37 14 -55 71 -26 89 40 24 72 -1 62 -52z m-230 -47 c20 -24 31 -25 49 -7
33 33 63 30 49 -5 -7 -19 -1 -25 18 -18 18 7 29 -1 29 -21 0 -18 10 -32 21
-32 12 0 15 -10 8 -22 -10 -16 -19 -14 -31 5 -12 20 -29 14 -72 -27 l-56 -54
-35 43 c-19 24 -35 50 -35 59 0 9 -14 16 -31 16 -18 0 -25 10 -18 22 10 15 20
15 35 0 33 -33 51 -26 40 16 -10 38 -36 43 -80 16 -13 -8 -29 -6 -35 4 -36 59
98 63 144 5z m-240 -35 c-16 -16 30 -67 50 -55 23 14 18 -22 -6 -46 -14 -14
-11 -29 11 -47 18 -15 31 -18 29 -8 -8 40 3 48 39 29 61 -32 66 -98 11 -146
-27 -23 -49 -51 -49 -62 0 -11 25 4 56 33 172 165 136 -22 -45 -236 l-51 -60
9 58 c5 33 43 93 84 135 41 42 70 81 64 87 -6 5 -94 -80 -197 -190 -174 -186
-220 -225 -220 -183 0 23 136 164 219 227 l68 53 -27 112 c-14 61 -38 121 -52
133 -14 11 -21 34 -15 49 12 32 -33 40 -64 12 -10 -10 -50 -23 -87 -31 -68
-12 -68 -12 -31 29 20 22 49 36 64 30 17 -7 22 -2 13 13 -10 15 -4 19 16 11
17 -6 42 5 57 27 15 21 36 38 47 38 10 0 13 -5 7 -12z m1333 -106 c46 -39 33
-194 -16 -186 -22 4 -31 -2 -23 -15 8 -13 -7 -21 -38 -21 -28 0 -58 0 -66 -1
-8 -1 -18 15 -21 35 -5 30 -3 31 14 7 36 -53 47 -5 12 54 -56 95 53 197 138
127z m-1413 -110 c-36 -27 -47 -82 -20 -99 28 -17 90 43 73 71 -11 18 -5 18
20 -3 34 -27 33 -31 -16 -66 -43 -32 -47 -43 -27 -75 20 -32 15 -47 -26 -91
-58 -62 -134 -109 -107 -66 9 14 17 44 19 65 1 21 19 50 39 65 21 15 32 32 26
38 -6 6 -25 -3 -42 -20 -39 -39 -62 -40 -47 -2 7 17 -7 43 -31 60 -36 25 -38
31 -11 42 17 6 35 28 41 49 8 32 45 48 124 57 11 1 4 -10 -15 -25z m-214 -90
c-12 -23 -14 -42 -4 -42 35 0 40 -148 6 -186 -28 -33 -28 -35 3 -23 24 9 34 3
34 -20 0 -22 9 -28 25 -18 38 24 -65 -95 -146 -167 -100 -89 -87 31 12 124 40
36 41 43 13 69 -28 26 -30 26 -19 -3 7 -18 1 -43 -13 -54 -20 -17 -26 -7 -28
43 -4 86 54 278 93 310 40 33 51 18 24 -33z m-180 -205 c-26 -35 -36 -56 -24
-49 36 22 26 -13 -18 -66 -22 -26 -46 -42 -52 -35 -7 6 -2 24 10 39 12 15 18
33 11 39 -12 12 48 116 81 139 41 29 37 -7 -8 -67z m-12 -160 c-10 -31 -7 -38
12 -26 16 10 20 7 11 -8 -8 -13 -23 -19 -32 -13 -22 14 -32 -4 -50 -90 -14
-62 -12 -67 17 -42 56 46 36 8 -37 -72 -38 -42 -61 -79 -50 -83 42 -14 -112
-236 -162 -234 -6 1 -28 -12 -48 -29 -20 -16 -4 15 35 70 40 55 91 116 115
136 23 19 36 44 29 56 -8 12 -23 6 -39 -16 -23 -30 -24 -25 -4 37 13 41 29 70
37 65 8 -5 11 11 6 36 -9 48 30 156 57 156 9 0 10 10 2 23 -9 14 -5 18 8 9 13
-7 34 5 48 27 34 54 62 53 45 -2z m1128 -42 c3 -47 7 -107 9 -135 3 -31 -6
-49 -25 -50 -16 0 -34 -22 -41 -48 -17 -75 -85 -73 -129 4 -20 35 -25 53 -10
39 41 -38 63 -30 40 14 -28 52 -26 74 3 45 36 -36 54 -29 42 17 -8 27 -2 39
16 35 14 -3 27 5 27 17 1 13 8 30 16 39 25 24 17 52 -10 36 -14 -8 -8 5 13 29
21 23 39 43 41 43 1 0 5 -38 8 -85z m-914 -82 c-22 -24 -40 -50 -40 -60 0 -9
-6 -22 -15 -30 -8 -7 -7 0 2 15 11 19 9 24 -7 14 -13 -8 -23 -26 -23 -39 0
-14 -36 -60 -80 -103 -44 -43 -80 -68 -80 -55 0 12 10 29 22 36 12 8 18 35 13
61 -7 38 16 71 112 163 121 114 203 113 96 -2z m1505 55 c38 -15 41 -85 5
-132 -24 -31 -29 -28 -49 38 -29 94 -18 118 44 94z m-27 -263 c15 -58 38 -105
52 -105 15 0 21 -13 14 -30 -6 -16 -1 -30 11 -30 12 0 22 14 22 31 0 17 9 26
19 19 13 -7 13 -30 0 -62 -10 -28 -12 -46 -4 -42 8 5 38 -13 65 -40 40 -38 42
-45 12 -34 -29 11 -35 8 -24 -14 11 -21 9 -21 -12 2 -69 78 -99 90 -85 33 7
-29 5 -53 -5 -53 -9 0 -27 47 -40 105 -12 58 -33 141 -46 185 -13 44 -28 107
-33 140 -14 92 23 20 54 -105z m-801 5 c-34 -41 -45 -145 -16 -162 13 -9 17
-5 9 8 -8 12 4 31 25 43 69 37 86 23 44 -37 -23 -32 -53 -92 -67 -133 -14 -42
-35 -79 -48 -83 -37 -13 -44 41 -16 124 15 43 21 83 13 89 -29 21 -12 120 27
158 45 44 67 39 29 -7z m320 35 c-1 -39 -26 -105 -41 -105 -12 0 -13 70 0 115
3 13 41 3 41 -10z m-127 -90 c-6 -25 -3 -58 7 -75 12 -19 8 -39 -11 -59 -90
-97 -120 -136 -126 -162 -3 -16 -20 -45 -38 -64 -17 -19 -23 -35 -13 -35 24 0
88 74 88 101 0 26 104 129 148 145 51 20 38 -13 -27 -67 -33 -27 -60 -56 -60
-65 -1 -19 -117 -134 -135 -134 -55 0 -82 66 -45 106 35 37 48 75 41 119 -1 8
7 15 18 15 11 0 20 10 20 21 0 12 13 35 29 50 15 16 38 29 50 29 31 0 26 22
-14 53 -33 26 -33 26 0 15 22 -8 39 0 47 20 18 48 34 38 21 -13z m-303 -40
c-8 -25 -21 -90 -28 -145 l-14 -100 -17 77 c-12 57 -8 95 16 145 36 77 65 92
43 23z m-87 -135 c-4 -77 0 -140 10 -140 9 0 18 -45 20 -99 2 -91 0 -97 -35
-75 -21 13 -38 39 -38 58 0 18 -9 39 -20 46 -11 7 -20 26 -20 42 0 17 7 26 15
21 8 -5 17 34 20 87 4 84 33 200 50 200 4 0 3 -63 -2 -140z m-83 0 c-11 -20
-20 -58 -20 -84 -1 -31 -6 -38 -17 -21 -12 20 -23 18 -45 -10 -46 -56 -118
-162 -118 -174 0 -5 -17 -38 -38 -73 l-38 -62 4 77 c5 89 49 184 70 150 9 -14
27 0 48 35 30 51 30 59 3 70 -21 8 -44 -11 -72 -58 -41 -70 -57 -85 -57 -53 0
20 176 248 206 267 41 25 97 -22 74 -64z m1308 -135 c8 -8 43 -26 78 -38 l64
-24 -74 -1 c-55 -2 -80 8 -96 38 -21 39 -2 55 28 25z m-1398 -106 c-46 -87
-60 -61 -16 30 19 41 38 65 42 54 3 -11 -8 -49 -26 -84z m110 -31 c0 -17 -9
-25 -19 -19 -11 7 -35 -12 -55 -42 -26 -40 -29 -56 -10 -62 13 -5 18 -19 10
-32 -7 -13 2 -11 20 4 19 16 34 20 34 9 0 -26 -130 -149 -144 -135 -6 6 -21
-16 -33 -50 -31 -90 -61 -75 -36 18 11 43 28 74 36 69 9 -5 22 15 30 46 41
168 167 314 167 194z m1300 -58 c22 4 44 -1 51 -11 6 -11 37 -19 68 -19 40 0
59 -12 67 -40 13 -49 -3 -51 -38 -5 -25 33 -27 33 -27 0 -1 -47 -24 -44 -93
10 l-58 45 38 -60 c56 -85 119 -151 101 -105 -8 20 -4 35 9 35 12 0 22 -10 22
-22 0 -17 7 -17 26 -1 41 34 119 -78 145 -206 26 -134 24 -135 -31 -21 -44 91
-69 110 -86 65 -5 -14 -18 7 -30 45 -11 39 -21 54 -22 35 -3 -51 -28 -43 -67
20 -52 84 -117 161 -103 120 19 -55 -23 -41 -49 16 -28 62 -29 75 -3 59 26
-16 25 3 -1 52 -12 21 -29 34 -39 28 -9 -6 -24 0 -32 13 -9 14 -6 18 9 9 13
-8 23 -4 23 10 0 13 18 0 40 -28 26 -32 56 -49 80 -44z m-1500 -78 c-64 -142
-95 -220 -109 -272 -27 -99 -77 -198 -106 -209 -50 -19 -52 3 -7 66 24 33 74
149 113 257 88 246 112 294 131 263 8 -13 -2 -60 -22 -105z m1384 71 c15 20
17 18 8 -9 -7 -20 -2 -55 10 -77 12 -22 17 -45 11 -51 -13 -13 -73 104 -71
138 1 20 4 20 12 -1 9 -23 14 -23 30 0z m-1532 -196 c-17 -38 -33 -84 -33
-103 -2 -28 -4 -28 -17 5 -22 56 39 244 64 199 13 -22 8 -55 -14 -101z m760
-70 c18 -35 50 -82 71 -104 21 -23 33 -54 27 -69 -5 -15 -10 -38 -10 -51 0
-12 -21 11 -46 53 -25 41 -52 69 -60 61 -15 -15 -19 5 -22 108 -2 80 -1 80 40
2z m1133 -132 c6 -19 17 -51 25 -70 9 -22 5 -35 -9 -35 -13 0 -18 8 -12 18 6
10 3 22 -6 25 -26 10 -49 97 -27 97 11 0 24 -16 29 -35z m1030 -125 c6 -16 13
-41 16 -55 3 -14 25 -58 48 -97 23 -40 60 -127 83 -195 40 -119 92 -225 166
-338 67 -101 21 -57 -84 82 -108 142 -252 458 -283 623 -20 104 -2 156 24 69
10 -32 23 -72 30 -89z m-74 -35 c13 -41 64 -173 112 -292 95 -239 108 -295 55
-251 -20 17 -24 29 -10 34 16 5 14 23 -6 61 -95 179 -191 404 -202 470 -16 96
18 82 51 -22z m-593 -3 c18 -20 39 -72 45 -115 l12 -77 -54 79 c-84 120 -86
205 -3 113z"/>
<path d="M1906 3146 c-2 -21 15 -50 37 -64 60 -37 66 -14 12 48 -41 47 -47 49
-49 16z"/>
<path d="M2110 2380 c7 -11 25 -20 41 -20 18 0 29 -20 29 -51 0 -29 -9 -46
-20 -39 -11 7 -20 0 -20 -15 0 -41 89 -29 97 13 4 21 18 30 35 24 16 -6 28 1
28 18 0 19 -12 24 -35 16 -30 -12 -31 -9 -9 18 21 26 19 33 -7 44 -52 20 -153
14 -139 -8z"/>
<path d="M2172 2135 c-10 -38 -15 -40 -32 -15 -17 26 -19 26 -20 -1 0 -68 174
-117 210 -59 7 11 -3 20 -21 20 -26 0 -30 12 -20 55 13 53 12 53 -17 15 -27
-36 -31 -36 -31 -5 -1 51 -54 43 -69 -10z"/>
<path d="M3600 1911 c0 -26 -8 -28 -40 -11 -32 17 -40 15 -40 -9 0 -17 -9 -31
-20 -31 -11 0 -20 -9 -20 -19 0 -11 14 -15 30 -8 17 6 30 1 30 -11 0 -32 23
-26 77 18 43 36 44 42 15 71 -29 29 -32 29 -32 0z"/>
<path d="M3218 1742 c26 -20 65 -32 85 -27 56 15 44 39 -25 53 -99 19 -112 14
-60 -26z"/>
<path d="M3511 1713 c7 -36 3 -52 -10 -43 -25 15 -27 -10 -4 -46 35 -55 62 20
31 86 l-28 60 11 -57z"/>
<path d="M3140 1663 c0 -11 -6 -35 -13 -55 -9 -21 -6 -30 7 -22 11 7 39 -5 62
-26 41 -39 42 -39 54 0 16 50 -5 86 -42 72 -15 -6 -25 -1 -23 11 3 12 -6 26
-20 31 -14 5 -25 0 -25 -11z"/>
<path d="M3741 1329 c-1 -12 9 -75 22 -140 12 -66 23 -130 23 -144 0 -14 8
-25 17 -25 9 0 10 -14 4 -32 -10 -25 -16 -26 -29 -5 -32 51 -20 -24 31 -192
28 -88 57 -188 65 -221 l14 -60 8 70 8 70 33 -62 c18 -34 50 -94 72 -135 62
-118 70 -84 18 80 -27 85 -41 159 -32 165 9 7 -3 61 -27 120 -32 79 -47 98
-54 70 -8 -32 -10 -30 -12 8 -1 26 -11 41 -22 34 -12 -8 -20 22 -20 74 -1 124
-114 433 -119 325z"/>
</g>
</svg>
