<?xml version="1.0" standalone="no"?>
<!DOCTYPE svg PUBLIC "-//W3C//DTD SVG 20010904//EN"
 "http://www.w3.org/TR/2001/REC-SVG-20010904/DTD/svg10.dtd">
<svg version="1.0" xmlns="http://www.w3.org/2000/svg"
 width="300.000000pt" height="466.000000pt" viewBox="0 0 300.000000 466.000000"
 preserveAspectRatio="xMidYMid meet">
<metadata>
Created by potrace 1.10, written by Peter Selinger 2001-2011
</metadata>
<g transform="translate(0.000000,466.000000) scale(0.050000,-0.050000)"
fill="#000000" stroke="none">
<path d="M2719 9261 c55 -77 210 -212 305 -266 42 -23 76 -50 76 -59 0 -36
-121 -12 -222 45 -229 128 -603 281 -628 255 -19 -18 161 -131 230 -143 94
-17 368 -175 376 -216 9 -49 -83 -63 -171 -26 -195 83 -467 167 -581 178 -70
7 -140 18 -155 24 -18 7 -29 -1 -29 -20 0 -21 25 -35 75 -42 369 -54 818 -211
604 -211 -23 0 -36 -8 -30 -18 14 -24 -38 -35 -289 -62 -508 -56 -890 -156
-849 -222 6 -10 36 -6 65 9 113 56 307 83 334 47 22 -31 35 -31 177 7 202 52
393 73 393 41 0 -13 -14 -29 -31 -35 -67 -26 171 -110 244 -86 59 20 71 17
117 -29 l51 -51 -60 12 c-79 16 -77 0 4 -47 l65 -39 44 53 c111 135 409 189
556 102 286 -170 652 -308 713 -270 44 27 -15 127 -90 155 -28 10 -35 6 -26
-17 18 -46 -20 -36 -61 16 -20 26 -78 63 -129 83 -98 37 -130 88 -97 151 12
22 10 42 -5 57 -17 17 -17 23 0 23 40 0 125 -45 125 -67 0 -11 6 -14 13 -7 7
8 23 6 35 -4 14 -12 51 -4 98 18 137 67 253 26 254 -90 1 -55 3 -57 29 -24 20
26 22 54 10 98 -17 60 -17 60 22 25 65 -58 45 5 -26 82 -55 60 -82 73 -175 82
-60 6 -119 19 -129 29 -31 30 -76 21 -64 -12 7 -16 4 -30 -5 -30 -10 0 -23 20
-29 44 -6 24 -17 39 -23 32 -7 -6 -84 23 -172 66 -145 71 -172 78 -317 76
-202 -2 -317 48 -504 220 -147 134 -182 153 -118 63z m693 -318 c-6 -10 -63
-23 -126 -29 -64 -7 -138 -17 -166 -24 l-50 -11 50 23 c89 42 312 73 292 41z
m263 -92 c58 -20 105 -44 105 -54 0 -10 -20 -8 -45 5 -45 24 -45 24 -7 -19 43
-49 33 -51 -74 -22 -41 12 -70 30 -63 41 7 12 -7 16 -34 10 -307 -66 -471 -88
-387 -52 35 15 35 17 5 19 -20 0 -55 -10 -78 -24 -33 -20 -44 -20 -51 0 -7 19
-23 17 -69 -7 -34 -17 -56 -36 -51 -41 6 -6 29 -1 51 11 49 27 69 28 54 4 -6
-10 -38 -28 -72 -39 -33 -12 -56 -14 -50 -4 26 41 -46 32 -100 -13 -39 -33
-44 -42 -15 -28 29 15 48 15 56 2 12 -19 -7 -24 -100 -29 -22 -1 -40 -13 -40
-26 0 -13 -22 -40 -49 -59 l-49 -34 48 79 49 79 -82 -85 c-72 -76 -147 -111
-147 -70 0 20 193 174 203 163 4 -4 34 12 65 37 32 25 71 45 88 45 17 0 47 15
67 33 20 18 58 35 85 38 28 3 60 12 73 20 103 63 452 75 614 20z m87 -152 c55
-14 91 -12 145 11 39 16 110 29 157 28 94 -2 101 3 -74 -52 -55 -18 -217 -17
-363 3 -67 9 -157 10 -200 2 l-77 -15 60 -30 c33 -16 117 -89 187 -163 71 -74
132 -122 137 -109 10 27 66 12 66 -17 0 -11 -11 -13 -25 -4 -17 10 -16 4 2
-19 63 -77 -157 33 -257 129 -38 37 -76 65 -84 62 -7 -2 -19 14 -26 36 -7 22
-20 35 -29 30 -8 -5 -36 12 -61 39 l-46 49 48 18 c26 10 66 23 88 29 50 14
256 -2 352 -27z m-582 -122 c0 -23 -121 -10 -141 14 -36 44 -5 61 38 21 36
-32 37 -31 28 22 l-10 56 42 -53 c24 -29 43 -56 43 -60z m-155 -12 c11 -14 12
-25 1 -25 -10 0 -29 11 -43 25 -20 20 -23 18 -12 -10 15 -40 -12 -46 -47 -11
-32 32 -30 56 4 56 15 0 35 16 43 35 14 32 16 31 24 -5 5 -22 18 -51 30 -65z
m242 50 c9 -35 -32 -40 -82 -8 -40 24 -29 43 24 43 30 0 53 -14 58 -35z m296
19 c-16 -20 -16 -33 1 -50 13 -13 19 -28 13 -33 -5 -6 -30 16 -54 49 l-44 60
53 0 c42 0 48 -6 31 -26z m-733 -94 c-19 30 42 24 67 -7 28 -33 10 -54 -32
-38 -24 9 -29 3 -19 -22 12 -30 8 -30 -42 2 -51 33 -53 33 -26 -1 38 -47 19
-60 -34 -23 -62 44 -21 114 51 87 31 -12 43 -11 35 2z"/>
<path d="M5396 9275 c-6 -30 -2 -55 9 -55 11 0 15 -12 9 -26 -11 -30 59 -42
77 -13 6 10 -3 13 -19 7 -21 -8 -34 5 -43 45 -7 31 -15 66 -17 77 -3 11 -10
-5 -16 -35z"/>
<path d="M5917 9300 c-6 -16 -4 -45 5 -63 12 -22 6 -42 -16 -60 -29 -23 -32
-23 -22 5 7 17 4 44 -6 60 -13 19 -17 -3 -15 -67 4 -85 46 -132 48 -53 1 53
32 86 51 55 14 -21 17 -19 18 8 0 19 -8 35 -19 35 -10 0 -21 25 -25 55 -4 36
-11 45 -19 25z"/>
<path d="M5869 8826 c6 -13 2 -29 -9 -36 -12 -7 -13 -26 -3 -46 10 -19 14 -47
9 -64 -8 -25 -6 -25 11 -2 10 16 14 42 8 59 -8 21 -3 26 18 18 18 -7 30 0 30
17 0 15 -4 24 -9 18 -6 -5 -23 6 -39 25 -15 19 -23 24 -16 11z"/>
<path d="M5851 8622 c-6 -10 -3 -39 8 -65 15 -38 19 -40 20 -10 1 25 11 33 31
26 17 -7 30 -5 30 4 0 33 -27 42 -57 18 -26 -21 -28 -19 -17 10 13 37 4 48
-15 17z"/>
<path d="M2157 8471 c-249 -88 -546 -250 -515 -279 19 -18 397 124 488 183 88
57 150 80 150 57 0 -15 -137 -234 -143 -229 -4 3 -27 -12 -52 -34 -25 -21 -57
-40 -70 -41 -14 -1 -54 -3 -90 -5 -36 -2 -65 -11 -65 -21 0 -10 11 -17 25 -17
105 4 129 -33 42 -66 -29 -11 -124 -74 -211 -140 -88 -66 -187 -134 -220 -151
-33 -17 -55 -36 -49 -42 6 -5 31 4 56 22 47 33 157 44 157 17 0 -20 -200 -68
-223 -53 -9 6 -17 0 -17 -12 0 -12 -8 -18 -17 -12 -10 6 -38 -7 -63 -28 -26
-22 -47 -40 -48 -40 -1 0 -31 -8 -67 -19 -37 -10 -69 -11 -75 0 -13 19 139
104 156 87 14 -15 89 26 168 90 35 29 104 81 153 116 69 50 87 74 79 105 -6
23 -1 41 11 41 12 0 32 20 45 45 19 37 18 41 -4 20 -34 -33 -115 -32 -255 3
-259 64 -358 49 -118 -18 242 -67 300 -129 159 -171 -94 -28 -492 -15 -646 21
-61 15 -128 21 -148 13 -45 -18 -36 -27 42 -39 34 -5 81 -20 104 -32 23 -12
60 -22 83 -22 23 0 66 -15 95 -34 39 -26 86 -33 179 -29 209 9 147 -30 -429
-273 -271 -115 -245 -146 46 -56 150 47 164 36 89 -70 -51 -70 -52 -70 91 -7
200 88 191 50 -31 -134 -310 -256 -419 -384 -201 -237 48 33 96 60 106 60 10
0 43 19 75 42 32 24 87 46 124 51 48 5 97 38 180 120 70 70 125 108 143 101
16 -6 37 -3 47 7 10 10 51 9 97 -2 44 -10 114 -18 155 -19 67 0 74 -5 70 -50
-4 -48 -9 -50 -134 -49 -166 2 -219 19 -173 57 18 15 32 36 32 47 0 12 -21 -2
-47 -30 -26 -28 -87 -72 -135 -98 -78 -42 -278 -221 -278 -248 0 -6 40 13 90
42 102 60 112 47 39 -52 l-51 -69 72 -6 c63 -6 69 -11 47 -38 -18 -21 -2 -18
54 12 118 64 474 60 466 -5 -3 -24 2 -55 11 -69 31 -51 -8 -49 -131 4 -72 31
-129 46 -135 34 -19 -29 -116 -48 -131 -24 -8 14 -29 14 -67 0 -30 -12 -90
-28 -134 -37 l-80 -16 65 -24 c73 -28 79 -55 34 -143 l-31 -60 54 35 53 35 -8
-75 c-7 -54 -2 -72 16 -65 34 14 57 -26 30 -53 -14 -14 -58 -8 -147 23 -210
73 -235 79 -246 61 -14 -22 29 -43 208 -99 101 -32 151 -58 157 -83 5 -20 18
-32 27 -26 36 23 59 -12 36 -55 -18 -33 -16 -45 8 -59 18 -10 26 -33 20 -56
-9 -36 -25 -38 -296 -27 -290 12 -375 3 -336 -36 11 -11 111 -22 222 -25 169
-3 211 -10 258 -45 31 -23 90 -53 132 -67 147 -48 92 -95 -166 -141 -161 -29
-217 -70 -70 -52 55 6 134 17 175 24 103 17 93 -12 -27 -78 -108 -59 -121 -97
-20 -55 88 36 122 15 47 -29 -61 -36 -161 -150 -132 -150 8 0 47 22 86 49 164
113 202 89 74 -47 -128 -135 -136 -171 -23 -104 122 72 138 49 70 -101 -51
-114 -54 -207 -5 -188 62 25 74 22 78 -19 33 -296 29 -282 56 -232 14 26 30
39 36 30 16 -25 41 -168 31 -168 -5 0 -75 23 -156 50 -86 29 -155 43 -166 32
-10 -10 56 -41 159 -73 209 -67 221 -74 237 -150 18 -82 52 -96 37 -15 -14 73
-5 68 79 -48 59 -80 70 -126 27 -110 -31 12 -442 39 -576 39 -188 -1 -217 -5
-217 -32 0 -21 44 -24 211 -17 169 7 217 3 245 -21 18 -17 65 -37 102 -45 145
-31 10 -57 -166 -33 -202 29 -226 29 -200 3 11 -11 96 -30 189 -41 245 -31
249 -52 12 -72 -201 -17 -197 -47 7 -47 182 0 198 -19 75 -85 l-85 -45 80 -6
c93 -8 109 -27 110 -130 1 -283 415 -483 1102 -533 763 -56 910 -99 1156 -336
263 -254 131 -377 -351 -327 -224 23 -364 80 -713 289 -299 179 -460 249 -613
266 -130 14 -119 -9 29 -63 378 -137 734 -399 380 -280 -747 252 -1068 299
-1965 291 -166 -1 -160 -33 10 -48 280 -25 757 -89 805 -108 28 -11 127 -36
220 -54 313 -63 394 -99 255 -117 -36 -4 7 -9 95 -11 174 -4 255 -19 240 -43
-6 -9 -28 -12 -49 -6 -53 14 -99 -34 -80 -84 13 -36 16 -35 29 15 14 56 38 70
59 37 6 -10 0 -23 -14 -29 -20 -8 -20 -10 0 -11 38 -3 107 -79 84 -93 -11 -6
-14 -20 -8 -30 6 -11 2 -19 -10 -19 -11 0 -21 13 -21 29 0 16 -20 39 -45 51
-38 19 -40 18 -15 -4 19 -16 33 -72 37 -146 4 -66 19 -151 33 -190 45 -119 53
-180 25 -180 -19 -1 -19 -5 2 -18 15 -9 24 -33 20 -53 -8 -39 -68 -57 -74 -22
-2 13 -9 64 -15 113 -23 181 -185 437 -295 467 -56 16 -59 20 -23 34 33 13 34
16 6 18 -24 1 -31 12 -22 36 7 19 5 28 -4 20 -9 -8 -38 -1 -64 16 -30 19 -71
27 -112 20 -67 -12 -1141 -31 -1130 -21 3 4 42 9 86 12 44 3 94 17 112 32 34
29 355 46 827 46 142 -1 254 4 248 10 -33 32 -890 52 -1047 24 -44 -8 -102
-18 -130 -23 -27 -5 -108 -19 -180 -30 -72 -11 -161 -29 -200 -41 -38 -11
-113 -20 -165 -20 -52 0 -95 -8 -95 -17 0 -25 845 -48 1169 -32 352 18 383
-37 44 -79 -42 -5 -82 -14 -88 -20 -17 -17 90 -13 190 6 63 12 90 10 107 -11
27 -32 90 -36 109 -6 8 13 21 14 36 2 13 -10 46 -25 73 -33 l50 -15 -55 51
c-30 29 -47 57 -37 63 9 5 41 -12 71 -39 62 -58 71 -61 71 -20 0 17 -13 30
-30 30 -16 0 -30 9 -30 20 0 32 37 23 78 -18 21 -21 43 -35 48 -30 5 5 30 1
56 -10 27 -10 66 -25 88 -33 36 -12 37 -14 5 -26 -32 -12 -31 -20 15 -87 59
-88 61 -99 15 -82 -19 8 8 -34 60 -92 81 -90 113 -168 55 -132 -26 16 -150
211 -150 236 0 23 -145 112 -185 113 -14 1 18 -42 72 -94 108 -107 146 -168
156 -252 8 -71 -36 -43 -86 52 -61 119 -429 375 -479 333 -13 -10 -56 -20 -96
-22 -74 -3 -94 -23 -42 -43 16 -7 30 -5 30 3 0 8 45 14 100 15 55 0 100 -7
100 -17 0 -9 7 -12 15 -7 8 5 42 -13 75 -41 l60 -49 -70 34 c-38 18 -60 23
-48 10 34 -36 11 -121 -29 -107 -24 8 -22 2 7 -21 22 -17 60 -32 85 -32 25 -1
45 -12 46 -26 2 -48 306 -242 517 -331 117 -49 222 -97 234 -106 13 -11 37 11
65 60 63 112 262 289 397 353 64 29 163 77 220 104 58 28 122 46 145 40 22 -6
36 -3 30 7 -6 10 -33 18 -59 18 -25 0 -50 10 -54 21 -13 39 -80 -4 -69 -44 5
-20 1 -37 -9 -37 -10 0 -18 7 -18 16 0 34 -117 61 -142 32 -29 -35 -125 -38
-113 -4 4 14 30 30 56 37 48 11 48 12 6 23 -45 12 -129 -75 -136 -142 -8 -73
-34 -97 -97 -94 -51 3 -63 12 -58 43 20 121 32 163 57 198 35 51 34 78 -2 64
-15 -6 -39 2 -52 18 -20 24 -14 29 36 29 73 0 102 51 39 67 -23 6 -36 18 -28
25 7 8 4 26 -9 41 -16 20 -16 27 1 27 13 0 28 -13 35 -30 6 -16 29 -30 50 -30
22 0 34 9 27 20 -7 12 21 15 74 8 66 -8 79 -5 56 12 -39 28 105 10 162 -21 42
-22 34 -59 -12 -59 -15 0 -34 -10 -42 -23 -10 -16 7 -19 59 -9 44 8 73 6 73
-6 0 -10 18 -22 41 -26 22 -3 40 -15 39 -26 -2 -24 -87 -14 -97 12 -3 10 -17
18 -30 17 -32 -1 65 -79 99 -79 15 0 28 -9 28 -20 0 -11 16 -20 35 -20 27 1
29 4 8 18 -41 26 -7 35 144 38 77 2 164 17 199 34 45 22 65 24 75 8 11 -18 31
-18 80 -1 90 32 93 20 20 -86 -60 -86 -67 -145 -15 -120 13 6 2 -5 -25 -25
-27 -20 -72 -61 -99 -91 -27 -31 -54 -49 -61 -40 -6 9 -33 26 -61 39 l-50 23
47 2 c31 1 44 10 37 28 -6 15 7 39 28 54 21 15 38 41 38 57 0 16 20 50 43 76
51 54 3 69 -50 16 -17 -16 -38 -30 -47 -31 -9 0 -34 -14 -56 -30 -38 -29 -38
-30 8 -25 66 8 76 -39 14 -67 -29 -13 -52 -31 -52 -40 0 -9 -20 -17 -45 -17
-36 -1 -39 -4 -15 -20 24 -16 22 -19 -14 -20 -24 0 -49 -9 -56 -20 -7 -12 14
-20 50 -20 36 0 57 -8 50 -20 -17 -27 -117 -25 -145 3 -14 14 -43 16 -79 6
-31 -8 -69 -14 -86 -11 -16 2 -3 -19 30 -47 33 -28 44 -46 25 -39 -31 11 -43
-6 -39 -53 1 -6 -29 -7 -67 -3 -69 8 -72 63 -4 91 20 8 19 14 -2 29 -46 32 99
160 191 169 l76 8 -86 4 c-56 2 -104 -10 -140 -35 -30 -21 -105 -71 -168 -111
-142 -92 -328 -290 -370 -394 -24 -61 -41 -77 -73 -73 -27 4 -50 -11 -67 -44
-14 -27 -26 -38 -26 -24 0 15 -10 20 -22 13 -13 -8 -17 -42 -9 -86 9 -53 7
-65 -8 -43 -14 20 -20 22 -21 5 0 -14 -12 -25 -28 -25 -30 0 -55 -69 -39 -111
6 -14 21 -22 34 -17 16 6 21 -19 15 -87 -4 -52 -12 -83 -17 -67 -15 42 -179
198 -225 212 -22 7 -40 20 -40 29 0 9 -25 21 -55 26 -48 9 -50 8 -17 -12 21
-13 61 -44 90 -70 28 -26 77 -60 107 -76 30 -15 55 -36 55 -46 0 -10 5 -32 12
-49 9 -23 0 -32 -30 -32 -47 0 -54 20 -18 56 13 13 18 24 11 24 -6 0 -27 -15
-45 -32 -30 -30 -36 -30 -76 7 -24 21 -60 45 -79 51 -19 7 -35 31 -35 53 0 23
-9 41 -19 41 -11 0 -15 -13 -9 -29 12 -31 -61 -22 -107 14 -13 11 -38 14 -54
8 -18 -7 -39 4 -51 27 -21 40 21 64 100 57 77 -8 113 4 70 23 -22 9 -71 12
-108 6 -42 -7 -63 -4 -56 8 7 11 1 37 -14 57 -15 21 -23 50 -16 66 6 18 2 24
-10 17 -12 -8 -31 -2 -43 12 -16 20 -8 25 35 25 58 -1 202 -69 202 -96 0 -21
-35 -19 -49 3 -14 22 -91 43 -91 24 0 -8 34 -32 75 -53 112 -57 117 -58 88
-22 -20 24 -21 33 -4 33 33 0 -62 118 -96 119 -58 2 -156 64 -189 119 -49 83
-43 91 29 40 42 -30 55 -49 37 -55 -15 -5 -2 -18 32 -33 37 -15 63 -17 71 -4
19 29 79 0 91 -44 5 -22 36 -50 68 -63 32 -13 58 -34 59 -46 0 -13 13 -6 29
15 27 35 33 36 65 8 40 -34 107 -64 131 -59 10 2 12 -5 5 -15 -25 -41 30 -41
71 0 l44 44 -42 -11 c-24 -6 -52 1 -66 17 -12 15 -38 28 -57 28 -61 0 -267
151 -421 309 -295 303 -460 342 -665 157 -86 -79 -42 -1 76 133 196 223 174
231 -381 130 -58 -11 -57 -10 20 40 44 28 109 56 145 63 48 9 99 50 60 48 -15
-1 -210 -58 -240 -70 -65 -27 -36 29 30 58 53 24 57 29 21 30 -24 1 -55 -9
-70 -23 -45 -44 -133 -95 -160 -94 -14 1 -6 10 19 20 70 28 56 64 -20 51 l-65
-12 70 29 c96 39 48 38 -66 -1 -61 -20 -89 -40 -80 -55 7 -13 -2 -11 -20 4
-20 16 -34 19 -34 7 0 -21 -76 -56 -105 -48 -8 2 -15 -5 -15 -16 0 -11 -9 -20
-20 -20 -26 0 -178 -106 -179 -125 -1 -9 42 6 94 32 132 66 192 79 367 81
l153 2 -30 -45 c-37 -57 -20 -56 143 5 182 69 189 65 85 -51 -152 -169 -207
-470 -123 -674 114 -281 643 -501 1330 -555 270 -21 275 -23 301 -106 139
-436 517 -710 1094 -793 1166 -169 1975 140 2031 776 l10 116 -92 59 c-103 65
-155 75 -136 26 44 -115 -239 -432 -506 -565 -139 -69 -269 -103 -159 -42 57
32 260 203 251 212 -5 4 -49 -9 -98 -30 -195 -84 -604 -118 -906 -75 -71 10
-91 8 -70 -7 17 -11 55 -21 86 -21 31 0 51 -9 44 -19 -21 -35 -294 -10 -398
36 -118 52 -145 41 -45 -18 73 -43 95 -79 48 -79 -80 1 -262 70 -392 150 -177
108 -199 105 -71 -8 112 -98 105 -102 -47 -20 -197 107 -406 307 -374 359 5 9
114 17 241 17 127 0 509 6 848 13 751 17 972 -23 1012 -182 l12 -49 59 42 c32
23 76 74 98 115 22 40 50 88 64 107 30 43 6 70 -35 36 -40 -34 -40 3 1 83 35
66 26 96 -17 60 -15 -12 -35 -16 -44 -8 -9 8 -11 -5 -5 -30 6 -25 4 -45 -6
-45 -9 0 -23 -32 -31 -72 -8 -44 -19 -62 -28 -48 -8 14 -11 44 -5 67 33 149
49 193 66 182 11 -7 15 22 8 73 -7 57 -2 90 15 101 18 11 12 16 -19 17 -25 0
-45 -10 -45 -21 0 -36 -58 -83 -83 -67 -17 10 -19 3 -10 -22 9 -22 4 -43 -11
-53 -18 -11 -11 -16 21 -17 35 0 44 -8 35 -32 -7 -17 -12 -36 -12 -41 0 -5 -9
-4 -20 3 -12 7 -15 21 -9 31 6 11 -3 19 -21 19 -36 0 -34 -58 3 -90 13 -11 27
-53 31 -94 9 -82 -13 -85 -33 -3 -19 76 -71 149 -71 100 0 -20 9 -53 21 -74
12 -23 13 -39 2 -39 -24 0 -133 180 -133 218 0 16 -29 45 -65 65 -36 20 -65
27 -65 17 0 -30 -33 -24 -70 12 -39 40 -66 21 -30 -22 29 -35 16 -38 -40 -10
-22 11 -58 29 -80 40 -27 14 -40 14 -40 0 0 -11 -13 -20 -29 -20 -32 0 -61
-36 -43 -54 6 -7 26 0 43 15 28 23 38 20 70 -22 21 -27 39 -40 39 -29 1 11 11
3 23 -18 17 -30 15 -41 -11 -56 -18 -10 -28 -26 -22 -35 5 -10 -10 -12 -35 -5
-38 10 -39 14 -9 20 33 7 41 49 9 45 -8 0 -29 -1 -46 -1 -17 0 -27 -7 -21 -17
6 -9 -2 -16 -18 -16 -15 0 -26 8 -24 18 2 11 -58 22 -135 27 -76 4 -147 16
-159 28 -11 11 -45 20 -75 20 -36 0 -58 13 -66 38 -7 21 -32 43 -56 49 -63 17
-69 -3 -8 -26 70 -27 74 -100 5 -86 -86 16 -78 -34 12 -74 134 -60 144 -73 61
-75 -51 -1 -63 3 -36 13 54 20 -7 43 -70 26 -25 -6 -40 -3 -34 7 6 10 -24 19
-68 20 -58 1 -76 -6 -68 -25 5 -15 8 -27 5 -27 -2 1 -67 23 -144 50 -77 28
-155 50 -174 50 -18 0 -39 9 -46 20 -17 27 94 13 205 -26 47 -16 85 -22 85
-14 0 8 20 21 45 28 62 17 16 43 -110 61 -52 7 -95 23 -95 35 0 12 23 16 57
10 99 -20 66 43 -50 97 -115 52 -138 89 -57 89 36 0 50 11 50 39 0 22 17 70
38 107 l38 68 -78 -8 c-46 -5 -78 1 -78 13 0 12 -20 21 -45 21 -76 -1 -135
-23 -135 -52 0 -21 -12 -23 -51 -8 -87 34 -152 26 -89 -10 28 -16 38 -29 24
-29 -44 -1 -204 43 -203 56 2 49 74 96 175 115 190 37 872 211 904 231 17 10
45 23 63 29 18 7 38 28 43 48 7 27 1 34 -22 25 -22 -9 -28 -3 -18 21 9 24 3
29 -22 20 -27 -10 -25 -3 9 36 23 26 49 70 57 96 18 58 147 242 170 242 56 0
5 -230 -64 -286 -29 -24 -34 -34 -13 -27 30 9 66 -47 59 -93 -2 -9 11 -30 28
-46 41 -42 38 -68 -8 -68 -113 0 -704 -174 -796 -235 -134 -87 14 -85 547 7
230 39 521 80 647 90 345 26 388 32 396 56 4 12 21 22 39 22 27 0 27 -5 -3
-38 -36 -39 -51 -43 -322 -81 -542 -77 -591 -127 -143 -148 l288 -14 129 75
c214 125 456 430 542 683 165 484 -85 1119 -523 1333 -140 68 -153 90 -54 90
219 0 399 233 360 466 -33 201 -119 348 -351 600 -51 55 -108 171 -92 186 36
36 174 -34 212 -108 22 -41 95 -123 163 -183 68 -59 163 -167 210 -240 46 -72
103 -148 126 -168 41 -37 92 -29 78 13 -5 13 8 41 28 62 49 53 47 78 -6 61
-34 -11 -40 -7 -31 18 9 22 3 28 -20 19 -27 -10 -30 -4 -17 36 36 116 36 158
2 158 -18 0 -29 -7 -23 -16 5 -9 2 -28 -7 -42 -39 -64 -99 306 -62 377 13 22
37 41 54 41 17 0 76 24 131 54 l100 54 37 -49 c40 -52 53 -23 19 41 -44 81 28
65 86 -19 l34 -50 0 61 c0 67 -32 110 -70 95 -14 -5 -32 0 -39 11 -8 13 -1 17
18 10 37 -15 43 42 7 65 -38 23 -133 10 -189 -27 -40 -26 -54 -28 -66 -7 -9
14 -27 20 -39 12 -12 -7 -22 -5 -22 5 0 11 -21 19 -47 19 -37 0 -46 -9 -38
-38 7 -28 2 -35 -23 -25 -17 7 -32 2 -32 -10 0 -12 -19 -22 -42 -22 -52 0 -41
42 19 72 44 22 44 23 -16 48 -34 14 -61 32 -61 40 0 27 -235 140 -293 140 -96
0 -206 39 -467 165 -247 120 -561 241 -578 224 -21 -22 72 -90 165 -121 208
-68 353 -157 353 -217 0 -3 -92 -11 -205 -17 -221 -11 -342 -47 -457 -137 -84
-65 -64 -97 26 -41 104 65 249 95 306 64 27 -15 74 -20 109 -13 39 8 61 4 61
-11 0 -12 17 -7 38 12 74 67 219 107 319 89 51 -10 105 -13 120 -7 37 14 63
-6 51 -38 -8 -21 -29 -23 -88 -10 -48 11 -117 9 -184 -4 -58 -12 -119 -24
-136 -27 -86 -13 -191 -86 -229 -160 -23 -43 -71 -109 -108 -146 -78 -79 -71
-104 15 -53 83 49 100 21 45 -75 -52 -90 -48 -118 7 -57 56 62 70 49 70 -70 0
-106 23 -144 48 -79 17 45 52 15 52 -45 0 -41 5 -47 28 -27 32 26 40 16 60
-66 8 -32 19 -53 24 -47 6 5 46 -23 89 -63 88 -82 96 -178 13 -151 -32 10 -37
6 -27 -21 9 -23 5 -31 -12 -26 -14 5 -24 24 -22 42 1 18 -11 33 -27 33 -19 0
-26 -12 -19 -30 7 -18 0 -30 -18 -30 -34 0 -36 10 -8 61 17 33 14 38 -23 34
-24 -3 -48 6 -52 20 -5 14 1 25 14 25 12 0 18 -8 12 -17 -6 -10 14 -18 44 -18
30 -1 81 -6 114 -13 58 -12 58 -11 -10 20 -142 66 -392 32 -507 -69 -65 -57
-208 178 -291 477 -54 197 -77 782 -32 827 15 15 23 34 16 41 -21 20 -146 14
-146 -8 0 -11 9 -20 19 -20 11 0 15 -13 9 -28 -6 -17 4 -33 26 -39 20 -6 -32
-9 -116 -5 -97 3 -168 17 -197 37 -64 45 -19 62 121 46 78 -8 118 -6 118 8 0
12 -32 21 -71 21 -38 0 -104 14 -145 31 -113 48 -43 73 155 57 152 -13 193
-30 136 -56 -14 -7 0 -9 30 -5 30 4 55 -2 55 -13 0 -34 27 4 34 47 5 34 -6 39
-89 40 -139 2 -292 31 -301 56 -4 13 -36 24 -71 24 -62 2 -62 2 -13 22 47 18
112 11 320 -35 36 -8 42 -6 20 8 -16 10 -63 25 -104 32 -76 14 -125 52 -66 52
19 0 27 9 18 23 -8 14 -3 18 14 11 15 -7 67 -24 114 -37 78 -24 84 -30 73 -79
-11 -51 -7 -54 60 -54 68 0 168 86 172 148 1 10 28 39 61 66 128 101 450 7
688 -200 77 -67 199 -151 270 -186 72 -35 193 -106 270 -157 161 -106 228
-135 311 -135 71 0 77 34 12 59 -54 20 -162 143 -198 226 -14 30 -37 55 -51
55 -15 0 -21 9 -14 20 7 11 4 20 -7 20 -11 0 -24 -11 -30 -25 -6 -16 -10 -14
-11 7 -1 17 -14 31 -29 31 -17 0 -23 -16 -17 -46 5 -26 16 -47 24 -47 8 0 20
-19 26 -42 6 -23 19 -37 28 -32 9 6 27 -11 39 -38 32 -66 25 -63 -124 54 -108
85 -126 107 -106 132 21 25 29 23 60 -17 29 -38 36 -41 37 -13 0 46 -71 110
-171 154 -45 20 -122 68 -172 106 -50 38 -135 80 -189 94 -160 41 -187 58 -78
48 145 -13 297 -63 354 -116 68 -62 152 -104 247 -121 103 -18 164 -54 75 -44
-98 12 -59 -19 44 -34 49 -7 90 -21 90 -31 0 -9 27 -36 60 -60 54 -38 59 -39
48 -6 -10 32 -8 32 20 -3 18 -21 32 -28 32 -15 0 40 53 27 89 -21 l33 -45 -9
45 c-6 31 3 52 29 66 56 30 47 70 -29 128 -71 54 -104 66 -81 28 9 -15 5 -18
-10 -8 -14 8 -20 20 -13 26 6 6 -21 33 -61 60 -51 35 -69 60 -62 87 6 21 2 38
-8 38 -10 0 -18 18 -18 41 0 34 -6 37 -39 20 -63 -34 -79 -27 -208 98 -97 92
-145 124 -218 140 -52 12 -172 57 -266 100 -94 44 -240 99 -324 123 -84 23
-167 46 -184 51 -17 5 -4 -7 29 -27 l60 -36 -54 -6 c-68 -8 -300 88 -516 216
-93 55 -177 100 -185 100 -40 0 1 -40 155 -150 159 -113 195 -150 151 -150
-11 0 -14 -15 -7 -32 9 -25 3 -30 -26 -22 -35 10 -129 21 -373 44 -52 5 -95 2
-95 -7 0 -27 259 -71 396 -67 79 2 122 -4 114 -16 -7 -11 -30 -20 -51 -20 -22
0 -39 -8 -39 -18 0 -10 -25 -28 -55 -40 -45 -18 -31 -20 75 -10 178 15 438 21
506 11 169 -24 -98 -101 -356 -102 -167 -1 -256 36 -100 42 55 2 1 10 -120 17
-121 8 -229 7 -241 -2 -11 -8 -64 -23 -118 -32 -58 -10 -102 -29 -107 -46 -5
-17 -3 -24 6 -16 8 8 33 5 56 -7 38 -21 36 -25 -38 -87 l-77 -65 77 2 c104 4
111 -32 18 -89 l-76 -47 55 -7 c66 -8 71 -34 12 -65 -30 -17 -35 -28 -18 -39
19 -11 20 -25 3 -56 -16 -31 -16 -43 3 -49 19 -7 18 -17 -4 -43 -22 -27 -23
-39 -4 -50 25 -16 11 -82 -17 -82 -9 0 -35 29 -57 65 -23 36 -46 63 -52 60
-53 -26 -129 63 -162 189 -55 207 -103 297 -221 404 -80 74 -99 101 -76 110
17 6 24 22 16 34 -9 16 -19 13 -32 -9 -23 -41 -76 -43 -76 -3 0 40 86 59 157
34 35 -12 93 -13 150 -3 101 19 153 9 153 -31 0 -41 -43 -65 -160 -86 l-110
-21 111 2 c61 1 122 -4 134 -12 12 -7 26 2 31 22 8 28 10 29 12 3 3 -41 -55
-92 -118 -104 -27 -5 -7 -5 47 -1 117 11 130 -49 18 -82 -86 -25 -83 -45 5
-35 54 7 70 1 70 -24 0 -18 -11 -32 -25 -32 -17 -1 -15 -7 5 -20 25 -15 26
-26 5 -59 -14 -23 -17 -41 -7 -41 10 0 25 -38 32 -85 22 -133 54 -164 36 -35
-56 404 12 1028 108 991 26 -10 29 1 18 70 -11 72 -8 84 27 93 23 6 41 25 41
43 -1 29 -3 29 -20 3 -13 -20 -19 -22 -20 -5 0 14 -20 25 -45 25 -36 -1 -39
-4 -15 -19 41 -27 -93 -81 -199 -81 -88 0 -111 40 -46 78 19 12 26 21 15 21
-34 0 -90 -52 -75 -69 8 -8 -3 -6 -25 6 -22 12 -65 27 -96 33 -30 7 -71 30
-89 52 -66 76 -88 33 -35 -69 42 -80 24 -87 -30 -12 -28 40 -47 100 -52 166
-4 64 0 93 10 76 14 -21 21 -18 31 15 8 24 8 52 1 63 -7 11 -3 20 9 20 11 0
21 -26 21 -58 0 -52 20 -105 67 -178 14 -21 25 -20 55 8 45 40 75 23 38 -22
-15 -19 -17 -30 -4 -30 12 0 34 18 49 39 24 34 38 37 96 21 38 -10 143 -26
234 -35 l165 -17 0 51 c1 65 29 114 49 83 24 -39 47 -24 70 45 70 213 363 69
530 -260 127 -250 228 -311 309 -188 19 29 22 43 7 34 -17 -10 -25 -2 -25 24
0 22 -9 43 -21 47 -20 6 -64 156 -46 156 4 0 64 -19 133 -42 156 -53 261 -43
458 44 205 91 311 90 405 -1 69 -67 103 -49 39 21 -29 33 -29 34 10 24 24 -6
48 -19 53 -28 6 -10 20 -18 31 -18 38 0 -5 41 -88 83 -124 63 -284 56 -477
-22 -209 -83 -406 -78 -515 14 -88 76 -97 445 -10 445 17 0 25 9 18 20 -7 11
2 34 19 52 17 17 31 51 31 75 0 25 11 56 25 70 20 21 14 35 -29 72 -52 46 -54
71 -5 71 13 0 29 -19 35 -43 8 -28 22 -38 43 -30 29 11 90 -60 118 -137 4 -11
14 -14 22 -6 41 37 -82 235 -129 206 -7 -4 -12 12 -11 36 2 77 -103 69 -214
-15 -51 -39 -106 -71 -123 -71 -18 0 -26 -12 -20 -28 17 -45 -24 -54 -60 -14
-20 22 -50 33 -72 28 -34 -9 -35 -14 -9 -40 66 -66 23 -67 -46 -1 -170 162
-340 290 -488 366 -109 57 -81 16 62 -90 265 -197 147 -221 -143 -30 -143 94
-177 109 -135 57 15 -17 -45 6 -132 52 -88 45 -135 63 -105 40 32 -25 49 -54
43 -71 -9 -23 -29 -13 -89 41 -73 66 -136 95 -108 50 7 -11 3 -20 -9 -20 -11
0 -21 9 -21 21 0 28 -75 -12 -145 -77 -30 -28 -61 -45 -68 -38 -8 8 -10 16 -5
19 4 3 46 35 92 70 46 36 93 65 106 65 12 0 -9 27 -47 60 -38 33 -72 60 -76
59 -4 0 -67 -22 -140 -48z m303 -165 c22 -19 40 -45 40 -58 0 -13 23 -23 51
-23 50 0 50 1 15 43 -36 42 -36 42 6 7 23 -19 42 -46 42 -60 1 -14 3 -34 6
-45 10 -41 -1 -72 -20 -60 -12 7 -20 6 -18 -4 10 -57 -8 -67 -29 -16 -33 76
-50 23 -33 -100 l11 -80 46 87 c25 48 64 92 85 98 25 6 35 22 29 42 -5 18 7
54 27 81 l36 47 103 -102 c56 -56 128 -107 158 -114 30 -6 71 -20 90 -30 43
-23 55 -24 55 -2 0 10 -54 50 -119 91 -66 40 -126 84 -135 98 -8 13 10 8 41
-12 112 -74 248 -150 295 -165 46 -15 45 -17 -22 -33 -143 -34 -169 -32 -229
18 -57 48 -89 64 -186 95 -87 27 -44 -24 50 -59 175 -66 193 -164 25 -136 -89
15 -255 -15 -300 -54 -24 -21 -70 -43 -102 -50 -90 -20 -69 -51 27 -39 185 23
243 -73 116 -190 -46 -42 -73 -80 -60 -85 13 -4 -14 -41 -60 -82 -99 -90 -119
-83 -106 32 6 57 0 97 -18 116 -61 65 -65 253 -7 319 33 38 34 44 6 34 -24 -9
-39 2 -53 41 -13 35 -20 41 -21 19 -1 -19 -11 -35 -22 -35 -11 0 -20 -16 -21
-35 0 -33 -1 -33 -21 1 -23 39 16 116 113 225 l53 59 -10 -70 c-5 -38 -1 -86
9 -105 10 -20 11 -35 1 -35 -10 0 -28 20 -40 45 -21 44 -21 44 -23 -12 -1 -40
10 -60 38 -67 21 -6 43 -20 47 -33 4 -13 5 -3 1 22 -4 25 1 45 11 45 10 0 13
19 7 43 -8 29 -4 39 12 29 15 -9 18 -3 10 19 -7 18 -1 40 14 50 25 15 -31 179
-61 178 -5 0 -58 -71 -116 -158 -116 -174 -158 -202 -375 -252 -75 -17 -154
-41 -174 -52 -21 -11 -43 -16 -49 -10 -17 17 198 132 307 164 78 23 122 53
180 121 212 247 208 244 267 194z m995 -339 c115 -15 69 -45 -60 -39 -90 4
-163 -7 -264 -41 -184 -62 -188 -57 -22 24 135 67 193 76 346 56z m485 -83 c0
-25 -22 -67 -50 -92 -27 -26 -50 -65 -50 -88 0 -23 -9 -47 -20 -54 -11 -7 -20
10 -20 38 0 40 -8 48 -34 38 -30 -12 -29 -6 5 47 21 33 61 94 87 135 50 79 81
70 82 -24z m-137 -9 c-62 -100 -99 -125 -244 -163 -145 -38 -334 -137 -353
-184 -8 -22 -28 -27 -74 -18 -52 10 -56 8 -25 -11 35 -22 35 -24 0 -60 -20
-20 -49 -51 -63 -68 -14 -17 -54 -32 -90 -32 -60 -1 -61 -3 -17 -20 77 -31 7
-79 -114 -79 -100 0 -150 25 -93 47 17 7 24 25 18 42 -14 36 0 39 54 10 22
-12 51 -18 64 -13 13 5 -1 19 -32 32 -57 22 -38 82 25 82 11 0 21 7 21 17 0 9
-27 12 -60 7 -37 -5 -60 0 -60 15 0 16 -21 12 -65 -11 -128 -66 -134 -69 -124
-43 21 54 138 110 189 91 53 -20 140 8 140 44 0 11 13 20 29 20 40 0 17 -56
-26 -65 -24 -5 -15 -16 32 -42 36 -18 65 -26 65 -16 0 10 -15 24 -32 31 -26
10 -28 18 -8 42 13 16 33 25 42 19 10 -6 18 -1 18 11 0 15 32 21 87 18 76 -5
104 6 215 85 139 98 229 137 326 138 50 0 73 17 118 82 67 96 97 89 37 -8z
m-1642 -61 c-15 -67 -14 -129 6 -232 32 -167 15 -168 -45 -3 -25 68 -56 121
-72 121 -59 0 -62 99 -3 108 17 2 50 29 74 59 56 71 65 59 40 -53z m718 15
c-51 -62 -121 -75 -162 -30 -48 52 -47 65 8 60 25 -3 68 5 95 16 62 26 96 -1
59 -46z m478 33 c-14 -22 -37 -33 -54 -27 -18 8 -24 3 -16 -11 19 -29 -19 -48
-257 -124 -110 -35 -231 -77 -270 -92 l-70 -29 69 61 c89 77 363 220 424 220
26 0 61 9 77 20 58 37 124 25 97 -18z m233 -2 c0 -20 -20 -30 -60 -30 -33 0
-73 -15 -90 -34 -31 -34 -417 -165 -435 -147 -6 5 6 16 27 23 180 62 286 116
328 165 57 67 230 84 230 23z m-1609 -163 c80 -87 164 -218 196 -307 5 -11
-30 32 -76 95 -46 64 -92 111 -101 105 -10 -6 -34 12 -52 41 -22 33 -39 43
-48 29 -20 -32 -83 70 -68 109 20 51 49 37 149 -72z m-166 -17 c45 -84 38 -99
-25 -53 -38 28 -65 133 -34 133 9 0 36 -36 59 -80z m1846 -18 c-13 -24 -18
-86 -12 -147 l11 -105 -39 80 c-52 104 -51 161 3 198 54 38 66 29 37 -26z
m-2247 -107 c-139 -48 -158 -35 -43 28 72 40 101 47 120 30 19 -18 1 -31 -77
-58z m2100 49 c37 -24 222 -444 195 -444 -4 0 -35 52 -67 115 -32 63 -82 141
-111 172 -31 33 -49 71 -42 88 6 16 1 42 -11 58 -25 29 -3 36 36 11z m-1666
-27 c110 -50 -20 -79 -149 -34 -58 21 -62 26 -28 39 58 23 121 21 177 -5z
m392 -22 c0 -12 14 -37 30 -55 26 -29 27 -44 3 -112 l-27 -78 -23 106 c-28
131 -29 190 -3 174 11 -7 20 -22 20 -35z m1541 0 c21 -25 38 -57 38 -73 1 -15
20 -60 43 -100 l42 -72 -61 70 c-56 64 -133 220 -110 220 6 0 27 -20 48 -45z
m-2261 -76 c0 -25 -21 -48 -55 -63 -30 -12 -104 -44 -165 -69 l-110 -48 110
107 c120 116 220 149 220 73z m295 3 c80 -2 84 -4 60 -42 -25 -40 -267 -62
-302 -27 -27 28 53 88 105 79 29 -5 90 -9 137 -10z m324 -115 c118 -156 117
-146 37 -197 -83 -53 -100 -98 -26 -70 148 56 162 17 40 -120 -113 -127 -113
-137 2 -70 133 78 145 27 27 -121 -79 -100 -75 -123 11 -58 39 30 70 48 70 40
0 -23 -63 -139 -96 -177 -29 -33 -29 -35 6 -21 27 10 34 7 25 -15 -46 -114
-46 -111 -7 -73 38 38 47 36 153 -47 120 -93 255 -418 173 -418 -30 0 -183
155 -266 270 -32 44 -63 85 -69 90 -6 6 -32 40 -57 77 -26 36 -107 110 -181
163 l-134 98 6 208 c8 300 82 574 155 574 17 0 76 -60 131 -133z m1602 -61
c21 -133 11 -164 -18 -53 -37 139 -48 242 -23 202 12 -19 30 -86 41 -149z m74
-11 c12 -47 20 -107 20 -135 -1 -27 6 -77 14 -110 9 -33 10 -54 2 -47 -15 14
-91 305 -91 350 0 59 36 22 55 -58z m-2303 -106 c1 -10 -11 -39 -27 -64 -37
-57 -253 -70 -232 -14 26 67 253 136 259 78z m275 -42 c-11 -45 -59 -66 -150
-67 -164 -1 -135 114 31 124 120 7 135 0 119 -57z m2140 -162 c7 -38 4 -65 -8
-65 -26 0 -34 27 -45 150 -10 112 27 53 53 -85z m-1393 83 c11 -32 -116 -117
-133 -89 -9 14 -35 18 -68 10 -33 -8 -53 -5 -53 8 0 30 71 65 104 52 15 -5 45
4 67 20 41 32 72 31 83 -1z m-734 -47 c0 -72 -161 -110 -308 -73 -49 12 -50
16 -23 57 40 61 331 75 331 16z m1090 19 c18 -29 -79 -82 -174 -96 l-86 -13
78 -11 c94 -12 115 -50 40 -69 -40 -10 -48 -19 -31 -36 41 -41 24 -72 -42 -81
-56 -7 -54 -8 20 -11 140 -5 97 -65 -66 -92 -99 -16 -193 15 -176 58 6 18 38
32 74 33 42 2 50 6 23 12 -62 15 -85 46 -33 46 25 0 40 9 33 20 -7 12 15 21
54 23 l66 3 -65 8 c-36 5 -65 12 -65 16 0 31 30 70 53 70 46 0 9 40 -39 42
-34 2 -36 5 -9 12 20 5 30 17 24 28 -6 10 -6 26 0 37 15 24 306 25 321 1z
m-1448 -36 c-11 -21 -59 -46 -109 -57 -83 -19 -88 -18 -67 15 46 73 214 113
176 42z m1018 -203 c-71 -55 -137 -65 -125 -19 6 22 33 39 72 44 35 4 72 9 83
10 11 2 -2 -14 -30 -35z m-543 -249 c113 -84 259 -257 227 -267 -22 -8 -224
114 -224 135 0 26 -98 120 -124 120 -19 -1 -18 -6 3 -19 104 -66 -28 -17 -245
89 -213 105 -248 129 -211 141 28 9 48 6 53 -8 5 -16 18 -17 46 -2 21 12 48
15 58 9 11 -7 35 -4 53 7 36 20 154 -46 364 -205z m2267 40 c19 -28 -35 -41
-80 -20 -34 16 -49 20 -104 28 -17 2 -8 11 20 20 58 18 144 3 164 -28z m-2604
-114 c362 -217 367 -302 10 -182 -144 49 -161 60 -166 109 -4 33 3 55 17 55
18 0 18 7 1 28 -13 15 -41 23 -63 18 -44 -12 -51 14 -15 50 33 33 27 36 216
-78z m2810 53 c33 -15 77 -32 98 -39 21 -7 32 -18 25 -25 -17 -18 -293 74
-293 98 0 22 77 6 170 -34z m-2510 -141 c72 -47 150 -91 175 -99 25 -8 40 -22
34 -32 -6 -11 12 -19 41 -19 31 0 47 -8 39 -21 -7 -11 -31 -15 -53 -8 -27 9
-36 6 -27 -9 7 -12 26 -22 42 -22 16 0 29 -9 29 -21 0 -11 -29 -5 -65 14 -36
19 -80 37 -99 41 -19 3 -71 45 -116 94 -45 49 -131 122 -191 163 -60 42 -109
79 -109 83 0 14 172 -80 300 -164z m2341 103 c29 -15 78 -34 110 -42 53 -14
55 -17 19 -32 -56 -23 -115 -23 -100 0 14 23 -134 13 -270 -17 -112 -25 -326
-28 -312 -5 6 10 59 24 117 31 241 28 275 37 275 64 0 36 93 37 161 1z m-1886
-300 c69 -83 112 -147 95 -140 -16 6 -78 76 -138 155 -59 79 -123 156 -140
170 -18 15 -32 37 -31 49 0 24 15 8 214 -234z m2399 158 c51 -28 97 -46 104
-40 6 7 -4 21 -24 32 -19 11 -30 28 -23 38 6 11 -7 19 -29 19 -22 0 -45 9 -52
20 -23 37 44 21 101 -24 94 -74 156 -136 137 -137 -10 0 22 -22 70 -47 52 -27
79 -52 66 -60 -13 -7 -46 1 -74 20 -52 34 -85 28 -61 -11 7 -11 31 -21 52 -21
22 0 39 -13 39 -30 0 -16 7 -28 15 -26 22 6 163 -44 174 -62 12 -20 -210 -2
-249 20 -20 11 -21 17 -5 17 14 1 25 10 25 22 0 14 -13 14 -40 -1 -34 -18 -40
-15 -43 19 -2 23 -4 52 -5 66 -2 24 -66 73 -96 74 -8 1 -10 -12 -3 -28 6 -17
20 -28 31 -25 12 2 25 -9 30 -26 7 -24 5 -25 -10 -3 -13 19 -21 21 -27 4 -4
-12 -39 10 -77 50 -63 66 -65 72 -22 59 83 -25 27 27 -79 72 -121 52 -176 106
-80 78 35 -10 105 -41 155 -69z m-526 57 c64 -25 29 -48 -73 -48 -58 0 -118
-9 -135 -20 -20 -13 32 -18 162 -15 151 4 185 10 160 28 -26 20 -19 26 44 38
112 21 228 -33 318 -146 83 -104 84 -130 4 -73 -30 21 -68 47 -86 58 -18 11
-36 23 -41 26 -6 3 3 15 20 26 20 14 8 16 -41 4 -135 -31 -660 -2 -660 37 0 9
20 17 45 18 25 0 77 18 115 39 74 41 117 48 168 28z m-757 -50 c18 -29 69 -20
69 12 0 17 16 29 35 28 21 -1 25 -5 10 -11 -34 -14 -11 -47 31 -47 19 0 61
-22 94 -48 l60 -48 -76 -15 c-78 -14 -334 90 -349 143 -7 25 110 12 126 -14z
m-1887 -86 c47 -16 118 -35 156 -43 39 -8 101 -31 140 -52 38 -20 85 -32 104
-26 19 6 51 1 71 -11 30 -19 28 -21 -15 -12 -28 6 -62 3 -75 -5 -29 -18 -237
46 -405 123 -122 56 -109 70 24 26z m1672 -3 c55 -39 40 -69 -34 -69 -69 0
-89 18 -59 54 18 21 15 24 -13 13 -25 -9 -32 -6 -22 10 20 32 75 29 128 -8z
m167 3 c29 -15 86 -38 125 -51 72 -24 98 -61 43 -61 -51 0 -11 -57 46 -66 29
-5 -10 -7 -87 -5 -168 5 -322 61 -263 94 26 15 63 14 125 -4 126 -35 129 -12
5 33 -104 38 -152 88 -84 88 21 0 61 -13 90 -28z m-1750 -140 c99 -79 87 -99
-48 -82 -117 14 -149 35 -131 83 6 15 1 39 -12 54 -63 77 77 36 191 -55z
m1534 -13 c-15 -15 -43 -15 -89 -2 l-68 19 89 2 c63 1 83 -4 68 -19z m1228 -3
c-8 -25 166 -184 321 -291 51 -36 83 -65 71 -65 -78 0 -445 315 -418 358 18
29 36 28 26 -2z m-2566 -8 c41 -16 4 -68 -48 -68 -49 0 -64 22 -38 53 25 30
39 33 86 15z m277 -21 c7 -7 -6 -38 -28 -70 -55 -77 -210 -87 -187 -12 l14 45
-52 -48 c-49 -46 -105 -46 -60 -1 52 52 283 116 313 86z m278 -73 c9 -15 2
-27 -19 -31 -18 -4 -52 -19 -74 -34 -47 -30 -217 3 -205 40 20 61 262 82 298
25z m-664 -1 c0 -8 -174 -133 -186 -133 -17 0 -52 116 -39 128 12 12 225 17
225 5z m2948 -39 c20 -15 33 -41 29 -58 -6 -26 -20 -21 -76 26 -74 62 -32 90
47 32z m637 -38 c81 -24 99 -47 35 -47 -22 0 -40 8 -40 18 0 10 -13 7 -29 -6
-16 -14 -37 -20 -47 -14 -9 6 -47 17 -84 23 -88 15 -110 31 -77 53 29 19 118
9 242 -27z m-2760 -22 c67 -120 -33 -157 -187 -70 -95 53 -97 70 -13 92 116
31 173 25 200 -22z m-425 -14 c48 -30 -16 -80 -85 -66 -67 13 -70 33 -10 62
57 27 59 27 95 4z m-370 -32 c-70 -54 -117 -76 -98 -45 10 15 19 34 20 42 2 8
4 20 6 25 1 6 27 10 57 9 54 0 54 -1 15 -31z m210 22 c0 -5 -45 -32 -100 -60
-116 -59 -133 -82 -28 -38 39 17 109 27 155 24 l83 -7 -111 -35 c-61 -19 -148
-38 -192 -43 -44 -4 -114 -22 -154 -39 -99 -41 -79 -14 61 80 64 43 123 89
132 103 15 23 154 37 154 15z m336 -90 c104 -64 -56 -163 -251 -157 -68 2 -78
5 -35 12 119 16 100 45 -31 46 l-129 1 70 30 c80 35 162 41 255 19 44 -11 65
-9 65 7 0 12 -27 22 -60 22 -60 0 -81 28 -35 47 48 19 86 12 151 -27z m563
-210 c112 -224 141 -238 40 -20 -93 200 -95 212 -30 151 28 -26 66 -105 90
-183 23 -76 51 -138 61 -138 35 0 66 -82 41 -107 -17 -17 -27 -15 -42 7 -16
25 -18 25 -19 -5 0 -19 15 -35 33 -35 57 0 247 -158 247 -205 0 -22 -46 -27
-145 -17 -8 1 -15 18 -15 37 -1 30 -3 31 -20 5 -17 -26 -26 -17 -24 20 0 6
-55 11 -123 12 -68 1 -105 -2 -83 -7 22 -5 62 -32 90 -59 113 -114 218 -160
117 -52 -24 25 -34 46 -21 46 26 0 39 -14 143 -156 43 -59 141 -175 219 -258
78 -83 142 -167 142 -187 0 -19 7 -39 15 -44 8 -5 3 -5 -12 -2 -14 4 -45 7
-67 7 -33 0 -39 10 -31 50 12 63 1 63 -47 2 -37 -47 -118 -53 -118 -8 0 10 -8
13 -18 7 -10 -6 -22 -1 -26 12 -6 16 -23 11 -52 -14 -32 -28 -37 -42 -19 -54
16 -11 8 -13 -20 -5 -59 17 -125 -5 -125 -41 0 -27 -19 -25 -100 7 -29 11 -51
15 -126 21 -20 2 -31 11 -25 22 6 10 -6 24 -29 31 -22 7 -51 23 -65 36 -14 13
-97 72 -185 132 -139 93 -151 106 -95 98 47 -6 65 -1 65 19 0 17 -13 24 -35
17 -20 -6 -81 18 -145 59 -69 44 -91 66 -60 59 43 -10 50 -4 53 40 2 43 -2 47
-26 28 -23 -20 -44 -10 -107 52 -152 149 -206 366 -119 477 122 155 337 -45
591 -550 132 -264 250 -413 333 -420 19 -2 46 -4 60 -5 14 -1 23 9 20 23 -3
14 11 26 30 27 23 1 19 6 -13 15 -34 10 -49 30 -54 73 -12 123 -30 190 -51
190 -12 0 -16 -13 -10 -30 7 -16 3 -30 -8 -30 -10 0 -19 18 -19 40 0 22 9 40
20 40 11 0 3 17 -19 39 -21 21 -45 70 -52 109 -8 45 -27 75 -52 83 -31 10 -34
18 -15 41 13 16 20 31 16 33 -4 3 -35 19 -68 36 -33 17 -89 75 -125 130 -35
54 -91 124 -125 154 -33 30 -60 59 -60 64 0 25 103 -40 131 -84 18 -27 44 -43
59 -38 17 7 24 1 19 -13 -14 -35 159 -174 215 -174 25 0 91 -17 146 -38 172
-64 205 -65 74 -2 -69 33 -121 69 -114 80 7 11 -15 26 -49 33 -36 7 -61 24
-61 43 0 17 -5 25 -12 19 -7 -7 -34 12 -62 41 -27 30 -43 41 -34 24 8 -16 -7
-10 -34 14 -65 59 -215 125 -288 126 -58 1 -58 2 -20 30 22 16 61 48 87 70 59
51 97 33 238 -116 116 -122 142 -118 40 6 -71 87 -159 168 -220 202 -35 19
-36 23 -7 34 49 19 119 -15 179 -86 60 -72 66 -69 23 13 -16 31 -30 69 -30 84
0 56 53 -16 139 -187z m-1307 141 c-32 -26 -80 -52 -106 -57 -54 -10 -52 -6
38 57 88 63 144 62 68 0z m936 -17 c34 -25 33 -28 -13 -59 -63 -41 -156 5
-114 57 30 35 81 36 127 2z m770 -50 c110 -14 167 -62 79 -66 -34 -2 -37 -5
-12 -12 84 -22 23 -46 -114 -46 -128 0 -153 6 -170 39 -22 41 -14 41 185 10
31 -4 51 -1 46 8 -6 10 -58 23 -115 30 -109 13 -150 35 -129 70 9 15 30 15 67
1 30 -11 103 -27 163 -34z m-1475 -49 c7 -11 16 -8 21 7 7 20 11 20 20 -3 9
-24 -22 -30 -179 -32 -192 -3 -222 17 -75 50 87 19 193 8 213 -22z m597 15
c14 -16 17 -31 7 -32 -9 -1 -39 -4 -67 -8 -27 -4 -81 -1 -120 5 l-70 12 80 25
c108 34 141 33 170 -2z m-629 -101 c95 18 195 -4 182 -40 -6 -14 0 -30 13 -34
49 -17 -73 -58 -202 -69 -110 -9 -140 -5 -162 22 -43 51 -12 62 165 59 l163
-3 -150 25 c-138 24 -154 23 -203 -12 -45 -31 -55 -32 -64 -8 -18 48 116 102
162 66 13 -11 57 -13 96 -6z m3015 19 c20 -20 -40 -68 -85 -68 -55 0 -52 37 4
59 56 23 65 24 81 9z m139 -36 c10 10 155 -69 155 -85 0 -5 -16 -5 -35 1 -19
6 -84 16 -145 23 -129 14 -143 23 -92 60 25 19 49 21 72 9 19 -10 39 -14 45
-8z m-1559 -32 c-6 -22 -25 -40 -43 -40 -23 0 -18 -8 15 -25 65 -34 61 -62 -9
-78 -56 -12 -56 -13 -14 -27 37 -12 42 -25 34 -80 -7 -44 -1 -76 20 -96 36
-36 41 -114 8 -114 -13 0 -18 5 -12 12 19 18 -16 57 -149 168 -62 53 -92 145
-35 110 9 -6 22 -2 28 9 15 24 -60 103 -81 84 -8 -7 -8 -2 0 12 8 14 34 26 58
27 28 1 17 9 -31 22 -119 32 -88 56 73 56 138 0 148 -3 138 -40z m1254 -20 c6
-10 65 -24 130 -31 66 -7 124 -17 130 -22 18 -18 -67 -67 -117 -67 -27 0 -133
-27 -236 -60 -187 -60 -339 -84 -227 -36 28 12 95 42 150 67 55 25 116 51 136
57 20 6 31 20 25 31 -8 12 -39 3 -77 -20 -71 -43 -115 -52 -78 -15 13 13 24
43 24 67 0 69 102 90 140 29z m-160 -8 c0 -45 -123 -150 -239 -204 -114 -52
-153 -54 -75 -2 79 51 171 152 147 160 -16 5 -15 18 4 41 35 42 163 45 163 5z
m-1974 -94 c27 -67 27 -77 3 -57 -16 13 -29 41 -29 63 0 21 -9 33 -20 26 -11
-7 -20 2 -20 19 0 57 34 32 66 -51z m1774 70 c0 -31 -89 -132 -141 -158 -88
-46 -88 -38 5 70 75 87 136 127 136 88z m791 -30 c49 -13 89 -29 89 -37 0 -23
-80 -101 -106 -103 -165 -14 -226 -22 -358 -50 -85 -19 -151 -40 -146 -48 5
-8 -12 -10 -37 -5 -26 4 -46 22 -46 38 0 16 11 24 26 19 21 -9 234 43 347 83
17 6 48 9 70 7 30 -3 33 1 13 15 -21 14 -22 27 -4 60 26 50 33 51 152 21z
m-3122 -72 c-3 -64 -55 -84 -237 -91 -83 -4 -121 3 -127 21 -7 21 -15 21 -42
0 -30 -24 -30 -23 -3 14 54 73 89 88 196 87 59 -1 112 4 119 11 36 37 96 10
94 -42z m3589 -28 c-79 -69 -220 -131 -358 -157 -264 -50 -328 -60 -336 -51
-16 15 14 70 38 70 16 0 14 -11 -4 -33 -16 -18 22 -5 84 30 126 71 155 78 115
29 -17 -22 -6 -19 31 10 63 48 114 55 173 23 41 -22 86 -3 217 92 80 58 110
48 40 -13z m-2878 -109 c0 -93 22 -190 41 -178 9 5 22 0 29 -11 7 -11 21 -16
31 -9 10 6 13 -3 7 -20 -10 -24 -3 -28 25 -18 30 11 32 8 12 -14 -36 -39 -31
-65 10 -50 28 11 30 8 10 -12 -40 -40 -29 -60 20 -35 43 23 44 22 12 -14 -37
-41 -2 -126 40 -100 10 7 28 -13 39 -43 11 -30 27 -73 36 -95 14 -37 13 -38
-23 -10 -36 28 -37 27 -12 -5 15 -19 34 -31 41 -26 8 5 27 0 43 -9 21 -13 14
-17 -23 -14 -51 4 -111 62 -184 179 -19 30 -29 55 -21 55 7 0 -1 16 -18 35
-113 128 -257 587 -155 495 24 -22 40 -62 40 -101z m-740 31 c-24 -16 -21 -19
16 -20 26 0 41 -9 34 -20 -7 -11 -3 -20 9 -20 94 0 -40 -94 -170 -118 -55 -11
-115 -25 -134 -33 -27 -10 -35 -3 -35 34 1 110 20 132 137 162 146 38 185 42
143 15z m-280 -37 c0 -27 -76 -88 -100 -80 -13 5 -5 26 20 52 42 46 80 59 80
28z m2787 -14 c-14 -35 -70 -31 -82 6 -5 16 11 25 43 25 38 0 48 -8 39 -31z
m-77 -26 l47 -36 -109 -3 c-154 -4 -155 48 -1 73 9 2 38 -13 63 -34z m913
-107 c-7 -77 -10 -80 -35 -46 -37 51 -35 84 7 108 19 12 35 21 36 21 0 1 -4
-37 -8 -83z m-3648 -27 c-12 -121 -47 -154 -44 -43 1 80 18 134 42 134 6 0 7
-41 2 -91z m439 -18 c-28 -87 -284 -155 -340 -90 -38 44 -27 88 18 71 15 -6
28 -3 28 7 0 10 34 23 75 30 41 8 98 26 125 41 52 29 110 -8 94 -59z m3046 63
c78 -62 139 -164 179 -295 46 -152 46 -216 0 -76 -16 47 -43 87 -63 92 -20 5
-36 17 -36 27 0 9 -37 53 -82 98 -53 52 -78 92 -70 112 7 17 12 40 12 50 0 25
24 22 60 -8z m-670 -15 c-9 -13 4 -16 37 -8 67 17 60 -45 -9 -83 -57 -32 -166
-39 -118 -8 27 17 27 20 0 20 -18 1 -11 13 20 31 42 25 44 29 10 25 -22 -3
-53 3 -69 13 -18 12 -31 10 -36 -5 -5 -13 -17 -24 -29 -24 -11 0 -46 -19 -78
-41 -40 -29 -58 -34 -58 -15 1 43 29 75 75 82 24 3 50 13 58 20 23 23 211 17
197 -7z m-1109 -80 c12 -23 18 -56 13 -75 -7 -29 -10 -29 -22 6 -8 22 -23 56
-34 75 -11 22 -11 35 1 35 11 0 29 -18 42 -41z m1299 2 c0 -28 -143 -121 -185
-121 -19 0 -35 14 -35 30 0 17 18 30 40 30 22 0 40 8 40 17 0 19 76 60 115 62
14 0 25 -8 25 -18z m-2490 -40 c0 -53 -179 -147 -248 -131 -86 18 -78 31 64
104 131 67 184 74 184 27z m2147 -39 c20 -13 21 -21 4 -32 -13 -7 -29 -9 -35
-2 -7 6 -24 2 -39 -11 -21 -17 -27 -13 -27 21 0 44 47 56 97 24z m371 1 c25
-41 -133 -143 -221 -143 -51 0 -53 2 -23 33 80 80 223 144 244 110z m-2468
-14 c0 -7 -10 -31 -23 -55 -22 -40 -21 -42 11 -16 30 26 40 23 82 -20 73 -73
104 -96 118 -87 7 5 7 3 2 -5 -6 -7 9 -34 33 -59 68 -72 31 -77 -89 -11 -60
33 -165 80 -232 105 l-122 44 75 40 c41 21 84 47 94 57 21 20 51 24 51 7z
m2545 -59 c4 -28 -187 -170 -228 -170 -58 0 -18 66 80 133 92 63 143 75 148
37z m-2838 -96 c59 -57 60 -89 3 -67 -18 7 -27 22 -20 33 19 31 -42 46 -88 21
-38 -20 -42 -17 -42 35 0 103 23 99 147 -22z m2887 12 c16 -41 -111 -157 -190
-172 -67 -13 -73 -7 -46 39 11 21 21 32 21 25 1 -6 38 23 84 65 93 86 112 92
131 43z m-2701 -38 c75 -28 214 -95 307 -148 388 -222 631 -277 921 -211 145
33 431 32 664 -2 l76 -11 -80 -58 c-94 -68 -104 -70 -87 -23 10 28 7 30 -15
10 -19 -17 -33 -18 -53 -2 -19 16 -26 16 -26 -1 0 -39 -32 -24 -60 28 -46 86
-241 69 -620 -54 -196 -64 -299 -108 -190 -82 33 8 83 14 110 15 28 1 59 11
70 24 29 33 110 54 110 28 0 -11 -9 -21 -20 -21 -11 0 -20 -13 -20 -30 0 -16
-10 -30 -22 -30 -17 0 -17 -7 0 -28 18 -22 -6 -40 -128 -93 -83 -37 -143 -71
-133 -78 9 -6 29 -33 43 -61 17 -31 30 -40 35 -24 5 14 -2 39 -16 55 -19 24
-17 29 12 29 19 0 109 41 200 90 159 87 333 130 240 59 -21 -16 -51 -29 -66
-29 -15 0 -71 -19 -125 -42 l-98 -42 79 -82 c74 -77 111 -145 52 -97 -15 13
-33 17 -40 9 -20 -20 -113 76 -113 117 0 21 -8 37 -19 37 -25 0 -46 -35 -26
-43 14 -7 105 -128 105 -141 0 -20 -120 -1 -151 24 -20 17 -30 19 -23 6 25
-41 -29 -52 -66 -13 -106 109 -78 160 164 300 25 14 32 27 18 36 -12 7 -36 -1
-54 -18 -17 -17 -55 -36 -84 -43 -85 -19 -203 -49 -240 -61 -19 -6 2 13 46 42
44 30 62 48 40 40 -22 -8 -89 -22 -150 -32 -60 -9 -130 -22 -155 -27 -109 -25
-31 24 105 67 83 25 150 54 150 64 0 10 -23 8 -50 -5 -28 -12 -56 -17 -63 -9
-24 23 8 37 87 38 76 1 232 34 325 70 41 16 31 20 -70 30 -239 22 -873 300
-1025 449 -36 35 -29 34 129 -26z m2786 -13 c-1 -57 -145 -175 -213 -175 -26
0 -37 -17 -38 -58 -2 -45 3 -53 23 -35 14 13 21 30 15 38 -5 9 22 29 59 44 38
16 90 52 117 80 90 95 136 45 54 -59 -24 -30 -88 -75 -143 -99 -70 -31 -90
-48 -67 -57 18 -7 63 10 105 38 43 29 70 39 63 22 -6 -15 2 -27 19 -27 16 0
24 11 19 25 -6 14 7 47 28 72 46 57 92 26 69 -46 -13 -42 -16 -43 -40 -11 -16
23 -30 28 -38 14 -7 -11 -5 -21 6 -21 36 0 10 -68 -39 -105 -62 -46 -267 -51
-251 -6 4 12 -10 45 -31 75 -48 70 -15 131 104 188 44 21 80 44 80 52 0 20 60
76 81 76 11 0 19 -11 18 -25z m-2770 -106 c36 -27 34 -29 -35 -29 -72 0 -99
26 -49 47 38 15 42 14 84 -18z m-127 -37 c294 -62 838 -258 742 -268 -32 -3
-112 12 -176 33 -72 25 -122 32 -130 21 -7 -12 -54 -5 -120 19 -59 22 -133 45
-163 51 -30 7 -55 23 -55 35 0 15 8 16 25 2 14 -12 57 -26 95 -32 39 -6 90
-17 115 -24 25 -8 45 -9 45 -4 0 14 -280 100 -339 103 -63 4 -241 76 -241 98
0 9 17 11 37 5 21 -7 95 -24 165 -39z m2188 -51 c33 -1 35 -5 10 -20 -16 -11
-51 -14 -78 -7 -33 8 -44 5 -34 -11 8 -13 5 -23 -7 -23 -24 0 -25 6 -10 46 7
17 27 27 45 24 19 -4 52 -8 74 -9z m883 -182 c6 -118 5 -122 -57 -155 -34 -19
-79 -50 -100 -70 -71 -67 -140 -61 -205 18 l-58 72 65 -40 c131 -80 370 59
299 174 -20 31 -20 51 0 93 34 74 49 50 56 -92z m-2942 59 c6 -10 -24 -18 -68
-18 -76 0 -131 47 -77 66 29 10 130 -23 145 -48z m2229 -9 c0 -17 -7 -27 -16
-21 -27 16 -219 -82 -316 -161 -97 -79 -236 -126 -346 -116 -47 4 -60 0 -40
-12 37 -24 13 -24 -50 0 -36 14 -71 11 -121 -10 -39 -16 -71 -22 -71 -12 0 47
195 102 328 93 100 -7 142 -1 168 21 19 17 73 67 122 111 136 124 342 189 342
107z m596 -44 c-54 -63 -58 -102 -10 -90 43 11 43 10 8 -30 -43 -49 -217 -60
-253 -17 -17 21 -11 25 26 17 27 -5 54 1 62 13 8 14 -5 22 -33 22 -25 0 -59 9
-76 20 -21 14 -1 16 64 7 81 -10 102 -5 160 40 77 61 94 67 52 18z m-389 -121
c16 -59 22 -99 14 -90 -86 101 -99 130 -76 180 13 28 26 43 29 33 3 -9 18 -65
33 -123z m-838 85 c17 -18 31 -40 31 -50 0 -25 -67 -24 -92 1 -14 14 -34 8
-61 -18 -51 -47 -173 -83 -207 -62 -36 22 46 134 105 146 103 20 194 13 224
-17z m670 12 c44 -24 126 -157 115 -189 -4 -12 -23 8 -42 44 -20 38 -59 76
-92 87 -63 22 -97 77 -48 77 17 0 47 -9 67 -19z m-2100 -34 c39 -8 43 -14 20
-28 -21 -13 -6 -19 51 -20 62 -1 40 -10 -100 -40 -207 -44 -231 -46 -190 -17
22 15 17 16 -20 4 -89 -29 -425 4 -370 37 11 6 117 23 235 38 118 15 215 33
215 40 0 13 54 8 159 -14z m311 -11 c14 -15 2 -17 -40 -7 -33 8 -69 23 -80 35
-14 15 -2 17 40 7 33 -8 69 -23 80 -35z m769 -4 c-16 -15 -51 -34 -79 -41
l-50 -13 47 41 c56 48 132 60 82 13z m880 -37 c10 -25 19 -37 20 -26 1 22 59
-51 60 -76 1 -10 -12 -12 -29 -6 -23 9 -30 -4 -30 -58 0 -38 10 -69 23 -69 14
0 19 -27 12 -80 -6 -44 -3 -80 7 -80 18 0 23 23 25 115 1 51 14 56 49 21 28
-28 31 -104 7 -152 -10 -19 -24 -61 -32 -94 l-14 -59 44 56 c30 38 45 86 46
145 2 94 13 106 53 58 25 -31 32 -174 10 -210 -7 -11 -4 -20 7 -20 24 0 50
133 31 163 -8 13 -2 19 14 13 68 -22 68 -229 1 -333 -33 -50 -109 8 -82 63 20
41 19 41 -8 8 -43 -53 -203 44 -186 112 10 40 9 41 -15 9 -25 -33 -28 -32 -62
5 -19 21 -44 33 -55 27 -13 -8 -17 11 -11 50 5 37 0 63 -12 64 -12 0 -6 12 13
27 19 14 29 31 23 37 -6 6 5 10 23 8 63 -6 60 193 -3 256 -17 17 -25 40 -18
51 22 35 71 22 89 -25z m389 -38 c-5 -9 13 -39 40 -67 90 -90 99 -125 33 -122
-31 1 -53 9 -48 17 5 8 -1 15 -13 15 -13 0 -19 11 -15 25 5 14 -8 56 -28 95
-51 95 -50 138 3 90 21 -19 34 -43 28 -53z m-507 -60 c-10 -26 -19 -34 -20
-17 -1 25 -4 25 -19 2 -10 -15 -32 -22 -50 -16 -18 7 -32 5 -32 -5 0 -9 -16
-13 -36 -8 -164 43 -178 -454 -14 -506 40 -13 40 -13 0 -28 -35 -14 -31 -18
25 -30 85 -18 97 -41 41 -71 -44 -24 -44 -25 -6 -40 22 -8 28 -16 13 -17 -23
-1 -23 -7 -3 -31 20 -24 20 -30 0 -30 -17 0 -15 -14 8 -49 17 -27 32 -63 32
-79 0 -16 10 -36 23 -44 14 -9 18 -5 9 9 -17 28 32 31 59 4 26 -26 169 -43
169 -19 0 16 -28 26 -63 21 -7 -1 -47 39 -88 89 -74 91 -74 91 -31 121 23 16
42 40 42 52 0 17 -7 16 -24 -1 -32 -32 -56 -30 -56 4 0 15 18 32 40 38 22 6
40 21 40 35 0 18 -7 18 -30 -1 -17 -14 -37 -19 -45 -10 -8 8 -4 19 10 24 42
15 28 46 -20 46 -32 0 -61 26 -100 90 -30 50 -47 90 -38 90 9 0 34 -31 54 -70
21 -38 45 -70 53 -70 18 0 3 41 -58 155 -41 77 -43 95 -21 140 46 95 67 73 59
-62 -8 -123 -6 -128 42 -140 76 -19 348 -230 493 -382 146 -154 170 -155 214
-10 38 127 31 143 -18 39 -23 -49 -40 -99 -38 -110 2 -11 -12 -2 -32 21 -19
23 -44 42 -55 42 -11 1 -30 21 -42 44 -12 24 -25 39 -30 35 -4 -4 -35 20 -68
52 l-60 59 107 -53 c124 -61 159 -54 57 13 l-69 45 37 72 c21 39 39 114 41
168 l4 96 37 -47 c30 -37 36 -69 28 -157 -7 -72 -4 -99 9 -80 10 17 19 50 19
75 0 114 99 18 102 -99 l2 -86 20 70 20 69 26 -48 c28 -53 22 -81 -54 -238
-22 -47 -53 -91 -69 -97 -15 -6 -27 -25 -27 -43 -1 -29 -3 -29 -20 -3 -11 17
-20 20 -20 8 0 -12 19 -44 43 -70 23 -26 38 -34 32 -18 -5 17 15 75 46 130 30
55 66 138 80 185 27 91 45 102 90 56 38 -38 37 -52 -18 -175 -51 -115 -113
-184 -128 -141 -20 60 -39 16 -33 -80 3 -58 1 -85 -5 -60 -5 25 -18 45 -27 45
-10 0 -16 -20 -15 -45 6 -121 -7 -172 -53 -202 -56 -37 -213 -62 -272 -43 -44
14 -36 50 12 50 121 0 252 344 168 441 -38 45 -40 45 -21 5 63 -129 -14 -352
-139 -401 -44 -17 -80 -38 -80 -46 0 -20 -68 -1 -158 43 l-72 36 75 1 c42 1
75 -9 75 -21 0 -14 14 -16 35 -7 19 8 50 14 69 13 21 -1 30 9 23 27 -6 16 -3
29 7 29 85 0 147 244 87 340 -13 20 -18 -2 -17 -71 4 -148 -97 -309 -192 -309
-36 0 -5 61 36 71 55 14 72 73 72 247 -1 80 -6 103 -20 82 -11 -16 -20 -77
-20 -134 0 -111 -71 -201 -138 -176 -17 7 -24 6 -17 -2 20 -20 -47 -67 -95
-66 -37 1 -37 2 5 22 25 12 45 33 45 46 0 13 18 40 40 60 22 20 40 50 40 66 0
16 -21 -1 -46 -38 -53 -80 -124 -100 -143 -41 -20 64 -66 92 -101 63 -25 -20
-30 -19 -30 9 0 18 -9 28 -19 22 -10 -7 -29 6 -41 29 -12 23 -31 36 -41 29
-10 -6 -19 2 -19 18 0 17 -12 42 -26 57 -14 14 -34 44 -44 66 -16 35 -19 31
-25 -26 -6 -51 -14 -62 -33 -45 -18 14 -22 48 -12 111 8 49 7 90 -1 90 -9 0
-22 -36 -29 -80 -7 -44 -21 -80 -29 -80 -27 0 -40 84 -20 122 10 19 18 52 18
72 -1 20 -23 -11 -49 -69 -73 -160 -77 -142 -20 85 22 88 -19 39 -50 -60 -24
-74 -50 -109 -84 -110 -8 0 -2 29 13 65 15 36 32 110 39 165 12 109 16 117
-56 -119 -14 -43 -37 -83 -51 -87 -20 -7 -23 3 -13 38 37 121 53 209 47 247
-5 27 -13 13 -22 -39 -24 -129 -83 -241 -129 -244 -38 -3 -39 1 -15 60 29 70
60 234 45 234 -6 0 -29 -62 -52 -138 -30 -98 -53 -140 -81 -147 -53 -14 -64 2
-36 53 13 23 26 83 28 132 l5 90 -40 -125 c-40 -127 -80 -171 -63 -70 8 54 8
54 -34 -12 -54 -85 -71 -72 -31 23 45 108 35 137 -13 39 -23 -47 -54 -85 -69
-85 -35 0 -35 20 3 69 58 76 28 76 -39 -1 -71 -81 -120 -85 -64 -5 18 25 32
60 32 76 0 17 -17 4 -37 -29 -40 -66 -99 -121 -113 -106 -5 5 7 27 28 49 20
22 47 61 61 88 14 29 -7 13 -49 -36 -73 -85 -125 -112 -103 -55 11 27 5 27
-47 0 l-59 -31 20 53 c17 46 15 51 -16 39 -122 -47 -290 -56 -202 -10 26 13
75 50 109 82 57 54 68 57 143 40 45 -10 102 -16 128 -13 26 3 106 11 177 19
72 7 193 31 270 53 429 120 500 89 735 -325 62 -107 119 -181 160 -206 77 -47
160 -75 144 -49 -6 10 -25 18 -41 18 -58 0 -127 105 -187 287 -68 203 -101
269 -100 203 0 -22 14 -76 30 -120 43 -120 36 -114 -54 47 -45 81 -117 183
-160 228 -42 45 -77 93 -77 108 0 35 -112 91 -166 83 -33 -5 -43 -18 -39 -56
4 -50 4 -50 -45 10 -66 80 -61 106 19 91 10 -2 48 13 85 33 l67 36 114 -128
c63 -70 131 -156 150 -190 l35 -62 -12 80 c-17 108 -61 210 -103 242 -33 25
-32 27 5 27 52 1 260 86 305 125 101 88 167 74 126 -27z m-1551 63 c-7 -11
-30 -20 -52 -20 -22 0 -36 -7 -30 -17 6 -9 40 -12 76 -7 54 7 61 4 41 -17 -15
-17 -87 -28 -200 -31 -96 -2 -143 0 -105 5 39 6 79 19 90 30 14 15 -5 17 -60
10 -212 -31 -270 -37 -270 -27 0 10 244 66 350 80 121 16 172 14 160 -6z m750
-20 c0 -11 -16 -20 -36 -20 -20 0 -47 -11 -60 -24 -13 -13 -24 -15 -24 -4 0
32 45 68 84 68 20 0 36 -9 36 -20z m-1427 -124 c-5 -20 -1 -36 10 -36 11 0 14
-9 7 -20 -7 -11 -3 -20 9 -20 11 0 21 12 21 28 0 15 18 32 40 38 23 6 40 0 40
-13 1 -15 6 -16 15 -2 10 14 37 13 85 -4 39 -14 59 -25 45 -26 -30 -1 -34 -61
-4 -61 12 0 17 -7 12 -16 -6 -8 8 -37 30 -65 l40 -49 -13 50 c-10 44 -9 45 11
13 12 -20 17 -41 11 -48 -7 -7 7 -33 31 -59 87 -91 -52 -14 -151 85 -18 18
-32 22 -32 10 0 -11 18 -39 40 -61 25 -25 30 -40 15 -40 -38 0 -178 100 -166
118 16 27 -41 89 -67 73 -18 -11 -18 -21 -1 -43 19 -22 17 -28 -9 -28 -19 0
-32 17 -32 43 0 24 -7 37 -15 29 -19 -19 -19 -79 -1 -93 8 -6 -8 -35 -36 -66
-40 -42 -46 -61 -29 -82 17 -20 16 -30 -3 -38 -21 -8 -21 -14 1 -29 18 -13 20
-23 6 -32 -12 -8 -47 32 -82 92 -68 119 -75 145 -31 129 25 -10 27 -5 11 26
-34 63 -3 157 61 185 32 14 58 31 58 37 0 6 19 10 41 10 30 0 39 -10 32 -35z
m451 -51 c52 -127 100 -237 118 -270 22 -41 11 -44 -47 -12 -56 29 -106 88
-155 181 -60 112 -50 180 14 101 26 -32 27 -31 16 10 -18 65 26 57 54 -10z
m1782 17 c20 -24 18 -26 -6 -12 -16 10 -61 16 -100 13 -52 -3 -62 0 -40 15 41
28 117 19 146 -16z m-1643 -51 c13 -28 31 -45 41 -39 10 7 8 24 -5 40 -31 37
19 39 65 3 28 -23 76 -135 76 -178 0 -39 -61 -12 -109 48 l-53 65 25 -60 c14
-33 38 -76 54 -95 51 -61 -22 -43 -81 20 -78 83 -124 183 -71 153 20 -11 20
-8 0 13 -34 37 -31 79 5 79 17 0 41 -22 53 -49z m806 -45 c27 -40 46 -78 41
-83 -20 -20 -106 59 -115 106 -14 72 15 63 74 -23z m-567 29 c4 -45 10 -64 35
-123 35 -82 -3 -113 -50 -41 -20 31 -37 75 -38 98 -1 24 -8 54 -17 67 -9 16 0
24 27 24 22 0 42 -11 43 -25z m83 0 c53 -41 98 -170 64 -183 -15 -5 -46 13
-68 42 -45 57 -52 86 -20 86 12 0 8 14 -10 31 -52 53 -27 71 34 24z m-826
-123 c12 -16 63 -47 112 -70 97 -46 121 -73 36 -41 -48 18 -50 17 -25 -13 25
-30 23 -32 -22 -19 -91 28 -149 73 -118 93 22 14 18 21 -17 30 -24 7 -40 21
-34 30 16 26 41 22 68 -10z m301 -231 c-49 -38 -193 -75 -213 -55 -5 6 18 16
53 24 34 8 87 26 116 42 78 40 102 34 44 -11z m140 24 c-1 -28 -160 -128 -192
-121 -22 4 -5 26 55 70 84 62 137 82 137 51z m2688 -257 c22 -57 13 -76 -17
-37 -27 36 -28 33 -11 -29 18 -65 6 -104 -43 -142 -7 -5 -44 -58 -83 -117 -88
-134 -114 -82 -30 62 30 52 74 140 98 195 45 105 66 121 86 68z m79 -211 c6
-24 5 -54 -2 -65 -7 -12 -19 1 -27 28 -13 47 -14 47 -16 -11 -1 -34 -20 -81
-42 -104 -22 -24 -40 -51 -40 -61 0 -16 -45 -72 -179 -220 -22 -25 -38 -56
-36 -70 8 -40 -227 -20 -270 23 -17 17 -2 23 59 23 81 0 306 164 306 224 0 10
30 57 67 103 37 45 78 103 91 128 30 57 74 58 89 2z m-3792 -60 c113 -11 230
-29 260 -39 45 -15 41 -16 -25 -7 -44 6 -192 16 -330 22 -313 14 -489 44 -260
44 83 0 242 -9 355 -20z m3865 -156 c-1 -58 -130 -166 -245 -205 -36 -13 -71
-32 -79 -44 -8 -11 -19 -16 -25 -10 -22 22 59 90 97 82 29 -6 35 0 25 25 -21
56 169 261 202 217 14 -19 25 -48 25 -65z m-3028 -45 c54 -25 67 -68 13 -46
-19 8 -73 28 -120 44 -47 16 -85 34 -85 40 0 15 134 -12 192 -38z m3050 -213
c-23 -44 -59 -86 -80 -92 -21 -7 -43 -26 -50 -42 -6 -16 -25 -29 -43 -29 -17
0 -26 9 -19 20 18 28 -57 25 -86 -4 -19 -19 -24 -15 -25 15 -2 38 -2 38 -18
-1 -9 -22 -12 -49 -7 -60 5 -11 -4 -4 -21 16 -24 30 -33 32 -46 9 -66 -108
-306 -186 -308 -100 0 26 -9 21 -34 -20 -48 -77 -164 -35 -197 73 -7 23 -31
62 -54 87 -67 74 -30 68 103 -16 121 -76 173 -87 151 -32 -7 19 6 24 48 18 70
-10 257 43 306 87 19 17 73 40 119 51 81 18 258 125 278 167 6 11 13 0 17 -23
3 -24 -12 -80 -34 -124z m-2831 119 c-6 -9 18 -31 54 -48 39 -19 69 -24 76
-12 7 11 27 14 45 7 29 -12 28 -18 -11 -50 -34 -28 -37 -38 -14 -38 21 -1 30
-21 30 -66 -1 -51 -9 -64 -36 -59 -76 13 -114 -62 -61 -120 32 -35 32 -41 0
-95 -19 -31 -34 -79 -34 -106 0 -103 -50 -48 -56 62 -3 67 -24 148 -55 208
-27 54 -44 106 -39 116 6 9 -5 26 -25 38 -33 20 -33 22 0 42 39 23 47 59 14
59 -12 0 -16 -9 -9 -20 7 -11 -2 -20 -19 -20 -53 0 10 79 79 99 33 9 63 18 66
19 4 1 1 -6 -5 -16z m1919 -100 c22 -9 63 -26 90 -38 28 -12 79 -27 115 -34
108 -22 73 -49 -53 -41 -134 9 -207 41 -292 130 l-59 63 79 -32 c44 -17 98
-39 120 -48z m-168 -117 c159 -264 322 -325 584 -218 68 28 168 55 222 62 54
6 138 34 185 62 48 28 87 42 87 31 0 -76 -94 -202 -151 -202 -16 0 -35 -13
-42 -30 -6 -16 -20 -30 -30 -30 -11 0 -14 9 -7 20 7 11 -2 20 -19 20 -19 0
-31 18 -31 45 -1 36 -4 39 -20 15 -11 -16 -20 -21 -20 -10 0 11 -18 -9 -40
-45 -22 -36 -45 -65 -51 -65 -6 0 -5 10 3 23 10 16 5 18 -13 6 -15 -9 -50 -19
-78 -23 -28 -3 -78 -11 -111 -16 -245 -41 -318 -24 -388 91 -19 32 -41 53 -49
46 -7 -8 -14 -5 -15 5 -2 10 -5 42 -9 71 -3 30 -20 81 -38 114 -60 117 -36
139 31 28z m-41 -225 c11 0 19 -19 19 -41 0 -23 8 -36 18 -30 11 6 35 -25 54
-69 23 -51 43 -73 55 -61 12 12 10 30 -6 50 -30 36 -15 40 40 10 46 -24 51
-59 9 -59 -40 0 -38 -27 7 -67 27 -25 54 -30 105 -19 l68 15 -66 10 c-36 6
-63 20 -60 31 3 11 13 18 22 15 9 -3 61 -7 115 -8 82 -2 96 -7 77 -30 -42 -50
108 -6 210 63 38 25 62 31 66 17 5 -13 23 -20 42 -16 192 37 236 17 106 -50
-42 -21 -82 -53 -89 -70 -20 -54 -69 -37 -58 20 l10 51 -77 -36 c-42 -20 -92
-51 -112 -70 -48 -48 -226 -35 -339 24 -18 10 -50 13 -71 7 -62 -16 -171 87
-162 152 6 38 -1 52 -24 52 -23 0 -30 -14 -24 -55 6 -38 0 -56 -19 -56 -21 0
-26 35 -20 165 9 196 44 266 69 138 9 -46 25 -83 35 -83z m-3108 -267 c-11
-42 -10 -42 18 -4 43 57 35 11 -11 -65 -22 -36 -54 -71 -71 -77 -35 -13 -20
-87 22 -112 31 -19 57 -125 38 -157 -10 -16 -19 -15 -33 5 -12 17 -14 -3 -5
-58 8 -56 5 -85 -9 -85 -12 0 -22 30 -22 67 0 79 -17 101 -54 70 -28 -24 -26
95 4 142 7 12 5 21 -4 21 -33 0 -66 -81 -69 -170 -4 -115 -36 -75 -37 46 0 53
8 82 20 74 11 -7 29 13 40 44 34 91 68 155 94 172 13 8 30 46 37 84 8 38 22
64 33 58 11 -7 15 -32 9 -55z m1602 24 c26 -26 -1 -97 -36 -97 -13 0 -13 14 1
40 15 27 15 40 1 40 -12 0 -21 9 -21 20 0 27 27 25 55 -3z m681 -48 c46 -33
59 -69 23 -69 -12 0 -16 8 -10 18 6 10 -4 24 -23 31 -18 7 -38 4 -45 -7 -6
-11 -26 -8 -47 8 -27 19 -30 29 -10 36 45 18 66 15 112 -17z m844 6 c0 -14 52
-50 115 -81 l115 -55 -87 9 c-47 5 -102 23 -122 42 -27 24 -39 26 -45 8 -5
-14 -28 -26 -51 -28 -27 -2 -38 5 -29 19 76 117 104 140 104 86z m-2910 -34
c6 -11 37 -15 68 -8 32 6 63 1 71 -11 8 -14 -5 -22 -37 -22 -35 0 -47 -9 -40
-28 6 -15 1 -34 -11 -41 -31 -20 -26 -51 9 -51 17 0 30 12 30 28 0 72 56 76
150 12 94 -64 103 -91 45 -127 -22 -15 -41 -13 -63 6 -46 38 -39 66 13 50 41
-13 39 -8 -15 48 -56 58 -106 86 -81 45 6 -10 0 -24 -14 -30 -19 -9 -19 -15
-1 -23 14 -7 43 -43 67 -80 38 -61 49 -67 110 -57 54 8 69 4 69 -21 0 -24 -12
-29 -53 -18 -37 9 -49 6 -39 -10 8 -13 33 -23 55 -23 30 0 38 -9 29 -33 -7
-18 2 -49 21 -70 18 -20 26 -37 17 -37 -9 0 -42 29 -73 64 -31 35 -57 52 -57
37 0 -17 -16 -21 -49 -13 -48 12 -50 9 -43 -69 7 -87 -58 -66 -72 24 -3 21
-15 36 -26 33 -11 -3 -17 -15 -12 -26 4 -11 7 -31 8 -45 0 -14 8 -25 17 -25 8
0 33 -19 54 -42 47 -50 91 -1 70 79 -14 52 17 56 64 9 19 -19 48 -36 64 -39
35 -5 125 -86 125 -113 0 -10 -15 -13 -33 -5 -20 7 -12 -9 20 -41 29 -29 53
-61 53 -71 0 -9 14 -17 31 -17 47 0 112 -39 99 -60 -6 -10 -40 -1 -76 21 -35
21 -76 39 -90 39 -14 0 -47 23 -73 51 -26 28 -53 42 -59 32 -7 -10 2 -24 18
-30 17 -7 30 -31 30 -55 0 -43 -1 -43 -40 -8 -22 20 -40 48 -40 63 0 34 -34
35 -46 2 -5 -14 9 -45 32 -70 49 -53 33 -82 -19 -36 -20 17 -82 71 -137 120
-96 86 -147 107 -86 36 106 -124 49 -92 -115 65 -111 106 -132 151 -136 297
-3 68 -11 137 -19 153 -23 49 188 186 216 141z m2770 -61 c0 -20 -82 -60 -121
-60 -39 0 -17 33 36 54 73 29 85 30 85 6z m-891 -343 c60 -28 69 -66 11 -51
-22 6 -45 2 -51 -8 -6 -10 -20 -18 -31 -18 -11 0 -15 9 -8 20 7 11 -3 26 -22
34 -35 13 -29 19 46 45 2 0 27 -9 55 -22z m-339 -42 c105 -22 163 -53 104 -57
-19 -2 -43 -5 -54 -8 -11 -3 -30 -6 -43 -7 -14 -2 -10 -18 11 -41 33 -36 33
-42 1 -90 -40 -62 -4 -71 38 -10 17 23 40 36 51 29 25 -15 27 -7 10 37 -7 18
-32 32 -55 32 -33 1 -36 5 -15 18 16 10 39 14 53 9 13 -5 38 5 56 23 29 29 37
29 87 0 l56 -32 -60 12 c-67 14 -48 -19 20 -36 38 -9 38 -10 -5 -24 -64 -21
-60 -77 5 -65 28 5 50 2 50 -6 0 -9 25 -19 55 -23 68 -7 54 -47 -15 -44 -27 1
-57 -11 -66 -26 -18 -29 -129 -19 -199 17 -37 20 -51 -11 -15 -33 35 -22 21
-50 -25 -50 -60 1 -107 30 -77 49 12 7 22 22 22 33 0 11 -10 14 -23 6 -13 -8
-51 -21 -85 -29 -50 -12 -53 -15 -16 -17 30 -1 41 -10 32 -25 -10 -16 -4 -20
16 -12 16 6 42 3 58 -7 23 -14 23 -17 1 -18 -22 0 -23 -6 -4 -28 31 -38 -2
-56 -73 -42 l-56 12 45 -34 c61 -45 57 -77 -5 -36 -112 73 -125 604 -13 557
18 -8 78 -23 133 -34z m-1711 -69 c1 -14 -12 -20 -29 -13 -16 6 -30 35 -30 63
0 56 58 7 59 -50z m1422 -71 c51 -84 43 -127 -24 -120 -64 7 -72 -14 -61 -155
10 -115 40 -94 43 30 1 55 6 50 63 -58 56 -106 60 -126 41 -190 -15 -49 -16
-77 -1 -91 14 -15 16 -8 6 19 -9 26 11 13 57 -35 39 -41 82 -75 95 -75 17 0
21 -19 13 -60 -9 -45 -5 -60 18 -60 16 0 29 -9 29 -20 0 -11 10 -20 21 -20 12
0 35 -14 52 -30 16 -16 54 -30 85 -30 30 0 72 -13 93 -29 22 -17 62 -30 89
-30 28 -1 79 -19 115 -41 36 -22 79 -40 95 -40 17 0 30 -8 30 -17 0 -9 41 -18
92 -20 50 -2 108 -12 127 -23 47 -24 67 -2 36 38 -22 28 -21 29 9 5 19 -14 44
-20 57 -13 37 23 300 50 354 37 l50 -13 -46 -24 -46 -25 42 -22 c55 -30 152
-30 134 -1 -7 12 -35 16 -63 9 -32 -8 -45 -5 -36 8 7 12 37 21 66 21 42 1 47
5 24 20 -16 11 -25 20 -20 21 31 5 125 20 240 36 72 11 149 25 172 33 46 14
86 -60 41 -76 -13 -5 -18 -14 -11 -21 6 -7 55 2 108 20 75 26 104 28 133 10
25 -16 37 -17 37 -2 0 13 17 16 40 9 27 -9 40 -4 40 15 0 37 100 86 101 50 0
-14 13 4 29 40 15 36 42 65 59 65 16 0 45 22 63 50 36 54 74 68 55 20 -6 -17
-1 -30 11 -30 45 0 19 -92 -46 -160 -74 -79 -152 -130 -152 -101 0 10 -25 7
-55 -8 -138 -69 -296 -119 -323 -103 -10 7 -23 -3 -30 -21 -9 -23 -28 -29 -72
-20 -33 7 -60 4 -60 -5 0 -22 -114 -40 -135 -21 -34 30 -188 -3 -162 -35 21
-25 18 -29 -24 -22 -27 4 -47 18 -44 31 3 14 -4 25 -15 25 -11 0 -20 -9 -20
-19 0 -25 -148 -6 -157 19 -8 26 -63 26 -63 0 0 -11 -18 -20 -40 -20 -22 0
-40 11 -40 25 -1 17 -7 15 -20 -5 -13 -20 -19 -22 -20 -5 0 31 -74 33 -84 2
-5 -14 -31 -17 -72 -8 -70 15 -69 51 1 51 30 0 37 6 22 21 -13 13 -38 14 -69
2 -27 -10 -68 -10 -93 -1 -26 10 -45 9 -45 -1 0 -10 11 -22 25 -28 14 -5 -4
-8 -40 -6 -50 2 -62 10 -54 36 11 36 -63 55 -227 59 -64 2 -84 9 -76 30 6 15
2 32 -7 37 -10 6 -21 1 -25 -11 -9 -26 -163 45 -190 87 -9 14 -41 38 -71 54
-42 21 -52 38 -43 68 10 31 6 36 -22 26 -19 -8 -48 -3 -64 11 -26 21 -25 26 7
39 30 11 26 14 -18 16 -50 1 -83 41 -34 41 14 0 13 13 -1 40 -12 23 -16 50
-10 60 7 11 -1 14 -19 8 -31 -12 -76 67 -66 118 3 13 -10 21 -29 18 -76 -12
-147 402 -76 446 11 7 20 34 20 61 0 68 33 61 81 -16z m-1261 -160 c0 -21
-165 120 -178 152 -4 11 34 -14 85 -56 51 -42 93 -85 93 -96z m533 -86 c37
-28 67 -60 67 -71 0 -28 -120 45 -142 87 -27 49 -3 44 75 -16z m247 1 c21 -25
18 -30 -15 -30 -22 0 -51 14 -65 30 -21 25 -18 30 15 30 22 0 51 -13 65 -30z
m820 -25 c0 -8 29 -16 65 -18 104 -4 235 -31 235 -48 0 -44 -313 -10 -335 36
-17 35 -15 45 7 45 15 0 28 -7 28 -15z m2602 -371 c-12 -12 -22 -49 -22 -83
-1 -44 -6 -53 -19 -33 -17 27 -76 -76 -84 -145 -1 -13 -9 18 -17 67 -12 69 -8
102 17 140 17 28 30 57 27 65 -2 8 6 15 18 15 12 0 17 -14 10 -32 -8 -20 -3
-28 13 -23 14 5 26 19 28 32 4 42 7 45 29 32 15 -10 15 -20 0 -35z"/>
<path d="M2240 5390 c0 -6 8 -26 19 -45 54 -102 121 -256 121 -279 0 -14 7
-26 16 -26 8 0 59 -58 113 -130 75 -99 104 -124 124 -108 21 18 20 27 -4 52
-16 16 -23 40 -16 53 9 16 5 16 -13 -1 -29 -27 -110 42 -89 76 6 9 -8 26 -30
38 -23 12 -41 31 -41 42 0 11 -41 91 -92 179 -83 144 -108 179 -108 149z"/>
<path d="M4228 3276 c7 -36 23 -74 35 -85 17 -15 19 -11 10 16 -7 20 -13 58
-13 85 0 26 -10 48 -22 48 -15 0 -19 -22 -10 -64z"/>
<path d="M4619 2879 c-60 -73 -62 -107 -7 -115 36 -5 44 7 54 80 14 107 13
107 -47 35z"/>
<path d="M1687 3905 c5 -19 15 -60 22 -90 6 -30 21 -55 32 -55 14 0 13 13 0
39 -12 21 -23 62 -25 90 -3 28 -12 51 -22 51 -9 0 -12 -16 -7 -35z"/>
<path d="M2339 2702 c11 -20 43 -42 71 -47 50 -9 50 -8 16 24 -59 54 -111 68
-87 23z"/>
<path d="M1177 1973 c-24 -18 -32 -50 -28 -114 3 -49 -2 -107 -11 -129 -12
-31 -16 -23 -17 35 0 41 -10 75 -21 75 -11 0 -20 14 -20 30 0 17 -9 30 -21 30
-14 0 -14 -12 0 -39 12 -21 21 -59 21 -85 0 -83 60 -150 94 -104 19 26 47 35
96 31 39 -3 70 2 70 11 0 10 -29 20 -65 22 -61 5 -115 47 -115 90 0 10 17 14
37 9 32 -8 37 1 33 68 -5 94 -10 101 -53 70z"/>
<path d="M1125 1545 c41 -47 75 -96 75 -109 0 -17 6 -18 22 -2 24 24 6 106
-23 106 -11 0 -20 20 -21 45 -2 34 -5 36 -12 10 -5 -19 -14 -35 -21 -35 -6 0
-30 16 -53 35 -23 19 -8 -3 33 -50z"/>
<path d="M2629 1359 c-21 -35 3 -44 75 -28 57 13 61 17 26 30 -57 23 -86 22
-101 -2z"/>
<path d="M3870 272 c40 -30 40 -31 -5 -31 -26 -1 -45 -13 -45 -31 0 -16 10
-30 21 -30 12 0 16 9 9 20 -7 11 7 20 30 20 55 0 46 67 -10 77 -40 7 -40 6 0
-25z"/>
<path d="M5957 8468 c-4 -32 -17 -56 -30 -54 -14 3 -18 -12 -11 -40 11 -39 13
-40 20 -6 7 31 12 33 28 10 16 -23 18 -23 10 2 -5 17 -1 44 7 61 9 17 9 43 -1
59 -12 19 -19 10 -23 -32z"/>
<path d="M5930 8201 c10 -31 6 -38 -19 -29 -17 7 -27 19 -22 27 5 8 -5 14 -23
14 -25 0 -22 -8 13 -36 51 -42 81 -47 81 -16 0 12 9 16 20 9 34 -21 22 -1 -22
37 -40 35 -41 34 -28 -6z"/>
<path d="M727 2468 c-56 -26 -56 -26 23 -15 177 26 231 43 127 42 -51 -1 -119
-13 -150 -27z"/>
<path d="M1840 1880 c0 -27 260 -300 286 -300 11 0 0 23 -26 50 -50 53 -85
163 -37 115 14 -14 58 -25 99 -25 102 0 160 -22 108 -40 -35 -12 -34 -14 6
-25 24 -6 39 -3 33 7 -6 10 9 18 35 19 25 1 -75 50 -224 110 -308 124 -280
115 -280 89z"/>
<path d="M4905 1625 c53 -4 91 -15 85 -25 -6 -10 -24 -13 -39 -8 -15 6 -56 -4
-90 -22 -38 -19 -104 -31 -167 -29 -57 2 -135 2 -174 0 l-70 -4 65 -24 c35
-12 67 -32 70 -43 3 -11 12 -18 21 -15 9 3 33 -4 54 -15 32 -17 37 -15 27 11
-10 25 -1 29 45 18 46 -10 52 -8 28 11 -25 19 -23 21 10 12 22 -6 85 -20 140
-32 55 -12 147 -39 205 -61 320 -119 330 -124 302 -141 -32 -20 -70 -24 -50
-5 25 26 -76 61 -124 43 -31 -11 -58 -9 -75 6 -22 18 -28 16 -28 -8 0 -17 -11
-35 -25 -40 -14 -5 7 -8 45 -8 52 1 98 -20 180 -82 106 -81 161 -82 89 -3 -19
22 -28 39 -19 39 26 0 179 -46 200 -61 120 -82 370 -213 370 -194 0 71 -359
298 -651 411 -65 26 -132 54 -149 62 -16 8 -86 28 -155 43 -135 30 -164 58
-60 60 224 4 334 1 400 -11 64 -12 75 -9 75 21 0 20 -6 30 -13 23 -7 -8 -24
-4 -38 7 -14 11 -32 18 -42 16 -9 -3 -65 6 -123 19 -129 29 -165 30 -124 4 23
-15 17 -19 -27 -20 -43 0 -54 8 -46 30 10 25 -8 29 -103 26 l-114 -3 95 -8z"/>
<path d="M3854 1606 c-19 -5 -33 -24 -30 -43 4 -21 -5 -30 -24 -25 -60 17
-126 11 -134 -10 -10 -31 135 -52 168 -25 16 14 26 14 26 2 0 -46 76 -40 97 7
19 41 37 48 128 51 58 2 80 7 50 11 -31 5 -50 17 -44 27 11 19 -169 23 -237 5z"/>
<path d="M3355 1578 c-19 -11 -35 -30 -35 -43 0 -17 6 -17 24 1 13 13 68 24
121 24 60 0 93 8 85 20 -16 26 -150 25 -195 -2z"/>
<path d="M3645 1447 c41 -17 90 -26 108 -19 46 18 31 25 -83 38 l-100 12 75
-31z"/>
<path d="M2050 1437 c22 -13 60 -41 85 -63 25 -23 45 -32 45 -21 0 34 -90 107
-131 106 -38 0 -38 -1 1 -22z"/>
<path d="M4305 1432 c34 -25 33 -28 -10 -41 l-45 -13 47 -19 c26 -11 55 -14
66 -7 10 6 32 1 48 -13 24 -20 29 -16 29 25 0 65 -36 96 -109 95 -55 0 -58 -3
-26 -27z"/>
<path d="M3340 1407 c0 -14 74 -77 97 -82 13 -3 23 4 23 15 0 11 23 20 51 20
29 0 46 -9 39 -20 -14 -23 4 -24 54 -4 68 27 4 61 -129 69 -74 5 -135 6 -135
2z"/>
<path d="M3896 1399 c-4 -12 -38 -25 -77 -28 -100 -8 -107 -10 -93 -24 7 -7 4
-29 -7 -50 -16 -29 -13 -37 10 -37 17 0 31 15 31 32 0 27 14 30 75 19 100 -19
124 -45 63 -69 -45 -18 -45 -20 -5 -21 56 -1 96 48 75 94 -8 19 -16 48 -17 63
-1 36 -44 52 -55 21z"/>
<path d="M3420 1284 c0 -28 75 -89 100 -81 12 4 -5 28 -39 53 -33 25 -61 37
-61 28z"/>
<path d="M5115 1205 c-19 -4 -35 -21 -35 -36 0 -36 3 -36 69 -1 54 28 33 52
-34 37z"/>
<path d="M5101 1094 l-49 -60 58 38 c32 21 62 35 66 31 4 -3 11 -2 16 2 5 5
-3 18 -17 30 -18 14 -38 4 -74 -41z"/>
</g>
</svg>
