<?xml version="1.0" standalone="no"?>
<!DOCTYPE svg PUBLIC "-//W3C//DTD SVG 20010904//EN"
 "http://www.w3.org/TR/2001/REC-SVG-20010904/DTD/svg10.dtd">
<svg version="1.0" xmlns="http://www.w3.org/2000/svg"
 width="300.000000pt" height="286.000000pt" viewBox="0 0 300.000000 286.000000"
 preserveAspectRatio="xMidYMid meet">
<metadata>
Created by potrace 1.10, written by Peter Selinger 2001-2011
</metadata>
<g transform="translate(0.000000,286.000000) scale(0.050000,-0.050000)"
fill="#000000" stroke="none">
<path d="M3994 4990 l-435 -429 -41 41 c-62 62 -87 37 -101 -104 -19 -186
-255 -849 -315 -887 -53 -32 -59 64 -9 138 38 56 60 133 88 308 21 128 42 258
48 288 17 94 -46 66 -91 -40 -230 -540 -229 -538 -330 -495 -62 25 -87 27
-133 8 -75 -31 -68 -41 -216 342 -129 333 -156 378 -229 379 -25 1 -159 120
-350 311 -170 171 -321 310 -335 310 -47 0 -25 -43 80 -160 166 -184 289 -460
205 -460 -48 0 -35 -39 37 -120 43 -47 87 -132 120 -232 64 -190 65 -207 13
-194 -57 15 -51 -3 50 -147 50 -71 90 -142 90 -159 0 -16 14 -35 32 -42 35
-13 168 -274 168 -329 0 -19 23 -78 51 -131 47 -89 49 -98 17 -116 -122 -72
-171 -135 -158 -210 18 -106 -108 -418 -188 -466 -51 -30 -58 -47 -71 -174 -7
-77 -36 -205 -62 -284 -35 -101 -48 -181 -45 -265 2 -67 -3 -149 -11 -183 -13
-56 -8 -66 66 -115 109 -72 149 -70 134 5 -10 50 -6 56 28 48 50 -14 49 3 -4
89 -98 158 -38 421 131 584 58 55 72 84 72 145 0 72 150 396 183 396 55 0 179
-203 151 -247 -19 -29 -35 -122 -44 -254 -7 -115 -27 -287 -43 -382 -29 -164
-28 -184 11 -378 55 -269 58 -245 -68 -522 -60 -133 -103 -252 -95 -265 189
-302 232 -319 342 -137 142 235 148 269 83 471 -55 171 -55 174 -32 408 20
197 19 256 -5 357 -28 118 -27 127 24 280 34 101 46 161 32 166 -67 22 -139
146 -139 239 0 65 55 23 69 -53 10 -51 111 -179 111 -141 0 61 37 -19 47 -102
7 -49 18 -139 25 -200 8 -60 22 -132 32 -160 11 -27 27 -95 37 -150 9 -55 35
-183 57 -284 l40 -184 -70 -162 c-109 -252 -107 -333 14 -514 121 -178 111
-178 251 -4 139 172 143 228 33 502 l-72 179 40 242 40 242 -49 121 c-46 114
-48 134 -35 381 14 255 13 264 -38 364 -68 134 -61 207 19 207 37 0 269 -361
269 -419 0 -39 33 -85 125 -172 162 -154 213 -247 176 -317 -22 -41 -22 -56
-1 -82 18 -22 22 -66 13 -149 -8 -79 -5 -120 10 -125 17 -6 16 -21 -2 -54 -37
-69 -9 -75 91 -21 134 72 139 83 102 215 -18 63 -38 164 -44 224 -7 61 -34
157 -61 214 -27 57 -64 168 -83 247 -31 128 -43 150 -110 194 -78 51 -240 316
-264 430 -7 30 -17 78 -23 106 -6 32 -35 62 -80 83 -81 39 -79 29 -29 162 75
197 166 279 192 174 20 -82 88 -67 88 20 0 55 18 91 80 158 44 47 80 95 80
105 0 38 122 113 146 89 68 -68 111 5 63 107 -75 158 127 683 301 782 65 37
24 93 -57 78 -185 -34 -42 398 205 619 46 42 56 92 17 91 -14 0 -221 -194
-461 -429z m46 -410 l50 -3 -47 -18 c-26 -11 -75 -24 -110 -30 -35 -6 -90 -23
-123 -38 -211 -95 -255 -113 -263 -105 -15 16 44 142 80 172 60 49 62 3 3 -58
-79 -82 -19 -82 100 0 48 33 101 60 119 60 17 0 31 8 31 19 0 10 25 15 55 11
30 -4 78 -8 105 -10z m-1897 -181 l47 -40 -79 31 c-97 38 -110 50 -57 50 23 0
63 -18 89 -41z m1747 -43 c23 -5 21 -22 -10 -91 -38 -86 -72 -95 -131 -36 -62
62 -23 171 61 171 17 0 31 11 33 25 1 14 6 5 11 -19 5 -24 21 -46 36 -50z
m-262 -91 c17 -14 38 -25 47 -25 9 0 32 -27 52 -60 19 -33 30 -60 24 -60 -6 0
21 -49 60 -110 116 -182 27 -125 -98 63 -57 84 -131 164 -203 217 -32 24 -35
33 -13 47 18 12 40 7 64 -14 20 -18 50 -44 67 -58z m-198 -174 l0 -189 -77
-35 c-44 -20 -85 -56 -96 -84 -10 -27 -24 -43 -30 -36 -31 30 40 132 108 155
58 19 65 26 38 42 -43 24 -42 63 9 212 52 155 49 159 48 -65z m-1022 14 c29
-75 52 -153 52 -173 0 -21 19 -68 43 -106 29 -48 36 -75 21 -90 -32 -32 -64 0
-64 64 0 31 -14 71 -30 87 -17 17 -39 74 -50 127 -10 53 -27 125 -38 161 -35
119 14 67 66 -70z m1121 -40 c10 -57 7 -85 -7 -85 -12 0 -22 26 -22 58 0 31
-5 87 -11 125 -7 50 -5 57 8 27 10 -22 24 -78 32 -125z m-1265 3 c-15 -68 -19
-72 -32 -34 -8 25 -4 63 9 87 32 61 42 38 23 -53z m-94 -88 c7 -22 0 -58 -17
-82 l-29 -41 -13 41 c-15 47 3 122 29 122 10 0 23 -18 30 -40z m1513 -27 c-36
-43 -7 -101 33 -69 44 37 19 -29 -41 -105 -55 -70 -63 -71 -92 -14 -19 38 -20
33 -10 -35 8 -53 5 -73 -8 -60 -29 30 -47 147 -24 161 11 6 14 20 8 31 -7 10
-4 17 6 13 10 -3 44 25 74 61 31 36 61 61 66 55 6 -5 0 -23 -12 -38z m-1456
-145 c-17 -26 -40 -42 -51 -36 -12 8 -12 20 2 34 12 12 22 39 22 60 0 32 5 34
29 15 26 -22 26 -31 -2 -73z m91 5 c37 -46 -21 -140 -66 -107 -28 20 -30 35
-14 80 23 60 46 68 80 27z m102 -83 c26 -32 -6 -150 -41 -150 -26 0 -44 78
-30 131 14 56 35 62 71 19z m1066 -98 c-34 -46 -107 -84 -105 -55 1 30 57 113
72 108 10 -3 17 2 17 10 1 47 40 73 46 31 4 -25 -10 -67 -30 -94z m-775 73
c12 -8 28 -32 36 -52 11 -30 19 -33 42 -14 23 19 35 14 62 -27 18 -29 41 -47
51 -41 10 6 18 2 18 -11 0 -15 11 -15 40 0 36 19 40 15 40 -39 0 -42 -10 -61
-31 -61 -17 0 -56 -13 -86 -29 -79 -40 -118 -9 -44 35 l59 35 -44 46 c-48 49
-79 50 -60 1 7 -18 -6 -43 -31 -60 -24 -17 -43 -47 -43 -68 0 -21 -9 -43 -20
-50 -11 -7 -14 1 -8 19 8 20 1 31 -20 31 -18 0 -33 -11 -34 -25 0 -14 -10 0
-21 30 -12 33 -40 60 -70 67 -63 16 -87 -8 -41 -42 23 -16 28 -31 15 -39 -21
-13 -121 73 -121 105 0 10 23 28 50 41 33 14 55 45 63 84 7 34 18 53 25 42 9
-14 30 -12 63 6 58 32 82 35 110 16z m612 -74 c29 -64 9 -137 -62 -216 -76
-85 -86 -69 -39 64 21 60 38 130 38 155 0 60 35 59 63 -3z m-192 -82 c-19 -36
-25 -86 -18 -138 17 -132 -158 -272 -201 -160 -6 16 -4 26 5 24 70 -22 153 52
147 132 -4 57 7 104 36 150 50 80 74 74 31 -8z m-155 -184 c-4 -24 -29 -37
-81 -41 -84 -7 -102 27 -30 55 75 31 119 25 111 -14z m-436 -15 c21 -25 18
-30 -18 -30 -23 0 -49 0 -57 -1 -8 -1 -18 13 -21 30 -9 41 63 41 96 1z m681
-97 c-24 -64 -78 -90 -103 -51 -24 39 -10 69 30 65 19 -2 45 14 58 35 31 50
41 19 15 -49z m-513 55 c18 -7 32 -29 32 -51 0 -30 10 -35 50 -25 84 21 57
-28 -40 -74 -49 -23 -90 -47 -90 -52 0 -13 161 5 205 24 27 11 35 5 35 -26 0
-67 -259 -98 -361 -43 -75 40 -48 81 31 48 39 -16 70 -21 70 -11 0 10 -13 23
-30 29 -48 18 -2 193 51 193 9 0 30 -5 47 -12z m481 -190 c11 -11 -7 -18 -45
-18 -45 0 -64 9 -64 31 0 33 69 24 109 -13z m-156 -47 c-18 -27 -52 -60 -76
-72 -33 -18 -28 -5 24 59 70 87 106 97 52 13z m107 -29 c0 -10 -22 -23 -50
-30 -65 -17 -57 -105 17 -185 75 -81 36 -199 -72 -219 -14 -3 -70 -14 -125
-25 -132 -26 -127 -35 -111 202 5 68 41 -7 41 -85 0 -55 9 -100 20 -100 23 0
25 12 24 150 -1 103 47 195 144 275 45 36 112 47 112 17z m190 -62 c87 -96 -7
-160 -140 -98 -144 68 -145 96 -5 119 47 8 90 15 97 16 6 2 28 -15 48 -37z
m-789 -43 c25 -45 0 -76 -61 -77 -16 0 -50 -6 -75 -13 -34 -9 -45 -3 -45 24 0
96 138 147 181 66z m219 -27 c20 -24 20 -36 0 -60 -16 -19 -20 -55 -11 -100
15 -84 -28 -115 -87 -61 -25 22 -54 29 -87 20 -57 -14 -92 22 -57 57 12 12 22
38 22 57 0 52 33 62 86 28 54 -36 74 -24 74 42 0 54 24 60 60 17z m230 -410
c-37 -16 -36 -17 8 -19 48 -1 45 -25 -4 -33 -13 -2 -41 -11 -62 -20 -31 -12
-36 -8 -26 19 11 27 4 31 -35 21 -28 -7 -65 0 -87 15 -34 24 -22 28 104 30 93
2 128 -2 102 -13z m185 -137 c-16 -18 -50 -71 -76 -118 -25 -47 -58 -85 -73
-85 -34 0 -33 23 3 71 17 22 30 51 30 67 2 51 130 178 138 135 3 -20 -7 -51
-22 -70z m545 -74 c24 -63 25 -69 3 -69 -14 0 -63 85 -63 111 0 31 44 0 60
-42z m-600 -250 c0 -12 9 -16 20 -9 11 7 20 -10 20 -39 0 -32 -11 -51 -30 -51
-16 0 -30 13 -30 28 0 16 -5 43 -12 60 -7 18 -2 32 10 32 12 0 22 -10 22 -21z
m71 -206 c1 -39 -9 -53 -37 -53 -27 0 -35 10 -26 32 7 17 12 45 12 61 0 17 11
27 25 22 14 -5 25 -32 26 -62z m40 -988 c33 -168 27 -225 -27 -225 -41 0 -45
5 -24 30 20 24 19 30 -6 30 -18 0 -27 14 -23 35 4 19 12 78 19 130 14 110 39
110 61 0z m-566 23 c15 -79 -24 -187 -63 -175 -27 9 -26 5 3 -19 49 -40 43
-54 -12 -28 l-47 22 42 126 c46 137 62 153 77 74z"/>
</g>
</svg>
