<?xml version="1.0" standalone="no"?>
<!DOCTYPE svg PUBLIC "-//W3C//DTD SVG 20010904//EN"
 "http://www.w3.org/TR/2001/REC-SVG-20010904/DTD/svg10.dtd">
<svg version="1.0" xmlns="http://www.w3.org/2000/svg"
 width="270.000000pt" height="300.000000pt" viewBox="0 0 270.000000 300.000000"
 preserveAspectRatio="xMidYMid meet">
<metadata>
Created by potrace 1.10, written by Peter Selinger 2001-2011
</metadata>
<g transform="translate(0.000000,300.000000) scale(0.050000,-0.050000)"
fill="#000000" stroke="none">
<path d="M4504 5869 c-43 -31 -64 -84 -22 -58 12 7 7 -14 -10 -48 -18 -33 -41
-66 -52 -73 -31 -19 -23 13 13 54 18 20 28 42 22 48 -13 13 -154 -170 -155
-201 0 -10 11 -8 24 5 62 62 73 7 23 -117 -58 -145 -111 -107 -146 106 -37
227 -59 224 -46 -6 7 -122 2 -207 -16 -261 l-26 -79 -67 175 c-37 96 -72 179
-77 184 -33 33 -19 -46 52 -287 100 -340 96 -372 -25 -206 -102 139 -150 187
-168 169 -12 -11 64 -123 196 -289 92 -114 89 -117 -43 -54 -149 72 -169 50
-29 -33 162 -96 164 -130 9 -121 -165 9 -156 -30 11 -48 161 -17 163 -21 88
-225 -33 -91 -60 -192 -60 -225 0 -32 -9 -59 -20 -59 -11 0 -20 -17 -20 -37 0
-21 -18 -60 -40 -88 -22 -28 -53 -118 -68 -200 -41 -210 -109 -426 -154 -483
-44 -56 -48 -94 -14 -128 19 -19 19 -24 0 -24 -13 0 -24 7 -24 17 0 9 -21 28
-48 42 -85 45 -323 457 -422 731 -20 55 -48 114 -62 130 -65 77 -128 254 -128
360 0 156 -37 364 -71 401 -16 18 -29 42 -29 53 0 12 -13 32 -30 46 -25 21
-30 17 -30 -28 0 -28 -10 -52 -21 -52 -12 0 -16 17 -10 38 9 27 -34 99 -150
255 -90 119 -175 240 -189 267 -77 146 -164 168 -222 56 -18 -36 -57 -95 -86
-130 -109 -135 -144 -186 -172 -252 -16 -38 -23 -75 -16 -81 7 -7 2 -13 -12
-13 -13 0 -19 -8 -13 -18 6 -10 2 -43 -9 -73 -17 -44 -14 -63 14 -96 27 -32
28 -36 4 -17 -27 20 -37 19 -58 -6 -21 -25 -19 -30 13 -32 28 -1 30 -4 7 -13
-50 -19 -60 -50 -50 -161 6 -67 2 -102 -10 -94 -11 7 -20 46 -21 86 l0 74 -38
-46 c-22 -25 -44 -94 -52 -159 -14 -108 -98 -284 -161 -337 -25 -20 -286 26
-400 72 -65 26 -99 248 -44 283 19 12 28 -4 32 -58 9 -100 124 -196 124 -104
0 12 10 15 22 8 12 -7 17 -30 12 -51 -6 -21 -2 -38 8 -38 10 0 18 26 18 59 0
32 9 64 21 72 11 7 21 63 20 126 0 62 -1 137 -1 166 0 35 12 57 35 63 33 9 33
9 0 12 -28 2 -22 14 30 61 36 33 54 60 41 60 -13 1 -29 -8 -36 -19 -41 -67
-89 -11 -206 243 -3 8 12 19 35 27 54 17 55 70 2 56 -23 -6 -78 12 -129 42
-54 32 -92 43 -96 30 -4 -12 -35 -24 -69 -25 -34 -2 -76 -16 -94 -31 -18 -15
-34 -19 -35 -9 -6 40 7 99 27 122 23 29 8 55 -21 37 -11 -6 -39 -53 -63 -104
-24 -51 -70 -121 -103 -155 -33 -35 -74 -88 -90 -119 -36 -67 -76 -61 -84 13
-4 29 -14 53 -23 53 -19 0 -12 -336 7 -355 7 -6 12 -41 12 -77 0 -36 9 -71 20
-78 12 -7 16 -21 10 -30 -6 -10 7 -28 29 -40 48 -25 55 -80 11 -80 -45 0 -36
-42 11 -54 22 -6 37 -21 33 -34 -15 -44 103 -74 165 -42 31 15 63 22 72 14 8
-8 9 -3 1 11 -8 14 -48 25 -90 25 -87 0 -111 15 -79 53 42 52 101 26 228 -99
114 -112 141 -128 250 -151 68 -14 192 -50 276 -79 195 -69 211 -65 253 61 18
57 55 145 81 194 l47 91 1 -87 c1 -69 7 -85 31 -76 20 8 30 -1 30 -28 0 -21
10 -39 21 -39 12 0 15 -11 7 -24 -21 -33 -10 -188 21 -306 l26 -100 14 80 c7
44 17 109 23 145 10 69 82 81 136 23 17 -17 11 -17 -23 0 -71 37 -59 -43 17
-106 71 -61 81 -62 159 -21 67 34 74 17 28 -72 -29 -56 -33 -58 -83 -32 -140
73 -309 -72 -405 -349 -31 -88 -69 -175 -85 -194 -27 -31 -116 -465 -116 -563
0 -23 -14 -64 -31 -90 -25 -37 -31 -103 -30 -290 1 -388 -24 -520 -154 -801
-28 -60 -61 -132 -73 -160 -15 -32 -43 -52 -79 -56 -82 -10 -17 -164 70 -164
23 0 30 -12 23 -40 -14 -54 5 -50 91 18 54 42 81 84 99 155 14 53 35 131 46
172 13 52 38 84 79 105 70 37 80 108 17 125 -38 10 -40 20 -28 133 7 67 17
163 22 212 14 136 51 347 67 377 9 17 27 -8 51 -70 20 -54 64 -133 96 -177 55
-74 61 -65 25 40 -9 24 0 18 22 -15 41 -62 101 -77 77 -20 -25 60 -36 225 -15
225 11 0 8 42 -9 105 -15 58 -28 172 -27 253 1 208 -14 170 -30 -78 -13 -211
-28 -286 -31 -158 l-1 68 -26 -59 c-27 -60 -27 -59 -35 50 -5 60 -1 118 8 128
20 24 21 131 1 131 -55 -1 -88 -73 -60 -127 14 -29 12 -35 -8 -29 -15 5 -38
-5 -51 -22 -38 -49 -32 3 14 123 43 112 52 164 20 115 -25 -39 -25 31 0 90 16
38 17 37 19 -7 0 -28 11 -43 26 -38 58 19 81 -44 69 -189 -17 -200 15 -143 43
76 31 242 28 303 -7 198 l-27 -80 12 90 c6 49 24 101 38 116 15 15 27 40 27
56 0 66 145 251 251 321 57 37 76 222 21 201 -15 -6 -67 -22 -115 -35 -48 -13
-100 -29 -117 -35 -16 -6 -34 -11 -40 -13 -5 -1 -23 -10 -40 -20 -27 -17 -27
-15 0 18 45 56 180 110 275 111 81 0 86 4 135 100 28 55 56 100 62 100 19 0
-5 -128 -36 -191 -39 -75 -61 -169 -41 -169 39 0 133 99 153 161 30 93 101
110 88 21 -5 -34 -1 -62 10 -62 10 0 9 -12 -3 -27 -13 -15 -16 -34 -8 -43 8
-9 4 -10 -10 -2 -16 9 -32 -4 -45 -37 -10 -28 -26 -51 -35 -51 -9 0 -33 -29
-54 -64 -21 -35 -42 -53 -46 -40 -5 13 -17 19 -27 13 -27 -17 -22 -50 7 -44
26 5 26 -6 6 -495 -6 -152 -3 -225 8 -200 10 22 19 69 20 105 0 36 11 65 23
65 11 0 19 -29 18 -65 -6 -105 4 -268 13 -225 5 22 14 54 20 70 17 47 28 493
12 467 -8 -13 -15 29 -15 93 0 64 6 107 13 96 8 -13 17 -13 26 2 7 12 8 31 1
42 -7 11 -6 40 1 64 13 39 18 37 61 -36 40 -65 48 -70 48 -33 0 25 -9 45 -19
45 -11 0 -14 15 -7 33 9 23 5 29 -11 19 -15 -10 -23 4 -23 41 0 59 58 12 59
-49 1 -15 11 -20 23 -13 14 9 18 46 11 97 -8 56 -6 69 6 42 18 -40 18 -40 21
0 4 51 57 -82 56 -140 0 -22 -12 -4 -27 40 l-26 80 -1 -119 c-2 -108 1 -115
27 -80 27 35 30 26 30 -106 1 -80 -3 -145 -7 -145 -5 0 -25 -6 -44 -13 -27
-11 -32 -6 -22 19 7 19 6 33 -2 31 -34 -5 -64 4 -59 18 7 22 -57 107 -70 93
-6 -6 2 -44 18 -83 20 -47 32 -152 35 -303 5 -266 32 -354 71 -235 13 40 18
93 11 118 -10 35 -8 38 8 15 17 -24 21 -19 22 26 0 31 -8 52 -17 46 -9 -6 -27
9 -38 34 -30 60 -47 194 -25 194 29 0 49 -46 51 -115 1 -35 8 -70 15 -78 8 -7
13 22 11 67 -2 58 8 91 40 123 24 24 44 63 44 88 2 45 2 45 21 -3 34 -85 77
-449 56 -474 -13 -16 -9 -27 11 -35 33 -12 35 -3 35 137 -1 56 5 41 18 -50 10
-71 25 -166 34 -210 8 -44 12 -96 8 -115 -8 -41 -44 -48 -44 -8 0 15 -18 43
-40 63 -22 20 -40 47 -40 60 0 14 -20 50 -45 81 -24 32 -32 50 -17 40 22 -13
24 7 12 111 -30 269 -66 167 -54 -152 4 -95 3 -97 -21 -44 -23 52 -25 45 -28
-85 -2 -101 4 -137 20 -127 13 8 7 -10 -13 -40 -20 -30 -30 -66 -23 -80 6 -13
-2 -7 -18 13 -17 20 -39 32 -50 25 -11 -7 -16 4 -13 23 4 19 8 44 9 55 1 11
11 4 23 -15 11 -19 29 -35 40 -35 11 0 13 11 5 25 -9 14 -19 43 -22 65 -3 21
-20 47 -38 57 -22 12 -25 22 -9 32 16 10 17 29 4 63 -12 29 -21 36 -23 18 -2
-16 -16 15 -31 70 l-27 100 7 -190 c5 -115 2 -166 -7 -130 l-16 60 -5 -60 c-4
-59 -4 -59 -19 -10 -15 45 -17 42 -31 -36 -9 -51 -30 -93 -52 -105 -29 -16
-35 -14 -26 9 6 15 1 34 -11 41 -12 8 -16 22 -10 32 6 11 -2 19 -18 19 -32 0
-74 101 -71 168 1 23 11 2 22 -48 24 -104 68 -57 76 80 6 105 3 120 -28 120
-68 0 -64 793 5 816 13 4 23 16 23 27 0 11 -10 13 -23 5 -14 -9 -18 -5 -9 9
31 50 -27 19 -83 -45 -105 -118 -205 -382 -205 -537 0 -64 71 83 123 253 58
187 75 143 78 -204 2 -200 10 -288 28 -303 28 -23 18 -121 -13 -121 -10 0 -14
7 -8 16 5 9 -3 41 -18 71 -16 30 -23 70 -18 89 10 31 9 31 -12 -1 -12 -19 -17
-44 -11 -54 7 -10 2 -24 -10 -32 -74 -45 -100 -188 -67 -356 37 -185 58 -228
43 -89 -18 170 14 123 38 -55 34 -260 157 -410 136 -166 l-12 127 51 -80 c48
-74 64 -118 140 -380 l29 -100 5 180 c2 99 4 191 3 205 -1 47 31 25 44 -30 38
-149 129 -303 132 -220 0 14 13 3 27 -24 26 -45 28 -46 37 -10 9 33 11 33 13
4 2 -40 35 -47 47 -10 5 14 15 -9 23 -50 25 -134 46 -79 37 95 -5 114 -1 170
13 170 12 0 23 -25 25 -55 2 -30 5 -64 8 -75 2 -11 6 -29 9 -40 2 -11 15 25
29 80 l25 100 23 -56 c34 -83 29 -119 -37 -311 -117 -336 -171 -453 -214 -459
-65 -10 -166 89 -167 163 0 60 -2 61 -30 24 -143 -189 185 -488 341 -310 37
42 37 45 3 32 -29 -10 -26 -1 15 48 41 49 52 84 52 163 0 103 93 416 123 416
19 0 20 -4 97 -396 33 -169 55 -327 49 -352 -7 -28 0 -58 17 -76 20 -20 24
-39 11 -62 -33 -59 1 -139 55 -129 41 8 49 0 59 -63 43 -263 40 -257 139 -302
124 -56 138 -52 170 55 39 130 -42 336 -125 319 -11 -2 -24 10 -29 26 -8 27
-6 27 14 0 20 -26 22 -25 12 7 -7 20 -12 41 -12 46 0 5 -7 5 -16 0 -18 -12
-26 42 -24 169 0 50 -22 158 -50 240 -28 81 -100 294 -160 472 l-108 325 60
133 c33 73 127 327 209 564 81 237 161 439 177 448 16 9 35 44 43 78 12 58 18
62 81 52 88 -15 86 7 -4 56 -84 45 -84 96 1 220 28 42 51 86 51 98 1 42 79
127 80 86 0 -47 56 -154 80 -154 10 0 1 38 -21 85 -41 92 -49 169 -20 214 14
22 26 9 52 -55 18 -46 41 -84 51 -84 27 0 22 24 -24 119 -64 132 -39 382 76
768 l17 56 38 -41 c88 -98 241 42 188 172 l-23 56 -13 -71 c-17 -93 -35 -119
-82 -119 -60 0 -54 111 6 128 42 12 43 14 8 34 -46 28 -32 94 48 220 33 50 59
101 59 113 0 12 9 25 21 29 61 20 73 262 17 318 -44 44 -26 179 29 212 10 7
13 2 6 -10 -8 -11 -6 -26 4 -32 10 -6 37 49 59 123 78 253 76 275 -12 214z
m-2184 -341 c0 -6 -20 -28 -45 -49 -31 -26 -36 -38 -16 -38 21 -1 18 -9 -10
-30 -22 -17 -30 -30 -19 -30 11 0 37 13 59 30 45 34 71 37 71 9 0 -11 -38 -43
-85 -72 -104 -64 -255 -207 -255 -241 0 -14 -9 -30 -20 -37 -13 -8 -13 6 0 41
11 29 14 63 7 76 -7 13 -6 16 3 8 9 -8 28 -5 43 8 33 27 36 65 4 45 -42 -26 7
37 76 98 37 32 67 68 67 80 0 26 80 114 103 114 10 0 17 -5 17 -12z m215 -256
c47 -60 85 -125 85 -145 -1 -42 -79 42 -80 85 0 12 -19 39 -42 60 -49 44 -86
108 -63 108 8 0 54 -49 100 -108z m1739 73 c-3 -19 -12 -46 -21 -60 -9 -15 -6
-25 8 -25 12 0 27 17 33 39 6 23 21 34 39 27 16 -6 25 -24 19 -39 -6 -15 2
-27 19 -27 16 0 29 -9 29 -20 0 -11 -25 -19 -55 -18 -30 2 -73 -3 -95 -11 -32
-12 -34 -10 -10 7 26 19 25 21 -4 22 -62 0 -83 73 -32 109 58 40 77 39 70 -4z
m-1818 -140 c39 -41 77 -73 85 -71 11 4 12 -37 2 -99 -2 -8 -16 -15 -32 -15
-17 0 -25 12 -19 27 8 21 -4 26 -46 19 l-56 -8 57 33 c80 46 28 111 -57 73
-49 -23 -190 -34 -190 -15 0 26 116 127 148 129 20 1 69 -32 108 -73z m-1346
-32 c19 -29 28 -82 25 -145 -5 -97 -4 -98 60 -104 57 -6 135 -80 91 -86 -9 -2
-29 -4 -44 -5 -16 -2 -38 -31 -50 -65 -15 -41 -32 -59 -52 -52 -40 13 -12 -16
42 -44 24 -12 40 -27 36 -34 -5 -6 5 -27 20 -45 15 -19 21 -40 13 -48 -8 -8
-26 1 -41 21 -39 53 -122 26 -148 -50 -49 -140 -90 6 -61 214 5 33 1 63 -10
66 -29 9 -69 -176 -59 -276 l8 -90 -39 80 c-22 44 -40 99 -40 123 -1 74 -25
167 -43 167 -29 0 -20 -190 12 -268 35 -82 31 -84 -53 -41 -58 31 -59 33 -26
71 20 21 32 41 27 44 -4 3 -24 17 -43 32 -28 22 -41 22 -65 2 -33 -28 -42 0
-10 32 13 13 3 43 -30 88 -27 37 -50 69 -50 70 0 2 27 -1 60 -6 66 -9 172 11
153 30 -7 7 -3 24 9 39 22 26 38 109 42 209 2 41 10 51 40 43 21 -6 49 4 62
21 21 26 56 42 119 52 8 1 28 -19 45 -45z m3090 27 c0 -11 -10 -20 -21 -20
-12 0 -16 -8 -10 -19 6 -10 2 -24 -9 -31 -11 -7 -26 2 -33 21 -7 19 -1 41 15
51 37 23 58 23 58 -2z m-2073 -144 c10 15 30 17 64 3 39 -14 53 -12 62 11 13
33 67 41 67 10 0 -11 -13 -20 -30 -20 -16 0 -30 -13 -30 -30 0 -17 18 -30 40
-30 22 0 40 13 40 29 0 16 11 35 23 43 16 10 20 4 11 -19 -7 -18 -4 -55 6 -82
12 -34 11 -54 -4 -63 -13 -8 -17 -5 -9 8 8 11 5 26 -5 33 -10 6 -23 -3 -30
-21 -21 -55 -102 -26 -103 36 0 30 -7 61 -15 69 -8 7 -14 -1 -14 -20 0 -39 -2
-39 -69 -13 -33 12 -51 12 -51 0 0 -11 14 -20 30 -20 17 0 30 -11 30 -25 0
-55 110 -155 166 -151 30 3 54 11 54 19 0 8 18 20 40 27 22 7 40 26 40 41 0
16 10 29 22 29 47 0 -39 -266 -89 -276 -18 -4 -44 19 -62 53 -36 70 -76 103
-59 49 9 -29 6 -28 -14 4 -13 22 -35 47 -49 55 -13 8 -36 44 -50 80 -15 36
-39 74 -55 86 -18 14 -22 39 -12 79 12 50 16 53 28 21 9 -25 18 -31 27 -15z
m2123 22 c37 -18 37 -18 -5 -10 -25 4 -45 0 -45 -10 0 -29 -35 -21 -47 12 -13
34 34 38 97 8z m-1588 -174 c-11 -21 -15 -56 -9 -78 10 -39 -140 -126 -168
-97 -6 5 14 19 44 31 66 25 119 74 90 84 -12 4 -6 39 15 91 26 60 38 73 42 46
4 -22 -3 -56 -14 -77z m-102 40 c47 -20 46 -21 -20 -14 -38 4 -77 8 -85 9 -8
0 -15 10 -15 21 0 22 46 16 120 -16z m1588 -20 c-8 -38 -1 -65 20 -83 36 -29
42 -61 12 -61 -11 0 -20 14 -20 30 0 17 -9 30 -20 30 -11 0 -20 32 -20 70 0
39 9 70 20 70 10 0 14 -25 8 -56z m111 21 c-2 -44 -61 -94 -78 -66 -21 34 -7
67 20 50 11 -6 19 -2 19 10 0 11 9 21 20 21 11 0 20 -7 19 -15z m-2123 -182
l-44 -7 49 -39 c48 -39 48 -39 2 -17 -65 32 -116 88 -116 125 0 28 11 26 76
-11 67 -39 71 -45 33 -51z m753 62 c-8 -19 -17 -152 -19 -295 -4 -252 -23
-449 -45 -470 -6 -5 -5 94 2 220 12 233 1 387 -27 370 -17 -11 -39 108 -27
140 8 20 80 63 114 68 10 1 10 -14 2 -33z m-866 -359 c3 -69 -2 -131 -10 -140
-23 -22 -54 37 -49 94 2 28 -8 93 -23 146 -20 72 -21 102 -4 119 13 13 24 46
25 74 3 90 56 -163 61 -293z m743 179 c3 -24 13 -50 20 -58 21 -21 17 -147 -6
-147 -21 0 -31 38 -51 190 -12 100 22 114 37 15z m-96 20 c21 -54 44 -323 26
-312 -9 5 -16 0 -16 -12 0 -11 9 -21 19 -21 11 0 1 -31 -22 -70 -45 -77 -87
-90 -102 -32 -8 29 3 41 47 49 32 7 58 22 58 33 0 34 -58 47 -91 19 -36 -30
-59 -13 -41 32 7 18 24 29 38 23 46 -17 100 36 65 65 -16 13 -24 36 -18 50 5
15 0 33 -12 40 -11 7 -21 -1 -21 -18 0 -17 -8 -31 -18 -31 -10 0 -13 -19 -7
-43 8 -30 4 -39 -12 -29 -13 8 -23 3 -23 -10 0 -14 -4 -20 -10 -15 -9 9 5 66
40 167 13 39 13 39 -18 1 -18 -21 -33 -57 -33 -80 -2 -41 -2 -41 -20 -1 -13
28 -15 16 -6 -40 7 -44 12 -98 13 -120 0 -22 11 -139 25 -260 13 -121 23 -221
22 -223 -2 -1 -25 -9 -53 -17 -45 -13 -46 -11 -15 13 30 23 32 45 17 157 -9
72 -18 114 -19 95 -4 -54 -43 -42 -43 13 0 27 -6 64 -13 84 -10 23 -6 30 10
20 15 -10 23 3 23 39 0 37 -8 50 -28 43 -15 -6 -37 -1 -48 10 -16 16 -19 10
-11 -18 14 -53 -42 -100 -82 -67 -62 51 -32 139 47 140 40 1 88 2 107 2 49 2
44 59 -5 59 -54 0 -50 47 10 111 27 30 44 63 37 75 -7 11 -4 15 7 8 11 -7 37
0 58 16 48 36 70 38 56 3 -5 -15 4 -38 21 -52 38 -32 39 -19 2 70 -24 57 -24
69 -2 69 15 0 33 -16 41 -35z m-550 -80 c0 -14 11 -25 24 -25 19 0 19 -5 0
-24 -13 -13 -24 -45 -24 -71 0 -26 -8 -42 -18 -36 -10 6 -23 0 -29 -14 -6 -16
-10 -13 -11 8 -1 19 -8 49 -15 69 -10 23 -6 30 10 20 12 -8 23 -5 23 7 0 11
-7 21 -15 21 -8 0 -16 26 -17 58 -2 52 2 56 35 36 20 -13 37 -35 37 -49z m160
-80 c-1 -56 -6 -67 -20 -45 -16 24 -19 21 -20 -15 0 -67 -33 -54 -48 18 -13
66 13 117 60 117 19 0 28 -24 28 -75z m-51 -161 c6 -15 2 -21 -11 -13 -15 10
-18 -1 -7 -33 13 -41 11 -44 -16 -22 -48 39 -58 146 -12 117 20 -12 41 -34 46
-49z m571 36 c0 -47 -25 -52 -58 -12 -18 22 -18 31 2 38 47 19 56 15 56 -26z
m0 -92 c0 -17 -18 -36 -40 -42 -26 -7 -40 -27 -40 -58 0 -33 9 -43 30 -35 19
7 30 0 30 -19 0 -17 -9 -34 -19 -37 -10 -4 -21 -82 -24 -174 l-5 -168 -44 98
c-25 53 -45 81 -46 62 -1 -19 -11 -35 -21 -35 -11 0 -14 15 -7 33 10 25 5 31
-19 22 -23 -9 -32 -2 -29 26 5 65 82 49 119 -26 l32 -65 2 117 c1 104 -3 115
-30 92 -24 -20 -36 -20 -55 -1 -18 18 -13 26 21 35 35 9 43 23 36 61 -6 34 6
65 39 98 57 56 70 59 70 16z m-636 -55 c5 9 6 4 2 -11 -4 -15 8 -44 27 -65 39
-43 29 -46 -42 -14 -28 13 -51 38 -51 57 0 44 24 66 41 38 8 -12 18 -15 23 -5z
m460 -201 c-12 -21 -82 105 -83 148 0 17 21 -6 46 -50 26 -44 42 -88 37 -98z
m561 -240 c144 -226 280 -501 307 -622 7 -33 30 -79 51 -102 31 -34 35 -52 18
-97 -12 -30 -17 -62 -11 -71 6 -9 2 -20 -7 -23 -19 -8 -149 -406 -151 -462 0
-19 -8 -35 -16 -35 -9 0 -16 -11 -16 -25 0 -56 -149 -404 -156 -366 -5 22 -20
58 -34 80 -14 23 -32 143 -39 267 -12 208 -36 376 -122 844 -32 181 -114 441
-161 514 -15 25 -27 56 -26 70 1 20 3 21 11 1 17 -41 47 -28 48 20 0 44 1 44
30 6 28 -37 29 -36 29 15 0 30 9 54 20 54 32 0 23 46 -20 100 -22 28 -38 73
-38 100 l2 50 16 -50 c11 -35 17 -39 18 -14 1 21 11 31 24 23 12 -7 17 -30 12
-51 -6 -21 -2 -38 8 -38 10 0 19 43 19 95 l2 95 34 -100 c19 -55 86 -180 148
-278z m-805 289 c0 -23 -66 -61 -104 -61 -14 1 -3 18 24 40 55 43 80 50 80 21z
m776 -116 c12 -36 18 -65 13 -65 -13 0 -69 115 -69 143 0 39 32 -5 56 -78z
m813 23 c7 -40 8 -77 2 -83 -6 -7 -11 4 -11 23 0 19 -9 29 -21 21 -14 -8 -18
-63 -12 -146 6 -73 6 -110 1 -83 -5 28 -19 68 -30 91 -14 28 -14 58 1 96 11
31 21 78 21 104 0 74 34 58 49 -23z m-1626 -29 c-51 -42 -83 -50 -83 -20 0 24
60 60 100 60 21 0 16 -12 -17 -40z m-149 -392 l56 -53 -54 13 c-42 10 -61 3
-85 -31 l-31 -45 -2 50 c0 27 -6 38 -11 24 -6 -14 -28 -46 -48 -70 -21 -25
-56 -67 -78 -95 -30 -37 -40 -42 -40 -18 -1 26 210 278 232 278 3 0 30 -24 61
-53z m-297 -461 c-13 -52 -35 -86 -58 -92 -34 -9 -33 -1 13 90 59 117 74 118
45 2z m-117 -657 c0 -17 -9 -26 -19 -20 -10 7 -29 -7 -42 -30 -12 -23 -27 -37
-33 -31 -15 15 50 112 74 112 11 0 20 -14 20 -31z m1115 -184 c3 -52 6 -120 6
-150 0 -30 10 -55 21 -55 13 0 13 -13 0 -37 -14 -25 -13 -44 3 -60 13 -13 16
-23 7 -23 -8 0 -33 20 -55 45 l-39 45 23 -47 c18 -37 18 -44 -1 -33 -17 10
-21 3 -13 -22 34 -115 38 -158 13 -134 -33 30 -44 334 -11 307 14 -12 19 16
14 91 -6 95 3 168 21 168 3 0 8 -43 11 -95z m-915 30 c0 -3 9 -37 20 -75 l19
-70 -39 50 c-43 54 -52 100 -20 100 11 0 20 -2 20 -5z m1033 -92 c-45 -49 -41
-94 11 -142 34 -32 37 -41 12 -41 -40 0 -69 36 -87 105 -15 61 16 115 67 115
26 0 26 -5 -3 -37z m-384 -48 c-19 -62 -28 -68 -49 -35 -11 17 -9 39 4 54 34
41 60 30 45 -19z m-129 -46 c0 -16 -8 -29 -17 -29 -10 0 -13 -25 -7 -55 9 -49
7 -52 -23 -28 -38 32 -43 105 -10 138 28 28 57 14 57 -26z m-182 -149 c1 -39
-3 -44 -18 -20 -11 17 -19 57 -18 90 1 75 34 11 36 -70z m360 35 c3 88 34 82
49 -10 18 -107 16 -145 -7 -145 -11 0 -20 19 -20 42 0 34 -6 38 -27 21 -32
-27 -88 116 -62 159 11 17 24 0 40 -53 l25 -79 2 65z m371 -34 c26 -28 46 -34
78 -22 40 15 43 10 43 -82 0 -70 -5 -87 -17 -60 -9 21 -52 58 -95 82 -49 27
-78 58 -78 82 0 50 24 50 69 0z m431 -1068 c0 -45 -33 -93 -64 -93 -9 0 -16
19 -16 42 0 29 9 39 30 31 19 -7 30 0 30 19 0 17 -9 25 -20 18 -11 -7 -14 1
-8 19 17 42 48 19 48 -36z m34 -485 c15 -103 -15 -74 -34 33 -9 50 -8 75 3 64
10 -10 24 -54 31 -97z"/>
<path d="M1045 5163 c-44 -27 -68 -123 -33 -136 55 -22 119 61 85 110 -16 22
-39 34 -52 26z"/>
<path d="M2454 3607 c-76 -58 -91 -77 -72 -100 27 -31 78 -2 78 45 0 14 25 49
55 77 77 72 52 62 -61 -22z"/>
<path d="M2541 3379 c-2 -51 105 -199 143 -199 20 0 36 14 36 30 0 17 -7 28
-15 26 -35 -10 -110 52 -136 111 -15 34 -28 49 -28 32z"/>
<path d="M2180 3056 c0 -16 -18 -51 -40 -76 -39 -45 -56 -160 -24 -160 20 0
91 240 76 255 -7 6 -12 -2 -12 -19z"/>
<path d="M2180 2909 c-25 -65 -26 -212 -2 -169 21 38 48 220 33 220 -7 0 -21
-23 -31 -51z"/>
<path d="M2071 2683 c-41 -80 -43 -246 -2 -231 28 11 68 258 45 281 -6 6 -25
-17 -43 -50z"/>
<path d="M2390 2420 c-17 -28 8 -136 35 -153 14 -9 16 2 6 35 -8 26 -14 68
-13 93 2 49 -8 57 -28 25z"/>
</g>
</svg>
