<?xml version="1.0" standalone="no"?>
<!DOCTYPE svg PUBLIC "-//W3C//DTD SVG 20010904//EN"
 "http://www.w3.org/TR/2001/REC-SVG-20010904/DTD/svg10.dtd">
<svg version="1.0" xmlns="http://www.w3.org/2000/svg"
 width="300.000000pt" height="356.000000pt" viewBox="0 0 300.000000 356.000000"
 preserveAspectRatio="xMidYMid meet">
<metadata>
Created by potrace 1.10, written by Peter Selinger 2001-2011
</metadata>
<g transform="translate(0.000000,356.000000) scale(0.050000,-0.050000)"
fill="#000000" stroke="none">
<path d="M3659 4876 c-38 -35 -66 -75 -63 -90 3 -14 -4 -26 -15 -26 -12 0 -21
-14 -21 -32 0 -109 -248 -236 -251 -128 -1 28 -9 71 -18 97 l-15 48 58 -35
c57 -33 62 -33 141 7 134 69 129 90 -18 74 -112 -12 -135 -8 -181 28 -88 69
-114 26 -62 -99 37 -88 4 -95 -234 -48 -69 14 -68 12 80 -134 210 -207 390
-545 411 -771 l13 -137 -50 90 c-27 50 -63 93 -78 96 -51 10 -136 229 -136
352 l0 112 -75 2 c-41 1 -156 4 -255 5 -176 3 -180 4 -186 53 -8 63 -55 100
-126 100 -96 0 -118 -17 -104 -84 18 -90 -37 -63 -70 34 -32 97 -23 126 25 78
37 -37 38 -36 24 31 -17 84 -29 98 -55 60 -15 -21 -17 -6 -9 51 6 44 3 107 -7
140 -10 33 -19 44 -20 25 -1 -19 -11 -35 -22 -35 -12 0 -12 19 1 53 32 83 8
122 -39 65 -32 -40 -42 -43 -70 -20 -43 36 -45 -48 -3 -128 30 -59 7 -130 -43
-130 -50 0 -41 -34 27 -107 58 -61 66 -80 46 -104 -17 -21 -21 -71 -12 -168
l13 -137 -105 -59 c-58 -33 -145 -90 -195 -127 -49 -38 -129 -93 -177 -124
-48 -32 -98 -85 -113 -120 -46 -111 -323 -501 -419 -590 -102 -95 -122 -223
-58 -376 14 -35 21 -67 16 -73 -6 -5 3 -20 18 -32 33 -28 175 11 188 52 5 16
-3 21 -23 13 -43 -16 -41 11 3 44 21 16 25 27 10 27 -38 1 -30 50 15 91 43 39
120 0 120 -61 0 -39 -54 -76 -66 -45 -7 17 -11 15 -12 -8 -2 -34 48 -96 78
-96 21 0 160 160 160 184 0 10 -14 39 -32 66 -17 27 -37 102 -42 167 l-11 119
126 93 c69 51 150 107 181 125 30 18 89 85 130 149 42 64 90 121 107 125 17 5
59 15 93 21 l62 13 12 -136 c7 -75 16 -158 21 -186 48 -270 29 -340 -92 -340
-20 0 -54 -30 -76 -68 -27 -45 -60 -71 -101 -79 -35 -7 -66 -28 -71 -48 -14
-55 -220 -177 -417 -246 -98 -35 -201 -80 -227 -101 -27 -21 -64 -38 -82 -38
-19 0 -56 -23 -82 -51 -27 -28 -80 -71 -119 -95 -122 -75 -397 -332 -454 -425
-165 -268 -226 -464 -252 -805 -11 -148 20 -123 85 67 177 521 497 789 1078
901 259 50 263 48 263 -91 0 -289 -33 -341 -230 -370 -193 -29 -252 -77 -395
-331 -47 -82 -246 -292 -440 -464 l-75 -66 45 -90 c29 -59 46 -130 47 -206 3
-138 30 -173 174 -233 57 -23 120 -51 139 -62 50 -28 75 -23 62 11 -19 50 41
35 123 -30 86 -69 111 -65 63 9 -60 91 18 106 85 16 l41 -55 0 58 c1 53 6 56
61 45 33 -7 60 -5 60 2 0 28 -159 165 -191 165 -57 0 -178 75 -226 140 -178
241 285 667 756 695 234 14 361 99 361 241 0 22 10 44 22 48 12 4 26 70 31
147 6 76 20 148 31 159 15 14 17 -37 9 -165 -8 -117 -5 -185 7 -185 11 0 21
47 22 105 3 130 24 232 42 204 21 -33 25 -173 6 -229 -14 -45 -12 -47 17 -22
29 23 33 22 33 -14 0 -40 33 -78 52 -59 5 5 1 32 -10 59 -11 30 -12 142 -3
278 8 125 8 248 -1 272 -9 25 -9 49 1 55 25 16 37 -52 52 -294 13 -186 48
-289 49 -139 0 30 10 68 22 84 16 23 19 15 13 -36 -5 -36 -1 -70 8 -76 10 -6
17 3 17 19 0 16 18 50 41 76 l41 47 -8 -70 c-4 -38 -15 -86 -23 -105 -10 -22
-7 -35 8 -35 28 0 121 194 121 255 0 84 108 3 126 -95 8 -46 9 -46 11 -5 2 25
11 45 22 45 34 0 43 -38 20 -82 -16 -31 -17 -48 -1 -64 16 -16 22 -13 22 10 0
74 56 84 144 26 l83 -55 -68 -34 c-42 -20 -74 -25 -82 -14 -50 73 -357 -155
-357 -265 0 -72 31 -83 51 -17 21 68 70 117 159 157 128 59 151 52 126 -37
-37 -136 -78 -193 -268 -377 -231 -224 -248 -284 -98 -350 68 -30 110 -70 173
-164 98 -145 109 -153 270 -195 67 -18 143 -52 168 -76 62 -57 82 -54 59 8
-27 71 -29 69 54 69 71 0 234 -64 257 -102 6 -10 21 -18 32 -18 12 0 7 22 -11
50 -42 64 -23 63 72 -3 42 -29 82 -48 89 -41 16 16 -110 174 -140 174 -13 0
-35 18 -48 40 -18 28 -47 40 -100 40 -43 1 -96 17 -125 40 -27 22 -77 39 -111
40 -113 0 -329 172 -329 261 0 88 506 459 626 459 62 0 100 35 133 123 56 150
60 157 106 157 142 1 404 216 514 424 63 119 164 161 249 105 41 -26 60 -29
77 -12 13 13 37 23 54 23 86 0 184 238 130 315 -32 46 4 165 50 165 41 0 265
190 332 282 116 157 131 235 146 738 15 498 24 536 143 615 89 60 98 85 28 85
-60 0 -228 -159 -228 -216 0 -17 -107 -139 -237 -272 -387 -395 -963 -1017
-963 -1040 1 -32 740 735 1067 1105 95 108 89 126 71 -217 -25 -478 -104 -686
-350 -919 -79 -75 -150 -154 -156 -176 -9 -27 -31 -38 -77 -39 -36 0 -129 -7
-207 -16 l-142 -15 -153 155 c-84 86 -153 163 -153 173 0 9 -33 53 -72 97 -67
74 -73 91 -78 219 -3 76 -17 171 -30 211 -19 57 -19 85 2 134 57 137 22 297
-94 434 l-53 64 35 123 c19 68 37 183 40 257 6 146 47 239 122 279 24 13 50
39 57 56 27 73 75 143 125 182 83 66 41 69 -134 11 -89 -30 -158 -59 -152 -65
6 -6 -4 -23 -23 -37 -33 -25 -32 -27 5 -28 37 -1 36 -4 -10 -40 -61 -48 -100
-51 -100 -7 0 31 -3 31 -37 0 -60 -55 -67 -37 -10 27 38 42 60 54 78 40 27
-23 80 26 61 57 -6 10 7 42 31 72 48 62 35 93 -19 44 -53 -47 -70 -41 -55 20
11 44 7 50 -21 39 -19 -7 -40 -4 -47 7 -8 12 -42 -6 -82 -43z m11 -156 c-4
-22 -22 -60 -41 -85 -32 -44 -32 -44 -18 25 16 82 25 100 49 100 10 0 14 -18
10 -40z m0 -160 c144 0 203 -204 82 -285 -75 -50 -120 6 -50 62 40 33 38 35
-95 87 -98 39 -143 48 -161 33 -15 -13 -48 -15 -81 -6 -30 9 -61 14 -69 13 -8
-2 -9 10 -3 26 16 43 145 38 272 -10 58 -22 121 -40 140 -40 19 0 35 -11 35
-25 1 -17 7 -15 20 5 33 51 22 65 -39 53 -90 -18 -258 60 -208 97 24 17 48 20
70 8 19 -10 58 -18 87 -18z m-1232 -300 c10 0 24 -16 31 -35 11 -28 8 -30 -12
-10 -14 14 -47 25 -73 25 -39 0 -44 5 -26 27 12 16 17 45 11 65 -6 21 3 13 20
-17 18 -30 40 -55 49 -55z m1143 35 c62 -49 73 -75 33 -75 -14 0 -57 33 -95
73 -75 79 -38 81 62 2z m-862 -85 c129 -65 170 -121 130 -177 -38 -55 -37 -93
3 -93 21 0 28 -11 20 -31 -8 -21 -3 -26 13 -17 65 37 76 53 54 80 -17 19 -13
42 13 86 34 57 34 63 2 98 -19 20 -28 43 -21 51 24 23 88 14 99 -15 6 -16 32
-34 57 -40 48 -12 131 -170 131 -250 0 -22 9 -45 20 -52 30 -18 161 -312 149
-332 -6 -10 -25 -18 -41 -18 -28 0 -79 -91 -71 -127 3 -9 -7 -13 -21 -8 -14 5
-50 -3 -80 -18 -30 -15 -101 -25 -166 -22 -90 4 -117 -2 -133 -30 -11 -20 -28
-30 -39 -24 -10 7 -17 0 -13 -15 3 -14 -11 -25 -30 -23 -39 3 -45 -36 -14 -94
24 -46 79 -52 79 -9 0 17 9 30 19 30 11 0 41 32 67 70 l48 70 50 -39 c99 -78
336 16 336 134 0 35 140 129 173 117 34 -13 25 -65 -11 -57 -26 6 -30 -28 -4
-43 24 -16 -4 -137 -34 -147 -14 -5 -24 11 -24 38 0 26 -10 61 -22 77 -16 22
-18 11 -9 -45 12 -72 2 -87 -55 -77 -9 2 -41 -17 -70 -41 -30 -24 -39 -38 -20
-31 19 7 39 5 45 -5 6 -9 -9 -22 -33 -28 -24 -6 -40 -16 -34 -21 40 -41 338
112 338 174 0 41 -1 41 -29 3 -39 -52 -38 -28 3 76 46 116 110 202 128 172 9
-14 25 11 39 60 34 113 44 93 19 -38 -12 -60 -40 -128 -65 -154 -35 -38 -37
-45 -9 -34 46 18 -19 -98 -93 -168 -49 -46 -389 -183 -455 -183 -19 0 -40 -7
-46 -17 -6 -9 -38 -12 -71 -7 -40 5 -61 0 -61 -16 0 -17 -8 -19 -25 -5 -45 36
-126 -8 -92 -50 24 -31 24 -32 -7 -9 -28 23 -45 22 -102 -6 -38 -18 -91 -35
-117 -37 -27 -3 -61 -13 -75 -22 -16 -10 -33 -5 -43 11 -13 21 -20 20 -30 -8
-17 -44 -49 -44 -50 1 0 32 -3 31 -29 -4 -16 -21 -35 -33 -41 -27 -6 6 13 39
42 73 30 36 55 93 58 132 10 125 44 139 122 52 78 -86 81 -95 40 -140 -27 -30
-23 -32 40 -25 43 5 69 19 69 37 0 16 7 25 15 21 8 -5 36 -1 62 8 45 17 43 21
-60 91 -59 40 -128 90 -155 110 -26 20 -64 37 -85 37 -20 0 -37 9 -37 20 0 29
123 16 134 -13 5 -14 30 -38 56 -55 47 -31 47 -31 28 34 -10 35 -23 96 -29
134 -5 39 -15 102 -22 140 -15 87 -26 258 -15 229 5 -11 39 -17 76 -13 64 7
70 2 124 -105 45 -88 60 -105 71 -77 9 24 15 26 16 8 0 -16 7 -23 14 -15 7 7
-1 29 -18 48 -17 19 -46 87 -65 150 -45 155 -153 192 -287 98 -147 -104 -303
-152 -333 -103 -7 11 -4 20 7 20 11 0 14 20 8 45 -11 40 -8 42 22 17 30 -24
32 -24 21 5 -7 20 0 37 20 45 17 7 27 20 21 30 -6 10 0 18 14 18 20 0 20 5 0
25 -20 20 -28 19 -43 -5 -15 -25 -20 -24 -30 3 -13 35 6 57 198 232 134 122
124 120 251 55z m796 10 c24 -22 51 -40 60 -40 62 0 95 -56 57 -98 -33 -36
-33 -42 -6 -42 25 0 28 -11 13 -62 -15 -53 -10 -68 34 -109 l51 -47 -105 -111
c-118 -125 -115 -138 14 -51 97 66 107 69 107 41 0 -33 -124 -163 -148 -155
-12 5 -43 1 -68 -9 -57 -21 -82 28 -40 79 107 126 158 318 58 218 -16 -16 -22
-6 -22 38 0 33 -19 100 -42 148 -89 185 -68 298 37 200z m-1599 -593 c26 -46
6 -106 -33 -103 -72 5 -105 -5 -91 -27 9 -14 5 -18 -8 -9 -30 18 -5 77 28 64
16 -6 22 1 15 19 -6 16 3 34 21 41 17 7 27 20 21 30 -6 10 -2 18 9 18 11 0 28
-15 38 -33z m1873 -351 c-14 -63 -16 -64 -35 -21 -14 32 -12 53 6 75 36 43 46
24 29 -54z m-139 -498 c19 -139 248 -335 554 -474 81 -37 149 -84 179 -124 26
-35 67 -72 92 -82 25 -9 45 -28 45 -43 -1 -19 -4 -19 -16 -1 -28 45 -93 5
-174 -107 -101 -141 -249 -259 -368 -295 -50 -15 -107 -34 -125 -41 -24 -10
-63 29 -157 158 l-124 172 202 210 c111 115 202 221 202 234 -1 24 -224 -197
-354 -349 l-64 -75 -110 115 c-61 63 -111 129 -112 146 0 18 -18 55 -40 83
-22 28 -40 60 -40 72 0 37 -104 103 -163 103 -120 0 -75 61 371 506 l119 118
35 -114 c19 -62 41 -158 48 -212z m-2268 95 c-53 -53 -59 -6 -7 68 31 44 35
45 42 12 4 -21 -12 -57 -35 -80z m1581 16 c41 14 85 19 97 11 14 -9 -6 -20
-48 -28 -40 -8 -72 -22 -72 -33 0 -28 -35 -23 -91 13 -27 18 -43 41 -37 51 7
12 26 7 45 -10 28 -25 44 -26 106 -4z m108 -51 c16 -26 -63 -112 -84 -92 -16
16 32 114 55 114 9 0 22 -10 29 -22z m-216 -22 c-4 -14 -30 -30 -56 -36 -38
-9 -42 -16 -20 -29 23 -15 21 -21 -10 -33 -37 -14 -37 -15 3 -17 51 -1 71 -20
53 -49 -8 -12 -15 -40 -16 -62 0 -22 -8 -52 -17 -67 -14 -22 -9 -23 24 -5 22
12 48 55 58 96 11 49 31 78 55 83 29 6 34 -1 22 -30 -8 -20 -19 -68 -24 -107
-21 -151 -24 -157 -91 -164 -57 -5 -65 -13 -65 -66 -1 -51 -15 -67 -91 -104
-49 -24 -75 -45 -57 -45 19 -1 38 -12 42 -26 7 -18 21 -14 52 13 33 29 43 31
45 10 1 -20 4 -21 11 -3 15 36 47 10 47 -36 0 -48 -36 -50 -74 -4 -26 32 -27
32 -9 -5 10 -22 15 -97 10 -167 -5 -71 1 -138 12 -152 14 -17 12 -36 -7 -62
-30 -40 -57 113 -49 276 4 92 -7 106 -40 52 -20 -32 -20 -38 -1 -26 18 11 21
5 11 -19 -7 -20 -13 -57 -13 -84 0 -26 -9 -48 -20 -48 -11 0 -20 20 -20 45 -1
76 -23 135 -52 135 -16 0 -28 19 -28 41 0 23 9 36 20 29 11 -7 20 1 20 18 0
16 -15 39 -34 49 -27 15 -15 22 59 33 101 15 156 57 121 92 -33 33 -244 -31
-305 -92 -48 -48 -30 -110 23 -77 9 5 16 -7 16 -28 0 -20 11 -48 24 -61 18
-18 18 -30 2 -46 -13 -13 -18 -36 -11 -53 8 -23 1 -26 -32 -16 -27 8 -43 5
-43 -9 0 -12 -10 -16 -23 -8 -17 10 -15 20 5 36 38 30 35 114 -8 179 -45 69
-16 120 96 165 l80 33 -95 28 c-99 29 -225 164 -274 293 -30 79 -27 88 24 82
25 -2 45 -6 45 -8 0 -10 103 -13 119 -4 151 89 220 -34 161 -286 l-14 -60 36
50 c20 28 42 55 50 60 40 28 73 233 40 254 -25 17 -16 21 45 22 42 0 87 10 99
22 30 30 79 28 69 -2z m1257 -234 c55 45 47 5 -14 -68 -68 -83 -124 -103 -61
-23 23 28 38 62 35 75 -3 13 -2 17 3 8 5 -9 22 -5 37 8z m-2104 -145 c-35
-112 -68 -167 -68 -115 0 17 7 39 17 49 9 10 27 58 41 106 14 48 29 83 35 77
5 -5 -6 -58 -25 -117z m-318 43 c-29 -46 17 -64 50 -20 22 29 47 42 67 34 38
-15 22 -71 -70 -251 l-58 -113 11 87 11 86 -59 -41 c-95 -68 -219 -23 -155 57
18 22 17 25 -2 14 -40 -24 -29 15 17 65 24 25 58 41 77 36 20 -5 45 8 58 29
13 20 33 37 44 37 12 0 16 -9 9 -20z m510 -183 c0 -105 55 -333 102 -422 24
-46 23 -115 -2 -115 -11 0 -20 -13 -20 -30 0 -16 -10 -30 -22 -30 -13 0 -18
18 -12 42 6 23 6 37 -1 30 -6 -6 -23 -2 -37 10 -39 32 -123 -150 -89 -191 14
-16 18 -40 10 -53 -10 -15 -7 -19 8 -10 14 9 23 2 23 -17 0 -49 -35 -36 -54
20 l-17 51 -44 -50 c-24 -28 -35 -56 -24 -62 29 -19 23 -50 -11 -50 -16 0 -30
11 -30 23 0 50 -22 -1 -31 -71 -6 -49 -2 -70 12 -61 12 7 18 23 13 36 -8 24
103 103 120 86 20 -21 -17 -91 -43 -81 -16 6 -33 -6 -40 -29 -9 -29 -29 -40
-72 -39 -61 2 -76 31 -36 71 12 12 16 39 8 59 -12 30 -18 26 -42 -29 -15 -36
-22 -79 -16 -95 6 -17 2 -30 -9 -30 -12 0 -35 -5 -52 -12 -24 -9 -29 0 -22 45
16 112 30 157 50 164 11 3 34 20 50 36 17 17 41 23 55 14 17 -10 17 -4 -2 19
-22 27 -23 40 -3 64 14 17 18 30 10 30 -8 0 -4 13 9 29 32 38 12 196 -38 297
-33 67 -34 92 -15 205 25 144 45 165 58 58 6 -51 1 -68 -17 -61 -20 8 -21 -2
-4 -44 12 -30 25 -108 30 -173 5 -66 13 -124 18 -129 27 -27 39 45 40 245 1
274 75 470 150 402 30 -27 39 -62 39 -152z m860 -46 c0 -23 -14 -64 -31 -92
-18 -27 2 -12 45 33 78 84 126 94 126 25 0 -26 -12 -37 -34 -33 -20 4 -38 -9
-42 -30 -6 -29 2 -33 44 -23 39 10 52 6 52 -17 0 -17 7 -34 15 -39 8 -5 4 -6
-10 -2 -14 3 -25 -12 -25 -34 0 -25 -14 -39 -39 -39 -21 0 -45 -10 -53 -23 -8
-14 -5 -18 8 -10 12 8 30 -1 40 -20 14 -25 35 -30 83 -20 38 7 91 1 131 -16
37 -15 73 -22 81 -14 8 7 10 -9 3 -35 -7 -27 -3 -65 7 -85 16 -28 14 -34 -9
-25 -15 6 -34 2 -41 -10 -7 -11 -25 -15 -42 -9 -45 17 -34 -5 19 -40 44 -29
51 -28 95 9 34 30 48 34 55 15 5 -15 21 -38 35 -53 15 -15 22 -36 16 -46 -6
-10 16 -24 50 -31 33 -6 61 -20 61 -31 0 -10 9 -13 20 -6 11 7 20 4 20 -7 0
-10 -25 -25 -55 -33 -30 -8 -44 -19 -30 -24 14 -5 20 -18 14 -28 -6 -10 -2
-18 9 -18 11 0 16 -13 9 -30 -14 -37 -140 -41 -152 -5 -5 14 6 36 23 50 28 22
27 26 -12 37 -26 7 -39 23 -32 40 5 15 1 28 -10 28 -11 0 -24 -11 -29 -24 -4
-14 -61 27 -131 95 -175 169 -212 199 -245 199 -16 0 -27 10 -25 23 3 12 -14
27 -36 33 -33 9 -36 6 -17 -18 16 -18 17 -28 3 -28 -12 0 -27 9 -34 20 -7 11
-34 20 -61 20 -67 0 -64 45 16 285 64 192 115 230 115 86z m-767 -53 c19 -22
23 -46 11 -79 -18 -46 -68 90 -62 165 2 14 7 8 12 -14 6 -22 23 -54 39 -72z
m-882 64 c-6 -10 6 -14 28 -8 31 8 36 2 28 -31 -13 -50 -45 -63 -192 -81
l-115 -15 45 50 c25 27 34 43 20 35 -14 -8 -25 -5 -25 6 0 11 30 16 70 11 53
-7 70 -1 70 21 0 17 18 30 41 30 23 0 36 -8 30 -18z m3409 -80 c0 -27 -56 -67
-82 -58 -16 5 -12 19 11 42 37 37 71 45 71 16z m-164 -62 c1 -33 -7 -60 -17
-60 -11 0 -19 8 -19 18 0 10 -18 14 -40 8 -54 -14 -51 24 4 63 62 43 70 40 72
-29z m-1790 -55 c-6 -47 -20 -85 -30 -85 -10 0 -14 16 -8 35 5 19 16 60 23 91
20 81 28 57 15 -41z m-657 -454 c-16 -61 -56 -58 -65 5 -5 33 1 41 25 32 18
-7 31 -2 31 13 0 14 5 21 11 15 6 -6 5 -35 -2 -65z m1241 -193 c79 -47 83 -87
9 -90 -26 -2 -51 -13 -55 -25 -26 -78 -148 10 -132 94 16 77 71 83 178 21z
m-1763 -35 c-52 -39 -77 -90 -32 -66 38 20 45 19 45 -6 0 -17 -9 -31 -20 -31
-32 0 -46 -8 -94 -52 -41 -38 -221 -79 -244 -56 -19 19 45 102 114 148 41 27
81 59 89 70 8 11 15 14 15 7 0 -8 25 -7 55 2 57 16 102 6 72 -16z m-722 -788
c8 -19 5 -35 -6 -35 -11 0 -14 -22 -7 -50 10 -42 7 -48 -21 -38 -24 10 -30 27
-22 59 6 26 3 52 -7 58 -10 6 -14 29 -8 50 11 44 46 22 71 -44z"/>
<path d="M2587 4190 c19 -14 26 -29 15 -33 -13 -4 -14 -18 -2 -37 22 -35 57
-9 68 52 6 31 -4 39 -54 41 -56 2 -59 0 -27 -23z"/>
<path d="M2413 3946 c-29 -29 -9 -46 52 -46 74 1 131 28 99 48 -12 7 -26 4
-33 -6 -12 -20 -48 -19 -83 3 -12 8 -28 8 -35 1z"/>
<path d="M3077 3126 c-41 -5 -79 -21 -85 -37 -10 -28 70 -27 173 4 32 9 31 51
-1 44 -8 -2 -47 -7 -87 -11z"/>
<path d="M1558 2367 c-21 -24 -20 -33 3 -48 38 -24 67 -14 75 25 8 43 -48 60
-78 23z"/>
</g>
</svg>
