<?xml version="1.0" standalone="no"?>
<!DOCTYPE svg PUBLIC "-//W3C//DTD SVG 20010904//EN"
 "http://www.w3.org/TR/2001/REC-SVG-20010904/DTD/svg10.dtd">
<svg version="1.0" xmlns="http://www.w3.org/2000/svg"
 width="300.000000pt" height="506.000000pt" viewBox="0 0 300.000000 506.000000"
 preserveAspectRatio="xMidYMid meet">
<metadata>
Created by potrace 1.10, written by Peter Selinger 2001-2011
</metadata>
<g transform="translate(0.000000,506.000000) scale(0.050000,-0.050000)"
fill="#000000" stroke="none">
<path d="M758 10004 c31 -58 18 -63 -284 -99 -145 -18 -269 -39 -274 -47 -6
-8 -35 -21 -65 -29 -31 -7 -61 -23 -68 -34 -8 -14 3 -17 30 -10 55 14 117 -60
135 -162 15 -82 44 -128 70 -112 38 24 16 -66 -32 -131 -51 -69 -66 -140 -30
-140 11 0 20 12 20 27 0 27 61 93 87 93 7 0 11 -10 8 -23 -3 -12 57 -66 133
-119 158 -110 171 -126 157 -185 -9 -40 -8 -40 18 -9 34 44 158 20 225 -42 72
-67 215 -33 148 34 -16 16 -17 24 -2 24 34 0 51 -65 22 -83 -14 -9 -19 -17
-10 -17 52 -1 -54 -60 -107 -60 -55 0 -60 -4 -39 -30 22 -26 17 -35 -20 -35
-68 1 -82 -77 -24 -132 l63 -58 -58 -57 c-55 -55 -56 -61 -29 -125 37 -90 198
-332 292 -441 44 -51 87 -127 99 -177 13 -49 29 -78 36 -66 8 12 26 -14 41
-60 22 -67 23 -85 2 -98 -21 -13 -18 -73 16 -310 54 -382 59 -345 -67 -591
-95 -185 -179 -452 -113 -360 12 17 22 51 22 77 0 28 10 43 25 37 14 -5 22
-21 19 -35 -16 -65 20 -227 41 -187 33 61 35 61 93 -9 34 -43 73 -68 108 -70
153 -9 -15 -172 -176 -172 l-60 0 90 79 c53 47 77 79 59 79 -17 1 -41 -9 -53
-21 -17 -17 -38 -16 -82 4 -63 27 -133 122 -109 146 8 8 1 22 -15 32 -24 15
-25 29 -6 79 27 72 11 77 -62 19 -148 -116 -144 -296 19 -828 241 -786 300
-1279 226 -1890 -28 -237 -43 -492 -46 -790 -4 -322 -14 -483 -39 -600 -18
-88 -51 -385 -72 -660 -22 -275 -49 -621 -62 -770 -15 -177 -16 -294 -4 -340
18 -64 12 -80 -59 -182 -137 -196 -80 -267 199 -250 158 10 325 46 327 70 15
320 6 306 185 290 79 -7 171 -11 204 -9 98 8 69 10 629 -38 187 -16 303 2 370
58 13 11 54 15 92 10 63 -8 138 6 224 41 29 12 35 4 35 -46 0 -77 21 -84 267
-84 116 0 250 -13 313 -30 350 -95 505 -84 496 34 -6 78 -8 80 -213 187 -114
60 -219 109 -235 109 -50 0 -30 32 41 65 65 32 69 39 75 148 l6 115 90 25 c50
13 142 35 205 49 64 13 125 37 138 51 12 15 38 27 58 27 20 0 43 10 50 22 10
16 18 15 29 -2 48 -78 394 83 580 270 l127 129 -89 361 -90 361 104 105 c58
58 113 102 123 99 26 -9 265 221 265 256 0 56 -178 336 -220 345 -33 8 -31 9
6 7 55 -3 414 254 414 296 0 14 18 31 40 37 90 23 91 101 4 217 -111 148 -151
238 -435 987 -154 404 -240 641 -312 860 -22 66 -93 264 -158 440 -134 365
-156 435 -299 965 l-103 385 41 67 c23 37 42 89 42 116 0 26 13 66 28 88 48
69 134 296 136 359 1 33 10 71 21 85 11 13 14 47 7 75 -9 35 -5 49 13 45 14
-3 26 9 26 25 1 17 13 66 25 110 32 108 30 170 -5 170 -30 0 -101 -203 -93
-265 5 -42 -12 -44 -84 -10 -70 33 -70 30 -48 292 18 223 4 305 -43 252 -36
-39 -68 -430 -38 -456 39 -32 79 -133 54 -133 -11 0 -25 13 -32 30 -6 16 -19
25 -28 20 -27 -17 -41 58 -46 258 -6 201 -12 224 -62 205 -25 -9 -31 -50 -31
-207 -1 -108 -10 -236 -22 -285 -17 -77 -15 -93 15 -115 53 -40 87 -31 87 22
0 76 55 81 72 6 8 -35 18 -53 23 -39 21 61 35 14 35 -114 0 -106 -8 -148 -35
-175 -33 -33 -35 -32 -35 15 0 61 -65 169 -118 198 -22 12 -69 76 -104 142
-106 198 -205 209 -113 13 126 -265 123 -253 64 -315 -35 -37 -44 -57 -27 -63
40 -13 -56 -236 -101 -236 -75 0 -49 209 34 272 32 24 32 27 2 27 -45 1 -274
-108 -341 -161 -59 -48 -258 -60 -334 -19 -22 11 -84 21 -138 21 l-99 0 -13
95 c-8 65 -34 122 -80 180 -64 81 -148 308 -215 582 -46 190 -307 370 -425
293 -29 -20 -53 -24 -60 -13 -7 11 3 24 23 29 31 8 30 10 -4 12 -121 7 -312
-163 -342 -304 -7 -35 -40 -149 -73 -254 -32 -104 -69 -221 -81 -260 -11 -38
-69 -151 -129 -250 -93 -155 -107 -190 -97 -254 9 -59 4 -75 -26 -85 -20 -6
-72 -47 -115 -91 -101 -102 -107 -101 -105 25 2 119 -20 235 -44 235 -8 0 -31
41 -50 90 -19 50 -41 90 -50 90 -8 0 -13 22 -10 48 3 33 -3 45 -21 39 -14 -6
-52 26 -85 72 -33 46 -85 102 -117 126 -121 93 -246 263 -246 336 0 22 -8 39
-18 39 -9 0 -22 19 -28 42 -11 40 -10 40 27 7 22 -19 39 -51 39 -70 0 -19 14
-46 31 -60 18 -14 45 -51 61 -83 16 -31 42 -56 59 -56 16 0 29 -9 29 -19 0
-10 43 -62 95 -115 52 -53 106 -114 120 -136 21 -34 24 -18 20 103 -3 79 2
139 10 134 8 -5 16 -29 17 -53 2 -34 7 -30 23 20 22 69 8 136 -25 116 -11 -7
-20 1 -20 18 0 17 -17 40 -38 51 -50 26 -162 4 -162 -31 0 -38 -20 -35 -52 7
-39 51 -34 67 17 63 95 -9 177 3 165 22 -7 11 -4 20 7 20 11 0 23 -10 27 -23
12 -36 92 16 137 89 36 59 57 210 24 164 -23 -31 -65 -33 -65 -4 0 14 9 35 21
47 29 29 0 92 -36 78 -18 -7 -42 5 -59 29 -16 22 -45 40 -65 40 -20 0 -47 14
-61 30 -14 17 -36 30 -50 30 -37 0 -55 60 -28 92 17 21 15 30 -10 40 -17 7
-32 21 -32 33 0 12 11 11 28 -4 20 -16 32 -17 42 -1 19 31 -22 73 -85 87 -85
18 -108 42 -125 126 -8 42 -18 89 -22 104 -10 34 77 101 149 114 61 11 75 -67
15 -87 -17 -6 -22 0 -14 13 8 13 5 23 -7 23 -39 0 -21 -41 28 -63 65 -30 120
9 91 62 -10 20 -14 41 -8 47 19 18 -67 55 -100 42 -47 -18 -92 41 -92 119 0
39 -9 76 -20 83 -11 7 -20 37 -20 66 0 35 -33 94 -90 164 -95 116 -152 158
-112 84z m-42 -244 c24 0 44 -12 44 -26 0 -30 109 -99 127 -80 7 7 13 -7 13
-31 0 -23 8 -43 18 -43 10 0 23 -14 30 -31 15 -39 -5 -28 -148 84 -174 136
-220 177 -220 196 0 10 21 -2 46 -26 26 -23 66 -43 90 -43z m-214 -62 c7 -48
4 -105 -6 -125 -29 -55 -9 -59 55 -9 43 34 58 38 65 17 7 -19 18 -12 38 21 17
29 24 33 17 11 -8 -27 -3 -34 17 -26 16 6 34 -2 40 -18 6 -16 31 -29 57 -29
25 0 57 -19 71 -41 26 -41 -97 -53 -166 -17 -39 20 -248 5 -279 -21 -19 -16
-31 -18 -31 -5 0 12 17 27 38 33 45 15 72 91 32 91 -15 0 -31 -11 -36 -25 -6
-14 -9 -5 -8 20 2 25 13 45 25 45 13 0 24 37 25 85 3 61 -2 77 -16 55 -11 -16
-20 -20 -20 -8 -1 91 68 46 82 -54z m138 -30 c0 -14 -10 -32 -23 -40 -13 -8
-18 -5 -10 7 7 11 -1 32 -17 45 -17 14 -30 39 -30 56 0 25 6 24 40 -6 22 -20
40 -48 40 -62z m40 -285 c0 -18 -10 -46 -22 -63 -19 -26 -20 -25 -11 3 6 19
-1 38 -16 44 -18 7 -23 -2 -16 -28 5 -22 0 -39 -13 -39 -12 0 -22 30 -22 67 0
61 5 67 50 58 29 -6 50 -23 50 -42z m100 12 c0 -11 13 -14 28 -9 41 16 54 -59
16 -90 -17 -14 -26 -17 -20 -6 14 23 -37 103 -54 86 -6 -6 -2 -35 9 -65 32
-82 28 -130 -6 -80 -29 42 -57 158 -42 173 17 17 69 10 69 -9z m260 -635 c0
-48 17 -50 93 -10 79 41 98 38 103 -21 2 -34 -4 -46 -19 -37 -14 8 -18 5 -10
-7 23 -38 -10 -85 -59 -85 -26 0 -68 -20 -92 -44 l-43 -43 77 -27 c70 -24 78
-23 105 15 23 32 35 36 57 18 40 -34 35 -58 -22 -111 -27 -25 -50 -38 -50 -28
0 10 -41 24 -91 31 -121 18 -181 214 -108 350 27 51 59 50 59 -1z m1359 -272
c-21 -62 -33 -122 -26 -133 8 -13 3 -15 -11 -6 -17 10 -20 1 -12 -33 12 -48
-46 -197 -115 -296 -75 -107 -215 -326 -215 -338 -1 -19 -79 -114 -80 -96 0
26 42 99 93 161 26 31 93 150 149 265 56 114 108 208 116 208 23 0 19 68 -5
83 -27 18 22 175 71 223 20 19 36 44 36 55 0 10 9 19 19 19 10 0 1 -51 -20
-112z m230 40 c17 -17 26 -39 20 -50 -6 -10 -3 -18 8 -18 11 0 34 -6 52 -12
23 -9 28 -4 19 20 -7 18 -2 32 11 32 37 0 121 -62 121 -90 0 -14 14 -36 30
-50 17 -14 30 -33 30 -42 0 -23 -94 -24 -108 -2 -13 22 -188 9 -258 -19 -30
-12 -60 -18 -65 -13 -21 21 18 136 46 136 17 0 25 -12 18 -29 -7 -19 -1 -25
18 -18 56 22 30 77 -32 71 -7 -1 -12 25 -12 57 0 67 49 80 102 27z m222 -378
c51 -38 69 -67 69 -110 0 -32 10 -64 22 -71 12 -8 36 -46 52 -86 73 -173 203
-326 181 -213 -5 28 -2 56 8 62 9 6 17 -26 17 -70 0 -44 9 -85 20 -92 12 -7
16 -21 10 -31 -7 -10 3 -46 21 -81 18 -34 28 -79 23 -99 -5 -21 -1 -40 9 -43
10 -4 4 -47 -14 -96 -33 -88 -34 -130 -22 -725 0 -41 8 -75 17 -75 9 0 16 -9
16 -20 0 -41 -37 -18 -55 34 -15 45 -18 35 -16 -58 0 -62 8 -108 16 -103 23
14 18 -9 -16 -74 -36 -70 -49 -75 -36 -14 10 43 9 44 -21 7 -17 -21 -27 -45
-21 -53 5 -8 -5 -47 -21 -86 -21 -49 -26 -105 -17 -187 7 -64 13 -135 15 -159
1 -24 8 -40 15 -35 24 15 38 -57 15 -84 -12 -15 -17 -38 -11 -52 6 -15 11 -9
13 14 2 33 60 -197 90 -360 4 -22 30 -126 57 -232 66 -252 91 -592 67 -902 -7
-91 -3 -138 13 -145 13 -6 2 -8 -23 -3 -34 6 -41 2 -27 -15 19 -23 31 -86 23
-123 -19 -88 15 -824 51 -1100 5 -44 14 -114 19 -155 18 -157 39 -264 141
-705 41 -178 65 -350 89 -640 26 -316 36 -404 51 -472 13 -56 -101 -134 -162
-110 -15 5 -33 2 -40 -9 -12 -21 -189 -27 -189 -6 0 7 24 33 53 57 47 41 52
108 5 79 -10 -6 -13 -20 -7 -30 6 -11 -3 -19 -20 -19 -17 0 -31 9 -31 20 0 11
-29 19 -65 18 -42 -2 -51 -6 -25 -12 69 -17 71 -36 4 -33 -35 2 -68 6 -74 8
-5 3 -27 6 -48 7 -33 2 -38 18 -37 109 1 101 -21 119 -40 33 -5 -22 -5 5 1 60
5 55 9 111 8 125 -1 14 -2 68 -1 120 3 347 -8 693 -23 731 -9 24 -18 34 -19
22 0 -12 -24 -48 -52 -80 -37 -43 -48 -73 -40 -114 8 -45 4 -54 -24 -50 -34 6
-75 -148 -51 -190 18 -30 16 -354 -1 -354 -10 0 -13 -27 -6 -60 9 -45 5 -60
-17 -60 -16 0 -25 -11 -20 -25 5 -14 13 -61 18 -105 12 -106 13 -108 32 -50
15 47 16 47 18 6 3 -72 42 -75 42 -3 l0 65 70 -68 c72 -69 93 -140 42 -140
-16 0 -32 -9 -35 -20 -4 -11 -28 -24 -54 -29 -25 -5 -61 -14 -80 -19 -18 -6
-138 -15 -266 -20 l-233 -10 -14 139 c-10 96 -24 146 -47 161 -29 19 -29 20 3
10 28 -9 34 -3 27 23 -5 19 -15 60 -22 91 -7 31 -21 50 -32 44 -10 -7 -20 13
-21 44 -1 31 -5 92 -8 136 -4 44 -7 101 -8 126 -1 26 -10 41 -20 35 -10 -6
-21 25 -25 69 -5 44 -2 80 6 80 15 0 12 40 -6 70 -7 11 -13 66 -13 122 1 164
-18 219 -75 223 -32 3 -49 -6 -49 -25 0 -17 7 -29 15 -28 54 9 69 -3 44 -34
-19 -22 -20 -35 -5 -45 13 -7 22 -36 22 -63 0 -52 19 -275 30 -357 4 -25 19
-54 33 -63 15 -9 21 -30 15 -47 -7 -17 -5 -56 4 -87 18 -63 9 -106 -22 -106
-11 0 -15 13 -9 29 21 56 -21 49 -64 -9 -51 -69 -53 -80 -13 -80 17 0 30 10
30 21 0 12 9 16 19 10 32 -20 0 -71 -66 -104 -42 -21 -55 -23 -38 -5 34 36 31
71 -8 86 -19 8 -42 -2 -58 -23 -14 -19 -31 -30 -37 -24 -20 20 12 99 40 99 16
0 28 9 28 20 0 11 -19 20 -43 20 -43 0 -43 1 -5 43 21 24 25 36 10 27 -22 -12
-26 -6 -17 27 6 24 2 43 -9 43 -11 0 -16 -23 -11 -51 7 -37 3 -48 -17 -41 -20
8 -22 -1 -8 -37 9 -26 12 -53 5 -59 -7 -7 -16 -33 -19 -58 -7 -46 -78 -113
-121 -114 -14 0 -23 -11 -20 -25 3 -17 -20 -24 -74 -22 -43 1 -91 -10 -106
-25 -15 -16 -49 -28 -76 -28 -27 0 -57 -17 -69 -40 -25 -47 90 -48 175 -2 38
19 45 18 45 -7 0 -17 -17 -31 -39 -31 -21 0 -44 -9 -51 -20 -7 -11 -32 -16
-56 -12 -24 4 -59 -6 -77 -22 -36 -31 -197 -61 -197 -37 0 7 24 45 52 82 42
55 46 69 20 69 -37 0 -39 18 -10 140 12 50 24 113 28 140 4 28 9 50 10 50 9 0
21 97 29 230 5 83 11 150 12 150 15 0 9 166 -6 185 -15 19 -13 23 7 15 20 -7
28 7 28 50 0 33 -8 60 -17 60 -10 0 -7 13 6 29 18 21 18 39 2 70 -19 34 -16
41 13 43 21 1 26 5 11 11 -38 15 -30 67 10 69 30 2 30 4 3 11 -32 9 -45 143
-16 167 29 25 34 157 6 168 -36 14 -37 52 0 52 19 0 30 30 35 90 4 49 2 90 -4
90 -6 0 -11 90 -11 200 0 186 14 248 37 165 6 -19 18 -52 26 -73 11 -27 9 -34
-8 -24 -29 18 -30 -23 0 -108 l23 -65 26 47 27 48 0 -46 c1 -26 -7 -62 -16
-80 -10 -20 -7 -104 7 -203 14 -93 21 -182 15 -197 -6 -16 2 -36 17 -46 21
-14 22 -22 4 -33 -17 -11 -19 -48 -9 -126 8 -61 7 -141 -2 -178 -13 -49 -11
-71 9 -84 19 -12 16 -16 -11 -17 -28 0 -32 -7 -18 -25 24 -30 9 -155 -19 -155
-11 0 -15 -21 -8 -48 6 -26 -2 -123 -18 -215 -51 -287 -38 -382 40 -304 24 24
38 27 55 10 17 -17 17 -23 -2 -23 -14 0 -20 -8 -14 -19 6 -10 2 -24 -10 -31
-22 -14 11 -70 42 -70 29 0 44 172 20 218 -12 23 -15 42 -5 42 10 0 18 11 19
25 1 14 7 46 12 71 44 188 51 710 15 1014 -12 99 -26 221 -32 270 -16 148 -24
184 -68 314 -23 69 -42 146 -42 171 0 25 -16 68 -35 96 -48 67 -61 1061 -13
1014 13 -13 163 -457 187 -555 13 -49 31 -108 40 -130 47 -104 118 -475 101
-521 -12 -29 -11 -52 1 -59 10 -7 19 -3 19 9 0 11 10 21 21 21 12 0 16 -17 10
-38 -8 -23 -1 -42 18 -49 17 -6 31 -3 31 8 0 10 -8 19 -17 19 -10 0 -11 35 -4
77 15 81 14 102 -19 293 -11 66 -30 187 -41 268 -11 82 -29 160 -40 173 -11
14 -19 32 -16 42 4 20 -15 98 -64 251 -37 116 -28 231 18 221 12 -2 17 7 12
22 -7 16 -33 23 -70 17 -57 -8 -72 5 -87 79 -3 15 -16 52 -29 83 -33 80 -29
108 17 120 26 7 40 0 40 -18 0 -15 9 -28 20 -28 11 0 15 -37 9 -90 -11 -88
-10 -90 45 -88 31 0 45 6 32 11 -13 5 -19 23 -13 38 6 16 3 29 -8 29 -10 0
-17 29 -15 65 6 92 -35 295 -60 296 -11 1 -2 10 20 19 34 15 35 17 5 19 -36 1
-51 41 -15 41 11 0 19 43 17 95 -2 93 -3 93 -17 25 -9 -41 -16 -54 -19 -30 -4
40 -4 40 -20 0 -14 -34 -19 -28 -31 37 -8 42 -50 141 -93 219 -90 163 -128
295 -91 317 16 11 13 18 -9 27 -18 7 -53 55 -79 106 -26 52 -52 99 -58 104 -5
6 -12 28 -14 50 -2 26 62 -28 194 -162 147 -150 200 -193 209 -170 6 18 17 45
24 60 8 17 4 22 -10 14 -16 -10 -24 18 -25 92 -2 58 -7 91 -11 73 -15 -55 -60
-57 -88 -5 -14 26 -42 48 -62 48 -37 0 -45 21 -65 167 -8 61 -4 74 19 65 16
-6 29 -2 29 9 0 10 -11 20 -25 20 -14 1 -7 9 15 18 28 12 48 7 65 -15 22 -28
42 73 20 103 -3 4 5 19 17 35 11 15 20 73 20 128 l-2 100 -103 -7 c-98 -6
-104 -4 -135 58 -45 92 -42 99 53 101 123 4 200 24 211 55 6 19 -3 23 -32 14
-87 -27 -284 -29 -284 -3 0 24 123 49 310 62 40 2 62 16 67 40 5 28 -1 33 -30
22 -180 -70 -418 -9 -255 65 61 28 89 30 48 3 -22 -14 -7 -19 55 -20 72 0 85
6 85 40 0 22 11 40 25 40 17 1 15 7 -5 22 -24 17 -20 19 17 11 26 -6 42 -5 36
0 -6 6 0 24 13 39 80 93 137 148 154 148 11 0 20 13 20 29 0 15 16 33 35 40
19 6 55 43 80 81 60 93 145 85 145 -14 0 -20 13 -36 29 -36 22 0 26 -23 16
-113 -10 -100 -7 -112 22 -101 105 41 25 -83 -171 -263 -74 -68 -127 -123
-118 -123 9 0 92 67 184 149 183 163 198 171 198 109 0 -103 -355 -342 -514
-346 -83 -2 -160 -89 -107 -121 9 -6 23 -71 30 -146 8 -74 22 -171 31 -215 9
-44 22 -143 29 -220 7 -77 22 -212 33 -299 12 -87 16 -188 9 -223 -7 -40 -3
-70 11 -79 15 -10 18 1 9 33 -12 45 -9 44 40 -12 85 -98 124 -205 139 -390 4
-49 3 -69 -3 -43 -6 29 -20 42 -39 35 -15 -6 -28 -1 -28 10 0 11 -8 16 -17 10
-9 -6 -15 35 -14 90 1 59 -9 110 -24 122 -14 11 -25 36 -25 53 -1 29 -3 29
-20 3 -16 -25 -19 -25 -20 6 0 20 -18 55 -40 78 -30 32 -34 49 -17 69 16 20
15 27 -7 27 -22 0 -29 -23 -28 -88 1 -49 8 -78 16 -65 23 37 51 -8 65 -107 10
-65 8 -82 -8 -60 -17 25 -20 22 -21 -16 0 -26 9 -41 20 -34 11 7 20 -10 20
-39 0 -35 11 -51 35 -52 31 0 31 -2 4 -19 -40 -23 -35 -297 6 -323 38 -24 55
-20 55 12 0 19 12 25 31 18 17 -7 27 -24 21 -39 -6 -15 -3 -31 6 -37 9 -6 23
-48 30 -94 7 -46 19 -92 26 -103 7 -11 15 -48 17 -82 3 -33 15 -64 27 -68 12
-4 17 -16 10 -27 -6 -10 -5 -34 3 -53 8 -19 18 -46 21 -61 3 -14 20 -43 38
-63 21 -24 25 -41 11 -49 -36 -23 -23 -63 29 -91 27 -15 50 -35 50 -45 0 -9
-7 -13 -15 -8 -8 5 -16 -14 -18 -42 -2 -31 3 -41 12 -26 11 18 19 15 29 -12 8
-20 5 -39 -7 -43 -13 -5 -11 -26 7 -61 14 -29 22 -64 18 -78 -5 -14 1 -25 14
-25 12 0 17 -8 11 -19 -6 -10 -3 -24 9 -31 11 -7 20 -30 20 -51 0 -22 8 -39
17 -39 10 0 25 -38 33 -85 9 -47 19 -102 23 -122 4 -20 25 -60 47 -88 22 -28
40 -75 40 -106 0 -31 8 -59 17 -62 28 -11 49 -97 24 -97 -16 0 -16 -11 -1 -40
12 -23 17 -49 11 -59 -7 -10 1 -26 17 -35 32 -18 48 -85 27 -119 -8 -12 -1
-34 15 -47 17 -14 30 -41 30 -61 0 -49 35 -68 71 -38 22 18 24 31 7 52 -18 22
-12 27 35 29 31 2 43 6 27 11 -37 10 -127 199 -109 228 7 11 2 34 -12 50 -19
23 -18 29 4 30 16 0 9 15 -20 40 -26 21 -39 39 -28 39 11 0 20 23 20 50 0 28
-7 50 -15 50 -8 0 -15 23 -15 51 0 28 -17 63 -37 78 -21 15 -32 33 -26 40 23
23 115 -27 128 -70 10 -31 19 -37 29 -20 9 14 14 -5 13 -42 -1 -37 -11 -73
-22 -81 -11 -8 0 -32 27 -57 28 -27 43 -58 37 -81 -7 -25 0 -38 19 -38 16 0
24 8 18 19 -7 10 3 27 21 37 20 11 27 29 18 44 -12 19 -18 19 -30 0 -11 -17
-19 -18 -29 -2 -7 12 -5 22 6 22 39 0 40 62 4 174 -21 64 -53 173 -70 243 -58
223 -234 749 -289 863 -30 61 -87 171 -128 247 -41 75 -74 145 -74 157 0 11
-18 43 -40 71 -22 28 -40 76 -40 107 0 30 -8 61 -18 67 -56 34 -32 306 25 285
13 -5 20 -21 15 -37 -4 -15 -10 -72 -15 -127 l-7 -100 50 150 c27 83 46 161
41 173 -5 13 4 28 18 34 40 15 50 -123 16 -206 -16 -38 -32 -137 -37 -220 l-9
-151 30 90 c57 172 95 421 69 452 -19 24 -17 27 14 15 62 -22 14 17 -67 55
-42 19 -60 35 -40 36 47 3 300 -94 325 -124 22 -26 101 -74 122 -74 7 0 7 21
1 47 -9 34 -4 46 20 46 24 0 29 -14 20 -66 -6 -37 -2 -67 8 -67 11 0 19 -8 19
-18 0 -29 -74 -2 -112 40 -19 21 -44 38 -55 38 -13 0 -12 -9 3 -24 31 -31 31
-90 -1 -102 -17 -6 -11 -21 20 -49 25 -22 45 -50 45 -62 0 -30 26 -29 58 2 20
20 23 6 11 -75 -16 -116 -24 -130 -50 -89 -15 24 -18 23 -19 -6 0 -19 8 -35
17 -35 9 0 16 -135 15 -299 -2 -260 3 -304 33 -335 33 -33 35 -32 38 15 1 27
5 72 8 99 3 28 8 136 10 240 6 257 30 442 61 462 21 12 21 25 -1 67 -32 59
-30 63 45 82 56 14 57 13 43 -58 -9 -48 -6 -73 9 -73 12 0 22 -18 22 -40 0
-43 32 -56 36 -15 1 14 8 84 16 156 11 112 20 134 62 153 70 34 71 23 39 -435
-37 -528 -43 -1128 -12 -1108 17 10 19 -5 10 -53 -9 -46 -7 -59 6 -40 31 45
48 -46 33 -178 -8 -72 -5 -131 8 -154 16 -27 21 1 21 123 1 208 44 178 64 -45
8 -85 24 -244 36 -354 12 -110 26 -510 30 -890 4 -379 14 -706 21 -725 8 -19
9 -74 3 -123 -6 -48 -5 -93 1 -99 20 -21 79 115 61 140 -18 25 2 276 20 258
20 -19 22 -180 3 -203 -13 -16 -9 -27 11 -35 18 -7 31 -36 31 -67 1 -125 58
-210 61 -91 2 49 4 50 19 15 13 -31 18 -21 19 44 0 46 -8 89 -19 96 -12 7 -15
21 -9 31 6 11 3 19 -8 19 -10 0 -20 47 -20 105 -1 58 -7 164 -13 235 -6 72
-14 274 -18 450 -4 176 -13 343 -20 370 -13 48 -62 412 -83 613 -24 229 -41
339 -57 365 -41 64 -59 1103 -20 1116 33 11 15 203 -34 384 -114 413 -138 597
-145 1094 -2 181 -11 251 -33 279 -22 26 -22 32 -3 20 21 -12 24 -6 13 29 -9
29 -7 40 6 32 12 -7 16 4 9 30 -8 32 -15 35 -28 15 -14 -22 -23 -20 -45 8 -36
48 -59 -83 -31 -185 l18 -70 -9 80 c-5 44 0 94 10 110 15 23 19 14 20 -35 0
-36 10 -65 22 -65 14 0 17 -17 9 -45 -8 -25 -15 -56 -16 -69 -1 -13 -8 -20
-17 -15 -8 5 -19 -2 -25 -16 -6 -15 -10 -11 -11 10 -3 58 -36 39 -49 -27 -19
-94 -14 -136 10 -78 23 57 95 -59 96 -156 l1 -45 -57 42 c-83 61 -190 80 -279
49 -41 -14 -162 -52 -269 -83 -144 -42 -195 -66 -195 -90 0 -51 -142 -605
-159 -623 -9 -9 -20 1 -26 23 -6 24 1 45 17 51 15 6 28 22 28 36 -1 21 -4 21
-16 1 -13 -20 -25 -19 -55 4 -22 17 -28 30 -14 30 14 1 25 16 25 33 0 26 -6
28 -28 10 -21 -18 -30 -16 -40 9 -18 49 -14 185 6 198 10 6 14 29 8 51 -6 23
-1 40 12 40 14 0 18 19 10 50 -11 43 2 133 66 460 11 57 12 58 28 15 25 -68
38 -54 17 20 -20 67 33 382 61 365 7 -4 10 16 6 46 -19 149 100 341 143 231 5
-15 19 -27 31 -27 14 0 15 12 3 35 -13 25 -10 43 11 63 27 24 29 22 16 -18
-11 -34 -8 -41 11 -29 19 11 22 6 12 -18 -7 -18 -19 -48 -26 -66 -9 -23 -6
-29 10 -19 15 9 23 -1 23 -27 0 -23 -14 -48 -31 -54 -21 -8 -24 -19 -9 -37 23
-28 7 -90 -24 -90 -11 0 -24 18 -30 40 -11 43 -36 52 -55 21 -7 -10 7 -29 30
-42 57 -30 35 -48 -24 -20 -45 22 -45 22 -8 -8 22 -18 51 -27 65 -22 31 12 36
-80 6 -99 -11 -7 -20 -21 -20 -32 0 -11 10 -14 22 -7 15 10 15 1 -1 -29 -13
-24 -17 -54 -9 -67 7 -14 -15 7 -49 45 -58 66 -61 68 -62 23 -1 -33 8 -44 27
-36 19 7 36 -11 50 -51 28 -79 28 -97 -1 -91 -12 3 -27 -8 -32 -23 -6 -17 -1
-22 12 -14 26 16 30 -26 6 -64 -10 -15 -31 -20 -55 -11 -32 12 -34 10 -14 -15
13 -17 30 -69 38 -116 18 -111 38 -77 77 129 29 151 91 283 184 396 26 31 47
78 47 105 0 52 35 56 74 8 50 -61 28 -122 -89 -243 -130 -134 -164 -196 -162
-297 1 -40 6 -54 12 -31 29 114 244 331 261 263 16 -62 164 -125 164 -70 0 11
-9 15 -20 8 -11 -7 -20 -3 -20 9 0 11 12 21 27 21 53 0 59 157 11 284 -23 64
-50 116 -58 116 -23 0 -40 -109 -18 -117 27 -10 22 -44 -7 -38 -35 7 -59 76
-36 103 11 15 12 35 0 53 -14 22 -19 18 -20 -21 l-2 -50 -20 50 c-11 28 -20
84 -20 125 0 41 -9 75 -20 75 -12 0 -16 -13 -10 -30 17 -45 -13 -36 -44 12
-43 70 -51 34 -66 -296 -1 -28 -11 -39 -29 -32 -36 13 -37 149 -3 268 29 100
32 265 7 336 -11 33 -10 43 6 33 26 -16 27 22 2 79 -16 37 -17 36 -21 -10 l-3
-50 -16 50 c-14 43 -17 44 -20 10 -7 -58 2 -117 19 -140 9 -11 20 -47 26 -80
10 -54 9 -56 -16 -22 -15 21 -23 46 -17 56 6 10 3 29 -8 42 -27 33 -35 94 -19
154 7 28 -4 118 -25 200 -20 83 -38 131 -39 109 0 -23 -14 -59 -31 -80 -27
-36 -29 -35 -17 25 8 47 -1 84 -35 139 -54 88 -69 355 -22 385 15 9 40 40 55
69 16 29 42 78 59 108 16 30 30 78 31 105 0 28 13 73 29 100 l29 50 1 -50 c1
-75 39 -126 40 -54 0 56 0 56 48 20 43 -32 54 -82 13 -56 -29 18 -128 -171
-103 -196 16 -16 22 -15 22 5 0 15 6 22 13 15 7 -7 4 -25 -7 -39 -30 -39 -49
-99 -26 -85 11 7 20 -7 20 -30 0 -23 9 -37 20 -30 11 7 20 -2 20 -19 0 -17
-11 -31 -25 -31 -62 0 -14 -588 53 -655 31 -30 38 27 16 132 -33 160 -31 293
6 323 17 14 30 36 30 50 0 42 48 120 75 122 14 1 33 3 44 5 10 2 21 31 25 66
l6 62 23 -63 c13 -34 16 -58 7 -52 -45 28 4 -332 58 -425 17 -28 21 -18 21 50
1 58 10 85 28 85 22 0 23 -22 8 -112 -14 -79 -13 -150 4 -235 42 -224 65 -497
42 -520 -33 -33 -25 -61 9 -33 25 20 30 19 30 -9 0 -18 8 -28 18 -22 11 6 24
-4 29 -24 9 -29 10 -28 9 5 -2 94 10 118 25 50 10 -44 12 -15 5 80 -6 89 -26
178 -49 219 -25 47 -34 94 -27 141 7 48 5 58 -6 31 -32 -73 -48 7 -53 256 -4
249 -32 400 -78 427 -32 19 -78 146 -53 146 9 0 21 -16 26 -35 5 -19 5 6 0 55
-13 116 51 210 97 145 15 -21 42 -43 60 -50 22 -8 30 -27 24 -52 -6 -21 -1
-45 11 -52 13 -8 23 2 24 23 1 24 8 18 21 -19 28 -76 58 -70 36 7 -9 34 -16
68 -13 75 7 23 -86 159 -117 171 -17 6 -29 23 -28 37 8 61 -4 93 -39 104 -25
8 -35 25 -28 50 5 20 -1 57 -15 82 -20 39 -18 50 13 73 34 25 39 24 44 -11 4
-22 37 -64 75 -93z m-298 25 c-9 -35 -3 -38 52 -27 l62 12 -48 -51 c-37 -39
-59 -48 -98 -38 -28 8 -62 14 -76 15 -32 1 -33 107 -1 126 13 8 27 4 31 -8 12
-35 45 -29 45 7 0 18 10 25 22 18 12 -7 17 -32 11 -54z m130 -190 c10 -119 5
-159 -18 -150 -14 5 -25 1 -25 -8 0 -10 -21 -41 -48 -69 -26 -28 -53 -79 -61
-113 -12 -57 -46 -99 -108 -134 -27 -16 -23 36 10 154 14 51 -31 43 -54 -10
-15 -35 -17 -28 -8 35 7 44 28 98 48 120 19 22 41 57 48 77 9 24 27 34 51 28
20 -6 36 0 36 13 -2 79 8 92 66 92 43 0 61 -10 63 -35z m1802 -329 c7 -19 5
-40 -6 -47 -11 -6 -25 5 -33 25 -8 20 -26 48 -40 63 -15 14 -21 35 -14 46 14
22 72 -33 93 -87z m-146 -267 c-19 -51 -67 -62 -119 -29 -26 16 -24 30 15 104
25 47 45 92 45 100 0 7 11 39 23 70 31 74 66 -167 36 -245z m-326 180 c37 7
41 -3 44 -97 2 -57 9 -126 15 -153 6 -27 24 -251 39 -499 15 -247 32 -509 38
-581 18 -217 50 -1000 61 -1489 5 -253 19 -577 30 -720 12 -143 23 -291 25
-328 3 -38 18 -73 33 -78 16 -6 22 0 14 13 -9 15 -3 18 19 10 45 -17 -7 -50
-56 -35 -42 13 -48 -42 -9 -80 20 -21 31 -20 54 5 25 27 24 29 -6 17 -19 -7
-34 -5 -34 4 0 20 61 48 75 34 19 -20 -19 -132 -42 -121 -12 7 -7 -1 12 -17
19 -16 35 -35 35 -44 0 -8 -12 -5 -26 7 -21 17 -44 3 -100 -58 -66 -71 -120
-103 -110 -64 9 35 -32 159 -70 214 -28 38 -34 61 -19 66 158 53 170 98 132
511 -10 108 -11 201 -3 207 9 5 8 25 -1 43 -10 19 -14 95 -9 171 6 83 0 159
-15 196 -16 39 -18 66 -5 79 23 23 10 118 -16 118 -10 0 -18 10 -18 21 0 12 9
16 20 9 11 -7 20 -1 20 14 1 20 5 20 18 -2 13 -20 17 -14 15 23 -2 28 -9 48
-16 43 -18 -11 -36 70 -37 166 0 46 -9 89 -20 96 -12 7 -20 -19 -20 -68 0 -44
-10 -103 -23 -130 -17 -39 -17 -58 1 -79 17 -20 17 -31 2 -36 -15 -5 -12 -32
9 -82 34 -82 43 -144 13 -97 -14 21 -21 17 -32 -17 -8 -26 -4 -55 8 -67 12
-12 22 -15 22 -6 0 9 14 6 30 -8 17 -14 30 -40 30 -57 -1 -21 -6 -25 -15 -11
-10 15 -27 10 -53 -15 -22 -20 -30 -37 -19 -37 21 0 29 -31 26 -105 -10 -254
-7 -451 7 -481 20 -44 -20 -175 -64 -208 -29 -21 -29 -24 3 -37 38 -14 49 -89
14 -89 -38 0 -79 55 -79 105 0 26 -13 65 -29 86 -17 22 -30 59 -30 83 -1 24
-9 49 -20 55 -10 7 -25 52 -32 102 -8 49 -22 94 -31 100 -10 6 -18 33 -18 59
0 26 -8 53 -18 59 -10 6 -22 40 -28 76 -15 97 -52 240 -73 285 -29 62 -61 194
-61 255 0 30 -7 55 -16 55 -9 0 -26 61 -38 135 -11 74 -35 184 -51 244 -17 60
-31 188 -32 287 0 98 -7 184 -15 191 -8 7 -9 -3 -1 -23 8 -24 5 -31 -10 -22
-64 39 32 728 123 883 45 75 104 265 84 266 -8 0 1 11 18 25 18 13 39 54 47
89 8 36 22 65 33 65 10 0 18 17 18 37 0 20 5 42 12 48 17 18 70 -6 58 -26 -6
-9 8 -22 31 -29 27 -9 38 -25 30 -43 -6 -17 -11 -41 -11 -54 0 -13 -8 -11 -19
6 -13 20 -11 36 5 47 17 12 15 15 -6 9 -20 -6 -30 -34 -30 -82 0 -41 -9 -81
-20 -89 -11 -8 -21 -41 -22 -75 -1 -34 -26 -109 -55 -167 -29 -58 -53 -126
-53 -152 0 -26 -9 -50 -20 -53 -12 -5 -13 -46 -3 -110 14 -89 11 -108 -21
-136 -22 -19 -31 -42 -23 -56 9 -14 13 -128 9 -255 -4 -191 9 -285 25 -177 2
15 11 39 20 53 9 14 12 38 6 54 -6 15 -3 30 8 34 21 7 60 228 73 411 5 69 18
125 28 125 10 0 18 16 18 35 0 19 14 61 30 92 17 32 30 74 30 93 0 20 12 40
27 46 31 12 30 -35 -7 -282 -13 -92 -20 -171 -14 -177 6 -5 -2 -33 -16 -61
-15 -28 -22 -63 -16 -79 6 -15 2 -39 -9 -52 -52 -67 -89 -542 -62 -795 6 -60
4 -126 -6 -145 -11 -21 -11 -35 0 -35 47 0 61 68 64 303 2 145 19 335 40 449
21 109 38 231 38 272 1 53 12 81 40 95 50 27 50 30 -9 -477 -22 -182 -31 -729
-12 -702 12 17 22 62 22 100 1 39 9 106 20 150 10 44 24 152 31 240 6 88 15
199 18 246 8 99 24 126 53 83 16 -23 19 -21 10 11 -13 53 -33 167 -39 231 -3
28 -11 60 -18 71 -23 37 -60 373 -49 451 6 42 4 73 -3 69 -7 -4 -15 83 -18
195 -3 112 -10 253 -17 313 -23 229 -26 339 -9 349 9 6 13 31 7 56 -6 29 -3
36 8 20 10 -13 36 -21 59 -16z m-435 -57 c-27 -26 -200 -152 -208 -152 -28 0
25 69 87 111 58 39 154 72 121 41z m262 -53 c0 -11 -15 -44 -34 -73 -19 -28
-37 -71 -40 -94 -13 -90 -27 -105 -57 -64 -26 36 -29 36 -41 3 -8 -20 -3 -42
12 -51 29 -18 12 -112 -29 -160 -14 -16 -30 -52 -36 -80 -17 -81 -83 -248
-108 -270 -12 -11 -32 -38 -44 -60 -19 -35 -22 -32 -22 30 -1 89 78 484 101
509 10 10 18 34 18 52 0 18 18 49 40 69 22 20 40 46 40 59 0 12 19 35 43 52
23 16 61 44 85 63 49 40 72 45 72 15z m-1120 -124 c0 -41 -9 -75 -20 -75 -11
0 -20 47 -20 105 1 75 6 96 20 75 11 -16 20 -64 20 -105z m1787 30 c-22 -89
-58 -111 -155 -96 -65 9 -92 5 -111 -18 -32 -38 -104 -42 -90 -5 12 30 121 74
182 74 23 0 72 22 109 48 37 27 70 49 73 50 3 1 0 -23 -8 -53z m-612 -100 c5
-88 3 -92 -25 -56 -35 45 -38 71 -9 71 12 0 16 9 9 20 -10 16 2 60 16 60 2 0
6 -43 9 -95z m-413 -69 c-23 -47 -61 -108 -83 -136 l-41 -50 12 70 c20 115 54
183 98 199 60 23 62 13 14 -83z m-1731 57 c55 21 36 -122 -21 -165 -27 -21
-50 -53 -50 -73 0 -19 -11 -35 -25 -35 -19 -1 -18 -5 2 -18 20 -12 9 -23 -38
-39 -98 -35 -107 -20 -34 58 41 44 95 130 95 153 0 5 -19 3 -42 -5 -27 -8 -50
-3 -62 14 -14 19 -17 11 -10 -28 4 -30 2 -55 -5 -55 -8 0 -26 -22 -41 -50 -26
-49 -80 -39 -80 16 0 11 6 14 14 7 7 -8 26 11 40 42 15 30 22 39 17 20 -5 -19
-1 -35 10 -35 10 0 19 31 19 69 0 61 5 67 48 60 31 -6 52 2 60 22 6 17 21 26
32 19 11 -7 21 4 22 24 0 20 6 25 11 12 5 -13 23 -19 38 -13z m2606 -228 c1
-74 12 -202 24 -285 12 -82 22 -163 22 -180 1 -16 10 -93 22 -170 11 -77 21
-151 21 -165 0 -14 6 -25 12 -25 7 0 13 -38 13 -85 1 -47 25 -238 55 -425 58
-373 71 -495 76 -690 5 -236 -2 -351 -20 -323 -13 20 -19 18 -27 -10 -6 -20
-17 -55 -26 -77 -12 -32 -7 -30 26 10 l42 50 -7 -60 c-4 -33 -13 -121 -19
-195 -13 -148 -42 -243 -67 -227 -9 5 -17 -19 -17 -54 -1 -111 -16 -210 -32
-201 -8 5 -15 -14 -15 -42 0 -28 -9 -51 -19 -51 -11 0 -15 -12 -9 -27 5 -15
-4 -38 -21 -52 -26 -22 -31 -20 -32 12 -3 65 -20 196 -29 221 -4 14 6 33 24
43 40 23 16 66 -28 49 -22 -9 -28 -5 -18 11 8 12 39 24 68 26 47 2 48 4 9 11
-25 5 -45 17 -45 27 0 10 14 13 30 6 19 -7 30 1 30 22 0 25 -11 30 -40 21 -36
-11 -38 -8 -20 40 27 72 27 132 0 90 -12 -18 -20 -20 -20 -6 0 13 9 29 20 36
11 7 15 34 8 60 -7 29 1 66 20 93 41 58 42 97 2 46 -28 -35 -30 -14 -21 221 6
143 10 267 11 276 0 9 11 11 25 4 14 -7 11 -1 -7 14 -36 29 -58 223 -59 526
-2 177 -31 504 -52 578 -7 24 -3 32 11 23 12 -7 22 -4 22 8 0 11 -10 21 -22
21 -15 0 -19 67 -14 209 5 115 2 205 -7 199 -15 -9 -33 414 -20 477 9 43 43
47 43 5 0 -16 10 -30 21 -30 12 0 16 9 9 20 -7 11 -7 29 0 40 29 48 44 11 47
-115z m98 -435 l-1 -120 -23 160 c-13 88 -19 169 -13 180 17 32 37 -88 37
-220z m39 -220 c-5 -91 -34 -91 -34 0 0 39 8 70 19 70 10 0 17 -31 15 -70z
m-2690 -101 c-12 -76 -68 -176 -84 -149 -19 31 -3 100 34 143 23 27 24 35 2
45 -14 6 -8 9 14 6 27 -4 38 -18 34 -45z m126 -42 c-17 -40 -35 -101 -41 -135
-6 -33 -21 -67 -33 -74 -15 -9 -12 -27 8 -56 16 -23 36 -36 43 -29 7 8 13 -23
13 -68 0 -46 -10 -89 -23 -97 -16 -10 -19 2 -9 41 8 31 6 50 -5 43 -10 -6 -30
30 -44 80 -21 75 -21 95 1 108 14 9 21 29 15 44 -6 15 1 50 15 76 14 26 21 61
15 76 -6 15 2 36 17 46 52 32 59 18 28 -55z m2586 -39 c2 -43 -5 -65 -18 -57
-11 7 -16 23 -12 36 5 13 1 43 -8 67 -12 33 -9 41 10 34 14 -5 27 -41 28 -80z
m-1131 -378 c-1 -154 -6 -307 -12 -340 -6 -33 -11 -67 -12 -75 -2 -31 -41 -13
-41 19 0 28 -4 29 -25 8 -20 -22 -20 -29 0 -36 14 -5 20 -18 14 -28 -7 -11 -1
-17 12 -13 34 7 41 -71 24 -245 l-16 -150 -35 170 c-20 94 -39 193 -44 220 -4
28 -17 99 -29 158 -21 106 -14 165 10 90 53 -163 82 -160 71 7 -13 196 -8 540
8 580 39 101 77 -83 75 -365z m-2331 125 c-4 -36 -8 -11 -8 55 0 66 4 95 8 65
5 -30 5 -84 0 -120z m3506 34 c17 -88 18 -139 5 -152 -13 -13 -24 13 -31 77
-20 160 -23 175 -44 191 -11 8 -6 15 13 15 24 0 39 -33 57 -131z m171 -114 c8
-25 31 -62 53 -82 37 -35 37 -38 2 -63 -42 -31 -65 -8 -66 66 0 26 -9 64 -21
85 -13 24 -13 39 -1 39 11 0 26 -20 33 -45z m122 -373 c10 -124 18 -144 53
-131 15 6 25 -13 26 -56 1 -36 -2 -54 -7 -40 -12 34 -45 32 -45 -4 0 -39 -34
-57 -52 -28 -9 14 -6 18 9 9 16 -10 23 8 23 57 0 47 -9 71 -27 71 -19 0 -26
19 -21 59 4 33 -5 71 -20 86 -42 42 -51 152 -13 160 40 8 62 -47 74 -183z
m-190 -12 c31 -86 7 -166 -37 -123 -7 7 -2 13 11 13 28 0 31 73 3 90 -11 7
-20 30 -20 52 0 22 -9 35 -20 28 -11 -7 -20 -3 -20 9 0 56 54 11 83 -69z
m-1936 19 c-16 -41 27 -36 51 6 12 19 21 25 21 12 1 -12 -12 -33 -28 -46 -16
-13 -25 -35 -20 -47 6 -14 -9 -24 -36 -24 -31 0 -46 12 -46 35 0 19 8 35 17
35 10 0 13 13 8 28 -13 32 4 56 28 41 9 -6 11 -23 5 -40z m197 -50 c47 -96 45
-115 -14 -104 -67 13 -84 44 -26 47 36 2 38 5 10 12 -22 6 -32 21 -26 38 6 15
2 28 -9 28 -10 0 -19 14 -19 32 0 51 47 21 84 -53z m-693 -86 c-32 -23 -24
-26 65 -25 83 2 100 -4 98 -32 -1 -18 -8 -30 -15 -25 -7 4 -29 -4 -47 -17 -33
-24 -32 -26 2 -28 175 -13 145 -48 -35 -42 -154 5 -169 10 -169 46 0 27 12 39
37 37 33 -3 32 1 -7 43 l-44 47 57 8 c31 5 65 10 76 12 10 2 2 -9 -18 -24z
m517 -5 c18 -7 28 -18 23 -26 -4 -8 20 -16 55 -18 122 -9 197 -64 89 -64 -26
0 -36 -7 -23 -15 66 -45 21 -85 -80 -74 -75 9 -94 6 -72 -9 39 -28 -35 -29
-148 -3 -107 25 -154 131 -88 197 25 25 189 33 244 12z m2046 -278 c24 -77 50
-171 57 -210 8 -38 26 -95 42 -125 15 -30 24 -55 19 -55 -11 0 187 -649 266
-870 197 -550 219 -641 161 -656 -26 -7 -37 -21 -29 -34 10 -16 2 -16 -24 1
-22 14 -56 79 -77 150 -21 69 -46 121 -57 114 -10 -6 -12 -1 -4 12 14 22 -27
166 -70 248 -10 19 -18 48 -18 65 0 16 -8 30 -18 30 -9 0 -18 35 -18 79 -1 43
-14 103 -30 135 -16 31 -35 90 -42 131 -8 41 -23 75 -34 75 -11 0 -14 10 -7
21 19 31 -8 119 -36 119 -32 0 -31 -152 2 -185 12 -12 23 -52 23 -88 0 -35 9
-70 20 -77 12 -7 16 -21 10 -31 -6 -9 -2 -33 8 -53 30 -53 82 -254 82 -315 0
-29 14 -74 32 -101 17 -26 25 -58 18 -70 -7 -12 7 -55 31 -96 24 -41 45 -108
46 -149 1 -41 9 -75 18 -75 8 0 15 -13 15 -29 0 -15 20 -35 43 -42 44 -14 44
-14 3 -36 -55 -31 -36 -76 26 -61 53 14 61 -10 27 -73 -11 -22 -13 -39 -3 -39
9 0 31 29 49 65 l32 65 2 -54 c1 -34 -17 -67 -49 -92 -27 -22 -50 -46 -50 -53
0 -8 -52 -60 -115 -117 -63 -57 -175 -164 -247 -239 -122 -123 -182 -170 -146
-112 9 14 5 18 -9 9 -33 -21 -28 -66 8 -80 29 -11 29 -15 1 -43 -18 -18 -37
-54 -44 -80 -7 -27 -19 -49 -28 -49 -43 0 -33 -78 12 -89 26 -6 46 -18 44 -26
-9 -35 28 -102 52 -93 14 5 50 -26 81 -71 31 -45 63 -81 71 -81 91 0 -27 -186
-135 -213 -25 -6 -45 -21 -45 -33 0 -16 -7 -15 -22 0 -17 17 -47 15 -115 -7
-51 -16 -106 -31 -123 -34 -16 -2 -48 -14 -70 -26 -59 -32 -170 -31 -157 2 5
15 0 33 -12 40 -13 8 -21 -6 -21 -36 0 -45 -41 -77 -103 -82 -8 -1 -20 -7 -27
-15 -26 -26 -73 6 -50 34 27 32 44 115 21 101 -34 -21 -76 227 -89 530 -3 72
-15 148 -26 170 -10 21 -17 129 -15 239 4 206 -3 254 -33 207 -11 -17 -17 1
-16 53 1 44 -7 123 -18 175 -10 52 -13 95 -6 95 28 0 21 116 -7 140 -23 18
-25 34 -10 62 14 27 14 38 -1 38 -13 0 -17 9 -10 20 7 11 5 20 -4 20 -9 0 -15
54 -15 119 1 65 -4 115 -12 110 -8 -4 -19 39 -25 96 -7 58 -25 164 -42 235
-35 149 -42 340 -12 340 11 0 21 34 22 75 1 64 5 56 29 -53 15 -71 38 -135 51
-143 13 -8 18 -29 12 -46 -7 -18 -4 -37 7 -44 10 -6 20 -49 22 -95 l2 -84 15
70 15 70 2 -75 c2 -41 10 -75 18 -75 8 0 16 -23 18 -50 1 -28 -5 -50 -15 -50
-9 0 -8 -24 3 -53 11 -30 16 -66 10 -80 -5 -15 3 -27 20 -27 16 0 29 -18 29
-40 0 -38 19 -49 75 -41 14 1 25 -4 25 -13 0 -20 112 -21 132 -1 26 27 48 16
48 -24 0 -21 10 -45 23 -53 14 -9 18 -5 9 9 -9 14 0 23 22 23 20 0 27 7 16 15
-39 29 -30 81 27 142 56 59 68 157 33 258 -7 20 0 21 33 3 38 -20 42 -18 32
18 -7 30 1 44 32 52 49 12 122 -46 78 -62 -35 -13 -31 -119 5 -133 22 -9 30
-42 30 -122 0 -98 37 -166 42 -76 4 88 -7 237 -19 255 -18 26 -16 74 4 106 9
14 7 37 -5 51 -25 31 -24 536 2 520 10 -6 18 37 17 96 -1 59 0 125 1 147 1 22
0 67 -3 100 -5 71 15 271 29 284 22 23 46 -17 37 -64 -6 -31 -1 -50 15 -50 17
0 21 -21 11 -70 -9 -51 -5 -73 15 -81 16 -6 29 -43 31 -85 5 -114 32 -190 69
-195 39 -6 43 17 13 73 -21 40 -76 315 -85 424 -2 30 -16 63 -31 72 -17 11
-22 33 -14 58 8 25 -2 73 -24 118 -41 85 -40 204 2 161 13 -14 43 -88 67 -165z
m-3389 -42 c12 -47 30 -81 39 -76 9 6 16 -4 16 -21 0 -17 17 -48 38 -69 26
-26 36 -57 30 -95 -13 -80 -9 -194 8 -206 24 -18 21 -81 -4 -81 -18 0 -72 132
-82 200 -1 6 -13 43 -27 83 -13 40 -22 80 -20 90 3 9 -13 58 -36 108 -22 50
-47 126 -54 170 l-14 79 42 -48 c22 -27 51 -87 64 -134z m3515 52 c-13 -24
-18 -49 -12 -55 7 -6 12 -1 12 13 0 13 9 19 21 11 14 -9 14 -21 -1 -40 -17
-19 -17 -38 -1 -68 28 -52 49 -53 36 -2 -7 27 -1 37 22 36 47 -4 40 -113 -9
-150 -37 -29 -36 -30 7 -19 25 5 45 2 45 -8 0 -10 18 -18 40 -18 22 0 40 -10
40 -22 0 -13 -18 -18 -39 -12 -23 5 -51 -4 -65 -22 -18 -22 -19 -27 -2 -17 26
15 111 -127 103 -173 -9 -56 28 -178 47 -151 13 18 14 11 5 -23 -22 -82 -21
-88 26 -109 43 -19 54 -47 46 -108 -2 -15 9 -42 25 -60 31 -36 77 -202 63
-225 -5 -8 9 -21 31 -28 44 -14 53 -42 16 -55 -15 -5 -10 -13 11 -21 21 -8 30
-6 23 6 -7 11 -3 20 9 20 11 0 21 -10 21 -21 0 -12 8 -17 17 -11 10 6 25 -36
34 -93 8 -58 17 -112 20 -120 2 -8 5 -25 7 -37 1 -12 16 -17 32 -11 47 18 35
-14 -27 -74 -65 -63 -110 -55 -139 23 -11 30 -56 153 -100 274 -105 283 -199
575 -216 662 -7 38 -21 73 -30 79 -10 6 -18 33 -18 59 0 26 -8 53 -19 59 -10
7 -25 54 -32 106 -8 52 -21 104 -30 115 -9 11 -21 56 -26 100 -6 44 -20 109
-30 145 -19 62 -15 74 24 67 10 -2 12 12 4 32 -10 27 -8 30 10 13 17 -17 17
-33 -1 -67z m-2428 34 c16 6 28 0 28 -12 0 -12 -13 -22 -29 -22 -16 0 -43 -20
-60 -44 -24 -35 -36 -39 -55 -20 -19 19 -19 24 0 24 13 0 24 17 24 37 0 47 22
69 46 45 10 -10 31 -14 46 -8z m403 -79 c-7 -36 -122 -152 -140 -142 -32 19
-15 87 22 87 55 0 67 23 28 52 -31 24 -28 27 30 27 41 1 63 -8 60 -24z m-225
-55 c-7 -11 2 -26 20 -33 27 -10 28 -16 7 -30 -22 -14 -22 -20 1 -35 24 -16
24 -23 -3 -50 -47 -47 -52 -40 -40 48 7 55 3 80 -14 80 -13 0 -18 9 -11 20 7
11 21 20 32 20 11 0 15 -9 8 -20z m857 -80 c17 -35 21 -60 9 -60 -12 0 -16
-32 -8 -85 7 -47 18 -137 25 -202 7 -72 23 -120 40 -127 20 -8 28 -45 26 -133
-2 -128 2 -160 53 -473 17 -104 35 -211 39 -236 4 -26 0 -66 -9 -90 -11 -29
-8 -50 11 -64 15 -11 31 -69 36 -130 11 -130 17 -162 36 -192 8 -12 19 -125
25 -250 6 -125 20 -277 30 -338 11 -60 25 -186 31 -280 18 -282 26 -367 48
-502 23 -137 49 -421 50 -543 1 -75 -32 -107 -42 -41 -11 79 -30 171 -42 201
-8 21 -4 27 12 17 17 -11 17 -1 1 42 -13 31 -26 95 -31 144 -4 48 -14 97 -21
109 -8 12 -15 49 -18 82 -2 34 -14 93 -26 131 -22 64 -51 192 -74 320 -4 28
-14 73 -21 100 -7 28 -12 86 -11 130 5 144 -76 544 -122 604 -16 22 -30 71
-65 216 -5 22 -14 207 -20 410 -5 204 -14 484 -18 623 -4 139 -1 284 8 323 9
39 9 78 0 87 -9 10 -22 73 -28 142 -15 143 22 174 76 65z m-1711 -425 c14 -17
12 -32 -6 -49 -30 -28 -50 -14 -50 37 0 43 26 48 56 12z m3591 -236 c21 -31
32 -35 41 -15 12 27 -7 -56 -22 -96 -5 -13 6 -37 23 -54 33 -33 42 -94 14 -94
-23 0 -68 156 -52 182 7 12 -6 34 -29 51 -43 30 -56 67 -23 67 10 0 32 -19 48
-41z m-3290 -141 c-18 -11 -31 -5 -39 18 -16 45 26 71 49 31 12 -21 8 -37 -10
-49z m77 -111 c-7 -7 6 -39 29 -71 25 -36 38 -77 32 -107 -7 -35 0 -49 23 -51
20 -1 23 -5 7 -11 -14 -6 -25 -24 -25 -41 0 -17 12 -26 27 -20 21 8 25 -11 17
-88 -6 -65 -1 -98 13 -98 13 0 23 -22 23 -50 0 -51 30 -69 45 -26 5 15 12 11
21 -10 8 -21 3 -32 -12 -29 -13 3 -23 -6 -22 -20 1 -14 3 -55 5 -91 2 -45 25
-90 71 -140 37 -41 64 -74 60 -74 -4 0 2 -23 12 -50 18 -48 16 -50 -35 -37
-56 13 -89 44 -74 69 5 7 -5 25 -21 38 -17 14 -30 37 -30 52 0 16 -18 46 -40
68 -22 22 -30 40 -18 40 16 0 17 8 3 25 -47 57 -64 174 -28 194 29 18 29 20
-7 21 -42 1 -110 44 -110 69 0 9 13 10 29 4 17 -6 35 -3 42 8 6 10 1 19 -12
19 -13 0 -18 13 -12 29 6 17 3 35 -7 41 -10 6 -13 25 -6 43 6 17 4 37 -6 44
-45 32 -102 258 -80 315 10 25 19 23 55 -11 24 -22 38 -46 31 -54z m3422 -164
c20 -13 20 -28 -2 -80 -15 -35 -32 -58 -39 -51 -7 7 -2 29 10 49 13 21 17 44
8 53 -8 8 -24 2 -34 -15 -14 -23 -18 -20 -19 16 0 46 30 57 76 28z m83 -132
c14 -16 19 -49 11 -75 -10 -36 -8 -39 8 -16 19 27 21 27 21 0 0 -27 -81 -120
-105 -120 -5 0 -13 41 -17 90 -5 62 0 88 16 82 14 -6 19 6 12 29 -11 46 20 51
54 10z m-2274 -349 c3 -56 11 -102 17 -102 7 0 18 -34 24 -75 18 -112 33 -188
53 -255 16 -52 35 -142 70 -325 10 -52 67 -277 84 -333 7 -23 3 -32 -9 -24
-12 7 -8 -13 8 -45 16 -32 31 -93 33 -136 3 -42 15 -88 28 -101 12 -13 28 -66
36 -117 8 -51 18 -112 23 -136 41 -207 29 -271 -39 -203 -17 16 -39 30 -50 30
-12 0 -26 8 -32 18 -6 10 9 13 34 8 44 -11 44 -11 5 21 -23 18 -29 32 -15 32
45 2 26 61 -20 63 -43 2 -43 3 5 18 l50 16 -50 4 -50 4 49 14 c26 7 52 26 56
43 7 25 5 25 -13 -1 -15 -20 -21 -22 -22 -5 0 14 -18 25 -39 25 -22 0 -50 20
-64 45 -21 41 -21 43 10 17 30 -24 32 -23 21 5 -9 25 -4 30 20 21 18 -7 32 -2
32 12 0 13 -16 28 -36 33 -48 13 -94 129 -59 151 20 12 20 15 0 16 -14 0 -25
10 -25 22 0 12 13 17 28 12 27 -11 62 62 41 83 -5 6 -9 0 -9 -12 0 -14 -20
-16 -54 -7 -49 13 -54 24 -55 108 -1 82 3 92 36 82 33 -11 34 -7 11 35 -13 26
-23 52 -21 57 2 6 -21 14 -51 18 l-56 9 59 11 60 12 -60 58 c-32 31 -49 51
-36 45 13 -7 28 1 35 19 20 51 14 68 -23 68 -27 1 -29 4 -8 18 23 14 23 19 0
28 -19 8 -16 11 8 12 50 3 43 40 -10 61 -41 17 -42 19 -5 20 31 1 34 6 12 19
-16 10 -21 28 -12 43 10 15 2 36 -21 52 -20 15 -27 27 -15 27 11 0 21 23 21
50 0 28 -7 50 -15 50 -8 0 -12 24 -9 54 4 30 1 62 -5 72 -6 9 -14 82 -18 161
-6 102 -3 134 12 110 11 -19 22 -79 25 -135z m1607 -1027 c-7 -14 -18 -41 -24
-60 -11 -30 -68 -52 -68 -26 0 40 45 111 71 111 19 0 27 -11 21 -25z m-60
-270 c-4 -63 -13 -129 -21 -147 -9 -24 4 -39 50 -58 55 -23 99 -86 99 -141 0
-35 -34 -19 -56 26 -17 35 -22 37 -23 10 -2 -51 -101 -2 -101 51 0 21 -31 67
-70 103 -90 83 -88 112 15 199 112 93 116 92 107 -43z m-1195 -594 c64 -14 66
-18 55 -88 -7 -44 -5 -58 5 -35 15 37 99 -292 86 -337 -3 -10 6 -40 19 -65 19
-36 20 -52 2 -70 -19 -19 -24 -18 -24 0 0 13 -22 24 -50 24 -60 0 -70 -66 -15
-99 30 -17 27 -19 -19 -16 -47 3 -52 10 -42 60 7 35 0 69 -18 91 -37 43 -63
111 -36 94 11 -7 20 -3 20 9 0 11 -10 21 -22 21 -12 0 -17 14 -10 31 6 18 3
26 -8 19 -11 -7 -20 2 -20 19 0 17 9 31 21 31 14 0 13 14 -2 41 -12 23 -17 52
-12 65 6 15 10 12 11 -7 2 -38 82 -41 82 -3 0 15 -11 24 -25 19 -13 -4 -39 6
-58 23 -42 40 -28 141 20 143 23 1 19 7 -12 20 -25 10 -45 29 -45 43 1 18 5
19 15 4 8 -13 45 -30 82 -37z m-1797 -548 c0 -48 -281 -168 -315 -134 -7 7 7
18 31 24 24 6 91 37 149 68 115 61 135 68 135 42z m211 -20 c1 -7 9 -80 19
-163 10 -82 15 -159 11 -170 -3 -11 -6 -31 -7 -45 -1 -29 -34 -34 -34 -5 0 11
-16 21 -35 21 -30 2 -29 4 5 19 26 11 -38 18 -180 20 -121 1 -247 4 -279 8
-67 6 -96 52 -33 52 23 0 40 10 37 22 -3 12 27 25 65 29 l70 6 -55 -25 c-31
-13 -50 -31 -42 -38 25 -26 142 -14 167 16 14 17 35 30 47 31 36 1 158 113
138 126 -11 7 -50 -4 -88 -24 l-69 -35 21 46 c13 28 39 46 67 46 25 0 70 22
99 49 48 45 73 50 76 14z m-711 -342 c0 -28 11 -37 40 -31 37 7 37 5 8 -40
l-30 -47 -67 44 c-52 34 -62 50 -48 78 26 49 97 46 97 -4z m1335 -15 c-19 -5
-35 -16 -35 -25 0 -9 -22 -15 -50 -14 -100 6 -38 48 70 48 31 0 37 -3 15 -9z
m-1499 -70 c29 -29 32 -63 4 -46 -11 7 -34 4 -51 -5 -25 -15 -22 -22 20 -45
28 -15 51 -35 51 -45 0 -9 -8 -12 -18 -6 -10 6 -23 -3 -29 -19 -13 -34 -73
-41 -73 -10 0 12 -23 16 -55 8 -53 -12 -53 -11 -15 18 22 17 46 26 55 21 8 -5
15 10 15 33 0 27 -8 37 -23 28 -16 -10 -18 -5 -6 14 49 80 84 95 125 54z"/>
<path d="M2274 7863 c-19 -42 -34 -92 -34 -111 0 -19 -7 -30 -15 -25 -8 5 -15
-12 -15 -39 0 -26 7 -48 15 -48 8 0 15 -19 15 -43 0 -75 18 -29 29 74 6 54 20
135 30 178 25 104 16 108 -25 14z"/>
<path d="M2801 7676 c-1 -40 8 -79 18 -85 11 -7 14 -28 8 -47 -9 -29 -8 -29
11 -4 16 23 22 4 23 -80 8 -428 30 -749 54 -788 23 -38 46 78 33 164 -9 58 -5
93 10 103 36 22 54 221 21 221 -21 0 -22 5 -3 24 31 31 31 57 0 51 -15 -3 -30
30 -39 85 -17 113 -42 203 -94 330 l-41 100 -1 -74z"/>
<path d="M2901 7617 c-1 -7 34 -83 77 -170 l78 -157 -5 -310 c-3 -170 2 -332
11 -360 13 -37 15 -28 8 35 -5 50 0 85 11 85 13 0 15 38 7 103 -10 72 -7 99 8
90 21 -14 15 156 -10 267 -6 28 -13 75 -16 105 -7 71 -50 175 -72 175 -9 0
-35 34 -57 75 -21 41 -40 69 -40 62z"/>
<path d="M2155 7552 c-44 -44 -44 -64 -2 -80 43 -17 51 -6 44 60 -7 53 -9 54
-42 20z"/>
<path d="M2121 7436 c-1 -47 42 -151 52 -124 4 11 -5 52 -22 90 -16 37 -30 53
-30 34z"/>
<path d="M2480 7205 c1 -79 6 -106 19 -86 17 26 20 26 28 0 34 -104 34 -61 1
131 -19 109 -48 82 -48 -45z"/>
<path d="M3177 7249 c-7 -44 -6 -116 1 -160 l14 -79 11 70 c7 39 6 111 -1 160
l-14 90 -11 -81z"/>
<path d="M2583 7057 c1 -211 47 -454 89 -471 15 -5 28 -28 28 -49 0 -21 14
-44 31 -50 18 -7 26 -26 19 -47 -7 -22 1 -40 21 -48 33 -12 32 -8 -5 113 -7
25 -11 62 -8 82 3 23 -3 32 -16 24 -15 -9 -22 16 -23 73 -2 158 -17 242 -71
395 -29 83 -56 154 -60 158 -3 4 -6 -77 -5 -180z"/>
<path d="M2443 7070 c1 -22 9 -67 17 -100 l15 -60 2 70 c1 39 -6 84 -17 100
-16 25 -19 23 -17 -10z"/>
<path d="M1901 7014 c-24 -63 -197 -243 -271 -281 -35 -19 -47 -32 -27 -32 17
-1 43 -14 56 -30 24 -29 101 -4 101 32 0 8 36 68 79 133 74 112 121 224 93
224 -7 0 -21 -21 -31 -46z"/>
<path d="M1980 6939 c0 -46 -205 -300 -261 -322 -38 -15 -121 -148 -104 -165
30 -30 305 232 345 328 14 33 33 60 44 60 10 0 13 8 7 19 -6 10 -3 24 9 31 31
19 24 70 -10 70 -16 0 -30 -9 -30 -21z"/>
<path d="M2447 6864 c-16 -10 -18 -46 -6 -122 17 -106 37 -155 41 -100 1 15 5
63 9 106 8 89 -10 137 -44 116z"/>
<path d="M2515 6668 c-5 -45 2 -99 17 -128 19 -36 27 -40 27 -16 1 18 -8 39
-19 46 -11 7 -19 23 -18 36 1 17 4 17 11 -1 20 -48 48 -24 35 30 -25 103 -43
114 -53 33z"/>
<path d="M3000 6710 c-3 -11 -6 -51 -9 -90 -2 -38 -10 -106 -18 -150 -14 -76
10 -154 37 -126 7 6 20 56 29 109 10 57 18 76 20 47 2 -28 9 -38 15 -23 6 15
1 46 -11 70 -12 24 -30 75 -40 113 -11 39 -21 61 -23 50z"/>
<path d="M2672 6465 c8 -30 26 -77 41 -105 l27 -50 -13 60 c-17 81 -44 150
-57 150 -6 0 -5 -25 2 -55z"/>
<path d="M1394 6392 c-53 -12 -90 -29 -82 -37 24 -24 93 -15 178 25 91 42 51
47 -96 12z"/>
<path d="M3034 6258 c-43 -99 -38 -177 5 -98 24 44 52 180 36 180 -3 0 -22
-37 -41 -82z"/>
<path d="M2124 6165 c8 -43 79 -47 91 -5 6 24 4 25 -11 3 -15 -21 -21 -20 -31
5 -16 43 -58 41 -49 -3z"/>
<path d="M1530 5828 c4 -95 13 -177 19 -183 6 -7 11 3 11 22 0 18 9 33 20 33
21 0 14 81 -10 120 -7 11 -13 56 -14 100 0 44 -8 80 -17 80 -9 0 -13 -77 -9
-172z"/>
<path d="M1960 5752 c0 -24 67 -132 81 -132 35 0 19 45 -31 92 -27 25 -50 43
-50 40z"/>
<path d="M2035 5726 c24 -20 47 -61 49 -91 3 -30 13 -55 23 -55 9 0 12 14 5
32 -7 17 -12 47 -12 66 0 20 -25 46 -55 59 l-55 24 45 -35z"/>
<path d="M3040 5481 c0 -10 27 -32 60 -48 53 -26 60 -26 60 0 0 16 -9 24 -20
17 -11 -7 -20 -2 -20 10 0 12 -9 17 -20 10 -11 -7 -20 -3 -20 9 0 11 -9 21
-20 21 -11 0 -20 -8 -20 -19z"/>
<path d="M3079 5380 c-23 -15 -24 -23 -4 -43 20 -20 25 -17 26 14 1 35 4 34
20 -6 21 -53 59 -60 59 -10 -1 30 -3 31 -20 5 -17 -26 -19 -25 -20 4 0 44 -25
58 -61 36z"/>
<path d="M2260 4961 c0 -12 10 -21 21 -21 12 0 16 -9 9 -21 -33 -52 -54 -681
-25 -711 23 -22 95 34 95 74 0 22 9 35 20 28 11 -7 20 2 20 19 0 17 -9 31 -20
31 -11 0 -20 13 -20 28 0 16 -10 32 -22 36 -16 5 -16 30 -1 87 11 43 25 153
31 244 l10 165 -59 31 c-34 17 -59 21 -59 10z"/>
<path d="M2802 4485 c0 -19 -1 -82 -2 -140 -1 -58 3 -114 10 -125 7 -11 2 -20
-10 -20 -13 0 -20 -34 -17 -86 2 -48 -2 -96 -9 -107 -12 -20 55 -24 75 -5 35
35 27 518 -9 518 -22 0 -38 -14 -38 -35z"/>
<path d="M1813 4107 c9 -37 6 -49 -10 -39 -33 21 -28 -20 7 -55 17 -17 29 -51
29 -77 -2 -43 -3 -44 -18 -6 -12 27 -15 8 -10 -57 4 -55 22 -114 41 -135 22
-24 25 -38 10 -38 -14 0 -18 -10 -9 -24 8 -13 12 -63 9 -111 -3 -48 4 -98 15
-111 21 -26 38 -176 53 -464 12 -220 26 -310 50 -310 10 0 24 -32 31 -70 8
-39 21 -75 30 -81 20 -12 -1 217 -21 231 -23 16 -15 87 12 114 19 20 34 17 71
-16 34 -30 38 -38 12 -30 -22 7 -35 0 -35 -17 0 -15 10 -31 21 -35 12 -4 15
-23 7 -45 -15 -37 -15 -37 -32 0 -11 25 -12 14 -4 -31 8 -38 13 -90 13 -115 0
-25 5 -41 13 -36 7 4 11 -32 8 -81 -4 -68 2 -88 25 -88 31 0 33 -59 4 -81 -8
-6 -9 -68 -2 -137 7 -70 20 -114 28 -100 8 13 32 26 52 28 20 3 54 12 75 20
23 10 93 0 184 -27 140 -41 428 -61 428 -29 0 7 -37 48 -82 90 -79 74 -128 86
-105 25 7 -18 -1 -29 -21 -29 -18 0 -32 8 -32 18 0 10 -18 14 -40 8 -22 -6
-35 -19 -29 -28 24 -38 -58 -42 -128 -8 -40 20 -98 34 -129 32 -30 -3 -53 2
-51 11 2 10 -4 33 -12 53 -9 20 -11 41 -4 47 6 7 2 30 -10 52 -11 22 -24 81
-28 132 -3 51 -12 118 -18 148 -7 32 -3 55 9 55 11 0 19 20 18 45 -2 35 -5 37
-12 9 -7 -29 -15 -31 -38 -13 -29 25 -40 109 -11 91 9 -6 16 2 16 18 0 16 -13
33 -28 39 -17 7 -24 25 -17 42 6 18 -2 59 -19 92 -25 47 -26 66 -8 88 17 21
17 29 1 29 -12 0 -22 18 -22 40 0 22 -9 40 -20 40 -11 0 -20 -18 -20 -40 0
-42 -16 -48 -68 -28 -32 12 -46 50 -17 46 52 -9 75 3 45 22 -32 20 -8 30 55
21 32 -4 33 72 2 91 -16 10 -20 4 -11 -19 7 -19 3 -34 -12 -36 -13 -1 -44 -4
-69 -7 -33 -3 -45 6 -45 35 0 33 5 36 30 15 17 -14 37 -20 44 -13 7 7 -11 33
-41 59 -29 25 -53 61 -53 80 0 54 29 40 54 -26 12 -33 37 -60 54 -60 45 0 40
33 -6 45 -38 10 -48 41 -72 220 -8 59 -21 91 -33 83 -14 -8 -16 2 -7 30 12 39
6 97 -42 397 -6 39 -21 65 -39 65 -22 0 -26 -14 -16 -53z m127 -587 c0 -58
-34 -66 -45 -10 -5 27 -5 54 1 59 18 18 44 -11 44 -49z m116 -538 c1 -67 -47
-99 -62 -41 -6 22 -3 39 5 39 9 0 11 25 5 55 -9 47 -6 51 20 30 16 -14 31 -51
32 -83z"/>
<path d="M2754 3901 c-16 -62 -5 -528 13 -557 9 -14 11 -40 4 -57 -6 -18 -1
-44 11 -60 27 -32 98 -36 98 -5 0 12 -12 18 -26 12 -31 -11 -33 5 -39 241 -3
102 -9 185 -15 185 -5 0 -9 59 -8 131 2 128 -18 186 -38 110z"/>
<path d="M1650 3180 c14 -132 35 -221 55 -233 13 -8 15 12 6 55 -7 37 -13 93
-13 123 0 30 -8 55 -17 55 -10 0 -23 16 -28 35 -6 19 -7 4 -3 -35z"/>
<path d="M2792 3085 c4 -52 12 -153 17 -225 6 -71 20 -133 31 -137 11 -3 20
-15 20 -26 0 -11 -11 -13 -25 -4 -20 11 -20 8 -1 -15 13 -16 28 -70 33 -119 4
-49 15 -105 23 -124 8 -19 15 -60 17 -90 1 -30 9 -60 17 -66 7 -5 19 -37 25
-70 6 -32 19 -86 29 -119 l19 -60 1 61 c1 34 11 70 23 82 14 14 14 37 0 75
-14 35 -14 83 -2 138 12 54 12 86 0 91 -11 3 -15 13 -10 21 17 29 -33 292 -59
307 -15 8 -31 77 -39 165 -11 111 -22 150 -43 150 -16 0 -34 14 -41 30 -23 62
-43 27 -35 -65z"/>
<path d="M1825 2736 c-72 -19 -86 -80 -43 -190 24 -63 31 -93 50 -236 7 -55
22 -111 33 -125 13 -17 10 -40 -12 -73 -29 -44 -29 -49 1 -61 39 -15 43 -11
54 50 5 27 11 54 13 59 5 13 5 18 -10 109 -7 46 -2 104 11 137 18 43 18 62 0
80 -19 19 -22 15 -12 -16 13 -39 13 -39 -18 -1 -42 51 -40 85 6 110 69 37 105
-80 111 -365 2 -95 12 -142 32 -155 16 -10 23 -19 16 -19 -8 0 -7 -25 1 -55 8
-30 22 -50 32 -45 26 16 29 128 3 144 -14 9 -21 60 -19 130 5 126 -24 266 -55
266 -10 0 -19 32 -19 70 0 57 -10 75 -49 89 -29 11 -51 38 -55 66 -5 44 -12
46 -71 31z m47 -66 c-7 -65 -32 -90 -32 -32 0 24 -9 39 -20 32 -22 -14 -28 16
-7 37 31 31 64 10 59 -37z"/>
<path d="M2722 2547 c-1 -38 -15 -68 -34 -75 -28 -11 -28 -17 -5 -45 24 -29
22 -31 -18 -19 -33 11 -45 7 -45 -16 0 -19 11 -26 30 -19 17 6 30 1 30 -12 0
-13 9 -18 20 -11 11 7 20 38 20 70 0 31 9 60 20 63 12 5 13 29 1 67 l-18 60
-1 -63z"/>
<path d="M2169 1964 c6 -15 11 -36 11 -47 0 -11 9 -14 20 -7 23 14 27 -16 5
-38 -18 -18 -20 -272 -3 -272 12 0 34 -107 46 -220 3 -27 8 -54 11 -60 2 -5 8
-76 12 -157 9 -174 14 -184 75 -126 58 54 116 61 70 8 -30 -34 -30 -44 9 -145
18 -49 37 -183 39 -275 0 -40 10 -45 98 -45 100 0 114 13 79 79 -11 20 -21 91
-23 159 -2 67 -16 146 -31 175 -33 63 -35 195 -4 245 18 28 18 72 0 182 -26
157 -15 193 63 204 30 4 45 22 48 56 3 28 0 39 -6 25 -6 -14 -19 -20 -29 -14
-22 13 105 128 144 130 40 3 142 66 142 89 1 30 -90 70 -114 52 -12 -9 -65
-21 -118 -27 -54 -6 -106 -23 -115 -38 -12 -19 -17 -20 -18 -3 0 14 -29 41
-65 60 -84 46 -362 54 -346 10z m280 -67 c17 -35 31 -75 31 -90 0 -15 8 -27
19 -27 10 0 6 -24 -10 -54 -15 -30 -23 -74 -17 -98 6 -24 2 -50 -10 -57 -31
-19 -27 -51 6 -51 34 0 51 -39 34 -80 -26 -65 -84 -31 -93 54 -41 418 -29 541
40 403z m-109 -219 c0 -10 -18 -18 -40 -18 -38 0 -54 39 -27 66 15 16 67 -22
67 -48z m28 -290 c18 -7 31 -32 30 -55 0 -24 -6 -32 -11 -18 -6 14 -27 25 -48
25 -25 0 -34 10 -26 30 13 34 13 34 55 18z m169 -410 c22 -36 21 -45 -11 -68
-53 -39 -88 -3 -59 60 28 61 36 61 70 8z"/>
<path d="M1880 1820 c0 -58 8 -80 30 -80 17 0 30 9 30 20 0 11 -7 20 -17 20
-9 0 -12 27 -7 60 5 36 0 60 -14 60 -12 0 -22 -35 -22 -80z"/>
<path d="M1876 1609 c7 -92 2 -116 -29 -140 -21 -16 -27 -28 -12 -28 14 -1 25
-14 25 -31 0 -16 14 -30 30 -30 38 0 38 -19 0 -48 -21 -16 -24 -31 -9 -52 58
-88 85 95 46 315 -9 51 -5 63 16 55 19 -7 28 3 28 30 0 30 -13 40 -52 40 -50
0 -51 -3 -43 -111z"/>
<path d="M3482 707 c-20 -14 -44 -19 -52 -11 -9 8 -12 1 -7 -14 5 -16 30 -36
56 -45 40 -15 43 -14 21 13 -20 24 -19 30 5 30 17 0 40 12 52 27 30 36 -24 36
-75 0z"/>
<path d="M4097 5500 c-6 -16 -3 -51 6 -77 10 -25 12 -55 6 -65 -6 -10 -2 -18
10 -18 23 0 24 37 3 130 -9 39 -18 50 -25 30z"/>
<path d="M3780 5040 c-22 -14 -28 -48 -24 -134 10 -170 51 -177 68 -10 15 141
5 174 -44 144z"/>
<path d="M3906 4775 c6 -102 14 -219 20 -260 5 -41 2 -75 -8 -75 -10 0 -18
-19 -18 -42 0 -24 10 -38 25 -33 18 6 25 65 23 207 -2 328 -7 388 -29 388 -15
0 -19 -61 -13 -185z"/>
<path d="M2560 5299 c0 -24 18 -39 55 -45 l55 -8 -56 -3 c-76 -4 -67 -70 11
-79 130 -15 142 119 13 152 -69 18 -78 16 -78 -17z"/>
<path d="M4621 3195 c0 -25 13 -121 29 -215 l28 -170 -4 215 c-3 157 -11 215
-29 215 -14 0 -25 -20 -24 -45z"/>
<path d="M4877 3065 c-1 -19 -4 -57 -7 -85 -3 -27 1 -59 8 -70 8 -11 14 -90
13 -175 -2 -182 35 -213 59 -50 23 150 18 260 -13 284 -15 12 -26 46 -25 76 2
59 -30 78 -35 20z"/>
<path d="M4661 2752 c-18 -22 -21 -40 -9 -49 11 -7 21 -40 23 -73 9 -167 33
-310 51 -310 12 0 14 42 5 115 -9 63 -21 168 -28 233 -12 107 -16 115 -42 84z"/>
<path d="M4538 2298 c-10 -120 -5 -338 8 -338 9 0 9 -13 0 -29 -19 -33 -9
-211 11 -211 16 0 10 580 -6 596 -6 6 -12 -2 -13 -18z"/>
<path d="M3574 3305 c7 -63 24 -146 39 -185 l26 -70 -8 70 c-23 204 -36 281
-51 290 -10 6 -12 -41 -6 -105z"/>
<path d="M3540 2282 c0 -10 -5 -33 -12 -50 -9 -24 0 -32 35 -31 44 2 44 3 7
19 -22 9 -29 18 -15 19 29 1 34 61 5 61 -11 0 -20 -8 -20 -18z"/>
<path d="M1256 9671 c-41 -37 -89 -71 -107 -74 -28 -6 -27 -14 10 -56 40 -46
79 -36 81 19 0 6 18 22 40 35 56 35 50 -3 -10 -63 -60 -61 -63 -94 -10 -142
45 -41 53 -74 14 -59 -34 13 -141 -84 -112 -102 11 -7 76 16 142 52 113 60
121 62 111 23 -6 -23 -2 -45 8 -48 41 -14 43 -168 4 -227 -33 -52 -34 -56 -3
-44 19 7 39 6 45 -4 6 -9 -12 -21 -39 -26 -28 -5 -50 -3 -50 6 0 8 -22 20 -48
27 -27 6 -60 16 -75 22 -19 7 -27 -10 -29 -60 0 -42 9 -70 23 -70 13 0 48 -19
78 -43 34 -26 60 -35 68 -23 7 11 32 26 55 34 81 25 212 232 147 232 -11 0
-19 32 -19 70 0 69 16 81 93 72 13 -2 30 6 37 17 15 25 -16 86 -42 82 -34 -6
-205 105 -226 147 -18 35 -19 29 -10 -30 10 -60 5 -74 -27 -83 -48 -12 -111
20 -93 47 6 11 16 49 22 84 5 35 17 73 27 85 9 11 8 33 -2 50 -25 39 -24 84 1
69 11 -7 20 2 20 19 0 49 -44 36 -124 -38z"/>
<path d="M4712 8575 c-56 -280 -57 -295 -32 -325 39 -48 60 -35 60 36 0 36 8
75 18 85 18 19 30 118 25 204 -2 25 -16 45 -33 45 -16 0 -33 -20 -38 -45z"/>
</g>
</svg>
