<?xml version="1.0" standalone="no"?>
<!DOCTYPE svg PUBLIC "-//W3C//DTD SVG 20010904//EN"
 "http://www.w3.org/TR/2001/REC-SVG-20010904/DTD/svg10.dtd">
<svg version="1.0" xmlns="http://www.w3.org/2000/svg"
 width="300.000000pt" height="156.000000pt" viewBox="0 0 300.000000 156.000000"
 preserveAspectRatio="xMidYMid meet">
<metadata>
Created by potrace 1.10, written by Peter Selinger 2001-2011
</metadata>
<g transform="translate(0.000000,156.000000) scale(0.100000,-0.100000)"
fill="#000000" stroke="none">
<path d="M465 1543 c-165 -31 -231 -51 -328 -99 -52 -26 -137 -99 -137 -118 0
-6 19 8 43 31 135 131 486 209 746 167 96 -16 131 -34 131 -67 0 -13 22 -65
48 -117 40 -78 54 -97 87 -115 79 -42 96 -56 84 -71 -7 -8 -9 -28 -5 -51 12
-67 16 -74 34 -64 12 7 19 3 29 -16 17 -34 17 -36 -8 -30 -15 4 -22 -1 -30
-21 -5 -15 -12 -34 -16 -42 -3 -8 -5 -19 -4 -24 1 -5 -5 -6 -14 -2 -9 3 -13 2
-10 -4 11 -18 32 -11 40 13 4 12 8 25 10 30 1 4 3 14 4 22 0 8 10 15 22 15 14
0 19 -5 16 -14 -3 -8 0 -20 8 -26 11 -9 15 -7 20 13 4 14 16 29 28 35 17 8 18
11 5 11 -9 1 -24 -9 -32 -21 l-16 -22 0 25 c0 14 -5 30 -12 37 -9 9 -9 12 1
12 7 0 10 4 7 9 -3 5 3 20 14 34 11 14 20 31 20 39 0 10 -3 9 -10 -2 -5 -8
-14 -15 -19 -15 -6 0 -17 -9 -26 -20 -9 -11 -14 -13 -10 -5 4 10 2 9 -8 -2
-22 -28 -27 -22 -27 37 0 30 1 55 3 55 1 0 25 -7 52 -15 30 -10 65 -13 87 -10
32 6 38 3 50 -18 17 -33 85 -87 112 -89 11 -1 28 -2 36 -4 8 -1 21 -2 29 -3 8
-1 11 -7 7 -17 -7 -19 19 -43 47 -44 12 0 17 8 18 33 2 58 -2 97 -14 127 -3 8
-11 33 -17 55 -19 64 -37 85 -70 85 -20 0 -30 5 -30 15 0 19 25 31 85 40 29 4
67 19 92 36 65 45 178 95 278 124 142 41 361 78 404 69 50 -11 110 -11 146 -1
25 7 46 3 110 -23 44 -18 114 -45 155 -60 97 -36 174 -81 228 -133 52 -51 56
-37 5 19 -44 47 -142 104 -228 132 -33 11 -76 26 -95 35 -19 8 -48 21 -65 27
-37 16 -393 23 -445 10 -19 -5 -75 -19 -125 -30 -170 -39 -270 -79 -369 -147
-26 -18 -52 -34 -57 -34 -5 -1 -12 -2 -16 -3 -5 -1 -27 -6 -50 -10 -53 -10
-79 -36 -63 -65 7 -14 21 -21 39 -21 27 0 31 -5 47 -57 9 -32 21 -63 26 -70 5
-6 8 -40 6 -75 -2 -47 -6 -58 -12 -43 -18 40 -39 55 -76 55 -25 0 -49 10 -78
31 -23 17 -42 35 -42 39 0 24 -34 40 -85 39 -46 -1 -65 5 -149 52 l-96 53 -45
90 c-24 50 -47 103 -50 118 -3 17 -16 33 -33 41 -74 38 -312 54 -437 30z"/>
<path d="M551 1506 c7 -7 199 -9 206 -2 3 3 -42 6 -102 6 -60 0 -106 -2 -104
-4z"/>
<path d="M783 1493 c9 -2 23 -2 30 0 6 3 -1 5 -18 5 -16 0 -22 -2 -12 -5z"/>
<path d="M844 1492 c-6 -4 -14 -18 -18 -32 -6 -21 -5 -22 4 -7 6 9 16 17 21
17 10 0 59 -101 59 -121 0 -5 17 -44 37 -87 21 -42 37 -80 38 -84 0 -4 6 -13
13 -19 6 -7 12 -18 12 -25 0 -6 7 -15 16 -18 8 -3 12 -10 9 -16 -11 -17 -24
-11 -31 15 -7 27 -88 105 -110 105 -7 0 -25 11 -41 24 -62 52 -219 110 -328
121 -52 6 -73 13 -86 29 -12 15 -28 20 -60 20 -70 -1 -238 -51 -301 -89 -31
-19 -60 -35 -64 -35 -15 0 61 59 75 60 11 0 12 3 4 11 -13 13 -38 -1 -72 -43
-18 -22 -21 -32 -12 -41 9 -9 19 -8 44 7 77 44 108 57 202 81 119 30 152 31
179 6 13 -11 51 -23 100 -31 43 -6 106 -22 140 -35 33 -13 63 -23 66 -23 13 0
67 -29 85 -45 11 -10 38 -28 60 -39 43 -21 105 -76 105 -91 0 -5 16 -27 35
-48 35 -39 43 -63 25 -74 -5 -3 -10 -17 -10 -31 0 -14 -7 -36 -16 -50 -15 -23
-15 -28 5 -83 11 -32 21 -81 21 -109 0 -28 5 -54 10 -57 6 -3 10 -24 10 -47 0
-22 8 -57 19 -77 44 -86 44 -86 31 -143 -14 -59 -50 -137 -75 -162 -11 -10
-34 -16 -67 -16 -43 0 -54 -4 -83 -33 -46 -46 -55 -85 -25 -109 25 -20 68 -22
190 -9 87 10 157 48 166 90 19 90 31 115 76 157 43 40 49 43 75 33 15 -6 35
-16 43 -24 8 -7 26 -16 40 -20 21 -5 32 0 55 27 l30 33 6 -40 c3 -22 12 -50
20 -63 17 -27 7 -37 -53 -46 -32 -5 -41 -13 -55 -42 -22 -45 -9 -68 41 -72 32
-3 35 -6 31 -25 -3 -12 1 -31 9 -42 12 -17 28 -20 103 -23 72 -2 84 0 68 9
-10 7 -44 13 -75 14 -30 0 -64 6 -75 12 -17 10 -18 15 -7 32 16 27 15 41 -3
41 -17 0 -20 16 -5 25 6 4 8 11 4 16 -8 14 -24 0 -24 -21 0 -16 -7 -19 -34
-18 -33 1 -34 2 -24 30 11 32 35 48 70 48 24 0 68 25 68 39 0 4 -9 18 -20 31
-25 29 -29 103 -5 94 15 -6 20 5 15 36 -1 9 14 0 34 -19 26 -25 36 -44 36 -65
0 -17 8 -50 17 -74 13 -35 14 -50 6 -73 -9 -22 -8 -27 0 -22 7 3 9 3 5 -2 -4
-4 -27 -10 -50 -11 -42 -3 -43 -2 -44 26 -1 33 21 41 45 18 11 -11 13 -10 9 2
-3 9 -17 15 -33 15 -23 0 -30 -6 -37 -30 -12 -46 -5 -53 50 -48 44 3 51 1 57
-17 4 -12 0 -26 -9 -36 -9 -8 -16 -18 -16 -22 0 -3 5 -1 12 6 16 16 28 15 28
-2 0 -14 27 -25 46 -19 11 4 10 24 -2 63 -5 13 -6 13 -14 0 -5 -8 -7 -23 -4
-32 3 -10 1 -18 -5 -18 -15 0 -14 63 1 78 17 17 24 15 46 -15 22 -32 38 -88
22 -78 -5 3 -18 1 -27 -4 -14 -8 -10 -10 24 -11 33 0 46 5 62 26 20 26 20 62
1 89 -13 18 -20 77 -21 189 -1 103 0 111 21 128 35 29 71 18 136 -40 32 -29
70 -55 84 -58 117 -25 133 -35 128 -81 -2 -19 -10 -29 -23 -31 -37 -7 -65 -43
-65 -82 0 -61 19 -70 158 -77 105 -5 124 -4 148 11 23 16 26 22 20 57 -4 22
-20 64 -36 93 -21 36 -30 66 -30 96 0 39 -5 49 -42 86 -24 23 -51 51 -62 62
-10 12 -30 22 -44 24 -21 2 -30 12 -44 51 -10 26 -15 47 -13 47 3 0 35 -25 70
-55 88 -74 123 -88 211 -82 58 3 80 9 115 33 77 51 119 165 119 324 0 88 15
117 78 149 65 33 102 -1 102 -91 0 -49 -25 -94 -90 -163 -53 -56 -81 -134 -59
-161 19 -23 74 -17 107 11 17 14 39 25 49 25 30 0 60 39 74 95 7 28 17 56 22
63 5 6 11 40 14 75 2 46 1 58 -7 47 -9 -11 -10 -7 -5 17 5 24 1 40 -14 62 -12
16 -21 35 -21 43 0 8 -16 30 -36 49 -19 19 -32 26 -29 17 5 -12 2 -18 -6 -19
-8 0 1 -5 20 -12 19 -7 37 -19 39 -27 4 -11 -1 -11 -22 3 -15 10 -33 16 -39
13 -7 -2 -5 -5 5 -5 23 -1 95 -70 82 -79 -6 -4 -10 -37 -9 -73 1 -49 -2 -66
-11 -62 -7 2 -15 0 -19 -6 -3 -6 -11 -11 -17 -11 -6 0 -6 6 2 15 7 9 10 19 6
23 -8 7 -29 -23 -32 -47 -2 -8 -19 -30 -38 -50 -20 -20 -36 -40 -36 -44 0 -4
-16 -28 -36 -54 -20 -26 -31 -49 -26 -51 15 -5 63 28 57 38 -8 14 35 89 59
102 11 7 28 11 36 9 12 -2 13 0 3 10 -15 15 -17 33 -4 24 6 -3 15 4 21 15 14
27 28 26 25 -2 -1 -13 0 -15 2 -5 5 18 15 22 26 10 4 -3 2 -12 -5 -20 -6 -7
-12 -26 -13 -41 -3 -48 -5 -53 -14 -48 -5 4 -7 -2 -4 -13 3 -10 0 -21 -5 -25
-5 -3 -9 12 -8 36 0 26 -4 43 -12 46 -9 3 -12 -4 -11 -19 4 -44 -1 -69 -13
-69 -7 0 -25 -12 -42 -27 -32 -29 -18 -6 20 34 18 20 32 83 18 83 -3 0 -14
-19 -24 -42 -10 -24 -23 -43 -27 -43 -4 0 -8 -6 -10 -14 -3 -22 -26 -40 -61
-47 -36 -7 -42 7 -17 40 8 11 15 27 15 36 0 9 23 38 50 65 28 27 50 54 50 61
0 6 9 23 20 37 24 30 27 101 6 152 -25 59 -89 60 -152 2 -40 -37 -53 -80 -54
-179 0 -142 -42 -231 -130 -275 -51 -27 -142 -31 -193 -10 -44 19 -98 66 -90
79 3 6 2 8 -4 5 -11 -7 -67 36 -69 52 -1 6 -2 12 -4 14 -1 1 -3 10 -5 20 -2
10 -16 30 -31 45 -25 25 -26 25 -15 4 7 -13 10 -30 7 -38 -3 -8 5 -20 22 -28
23 -13 24 -15 7 -15 -24 -1 -65 40 -65 63 0 11 5 14 12 10 7 -4 8 -3 4 4 -4 7
-16 12 -27 12 -14 0 -18 -4 -12 -12 4 -7 8 -16 8 -20 0 -4 8 -16 17 -28 21
-24 16 -26 -17 -4 -14 9 -25 12 -25 6 0 -6 5 -14 11 -17 6 -4 8 -13 5 -21 -3
-8 1 -14 10 -14 11 0 13 -6 9 -21 -6 -19 -5 -20 14 -9 l22 11 -23 19 -23 19
22 1 c26 0 47 -28 69 -92 8 -26 25 -55 37 -63 12 -8 18 -15 14 -15 -20 0 25
-44 45 -45 23 0 75 -30 91 -50 4 -5 6 -35 4 -67 -3 -31 0 -62 5 -70 6 -9 7 -5
3 12 -4 19 -1 17 14 -10 10 -19 17 -39 14 -44 -4 -5 0 -6 7 -1 9 6 11 0 5 -26
-5 -26 -4 -31 5 -19 9 12 10 11 8 -9 -2 -14 -12 -27 -27 -32 -21 -8 -23 -7
-17 16 7 27 -10 69 -24 60 -5 -3 -5 -19 1 -38 12 -43 13 -42 -21 -42 -28 0
-30 3 -30 38 0 20 -5 37 -11 37 -7 0 -10 -15 -7 -40 3 -31 0 -39 -10 -35 -8 3
-23 5 -34 5 -17 0 -19 4 -13 31 5 22 3 34 -6 40 -12 8 -11 11 1 19 8 5 19 11
24 13 5 2 4 12 -2 23 -10 17 -11 17 -12 1 0 -10 -6 -20 -14 -23 -11 -4 -13
-17 -9 -56 l6 -49 -39 3 c-32 2 -40 7 -42 27 -7 46 6 67 45 77 36 9 38 11 41
55 4 57 -13 73 -96 93 -58 13 -117 49 -152 91 -15 19 -53 39 -90 49 -17 5 -21
4 -11 -2 11 -8 10 -11 -6 -16 -11 -4 -35 -25 -52 -47 -18 -22 -36 -38 -39 -35
-3 4 5 18 19 33 19 23 20 24 2 10 -15 -13 -23 -15 -28 -7 -6 9 -10 9 -17 -1
-8 -11 -9 -10 -4 3 3 10 2 18 -3 18 -4 0 -8 7 -8 15 0 18 13 20 24 2 7 -11 15
-10 48 2 22 9 41 22 43 29 2 10 -2 10 -20 0 -26 -15 -118 -19 -118 -5 0 4 -5
5 -11 2 -5 -4 -19 3 -30 16 -15 18 -19 19 -19 5 0 -9 11 -21 25 -28 13 -6 22
-15 19 -20 -6 -10 41 -58 57 -58 5 0 9 -3 9 -7 0 -5 9 -19 20 -33 11 -14 18
-18 14 -9 -3 10 0 20 6 24 9 6 11 -5 8 -41 -6 -68 9 -196 27 -230 19 -36 19
-52 1 -70 -22 -21 -29 -17 -23 12 3 20 0 28 -14 31 -21 6 -26 33 -6 33 7 0 19
-6 26 -12 10 -11 10 -8 0 15 -9 19 -16 24 -23 17 -18 -18 -25 -11 -20 25 2 20
0 35 -6 35 -5 0 -9 -3 -9 -7 1 -5 1 -21 0 -36 -1 -23 -4 -26 -18 -18 -14 7
-22 4 -36 -17 l-19 -27 7 35 c4 19 8 45 9 57 1 11 6 18 11 15 6 -3 2 4 -7 15
-10 11 -18 26 -18 34 0 8 -5 20 -11 26 -6 6 -10 30 -7 52 3 32 0 41 -12 41
-17 0 -87 74 -82 88 1 5 -15 28 -38 52 -22 23 -40 37 -40 32 0 -5 7 -15 15
-22 19 -16 19 -34 0 -27 -8 4 -17 1 -21 -5 -4 -7 -3 -8 4 -4 7 4 12 3 12 -2 0
-6 8 -8 19 -5 20 5 34 -10 36 -38 1 -10 -13 -20 -42 -28 -24 -7 -43 -17 -43
-21 0 -4 -13 -13 -29 -18 -23 -8 -32 -7 -42 4 -7 8 -26 25 -42 36 -25 18 -30
19 -24 5 8 -21 -6 -22 -26 -2 -13 13 -16 13 -21 -1 -9 -24 -7 -36 5 -29 29 18
65 11 113 -24 35 -25 48 -30 43 -18 -6 15 -3 17 13 12 15 -5 18 -3 14 9 -4 11
0 16 14 16 12 0 23 4 26 9 10 16 56 20 56 5 0 -9 -11 -14 -30 -14 -18 0 -37
-8 -48 -21 -35 -42 -49 -43 -100 -6 -26 19 -53 32 -61 29 -8 -3 -35 -24 -60
-48 -24 -24 -48 -41 -51 -39 -4 3 -6 -8 -4 -24 2 -17 -3 -34 -11 -41 -8 -7
-15 -22 -15 -34 0 -24 -38 -71 -48 -61 -4 3 0 10 8 15 13 8 12 10 -3 10 -10 0
-15 5 -12 10 3 6 -1 10 -9 10 -16 0 -13 -23 7 -48 16 -20 -11 -32 -58 -27 -33
4 -35 3 -10 -3 23 -6 8 -9 -62 -14 -51 -4 -108 -2 -128 3 l-35 10 20 38 c22
43 58 61 124 61 23 0 47 5 54 12 9 9 12 9 12 -1 0 -8 9 -2 20 12 11 14 20 29
20 34 0 4 -9 -3 -20 -17 -25 -32 -26 -14 -1 26 11 18 29 69 42 114 20 76 21
85 6 109 -8 14 -16 29 -16 34 0 4 -8 18 -16 31 -21 32 -32 96 -16 96 7 0 2 10
-9 23 -17 17 -21 30 -16 62 3 27 -2 59 -16 98 -19 52 -19 59 -5 75 9 9 17 29
19 44 2 15 7 30 11 34 13 14 7 39 -19 78 -21 31 -23 38 -10 33 10 -4 22 -7 27
-7 5 0 9 -5 9 -11 0 -5 -5 -7 -12 -3 -7 4 -8 3 -4 -5 4 -6 12 -9 17 -6 5 3 19
-3 30 -14 20 -18 20 -21 6 -27 -10 -3 -17 -15 -17 -26 0 -11 -5 -16 -11 -13
-6 4 -9 1 -8 -6 4 -22 -12 -79 -22 -79 -5 0 -9 -10 -9 -22 0 -19 3 -17 17 12
10 19 21 37 25 38 4 2 8 11 8 20 0 12 3 13 8 5 5 -8 8 2 9 24 1 21 6 39 12 41
22 7 10 30 -38 70 -41 35 -60 63 -106 160 -31 64 -67 138 -80 163 -19 36 -22
48 -12 58 9 10 8 15 -7 27 -22 16 -27 17 -42 6z m2126 -602 c0 -5 -2 -10 -4
-10 -3 0 -8 5 -11 10 -3 6 -1 10 4 10 6 0 11 -4 11 -10z m-1 -82 c-1 -31 -1
-31 -8 -8 -5 14 -6 28 -4 33 9 15 13 6 12 -25z m-1239 -358 c0 -5 -4 -10 -10
-10 -5 0 -10 5 -10 10 0 6 5 10 10 10 6 0 10 -4 10 -10z m530 -11 c0 -11 -4
-17 -10 -14 -5 3 -10 13 -10 21 0 8 5 14 10 14 6 0 10 -9 10 -21z m30 -24 c0
-5 -5 -3 -10 5 -5 8 -10 20 -10 25 0 6 5 3 10 -5 5 -8 10 -19 10 -25z"/>
<path d="M2090 1469 c-58 -11 -115 -20 -127 -21 -13 0 -23 -5 -23 -9 0 -5 -12
-7 -27 -3 -22 4 -25 3 -13 -6 12 -9 8 -10 -20 -6 -23 4 -28 3 -16 -2 19 -8 18
-9 -5 -15 -34 -10 -46 -8 -29 3 8 5 11 10 5 10 -5 0 -17 -5 -25 -10 -13 -9
-13 -10 0 -10 13 0 13 -1 0 -10 -23 -15 -10 -12 76 15 195 62 425 86 481 50
24 -16 26 -16 14 -2 -12 15 -11 17 7 17 11 0 31 -4 44 -8 13 -5 34 -5 48 -1
19 5 20 7 6 8 -11 1 -17 3 -14 6 8 9 139 -16 133 -25 -2 -4 7 -5 22 -2 18 3
24 1 19 -7 -8 -13 3 -14 22 -2 9 5 -6 14 -45 26 -91 28 -394 30 -533 4z"/>
<path d="M488 1448 c5 -5 16 -8 23 -6 8 3 3 7 -10 11 -17 4 -21 3 -13 -5z"/>
<path d="M2488 1453 c-10 -2 -18 -8 -17 -11 1 -12 53 -49 79 -56 21 -6 20 -4
-7 13 -57 36 -36 39 69 10 136 -38 221 -73 292 -120 60 -40 80 -47 91 -29 3 6
-2 10 -12 10 -10 0 -29 9 -43 20 -27 21 -21 26 12 9 13 -7 18 -7 14 -1 -4 6
-20 18 -37 26 -29 14 -30 14 -18 -1 16 -19 14 -18 -66 23 -63 33 -147 62 -252
89 -34 8 -68 17 -75 19 -7 2 -21 2 -30 -1z"/>
<path d="M654 1441 c4 -5 1 -12 -4 -14 -6 -3 -5 -4 2 -3 15 3 23 26 8 26 -6 0
-9 -4 -6 -9z"/>
<path d="M2228 1443 c7 -3 16 -2 19 1 4 3 -2 6 -13 5 -11 0 -14 -3 -6 -6z"/>
<path d="M193 1427 c-17 -7 -35 -15 -39 -20 -10 -10 58 13 71 24 11 11 8 11
-32 -4z"/>
<path d="M2146 1413 c-2 -2 -154 -12 -194 -13 -7 0 -11 -4 -8 -9 4 -5 -2 -7
-12 -4 -10 2 -49 -3 -87 -12 -37 -8 -70 -13 -73 -10 -3 3 1 5 8 5 7 0 11 2 8
5 -8 9 -58 -17 -52 -26 3 -5 -5 -8 -18 -6 -15 1 -22 -3 -20 -11 1 -8 -3 -12
-10 -9 -7 2 -25 -2 -40 -10 -16 -7 -28 -11 -28 -8 0 3 -9 1 -20 -5 -39 -21
-19 -30 20 -10 23 11 44 18 49 16 5 -3 22 1 38 9 70 35 268 63 458 66 47 0 55
2 37 10 -13 5 -21 12 -18 17 4 7 -31 12 -38 5z m-13 -20 c-13 -2 -35 -2 -50 0
-16 2 -5 4 22 4 28 0 40 -2 28 -4z"/>
<path d="M2236 1412 c-3 -5 8 -6 25 -4 16 2 29 6 29 8 0 8 -49 4 -54 -4z"/>
<path d="M2311 1408 c8 -7 20 -20 27 -28 11 -13 12 -12 6 5 -8 21 -23 35 -38
35 -6 0 -3 -6 5 -12z"/>
<path d="M548 1403 c6 -2 18 -2 25 0 6 3 1 5 -13 5 -14 0 -19 -2 -12 -5z"/>
<path d="M118 1393 c-21 -5 -23 -19 -6 -29 7 -5 8 -3 3 6 -5 9 -2 10 11 6 11
-3 26 -1 34 5 12 8 9 9 -9 4 -16 -5 -21 -4 -17 4 4 6 6 10 4 10 -2 -1 -11 -3
-20 -6z"/>
<path d="M2770 1396 c0 -2 9 -6 20 -9 11 -3 18 -1 14 4 -5 9 -34 13 -34 5z"/>
<path d="M2278 1383 c6 -2 18 -2 25 0 6 3 1 5 -13 5 -14 0 -19 -2 -12 -5z"/>
<path d="M857 1359 c4 -13 8 -18 11 -10 2 7 -1 18 -6 23 -8 8 -9 4 -5 -13z"/>
<path d="M2820 1376 c0 -2 7 -7 16 -10 8 -3 12 -2 9 4 -6 10 -25 14 -25 6z"/>
<path d="M2346 1358 c-27 -10 -28 -13 -23 -55 3 -30 15 -57 36 -84 36 -45 36
-44 -14 -23 -52 21 -94 11 -147 -36 -65 -57 -88 -136 -66 -230 2 -12 -10 -15
-71 -13 -67 1 -76 -1 -93 -22 -12 -15 -25 -21 -38 -18 -11 3 -20 0 -20 -6 0
-6 -8 -11 -17 -12 -10 0 -13 -3 -6 -5 8 -4 7 -10 -5 -22 -15 -15 -20 -16 -45
-4 -21 11 -34 11 -62 2 -19 -6 -38 -16 -42 -23 -4 -7 -9 -4 -15 9 -8 18 -8 18
-5 0 1 -14 10 -19 35 -20 17 -1 32 3 32 7 0 4 30 7 68 5 37 -1 76 2 86 7 12 5
17 5 13 -1 -3 -6 9 -8 30 -6 33 4 35 3 28 -18 -5 -15 -4 -20 4 -16 6 4 11 3
11 -3 0 -16 34 -18 46 -2 10 12 16 10 40 -14 16 -16 30 -23 32 -17 2 7 8 12
14 12 6 0 8 -7 4 -15 -5 -15 21 -35 46 -35 7 1 0 8 -17 16 -16 8 -22 12 -12 9
10 -3 22 -5 26 -5 5 0 20 -18 35 -40 14 -22 33 -40 40 -40 8 0 23 -10 33 -23
10 -12 40 -35 67 -51 43 -25 53 -27 82 -18 31 9 50 0 22 -11 -20 -7 -6 -15 32
-19 28 -2 37 1 46 21 9 17 9 30 1 48 -8 19 -7 27 10 46 31 35 34 44 22 71 -9
20 -9 29 1 41 18 21 30 19 30 -6 0 -18 -2 -19 -15 -9 -16 13 -20 3 -7 -16 11
-17 41 -12 48 8 3 10 0 25 -6 33 -7 8 -9 15 -4 15 5 0 2 6 -7 13 -9 7 -19 32
-23 57 -6 40 -5 43 7 26 13 -18 14 -18 21 8 4 15 4 37 0 48 -6 19 -6 19 -26
-2 -17 -18 -19 -29 -13 -75 5 -47 3 -58 -16 -84 -19 -27 -21 -34 -10 -57 10
-23 9 -30 -7 -48 -10 -12 -26 -33 -35 -48 -10 -17 -33 -32 -58 -39 -37 -12
-45 -10 -86 12 -24 13 -76 53 -114 89 -88 82 -126 113 -164 133 -16 8 -42 26
-56 38 -14 13 -35 29 -45 36 -16 10 -7 12 51 12 40 1 76 6 83 13 7 7 9 31 5
68 -5 48 -1 65 21 112 40 84 127 129 187 97 12 -6 27 -8 34 -5 11 4 8 17 -15
62 -41 78 -40 101 6 110 20 4 70 4 110 0 41 -3 74 -2 74 3 0 21 -163 28 -214
9z m284 -464 c0 -8 -5 -12 -10 -9 -6 4 -8 11 -5 16 9 14 15 11 15 -7z m-595
-67 c5 -7 30 -24 55 -37 57 -31 54 -29 47 -36 -3 -4 -18 3 -33 15 -22 17 -30
19 -42 9 -13 -10 -14 -10 -8 0 4 7 2 12 -8 12 -8 0 -17 9 -21 19 -4 12 -12 18
-21 14 -7 -3 -14 0 -14 6 0 9 -5 9 -20 1 -14 -7 -20 -7 -20 0 0 5 5 10 12 10
6 0 9 3 6 6 -4 3 -16 0 -28 -6 -26 -14 -38 -6 -21 14 11 13 18 13 59 1 26 -8
51 -21 57 -28z m515 -251 c0 -10 -32 -36 -43 -36 -7 1 -1 10 12 20 23 20 31
24 31 16z"/>
<path d="M2241 1351 c-7 -5 -12 -14 -10 -20 2 -6 10 -2 17 9 14 22 13 23 -7
11z"/>
<path d="M1775 1314 l-40 -13 40 5 c40 6 52 11 44 18 -2 2 -22 -3 -44 -10z"/>
<path d="M860 1315 c0 -5 5 -17 10 -25 5 -8 10 -10 10 -5 0 6 -5 17 -10 25 -5
8 -10 11 -10 5z"/>
<path d="M825 1290 c10 -11 20 -20 23 -20 3 0 -3 9 -13 20 -10 11 -20 20 -23
20 -3 0 3 -9 13 -20z"/>
<path d="M1484 1285 c-18 -14 -18 -14 4 -8 12 3 22 9 22 14 0 12 -3 11 -26 -6z"/>
<path d="M1857 1292 c-149 -2 -166 -4 -153 -17 12 -12 39 -14 143 -11 70 3
131 2 135 0 4 -3 51 -6 105 -7 54 -1 89 -1 78 2 -20 4 -20 4 0 11 35 13 -135
25 -308 22z m206 -19 c-13 -2 -33 -2 -45 0 -13 2 -3 4 22 4 25 0 35 -2 23 -4z"/>
<path d="M1660 1280 c0 -5 -3 -9 -7 -9 -21 4 -73 -15 -73 -26 0 -8 -4 -15 -10
-17 -5 -1 0 -18 12 -36 16 -26 23 -30 30 -20 7 9 8 8 4 -5 -4 -12 9 -49 34
-96 22 -42 40 -82 40 -88 0 -6 -23 -23 -52 -36 -45 -22 -54 -23 -63 -10 -9 12
-21 8 -80 -26 -53 -31 -64 -41 -46 -41 14 0 33 8 44 18 11 9 17 11 13 5 -6
-10 -1 -11 21 -2 15 6 42 8 60 4 26 -5 32 -3 27 9 -4 10 8 21 40 35 25 11 46
26 47 33 0 7 5 -2 11 -21 7 -25 12 -31 18 -21 5 8 4 21 -1 29 -5 9 -18 30 -29
46 -26 42 -70 135 -70 149 1 6 12 -11 26 -39 15 -27 42 -73 61 -102 21 -30 33
-58 30 -67 -4 -10 -1 -16 7 -16 26 0 25 14 -7 59 -18 25 -44 69 -57 96 -12 28
-40 73 -61 102 -22 29 -39 55 -39 58 0 28 232 -79 296 -136 11 -11 24 -16 27
-12 4 3 7 1 7 -5 0 -7 3 -11 8 -11 4 1 10 0 15 -1 12 -4 26 -7 38 -9 5 0 7 -5
4 -11 -3 -5 -1 -10 4 -10 28 0 5 29 -52 64 -131 83 -154 96 -207 123 -30 16
-54 34 -52 41 1 6 -2 12 -8 12 -5 0 -10 -4 -10 -10z m15 -30 c7 -12 -2 -12
-30 0 -19 8 -19 9 2 9 12 1 25 -3 28 -9z m-119 -335 c-26 -19 -42 -19 -26 0 7
8 20 15 29 15 13 -1 13 -3 -3 -15z"/>
<path d="M2197 1257 c-3 -8 1 -14 9 -14 8 0 14 5 14 10 0 5 7 6 16 3 8 -3 12
-2 9 4 -9 15 -42 12 -48 -3z"/>
<path d="M1545 1250 c3 -5 8 -10 11 -10 2 0 4 5 4 10 0 6 -5 10 -11 10 -5 0
-7 -4 -4 -10z"/>
<path d="M1866 1232 c-3 -6 -16 -8 -29 -6 -21 4 -20 4 2 -6 24 -10 53 1 39 15
-3 4 -9 2 -12 -3z"/>
<path d="M1898 1219 c-10 -5 -18 -15 -18 -22 0 -8 3 -8 8 -2 4 6 18 16 32 22
14 6 18 12 10 12 -8 0 -23 -4 -32 -10z"/>
<path d="M1031 1203 c7 -12 15 -20 18 -17 3 2 -3 12 -13 22 -17 16 -18 16 -5
-5z"/>
<path d="M2072 1211 c-11 -7 -11 -9 0 -14 9 -3 15 1 15 9 0 8 -1 14 -1 14 -1
0 -7 -4 -14 -9z"/>
<path d="M1650 1206 c0 -2 8 -10 18 -17 15 -13 16 -12 3 4 -13 16 -21 21 -21
13z"/>
<path d="M1900 1190 c0 -5 5 -10 10 -10 6 0 10 5 10 10 0 6 -4 10 -10 10 -5 0
-10 -4 -10 -10z"/>
<path d="M1057 1151 c3 -11 14 -28 25 -38 19 -17 19 -15 -2 20 -25 42 -31 46
-23 18z"/>
<path d="M1720 1150 c0 -8 24 -20 41 -20 6 0 8 4 5 9 -8 12 -46 21 -46 11z"/>
<path d="M1284 1120 c-22 -8 -40 -50 -22 -50 5 0 6 -6 1 -12 -12 -21 -15 -54
-3 -42 5 5 11 22 12 38 2 27 23 54 34 43 3 -3 1 -15 -5 -26 -11 -19 -10 -20
13 -11 13 5 27 6 30 3 3 -4 6 -1 6 6 0 8 -6 11 -16 7 -14 -5 -15 -4 -4 9 10
12 10 15 -3 15 -9 0 -17 6 -19 14 -2 9 -9 11 -24 6z"/>
<path d="M1709 1087 c25 -27 43 -39 22 -14 -6 8 -7 18 -3 23 4 5 3 6 -2 2 -5
-4 -16 -2 -25 4 -9 7 -5 0 8 -15z"/>
<path d="M1760 1099 c0 -5 5 -7 10 -4 6 3 10 8 10 11 0 2 -4 4 -10 4 -5 0 -10
-5 -10 -11z"/>
<path d="M2728 1080 c-15 -4 -41 -18 -57 -29 -28 -20 -33 -30 -46 -83 -5 -21
-5 -21 5 -5 11 17 14 17 28 3 20 -17 37 -8 65 37 19 30 43 37 33 10 -6 -15 -5
-15 13 1 11 10 18 22 16 27 -7 11 -51 5 -68 -9 -8 -7 -17 -9 -20 -5 -4 3 -13
-9 -21 -28 -13 -29 -15 -30 -16 -11 0 24 21 52 38 52 5 0 15 6 21 14 8 9 23
11 49 7 20 -4 51 -4 67 -1 29 6 29 6 -10 12 -22 2 -47 7 -55 11 -8 3 -27 2
-42 -3z"/>
<path d="M1763 1060 c1 -11 5 -20 10 -20 5 0 7 7 4 14 -4 10 -1 13 8 9 8 -3
13 -9 10 -13 -3 -5 -1 -11 5 -15 5 -3 10 1 10 9 0 8 -9 20 -19 26 -27 14 -30
13 -28 -10z"/>
<path d="M1820 1071 c0 -12 61 -25 87 -18 10 3 4 5 -15 6 -18 0 -42 6 -53 11
-12 7 -19 7 -19 1z"/>
<path d="M2007 1041 c-5 -21 24 -43 42 -31 9 5 10 10 2 14 -6 4 -15 4 -21 1
-5 -3 -7 0 -4 8 3 8 1 18 -4 21 -5 3 -12 -2 -15 -13z"/>
<path d="M1280 1030 c0 -5 7 -7 15 -4 8 4 15 8 15 10 0 2 -7 4 -15 4 -8 0 -15
-4 -15 -10z"/>
<path d="M1360 1031 c0 -10 36 -21 44 -14 3 3 3 10 0 14 -7 12 -44 12 -44 0z"/>
<path d="M1630 1032 c0 -10 41 -45 46 -39 2 2 -7 13 -21 25 -14 12 -25 18 -25
14z"/>
<path d="M1840 1030 c0 -5 5 -10 11 -10 5 0 7 5 4 10 -3 6 -8 10 -11 10 -2 0
-4 -4 -4 -10z"/>
<path d="M1878 1033 c6 -2 18 -2 25 0 6 3 1 5 -13 5 -14 0 -19 -2 -12 -5z"/>
<path d="M1751 1014 c0 -11 3 -14 6 -6 3 7 2 16 -1 19 -3 4 -6 -2 -5 -13z"/>
<path d="M1423 1013 c-26 -10 -12 -19 25 -15 28 2 33 1 22 -7 -13 -9 -8 -15
11 -13 3 0 5 -10 5 -24 0 -13 -5 -23 -10 -21 -11 4 -66 -19 -66 -28 0 -10 61
6 95 26 36 21 37 23 17 32 -24 11 -37 37 -19 38 15 1 -33 17 -53 17 -8 0 -21
-2 -27 -5z"/>
<path d="M1293 987 c-18 -6 -33 -15 -33 -19 0 -11 18 -10 42 3 18 10 20 9 15
-5 -4 -10 -3 -15 2 -12 10 6 24 -70 23 -129 0 -47 -33 -148 -57 -171 -15 -16
-18 -16 -37 3 -19 19 -19 21 -2 20 40 0 44 3 40 28 -3 15 0 25 7 25 7 0 8 3 1
10 -12 12 -64 -1 -62 -15 2 -5 9 -9 18 -7 13 2 13 2 0 -7 -12 -9 -11 -11 8
-11 13 0 21 -4 18 -9 -6 -10 -20 -9 -47 3 -26 11 -57 60 -65 101 -6 36 -6 37
15 26 16 -9 21 -9 22 1 0 7 4 4 9 -7 5 -11 9 -15 9 -9 1 7 18 10 46 8 35 -3
45 -1 45 11 0 8 5 15 12 15 8 0 9 3 1 11 -11 11 -66 1 -58 -11 3 -4 -2 -10
-10 -14 -9 -3 -15 0 -15 9 0 10 -12 13 -45 11 -38 -2 -45 0 -45 16 0 10 -4 18
-9 18 -15 0 -24 -20 -14 -33 5 -7 9 -19 8 -27 -1 -8 5 -26 12 -40 15 -29 36
-80 39 -95 1 -5 2 -14 3 -19 0 -6 7 -1 15 10 8 10 18 16 22 11 4 -4 2 -7 -4
-7 -6 0 -9 -7 -6 -15 4 -8 1 -15 -5 -15 -6 0 -11 -5 -11 -11 0 -8 4 -8 13 -1
8 7 17 6 30 -3 15 -11 16 -17 8 -34 -17 -32 -13 -39 7 -9 12 18 22 24 31 19 8
-5 11 -13 7 -19 -3 -5 0 -12 7 -15 10 -4 13 2 9 19 -2 13 -8 24 -11 24 -4 0
-8 7 -8 15 0 12 3 12 16 2 12 -10 14 -9 8 6 -7 19 9 24 16 5 4 -10 6 -10 6 0
1 7 7 10 14 7 6 -4 4 0 -5 8 -21 17 -24 41 -5 34 9 -3 13 7 13 37 1 46 6 75
17 94 5 7 4 12 -2 12 -6 0 -11 14 -11 30 0 17 5 30 10 30 6 0 10 8 10 17 0 15
-1 15 -13 -2 -10 -12 -16 -14 -21 -7 -4 7 -4 16 -1 22 3 5 0 20 -7 32 -7 13
-11 26 -10 31 1 4 1 6 0 6 -2 -1 -18 -7 -35 -12z"/>
<path d="M1905 970 c-3 -5 -1 -10 4 -10 6 0 11 5 11 10 0 6 -2 10 -4 10 -3 0
-8 -4 -11 -10z"/>
<path d="M1840 958 c-14 -6 -20 -12 -13 -15 7 -2 23 3 35 11 25 18 15 20 -22
4z"/>
<path d="M2040 950 c30 -10 56 -17 58 -16 5 6 -77 36 -96 36 -9 -1 8 -9 38
-20z"/>
<path d="M2905 961 c-3 -6 -1 -11 4 -11 6 0 11 -7 11 -15 0 -8 5 -15 10 -15
14 0 12 11 -4 33 -9 12 -16 14 -21 8z"/>
<path d="M1406 951 c-4 -5 3 -7 14 -4 23 6 26 13 6 13 -8 0 -17 -4 -20 -9z"/>
<path d="M1180 930 c0 -11 6 -20 13 -20 8 0 14 7 14 15 0 8 -6 16 -14 19 -8 3
-13 -2 -13 -14z"/>
<path d="M1249 928 c-6 -11 -15 -16 -22 -11 -7 4 -5 -1 3 -12 13 -15 15 -16
18 -3 2 9 12 18 23 21 23 6 26 24 3 24 -8 0 -20 -9 -25 -19z"/>
<path d="M1758 913 c7 -3 16 -2 19 1 4 3 -2 6 -13 5 -11 0 -14 -3 -6 -6z"/>
<path d="M1160 885 c0 -8 4 -15 8 -15 5 0 9 7 9 15 0 8 -4 15 -9 15 -4 0 -8
-7 -8 -15z"/>
<path d="M1641 881 c-19 -17 -20 -19 -4 -32 14 -12 16 -12 11 1 -3 8 1 23 10
33 20 23 11 22 -17 -2z"/>
<path d="M1208 883 c7 -3 16 -2 19 1 4 3 -2 6 -13 5 -11 0 -14 -3 -6 -6z"/>
<path d="M1534 864 c-37 -18 -59 -50 -40 -57 8 -3 13 1 12 11 -1 18 13 19 60
8 24 -6 26 -5 15 8 -7 9 -17 13 -22 10 -5 -3 -14 -2 -21 2 -8 5 -6 10 8 15 11
4 26 1 34 -6 16 -13 50 -27 50 -21 0 2 -15 13 -34 24 -30 18 -36 18 -62 6z"/>
<path d="M1730 870 c19 -6 21 -8 6 -9 -11 -1 -17 -3 -15 -6 3 -2 23 -2 44 2
32 5 35 8 20 14 -11 4 -33 7 -50 7 -29 0 -29 0 -5 -8z"/>
<path d="M1833 873 c9 -2 23 -2 30 0 6 3 -1 5 -18 5 -16 0 -22 -2 -12 -5z"/>
<path d="M1400 860 c-9 -6 -10 -10 -3 -10 6 0 15 5 18 10 8 12 4 12 -15 0z"/>
<path d="M1100 852 c0 -12 19 -26 26 -19 2 2 -2 10 -11 17 -9 8 -15 8 -15 2z"/>
<path d="M1460 840 c-9 -6 -10 -10 -3 -10 6 0 15 5 18 10 8 12 4 12 -15 0z"/>
<path d="M1820 846 c0 -9 40 -13 46 -5 3 5 -6 9 -20 9 -14 0 -26 -2 -26 -4z"/>
<path d="M1654 817 c-3 -9 -14 -12 -30 -9 -14 2 -24 0 -24 -7 0 -8 15 -11 45
-8 42 3 61 -6 33 -15 -8 -3 -4 -10 10 -17 30 -16 39 -7 23 22 -17 33 -50 52
-57 34z"/>
<path d="M2910 821 c0 -6 5 -13 10 -16 6 -3 10 1 10 9 0 9 -4 16 -10 16 -5 0
-10 -4 -10 -9z"/>
<path d="M1077 813 c-7 -12 13 -59 21 -48 4 6 11 13 15 16 4 3 -1 14 -12 23
-10 10 -21 14 -24 9z"/>
<path d="M1271 794 c-1 -16 -52 -24 -73 -13 -12 6 -18 6 -18 -1 0 -5 5 -10 11
-10 6 0 9 -7 5 -15 -3 -9 0 -15 10 -15 8 0 12 5 9 10 -4 6 8 10 29 10 19 0 42
3 52 7 12 4 15 3 10 -5 -4 -7 -3 -12 3 -12 5 0 9 9 8 19 -1 15 -5 17 -18 10
-13 -7 -19 -5 -22 9 -3 9 -5 12 -6 6z"/>
<path d="M1485 791 c3 -5 -1 -12 -7 -15 -7 -3 -1 -3 15 1 23 4 26 3 21 -13 -4
-15 -4 -16 4 -5 7 9 8 0 5 -31 -3 -25 -1 -48 3 -51 15 -8 16 89 2 100 -19 14
-50 24 -43 14z"/>
<path d="M1908 793 c-10 -2 -18 -9 -18 -14 0 -6 8 -8 19 -4 22 7 37 -21 15
-29 -8 -3 -14 -10 -14 -16 0 -19 25 -10 51 18 38 40 42 51 19 45 -11 -3 -17
-9 -14 -14 3 -5 1 -9 -4 -9 -6 0 -12 7 -16 15 -6 15 -8 16 -38 8z"/>
<path d="M1420 783 c8 -3 21 -10 28 -16 9 -7 11 -6 6 7 -3 9 -16 16 -28 15
-14 0 -16 -2 -6 -6z"/>
<path d="M1730 776 c0 -16 28 -42 36 -33 8 7 -14 47 -26 47 -6 0 -10 -6 -10
-14z"/>
<path d="M1624 736 c17 -14 32 -24 35 -23 3 1 17 -5 30 -12 33 -18 51 1 26 29
-10 11 -21 17 -26 15 -4 -3 -10 -1 -14 5 -3 5 -11 10 -17 10 -7 0 -6 -6 2 -15
16 -19 7 -19 -33 0 l-32 16 29 -25z m82 -21 c10 -8 14 -15 8 -15 -5 0 -19 7
-30 15 -10 8 -14 15 -8 15 5 0 19 -7 30 -15z"/>
<path d="M1844 741 c21 -23 26 -26 26 -11 0 5 -10 15 -22 21 -23 12 -23 12 -4
-10z"/>
<path d="M2072 739 c2 -7 10 -15 17 -17 8 -3 12 1 9 9 -2 7 -10 15 -17 17 -8
3 -12 -1 -9 -9z"/>
<path d="M1390 732 c0 -12 19 -26 26 -19 2 2 -2 10 -11 17 -9 8 -15 8 -15 2z"/>
<path d="M1450 731 c0 -5 5 -13 10 -16 6 -3 10 -2 10 4 0 5 -4 13 -10 16 -5 3
-10 2 -10 -4z"/>
<path d="M1073 716 c4 -10 7 -22 7 -27 0 -6 5 -7 10 -4 6 3 10 -1 10 -9 0 -8
4 -17 9 -20 17 -11 -2 37 -22 57 -17 17 -19 18 -14 3z"/>
<path d="M1370 713 c0 -13 29 -38 35 -31 3 3 -4 13 -15 23 -11 10 -20 13 -20
8z"/>
<path d="M1431 715 c0 -5 6 -19 14 -29 9 -12 15 -15 15 -7 0 11 3 11 18 0 15
-13 16 -12 3 4 -8 9 -16 15 -19 12 -3 -2 -11 3 -18 13 -7 9 -13 13 -13 7z"/>
<path d="M1740 716 c0 -2 7 -6 15 -10 8 -3 15 -1 15 4 0 6 -7 10 -15 10 -8 0
-15 -2 -15 -4z"/>
<path d="M1816 707 c3 -10 9 -15 12 -12 3 3 0 11 -7 18 -10 9 -11 8 -5 -6z"/>
<path d="M1600 701 c0 -6 9 -11 20 -11 17 0 43 -38 55 -82 2 -5 4 -11 5 -15 1
-5 2 -11 1 -15 0 -5 5 -8 12 -9 6 0 20 -2 29 -4 23 -4 33 12 18 30 -9 10 -9
15 -1 15 19 0 43 -47 36 -72 -5 -15 -4 -20 3 -13 5 6 13 28 16 50 4 25 3 35
-2 26 -11 -16 -27 3 -17 20 4 6 -4 22 -16 36 l-24 26 24 -13 c19 -10 22 -9 19
1 -7 21 -40 36 -45 22 -3 -7 -14 -13 -26 -13 -19 0 -18 -2 8 -16 17 -8 37 -23
45 -32 14 -14 13 -15 -2 -3 -14 10 -18 9 -27 -8 -7 -13 -8 -22 -1 -26 19 -12
10 -24 -12 -16 -23 8 -37 31 -19 31 21 0 11 25 -21 53 -23 20 -27 27 -13 22
15 -4 17 -3 9 5 -16 16 -74 24 -74 11z"/>
<path d="M1941 696 c-8 -9 -11 -19 -7 -23 9 -9 29 13 24 27 -2 8 -8 7 -17 -4z"/>
<path d="M1853 689 c-6 -6 -9 -18 -6 -25 3 -8 -2 -25 -11 -39 -9 -14 -12 -25
-6 -25 13 0 42 66 38 87 -2 11 -6 11 -15 2z"/>
<path d="M1425 660 c6 -30 16 -40 12 -12 -2 12 -6 24 -10 28 -3 4 -4 -4 -2
-16z"/>
<path d="M1500 671 c0 -6 10 -26 21 -46 15 -25 25 -33 32 -26 7 7 1 21 -17 46
-28 36 -36 42 -36 26z"/>
<path d="M1570 661 c0 -5 11 -16 25 -25 30 -20 31 -16 6 12 -19 23 -31 28 -31
13z"/>
<path d="M1906 653 c-10 -10 -7 -43 4 -43 5 0 14 9 19 19 8 14 7 20 -3 24 -8
3 -17 3 -20 0z"/>
<path d="M1951 644 c0 -11 3 -14 6 -6 3 7 2 16 -1 19 -3 4 -6 -2 -5 -13z"/>
<path d="M2200 651 c0 -5 5 -13 10 -16 6 -3 10 -2 10 4 0 5 -4 13 -10 16 -5 3
-10 2 -10 -4z"/>
<path d="M1157 644 c-12 -13 -8 -22 10 -20 9 2 19 9 21 17 3 12 2 12 -6 0 -7
-9 -11 -10 -13 -2 -3 7 -8 9 -12 5z"/>
<path d="M2600 643 c0 -7 -7 -13 -15 -13 -18 0 -20 -47 -4 -70 8 -11 9 -5 4
25 -3 24 -2 35 3 27 6 -10 13 -8 27 8 10 11 15 23 12 27 -4 3 -7 0 -7 -8 0
-11 -2 -11 -10 1 -6 10 -10 11 -10 3z"/>
<path d="M1385 629 c-4 -6 -5 -12 -2 -15 2 -3 7 2 10 11 7 17 1 20 -8 4z"/>
<path d="M1472 604 c10 -10 20 -16 22 -13 3 3 -5 11 -17 18 -21 13 -21 12 -5
-5z"/>
<path d="M2240 610 c-13 -9 -13 -10 0 -9 8 0 24 4 35 9 20 9 20 9 0 9 -11 0
-27 -4 -35 -9z"/>
<path d="M1141 602 c-1 -7 -5 -10 -11 -7 -5 3 -10 -1 -10 -10 0 -9 3 -14 8
-12 4 3 8 -11 9 -31 1 -19 6 -38 11 -41 4 -3 11 -14 15 -23 3 -10 12 -15 21
-12 9 3 21 -6 32 -25 23 -40 37 -40 18 -2 -8 17 -23 33 -33 36 -23 7 -39 38
-50 95 -5 25 -9 39 -10 32z"/>
<path d="M1885 590 c-3 -5 -1 -10 4 -10 6 0 11 5 11 10 0 6 -2 10 -4 10 -3 0
-8 -4 -11 -10z"/>
<path d="M1925 567 c-10 -18 -26 -37 -34 -44 -9 -6 -13 -15 -9 -19 9 -9 38 14
38 31 0 7 7 18 15 25 13 11 15 8 15 -16 1 -23 2 -26 10 -13 7 12 6 25 -3 42
l-13 26 -19 -32z"/>
<path d="M2020 589 c0 -5 5 -7 10 -4 6 3 10 8 10 11 0 2 -4 4 -10 4 -5 0 -10
-5 -10 -11z"/>
<path d="M2291 587 c-10 -13 -8 -16 11 -19 l23 -5 -25 -11 c-24 -10 -24 -11
-2 -11 12 -1 22 4 22 9 0 6 7 10 16 10 8 0 12 -4 9 -10 -3 -5 0 -10 9 -10 8 0
16 -5 18 -12 2 -6 10 -8 16 -4 9 5 6 13 -12 27 -13 10 -30 19 -36 19 -7 0 -18
7 -24 16 -11 14 -13 14 -25 1z"/>
<path d="M1384 575 c26 -19 42 -19 26 0 -7 8 -20 15 -29 15 -13 -1 -13 -3 3
-15z"/>
<path d="M1510 579 c0 -5 -4 -8 -8 -5 -4 2 -9 -5 -9 -16 -2 -19 -1 -20 11 -2
12 16 16 17 32 4 16 -14 16 -13 5 8 -12 23 -31 30 -31 11z"/>
<path d="M1629 581 c9 -6 10 -11 2 -15 -14 -9 -14 -26 0 -26 5 0 7 6 4 13 -4
6 -1 5 7 -3 12 -14 68 -25 68 -13 0 2 -13 9 -30 14 -16 6 -30 17 -30 25 0 8
-8 14 -17 14 -14 0 -15 -2 -4 -9z"/>
<path d="M1856 565 c-3 -8 -1 -15 4 -15 13 0 22 18 11 24 -5 3 -11 -1 -15 -9z"/>
<path d="M1273 535 c0 -22 2 -30 4 -17 2 12 2 30 0 40 -3 9 -5 -1 -4 -23z"/>
<path d="M2116 561 c-3 -5 7 -17 22 -26 27 -18 27 -18 9 2 -14 16 -15 22 -5
26 9 4 7 6 -4 6 -9 1 -19 -3 -22 -8z"/>
<path d="M1340 556 c0 -2 7 -7 16 -10 8 -3 12 -2 9 4 -6 10 -25 14 -25 6z"/>
<path d="M1981 525 c-20 -24 -21 -45 -3 -45 8 0 42 53 42 64 0 13 -18 4 -39
-19z"/>
<path d="M2322 514 c9 -9 21 -15 27 -13 6 2 -2 10 -17 17 -25 11 -25 11 -10
-4z"/>
<path d="M2445 520 c-3 -5 -1 -10 4 -10 6 0 11 5 11 10 0 6 -2 10 -4 10 -3 0
-8 -4 -11 -10z"/>
<path d="M1217 513 c-4 -3 -7 -11 -7 -17 0 -6 5 -5 12 2 6 6 9 14 7 17 -3 3
-9 2 -12 -2z"/>
<path d="M1720 510 c0 -5 7 -10 16 -10 8 0 12 5 9 10 -3 6 -10 10 -16 10 -5 0
-9 -4 -9 -10z"/>
<path d="M2081 498 c-1 -9 6 -24 15 -32 21 -22 31 -20 12 2 -9 9 -18 24 -21
32 -4 12 -6 12 -6 -2z"/>
<path d="M2120 490 c0 -6 7 -13 15 -16 8 -4 12 -10 9 -15 -3 -5 1 -10 8 -10 7
-1 23 -3 36 -4 31 -3 27 2 -14 20 -19 8 -33 19 -29 25 3 5 -1 10 -9 10 -9 0
-16 -5 -16 -10z"/>
<path d="M1299 467 c29 -32 31 -32 31 -10 0 9 -3 13 -7 10 -3 -4 -16 1 -27 10
-15 13 -14 10 3 -10z"/>
<path d="M1401 473 c7 -12 15 -20 18 -17 3 2 -3 12 -13 22 -17 16 -18 16 -5
-5z"/>
<path d="M1260 471 c0 -6 4 -13 10 -16 6 -3 7 1 4 9 -7 18 -14 21 -14 7z"/>
<path d="M2000 476 c0 -2 7 -9 15 -16 9 -7 15 -8 15 -2 0 5 -7 12 -15 16 -8 3
-15 4 -15 2z"/>
<path d="M1366 462 c-3 -4 4 -9 15 -9 23 -2 25 3 4 10 -8 4 -16 3 -19 -1z"/>
<path d="M1485 442 c2 -9 4 -20 4 -24 1 -5 6 -8 12 -8 8 0 8 4 0 14 -9 11 -9
15 1 18 8 3 7 6 -4 10 -11 5 -15 2 -13 -10z"/>
<path d="M2110 430 c-9 -6 -10 -10 -3 -10 6 0 15 5 18 10 8 12 4 12 -15 0z"/>
<path d="M1700 401 c0 -5 11 -16 24 -25 30 -19 48 -2 20 19 -22 16 -44 19 -44
6z"/>
<path d="M2151 374 c0 -11 3 -14 6 -6 3 7 2 16 -1 19 -3 4 -6 -2 -5 -13z"/>
<path d="M2250 375 c0 -9 9 -15 21 -15 18 0 19 2 9 15 -7 8 -16 15 -21 15 -5
0 -9 -7 -9 -15z"/>
<path d="M1235 370 c-16 -7 -17 -9 -3 -9 9 -1 20 4 23 9 7 11 7 11 -20 0z"/>
<path d="M1274 339 c-19 -22 -19 -22 3 -10 24 12 39 31 25 31 -5 0 -17 -10
-28 -21z"/>
<path d="M1730 336 c0 -8 7 -17 16 -20 19 -7 47 12 38 25 -9 15 -54 10 -54 -5z"/>
<path d="M2297 328 c18 -20 26 -19 18 4 -3 8 -12 15 -20 15 -13 0 -12 -4 2
-19z"/>
<path d="M1221 321 c-7 -5 -12 -14 -10 -20 2 -6 10 -2 17 9 14 22 13 23 -7 11z"/>
<path d="M1125 280 c-3 -5 -1 -10 4 -10 6 0 11 5 11 10 0 6 -2 10 -4 10 -3 0
-8 -4 -11 -10z"/>
<path d="M2248 263 c5 -21 7 -23 10 -9 2 10 0 22 -6 28 -6 6 -7 0 -4 -19z"/>
<path d="M1619 279 c-4 -25 -2 -79 4 -79 4 0 7 13 7 30 0 24 3 28 18 23 18 -7
17 -5 -10 16 -10 7 -18 12 -19 10z"/>
<path d="M2279 268 c0 -2 -1 -22 -2 -45 0 -24 -5 -43 -10 -43 -4 0 -6 -4 -3
-9 4 -5 2 -21 -3 -34 -8 -19 -6 -27 4 -31 8 -3 12 0 9 7 -2 7 2 34 10 61 10
32 12 55 6 66 -5 10 -6 20 -3 24 3 3 3 6 0 6 -4 0 -7 -1 -8 -2z"/>
<path d="M2321 250 c0 -8 4 -22 9 -30 12 -18 12 -2 0 25 -6 13 -9 15 -9 5z"/>
<path d="M1170 222 c0 -12 19 -26 26 -19 2 2 -2 10 -11 17 -9 8 -15 8 -15 2z"/>
<path d="M1801 214 c0 -11 3 -14 6 -6 3 7 2 16 -1 19 -3 4 -6 -2 -5 -13z"/>
<path d="M1091 194 c-15 -17 -29 -24 -42 -21 -26 7 -24 -2 3 -12 19 -7 27 -3
45 22 13 17 23 32 23 34 0 7 -8 1 -29 -23z"/>
<path d="M2340 190 c0 -5 5 -10 11 -10 5 0 7 5 4 10 -3 6 -8 10 -11 10 -2 0
-4 -4 -4 -10z"/>
<path d="M977 148 c-3 -13 -9 -34 -13 -47 -6 -21 -5 -22 13 -12 11 5 23 8 26
5 3 -3 2 11 -3 31 -10 46 -16 52 -23 23z"/>
<path d="M2331 154 c0 -11 3 -14 6 -6 3 7 2 16 -1 19 -3 4 -6 -2 -5 -13z"/>
<path d="M937 131 c-22 -37 -23 -59 -3 -42 17 14 39 71 28 71 -4 0 -15 -13
-25 -29z"/>
<path d="M1497 154 c-4 -4 -7 -14 -7 -23 0 -11 3 -12 11 -4 6 6 10 16 7 23 -2
6 -7 8 -11 4z"/>
<path d="M2156 144 c-3 -9 -6 -23 -6 -32 0 -14 4 -13 21 5 12 11 18 26 15 32
-10 16 -23 14 -30 -5z"/>
<path d="M896 128 c-20 -28 -20 -35 -2 -35 8 0 14 3 13 6 -1 3 4 16 11 29 16
29 -2 29 -22 0z"/>
<path d="M2196 125 c-3 -8 -1 -15 4 -15 6 0 10 7 10 15 0 8 -2 15 -4 15 -2 0
-6 -7 -10 -15z"/>
<path d="M2326 112 c-3 -5 1 -9 9 -9 8 0 12 4 9 9 -3 4 -7 8 -9 8 -2 0 -6 -4
-9 -8z"/>
<path d="M1613 94 c4 -4 0 -18 -8 -31 -9 -13 -13 -24 -10 -24 20 -5 31 -3 37
6 13 18 9 43 -9 49 -10 4 -14 4 -10 0z"/>
<path d="M1576 74 c-11 -28 -6 -39 9 -20 8 11 15 23 15 28 0 14 -18 9 -24 -8z"/>
<path d="M1781 44 c0 -11 3 -14 6 -6 3 7 2 16 -1 19 -3 4 -6 -2 -5 -13z"/>
</g>
</svg>
