<?xml version="1.0" standalone="no"?>
<!DOCTYPE svg PUBLIC "-//W3C//DTD SVG 20010904//EN"
 "http://www.w3.org/TR/2001/REC-SVG-20010904/DTD/svg10.dtd">
<svg version="1.0" xmlns="http://www.w3.org/2000/svg"
 width="300.000000pt" height="300.000000pt" viewBox="0 0 300.000000 300.000000"
 preserveAspectRatio="xMidYMid meet">
<metadata>
Created by potrace 1.10, written by Peter Selinger 2001-2011
</metadata>
<g transform="translate(0.000000,300.000000) scale(0.050000,-0.050000)"
fill="#000000" stroke="none">
<path d="M1630 5657 c-59 -33 -151 -121 -173 -167 -11 -22 8 -10 43 27 35 37
68 62 75 55 6 -6 -5 -30 -25 -52 -24 -26 -37 -73 -38 -135 -1 -60 -11 -96 -27
-97 -48 -5 -50 -8 -22 -42 23 -29 23 -31 -3 -18 -16 9 -1 -8 35 -37 71 -59 86
-97 30 -77 -19 7 -29 6 -22 -2 7 -8 48 -18 90 -22 57 -5 68 -2 42 13 -40 22
-46 68 -12 89 16 10 20 4 12 -15 -6 -17 -1 -31 12 -31 41 -2 83 -16 95 -33 7
-9 18 -2 25 16 7 19 4 28 -7 21 -11 -7 -20 -2 -20 10 0 12 -10 16 -23 8 -14
-8 -18 -5 -10 7 7 12 2 26 -12 32 -14 5 25 4 85 -2 61 -6 116 -20 123 -30 17
-27 43 19 26 46 -7 12 -25 17 -39 12 -36 -14 -99 36 -82 64 22 35 72 27 74
-12 1 -24 9 -17 26 21 22 50 28 53 51 25 19 -23 20 -31 2 -31 -13 0 -20 -11
-15 -25 5 -14 20 -23 33 -20 26 6 13 -24 -33 -78 -19 -22 -49 -30 -86 -24 -49
8 -55 3 -46 -32 6 -23 17 -41 26 -41 8 0 10 -23 5 -51 -7 -35 -20 -48 -39 -40
-16 6 -34 11 -39 11 -5 0 -4 9 2 19 7 10 -8 30 -33 43 -42 22 -43 21 -19 -9
25 -30 21 -33 -40 -33 -37 0 -80 -9 -95 -18 -17 -11 -58 -8 -105 9 -42 15 -77
22 -77 16 0 -7 -16 0 -35 15 -29 23 -29 20 3 -17 20 -24 55 -50 76 -56 27 -9
36 -25 29 -52 -7 -28 -3 -34 14 -20 27 22 113 -6 113 -36 0 -19 -11 -23 -85
-29 -14 -1 -32 -11 -40 -22 -8 -11 -15 -6 -15 14 0 19 -19 36 -45 40 -26 3
-48 23 -52 46 -17 89 -243 108 -243 21 0 -62 29 -79 129 -75 52 1 68 -3 45
-13 -35 -14 -35 -16 3 -50 57 -52 182 -78 196 -41 13 32 79 38 97 8 14 -22
-65 -134 -86 -123 -7 3 -17 -5 -21 -18 -5 -14 1 -19 14 -11 15 9 23 -4 23 -37
0 -62 -24 -64 -113 -9 -70 43 -141 39 -115 -7 8 -14 7 -18 -2 -10 -24 21 -90
-44 -90 -89 0 -52 54 -68 97 -28 47 42 67 40 130 -9 93 -73 141 -47 153 81 11
119 12 120 116 275 59 88 75 101 100 80 25 -21 28 -18 16 20 -8 25 -6 45 4 45
34 0 45 -243 17 -351 -54 -202 -127 -269 -294 -269 -58 0 -100 -6 -93 -13 7
-7 -15 -27 -50 -45 -134 -68 -129 -162 8 -162 104 1 116 9 161 105 36 79 60
91 103 50 22 -20 21 -35 -1 -89 -33 -79 -33 -83 -2 -79 55 9 75 39 75 112 0
95 33 111 131 61 110 -56 141 -109 101 -170 -38 -58 -18 -196 30 -206 44 -8
109 140 83 187 -40 71 274 348 380 335 89 -12 155 -54 155 -98 0 -15 20 -37
45 -51 40 -21 42 -20 18 9 -15 18 -23 44 -19 57 9 26 96 -102 96 -140 0 -13 8
-23 17 -23 10 0 23 -35 30 -77 15 -93 120 -164 170 -115 49 49 49 245 -1 291
-52 49 -68 40 -33 -17 21 -32 21 -46 1 -66 -18 -18 -24 -18 -24 0 0 13 -8 24
-18 24 -10 0 -16 -11 -15 -25 5 -39 -36 -41 -44 -2 -4 19 9 47 30 62 20 14 35
31 32 36 -16 29 1 49 44 49 59 0 86 35 40 53 -19 7 -40 1 -50 -15 -14 -22 -29
-23 -78 -5 -33 13 -79 19 -100 13 -23 -6 -84 13 -140 42 -60 31 -133 52 -182
52 -53 0 -77 8 -68 21 7 12 25 17 41 11 15 -6 57 2 93 17 78 33 204 -24 182
-81 -9 -22 3 -28 51 -24 34 2 62 11 62 18 0 30 87 33 151 6 41 -17 69 -20 69
-8 0 11 9 20 21 20 14 0 14 -12 0 -38 -16 -29 -9 -49 29 -90 116 -125 184 68
79 225 -60 91 -71 134 -78 293 -5 119 -47 234 -96 262 -19 11 -20 8 -2 -12 25
-26 15 -80 -15 -80 -9 0 -14 28 -10 62 6 51 -3 68 -55 100 -61 36 -127 55 -83
23 47 -35 34 -72 -14 -41 -25 17 -62 28 -81 25 -19 -3 -30 3 -24 13 6 10 -3
18 -21 18 -20 0 -27 -9 -18 -25 11 -19 8 -20 -12 -1 -32 29 -143 11 -166 -27
-9 -15 -35 -27 -57 -27 -35 0 -38 5 -17 30 23 28 14 39 -26 32 -10 -2 -11 6
-4 18 7 11 22 15 32 9 11 -7 31 -3 44 7 33 28 292 39 301 14 4 -13 33 -10 80
6 40 15 82 21 94 13 12 -7 34 4 49 24 23 32 31 33 54 9 18 -20 19 -24 1 -14
-14 8 -25 5 -25 -7 0 -11 9 -21 20 -21 11 0 20 -9 20 -20 0 -11 -13 -20 -30
-20 -16 0 -30 -10 -30 -21 0 -12 -11 -15 -25 -6 -17 10 -16 4 2 -19 15 -18 37
-28 48 -21 12 7 15 4 8 -8 -19 -30 38 -69 91 -62 49 7 74 89 42 145 -58 103
-326 212 -326 133 0 -11 13 -15 29 -9 16 6 45 2 65 -10 30 -18 26 -21 -27 -18
-35 2 -76 -7 -92 -20 -20 -16 -46 -19 -77 -7 l-47 17 46 15 c25 8 42 19 36 24
-5 6 -31 -1 -56 -15 -54 -29 -136 -37 -150 -14 -5 9 -27 16 -49 16 -22 0 -35
-8 -29 -18 6 -9 -1 -27 -14 -38 -19 -15 -26 0 -27 68 -3 94 -34 148 -84 148
-25 0 -24 -7 7 -41 30 -33 33 -49 15 -78 -17 -27 -17 -42 0 -61 19 -20 18 -23
0 -12 -14 7 -44 -6 -67 -29 -28 -28 -54 -37 -76 -27 -18 8 -40 13 -48 11 -8
-2 -15 29 -15 68 0 39 -15 93 -34 122 -32 50 -32 51 15 44 38 -5 52 -22 61
-77 7 -38 14 -57 15 -42 2 16 9 23 16 16 13 -14 65 43 66 72 1 9 -15 11 -36 5
-22 -7 -50 3 -71 27 -36 39 -63 43 -109 14 -16 -10 -33 -9 -40 2 -20 31 -102
69 -122 57 -10 -7 -23 5 -30 26 -24 74 -106 132 -144 101 -23 -18 -30 -19 -20
-3 19 32 -41 33 -97 2z m197 -46 c14 -37 -26 -51 -75 -26 -30 16 -32 23 -10
37 41 26 72 22 85 -11z m-67 -90 c0 -11 29 -15 65 -9 l65 11 -49 -43 c-48 -42
-33 -82 29 -78 11 1 9 6 -5 11 -34 14 -32 47 3 47 16 0 33 11 39 25 5 14 10 7
11 -15 2 -54 -20 -84 -68 -94 -22 -5 -38 -20 -34 -34 3 -15 -10 -22 -30 -18
-28 5 -35 24 -34 81 2 41 -4 75 -13 75 -9 0 -15 -36 -14 -80 5 -115 -34 -145
-96 -74 -61 70 -61 77 3 152 49 59 128 85 128 43z m466 -447 c41 0 80 -7 86
-16 26 -44 18 -309 -13 -401 -18 -54 -29 -120 -24 -148 6 -28 0 -49 -13 -49
-12 0 -22 14 -22 30 0 35 -7 35 -99 2 -44 -16 -60 -30 -45 -40 13 -8 24 -50
24 -93 0 -97 14 -98 100 -9 84 86 114 90 66 9 -45 -76 -204 -202 -245 -195
-41 8 -99 182 -100 300 -1 87 -28 145 -45 95 -4 -12 -7 14 -7 58 0 44 6 76 12
72 7 -4 12 44 11 107 -2 190 88 323 198 290 22 -7 74 -12 116 -12z m390 -1
c28 4 41 -1 34 -13 -20 -32 -124 -24 -137 10 -9 24 -4 27 22 13 19 -10 56 -15
81 -10z m-167 -14 c18 15 34 11 57 -15 31 -34 29 -36 -37 -41 -60 -4 -69 1
-67 41 0 25 6 34 12 20 7 -18 17 -20 35 -5z m411 -8 c0 -12 8 -9 18 6 12 19
19 13 27 -25 11 -58 -8 -67 -45 -22 -14 17 -42 30 -62 30 -21 0 -38 7 -38 16
0 9 23 16 50 16 28 0 50 -9 50 -21z m-124 -92 c37 -22 76 -34 88 -26 14 8 16
4 6 -13 -10 -17 -6 -22 12 -16 86 30 164 -216 87 -272 -17 -12 -43 -58 -59
-102 l-28 -80 -1 95 c-1 57 8 95 21 95 12 0 17 13 11 30 -6 16 7 47 29 68 30
28 35 42 16 53 -14 9 -19 7 -11 -6 14 -23 -29 -45 -88 -45 -49 0 -86 70 -70
133 11 44 7 48 -54 44 -36 -3 -83 6 -105 19 -22 12 -31 23 -20 23 11 0 33 -8
49 -18 16 -10 37 -13 48 -7 10 7 -3 24 -29 38 -44 24 -44 27 -8 27 22 1 70
-17 106 -40z m-230 -126 c7 7 27 1 44 -13 16 -14 30 -18 30 -10 0 8 14 4 30
-10 21 -17 30 -18 30 -2 0 12 10 22 21 22 12 0 15 -10 7 -23 -10 -16 -1 -20
28 -12 25 6 46 0 52 -16 7 -19 -12 -32 -59 -41 -82 -15 -89 -24 -93 -117 -3
-81 -15 -84 -126 -34 -128 58 -182 191 -62 153 176 -57 226 -13 77 68 -25 13
-45 39 -44 58 0 32 2 32 27 -1 14 -19 32 -29 38 -22z m243 -214 c-17 -34 -28
-81 -23 -105 l9 -44 15 45 c22 68 50 54 50 -25 0 -81 -22 -88 -79 -26 -52 55
-52 97 0 163 56 71 67 67 28 -8z m231 -118 c0 -63 -6 -77 -30 -68 -33 12 -36
33 -17 102 19 72 47 52 47 -34z m109 57 c-8 -12 -5 -28 6 -35 62 -40 47 -100
-24 -97 -71 4 -89 20 -50 45 11 7 33 2 49 -11 23 -19 24 -15 4 28 -13 29 -36
52 -50 52 -15 0 -21 9 -14 20 7 11 30 20 52 20 25 0 35 -9 27 -22z m-1189
-183 c0 -3 8 -34 19 -70 21 -76 14 -79 -76 -24 -55 33 -62 46 -42 70 19 24 99
43 99 24z m-374 -128 c18 -17 -80 -107 -117 -107 -45 0 -34 30 21 60 28 15 50
34 50 43 0 20 28 22 46 4z"/>
<path d="M2107 4910 c-6 -16 -19 -25 -28 -19 -10 6 -36 -1 -58 -15 -40 -25
-40 -25 3 -48 37 -20 49 -17 78 19 l35 43 21 -55 c23 -59 62 -75 62 -24 0 17
7 27 16 22 9 -6 29 -2 45 8 20 13 21 18 4 19 -14 0 -25 10 -25 21 0 12 11 15
25 7 15 -8 18 -7 8 4 -22 24 -99 23 -118 -2 -8 -11 -15 -5 -15 15 0 43 -37 46
-53 5z"/>
<path d="M2031 4728 c-36 -35 -24 -72 18 -56 16 6 27 29 25 50 -3 46 -3 46
-43 6z"/>
<path d="M2128 4690 c-8 -33 -26 -50 -53 -50 -36 0 -35 -4 14 -43 66 -52 143
-9 92 52 -22 26 -20 31 7 31 41 0 42 32 0 48 -45 17 -46 17 -60 -38z"/>
<path d="M1232 5374 c-77 -62 -43 -194 50 -194 21 0 37 -7 36 -15 -6 -37 4
-65 22 -65 11 0 20 15 20 32 0 27 5 28 30 8 43 -36 58 -12 28 43 -14 26 -24
71 -21 101 7 108 -81 156 -165 90z"/>
<path d="M2723 4130 c12 -44 30 -97 41 -117 11 -20 22 -92 25 -160 3 -68 13
-170 21 -228 l16 -106 -73 12 c-53 8 -73 4 -74 -15 -2 -115 -159 226 -159 347
0 80 -200 77 -247 -4 -23 -39 -61 -65 -114 -79 -43 -12 -79 -28 -79 -37 0 -82
-196 8 -247 114 -52 109 -76 119 -133 59 l-43 -46 -58 65 c-51 57 -59 60 -59
25 0 -22 10 -40 22 -40 12 0 17 -15 10 -32 -9 -23 -4 -29 16 -22 42 17 93
-100 70 -161 -35 -94 -21 -166 45 -228 77 -72 107 -241 50 -283 -18 -13 -103
-127 -189 -254 -148 -218 -161 -230 -226 -232 -69 -1 -113 -19 -268 -107 l-80
-46 60 54 60 54 -60 -10 c-103 -17 -170 -51 -170 -85 0 -24 13 -30 49 -23 28
5 45 2 40 -7 -22 -34 28 -33 109 3 147 66 246 38 166 -46 -49 -53 -57 -95 -18
-95 29 0 96 68 184 189 32 43 124 147 204 230 81 83 151 174 158 201 17 77 48
146 60 134 6 -6 1 -30 -12 -53 -28 -54 -18 -153 15 -146 14 3 25 -10 25 -29 0
-26 -5 -29 -24 -10 -34 34 -47 30 -50 -15 -3 -32 7 -37 57 -31 l60 7 -48 -63
c-26 -35 -55 -82 -63 -103 -12 -34 -17 -35 -35 -10 -15 21 -17 14 -8 -29 11
-46 7 -55 -18 -45 -47 18 -61 -72 -47 -297 2 -33 -4 -78 -12 -100 -14 -37 -13
-37 13 -6 25 30 27 22 22 -68 -3 -57 -14 -108 -23 -115 -9 -6 -33 -33 -53 -61
-20 -28 -31 -35 -24 -15 21 64 -3 36 -45 -50 -85 -176 -125 -342 -136 -555
-13 -283 48 -468 110 -332 21 48 24 49 84 19 33 -17 104 -37 156 -44 89 -13
125 -52 78 -85 -10 -7 10 -11 44 -10 76 3 78 30 7 102 -51 52 -52 54 -10 41
53 -16 54 -11 17 78 -25 59 -25 73 2 111 20 28 27 67 20 111 -6 38 -3 74 8 80
10 6 13 21 7 31 -7 11 -4 31 6 44 11 13 20 59 22 103 1 43 13 85 25 92 16 10
19 43 11 96 -8 46 -5 86 7 93 11 7 14 -2 7 -22 -9 -23 -5 -31 15 -24 32 11 26
98 -9 121 -23 14 -140 25 -228 20 -54 -3 -58 32 -13 118 17 34 22 56 11 49
-26 -16 -39 63 -21 132 11 40 8 51 -12 43 -19 -7 -24 2 -17 30 7 24 22 36 39
29 17 -6 28 3 28 22 0 18 10 30 23 27 12 -3 25 6 28 21 3 14 2 16 -4 6 -5 -11
-22 -15 -36 -10 -15 6 -33 2 -40 -10 -7 -11 -24 -16 -38 -10 -35 13 -17 128
19 128 16 0 28 18 28 40 0 22 7 40 16 40 20 0 95 163 87 188 -3 10 9 7 27 -8
29 -24 30 -22 8 27 -13 29 -32 53 -41 53 -9 0 -17 10 -17 21 0 12 9 16 20 9
28 -18 25 17 -5 47 -20 20 -18 23 9 12 30 -11 32 -5 15 54 -31 108 -25 218 11
204 19 -7 30 0 30 20 0 16 17 36 38 42 36 12 36 17 8 73 l-30 60 -37 -44 c-21
-24 -33 -51 -27 -61 23 -38 -16 -59 -52 -27 -35 31 -34 121 2 99 9 -6 35 26
58 70 22 45 50 81 62 81 30 0 159 -142 147 -161 -20 -33 32 -40 75 -10 25 17
53 31 63 31 36 0 -34 -61 -137 -120 -58 -33 -118 -75 -133 -93 -36 -44 -37
-166 -1 -152 16 6 23 28 16 53 -7 28 6 57 37 87 l46 45 12 -45 c23 -83 13
-128 -35 -173 -51 -48 -81 -122 -49 -122 10 0 26 20 36 45 17 41 19 42 19 5 2
-62 -29 -97 -76 -85 -23 6 -37 3 -31 -7 39 -62 139 12 124 91 -6 33 4 62 28
84 41 37 48 109 17 167 -18 34 7 80 31 56 15 -15 26 -236 11 -236 -7 0 -15
-16 -16 -35 -6 -73 -20 -106 -57 -134 -22 -17 -31 -30 -22 -30 10 -1 44 22 77
49 33 28 69 44 81 37 14 -9 17 -1 9 21 -9 21 -6 29 7 21 12 -7 56 22 98 64
156 157 200 178 162 80 -9 -24 -18 -52 -21 -63 -10 -47 -82 -170 -99 -170 -10
0 -17 -18 -16 -40 4 -51 61 -44 76 10 8 25 26 38 50 35 22 -3 54 -7 73 -9 40
-5 64 -79 32 -98 -27 -17 -98 23 -84 46 6 9 0 16 -12 16 -13 0 -18 -16 -12
-35 6 -19 13 -64 16 -100 4 -63 56 -96 56 -36 0 37 100 138 117 119 7 -7 2
-17 -12 -22 -14 -5 -25 -36 -25 -68 0 -39 -10 -58 -31 -58 -35 0 -78 -36 -92
-78 -7 -22 -15 -21 -41 4 -17 18 -36 27 -43 21 -6 -7 -7 23 -2 66 8 63 6 69
-10 32 -26 -59 -34 -57 -81 20 -22 36 -43 61 -46 55 -4 -5 -22 5 -39 23 -18
18 -28 38 -21 45 23 22 46 13 46 -19 0 -17 9 -26 20 -19 12 7 15 22 8 34 -7
11 -1 28 14 38 84 53 -84 8 -212 -57 -127 -64 -149 -83 -148 -125 1 -34 5 -40
14 -20 27 58 111 51 99 -8 -5 -29 -2 -52 6 -52 25 0 35 47 18 81 -9 17 -8 44
2 60 13 22 21 13 31 -36 12 -58 16 -62 38 -32 19 26 27 28 40 7 24 -39 9 -353
-20 -425 -8 -20 -5 -35 6 -35 31 0 43 49 57 232 11 146 47 262 47 152 0 -22
13 -50 30 -64 25 -21 30 -18 30 18 0 23 10 42 22 42 12 0 19 -29 15 -69 -3
-38 0 -75 8 -83 8 -7 -4 -38 -25 -68 -21 -30 -34 -60 -28 -66 7 -6 6 -30 -2
-54 -13 -41 -15 -41 -40 -6 -25 34 -28 33 -48 -19 -12 -30 -35 -55 -52 -55
-35 0 -152 -111 -135 -128 6 -7 24 -1 40 13 25 20 28 17 21 -16 -5 -21 -18
-37 -30 -35 -14 3 -19 -24 -14 -74 4 -44 -3 -104 -16 -135 -12 -30 -21 -62
-19 -70 1 -8 -11 -65 -27 -128 -28 -106 -27 -173 2 -100 7 18 24 33 39 33 30
0 69 61 68 104 0 14 -24 -1 -52 -34 -50 -58 -51 -58 -37 -10 7 28 24 92 37
144 13 52 33 104 45 116 32 32 20 -111 -12 -150 -18 -21 -18 -30 -2 -30 30 0
80 120 95 230 15 104 19 119 43 164 13 24 24 60 24 81 0 21 14 38 31 38 20 0
26 -10 18 -31 -8 -18 -15 -45 -18 -62 -2 -16 -9 -43 -15 -60 -36 -92 -104
-340 -110 -398 -10 -92 -41 -144 -82 -138 -28 5 -37 -20 -52 -149 -10 -85 -27
-155 -37 -155 -11 0 -14 30 -6 70 20 110 -30 96 -57 -15 -10 -42 -5 -55 19
-55 19 0 26 -9 17 -23 -10 -16 -4 -20 19 -11 35 14 41 -2 20 -58 -13 -33 -15
-32 -29 3 -10 25 -16 -7 -17 -84 -1 -141 11 -187 51 -187 25 0 36 -23 31 -62
0 -7 37 -5 83 4 46 9 89 17 95 17 45 4 142 129 143 186 1 36 9 80 19 99 10 19
10 38 -1 45 -38 23 -37 126 2 116 20 -5 36 -1 36 9 0 11 14 19 30 19 17 0 30
-11 30 -24 0 -14 14 -30 30 -36 17 -7 28 -23 25 -37 -3 -15 10 -23 32 -20 22
4 32 -2 24 -15 -7 -11 -27 -21 -43 -21 -17 0 -25 -8 -19 -18 6 -10 0 -23 -14
-29 -16 -6 -17 -10 -2 -11 37 -3 267 201 253 224 -7 11 -2 14 10 7 12 -8 51 4
88 26 112 69 235 40 183 -43 -9 -14 -13 -42 -10 -61 3 -19 -3 -35 -15 -35 -29
0 -152 -117 -137 -131 7 -7 38 16 70 52 32 36 70 61 84 56 28 -9 16 -25 -79
-103 -111 -92 -124 31 -14 131 71 64 44 75 -33 14 -29 -23 -53 -33 -53 -22 0
12 9 26 20 33 11 7 20 23 20 36 0 13 -25 -2 -55 -34 -37 -38 -47 -60 -30 -66
30 -11 34 -66 5 -66 -11 0 -20 9 -20 20 0 21 -108 5 -167 -25 -21 -10 -84 -66
-140 -124 -157 -161 -247 -209 -439 -233 -226 -29 -439 25 -445 112 0 11 -13
17 -27 14 -14 -3 -38 4 -52 16 -41 34 -57 -39 -17 -83 155 -172 496 -196 806
-58 142 63 161 62 161 -9 0 -63 88 -165 175 -201 97 -40 102 -36 23 16 -140
95 -207 300 -131 404 26 36 48 -44 59 -214 4 -51 110 -143 206 -179 84 -31
265 -22 213 11 -14 8 -25 24 -25 34 0 28 55 23 67 -6 5 -14 11 -6 11 17 1 23
23 51 49 63 26 12 62 54 81 93 45 96 56 95 184 -22 26 -24 48 -34 48 -23 0 15
8 16 25 1 45 -37 166 -38 143 -1 -9 14 -5 18 9 9 53 -33 -85 -99 -172 -82 -48
10 -49 8 -12 -8 49 -22 80 -62 48 -62 -11 0 -21 7 -21 15 -1 56 -179 65 -181
9 -1 -26 -7 -23 -23 11 -13 26 -39 44 -64 44 -41 -2 -41 -2 -2 -18 37 -15 36
-18 -17 -42 -43 -21 -54 -38 -47 -73 4 -25 1 -46 -9 -46 -9 0 -17 9 -17 20 0
11 -20 20 -45 20 -36 -1 -39 -4 -15 -20 25 -16 23 -19 -11 -20 -23 0 -53 11
-68 25 -22 20 -24 20 -11 -2 15 -27 -37 -23 -155 10 -19 5 -35 0 -35 -12 0
-11 8 -21 19 -21 10 0 87 -10 171 -21 247 -35 411 -1 705 143 l245 121 63 -52
c201 -170 485 -148 800 61 188 125 247 237 154 295 -34 21 -200 -67 -195 -102
8 -47 -8 -63 -57 -59 -59 4 -150 74 -96 74 65 0 138 91 139 175 1 45 9 77 17
72 8 -5 15 20 15 56 0 79 -153 392 -205 420 -36 19 -36 17 -7 -28 30 -44 29
-51 -9 -91 -38 -41 -35 -54 10 -45 11 2 3 -15 -18 -38 -97 -107 -276 -160
-260 -78 10 52 -38 67 -112 37 -33 -14 -66 -20 -73 -13 -18 18 1 33 54 43 53
10 79 30 40 30 -18 0 -14 10 11 29 38 29 38 30 -1 29 -60 -1 -135 -35 -81 -37
38 -1 38 -1 0 -30 -58 -44 -102 -42 -66 3 19 23 19 29 2 19 -22 -13 -85 26
-85 53 0 20 139 74 188 74 29 0 52 11 52 25 1 19 5 18 18 -2 9 -14 22 -26 29
-25 67 9 80 1 42 -27 -30 -23 -32 -30 -9 -32 23 -1 22 -5 -4 -15 -30 -12 -31
-21 -10 -64 42 -84 99 -64 134 45 17 52 39 97 50 100 11 3 18 12 15 20 -3 8 4
15 15 15 32 0 23 55 -12 68 -51 19 -132 14 -118 -8 7 -11 -1 -26 -19 -32 -17
-7 -26 -20 -20 -30 6 -10 -2 -18 -19 -18 -16 0 -35 9 -42 20 -7 11 -4 20 6 20
11 0 24 18 30 40 13 50 -63 54 -223 11 -131 -35 -162 -59 -53 -42 l80 14 -89
-42 c-49 -24 -103 -53 -120 -66 -17 -14 -13 -3 9 23 l40 48 -44 -23 c-24 -13
-60 -23 -81 -23 -21 0 -60 -23 -86 -51 l-48 -51 57 29 c92 48 136 17 81 -56
-16 -21 -28 -57 -27 -80 1 -37 4 -36 25 9 47 101 54 105 97 56 64 -74 102
-156 72 -156 -16 0 -18 -6 -6 -15 61 -45 81 -95 23 -58 -31 20 -61 31 -67 25
-6 -6 12 -21 39 -34 28 -12 61 -42 74 -65 12 -24 18 -28 12 -9 -5 19 -1 40 10
47 10 6 19 1 19 -11 0 -12 23 1 51 29 74 75 269 32 220 -48 -6 -10 0 -21 13
-26 14 -4 25 -51 27 -111 3 -94 0 -101 -33 -83 -30 16 -35 14 -25 -11 32 -83
240 47 218 138 -6 23 -5 31 1 17 6 -14 20 -25 31 -25 11 0 14 8 8 18 -6 10 7
14 29 8 22 -6 40 -1 40 12 0 12 8 22 18 22 42 0 -10 -87 -99 -165 -65 -56 -89
-89 -73 -99 14 -9 1 -16 -32 -16 -32 0 -51 -9 -44 -20 13 -21 -24 -27 -108
-20 -36 3 -45 -4 -35 -28 7 -19 1 -32 -14 -32 -49 0 -92 -130 -48 -146 14 -5
-2 -6 -35 -1 -38 4 -88 36 -135 86 -69 73 -102 140 -55 111 11 -7 20 -2 20 10
0 13 11 20 25 15 14 -5 25 -20 25 -33 0 -29 66 -82 102 -82 18 0 21 16 8 59
-11 40 -9 61 7 67 13 5 -8 22 -47 38 -54 23 -71 24 -76 4 -8 -32 -51 -48 -82
-29 -33 20 -31 100 7 242 12 47 6 53 -63 70 -58 15 -74 28 -70 56 4 22 -2 32
-15 24 -11 -7 -21 1 -21 19 0 18 -9 27 -20 20 -11 -7 -20 1 -20 17 0 46 -98
61 -142 21 -40 -36 -53 -80 -18 -58 27 17 103 -8 91 -29 -6 -9 3 -28 19 -41
16 -13 25 -33 19 -42 -6 -10 -2 -18 10 -18 42 0 19 -51 -53 -114 -40 -37 -81
-66 -90 -66 -9 0 -16 -9 -16 -19 0 -35 68 3 133 73 41 45 68 61 77 46 19 -31
-64 -118 -144 -152 -35 -15 -69 -37 -76 -48 -7 -11 -32 -20 -56 -19 l-44 0 47
40 c26 21 38 39 26 39 -11 0 -26 -9 -33 -20 -7 -11 -30 -20 -51 -20 -22 0 -39
9 -39 20 0 11 -19 20 -41 20 -23 0 -36 9 -29 20 12 20 -13 28 -70 22 -26 -3
-26 -1 -1 16 17 11 23 27 14 35 -18 18 -79 -16 -78 -44 0 -10 -24 -30 -52 -42
-38 -17 -43 -24 -18 -25 19 -1 35 -7 35 -12 0 -29 -192 -190 -215 -181 -15 6
-22 2 -15 -9 22 -36 -49 -45 -143 -19 -59 16 -96 39 -102 62 -5 21 -17 37 -26
37 -28 0 -46 177 -21 207 12 15 17 31 12 36 -24 24 93 65 126 45 152 -93 156
-94 291 -79 l133 14 -40 51 c-48 61 -51 86 -10 86 17 0 31 -16 32 -35 1 -24 5
-26 12 -8 6 15 -10 54 -34 88 -25 33 -35 54 -23 47 13 -8 23 -5 23 7 0 11 9
21 20 21 11 0 20 -13 20 -28 0 -15 27 -57 60 -92 46 -49 51 -62 24 -55 -22 6
-37 -1 -37 -17 0 -33 113 12 199 78 50 39 125 201 166 364 16 59 -95 201 -197
252 -98 50 -461 80 -500 41 -11 -11 -46 -16 -77 -10 -94 19 -268 -31 -224 -65
22 -16 26 -27 11 -27 -14 -1 -25 -11 -25 -23 0 -12 14 -17 30 -11 39 15 38 -2
-3 -43 -31 -31 -30 -34 15 -47 26 -7 37 -14 23 -15 -14 -1 -25 -12 -25 -23 0
-12 10 -15 23 -7 15 9 18 5 9 -9 -8 -13 -21 -20 -29 -15 -8 5 -28 1 -44 -9
-23 -15 -21 -18 10 -19 38 0 38 -2 -4 -44 -40 -40 -125 -65 -125 -37 0 7 -16
14 -35 15 -19 2 -52 6 -72 10 -37 6 -66 -67 -98 -244 -5 -27 -11 6 -12 73 -5
207 92 375 185 323 27 -15 34 -15 24 1 -8 13 7 32 36 46 28 12 46 31 40 40
-17 28 -44 20 -87 -27 -62 -66 -54 -4 20 159 67 147 93 205 157 351 69 155
102 312 102 488 0 167 -12 209 -113 409 -26 51 -47 103 -47 117 0 13 -20 40
-45 60 -38 31 -46 58 -48 171 -6 238 28 250 123 42 38 -81 82 -158 99 -172
132 -110 637 30 739 204 28 48 88 117 133 153 78 63 95 136 36 159 -9 3 -17
19 -17 35 0 49 -34 31 -60 -32 -14 -34 -34 -66 -45 -73 -10 -6 -8 8 5 33 50
93 -22 83 -109 -14 -113 -128 -120 -143 -82 -184 79 -88 -145 -210 -387 -211
-205 -1 -248 32 -157 123 53 54 54 54 125 20 75 -36 210 -46 210 -16 0 21 -70
41 -146 42 -67 0 -97 58 -144 283 -41 197 -93 359 -134 418 -33 48 -33 48 -13
-31z m-835 -401 c38 -24 73 -29 136 -20 47 8 105 16 128 19 22 2 74 30 114 60
57 44 79 51 108 34 33 -19 33 -21 2 -21 -19 -1 -68 -24 -109 -52 -41 -28 -88
-45 -105 -39 -17 7 -24 6 -17 -2 8 -8 -1 -27 -20 -42 -32 -26 -32 -27 5 -11
35 15 101 18 216 8 21 -2 51 -37 73 -88 21 -47 39 -71 40 -55 1 26 4 26 20 1
11 -17 11 -39 1 -51 -10 -11 -20 -66 -24 -121 -4 -72 -14 -99 -36 -99 -16 -1
-29 -16 -27 -35 1 -19 -5 -30 -14 -24 -10 6 -36 -1 -59 -15 -34 -22 -44 -21
-60 4 -14 22 -19 23 -20 4 0 -15 -9 -21 -21 -13 -14 8 -12 23 5 45 19 24 20
28 1 17 -14 -9 -25 -7 -25 3 0 11 26 30 59 43 32 14 75 43 95 66 l36 40 -70
-33 c-56 -27 -63 -28 -31 -3 21 17 46 31 54 31 9 0 30 26 46 59 29 55 29 58
-8 51 -47 -9 -68 39 -40 92 16 30 14 41 -11 51 -46 17 -132 -27 -144 -73 -17
-66 -96 -43 -109 30 -11 65 -177 131 -177 70 0 -8 -25 -10 -55 -4 -51 10 -53
8 -25 -27 17 -20 20 -30 7 -23 -13 8 -27 7 -30 -1 -4 -8 -32 8 -62 36 -49 45
-52 55 -28 88 21 29 30 31 43 11 12 -19 8 -22 -12 -10 -17 10 -21 9 -11 -2 9
-10 22 -18 30 -18 7 0 26 -9 42 -19 17 -11 13 5 -12 40 -49 71 -75 136 -47
119 11 -7 20 -1 20 14 0 14 18 -3 39 -38 22 -35 62 -79 89 -97z m520 6 c-9 29
-6 28 21 -5 19 -23 24 -42 12 -46 -12 -4 -16 -16 -10 -26 21 -33 -23 -19 -67
23 -60 56 -56 92 5 51 47 -30 49 -30 39 3z m-657 -170 c-23 -23 -71 18 -70 59
l0 46 40 -48 c22 -26 36 -52 30 -57z m539 -25 c-7 -11 -1 -20 13 -20 17 0 19
-6 4 -21 -29 -29 -144 -40 -160 -14 -7 12 -4 15 9 8 11 -8 27 -4 35 8 7 12 26
17 42 11 16 -7 24 -3 18 7 -6 9 0 22 14 28 37 15 38 15 25 -7z m366 -644 c13
-13 24 -33 24 -44 0 -11 -11 -9 -24 4 -13 13 -40 24 -60 24 -20 0 -36 9 -36
20 0 28 67 25 96 -4z m32 -408 c35 -13 42 -81 14 -126 -29 -45 -76 14 -66 82
9 62 8 61 52 44z m-104 -141 c-6 -34 -2 -48 11 -40 25 16 -15 -110 -42 -129
-9 -7 -13 -25 -10 -40 3 -15 -6 -48 -19 -72 -14 -24 -23 -51 -22 -60 7 -40 -4
-67 -22 -56 -11 7 -20 2 -20 -10 0 -12 -9 -17 -20 -10 -13 8 -12 28 4 56 54
96 73 214 32 192 -21 -11 -35 -37 -32 -56 3 -20 -6 -50 -20 -67 -14 -17 -29
-49 -33 -72 -5 -22 -18 -58 -29 -79 -11 -21 -15 -44 -9 -50 22 -22 -13 -114
-43 -114 -34 0 -41 71 -10 90 11 7 20 38 20 70 0 32 8 63 18 69 9 6 23 50 31
98 7 48 25 105 41 125 16 21 29 66 29 101 1 38 13 67 32 75 25 9 28 -1 18 -58
-11 -56 -7 -70 18 -70 38 0 68 45 37 55 -16 6 -13 23 9 56 40 62 44 61 31 -4z
m-340 -272 c-25 -50 -34 -57 -40 -29 -4 20 4 49 17 65 43 52 57 31 23 -36z
m-5 -90 c0 -8 -13 -31 -28 -51 -30 -40 -58 -16 -39 34 12 32 69 46 67 17z
m-431 -29 c-14 -21 83 -42 142 -31 54 10 61 -6 29 -66 -21 -40 -119 -39 -230
2 -56 21 -147 -51 -109 -87 19 -17 22 -18 13 0 -12 20 112 24 272 7 20 -2 18
-85 -3 -118 -19 -31 -206 -1 -256 40 -19 16 -34 15 -57 -4 -23 -19 -36 -20
-54 -2 -17 17 -17 23 1 23 13 0 24 10 24 21 0 12 -9 16 -20 9 -63 -39 -5 59
79 134 83 73 200 124 169 72z m623 -147 c-19 -29 -29 -57 -23 -63 22 -23 -31
-89 -62 -77 -18 7 -43 -4 -58 -24 -15 -19 -27 -24 -27 -11 -1 13 26 43 59 66
33 23 60 61 60 83 0 63 40 125 65 100 15 -15 11 -37 -14 -74z m702 -123 c-8
-8 -45 -17 -103 -26 -11 -1 -2 -10 20 -18 52 -21 110 -4 110 30 0 16 18 28 40
28 27 0 40 -13 40 -40 0 -22 11 -40 25 -40 70 -1 85 -37 36 -89 -47 -50 -101
-68 -101 -33 0 10 -46 17 -102 15 -93 -2 -204 68 -167 105 5 5 -1 20 -14 35
-16 20 -16 27 1 27 12 0 22 -10 22 -21 0 -12 11 -15 25 -6 19 11 18 7 -1 -17
-15 -19 -18 -37 -7 -44 33 -20 45 52 15 86 -27 29 -20 31 71 25 55 -4 95 -11
90 -17z m275 -36 c-37 -56 -33 -55 -79 -37 -30 12 -28 17 14 50 71 55 105 48
65 -13z m-1716 -10 c11 -11 62 -22 113 -25 87 -3 92 -6 99 -68 l8 -65 -127 6
c-69 3 -137 16 -150 29 -32 32 -55 29 -55 -7 0 -17 -18 -30 -39 -30 -26 0 -36
-10 -29 -28 6 -15 1 -34 -11 -41 -14 -9 -18 15 -13 73 5 47 17 84 28 82 10 -2
39 18 65 45 50 53 79 61 111 29z m1836 -32 c18 -7 32 -29 32 -50 0 -21 7 -38
15 -38 8 0 15 -29 15 -65 0 -62 -6 -67 -130 -111 -224 -80 -238 -83 -227 -54
12 31 -18 51 -101 70 -54 13 -57 16 -22 29 141 53 228 103 284 163 66 70 81
76 134 56z m-1248 -47 c0 -46 -32 -71 -50 -40 -17 27 2 79 29 79 12 0 21 -17
21 -39z m18 -118 c0 -19 -5 -23 -11 -9 -13 33 -67 9 -68 -31 0 -29 -3 -28 -21
3 -15 26 -15 44 1 63 29 35 101 16 99 -26z m-514 -25 c19 -10 48 -12 65 -6 24
10 31 -3 31 -60 0 -96 -3 -102 -50 -99 -22 1 -65 3 -96 5 -31 1 -51 10 -45 20
6 10 -6 14 -27 8 -21 -5 -56 0 -78 12 -31 17 -43 15 -51 -8 -20 -52 -53 -33
-53 30 0 33 7 58 15 55 8 -2 40 20 71 48 57 54 100 53 218 -5z m376 -8 c0 -56
-35 -67 -54 -18 -6 18 1 40 16 50 38 24 38 24 38 -32z m114 -83 c-5 -5 -28
-11 -50 -12 -23 -2 -37 -10 -32 -19 13 -21 -96 -156 -115 -144 -25 15 3 63 43
74 23 6 37 26 35 50 -2 23 -10 37 -18 32 -9 -5 -10 -22 -4 -39 7 -18 -1 -29
-21 -29 -68 0 -11 93 68 110 33 7 66 24 74 37 10 15 17 11 22 -14 4 -20 3 -40
-2 -46z m1306 16 c0 -9 -22 -28 -49 -43 -27 -14 -46 -32 -42 -39 5 -7 -38 -14
-94 -17 -124 -5 -119 1 46 63 71 27 131 49 134 51 3 1 5 -5 5 -15z m951 -24
c8 -14 22 -13 41 3 16 13 35 17 43 10 8 -8 2 -21 -11 -30 -16 -9 -2 -15 35
-15 34 0 66 -6 73 -12 19 -20 -56 -118 -84 -107 -14 5 -29 -1 -34 -14 -4 -13
-6 -8 -3 11 3 19 -3 40 -13 46 -10 7 -14 19 -9 28 6 9 -5 15 -24 14 -19 -2
-33 9 -30 23 4 15 -3 21 -15 14 -26 -16 -64 7 -49 31 15 25 64 24 80 -2z
m-2891 -89 c33 -17 66 -29 74 -28 114 19 150 -2 136 -77 -18 -98 -7 -95 -174
-53 -166 41 -169 42 -196 46 -11 1 -20 12 -20 23 0 12 8 16 18 10 9 -6 28 16
42 49 28 69 40 71 120 30z m630 -70 c7 -11 2 -20 -10 -20 -12 0 -17 -9 -10
-20 7 -12 21 -16 31 -9 10 6 14 -2 8 -18 -7 -15 3 -62 20 -103 30 -73 26 -121
-10 -99 -11 6 -19 3 -19 -7 0 -9 -20 -26 -45 -37 -151 -65 -212 129 -82 260
78 77 97 86 117 53z m1590 -290 c0 -48 10 -69 35 -74 28 -6 27 -10 -10 -20
-25 -7 -40 -5 -35 4 6 10 1 23 -10 30 -12 7 -16 33 -10 57 7 24 6 33 -4 21
-24 -35 -152 -108 -186 -107 -33 0 54 77 90 79 11 1 38 23 59 49 49 60 71 48
71 -39z m-49 -95 c7 -43 -57 -99 -97 -84 -37 14 -23 69 18 69 15 0 28 14 28
32 0 41 45 26 51 -17z m700 -9 c-2 -19 -15 -37 -28 -42 -13 -4 -18 -16 -12
-26 6 -10 3 -18 -8 -18 -11 0 -36 -6 -56 -14 -25 -9 -19 3 18 37 30 29 55 62
55 74 0 13 8 23 18 23 10 0 16 -15 13 -34z"/>
<path d="M3166 1633 l-45 -47 51 -23 c59 -27 128 -30 128 -6 0 10 -24 13 -53
7 -50 -9 -52 -6 -41 53 15 75 16 75 -40 16z"/>
<path d="M3427 1450 c8 -21 -16 -42 -80 -71 -50 -23 -86 -46 -81 -52 6 -6 30
0 54 13 24 13 49 18 55 12 7 -7 29 4 50 23 22 19 45 34 52 33 7 -1 29 2 48 8
60 15 38 38 -28 28 -43 -7 -58 -2 -49 13 8 13 4 23 -9 23 -13 0 -18 -13 -12
-30z"/>
<path d="M2545 4167 c-30 -12 -34 -67 -5 -67 11 0 20 -25 20 -55 1 -73 68
-165 86 -117 7 17 3 32 -9 32 -12 0 -17 12 -11 28 13 31 -25 193 -43 190 -7 0
-24 -6 -38 -11z"/>
<path d="M1820 2600 c0 -9 -5 -31 -12 -48 -7 -18 -2 -32 10 -32 12 0 22 14 22
30 0 17 15 30 33 30 19 0 27 6 20 14 -21 21 -73 25 -73 6z"/>
<path d="M2164 2485 c2 -115 -11 -197 -45 -279 -10 -26 -10 -49 0 -56 16 -9
29 14 58 110 20 68 25 340 6 340 -11 0 -19 -51 -19 -115z"/>
<path d="M2094 2527 c-5 -21 -10 -68 -12 -107 -3 -89 -38 -177 -69 -172 -55 8
-73 34 -52 73 14 27 14 39 0 39 -12 0 -21 -14 -21 -30 0 -17 -22 -40 -50 -50
-62 -24 -64 -36 -5 -35 25 0 73 -6 108 -14 70 -17 134 97 134 241 0 78 -19
109 -33 55z"/>
<path d="M1613 2124 c4 -15 -7 -40 -23 -57 -17 -16 -30 -40 -30 -52 0 -11 22
5 50 37 27 32 50 72 50 88 -1 25 -4 25 -18 3 -9 -15 -21 -20 -26 -10 -5 9 -6
5 -3 -9z"/>
<path d="M1910 2110 c67 -31 169 -40 139 -13 -10 10 -59 23 -109 29 -90 12
-90 12 -30 -16z"/>
<path d="M4126 1538 c-35 -10 -70 -28 -77 -40 -10 -16 -2 -16 27 0 23 12 68
22 102 22 33 0 65 9 72 20 15 24 -37 23 -124 -2z"/>
<path d="M4200 1120 c-36 -50 -38 -60 -11 -62 48 -4 58 -7 106 -34 32 -18 45
-19 45 -3 0 13 -18 27 -40 33 -22 6 -35 18 -29 28 6 10 -3 12 -20 6 -37 -15
-42 33 -7 68 13 13 18 24 11 24 -7 0 -32 -27 -55 -60z"/>
<path d="M3658 1103 c-46 -48 -107 -92 -136 -98 -27 -6 -117 -85 -96 -85 29 0
256 138 279 170 39 54 3 65 -47 13z"/>
<path d="M3720 1064 c0 -13 -36 -43 -80 -68 -44 -25 -80 -53 -80 -62 0 -21
114 46 155 91 17 19 25 41 18 48 -7 8 -13 3 -13 -9z"/>
<path d="M4129 1019 c-7 -11 -2 -34 12 -50 18 -21 18 -36 2 -56 -28 -34 -10
-53 50 -53 58 0 62 50 6 80 -22 12 -35 31 -28 41 6 11 22 13 35 5 14 -8 12 1
-3 20 -32 39 -55 43 -74 13z"/>
<path d="M4233 970 c-7 -17 5 -38 28 -50 27 -15 39 -15 39 -1 0 12 -9 21 -20
21 -11 0 -20 9 -20 19 0 11 16 15 35 8 30 -9 30 -7 5 11 -40 29 -54 27 -67 -8z"/>
<path d="M1551 948 c-37 -37 -21 -81 19 -48 17 14 31 15 39 2 6 -11 27 -18 46
-17 19 1 60 -4 90 -12 33 -8 55 -6 55 7 0 11 -12 20 -26 20 -14 0 -61 18 -104
40 -94 48 -80 47 -119 8z"/>
</g>
</svg>
