<?xml version="1.0" standalone="no"?>
<!DOCTYPE svg PUBLIC "-//W3C//DTD SVG 20010904//EN"
 "http://www.w3.org/TR/2001/REC-SVG-20010904/DTD/svg10.dtd">
<svg version="1.0" xmlns="http://www.w3.org/2000/svg"
 width="300.000000pt" height="300.000000pt" viewBox="0 0 300.000000 300.000000"
 preserveAspectRatio="xMidYMid meet">
<metadata>
Created by potrace 1.10, written by Peter Selinger 2001-2011
</metadata>
<g transform="translate(0.000000,300.000000) scale(0.050000,-0.050000)"
fill="#000000" stroke="none">
<path d="M1151 5325 c-21 -55 -10 -124 31 -194 23 -39 32 -71 20 -71 -35 0
-25 -71 15 -107 20 -18 45 -33 56 -33 11 0 32 -32 48 -72 15 -40 43 -83 62
-96 18 -13 58 -75 88 -138 40 -84 74 -125 131 -158 61 -34 78 -55 78 -97 0
-48 272 -407 340 -449 12 -7 8 -30 -10 -57 -44 -68 -7 -165 110 -288 102 -106
128 -121 150 -85 18 29 42 25 79 -12 26 -25 38 -27 61 -8 32 27 20 69 -13 48
-13 -8 -13 2 1 28 32 60 27 88 -13 79 -19 -4 -33 -18 -30 -31 6 -30 -48 -32
-66 -3 -15 24 64 99 105 99 15 0 33 -16 40 -35 7 -19 20 -40 29 -46 72 -49 -8
-278 -91 -263 -22 4 -31 -2 -23 -15 8 -12 -3 -21 -24 -21 -40 0 -175 109 -175
141 0 11 -9 17 -20 14 -105 -26 175 -215 319 -215 71 0 371 332 371 411 0 16
7 29 16 29 22 0 82 -136 66 -151 -6 -6 -9 -69 -5 -138 4 -76 -2 -132 -15 -140
-12 -7 -22 -30 -22 -50 0 -20 -13 -47 -30 -61 -16 -14 -30 -38 -30 -54 0 -17
-40 -82 -89 -147 -105 -138 -158 -237 -190 -354 -12 -47 -31 -85 -40 -85 -31
0 -46 -80 -21 -110 19 -23 14 -42 -21 -91 -84 -119 -71 -278 55 -635 77 -220
29 -415 -134 -544 -91 -72 -117 -112 -127 -194 -3 -31 -26 -95 -51 -144 -61
-117 -37 -139 170 -155 167 -13 360 25 403 78 11 14 26 125 33 247 15 248 30
318 93 420 42 67 42 75 13 144 -49 115 -50 129 -20 214 56 159 37 323 -35 304
-38 -10 -91 91 -68 128 20 32 49 19 49 -21 0 -46 112 -51 129 -6 5 14 20 25
33 25 12 0 17 -14 11 -30 -9 -24 12 -104 39 -147 11 -16 88 41 88 65 0 15 15
62 33 105 18 42 37 144 42 227 4 82 18 162 31 177 17 20 4 19 -54 -5 -42 -18
-80 -32 -84 -32 -4 0 -1 -16 6 -35 8 -22 -3 -16 -29 15 -49 59 -65 51 -51 -27
9 -43 20 -54 49 -47 46 13 49 -40 7 -160 -16 -47 -24 -98 -18 -115 7 -17 3
-31 -8 -31 -11 0 -18 20 -14 45 18 123 27 241 17 207 -9 -31 -15 -33 -30 -10
-13 19 -16 8 -7 -34 12 -62 -32 -113 -59 -69 -6 10 0 22 14 28 20 8 20 10 -1
11 -20 2 -20 11 -1 47 21 39 20 42 -7 20 -26 -22 -29 -18 -23 30 6 41 -6 28
-47 -50 -49 -95 -107 -150 -78 -73 8 20 3 28 -13 23 -14 -5 -23 -26 -20 -47 3
-21 -12 -49 -35 -63 -31 -20 -40 -20 -40 -1 0 15 -13 12 -35 -10 -28 -29 -30
-41 -10 -74 30 -47 32 -67 7 -51 -11 6 -23 -4 -28 -24 -7 -24 -10 -20 -12 15
-3 39 -7 43 -21 20 -29 -49 -3 -150 28 -107 25 33 71 23 71 -15 0 -11 -9 -15
-20 -8 -11 7 -14 -2 -6 -22 11 -29 4 -32 -46 -20 -35 8 -48 6 -32 -4 15 -10
22 -40 16 -71 -5 -31 -1 -49 9 -42 11 6 19 20 19 31 0 11 18 39 40 63 l40 43
0 -45 c0 -26 9 -40 20 -33 12 7 16 21 10 30 -6 9 0 24 13 32 17 10 19 1 8 -34
-9 -26 -15 -75 -15 -108 0 -33 -4 -49 -9 -35 -6 14 -28 25 -49 25 -21 0 -38
11 -38 25 -1 17 -5 18 -15 3 -32 -47 -83 -25 -63 28 22 57 5 87 -25 43 -15
-22 -18 -16 -11 25 5 32 0 50 -11 43 -12 -8 -13 6 -2 35 9 27 17 85 17 131 -1
50 7 79 20 74 12 -4 44 42 71 102 27 61 56 111 64 111 8 0 16 20 16 45 2 43 3
43 19 5 13 -31 17 -33 19 -7 1 42 63 66 83 33 11 -17 22 -8 36 30 12 30 31 54
43 54 12 0 15 -10 7 -23 -8 -14 -5 -18 7 -10 11 7 17 47 13 88 -27 267 -2 291
316 301 263 8 296 -6 296 -122 0 -46 14 -129 32 -184 17 -55 39 -125 49 -157
26 -85 -13 -178 -52 -124 -28 37 -29 36 -31 -20 l-1 -59 -27 70 c-15 39 -28
93 -28 122 -1 28 -8 57 -15 64 -18 18 -35 167 -32 279 2 88 -1 93 -36 74 -22
-11 -39 -30 -39 -41 0 -11 10 -14 23 -6 16 10 19 -3 8 -44 -16 -66 -17 -81 -9
-288 5 -137 2 -150 -33 -150 -37 0 -39 16 -39 245 0 221 -11 290 -34 220 -5
-14 -6 -146 -4 -294 5 -266 5 -270 -47 -320 -50 -50 -51 -50 -40 -6 16 62 -2
57 -26 -8 -25 -64 19 -127 66 -95 15 10 9 2 -12 -18 -21 -19 -34 -40 -28 -46
21 -21 93 40 107 91 11 38 16 42 22 17 5 -18 33 -42 62 -53 30 -11 42 -21 28
-21 -15 -1 -21 -11 -14 -22 45 -72 104 68 70 169 -39 118 -5 179 45 80 77
-153 144 -192 167 -98 8 34 20 45 32 33 13 -13 11 -35 -4 -63 -91 -171 -92
-350 -3 -461 66 -81 143 -247 143 -305 0 -22 27 -95 60 -163 97 -196 124 -436
44 -395 -71 37 -312 64 -568 63 -277 -1 -326 3 -349 26 -56 56 -182 -1 -192
-87 -6 -60 68 -72 536 -87 482 -15 571 -26 602 -70 106 -151 651 -165 617 -17
-8 36 -21 108 -29 161 -11 77 -32 114 -105 190 -50 52 -114 135 -141 184 -28
50 -76 134 -106 188 -58 102 -63 143 -50 432 5 137 -21 222 -101 322 -23 29
-41 74 -39 100 1 27 7 122 13 213 12 177 -39 312 -182 482 -28 32 -50 68 -50
78 0 11 -18 62 -41 113 -23 51 -35 102 -28 113 7 11 2 34 -12 50 -16 20 -19
57 -7 124 9 52 17 118 18 147 5 156 112 197 173 66 26 -56 73 -111 120 -142
72 -48 77 -58 77 -148 0 -133 66 -271 75 -156 4 62 88 174 138 187 55 14 111
-6 94 -34 -8 -12 -4 -15 9 -7 25 15 105 -20 101 -44 -1 -8 0 -18 2 -24 24 -60
15 -78 -26 -57 -64 33 -69 44 -13 28 38 -10 43 -9 20 7 -38 27 -141 28 -180 1
-22 -15 -16 -17 24 -8 55 13 196 -71 196 -116 0 -12 -16 -8 -35 9 -19 16 -48
36 -65 44 -16 8 -5 -5 26 -29 43 -34 50 -49 32 -71 -17 -21 -15 -30 11 -40 44
-17 68 9 30 33 -26 16 -13 27 26 21 108 -16 -55 472 -170 509 -19 6 -44 47
-56 93 -12 44 -43 127 -68 184 -26 56 -57 155 -69 220 -28 152 -73 226 -169
279 -43 24 -101 63 -128 88 -28 25 -63 45 -79 45 -15 0 -32 12 -38 27 -5 15
-30 24 -54 20 -56 -10 -104 21 -84 53 12 19 20 17 34 -7 25 -45 67 -41 115 11
49 52 52 102 10 137 -43 35 -19 234 34 285 47 45 48 94 2 95 -57 1 -117 63
-134 139 -18 83 -55 91 -296 66 l-155 -16 29 -55 c17 -32 21 -59 9 -66 -10 -6
-13 -21 -6 -33 7 -11 1 -28 -14 -38 -24 -15 -23 -21 2 -38 17 -11 21 -19 10
-19 -11 0 -37 13 -57 28 -42 32 -151 21 -238 -22 -33 -17 -55 -20 -55 -8 0 30
75 101 110 104 17 1 39 4 50 7 11 3 28 6 37 8 9 1 16 16 16 32 0 17 -7 30 -16
30 -9 0 -17 14 -17 30 0 39 -84 39 -159 0 -54 -27 -78 -74 -107 -204 -17 -76
112 -166 237 -166 62 0 71 -5 59 -35 -8 -19 -24 -62 -36 -95 -38 -113 -83
-190 -109 -190 -41 0 -185 -78 -185 -100 0 -11 -23 -20 -51 -20 -150 0 -232
-87 -275 -291 -16 -78 -41 -161 -56 -184 -23 -37 -23 -48 0 -70 16 -14 22 -15
15 -2 -7 13 8 28 37 35 30 8 54 32 62 61 11 46 151 141 174 119 5 -6 19 19 32
54 26 76 36 71 52 -23 26 -150 53 -251 77 -289 30 -47 81 -268 66 -283 -17
-17 -96 152 -82 175 7 11 -1 36 -18 54 -17 19 -35 60 -41 92 -6 31 -24 73 -42
92 -18 20 -25 49 -18 69 30 77 -63 18 -112 -71 -27 -51 -77 -127 -109 -170
l-59 -78 74 65 c91 78 98 80 82 15 -7 -28 -4 -50 8 -50 10 0 24 -22 29 -49 5
-28 1 -45 -9 -39 -10 6 -32 0 -49 -14 -26 -22 -30 -20 -24 13 6 32 -6 40 -68
45 -87 7 -147 76 -125 143 28 91 -88 205 -167 163 -28 -15 -44 -14 -58 3 -40
50 -105 195 -105 233 0 53 -64 89 -101 56 -23 -20 -23 -18 -2 10 31 40 -100
312 -237 491 -44 58 -80 126 -81 150 0 47 -103 175 -139 175 -11 0 -35 34 -52
75 -77 182 -69 175 -193 176 -80 1 -117 -7 -124 -26z m164 -237 c-3 26 8 39
35 41 32 3 40 -8 38 -48 -1 -28 4 -60 12 -71 38 -55 41 -101 3 -56 -21 24 -45
38 -54 30 -8 -8 -9 4 -2 26 12 36 11 37 -13 6 -24 -30 -29 -27 -50 32 -32 88
-29 113 7 52 23 -38 29 -41 24 -12z m2405 -27 c6 -8 27 -20 47 -28 31 -11 33
-19 13 -43 -37 -45 -78 -36 -92 20 -13 54 -38 65 -55 25 -5 -14 -11 -4 -11 21
-2 45 66 48 98 5z m-187 -61 c38 -33 83 -60 101 -60 28 0 28 -5 -4 -40 -20
-22 -27 -40 -15 -40 11 0 26 -22 33 -48 7 -30 35 -56 72 -69 75 -26 80 -75 7
-74 -34 1 -59 15 -69 41 -12 33 -15 34 -17 6 -1 -35 15 -54 89 -105 32 -23 35
-33 15 -54 -20 -20 -25 -18 -25 9 0 43 -71 45 -88 2 -7 -17 -7 -40 -1 -50 15
-24 -44 -23 -91 2 -21 11 -42 13 -48 4 -5 -9 22 -28 60 -42 66 -24 68 -27 34
-54 -40 -31 58 -141 101 -114 12 8 14 -2 4 -26 -38 -92 -109 -401 -99 -432 11
-38 -28 -195 -58 -226 -12 -13 -14 -4 -5 25 8 27 5 45 -8 45 -11 0 -21 -10
-21 -23 0 -12 -16 -34 -35 -48 -31 -23 -26 -27 40 -39 41 -8 75 -21 75 -29 0
-30 -26 -39 -61 -21 -24 13 -42 11 -58 -8 -17 -21 -16 -31 3 -38 14 -6 -14
-10 -64 -9 -55 0 -69 4 -35 9 39 6 55 20 55 50 0 34 -5 37 -30 16 -19 -16 -58
-21 -104 -13 -44 7 -85 2 -101 -11 -22 -18 -32 -17 -46 5 -29 46 -22 79 16 80
33 0 33 2 0 27 -76 58 -33 119 98 139 71 11 84 7 93 -27 9 -35 17 -37 73 -17
l64 22 -82 41 c-66 34 -81 52 -81 99 0 132 75 313 82 200 2 -32 4 -32 12 1 6
23 21 33 39 26 16 -7 24 -3 17 8 -7 11 -2 20 10 20 12 0 17 8 11 18 -6 10 -1
22 11 26 12 4 -1 18 -30 31 -48 22 -52 21 -52 -25 0 -36 -8 -46 -31 -37 -17 7
-27 24 -21 39 6 15 2 32 -8 38 -21 13 34 186 74 232 26 31 -101 118 -172 118
-10 0 -28 28 -40 63 -27 77 -28 117 -2 77 11 -16 20 -21 20 -9 0 12 -11 32
-24 45 -20 20 -13 36 30 75 60 56 64 71 32 103 -16 16 -5 26 39 35 33 8 71 26
84 42 34 41 55 37 132 -31z m-1921 -189 c9 -43 4 -65 -22 -84 -19 -14 -30 -38
-24 -53 5 -15 -2 -27 -16 -27 -17 0 -24 19 -19 57 7 51 2 57 -45 52 -30 -4
-56 5 -61 22 -6 17 -1 22 12 14 14 -9 23 2 23 28 0 23 9 37 20 30 11 -7 20 -5
20 4 0 50 100 12 112 -43z m104 -155 c29 -29 32 -76 4 -76 -11 0 -20 13 -20
29 0 16 -10 35 -22 42 -16 10 -18 -11 -8 -73 15 -94 61 -162 86 -128 23 33 64
32 64 -1 0 -17 -8 -26 -18 -20 -10 6 -22 0 -27 -14 -8 -24 59 -138 90 -152 8
-3 34 -22 58 -41 l44 -36 -43 -11 c-36 -9 -57 13 -135 137 -54 87 -101 143
-114 135 -12 -7 -15 -4 -8 8 7 11 -1 32 -17 45 -16 13 -25 32 -19 42 6 9 1 36
-12 60 -13 24 -14 37 -3 31 11 -7 25 1 31 17 14 36 37 38 69 6z m1540 -109
c12 -21 34 -29 61 -22 43 11 63 -31 26 -53 -15 -9 -42 -102 -42 -142 0 -6 -14
-37 -31 -69 -31 -61 -40 -97 -17 -75 15 16 67 -22 67 -48 0 -10 -14 -18 -32
-18 -21 0 -28 -11 -20 -32 15 -38 -7 -131 -27 -118 -8 5 -11 -15 -5 -43 7 -39
-3 -62 -38 -89 -105 -81 -138 -29 -169 267 -17 167 -2 235 52 235 49 0 162 79
147 103 -6 9 -1 17 11 17 11 0 21 14 21 32 0 18 -11 26 -25 20 -14 -7 -40 -17
-58 -24 -18 -6 -38 -28 -43 -49 -6 -23 -26 -36 -52 -34 -61 5 -52 31 25 68 50
24 65 42 58 69 -13 49 65 53 91 5z m772 -405 c-8 -17 -12 -44 -10 -58 3 -19
-9 -17 -47 7 -31 20 -51 25 -51 11 0 -12 12 -22 27 -22 46 0 119 -94 107 -139
-6 -23 0 -42 13 -44 13 -2 32 -5 43 -8 11 -2 31 -5 45 -7 29 -2 76 -73 94
-142 l13 -50 -41 47 c-22 26 -35 57 -28 68 7 12 4 15 -8 8 -12 -7 -26 -2 -31
12 -11 30 0 -96 15 -164 5 -26 20 -54 33 -62 29 -18 4 -99 -32 -99 -33 0 -107
117 -115 180 -3 26 -34 79 -70 118 -61 67 -88 162 -47 162 26 0 13 66 -15 76
-13 4 -23 30 -23 58 0 32 9 47 25 41 14 -5 43 -2 65 6 35 14 33 16 -15 18 -49
1 -52 6 -35 50 15 40 13 47 -11 38 -30 -12 -40 15 -15 40 24 25 130 -109 114
-145z m-215 63 c6 -41 -28 -85 -65 -85 -43 0 -33 34 14 46 26 7 36 20 28 35
-11 17 -19 16 -32 -4 -10 -15 -18 -18 -18 -6 -1 63 64 75 73 14z m-1073 -27
c0 -42 -59 -90 -115 -93 -35 -2 -43 7 -37 41 4 24 17 42 30 39 12 -3 22 6 22
20 0 14 23 25 50 25 32 0 50 -11 50 -32z m271 -273 c-6 -14 -26 -25 -45 -24
-32 0 -32 3 -6 25 22 17 30 57 27 144 l-4 120 18 -120 c11 -66 15 -131 10
-145z m862 96 c5 -55 1 -101 -8 -101 -9 0 -18 -21 -20 -47 -2 -26 -31 -76 -64
-112 -63 -68 -65 -63 -22 96 13 48 19 92 13 97 -5 6 4 25 21 42 17 17 27 51
22 76 -5 26 1 50 13 55 33 11 35 5 45 -106z m-1722 -81 c71 27 80 16 26 -32
-24 -21 -37 -27 -29 -13 8 14 5 25 -7 25 -11 0 -21 -9 -21 -20 0 -48 -58 -14
-78 45 l-21 65 38 -45 c32 -39 46 -42 92 -25z m155 -78 c-17 -68 -146 -106
-146 -43 0 15 114 80 143 81 7 0 9 -17 3 -38z m74 -79 c0 -30 -79 -90 -125
-95 -25 -2 -52 -5 -60 -6 -8 -1 -15 -15 -15 -30 0 -15 -13 -33 -30 -39 -22 -9
-30 2 -30 38 0 30 11 49 29 49 16 0 62 23 103 50 74 50 128 64 128 33z m763
-277 c18 -23 19 -29 2 -19 -14 9 -25 7 -25 -4 0 -10 -13 -24 -29 -30 -19 -7
-25 -1 -18 18 8 20 -3 30 -36 31 l-47 2 50 16 c72 23 73 23 103 -14z m302 -99
c20 -5 31 -17 26 -25 -14 -23 43 -95 60 -77 8 8 4 27 -9 43 -18 22 -18 30 2
38 16 6 7 18 -24 31 -50 22 -50 22 10 18 54 -5 60 -12 60 -75 0 -80 15 -78
-300 -50 -99 9 -199 17 -223 18 -47 2 -43 32 4 32 16 0 29 12 29 27 0 18 31
28 94 30 51 2 98 8 104 14 9 10 87 -1 167 -24z m-399 -167 c-6 -22 -1 -40 12
-40 12 0 22 13 22 28 0 21 31 28 121 28 101 0 117 -5 97 -28 -17 -21 -17 -28
1 -28 13 0 21 -20 17 -45 -5 -40 -18 -45 -106 -46 -55 0 -109 -5 -120 -12 -47
-26 -90 -34 -90 -16 0 10 18 19 40 19 22 0 40 10 40 22 0 15 29 18 90 9 50 -7
90 -6 90 4 0 10 -47 20 -104 23 -57 2 -111 9 -120 14 -9 6 -16 -3 -16 -19 0
-19 -13 -26 -39 -19 -44 11 -74 72 -41 83 12 4 33 19 46 34 36 41 72 35 60
-11z m410 -57 c4 -24 19 -43 34 -43 38 0 56 34 25 47 -19 8 -19 14 3 30 23 15
19 21 -20 29 -37 8 -35 10 12 7 44 -2 61 -14 65 -43 10 -75 -21 -93 -130 -79
-97 13 -125 52 -87 123 11 22 93 -38 98 -71z m-226 -123 c7 -12 1 -19 -13 -15
-14 3 -26 -8 -28 -25 -7 -71 -10 -80 -27 -80 -13 0 -15 88 -3 135 3 14 60 2
71 -15z m63 -33 c-5 -69 -44 -82 -74 -26 -14 26 -15 39 -2 31 11 -7 32 0 47
17 34 39 34 39 29 -22z m367 21 c0 -23 -12 -29 -41 -22 -39 10 -40 8 -11 -35
29 -44 24 -71 -11 -71 -9 0 -16 7 -14 15 2 8 -4 31 -12 50 -17 40 18 95 61 95
16 0 28 -15 28 -32z m-566 -37 c-12 -23 -20 -49 -17 -58 2 -10 -21 -12 -51 -5
l-56 12 50 -29 c62 -37 34 -39 -66 -4 -86 30 -141 73 -92 73 16 0 40 -10 53
-23 17 -17 31 -14 55 10 18 18 25 34 16 34 -29 3 56 30 94 30 31 0 33 -6 14
-40z m386 -6 c0 -21 -15 -27 -48 -20 -35 6 -45 1 -38 -18 6 -15 0 -27 -12 -27
-12 0 -22 25 -22 57 0 51 5 55 60 47 36 -5 60 -20 60 -39z m209 -123 c6 -10
29 -14 51 -8 53 14 55 -55 2 -88 -40 -25 -37 -106 2 -106 11 0 15 -13 9 -29
-6 -17 5 -41 25 -55 20 -15 38 -33 39 -41 2 -8 9 -14 16 -13 44 5 102 -192 62
-209 -18 -7 -19 -15 -3 -26 32 -25 26 -87 -8 -87 -23 0 -24 6 -4 30 20 24 20
30 -3 30 -16 0 -27 21 -27 50 0 29 9 47 23 42 17 -7 17 6 0 50 -12 33 -26 50
-30 38 -4 -12 -34 15 -68 60 -41 57 -66 75 -76 59 -9 -14 1 -42 22 -65 38 -40
84 -164 109 -290 14 -66 62 -106 87 -72 32 44 62 28 40 -21 -17 -37 -16 -73 4
-145 15 -53 26 -100 25 -106 -6 -29 38 -77 62 -68 16 6 33 2 40 -8 6 -11 -3
-18 -20 -17 -48 4 -56 -241 -10 -297 30 -37 30 -38 -6 -10 -35 28 -36 25 -22
-58 9 -58 7 -83 -6 -74 -11 7 -26 1 -32 -13 -6 -14 -7 3 -1 38 6 35 2 82 -10
105 -11 23 -30 60 -41 82 -11 22 -19 78 -18 125 2 81 3 80 30 -45 35 -161 52
-200 36 -80 -7 50 -14 132 -16 184 -3 92 -32 164 -32 79 0 -64 -31 -52 -56 22
-18 56 -20 46 -11 -68 6 -83 2 -138 -11 -146 -14 -8 -17 0 -8 23 12 31 9 32
-19 9 -30 -24 -31 -20 -14 40 28 98 24 196 -10 209 -16 6 -24 22 -19 36 5 14
1 47 -9 73 -10 29 -11 68 0 96 9 25 11 57 3 70 -8 13 -17 36 -19 51 -2 16 -28
83 -57 150 -29 67 -60 140 -70 162 -62 145 -18 440 49 332z m-826 -12 c19 -7
26 -51 25 -151 -2 -145 -28 -207 -70 -165 -29 29 -69 14 -161 -57 -40 -31 -83
-57 -95 -57 -12 0 -22 -9 -22 -20 0 -12 18 -12 50 0 57 22 66 -1 19 -49 -78
-77 -110 27 -38 122 27 36 47 77 44 91 -3 14 6 24 19 21 30 -5 196 202 169
211 -23 7 -8 64 18 64 8 0 28 -5 42 -10z m1050 -223 c28 -58 29 -74 6 -87 -53
-34 -91 11 -83 98 9 93 29 91 77 -11z m-244 -422 c-3 -61 -35 -72 -46 -16 -5
28 12 54 48 71 0 0 -1 -25 -2 -55z m-1044 -498 c-14 -6 -25 -28 -25 -49 0 -34
6 -36 45 -18 43 21 43 21 6 -9 -56 -45 -71 -39 -71 29 0 44 9 60 35 58 21 -1
25 -5 10 -11z m-21 -482 c-13 -5 -25 -37 -26 -72 0 -34 -6 -51 -12 -36 -9 23
-14 23 -30 0 -13 -19 -15 -9 -7 30 15 67 53 114 80 97 11 -6 9 -15 -5 -19z
m-13 -256 c5 -77 2 -88 -22 -68 -23 19 -32 14 -46 -23 l-17 -47 -15 47 c-10
29 -7 52 8 61 16 10 13 23 -12 43 -22 18 -29 19 -20 3 11 -17 1 -25 -28 -25
-36 0 -41 -8 -31 -49 9 -37 6 -47 -15 -39 -38 14 -77 103 -52 118 10 7 19 -4
20 -24 0 -33 3 -32 25 4 13 22 42 43 64 47 22 3 58 18 80 32 51 34 54 31 61
-80z m1569 -66 c0 -23 -6 -23 -30 -3 -26 21 -29 20 -19 -5 6 -17 3 -36 -7 -43
-11 -6 -19 10 -19 37 0 35 10 47 38 45 20 -1 37 -15 37 -31z m162 -21 c16 23
22 22 40 -7 11 -20 29 -31 39 -24 10 6 13 -3 7 -20 -7 -17 -2 -31 10 -31 12 0
22 -9 22 -20 0 -11 -21 -20 -46 -20 -25 0 -57 -11 -70 -24 -19 -19 -24 -17
-24 8 0 17 -19 36 -42 42 -44 12 -46 88 -2 79 13 -3 25 11 26 30 2 30 4 30 12
-3 8 -31 14 -32 28 -10z m-142 -103 c0 30 34 26 46 -5 7 -19 -12 -27 -67 -28
-57 -1 -73 5 -66 26 8 20 21 22 49 7 26 -14 38 -14 38 0z m160 -139 c0 -48
-34 -70 -68 -42 -14 12 -32 16 -39 8 -7 -7 -13 6 -13 29 0 28 15 45 45 50 60
9 75 0 75 -45z"/>
<path d="M3440 4943 c0 -11 11 -27 24 -35 16 -10 11 -20 -15 -30 -66 -26 -89
-20 -75 17 9 27 6 30 -13 12 -36 -33 9 -113 56 -98 19 6 53 -2 74 -18 53 -40
73 -38 52 4 -10 19 -26 61 -36 93 -16 56 -67 97 -67 55z"/>
<path d="M3452 4434 c-25 -93 -15 -137 25 -115 21 11 44 13 51 6 8 -8 8 2 1
21 -7 19 -4 46 9 61 17 21 11 32 -26 49 -42 19 -50 16 -60 -22z"/>
<path d="M3220 3680 c-59 -19 -58 -19 65 -33 82 -9 94 -6 83 21 -13 34 -66 38
-148 12z"/>
<path d="M4041 3854 c-1 -22 -10 -31 -24 -22 -15 9 -18 5 -9 -9 8 -13 23 -18
33 -12 11 6 19 2 19 -10 0 -11 9 -21 20 -21 28 0 25 26 -9 71 -28 36 -30 37
-30 3z"/>
<path d="M3841 1981 c-26 -49 -27 -67 -1 -51 11 7 20 3 20 -8 0 -11 13 -16 28
-10 17 6 32 -4 38 -26 8 -32 10 -33 12 -1 1 19 -15 45 -36 58 -21 13 -33 36
-28 51 16 40 -10 31 -33 -13z"/>
<path d="M3885 5256 c-104 -51 -78 -136 41 -136 47 0 131 -22 191 -50 123 -57
143 -61 143 -23 0 34 -188 213 -224 213 -14 0 -44 5 -66 9 -22 5 -60 -1 -85
-13z"/>
<path d="M1937 3416 c-16 -25 -39 -71 -53 -102 -13 -31 -34 -50 -45 -43 -38
23 -79 -35 -79 -113 0 -153 -114 -197 -216 -84 -104 114 4 280 148 228 78 -28
118 -11 97 43 -16 42 -141 61 -227 36 -146 -43 -216 -178 -154 -298 45 -86 44
-87 -79 -41 -163 61 -173 46 -167 -231 6 -241 26 -295 104 -276 88 22 361 252
353 297 -11 57 4 90 36 83 55 -13 141 40 176 107 22 43 42 58 66 51 18 -6 81
-28 140 -50 139 -50 205 -34 231 56 16 56 13 71 -19 95 -36 26 -41 23 -60 -47
-12 -41 -28 -65 -36 -53 -7 12 -58 34 -113 48 -110 28 -114 34 -69 119 51 99
20 261 -34 175z m-557 -507 c50 -17 101 -34 114 -39 22 -7 -165 -210 -194
-210 -8 0 -16 55 -18 123 -2 68 -8 131 -14 140 -15 24 9 21 112 -14z"/>
<path d="M2416 3049 c-6 -6 -6 -51 -1 -100 l10 -89 -70 0 c-187 0 -258 -233
-98 -318 66 -36 94 7 46 69 -75 95 -47 189 57 189 85 0 140 67 140 171 0 84
-40 122 -84 78z"/>
<path d="M4240 2958 c-27 -23 -39 -36 -25 -29 16 9 20 2 12 -19 -7 -18 -24
-28 -39 -22 -33 13 -41 1 -58 -92 -17 -92 60 -188 137 -169 24 7 68 -1 97 -16
117 -60 177 -60 230 2 96 110 128 227 63 227 -11 0 -14 9 -7 20 7 11 -1 14
-19 8 -37 -14 -42 23 -6 40 14 6 4 6 -23 0 -31 -8 -43 -5 -33 10 8 14 1 17
-19 9 -18 -7 -52 -3 -76 8 -164 75 -170 76 -234 23z m152 -69 c-6 -17 -4 -27
4 -21 9 5 28 2 43 -7 14 -9 53 -9 85 0 57 16 53 -15 -7 -61 -7 -6 -21 -41 -31
-78 -11 -42 -32 -70 -53 -74 -24 -3 -30 2 -17 19 10 12 24 50 32 83 l13 60
-41 -47 c-31 -36 -40 -40 -40 -15 0 18 -9 32 -20 32 -19 0 -9 84 14 125 16 28
30 15 18 -16z m-92 -48 c0 -33 -46 -121 -63 -121 -20 0 -22 63 -5 108 13 34
68 45 68 13z"/>
<path d="M1911 2821 c-134 -88 -129 -250 9 -298 76 -26 200 15 200 66 0 29 -6
29 -59 2 -32 -17 -73 -25 -90 -19 -49 19 -36 76 24 104 125 57 138 78 85 134
-56 60 -91 62 -169 11z m98 -59 c12 -19 -86 -91 -103 -75 -5 5 -4 29 4 51 13
42 78 58 99 24z"/>
<path d="M3190 2840 c7 -12 21 -16 30 -10 9 6 23 1 30 -11 10 -15 21 -14 40 1
19 16 28 15 34 -3 6 -17 13 -13 22 9 11 29 -1 34 -78 34 -56 0 -86 -8 -78 -20z"/>
<path d="M4781 2819 c16 -31 16 -67 -3 -138 -26 -102 -14 -170 27 -156 59 19
34 335 -26 335 -13 0 -12 -15 2 -41z"/>
<path d="M3044 2776 c-36 -36 -29 -88 21 -146 43 -50 115 -55 115 -8 0 10 14
18 30 18 17 0 30 9 30 20 0 11 -14 20 -31 20 -25 0 -26 8 -7 43 19 36 18 41
-9 31 -17 -7 -37 -4 -44 7 -21 34 -49 20 -49 -26 0 -25 -9 -58 -19 -74 -12
-19 -14 0 -7 55 12 90 8 98 -30 60z"/>
<path d="M1800 961 c0 -29 60 -81 94 -81 16 0 26 -11 21 -25 -6 -15 8 -26 37
-28 30 -2 51 11 59 35 7 23 22 33 35 24 17 -9 16 -4 -1 17 -13 17 -19 37 -11
44 7 7 3 13 -9 13 -12 0 -35 5 -52 11 -18 8 -33 -2 -39 -25 -8 -33 -10 -33
-12 -1 -2 37 -122 53 -122 16z"/>
</g>
</svg>
