<?xml version="1.0" standalone="no"?>
<!DOCTYPE svg PUBLIC "-//W3C//DTD SVG 20010904//EN"
 "http://www.w3.org/TR/2001/REC-SVG-20010904/DTD/svg10.dtd">
<svg version="1.0" xmlns="http://www.w3.org/2000/svg"
 width="300.000000pt" height="400.000000pt" viewBox="0 0 300.000000 400.000000"
 preserveAspectRatio="xMidYMid meet">
<metadata>
Created by potrace 1.10, written by Peter Selinger 2001-2011
</metadata>
<g transform="translate(0.000000,400.000000) scale(0.050000,-0.050000)"
fill="#000000" stroke="none">
<path d="M3047 7875 c-32 -25 -91 -62 -133 -84 -108 -55 -361 -347 -445 -513
-77 -153 -81 -236 -17 -403 37 -100 36 -115 -13 -115 -102 0 -213 -84 -286
-217 -46 -86 -279 -405 -341 -470 -30 -31 -33 -46 -16 -74 15 -25 16 -56 2
-102 -32 -110 -74 -319 -108 -539 -18 -115 -41 -262 -52 -328 -54 -335 -97
-752 -144 -1409 -3 -41 8 -52 67 -66 57 -14 77 -32 97 -86 18 -50 37 -69 68
-69 24 0 66 -6 92 -13 34 -9 44 -6 34 10 -8 13 -5 23 7 23 11 0 21 9 21 21 0
29 -86 58 -112 37 -14 -11 -44 10 -85 61 -79 98 -78 101 7 101 61 0 70 -6 70
-50 0 -37 11 -50 40 -50 27 0 40 13 40 40 0 29 13 40 50 40 32 0 50 -11 50
-31 0 -17 9 -26 19 -20 10 7 18 82 16 167 -2 84 7 172 18 194 12 22 28 76 36
120 7 44 40 186 72 316 33 130 59 271 59 313 0 42 12 86 28 99 39 33 50 -84
21 -222 -12 -58 -42 -209 -66 -336 -24 -126 -63 -306 -86 -400 -109 -441 -137
-585 -167 -857 -18 -161 -54 -468 -81 -683 -26 -214 -71 -604 -98 -866 -28
-262 -60 -494 -71 -514 -44 -82 35 -176 160 -190 402 -44 615 -127 470 -183
-16 -6 -30 -21 -30 -32 0 -12 18 -5 40 15 22 20 46 31 53 24 18 -18 -70 -91
-153 -126 -135 -58 -158 -74 -182 -133 -37 -89 48 -158 106 -85 20 26 36 56
36 68 0 12 10 22 23 22 12 0 34 16 48 35 21 28 31 30 52 10 21 -21 17 -31 -18
-56 -124 -87 -124 -137 1 -137 67 0 214 92 214 134 0 11 -21 1 -46 -23 -26
-23 -67 -43 -91 -43 -28 0 -40 -9 -32 -22 9 -13 0 -19 -22 -15 -53 10 -60 57
-9 57 27 0 37 8 28 23 -10 16 -4 20 19 11 25 -10 33 -1 33 38 0 50 96 168 136
168 11 0 30 13 44 30 14 16 41 30 61 30 67 0 67 -45 -1 -100 -80 -65 -45 -91
70 -51 86 30 107 56 95 120 -11 57 191 86 450 64 177 -15 189 -21 166 -80 -30
-80 305 -354 429 -352 42 1 50 6 26 15 -25 10 -29 23 -16 44 15 25 25 23 60
-15 48 -52 54 -53 127 -20 108 49 50 173 -121 257 -119 59 -154 36 -48 -31 82
-51 88 -107 9 -77 -17 6 -27 -4 -27 -30 0 -22 -14 -45 -32 -52 -43 -16 -41
-18 -40 33 2 37 -8 44 -53 41 -40 -2 -55 6 -56 30 0 43 -46 104 -77 104 -14 0
-18 -10 -11 -22 7 -12 -15 -7 -50 12 -82 42 -71 70 44 104 51 14 99 35 105 46
21 34 88 22 110 -19 12 -23 33 -35 50 -28 37 14 39 47 3 47 -14 0 -26 14 -26
30 0 44 48 37 63 -10 12 -39 50 -57 50 -23 0 29 -96 108 -117 95 -11 -7 -25
-4 -32 6 -6 10 3 23 20 30 17 6 29 23 26 37 -22 117 70 141 317 83 127 -30
390 -31 419 -2 6 7 -12 100 -40 208 -98 373 -240 1162 -312 1736 -72 568 -81
611 -121 590 -62 -33 -134 42 -124 128 7 60 16 72 56 72 53 0 62 -37 26 -103
-12 -22 -16 -45 -10 -52 18 -17 72 37 72 72 1 67 30 85 116 71 76 -12 82 -18
72 -61 -13 -50 118 -73 163 -28 76 76 -79 1875 -205 2378 -29 115 -29 132 0
192 30 63 29 68 -12 104 -24 21 -75 78 -114 127 -38 49 -116 138 -173 199
-254 274 -248 264 -217 352 16 44 29 98 29 121 2 97 -324 732 -420 818 -24 22
-66 74 -92 115 -55 87 -83 92 -160 30z m170 -315 c9 0 37 -20 63 -44 50 -47
52 -36 9 74 -42 109 18 -5 108 -205 139 -310 185 -464 171 -581 l-11 -94 43
50 c37 43 36 37 -8 -41 l-51 -90 45 -28 c43 -27 42 -28 -36 -51 -80 -24 -80
-24 -25 -39 103 -29 -6 -171 -130 -171 -97 0 -139 -110 -45 -120 93 -10 134 1
144 39 9 36 124 116 212 148 43 15 81 -62 49 -102 -20 -25 5 -36 55 -26 11 3
13 -2 5 -11 -8 -8 8 -44 35 -80 28 -36 50 -79 50 -96 0 -17 11 -27 25 -22 46
17 82 -21 59 -63 -12 -20 -29 -35 -38 -32 -9 3 -16 -6 -16 -20 0 -14 -9 -32
-20 -40 -21 -16 22 -54 60 -54 11 0 7 8 -10 19 -19 12 -21 20 -6 20 14 0 20
14 13 30 -6 17 -1 30 11 30 12 0 22 -13 22 -29 0 -16 15 -37 33 -47 28 -16 24
-25 -30 -65 -56 -42 -92 -100 -43 -69 11 7 20 5 20 -4 -1 -24 -39 -79 -40 -56
0 11 -8 8 -18 -8 -10 -15 -19 -110 -20 -212 -2 -102 -15 -249 -30 -327 -25
-129 -17 -301 11 -253 55 92 92 347 66 452 -7 31 5 115 29 202 23 82 42 172
42 201 0 29 9 58 20 65 12 7 20 -14 20 -50 0 -35 13 -76 30 -93 51 -50 1 -526
-67 -637 -6 -11 -14 -32 -16 -46 -2 -14 -27 -56 -55 -94 -29 -37 -52 -77 -52
-89 0 -11 -16 -21 -36 -21 -29 0 -35 14 -30 75 6 66 4 69 -14 28 -15 -34 -28
-42 -45 -28 -43 33 -159 65 -182 50 -13 -8 -34 -14 -48 -14 -13 -1 -51 -25
-82 -55 -76 -72 -82 -61 -49 99 49 232 52 705 6 705 -35 0 -38 -24 -47 -335
-11 -382 -11 -385 -44 -385 -14 0 -24 -11 -24 -25 5 -116 -25 -134 -57 -35
-27 83 -35 100 -48 100 -23 0 -40 -56 -28 -88 18 -47 -28 -56 -70 -14 -21 21
-45 33 -53 25 -8 -7 -7 8 1 35 10 34 8 43 -10 32 -13 -8 -20 -36 -15 -62 10
-50 -30 -68 -56 -26 -7 12 -31 17 -52 11 -29 -7 -36 -2 -28 24 22 71 -95 41
-131 -33 -77 -158 -92 -12 -39 376 11 83 20 180 20 217 -1 141 2 143 225 143
l200 0 -12 -48 c-6 -27 -17 -61 -23 -78 -6 -16 3 -34 22 -42 27 -10 32 -3 24
38 -5 27 -1 50 10 50 11 0 14 14 7 31 -6 17 1 35 18 42 17 6 30 23 30 38 0 15
10 33 22 40 15 10 18 0 9 -28 -16 -50 19 -58 67 -16 18 15 73 33 122 39 50 7
79 7 66 2 -16 -7 -18 -26 -8 -54 9 -24 14 -109 10 -189 -5 -133 15 -194 36
-110 11 43 4 217 -12 283 -7 33 0 57 24 74 56 41 13 54 -90 28 -85 -22 -108
-20 -205 17 -80 31 -115 36 -135 20 -14 -12 -26 -17 -26 -10 0 7 -22 4 -49 -7
-33 -12 -54 -11 -63 3 -9 14 -19 12 -32 -6 -15 -22 -21 -22 -29 -1 -9 20 -17
20 -39 2 -24 -19 -27 -17 -18 14 8 26 3 23 -12 -7 -16 -29 -43 -45 -76 -45
-41 -1 -46 -5 -22 -20 24 -15 20 -19 -20 -19 -90 0 -140 22 -140 63 0 21 -9
33 -19 27 -11 -7 -15 -24 -9 -39 8 -20 -30 -14 -136 21 -80 27 -207 56 -282
66 -191 25 -284 89 -190 131 24 11 45 38 46 60 4 66 49 133 49 75 1 -25 10
-45 21 -45 12 0 15 22 7 53 -11 44 -7 51 19 41 27 -10 29 -4 13 38 -25 65 -24
68 9 68 15 0 38 29 51 65 22 65 126 175 165 175 14 0 13 9 -2 28 -18 21 -14
29 18 38 22 6 35 2 29 -8 -6 -10 7 -18 28 -18 22 0 54 -13 70 -30 17 -16 39
-30 50 -30 10 0 66 -31 123 -70 57 -38 113 -70 123 -70 11 0 14 -19 5 -45 -12
-41 -11 -42 21 -16 19 16 70 34 113 40 101 14 102 49 3 57 -49 4 -96 26 -135
63 -33 31 -87 70 -120 87 -171 87 -226 224 -90 225 113 0 132 -8 87 -41 -31
-22 -26 -27 47 -39 79 -13 183 -69 131 -70 -28 -1 -35 -81 -7 -81 9 0 31 20
48 45 48 71 105 24 101 -83 -3 -71 30 -125 35 -57 1 18 4 17 12 -2 9 -23 14
-23 28 0 13 20 17 20 18 2 0 -14 13 -25 29 -25 70 0 59 -148 -12 -167 -24 -6
-35 -20 -27 -33 8 -13 26 -18 41 -12 51 19 49 -23 -2 -57 -28 -18 -45 -41 -38
-52 6 -10 2 -19 -10 -19 -11 0 -21 -10 -21 -21 0 -12 11 -15 25 -6 18 10 17 5
-2 -18 -31 -39 -12 -83 29 -67 15 6 28 0 29 -14 0 -13 10 -8 21 12 12 20 16
52 10 70 -11 32 -10 32 14 1 24 -32 28 -32 51 0 13 18 20 23 15 11 -6 -12 2
-21 17 -21 16 0 22 12 16 30 -9 21 -4 25 17 13 15 -9 11 2 -10 26 -20 24 -45
38 -54 32 -10 -5 -12 4 -6 21 7 17 4 31 -6 31 -10 0 -17 27 -17 59 1 46 6 54
25 35 47 -49 170 -285 171 -329 0 -24 7 -40 16 -34 9 5 26 -6 37 -26 12 -19
21 -28 21 -19 2 31 -263 524 -293 548 -34 26 -19 66 26 66 48 0 203 157 250
254 79 163 37 475 -90 672 -61 94 -249 254 -299 254 -14 0 -37 11 -52 25 -16
15 -22 16 -14 2 7 -13 -1 -28 -17 -34 -44 -17 -37 -53 10 -53 49 0 50 -16 2
-78 -28 -37 -33 -63 -20 -119 8 -39 11 -78 6 -87 -20 -32 27 -15 60 22 23 25
27 43 13 51 -11 7 -21 4 -21 -8 0 -11 -11 -21 -25 -21 -13 0 0 24 30 54 53 53
55 54 84 15 38 -50 39 -71 1 -56 -48 18 -35 -9 40 -84 63 -63 99 -150 50 -119
-11 7 -20 -6 -20 -29 0 -24 -13 -41 -32 -41 -23 0 -29 -12 -22 -42 10 -35 4
-40 -32 -30 -24 6 -56 12 -71 12 -19 0 -25 16 -18 50 11 57 13 56 -52 31 -36
-13 -53 -12 -60 5 -5 13 -11 4 -11 -21 -1 -25 -11 -45 -22 -45 -53 0 -102 319
-57 374 23 28 23 31 -1 17 -19 -11 -24 -8 -17 11 5 15 29 26 52 23 24 -2 43 7
43 20 1 18 6 17 18 -3 14 -22 22 -19 41 15 19 37 17 43 -15 43 -36 0 -36 3 4
88 22 49 48 85 56 79 9 -5 32 0 51 11 28 16 47 8 91 -39 31 -32 63 -59 71 -59z
m-379 -45 c-23 -47 -57 -101 -73 -120 -17 -19 -24 -35 -16 -35 8 0 -13 -32
-47 -71 -34 -39 -62 -80 -62 -91 0 -11 -10 -14 -23 -6 -14 8 -18 5 -10 -7 16
-26 -5 -88 -26 -76 -8 5 -27 -13 -42 -40 -18 -34 -31 -42 -41 -25 -17 27 19
85 175 278 59 72 120 165 137 205 17 40 40 73 51 73 11 0 1 -38 -23 -85z m-98
-593 c0 -22 -58 -46 -79 -33 -9 6 -14 30 -12 56 2 25 -4 63 -14 85 -11 25 5
16 44 -25 33 -36 61 -74 61 -83z m174 -52 c23 -16 46 -22 49 -13 14 35 233 39
226 4 -3 -17 -7 -65 -7 -107 -2 -91 -74 -174 -151 -174 -28 0 -51 7 -51 16 0
9 -36 65 -80 124 -110 148 -103 232 14 150z m313 -345 c5 -9 -2 -37 -16 -63
l-25 -47 -12 46 c-17 64 23 112 53 64z m-1124 -800 c2 -19 5 -44 7 -55 13 -75
30 -265 36 -403 l6 -162 -54 40 c-90 66 -131 161 -100 229 16 33 25 123 24
221 -3 153 0 165 37 165 25 0 42 -14 44 -35z m191 -152 c-6 -68 -28 -183 -50
-257 -21 -74 -34 -140 -27 -146 20 -20 20 -70 0 -70 -11 0 -14 -9 -7 -20 7
-11 3 -20 -9 -20 -32 0 -29 654 4 666 70 25 100 -26 89 -153z m323 49 c19 -12
24 -39 16 -85 -6 -37 -26 -151 -43 -254 -17 -103 -43 -211 -58 -240 -15 -29
-33 -86 -40 -126 -17 -96 -69 -118 -85 -37 -7 33 -21 60 -32 60 -12 0 -15 41
-8 105 7 58 12 108 13 111 0 4 7 2 16 -3 8 -6 17 25 19 69 2 53 -4 75 -19 65
-15 -9 -16 -4 -5 14 9 16 18 64 20 107 1 44 13 83 27 88 16 5 17 16 4 32 -64
77 80 154 175 94z m488 3 c-47 -4 -123 -4 -170 0 -47 5 -8 8 85 8 94 0 132 -3
85 -8z m-1218 -269 c14 -76 46 -129 133 -218 42 -43 74 -95 71 -114 -3 -18 6
-52 20 -74 39 -63 -7 -218 -66 -226 -25 -4 -40 -15 -34 -25 6 -11 0 -19 -15
-19 -19 0 -24 -26 -19 -92 5 -63 -1 -98 -20 -110 -23 -15 -23 -17 0 -18 23 0
23 -6 3 -30 -17 -21 -18 -30 -2 -30 12 0 22 -13 22 -29 0 -32 -69 -60 -100
-41 -11 7 -20 5 -20 -4 0 -9 18 -28 40 -41 57 -36 50 -51 -40 -90 -133 -58
-169 -45 -109 41 18 25 28 71 24 108 -5 43 5 76 31 102 29 29 32 43 14 54 -18
11 -19 19 -1 30 13 8 19 27 13 42 -9 23 -3 25 30 7 69 -37 88 -9 25 36 -60 43
-87 284 -40 360 8 12 6 27 -3 33 -9 5 -11 54 -4 109 7 54 6 115 -1 136 -8 20
-5 48 6 62 11 13 15 37 9 53 -6 15 -6 33 1 40 16 17 21 9 32 -52z m2310 -384
c-4 -49 1 -83 10 -78 19 12 5 -120 -20 -184 -41 -106 -169 -261 -227 -273 -16
-4 -37 -16 -45 -27 -9 -12 -15 -10 -15 6 0 15 -8 21 -18 15 -10 -6 -9 -45 3
-91 21 -85 -4 -414 -47 -610 -51 -231 -43 -383 21 -449 36 -37 59 -81 59 -115
0 -31 4 -80 8 -110 5 -30 1 -50 -9 -44 -9 6 -17 -2 -17 -18 0 -16 -6 -70 -13
-121 -7 -54 -5 -93 6 -93 11 0 20 20 20 45 1 25 4 72 7 105 l5 60 12 -58 c7
-31 9 -138 3 -237 -5 -98 -3 -183 5 -188 9 -6 9 -20 1 -33 -8 -13 -18 -46 -22
-74 -3 -27 -15 -53 -25 -57 -11 -3 -19 -20 -19 -36 0 -16 7 -25 16 -19 9 5 26
-17 38 -49 13 -33 14 -54 4 -48 -10 6 -18 2 -18 -10 0 -11 8 -21 19 -21 38 0
45 -83 10 -121 -47 -52 -75 -49 -58 6 9 31 7 39 -7 25 -25 -25 -84 -389 -84
-520 0 -164 -88 -843 -112 -868 -4 -5 -8 18 -9 50 0 32 -13 75 -28 95 -16 20
-23 50 -17 65 5 15 0 28 -13 28 -13 0 -18 -8 -12 -19 6 -10 3 -23 -7 -30 -10
-6 -14 -31 -8 -56 8 -36 5 -39 -12 -15 -23 32 -24 30 -30 -60 -2 -21 -21 -28
-62 -24 -33 3 -85 8 -115 10 -30 2 -55 10 -55 17 0 8 -32 10 -71 5 -52 -6 -68
-2 -57 15 9 15 6 18 -10 8 -13 -8 -84 -18 -158 -23 -177 -11 -184 -12 -184
-29 0 -8 -32 -13 -72 -11 -44 2 -88 -11 -112 -31 -39 -35 -96 -30 -96 7 0 12
19 16 43 9 28 -7 36 -4 23 9 -23 23 -131 2 -116 -23 6 -9 0 -23 -13 -31 -15
-9 -18 -5 -7 12 12 20 5 23 -28 15 -29 -8 -48 -2 -55 17 -6 15 -27 28 -47 28
-43 0 -51 28 -58 225 -5 131 -1 155 26 155 18 0 32 -11 32 -24 0 -19 5 -19 24
0 13 13 42 25 65 26 38 2 38 3 -4 15 l-45 13 60 70 c33 39 68 70 78 70 56 0
38 30 -20 33 -47 2 -54 5 -23 11 55 11 55 7 3 95 -23 39 -35 71 -28 71 8 0 4
13 -8 28 -18 21 -16 35 9 60 17 18 23 32 12 32 -37 0 1 76 44 88 39 12 40 14
8 33 -47 28 -44 72 5 85 22 6 40 21 40 33 0 13 -10 17 -22 10 -15 -9 -18 0
-10 28 7 24 17 62 24 86 7 25 4 37 -7 30 -29 -18 -8 127 29 197 29 56 42 146
49 345 2 47 9 85 15 85 7 0 12 59 11 131 0 73 6 136 13 140 8 5 9 45 4 88 -6
44 -4 95 5 115 24 54 29 126 8 126 -10 0 -13 12 -8 26 6 14 13 136 16 270 3
156 14 253 29 268 13 13 24 33 24 45 0 12 -9 8 -19 -8 -12 -19 -16 28 -10 130
4 87 9 159 10 159 9 0 8 114 -1 120 -20 12 -10 337 11 344 18 6 89 -131 89
-174 0 -10 15 -13 32 -6 28 10 29 6 8 -34 -19 -36 -19 -48 3 -62 15 -10 20
-18 11 -18 -9 0 -9 -11 0 -25 15 -24 18 -34 24 -73 3 -25 57 -15 87 15 20 20
19 28 -2 41 -14 9 -26 22 -25 29 5 37 0 53 -17 53 -11 0 -15 -13 -8 -30 7 -18
0 -30 -18 -30 -19 0 -28 18 -25 55 6 80 7 84 35 78 14 -4 18 -3 10 2 -8 5 -9
18 -2 30 9 14 0 17 -25 8 -37 -13 -37 -12 0 16 23 18 33 44 27 69 -11 41 28
92 52 68 7 -7 13 -29 13 -49 0 -24 15 -37 42 -37 28 0 39 9 31 28 -13 34 28
53 83 39 22 -6 46 -1 53 11 45 73 54 -28 26 -276 -3 -26 6 -52 20 -57 18 -6
25 15 24 68 -2 172 -1 181 25 138 26 -45 75 -563 69 -738 -2 -64 2 -120 9
-124 7 -4 11 -80 10 -168 -2 -89 4 -161 12 -161 8 0 10 -12 5 -27 -6 -14 -1
-51 10 -81 13 -35 14 -50 1 -42 -11 7 -20 3 -20 -9 0 -11 11 -22 25 -23 20 -1
20 -3 0 -11 -14 -6 -25 -33 -25 -60 0 -27 8 -44 18 -38 10 6 16 -5 13 -24 -3
-19 4 -48 17 -64 17 -23 16 -25 -6 -12 -21 13 -26 9 -18 -11 26 -67 58 -259
46 -278 -7 -11 -3 -20 8 -20 11 0 16 -12 10 -27 -6 -16 5 -43 23 -61 41 -41
65 -26 29 18 -17 20 -18 30 -2 30 12 0 22 18 22 40 0 22 -7 40 -16 40 -9 0
-15 61 -13 135 1 74 -5 150 -14 169 -10 18 -10 38 0 44 9 6 10 61 1 122 -8 61
-7 138 2 169 9 32 12 62 7 67 -5 5 -13 98 -18 207 -8 204 -38 512 -60 617 -69
344 -86 526 -42 454 6 -9 45 -18 87 -21 42 -3 84 -13 95 -24 10 -10 44 -19 74
-19 30 0 68 -13 84 -30 60 -60 96 -38 83 52 -9 55 -6 78 9 69 11 -7 21 -23 21
-34 0 -11 17 -43 38 -69 l39 -49 13 65 c21 97 87 294 131 391 21 46 39 98 39
115 0 16 14 30 32 30 26 0 31 -18 25 -88z m-1436 -234 c82 9 154 14 161 10 7
-4 92 -11 190 -16 98 -4 195 -15 215 -23 23 -9 44 -5 55 13 13 22 17 22 18 2
0 -19 19 -23 65 -15 247 42 409 38 405 -10 -3 -47 -50 -83 -50 -39 0 18 -55
20 -215 9 -253 -18 -204 -18 -465 3 -187 16 -254 16 -440 2 -56 -4 -51 22
-109 -574 -17 -170 -48 -391 -70 -490 -64 -287 -74 -465 -62 -1059 3 -109 13
-219 22 -244 14 -37 9 -51 -22 -67 -21 -12 -39 -14 -40 -6 -3 43 -12 292 -15
411 -4 142 -34 181 -54 70 -6 -36 -15 -285 -19 -555 -4 -269 -14 -536 -21
-591 -11 -77 -7 -117 18 -164 39 -76 41 -145 6 -192 -40 -56 -98 -21 -91 55 3
34 0 71 -7 82 -6 11 -4 76 6 145 26 189 31 485 8 485 -11 0 -10 7 3 15 17 11
22 106 18 325 -5 307 23 475 91 549 35 37 18 225 -33 372 -68 197 -66 316 10
619 51 204 66 309 78 576 16 365 26 390 133 324 54 -33 81 -36 211 -22z m-341
0 c0 -10 -16 -18 -35 -18 -19 0 -56 -6 -83 -13 -35 -10 -45 -6 -38 14 16 50
156 64 156 17z m1840 -218 c0 -11 -8 -20 -19 -20 -10 0 -14 -23 -9 -52 6 -32
2 -46 -11 -38 -12 7 -21 -2 -21 -19 0 -17 -10 -31 -23 -31 -13 0 -18 -5 -12
-12 6 -6 30 -1 52 11 43 22 54 -212 15 -301 -10 -23 -2 -36 25 -43 42 -11 39
-115 -3 -115 -15 0 -14 -8 2 -24 26 -26 33 -96 9 -96 -9 0 -15 -28 -15 -62 0
-60 -3 -62 -95 -69 -63 -4 -95 2 -95 17 0 14 -9 12 -20 -6 -15 -22 -19 -12
-19 40 0 53 4 63 19 40 15 -22 19 -12 17 40 -2 67 6 113 31 180 15 42 -39 108
-77 93 -76 -29 -25 146 74 256 19 21 35 59 35 85 0 25 12 46 27 46 14 0 38 23
53 50 27 50 60 67 60 30z m-2343 -398 c-15 -23 -42 -42 -62 -42 -19 0 -35 -9
-35 -20 0 -11 9 -20 20 -20 11 0 20 -17 20 -38 0 -28 -10 -36 -40 -28 -49 13
-53 -27 -8 -90 32 -47 26 -104 -11 -104 -12 0 -21 20 -21 46 0 25 -18 61 -40
79 -68 59 -54 165 25 194 36 14 87 36 115 51 61 33 70 26 37 -28z m2005 -463
c-15 -38 -20 -10 -21 123 0 94 6 178 14 186 23 24 29 -253 7 -309z m-1784
-596 c22 -107 12 -347 -17 -402 -13 -23 -14 -41 -4 -41 11 0 15 -18 9 -40 -33
-125 -46 14 -43 465 2 436 5 478 20 305 9 -110 25 -239 35 -287z m-6 -595 c-7
-17 -12 -73 -12 -123 0 -128 -19 -96 -25 42 -4 84 2 113 22 113 17 0 23 -12
15 -32z m-113 -393 c-1 -104 -7 -150 -18 -125 -14 36 -15 72 -4 245 7 114 23
28 22 -120z m1972 -87 c-9 -39 -6 -48 13 -36 17 10 15 2 -4 -22 -27 -34 -27
-36 5 -24 23 8 35 3 35 -17 0 -16 -10 -29 -22 -29 -14 0 -18 -24 -11 -65 28
-154 33 -272 14 -285 -15 -8 -14 -25 1 -53 12 -23 18 -63 13 -89 -5 -26 -2
-42 8 -36 9 6 17 23 17 39 0 16 10 29 22 29 21 0 20 11 -15 137 -12 44 -10 45
30 20 24 -15 39 -39 33 -54 -5 -14 -4 -50 3 -79 12 -48 15 -49 29 -13 12 32
15 33 17 5 0 -18 -8 -39 -18 -45 -11 -7 -3 -40 19 -77 45 -77 34 -176 -17
-162 -18 5 -12 -2 13 -15 53 -28 51 -83 -4 -94 -24 -4 -32 1 -22 17 11 18 5
19 -26 2 -59 -32 -64 -29 -64 38 0 69 -12 74 -63 27 -22 -20 -37 -24 -37 -10
0 13 -13 23 -30 23 -18 0 -30 -19 -30 -49 0 -102 -40 -72 -43 33 -2 72 -6 85
-11 41 -5 -36 -18 -65 -29 -65 -12 0 -16 -14 -9 -31 6 -18 3 -26 -8 -19 -20
12 -3 258 22 310 2 6 7 46 10 90 3 44 11 111 19 148 10 48 8 64 -8 54 -17 -11
-17 0 -3 39 11 29 16 60 10 69 -6 9 4 31 21 48 24 24 25 32 5 33 -16 0 -13 8
9 21 19 11 35 31 35 44 0 15 -8 12 -20 -6 -15 -23 -19 -14 -20 35 0 52 8 65
41 65 26 0 36 8 27 23 -9 14 -5 18 9 9 13 -8 23 -5 23 7 0 11 5 21 12 21 7 0
6 -23 -1 -52z m-1991 -233 c1 -33 5 -38 18 -17 32 50 41 -36 32 -313 -6 -215
-2 -265 20 -265 57 0 86 -57 83 -164 l-3 -106 -110 0 c-107 0 -110 2 -108 54
1 30 -5 50 -15 44 -9 -6 -17 -26 -17 -44 -1 -29 -3 -30 -20 -4 -28 42 -2 205
36 235 22 18 24 25 6 25 -16 0 -21 13 -14 33 7 17 2 44 -10 60 -16 19 -16 27
-1 27 12 0 17 12 12 26 -6 14 0 102 12 195 12 93 22 189 23 214 0 25 13 45 28
45 16 0 28 -20 28 -45z"/>
<path d="M2980 7165 c0 -8 45 -15 100 -15 55 0 100 7 100 15 0 8 -45 15 -100
15 -55 0 -100 -7 -100 -15z"/>
<path d="M2641 6187 c-1 -60 -22 -109 -41 -97 -9 6 -23 -17 -30 -50 -7 -33
-20 -56 -29 -50 -16 9 -46 -71 -32 -86 22 -22 110 63 90 87 -15 18 -14 30 3
40 15 10 19 7 10 -8 -8 -13 -5 -23 6 -23 28 0 67 76 52 101 -7 10 2 25 19 31
17 7 31 21 31 31 0 11 -8 14 -19 8 -10 -7 -28 4 -39 24 -19 32 -21 31 -21 -8z"/>
<path d="M2672 5977 c-54 -100 -89 -177 -79 -171 10 6 39 52 64 103 38 75 123
160 123 122 0 -5 22 -2 48 8 48 19 87 -18 62 -59 -15 -25 54 -44 77 -21 15 15
11 21 -11 21 -17 0 -36 18 -42 40 -9 33 0 40 49 40 45 0 58 8 53 33 -6 33
-116 55 -116 23 0 -8 -13 -10 -30 -3 -16 6 -30 1 -30 -12 0 -13 -9 -18 -20
-11 -11 7 -20 -2 -20 -20 0 -18 -10 -26 -22 -19 -12 7 -16 35 -9 61 19 78 5
58 -97 -135z"/>
<path d="M2438 6028 c-2 -10 -1 -34 1 -53 2 -19 -6 -35 -18 -35 -11 0 -21 -13
-21 -28 0 -16 -11 -33 -25 -38 -14 -5 -18 -16 -10 -24 8 -9 31 -1 52 17 20 18
42 27 49 21 7 -7 7 22 0 65 -12 77 -24 110 -28 75z"/>
<path d="M3480 5942 c0 -30 95 -127 106 -108 5 9 -17 41 -48 72 -32 31 -58 47
-58 36z"/>
<path d="M3705 5718 c-57 -17 -63 -24 -45 -59 12 -21 25 -76 30 -122 4 -46 18
-90 30 -97 12 -8 19 -26 16 -42 -4 -18 15 -30 54 -34 46 -4 53 -1 30 15 -16
11 -22 21 -13 21 10 0 3 22 -15 49 -17 27 -32 68 -32 90 0 23 -7 41 -16 41
-26 0 -16 91 13 127 16 18 25 32 20 31 -4 -1 -36 -10 -72 -20z"/>
<path d="M3525 5210 c0 -41 5 -46 28 -28 15 13 27 35 27 50 0 16 -12 28 -27
28 -17 0 -28 -21 -28 -50z"/>
<path d="M3033 5227 c-21 -22 -15 -42 16 -54 20 -8 26 -1 18 23 -9 31 -8 31
19 -1 39 -48 60 -44 29 5 -25 40 -57 51 -82 27z"/>
<path d="M3627 4427 c7 -8 1 -33 -13 -55 -49 -76 -52 -103 -13 -103 27 0 31 6
17 24 -21 24 15 107 47 107 8 0 15 9 15 20 0 11 -15 20 -33 20 -19 0 -28 -6
-20 -13z"/>
<path d="M3238 4226 c-1 -9 -1 -63 0 -121 1 -81 -5 -105 -28 -105 -31 0 -37
-27 -31 -125 2 -31 -6 -55 -20 -55 -13 0 -2 -17 24 -39 39 -31 42 -43 21 -65
-22 -21 -24 -20 -14 7 17 45 -20 64 -51 25 -22 -26 -21 -34 2 -49 16 -10 22
-19 13 -19 -8 0 -5 -19 8 -43 18 -35 17 -41 -5 -33 -29 12 -38 -94 -11 -137 8
-13 3 -28 -11 -34 -19 -8 -19 -14 2 -29 20 -14 22 -29 8 -54 -24 -44 -9 -110
25 -110 14 0 31 13 37 29 7 19 1 25 -18 18 -21 -8 -26 -2 -16 22 8 21 27 31
50 24 20 -5 32 -2 27 7 -6 10 -1 23 11 30 14 10 14 22 -2 42 -19 22 -18 28 3
28 15 0 7 14 -17 31 -25 17 -55 51 -68 75 -20 37 -19 40 5 21 22 -18 37 -17
65 3 40 30 26 79 -18 62 -15 -6 -33 -2 -40 9 -6 10 3 19 21 19 18 0 27 9 20
20 -7 11 -5 20 5 20 9 0 17 16 18 35 13 264 26 407 36 424 7 12 3 21 -9 21
-12 0 -17 8 -11 19 6 10 3 24 -9 31 -11 7 -21 5 -22 -4z"/>
<path d="M3000 4119 c0 -10 -18 -37 -40 -59 -22 -22 -29 -40 -16 -40 19 0 19
-5 0 -24 -33 -33 -30 -56 6 -56 31 0 33 6 38 85 1 25 17 47 37 51 43 8 46 36
5 51 -16 7 -30 3 -30 -8z"/>
<path d="M2921 3893 c4 -67 36 -105 50 -59 21 71 21 72 -16 77 -19 3 -34 -5
-34 -18z"/>
<path d="M2925 3731 c5 -27 1 -54 -8 -59 -10 -5 -7 -7 8 -4 14 3 25 23 25 44
0 21 9 45 20 53 11 8 3 15 -17 15 -29 0 -36 -11 -28 -49z"/>
<path d="M2888 3423 c21 -34 33 -146 14 -134 -12 7 -13 -10 -2 -48 10 -36 10
-65 -2 -72 -11 -7 -10 -27 3 -51 36 -68 36 -176 0 -163 -22 7 -20 2 6 -19 28
-22 35 -46 27 -102 -5 -41 -2 -79 8 -85 28 -18 22 -169 -7 -169 -19 -1 -19 -4
-1 -16 14 -9 30 -87 38 -180 8 -90 22 -164 31 -164 10 0 6 -18 -8 -41 -20 -33
-20 -43 2 -57 23 -15 23 -19 0 -28 -19 -8 -16 -11 8 -12 37 -2 48 -34 16 -45
-23 -8 -32 -219 -13 -313 7 -36 3 -83 -8 -104 -16 -31 -15 -37 7 -28 21 8 26
-6 20 -58 -8 -75 42 -96 87 -36 20 27 23 24 15 -18 -8 -48 -7 -48 15 5 13 30
33 55 45 55 11 0 8 9 -7 18 -20 13 -39 5 -64 -25 -19 -24 -39 -38 -45 -32 -18
17 10 100 29 88 10 -6 18 3 18 20 0 17 -7 31 -17 31 -9 0 -26 32 -38 70 -12
39 -14 66 -5 60 9 -5 12 24 6 66 -12 89 36 152 80 104 19 -21 17 -23 -11 -14
-42 15 -46 -12 -6 -52 24 -24 23 -37 -10 -92 -45 -72 -47 -82 -19 -82 11 0 20
14 20 30 0 27 24 39 66 32 10 -2 11 7 3 20 -8 12 -2 30 13 40 23 14 24 24 2
59 -34 55 -13 77 30 34 27 -28 29 -46 12 -103 -17 -56 -16 -72 7 -81 24 -9 28
14 25 121 -4 131 -40 190 -78 128 -9 -14 -11 18 -5 70 8 69 4 92 -12 82 -15
-10 -23 6 -23 47 0 33 8 61 18 61 22 0 18 66 -5 83 -10 6 -18 54 -19 105 0 50
-9 92 -18 92 -9 0 -11 23 -4 50 7 29 4 50 -8 50 -11 0 -16 18 -10 40 6 22 3
40 -7 40 -9 0 -18 29 -18 65 -3 120 -19 275 -29 275 -5 0 -11 29 -13 65 -5
110 -47 248 -89 292 -38 41 -91 61 -70 26z"/>
<path d="M3248 3203 c9 -14 0 -24 -22 -25 -21 -1 -26 -5 -11 -11 38 -15 9 -47
-31 -34 -22 7 -26 5 -10 -6 13 -10 22 -33 20 -51 -2 -19 5 -32 16 -30 11 2 21
13 21 24 3 52 34 109 53 98 12 -8 17 -2 12 13 -5 15 -20 30 -35 35 -16 6 -21
0 -13 -13z"/>
<path d="M3269 2937 c-22 -24 -28 -38 -16 -30 14 8 27 -1 31 -22 7 -31 10 -31
30 6 36 64 1 99 -45 46z"/>
<path d="M3251 2825 c41 -28 78 -145 46 -145 -11 0 -14 -9 -7 -20 26 -41 46
-17 46 54 0 71 -37 124 -86 125 -12 0 -11 -6 1 -14z"/>
<path d="M3864 2620 c4 -53 56 -90 56 -40 0 11 -8 20 -18 20 -10 0 -14 18 -8
40 6 23 1 40 -12 40 -13 0 -21 -26 -18 -60z"/>
<path d="M3297 2611 c-5 -6 -5 -42 -1 -80 l8 -71 38 48 c46 59 48 84 6 100
-38 14 -39 15 -51 3z"/>
<path d="M3306 2407 c8 -7 5 -24 -6 -37 -13 -16 -4 -38 30 -70 47 -44 50 -44
63 -8 7 21 17 45 21 53 5 8 -1 15 -13 15 -11 0 -22 -20 -23 -45 -2 -39 -4 -40
-12 -6 -6 22 4 49 22 62 30 22 30 25 2 36 -19 7 -27 4 -20 -7 7 -11 3 -20 -9
-20 -11 0 -21 9 -21 20 0 11 -10 20 -23 20 -13 0 -18 -6 -11 -13z"/>
<path d="M3444 2328 c-21 -23 -20 -28 4 -28 17 0 38 -14 48 -32 14 -26 20 -27
28 -5 17 46 -48 99 -80 65z"/>
<path d="M3642 2295 c-22 -58 -3 -91 25 -43 29 51 33 88 11 88 -11 0 -27 -20
-36 -45z"/>
<path d="M3642 1945 c7 -40 -5 -52 -24 -25 -18 25 -20 24 -10 -7 9 -28 5 -34
-18 -26 -33 13 -37 -15 -10 -77 9 -22 18 -28 19 -13 0 15 13 23 28 17 14 -6
26 2 26 17 0 15 -7 23 -16 17 -30 -18 -18 26 13 52 34 28 40 60 10 60 -11 0
-19 -7 -18 -15z"/>
<path d="M3134 1713 c-14 -35 5 -113 26 -113 28 0 35 73 10 107 -21 28 -27 29
-36 6z"/>
<path d="M3324 1503 c-19 -12 -20 -30 -4 -72 15 -40 15 -63 -2 -83 -18 -22
-16 -28 8 -28 25 0 30 21 28 100 -2 55 -4 100 -4 100 0 -1 -12 -8 -26 -17z"/>
<path d="M3193 1487 c-26 -27 -12 -81 30 -119 43 -38 43 -38 20 6 -31 58 -29
67 9 52 28 -10 27 -5 -4 31 -42 49 -38 47 -55 30z"/>
<path d="M3332 1231 c7 -17 3 -31 -8 -31 -11 0 -25 11 -30 25 -5 14 -15 19
-22 13 -20 -19 30 -118 59 -118 15 0 22 -18 17 -45 -5 -28 4 -19 23 22 38 83
31 150 -16 159 -25 5 -31 -2 -23 -25z"/>
<path d="M3040 1017 c0 -10 14 -24 31 -30 22 -9 24 -18 9 -38 -16 -18 -15 -30
2 -40 15 -10 19 -7 10 8 -8 13 -1 29 17 35 44 17 38 34 -19 61 -28 13 -50 15
-50 4z"/>
<path d="M3433 870 c6 -17 1 -43 -11 -58 -28 -33 23 -84 61 -60 18 11 14 18
-12 28 -32 11 -33 15 -5 43 24 24 26 37 9 54 -33 33 -56 28 -42 -7z"/>
<path d="M2479 4575 c-1 -69 -5 -143 -8 -165 -4 -22 -12 -119 -19 -216 -7 -97
-39 -279 -72 -405 -69 -262 -73 -324 -27 -460 48 -146 67 -152 67 -22 0 64 22
212 48 329 27 118 54 277 61 354 6 77 16 185 20 240 5 55 19 170 32 256 22
145 21 158 -13 184 -72 54 -88 37 -89 -95z"/>
<path d="M4132 4251 c7 -18 -2 -49 -21 -70 -40 -44 -34 -108 9 -115 89 -15
122 193 33 210 -23 5 -29 -3 -21 -25z"/>
<path d="M3857 1330 c-4 -61 0 -110 8 -110 8 0 15 50 15 110 0 142 -14 142
-23 0z"/>
<path d="M2869 363 c-33 -23 -33 -69 0 -56 17 6 31 5 31 -4 0 -9 20 -15 45
-13 25 2 52 -6 60 -18 10 -15 14 -14 15 3 0 20 17 18 73 -5 75 -31 165 4 135
53 -13 22 -88 22 -88 0 0 -9 -29 -12 -65 -6 -64 10 -64 10 -15 26 41 13 36 15
-25 10 -41 -3 -75 0 -75 7 0 17 -69 19 -91 3z"/>
</g>
</svg>
