<?xml version="1.0" standalone="no"?>
<!DOCTYPE svg PUBLIC "-//W3C//DTD SVG 20010904//EN"
 "http://www.w3.org/TR/2001/REC-SVG-20010904/DTD/svg10.dtd">
<svg version="1.0" xmlns="http://www.w3.org/2000/svg"
 width="215.000000pt" height="234.000000pt" viewBox="0 0 215.000000 234.000000"
 preserveAspectRatio="xMidYMid meet">
<metadata>
Created by potrace 1.10, written by Peter Selinger 2001-2011
</metadata>
<g transform="translate(0.000000,234.000000) scale(0.050000,-0.050000)"
fill="#000000" stroke="none">
<path d="M1306 4562 c-45 -28 -66 -33 -73 -16 -5 13 -11 4 -11 -21 -1 -28 -15
-46 -37 -47 -23 -1 -26 -5 -9 -12 20 -7 16 -18 -15 -39 -22 -16 -41 -39 -41
-51 0 -13 10 -12 29 3 25 21 27 16 12 -36 -24 -82 5 -197 67 -260 36 -39 45
-62 31 -83 -38 -61 -22 -284 28 -383 33 -64 42 -102 29 -125 -34 -60 -75 -301
-61 -354 6 -25 -24 -74 -92 -149 -66 -71 -110 -141 -123 -195 -12 -46 -35
-126 -51 -177 -39 -124 -35 -268 11 -377 43 -102 48 -90 19 38 -11 49 -14 129
-6 180 l15 92 14 -105 c7 -57 32 -140 55 -185 l42 -80 -39 -65 c-42 -68 -49
-157 -20 -225 12 -27 15 -8 9 60 -7 86 -6 91 9 33 10 -37 28 -77 41 -90 18
-17 20 -13 9 17 -13 38 -12 38 22 6 32 -29 33 -39 9 -70 -15 -20 -20 -29 -10
-21 9 8 30 4 45 -8 19 -16 34 -17 49 -2 14 14 13 25 -4 36 -17 10 -20 7 -9
-11 10 -17 6 -22 -12 -16 -15 6 -26 24 -23 40 3 17 -8 42 -25 56 -33 28 -39
114 -11 159 16 25 27 22 70 -18 28 -26 51 -39 51 -28 0 11 -23 41 -50 67 -63
59 -62 63 7 102 123 70 235 531 143 588 -11 7 -20 37 -20 66 1 38 6 46 18 27
25 -40 120 165 135 293 17 142 -23 281 -89 306 -63 24 -46 44 23 27 43 -11 77
-57 82 -110 1 -6 34 -43 73 -83 98 -97 105 -152 37 -281 -184 -350 -179 -336
-179 -468 0 -284 285 -623 550 -656 219 -28 220 -28 223 -81 4 -63 -14 -63
-72 -1 -44 47 -97 52 -69 7 8 -13 -3 -16 -29 -8 -24 7 -60 17 -81 23 -21 6
-45 1 -52 -11 -8 -13 -33 -6 -70 20 -98 70 -267 -23 -342 -189 -44 -95 -53
-210 -12 -141 248 417 905 291 901 -172 -2 -185 1 -184 -222 -109 -779 262
-1695 98 -1821 -325 -107 -355 180 -779 536 -792 31 -1 52 -8 47 -16 -39 -64
692 -65 861 -1 179 67 387 198 521 329 l120 117 151 -34 c443 -99 871 -4 1038
230 l41 57 -88 46 c-155 79 -121 138 39 71 54 -22 67 -37 57 -65 -30 -85 33
11 71 109 85 215 46 479 -115 777 -135 250 -522 656 -587 615 -12 -7 -17 -4
-10 7 15 24 -347 261 -517 339 -80 37 -119 46 -125 30 -18 -54 -204 -112 -204
-64 0 33 71 62 95 38 15 -15 20 -10 18 16 -2 21 8 35 24 31 14 -3 -2 35 -37
84 -59 81 -63 98 -52 195 33 297 35 360 16 414 -20 57 -18 60 45 71 36 7 102
31 147 52 89 43 331 57 354 20 7 -11 29 -20 49 -20 20 0 55 -29 78 -65 33 -52
43 -58 53 -31 7 18 0 54 -17 79 -27 44 -25 51 28 106 54 56 58 57 72 20 24
-64 77 -110 55 -48 -10 27 -16 94 -13 150 11 224 -365 375 -664 267 -50 -18
-87 -15 -199 20 -76 23 -142 39 -146 35 -4 -4 36 -22 88 -39 137 -45 246 -92
246 -107 0 -15 -237 4 -285 23 -53 22 -89 -85 -43 -128 21 -20 28 -22 18 -5
-12 22 2 25 72 12 128 -22 419 -16 484 9 138 54 261 5 145 -58 -27 -14 -45
-33 -40 -41 23 -37 -284 -58 -446 -30 -77 13 -85 11 -85 -27 0 -23 8 -42 18
-42 10 0 14 -18 8 -40 -6 -22 -24 -40 -40 -40 -15 0 -23 -9 -16 -20 19 -31
-29 -23 -63 10 -18 18 -51 26 -83 20 -30 -6 -43 -5 -29 2 39 18 29 48 -16 48
-28 0 -36 -8 -26 -25 10 -17 4 -16 -19 2 -19 16 -34 19 -34 9 0 -52 -218 20
-230 76 -7 30 -26 66 -42 80 -18 14 -22 29 -10 37 11 6 -9 27 -44 47 -62 33
-62 33 -22 -1 22 -20 37 -47 33 -61 -5 -14 6 -47 24 -75 28 -43 28 -49 2 -49
-17 0 -36 23 -43 50 -8 33 -26 50 -53 50 -33 0 -36 -5 -15 -30 30 -36 25 -37
-58 -8 -38 14 -61 33 -55 48 6 14 -3 44 -20 68 -37 54 -76 57 -48 3 34 -63 23
-75 -19 -21 l-39 50 -1 -48 c0 -47 -1 -47 -40 -12 -105 95 -16 222 93 132 95
-78 115 -78 100 -2 -7 33 -4 60 7 60 28 0 55 -63 55 -126 0 -32 11 -68 24 -80
18 -19 22 -10 17 36 -7 68 74 76 192 18 75 -36 75 -36 61 18 -22 89 80 245
144 220 23 -9 29 -5 19 10 -9 16 -3 19 20 11 26 -11 18 -21 -39 -51 -40 -20
-73 -42 -73 -47 0 -6 18 -1 40 11 29 15 53 15 85 0 41 -20 42 -20 10 6 -33 27
-31 31 27 59 l62 30 -67 10 c-78 12 -150 -12 -209 -67 -57 -54 -337 -35 -369
24 -14 26 -11 40 10 53 17 9 35 47 41 86 l10 69 -21 -65 c-27 -87 -31 -83 -33
35 -1 55 7 94 17 88 10 -6 12 -21 6 -34 -7 -13 1 -8 18 12 28 35 31 32 56 -36
21 -59 28 -65 40 -36 13 32 14 31 16 -7 2 -79 55 -97 66 -23 11 77 -1 121 -29
103 -12 -7 -12 4 1 28 24 45 1 73 -107 133 -54 30 -55 32 -10 22 42 -10 44 -8
15 10 -70 44 -220 45 -289 2z m134 -383 c-35 -128 -45 -80 -16 74 20 106 27
123 32 73 3 -35 -4 -101 -16 -147z m25 -169 c11 -59 0 -63 -37 -15 -35 45 -35
65 0 65 15 0 32 -22 37 -50z m332 12 c50 -32 9 -101 -53 -88 -30 6 -65 11 -79
12 -16 0 -9 19 18 47 47 50 71 56 114 29z m-200 -343 c29 0 29 -4 -4 -28 -52
-39 86 -67 161 -33 43 20 49 19 39 -7 -9 -23 2 -31 43 -33 30 0 68 -5 84 -9
17 -4 95 -19 174 -34 162 -29 156 -25 174 -103 16 -65 1 -65 -226 -3 -73 21
-131 25 -181 13 -64 -14 -81 -10 -120 31 l-45 47 91 0 c145 0 125 33 -23 37
-130 3 -256 31 -291 64 -24 22 30 80 64 68 14 -5 41 -9 60 -10z m-197 -368
c-33 -89 -45 -46 -16 62 20 76 27 86 32 46 3 -28 -4 -77 -16 -108z m870 -91
c-59 -95 -44 -363 21 -388 16 -6 29 -18 29 -27 0 -29 -119 -88 -145 -72 -19
11 -19 7 1 -17 50 -63 -23 -54 -96 11 -60 54 -63 55 -21 8 l48 -55 -59 -4
c-32 -2 -80 -5 -108 -6 -60 -4 -120 -28 -156 -64 -26 -25 -66 -34 -119 -28
-13 2 -20 -8 -14 -23 5 -14 -3 -44 -19 -66 -28 -37 -29 -36 -24 18 3 31 22 75
41 97 27 32 29 45 9 57 -50 31 21 84 94 70 35 -7 67 -4 71 7 4 10 32 14 62 8
30 -6 50 -18 45 -26 -6 -9 8 -11 31 -6 95 25 -16 86 -155 86 -81 0 -124 7
-116 20 7 11 30 20 51 20 23 0 34 10 27 27 -5 15 4 38 21 52 25 21 33 20 42
-5 22 -58 80 -14 101 78 15 63 15 87 -1 82 -11 -4 -24 -40 -27 -81 -7 -82 -33
-96 -51 -28 -21 76 -15 89 52 117 74 31 135 78 135 106 0 10 -16 5 -35 -12
-63 -54 -102 -57 -134 -11 -50 71 -41 75 190 75 140 0 217 -7 209 -20z m-921
-168 c-7 -61 -22 -107 -31 -101 -16 10 -7 138 14 207 20 62 30 -2 17 -106z
m-142 -97 c-36 -59 -147 -197 -146 -182 1 39 119 205 145 206 9 1 9 -10 1 -24z
m20 -147 c-18 -28 -50 -98 -69 -155 -28 -83 -35 -92 -37 -47 -1 59 42 159 95
219 44 51 50 43 11 -17z m133 -184 c-1 -210 -138 -480 -193 -380 -53 96 -4
290 118 469 59 87 75 68 75 -89z m1135 71 c-9 -29 -169 -155 -197 -155 -53 0
-10 83 67 129 92 55 143 65 130 26z m65 -68 c0 -44 -133 -167 -181 -167 -56 0
-49 18 45 114 88 90 136 109 136 53z m-310 -35 c0 -55 -60 -88 -108 -58 -43
27 -62 16 -62 -36 0 -19 -11 -40 -25 -46 -14 -6 -7 -9 15 -5 22 3 38 16 35 29
-3 14 17 24 47 24 70 0 52 -45 -28 -69 -40 -12 -74 -40 -89 -74 -13 -30 -37
-60 -54 -66 -17 -6 -42 -16 -56 -23 -14 -6 -25 -3 -25 7 0 10 21 28 48 40 36
17 49 41 55 103 7 74 5 78 -26 49 -19 -17 -44 -25 -56 -18 -12 8 -27 -1 -33
-18 -7 -17 -34 -31 -60 -31 -26 0 -48 -9 -48 -20 0 -32 65 -23 135 20 70 43
77 39 43 -23 -11 -22 -33 -36 -48 -30 -25 10 -43 -22 -68 -127 -7 -27 -29 -53
-50 -57 -37 -7 -37 -6 1 60 36 63 36 69 5 100 -31 30 -35 29 -59 -16 -17 -32
-33 -41 -46 -28 -13 13 -3 35 29 65 27 26 61 76 76 112 20 47 44 69 85 78 32
6 64 21 71 32 8 13 0 16 -21 8 -18 -7 -33 -5 -33 5 0 10 47 18 105 16 58 -1
124 8 145 21 55 32 100 21 100 -24z m321 -123 c-77 -93 -131 -115 -131 -53 0
38 109 152 160 169 55 17 44 -26 -29 -116z m161 66 c-17 -105 -192 -292 -192
-206 0 52 108 212 136 201 14 -5 21 -1 14 10 -7 11 1 20 17 20 16 0 28 -11 25
-25z m164 -60 c30 -37 29 -50 -10 -119 -71 -124 -146 -187 -146 -123 0 45 96
207 123 207 14 0 13 11 -3 30 -14 17 -16 30 -5 30 11 0 29 -11 41 -25z m-76
-15 c0 -36 -129 -219 -150 -213 -43 13 -28 86 31 158 59 71 119 99 119 55z
m-420 -50 c50 -61 -99 -270 -173 -242 -22 9 -28 4 -20 -17 7 -19 -20 -44 -88
-78 -113 -56 -141 -42 -70 34 42 45 49 47 57 18 7 -27 10 -24 12 9 1 24 -8 50
-20 57 -34 21 83 107 146 108 45 1 116 45 116 72 0 15 -90 -1 -102 -18 -7 -9
-34 -13 -60 -10 -46 7 -46 9 19 50 76 47 152 54 183 17z m620 -40 c0 -35 -129
-230 -152 -230 -45 0 -33 81 25 164 43 62 127 106 127 66z m80 -73 c0 -20 -10
-37 -21 -37 -12 0 -16 -8 -10 -19 21 -33 -83 -134 -110 -107 -19 18 -13 43 27
111 53 90 114 118 114 52z m-616 -21 c-13 -13 -24 -43 -24 -66 0 -58 -118
-185 -140 -150 -12 19 -18 13 -23 -20 -9 -62 -57 -77 -57 -19 0 44 208 276
249 278 10 1 8 -10 -5 -23z m136 -6 c0 -16 -7 -31 -15 -32 -8 0 -31 -4 -50 -8
-19 -3 -35 6 -35 20 0 23 28 39 85 48 8 1 15 -11 15 -28z m-609 -81 c-37 -56
-97 -59 -107 -5 -5 24 13 39 60 52 84 23 89 17 47 -47z m1209 60 c0 -48 -138
-209 -179 -209 -17 0 -43 -18 -56 -40 -36 -57 -92 -53 -74 5 18 57 17 57 67
60 23 2 47 20 53 39 28 88 189 212 189 145z m-511 -47 c6 -9 -3 -29 -19 -42
-32 -27 -42 -120 -12 -120 25 0 43 54 30 88 -12 31 58 63 92 42 33 -21 23 -67
-21 -90 -22 -12 -36 -29 -31 -37 41 -65 -115 -193 -161 -131 -13 17 -28 22
-35 11 -7 -11 -1 -24 13 -29 14 -5 0 -16 -31 -24 -38 -10 -65 -6 -80 10 -19
20 -18 23 1 12 15 -9 25 -2 25 17 0 17 -13 31 -30 31 -16 0 -30 -15 -30 -32 0
-28 -5 -29 -33 -5 -31 25 -31 23 -7 -23 l26 -50 -43 38 c-61 55 -55 65 56 92
91 22 99 28 111 97 15 92 146 198 179 145z m572 -81 c-77 -108 -169 -151 -139
-64 31 89 116 170 150 142 23 -20 22 -32 -11 -78z m110 -23 c18 -29 -140 -187
-169 -169 -34 21 -27 44 40 120 64 73 105 88 129 49z m65 -82 c28 -28 32 -58
7 -51 -10 3 -35 -15 -55 -40 -48 -58 -131 -78 -114 -29 31 90 124 158 162 120z
m-376 -34 c0 -25 -59 -70 -73 -56 -20 21 10 74 42 74 17 0 31 -8 31 -18z
m-149 -49 c17 7 48 -4 69 -23 35 -32 41 -32 51 -4 21 53 129 81 129 33 0 -21
-7 -40 -15 -42 -8 -1 -33 -4 -55 -7 -45 -5 -190 -126 -190 -159 -1 -49 -79
-122 -99 -92 -10 16 -13 38 -7 48 7 11 2 13 -12 4 -13 -8 -18 -31 -12 -51 6
-20 1 -43 -12 -51 -15 -10 -19 -7 -10 8 8 13 4 23 -9 23 -13 0 -18 14 -12 30
7 17 3 54 -8 82 -24 65 115 274 146 219 9 -16 30 -24 46 -18z m599 -9 c13 -35
-112 -164 -158 -164 -12 0 -8 9 8 20 20 13 22 19 5 20 -38 0 -30 35 20 85 25
25 43 50 41 56 -9 29 72 12 84 -17z m-1200 -84 c7 -11 28 -20 48 -20 19 0 57
-25 84 -55 26 -30 39 -47 28 -38 -12 10 -29 -13 -43 -60 -17 -53 -24 -63 -25
-32 -1 25 -11 45 -23 45 -12 0 -30 26 -41 58 -12 33 -34 64 -49 70 -32 12 -40
52 -10 52 10 0 24 -9 31 -20z m350 -17 c0 -102 -74 -205 -106 -148 -39 70 -32
125 21 153 73 40 85 39 85 -5z m926 -24 c8 -31 4 -39 -18 -31 -17 6 -25 4 -19
-6 11 -19 -54 -42 -119 -41 -33 0 -27 12 36 70 79 75 102 76 120 8z m-283 -2
c-11 -45 -46 -77 -85 -77 -48 0 -51 71 -5 97 46 25 99 14 90 -20z m-143 -77
c0 -20 -24 -56 -53 -79 -29 -22 -43 -41 -31 -41 12 0 27 8 33 19 32 51 136 82
161 48 17 -23 28 -26 38 -10 8 13 4 23 -9 23 -18 0 -18 8 1 30 14 17 33 30 42
30 10 0 18 -13 18 -30 0 -16 14 -30 32 -30 59 0 15 -50 -46 -52 -33 -1 -72 -9
-86 -18 -14 -9 -56 -20 -93 -24 -88 -9 -166 -40 -169 -66 -2 -11 -5 -29 -8
-40 -3 -11 -6 -27 -7 -35 -8 -44 -79 -62 -73 -19 13 90 50 179 84 206 34 27
34 27 -2 15 -41 -15 -34 10 21 75 41 47 147 46 147 -2z m479 -18 c19 -35 -82
-82 -178 -82 -46 0 -17 57 44 87 85 42 109 41 134 -5z m44 -82 c8 -56 4 -67
-33 -74 -67 -13 -183 -7 -234 12 -56 21 -124 -8 -103 -44 9 -17 4 -16 -14 1
-35 32 -7 60 77 77 44 9 64 5 64 -12 0 -15 13 -19 35 -9 159 67 204 78 208 49z
m-1098 -48 c19 -14 35 -36 35 -48 0 -12 10 -28 22 -35 15 -10 18 1 8 32 -15
47 -15 47 48 -6 35 -29 75 -49 90 -43 15 6 33 -5 40 -24 11 -28 8 -30 -18 -8
-38 32 -39 4 -2 -38 58 -64 60 -136 5 -191 -67 -67 -133 -68 -133 -3 0 34 -14
51 -50 60 -27 7 -50 27 -50 45 0 23 12 28 50 19 46 -12 50 -7 50 53 0 39 -7
55 -16 40 -12 -18 -34 -19 -80 -6 -37 10 -60 11 -54 1 6 -10 -7 -27 -28 -39
-52 -28 -62 -27 -62 9 0 17 14 30 30 30 39 0 39 33 -1 55 -27 15 -25 24 12 71
48 61 55 63 104 26z m873 -50 c39 -25 12 -82 -39 -82 -23 0 -36 9 -29 20 7 11
-2 20 -19 20 -32 0 -41 23 -18 47 19 18 72 16 105 -5z m282 -42 c0 -22 -11
-41 -25 -41 -14 -1 -68 -8 -121 -17 -104 -17 -123 -9 -87 41 48 66 233 79 233
17z m-345 -75 c33 -22 45 -23 45 -5 0 20 6 20 30 0 23 -19 25 -32 9 -52 -14
-16 7 -12 54 10 146 69 227 73 227 10 0 -30 -6 -49 -13 -42 -7 7 -31 2 -55
-11 -40 -22 -40 -24 18 -34 37 -7 62 -26 67 -49 7 -36 -49 -39 -254 -13 -5 1
3 14 17 31 13 16 31 26 38 21 8 -5 26 -1 41 8 40 25 -38 60 -89 40 -22 -9 -28
-17 -13 -18 22 -1 23 -7 4 -30 -15 -18 -49 -25 -97 -19 -41 4 -63 3 -49 -3 43
-21 28 -47 -40 -68 l-65 -21 64 9 c49 7 62 3 54 -18 -8 -20 0 -25 31 -17 38
10 39 13 9 35 -31 23 -31 26 2 38 45 17 104 -26 67 -49 -30 -18 53 -95 108
-100 19 -2 44 -5 55 -8 11 -3 38 -6 60 -7 34 -3 36 -9 16 -53 -28 -63 -45 -63
-120 0 -33 28 -70 44 -83 37 -13 -7 -16 -6 -7 4 27 30 -149 83 -224 67 -80
-18 -162 9 -162 52 0 50 -3 59 -25 86 -12 14 -13 25 -3 23 48 -10 68 5 68 51
0 28 9 50 20 50 11 0 20 10 20 21 0 35 -41 -1 -61 -53 -20 -54 -81 -63 -125
-19 -16 16 -36 23 -44 15 -9 -8 -11 -1 -6 16 6 20 31 28 80 23 61 -5 73 1 83
43 14 57 160 56 248 -1z m-2297 -161 c-33 -53 -90 -68 -120 -32 -34 41 -8 84
56 92 74 10 95 -10 64 -60z m576 49 c5 -5 -3 -28 -17 -50 -20 -33 -21 -55 -2
-107 29 -80 14 -149 -36 -162 -60 -16 -70 112 -11 150 11 8 14 21 5 30 -9 9
-25 0 -35 -19 -11 -19 -34 -35 -50 -35 -17 0 -25 -9 -18 -20 7 -11 7 -39 -1
-63 -10 -33 -17 -36 -31 -15 -13 20 -17 21 -18 3 0 -14 -9 -25 -21 -25 -14 0
-14 13 1 40 12 22 14 40 4 40 -10 0 -27 -21 -39 -47 -22 -49 -85 -64 -85 -21
0 36 35 54 45 23 5 -14 16 5 24 42 9 42 7 75 -7 89 -31 31 -27 106 7 140 26
26 259 32 285 7z m306 -42 c0 -15 -17 -34 -37 -40 -57 -18 -118 -144 -86 -176
21 -20 29 -18 45 10 32 57 60 19 46 -62 -17 -95 -56 -138 -44 -47 6 41 1 62
-12 57 -12 -4 -19 -31 -16 -60 3 -30 -5 -53 -17 -53 -13 0 -19 11 -14 25 15
38 -35 77 -63 49 -16 -16 -22 -1 -22 57 0 43 -9 92 -18 107 -29 46 -5 76 63
78 34 1 85 20 114 42 63 49 61 48 61 13z m-788 -102 c32 -48 31 -53 -11 -98
-25 -27 -40 -56 -34 -65 5 -10 -7 -19 -28 -21 -21 -1 -44 7 -52 19 -15 25 50
80 76 64 9 -6 17 8 17 30 0 36 -6 34 -63 -18 -49 -44 -72 -53 -99 -39 -46 25
-78 24 -78 -1 0 -11 13 -20 29 -20 40 0 57 -34 35 -72 -16 -29 -22 -27 -51 14
-18 26 -33 36 -33 24 0 -13 9 -29 20 -36 39 -24 19 -50 -39 -50 -99 0 -147
167 -49 172 23 1 62 22 85 45 25 25 68 43 102 43 33 0 71 13 85 29 36 41 50
38 88 -20z m1421 9 c44 -27 65 -54 60 -75 -64 -247 -60 -242 -164 -203 -37 14
-49 30 -41 53 7 18 3 43 -8 57 -23 27 -6 96 20 80 8 -5 28 6 43 25 24 32 24
32 -8 8 -38 -30 -49 -5 -13 31 15 15 6 18 -30 11 -58 -11 -73 27 -17 41 67 18
91 14 158 -28z m435 -3 c11 -18 14 -39 6 -47 -19 -19 -96 52 -82 76 16 24 50
11 76 -29z m-984 11 c-16 -6 -19 -18 -8 -33 52 -66 39 -317 -15 -284 -12 8
-36 4 -52 -10 -16 -13 -29 -16 -29 -6 0 10 18 34 40 52 22 19 40 45 40 59 0
13 -12 7 -27 -13 -24 -33 -27 -27 -25 54 1 50 10 86 19 81 10 -6 11 8 4 31
-17 53 1 84 45 81 22 -1 25 -5 8 -12z m1695 -15 c59 -71 -76 -89 -189 -25 -40
23 -20 31 143 51 12 2 33 -10 46 -26z m-1429 -46 c-8 -30 -15 -66 -16 -80 0
-14 -15 -38 -32 -53 -36 -33 -45 54 -15 143 24 69 81 60 63 -10z m-1690 7 c0
-46 -23 -93 -40 -82 -9 6 -7 -19 3 -55 27 -87 -10 -197 -52 -153 -39 41 -59
118 -30 118 17 0 18 8 4 25 -23 29 2 115 34 115 12 0 20 7 19 15 -6 33 3 45
32 45 17 0 30 -13 30 -28z m2240 -63 c0 -23 -9 -50 -20 -61 -14 -14 -7 -35 21
-64 22 -24 31 -44 19 -44 -15 0 -18 -30 -9 -90 15 -101 -26 -192 -52 -117 -16
45 -2 91 23 76 33 -21 18 23 -23 68 -45 48 -77 183 -44 183 11 0 27 33 34 74
15 77 50 60 51 -25z m583 -28 c26 -22 36 -40 22 -40 -14 -1 -25 9 -25 20 0 12
-8 17 -17 11 -9 -6 -34 2 -55 18 -33 25 -33 29 -5 29 18 1 54 -17 80 -38z
m-1112 -96 c-29 -30 -57 34 -29 67 26 32 28 31 35 -10 3 -25 1 -51 -6 -57z
m853 27 c9 -45 6 -46 -47 -28 -60 21 -73 46 -32 63 51 20 71 12 79 -35z m77
27 c22 -11 39 -30 39 -41 0 -11 -8 -15 -19 -9 -43 27 -37 -27 6 -56 37 -24 54
-25 74 -7 22 20 23 18 4 -7 -26 -34 0 -79 45 -79 45 0 91 -75 52 -85 -40 -11
-127 52 -106 76 8 8 4 10 -8 3 -30 -17 -109 70 -113 123 -2 24 -11 43 -19 43
-9 0 -16 14 -16 30 0 35 10 37 61 9z m162 -18 c37 -30 42 -43 22 -63 -20 -20
-34 -16 -75 22 -86 81 -40 117 53 41z m-2327 -83 l5 -48 -40 47 c-23 26 -41
43 -41 37 0 -6 -6 -25 -12 -43 -7 -18 -4 -30 7 -27 22 6 105 -79 105 -107 0
-9 -16 -18 -35 -18 -30 -2 -29 -4 5 -18 37 -14 35 -18 -26 -56 -37 -22 -66
-46 -65 -53 0 -6 -3 -12 -9 -12 -5 0 -18 0 -28 0 -18 0 -125 204 -113 216 9 9
111 -41 111 -55 0 -7 -11 -24 -24 -37 -19 -19 -19 -24 0 -24 13 0 24 11 24 25
1 19 4 19 16 1 10 -16 25 -18 45 -5 24 15 23 18 -6 19 -19 0 -35 9 -35 20 0
11 14 20 31 20 17 0 26 9 19 21 -7 11 -24 19 -37 17 -48 -6 -73 3 -73 24 0 15
12 13 33 -5 30 -24 33 -22 22 20 -7 26 -2 64 10 83 30 49 103 21 111 -42z
m1957 52 c-8 -21 2 -30 35 -30 37 0 56 -22 93 -105 26 -58 53 -121 62 -140 11
-25 7 -35 -14 -35 -18 0 -29 20 -29 51 0 43 -7 49 -41 39 -22 -7 -39 -6 -37 3
1 10 2 45 0 79 -3 94 -52 77 -52 -19 0 -49 -10 -83 -27 -89 -21 -7 -24 6 -13
56 10 45 8 61 -8 51 -28 -17 -29 -101 -1 -152 28 -52 -9 -52 -66 1 -41 39 -41
42 -9 110 l33 70 -49 0 c-28 0 -50 10 -50 22 0 13 18 18 40 12 32 -8 36 -4 20
25 -18 35 -9 61 23 61 10 0 17 -13 17 -29 0 -16 11 -35 23 -43 16 -10 20 -3
10 21 -15 39 -1 71 30 71 12 0 16 -13 10 -30z m-699 -50 c12 0 33 -15 48 -33
25 -29 23 -31 -17 -19 -35 12 -42 8 -33 -17 7 -17 2 -31 -10 -31 -12 0 -22 18
-22 40 0 22 -13 40 -29 40 -36 0 -58 33 -40 61 9 14 25 11 48 -10 19 -17 44
-31 55 -31z m-99 -34 c26 -24 34 -66 13 -66 -24 0 -128 69 -128 86 0 23 85 9
115 -20z m524 -117 c1 -35 -61 -110 -80 -98 -27 16 -23 97 5 125 16 16 18 30
3 45 -14 14 -28 -5 -44 -60 -14 -45 -34 -81 -46 -81 -27 0 -4 98 32 140 14 17
22 44 17 60 -5 17 19 -1 52 -40 34 -38 61 -79 61 -91z m808 48 c14 -56 -37
-45 -63 13 -13 28 -32 50 -44 50 -11 0 -20 10 -20 21 0 34 116 -44 127 -84z
m-2867 68 c0 -57 -86 -164 -108 -134 -32 44 -78 19 -61 -33 8 -27 2 -38 -23
-38 -19 0 -29 6 -22 13 7 7 4 28 -7 48 -32 60 -4 100 54 78 65 -25 68 -24 54
11 -8 23 -2 27 24 17 26 -10 33 -6 25 15 -8 19 1 29 26 29 21 0 38 -3 38 -6z
m903 -56 c275 -51 417 -132 417 -236 0 -39 -39 -4 -63 56 l-27 68 -130 -58
c-72 -32 -159 -64 -195 -71 -40 -8 -66 -25 -67 -45 -2 -30 -3 -30 -11 0 -6 22
-39 38 -93 47 -164 24 -187 32 -240 82 -165 153 29 227 409 157z m593 -26 c7
-21 0 -22 -34 -4 -55 29 -54 6 3 -54 41 -43 41 -46 5 -33 -22 8 -46 24 -54 36
-8 11 -19 16 -25 10 -6 -6 8 -31 30 -54 30 -32 33 -44 12 -44 -15 0 -43 20
-62 45 -29 40 -32 40 -20 5 32 -97 3 -127 -46 -47 -31 52 -6 117 45 117 7 0
27 14 44 31 35 36 89 32 102 -8z m302 -27 c12 -34 17 -57 10 -50 -7 6 -26 -1
-42 -17 -43 -43 -98 -35 -155 22 -59 59 -62 69 -21 69 17 0 30 -13 30 -28 0
-15 14 -33 31 -40 18 -7 26 -3 19 8 -7 11 2 26 19 32 17 7 31 21 31 33 0 11
-13 9 -30 -5 -34 -28 -62 -15 -41 19 31 50 126 23 149 -43z m-1745 10 c0 -14
-4 -22 -9 -16 -14 13 -66 -31 -56 -47 4 -7 -5 -25 -20 -39 -36 -33 -39 11 -5
84 23 51 90 64 90 18z m-165 -79 c14 -36 -2 -107 -24 -107 -8 0 -14 32 -14 70
0 74 18 91 38 37z m2528 -34 c5 -22 -6 -33 -33 -33 -30 0 -37 10 -29 41 13 47
53 42 62 -8z m-2033 -34 c-24 -23 -40 -48 -34 -57 5 -8 -3 -15 -18 -15 -33 0
-23 73 14 96 55 35 83 17 38 -24z m877 -73 c0 -33 71 -23 117 17 68 58 83 61
83 17 0 -23 -11 -39 -25 -36 -14 2 -52 -20 -84 -51 l-59 -55 -34 45 c-19 25
-39 72 -43 104 -8 54 -7 56 18 22 15 -20 27 -48 27 -63z m-819 16 c-28 -53
-61 -54 -61 -3 0 21 16 42 35 46 48 11 52 5 26 -43z m-358 -28 c111 -84 154
-165 111 -208 -21 -22 -40 -25 -64 -11 -24 13 -28 24 -13 33 13 8 23 24 23 36
0 13 -11 12 -30 -4 -25 -21 -30 -18 -32 13 -1 27 -6 24 -17 -13 -13 -43 -18
-45 -30 -15 -9 19 -22 30 -31 25 -31 -19 -83 127 -60 170 29 54 42 51 143 -26z
m1037 -5 c0 -27 -9 -49 -20 -49 -11 0 -20 28 -20 61 0 36 8 56 20 49 11 -7 20
-34 20 -61z m-1240 -10 c-12 -22 -16 -60 -9 -85 11 -36 5 -33 -33 16 -26 33
-54 63 -63 67 -33 14 11 43 67 43 54 0 57 -4 38 -41z m522 -119 c10 0 18 14
18 30 0 17 14 30 30 30 42 0 37 -55 -7 -79 -21 -10 -49 -47 -63 -80 -14 -34
-32 -61 -41 -61 -9 0 -32 -6 -52 -13 -24 -9 -18 4 18 36 62 55 68 89 26 150
-16 23 -23 48 -15 56 7 8 26 -5 41 -27 15 -23 36 -42 45 -42z m347 -64 c-13
-41 25 -102 53 -85 10 6 18 2 18 -10 0 -46 -85 -15 -105 39 -8 19 -12 12 -13
-19 -3 -66 -37 -28 -45 49 -3 37 9 77 33 105 l39 45 16 -43 c9 -23 10 -60 4
-81z m259 93 c7 -19 3 -26 -10 -18 -11 7 -9 -6 6 -30 26 -42 26 -42 36 13 10
52 53 64 48 14 -2 -13 14 -19 35 -13 48 13 47 -19 -2 -64 -71 -65 -219 32
-170 111 17 27 43 22 57 -13z m-537 -147 c-16 -43 -23 -84 -16 -90 6 -7 3 -12
-8 -12 -26 0 -25 146 2 165 43 29 49 13 22 -63z"/>
<path d="M2579 2136 c-14 -65 -10 -136 7 -131 24 8 33 113 10 128 -9 5 -17 7
-17 3z"/>
<path d="M2811 1837 c7 -29 3 -59 -9 -66 -35 -21 -26 -42 19 -46 44 -3 78 50
45 72 -11 7 -30 31 -43 53 -21 36 -22 35 -12 -13z"/>
<path d="M3251 1302 c-6 -10 -6 -31 0 -47 6 -17 -8 -37 -35 -50 -45 -22 -45
-22 -3 -24 60 -2 137 65 121 106 -14 35 -64 45 -83 15z"/>
<path d="M1483 1217 c5 -31 20 -47 47 -47 60 0 54 78 -7 87 -38 5 -45 -2 -40
-40z"/>
<path d="M2562 1061 c-30 -18 -16 -81 18 -81 29 0 49 59 27 81 -10 10 -29 10
-45 0z"/>
<path d="M1780 3783 c0 -20 25 -58 55 -85 30 -26 49 -40 41 -30 -16 19 66 92
104 92 15 0 20 -16 14 -41 -15 -58 49 -44 76 16 12 29 37 45 67 45 48 0 36
-38 -27 -85 -11 -8 -5 -15 15 -15 19 0 35 -9 35 -20 0 -23 73 -27 86 -5 5 8 3
32 -5 54 -13 34 -15 34 -27 5 -7 -19 -24 -34 -38 -33 -14 0 -2 22 28 48 79 70
30 86 -189 61 -83 -9 -115 -21 -115 -43 0 -48 -69 -22 -76 28 -8 54 -44 61
-44 8z"/>
</g>
</svg>
