<?xml version="1.0" standalone="no"?>
<!DOCTYPE svg PUBLIC "-//W3C//DTD SVG 20010904//EN"
 "http://www.w3.org/TR/2001/REC-SVG-20010904/DTD/svg10.dtd">
<svg version="1.0" xmlns="http://www.w3.org/2000/svg"
 width="300.000000pt" height="411.000000pt" viewBox="0 0 300.000000 411.000000"
 preserveAspectRatio="xMidYMid meet">
<metadata>
Created by potrace 1.10, written by Peter Selinger 2001-2011
</metadata>
<g transform="translate(0.000000,411.000000) scale(0.050000,-0.050000)"
fill="#000000" stroke="none">
<path d="M4180 7856 c-27 -12 -127 -24 -222 -27 -219 -6 -398 -105 -398 -220
0 -15 -25 -54 -55 -87 -30 -33 -67 -74 -81 -91 -14 -17 -43 -31 -65 -31 -48 0
-49 -13 -5 -56 31 -32 29 -34 -32 -40 -61 -6 -63 -9 -35 -41 29 -31 24 -38
-58 -81 -105 -56 -119 -93 -20 -51 114 48 124 33 23 -34 -69 -46 -88 -67 -69
-80 18 -11 9 -16 -29 -17 -38 0 -52 -8 -42 -23 10 -16 4 -20 -17 -12 -18 7
-36 1 -42 -14 -6 -16 -61 -33 -136 -41 -160 -19 -258 -53 -402 -142 -95 -58
-140 -72 -260 -81 -429 -31 -764 -368 -758 -761 l2 -145 -88 -83 c-105 -98
-161 -208 -181 -357 -8 -60 -32 -148 -52 -197 -21 -48 -38 -118 -38 -155 0
-37 -19 -105 -43 -150 -23 -45 -46 -123 -50 -173 -9 -103 -27 -145 -116 -256
-214 -270 -243 -439 -140 -810 26 -93 53 -215 61 -270 8 -54 27 -130 42 -167
16 -37 24 -72 18 -78 -21 -20 -72 40 -72 84 0 24 -21 64 -48 89 -28 27 -51 76
-58 126 -6 45 -30 107 -53 138 -45 62 -55 199 -22 313 14 51 12 65 -10 65 -43
0 -168 -119 -182 -173 -7 -30 -37 -59 -77 -76 -64 -27 -105 -91 -81 -130 7
-10 -7 -52 -30 -92 -50 -90 -38 -173 35 -236 28 -24 81 -90 118 -148 37 -58
74 -106 83 -107 8 -1 58 -3 110 -5 135 -6 146 -24 139 -240 -5 -162 0 -191 35
-232 23 -26 41 -58 41 -72 0 -14 44 -58 99 -98 64 -48 106 -96 121 -142 16
-46 39 -73 72 -81 36 -9 48 -26 48 -69 0 -94 19 -119 91 -119 37 0 72 9 79 20
16 26 70 26 70 -1 0 -40 71 -96 227 -180 263 -142 338 -290 195 -385 -43 -29
-108 -90 -145 -136 -81 -102 -156 -177 -219 -221 -27 -18 -41 -40 -33 -48 8
-9 32 0 53 19 27 25 42 28 52 12 17 -28 -4 -51 -65 -69 -27 -8 -45 -5 -45 8 0
11 -9 21 -20 21 -11 0 -20 -20 -20 -45 0 -52 168 -255 212 -255 15 0 62 -18
103 -40 77 -42 197 -55 175 -20 -19 30 9 24 43 -10 64 -64 228 -19 226 62 0
35 -2 36 -21 3 -11 -19 -29 -35 -40 -35 -11 0 -15 9 -8 20 7 11 -1 20 -18 20
-89 0 -139 39 -102 81 20 21 51 39 68 39 24 1 26 5 6 17 -34 22 -11 82 53 139
l53 46 -69 -27 c-66 -26 -145 -125 -200 -250 -22 -50 -101 -62 -101 -15 0 17
-14 30 -32 30 -17 0 -27 11 -23 25 5 14 28 24 51 24 23 -1 38 5 33 13 -17 28
17 81 64 99 26 10 47 31 47 47 0 17 47 46 115 71 154 56 214 85 145 70 -60
-13 58 56 140 81 44 14 47 12 22 -17 -15 -18 -46 -34 -69 -35 -24 0 -32 -5
-19 -11 15 -6 19 -35 12 -79 -9 -54 -2 -80 31 -115 l43 -46 -81 -58 -80 -59
-8 -157 c-8 -175 15 -182 54 -16 27 114 109 233 129 186 6 -15 38 -58 71 -95
51 -58 58 -80 48 -141 l-11 -72 95 13 c95 12 96 12 140 -67 l45 -79 124 8
c125 8 293 47 365 84 21 12 49 17 62 12 12 -4 48 20 79 53 32 34 69 61 83 61
32 0 144 177 145 228 0 21 -23 69 -51 106 -41 53 -49 80 -39 132 13 61 12 62
-17 24 -30 -40 -31 -39 -28 5 7 90 117 3 203 -160 42 -79 221 -148 210 -81 -1
9 -1 21 1 26 14 35 11 100 -5 100 -10 0 -8 14 6 30 21 25 19 38 -12 73 -27 31
-31 45 -13 52 14 4 25 22 25 39 0 32 -127 30 -435 -7 -101 -12 -105 -10 -105
37 0 134 -349 368 -418 280 -49 -63 -147 -39 -129 32 11 42 7 48 -21 38 -20
-8 -29 -5 -22 6 7 11 4 20 -7 20 -41 0 -183 158 -184 203 0 26 -13 64 -30 86
-39 52 -37 101 13 241 45 129 41 227 -13 332 -26 50 -26 58 -1 58 29 0 132
-109 132 -140 0 -10 17 -23 38 -29 21 -7 47 -38 58 -69 11 -31 61 -96 112
-144 61 -58 92 -105 92 -138 1 -51 31 -116 46 -99 26 28 26 222 0 259 -49 70
-6 86 56 21 63 -66 70 -102 36 -199 -20 -57 -16 -77 30 -163 30 -54 59 -143
66 -198 12 -106 38 -131 56 -56 22 86 21 165 -2 233 -30 88 -6 172 63 227 30
23 66 72 82 108 15 37 41 67 58 67 16 0 39 23 49 50 10 28 27 50 37 50 19 0
91 154 114 245 7 30 23 55 35 55 11 0 37 15 58 33 68 62 139 -31 103 -135 -41
-119 -1 -242 124 -381 98 -110 127 -270 73 -406 -49 -122 -69 -263 -72 -494
-3 -238 65 -313 322 -355 182 -29 279 -59 309 -96 24 -29 22 -32 -19 -21 -38
10 -42 7 -23 -17 18 -21 18 -28 0 -28 -13 0 -18 -8 -12 -18 6 -10 29 -14 51
-8 46 12 106 -29 87 -59 -8 -13 -3 -15 11 -6 23 14 82 -20 82 -48 0 -7 -37
-15 -82 -18 -53 -3 -77 3 -69 16 8 12 1 21 -15 21 -15 0 -49 18 -74 40 -25 22
-53 40 -62 40 -8 0 -29 14 -46 31 -19 19 -42 25 -57 16 -41 -26 -111 -30 -216
-11 -81 15 -99 13 -99 -10 0 -17 -15 -26 -35 -22 -19 4 -34 24 -32 43 7 82
-348 15 -459 -87 -28 -25 265 -60 592 -70 174 -6 333 -19 353 -29 52 -28 284
-47 335 -28 25 10 124 12 220 5 208 -15 377 18 432 86 20 24 56 53 80 65 24
12 53 41 64 64 12 24 31 55 43 70 84 103 5 257 -132 257 -31 0 -67 14 -81 30
-14 17 -46 30 -72 30 -50 0 -107 51 -170 154 -22 35 -96 104 -164 153 -264
188 -321 258 -308 371 22 189 216 473 307 450 24 -6 65 17 116 64 77 73 79 74
98 31 54 -121 174 -9 222 207 8 33 35 92 62 131 49 70 49 73 17 180 -23 75
-28 142 -19 223 10 89 5 126 -20 164 -18 28 -27 60 -19 72 7 11 4 19 -8 15
-36 -9 -158 146 -191 241 -38 112 -41 172 -6 152 14 -8 9 3 -10 25 -41 47 -24
78 23 42 18 -13 14 -3 -8 22 -30 36 -41 79 -43 180 -4 212 -60 433 -131 518
-12 14 -14 25 -6 25 8 0 -11 25 -43 56 -74 72 -150 164 -135 164 6 0 -16 23
-50 51 l-61 52 12 183 c12 182 -19 359 -98 562 -12 31 -22 130 -22 219 1 131
-8 179 -44 247 -34 63 -43 105 -35 165 12 88 -39 156 -171 226 -64 34 -64 35
-34 94 17 32 31 81 31 108 0 26 14 59 30 73 17 14 30 35 30 46 0 12 -12 5 -27
-16 -29 -39 -21 59 16 193 8 32 6 58 -7 66 -34 21 -27 72 8 58 30 -11 190 133
190 170 0 10 -19 41 -41 70 -40 51 -40 53 -4 53 102 0 159 158 74 206 -19 10
-24 35 -16 76 15 73 -90 198 -166 198 -25 0 -58 19 -74 41 -78 111 -180 155
-273 115z m260 -167 c0 -35 -99 -78 -123 -54 -10 10 -11 61 -4 114 l13 98 57
-64 c31 -35 57 -77 57 -94z m-300 93 c0 -21 6 -53 12 -71 9 -24 -9 -41 -69
-66 -46 -19 -83 -43 -83 -52 0 -18 36 -11 107 18 33 13 35 10 16 -25 -14 -27
-49 -44 -106 -52 -166 -22 -244 -130 -197 -273 27 -81 -15 -241 -63 -241 -9 0
-22 0 -28 1 -6 0 -33 -17 -60 -38 -28 -22 -66 -35 -89 -29 -31 8 -40 1 -40
-32 0 -23 -10 -42 -21 -42 -12 0 -16 -9 -8 -21 8 -14 21 -14 41 2 30 26 39 -1
11 -32 -9 -10 -29 -64 -43 -119 -14 -55 -43 -157 -65 -226 -42 -134 -43 -458
-1 -532 14 -25 4 -65 -38 -148 -77 -155 -107 -176 -278 -191 -131 -13 -225
-35 -528 -125 -201 -59 -430 -70 -430 -19 0 14 -15 38 -34 54 -23 18 -29 19
-19 2 20 -33 -3 -32 -37 3 -16 15 -23 33 -16 40 7 6 3 12 -8 12 -24 0 -48 71
-31 89 6 6 22 2 35 -9 18 -15 22 -7 15 32 -7 36 -15 44 -27 25 -19 -30 -28
-23 -47 38 -11 35 -7 42 16 33 20 -7 41 10 63 53 24 46 26 59 7 48 -22 -12
-22 -10 -2 12 33 36 32 59 -5 59 -16 0 -31 11 -31 25 -1 14 -10 7 -20 -15 -13
-30 -16 -22 -11 36 6 80 76 156 103 113 7 -12 26 -17 41 -11 15 6 28 3 28 -7
0 -20 51 -16 73 5 7 8 41 15 75 15 l62 2 -78 28 c-43 16 -88 37 -100 47 -75
60 -146 46 -179 -37 -18 -45 -46 -81 -63 -81 -16 0 -31 -11 -33 -25 -1 -14 -4
-45 -7 -70 -2 -24 -17 -60 -32 -78 -16 -19 -18 -29 -6 -22 24 15 31 -44 8 -75
-19 -27 7 -269 31 -286 68 -49 66 -141 -8 -325 -66 -164 -252 -444 -214 -321
11 32 8 43 -7 33 -12 -7 -22 -24 -22 -38 0 -13 -18 -40 -40 -58 -39 -34 -40
-33 -42 30 l-2 65 -19 -69 c-23 -80 -56 -52 -57 49 0 45 -5 53 -19 31 -27 -43
-57 47 -49 149 5 73 5 75 -11 20 l-16 -60 -3 64 c-2 77 36 170 64 152 12 -7
16 4 10 28 -6 22 0 61 14 86 14 25 20 62 15 82 -5 19 5 61 21 92 17 31 36 72
42 92 6 20 60 58 119 85 107 49 190 119 168 141 -7 7 -24 5 -39 -4 -14 -9 -35
-18 -46 -20 -11 -2 -42 -13 -70 -24 -27 -10 -59 -21 -70 -23 -11 -3 -29 -12
-41 -21 -12 -11 -28 7 -41 49 l-21 67 96 12 c236 32 365 324 268 607 -14 41
-10 45 52 43 37 -1 132 2 212 7 119 8 145 4 145 -20 0 -19 -13 -26 -36 -20
-23 6 -35 -2 -35 -24 0 -39 84 -52 123 -19 14 12 37 15 49 7 17 -10 19 3 10
46 -10 44 -5 63 18 72 17 6 31 24 31 38 0 15 29 56 65 90 l66 64 -13 -176
c-13 -183 -32 -237 -112 -322 -42 -44 -46 -63 -35 -141 7 -49 15 -175 16 -280
l3 -190 60 7 c33 4 85 20 115 36 60 31 58 4 25 347 -12 121 40 197 109 160 32
-17 91 -20 192 -11 165 16 254 -15 293 -100 23 -50 46 -62 64 -32 9 14 -71
192 -99 221 -6 6 -18 0 -27 -14 -8 -14 -51 -30 -94 -36 l-78 -11 63 56 c66 60
127 163 127 216 0 17 17 48 38 69 21 21 35 43 30 47 -5 5 5 21 22 35 39 32 39
68 0 53 -43 -17 -38 42 10 136 22 43 35 83 30 88 -5 5 0 21 13 36 12 15 16 27
8 27 -21 0 35 51 72 65 53 20 57 -4 14 -86 -41 -79 -44 -160 -5 -173 13 -4 18
16 12 55 -7 48 4 75 47 120 31 33 47 59 35 59 -12 0 -27 16 -33 35 -6 19 -31
59 -56 89 -115 143 31 421 173 328 56 -37 130 -27 130 17 0 14 14 37 30 51 17
14 30 55 30 92 0 57 7 68 45 69 25 0 86 22 135 49 110 59 120 60 120 12z
m-351 -205 c-16 -50 -47 -47 -66 7 -11 29 -7 55 15 80 37 43 73 -18 51 -87z
m810 64 c15 -27 14 -43 -2 -53 -26 -16 -82 48 -65 75 17 28 45 19 67 -22z
m-59 -71 c47 -30 80 -66 80 -88 0 -20 18 -42 39 -48 38 -10 78 -104 54 -128
-23 -23 -196 -8 -181 16 17 29 -89 83 -140 70 -31 -8 -52 -2 -58 16 -23 59 90
100 140 50 13 -13 34 -15 48 -7 18 11 1 27 -53 49 -93 39 -189 -7 -189 -91 0
-39 -89 -124 -121 -115 -6 2 -12 -14 -14 -35 -2 -36 5 -34 81 17 100 66 159
62 217 -16 26 -35 68 -61 111 -69 37 -7 73 -26 79 -41 27 -71 -12 -68 -166 9
-215 107 -287 72 -435 -216 -87 -167 23 -279 195 -201 39 18 56 17 79 -4 52
-49 -13 -115 -128 -130 -53 -7 -92 -22 -86 -32 7 -10 47 -13 90 -6 76 13 78
12 78 -45 0 -45 14 -65 65 -90 l65 -32 -115 -2 c-185 -2 -495 176 -495 284 0
67 48 183 100 242 79 90 104 162 102 294 -1 113 52 239 101 239 13 0 19 5 13
11 -24 24 -116 -32 -116 -71 0 -22 -13 -40 -30 -40 -16 0 -30 11 -30 23 0 13
6 18 14 10 7 -8 25 15 40 49 25 60 29 62 117 49 102 -15 229 17 229 59 0 19
20 26 65 21 36 -3 49 -2 30 3 -41 10 -27 46 17 46 16 0 65 -23 108 -50z m-260
-445 c-1 -57 -30 -105 -62 -105 -49 0 -51 71 -3 98 42 25 65 27 65 7z m80 -35
c0 -37 -11 -50 -40 -50 -46 0 -48 8 -19 61 29 54 59 49 59 -11z m84 9 c4 -12
20 -23 36 -26 54 -8 80 -35 78 -79 -2 -41 -3 -41 -18 6 -9 28 -17 39 -18 25
-1 -15 -32 -25 -80 -25 l-79 0 23 60 c23 61 45 76 58 39z m-1070 -54 c-53 -92
-154 -331 -165 -390 -12 -66 -20 -75 -70 -75 -31 0 -62 -9 -69 -19 -6 -11 -40
-14 -74 -7 -48 9 -58 6 -46 -13 11 -18 45 -22 113 -14 53 6 97 6 97 1 0 -30
-45 -88 -67 -88 -14 0 -62 -31 -107 -70 -180 -153 -218 -141 -177 57 17 83 31
176 31 207 1 106 74 232 125 217 25 -7 54 -15 65 -18 11 -2 31 -11 43 -19 15
-9 53 22 100 81 104 128 252 239 201 150z m456 -80 c-8 -19 -16 -48 -19 -64
-6 -38 -51 -53 -51 -17 0 29 55 116 73 116 6 0 5 -16 -3 -35z m366 -69 c29
-29 32 -116 4 -116 -11 0 -18 11 -15 25 3 13 -14 27 -38 31 -31 4 -40 17 -33
45 12 44 47 50 82 15z m144 3 c0 -7 18 -21 39 -31 30 -13 35 -26 20 -48 -17
-26 -23 -26 -45 3 -24 31 -28 31 -46 2 -12 -19 -31 -26 -45 -17 -19 12 -19 22
-2 44 19 22 17 28 -7 28 -18 0 -36 7 -42 16 -5 9 22 16 59 16 38 0 69 -6 69
-13z m-700 -210 c0 -17 7 -27 15 -22 25 15 90 -42 76 -66 -7 -11 -4 -21 8 -21
11 0 22 -20 23 -45 2 -37 4 -39 12 -8 9 34 12 33 33 -9 13 -26 46 -59 73 -72
28 -14 39 -26 26 -26 -50 0 0 -60 51 -60 53 -1 121 -31 102 -46 -55 -45 -117
-74 -160 -74 -28 0 -82 -23 -120 -51 -60 -45 -212 -129 -234 -129 -4 0 -5 16
-2 35 3 19 -2 69 -10 110 -9 47 -6 91 9 120 14 24 27 63 31 85 14 95 31 181
38 187 3 4 -1 28 -11 53 -17 45 -9 70 23 70 10 0 17 -14 17 -31z m-887 -78
c-6 -17 -27 -24 -52 -17 -53 14 -54 46 -1 36 21 -4 38 -1 37 6 -4 32 7 52 16
28 6 -14 6 -38 0 -53z m-965 -280 c24 -128 -72 -271 -182 -271 -55 0 -59 26
-11 74 20 20 62 91 95 158 66 136 79 141 98 39z m132 -78 c0 -62 -10 -90 -41
-109 -22 -14 -35 -34 -29 -45 7 -10 -3 -19 -21 -19 -24 0 -29 10 -18 35 9 19
19 71 24 115 15 159 85 177 85 23z m2514 22 c61 -64 62 -67 41 -177 -27 -148
-11 -203 96 -317 66 -71 89 -111 89 -158 0 -84 -40 -82 -42 2 l-1 65 -20 -53
c-40 -110 -162 -47 -189 98 -8 41 -26 104 -41 139 -15 36 -27 92 -27 125 0 71
-28 77 -100 22 l-49 -38 45 -49 c109 -115 130 -480 36 -618 -42 -63 -49 -66
-153 -59 -137 9 -250 60 -189 85 28 11 17 14 -35 9 -48 -5 -75 0 -75 16 0 12
-54 53 -120 89 -157 86 -249 175 -228 220 8 19 16 70 17 113 2 158 199 283
375 238 141 -36 271 12 271 99 0 120 43 191 121 200 41 4 83 9 95 11 12 1 49
-26 83 -62z m-1791 -65 c-9 -53 -13 -56 -63 -40 -31 10 -37 20 -21 39 11 13
14 31 6 40 -8 8 8 12 35 8 37 -5 48 -17 43 -47z m1306 -24 c11 -29 -27 -126
-50 -126 -30 0 -59 57 -46 91 13 34 15 34 31 -2 14 -32 15 -30 10 13 -8 54 36
74 55 24z m-2459 -601 c-8 -19 -17 -53 -21 -75 -3 -22 -28 -116 -55 -210 -55
-189 -76 -344 -52 -383 9 -14 7 -37 -4 -50 -14 -16 -11 -43 10 -83 16 -32 40
-100 53 -151 27 -108 65 -148 46 -49 l-13 66 50 -45 c27 -25 54 -41 59 -35 6
6 10 -43 9 -108 -2 -136 -25 -146 -77 -34 -47 103 -68 78 -33 -42 15 -53 25
-103 22 -111 -2 -8 10 -15 27 -15 23 0 26 -8 12 -34 -20 -36 11 -132 38 -115
9 5 13 -14 10 -41 -3 -28 2 -56 12 -62 9 -6 17 -21 17 -33 0 -12 -28 4 -62 36
l-62 59 13 -63 c10 -46 4 -75 -21 -104 -49 -58 -68 -36 -68 79 0 62 8 96 20
88 11 -7 20 -3 20 7 0 50 -267 64 -339 19 -42 -26 -32 -90 16 -103 23 -6 20
-9 -11 -11 -24 -1 -49 -10 -55 -20 -6 -10 14 -16 45 -14 44 3 57 -5 59 -39 3
-31 -7 -42 -38 -41 -24 1 -47 -11 -53 -26 -6 -18 0 -23 18 -13 16 8 6 -4 -22
-26 -43 -35 -52 -37 -67 -10 -29 52 -20 173 15 198 18 13 32 36 32 51 -1 19
-6 21 -15 6 -15 -23 -85 -31 -85 -10 1 7 11 53 22 102 12 50 25 117 29 149 5
32 22 67 39 76 17 10 26 26 19 36 -6 11 -2 19 10 19 11 0 21 12 21 28 0 15 13
58 29 95 l29 67 25 -65 c41 -104 47 -80 48 190 0 245 24 363 68 336 25 -16 41
40 41 146 1 170 63 330 111 287 8 -8 9 -3 2 10 -15 26 26 106 54 106 9 0 11
-16 3 -35z m1811 -45 c101 0 127 -8 183 -57 36 -32 89 -65 116 -73 46 -14 119
-64 205 -139 108 -95 236 -123 368 -81 40 13 41 9 25 -73 -49 -241 -47 -259
31 -374 135 -195 144 -267 56 -441 -65 -129 -355 -469 -403 -473 -40 -3 -101
-34 -93 -48 28 -44 -125 -128 -164 -89 -35 35 -31 64 8 61 18 -2 37 10 42 25
7 18 1 23 -17 13 -16 -8 -8 4 17 26 25 22 45 49 45 61 0 11 12 16 27 10 20 -7
28 6 27 46 -1 110 6 126 47 126 23 0 36 8 30 19 -7 10 13 48 44 85 83 97 118
158 135 236 8 39 22 75 31 80 9 6 26 85 39 177 12 91 27 181 33 199 5 19 -4
12 -21 -16 -17 -27 -31 -70 -31 -95 -1 -25 -8 -45 -16 -45 -26 0 -84 -120 -72
-150 6 -16 -4 -43 -21 -61 -18 -18 -27 -40 -21 -51 6 -10 2 -18 -10 -18 -11 0
-21 32 -21 70 0 39 10 70 22 70 16 0 14 10 -3 31 -14 17 -29 58 -32 91 -7 61
-78 218 -100 218 -6 0 -6 -13 0 -30 21 -53 -2 -32 -47 44 -32 54 -47 66 -60
46 -10 -16 -5 -45 14 -73 17 -26 25 -47 19 -47 -7 0 10 -39 37 -87 56 -101 96
-316 77 -416 -22 -118 -228 -477 -274 -477 -11 0 -14 -6 -7 -13 7 -6 -14 -51
-47 -98 -32 -47 -60 -98 -61 -113 -1 -19 -4 -20 -11 -1 -7 16 -28 3 -60 -35
-28 -33 -68 -60 -90 -60 -25 0 -34 -9 -25 -23 9 -14 5 -18 -9 -9 -13 8 -23 3
-23 -12 -1 -16 -6 -18 -15 -5 -8 11 -40 20 -70 20 -57 -1 -73 -20 -30 -38 15
-6 11 -10 -10 -11 -19 -1 -35 9 -35 23 -1 20 -4 20 -16 0 -13 -19 -25 -18 -55
7 -30 24 -32 29 -6 21 50 -16 61 9 19 45 -44 38 -42 164 2 209 23 23 28 67 21
186 -7 117 -1 172 22 216 59 111 -112 163 -182 56 -29 -43 -28 -45 16 -40 68
7 107 -81 89 -200 -9 -59 -19 -82 -30 -66 -11 19 -19 15 -30 -18 -7 -24 -8
-49 -2 -56 7 -6 12 -1 12 12 0 47 31 21 36 -29 3 -44 -3 -51 -36 -42 -22 6
-40 2 -40 -8 0 -10 16 -19 35 -20 24 -1 27 -4 8 -12 -23 -9 -23 -14 0 -28 15
-10 17 -18 5 -18 -13 0 -18 -21 -13 -50 11 -56 -27 -68 -76 -25 -15 14 -6 -1
21 -33 47 -54 47 -56 6 -35 -24 13 -55 22 -70 22 -14 -1 -6 -10 19 -20 69 -27
54 -57 -21 -40 -36 8 -88 13 -114 11 -28 -2 -71 17 -99 44 -28 25 -54 37 -58
26 -3 -11 -24 -20 -46 -20 -25 0 -34 -9 -25 -23 9 -15 5 -18 -9 -9 -13 8 -18
24 -10 36 8 14 -10 18 -53 12 -56 -9 -61 -6 -32 15 30 22 30 25 1 36 -17 7
-27 20 -21 29 5 9 -11 39 -36 66 -25 27 -43 65 -40 85 3 22 -15 43 -49 57 -42
18 -46 24 -18 31 25 6 30 17 18 41 -46 89 -28 324 25 324 67 0 77 23 44 103
-71 176 -38 417 58 417 6 0 36 23 66 51 30 29 80 65 111 82 31 16 52 35 47 40
-6 6 -30 0 -54 -13 -24 -13 -48 -19 -53 -14 -14 14 54 76 71 65 23 -14 162
108 162 142 0 16 -9 24 -20 17 -41 -25 -18 13 35 61 69 61 80 70 159 125 l64
45 22 -41 c20 -37 36 -41 141 -32 113 8 156 -9 87 -36 -24 -9 -27 -19 -11 -38
52 -63 -95 -188 -153 -130 -19 19 -24 18 -24 -5 -1 -20 -5 -22 -15 -6 -11 18
-25 16 -54 -5 -37 -26 -35 -28 20 -29 142 -1 158 -63 77 -304 -64 -192 -65
-195 -27 -240 l38 -45 3 60 c3 33 4 71 3 85 0 14 6 25 14 25 24 0 68 107 63
154 -3 24 15 87 40 140 24 53 46 101 48 106 1 6 14 49 28 98 35 121 64 162
117 162 25 0 45 -7 45 -17 0 -9 13 -16 29 -16 16 0 24 9 17 20 -8 12 1 15 21
7 60 -23 34 3 -53 55 -89 52 -270 73 -374 43 -48 -14 -49 -14 -11 17 68 55
-74 39 -195 -22 -108 -55 -654 -573 -654 -621 0 -14 -19 -62 -43 -107 -24 -46
-41 -107 -39 -136 6 -95 4 -230 -6 -388 -6 -104 -2 -151 11 -143 13 8 12 -4
-2 -30 -16 -30 -16 -42 0 -42 12 0 7 -15 -12 -34 -32 -32 -36 -31 -64 5 -25
33 -28 33 -18 4 6 -19 3 -35 -8 -35 -10 0 -19 9 -19 20 0 11 -14 20 -30 20
-17 0 -50 24 -75 53 -25 29 -77 83 -117 120 -71 67 -153 227 -116 227 10 0 18
18 18 40 0 44 29 53 52 17 9 -14 5 -18 -9 -9 -33 21 -29 -45 5 -79 24 -23 28
-20 27 27 0 114 -14 150 -47 122 -33 -27 -32 -21 16 170 25 102 77 183 97 151
24 -39 62 -2 40 38 -21 40 -6 70 44 89 19 7 35 27 35 45 0 17 9 26 20 19 11
-7 20 8 20 34 1 37 4 40 20 16 11 -16 20 -20 20 -8 0 12 14 21 30 21 36 0 36
7 1 -77 -16 -38 -25 -86 -21 -107 4 -22 8 -51 8 -66 1 -14 13 -23 27 -18 31
10 80 322 77 491 l-2 125 95 -11 c52 -7 115 -22 140 -34 38 -19 50 -16 75 15
20 27 29 31 29 11 1 -22 9 -21 38 5 52 47 350 147 488 164 64 7 121 22 127 33
7 10 25 14 42 7 16 -6 82 -11 147 -11z m1219 -65 c0 -10 35 -59 78 -108 138
-156 157 -405 55 -693 -40 -111 -44 -139 -21 -148 15 -5 23 -18 17 -28 -6 -10
3 -18 20 -18 20 0 31 -18 31 -51 0 -28 8 -46 19 -40 10 7 14 71 8 146 -15 189
16 266 63 157 18 -43 29 -92 25 -110 -5 -18 3 -59 17 -92 l26 -60 1 68 1 69
50 -47 c28 -26 50 -59 50 -73 0 -15 11 -27 23 -27 13 0 18 -6 11 -13 -8 -7 2
-26 21 -42 19 -15 22 -21 7 -13 -19 10 -23 6 -13 -10 8 -14 28 -20 43 -14 16
6 28 -2 28 -19 0 -16 10 -29 21 -29 12 0 16 -8 10 -18 -6 -10 0 -24 14 -30 14
-6 -9 -5 -51 1 -108 17 -299 -29 -406 -96 -77 -49 -89 -52 -79 -21 12 39 -53
134 -76 110 -29 -29 -10 42 24 91 61 87 66 148 20 233 -37 69 -38 85 -15 155
20 62 20 97 2 167 -13 49 -24 113 -24 143 0 30 -10 69 -20 85 -22 33 -26 -8
-18 -180 8 -159 -4 -340 -22 -340 -78 4 -187 559 -117 602 11 7 24 39 28 70
12 105 34 177 62 210 30 34 87 43 87 13z m-2994 -734 c5 -23 -4 -51 -22 -65
-27 -22 -30 -21 -18 9 7 19 5 35 -5 35 -9 0 -13 18 -7 40 12 46 37 37 52 -19z
m68 -40 c-5 -20 0 -51 11 -71 15 -26 13 -33 -8 -26 -15 5 -30 43 -33 85 -5 53
0 71 16 61 13 -8 19 -30 14 -49z m2851 -306 c22 -65 -47 -171 -235 -365 -44
-46 -114 -139 -156 -207 -56 -90 -100 -135 -160 -166 -46 -23 -97 -53 -114
-66 -16 -13 -61 -37 -100 -51 -184 -72 -287 -161 -360 -313 l-70 -145 -28 54
c-92 177 -229 216 -442 125 -147 -62 -192 -72 -203 -46 -27 59 -116 107 -157
85 -78 -42 -137 -9 -189 106 -58 125 -105 178 -189 213 -34 14 -62 34 -62 43
0 10 -11 16 -25 13 -14 -3 -24 14 -23 40 0 25 -6 45 -15 45 -10 0 -17 18 -17
40 0 22 -8 40 -17 40 -9 0 -34 36 -55 80 -23 49 -56 86 -83 93 -25 6 -65 40
-88 74 -24 35 -31 52 -16 38 15 -14 42 -25 60 -25 18 0 73 -43 121 -95 49 -52
116 -113 148 -135 33 -22 122 -104 200 -182 237 -241 313 -276 600 -279 132
-2 278 -10 325 -19 105 -19 226 23 320 111 36 34 75 55 86 48 12 -7 39 3 60
22 22 19 39 28 39 20 0 -26 187 93 308 197 141 122 420 467 455 563 25 69 66
91 82 44z m97 -258 c23 -37 2 -59 -48 -47 -58 13 -90 -16 -174 -155 -37 -63
-81 -115 -95 -115 -15 0 -23 -8 -17 -17 15 -24 -119 -285 -138 -268 -9 8 -11
-1 -4 -19 8 -22 -2 -45 -27 -63 -22 -15 -37 -40 -33 -55 4 -15 4 -21 -1 -13
-5 8 -17 15 -28 15 -11 0 -13 -10 -6 -21 30 -49 -11 -123 -60 -111 -37 9 -58
-1 -89 -43 -23 -30 -51 -66 -63 -80 -40 -48 -63 -141 -43 -176 14 -27 2 -49
-59 -104 -52 -47 -77 -87 -77 -122 -1 -50 -38 -137 -40 -93 -4 69 -59 -99 -59
-181 -1 -79 -15 -122 -69 -206 -37 -58 -74 -136 -81 -174 -7 -39 -25 -69 -40
-69 -46 0 -23 170 47 359 99 264 45 260 -84 -6 -75 -152 -78 -156 -115 -122
-44 40 -52 109 -14 109 26 0 195 242 195 279 0 10 14 27 31 37 17 9 34 30 36
45 3 16 18 52 35 79 78 126 176 296 208 360 48 94 160 229 226 272 l54 35 -51
-68 c-87 -116 -87 -134 -1 -41 45 49 78 93 73 98 -10 9 122 181 159 209 11 8
13 15 4 15 -9 0 2 24 25 53 22 29 41 63 41 76 0 13 31 53 69 90 37 36 79 92
92 124 13 31 32 57 41 57 10 0 18 12 18 26 0 65 126 90 162 31z m-3628 -68
c-2 -55 -16 -81 -70 -122 -62 -48 -66 -48 -45 -10 12 24 33 43 47 43 16 1 16
6 -3 18 -22 14 -19 29 18 80 57 77 55 77 53 -9z m406 -96 c0 -63 -8 -86 -30
-86 -22 0 -30 22 -30 78 0 46 8 72 20 65 11 -7 20 -3 20 9 0 11 5 21 10 21 6
0 10 -39 10 -87z m3241 26 c31 -34 63 -79 69 -100 7 -21 20 -39 28 -39 9 0 32
-36 52 -80 20 -44 44 -80 53 -80 9 0 17 -14 17 -31 0 -17 22 -78 49 -135 26
-57 58 -174 69 -260 12 -85 35 -175 50 -200 120 -187 167 -721 75 -855 -87
-128 -363 -175 -363 -63 0 35 -41 65 -125 92 -44 14 -44 8 5 -48 21 -25 34
-53 28 -63 -6 -9 -1 -17 11 -17 11 0 21 -16 21 -37 0 -20 22 -57 49 -82 63
-60 60 -169 -7 -223 -26 -21 -41 -38 -34 -38 8 0 4 -18 -8 -40 -16 -30 -14
-51 10 -88 30 -45 29 -50 -10 -78 -27 -18 -45 -56 -49 -101 l-7 -71 42 39 c53
50 98 49 144 -1 20 -22 29 -40 21 -40 -9 0 -5 -13 9 -30 13 -16 32 -25 41 -20
37 23 119 -37 121 -88 2 -33 6 -40 12 -17 16 63 196 -89 248 -210 15 -37 39
-56 70 -57 27 -2 57 -5 68 -8 11 -3 32 -6 47 -7 37 -4 33 -63 -5 -63 -17 0 0
-17 37 -37 67 -36 104 -83 65 -83 -11 0 -45 13 -77 30 -31 16 -73 30 -92 30
-19 0 -35 9 -35 20 0 11 -13 20 -28 20 -16 0 -39 31 -51 68 -27 79 -59 98
-176 101 -71 2 -95 14 -144 72 -33 38 -60 59 -60 46 -1 -13 27 -49 62 -80 35
-31 84 -77 110 -101 26 -24 79 -53 119 -64 39 -11 93 -43 119 -71 26 -28 66
-51 89 -51 40 0 100 -42 100 -69 0 -33 -118 -2 -223 59 -66 39 -113 59 -104
45 9 -16 3 -15 -20 3 -32 26 -34 22 -30 -41 3 -38 -2 -79 -10 -93 -9 -13 -8
-35 0 -49 11 -16 20 -4 27 35 13 78 85 91 152 29 43 -41 44 -47 14 -69 -52
-38 -18 -90 58 -90 53 1 161 39 113 40 -8 0 -29 6 -49 13 -23 10 -30 6 -20
-10 9 -14 0 -23 -26 -23 -92 0 -53 91 48 111 66 13 125 -76 88 -134 -10 -15
-18 -19 -18 -10 0 10 -11 9 -25 -3 -83 -69 -254 -41 -256 42 0 41 -2 41 -27 9
-32 -43 -104 -46 -119 -5 -15 39 -65 39 -80 0 -12 -29 -53 -33 -73 -7 -5 7
-28 16 -49 20 -53 9 -109 67 -141 144 -15 35 -50 89 -78 119 -29 31 -52 65
-52 76 0 26 -42 66 -75 73 -33 7 -32 -29 0 -42 17 -6 15 -10 -6 -11 -17 -1
-42 9 -55 22 -19 19 -24 19 -24 0 0 -14 20 -33 45 -42 25 -10 65 -45 89 -78
l44 -60 -53 -10 c-39 -7 -78 9 -154 65 -129 94 -236 125 -176 50 8 -10 -12 8
-45 41 -54 54 -59 67 -43 130 10 39 19 94 20 123 4 67 72 41 75 -29 0 -24 6
-33 11 -19 6 14 23 25 39 25 15 0 28 10 28 22 0 13 18 18 40 12 41 -10 40 68
-1 113 -9 10 -10 33 -4 50 11 28 8 29 -20 6 -18 -14 -43 -21 -54 -14 -12 8
-16 1 -9 -18 8 -20 1 -31 -21 -31 -24 0 -30 11 -21 39 6 21 0 57 -14 80 -21
34 -20 57 10 136 38 103 63 405 32 405 -10 0 -18 12 -18 28 0 15 -13 38 -30
52 -16 14 -30 42 -30 63 0 21 -18 45 -40 53 -37 14 -38 19 -10 55 25 32 28 33
18 4 -7 -20 -3 -35 10 -35 12 0 22 4 22 8 0 5 5 22 11 37 8 22 -5 28 -59 26
-38 -2 -65 4 -60 13 6 9 2 16 -7 16 -10 0 -18 13 -18 30 0 22 6 24 27 7 15
-13 33 -17 40 -10 7 7 2 13 -11 13 -13 0 -23 8 -23 18 0 10 18 14 40 8 22 -6
40 -22 40 -35 0 -13 14 -24 30 -24 17 0 30 8 30 18 0 10 14 4 31 -13 17 -18
31 -47 30 -67 -2 -85 -8 -116 -27 -128 -30 -19 2 -83 35 -70 16 6 32 1 36 -12
4 -12 17 -16 29 -9 30 19 8 94 -27 94 -21 0 -13 21 24 70 40 52 48 77 32 96
-22 27 -10 114 16 114 7 0 26 -46 42 -103 24 -87 30 -96 40 -55 14 57 2 118
-23 118 -10 0 -18 10 -18 21 0 12 10 15 21 8 12 -7 10 6 -4 29 -14 23 -52 50
-85 62 -75 26 -72 27 -72 -19 0 -21 -9 -44 -20 -51 -11 -7 -20 -3 -20 9 0 11
-9 21 -20 21 -11 0 -20 -13 -20 -30 0 -16 -7 -30 -16 -30 -8 0 -15 18 -15 40
0 22 7 40 16 40 10 0 12 8 6 18 -6 10 -2 39 8 65 l20 47 -4 -50 c-3 -27 4 -50
15 -50 11 0 18 13 17 29 -2 16 14 54 35 84 39 54 38 54 -4 68 -31 10 -40 25
-33 61 5 26 7 48 4 48 -3 0 -22 6 -42 13 -21 7 -31 6 -23 -2 8 -9 5 -34 -7
-57 -18 -33 -16 -38 10 -28 22 9 28 3 19 -20 -9 -22 -5 -28 11 -18 34 21 28
-10 -14 -73 -35 -54 -70 -57 -50 -6 6 18 -6 23 -42 16 -47 -9 -64 -46 -53
-111 2 -10 -5 -12 -15 -6 -21 13 -6 111 21 146 11 13 14 33 7 44 -6 10 -3 25
9 32 11 7 20 28 20 46 -1 29 -3 30 -20 4 -16 -24 -19 -22 -20 14 0 24 -9 49
-20 56 -11 7 -15 -3 -8 -24 10 -34 10 -34 -12 -1 -12 19 -16 46 -8 58 9 14 5
18 -9 9 -34 -21 -28 -69 17 -141 39 -64 39 -65 0 -142 -44 -85 -61 -30 -19 57
20 42 20 42 -9 6 -29 -36 -30 -34 -23 25 6 43 1 59 -14 50 -14 -9 -17 -2 -9
20 25 64 -6 32 -48 -51 l-43 -84 -38 46 c-31 39 -33 53 -12 78 21 26 26 23 32
-28 7 -58 7 -58 33 19 28 81 19 161 -12 110 -9 -14 -7 -32 5 -39 12 -7 13 -18
3 -24 -49 -31 -65 21 -21 69 33 35 43 64 34 98 -7 32 0 58 20 74 27 22 26 24
-9 14 -38 -11 -38 -11 -3 11 25 16 33 38 25 69 -12 49 77 131 148 136 20 2 37
8 36 14 0 6 1 18 4 26 3 8 7 22 10 30 35 112 150 238 150 165 0 -11 -13 -20
-29 -20 -47 0 -52 -31 -5 -35 24 -2 54 -18 67 -36 14 -18 35 -26 48 -18 16 10
19 1 10 -28 -11 -33 -7 -40 18 -31 34 13 37 7 19 -40 -7 -18 -22 -26 -33 -19
-13 8 -15 4 -6 -11 9 -16 37 -20 78 -11 61 12 62 12 23 -21 -22 -18 -28 -27
-14 -20 14 8 41 7 60 -1 29 -12 26 -17 -16 -30 -44 -13 -45 -15 -8 -17 26 -1
65 -34 99 -83 30 -44 70 -89 87 -99 20 -12 23 -19 7 -19 -42 -1 21 -127 111
-219 115 -119 170 -102 85 27 -21 32 -34 66 -29 75 6 9 0 16 -12 16 -12 0 -17
8 -11 18 15 25 -9 84 -30 71 -22 -13 -64 66 -49 92 7 10 -1 24 -17 31 -17 6
-26 22 -21 36 5 13 -14 45 -41 71 -28 27 -51 60 -51 74 0 15 -16 28 -35 29
-21 1 -25 5 -10 11 36 15 31 47 -7 47 -26 0 -28 6 -10 28 30 35 -53 61 -92 28
-15 -12 -33 -16 -40 -9 -7 7 -2 13 10 13 13 0 17 14 10 33 -8 20 -5 29 7 21
11 -7 20 1 20 17 0 43 -28 35 -44 -13 -19 -60 -42 -25 -69 102 -43 201 -30
248 90 325 33 22 44 34 25 28 -19 -7 -35 -3 -35 8 0 10 9 19 20 19 11 0 20 17
20 38 0 20 14 48 30 62 17 14 30 37 30 52 0 48 61 31 121 -33z m599 -21 c23
-16 24 -24 5 -31 -14 -6 -20 -19 -14 -29 6 -10 0 -18 -14 -18 -13 0 -7 -13 14
-29 22 -17 28 -30 15 -30 -23 -1 -21 -61 4 -101 7 -11 3 -20 -10 -20 -15 0
-15 -12 1 -41 31 -58 40 -119 18 -119 -10 0 -10 -22 2 -53 15 -38 14 -58 -2
-68 -30 -18 25 -105 102 -160 98 -70 181 -216 179 -319 -1 -49 3 -117 9 -150
40 -215 27 -305 -36 -253 -39 33 -58 -15 -21 -52 39 -38 -23 -205 -76 -205
-10 0 -12 10 -4 23 35 56 46 363 15 423 -16 32 -25 63 -19 69 14 14 -26 65
-52 65 -10 0 -13 -9 -6 -20 7 -11 5 -20 -4 -20 -9 0 -28 19 -43 42 -14 23 -16
36 -4 29 11 -7 21 -4 21 7 0 11 -10 26 -22 33 -49 31 -100 194 -86 282 11 79
9 87 -29 87 -30 0 -51 22 -72 70 -16 39 -38 70 -50 70 -12 0 -21 9 -21 20 0
71 -159 339 -202 341 -16 1 -11 9 12 19 37 16 36 17 -10 19 l-50 2 50 39 c107
83 331 127 400 78z m-3460 -135 c0 -9 21 -27 47 -41 25 -14 61 -50 79 -80 43
-73 640 -682 668 -682 22 0 46 -27 186 -209 66 -87 129 -129 154 -103 7 6 -25
52 -71 101 -46 50 -83 97 -83 106 0 8 -41 60 -90 114 -143 158 -60 167 100 11
63 -61 87 -74 110 -57 25 17 24 19 -6 9 -21 -7 -31 -3 -24 8 7 11 25 20 41 20
16 0 29 9 29 20 0 11 10 20 21 20 12 0 15 -10 8 -22 -22 -34 -14 -294 11 -368
17 -53 16 -79 -5 -120 l-27 -51 -39 41 c-21 23 -56 57 -77 76 -21 19 -57 56
-80 82 -23 26 -127 137 -232 247 -104 109 -202 221 -216 248 -15 28 -130 153
-255 279 -126 126 -229 238 -229 249 0 12 -8 16 -18 10 -10 -6 -32 20 -50 57
-41 88 -40 98 8 72 22 -12 40 -29 40 -37z m-215 -41 c63 -57 64 -61 38 -125
-56 -140 -63 -204 -33 -297 16 -49 32 -121 35 -160 4 -53 23 -84 79 -128 55
-44 77 -79 87 -140 8 -45 35 -123 62 -173 26 -50 46 -113 44 -140 -2 -27 3
-85 10 -129 18 -106 -7 -145 -57 -90 -55 61 -174 54 -249 -15 -68 -63 -131
-247 -97 -281 29 -29 8 -76 -38 -88 -64 -17 -127 20 -158 95 -16 39 -43 76
-61 83 -25 9 -29 31 -19 104 43 340 30 682 -27 682 -27 0 -39 -115 -38 -387 0
-281 -14 -325 -85 -262 -41 37 -43 51 -31 265 6 124 4 221 -4 216 -9 -6 -18
-47 -20 -93 -4 -113 -40 -176 -46 -79 -2 39 -2 84 -1 100 1 17 -6 60 -16 96
-16 61 24 201 71 249 19 18 89 -29 89 -60 0 -14 9 -25 20 -25 36 0 21 96 -31
194 -30 55 -42 98 -30 102 12 4 21 22 21 41 -1 29 -3 29 -20 3 -18 -26 -22
-26 -39 -1 -10 17 -13 35 -5 40 29 22 25 66 -5 54 -16 -6 -36 0 -44 13 -7 13
-6 17 3 9 9 -8 28 -5 43 8 22 18 17 31 -26 72 -59 55 -50 96 30 137 23 12 59
37 79 55 21 18 54 33 76 34 21 0 70 18 108 38 110 58 207 52 285 -17z m-934
-214 c-7 -37 -21 -68 -32 -68 -22 0 -26 87 -4 108 8 9 16 24 18 34 7 56 13 64
21 31 5 -20 4 -68 -3 -105z m1077 -12 c-6 -8 4 -10 21 -3 43 16 131 -81 131
-145 0 -27 20 -70 45 -95 25 -25 56 -69 70 -99 13 -30 33 -55 45 -56 73 -9 90
-26 146 -138 28 -55 42 -95 33 -90 -16 10 -19 -10 -20 -135 -1 -54 -1 -55 -59
-25 -55 28 -57 28 -50 -11 11 -56 -8 -99 -43 -99 -16 0 -24 -9 -17 -20 7 -12
20 -16 29 -10 25 15 53 -52 59 -140 5 -57 50 4 94 128 18 51 46 122 63 160 21
49 23 71 6 81 -23 15 -8 81 19 81 8 0 26 -14 40 -30 22 -26 20 -29 -12 -19
-29 10 -32 8 -10 -7 16 -11 39 -16 52 -11 28 11 73 -82 58 -121 -6 -15 -1 -34
11 -41 12 -8 17 -21 11 -30 -5 -9 14 -23 44 -30 41 -10 47 -18 26 -31 -15 -10
-37 -12 -47 -6 -11 7 -13 3 -6 -9 7 -12 4 -25 -7 -28 -11 -4 0 -20 25 -35 40
-25 42 -25 20 2 -25 31 -13 63 18 44 38 -23 18 -93 -23 -82 -27 7 -40 0 -40
-20 0 -20 -13 -27 -39 -21 -26 7 -35 2 -28 -17 6 -15 21 -25 33 -22 12 2 23
-5 23 -16 1 -11 9 -32 19 -47 14 -22 9 -23 -26 -4 -36 19 -42 17 -42 -18 0
-23 -9 -41 -20 -41 -12 0 -12 -19 1 -53 21 -54 13 -77 -26 -77 -12 0 -25 -11
-30 -25 -5 -14 2 -25 14 -25 13 0 5 -33 -19 -80 l-41 -80 -104 123 c-62 73
-131 132 -169 145 -95 32 -115 59 -86 113 36 66 39 295 6 396 -16 48 -23 101
-17 118 7 18 1 39 -13 48 -19 12 -16 16 10 17 21 0 31 9 23 21 -7 12 -26 17
-41 11 -15 -6 -28 -3 -28 7 0 10 11 22 25 27 14 5 1 19 -30 31 -30 12 -55 27
-55 33 0 6 25 6 55 0 44 -8 41 -5 -15 18 -38 16 -58 30 -44 30 15 1 21 11 14
22 -7 11 -2 20 11 20 13 0 18 13 12 29 -6 15 0 34 13 40 13 6 4 8 -20 3 -30
-5 -54 7 -76 40 -20 31 -23 48 -8 48 16 0 17 7 1 26 -15 19 -11 32 18 50 41
26 53 64 19 64 -11 0 -18 -11 -15 -25 3 -13 -17 -26 -45 -29 -27 -3 -38 0 -23
7 23 10 23 15 0 30 -22 14 -19 24 13 50 34 27 34 30 4 20 -44 -15 -72 43 -32
69 20 12 21 17 3 18 -14 0 -25 9 -25 20 0 12 15 11 39 -4 21 -13 34 -31 29
-40z m262 -96 c7 -21 3 -55 -8 -75 -19 -32 -21 -32 -22 5 0 22 -13 65 -29 95
-27 52 -27 54 9 35 20 -11 43 -38 50 -60z m1639 -291 c-61 -142 -133 -287
-160 -322 -27 -35 -49 -78 -49 -96 0 -17 -7 -31 -16 -31 -9 0 -38 -38 -63 -85
-97 -177 -138 -218 -213 -211 -38 4 -69 14 -68 22 0 7 0 28 0 44 0 18 18 30
44 30 34 0 39 5 20 24 -35 35 -31 136 6 136 17 0 30 -18 30 -42 0 -23 7 -38
15 -34 121 59 128 65 119 110 -5 26 1 54 14 62 65 42 220 259 272 381 65 152
140 289 153 277 4 -4 -43 -123 -104 -265z m-2997 201 c18 -27 40 -45 49 -40 9
6 23 0 31 -13 9 -14 6 -18 -9 -9 -38 24 -26 -4 48 -110 40 -56 67 -107 61
-113 -6 -6 -17 4 -24 22 -7 18 -32 33 -55 33 -71 1 -251 214 -222 262 22 35
88 17 121 -32z m1410 -19 c10 6 18 2 18 -10 0 -11 11 -21 26 -21 14 0 41 -18
59 -40 19 -22 48 -40 65 -40 16 0 30 -17 30 -38 0 -21 31 -64 69 -95 41 -34
74 -82 80 -117 6 -33 6 -49 -1 -35 -6 14 -21 19 -33 12 -14 -9 -17 3 -9 35 12
47 11 47 -18 8 -35 -47 -75 -9 -143 134 -20 42 -50 75 -69 75 -37 1 -117 101
-114 144 1 20 4 21 11 2 6 -14 19 -20 29 -14z m1536 -145 c-61 -151 -91 -199
-182 -296 -42 -44 -76 -86 -76 -95 0 -8 -10 -15 -23 -15 -50 0 1 147 73 212
67 59 190 231 190 265 0 21 45 64 56 54 5 -5 -12 -61 -38 -125z m-443 -137
c-20 -21 -117 31 -103 54 10 16 4 20 -19 11 -34 -13 -41 2 -22 53 9 23 28 14
83 -40 39 -38 67 -73 61 -78z m116 -39 l14 -60 -43 41 c-28 27 -39 54 -30 77
17 44 41 20 59 -58z m-51 -162 c1 -113 -39 -166 -106 -144 -84 28 -93 39 -71
86 16 37 17 37 9 -5 -4 -25 0 -45 10 -45 10 0 18 36 18 80 0 66 7 80 39 80 21
0 45 10 52 22 18 29 48 -17 49 -74z m-641 -54 c9 -24 47 -73 84 -108 280 -265
466 -581 375 -637 -25 -16 -88 47 -107 107 -7 24 -24 41 -36 39 -12 -3 -41 32
-64 77 -52 103 -151 230 -170 219 -8 -5 -25 35 -39 88 -20 78 -36 102 -85 122
-44 18 -57 35 -50 62 5 20 2 41 -6 47 -9 5 -21 27 -27 49 -15 58 101 -3 125
-65z m1246 -51 c-14 -8 -22 -42 -18 -76 4 -39 -2 -60 -18 -60 -16 0 -23 20
-18 57 9 70 24 96 55 96 18 -1 17 -5 -1 -17z m-1657 -35 c18 -48 14 -72 -10
-57 -15 10 -18 0 -9 -28 8 -24 5 -43 -6 -43 -30 0 -40 45 -19 85 10 20 12 45
6 55 -7 11 -4 20 7 20 10 0 24 -14 31 -32z m3222 -148 c-16 -50 -87 -28 -102
31 -6 25 -1 65 12 89 29 55 111 -54 90 -120z m-23 -182 c-36 -36 -43 -37 -66
-9 -22 26 -18 33 20 48 33 12 39 21 20 32 -20 13 -20 19 2 33 50 31 70 -58 24
-104z m-2287 7 c93 -100 176 -229 191 -298 7 -32 26 -94 43 -140 22 -60 24
-94 9 -120 -17 -30 -22 -32 -29 -7 -59 193 -218 506 -287 562 -29 24 -37 78
-12 78 8 0 47 -34 85 -75z m1099 56 c26 -16 25 -21 -5 -32 -19 -7 -34 -22 -34
-32 0 -11 9 -14 20 -7 11 7 20 -2 20 -19 0 -36 -9 -38 -60 -11 -31 17 -33 27
-13 70 26 55 30 57 72 31z m-2335 -144 c45 -32 53 -46 33 -59 -40 -26 -51 -22
-96 26 -77 82 -37 104 63 33z m3496 -35 c0 -51 -29 -82 -78 -82 -8 0 -10 32
-6 70 11 92 84 103 84 12z m-3570 -26 c27 -24 50 -54 50 -68 0 -14 7 -28 15
-31 21 -9 211 -272 244 -337 27 -53 214 -240 239 -240 13 0 62 -87 62 -110 0
-38 -242 146 -288 219 -31 49 -73 103 -93 121 -19 18 -56 84 -80 147 -25 62
-85 165 -133 228 -94 122 -99 143 -16 71z m768 -159 c-20 -17 -32 -38 -27 -45
5 -7 -1 -4 -13 6 -28 23 -6 62 34 62 17 0 25 9 18 20 -7 12 -21 15 -31 9 -11
-6 -19 1 -19 16 0 51 26 56 51 10 20 -38 18 -50 -13 -78z m-763 58 c46 -48
145 -257 206 -435 51 -145 -12 -73 -72 84 -22 55 -61 124 -89 153 -27 29 -60
80 -72 113 -12 33 -29 76 -37 95 -21 49 14 44 64 -10z m249 -52 c29 -11 88
-69 132 -127 43 -58 93 -119 113 -135 19 -16 56 -70 83 -120 89 -163 167 -267
343 -454 115 -122 140 -181 106 -244 -20 -39 -81 -41 -81 -3 0 9 -35 61 -78
115 -42 54 -93 129 -112 166 -20 38 -41 74 -48 79 -7 6 -34 55 -62 110 -27 55
-74 127 -104 160 -103 113 -196 234 -196 253 0 10 -31 51 -70 91 -38 40 -70
79 -70 87 0 8 -18 19 -40 25 -22 6 -40 20 -40 32 0 15 12 16 35 4 19 -10 59
-27 89 -39z m244 -158 c54 -90 57 -130 6 -88 -15 12 -52 68 -83 124 -72 132
-6 101 77 -36z m296 82 c-5 -29 -27 -57 -49 -62 -29 -8 -32 -14 -12 -27 20
-13 21 -17 2 -18 -14 0 -25 -18 -25 -40 0 -22 9 -40 19 -40 11 0 14 -15 7 -33
-9 -23 -5 -29 11 -19 15 9 23 -2 23 -34 0 -27 19 -72 41 -101 32 -41 35 -53
13 -53 -16 0 -35 21 -42 48 -6 26 -30 52 -53 58 -30 8 -40 24 -36 58 6 36 -8
54 -62 80 -82 41 -114 87 -71 103 18 7 30 0 30 -18 0 -38 33 -37 48 2 6 18 3
26 -8 19 -23 -14 -25 -6 -8 38 9 22 22 26 46 13 25 -13 44 -6 73 30 51 62 66
61 53 -4z m-953 -45 c-16 -27 -71 -29 -71 -4 0 60 25 85 55 55 16 -16 24 -39
16 -51z m103 -41 c61 -37 119 -115 100 -134 -21 -21 -176 79 -165 107 6 15 2
23 -9 16 -11 -7 -20 2 -20 19 0 40 17 39 94 -8z m726 -179 c0 -20 14 -48 30
-62 34 -29 40 -60 10 -60 -27 0 -101 122 -88 144 19 30 48 17 48 -22z m-122
-355 c5 -4 3 -12 -3 -19 -16 -15 -235 126 -235 152 0 15 187 -89 238 -133z
m275 102 c37 -28 67 -62 67 -75 0 -62 201 -199 274 -187 53 8 86 1 126 -27 30
-22 77 -48 105 -58 165 -63 568 -443 432 -407 -23 6 -74 46 -112 88 -38 42
-88 77 -111 77 -22 0 -57 15 -77 33 -21 18 -70 32 -115 32 -71 0 -77 4 -56 36
12 20 31 31 43 24 12 -8 6 9 -12 36 -32 49 -96 66 -120 32 -7 -10 -31 -6 -55
11 -23 16 -36 36 -29 43 25 25 -45 13 -71 -12 -22 -20 -29 -19 -38 4 -5 17
-56 77 -112 134 -246 252 -304 342 -139 216z m-429 -151 c8 -26 19 -70 25 -98
6 -28 41 -70 81 -95 95 -61 93 -64 -98 -152 -136 -62 -181 -95 -242 -176 -45
-59 -87 -95 -103 -89 -17 7 -27 -4 -27 -27 0 -56 -24 -62 -76 -20 l-45 36 87
87 c86 85 164 193 150 207 -4 4 -47 -42 -97 -102 -50 -61 -100 -105 -115 -99
-14 5 -21 1 -14 -9 6 -11 -9 -30 -34 -43 -25 -13 -39 -16 -31 -8 8 9 5 28 -7
43 -17 20 -11 31 25 45 46 18 306 281 350 354 12 21 29 32 37 24 8 -8 -4 -47
-28 -86 -51 -87 -53 -104 -9 -68 55 46 135 185 110 194 -15 5 -12 23 10 55 19
30 23 49 9 49 -12 0 -22 10 -22 22 0 39 50 6 64 -44z m277 4 c38 -32 64 -63
59 -69 -6 -6 -47 20 -90 57 -44 38 -71 69 -59 69 11 1 52 -25 90 -57z m-96
-25 c116 -62 266 -235 240 -277 -22 -34 -21 -43 5 -53 16 -6 30 -28 30 -48 0
-64 74 -164 239 -325 89 -86 161 -162 161 -168 0 -7 -6 -7 -13 0 -7 7 -38 -5
-69 -27 l-56 -41 -56 66 c-79 92 -191 196 -211 196 -10 0 -12 9 -5 20 7 11 3
20 -9 20 -11 0 -21 18 -21 40 0 22 13 40 30 40 17 0 30 -14 30 -31 0 -16 16
-36 35 -42 19 -7 93 -68 164 -135 86 -82 116 -103 91 -62 -63 101 -276 290
-327 290 -55 0 -111 130 -121 284 -1 18 -16 47 -33 65 -29 28 -29 31 1 31 18
0 27 9 20 20 -7 11 -35 20 -62 20 -29 0 -54 14 -62 35 -6 19 -26 51 -42 70
-35 40 -20 45 41 12z m775 -248 c0 -24 -81 -95 -93 -82 -8 7 3 31 25 52 37 38
68 52 68 30z m-352 -178 c15 -60 137 -182 222 -222 106 -51 155 -189 67 -189
-75 0 -376 387 -377 486 0 36 76 -29 88 -75z m282 49 c7 -11 48 -20 90 -20 58
0 94 -15 138 -55 33 -30 80 -70 106 -89 37 -28 40 -38 19 -53 -15 -10 -20 -22
-10 -27 9 -5 4 -6 -11 -2 -15 4 -45 -9 -66 -28 -28 -25 -47 -29 -71 -14 -46
29 -55 68 -15 68 53 0 -45 109 -135 151 -89 42 -137 89 -89 89 18 0 37 -9 44
-20z m-60 -52 c53 -46 55 -50 14 -38 -27 8 -59 3 -76 -12 -25 -20 -38 -17 -74
19 -85 86 38 113 136 31z m474 -82 c61 -59 71 -86 29 -86 -15 0 -37 23 -49 50
-13 28 -32 50 -44 50 -11 0 -20 9 -20 20 0 33 25 23 84 -34z m-424 -26 c12
-22 57 -63 101 -91 43 -27 79 -63 79 -80 0 -17 -9 -26 -20 -19 -11 7 -20 4
-20 -5 0 -10 -13 -18 -30 -18 -16 0 -30 11 -30 25 0 13 -40 60 -90 104 -49 43
-90 89 -90 102 0 38 77 24 100 -18z m477 -126 c18 -22 9 -26 -42 -21 -57 5
-59 4 -15 -10 l50 -15 -45 -25 c-25 -13 -45 -18 -45 -11 0 7 -13 2 -30 -12
-36 -30 -41 1 -6 36 36 36 8 29 -78 -18 l-76 -42 50 41 c28 23 86 55 130 71
44 16 81 30 83 30 1 1 12 -10 24 -24z m2152 -11 c18 -56 -8 -103 -56 -102 -40
0 -41 2 -8 27 37 28 49 63 14 41 -40 -24 -86 8 -59 41 35 42 95 37 109 -7z"/>
<path d="M3515 7447 c-6 -10 -17 -46 -24 -82 -15 -70 17 -93 35 -25 10 40 66
75 87 54 5 -6 -8 -29 -31 -52 -53 -53 -53 -91 0 -144 23 -23 36 -47 29 -54 -7
-7 -35 14 -61 47 -55 67 -67 43 -16 -32 44 -64 66 -78 121 -79 59 0 63 89 5
120 -56 30 -51 97 10 120 28 10 50 28 50 39 0 45 -184 123 -205 88z"/>
<path d="M2165 6467 c-45 -18 -26 -66 30 -77 30 -6 102 -25 160 -42 119 -34
155 -25 125 32 -14 26 -38 36 -75 32 -69 -8 -185 23 -185 49 0 20 -15 22 -55
6z"/>
<path d="M2980 6080 c0 -11 14 -20 30 -20 17 0 30 -7 30 -15 1 -34 160 -93
185 -68 39 39 -42 99 -150 112 -58 7 -95 3 -95 -9z"/>
<path d="M2213 5627 c-22 -23 -15 -101 12 -123 42 -34 105 -37 105 -4 0 17
-13 31 -30 33 -16 1 -37 3 -45 5 -7 1 -5 25 5 52 19 49 -11 72 -47 37z"/>
<path d="M3900 6849 c-34 -88 -3 -209 54 -209 22 0 21 12 -6 63 -20 40 -28 88
-21 130 13 80 0 87 -27 16z"/>
<path d="M3632 6483 c-7 -11 2 -34 19 -51 36 -36 69 -42 69 -12 0 11 14 20 30
20 17 0 30 -9 30 -20 0 -11 14 -20 30 -20 17 0 30 9 30 19 0 32 -69 60 -101
41 -18 -12 -40 -7 -62 12 -20 19 -38 23 -45 11z"/>
<path d="M4178 6178 c-55 -55 -37 -69 39 -29 34 17 75 31 92 31 17 0 31 9 31
20 0 37 -119 21 -162 -22z"/>
<path d="M4101 5997 c-28 -23 -68 -36 -94 -32 -47 9 -67 -17 -67 -87 0 -21
-22 -85 -50 -142 -27 -56 -48 -105 -45 -107 29 -24 183 -90 198 -85 49 17 148
382 123 450 l-16 43 -49 -40z"/>
<path d="M3715 5913 c-57 -22 -74 -53 -29 -53 31 0 108 53 94 65 -6 4 -35 -1
-65 -12z"/>
<path d="M4164 5416 c-60 -60 -13 -133 61 -94 24 14 35 28 22 32 -12 4 -18 25
-13 47 12 44 -31 54 -70 15z"/>
<path d="M1280 4425 c1 -46 76 -284 78 -247 4 61 -43 282 -60 282 -10 0 -18
-16 -18 -35z"/>
<path d="M3898 5086 c-18 -5 -43 -31 -55 -58 -41 -89 14 -120 80 -45 58 68 46
119 -25 103z"/>
<path d="M3330 5063 c-28 -27 25 -63 93 -63 69 0 77 4 59 35 -17 30 -129 51
-152 28z"/>
<path d="M3633 4791 c-11 -28 55 -132 71 -111 4 6 -7 39 -26 75 -24 47 -37 57
-45 36z"/>
<path d="M1775 4673 c-23 -56 -18 -93 13 -93 15 0 33 14 40 31 6 17 3 26 -7
20 -10 -6 -21 9 -25 34 -6 40 -8 41 -21 8z"/>
<path d="M3009 4391 c-22 -17 -55 -30 -74 -30 -19 -1 -35 -14 -35 -31 0 -60
122 -22 160 50 25 47 3 52 -51 11z"/>
<path d="M1816 4390 c-7 -8 -8 -27 -2 -42 5 -15 1 -28 -10 -28 -12 0 -14 -26
-4 -69 8 -38 12 -73 8 -77 -5 -4 10 -24 32 -44 41 -37 41 -36 30 51 -18 142
-39 223 -54 209z"/>
<path d="M2400 3765 c0 -9 11 -29 25 -43 20 -22 20 -29 0 -36 -27 -10 -15 -46
16 -46 30 0 22 80 -11 113 -16 16 -30 22 -30 12z"/>
<path d="M3295 3626 c-19 -5 -35 -23 -35 -40 0 -27 -5 -27 -35 -3 -31 24 -32
24 -8 -7 30 -39 116 -13 116 36 0 15 0 27 -1 26 -1 -2 -18 -7 -37 -12z"/>
<path d="M3519 2831 c-36 -72 -61 -136 -55 -142 6 -6 40 49 74 123 81 174 66
189 -19 19z"/>
<path d="M4460 3718 c-25 -18 -25 -20 5 -11 19 7 35 6 35 0 0 -7 -16 -25 -35
-40 -33 -26 -33 -27 0 -15 19 7 35 3 35 -8 0 -10 20 -25 45 -32 38 -10 40 -15
15 -32 -18 -12 -21 -20 -6 -20 49 0 44 38 -9 78 -30 22 -44 41 -30 41 14 1 25
15 25 31 0 35 -37 39 -80 8z"/>
<path d="M4240 2520 c0 -12 25 -32 55 -45 30 -14 66 -38 79 -55 16 -19 25 -21
25 -6 1 32 -56 86 -90 86 -16 0 -29 9 -29 20 0 11 -9 20 -20 20 -11 0 -20 -9
-20 -20z"/>
<path d="M4216 1621 c-5 -32 3 -79 17 -105 23 -42 26 -37 26 59 1 112 -29 144
-43 46z"/>
<path d="M4494 1307 c-34 -34 -14 -90 31 -83 29 4 45 20 45 46 0 39 -49 64
-76 37z"/>
<path d="M1208 3714 c-10 -35 -13 -109 -7 -164 7 -55 23 -199 37 -320 30 -283
37 -310 73 -310 54 0 55 57 1 396 -29 184 -52 358 -52 388 0 78 -31 85 -52 10z"/>
<path d="M1362 3730 c0 -22 12 -67 27 -100 36 -77 36 -22 1 70 -17 45 -27 56
-28 30z"/>
<path d="M962 3615 c3 -36 12 -74 19 -85 7 -11 34 -78 59 -150 75 -209 134
-268 77 -77 -13 42 -32 77 -42 77 -11 0 -15 12 -9 28 11 29 -36 186 -67 224
-10 12 -13 28 -5 35 7 7 1 13 -12 13 -16 0 -23 -24 -20 -65z"/>
<path d="M1510 2840 c-7 -33 -10 -85 -7 -117 3 -32 -6 -73 -21 -90 -15 -18
-22 -33 -16 -33 6 0 3 -28 -7 -63 -11 -38 -10 -75 1 -95 17 -29 19 -29 19 2 1
19 24 67 51 108 28 40 50 90 50 109 0 20 5 52 12 72 10 31 8 32 -10 7 -16 -22
-19 -6 -12 65 11 110 -37 139 -60 35z"/>
<path d="M1280 2445 c0 -52 8 -107 18 -123 11 -17 18 17 19 95 1 68 -7 123
-17 123 -11 0 -20 -43 -20 -95z"/>
<path d="M1460 1162 c-71 -18 -150 -45 -174 -58 -24 -13 -60 -24 -80 -24 -57
-1 -236 -103 -325 -186 l-81 -76 32 -64 c40 -79 167 -214 202 -214 14 0 26
-13 26 -30 0 -17 18 -30 40 -30 22 0 40 -9 40 -21 0 -72 396 -109 855 -81 113
6 160 62 53 62 -15 0 -22 11 -17 25 7 19 -58 25 -286 25 -249 0 -295 5 -295
30 0 17 -22 33 -50 37 -27 4 -61 16 -75 27 -13 11 -39 15 -56 8 -17 -6 -26 -4
-20 6 6 10 -16 28 -49 42 -33 14 -60 31 -59 37 1 24 89 118 142 151 37 24 50
46 43 73 -7 27 -1 39 22 39 17 0 32 13 32 29 0 15 29 39 65 53 69 26 219 179
172 176 -15 -1 -85 -17 -157 -36z"/>
<path d="M1292 788 c-6 -15 -2 -28 9 -28 10 0 19 -13 19 -30 0 -17 18 -30 40
-30 51 0 50 8 -9 67 -37 37 -51 42 -59 21z"/>
<path d="M2287 466 c-24 -5 -49 -22 -56 -39 -8 -23 -3 -28 20 -19 18 6 48 12
67 12 20 0 35 14 35 30 0 17 -5 29 -11 27 -7 -1 -31 -6 -55 -11z"/>
</g>
</svg>
