<?xml version="1.0" standalone="no"?>
<!DOCTYPE svg PUBLIC "-//W3C//DTD SVG 20010904//EN"
 "http://www.w3.org/TR/2001/REC-SVG-20010904/DTD/svg10.dtd">
<svg version="1.0" xmlns="http://www.w3.org/2000/svg"
 width="300.000000pt" height="432.000000pt" viewBox="0 0 300.000000 432.000000"
 preserveAspectRatio="xMidYMid meet">
<metadata>
Created by potrace 1.10, written by Peter Selinger 2001-2011
</metadata>
<g transform="translate(0.000000,432.000000) scale(0.050000,-0.050000)"
fill="#000000" stroke="none">
<path d="M3151 8209 c-76 -27 -155 -49 -174 -49 -62 0 -61 -38 3 -117 63 -79
66 -104 33 -273 -4 -22 1 -46 12 -52 10 -7 -13 -45 -52 -83 -64 -65 -81 -123
-22 -74 52 43 49 -19 -3 -71 -55 -55 -79 -49 -91 20 -5 24 -24 40 -48 40 -22
0 -62 20 -88 45 -60 56 -78 51 -124 -35 -39 -73 -23 -120 41 -120 19 0 45 -11
58 -24 19 -19 24 -17 24 8 0 60 56 86 100 46 76 -69 -4 -217 -86 -160 -54 37
-74 38 -74 2 0 -52 174 -134 231 -108 42 19 60 14 124 -31 73 -52 76 -52 105
-15 16 21 50 44 75 51 49 15 61 44 18 44 -27 0 -203 115 -222 145 -63 103 191
52 261 -52 30 -45 49 -57 64 -42 15 15 20 11 16 -13 -3 -19 -18 -43 -33 -54
-23 -17 -21 -18 8 -9 20 7 45 12 55 12 10 0 18 25 19 55 0 30 13 78 29 105 40
70 37 100 -10 100 -22 0 -40 12 -40 28 0 15 -13 38 -28 50 -15 13 -24 43 -18
68 7 32 4 37 -10 17 -16 -22 -36 -18 -112 27 -86 50 -118 90 -72 90 11 0 20
14 20 30 0 17 -13 30 -29 30 -18 0 -25 12 -18 31 8 21 19 24 37 9 14 -11 40
-15 57 -8 22 8 33 2 33 -21 0 -18 9 -28 20 -21 11 7 20 28 20 48 0 19 13 35
29 35 16 0 25 -7 20 -15 -6 -9 8 -25 29 -37 53 -28 71 -26 46 5 -23 27 42 154
79 154 10 0 60 -40 110 -90 50 -49 100 -90 110 -90 11 0 48 -27 83 -60 42 -40
78 -58 104 -51 32 7 47 -8 77 -80 24 -59 49 -89 73 -89 33 0 172 -135 155
-151 -3 -4 -67 15 -142 42 -165 60 -219 61 -367 6 -116 -42 -354 -257 -341
-307 3 -11 -24 -50 -60 -87 l-65 -67 0 67 c0 42 -7 57 -17 42 -9 -14 -37 -23
-62 -20 -84 9 -64 -38 48 -115 92 -64 115 -72 141 -50 35 29 190 -63 190 -113
0 -70 100 -187 160 -187 33 0 60 -10 60 -22 0 -14 19 -18 49 -10 27 7 54 3 61
-8 7 -11 -5 -20 -26 -20 -73 0 -125 -661 -58 -737 35 -39 49 -122 27 -158 -8
-14 -8 -25 1 -25 9 0 -8 -16 -38 -36 -80 -53 -149 -144 -98 -130 20 5 49 31
63 58 19 36 43 48 91 48 35 0 79 6 97 12 80 31 -79 -219 -234 -368 -52 -50
-95 -106 -95 -126 0 -46 -37 -69 -51 -31 -10 25 16 215 43 309 5 19 -1 14 -14
-11 -13 -25 -32 -45 -42 -45 -10 0 -13 9 -6 20 7 11 -2 20 -19 20 -34 0 -42
31 -12 50 45 27 17 154 -32 145 -34 -7 -49 2 -58 33 -6 23 -19 60 -28 82 -10
22 -23 57 -29 77 -9 25 -25 34 -52 27 -26 -7 -43 2 -51 30 -7 21 -18 34 -24
28 -6 -6 -22 3 -35 21 -19 27 -31 28 -69 8 -34 -19 -42 -19 -31 -1 9 15 2 21
-23 17 -20 -3 -49 1 -63 10 -38 24 -145 -24 -209 -94 -67 -73 -72 -108 -10
-68 99 64 295 59 295 -7 0 -23 19 -42 48 -49 45 -12 46 -16 20 -66 -15 -29
-28 -64 -28 -78 0 -14 -13 -25 -30 -25 -16 0 -30 -9 -30 -20 0 -11 -13 -20
-29 -20 -16 0 -39 -17 -50 -38 -30 -57 30 -72 68 -17 42 59 60 31 31 -49 -20
-55 -36 -67 -90 -71 -76 -5 -137 46 -89 75 15 10 21 24 14 32 -8 8 -33 -2 -55
-22 -36 -33 -40 -33 -40 -3 0 18 11 33 23 33 13 0 20 4 15 9 -5 5 -43 1 -83
-8 -44 -10 -70 -9 -64 1 6 10 29 18 50 18 22 0 39 9 39 20 0 11 13 20 29 20
17 0 43 26 60 57 23 46 39 56 80 48 32 -6 51 -1 51 15 0 20 6 20 30 0 25 -20
30 -19 30 7 0 47 -72 77 -154 64 -48 -8 -79 -3 -91 14 -12 16 -15 3 -10 -38 6
-52 -1 -68 -39 -85 -55 -25 -60 -2 -15 67 33 50 -18 94 -71 61 -24 -15 -27
-104 -3 -113 43 -17 49 -103 6 -92 -38 10 -41 3 -38 -102 1 -62 -4 -131 -12
-153 -26 -70 154 -44 187 27 15 31 29 43 34 28 5 -14 18 -20 28 -14 30 19 20
-11 -24 -74 -32 -45 -48 -54 -69 -36 -19 16 -38 16 -68 -1 -23 -12 -53 -15
-66 -7 -14 9 -52 16 -85 16 -47 1 -63 13 -79 61 -22 65 -59 102 -118 117 -24
7 -33 1 -26 -16 6 -15 -12 -48 -40 -74 -29 -27 -48 -35 -44 -19 4 18 -18 36
-59 48 -36 11 -101 55 -145 97 -43 42 -88 77 -99 77 -26 0 -25 12 8 76 30 59
52 172 56 289 2 65 10 77 54 86 95 20 186 77 204 128 10 28 26 65 35 81 55 97
-27 235 -171 290 -234 90 -544 -65 -705 -353 l-43 -76 76 32 c112 47 319 8
399 -76 45 -47 49 -56 17 -45 -35 14 -37 12 -13 -17 17 -22 22 -55 13 -97 -8
-35 -20 -55 -27 -46 -124 171 -630 128 -617 -53 5 -71 4 -71 78 -9 71 60 270
76 249 20 -8 -20 1 -30 26 -30 21 0 44 -9 51 -20 7 -11 26 -20 42 -20 17 0 24
10 17 22 -10 15 -1 15 29 -1 70 -37 52 -90 -39 -114 -76 -21 -83 -19 -99 23
-23 60 -96 110 -137 94 -29 -11 -29 -14 3 -20 19 -4 33 -18 31 -31 -2 -12 3
-38 12 -57 8 -18 10 -50 5 -70 -6 -23 -10 -16 -12 20 l-2 57 -60 -43 c-60 -43
-69 -37 -62 40 2 17 -11 8 -27 -20 -28 -48 -30 -48 -30 -7 -1 23 -15 48 -31
54 -40 16 -40 -102 1 -156 16 -21 29 -62 29 -90 1 -102 20 -136 71 -126 45 9
48 17 38 92 l-12 83 43 -55 c30 -38 62 -55 104 -55 44 0 57 -8 49 -29 -7 -19
-1 -25 18 -18 16 6 29 2 29 -9 0 -11 -23 -25 -50 -32 -45 -12 -72 -52 -34 -52
41 0 104 67 104 111 0 34 8 45 30 36 16 -6 30 -1 30 11 0 30 55 28 66 -3 16
-45 39 125 29 217 -10 88 -10 88 27 45 22 -24 38 -74 39 -115 0 -65 3 -68 27
-36 22 28 29 30 38 7 14 -36 -39 -113 -76 -113 -16 0 -38 -17 -49 -37 -64
-121 -426 -203 -478 -108 -15 25 -19 24 -30 -6 -22 -56 63 -204 154 -268 46
-32 115 -93 155 -135 40 -42 108 -95 150 -119 l79 -43 33 78 c33 78 33 78 -13
78 -45 0 -81 43 -56 68 6 7 36 12 65 12 34 0 79 25 122 66 70 68 138 105 138
76 0 -82 -97 -202 -116 -143 -4 11 -16 21 -27 21 -11 0 -14 -8 -8 -19 7 -10 0
-26 -14 -35 -22 -14 -95 -150 -95 -178 0 -6 11 -5 25 2 14 7 8 -1 -14 -19 -21
-17 -44 -31 -51 -31 -19 0 -80 -321 -80 -422 0 -117 -33 -213 -83 -239 -45
-25 -31 -59 24 -59 80 0 173 -64 208 -142 24 -56 46 -78 77 -78 37 0 44 -11
42 -65 -2 -65 -50 -100 -77 -57 -15 25 -71 6 -71 -25 0 -13 -37 -58 -81 -102
-45 -43 -111 -142 -148 -220 -36 -77 -94 -171 -129 -207 -34 -37 -62 -72 -62
-79 0 -7 54 43 121 111 66 68 133 124 149 124 36 0 70 62 70 128 0 62 32 85
46 32 12 -45 94 -85 122 -59 31 29 -28 84 -61 57 -21 -18 -27 -16 -27 8 0 18
10 38 22 45 12 7 16 34 10 59 -10 38 -5 44 27 36 26 -7 42 -35 51 -88 18 -102
49 -82 35 22 -8 61 -3 80 18 80 41 0 77 -41 77 -89 0 -23 18 -71 41 -108 23
-39 35 -83 28 -105 -15 -49 -48 -50 -36 -2 5 20 -2 47 -17 59 -38 32 -136 53
-136 30 0 -11 27 -25 60 -32 39 -8 60 -24 60 -46 0 -27 -6 -29 -23 -12 -16 16
-35 17 -60 3 -25 -13 -62 -13 -111 1 -41 11 -77 17 -81 13 -18 -18 124 -112
169 -112 37 0 47 -8 38 -31 -8 -22 6 -37 48 -52 50 -17 60 -31 58 -84 0 -35
-6 -52 -11 -39 -14 35 -146 -54 -147 -99 0 -41 89 -50 112 -12 25 40 49 -59
28 -113 -21 -56 -102 -176 -125 -187 -8 -3 -15 -28 -15 -55 0 -28 -25 -70 -60
-101 -59 -52 -59 -53 -20 -87 22 -19 40 -40 40 -47 0 -18 -175 4 -217 27 -18
10 -60 24 -93 31 l-60 13 49 19 49 19 -56 29 c-31 16 -73 29 -93 29 -20 0 -42
9 -49 21 -9 13 5 16 38 8 33 -8 52 -5 52 9 0 12 -22 22 -49 22 -27 0 -58 16
-69 35 -19 31 -21 30 -21 -10 -1 -37 -12 -45 -61 -45 -70 0 -77 33 -22 103 21
26 41 70 45 97 7 47 177 220 216 220 10 0 60 36 111 80 112 97 115 97 108 15
-10 -117 70 -495 104 -495 32 0 59 192 41 288 -11 55 -16 109 -13 120 25 84
28 252 4 252 -14 0 -57 27 -95 59 -86 74 -89 74 -119 2 -25 -62 -265 -261
-314 -261 -16 0 -23 9 -16 20 15 24 -10 26 -45 4 -18 -12 -19 -34 -5 -85 29
-101 26 -112 -41 -140 -52 -21 -61 -34 -56 -88 4 -43 -8 -76 -39 -107 -24 -24
-44 -54 -44 -67 0 -12 -15 -34 -34 -47 -28 -21 -33 -55 -29 -206 4 -111 -3
-185 -16 -193 -33 -21 -25 -105 19 -191 22 -43 34 -92 28 -109 -15 -39 -48
-41 -48 -3 0 15 -14 33 -30 39 -17 7 -30 27 -30 46 0 24 -6 29 -21 14 -25 -25
6 -118 60 -177 73 -80 71 -156 -8 -235 -67 -67 -93 -135 -53 -135 10 0 13 -19
7 -43 -8 -32 -5 -39 14 -27 15 8 22 8 18 -2 -5 -10 -28 -61 -52 -113 l-44 -95
-169 0 c-220 0 -244 -9 -202 -73 28 -43 28 -49 1 -59 -17 -7 -31 -32 -32 -55
0 -42 -1 -42 -29 -4 -32 42 -34 41 -67 -21 -31 -61 -14 -68 150 -68 109 0 167
-10 222 -40 179 -96 483 -44 585 101 27 36 67 62 110 70 90 17 100 33 126 199
13 77 32 143 43 146 12 4 21 25 21 46 0 43 21 49 54 16 60 -60 44 33 -17 99
-70 76 -90 223 -30 223 45 0 91 48 125 130 l33 80 -47 -40 c-26 -22 -56 -50
-68 -63 -11 -13 -38 -27 -60 -31 -25 -5 -38 -21 -34 -42 6 -36 -26 -47 -45
-16 -14 23 42 82 78 82 16 0 22 17 16 48 -5 26 1 53 13 61 12 7 22 38 23 67 2
142 172 323 305 325 98 1 273 69 327 127 62 66 94 66 118 -3 l20 -54 48 69
c108 157 131 155 267 -23 59 -77 158 -132 374 -208 132 -46 200 -112 200 -196
0 -22 23 -45 60 -59 35 -13 57 -34 51 -48 -12 -31 71 -55 134 -39 76 19 233
133 290 210 29 40 62 82 74 93 47 44 70 129 50 183 -11 29 -16 57 -10 63 6 5
16 -5 23 -23 7 -18 31 -33 53 -33 50 0 42 -89 -25 -267 -81 -214 -293 -389
-330 -272 -10 31 -23 37 -57 26 -23 -8 -74 -13 -112 -11 -41 3 -62 -3 -50 -13
34 -31 177 -98 265 -124 51 -16 102 -48 125 -80 24 -35 65 -59 111 -68 40 -8
96 -24 125 -36 29 -12 62 -22 73 -23 11 -1 20 -20 20 -42 0 -22 6 -49 14 -61
7 -11 5 -34 -5 -50 -29 -46 -23 -59 29 -59 76 0 77 -53 5 -207 -75 -159 -73
-171 46 -233 68 -36 68 -38 19 -39 -78 -1 -187 80 -188 140 0 43 -8 49 -70 46
-95 -3 -1475 -8 -1650 -6 -95 1 -127 7 -100 19 27 11 -2 16 -91 17 -140 0
-274 19 -288 41 -5 8 16 13 45 12 30 0 61 8 69 19 9 13 15 11 15 -5 0 -15 8
-22 17 -16 36 22 143 32 143 12 0 -29 115 -25 127 5 8 19 14 20 27 1 18 -25
402 -23 442 1 10 7 48 3 85 -7 56 -16 74 -13 109 20 53 50 63 50 76 0 7 -28 0
-40 -23 -42 -18 0 -23 -5 -10 -11 13 -5 55 4 95 21 45 19 91 24 126 14 31 -8
97 -12 146 -9 50 4 108 6 130 5 22 0 54 0 70 1 17 0 62 0 100 -1 39 -1 84 -2
100 -3 210 -4 383 30 345 68 -42 42 -2525 49 -2525 7 0 -24 11 -29 43 -19 36
12 41 8 27 -24 -9 -20 -17 -72 -18 -115 -2 -81 -48 -113 -212 -145 -27 -5 -64
-22 -81 -38 -18 -16 -44 -29 -59 -29 -15 0 -21 -5 -15 -12 6 -6 172 -15 368
-20 541 -12 753 -25 765 -45 7 -11 118 -12 282 -2 414 27 600 31 600 14 0 -8
19 -15 41 -15 23 0 36 9 29 21 -9 13 103 19 343 17 197 -1 476 7 622 19 174
15 282 15 316 3 80 -31 107 -24 121 30 11 45 22 50 115 51 104 1 266 26 284
44 18 17 -15 75 -42 75 -15 0 -37 18 -49 40 -20 38 -15 40 89 40 119 0 128 10
82 98 -27 52 -40 57 -175 67 -178 13 -219 -2 -160 -61 22 -22 35 -46 29 -52
-6 -7 5 -12 26 -12 28 0 32 -5 13 -24 -17 -17 -41 -17 -93 -1 -68 20 -70 20
-46 -22 34 -61 18 -182 -19 -145 -6 6 -34 -7 -62 -29 -27 -22 -55 -34 -61 -28
-7 6 1 19 16 28 21 13 26 68 24 229 -3 177 2 212 27 212 44 0 37 75 -10 100
-65 35 -95 108 -37 89 41 -13 44 -11 20 18 -15 18 -22 46 -16 62 7 18 -4 34
-28 41 -21 7 -39 30 -39 51 0 43 -56 79 -124 78 -45 0 -45 -1 9 -41 30 -23 50
-50 44 -60 -37 -59 -149 34 -134 111 8 42 18 50 50 39 33 -10 38 -6 28 21 -7
19 -13 38 -13 43 0 4 -16 9 -35 10 -21 1 -25 5 -10 11 39 16 29 47 -14 47 -22
0 -50 20 -63 45 -13 25 -36 52 -51 61 -15 9 -27 32 -27 53 0 20 -13 47 -30 61
-16 14 -30 38 -30 53 0 16 -14 34 -31 40 -17 7 -44 37 -60 68 -65 126 -163
198 -256 188 -44 -5 -54 0 -45 24 7 17 -7 57 -30 89 -26 37 -32 57 -16 54 15
-3 28 5 30 19 1 14 4 34 6 45 1 11 38 14 91 7 121 -17 181 2 232 74 55 78 39
95 -37 39 -72 -54 -122 -42 -171 40 -19 33 -49 60 -67 60 -101 0 -184 100
-224 270 -10 44 -52 175 -92 290 -41 116 -77 227 -81 249 -15 73 -157 100
-216 41 -59 -59 -168 19 -186 133 l-11 72 171 94 c95 52 178 103 185 115 14
22 -31 59 -54 45 -20 -12 -111 100 -160 194 -35 70 -43 75 -70 48 -16 -17 -45
-42 -64 -56 -101 -74 -144 -287 -69 -335 30 -19 27 -21 -15 -11 -27 7 -106 25
-174 40 -177 39 -189 58 -144 235 16 63 12 83 -32 147 -48 71 -67 150 -35 148
49 -2 132 -109 134 -171 1 -58 31 -104 31 -48 0 11 12 20 28 20 16 0 33 30 41
72 12 66 18 71 67 59 36 -8 45 -6 26 6 -27 18 -15 63 17 63 40 0 40 -91 -1
-125 -23 -19 -33 -35 -21 -35 12 0 16 -15 9 -35 -12 -31 -9 -32 20 -8 19 16
34 38 34 50 0 38 102 76 133 50 37 -30 34 -17 -23 106 -52 112 -70 322 -30
347 63 39 64 95 2 86 -34 -5 -62 0 -62 11 0 10 -18 3 -39 -16 -22 -20 -53 -31
-70 -24 -46 18 -37 52 10 43 30 -6 51 9 75 51 36 62 74 76 90 34 11 -30 19
-10 54 145 31 138 67 202 52 94 -8 -63 0 -86 49 -142 54 -62 56 -69 26 -95
-163 -133 -208 -563 -56 -525 31 8 49 4 49 -11 0 -13 -9 -18 -20 -11 -39 24
-20 -110 32 -219 63 -133 105 -176 93 -95 -5 31 10 111 33 179 23 68 42 140
43 159 0 20 18 72 39 116 21 44 39 94 39 111 1 17 41 50 89 74 159 77 327 265
362 406 7 28 38 75 68 104 122 115 206 517 139 663 -16 36 -17 58 -2 76 12 15
22 83 22 153 1 164 -4 162 146 43 70 -55 167 -130 216 -165 48 -36 117 -90
152 -120 118 -101 250 -55 248 87 0 57 -14 78 -85 128 -116 82 -656 432 -730
473 -53 29 -62 47 -75 150 -16 130 -72 227 -130 227 -22 0 -39 12 -39 26 0 14
-31 37 -70 51 -44 16 -70 39 -70 61 0 44 -83 85 -122 60 -24 -15 -24 -21 2
-37 26 -17 23 -26 -16 -65 -37 -38 -48 -41 -63 -17 -15 24 -23 24 -50 2 -33
-28 -181 68 -245 158 -54 77 256 272 406 255 335 -36 548 -205 548 -433 0
-157 33 -119 60 69 l24 170 -57 95 c-31 52 -63 109 -70 125 -7 17 -97 123
-200 237 -103 114 -207 236 -232 270 -25 35 -101 97 -168 138 -68 41 -138 88
-156 104 -107 97 -232 108 -430 40z m176 -146 c7 15 7 5 0 -22 -25 -98 -109
-140 -91 -46 11 62 46 94 66 62 9 -14 17 -12 25 6z m-177 -443 c7 -11 33 -15
59 -9 53 14 144 -107 123 -163 -6 -16 -4 -25 6 -19 10 6 22 -7 28 -29 6 -22 3
-36 -6 -30 -8 5 -27 -4 -41 -21 -22 -27 -30 -19 -54 55 -40 117 -51 127 -149
133 -104 6 -103 6 -61 59 38 47 75 56 95 24z m751 -669 c-21 -25 -14 -27 47
-17 43 7 72 3 72 -9 0 -24 -88 -85 -122 -85 -13 0 -35 -16 -49 -35 -42 -57
-60 -9 -22 55 30 51 30 58 4 48 -37 -15 -41 14 -7 48 37 37 108 32 77 -5z
m-251 -116 c66 -43 96 -115 47 -115 -75 0 -182 109 -144 147 19 18 20 18 97
-32z m470 -20 c0 -42 -160 -123 -187 -94 -17 18 -17 26 2 33 13 5 45 26 70 47
52 43 115 51 115 14z m-220 -113 c0 -10 40 -34 90 -53 109 -42 246 -167 208
-190 -15 -9 -54 4 -96 33 -39 26 -86 48 -103 48 -18 0 -50 20 -73 45 -45 50
-73 135 -44 135 10 0 18 -8 18 -18z m429 -270 c-3 -31 13 -64 45 -92 l50 -43
-42 -30 c-56 -39 -166 37 -148 103 25 91 104 142 95 62z m-409 -22 c0 -40 -10
-50 -50 -50 -56 0 -59 6 -29 61 30 56 79 49 79 -11z m152 -65 c-5 -5 -21 -1
-36 8 -26 16 -36 20 -76 25 -11 1 -20 20 -20 43 0 39 4 38 71 -13 38 -29 66
-58 61 -63z m-1962 -5 c-7 -11 -34 -20 -60 -20 -26 0 -53 9 -60 20 -7 12 17
20 60 20 43 0 67 -8 60 -20z m-214 -75 c9 -58 -34 -74 -103 -38 -62 32 -69 50
-30 76 50 32 127 10 133 -38z m2214 35 c17 -27 -26 -100 -59 -100 -28 0 -51
42 -51 92 0 32 91 39 110 8z m-154 -21 c-19 -11 -30 -33 -24 -48 6 -16 -8 -38
-33 -51 -35 -19 -41 -19 -28 1 11 19 3 22 -33 13 -44 -11 -43 -7 17 47 36 32
81 59 100 58 33 0 33 -1 1 -20z m-1976 -49 c-15 -18 -15 -30 -1 -39 12 -8 21
-22 21 -33 0 -33 -41 2 -59 49 -10 26 -8 48 6 57 33 21 58 -4 33 -34z m-165
-39 c3 -3 0 -20 -7 -38 -15 -41 -48 -43 -48 -4 0 16 -16 39 -35 51 -29 18 -24
20 25 10 33 -7 62 -16 65 -19z m2380 -38 c61 -14 85 -31 85 -58 0 -17 -7 -16
-24 1 -29 29 -63 32 -46 4 7 -11 -12 -20 -44 -21 l-56 -1 60 -26 c57 -24 51
-26 -110 -39 -93 -7 -198 -18 -233 -25 -58 -11 -62 -9 -52 40 5 29 11 52 12
53 2 0 66 22 143 49 133 46 159 48 265 23z m-2236 -21 c19 -24 16 -27 -18 -18
-33 9 -43 -1 -54 -52 -14 -74 -38 -80 -55 -14 -24 98 66 157 127 84z m201 -86
c0 -23 -14 -30 -53 -24 -7 1 -20 -10 -29 -25 -9 -14 -23 -19 -31 -11 -9 9 -5
33 9 55 13 21 24 52 24 69 0 25 6 24 40 -5 22 -18 40 -45 40 -59z m2750 -39
c39 15 84 -21 57 -48 -45 -45 -205 68 -206 147 -1 26 16 17 62 -36 35 -40 74
-68 87 -63z m-3135 69 c27 -23 34 -77 10 -75 -38 4 -93 36 -65 38 17 2 7 15
-25 33 -31 16 -65 24 -75 18 -11 -7 -20 -2 -20 11 0 27 135 8 175 -25z m2371
-223 c-99 -169 -258 -221 -315 -103 -39 79 -13 104 129 125 129 19 205 10 186
-22z m33 -244 c36 22 23 -7 -22 -52 -32 -32 -40 -35 -31 -10 8 21 3 33 -17 33
-30 0 -39 24 -16 46 7 8 25 4 39 -8 15 -12 36 -16 47 -9z m-820 -154 c-24 -19
-66 -35 -93 -35 -36 0 -47 -8 -39 -29 6 -17 3 -35 -8 -42 -11 -6 -24 2 -31 18
-6 16 -33 35 -60 42 -61 15 -44 51 24 51 28 0 46 7 41 15 -5 8 40 15 100 15
107 0 108 -1 66 -35z m730 -13 c34 -13 32 -17 -20 -28 -94 -21 -121 -45 -91
-82 22 -26 19 -40 -16 -84 -23 -29 -42 -62 -42 -73 0 -10 -17 -43 -37 -72 -25
-36 -32 -69 -23 -103 14 -49 15 -48 35 20 20 65 22 66 23 16 2 -65 -104 -196
-158 -196 -20 0 -56 -29 -80 -65 -24 -36 -39 -49 -32 -30 6 19 3 76 -6 125
-16 86 -14 93 41 132 31 23 53 49 47 58 -6 10 -2 22 8 29 10 6 60 83 112 171
52 88 106 160 122 160 15 0 28 9 28 20 0 23 33 24 89 2z m-740 -68 c-7 -17
-52 -48 -101 -68 -77 -32 -82 -37 -43 -48 41 -11 42 -14 8 -28 -23 -10 -47 -5
-67 15 -41 41 -21 68 61 83 37 7 84 31 103 53 41 44 57 41 39 -7z m-1609 17
c0 -74 -52 -111 -155 -111 -75 0 -106 7 -100 24 11 34 255 117 255 87z m1750
-206 c-17 -119 -26 -133 -63 -102 -35 28 -21 108 28 162 46 52 51 44 35 -60z
m-1315 40 c5 -14 -6 -25 -23 -25 -18 0 -32 -9 -32 -20 0 -11 -9 -20 -20 -20
-23 0 -27 66 -6 87 21 21 71 7 81 -22z m937 -130 c32 -38 33 -40 2 -17 -30 24
-39 24 -60 -1 -42 -52 -135 -103 -121 -67 12 33 -23 42 -42 11 -7 -11 -27 -14
-45 -7 -22 9 -28 5 -18 -11 8 -12 7 -23 -2 -23 -9 0 -18 -36 -20 -79 -4 -63 1
-77 25 -68 16 6 29 0 29 -13 0 -13 -18 -28 -40 -34 -22 -6 -40 -18 -40 -28 0
-9 13 -12 29 -6 24 9 25 0 6 -60 -20 -66 -55 -99 -55 -52 0 11 -8 20 -18 20
-28 0 -105 -209 -90 -247 19 -51 -50 -193 -94 -193 -20 0 -44 -15 -54 -33 -12
-21 -23 -25 -32 -10 -8 12 -1 42 15 67 16 25 39 80 52 121 13 41 32 75 41 75
19 0 51 79 44 106 -3 9 13 42 35 73 22 30 36 59 32 64 -5 4 -1 42 8 83 12 55
10 74 -8 74 -16 0 -22 18 -16 50 5 28 19 50 29 50 12 0 15 22 8 50 -9 36 -5
50 15 50 16 0 34 15 41 33 10 24 29 29 82 21 39 -6 70 -4 70 6 0 10 29 21 65
26 36 4 70 9 77 11 6 2 29 -17 50 -42z m148 -4 c0 -30 -75 -82 -93 -65 -8 9
71 94 87 94 3 0 6 -13 6 -29z m-1048 -40 c-17 -27 -32 -54 -32 -58 0 -17 200
-23 205 -7 3 9 28 17 55 19 28 2 61 17 74 34 20 26 25 26 25 3 1 -21 15 -16
49 16 34 32 65 42 105 36 51 -7 53 -10 16 -23 -32 -11 -40 -27 -33 -71 7 -50
1 -60 -49 -71 -101 -22 -218 -66 -182 -67 59 -3 40 -62 -25 -75 -67 -13 -84
-75 -25 -92 19 -6 53 -18 75 -26 34 -14 36 -12 15 14 -19 24 -19 38 5 69 16
21 29 58 29 83 1 25 12 45 26 45 14 0 47 7 75 14 48 13 48 12 18 -35 -44 -70
-60 -119 -37 -119 10 0 19 15 19 33 0 19 5 28 12 22 7 -7 6 -49 -2 -94 l-14
-81 -98 0 -98 0 0 -70 c0 -46 9 -70 28 -70 28 0 53 -43 51 -87 -1 -12 -11 0
-22 27 -19 48 -21 48 -47 13 -15 -20 -37 -31 -49 -24 -12 8 -21 -3 -21 -26 0
-22 11 -44 25 -49 14 -5 18 -16 8 -26 -9 -10 -24 -3 -35 16 -16 29 -25 30 -72
6 -29 -16 -62 -22 -74 -15 -11 7 8 20 44 29 48 13 64 28 64 62 -1 67 -30 102
-72 86 -31 -12 -32 -17 -7 -33 24 -15 23 -18 -6 -19 -19 0 -35 -9 -35 -20 0
-39 -54 -19 -131 47 -63 55 -85 63 -113 46 -86 -54 22 168 113 231 34 24 39
-2 7 -39 -107 -123 29 -259 149 -150 37 33 41 32 85 -19 25 -29 51 -48 58 -41
24 24 11 80 -28 115 -38 34 -57 83 -25 63 8 -5 12 29 8 76 -5 72 1 92 40 119
l46 32 -50 0 c-87 -1 -140 -23 -134 -57 3 -21 -11 -35 -40 -39 -52 -8 -52 -9
-23 74 19 53 17 70 -11 101 -32 36 -32 40 7 79 59 59 94 54 54 -7z m-96 -21
c-12 -27 -32 -50 -44 -50 -12 0 -8 -9 8 -20 30 -20 -35 -31 -128 -23 -20 2
-50 -7 -65 -19 -40 -34 -32 5 14 59 32 39 51 45 107 35 58 -11 71 -7 82 27 7
23 21 41 31 41 10 0 8 -22 -5 -50z m284 41 c0 -17 -141 -76 -154 -64 -24 24
40 73 96 73 32 0 58 -4 58 -9z m743 -86 c5 -30 -3 -77 -17 -105 -24 -47 -25
-43 -26 55 0 110 30 145 43 50z m-1536 -6 c16 -23 34 -33 41 -23 16 27 92 44
92 21 0 -18 -119 -77 -156 -77 -15 0 -64 85 -64 111 0 26 62 3 87 -32z m1462
3 c6 -9 -7 -40 -29 -68 -42 -53 -52 -84 -22 -65 10 6 14 -7 8 -29 -6 -22 -19
-46 -28 -51 -10 -6 -18 -29 -18 -50 0 -44 71 -55 86 -14 5 14 16 18 26 9 9 -9
4 -24 -11 -33 -16 -10 -28 -57 -31 -118 -4 -119 -34 -163 -113 -163 -56 0 -57
2 -45 79 l13 79 -62 -23 c-34 -13 -68 -17 -76 -9 -23 23 59 75 105 67 50 -8
88 44 88 118 0 62 -47 57 -56 -6 -5 -35 -64 -84 -64 -54 0 33 66 159 95 182
32 24 31 26 -14 22 -40 -4 -50 5 -54 50 -2 30 4 55 14 55 11 0 19 -11 19 -24
0 -14 20 -5 44 20 46 45 105 58 125 26z m490 -297 c1 -20 -7 -20 -39 0 -40 24
-53 76 -26 102 15 15 64 -61 65 -102z m-1326 25 c-6 -16 -2 -27 10 -25 28 6
41 -28 22 -58 -16 -24 -51 -33 -111 -29 -20 1 -31 10 -25 21 6 10 2 24 -9 31
-27 17 -6 49 47 70 63 26 79 23 66 -10z m-198 -296 c57 2 58 -36 3 -71 -37
-23 -48 -20 -90 19 -60 57 -62 85 -3 65 25 -8 65 -14 90 -13z m76 -125 c-32
-24 -33 -29 -6 -29 37 0 55 -56 31 -100 -9 -16 -25 -55 -35 -85 -11 -30 -29
-55 -41 -55 -11 0 -20 25 -20 55 -1 39 -6 47 -18 28 -9 -15 -13 -44 -7 -65 6
-26 -1 -38 -23 -38 -34 0 -46 89 -15 108 10 6 24 48 31 92 9 59 25 87 57 100
68 27 89 22 46 -11z m688 -231 c-11 -21 -36 -38 -55 -39 -28 -1 -26 -7 11 -32
65 -46 55 -73 -13 -38 -54 28 -58 27 -68 -10 -16 -62 -126 -54 -139 10 -12 67
11 98 63 82 59 -19 53 6 -8 29 -36 14 -50 34 -50 71 0 33 9 49 25 43 14 -5 23
-18 21 -30 -8 -35 55 -46 68 -11 7 17 31 51 54 74 l42 43 35 -77 c26 -56 29
-86 14 -115z m-539 116 c0 -14 -10 -36 -22 -48 -15 -15 -14 -33 5 -64 23 -37
22 -46 -3 -63 -23 -14 -24 -23 -6 -35 31 -19 11 -104 -25 -104 -14 0 -31 11
-37 25 -6 14 -9 -6 -6 -45 4 -65 110 -126 116 -66 0 9 5 34 10 56 21 98 27
228 12 238 -31 19 -2 132 34 132 57 0 82 -44 82 -145 0 -92 3 -97 45 -86 42
12 41 10 -5 -17 -27 -17 -39 -31 -25 -31 14 -1 25 -13 25 -29 0 -15 19 -32 41
-38 35 -9 38 -18 21 -50 -22 -41 -102 -74 -102 -42 0 10 -13 18 -28 18 -32 0
-52 -43 -52 -112 0 -49 -46 -67 -70 -28 -14 23 -130 19 -130 -4 0 -9 13 -16
28 -16 45 0 102 -182 68 -216 -24 -24 -95 -7 -99 23 -4 28 -10 81 -29 258 -10
97 -7 135 9 135 16 0 19 25 11 80 -7 44 -5 80 4 81 48 1 98 60 68 79 -21 13
-34 9 -45 -16 -8 -19 -9 2 -2 46 16 105 107 176 107 84z m-180 -260 c0 -60
-12 -95 -40 -119 -22 -19 -40 -48 -40 -65 0 -16 -13 -30 -29 -30 -19 0 -26
-12 -18 -35 9 -30 7 -30 -11 -5 -44 61 -26 130 40 155 49 18 59 31 48 64 -15
47 4 121 31 121 11 0 19 -38 19 -86z m-91 28 c6 -10 2 -43 -10 -74 -26 -69
-70 -35 -51 41 13 52 40 66 61 33z m814 -75 c21 -18 37 -45 37 -60 0 -15 10
-27 23 -27 14 0 11 -13 -8 -35 -36 -39 -35 -36 -35 -140 0 -75 -84 -114 -123
-57 -17 24 4 158 26 173 9 6 4 29 -12 50 -17 22 -30 28 -30 14 -2 -56 -61 -24
-61 34 0 48 9 60 55 67 30 4 63 9 73 11 11 2 35 -12 55 -30z m378 -126 c41
-18 34 -20 -46 -14 -89 7 -121 -9 -75 -37 31 -19 24 -76 -8 -63 -16 6 -34 -4
-41 -22 -17 -44 -50 -8 -55 61 -3 33 -17 54 -35 55 -19 0 -13 11 18 27 53 30
164 26 242 -7z m-576 -51 c11 -56 -33 -130 -76 -130 -37 0 -41 152 -4 167 51
20 71 12 80 -37z m-145 -19 c0 -16 -10 -35 -21 -42 -12 -7 -20 -59 -19 -116 5
-144 3 -157 -20 -143 -23 14 -27 216 -5 238 8 9 16 24 18 34 1 10 3 27 5 38 3
31 42 23 42 -9z m600 -91 c0 -11 14 -20 30 -20 57 0 41 -209 -19 -248 -27 -17
-54 -32 -60 -32 -21 0 -11 238 10 251 12 7 17 26 11 41 -6 15 -2 28 9 28 10 0
19 -9 19 -20z m516 -167 c5 -24 -7 -33 -45 -33 -56 0 -65 18 -27 56 31 31 64
20 72 -23z m-864 -121 c-28 -92 -28 -101 9 -148 50 -63 50 -125 -1 -189 -67
-85 -200 -82 -200 5 0 48 -57 77 -79 41 -20 -32 -101 7 -101 49 0 15 -16 38
-35 51 -27 17 -28 20 -3 12 26 -8 33 10 36 102 4 124 18 163 45 122 14 -22 23
-21 45 8 46 61 77 42 69 -43 -5 -50 0 -74 14 -69 12 5 32 -13 44 -40 21 -45
145 -127 145 -95 0 27 -48 62 -85 62 -21 0 -32 9 -25 20 7 12 21 16 30 10 9
-6 24 0 32 13 10 16 1 20 -31 12 -39 -11 -43 -6 -33 31 6 24 12 60 12 79 0 20
22 44 48 54 26 10 56 30 65 45 30 49 30 -29 -1 -132z m228 112 c0 -33 -50 -64
-104 -64 -43 0 -56 10 -56 40 0 33 13 40 80 40 44 0 80 -7 80 -16z m315 -61
c28 -15 58 -18 80 -7 19 9 94 11 165 4 72 -8 112 -15 90 -17 -86 -7 -90 -27
-36 -178 39 -111 60 -145 89 -145 47 0 69 -51 39 -88 -18 -21 -16 -30 8 -39
17 -7 28 -20 25 -30 -3 -10 13 -35 35 -55 23 -21 32 -31 21 -23 -10 8 -46 14
-80 13 -35 -2 -46 -7 -25 -12 116 -30 156 -85 49 -68 -8 1 -15 -7 -15 -18 0
-11 40 -20 89 -20 52 0 125 -18 178 -45 l89 -46 -133 0 c-73 0 -243 -7 -378
-17 l-244 -16 -116 75 c-63 42 -144 101 -179 131 -35 30 -77 62 -92 71 -16 10
-35 63 -42 121 -6 56 -21 126 -31 154 -13 34 -13 55 2 64 11 7 16 29 11 49
-13 48 39 67 67 23 15 -24 24 -27 32 -9 10 25 87 36 87 12 0 -7 -15 -23 -33
-37 -26 -19 -28 -32 -10 -62 12 -21 22 -29 23 -18 5 74 55 94 138 53 104 -50
254 -78 232 -44 -9 15 10 12 47 -7 33 -18 66 -41 73 -52 31 -50 42 -13 14 49
-17 38 -39 64 -48 59 -15 -10 -24 34 -17 87 1 14 -16 25 -38 25 -23 0 -41 -10
-41 -22 0 -12 -32 -3 -72 20 -39 24 -86 40 -104 37 -18 -3 -36 10 -39 28 -8
38 22 38 90 0z m-415 -587 c0 -258 -16 -295 -91 -204 -49 60 -69 208 -29 208
12 0 15 21 8 50 -9 38 -4 50 20 50 21 0 32 17 32 49 0 27 9 54 19 60 11 7 14
28 8 47 -9 29 -8 29 11 4 12 -17 22 -129 22 -264z m-440 -193 l0 -294 -62 -75
c-70 -85 -83 -82 -140 29 -37 74 -40 103 -28 334 16 316 6 292 127 296 l103 4
0 -294z m197 220 c95 -83 50 -550 -53 -555 -67 -4 -119 76 -63 96 39 15 44
176 9 290 -4 12 6 34 23 48 21 18 26 45 18 92 -14 75 4 83 66 29z m535 -343
c18 -60 37 -99 42 -85 5 14 -4 66 -21 115 -37 109 -10 120 34 15 21 -51 32
-62 33 -35 1 36 4 36 28 -8 15 -27 30 -38 35 -24 4 13 31 -26 59 -87 38 -82
44 -111 24 -111 -15 0 -33 14 -39 31 -7 17 -25 26 -41 20 -92 -35 -157 52
-216 289 -24 95 28 -4 62 -120z m727 -77 c13 -40 29 -86 35 -103 19 -52 -25 4
-82 103 -49 84 -50 93 -16 84 22 -6 49 -41 63 -84z m-987 22 c25 -33 27 -33
27 0 1 19 15 35 32 35 45 0 30 -108 -15 -116 -41 -8 -134 55 -135 91 -1 37 61
30 91 -10z m663 -59 c66 -74 82 -75 43 -3 -12 22 -17 45 -12 50 11 11 134
-210 134 -240 0 -11 -21 0 -47 24 -26 24 -59 39 -75 33 -17 -6 -44 14 -68 50
-39 58 -70 77 -70 44 0 -9 13 -34 29 -55 44 -58 37 -83 -8 -34 -52 55 -121
169 -121 198 0 51 130 6 195 -67z m267 -2 c33 -46 55 -93 47 -106 -10 -16 -3
-16 26 -1 42 23 85 -3 85 -50 0 -70 -144 21 -226 143 -30 43 -54 70 -54 58 0
-12 27 -59 60 -105 60 -82 74 -123 44 -123 -17 0 -159 185 -176 229 -7 18 6
31 35 35 81 13 96 6 159 -80z m125 4 c19 -40 31 -77 27 -81 -10 -9 -61 66 -80
118 -24 65 18 35 53 -37z m-893 -48 c6 -22 32 -46 58 -52 27 -7 48 -20 48 -30
0 -10 11 -18 23 -18 13 0 40 -15 60 -33 22 -20 37 -24 37 -10 0 13 -9 23 -20
23 -11 0 -20 8 -20 18 0 31 168 -34 200 -77 6 -8 42 -31 80 -53 39 -21 77 -47
85 -58 10 -13 21 -10 33 7 12 20 40 24 98 14 49 -9 98 -5 124 9 74 40 93 10
30 -49 -119 -111 -338 -185 -362 -122 -10 26 -88 69 -248 136 -136 57 -186 89
-211 138 -15 28 -41 57 -58 64 -31 12 -43 94 -18 120 25 24 51 13 61 -27z
m-1475 -152 c48 -45 1 -73 -77 -46 -89 31 -110 4 -141 -177 -25 -145 -42 -164
-113 -120 -29 18 -12 196 23 235 18 21 21 41 8 60 -36 57 -22 84 36 72 30 -7
68 -4 84 7 36 23 141 5 180 -31z m129 -145 c6 -9 -2 -34 -18 -55 -16 -21 -29
-63 -29 -94 -1 -64 -49 -91 -103 -57 -20 12 -49 18 -64 12 -28 -11 -54 64 -54
154 0 49 33 48 46 -3 6 -22 21 -40 33 -40 13 0 17 10 10 21 -7 12 6 27 29 33
23 6 42 19 42 28 0 23 94 24 108 1z m2098 -171 c22 -57 -37 -100 -139 -101
-126 -1 -135 31 -20 69 49 17 97 37 105 45 22 23 43 18 54 -13z m-2463 -91
c99 -31 166 -39 265 -32 73 5 132 2 132 -8 0 -22 -58 -44 -80 -31 -10 6 -23 2
-30 -10 -7 -11 -3 -20 9 -20 11 0 21 -10 21 -23 0 -65 -441 30 -481 104 -26
50 -24 84 6 72 14 -6 85 -29 158 -52z m3117 -26 c0 -135 -195 -447 -216 -346
-9 40 -22 39 -94 -9 -33 -22 -73 -40 -88 -40 -15 0 10 26 57 57 107 72 208
198 253 314 40 106 88 119 88 24z m-3069 -176 c7 -12 25 -17 41 -11 40 15 75
-58 40 -86 -49 -41 -131 11 -132 83 0 39 30 47 51 14z m-25 -161 c77 -23 171
-38 208 -34 59 7 67 3 62 -33 -15 -104 -390 -48 -425 64 -17 55 -18 55 155 3z
m3368 -92 c27 -11 56 -83 40 -99 -6 -6 -33 5 -61 23 -48 31 -50 31 -39 -9 15
-57 -17 -51 -80 15 -93 97 -69 159 44 111 39 -17 83 -35 96 -41z m-3506 -78
c6 -15 0 -28 -12 -28 -13 0 -39 -15 -60 -33 -49 -45 -67 -22 -28 38 18 26 27
54 20 60 -7 7 6 8 29 2 22 -6 45 -24 51 -39z m85 -77 c-6 -17 -21 -31 -32 -31
-23 0 -29 66 -7 87 22 22 52 -21 39 -56z m172 44 c75 -42 114 -149 45 -122
-16 6 -30 26 -31 44 0 28 -4 28 -29 -5 -31 -41 -28 -43 -59 56 -16 53 11 62
74 27z m194 -31 c23 -24 20 -26 -18 -14 -40 13 -42 10 -21 -29 12 -24 19 -58
15 -77 -6 -29 -95 106 -95 145 0 22 94 2 119 -25z m2914 -34 c16 -16 47 -30
68 -30 22 0 39 -8 39 -19 0 -10 18 -24 40 -31 55 -17 51 -50 -5 -38 -25 6
-102 16 -172 24 l-127 14 51 55 c59 64 66 65 106 25z m-3213 -52 c0 -13 38
-57 85 -99 58 -53 74 -78 51 -78 -18 -1 -53 26 -76 59 -24 33 -51 56 -60 50
-37 -23 -220 36 -197 63 27 33 197 37 197 5z m-56 -145 c10 -19 26 -29 34 -24
14 8 16 -27 5 -95 -5 -29 -165 -175 -182 -165 -9 6 -45 1 -79 -11 -35 -12 -86
-16 -115 -9 -61 15 -56 25 18 38 122 23 129 52 12 52 -73 1 -117 10 -122 26
-13 36 -95 -41 -95 -88 0 -41 -3 -42 -50 -24 -29 11 -25 20 23 61 31 27 53 55
47 63 -5 7 29 15 77 17 47 2 97 13 111 24 13 11 46 16 73 10 45 -10 46 -9 14
18 -46 37 -44 47 13 100 58 54 187 58 216 7z m3366 14 c38 -28 38 -31 5 -55
-19 -15 -35 -45 -35 -67 0 -33 -17 -43 -90 -54 -132 -20 -108 -71 32 -71 50 0
61 10 71 60 10 48 18 56 39 38 15 -12 23 -31 17 -40 -6 -10 -2 -18 10 -18 45
0 18 -37 -42 -58 -214 -75 -302 -15 -243 164 19 57 33 110 31 117 -8 27 166
13 205 -16z m-3250 -108 c0 -33 -9 -59 -20 -59 -11 0 -18 31 -15 68 6 82 35
74 35 -9z m1629 -337 c-32 -30 -189 -37 -189 -8 0 18 33 26 104 26 62 0 96 -7
85 -18z"/>
<path d="M2355 3886 c-20 -5 -35 -28 -35 -52 1 -33 5 -37 18 -17 14 23 19 23
27 0 12 -33 26 -21 44 38 14 45 10 48 -54 31z"/>
<path d="M2193 3709 c14 -35 70 -31 82 6 5 16 -11 25 -43 25 -38 0 -48 -8 -39
-31z"/>
<path d="M2391 3102 c-34 -14 -31 -18 25 -38 58 -20 64 -18 64 17 0 41 -24 46
-89 21z"/>
<path d="M2543 3078 c4 -26 28 -57 54 -70 l46 -23 -46 -33 -46 -32 50 0 c35 0
62 19 87 61 42 72 40 76 -43 83 -34 2 -61 13 -59 23 2 10 -8 22 -23 28 -18 6
-24 -5 -20 -37z"/>
<path d="M2983 2991 c4 -46 -4 -79 -21 -90 -38 -23 -9 -61 48 -61 26 0 53 -9
60 -20 16 -26 110 -26 110 1 0 11 -19 27 -43 36 -41 16 -40 19 30 75 40 32 73
65 73 73 0 25 -41 17 -73 -15 -39 -39 -67 -38 -67 3 0 19 -6 28 -13 20 -8 -7
-36 1 -62 18 -48 32 -48 32 -42 -40z"/>
<path d="M3420 2885 c0 -23 8 -45 19 -48 46 -17 27 -63 -29 -71 -102 -15 -84
-29 30 -22 95 5 116 -1 155 -42 25 -27 51 -43 57 -36 16 15 -91 154 -119 154
-12 0 -42 24 -67 53 -43 49 -46 50 -46 12z"/>
<path d="M3240 2858 c0 -36 8 -39 65 -27 68 14 87 24 73 36 -40 35 -138 28
-138 -9z"/>
<path d="M2290 2679 c-26 -41 -36 -239 -13 -239 13 0 24 11 25 25 1 14 6 72
11 130 9 103 2 126 -23 84z"/>
<path d="M3191 2081 c-8 -12 5 -21 29 -21 23 0 69 -14 101 -31 51 -26 59 -26
59 -1 0 50 -163 96 -189 53z"/>
<path d="M1550 5940 c7 -11 1 -20 -14 -20 -19 -1 -19 -5 3 -19 16 -10 36 -14
45 -8 9 5 16 0 16 -12 0 -11 14 -21 30 -21 32 0 37 18 18 69 -11 26 -18 28
-44 7 -25 -20 -28 -20 -17 -1 10 16 4 25 -17 25 -18 0 -27 -9 -20 -20z"/>
<path d="M1311 5896 c-45 -65 -42 -103 7 -73 20 13 37 45 37 70 0 58 -5 58
-44 3z"/>
<path d="M2515 5236 c33 -33 50 -39 67 -22 33 33 4 66 -58 66 l-53 0 44 -44z"/>
<path d="M1620 4565 c-16 -6 -39 -24 -51 -39 -11 -16 -38 -31 -60 -34 -52 -8
-50 -60 2 -68 48 -7 149 66 149 107 0 43 55 35 80 -11 12 -22 31 -40 42 -40
11 0 4 22 -16 49 -35 48 -84 60 -146 36z"/>
<path d="M2949 3971 c-22 -53 -38 -67 -64 -57 -28 9 -30 7 -11 -14 36 -39 126
26 126 90 0 69 -17 62 -51 -19z"/>
<path d="M1664 2476 c-36 -22 -62 -44 -58 -48 14 -15 162 45 170 69 11 34 -37
25 -112 -21z"/>
<path d="M1770 2347 c-97 -34 -134 -66 -79 -68 21 -1 63 -5 92 -9 43 -6 56 3
66 44 17 66 15 66 -79 33z"/>
<path d="M3847 1569 c-18 -47 21 -77 52 -41 25 31 14 72 -21 72 -11 0 -25 -14
-31 -31z"/>
<path d="M652 425 c17 -70 7 -63 109 -74 49 -5 76 -3 59 5 -40 19 -50 85 -17
107 17 10 -9 17 -68 17 -94 0 -96 -1 -83 -55z"/>
<path d="M1407 370 c0 -38 88 -63 117 -34 31 31 0 64 -62 64 -36 0 -55 -10
-55 -30z"/>
<path d="M1733 387 c-31 -31 -8 -47 69 -47 71 0 79 4 58 30 -25 31 -103 41
-127 17z"/>
<path d="M1934 375 c-30 -18 289 -15 476 5 110 12 76 14 -156 12 -163 -1 -307
-9 -320 -17z"/>
</g>
</svg>
