<?xml version="1.0" standalone="no"?>
<!DOCTYPE svg PUBLIC "-//W3C//DTD SVG 20010904//EN"
 "http://www.w3.org/TR/2001/REC-SVG-20010904/DTD/svg10.dtd">
<svg version="1.0" xmlns="http://www.w3.org/2000/svg"
 width="300.000000pt" height="252.000000pt" viewBox="0 0 300.000000 252.000000"
 preserveAspectRatio="xMidYMid meet">
<metadata>
Created by potrace 1.10, written by Peter Selinger 2001-2011
</metadata>
<g transform="translate(0.000000,252.000000) scale(0.050000,-0.050000)"
fill="#000000" stroke="none">
<path d="M5660 4688 c-59 -45 -106 -66 -136 -61 -55 9 -352 -72 -396 -108 -25
-22 -34 -22 -47 -1 -12 20 -56 -1 -174 -82 -94 -65 -172 -106 -194 -101 -21 5
-47 -1 -59 -13 -32 -32 -95 -27 -138 11 -34 31 -39 31 -82 -9 -25 -24 -63 -46
-85 -50 -71 -12 -224 -92 -236 -123 -6 -17 -24 -31 -39 -31 -15 0 -48 -22 -74
-50 -26 -27 -61 -50 -78 -50 -34 0 -127 -135 -153 -220 -8 -27 -31 -81 -52
-120 -20 -38 -37 -77 -37 -87 0 -9 -20 -45 -43 -80 l-44 -63 64 59 c34 32 63
75 63 95 0 20 9 36 20 36 11 0 20 9 20 20 0 67 130 302 173 313 26 6 65 33 85
59 24 30 50 44 70 36 22 -8 38 4 51 40 11 29 30 52 42 52 13 0 49 19 81 41 32
23 58 32 58 19 0 -12 40 6 90 40 l90 62 24 -52 c19 -42 27 -46 40 -22 9 16 59
36 111 44 55 8 141 43 205 84 117 75 399 184 476 184 26 0 65 10 88 22 105 56
187 -88 87 -153 -27 -18 -54 -48 -60 -67 -6 -19 -43 -46 -82 -60 -56 -20 -68
-33 -58 -64 8 -26 2 -38 -20 -38 -17 0 -29 -11 -26 -24 3 -13 -11 -27 -30 -31
-24 -6 -35 4 -35 31 0 22 -13 45 -30 51 -37 14 -38 41 -5 77 16 16 21 53 14
96 -10 63 -12 65 -26 25 -9 -25 -23 -45 -33 -45 -10 0 -23 -16 -29 -36 -6 -20
-50 -58 -96 -84 -160 -88 -169 -98 -77 -86 90 12 98 5 51 -43 -44 -43 -142
-39 -211 10 -59 42 -109 36 -91 -11 6 -15 -2 -31 -17 -37 -15 -6 -31 0 -36 13
-7 18 -15 18 -35 -1 -32 -30 -67 -33 -49 -5 7 11 -1 14 -19 8 -17 -7 -31 -20
-31 -30 0 -10 -21 -18 -47 -18 -64 0 -79 -21 -38 -52 31 -23 30 -25 -15 -17
-27 5 -39 4 -25 -2 16 -8 3 -32 -40 -71 -35 -32 -52 -58 -37 -58 21 0 22 -6 3
-29 -13 -16 -37 -24 -52 -18 -16 6 -29 2 -29 -10 0 -12 -18 -31 -40 -43 -33
-18 -37 -16 -26 13 9 23 5 29 -11 19 -14 -9 -19 -32 -13 -53 7 -20 -4 -62 -24
-93 -41 -65 -16 -50 104 59 33 30 71 55 85 55 14 0 25 14 25 30 0 52 35 33 46
-25 12 -63 -11 -84 -93 -85 -35 0 -53 -9 -48 -24 10 -30 -42 -94 -95 -118 -27
-12 -8 -13 55 -5 64 8 95 4 95 -11 0 -12 -22 -22 -50 -22 -55 0 -63 -19 -26
-56 13 -13 20 -25 15 -26 -5 0 -24 -4 -43 -8 -19 -3 -33 3 -30 14 12 58 -44
27 -78 -43 -45 -94 -95 -103 -299 -50 -206 53 -575 250 -557 297 16 41 -113
55 -156 17 -28 -24 -47 -25 -98 -7 -79 27 -118 28 -118 2 0 -11 41 -30 92 -43
l92 -23 -66 -28 c-116 -48 -189 -29 -183 50 4 47 -4 69 -30 78 -19 7 -97 57
-173 110 -115 80 -143 92 -168 71 -24 -20 -32 -20 -39 0 -6 18 -19 19 -45 5
-85 -45 -129 29 -69 115 28 40 28 43 0 33 -17 -7 -31 -4 -31 6 0 10 -14 36
-30 57 -28 36 -29 30 -18 -66 15 -120 15 -120 -82 -63 -39 24 -77 38 -83 32
-15 -16 114 -94 155 -94 37 0 61 -46 115 -221 75 -240 120 -299 136 -178 1 10
3 27 4 36 3 15 38 17 109 6 9 -2 11 -20 5 -41 -7 -21 -3 -45 9 -52 15 -10 14
-23 -4 -45 -23 -28 -20 -30 24 -19 28 8 57 14 66 14 9 0 11 17 5 38 -7 21 -3
44 8 51 13 8 21 -7 21 -38 0 -60 16 -62 158 -20 58 18 110 27 116 22 5 -6 43
7 83 27 129 67 164 66 281 -5 59 -36 126 -75 148 -88 22 -13 124 -110 228
-216 202 -208 216 -245 110 -296 -30 -14 -63 -45 -74 -70 -11 -25 -31 -45 -45
-45 -32 0 -32 25 -1 56 19 19 17 24 -7 24 -17 0 -41 -23 -54 -51 -13 -28 -31
-46 -41 -40 -23 14 -82 -7 -82 -29 0 -9 16 -12 35 -8 19 5 62 0 95 -10 53 -16
47 -19 -55 -20 -63 -1 -115 -11 -115 -22 0 -11 10 -20 21 -20 12 0 16 -9 8
-21 -8 -14 -21 -14 -41 2 -33 28 -38 -3 -6 -35 16 -16 2 -28 -50 -45 -70 -24
-138 -151 -95 -180 49 -33 41 -82 -12 -77 -42 5 -54 -2 -50 -27 5 -26 -9 -32
-60 -30 -54 3 -64 -3 -59 -37 28 -183 27 -227 -4 -275 -19 -28 -31 -59 -28
-69 13 -40 -112 -205 -170 -225 l-59 -21 12 75 c7 41 13 96 13 122 0 33 9 44
29 36 17 -6 33 3 39 23 15 55 33 216 20 189 -15 -34 -68 -32 -68 3 0 31 54 58
82 41 10 -6 18 1 18 15 0 32 75 115 170 187 43 33 70 71 70 98 0 24 27 79 59
122 41 54 60 102 60 153 1 41 15 104 32 140 38 83 0 248 -57 243 -19 -1 -34
10 -34 25 0 15 9 28 20 28 11 0 20 14 20 30 0 17 17 30 39 30 21 0 45 10 52
22 10 15 0 18 -28 9 -36 -11 -43 -6 -43 36 0 65 -104 153 -182 153 -46 0 -92
-30 -198 -130 -76 -71 -148 -130 -159 -130 -12 0 -21 -31 -21 -70 0 -42 -10
-71 -25 -72 -110 -6 -151 -12 -189 -25 -41 -14 -43 -11 -25 50 28 99 68 131
109 90 43 -43 77 -22 62 38 -7 26 -3 52 8 59 30 19 24 50 -10 50 -16 0 -30
-11 -31 -25 0 -14 -9 -9 -21 10 -11 20 -15 54 -8 75 11 35 3 40 -58 40 -68 0
-72 -4 -95 -94 l-24 -94 -26 76 c-15 42 -21 97 -15 122 7 30 1 49 -21 57 -17
6 -31 3 -31 -8 0 -25 -101 -24 -140 1 -16 11 -21 20 -10 21 11 1 0 10 -25 20
-74 29 -53 96 25 80 11 -3 13 2 5 10 -8 8 -46 16 -85 17 -74 2 -95 -35 -46
-84 35 -35 8 -49 -47 -24 -45 21 -47 30 -40 172 4 82 -3 192 -16 244 -57 233
-63 246 -112 264 -40 16 -49 33 -49 95 -1 173 -78 219 -113 66 -13 -56 -28
-124 -35 -151 -10 -39 -6 -46 19 -37 18 7 42 -3 57 -24 14 -19 36 -29 48 -22
36 23 104 -242 104 -402 0 -140 0 -141 -71 -183 -46 -27 -85 -74 -111 -132
-22 -49 -43 -90 -46 -90 -3 0 -34 14 -68 31 -89 44 -214 32 -214 -21 0 -35 15
-41 120 -46 120 -6 190 -42 190 -97 0 -42 -56 -32 -81 14 -32 61 -107 44 -115
-26 -8 -68 -31 -69 -97 -4 -72 72 -81 46 -24 -66 90 -173 285 -174 328 -2 48
190 149 276 149 127 0 -49 9 -91 20 -93 65 -10 69 -3 74 113 2 66 14 123 25
126 12 4 21 21 21 37 0 16 -9 24 -20 17 -11 -7 -20 2 -20 19 0 38 27 39 125 4
57 -20 69 -31 51 -49 -19 -19 -14 -24 18 -24 48 0 95 -49 77 -79 -8 -12 1 -21
18 -21 17 0 31 -13 31 -28 0 -15 14 -33 30 -39 50 -19 15 101 -49 167 -25 26
-22 31 27 37 70 8 70 8 91 -109 10 -54 33 -138 51 -188 27 -72 31 -119 18
-230 -31 -273 -14 -767 29 -843 23 -42 172 183 152 230 -35 82 -27 221 20 336
66 164 91 328 42 288 -29 -24 -37 -24 -51 0 -26 41 -44 12 -44 -68 0 -39 -22
-127 -48 -197 l-49 -126 13 110 c7 61 25 146 40 190 34 100 35 111 1 98 -30
-11 -61 44 -42 74 17 27 101 22 180 -11 38 -16 69 -20 69 -10 0 10 29 32 65
48 59 27 60 28 10 18 -71 -15 -83 81 -13 104 23 7 94 66 157 130 165 167 260
180 261 36 0 -43 -20 -66 -100 -115 -106 -66 -106 -64 -67 -207 7 -24 -6 -41
-42 -54 -43 -17 -51 -32 -51 -102 0 -66 -12 -94 -60 -139 -33 -31 -60 -74 -60
-97 0 -75 -40 -155 -61 -122 -17 27 -28 13 -21 -27 5 -27 -64 -132 -80 -123
-22 14 -43 -27 -27 -52 8 -14 21 -14 41 2 15 13 45 19 67 13 42 -10 101 57
101 115 0 20 18 31 50 31 86 0 67 -83 -29 -123 -66 -28 -76 -40 -67 -77 8 -30
1 -51 -21 -64 -18 -10 -33 -30 -33 -44 0 -14 -38 -41 -85 -60 -47 -19 -130
-57 -184 -83 -54 -27 -88 -38 -75 -25 35 35 29 62 -9 47 -19 -7 -41 -1 -50 13
-27 42 -19 63 13 36 19 -16 30 -17 30 -4 0 35 -40 49 -68 25 -49 -40 -177 19
-214 98 -31 65 -34 66 -47 25 -8 -25 -22 -40 -31 -34 -39 24 -41 -36 -3 -77
26 -27 49 -93 63 -180 12 -76 33 -149 48 -164 40 -40 26 -121 -28 -165 -42
-34 -45 -44 -22 -72 33 -39 65 -42 50 -5 -5 15 4 38 20 51 26 22 35 9 63 -87
l32 -113 -54 -51 c-44 -40 -71 -49 -132 -43 -99 9 -113 -90 -25 -178 l52 -52
-39 -52 c-93 -124 -195 -2 -113 136 43 74 26 141 -60 238 -37 40 -90 108 -119
150 l-51 77 122 149 c106 128 119 154 102 193 -20 44 -20 44 -53 -19 -18 -36
-68 -97 -110 -136 -42 -39 -94 -107 -115 -150 -46 -97 -115 -109 -153 -28 -19
43 -17 63 10 111 82 141 139 455 116 631 -12 90 -16 189 -8 220 20 80 104 265
149 328 54 76 49 118 -13 118 -28 0 -46 -9 -39 -19 6 -11 -11 -26 -39 -33 -28
-7 -46 -20 -40 -30 6 -10 1 -18 -12 -18 -18 0 -18 -7 -1 -28 23 -28 -67 -69
-94 -43 -6 6 7 11 28 12 23 1 9 13 -37 32 -41 17 -75 39 -75 49 0 9 -27 31
-60 48 -101 52 -294 250 -245 250 39 0 37 5 -17 58 -32 33 -58 73 -58 90 0 18
-10 32 -22 32 -51 0 -120 75 -83 89 30 12 28 18 -20 47 -30 18 -55 44 -55 57
0 13 -27 51 -60 84 -33 33 -60 66 -60 73 0 20 -86 89 -112 89 -12 1 -33 24
-48 51 -15 28 -37 50 -50 50 -13 0 -44 22 -69 49 -25 26 -57 44 -71 38 -33
-13 -90 68 -90 128 0 40 6 43 39 26 56 -30 65 -26 41 19 -31 58 -1 49 71 -21
34 -33 86 -65 115 -70 108 -20 154 -46 140 -81 -10 -28 -4 -32 38 -21 35 8 60
2 77 -19 14 -17 51 -44 82 -60 31 -16 62 -51 69 -78 13 -54 38 -65 55 -25 13
30 73 -37 73 -81 0 -26 72 -142 102 -164 7 -5 31 -41 52 -79 79 -142 126 -75
126 181 0 94 8 156 19 149 10 -6 24 -3 30 7 6 11 3 25 -9 32 -36 22 -24 94 15
86 24 -5 34 -24 31 -63 -4 -53 -3 -54 30 -15 27 30 44 35 80 21 l47 -19 -47
-65 c-25 -36 -46 -69 -47 -75 0 -5 -13 -32 -29 -60 -39 -69 -44 -160 -8 -146
16 6 29 21 30 33 2 13 5 32 7 43 3 11 6 35 8 53 3 34 109 87 164 82 107 -10
74 163 -36 186 -197 42 -261 87 -273 191 -4 37 -9 74 -10 81 -1 7 -19 17 -40
22 -21 6 -49 30 -62 54 -29 56 37 26 124 -54 51 -48 156 -29 156 28 0 6 -20
-2 -45 -18 -43 -28 -51 -25 -119 33 -86 75 -171 123 -187 107 -16 -15 64 -170
124 -242 56 -67 60 -131 10 -195 -52 -68 -63 -130 -32 -172 17 -22 28 -87 28
-166 l-1 -130 -80 90 c-44 50 -104 142 -133 205 -35 76 -65 115 -88 115 -19 0
-57 20 -84 45 -81 75 -238 185 -271 189 -109 15 -162 41 -246 119 -109 100
-124 106 -111 38 13 -70 -54 -32 -109 61 -43 72 -87 74 -64 1 21 -68 127 -285
251 -513 96 -178 114 -226 114 -315 0 -59 18 -142 40 -192 21 -48 45 -136 52
-196 23 -172 51 -258 108 -331 50 -65 207 -186 240 -186 80 0 227 -68 244
-113 11 -28 37 -55 59 -61 21 -6 44 -27 50 -47 7 -20 42 -47 79 -59 37 -12 79
-35 92 -51 13 -16 40 -29 59 -29 51 0 61 -44 30 -133 -14 -42 -33 -129 -40
-193 -9 -69 -34 -144 -62 -186 -69 -101 -63 -173 20 -242 74 -60 212 -232 212
-262 0 -10 23 -52 51 -93 48 -72 88 -165 131 -306 60 -196 265 -41 234 176 -8
50 -1 62 38 72 60 15 86 64 86 160 l0 76 53 -77 c95 -140 95 -175 8 -592 -8
-38 -34 -108 -58 -154 -67 -132 -61 -146 69 -146 l112 0 -9 85 c-5 51 3 108
20 142 15 32 23 78 17 103 -12 45 -3 102 56 378 26 121 26 145 1 194 -39 76
-36 130 12 230 94 195 257 136 330 -119 47 -166 47 -881 1 -1038 l-16 -55 122
0 123 0 -13 55 c-8 30 -19 69 -27 85 -35 80 7 653 58 786 11 31 30 136 41 234
11 98 29 199 39 224 10 25 24 80 31 121 9 57 21 75 52 75 21 0 44 13 51 30 7
19 38 30 82 30 l70 0 -11 81 c-8 60 -3 84 18 90 15 5 44 15 63 22 19 7 56 11
81 8 25 -2 59 7 75 20 16 13 42 18 59 12 17 -7 48 5 70 27 25 25 43 31 52 17
26 -42 268 7 268 55 0 18 22 28 60 28 33 0 60 9 60 19 0 18 79 60 167 89 20 7
41 29 47 50 5 20 31 47 58 59 39 18 46 33 37 72 -12 44 -4 50 74 70 48 11 115
30 148 41 34 11 81 20 105 20 23 0 59 17 78 37 20 20 65 54 101 74 42 24 65
53 65 81 0 24 14 49 30 55 35 13 40 84 9 104 -14 8 -17 43 -9 92 9 51 5 89
-11 108 -20 24 -18 37 10 68 19 21 31 54 27 75 -3 20 14 54 40 76 25 22 48 54
51 70 2 17 11 42 20 56 9 15 11 49 4 76 -9 37 1 67 38 111 28 33 51 68 51 78
0 10 38 37 85 61 228 114 433 372 262 329 -54 -14 -42 35 22 88 31 26 43 101
16 101 -8 0 -55 -14 -103 -31 -120 -42 -132 -18 -51 110 90 143 93 186 8 140
-51 -27 -48 -6 12 91 93 152 65 183 -71 78z m-87 -377 c-6 -15 3 -40 20 -54
28 -22 24 -28 -26 -41 -36 -10 -60 -7 -64 7 -5 14 -13 13 -23 -4 -10 -15 -31
-19 -53 -10 -35 13 -34 16 9 51 26 21 60 33 78 26 21 -8 28 -5 19 9 -7 12 -2
26 12 32 39 15 40 15 28 -16z m93 -163 c-6 -18 -25 -25 -48 -17 -21 6 -38 2
-38 -10 0 -11 10 -21 21 -21 12 0 16 -9 10 -19 -7 -11 -23 -15 -37 -10 -14 6
-35 -16 -48 -51 -21 -56 -66 -84 -66 -40 0 11 -18 2 -40 -20 -23 -23 -54 -34
-75 -28 -27 9 -29 7 -7 -8 15 -11 21 -30 13 -42 -8 -14 6 -22 41 -22 53 0 53
-1 18 -40 -20 -22 -62 -40 -92 -40 -43 0 -54 -8 -45 -31 13 -33 -28 -30 -161
13 -32 10 -62 14 -67 10 -8 -9 80 -62 90 -55 12 8 120 -56 144 -86 24 -29 21
-30 -26 -12 -64 24 -66 15 -11 -62 23 -33 37 -65 31 -71 -7 -6 -18 3 -25 22
-10 26 -19 28 -40 10 -21 -17 -28 -17 -28 2 0 13 -13 19 -28 13 -24 -9 -252
133 -252 156 0 31 29 71 52 71 15 0 28 9 28 20 0 11 14 20 30 20 17 0 30 9 30
20 0 11 20 21 45 22 25 0 33 6 19 12 -29 11 4 66 40 66 10 0 31 13 47 28 32
32 -13 63 -58 41 -13 -7 -1 7 25 30 27 24 61 38 76 32 21 -8 22 -2 6 30 -24
44 -91 24 -113 -32 -14 -37 -67 -38 -67 -1 0 51 64 80 185 85 67 2 126 12 133
22 7 9 61 19 120 21 59 2 112 7 117 12 20 20 62 -13 51 -40z m-926 -169 c0
-24 -118 -34 -128 -10 -5 11 -10 6 -10 -13 -1 -19 -14 -41 -29 -50 -36 -22
-62 -152 -28 -141 14 5 25 33 24 61 0 51 2 52 45 23 41 -27 46 -27 46 1 0 36
42 39 80 5 22 -20 22 -17 -1 13 -24 32 -25 40 -1 48 15 5 45 27 66 48 30 30
59 38 113 31 51 -6 80 1 97 23 22 29 25 29 25 -3 1 -20 16 -35 35 -35 49 0
-39 -61 -99 -69 -89 -12 -116 -32 -95 -72 31 -57 24 -63 -31 -27 -50 33 -50
33 -30 -19 12 -33 13 -56 0 -63 -10 -7 -19 -5 -19 4 0 9 -27 31 -60 50 -69 39
-77 17 -23 -61 58 -83 63 -135 20 -182 -32 -34 -33 -41 -8 -41 20 0 31 -18 31
-51 0 -30 -9 -46 -20 -39 -12 7 -15 22 -8 34 7 11 4 26 -7 33 -12 7 -62 66
-113 131 -51 66 -92 110 -92 98 0 -12 13 -32 29 -45 16 -14 58 -87 93 -163 35
-76 77 -148 92 -161 20 -17 21 -27 5 -38 -31 -19 -121 25 -110 54 10 27 -43
53 -72 35 -11 -7 -32 5 -48 25 -32 43 -35 26 -11 -78 17 -72 9 -86 -43 -77
-33 5 -11 -31 69 -112 59 -60 74 -86 51 -86 -56 0 -132 44 -122 70 6 16 -9 25
-42 25 -41 0 -50 -8 -41 -36 7 -23 -2 -44 -24 -57 -34 -19 -34 -22 4 -49 106
-78 119 -91 106 -104 -8 -8 -48 0 -90 17 -42 18 -64 32 -50 33 15 1 21 10 15
20 -7 11 -27 14 -45 7 -33 -13 -3 -47 106 -122 34 -23 30 -24 -32 -15 -38 7
-82 27 -96 46 -14 19 -32 35 -40 35 -8 0 -11 9 -7 20 24 63 25 90 5 90 -12 0
-22 -14 -22 -30 0 -60 -100 -77 -153 -27 -41 39 -44 47 -17 62 17 10 26 26 19
36 -6 11 0 19 15 20 16 0 11 13 -14 32 -40 32 -40 32 0 17 96 -37 139 -30 60
9 -86 43 -140 53 -121 22 7 -10 -15 -18 -48 -17 -33 1 -55 9 -50 17 5 8 -15
21 -45 28 -42 11 -48 18 -25 32 24 15 23 18 -5 19 -18 0 -39 9 -46 21 -17 27
50 11 295 -70 166 -55 194 -60 185 -31 -7 22 5 41 35 55 41 20 39 21 -22 15
-98 -11 -174 20 -98 40 30 8 69 9 86 2 38 -14 140 75 120 106 -7 12 -33 22
-56 22 -31 0 -37 6 -21 22 15 15 33 16 58 2 31 -18 46 -4 102 98 l66 118 -40
100 c-41 105 -26 200 32 200 14 0 33 13 42 29 40 71 186 64 186 -10z m-2204
-243 c13 -13 24 -44 24 -68 0 -24 14 -54 30 -68 17 -14 30 -33 30 -42 0 -32
-53 -19 -89 21 -33 36 -39 37 -103 6 -37 -18 -74 -25 -83 -16 -8 9 -3 21 11
26 14 5 48 44 75 87 53 84 68 91 105 54z m-1836 -138 c0 -45 52 -143 105 -201
29 -31 43 -67 39 -102 -8 -69 -59 -72 -76 -5 -21 85 -54 57 -43 -38 13 -116
155 -301 155 -202 0 17 10 30 21 30 12 0 15 -10 7 -23 -8 -13 -12 -71 -10
-130 4 -150 -31 -137 -117 43 -55 115 -55 113 -77 222 -10 44 -25 93 -34 108
-11 18 -9 21 8 11 28 -17 23 39 -17 187 -26 97 -12 212 20 161 10 -16 19 -43
19 -61z m4293 -9 c88 -67 223 -240 203 -260 -5 -5 -36 13 -68 41 -32 27 -73
50 -92 50 -18 0 -51 23 -72 50 -22 28 -52 50 -66 50 -15 0 29 -56 98 -126 123
-124 163 -197 87 -155 -21 11 -43 14 -50 7 -7 -7 -13 1 -13 19 0 17 -14 36
-32 43 -43 16 -63 15 -38 -3 53 -39 191 -226 180 -245 -7 -11 -3 -20 9 -20 11
0 21 -8 21 -19 0 -62 -228 157 -316 304 -18 30 -38 55 -44 55 -28 0 -1 199 33
238 47 55 51 54 160 -29z m-3119 -250 c-34 -98 -51 -119 -84 -106 -34 13 -13
67 56 142 52 57 58 50 28 -36z m3028 -124 c137 -166 157 -203 130 -239 -47
-64 -292 -12 -292 61 0 12 -8 26 -17 31 -10 6 -18 -11 -18 -38 0 -27 7 -45 15
-40 8 5 35 -13 61 -41 25 -27 57 -49 69 -49 13 0 41 -19 62 -43 38 -43 38 -43
-7 -19 -38 20 -45 18 -45 -9 0 -27 -11 -26 -72 12 l-73 45 26 -48 c14 -26 35
-54 46 -62 12 -8 17 -19 10 -25 -6 -6 -35 7 -64 30 -64 51 -72 31 -8 -21 78
-64 16 -96 -77 -41 -44 25 -65 31 -51 14 28 -34 -37 -68 -79 -42 -15 10 -18
-1 -9 -33 8 -27 6 -38 -3 -25 -9 13 -43 29 -76 36 -33 6 -49 6 -35 -1 14 -6
25 -25 25 -42 0 -17 27 -64 59 -105 61 -77 61 -125 0 -70 -94 85 -178 43 -94
-47 l45 -49 -50 16 c-27 10 -72 16 -100 15 -27 -1 -63 8 -79 21 -23 19 -26 17
-16 -11 7 -18 3 -37 -9 -41 -14 -4 -10 -29 11 -70 l33 -63 -68 28 c-63 27 -68
26 -78 -11 -8 -32 -22 -36 -72 -26 -53 10 -62 6 -62 -29 0 -40 -3 -41 -70 -13
-62 26 -70 26 -70 -1 0 -34 -31 -40 -50 -10 -21 34 -65 22 -76 -21 -10 -39
-14 -40 -59 -10 -54 35 -75 25 -76 -37 0 -39 -4 -38 -50 14 -27 32 -49 44 -49
29 0 -15 -14 -45 -32 -66 -26 -32 -29 -33 -21 -5 6 19 3 40 -8 47 -25 15 -24
-44 2 -93 22 -41 9 -118 -21 -118 -19 0 -15 52 6 72 20 21 -106 107 -138 94
-38 -14 -35 18 7 93 24 42 46 59 70 54 19 -5 35 -1 35 9 0 10 14 18 30 18 17
0 30 -9 30 -20 0 -11 11 -20 23 -20 13 0 18 6 10 13 -7 8 1 36 18 62 18 27 27
61 21 77 -6 16 1 28 16 28 40 0 57 -59 21 -73 -23 -9 -25 -18 -7 -39 28 -35
58 -18 58 33 0 56 45 48 85 -16 l34 -55 0 65 c1 36 -8 65 -19 65 -11 0 -20 9
-20 20 0 33 34 23 96 -30 69 -58 113 -15 53 51 -25 27 -26 38 -6 51 14 8 28 5
32 -8 5 -13 24 -43 44 -68 l36 -44 24 46 c21 40 19 50 -18 75 -44 31 -39 67
10 67 15 0 34 -22 41 -50 12 -48 68 -72 68 -29 0 12 27 30 60 42 33 12 60 27
60 35 0 8 32 52 70 97 87 101 87 117 1 134 -53 9 -66 20 -57 45 9 24 5 28 -14
16 -20 -12 -23 -7 -13 19 10 27 6 33 -19 23 -38 -15 -148 59 -148 99 0 45 48
34 101 -22 34 -36 61 -48 93 -40 34 9 53 -2 79 -44 72 -115 170 -167 133 -71
-9 24 -2 28 31 17 34 -11 43 -6 43 26 0 47 46 68 80 36 20 -18 20 -13 0 25
-24 46 -5 81 46 82 9 0 11 9 4 20 -7 11 2 26 19 32 17 7 31 25 31 41 0 16 10
23 21 16 12 -7 27 6 33 29 6 23 17 42 25 42 7 0 34 36 59 80 55 99 58 99 144
-5z m-3962 -26 c0 -38 -9 -69 -20 -69 -11 0 -20 37 -20 81 0 49 8 76 20 69 11
-7 20 -43 20 -81z m2771 19 c38 -29 69 -46 69 -39 0 8 30 -5 68 -28 37 -23 81
-36 98 -30 16 7 36 2 43 -9 8 -14 0 -17 -21 -8 -24 9 -30 5 -20 -11 23 -37
-13 -27 -98 28 -82 53 -42 11 67 -70 41 -31 45 -40 18 -40 -29 -1 -136 84
-294 232 -51 47 -2 29 70 -25z m918 2 c71 -58 56 -85 -28 -50 -37 15 -61 39
-61 62 0 49 17 47 89 -12z m-3599 -112 c2 -39 -6 -58 -26 -58 -22 0 -24 -6 -6
-28 18 -21 16 -35 -7 -58 -17 -17 -30 -57 -28 -88 2 -47 4 -49 11 -11 12 60
45 38 48 -31 2 -34 6 -41 12 -19 22 85 65 7 66 -120 0 -36 -9 -65 -20 -65 -11
0 -20 23 -20 50 0 52 -29 68 -47 25 -5 -14 -11 2 -12 35 -2 51 -5 55 -23 25
-37 -65 -58 -36 -58 83 0 76 9 122 24 127 17 5 24 50 21 132 -3 134 57 135 65
1z m72 -75 c9 -44 6 -62 -9 -57 -12 4 -28 36 -35 71 -9 44 -6 62 9 57 12 -4
28 -36 35 -71z m3415 -39 c-62 -12 -134 32 -123 74 10 39 13 39 82 -14 48 -36
61 -56 41 -60z m-3317 -4 c0 -29 12 -38 45 -35 33 4 45 -5 45 -35 0 -22 -13
-40 -30 -40 -16 0 -33 -18 -37 -40 -4 -22 -17 -52 -29 -67 -13 -15 -20 -58
-17 -95 6 -70 -23 -93 -45 -36 -18 47 -14 148 6 148 46 0 81 94 49 133 -16 20
-24 26 -17 12 7 -14 2 -25 -11 -25 -13 0 -18 -13 -12 -29 6 -15 -4 -40 -22
-55 -28 -23 -30 -19 -16 44 9 39 16 90 16 115 -1 31 11 45 37 45 25 0 38 -14
38 -40z m2776 -84 c13 -13 24 -40 24 -60 0 -20 14 -36 32 -36 17 0 28 -11 23
-25 -16 -49 -58 -23 -95 60 -37 84 -31 108 16 61z m-699 -54 c3 -25 -7 -60
-23 -79 -16 -18 -33 -46 -37 -61 -5 -16 -29 -31 -53 -35 -55 -8 -60 43 -6 72
25 14 35 34 28 61 -12 45 28 105 62 94 12 -4 25 -27 29 -52z m-1877 -32 c0
-14 -23 -32 -52 -39 -41 -10 -47 -18 -29 -40 16 -19 16 -31 2 -40 -32 -20 -25
-71 9 -71 17 0 30 14 30 31 0 17 10 25 22 18 12 -7 16 -34 10 -58 -14 -57 6
-78 45 -46 26 21 28 19 16 -13 -8 -22 -5 -45 7 -52 36 -22 43 -145 7 -132 -17
7 -34 12 -39 12 -4 0 -8 17 -8 37 0 26 -14 37 -45 35 -34 -2 -54 17 -80 75
-36 79 -48 253 -18 253 9 0 27 23 40 52 25 54 83 38 83 -22z m2542 -16 c9 -35
7 -54 -8 -54 -12 0 -5 -12 15 -27 50 -37 22 -77 -42 -60 -47 11 -50 9 -28 -30
24 -46 19 -50 -57 -43 -37 3 -45 -4 -35 -29 17 -44 -38 -63 -81 -28 -29 24
-32 22 -19 -10 12 -33 5 -36 -48 -29 -45 7 -58 2 -50 -17 10 -29 -41 -36 -97
-15 -64 25 -35 121 34 110 8 -1 20 11 27 28 6 16 32 30 58 30 26 0 52 9 59 20
7 11 37 20 66 21 47 0 49 3 19 21 -40 23 -29 58 18 58 35 0 74 36 93 87 19 49
59 32 76 -33z m-2465 -17 c41 -26 3 -97 -51 -97 -29 0 -31 10 -13 75 14 52 15
53 64 22z m2691 -67 c32 -48 31 -50 -14 -50 -56 0 -95 35 -80 72 16 43 58 33
94 -22z m-2928 -76 c0 -33 -8 -51 -20 -44 -11 7 -20 46 -20 86 1 55 6 66 20
44 11 -16 20 -55 20 -86z m300 26 c0 -46 -9 -60 -38 -60 -34 0 -36 6 -16 60
13 33 30 60 38 60 9 0 16 -27 16 -60z m72 -53 c-1 -29 -13 -57 -26 -62 -15 -5
-21 12 -16 49 4 31 8 63 9 72 3 44 35 -12 33 -59z m2507 25 c12 -16 16 -33 7
-38 -26 -15 -110 24 -96 46 18 29 61 25 89 -8z m-78 -63 c16 -20 18 -38 6 -50
-26 -26 -98 27 -79 58 20 31 42 29 73 -8z m-865 -39 c3 -26 -20 -60 -66 -96
l-71 -56 14 86 c18 116 109 165 123 66z m263 -67 c23 -43 10 -63 -41 -63 -43
0 -66 32 -50 71 15 41 67 36 91 -8z m-12 -146 c13 -53 -42 -42 -80 15 -27 40
-25 42 21 33 26 -5 53 -27 59 -48z m-107 -403 c0 -50 -4 -55 -30 -34 -26 21
-30 16 -30 -35 0 -73 -36 -184 -75 -229 -16 -18 -23 -43 -16 -54 16 -26 -8
-122 -31 -122 -10 0 -18 14 -18 30 0 17 -9 30 -20 30 -11 0 -20 -18 -20 -40 0
-22 -13 -40 -30 -40 -16 0 -37 0 -45 0 -8 0 -16 18 -17 40 -2 22 4 40 13 40 8
0 30 34 48 75 18 41 48 102 66 135 17 33 36 103 41 156 7 71 17 93 37 86 17
-7 27 3 27 25 0 56 23 66 63 30 21 -18 37 -60 37 -93z m-600 -62 c0 -51 -47
-102 -77 -84 -27 17 19 132 51 132 14 0 26 -21 26 -48z m-400 -22 c33 -17 66
-29 74 -28 96 16 107 2 104 -132 -2 -72 -9 -135 -17 -139 -20 -13 -161 107
-161 137 0 13 -31 55 -70 92 -104 101 -65 140 70 70z m472 -95 c-18 -25 -43
-65 -56 -90 -36 -72 -137 -33 -135 51 0 31 3 31 27 -1 24 -31 30 -32 52 -5 13
16 31 26 39 21 7 -5 26 9 42 30 15 21 36 39 46 39 10 0 3 -20 -15 -45z m-152
-143 c0 -31 -58 -111 -69 -94 -15 25 22 102 50 102 10 0 19 -3 19 -8z m420
-262 c0 -29 -11 -50 -28 -50 -15 0 -32 23 -37 50 -7 39 -1 50 28 50 26 0 37
-15 37 -50z m-1101 -188 c29 -55 -28 -102 -71 -59 -33 34 -18 97 23 97 15 0
37 -17 48 -38z"/>
<path d="M4089 3082 c6 -10 -3 -23 -21 -30 -28 -11 -28 -15 1 -44 26 -26 38
-27 62 -8 38 32 37 73 -3 88 -43 16 -52 15 -39 -6z"/>
<path d="M2408 4546 c-38 -7 -128 -148 -128 -199 0 -11 -16 -37 -35 -58 -40
-44 -49 -175 -11 -160 34 13 126 -35 126 -66 0 -16 12 -23 30 -16 18 7 38 -6
52 -33 68 -130 219 -272 179 -168 -27 74 -32 205 -7 200 12 -3 33 8 46 23 12
16 38 23 56 17 27 -9 29 -6 11 14 -26 28 3 120 38 120 11 0 14 14 8 30 -8 20
1 30 26 30 61 0 64 30 7 80 -51 44 -53 44 -81 8 -20 -27 -26 -29 -22 -8 10 55
-60 155 -125 178 -64 22 -93 24 -170 8z m96 -128 c-4 -136 -164 -146 -164 -10
0 45 36 57 49 17 6 -20 29 -36 51 -36 29 0 37 9 29 35 -12 37 7 87 26 68 6 -6
10 -39 9 -74z m114 -73 c4 -46 -34 -25 -46 26 -18 69 12 115 30 49 8 -28 15
-61 16 -75z m-52 -24 c28 -54 27 -58 -8 -55 -28 2 -38 18 -38 58 0 71 10 70
46 -3z m68 -112 c9 -28 -106 -149 -141 -149 -17 0 -48 23 -71 52 -22 28 -50
46 -61 38 -12 -7 -21 -4 -21 7 0 10 14 24 32 31 44 17 52 15 38 -8 -7 -11 -3
-20 9 -20 11 0 21 10 21 21 0 12 8 16 18 10 10 -6 23 2 28 17 13 31 137 32
148 1z"/>
<path d="M2840 4044 c0 -40 -85 -105 -121 -94 -28 9 -22 -4 23 -49 76 -76 69
-77 97 24 13 47 28 96 34 110 6 14 1 25 -11 25 -12 0 -22 -7 -22 -16z"/>
<path d="M2900 3823 c-112 -29 -177 -105 -110 -130 17 -7 30 -5 30 3 0 8 41
40 90 71 118 75 116 87 -10 56z"/>
<path d="M2872 3362 c-8 -11 -49 -32 -93 -45 -137 -41 -83 -96 58 -58 96 26
119 54 78 95 -20 20 -35 23 -43 8z"/>
<path d="M1160 3330 c0 -27 98 -130 108 -114 5 9 -17 41 -49 72 -33 30 -59 49
-59 42z"/>
<path d="M3615 3011 c-22 -16 -31 -39 -23 -59 12 -30 16 -29 42 8 38 53 26 85
-19 51z"/>
<path d="M2332 3003 c-8 -12 -3 -43 11 -68 21 -38 26 -40 32 -11 10 46 -25
109 -43 79z"/>
<path d="M2135 2936 c-9 -29 80 -166 154 -235 66 -62 117 -72 102 -19 -6 21
-16 55 -22 76 -11 41 -69 74 -69 40 0 -11 -10 -14 -22 -7 -12 7 -16 35 -9 62
16 64 -4 96 -41 66 -21 -18 -30 -16 -40 9 -15 38 -41 42 -53 8z"/>
<path d="M2104 2744 c23 -32 131 -131 244 -223 36 -30 37 -29 4 34 -18 36 -41
65 -51 65 -10 0 -24 18 -31 40 -7 23 -48 59 -91 80 -96 49 -108 50 -75 4z"/>
<path d="M2760 2687 c0 -39 110 -172 116 -140 4 18 15 33 26 33 10 0 7 18 -6
39 -14 22 -29 35 -34 30 -5 -5 -30 5 -55 21 -26 17 -47 24 -47 17z"/>
<path d="M2018 2602 l-48 -66 -12 57 -12 57 -24 -60 c-13 -33 -42 -97 -64
-143 -22 -45 -37 -90 -35 -100 2 -9 -11 -52 -30 -96 -27 -63 -29 -82 -9 -94
61 -37 73 -52 122 -147 33 -62 52 -85 52 -60 1 22 -12 57 -29 79 -16 21 -29
59 -29 83 0 25 -11 48 -25 53 -16 5 -7 29 29 71 29 35 59 81 66 103 6 21 41
57 77 79 81 50 144 118 126 136 -7 7 -33 -8 -57 -34 -46 -49 -80 -23 -38 28
14 17 16 44 6 73 -17 46 -18 46 -66 -19z"/>
<path d="M2261 2291 c-50 -53 -55 -51 86 -21 55 11 56 14 20 40 -50 38 -53 38
-106 -19z"/>
<path d="M2147 2269 c-7 -17 -24 -27 -39 -21 -33 12 -57 -20 -28 -38 24 -15
108 8 92 25 -7 6 -2 23 11 38 16 20 16 27 -1 27 -13 0 -29 -14 -35 -31z"/>
<path d="M1828 1973 c-22 -24 -47 -59 -54 -78 -8 -23 -24 -30 -48 -21 -31 12
-32 9 -9 -19 32 -40 14 -78 -30 -61 -27 10 -28 6 -4 -32 23 -39 22 -48 -8 -70
-19 -15 -35 -41 -35 -59 0 -18 -8 -33 -18 -33 -10 0 -14 -18 -8 -40 10 -38 14
-37 64 15 29 30 50 66 46 80 -5 13 6 30 23 36 17 7 26 25 20 40 -6 16 3 34 20
40 17 7 25 25 19 42 -7 18 3 33 26 39 28 8 39 31 43 89 2 44 2 78 0 77 -3 -1
-24 -22 -47 -45z"/>
<path d="M2011 1560 c7 -162 39 -412 47 -370 2 11 11 60 21 109 12 62 9 106
-10 150 -14 33 -35 111 -46 171 -19 105 -20 102 -12 -60z"/>
</g>
</svg>
