<?xml version="1.0" standalone="no"?>
<!DOCTYPE svg PUBLIC "-//W3C//DTD SVG 20010904//EN"
 "http://www.w3.org/TR/2001/REC-SVG-20010904/DTD/svg10.dtd">
<svg version="1.0" xmlns="http://www.w3.org/2000/svg"
 width="207.000000pt" height="244.000000pt" viewBox="0 0 207.000000 244.000000"
 preserveAspectRatio="xMidYMid meet">
<metadata>
Created by potrace 1.10, written by Peter Selinger 2001-2011
</metadata>
<g transform="translate(0.000000,244.000000) scale(0.050000,-0.050000)"
fill="#000000" stroke="none">
<path d="M613 4705 c-5 -8 11 -65 35 -125 74 -181 84 -237 35 -193 -21 20 -50
62 -64 94 -22 56 -74 87 -54 34 43 -114 40 -121 -21 -53 -104 116 -90 52 27
-123 109 -164 290 -377 349 -409 19 -11 15 0 -9 27 -93 106 -52 147 52 53 42
-38 88 -70 102 -70 14 0 -4 25 -40 56 -36 30 -65 62 -65 71 0 9 -33 56 -72
104 -47 57 -68 100 -60 122 7 18 1 47 -14 65 -16 18 -44 91 -63 162 -50 185
-98 249 -138 185z"/>
<path d="M768 4648 c15 -81 110 -297 125 -282 14 14 -93 331 -116 346 -16 10
-18 -9 -9 -64z"/>
<path d="M860 4706 c1 -100 219 -584 304 -676 31 -33 56 -66 56 -74 0 -7 18
-19 39 -26 22 -7 34 -24 29 -39 -6 -15 21 -45 66 -73 85 -52 144 -115 145
-153 1 -14 8 -25 18 -25 9 0 15 -19 15 -42 -1 -24 16 -53 38 -65 22 -13 47
-34 56 -48 9 -14 25 -21 35 -14 11 6 19 -3 19 -20 0 -35 -31 -42 -50 -11 -24
39 -110 23 -110 -20 0 -27 -13 -40 -40 -40 -43 0 -57 40 -15 41 14 0 9 10 -11
21 -53 31 -151 39 -167 14 -18 -30 67 -97 104 -83 16 6 29 2 29 -9 0 -35 115
-65 139 -36 11 14 15 31 9 38 -7 6 14 11 45 10 31 0 66 1 77 4 105 25 140 -32
71 -115 -49 -59 -77 -57 -105 10 -13 30 -26 58 -29 62 -3 4 -20 -7 -37 -25
-18 -17 -51 -32 -74 -32 -28 0 -37 -9 -28 -32 7 -17 12 -40 12 -50 0 -10 14
-18 30 -18 17 0 30 8 30 18 0 10 16 24 35 31 28 11 30 8 10 -12 -28 -28 -34
-65 -9 -49 26 16 70 -22 55 -47 -9 -14 -40 -19 -78 -12 l-63 11 55 -22 c30
-12 55 -30 55 -41 0 -10 18 -56 40 -102 46 -95 12 -156 -36 -64 -27 52 -111
71 -92 21 8 -21 -11 -17 -73 13 -99 49 -259 68 -312 38 -29 -17 -6 -22 107
-22 79 -1 149 -10 156 -21 13 -22 -26 -29 -117 -21 -77 6 -62 -32 33 -87 65
-36 77 -38 94 -12 11 17 20 20 20 7 0 -13 17 -19 40 -13 31 8 40 1 40 -32 0
-24 13 -42 30 -42 17 0 30 9 30 20 0 11 11 20 24 20 19 0 19 -5 0 -24 -36 -36
-29 -72 15 -86 26 -8 35 -23 26 -46 -17 -48 -50 -65 -78 -41 -51 42 -133 37
-94 -6 18 -20 30 -40 25 -43 -4 -4 -39 -22 -78 -42 -61 -30 -63 -33 -15 -23
32 7 55 3 55 -9 0 -38 35 -20 47 24 10 40 14 41 47 12 54 -48 111 -52 156 -10
38 35 38 38 4 57 -37 20 -35 43 12 157 11 28 19 58 17 67 -3 10 6 30 19 45 20
25 17 67 -14 173 -8 25 -2 31 21 23 22 -9 31 0 31 32 0 27 -15 48 -39 54 -43
11 -37 121 7 151 38 25 107 16 120 -17 18 -47 15 -53 -18 -41 -21 8 -30 -1
-30 -30 0 -28 9 -38 30 -30 17 7 31 1 32 -13 6 -110 15 -169 27 -199 12 -27 6
-35 -27 -35 -53 0 -55 -40 -2 -54 55 -14 51 -59 -7 -73 -69 -18 -104 -105 -48
-120 24 -6 55 -2 69 10 14 12 27 19 28 14 0 -4 5 -50 9 -103 4 -52 12 -103 18
-113 6 -10 1 -21 -12 -25 -16 -6 -18 -18 -6 -37 10 -16 21 -51 25 -79 4 -27
19 -57 34 -65 15 -8 33 -42 40 -75 7 -33 21 -60 32 -60 10 0 18 -18 18 -41 0
-22 14 -45 30 -52 17 -6 30 -19 30 -29 0 -10 -13 -18 -30 -18 -36 0 -40 -33
-5 -45 18 -6 17 -16 -5 -38 -52 -52 -108 17 -71 88 23 45 23 54 -2 63 -18 7
-35 -8 -48 -43 -10 -30 -28 -71 -39 -90 -33 -56 -24 -78 20 -50 72 45 182 -63
115 -113 -49 -37 -44 -57 10 -41 43 14 43 13 -5 -27 -33 -27 -54 -33 -63 -18
-10 15 -23 14 -45 -5 -28 -22 -32 -19 -32 26 0 28 12 58 27 67 14 9 32 32 39
51 12 32 9 33 -34 5 -36 -24 -59 -26 -101 -11 -67 26 -77 26 -61 0 14 -22 -57
-108 -118 -142 -32 -18 -36 -16 -26 11 16 40 -5 41 -62 1 -24 -17 -44 -24 -44
-15 0 32 62 106 89 106 35 0 129 78 95 79 -15 1 -46 -9 -70 -22 -41 -22 -42
-21 -14 13 27 34 27 36 -5 24 -19 -7 -35 -4 -35 7 0 18 29 27 65 21 19 -3 -4
101 -28 127 -9 10 -17 37 -17 60 -1 34 -4 36 -20 11 -11 -16 -20 -25 -21 -20
-15 87 -13 131 4 142 36 22 29 164 -9 218 l-35 50 0 -70 c1 -111 -6 -160 -23
-160 -9 0 -16 32 -16 70 0 86 -41 93 -81 15 -15 -30 -30 -59 -33 -63 -3 -4
-19 4 -36 18 -23 19 -38 20 -54 4 -12 -12 -48 -17 -79 -10 -33 6 -57 2 -57
-10 0 -20 147 -56 195 -47 14 3 31 -9 37 -26 13 -34 68 -43 68 -12 0 11 13 15
30 8 16 -6 25 -19 19 -29 -7 -10 -20 -13 -30 -7 -11 6 -19 -3 -19 -21 0 -76
-70 -114 -184 -100 -112 14 -256 -25 -256 -69 0 -30 46 -26 91 8 49 37 89 39
89 5 0 -15 -32 -42 -71 -61 -57 -26 -69 -42 -59 -73 7 -23 4 -40 -9 -40 -11 0
-21 -13 -21 -30 0 -46 50 -36 78 17 14 25 51 62 83 81 32 19 68 52 80 73 12
24 41 39 75 39 41 -1 47 -5 25 -19 -44 -28 -11 -48 36 -23 24 14 45 15 52 3 6
-10 -20 -30 -58 -43 -53 -20 -69 -36 -66 -69 4 -51 80 -61 117 -16 13 15 17
27 10 27 -7 0 -4 18 8 40 26 48 90 56 72 8 -7 -17 -12 -42 -12 -56 0 -25 -170
-112 -220 -112 -21 0 -22 -6 -5 -23 18 -18 31 -17 53 2 33 27 120 10 101 -20
-6 -11 -33 -19 -59 -19 -26 0 -61 -14 -79 -32 -39 -39 -20 -80 21 -46 23 18
41 18 81 0 43 -20 58 -18 90 10 50 46 73 19 27 -32 -20 -22 -27 -40 -16 -40
12 0 32 14 46 30 20 24 31 26 55 6 23 -19 36 -15 66 25 34 46 37 46 51 11 20
-52 -11 -95 -103 -141 -42 -21 -66 -42 -53 -46 48 -16 1 -44 -96 -57 -55 -7
-94 -21 -88 -31 6 -9 48 -11 94 -4 l84 13 -39 -44 c-21 -24 -70 -63 -110 -87
-112 -69 -159 -116 -100 -101 67 18 -32 -110 -142 -182 -86 -57 -101 -82 -39
-66 54 14 22 -47 -49 -94 -58 -37 -68 -92 -18 -92 19 0 51 15 72 34 29 27 41
29 53 9 12 -19 21 -18 41 6 57 68 71 17 31 -109 -9 -29 -4 -40 20 -40 18 0 46
-13 62 -29 26 -26 35 -24 71 12 51 51 90 10 69 -73 -24 -96 17 -144 45 -52 31
102 103 87 103 -21 0 -52 5 -58 29 -38 24 20 36 10 70 -58 49 -95 79 -104 77
-24 -2 77 20 111 53 84 45 -38 96 -2 82 57 -28 115 -36 242 -15 242 11 0 27
-29 34 -65 23 -108 74 -255 92 -266 32 -20 19 91 -20 167 -47 93 -72 204 -46
204 11 0 35 -38 54 -85 20 -47 39 -74 44 -61 5 13 -6 53 -24 90 -26 54 -26 59
-2 28 17 -21 34 -48 39 -60 4 -12 14 -16 22 -9 8 8 -9 55 -37 106 -69 123 -66
128 28 43 59 -53 98 -72 149 -72 131 0 106 64 -26 68 -156 4 -372 607 -226
629 42 6 44 9 16 40 -25 28 -30 63 -15 119 1 3 20 -4 43 -17 27 -14 37 -34 30
-57 -8 -25 5 -43 44 -62 44 -21 48 -28 20 -35 -44 -10 -46 -2 25 -138 33 -64
60 -139 60 -166 1 -28 23 -72 50 -98 28 -26 50 -37 50 -25 0 14 19 18 50 10
57 -14 66 13 20 59 -16 17 -30 39 -30 50 0 11 -16 26 -35 32 -88 30 -178 224
-95 203 85 -22 58 82 -51 195 -93 96 9 272 131 226 16 -7 30 -3 30 8 0 10 12
19 27 19 19 0 24 16 18 50 -19 99 90 129 184 51 13 -11 30 -16 36 -10 24 25
-11 82 -77 128 -100 68 -122 117 -70 154 23 16 42 41 42 56 0 15 38 75 85 134
98 122 114 145 230 317 55 81 85 148 85 189 0 34 14 82 31 107 17 24 27 52 21
61 -6 9 7 66 29 125 21 59 39 129 39 156 0 27 54 151 120 277 66 125 120 239
120 252 0 12 99 121 220 242 237 235 234 231 192 231 -32 0 -332 -290 -332
-320 0 -11 -9 -20 -20 -20 -12 0 -15 23 -8 55 16 67 88 191 103 177 6 -6 40
30 75 79 35 50 115 144 177 209 123 129 133 150 75 154 -25 2 -84 -53 -175
-167 -213 -264 -267 -346 -267 -409 0 -67 -39 -78 -55 -15 -12 44 -82 -54 -84
-118 -2 -44 31 -27 54 30 16 37 20 40 13 10 -6 -25 -2 -45 9 -45 10 0 14 -18
9 -40 -8 -32 -17 -36 -38 -19 -20 18 -29 11 -39 -29 -7 -29 -21 -52 -31 -52
-10 0 -18 -12 -18 -27 0 -14 -23 -38 -50 -53 -28 -15 -48 -37 -45 -48 5 -22
-33 -82 -120 -191 -25 -31 -45 -73 -46 -94 0 -47 -48 -111 -69 -92 -8 8 -11
-33 -5 -91 5 -58 1 -110 -9 -117 -10 -6 -14 -24 -8 -40 8 -19 0 -27 -23 -23
-24 4 -37 -10 -42 -44 -4 -27 -15 -60 -24 -71 -20 -25 -2 -165 24 -181 9 -6
17 -19 17 -30 0 -11 -8 -15 -18 -9 -10 6 -23 -12 -30 -39 -7 -28 -27 -50 -45
-50 -20 0 -27 11 -19 30 7 17 17 43 24 60 7 17 3 30 -9 30 -12 0 -17 13 -11
29 6 16 2 45 -10 65 -16 28 -21 29 -21 5 -1 -49 -82 -109 -103 -76 -25 40 -20
120 10 176 l27 48 27 -43 c44 -71 54 -51 25 51 -14 52 -46 164 -70 249 -24 85
-51 150 -60 144 -9 -6 -26 13 -37 41 -10 28 -28 51 -40 51 -25 0 -27 7 18
-110 45 -118 77 -310 47 -280 -11 11 -48 99 -82 195 -76 217 -102 267 -102
195 0 -27 37 -135 82 -240 105 -246 121 -416 24 -268 -38 57 -111 93 -156 76
-23 -9 -16 -29 32 -95 57 -78 60 -91 49 -213 -11 -114 -9 -124 13 -80 15 28
39 50 55 50 17 0 34 26 41 60 10 56 12 57 26 16 8 -24 41 -55 74 -70 32 -14
59 -41 59 -59 0 -19 11 -38 25 -43 17 -7 10 -21 -20 -43 -25 -19 -45 -55 -45
-82 0 -29 -12 -49 -29 -49 -37 0 -62 40 -54 87 3 20 -10 49 -30 64 -49 37 -74
36 -60 -1 7 -16 4 -30 -5 -30 -10 0 -23 -15 -30 -32 -9 -23 -4 -29 17 -21 63
24 122 -254 69 -320 -12 -13 -11 -42 1 -74 24 -63 -1 -84 -61 -49 -34 21 -45
21 -52 1 -24 -64 -206 20 -206 96 0 12 14 8 31 -10 86 -85 130 -30 49 62 -33
37 -65 92 -71 122 -6 30 -25 86 -42 124 -27 62 -27 66 2 42 56 -46 53 -11 -9
102 -55 102 -59 127 -68 371 -5 145 -19 282 -32 306 -17 31 -17 59 -1 104 29
86 25 113 -10 66 -32 -41 -68 -18 -69 45 0 14 -8 25 -18 25 -14 0 -128 190
-243 405 -11 19 -19 76 -19 126 0 56 -8 87 -20 79 -11 -7 -20 -45 -20 -85 l0
-72 -62 58 c-177 169 -372 497 -391 659 -13 100 -36 150 -70 150 -40 0 5 -153
135 -456 33 -77 34 -84 9 -84 -32 0 -223 360 -238 447 -13 75 -123 147 -123
79z m703 -1016 c11 -22 -8 -8 -42 30 -34 39 -71 88 -82 110 -12 22 7 9 41 -30
35 -38 72 -88 83 -110z m1377 -768 c0 -9 -13 -28 -30 -42 -19 -16 -25 -42 -18
-73 10 -38 6 -45 -20 -35 -20 8 -32 2 -32 -15 -1 -22 -4 -22 -18 1 -12 19 -5
41 20 68 21 23 43 57 49 78 12 36 49 51 49 18z m-690 -1097 c4 -51 1 -52 -51
-25 -22 12 -33 33 -26 51 18 45 73 26 77 -26z m-310 -314 c-22 -42 -21 -57 7
-99 45 -68 42 -104 -12 -141 -58 -41 -143 -198 -113 -208 15 -5 14 -13 -4 -24
-23 -15 -63 -256 -45 -277 4 -5 17 20 29 55 26 74 50 80 70 18 22 -71 48 14
33 113 -8 56 -5 74 12 64 13 -8 23 -32 23 -55 0 -22 14 -53 30 -70 17 -16 30
-43 30 -59 0 -16 -13 -34 -30 -41 -17 -6 -30 -36 -30 -69 0 -32 -8 -58 -18
-58 -10 0 -23 -23 -31 -51 -19 -78 -76 -54 -108 45 -18 58 -35 80 -55 73 -19
-8 -28 3 -28 33 0 39 -4 41 -32 19 -33 -28 -26 68 13 173 9 24 8 51 -3 62 -22
22 6 114 41 135 32 20 25 51 -9 38 -53 -20 -13 45 43 71 43 19 47 28 26 54
-21 25 -19 32 18 41 24 7 43 20 43 31 0 31 104 199 116 187 6 -6 -1 -33 -16
-60z m-420 -683 c0 -16 -23 -38 -51 -48 -31 -12 -46 -29 -37 -43 9 -14 5 -18
-9 -9 -17 11 -17 25 0 57 48 90 97 112 97 43z m140 -110 c0 -38 -78 -97 -94
-72 -24 39 -25 82 -3 96 27 17 97 -1 97 -24z"/>
<path d="M3750 4666 c-22 -4 -97 -87 -169 -187 -130 -182 -184 -223 -103 -79
24 44 39 80 33 80 -7 0 2 22 20 48 21 32 24 53 10 61 -12 8 -37 -14 -56 -49
-19 -34 -92 -145 -162 -246 l-127 -184 13 90 c8 50 23 114 34 143 24 63 15
189 -13 183 -11 -2 -26 -34 -33 -70 -7 -36 -22 -93 -34 -126 -11 -33 -29 -91
-40 -130 -30 -107 -236 -601 -261 -626 -37 -37 35 301 128 606 75 245 97 353
81 392 -17 41 -34 1 -101 -237 -18 -64 -41 -111 -50 -105 -17 11 -72 -144
-133 -380 -28 -107 -37 -216 -38 -464 0 -178 -6 -329 -12 -336 -35 -35 -103
377 -112 685 -5 179 -17 325 -26 325 -67 0 -31 -664 56 -1060 11 -49 12 -49
24 10 12 55 14 57 28 17 36 -108 65 -88 69 49 6 177 23 258 46 222 11 -19 18
2 19 62 1 66 6 79 18 50 12 -30 20 -12 31 76 10 75 26 121 48 133 18 10 50 77
71 150 21 73 45 137 53 142 9 6 7 -20 -3 -55 -21 -72 -26 -189 -7 -171 6 6 14
23 17 38 3 15 19 59 35 97 17 39 36 84 42 100 7 19 12 11 13 -20 2 -38 13 -25
49 60 118 283 249 456 161 212 -55 -149 -26 -163 48 -23 26 49 60 93 75 99 15
6 28 24 28 41 0 16 72 106 160 200 191 203 191 202 70 177z"/>
<path d="M840 4287 c0 -18 113 -152 265 -313 74 -79 135 -150 135 -159 0 -8
14 -15 32 -15 17 0 27 -11 22 -25 -5 -14 5 -41 22 -60 61 -71 9 -50 -164 67
-187 126 -250 147 -113 39 45 -36 81 -77 81 -93 0 -15 9 -29 20 -30 41 -6 52
-11 135 -64 85 -55 192 -71 215 -33 7 11 -46 79 -118 151 -73 72 -132 139
-132 148 0 10 -18 23 -40 30 -22 7 -40 25 -40 41 0 15 -37 66 -82 113 -45 47
-90 102 -101 122 -10 19 -28 30 -38 23 -11 -6 -24 2 -31 18 -11 30 -68 63 -68
40z"/>
<path d="M541 4045 c0 -20 209 -145 257 -155 21 -4 85 -39 143 -79 124 -85
167 -94 75 -15 -159 136 -477 303 -475 249z"/>
<path d="M540 3885 c0 -11 25 -25 55 -32 56 -11 327 -166 436 -247 l59 -45
-60 0 c-60 0 -197 40 -223 65 -22 23 -71 16 -56 -7 8 -13 -2 -19 -23 -15 -27
4 -37 -7 -37 -43 -1 -59 164 -157 374 -223 74 -23 135 -50 135 -60 0 -28 -145
-20 -200 12 -58 33 -128 39 -110 10 7 -11 62 -34 123 -52 61 -17 126 -47 144
-65 52 -52 223 -22 223 39 0 9 -63 46 -140 82 -87 41 -137 75 -131 91 5 13
-17 38 -50 55 -86 45 -73 52 34 20 117 -35 198 -7 90 32 -43 15 -58 29 -43 38
17 10 5 27 -37 51 -33 20 -57 43 -51 51 5 9 -3 25 -17 37 -157 131 -230 179
-287 189 -38 7 -99 17 -138 24 -41 7 -70 4 -70 -7z"/>
<path d="M772 3163 c-13 -21 46 -36 188 -49 l70 -6 -55 -23 c-84 -36 -71 -40
136 -42 104 -1 207 -11 228 -23 70 -37 92 -20 26 20 -36 22 -82 40 -102 40
-19 0 -57 20 -83 44 -53 50 -382 82 -408 39z"/>
<path d="M2152 2650 c7 -263 21 -319 60 -248 15 26 27 37 27 24 1 -14 21 -43
45 -65 24 -23 34 -41 23 -41 -52 0 -62 -131 -15 -186 53 -62 79 -70 57 -19
-21 51 -27 305 -6 305 9 0 17 13 17 29 0 17 -12 25 -27 19 -33 -12 -92 73 -94
136 -2 42 -3 43 -17 7 -21 -54 -41 22 -42 154 0 52 -8 95 -17 95 -9 0 -15 -95
-11 -210z"/>
<path d="M1280 2686 c-97 -16 -114 -26 -76 -48 41 -23 125 -5 158 34 25 30 19
31 -82 14z"/>
<path d="M1280 2592 c0 -17 -12 -32 -28 -32 -36 0 -30 -67 8 -82 37 -15 100 1
100 24 0 10 -10 18 -22 18 -12 0 -17 13 -11 29 6 15 -2 39 -18 52 -23 19 -29
17 -29 -9z"/>
<path d="M1829 2529 c-6 -22 -20 -55 -30 -74 -26 -47 -24 -55 12 -55 23 0 28
-12 18 -42 -9 -31 -6 -40 14 -34 15 6 24 30 20 55 -3 26 9 56 30 72 36 26 35
29 -7 72 -43 43 -45 43 -57 6z"/>
<path d="M1111 2482 c-14 -23 77 -82 128 -82 23 0 41 -9 41 -19 0 -11 -12 -15
-27 -9 -19 7 -28 -5 -28 -39 0 -42 9 -50 58 -49 31 1 57 10 57 19 0 9 19 17
41 17 23 0 36 9 29 20 -7 11 -34 20 -61 20 -27 0 -49 9 -49 20 0 11 10 20 22
20 12 0 17 11 13 25 -5 14 -28 22 -51 19 -23 -3 -69 8 -102 25 -33 17 -65 23
-71 13z"/>
<path d="M1807 2270 c-21 -55 8 -89 72 -84 60 4 89 54 31 54 -16 0 -30 14 -30
30 0 17 -14 30 -31 30 -16 0 -35 -13 -42 -30z"/>
<path d="M1661 2175 c0 -54 4 -59 21 -30 11 20 31 30 44 22 13 -8 7 6 -14 30
-50 56 -52 55 -51 -22z"/>
<path d="M1954 2168 c-7 -8 -14 -33 -14 -55 0 -22 -6 -34 -13 -26 -23 22 -85
-101 -73 -145 6 -23 18 -42 26 -42 29 0 61 55 49 85 -13 34 45 101 73 84 10
-6 18 1 18 16 0 39 -48 100 -66 83z"/>
<path d="M1223 2138 c-128 -26 -121 -58 14 -58 79 0 121 -7 113 -20 -15 -25
46 -24 100 2 33 15 29 17 -17 8 -49 -10 -55 -6 -44 27 14 45 -57 63 -166 41z"/>
<path d="M1792 2110 c-31 -24 -33 -34 -13 -59 28 -33 70 -22 48 13 -7 12 3 34
24 49 27 20 29 27 8 26 -16 0 -46 -13 -67 -29z"/>
<path d="M2100 1226 c0 -67 32 -106 85 -106 36 0 36 2 1 62 -58 98 -86 113
-86 44z"/>
</g>
</svg>
