<?xml version="1.0" standalone="no"?>
<!DOCTYPE svg PUBLIC "-//W3C//DTD SVG 20010904//EN"
 "http://www.w3.org/TR/2001/REC-SVG-20010904/DTD/svg10.dtd">
<svg version="1.0" xmlns="http://www.w3.org/2000/svg"
 width="147.000000pt" height="300.000000pt" viewBox="0 0 147.000000 300.000000"
 preserveAspectRatio="xMidYMid meet">
<metadata>
Created by potrace 1.10, written by Peter Selinger 2001-2011
</metadata>
<g transform="translate(0.000000,300.000000) scale(0.050000,-0.050000)"
fill="#000000" stroke="none">
<path d="M891 5886 c8 -64 18 -134 22 -156 4 -22 36 -367 70 -766 71 -824 83
-730 -106 -859 -51 -35 -159 -130 -240 -212 -81 -81 -165 -158 -187 -171 -27
-17 -32 -28 -15 -35 42 -17 28 -41 -40 -68 -222 -89 -251 -299 -55 -399 126
-64 187 -53 329 59 106 85 293 181 350 181 72 0 138 -598 72 -647 -33 -24 -33
-31 -5 -84 27 -53 27 -65 -3 -122 -18 -35 -72 -139 -120 -230 -66 -127 -163
-416 -163 -486 0 -3 27 -17 61 -31 96 -40 123 -179 47 -242 -15 -13 -28 -57
-28 -99 0 -42 -9 -82 -20 -89 -31 -19 -24 -59 21 -107 33 -35 43 -75 47 -199
3 -84 12 -230 20 -324 12 -133 6 -220 -25 -400 -50 -282 -40 -299 180 -284
l54 4 9 335 c5 184 16 361 25 393 11 42 8 54 -8 44 -13 -8 -18 -25 -10 -37 9
-14 1 -17 -21 -8 -20 7 -39 13 -44 13 -4 0 -8 9 -8 20 0 11 14 20 31 20 17 0
26 8 20 18 -6 10 0 23 14 29 14 5 3 11 -25 12 -36 1 -42 6 -23 19 23 14 23 19
0 28 -29 11 19 20 93 17 29 -1 25 4 -15 19 -59 23 -71 48 -30 65 14 5 5 11
-20 11 -60 3 -57 30 6 59 99 45 106 36 105 -142 -3 -371 49 -953 88 -988 68
-62 123 16 106 151 -8 59 -27 271 -44 470 -16 199 -34 414 -40 478 -7 90 -2
125 23 153 18 19 41 93 53 163 11 71 28 160 39 200 l19 72 163 14 c124 10 168
7 180 -12 31 -50 97 -293 97 -359 1 -87 68 -447 117 -627 21 -77 45 -215 53
-306 l14 -166 179 -90 c98 -49 187 -84 197 -78 10 6 49 12 87 14 37 1 90 19
116 38 l47 37 -104 104 c-101 101 -106 104 -143 70 -26 -24 -44 -28 -52 -14
-8 12 -24 16 -35 8 -12 -7 -17 -5 -11 5 17 30 -22 108 -54 108 -17 0 -31 14
-31 30 0 39 18 38 63 -3 31 -27 28 -13 -14 95 -48 123 -77 352 -46 363 8 3 19
30 25 60 5 31 15 73 22 94 12 37 -57 81 -85 53 -6 -7 3 -12 22 -12 45 0 41
-22 -12 -71 -86 -80 -110 -75 -105 18 3 45 -3 93 -13 106 -32 40 50 50 130 17
40 -17 73 -22 73 -12 0 11 -18 25 -40 32 -56 18 -26 56 32 41 41 -10 48 -4 48
37 0 27 17 88 38 136 34 80 34 93 7 145 -16 32 -52 121 -79 198 l-49 141 51
38 c29 20 52 46 52 57 0 11 -15 5 -33 -13 -107 -107 -474 -239 -626 -224 -66
6 -95 4 -71 -6 23 -9 -8 -12 -75 -5 -79 7 -115 3 -115 -12 0 -14 -38 -23 -98
-23 l-99 0 7 -215 c8 -269 -48 -193 -63 85 -5 88 -21 286 -36 440 -37 378 -39
473 -7 493 21 13 21 24 1 56 -13 21 -20 52 -14 67 6 15 3 49 -7 76 -10 26 -12
93 -5 148 l14 100 16 -164 c15 -157 18 -164 68 -170 38 -4 55 -19 60 -53 3
-26 -2 -42 -12 -36 -10 6 -18 -19 -18 -57 0 -62 40 -109 69 -80 6 5 0 10 -13
10 -13 0 -23 10 -23 22 0 16 8 16 29 -1 16 -13 24 -37 18 -52 -6 -16 -2 -29
10 -29 11 0 20 -16 19 -35 0 -19 14 -74 32 -123 17 -48 32 -103 32 -122 0 -20
13 -41 29 -47 88 -34 -7 -131 -120 -124 -65 4 -104 -1 -97 -13 7 -10 36 -17
65 -15 88 5 102 0 90 -32 -8 -20 -19 -24 -35 -10 -30 24 -112 5 -112 -26 0
-105 803 60 1022 210 29 20 58 30 65 23 36 -36 -3 50 -167 365 -111 212 -172
348 -157 353 21 7 9 101 -57 441 -6 33 -2 55 12 55 12 0 22 -23 22 -51 0 -29
15 -67 34 -85 153 -154 256 -397 196 -464 -72 -79 35 -208 155 -188 103 18
115 25 103 57 -7 17 -20 26 -30 20 -10 -6 -18 17 -18 52 0 62 -2 64 -69 53
-67 -11 -69 -9 -61 50 20 158 210 171 210 14 0 -37 35 -70 53 -51 6 6 -5 58
-24 117 -20 58 -38 124 -41 146 -2 22 -19 74 -37 116 -18 42 -36 113 -41 157
-4 44 -17 91 -28 104 -11 14 -26 63 -34 109 -14 89 -75 121 -94 49 -6 -22 -10
-15 -12 19 -1 29 -20 84 -41 120 -22 37 -54 150 -71 251 -45 262 -73 334 -132
341 -79 10 -178 64 -178 96 0 23 -12 27 -45 17 -25 -7 -49 -14 -55 -14 -46 0
-60 10 -60 44 0 21 -9 44 -20 51 -11 7 -20 26 -20 43 0 61 -77 144 -123 132
-29 -7 -39 -4 -30 11 8 12 67 22 133 21 l120 0 -7 -78 c-4 -43 -20 -93 -35
-111 -25 -30 -23 -32 20 -19 31 10 53 6 64 -12 14 -22 18 -21 18 3 1 27 3 27
20 0 15 -23 19 -14 20 35 0 39 -16 81 -40 105 -71 71 -22 98 145 81 55 -6 41
35 -22 68 -42 21 -64 53 -80 116 -37 148 -204 325 -315 333 -49 4 -146 -172
-166 -300 l-20 -128 8 120 c7 108 5 116 -21 81 -17 -23 -29 -85 -29 -153 0
-106 -5 -119 -65 -167 l-65 -52 83 13 c101 15 171 -81 152 -212 -10 -75 -89
-168 -118 -140 -9 10 -62 20 -117 24 l-100 6 -14 120 c-14 119 -112 1358 -121
1530 -5 83 -10 91 -62 96 l-56 7 14 -117z m698 -1006 c9 -78 7 -101 -8 -80
-19 28 -31 217 -13 198 5 -4 14 -57 21 -118z m160 61 c41 -78 39 -115 -7 -140
-32 -17 -40 -12 -50 29 -7 28 -28 51 -47 52 -33 2 -33 3 0 12 21 5 35 28 35
57 0 66 32 62 69 -10z m80 -101 c8 -47 7 -60 -6 -40 -10 17 -24 62 -32 100 -8
47 -7 60 6 40 10 -16 24 -61 32 -100z m-163 -98 c74 21 207 24 187 4 -43 -43
-306 -44 -280 -1 11 17 16 17 22 1 5 -16 27 -17 71 -4z m-31 -560 c51 -27 52
-24 25 47 -17 47 -15 51 35 51 66 0 141 -98 158 -204 l11 -70 -95 -13 c-188
-26 -222 -19 -267 54 -64 104 -30 168 41 78 25 -32 24 -32 -8 -7 -43 33 -69
18 -28 -15 34 -28 98 -8 79 24 -10 17 -6 17 15 1 52 -39 95 -46 106 -18 7 17
1 24 -15 18 -27 -10 -189 109 -191 140 -1 11 19 1 44 -22 25 -23 65 -51 90
-64z m334 7 c34 -35 43 -99 11 -79 -11 7 -20 4 -20 -7 0 -11 11 -25 25 -31 20
-10 20 -14 0 -24 -37 -17 -30 -44 10 -41 19 2 41 19 49 38 16 38 56 48 56 15
0 -11 -18 -36 -40 -55 -22 -18 -40 -51 -40 -72 0 -25 -10 -33 -30 -26 -16 7
-30 3 -30 -8 0 -10 9 -19 20 -19 11 0 20 -13 20 -30 0 -17 18 -30 41 -30 23 0
36 -9 29 -20 -7 -11 -30 -20 -51 -20 -22 0 -39 -10 -39 -21 0 -12 -8 -16 -18
-10 -10 6 -13 -9 -7 -32 l12 -44 16 43 c19 52 42 56 78 12 22 -26 22 -34 -2
-49 -28 -18 -39 -21 -97 -26 -16 -2 -32 -14 -37 -28 -5 -14 3 -21 18 -16 61
22 137 27 137 10 0 -11 -11 -19 -25 -19 -18 -1 -17 -5 3 -18 15 -10 21 -27 14
-38 -7 -12 -4 -26 6 -33 21 -12 6 -91 -18 -91 -8 0 -10 -24 -4 -53 6 -34 2
-48 -11 -40 -12 7 -25 3 -29 -10 -12 -36 -56 -1 -56 44 0 22 -9 39 -20 39 -12
0 -12 -18 0 -51 26 -67 25 -70 -8 -57 -16 6 -34 33 -41 59 -14 59 -42 63 -70
10 -30 -55 -25 -78 7 -35 27 35 66 0 55 -50 -1 -8 11 -9 27 -3 19 7 30 -1 30
-20 0 -18 -11 -27 -26 -22 -17 7 -27 -11 -30 -51 -5 -67 26 -82 46 -21 7 23
24 35 41 28 16 -6 24 -19 18 -29 -6 -10 3 -18 20 -18 17 0 31 -9 31 -19 0 -11
-13 -15 -30 -8 -20 7 -30 -1 -30 -26 -1 -31 -4 -32 -20 -7 -17 26 -19 25 -20
-5 0 -19 -10 -35 -21 -35 -12 0 -16 9 -9 20 7 11 4 20 -7 20 -10 0 -19 -31
-19 -70 0 -73 26 -95 42 -35 5 19 10 6 12 -29 1 -50 -5 -62 -28 -53 -17 6 -30
0 -30 -15 0 -20 -5 -21 -24 -2 -31 31 -63 31 -44 1 10 -17 3 -19 -24 -9 -61
25 -146 31 -157 13 -6 -10 -31 -13 -56 -9 -25 5 -2 -11 51 -35 115 -51 112
-87 -8 -87 l-88 0 -6 85 c-6 74 -1 85 35 85 32 0 41 13 41 60 0 33 7 60 16 60
9 0 14 -27 12 -60 -4 -57 0 -60 74 -60 67 0 78 6 81 45 l2 45 9 -45 c5 -25 17
-45 26 -45 25 0 49 141 28 157 -24 17 -28 83 -6 83 10 0 18 16 18 36 0 32 -13
35 -106 24 -59 -6 -128 -5 -155 2 -47 14 -48 14 -4 16 25 1 45 13 45 27 1 18
5 18 18 -2 12 -20 36 -23 85 -12 44 9 57 19 37 27 -16 7 -31 23 -32 37 -5 58
-10 65 -48 65 -22 0 -40 -11 -40 -25 -1 -20 -4 -20 -17 0 -18 29 -226 30 -244
1 -7 -9 -28 1 -49 24 -23 25 -27 40 -12 40 33 0 75 44 88 91 7 29 10 24 12
-16 1 -32 -9 -55 -23 -56 -15 0 -11 -11 10 -27 42 -32 135 -18 135 20 0 16 9
28 20 28 29 0 24 38 -9 71 -33 34 -71 38 -71 8 0 -12 9 -16 20 -9 11 7 20 -10
20 -39 0 -35 -11 -51 -35 -51 -30 1 -31 3 -5 21 27 17 27 23 -1 44 -46 38 -27
91 29 80 42 -8 46 -3 37 45 -8 39 -15 46 -27 27 -13 -21 -17 -18 -18 9 0 20
-9 31 -20 24 -11 -7 -20 -3 -20 9 0 28 46 27 76 -3 13 -13 24 -40 24 -60 0
-33 92 -53 170 -37 11 3 49 5 85 5 60 0 65 5 63 63 -2 49 -5 54 -15 23 -9 -29
-33 -41 -83 -44 -38 -3 -59 0 -45 6 14 6 25 23 25 38 0 15 11 31 25 37 16 6
13 10 -8 11 -17 1 -43 -24 -56 -55 -30 -74 -127 -79 -137 -8 -4 25 -15 40 -25
34 -11 -6 -19 -1 -19 11 0 13 -20 21 -45 19 -85 -7 -135 1 -135 21 0 10 41 17
90 14 76 -4 90 1 90 31 0 31 -7 33 -42 14 -46 -25 -83 -7 -40 20 15 9 21 27
13 39 -7 12 -7 22 1 22 20 0 108 -99 108 -121 0 -10 13 -19 29 -19 18 0 25 12
18 30 -6 16 -19 25 -29 19 -10 -6 -18 7 -18 30 0 55 41 53 55 -3 11 -42 12
-42 29 -5 12 30 14 26 6 -16 -7 -37 -2 -55 15 -55 14 0 26 23 28 51 4 66 24
86 48 48 17 -25 21 -25 39 1 17 27 19 27 20 0 1 -23 6 -22 22 5 28 49 61 23
46 -36 -7 -27 -4 -49 6 -49 22 0 25 26 25 170 0 124 -7 174 -26 205 -33 53 10
79 56 34z m-753 -194 c15 -69 28 -138 30 -155 2 -16 13 -36 24 -44 13 -10 12
-28 -4 -54 -19 -31 -19 -41 3 -49 51 -19 26 -140 -36 -170 l-55 -26 13 -174
c7 -95 16 -184 20 -197 4 -14 0 -29 -9 -35 -14 -9 -42 230 -50 422 -1 35 -9
70 -17 79 -8 8 1 33 20 55 19 22 25 34 12 26 -54 -31 -91 8 -57 59 27 43 28
48 0 48 -38 0 -39 28 -2 58 24 20 24 39 2 123 -15 57 -19 104 -8 110 10 6 18
35 18 64 0 96 65 0 96 -140z m144 141 c0 -11 28 -59 63 -108 65 -90 59 -205
-8 -183 -31 10 -45 75 -16 75 11 0 22 -16 23 -35 1 -22 5 -26 12 -9 18 46 -13
124 -49 123 -33 0 -33 -2 1 -27 32 -25 32 -28 3 -40 -48 -18 -69 3 -69 70 0
35 -8 55 -20 48 -11 -7 -21 -5 -23 4 -13 85 -9 96 36 99 26 1 47 -6 47 -17z
m-331 -363 c-40 -57 -37 -113 6 -113 28 -1 29 -4 7 -18 -15 -10 -21 -28 -13
-40 8 -13 3 -21 -13 -17 -14 3 -41 32 -60 65 -40 70 -49 180 -13 158 15 -9 18
-5 9 9 -9 14 4 40 31 62 61 49 96 -35 46 -106z m-109 84 c0 -42 -63 -137 -91
-137 -16 0 -29 -9 -29 -20 0 -11 -12 -20 -27 -20 -46 0 -74 -90 -50 -160 12
-34 17 -67 11 -72 -6 -6 -16 16 -23 49 -19 84 -80 63 -63 -21 7 -36 4 -53 -8
-46 -22 14 -26 71 -8 118 7 18 20 27 30 21 10 -6 18 3 18 20 0 17 -9 31 -20
31 -11 0 -37 17 -59 39 -53 53 -11 91 68 61 29 -11 48 -12 42 -2 -30 49 42
123 79 82 52 -57 70 -50 70 29 0 54 7 67 30 58 17 -6 30 -20 30 -30z m-462
-414 c12 -59 12 -81 -1 -68 -26 26 -56 159 -40 175 14 14 15 12 41 -107z m902
-102 c0 -9 -20 -22 -45 -28 -44 -12 -44 -12 -5 -44 29 -24 31 -30 7 -22 -17 5
-41 1 -52 -10 -13 -13 -16 -1 -9 36 15 79 104 137 104 68z m57 -63 c-23 -15
-23 -17 0 -18 16 0 22 -12 16 -30 -7 -16 -3 -30 8 -30 10 0 19 23 19 51 0 47
3 49 31 20 29 -28 29 -34 0 -62 -38 -39 -38 -48 0 -99 24 -31 34 -34 47 -14
12 21 21 20 41 -5 22 -26 20 -31 -12 -31 -28 -1 -31 -5 -10 -18 39 -25 20 -92
-27 -93 -22 0 -38 -12 -35 -25 3 -13 -4 -24 -15 -24 -11 0 -20 -14 -20 -31 0
-17 9 -26 20 -19 11 7 20 -10 20 -39 0 -30 -11 -51 -28 -51 -30 0 -52 42 -52
102 0 21 -13 38 -30 38 -35 0 -38 -27 -9 -81 16 -31 14 -39 -10 -39 -25 0 -31
25 -29 125 2 69 7 107 13 85 9 -37 39 -69 67 -70 6 0 13 61 15 135 3 88 -3
125 -15 107 -14 -22 -20 -21 -28 10 -8 32 -10 31 -12 -7 -2 -45 -42 -65 -42
-21 0 79 84 237 97 181 4 -16 -5 -38 -20 -47z m1044 -183 c19 -41 29 -75 21
-75 -21 0 -82 135 -80 176 1 27 3 28 12 4 6 -16 27 -64 47 -105z m-661 5 c0
-40 -10 -50 -50 -50 -35 0 -50 11 -50 36 0 28 10 34 41 24 36 -12 39 -7 28 43
-9 44 -7 50 9 27 12 -16 22 -52 22 -80z m233 -440 c-8 -40 -4 -60 13 -61 13 0
5 -11 -18 -25 -23 -13 -38 -37 -32 -52 5 -17 0 -22 -14 -14 -16 11 -16 1 1
-36 18 -41 30 -47 60 -30 20 10 38 15 40 9 1 -6 4 -18 5 -26 23 -96 70 -136
102 -85 7 11 5 20 -5 20 -9 0 -18 19 -20 42 -4 54 -3 52 73 -90 66 -125 86
-216 31 -143 -24 32 -29 33 -29 6 0 -47 -22 -54 -88 -28 -52 22 -54 27 -24 51
29 24 31 23 20 -5 -7 -18 -2 -33 10 -33 13 0 20 29 17 70 -6 79 -4 77 -58 48
-23 -12 -35 -33 -29 -50 6 -15 4 -28 -4 -27 -23 1 -116 58 -95 58 10 1 0 18
-23 40 -26 24 -57 34 -84 27 -30 -7 -42 -1 -42 22 0 17 -13 32 -30 32 -16 0
-30 -9 -30 -19 0 -11 -12 -15 -27 -9 -15 6 -33 -3 -39 -20 -9 -21 -3 -26 20
-18 21 8 28 5 19 -9 -7 -12 -2 -25 12 -30 14 -5 25 -26 25 -47 0 -22 14 -38
34 -38 18 0 40 -7 48 -15 7 -8 28 2 46 22 23 26 44 33 72 21 39 -15 39 -16 -5
-29 -25 -8 -45 -21 -45 -30 0 -9 -6 -32 -13 -52 -10 -26 -1 -22 30 13 27 32
39 37 31 16 -7 -20 2 -49 20 -67 18 -17 32 -38 32 -46 0 -24 -119 -61 -131
-41 -6 10 -31 18 -55 17 -40 0 -41 -2 -10 -26 31 -23 27 -26 -30 -27 -70 0
-103 29 -72 67 13 15 13 28 -1 36 -30 19 -61 -5 -49 -38 15 -38 -25 -57 -67
-33 -32 19 -31 21 8 21 40 1 44 12 29 77 -1 4 -17 -8 -34 -26 -38 -37 -65 -24
-32 15 25 31 24 115 -1 115 -10 0 -12 9 -5 20 7 11 4 20 -7 20 -11 0 -15 20
-11 45 5 25 3 34 -3 20 -10 -19 -19 -18 -41 4 -36 36 -36 58 1 44 37 -14 9 58
-73 183 -78 119 -63 199 22 119 17 -16 30 -17 35 -4 4 11 45 16 91 12 88 -8
345 30 396 59 45 25 46 23 33 -42z m405 -53 c-14 -17 -10 -26 16 -33 29 -8 28
-10 -8 -12 -52 -2 -86 74 -44 99 34 22 63 -21 36 -54z m-1238 -697 c0 -149
-13 -174 -72 -135 -25 16 29 285 57 285 8 0 15 -67 15 -150z m-120 -95 c0 -29
-8 -31 -55 -13 -63 24 -92 61 -62 80 32 20 117 -28 117 -67z m1120 -92 c0 -35
55 -67 66 -39 6 14 10 -1 10 -34 0 -78 10 -119 40 -155 31 -37 11 -55 -59 -55
-31 0 -57 -10 -57 -22 0 -15 31 -18 95 -10 88 12 92 11 56 -17 -91 -72 -162
-33 -176 97 -7 59 -4 87 7 70 32 -51 19 16 -22 112 -22 51 -40 108 -40 125 0
26 8 24 40 -10 22 -24 40 -52 40 -62z m175 -117 c32 -70 32 -86 -5 -86 -32 0
-33 2 -39 85 -4 70 12 70 44 1z m-1137 -231 c2 -70 -1 -74 -37 -51 -22 14 -33
29 -25 35 30 23 26 90 -8 115 -20 14 -25 26 -13 26 13 0 30 34 38 75 l16 75
14 -100 c7 -55 14 -134 15 -175z m-108 -46 l60 -29 -69 10 c-39 6 -79 20 -89
30 -30 30 28 23 98 -11z m-14 -894 c5 -79 1 -93 -25 -83 -24 10 -31 -3 -31
-59 0 -39 -9 -76 -20 -83 -14 -9 -16 33 -8 124 7 75 14 152 15 172 4 83 63 23
69 -71z"/>
<path d="M1595 3547 c32 -13 33 -101 1 -112 -15 -5 -11 -13 10 -21 22 -8 34
-3 34 17 0 16 9 29 20 29 11 0 20 10 20 21 0 31 -52 79 -84 77 -20 -1 -20 -4
-1 -11z"/>
<path d="M1743 3508 c-19 -41 -19 -50 2 -43 14 5 25 18 25 30 0 12 7 28 15 37
8 8 15 0 15 -19 0 -18 10 -33 22 -33 12 0 17 14 10 32 -7 17 -12 35 -12 40 0
31 -58 -2 -77 -44z"/>
<path d="M2030 3497 c10 -26 1 -31 -49 -25 -33 4 -61 -2 -61 -12 0 -27 114
-25 131 2 7 12 3 32 -10 45 -18 17 -20 15 -11 -10z"/>
<path d="M1456 3000 c-9 -59 9 -80 35 -39 7 12 26 17 41 11 16 -6 28 2 28 20
0 17 -9 25 -20 18 -11 -7 -20 2 -20 19 0 57 -55 32 -64 -29z"/>
<path d="M1770 2120 c-7 -11 -3 -20 9 -20 12 0 17 -30 12 -75 -4 -41 -4 -60 2
-41 5 19 28 40 51 47 27 9 33 18 18 28 -13 8 -18 29 -11 48 15 37 -59 49 -81
13z"/>
<path d="M1310 2340 c-22 -35 -29 -289 -10 -320 19 -30 30 35 21 124 -2 19 7
54 20 77 15 29 16 50 2 64 -11 11 -15 32 -9 47 12 32 -6 38 -24 8z"/>
</g>
</svg>
