<?xml version="1.0" standalone="no"?>
<!DOCTYPE svg PUBLIC "-//W3C//DTD SVG 20010904//EN"
 "http://www.w3.org/TR/2001/REC-SVG-20010904/DTD/svg10.dtd">
<svg version="1.0" xmlns="http://www.w3.org/2000/svg"
 width="300.000000pt" height="189.000000pt" viewBox="0 0 300.000000 189.000000"
 preserveAspectRatio="xMidYMid meet">
<metadata>
Created by potrace 1.10, written by Peter Selinger 2001-2011
</metadata>
<g transform="translate(0.000000,189.000000) scale(0.050000,-0.050000)"
fill="#000000" stroke="none">
<path d="M3478 3669 c-131 -41 -179 -99 -67 -80 119 20 184 -12 200 -98 19
-102 10 -118 -229 -397 -45 -53 -82 -114 -82 -136 0 -22 -11 -38 -25 -35 -30
6 -167 -121 -160 -148 4 -10 -3 -12 -14 -5 -11 6 -43 -4 -70 -24 -48 -35 -67
-69 -36 -64 83 14 225 -110 225 -196 0 -56 -1 -56 -90 -6 -39 22 -96 40 -126
39 -46 0 -41 -6 41 -42 127 -56 122 -84 -10 -67 -133 17 -224 68 -164 92 30
12 32 15 6 17 -32 1 -57 40 -57 91 0 28 109 75 128 55 7 -6 12 -1 12 12 0 28
-137 31 -209 3 -39 -15 -51 -13 -51 8 0 30 7 33 190 104 l120 46 -146 1 c-118
1 -148 -5 -158 -33 -12 -30 -15 -29 -27 5 -14 38 -15 38 -31 -1 -24 -61 -54
-84 -103 -81 -58 5 -84 31 -29 31 47 0 113 79 87 105 -21 21 -203 31 -190 10
9 -15 -23 -30 -148 -71 -80 -25 -69 1 15 36 33 14 60 33 60 43 0 10 -22 3 -50
-15 -27 -18 -50 -25 -50 -16 0 9 -14 -3 -31 -28 -19 -27 -27 -62 -19 -89 10
-36 8 -39 -9 -15 -18 26 -23 26 -40 1 -12 -20 -8 -36 14 -52 29 -21 28 -25 -5
-44 -22 -12 -31 -32 -24 -53 7 -17 4 -32 -7 -32 -10 0 -19 22 -19 48 0 36 -22
61 -85 98 -196 115 -455 414 -455 525 0 50 84 149 127 149 14 0 14 7 1 20 -22
22 -218 -27 -238 -60 -14 -22 -135 -78 -370 -169 -438 -169 -953 -506 -883
-576 14 -14 11 -35 -8 -64 -32 -49 -73 -236 -48 -220 25 15 34 -36 17 -97 -9
-32 -7 -80 4 -109 11 -29 14 -87 7 -129 -16 -94 -5 -96 48 -6 41 70 98 93 111
45 3 -14 17 -56 31 -95 30 -85 45 -155 45 -215 0 -25 13 -45 28 -45 35 0 35
-9 -1 -78 -16 -32 -24 -62 -17 -69 6 -7 0 -26 -14 -43 -39 -47 -1 -36 74 22
74 56 202 90 175 46 -9 -15 -7 -19 6 -11 49 30 88 -9 45 -47 -22 -19 -40 -45
-40 -57 0 -13 -9 -23 -21 -23 -22 0 -75 -110 -85 -177 -3 -20 -21 -60 -40 -89
-20 -32 -26 -57 -14 -64 13 -8 13 -26 -1 -52 -11 -21 -15 -49 -7 -62 9 -14 5
-17 -12 -6 -20 12 -23 7 -13 -18 7 -20 13 -39 13 -44 0 -4 14 -8 32 -8 24 0
20 -14 -21 -62 -37 -45 -46 -70 -32 -87 11 -14 14 -31 6 -40 -8 -8 9 -12 38
-8 69 9 137 -53 137 -125 0 -42 11 -57 45 -63 43 -8 42 -9 -11 -31 -31 -13
-51 -33 -43 -45 8 -14 28 -11 60 10 41 26 50 27 75 2 16 -16 35 -23 43 -16 7
8 8 0 1 -17 -23 -60 154 -115 226 -71 14 9 24 5 24 -11 0 -14 21 -36 47 -47
58 -28 133 3 133 54 0 20 14 37 30 37 34 0 39 23 10 52 -13 13 -8 20 15 22
105 8 148 25 186 73 23 29 50 49 59 43 10 -6 24 0 32 13 9 15 5 18 -12 7 -17
-11 -21 -8 -12 7 8 13 28 23 45 23 17 0 57 18 88 41 40 28 73 36 110 27 29 -7
44 -19 33 -26 -11 -6 80 -14 203 -17 263 -6 335 18 165 56 -93 21 -133 21
-213 1 -99 -26 -99 -26 -160 39 -67 71 -43 174 34 145 23 -9 29 -5 19 11 -10
16 7 32 46 45 48 17 58 29 44 55 -9 18 -14 51 -9 73 11 63 -11 130 -43 130
-17 0 -30 -9 -30 -20 0 -11 -13 -20 -30 -20 -40 0 -38 19 5 53 33 25 32 26 -5
21 -56 -7 -93 -33 -79 -56 6 -10 -4 -34 -22 -52 -22 -22 -26 -37 -12 -42 29
-9 30 -44 2 -44 -11 0 -28 20 -38 45 l-18 45 -2 -46 c0 -25 -15 -50 -31 -57
-16 -6 -30 -20 -30 -30 0 -11 9 -14 20 -7 11 7 20 2 20 -11 0 -13 -14 -18 -32
-11 -17 7 -51 -2 -74 -18 -24 -17 -68 -30 -100 -30 -31 0 -51 -8 -45 -18 6
-10 -2 -23 -19 -29 -16 -6 -38 4 -50 23 -16 26 -19 16 -10 -44 11 -80 -33
-185 -69 -163 -9 6 -46 -16 -81 -49 -66 -62 -225 -76 -258 -24 -6 11 -30 23
-52 27 -85 16 -139 297 -58 297 22 0 25 -19 16 -80 -24 -148 123 -268 281
-229 57 15 68 69 22 115 -33 33 -21 57 21 40 33 -12 38 36 6 68 -49 49 -208
-24 -184 -86 6 -16 -6 -25 -32 -23 -26 2 -42 17 -42 41 0 20 -9 54 -21 75 -15
28 -12 54 10 96 16 32 24 64 17 71 -7 7 7 31 30 53 24 22 44 51 44 64 0 14
-10 11 -25 -6 -14 -16 -23 -26 -21 -22 3 5 -18 26 -45 47 -61 49 -63 90 -4 88
38 -2 44 7 38 55 -4 38 1 53 15 44 19 -12 33 41 24 94 -1 8 11 15 28 15 16 0
30 11 30 25 1 16 6 18 15 4 55 -76 208 -52 236 36 7 19 21 35 32 35 10 0 14
-9 7 -19 -6 -11 17 -8 52 7 35 15 77 48 92 74 27 45 28 45 20 5 -9 -40 4 -46
176 -79 182 -34 186 -36 165 -80 -16 -35 -13 -53 12 -78 33 -32 73 -26 73 12
0 11 -9 15 -20 8 -11 -7 -20 -2 -20 10 0 36 108 13 136 -30 21 -31 24 -32 16
-5 -8 26 1 36 34 37 39 2 40 4 5 13 -21 5 -56 31 -76 57 -21 27 -48 42 -60 35
-12 -8 -15 -4 -7 10 8 13 5 23 -5 23 -11 0 -26 19 -34 43 -10 30 -18 35 -29
17 -21 -33 -61 -7 -47 31 8 20 2 26 -19 18 -73 -28 -150 147 -90 207 34 34 56
30 56 -13 0 -20 23 -48 51 -63 28 -15 47 -37 42 -49 -4 -11 0 -39 8 -61 13
-32 16 -33 18 -6 0 18 11 40 24 48 13 8 18 5 11 -6 -7 -11 8 -31 33 -45 26
-13 62 -51 81 -83 19 -32 44 -53 56 -45 15 9 17 -4 9 -40 -8 -29 -5 -53 5 -53
10 0 26 29 34 65 9 36 17 72 19 80 2 8 5 29 7 46 1 17 11 26 22 19 11 -7 20 2
20 20 0 19 14 29 34 26 19 -3 51 20 75 54 40 59 74 74 102 46 7 -8 -40 -80
-106 -160 -123 -151 -148 -190 -231 -376 -50 -113 -30 -171 41 -115 14 11 25
12 25 2 0 -10 -28 -35 -61 -55 -96 -56 -76 -126 55 -194 272 -142 371 -338
171 -338 -38 0 -136 -95 -117 -114 44 -44 273 -20 311 32 22 32 65 64 96 71
130 33 133 70 12 201 -51 55 -113 146 -139 203 -25 57 -65 121 -89 143 l-42
40 53 37 c29 20 78 57 109 82 77 61 81 59 82 -50 1 -77 5 -87 20 -50 29 72 52
52 52 -45 l0 -89 -71 7 c-40 4 -56 3 -37 -2 40 -10 48 -46 10 -47 -14 0 0 -14
30 -30 30 -17 55 -41 55 -55 1 -17 6 -16 18 3 12 20 21 21 31 4 11 -17 23 -16
47 3 37 31 21 -5 -34 -74 -31 -39 -31 -39 8 -8 83 66 114 64 107 -7 -6 -69 12
-115 45 -115 11 0 15 9 8 20 -7 11 -3 20 9 20 11 0 21 -8 21 -18 0 -35 75 2
100 48 33 61 -32 174 -121 210 -33 14 -70 43 -82 65 -15 29 -26 34 -37 16 -8
-14 -30 -22 -49 -18 -30 6 -29 15 15 79 27 39 58 98 70 130 20 57 21 57 23 8
l2 -50 29 50 c17 30 29 38 30 20 0 -25 4 -25 18 -2 10 15 27 21 38 15 12 -8
16 4 10 32 -5 26 12 9 42 -41 28 -48 78 -119 111 -160 34 -40 61 -97 61 -126
0 -53 79 -177 159 -248 56 -49 101 -134 101 -189 0 -23 8 -41 19 -41 31 0 -12
-116 -68 -182 -80 -96 -69 -136 34 -126 47 5 123 13 169 17 171 15 232 167
123 309 -20 26 -37 60 -37 75 0 16 -13 49 -30 74 -32 49 -88 331 -92 463 -2
70 -4 74 -18 30 -15 -46 -16 -45 -20 20 l-3 70 -25 -70 -26 -70 -14 110 c-17
133 -71 338 -142 540 -86 247 -85 226 -10 185 46 -25 67 -28 74 -12 9 26 104
16 135 -14 36 -36 125 -19 182 34 74 68 159 48 160 -39 0 -54 10 -64 53 -49
16 5 13 26 -9 71 -20 41 -28 91 -21 143 9 66 5 81 -21 81 -18 0 -33 14 -33 32
0 17 -67 104 -149 193 -83 88 -144 170 -137 181 7 11 3 14 -9 7 -11 -7 -26 7
-32 32 -7 25 -39 74 -72 109 -113 119 -22 91 100 -31 66 -65 132 -124 147
-130 15 -5 -17 34 -71 88 -103 103 -119 139 -62 140 31 0 30 3 -5 23 -39 22
-69 55 -70 77 0 6 31 11 69 11 37 0 64 -7 59 -15 -5 -8 2 -21 15 -29 16 -10
19 2 9 41 -8 33 -6 50 6 43 11 -8 13 9 4 41 -10 39 -3 65 25 97 l39 43 67 -70
c37 -39 67 -78 67 -86 0 -7 35 -50 78 -95 43 -45 87 -106 96 -135 10 -29 33
-56 52 -58 18 -3 48 -20 65 -37 18 -18 36 -32 41 -32 12 0 -33 86 -51 100 -49
37 -164 183 -129 164 23 -12 53 -36 67 -53 37 -44 59 -38 46 11 -11 45 -202
178 -254 178 -21 0 -31 19 -31 58 0 58 -50 100 -66 56 -6 -15 -15 -11 -24 12
-19 47 3 68 45 42 21 -14 56 -14 106 -1 68 18 81 15 158 -46 87 -69 133 -70
71 0 -60 65 -156 117 -237 125 -90 10 -149 54 -72 54 27 0 62 -9 78 -19 16
-10 37 -13 47 -7 10 6 6 19 -9 28 -21 14 -20 17 6 18 18 0 72 -32 120 -72 101
-83 139 -121 102 -100 -14 8 -10 -11 10 -47 34 -59 85 -97 85 -63 0 10 -13 23
-30 29 -16 7 -30 23 -30 37 0 14 29 -6 65 -44 36 -39 83 -84 106 -100 58 -42
100 -192 66 -236 -14 -19 -18 -27 -8 -19 10 8 34 0 54 -18 38 -34 60 23 23 60
-7 8 -25 46 -38 86 -27 78 -26 77 69 -46 69 -90 132 -224 114 -242 -6 -7 -11
-5 -11 4 0 9 -14 5 -30 -9 -26 -21 -34 -15 -53 39 -14 41 -32 60 -49 53 -16
-6 -28 -2 -28 9 0 10 -8 19 -18 19 -10 0 -13 -20 -7 -45 8 -37 6 -40 -16 -20
-45 42 -62 28 -19 -15 22 -22 50 -40 61 -40 12 0 15 -11 7 -23 -10 -16 -4 -20
17 -12 39 15 88 -34 56 -55 -12 -7 -18 -19 -13 -27 17 -28 -21 -64 -54 -52
-19 7 -29 21 -23 30 6 10 23 12 40 6 16 -6 29 -6 29 2 0 39 -91 44 -101 5 -9
-37 -19 -31 -98 52 -48 52 -99 94 -114 94 -25 0 7 -48 90 -134 15 -15 21 -34
13 -42 -9 -8 -19 -3 -24 11 -5 14 -22 25 -37 25 -14 0 -40 19 -56 41 -18 27
-34 34 -42 20 -17 -26 7 -106 37 -126 14 -9 9 -15 -13 -15 -23 0 -35 -16 -35
-47 0 -26 -6 -89 -13 -140 -15 -114 11 -120 57 -13 18 45 47 80 65 80 47 0 37
39 -14 58 -30 11 2 16 98 13 110 -2 140 3 133 23 -13 32 3 33 53 2 29 -18 50
-18 85 -2 62 30 116 47 116 36 0 -23 -196 -97 -245 -92 -35 3 -59 -6 -67 -26
-7 -18 -20 -27 -29 -21 -9 5 -28 -2 -42 -17 -14 -15 -46 -23 -71 -18 -50 9
-68 -44 -21 -63 15 -6 12 -10 -9 -11 -18 -1 -40 -12 -48 -25 -22 -36 89 -2
161 49 33 24 72 41 86 38 14 -3 41 4 60 15 28 17 23 19 -25 11 -48 -9 -52 -7
-20 8 22 11 68 20 103 21 74 1 487 157 487 183 0 10 10 18 21 18 12 0 16 -9 9
-20 -7 -12 20 -5 60 14 40 19 64 38 53 42 -12 4 -42 -4 -67 -18 -42 -22 -44
-22 -19 9 19 22 58 33 118 33 80 0 89 4 79 40 -6 22 -3 35 6 30 9 -6 23 17 30
50 8 35 26 60 44 60 20 0 26 11 17 34 -7 19 -7 29 1 21 23 -24 92 26 80 58 -9
22 -2 26 28 17 22 -7 51 -5 65 3 14 9 34 17 45 18 11 2 31 4 45 6 47 6 25 83
-47 162 -303 335 -1095 662 -1670 689 -117 5 -234 14 -260 20 -26 5 -90 -3
-140 -19z m818 -299 c151 -141 344 -298 344 -278 0 7 14 2 30 -12 20 -17 30
-18 30 -3 0 12 -23 28 -51 35 -37 9 -47 22 -39 49 12 38 -62 106 -94 87 -9 -6
-15 1 -11 15 3 14 -26 41 -63 61 -38 19 -83 49 -100 66 -83 84 254 -93 354
-186 136 -125 152 -137 138 -99 -11 30 -4 29 47 -9 62 -46 66 -54 47 -104 -18
-48 -69 -39 -135 23 l-58 55 13 -58 c21 -85 190 -297 226 -283 16 6 38 11 48
11 36 0 17 31 -40 63 -68 39 -126 125 -69 103 23 -9 29 -5 19 11 -11 17 -1 22
31 16 39 -7 48 1 51 47 5 73 -245 325 -276 278 -16 -24 -22 -23 -38 5 -11 19
-54 54 -95 79 -41 25 -79 51 -85 58 -5 7 -44 33 -86 58 -42 26 -72 51 -67 56
12 12 168 -69 245 -127 65 -49 99 -61 78 -27 -25 41 133 -30 213 -96 19 -15
46 -29 61 -31 34 -5 173 -92 149 -93 -10 0 -6 -15 10 -34 16 -20 17 -28 3 -19
-15 9 -23 0 -21 -26 3 -32 9 -34 32 -15 23 19 31 19 38 -1 5 -14 29 -25 55
-25 33 0 57 -22 88 -81 50 -95 53 -128 12 -112 -16 7 -30 3 -30 -8 0 -10 -10
-19 -22 -19 -12 0 -17 14 -11 30 7 17 3 30 -8 30 -10 0 -20 16 -20 35 -3 57
-36 -33 -38 -101 -2 -85 -99 -170 -138 -120 -25 32 -27 32 -17 2 7 -19 4 -40
-7 -47 -10 -6 -19 -28 -19 -49 0 -20 -11 -40 -25 -45 -20 -7 -20 -15 1 -40 14
-17 18 -36 8 -42 -27 -17 -124 95 -265 307 -85 127 -219 283 -408 472 -235
235 -272 280 -225 272 34 -5 111 -60 190 -134z m-370 48 c87 -44 392 -278 393
-302 1 -7 62 -78 136 -156 135 -144 202 -240 168 -240 -29 0 -64 52 -48 70 8
9 4 10 -8 3 -14 -8 -97 61 -204 169 -150 153 -188 181 -227 172 -38 -10 -41
-8 -16 12 26 21 21 33 -38 94 -38 39 -56 52 -41 30 18 -26 7 -21 -32 14 -32
30 -101 73 -153 95 -52 23 -100 51 -106 62 -22 35 90 20 176 -23z m-2757 -287
c-56 -56 -231 -140 -217 -104 8 22 222 151 252 152 8 1 -8 -21 -35 -48z m244
-127 c-29 -31 -47 -64 -38 -74 8 -9 5 -11 -7 -4 -21 12 -208 -202 -208 -237 0
-8 20 12 45 43 112 146 170 188 111 82 -14 -24 -26 -69 -28 -100 l-3 -55 42
45 c24 25 45 76 47 114 2 37 12 76 22 86 12 12 16 -2 10 -37 l-9 -57 39 44
c22 24 45 39 52 32 6 -7 12 3 12 22 0 20 9 29 22 21 12 -8 18 -35 13 -61 -5
-27 -1 -48 9 -48 10 0 13 -8 7 -18 -13 -22 27 -18 65 5 28 18 23 -23 -25 -187
-14 -49 -33 -117 -41 -150 -8 -33 -19 -48 -24 -34 -9 24 -65 -56 -97 -139 -15
-39 -84 -62 -94 -32 -4 11 -22 5 -41 -14 -32 -32 -34 -30 -29 36 3 38 11 66
17 61 7 -4 18 31 24 77 6 46 21 87 32 91 23 8 108 185 95 198 -5 4 -36 -41
-70 -102 -34 -60 -80 -115 -103 -122 -34 -11 -37 -19 -19 -41 14 -17 17 -43 8
-64 -8 -19 -14 -48 -11 -65 3 -27 1 -27 -17 0 -18 26 -20 26 -21 -1 0 -17 10
-41 22 -53 28 -28 -6 -49 -43 -25 -19 12 -21 18 -5 19 15 0 20 14 12 32 -11
29 -14 29 -32 -3 -23 -41 31 -94 78 -75 16 6 28 -2 28 -20 0 -17 5 -45 12 -62
8 -21 -4 -38 -38 -50 -27 -11 -55 -31 -60 -46 -6 -14 -9 2 -5 36 4 47 -3 62
-27 60 -35 -2 -43 105 -12 178 14 34 10 33 -26 -8 -24 -26 -38 -55 -32 -65 6
-9 0 -17 -13 -17 -14 0 -19 -17 -13 -40 6 -23 0 -40 -13 -40 -16 -1 -15 -6 2
-17 19 -11 11 -29 -30 -64 l-55 -49 56 -6 c54 -7 56 -11 51 -106 -4 -103 -24
-141 -44 -88 -7 17 -1 30 13 31 13 0 -3 13 -36 28 -33 15 -53 30 -45 32 22 6
53 14 67 17 7 1 2 15 -10 30 -13 16 -42 23 -65 17 -23 -6 -48 0 -56 13 -11 18
-21 16 -40 -7 -18 -21 -19 -31 -3 -31 37 0 25 -78 -18 -115 -22 -18 -40 -45
-40 -59 0 -15 -8 -26 -18 -26 -10 0 -24 -24 -31 -52 -7 -29 -17 -49 -22 -44
-4 5 0 37 10 72 11 39 11 64 0 64 -11 0 -19 10 -19 21 0 12 9 16 20 9 23 -14
125 189 111 225 -5 14 4 25 21 25 17 0 25 9 18 20 -7 11 7 20 30 20 26 0 40
10 35 25 -5 14 17 79 48 145 31 66 57 132 57 146 0 15 8 21 19 15 16 -10 46
47 51 99 1 11 12 18 24 16 13 -3 18 12 12 35 -15 57 -36 48 -84 -32 -23 -39
-51 -66 -63 -58 -13 8 -16 -7 -7 -42 9 -34 6 -50 -5 -43 -21 13 -207 -290
-207 -336 0 -15 -9 -33 -20 -40 -11 -7 -34 -45 -51 -84 -16 -40 -35 -66 -42
-60 -7 7 -2 26 12 43 14 16 21 41 15 55 -6 16 -18 7 -31 -24 -33 -76 -107
-155 -118 -125 -4 14 -17 20 -27 14 -23 -14 -23 5 0 83 13 47 11 61 -10 61
-16 0 -28 -9 -28 -21 0 -11 -16 1 -35 29 -40 57 -51 163 -19 183 32 20 54 0
54 -50 0 -37 7 -33 47 26 27 39 44 81 38 95 -5 13 47 81 115 150 68 69 118
114 111 100 -9 -16 1 -25 26 -25 21 0 44 15 51 32 9 25 4 29 -23 19 -19 -7 0
23 44 67 43 45 82 78 86 74 16 -16 113 92 115 129 2 21 7 41 12 44 4 3 38 26
75 52 36 26 71 41 78 35 6 -7 1 -12 -13 -12 -13 0 -19 -8 -13 -18 16 -26 -89
-105 -116 -88 -14 8 -13 1 2 -18 22 -26 15 -39 -40 -81 -107 -84 -157 -136
-145 -155 13 -21 -60 -139 -138 -228 -28 -31 -46 -66 -39 -77 7 -12 26 4 42
35 20 38 34 48 44 31 11 -17 19 -14 28 12 7 20 31 64 53 97 62 94 68 113 38
133 -21 15 -18 17 12 10 32 -8 63 21 149 138 128 175 290 349 324 349 14 0 0
-25 -30 -56z m-413 -79 c-36 -41 -143 -156 -238 -255 -193 -200 -329 -359
-411 -480 l-55 -80 6 70 c3 39 14 81 24 95 13 16 11 25 -6 25 -28 0 -15 154
18 217 29 53 270 263 303 263 14 0 44 16 66 35 22 19 33 24 25 10 -24 -42 11
-28 66 26 148 145 315 206 202 74z m1392 -150 c8 -14 8 -19 -1 -12 -8 8 -50 2
-93 -14 -91 -32 -102 -23 -23 20 68 37 98 38 117 6z m-32 -50 c0 -9 25 -31 55
-50 l55 -34 -105 -3 c-58 -2 -114 -5 -125 -6 -50 -5 -24 39 30 50 33 7 53 14
44 16 -22 3 3 42 27 42 11 0 19 -7 19 -15z m-632 -128 c8 13 23 18 34 12 10
-7 17 -5 13 5 -3 9 2 18 10 21 38 13 55 2 55 -35 0 -22 -13 -40 -30 -40 -33 0
-37 -17 -13 -56 13 -21 22 -19 44 7 25 30 202 129 231 129 25 0 -143 -115
-189 -129 -24 -8 -39 -22 -33 -31 6 -9 -2 -56 -17 -104 -72 -221 -58 -277 18
-72 47 125 66 126 30 0 -11 -40 -11 -60 0 -53 11 6 19 -11 19 -39 0 -27 -9
-55 -20 -62 -11 -7 -20 -32 -20 -57 0 -24 -13 -63 -29 -86 -16 -23 -25 -47
-19 -52 6 -6 0 -17 -12 -25 -24 -15 -20 38 10 155 21 80 -7 67 -44 -20 -30
-72 -32 -73 -52 -30 -24 53 -54 59 -54 12 0 -30 -4 -30 -40 3 -22 20 -40 26
-40 14 0 -13 -13 -18 -30 -11 -18 7 -34 -3 -41 -26 -34 -108 -97 -134 -133
-55 -12 26 -33 48 -46 48 -32 0 -74 -95 -49 -110 10 -7 19 -1 20 14 0 17 9 14
27 -9 30 -40 133 -47 196 -13 36 19 40 18 30 -10 -7 -17 -4 -32 7 -32 32 0 56
-85 31 -112 -12 -13 -29 -19 -38 -14 -9 5 -31 -3 -49 -17 -18 -15 -27 -18 -20
-6 15 26 -43 65 -87 58 -41 -6 -138 -68 -138 -89 0 -8 -23 -10 -50 -5 -36 7
-50 1 -50 -21 0 -18 -9 -37 -20 -44 -12 -7 -14 3 -7 24 10 27 1 24 -34 -13
-32 -33 -39 -51 -22 -57 32 -10 -33 -62 -80 -63 -127 -3 -342 -599 -290 -805
17 -70 108 -176 151 -176 19 0 44 -10 56 -22 17 -17 49 -16 123 1 56 14 109
20 119 13 10 -6 60 16 112 49 51 32 122 72 158 87 35 16 117 78 183 139 65 61
125 107 133 102 8 -5 21 -1 28 11 7 11 19 20 27 20 8 0 -53 -71 -136 -157
-150 -157 -267 -243 -328 -243 -17 0 -49 -19 -71 -42 -74 -80 -312 -86 -455
-12 -96 50 -230 312 -187 364 18 21 36 146 39 270 1 56 6 64 23 40 18 -25 20
-25 10 5 -10 34 37 141 117 262 31 46 33 59 11 73 -56 34 -47 120 12 120 45 0
49 4 27 31 -37 45 -27 172 16 198 44 26 108 32 93 8 -6 -9 1 -17 14 -17 14 0
19 -5 13 -12 -16 -16 48 -88 79 -88 15 0 26 8 26 19 0 10 40 38 90 63 70 35
84 51 67 71 -12 15 -30 22 -39 16 -10 -6 -18 11 -18 39 0 39 8 48 32 38 27
-10 29 -6 11 29 -20 36 -17 40 20 30 35 -9 39 -4 28 32 -8 25 -5 43 6 43 11 0
19 18 18 40 -2 22 -11 40 -19 40 -28 0 -17 35 13 47 33 13 103 -46 77 -65 -35
-26 -29 -82 8 -70 32 10 32 8 -3 -20 -40 -33 -3 -90 59 -91 11 0 7 9 -10 20
-26 17 -26 23 5 47 39 29 49 63 12 40 -14 -9 -18 -5 -9 9 18 28 92 31 92 3 0
-11 9 -20 21 -20 13 0 18 46 12 125 -6 88 4 163 31 253 22 70 35 143 30 162
-22 83 33 114 57 31 13 -49 28 -69 37 -54z m832 -42 c0 -41 -19 -87 -51 -125
l-52 -60 12 57 c8 36 5 52 -8 43 -12 -7 -21 5 -21 28 0 53 33 71 56 30 15 -26
22 -28 35 -7 10 16 6 30 -8 35 -19 6 -19 15 -1 36 33 40 38 36 38 -37z m116
21 c28 -28 32 -64 5 -47 -10 6 -24 3 -31 -9 -7 -11 -2 -20 10 -20 12 0 17 -9
11 -19 -25 -41 -64 1 -55 60 9 64 23 72 60 35z m-359 -82 c24 -26 37 -53 30
-60 -8 -8 -3 -14 11 -14 71 0 -22 -178 -95 -179 -17 -1 -8 -23 25 -63 29 -34
47 -70 41 -80 -6 -10 1 -18 16 -18 49 0 77 -43 50 -77 -20 -24 -19 -27 5 -18
158 63 180 64 236 7 l54 -54 -59 22 c-33 12 -82 16 -110 8 -198 -54 -338 72
-329 297 3 63 -4 115 -14 115 -10 0 -18 -12 -18 -26 0 -39 -125 -31 -156 11
-46 61 34 149 119 131 15 -3 43 -31 62 -62 20 -31 44 -51 55 -44 10 6 0 30
-22 52 -40 40 -40 42 -5 69 49 37 53 36 104 -17z m1021 -15 c26 -22 42 -46 35
-53 -22 -22 29 -64 62 -51 24 9 29 3 19 -22 -8 -21 -2 -39 14 -45 15 -6 27
-33 27 -61 0 -55 36 -103 59 -80 8 9 6 21 -5 29 -11 8 -20 42 -20 76 1 42 -7
60 -24 53 -14 -5 -25 -1 -25 10 0 39 26 40 88 3 67 -39 81 -146 24 -182 -12
-8 -22 -26 -22 -40 0 -14 -11 -25 -25 -24 -14 1 -45 3 -70 5 -74 5 -101 70
-54 130 44 55 51 83 16 61 -13 -8 -18 -6 -11 5 6 10 -6 30 -27 43 -33 21 -39
19 -39 -13 0 -47 -31 -73 -110 -93 -33 -8 -49 -19 -36 -24 13 -5 19 -22 12
-38 -9 -25 -18 -23 -51 12 -21 24 -43 38 -49 33 -13 -14 35 -100 67 -119 23
-14 23 -21 -1 -45 -41 -41 -70 -36 -58 11 16 62 -17 47 -93 -40 -76 -89 -94
-96 -107 -45 -7 26 -10 24 -12 -10 -2 -48 -16 -54 -57 -28 -20 12 -16 25 16
54 24 21 52 57 64 79 17 33 11 32 -35 -10 l-56 -50 33 52 c19 28 56 62 84 75
62 28 75 29 59 3 -7 -11 2 -20 19 -20 20 0 31 18 31 49 0 27 15 57 34 68 31
17 31 21 -3 55 -48 48 70 109 134 70 22 -14 35 -15 35 -2 0 11 -8 20 -18 20
-10 0 -18 32 -18 70 0 80 24 87 94 29z m1562 -58 c0 -11 -14 -14 -31 -8 -17 7
-46 -1 -65 -18 -63 -53 -95 -60 -36 -7 58 51 132 70 132 33z m-2108 -47 c142
-83 173 -134 108 -180 -22 -15 -35 -32 -30 -38 16 -16 -55 -69 -125 -92 -132
-44 -275 22 -251 117 14 51 66 95 66 55 0 -30 78 -114 83 -89 1 7 4 20 6 28 2
8 10 47 19 85 34 155 41 162 124 114z m-659 -169 c48 -31 32 -124 -32 -187
-52 -51 -84 -24 -69 59 23 125 50 160 101 128z m1195 -75 c12 -22 31 -46 41
-54 11 -8 15 -18 10 -24 -18 -17 -139 71 -139 101 0 42 61 25 88 -23z m467
-35 c30 10 34 -27 5 -45 -11 -7 -31 -5 -45 3 -38 24 -73 26 -86 5 -18 -28 -49
-1 -49 42 0 35 6 36 75 12 41 -14 86 -22 100 -17z m-1861 -76 c-8 -31 -5 -36
14 -21 18 15 31 2 51 -54 33 -95 83 -154 103 -121 8 13 13 -1 11 -30 -2 -37
-13 -52 -33 -47 -16 3 -28 15 -26 27 2 11 -29 55 -68 98 -40 44 -67 66 -62 49
42 -122 43 -130 11 -104 -25 21 -37 20 -63 -7 -29 -29 -33 -29 -44 -1 -7 18
-20 27 -29 22 -23 -15 -44 25 -28 52 10 16 18 15 29 -2 25 -40 57 -5 72 76 16
88 24 104 52 104 11 0 16 -19 10 -41z m886 15 c0 -26 -80 -66 -103 -52 -23 15
-22 21 3 38 27 17 100 28 100 14z m-289 -118 c8 8 9 -12 1 -43 -10 -43 -7 -53
12 -42 14 8 7 -5 -15 -29 -51 -53 -101 -39 -115 33 -15 80 2 106 56 85 25 -10
53 -11 61 -4z m246 -84 c-4 -29 -16 -52 -27 -51 -11 2 -18 12 -15 22 4 11 -3
15 -13 8 -11 -6 -43 10 -72 37 l-53 49 76 7 c95 8 112 -4 104 -72z m270 38 c7
-18 -6 -39 -33 -53 -27 -15 -34 -27 -19 -32 14 -5 25 -23 25 -40 0 -25 -11
-22 -50 15 -53 50 -93 42 -50 -10 21 -25 19 -30 -14 -30 -21 0 -49 -11 -62
-24 -19 -19 -24 -18 -25 5 0 16 -13 0 -28 -34 -57 -131 -161 -131 -221 -1 -53
114 -57 130 -25 90 26 -32 30 -31 61 5 40 46 61 49 92 11 21 -25 182 -43 182
-19 0 5 -9 26 -20 46 -28 54 16 82 153 98 12 2 28 -10 34 -27z m161 -240 c18
-36 32 -110 32 -164 0 -54 10 -108 22 -120 26 -26 8 -67 -28 -65 -33 2 -140
171 -174 276 -48 149 82 213 148 73z m-248 22 c0 -31 -29 -72 -50 -72 -15 0
-37 -25 -49 -55 -18 -46 -20 -47 -12 -8 13 71 -55 -6 -99 -110 -35 -85 -77
-62 -59 33 11 54 13 58 -49 -80 -22 -49 -23 -48 -11 10 16 84 69 162 88 131
11 -18 19 -15 28 9 7 18 20 28 30 22 9 -6 29 12 43 39 15 27 39 49 53 49 15 0
27 9 27 20 0 11 14 20 30 20 17 0 30 -4 30 -8z m-340 -197 c-36 -150 -57 -173
-59 -63 -1 105 8 128 50 128 18 0 20 -18 9 -65z m-125 -17 c-19 -11 -35 -31
-35 -44 -1 -13 -36 -49 -79 -79 l-78 -56 -7 46 c-5 36 -17 44 -63 39 -38 -4
-54 2 -49 18 13 40 141 100 233 110 26 3 53 11 59 17 6 7 21 2 33 -10 15 -15
11 -27 -14 -41z m828 -211 c58 -52 48 -90 -17 -66 -42 17 -57 14 -71 -10 -24
-44 -48 -38 -62 13 -23 88 77 129 150 63z m-1449 -155 c-6 -15 0 -39 13 -53
18 -19 15 -22 -14 -12 -20 7 -40 13 -45 13 -4 0 -8 18 -8 40 0 23 13 40 32 40
19 0 28 -11 22 -28z m1506 3 c19 6 16 -1 -8 -20 -37 -28 -37 -30 9 -92 25 -34
41 -68 34 -74 -6 -7 -17 7 -25 30 -10 32 -24 38 -61 29 -30 -8 -49 -4 -49 10
0 12 9 22 20 22 30 0 24 52 -10 80 -24 20 -30 20 -30 -1 0 -14 -5 -20 -12 -14
-26 27 15 53 58 37 24 -9 58 -12 74 -7z m-2301 -374 c15 -27 14 -43 -2 -53
-14 -9 -18 -5 -9 9 9 15 -1 23 -27 23 -62 0 -54 34 13 58 3 1 14 -15 25 -37z"/>
<path d="M760 2417 c0 -13 -6 -18 -13 -11 -17 18 -67 -24 -67 -55 0 -13 14
-24 30 -24 17 0 26 4 20 10 -5 5 8 22 30 37 42 30 53 66 20 66 -11 0 -20 -10
-20 -23z"/>
<path d="M726 2100 c-6 -22 -18 -35 -28 -29 -30 19 -116 -52 -104 -85 7 -16 0
-37 -14 -46 -13 -8 -21 -27 -16 -41 4 -14 34 17 64 70 31 53 62 86 70 75 7
-12 27 4 46 37 19 33 25 59 13 59 -11 0 -25 -18 -31 -40z"/>
<path d="M3669 2934 c34 -51 91 -87 91 -56 0 17 -51 65 -97 91 -19 11 -17 0 6
-35z"/>
<path d="M3631 2842 c-6 -11 18 -39 54 -63 36 -24 84 -67 107 -94 26 -30 48
-41 56 -28 7 11 -18 50 -57 85 -103 94 -147 121 -160 100z"/>
<path d="M3520 2739 c0 -23 152 -177 177 -181 7 0 29 -4 48 -8 19 -3 30 2 24
12 -7 10 -20 13 -30 7 -11 -6 -19 3 -19 20 0 16 -25 57 -55 89 -60 64 -145
100 -145 61z"/>
<path d="M4121 2750 c0 -11 27 -51 59 -90 32 -38 59 -61 59 -50 0 11 -27 52
-59 90 -32 39 -59 61 -59 50z"/>
<path d="M3944 2597 c36 -54 69 -69 69 -29 0 16 -22 39 -49 51 -49 22 -49 22
-20 -22z"/>
<path d="M3883 2545 c-2 -14 -16 -25 -33 -25 -43 0 -37 -35 9 -60 22 -11 35
-33 29 -47 -5 -15 3 -37 19 -50 41 -34 63 32 25 75 -15 18 -32 55 -37 82 -5
28 -11 39 -12 25z"/>
<path d="M5293 2489 c5 -14 -52 -88 -127 -166 -146 -152 -138 -211 14 -106 65
46 65 44 -10 -22 -44 -39 -85 -62 -92 -51 -16 25 -128 7 -284 -47 -68 -24
-140 -42 -159 -41 -20 1 -31 -7 -24 -17 12 -20 -28 -28 -116 -21 -30 3 -55 -5
-55 -17 0 -11 16 -22 35 -23 28 -1 29 -3 5 -12 -16 -6 -52 -32 -80 -57 -52
-48 -215 -58 -308 -18 -27 11 -34 9 -24 -8 19 -31 6 -29 -77 11 -72 34 -107
28 -81 -14 8 -13 31 -19 52 -14 21 6 38 2 38 -8 0 -10 -18 -18 -40 -18 -42 0
-48 -25 -20 -90 15 -36 17 -36 19 -4 2 55 146 -53 221 -165 78 -116 79 -116
69 -10 -13 140 106 277 261 300 55 8 130 28 167 43 78 33 82 30 125 -80 18
-45 45 -89 60 -96 174 -84 188 -93 184 -130 -2 -21 -9 -83 -16 -138 -9 -72 -7
-92 9 -70 11 17 21 62 21 101 0 39 9 80 21 92 33 33 -53 124 -131 138 -72 14
-150 112 -150 189 0 34 192 114 217 90 5 -5 26 14 48 42 26 33 51 46 72 37 18
-7 45 -18 59 -23 19 -8 23 3 13 41 -11 44 -7 53 27 53 136 0 243 208 161 313
-26 33 -116 47 -104 16z"/>
<path d="M3739 2416 c23 -40 41 -79 38 -89 -15 -67 63 -147 143 -147 20 0 40
-11 45 -24 14 -43 75 1 75 56 0 37 -8 49 -29 41 -33 -12 -78 33 -56 57 8 9 5
10 -8 3 -13 -7 -46 14 -74 48 -29 33 -56 60 -62 60 -36 -2 -38 2 -11 21 25 18
23 20 -8 10 -20 -7 -50 -2 -66 11 -16 14 -11 -7 13 -47z"/>
<path d="M3927 2110 c7 -18 0 -30 -18 -30 -16 0 -29 -8 -29 -17 0 -32 100
-125 120 -113 32 19 23 50 -10 37 -42 -16 -37 6 10 53 22 22 39 51 38 65 -1
20 -3 20 -11 0 -8 -19 -17 -17 -40 5 -39 39 -75 39 -60 0z"/>
<path d="M4380 1990 c59 -34 52 -36 -36 -11 -46 13 -61 12 -51 -4 9 -14 2 -17
-21 -9 -20 8 -29 6 -22 -6 7 -11 1 -21 -14 -22 -14 -1 1 -13 33 -27 52 -23 65
-22 113 14 61 45 56 95 -9 94 -41 0 -40 -2 7 -29z"/>
<path d="M3630 1884 c-80 -58 -95 -99 -57 -163 40 -68 157 -113 233 -89 24 8
61 15 82 16 21 1 43 15 48 30 6 17 0 22 -13 14 -15 -10 -23 6 -23 44 0 69 -69
109 -156 92 -44 -9 -60 -2 -75 30 -11 22 -28 34 -39 26z m211 -96 c18 16 22
14 15 -8 -7 -21 -33 -29 -88 -27 -109 5 -108 5 -108 24 0 10 35 11 79 3 49 -9
88 -6 102 8z"/>
<path d="M5304 1736 c-56 -56 -18 -156 63 -165 88 -9 145 124 72 170 -41 26
-107 23 -135 -5z"/>
<path d="M1034 907 c6 -15 22 -27 37 -27 14 0 41 -6 60 -13 24 -9 32 -5 25 14
-5 16 -37 34 -71 41 -47 9 -59 6 -51 -15z"/>
<path d="M5030 658 c-77 -8 -383 -16 -680 -18 -663 -3 -718 -14 -619 -129 30
-35 47 -75 42 -96 -7 -27 -1 -34 24 -27 93 27 295 54 483 64 116 6 240 14 277
17 37 4 92 0 124 -9 31 -9 90 -8 133 3 142 37 219 35 195 -5 -17 -26 59 -22
86 5 18 18 44 15 109 -9 74 -27 174 -51 461 -108 66 -13 72 18 11 59 l-45 29
57 30 57 30 -78 31 c-42 16 -131 41 -197 55 -66 13 -133 35 -150 49 -44 37
-132 46 -290 29z"/>
<path d="M2980 599 c-49 -9 -134 -17 -187 -18 -77 -1 -99 -9 -107 -39 -5 -20
-38 -47 -73 -59 -57 -19 -54 -20 32 -10 101 12 107 7 74 -54 -29 -55 12 -57
339 -21 195 21 262 53 262 126 0 63 -179 103 -340 75z"/>
<path d="M1922 402 c-36 -23 -8 -66 35 -55 18 5 60 15 92 23 45 10 52 17 30
31 -37 23 -121 24 -157 1z"/>
</g>
</svg>
