<?xml version="1.0" standalone="no"?>
<!DOCTYPE svg PUBLIC "-//W3C//DTD SVG 20010904//EN"
 "http://www.w3.org/TR/2001/REC-SVG-20010904/DTD/svg10.dtd">
<svg version="1.0" xmlns="http://www.w3.org/2000/svg"
 width="200.000000pt" height="300.000000pt" viewBox="0 0 200.000000 300.000000"
 preserveAspectRatio="xMidYMid meet">
<metadata>
Created by potrace 1.10, written by Peter Selinger 2001-2011
</metadata>
<g transform="translate(0.000000,300.000000) scale(0.050000,-0.050000)"
fill="#000000" stroke="none">
<path d="M1153 5967 c-23 -23 -14 -47 18 -47 17 0 35 -25 42 -60 14 -70 47
-80 47 -14 0 77 -70 157 -107 121z"/>
<path d="M1234 5740 c-6 -27 -16 -100 -23 -162 -6 -62 -30 -155 -53 -207 -45
-104 -42 -147 26 -287 30 -65 35 -93 19 -109 -13 -13 -23 -41 -23 -64 1 -37 3
-36 26 9 16 32 45 52 81 56 32 4 52 17 47 30 -4 13 -23 21 -41 18 -18 -3 -33
3 -33 14 0 10 -11 31 -25 46 -58 62 -99 156 -68 156 52 0 264 -226 225 -239
-28 -10 -24 -20 27 -57 114 -84 153 -224 40 -143 -78 55 -84 49 -18 -22 176
-188 206 -477 34 -326 -36 31 -66 64 -68 73 -18 98 -23 104 -67 64 -23 -21
-38 -48 -33 -60 10 -25 -89 -19 -157 9 -119 50 -173 65 -185 53 -20 -20 37
-51 95 -52 40 0 44 -5 20 -20 -22 -14 -9 -20 50 -21 83 -2 194 -35 126 -38
-39 -1 -75 -58 -62 -96 5 -14 0 -25 -12 -25 -12 0 -22 -11 -22 -24 0 -13 37
14 83 60 82 83 84 84 135 51 29 -19 81 -53 116 -75 36 -23 75 -62 89 -87 13
-25 28 -41 33 -36 5 5 -12 42 -37 82 -45 73 -45 74 -3 51 24 -13 53 -41 65
-64 34 -64 43 -32 12 44 -16 39 -29 148 -30 258 -6 398 -55 567 -268 905 -32
52 -71 138 -84 190 -22 83 -27 88 -37 45z m93 -230 c13 -34 -3 -90 -27 -90
-29 0 -64 60 -53 90 15 39 65 39 80 0z m73 -270 c0 -22 -13 -40 -30 -40 -30 0
-41 42 -17 67 26 25 47 13 47 -27z m80 -58 c0 -46 -27 -82 -62 -82 -44 0 -46
8 -17 61 21 39 79 54 79 21z"/>
<path d="M2687 5725 c84 -308 72 -384 -111 -709 -127 -224 -151 -255 -186
-242 -22 8 -111 14 -198 15 l-158 1 -61 -76 c-34 -41 -62 -100 -62 -130 -1
-30 -12 -54 -27 -54 -36 0 -63 -50 -64 -120 0 -37 -23 -85 -60 -128 -33 -37
-60 -76 -60 -86 0 -10 -14 -33 -31 -50 -21 -21 -24 -36 -11 -45 20 -12 12 -35
-53 -151 -13 -22 -52 -105 -88 -185 -35 -80 -76 -145 -91 -145 -14 0 -26 -18
-26 -40 0 -49 -70 -80 -181 -80 -48 0 -79 -9 -79 -24 0 -18 -5 -19 -24 0 -18
18 -15 32 11 60 18 21 27 43 20 51 -8 7 -3 13 10 13 12 0 23 -13 23 -30 0 -36
23 -39 56 -6 49 49 26 90 -66 116 -49 14 -100 37 -112 52 -27 32 -78 37 -78 8
0 -11 -13 -20 -30 -20 -16 0 -30 -10 -30 -21 0 -12 -9 -16 -20 -9 -32 20 25
90 75 90 58 0 58 32 0 47 -66 18 -75 16 -75 -16 0 -35 -33 -58 -48 -34 -6 9 6
35 27 57 28 30 32 47 16 63 -44 44 6 49 53 5 41 -39 48 -40 60 -11 15 39 -3
74 -29 58 -25 -15 -24 -9 11 92 17 47 59 111 94 143 78 70 86 70 42 3 -44 -67
17 -42 84 35 22 24 28 38 13 29 -15 -9 -33 -8 -40 2 -7 9 -39 26 -71 37 -72
24 -93 70 -32 70 23 0 38 8 32 17 -6 10 -34 13 -62 8 -37 -7 -50 -1 -50 23 0
17 11 32 23 32 13 0 18 6 11 13 -7 7 -25 2 -40 -10 -33 -27 -53 -11 -56 45 0
24 -6 31 -12 16 -7 -20 -17 -17 -37 10 -39 51 -35 87 12 137 38 41 39 46 8 77
-44 44 -30 71 26 50 47 -17 60 -66 25 -88 -25 -16 -7 -50 27 -50 13 0 26 19
28 42 1 23 16 57 33 75 31 35 32 39 32 103 0 22 9 40 20 40 11 0 20 -17 20
-39 0 -21 8 -43 17 -49 27 -17 13 94 -18 143 -16 25 -35 45 -42 45 -20 0 -183
252 -236 366 -60 126 -135 214 -183 214 -53 0 -47 -37 10 -59 40 -16 172 -206
172 -250 0 -7 -38 -11 -85 -7 -75 5 -86 1 -91 -39 -8 -52 26 -61 44 -13 36 94
77 -18 63 -174 -10 -118 -6 -171 18 -228 17 -41 31 -125 31 -185 0 -101 7
-118 80 -197 90 -98 91 -102 50 -181 -16 -31 -29 -70 -28 -87 1 -27 2 -27 12
0 22 59 73 100 124 100 49 0 49 -2 -17 -35 -48 -24 -74 -54 -86 -99 -9 -38
-45 -87 -85 -118 -58 -44 -70 -66 -70 -128 0 -65 -12 -85 -90 -149 -89 -73
-90 -74 -90 -201 0 -198 -182 -389 -430 -451 -99 -25 -135 -44 -147 -79 -6
-19 2 -22 29 -11 21 8 83 26 138 40 183 45 350 146 514 313 258 261 415 305
326 91 -14 -33 -9 -36 47 -24 62 14 63 13 63 -65 0 -172 -23 -262 -67 -268
-64 -9 -65 -71 -3 -100 43 -19 56 -18 71 5 15 24 18 23 19 -6 0 -19 -13 -35
-29 -35 -63 0 -122 -158 -71 -190 20 -12 144 47 157 75 11 26 63 16 63 -11 0
-14 -46 -83 -103 -153 -97 -121 -100 -129 -65 -155 33 -25 41 -23 65 13 92
137 249 -363 242 -769 -6 -333 0 -391 64 -620 46 -165 63 -275 69 -440 15
-410 77 -531 229 -449 51 27 49 87 -8 286 -93 319 -100 403 -100 1158 1 726
14 855 89 855 72 0 161 -651 104 -756 -25 -46 -46 -132 -54 -224 -11 -131 -19
-156 -66 -194 -53 -43 -54 -47 -30 -136 13 -50 24 -136 24 -191 0 -129 45
-219 108 -219 96 0 104 51 62 380 -11 82 -2 107 90 269 148 263 160 317 160
747 0 319 4 367 30 357 23 -9 30 4 30 58 0 88 21 88 70 -3 31 -58 41 -65 50
-37 15 42 95 -81 114 -174 6 -31 20 -57 30 -57 53 0 -151 448 -255 560 -101
109 -96 242 8 215 28 -7 43 -2 43 15 0 15 -15 30 -33 34 -26 5 -18 25 41 103
113 147 136 268 78 413 -11 28 -25 64 -32 80 -6 17 -11 3 -12 -30 -1 -33 6
-72 16 -87 10 -16 9 -59 -1 -100 -34 -131 -35 -133 -65 -93 -24 34 -29 31 -52
-40 -39 -120 -181 -340 -270 -420 -70 -62 -58 -94 110 -296 38 -46 49 -67 25
-46 -55 47 -58 25 -7 -41 31 -39 35 -61 20 -113 -10 -35 -18 -210 -18 -389 0
-276 -5 -328 -31 -338 -51 -20 -59 8 -59 193 0 97 -7 172 -15 167 -8 -5 -16
25 -18 67 -2 42 -5 90 -7 106 -2 17 -5 44 -7 60 -2 17 -29 45 -61 63 -91 52
-105 95 -62 191 43 97 107 141 152 105 58 -49 43 -7 -24 66 -87 95 -98 94
-135 -10 -21 -61 -30 -72 -31 -39 -2 41 -54 49 -96 16 -2 -2 -9 -52 -15 -112
-11 -111 -62 -206 -63 -115 0 25 12 57 26 71 40 41 31 64 -23 64 -59 0 -108
71 -73 106 12 12 22 47 22 79 l0 56 -120 -13 c-78 -8 -120 -5 -120 8 0 21 76
56 104 48 8 -2 38 5 66 16 39 15 54 13 62 -8 12 -31 192 -152 227 -152 13 0
19 8 13 17 -6 9 5 34 24 56 34 38 48 74 50 122 0 14 5 21 10 16 5 -5 37 28 70
74 33 46 76 101 95 121 51 55 87 210 57 246 -32 38 -40 127 -16 172 26 48 56
45 75 -8 24 -64 68 68 51 156 -12 65 21 94 112 99 28 1 29 10 6 92 -8 29 2 32
72 23 74 -10 82 -7 82 33 0 24 8 38 18 32 29 -17 43 46 29 131 -10 62 -21 78
-55 78 -34 -1 -37 -4 -12 -20 25 -17 22 -22 -17 -33 -25 -7 -38 -18 -27 -25
51 -32 34 -92 -26 -92 -44 0 -61 11 -67 40 -4 22 -20 54 -36 72 -28 32 72 138
130 138 22 0 48 64 39 93 -3 9 3 17 14 17 11 0 21 -18 23 -40 2 -22 4 -53 5
-69 4 -57 42 12 153 280 108 260 166 504 112 471 -13 -8 -23 -39 -23 -68 0
-61 -177 -464 -204 -464 -10 0 -13 9 -6 20 7 11 -3 46 -22 78 l-35 59 137 276
c175 358 182 389 128 589 -23 87 -51 158 -62 158 -10 0 -14 -16 -9 -35z
m-1775 -574 c6 -16 3 -43 -6 -60 -25 -44 -98 8 -80 56 16 41 71 43 86 4z m59
-143 c79 -52 68 -135 -16 -117 -67 14 -135 61 -135 93 0 10 18 13 40 6 28 -9
40 -4 40 19 0 39 9 39 71 -1z m1241 -306 c-21 -23 -27 -43 -15 -50 12 -7 28
-1 37 13 9 14 34 38 56 55 39 28 39 28 5 -12 -48 -57 -44 -82 6 -37 40 37 40
36 10 -22 -17 -33 -31 -70 -31 -83 0 -59 -75 -167 -135 -196 -36 -18 -65 -47
-65 -64 0 -27 8 -25 46 11 56 52 94 55 95 8 1 -27 6 -24 20 10 10 25 26 45 35
45 10 0 26 61 36 135 15 112 24 134 53 129 19 -3 35 3 35 13 0 10 13 24 29 30
23 9 26 -9 19 -91 -9 -98 -41 -189 -61 -170 -9 10 -107 -79 -107 -98 0 -5 20
0 45 12 43 21 43 21 6 -9 -21 -17 -46 -31 -55 -31 -29 0 -17 -95 14 -107 17
-7 30 -21 30 -32 0 -11 -12 -15 -27 -10 -16 7 -40 -20 -63 -71 -23 -51 -54
-85 -83 -93 -26 -6 -47 -20 -47 -30 0 -10 18 -9 40 3 65 35 80 -57 25 -150
-23 -39 -24 -39 -24 5 -1 27 -13 45 -32 45 -17 0 -27 -8 -21 -17 6 -10 -4 -55
-22 -102 -20 -50 -26 -90 -15 -98 33 -23 23 -282 -11 -303 -69 -44 -140 -24
-140 40 0 60 -29 82 -46 35 -14 -42 -39 -1 -25 42 9 28 24 37 47 29 28 -10 27
-5 -6 29 -47 47 -68 48 -109 0 -20 -23 -40 -29 -58 -17 -43 27 30 169 80 155
20 -5 37 -1 37 9 0 10 -11 18 -25 18 -18 1 -18 5 -3 15 13 8 17 31 10 50 -24
67 -402 -393 -402 -489 0 -23 -10 -31 -30 -23 -43 16 -38 -37 9 -87 35 -38 36
-45 9 -68 -25 -21 -34 -20 -48 3 -15 23 -20 22 -31 -6 -10 -27 -21 -30 -51
-14 -51 27 -49 65 2 49 54 -17 50 19 -7 64 -34 27 -43 48 -33 76 8 22 10 52 5
66 -6 15 8 31 32 37 43 12 219 232 264 332 14 30 32 55 40 55 8 0 24 40 36 88
23 89 116 192 175 192 16 0 38 23 48 50 10 28 29 50 42 50 12 0 17 -13 11 -28
-18 -47 45 -54 89 -10 26 26 38 57 31 82 -6 22 -2 58 8 78 11 21 29 57 41 81
32 62 39 181 11 171 -13 -4 -30 -56 -38 -115 -9 -59 -26 -117 -38 -128 -16
-15 -19 -14 -9 4 8 14 5 25 -6 25 -25 0 -51 -40 -51 -80 -1 -16 -13 -27 -28
-24 -15 3 -41 -6 -58 -20 -26 -21 -33 -21 -41 1 -7 23 -12 23 -26 0 -13 -20
-17 -15 -18 18 0 27 12 45 30 45 17 0 34 0 39 1 5 0 35 26 65 56 59 59 73 84
149 261 31 72 70 123 117 154 86 56 118 61 72 10z m-1432 -1043 c0 -9 -10 -23
-22 -30 -28 -17 -67 21 -50 48 15 23 72 9 72 -18z m91 -49 c1 -39 -5 -44 -35
-28 -36 19 -48 79 -22 105 21 22 56 -24 57 -77z m772 -210 c-23 -163 -39 -189
-136 -221 -121 -40 -117 0 18 206 140 215 145 215 118 15z m-867 113 c8 -40
-50 -67 -80 -37 -16 16 -15 31 4 54 31 37 67 30 76 -17z m1033 -131 c7 -21 41
-52 77 -69 35 -18 50 -32 33 -33 -16 0 -50 14 -74 31 -52 36 -96 109 -67 109
11 0 25 -17 31 -38z m11 -163 c0 -9 17 -19 38 -23 36 -6 37 -11 11 -71 -26
-64 -109 -95 -109 -42 0 13 -6 18 -13 10 -7 -7 3 -31 23 -53 20 -22 27 -40 16
-40 -11 0 -36 18 -56 40 -26 28 -41 34 -51 18 -8 -13 -25 -17 -37 -9 -29 18
22 71 68 71 18 0 28 8 22 17 -18 28 35 119 62 109 14 -6 26 -18 26 -27z m-566
-226 c-12 -38 -54 -37 -54 1 0 21 -11 50 -25 65 -14 14 0 10 31 -9 30 -20 52
-45 48 -57z m420 0 c9 -15 45 -43 81 -61 76 -39 84 -53 20 -36 -52 13 -177
124 -141 124 13 0 31 -12 40 -27z m-74 -404 c0 -35 -64 -74 -80 -49 -9 14 -30
20 -47 14 -18 -7 -37 -4 -43 5 -6 10 5 22 25 27 53 14 145 16 145 3z m-44
-141 c16 -110 25 -126 58 -114 26 10 30 5 17 -26 -19 -45 -52 -183 -57 -233
-4 -46 -54 -45 -54 1 0 20 -8 45 -17 55 -50 56 -104 168 -77 158 18 -7 43 7
62 34 36 52 43 137 11 137 -12 0 -16 9 -8 21 19 31 58 11 65 -33z m62 -633 c1
-19 -11 -35 -27 -35 -38 0 -57 34 -38 65 9 14 17 34 18 45 9 69 15 73 29 20 8
-33 16 -76 18 -95z m-43 -180 c11 -14 25 -119 33 -235 7 -115 17 -259 23 -320
l10 -110 -27 70 c-16 39 -39 111 -52 160 -63 239 -74 460 -22 460 8 0 24 -11
35 -25z m291 -331 c-24 -15 -21 -124 4 -164 7 -11 -5 -20 -26 -20 -28 0 -43
18 -51 62 -15 73 15 138 63 138 23 -1 26 -5 10 -16z m36 -259 c-18 -65 -69
-73 -78 -12 -5 32 6 46 40 53 25 5 47 10 49 11 2 2 -3 -22 -11 -52z m-207
-349 c21 -48 -32 -107 -65 -73 -15 16 -15 90 0 123 17 41 31 30 65 -50z m45
-186 c0 -85 -43 -94 -93 -18 -29 44 -30 54 -5 69 63 40 98 22 98 -51z"/>
<path d="M2134 4285 c-5 -8 -15 -58 -23 -110 -10 -73 -22 -95 -49 -95 -55 0
-114 -71 -72 -87 18 -7 27 -4 21 6 -7 10 -1 25 11 32 12 8 28 4 36 -7 14 -23
96 -20 87 3 -18 47 -4 156 28 218 26 52 -10 90 -39 40z"/>
<path d="M1832 3935 c8 -36 14 -105 14 -155 0 -90 0 -90 24 -31 16 37 19 79 9
115 -17 57 -8 67 35 40 33 -21 56 -164 26 -164 -12 0 -16 -11 -8 -23 10 -16 4
-20 -16 -12 -24 9 -29 2 -21 -27 15 -58 35 -61 77 -12 38 44 59 243 24 222
-20 -13 -63 29 -81 77 -27 70 -99 43 -83 -30z"/>
<path d="M1957 3545 c-1 -8 -5 -33 -8 -55 -4 -22 -12 -65 -18 -96 -12 -53 -10
-55 33 -32 25 14 37 28 25 32 -11 3 -18 42 -16 86 4 67 -7 114 -16 65z"/>
<path d="M1267 4829 c-7 -17 -25 -27 -40 -21 -21 8 -20 0 4 -36 21 -33 44 -44
70 -37 29 7 37 2 28 -19 -6 -16 5 -42 24 -58 19 -15 28 -17 21 -4 -8 13 -6 29
6 36 11 7 19 37 18 66 0 30 -6 43 -11 30 -8 -19 -18 -19 -47 -1 -28 17 -32 30
-17 49 17 20 14 26 -11 26 -18 0 -39 -14 -45 -31z"/>
<path d="M1293 4250 c7 -19 -8 -37 -44 -50 -76 -29 -47 -52 132 -101 82 -23
165 -46 184 -52 19 -7 35 -3 35 7 0 10 -33 27 -74 37 -70 18 -72 21 -39 53 33
33 32 37 -6 75 -52 52 -89 53 -75 1 12 -46 6 -48 -47 -20 -22 12 -33 33 -26
50 7 19 -1 30 -20 30 -20 0 -27 -11 -20 -30z"/>
<path d="M1054 4095 c-28 -21 -31 -40 -16 -115 16 -82 18 -84 20 -24 1 37 12
85 24 107 27 51 15 64 -28 32z"/>
<path d="M1209 3970 c16 -33 43 -89 59 -125 l29 -65 -57 0 c-32 0 -63 9 -70
20 -7 11 -28 20 -46 19 -30 0 -29 -4 5 -30 55 -41 170 -36 249 13 l68 41 -12
-77 c-11 -70 -10 -73 17 -37 35 47 36 73 6 140 -27 59 -78 70 -63 13 5 -21 0
-44 -12 -51 -12 -7 -22 -4 -22 8 0 11 -16 21 -35 21 -30 1 -31 3 -5 21 29 19
-11 65 -51 59 -6 -1 -29 19 -50 44 l-40 46 30 -60z"/>
<path d="M2533 3950 c6 -16 1 -30 -11 -30 -12 0 -22 11 -22 23 0 13 -6 18 -13
11 -7 -7 0 -28 15 -47 25 -30 24 -31 -14 -11 -38 20 -41 18 -33 -27 8 -41 4
-47 -26 -36 -28 11 -33 7 -22 -20 7 -18 18 -46 25 -63 7 -16 2 -30 -10 -30
-15 0 -12 -21 8 -61 29 -55 70 -65 70 -17 0 11 -9 15 -20 8 -11 -7 -20 11 -20
42 l0 53 43 -54 c25 -33 35 -60 23 -68 -45 -30 -62 -90 -41 -149 14 -39 14
-63 0 -71 -12 -8 -13 -31 -3 -58 22 -58 35 -58 24 1 -6 27 4 57 22 73 22 17
32 18 32 3 0 -12 10 -22 22 -22 14 0 17 17 9 45 -8 25 -13 78 -12 119 2 51
-11 88 -39 116 -23 23 -36 50 -30 59 6 10 2 24 -10 31 -11 7 -20 30 -20 52 0
24 9 35 21 27 12 -7 17 -25 12 -39 -30 -78 311 -199 554 -197 l136 1 -55 -44
c-59 -47 -52 -58 43 -78 49 -11 70 -4 108 37 27 28 60 51 75 51 33 0 201 84
256 129 29 23 31 31 10 29 -82 -8 -111 2 -78 28 17 13 28 35 23 49 -5 14 6 25
23 25 18 0 32 9 32 20 0 11 -8 20 -18 20 -10 0 -14 18 -8 40 13 49 -30 54 -48
5 -12 -31 -177 -205 -195 -205 -4 0 -18 29 -31 65 -14 37 -28 54 -34 39 -8
-21 -18 -19 -47 7 -59 53 -88 26 -38 -37 l43 -56 -55 14 c-39 10 -51 7 -41 -9
8 -13 40 -23 72 -23 70 0 85 -19 50 -66 -21 -29 -39 -33 -91 -19 -80 20 -123
77 -80 104 30 19 -107 65 -269 90 -149 24 -265 71 -276 112 -6 21 -20 39 -31
39 -12 0 -17 -13 -10 -30z m118 -98 c22 -15 80 -39 130 -51 138 -36 225 -67
268 -95 62 -40 -85 -35 -167 6 -35 17 -88 35 -118 40 -30 4 -75 11 -101 14
-47 7 -82 44 -83 89 0 33 22 32 71 -3z"/>
</g>
</svg>
