<?xml version="1.0" standalone="no"?>
<!DOCTYPE svg PUBLIC "-//W3C//DTD SVG 20010904//EN"
 "http://www.w3.org/TR/2001/REC-SVG-20010904/DTD/svg10.dtd">
<svg version="1.0" xmlns="http://www.w3.org/2000/svg"
 width="225.000000pt" height="225.000000pt" viewBox="0 0 225.000000 225.000000"
 preserveAspectRatio="xMidYMid meet">
<metadata>
Created by potrace 1.10, written by Peter Selinger 2001-2011
</metadata>
<g transform="translate(0.000000,225.000000) scale(0.050000,-0.050000)"
fill="#000000" stroke="none">
<path d="M2200 4279 c0 -25 13 -60 29 -78 49 -54 97 -182 63 -169 -15 6 -40
-6 -55 -27 -15 -21 -40 -39 -57 -40 -167 -10 -267 -70 -396 -239 -51 -67 -61
-94 -46 -122 11 -20 24 -77 30 -125 7 -62 26 -103 62 -134 47 -41 50 -51 31
-119 -13 -49 -13 -82 -1 -94 11 -11 20 -36 20 -56 0 -20 15 -37 35 -38 23 -1
18 -7 -15 -18 l-50 -16 55 -2 c30 -1 56 -13 57 -27 1 -14 15 7 31 45 17 39 45
86 62 105 28 32 28 35 -2 35 -18 0 -33 -11 -33 -25 -1 -18 -6 -17 -18 3 -11
16 -35 23 -60 17 -23 -6 -37 -4 -32 5 12 20 128 50 165 43 14 -3 25 5 25 16 0
12 -43 22 -95 24 l-95 3 88 12 c78 11 145 62 81 62 -38 0 19 60 58 61 25 1 23
6 -7 18 -22 9 -49 9 -61 0 -22 -18 -189 -60 -189 -47 0 4 45 26 100 50 55 24
100 55 100 70 0 15 12 22 26 17 14 -5 43 4 65 22 37 30 37 30 -11 9 -50 -22
-50 -22 5 28 60 54 71 83 27 66 -15 -6 -39 0 -53 13 -20 18 -22 15 -12 -14 9
-24 5 -33 -12 -28 -14 5 -55 -17 -91 -48 -36 -31 -83 -57 -104 -57 -20 0 -43
-9 -50 -20 -7 -11 -22 -20 -34 -20 -12 0 -1 18 24 40 25 22 57 40 71 40 13 0
36 15 52 34 19 24 20 29 2 18 -42 -25 -125 -34 -125 -14 0 41 187 137 244 126
20 -5 91 100 99 146 8 44 -95 55 -208 22 -33 -10 -55 -9 -55 3 0 37 91 59 192
46 106 -14 148 6 132 59 -6 21 -3 24 13 9 16 -14 17 -41 3 -88 -23 -83 -22
-85 51 -64 63 18 109 10 109 -18 0 -10 -13 -13 -28 -7 -17 6 -38 -7 -51 -30
-16 -29 -16 -42 -1 -42 13 0 9 -23 -9 -59 -35 -68 -40 -109 -11 -91 26 16 26
-42 0 -89 -16 -31 -13 -35 20 -27 31 8 40 1 40 -32 0 -36 -12 -42 -78 -42
-151 0 -205 -51 -200 -190 2 -66 -5 -142 -17 -170 -25 -62 2 -124 47 -106 28
10 29 6 5 -31 -37 -60 -76 -54 -80 12 -2 52 -3 52 -12 6 -5 -26 -21 -67 -37
-91 -34 -52 -59 -221 -35 -236 9 -5 17 18 17 53 0 38 10 63 26 63 14 0 46 36
71 80 29 51 57 78 79 74 28 -5 31 2 14 47 -11 29 -15 61 -9 71 6 10 1 18 -12
18 -18 0 -18 8 1 30 19 23 20 36 1 59 -14 16 -20 37 -14 46 6 10 3 51 -6 91
-10 43 -9 79 1 85 10 6 18 -8 18 -31 0 -64 54 -154 100 -166 34 -9 40 -24 36
-87 -3 -42 3 -79 14 -82 11 -2 21 7 22 20 1 14 16 57 33 95 17 39 30 112 28
163 -2 51 4 89 12 84 49 -30 118 214 108 378 -6 91 -11 183 -13 204 -1 22 -9
49 -18 60 -9 12 -23 48 -31 81 -18 77 -143 276 -176 282 -14 2 -41 10 -60 18
-27 11 -35 4 -35 -31z m239 -413 c1 -14 -12 -20 -27 -14 -17 6 -24 28 -17 54
10 44 10 44 -22 4 -19 -24 -32 -30 -32 -14 -1 14 10 38 24 53 26 28 73 -24 74
-83z m-272 -56 c-6 -16 -25 -30 -42 -30 -16 0 -93 -23 -170 -51 -77 -27 -145
-46 -151 -40 -5 5 15 19 45 31 30 11 51 32 46 45 -7 18 21 25 98 27 60 1 119
12 132 25 32 32 56 29 42 -7z m305 -180 c-7 -28 -22 -46 -33 -40 -10 7 -19 -2
-19 -19 0 -17 10 -31 21 -31 12 0 15 -10 7 -23 -10 -16 -22 -12 -41 14 -30 41
-37 138 -9 120 10 -6 25 18 33 54 14 61 16 63 34 21 11 -24 14 -67 7 -96z"/>
<path d="M2222 3752 c-1 -21 -18 -50 -37 -65 -30 -23 -31 -26 -2 -16 23 8 38
-3 49 -35 15 -44 16 -44 28 14 6 33 6 65 -1 70 -7 6 -18 24 -24 40 -9 23 -12
21 -13 -8z"/>
<path d="M1503 3171 c-55 -81 -63 -234 -17 -325 18 -34 30 -126 33 -234 3
-192 33 -297 63 -222 14 36 15 36 17 4 0 -20 10 -31 21 -24 11 7 20 3 20 -8 0
-11 -9 -25 -20 -32 -33 -20 -23 -79 32 -182 62 -118 99 -161 68 -79 -38 100
44 11 119 -130 77 -145 71 -146 71 10 0 123 -1 127 -28 75 -21 -40 -31 -46
-38 -24 -6 17 -31 58 -57 92 -27 35 -42 77 -36 94 8 19 -4 39 -31 54 -26 14
-39 35 -32 53 7 16 3 24 -8 17 -38 -24 -20 27 32 88 55 66 45 84 -16 28 -30
-27 -41 -28 -61 -7 -14 15 -16 22 -5 16 11 -6 36 11 56 37 29 38 30 48 7 48
-16 0 -33 25 -39 55 -20 104 -49 199 -76 256 -27 54 10 150 62 163 53 14 50
35 -10 74 -27 18 -50 43 -50 56 0 12 6 17 13 10 7 -8 25 -4 39 8 21 17 25 12
18 -21 -4 -23 0 -37 10 -31 9 6 23 2 30 -10 7 -11 26 -20 44 -20 25 0 26 6 6
30 -13 16 -32 25 -41 19 -9 -5 -21 -1 -28 9 -15 24 26 17 89 -16 47 -25 48
-24 18 7 -18 19 -49 37 -70 40 -21 3 -36 17 -33 30 4 13 -2 19 -12 13 -10 -6
-30 2 -43 18 -38 46 -66 36 -117 -39z"/>
<path d="M2521 3091 c-56 -35 -96 -70 -88 -77 7 -8 3 -14 -11 -14 -13 0 -19
-9 -12 -20 7 -11 2 -20 -10 -20 -12 0 -19 -16 -16 -35 4 -24 -9 -37 -40 -42
-30 -4 -44 -18 -40 -38 14 -72 58 -45 107 66 28 63 56 108 63 102 7 -7 24 -3
39 10 20 16 27 15 28 -6 1 -15 10 -9 19 13 9 22 18 29 19 16 0 -14 13 -20 27
-15 31 12 85 -78 65 -109 -21 -34 -67 -26 -77 13 -7 27 -10 25 -12 -9 -1 -24
7 -49 18 -56 31 -19 24 -46 -15 -58 -46 -15 -225 -176 -225 -202 0 -11 9 -6
20 10 18 27 22 27 40 0 29 -45 25 -54 -30 -68 -27 -7 -50 -23 -50 -35 0 -13
14 -15 35 -7 19 9 49 17 65 19 47 5 120 50 120 73 0 12 -19 15 -45 8 -36 -11
-34 -5 14 28 l59 40 71 -41 c77 -44 50 -15 -71 77 -53 39 -54 43 -13 36 26 -4
45 3 45 16 1 13 19 2 42 -26 23 -27 35 -37 27 -22 -10 19 -7 23 8 14 13 -8 19
-22 14 -30 -14 -23 47 -102 79 -102 15 0 33 -8 39 -18 18 -30 -104 -10 -158
26 -50 32 -103 27 -81 -8 6 -9 -3 -30 -19 -46 -16 -16 -33 -82 -38 -146 -5
-65 -16 -153 -24 -196 -10 -56 -8 -74 8 -64 14 9 23 1 23 -20 0 -19 -7 -28
-15 -20 -7 8 -26 -47 -40 -122 -14 -75 -39 -203 -55 -286 -75 -393 -94 -633
-50 -660 14 -8 21 -28 15 -43 -5 -15 -2 -47 7 -72 18 -48 -7 -146 -28 -111
-65 105 -89 386 -53 632 36 250 81 521 102 614 11 50 23 142 27 207 4 64 13
142 20 175 10 46 6 58 -20 58 -18 0 -27 -9 -20 -20 7 -11 -1 -15 -17 -8 -16 6
-36 0 -44 -14 -10 -16 -6 -20 13 -10 15 8 12 2 -7 -14 -19 -16 -54 -104 -77
-196 -41 -162 -46 -233 -41 -519 2 -71 -5 -159 -15 -194 -13 -44 -12 -65 5
-71 16 -5 13 -29 -12 -82 -21 -45 -31 -95 -24 -128 10 -42 7 -47 -9 -24 -17
24 -21 19 -22 -25 0 -57 -28 -74 -48 -30 -6 14 -7 5 0 -20 7 -31 -5 -65 -36
-103 -25 -31 -56 -74 -69 -94 -55 -93 -44 6 21 185 82 224 101 316 132 619 12
119 39 288 60 377 73 312 73 458 1 324 -13 -26 -64 -72 -112 -102 -106 -68
-124 -104 -55 -117 44 -8 55 1 81 68 55 138 62 63 11 -107 -101 -333 -130
-492 -86 -465 25 16 25 -31 0 -70 -16 -25 -20 -23 -21 10 -5 86 -76 -252 -99
-470 -14 -126 -37 -259 -52 -295 -36 -90 -84 -85 -92 10 l-6 75 -44 -75 c-34
-57 -41 -87 -27 -123 23 -59 -6 -193 -48 -224 -17 -12 -31 -47 -31 -76 0 -30
-8 -50 -17 -44 -19 12 -70 -87 -54 -104 6 -6 11 1 11 16 0 15 5 21 12 15 12
-13 -49 -115 -69 -115 -7 0 -25 27 -40 60 -14 33 -39 60 -55 60 -44 0 -34 49
42 194 38 73 65 137 60 142 -15 16 -70 -39 -59 -58 7 -10 -3 -24 -20 -30 -17
-7 -31 -30 -31 -51 0 -22 -8 -34 -18 -28 -10 6 -14 -7 -8 -29 8 -29 3 -38 -17
-31 -17 7 -41 -19 -64 -71 -21 -44 -42 -76 -48 -70 -19 20 136 313 209 393 39
44 61 79 49 79 -32 0 -19 177 15 190 21 8 25 -5 16 -60 -14 -87 -10 -87 75 5
104 113 211 335 225 470 15 146 -27 159 -46 15 -19 -148 -67 -76 -67 103 -1
102 -20 187 -83 370 -45 130 -87 280 -92 332 -12 116 -36 121 -69 14 -19 -64
-18 -133 2 -328 33 -317 -1 -699 -78 -861 -49 -102 -81 -199 -81 -241 0 -30
-25 -66 -69 -99 -62 -48 -69 -65 -82 -186 -8 -74 -22 -150 -32 -169 -19 -37
118 -115 201 -115 57 0 127 -79 117 -133 -16 -79 131 -44 155 37 7 25 40 115
71 199 32 85 64 204 71 266 18 146 80 183 272 161 103 -12 121 -9 101 12 -38
40 -30 58 26 58 42 0 49 -7 40 -38 -15 -46 68 -72 205 -65 119 7 431 -50 531
-96 69 -31 88 -33 113 -12 17 14 73 45 125 67 234 102 323 269 145 274 -36 2
-71 32 -58 53 14 23 -50 101 -72 87 -8 -5 -41 29 -73 75 -102 151 -152 204
-230 243 -26 13 -58 45 -71 72 -25 49 -25 48 -26 -25 0 -41 7 -75 15 -75 30 0
68 -83 49 -107 -50 -64 -93 -473 -46 -444 9 6 28 71 41 146 31 174 57 257 88
283 20 16 20 -8 0 -124 -14 -79 -26 -193 -27 -254 -3 -221 -44 -234 -164 -50
-84 130 -88 468 -7 633 18 37 21 83 10 155 -17 104 19 287 65 332 14 14 16 4
7 -30 -8 -27 23 10 68 84 45 73 100 139 122 146 22 7 54 35 72 62 17 26 43 48
56 48 14 0 42 19 63 42 21 23 81 64 133 90 52 27 95 57 95 66 0 35 181 217
239 242 90 37 74 160 -29 228 -78 51 -130 26 -73 -35 49 -52 57 -143 15 -159
-34 -14 -52 2 -52 46 0 39 -87 126 -106 107 -8 -8 -14 -52 -14 -99 0 -70 -10
-94 -58 -132 -31 -25 -67 -66 -79 -89 -13 -24 -50 -50 -83 -57 -33 -7 -65 -21
-71 -32 -25 -40 -149 -20 -168 28 -9 26 -53 62 -98 83 -128 57 -201 176 -155
253 42 71 24 144 -54 222 l-50 50 -103 -63z m277 -664 c-34 -99 -32 -97 -68
-67 -47 39 -40 140 10 140 22 0 40 11 40 24 0 17 6 18 22 2 16 -16 15 -43 -4
-99z m147 66 c21 -1 35 -18 36 -42 0 -48 47 -116 66 -97 18 17 14 -15 -7 -64
-15 -34 -17 -35 -19 -5 0 19 -9 35 -19 35 -27 0 -63 -52 -47 -68 7 -8 1 -22
-15 -32 -18 -11 -35 -9 -46 6 -13 17 -15 15 -9 -6 34 -112 36 -108 -76 -161
-68 -33 -111 -44 -117 -30 -5 11 -10 5 -10 -14 -1 -19 -13 -35 -25 -35 -13 0
-18 -5 -12 -11 6 -7 -6 -72 -27 -145 -21 -73 -33 -149 -27 -169 7 -19 3 -35
-7 -35 -98 0 -98 -574 0 -735 50 -82 85 -85 69 -5 -18 90 30 63 88 -50 19 -36
19 -37 -6 -6 -25 30 -31 31 -58 4 -23 -23 -42 -25 -83 -10 -34 13 -57 14 -65
1 -17 -28 -48 -3 -71 57 -16 41 -13 55 12 69 38 22 22 135 -22 161 -17 10 -28
49 -28 100 1 65 5 77 22 54 16 -23 18 -17 9 25 -6 30 -4 55 6 55 18 0 54 206
45 257 -3 16 5 21 18 13 16 -10 19 8 10 63 -10 57 -8 69 8 47 12 -16 22 -21
22 -10 1 11 14 101 29 199 24 161 24 182 -5 203 -26 19 -27 35 -10 90 l22 68
2 -71 c2 -75 60 -145 100 -120 16 10 10 25 -18 51 -40 36 -57 150 -22 150 10
0 14 -18 8 -40 -6 -23 -1 -40 13 -40 13 0 18 9 12 19 -14 21 66 71 84 53 6 -7
1 -12 -12 -12 -12 0 -23 -22 -23 -50 0 -65 49 -65 91 -1 27 41 29 61 10 119
-17 52 -18 81 -1 111 12 23 15 52 8 65 -10 16 -3 18 24 7 21 -9 54 -17 73 -18z
m-1231 -1065 c-6 -264 -60 -489 -107 -441 -27 27 -24 300 4 354 17 34 29 113
29 193 1 95 6 127 20 106 14 -22 20 -9 20 50 1 60 6 72 20 48 11 -18 17 -158
14 -310z m1537 -367 c-8 -12 -24 -15 -37 -7 -16 9 -15 2 2 -18 21 -26 21 -34
0 -44 -14 -7 -8 -9 15 -5 60 11 64 -91 6 -145 -73 -69 -94 -16 -64 164 9 56
20 73 42 65 22 -8 26 -2 16 24 -10 27 -8 29 10 12 13 -13 17 -33 10 -46z
m-1795 -306 c-25 -36 -51 -69 -57 -75 -6 -5 -31 -41 -56 -80 -37 -56 -43 -60
-32 -20 8 28 20 55 27 60 28 22 82 120 82 149 0 18 17 31 41 31 39 0 39 -1 -5
-65z"/>
<path d="M1640 1330 c0 -16 -9 -30 -20 -30 -30 0 -24 -52 10 -80 26 -21 30
-13 30 58 0 45 -4 82 -10 82 -5 0 -10 -13 -10 -30z"/>
<path d="M1700 2974 c0 -14 10 -36 23 -49 12 -12 16 -38 8 -59 -14 -34 -16
-34 -32 4 -14 36 -16 36 -18 4 0 -20 -9 -31 -19 -25 -10 6 -22 -1 -28 -15 -11
-31 31 -94 63 -94 13 0 23 -22 23 -49 0 -27 9 -54 20 -61 11 -7 20 -1 20 14 0
14 6 46 13 71 9 36 5 43 -21 33 -23 -9 -32 -1 -32 30 0 23 8 42 18 42 28 0 68
128 43 136 -12 4 -16 16 -10 26 6 10 -7 18 -30 18 -22 0 -41 -12 -41 -26z"/>
<path d="M1863 2964 c10 -67 -7 -224 -23 -214 -12 8 -20 -30 -20 -99 0 -61 8
-111 17 -111 17 0 52 141 49 195 -1 13 6 20 15 14 9 -5 27 9 40 33 20 38 19
42 -8 32 -17 -7 -37 -4 -44 7 -6 10 7 19 30 19 62 0 55 87 -9 116 -27 13 -49
16 -47 8z"/>
<path d="M2223 2789 c-13 -28 -23 -57 -22 -65 1 -20 79 77 79 98 0 36 -34 16
-57 -33z"/>
<path d="M2286 2747 c-13 -5 -19 -21 -14 -35 5 -13 -9 -41 -31 -61 -23 -21
-41 -49 -41 -64 0 -15 -8 -27 -18 -27 -10 0 -21 -31 -26 -69 -4 -37 -1 -64 8
-58 9 5 16 22 16 38 0 16 7 27 15 25 68 -21 170 140 124 195 -12 15 -17 37
-10 48 14 23 13 23 -23 8z"/>
<path d="M2117 2571 c-13 -28 -30 -51 -39 -51 -19 0 -46 -75 -48 -135 -1 -25
5 -45 14 -45 9 0 16 21 16 48 0 31 14 51 40 58 26 7 40 27 40 58 0 26 10 58
22 70 15 15 15 25 0 35 -12 7 -32 -9 -45 -38z"/>
<path d="M1905 2498 c-33 -12 -45 -33 -45 -77 0 -77 43 -64 75 23 29 75 28 76
-30 54z"/>
<path d="M1988 2185 c-12 -19 -19 -75 -16 -125 3 -49 -6 -130 -20 -180 -21
-71 -21 -105 -2 -160 l24 -70 17 120 c10 66 19 138 19 160 3 74 34 180 64 214
17 18 24 43 17 55 -21 33 -79 25 -103 -14z"/>
<path d="M4203 1590 l-3 -110 95 0 c59 0 85 7 69 17 -15 9 -49 13 -75 8 -56
-11 -64 17 -17 56 26 22 34 22 49 -2 11 -18 19 -20 19 -5 0 13 20 27 45 32 37
7 34 9 -13 11 -55 3 -56 5 -25 40 35 38 26 63 -22 63 -15 0 -22 -9 -15 -20 7
-11 3 -20 -9 -20 -11 0 -21 9 -21 20 0 11 -17 20 -37 20 -32 0 -38 -17 -40
-110z"/>
<path d="M4185 1421 c-19 -32 -19 -38 1 -30 15 6 25 -6 25 -31 0 -22 -7 -40
-16 -40 -10 0 -12 -9 -5 -20 7 -11 3 -20 -9 -20 -11 0 -21 -13 -21 -30 0 -20
20 -30 60 -30 33 0 60 -10 60 -21 0 -12 -25 -19 -55 -15 -44 5 -56 -3 -61 -39
-4 -25 3 -45 15 -45 11 0 20 -7 19 -15 -9 -53 8 -65 87 -62 l85 2 -70 13 -70
13 70 18 70 18 -73 8 c-103 10 -139 56 -46 59 38 1 64 -6 58 -16 -6 -10 3 -18
20 -18 40 0 39 18 -3 65 -24 26 -26 36 -8 31 59 -14 42 46 -21 73 l-67 29 65
1 c36 1 65 10 65 21 0 11 -28 20 -61 20 -38 0 -56 8 -48 21 7 12 24 17 38 12
35 -13 79 18 62 45 -7 12 -22 22 -33 22 -11 0 -15 -9 -8 -20 7 -11 3 -20 -9
-20 -11 0 -21 9 -21 20 0 35 -70 21 -95 -19z"/>
<path d="M4200 927 c0 -15 -9 -27 -20 -27 -11 0 -20 -8 -20 -17 0 -16 46 -14
155 9 82 16 54 68 -35 65 -52 -2 -80 -13 -80 -30z"/>
<path d="M4200 833 c0 -37 39 -51 107 -38 76 14 55 54 -34 61 -53 5 -73 -1
-73 -23z"/>
<path d="M1639 733 c-35 -57 -47 -98 -39 -133 12 -50 12 -50 28 10 8 33 29 75
45 93 17 19 27 51 24 73 -6 32 -17 24 -58 -43z"/>
<path d="M4170 763 c-37 -37 -2 -63 85 -63 69 1 87 6 65 20 -26 17 -25 19 5
20 19 0 35 8 35 17 0 17 -173 23 -190 6z"/>
<path d="M3840 497 c0 -90 3 -160 7 -155 18 20 28 318 11 318 -10 0 -18 -73
-18 -163z"/>
<path d="M4154 648 c-8 -8 -14 -58 -14 -110 0 -180 201 -167 220 14 l10 99
-101 5 c-55 3 -107 -1 -115 -8z m168 -42 c55 -55 12 -136 -72 -136 -76 0 -80
3 -86 67 -4 42 1 62 14 54 11 -7 16 -24 10 -38 -13 -36 44 -80 83 -65 50 19
29 102 -26 100 -25 0 -45 9 -45 21 0 28 94 25 122 -3z"/>
<path d="M1544 577 c-12 -29 -31 -59 -43 -66 -27 -17 -28 -71 -1 -71 11 0 20
13 20 29 0 15 14 42 31 60 18 17 28 47 24 66 -7 28 -13 24 -31 -18z"/>
<path d="M2120 520 c-42 -14 -37 -16 35 -18 47 -1 85 7 85 18 0 23 -48 23
-120 0z"/>
<path d="M2849 439 c-21 -34 92 -67 123 -35 29 28 25 32 -41 40 -41 4 -77 2
-82 -5z"/>
</g>
</svg>
