<?xml version="1.0" standalone="no"?>
<!DOCTYPE svg PUBLIC "-//W3C//DTD SVG 20010904//EN"
 "http://www.w3.org/TR/2001/REC-SVG-20010904/DTD/svg10.dtd">
<svg version="1.0" xmlns="http://www.w3.org/2000/svg"
 width="300.000000pt" height="414.000000pt" viewBox="0 0 300.000000 414.000000"
 preserveAspectRatio="xMidYMid meet">
<metadata>
Created by potrace 1.10, written by Peter Selinger 2001-2011
</metadata>
<g transform="translate(0.000000,414.000000) scale(0.100000,-0.100000)"
fill="#000000" stroke="none">
<path d="M1113 4115 c-69 -31 -92 -75 -57 -110 14 -14 30 -15 104 -9 97 7 159
-6 266 -57 51 -24 64 -36 85 -76 37 -72 28 -141 -28 -215 -35 -47 -52 -60
-100 -77 -32 -12 -67 -26 -78 -31 -11 -5 -51 -21 -88 -35 -93 -34 -127 -59
-127 -94 0 -35 20 -53 51 -47 13 2 55 11 92 19 83 18 128 9 169 -35 23 -24 28
-39 28 -78 0 -27 -9 -69 -19 -93 -26 -61 -146 -185 -245 -254 -97 -67 -133
-99 -152 -135 -20 -38 -17 -64 7 -82 25 -17 38 -13 100 29 63 43 146 62 201
46 74 -23 84 -54 48 -149 -11 -29 -20 -62 -20 -73 0 -32 -58 -135 -106 -188
-59 -65 -104 -140 -104 -172 0 -69 28 -76 90 -24 23 19 43 35 44 35 2 0 15
-11 29 -24 19 -17 34 -23 49 -19 42 10 66 5 100 -20 31 -24 88 -119 88 -146 0
-7 6 -27 14 -44 36 -82 56 -383 26 -397 -37 -17 -72 -38 -124 -72 -47 -32 -56
-43 -56 -67 0 -16 -10 -42 -23 -58 -13 -15 -31 -47 -41 -70 -12 -27 -28 -46
-48 -54 -30 -12 -71 -73 -82 -121 -11 -47 -61 -123 -83 -126 -26 -4 -51 -31
-83 -90 l-25 -47 -75 -6 c-41 -3 -91 -9 -110 -13 -29 -6 -49 0 -119 34 -47 23
-102 57 -123 76 -21 19 -46 34 -57 34 -10 0 -30 9 -44 21 -57 44 -209 44 -294
0 -21 -11 -63 -44 -94 -73 -75 -71 -99 -134 -99 -260 0 -135 32 -191 144 -252
45 -25 59 -27 165 -28 64 0 129 4 144 11 38 15 126 13 155 -3 13 -7 34 -30 46
-52 26 -47 56 -52 70 -12 15 44 -10 109 -67 174 l-51 57 39 -6 c22 -3 56 -8
75 -12 l35 -6 -40 15 c-22 9 -54 16 -71 16 -18 0 -38 8 -49 20 -10 11 -23 20
-28 20 -6 0 0 -11 13 -25 l23 -25 -26 0 c-15 0 -41 -9 -59 -20 -18 -11 -40
-20 -48 -19 -8 0 -4 5 10 11 l25 11 -25 7 c-14 5 -63 8 -110 9 -75 1 -90 4
-125 28 -22 15 -45 34 -52 42 -32 41 -1 116 60 148 66 34 128 10 230 -86 26
-25 51 -45 55 -43 4 1 7 -2 7 -7 0 -5 3 -12 7 -16 15 -15 1 25 -15 43 -9 10
-14 23 -10 27 5 5 -1 3 -11 -5 -18 -14 -19 -14 -7 9 7 13 8 21 3 17 -15 -9
-42 4 -42 20 0 8 -6 11 -15 7 -10 -3 -15 -1 -13 7 2 7 -4 14 -14 15 -9 2 -30
13 -47 26 -102 75 -278 -77 -201 -174 12 -15 36 -35 53 -44 32 -16 56 -40 57
-56 0 -5 -4 -6 -9 -3 -10 7 -9 -13 1 -29 4 -6 3 -17 -3 -25 -7 -13 -9 -13 -9
1 0 9 -10 24 -22 35 -23 19 -23 19 -6 -2 19 -22 24 -44 9 -44 -5 0 -12 7 -15
16 -3 8 -11 12 -17 8 -8 -5 -10 1 -6 18 5 19 2 28 -9 32 -12 5 -14 1 -9 -15 4
-11 1 -27 -6 -35 -7 -9 -14 -22 -15 -30 -2 -15 10 -11 39 14 11 10 17 11 17 4
0 -7 -4 -12 -9 -12 -5 0 -12 -7 -15 -16 -3 -8 -2 -12 3 -9 5 3 12 1 16 -5 9
-15 -32 -12 -65 5 -17 9 -30 23 -31 33 0 10 -3 12 -6 4 -2 -6 -9 -10 -14 -6
-14 8 -11 24 5 24 7 0 16 10 20 22 10 38 7 46 -14 41 -11 -3 -20 -9 -20 -14 0
-5 6 -6 14 -3 11 4 13 0 9 -15 -3 -12 -11 -21 -18 -21 -7 0 -16 -6 -19 -12 -3
-7 -5 1 -3 19 2 18 0 30 -5 27 -4 -3 -8 -13 -8 -22 0 -14 -2 -15 -9 -2 -6 8
-7 18 -4 24 3 5 1 6 -4 3 -6 -4 -16 7 -22 25 -14 39 -14 78 -1 78 6 0 10 -5
10 -11 0 -7 10 -5 25 5 15 10 24 12 23 5 -2 -6 8 -12 22 -13 14 -1 37 -14 52
-29 26 -26 27 -27 7 -41 -15 -10 -17 -15 -7 -18 9 -4 10 -9 3 -19 -6 -8 -12
-27 -14 -44 -4 -35 6 -31 11 5 2 14 7 31 11 38 5 6 5 17 2 22 -9 14 22 24 38
13 24 -19 47 -23 47 -8 0 8 -9 15 -20 15 -11 0 -20 4 -20 9 0 5 -13 14 -29 21
-18 7 -32 22 -36 37 -5 20 -11 24 -31 20 -16 -3 -28 1 -34 12 -6 10 -10 11
-10 4 0 -8 -14 -13 -36 -13 l-37 0 6 63 c13 130 68 217 180 281 78 44 226 43
288 -3 15 -12 39 -21 53 -21 17 0 33 -11 48 -31 12 -16 43 -39 68 -50 25 -11
53 -30 62 -42 11 -14 18 -17 18 -8 0 11 5 10 20 -4 11 -10 20 -15 20 -11 0 4
8 2 18 -3 12 -6 25 -5 42 4 22 12 28 11 45 -3 18 -16 19 -16 7 0 -12 15 -8 16
47 11 50 -5 64 -2 90 16 16 12 33 32 37 44 10 33 37 66 54 67 13 0 13 1 0 10
-11 7 -7 10 17 10 28 0 34 5 51 44 11 24 25 47 31 50 6 4 11 20 11 37 0 16 5
29 10 29 6 0 9 3 8 8 -6 17 42 82 61 82 14 0 28 17 49 60 16 33 32 57 36 53 4
-5 6 -3 5 2 -2 6 5 22 15 38 10 15 16 36 13 47 -7 27 13 37 30 15 8 -13 13
-14 13 -5 0 7 2 11 5 8 9 -8 -6 -38 -16 -32 -5 3 -9 -1 -9 -9 0 -7 -9 -23 -20
-35 -24 -25 -25 -33 -5 -26 17 7 21 -11 5 -21 -5 -3 -10 -11 -10 -18 0 -6 7
-2 16 9 14 18 15 18 8 -6 -9 -33 -9 -33 -33 -19 -16 11 -18 16 -8 29 11 13 10
13 -5 1 -10 -7 -18 -18 -18 -23 0 -6 -9 -23 -21 -39 -11 -16 -18 -29 -15 -29
3 0 -15 -19 -40 -42 -30 -29 -46 -53 -48 -73 -2 -16 -4 -33 -5 -37 0 -4 -11
-17 -23 -29 -13 -12 -17 -18 -9 -14 9 5 12 4 7 -3 -4 -7 -14 -12 -22 -12 -8 0
-12 -5 -9 -10 11 -18 -6 -50 -26 -50 -11 0 -18 -4 -14 -9 3 -5 0 -13 -6 -17
-8 -5 -8 -8 0 -13 6 -4 -5 -14 -27 -24 -20 -9 -41 -27 -47 -39 -5 -13 -20 -24
-33 -26 -12 -2 -20 -7 -17 -11 2 -5 -21 -11 -51 -14 -37 -4 -61 -12 -71 -24
-8 -10 -12 -12 -8 -5 4 8 -4 12 -27 13 -18 0 -43 2 -54 3 -12 1 -29 -3 -38
-10 -15 -10 -15 -12 4 -17 11 -3 20 -1 20 4 0 15 20 10 26 -6 4 -8 3 -23 -1
-32 -7 -17 -8 -16 -15 2 -8 19 -9 19 -9 -2 -1 -24 13 -31 24 -13 9 15 25 12
25 -4 0 -8 7 -22 16 -31 12 -12 14 -19 6 -27 -8 -8 -14 -4 -23 15 -7 15 -19
27 -28 27 -13 0 -14 -2 -2 -9 9 -6 11 -16 6 -27 -6 -16 -10 -11 -23 24 -10 27
-21 41 -29 37 -7 -3 -20 -8 -28 -11 -8 -3 -15 -1 -15 5 0 6 7 11 17 11 15 0
10 14 -5 16 -4 0 -15 4 -25 9 -23 10 -26 6 -30 -36 -4 -39 18 -92 36 -86 7 2
11 18 11 36 -1 17 2 31 7 31 5 0 9 -4 9 -10 0 -5 5 -10 11 -10 6 0 9 7 5 15
-3 8 -1 15 3 15 7 0 21 -23 21 -35 0 -1 -10 -5 -22 -8 -12 -4 -19 -9 -16 -12
3 -4 15 -2 26 4 18 10 21 7 27 -19 4 -17 11 -30 17 -30 6 0 8 -7 4 -15 -3 -8
-2 -15 3 -15 17 0 19 12 6 37 -14 27 -12 43 7 43 5 0 8 -7 4 -15 -3 -8 -1 -15
4 -15 6 0 10 -7 10 -16 0 -9 5 -12 12 -8 7 5 9 2 5 -8 -4 -11 1 -18 14 -21 10
-3 19 -11 19 -17 0 -10 -17 -11 -67 -7 -54 5 -63 4 -43 -5 27 -11 110 -13 202
-4 166 17 283 59 457 165 46 28 92 51 101 51 15 0 49 -23 114 -76 23 -20 18
-60 -19 -138 -24 -51 -29 -56 -59 -56 -18 0 -41 -6 -51 -14 -18 -13 -14 -13
30 -9 61 7 70 13 91 69 9 24 20 41 25 39 4 -3 10 -1 13 4 4 5 2 12 -3 15 -5 4
-5 20 2 41 8 29 7 38 -6 53 -16 18 -16 19 5 16 13 -1 29 -3 36 -3 6 -1 12 -9
13 -18 0 -16 1 -15 8 2 7 18 9 17 26 -8 16 -26 22 -28 59 -21 23 3 38 3 33 -2
-4 -4 0 -16 10 -26 12 -13 13 -18 3 -18 -7 0 -11 -2 -8 -5 14 -15 35 8 30 33
-5 24 -6 25 -13 7 -6 -17 -8 -16 -8 8 -1 22 -6 27 -25 27 -28 0 -41 24 -21 40
10 8 14 8 18 -2 2 -7 8 -9 13 -5 5 5 1 15 -10 23 -17 12 -21 11 -33 -6 -7 -10
-20 -17 -27 -14 -8 3 -16 1 -20 -4 -3 -5 -19 -7 -35 -4 -26 3 -30 9 -36 44 -5
27 -10 36 -15 27 -7 -11 -13 -11 -34 0 -14 8 -23 18 -20 23 3 4 0 8 -5 8 -6 0
-11 -5 -11 -11 0 -5 -4 -8 -10 -4 -5 3 -7 12 -4 19 3 8 0 17 -5 21 -6 3 -9 11
-6 16 4 5 -1 9 -9 9 -18 0 -21 -16 -6 -25 6 -3 10 -11 10 -17 0 -6 -10 -3 -22
8 -20 18 -21 18 -15 1 4 -10 7 -21 7 -23 0 -2 7 -4 15 -4 8 0 19 -9 25 -20 6
-11 20 -20 30 -20 11 0 20 -4 20 -10 0 -5 7 -10 15 -10 8 0 15 5 15 11 0 5 5
7 10 4 6 -3 10 -15 10 -25 0 -28 -42 -19 -89 18 -22 18 -48 32 -58 32 -11 0
-51 -20 -90 -44 -156 -96 -288 -156 -344 -156 -22 0 -49 -5 -60 -11 -11 -5
-36 -9 -56 -7 -35 3 -36 4 -19 21 10 9 12 17 6 17 -20 0 -44 30 -32 42 12 12
35 1 27 -13 -3 -5 1 -6 9 -3 8 3 17 12 20 20 3 8 10 14 16 14 17 0 11 -28 -8
-39 -9 -6 -12 -11 -5 -11 6 0 15 4 18 10 3 5 11 10 16 10 6 0 7 -5 3 -12 -4
-7 -3 -8 5 -4 9 6 9 11 0 22 -9 11 -8 18 2 31 11 13 11 17 2 20 -18 6 -16 32
1 39 8 3 12 12 10 19 -6 16 12 29 21 15 3 -5 1 -19 -5 -31 -7 -11 -9 -24 -5
-27 3 -3 8 4 12 16 3 12 9 22 14 22 12 0 11 -17 -2 -42 -6 -11 -8 -22 -6 -24
3 -3 12 10 21 28 16 30 16 34 0 45 -9 6 -13 17 -9 23 3 6 1 9 -6 8 -25 -6 -19
22 7 33 20 7 30 7 32 0 2 -6 11 -11 19 -11 9 0 13 -6 10 -14 -4 -10 -1 -13 9
-9 10 3 14 -2 14 -18 0 -17 3 -20 12 -11 8 8 8 15 0 25 -7 8 -9 17 -5 20 12
13 22 7 25 -15 3 -18 6 -15 12 15 9 41 26 50 26 15 0 -16 3 -19 9 -10 4 7 6
25 3 39 -4 19 -1 24 9 21 21 -7 19 -50 -2 -69 -21 -18 -24 -35 -9 -44 6 -3 7
1 4 10 -5 11 0 18 15 22 11 3 21 12 21 19 0 8 6 14 14 14 8 0 18 5 21 10 4 7
-3 8 -21 4 -19 -5 -25 -4 -20 5 4 6 14 11 22 11 15 0 15 1 19 39 1 13 8 27 15
31 8 5 9 10 2 14 -7 4 -7 17 -2 35 8 28 -3 67 -12 41 -2 -8 -14 -3 -35 14 -36
30 -39 31 -46 12 -4 -11 -1 -13 10 -9 11 4 14 2 9 -5 -4 -7 -13 -12 -21 -12
-17 0 -32 43 -16 48 8 3 8 9 1 23 -8 15 -7 19 5 19 8 0 15 -8 15 -17 0 -22 13
-8 15 16 1 13 -3 17 -13 13 -12 -4 -14 -1 -9 12 4 10 7 24 7 32 0 12 4 12 30
-1 30 -16 43 -4 14 13 -21 12 -14 47 10 47 25 0 49 35 35 51 -7 8 -7 14 1 19
5 3 10 0 10 -7 0 -10 2 -10 9 1 8 12 12 12 25 -2 9 -8 16 -22 16 -29 0 -10 3
-9 10 2 5 9 6 18 0 24 -12 12 7 49 21 40 5 -3 7 -15 4 -27 -2 -12 -2 -16 1 -9
7 14 34 16 34 2 0 -5 6 -10 14 -10 9 0 12 -7 9 -19 -5 -20 -41 -21 -53 -2 -3
6 -11 1 -18 -9 -7 -12 -8 -20 -2 -20 5 0 10 6 11 13 0 6 7 -1 14 -18 9 -19 14
-24 15 -12 0 9 5 17 10 17 10 0 14 -23 10 -72 -1 -20 3 -28 14 -28 9 0 16 7
16 15 0 18 27 20 32 3 3 -7 12 -9 23 -4 16 6 17 9 4 21 -11 11 -22 13 -47 6
-20 -6 -32 -6 -32 0 0 10 17 19 44 23 8 1 19 6 23 10 4 5 -7 5 -26 1 -24 -5
-31 -4 -27 4 4 6 11 9 16 6 5 -3 11 -1 15 5 3 5 -3 10 -14 10 -24 0 -27 13 -7
29 12 10 20 9 40 -4 20 -14 24 -22 19 -50 -4 -27 -1 -35 16 -45 21 -11 22 -11
7 25 -14 34 -14 35 4 25 27 -14 35 5 10 23 -20 14 -19 47 2 47 5 0 7 3 5 8 -3
4 -1 18 4 31 7 19 12 22 21 13 17 -17 21 -55 6 -46 -7 4 -4 -2 6 -14 11 -12
30 -22 43 -22 12 0 23 -5 23 -11 0 -5 -4 -7 -10 -4 -5 3 -10 -1 -10 -9 0 -9 5
-16 10 -16 6 0 10 5 10 10 0 6 11 10 25 10 22 0 25 -4 25 -32 0 -23 -3 -29 -9
-19 -5 8 -11 9 -15 3 -3 -6 3 -13 14 -17 11 -4 18 -12 14 -18 -3 -7 1 -5 8 4
7 9 22 18 33 20 11 2 24 13 30 24 6 12 21 21 38 22 36 2 35 -12 -3 -26 -22 -7
-30 -16 -30 -35 0 -13 6 -27 13 -29 6 -3 3 -6 -8 -7 -18 -2 -18 -3 2 -8 16 -5
20 -11 13 -21 -7 -12 -11 -13 -25 -1 -14 12 -15 10 -6 -13 6 -15 8 -34 4 -44
-4 -10 -2 -14 4 -10 6 4 13 1 16 -7 7 -18 -17 -28 -32 -13 -6 6 -11 23 -11 38
0 15 -4 31 -10 34 -5 3 -10 -1 -10 -10 0 -9 -4 -13 -10 -10 -5 3 -10 2 -10 -4
0 -5 4 -11 10 -13 5 -2 13 -18 16 -37 7 -32 6 -33 -15 -22 -27 15 -57 86 -33
79 12 -5 52 41 41 47 -5 4 -7 11 -4 16 4 5 1 9 -5 9 -7 0 -9 -8 -5 -19 5 -16
1 -19 -15 -18 -22 1 -27 13 -8 19 6 2 8 10 4 17 -6 8 -11 9 -20 2 -9 -8 -18
-6 -30 8 -17 18 -17 20 1 30 11 6 13 11 5 11 -7 0 -10 5 -7 10 4 6 3 10 -2 9
-4 -1 -20 -1 -36 0 -24 1 -27 4 -21 25 3 13 2 26 -3 29 -5 4 -15 -23 -22 -59
-11 -51 -17 -64 -28 -59 -19 7 -45 -13 -36 -28 4 -7 -5 -8 -27 -4 -32 7 -32 7
-26 -24 5 -28 4 -31 -14 -26 -17 4 -20 2 -15 -13 3 -11 -1 -20 -11 -24 -14 -5
-16 -1 -11 29 4 22 2 35 -5 35 -6 0 -19 6 -27 14 -9 8 -23 16 -31 18 -8 2 -29
13 -46 25 l-31 22 -19 -39 c-11 -22 -22 -40 -26 -40 -5 0 -8 -4 -8 -10 0 -5 7
-10 15 -10 8 0 15 -4 15 -10 0 -16 17 -12 24 6 4 9 1 22 -5 30 -12 15 -3 54
12 54 6 0 7 -5 3 -12 -4 -7 -3 -8 4 -4 16 10 15 -7 0 -23 -11 -11 -10 -12 0
-6 10 5 13 1 10 -16 -2 -17 4 -27 20 -34 12 -5 22 -13 22 -17 0 -5 13 -8 29
-8 24 0 32 -6 44 -37 9 -21 16 -30 16 -20 1 21 2 21 37 2 22 -11 30 -12 36 -2
5 7 6 0 2 -15 -4 -20 -2 -29 10 -34 9 -3 16 -13 16 -21 0 -8 4 -12 9 -8 12 7
42 -35 34 -48 -3 -6 -1 -7 5 -3 18 11 62 -12 62 -33 0 -11 5 -23 10 -26 6 -4
8 -11 5 -16 -12 -19 52 -13 72 7 8 8 22 14 31 14 9 1 2 7 -15 15 -18 8 -33 18
-33 23 0 13 -40 52 -53 51 -9 0 -9 -2 1 -6 6 -2 10 -9 6 -14 -3 -5 2 -12 10
-15 20 -8 21 -40 2 -47 -16 -6 -26 1 -26 19 0 8 7 11 18 8 12 -4 10 1 -8 18
-26 23 -30 30 -30 47 0 5 -13 8 -29 6 -23 -3 -31 1 -36 15 -3 10 -15 22 -26
25 -13 4 -19 15 -19 35 0 22 -4 28 -15 24 -8 -3 -28 -1 -44 4 -22 8 -31 7 -35
-1 -3 -7 -5 -6 -5 3 0 8 10 23 24 32 24 18 55 15 55 -6 0 -6 14 -11 30 -12 17
-1 30 3 30 7 0 5 -12 9 -27 10 l-28 1 25 8 c24 8 23 8 -7 9 -32 1 -54 23 -53
53 1 7 8 1 16 -14 8 -16 17 -28 20 -28 2 0 0 10 -7 22 -10 18 -9 20 5 15 8 -3
22 1 31 9 13 13 18 14 31 4 12 -11 13 -10 8 4 -7 19 6 21 26 4 9 -8 8 -5 -1 7
-19 23 -21 55 -4 55 6 0 30 -18 54 -41 38 -36 42 -45 38 -76 -4 -30 0 -40 26
-64 17 -16 35 -29 39 -29 5 0 8 -5 8 -11 0 -7 8 -18 17 -25 10 -7 15 -15 11
-19 -3 -4 -16 3 -27 14 -20 20 -23 21 -52 5 -18 -9 -42 -14 -55 -11 -13 2 -24
1 -24 -3 0 -4 14 -10 31 -14 44 -9 49 -8 49 7 0 26 63 9 70 -18 1 -5 -15 -18
-36 -27 -29 -13 -33 -18 -17 -18 12 0 25 5 29 12 5 7 15 2 30 -18 20 -25 23
-26 17 -6 -3 13 -1 22 6 22 6 0 11 -7 11 -15 0 -8 5 -15 10 -15 12 0 13 13 3
24 -5 4 -8 15 -9 24 -4 64 -5 67 -13 54 -10 -17 -25 1 -35 40 l-6 27 35 -21
c20 -11 39 -18 42 -14 4 3 1 6 -5 6 -7 0 -12 5 -12 11 0 5 5 7 12 3 7 -4 8 -3
4 4 -4 7 -1 12 7 12 21 0 26 -21 20 -84 -6 -59 5 -86 37 -86 23 0 92 -51 118
-88 12 -16 24 -47 28 -70 6 -36 3 -42 -20 -57 -15 -10 -45 -19 -66 -21 -36 -2
-40 0 -40 22 0 18 5 24 23 24 13 0 28 -5 35 -12 9 -9 12 -9 12 -1 0 7 -5 15
-10 18 -6 4 -8 11 -5 16 4 5 -1 9 -9 9 -9 0 -16 -4 -16 -10 0 -5 -7 -7 -16 -3
-13 5 -13 7 -2 14 9 6 5 9 -14 9 -20 0 -29 -7 -39 -32 -6 -18 -12 -37 -13 -43
-2 -14 -49 -36 -69 -31 -9 2 -15 1 -12 -3 2 -4 -9 -18 -25 -30 -24 -17 -30
-19 -30 -6 0 8 4 15 10 15 5 0 9 4 7 9 -1 5 5 16 14 23 13 11 14 21 7 57 -7
31 -12 40 -18 31 -5 -8 -6 -18 -4 -22 3 -4 -2 -8 -11 -8 -9 0 -13 5 -10 10 8
13 -1 13 -26 0 -11 -6 -19 -7 -18 -3 1 4 1 17 0 28 -2 19 -3 18 -14 -3 -7 -15
-17 -22 -28 -19 -10 3 -24 -2 -31 -11 -11 -13 -10 -15 5 -9 26 10 103 -3 85
-14 -7 -5 -8 -9 -2 -9 6 0 14 3 18 7 3 4 15 8 25 10 28 4 30 -28 4 -54 -22
-21 -22 -21 -29 -1 -5 16 -8 18 -15 7 -6 -10 -9 -11 -9 -1 0 6 -4 12 -10 12
-5 0 -7 -7 -3 -16 3 -8 11 -13 19 -10 7 3 17 -7 22 -24 8 -23 7 -32 -5 -42
-16 -13 -43 -68 -43 -87 0 -18 31 -41 56 -41 25 0 96 -57 117 -94 6 -12 14
-48 18 -81 l6 -60 1 65 c1 48 -3 72 -17 93 -25 39 -82 86 -104 87 -10 0 -27 5
-39 11 -29 16 -17 60 29 104 52 49 106 73 183 80 109 11 140 31 140 90 0 60
-55 130 -138 175 -44 24 -47 28 -46 66 1 80 21 88 85 33 19 -16 52 -40 74 -52
22 -13 75 -52 118 -87 95 -79 137 -110 149 -110 6 0 23 13 38 30 23 24 33 29
58 24 44 -9 62 23 62 107 0 85 -23 120 -78 118 l-37 -1 32 -8 c44 -10 63 -27
63 -56 0 -26 -11 -30 -41 -14 -11 7 -19 7 -19 1 0 -5 14 -12 30 -16 28 -6 30
-9 30 -56 0 -61 -16 -70 -62 -36 -60 44 -88 60 -88 48 0 -6 20 -21 44 -33 l45
-21 -25 -13 c-23 -12 -28 -11 -49 14 -14 15 -25 32 -25 39 0 7 -6 10 -13 7 -7
-2 -21 2 -32 10 -19 15 -19 15 3 9 13 -3 22 -1 22 6 0 7 -5 9 -10 6 -6 -3 -10
-3 -10 2 0 4 -13 8 -28 9 -16 1 -29 -4 -29 -11 0 -7 5 -12 11 -11 19 2 126
-97 126 -116 0 -28 -23 -21 -53 17 -15 19 -37 35 -48 35 -11 0 -17 4 -14 10 3
5 -1 10 -10 10 -9 0 -40 20 -68 44 -29 24 -67 51 -84 60 -18 9 -33 21 -33 26
0 6 -5 10 -11 10 -6 0 -22 9 -36 20 -14 11 -22 20 -18 20 4 0 2 7 -5 15 -12
14 -7 19 15 16 6 -1 1 6 -9 14 -11 8 -16 15 -12 15 5 0 2 7 -5 17 -13 15 -11
16 16 9 22 -5 26 -4 15 4 -13 9 -13 10 0 10 13 0 13 1 0 10 -9 5 -19 5 -24 0
-4 -4 -14 -6 -21 -3 -9 3 -12 -2 -8 -15 2 -11 0 -23 -6 -26 -6 -4 -12 -2 -12
3 -1 6 -2 17 -3 24 0 6 -5 12 -11 12 -5 0 -16 4 -22 8 -12 7 -15 2 -12 -20 1
-5 5 -7 9 -6 4 1 13 -3 19 -10 7 -10 1 -20 -25 -40 -41 -33 -46 -19 -6 19 23
23 24 25 4 15 -33 -18 -44 -5 -26 30 8 17 13 37 10 45 -3 8 -2 13 3 9 5 -3 11
1 14 7 2 7 8 10 12 6 4 -4 2 -15 -6 -25 -8 -9 -9 -14 -2 -10 6 4 13 1 15 -8 2
-10 7 -12 18 -5 11 7 12 12 3 18 -11 7 -16 26 -14 49 0 7 11 17 23 24 18 10
20 9 14 -6 -5 -14 -2 -16 18 -11 18 4 24 2 22 -9 -1 -8 -6 -18 -11 -22 -4 -4
-5 -2 -1 5 5 8 -1 12 -17 12 -14 0 -27 -7 -31 -15 -3 -8 -1 -15 4 -15 6 0 10
5 10 10 0 6 4 10 8 10 13 0 11 -34 -2 -43 -6 -5 1 -6 17 -3 15 4 37 2 50 -4
21 -11 21 -11 3 4 -18 14 -18 16 -3 16 10 0 20 -7 23 -15 7 -18 44 -20 44 -2
0 8 3 7 10 -3 5 -8 12 -11 16 -7 4 4 0 15 -9 25 -16 15 -19 15 -27 2 -8 -13
-11 -13 -22 -1 -10 11 -10 14 0 18 6 3 12 9 12 15 0 7 -5 6 -14 -1 -22 -18
-62 4 -46 25 7 7 17 11 23 7 6 -3 7 -1 3 5 -4 7 -15 12 -24 12 -16 1 -16 2 1
14 9 7 17 24 17 37 1 23 1 23 15 5 8 -10 12 -23 9 -27 -3 -5 5 -9 17 -9 17 0
19 3 10 13 -6 8 -7 18 -3 22 4 5 2 5 -4 2 -13 -7 -41 20 -31 30 4 3 13 0 22
-7 13 -11 14 -10 9 4 -3 9 -9 16 -13 16 -8 0 -31 45 -31 60 0 6 5 10 10 10 6
0 10 -6 10 -13 0 -18 48 -67 65 -67 8 0 15 -5 15 -11 0 -6 -8 -8 -18 -5 -22 7
-26 -20 -5 -28 8 -3 11 -11 7 -18 -5 -10 -4 -10 7 0 11 11 12 14 1 21 -11 7
-11 9 1 14 18 7 31 -19 16 -29 -6 -3 -8 -12 -5 -20 3 -8 -1 -17 -10 -21 -12
-5 -13 -7 -3 -14 11 -6 10 -9 -4 -15 -21 -8 -22 -24 -1 -24 8 0 12 5 9 10 -3
6 -1 10 4 10 6 0 11 6 11 13 0 7 8 29 18 49 14 26 15 35 5 31 -7 -3 -13 -1
-13 5 0 5 11 12 25 14 22 5 25 2 25 -26 0 -37 14 -61 29 -52 6 4 11 2 11 -4 0
-15 -31 -25 -39 -13 -10 17 -50 -4 -61 -32 -11 -28 -3 -52 24 -75 9 -7 16 -18
16 -24 0 -6 -11 1 -24 15 -14 17 -31 25 -47 23 -13 -1 -36 -3 -51 -3 -31 -1
-39 -27 -10 -34 9 -2 2 -2 -16 0 -28 4 -32 2 -21 -9 7 -8 26 -12 47 -10 22 3
32 1 28 -6 -4 -6 4 -6 19 1 l25 12 -25 3 c-14 2 -25 7 -25 12 0 5 -10 11 -22
13 -20 4 -19 4 5 6 15 0 27 -3 27 -9 0 -5 10 -10 23 -9 21 0 21 1 2 10 -18 8
-17 8 5 6 14 -1 24 -8 22 -15 -1 -8 2 -11 7 -8 11 7 36 -22 27 -31 -4 -4 -11
-1 -15 6 -6 8 -11 9 -15 3 -3 -6 4 -14 15 -17 20 -7 21 -8 5 -17 -9 -5 -24 -7
-32 -4 -8 3 -14 1 -14 -4 0 -6 -8 -10 -17 -11 -15 0 -15 -2 2 -9 11 -5 29 -8
40 -8 16 0 15 2 -5 8 l-25 8 25 1 c34 2 54 16 46 32 -4 8 -1 6 8 -5 20 -24 5
-53 -30 -62 -18 -5 -22 -9 -13 -15 10 -6 10 -11 1 -21 -8 -11 -6 -17 9 -26 19
-12 19 -11 9 8 -13 24 -7 25 23 5 14 -9 27 -11 36 -6 8 5 20 7 28 4 7 -3 13 1
13 10 0 23 39 28 60 7 16 -16 19 -16 24 -4 3 8 2 12 -3 9 -5 -3 -12 -1 -15 4
-4 5 -1 11 6 14 7 2 2 2 -12 0 -19 -3 -22 -1 -10 7 22 14 47 12 54 -5 6 -17
36 -21 36 -5 0 6 0 13 0 18 0 4 -8 8 -17 9 -10 1 -35 5 -56 9 -21 4 -37 3 -35
-2 1 -5 -10 -21 -25 -36 -25 -25 -32 -26 -28 -4 1 5 -10 1 -24 -8 -21 -14 -29
-15 -41 -5 -8 6 -14 17 -14 23 0 6 4 5 9 -3 8 -12 13 -12 35 3 15 9 24 21 21
26 -4 6 1 10 10 10 11 0 15 -5 11 -15 -4 -13 -2 -14 14 -5 28 15 25 24 -12 38
-39 15 -74 40 -66 47 3 3 23 -5 43 -20 21 -14 48 -25 60 -25 12 0 38 -2 56 -5
26 -4 30 -3 14 4 -11 5 -37 10 -57 10 -50 1 -148 88 -148 132 0 25 5 29 38 35
50 9 81 26 116 63 17 17 36 31 43 31 8 0 30 8 51 19 20 10 59 24 87 30 27 7
54 16 60 20 5 5 22 11 38 15 23 5 27 3 27 -14 0 -33 30 -70 57 -70 18 0 28 9
39 36 14 34 17 35 57 32 35 -2 44 -8 54 -30 7 -17 20 -28 31 -28 29 0 102 88
102 123 0 36 -32 82 -70 102 -25 13 -33 13 -75 -1 -33 -12 -60 -14 -93 -9 -61
9 -104 9 -173 0 l-56 -7 -21 34 c-40 64 -19 261 32 305 37 32 53 29 71 -13 17
-41 54 -74 103 -91 39 -13 82 -54 105 -100 9 -17 23 -30 30 -29 27 4 87 46 87
61 0 8 5 15 10 15 11 0 14 43 3 54 -4 3 -8 12 -9 19 -2 7 -8 26 -15 43 -11 27
-10 40 9 91 12 33 22 73 22 88 0 16 8 37 17 47 13 14 14 21 5 30 -16 16 -15
45 2 51 11 5 15 23 14 78 -1 61 -3 69 -15 53 -16 -22 -17 -49 -2 -77 10 -18 7
-25 -26 -53 -21 -18 -40 -40 -41 -49 -4 -27 -11 -28 -18 -1 -4 17 -11 23 -21
20 -8 -4 -15 -11 -15 -16 0 -6 6 -8 14 -5 9 4 16 -4 20 -25 3 -16 4 -34 1 -38
-3 -4 2 -10 10 -14 8 -3 15 -13 15 -23 0 -13 -3 -14 -12 -5 -17 17 -23 15 -36
-13 -22 -47 -14 -61 13 -24 14 19 29 33 33 31 11 -5 15 29 5 39 -14 14 -3 69
14 69 10 0 12 6 8 20 -9 30 4 24 16 -6 8 -22 6 -29 -9 -40 -13 -9 -17 -21 -14
-43 8 -54 -36 -150 -61 -134 -5 3 -7 1 -3 -5 11 -18 -14 -25 -40 -11 -31 16
-31 28 0 22 23 -5 24 -4 16 33 -6 24 -5 40 0 42 6 2 10 10 10 18 0 10 -6 8
-21 -7 -20 -20 -22 -20 -40 -3 -10 9 -22 14 -25 11 -9 -9 15 -37 31 -37 7 0
18 -7 25 -15 11 -13 11 -18 0 -28 -10 -9 -11 -9 -6 1 4 6 2 12 -3 12 -6 0 -11
-5 -11 -11 0 -5 -5 -7 -10 -4 -6 4 -8 11 -5 16 4 5 2 9 -4 9 -5 0 -18 13 -27
30 -14 22 -23 28 -39 24 -13 -3 -31 3 -46 15 l-24 20 29 -5 c16 -3 34 -8 39
-11 6 -3 7 -1 3 5 -4 7 -14 12 -22 12 -8 0 -14 4 -14 9 0 14 27 7 50 -14 11
-10 23 -15 27 -12 3 4 12 2 20 -4 10 -9 17 -8 28 1 8 7 15 9 15 4 0 -4 5 -3
11 3 6 6 18 9 26 6 12 -5 14 -1 8 15 -4 15 -2 22 6 22 7 0 0 13 -15 29 -27 28
-27 29 -7 36 12 3 21 12 21 18 0 8 3 7 9 -2 7 -11 16 -8 45 15 20 16 36 32 36
37 0 12 -28 8 -33 -5 -3 -7 -6 0 -6 16 -1 26 1 27 17 15 15 -12 16 -12 5 2 -7
9 -9 20 -5 25 4 4 -1 3 -10 -5 -9 -7 -20 -25 -23 -41 -4 -19 -16 -32 -36 -40
-16 -7 -29 -17 -29 -23 0 -6 -3 -7 -6 -4 -4 3 -16 1 -28 -5 -20 -11 -25 -13
-43 -17 -4 0 2 -7 12 -15 14 -10 25 -11 37 -5 10 5 18 8 19 7 0 -2 2 -17 4
-34 4 -27 1 -32 -19 -36 -19 -4 -22 -1 -18 14 2 10 -1 25 -8 33 -14 17 -35 21
-25 5 3 -5 8 -19 10 -30 3 -18 1 -19 -17 -9 -43 23 -73 27 -87 11 -12 -13 -15
-12 -23 2 -5 9 -17 16 -26 16 -15 0 -15 -2 -2 -11 12 -8 12 -10 1 -7 -8 2 -15
12 -17 21 -3 20 -3 20 29 8 18 -7 30 -6 43 4 18 13 17 14 -13 15 -47 0 -41 15
7 16 22 0 35 -3 29 -7 -8 -4 -7 -8 2 -12 10 -4 10 -6 2 -6 -26 -2 -12 -16 16
-16 18 0 27 4 24 12 -3 6 0 21 7 32 7 14 7 21 0 21 -5 0 -10 9 -10 19 0 21
-17 37 -28 26 -3 -3 0 -10 8 -15 8 -6 11 -10 6 -10 -5 0 -4 -6 2 -13 6 -7 7
-18 3 -26 -6 -9 -11 -10 -15 -2 -4 6 -18 11 -32 11 -13 0 -24 5 -24 11 0 5 -4
8 -9 4 -5 -3 -12 -1 -16 5 -9 15 -25 12 -19 -4 3 -7 -3 -16 -12 -20 -23 -9
-28 -2 -14 23 12 24 44 27 80 6 29 -16 40 -18 40 -7 0 10 -54 33 -97 42 -24 5
-33 3 -33 -6 0 -7 -5 -16 -12 -20 -7 -5 -8 -3 -3 7 7 12 6 12 -7 1 -14 -11
-26 -6 -82 34 -68 49 -81 72 -46 81 11 3 17 10 14 15 -3 5 -14 2 -25 -8 -23
-21 -36 -13 -15 9 8 8 12 17 9 21 -3 3 -12 -2 -19 -12 -13 -16 -13 -16 -14 1
0 10 -4 15 -10 12 -5 -3 -10 -1 -10 4 0 6 -7 11 -15 11 -9 0 -12 6 -9 18 5 14
4 14 -5 2 -7 -11 -5 -20 7 -34 16 -18 16 -18 -7 -11 -13 4 -30 8 -37 9 -20 3
-39 24 -30 33 4 4 15 2 26 -4 15 -10 19 -9 24 3 9 24 7 29 -5 17 -13 -13 -42
-6 -33 8 3 5 26 9 50 9 41 0 52 -6 112 -59 71 -62 121 -88 108 -56 -3 10 -2
23 3 29 7 8 -1 12 -28 12 -26 1 -54 12 -85 33 -52 36 -63 54 -13 22 65 -42 77
-46 98 -33 10 7 21 12 24 12 5 0 38 -59 41 -75 1 -5 7 -21 12 -35 11 -25 11
-25 11 -2 1 13 5 21 10 17 5 -3 13 0 16 6 4 5 14 8 23 4 14 -5 14 -3 -1 13 -9
10 -17 22 -17 26 0 4 -7 14 -15 23 -17 17 -13 29 5 18 20 -12 61 -86 54 -97
-4 -7 -3 -8 5 -4 6 4 19 2 27 -5 39 -32 107 70 99 149 -2 23 -6 46 -9 51 -8
12 53 63 65 55 6 -3 7 -14 4 -25 -3 -10 2 -43 11 -73 17 -53 17 -57 -2 -98
-22 -49 -24 -60 -10 -70 6 -4 2 -10 -9 -14 -11 -5 -20 -3 -23 4 -5 16 -32 3
-32 -15 0 -11 4 -13 13 -5 6 5 21 6 31 2 18 -6 16 -8 -11 -18 -17 -5 -34 -8
-37 -5 -3 4 -6 1 -6 -6 0 -7 -5 -9 -11 -5 -6 3 -9 19 -5 35 3 15 1 31 -4 34
-6 3 -7 -1 -3 -11 5 -13 2 -15 -15 -9 -25 7 -29 -7 -7 -25 9 -7 14 -19 11 -26
-3 -7 2 -18 10 -25 12 -9 17 -9 27 3 7 8 26 21 44 27 23 9 34 21 38 43 8 34
70 108 91 108 8 0 14 5 14 10 0 16 -25 11 -52 -10 l-26 -20 -7 95 c-9 129 -30
151 -87 94 -29 -29 -30 -33 -24 -87 6 -48 3 -64 -16 -104 -30 -63 -50 -62 -93
6 -48 75 -97 91 -173 54 -18 -9 -26 -8 -45 10 -31 29 -70 42 -131 42 -63 0
-86 -19 -93 -77 -2 -23 -12 -44 -25 -53 -23 -17 -40 -35 -97 -103 -22 -26 -43
-47 -47 -47 -9 0 -9 89 0 175 16 145 76 279 214 475 33 47 74 119 92 160 18
41 45 98 60 125 33 58 62 145 91 268 28 117 24 262 -7 303 -58 78 -84 52 -84
-84 0 -105 -11 -142 -37 -120 -24 20 -143 204 -186 288 -22 41 -62 106 -91
145 -29 38 -69 93 -89 122 -48 66 -91 103 -147 127 -25 10 -58 25 -75 32 -16
7 -82 35 -145 61 l-115 48 -200 2 c-190 1 -203 0 -252 -22z m509 -29 c54 -21
95 -43 92 -47 -3 -5 1 -6 9 -3 23 8 212 -75 247 -109 53 -51 151 -194 144
-210 -3 -8 -1 -18 5 -22 7 -4 8 1 4 12 -6 17 -5 17 13 1 11 -10 42 -59 69
-110 46 -87 158 -262 192 -300 51 -57 71 9 73 234 0 26 26 11 49 -28 13 -21
16 -34 9 -34 -9 0 -9 -3 0 -12 17 -17 15 -139 -2 -230 -20 -99 -60 -220 -90
-272 -14 -24 -36 -72 -50 -109 -26 -69 -101 -190 -137 -223 l-22 -19 18 28
c10 16 20 41 21 55 3 23 1 24 -7 9 -6 -10 -8 -21 -5 -24 3 -3 -3 -17 -14 -31
-11 -13 -17 -28 -14 -33 5 -8 -11 -41 -73 -144 -42 -71 -79 -193 -93 -305 -6
-52 -14 -104 -16 -115 -4 -15 -3 -17 4 -6 7 10 10 4 10 -22 0 -64 33 -80 51
-24 6 17 24 42 40 55 16 12 34 36 41 52 7 16 16 27 21 24 5 -3 9 -1 9 3 0 5
10 13 23 18 12 6 23 20 25 33 3 22 16 29 26 13 3 -5 -4 -20 -15 -35 -11 -14
-15 -26 -9 -26 6 0 8 -4 5 -10 -3 -5 -1 -10 5 -10 6 0 8 -4 5 -10 -8 -13 1
-13 27 1 18 10 20 9 15 -5 -4 -9 -2 -16 3 -16 14 0 12 37 -2 63 -25 45 -18 53
20 24 11 -8 11 -12 0 -18 -9 -6 -8 -9 6 -9 16 0 17 -2 5 -17 -13 -16 -12 -17
3 -4 10 7 15 18 11 25 -3 6 10 -5 30 -24 41 -41 40 -48 -2 -27 -29 14 -31 14
-31 -2 0 -14 11 -20 48 -25 89 -12 185 -71 164 -102 -13 -18 -75 -34 -88 -23
-8 7 -14 6 -20 -2 -4 -7 -3 -9 4 -5 6 3 13 2 16 -3 3 -5 -1 -11 -9 -15 -8 -3
-17 -1 -20 5 -4 5 -11 7 -16 4 -5 -4 -9 -1 -9 4 0 6 -8 11 -17 11 -17 -1 -17
-1 0 -11 14 -8 17 -18 11 -42 -3 -18 -11 -38 -16 -44 -6 -7 -7 -13 -2 -13 5 0
4 -4 -3 -8 -9 -6 -8 -16 7 -40 18 -29 22 -31 46 -21 34 12 53 37 47 60 -3 9 0
20 6 23 6 4 11 2 11 -3 0 -6 5 -11 11 -11 5 0 8 4 4 9 -3 5 -1 12 4 15 5 4 8
17 7 31 -2 13 1 22 5 19 5 -3 9 -13 9 -22 0 -14 2 -15 10 -2 5 9 5 19 0 26 -6
6 -6 14 -2 19 4 4 -3 2 -16 -4 -12 -7 -20 -16 -17 -20 2 -5 -4 -11 -15 -14
-11 -3 -20 -9 -19 -14 5 -31 -3 -36 -21 -14 -11 13 -20 18 -20 12 0 -6 -7 -11
-16 -11 -27 0 2 28 59 57 43 21 53 23 78 13 15 -7 32 -13 36 -14 15 -3 53 -48
48 -56 -4 -6 8 -8 27 -5 28 5 30 4 11 -4 -13 -6 -23 -19 -23 -31 0 -14 -10
-24 -30 -32 -28 -9 -29 -11 -13 -23 10 -8 22 -10 27 -5 11 11 34 2 71 -28 29
-24 29 -25 5 -19 -14 4 -19 4 -12 1 6 -3 9 -11 6 -16 -5 -7 -2 -8 5 -4 13 9
51 -20 51 -38 0 -22 41 -38 81 -31 34 6 39 4 39 -13 0 -12 -14 -28 -35 -41
l-35 -20 -20 37 c-10 20 -19 33 -20 29 0 -4 -14 8 -30 27 -17 18 -42 37 -56
40 -40 10 -74 36 -91 70 -23 46 -42 64 -61 59 -15 -4 -61 -56 -82 -92 -7 -12
-11 -12 -23 -2 -10 8 -17 9 -22 1 -3 -5 -11 -10 -17 -10 -6 0 -8 3 -5 6 4 4
-7 31 -23 61 -28 51 -29 56 -15 88 14 34 11 42 -11 27 -19 -13 -23 -54 -8 -78
9 -13 13 -28 9 -34 -4 -6 4 -23 16 -37 13 -15 19 -23 12 -20 -8 6 -9 0 0 -22
8 -21 14 -27 23 -20 8 7 14 3 19 -13 7 -23 7 -23 18 5 16 40 29 33 20 -10 -4
-21 -8 -70 -8 -110 0 -39 -3 -69 -7 -66 -19 11 -5 -9 25 -36 25 -24 41 -31 75
-31 23 0 42 -4 42 -9 0 -11 -47 -20 -57 -11 -10 10 -53 -6 -53 -20 0 -5 -7
-10 -15 -10 -9 0 -12 -6 -8 -17 6 -14 8 -13 24 6 11 13 20 17 24 11 5 -8 11
-8 21 1 7 6 30 11 51 11 21 0 33 3 27 5 -7 2 -10 13 -7 23 6 22 25 24 121 8
55 -9 72 -8 119 8 l55 19 39 -45 c41 -47 47 -68 27 -88 -19 -19 -26 -14 -21
16 4 23 3 24 -7 9 -6 -9 -9 -25 -6 -35 7 -21 -37 -68 -53 -57 -6 3 -11 20 -11
36 0 21 -4 28 -12 23 -6 -4 -34 -6 -61 -5 -32 1 -53 -3 -59 -11 -7 -10 -11 -9
-22 4 -7 10 -16 15 -19 11 -12 -12 -7 12 6 29 13 17 45 9 34 -9 -3 -5 3 -9 13
-9 25 0 13 25 -18 37 -24 9 -24 10 -6 24 28 21 65 20 58 -2 -5 -15 -4 -16 5
-3 9 13 11 13 11 -2 0 -10 -7 -18 -16 -18 -8 0 -12 -5 -9 -11 4 -6 13 -8 21
-5 8 3 14 2 14 -3 0 -4 12 -8 28 -7 22 1 26 5 24 24 -2 16 2 22 17 22 11 0 23
5 27 12 7 11 -22 39 -40 37 -6 0 -5 -3 2 -6 20 -8 14 -33 -8 -33 -17 0 -19 -5
-14 -25 4 -16 2 -25 -6 -25 -6 0 -8 5 -4 12 5 8 2 9 -9 5 -10 -4 -17 -1 -17 6
1 17 26 48 33 40 4 -3 7 -1 7 5 0 18 -18 14 -29 -5 -7 -12 -13 -14 -18 -7 -9
12 -84 27 -80 16 4 -12 -40 -62 -48 -54 -4 4 -4 -4 0 -18 6 -20 5 -22 -5 -13
-13 12 -52 4 -100 -22 -14 -7 -43 -16 -66 -19 -22 -4 -53 -15 -69 -26 -15 -10
-34 -16 -42 -13 -9 4 -34 -13 -63 -42 -42 -41 -49 -45 -57 -30 -6 9 -14 15
-18 13 -13 -5 -12 102 2 113 7 7 13 6 17 0 4 -5 2 -12 -4 -16 -5 -3 -10 -14
-10 -24 0 -14 7 -18 26 -15 28 3 59 24 36 24 -20 0 -52 62 -47 90 3 14 2 19
-1 13 -3 -7 -13 -13 -23 -13 -9 0 -22 -5 -28 -11 -12 -12 -21 -4 -80 67 -32
37 -44 84 -23 84 6 0 16 -12 23 -27 6 -16 25 -40 41 -54 19 -17 26 -31 21 -39
-5 -9 -4 -11 3 -6 27 17 -6 93 -35 82 -8 -3 -11 -1 -8 4 3 5 -3 18 -15 30 -23
23 -25 41 -8 58 19 19 44 14 76 -13 16 -13 32 -22 36 -18 5 6 10 -24 9 -69 0
-10 4 -18 9 -18 5 0 7 -4 3 -10 -3 -5 -12 -7 -19 -4 -19 7 -31 -15 -17 -29 8
-8 11 -8 11 1 0 21 26 13 38 -10 6 -13 11 -17 11 -10 1 7 5 11 11 7 5 -3 7
-12 4 -19 -3 -7 2 -16 11 -20 9 -3 13 -12 10 -18 -4 -7 -1 -6 7 3 19 23 41 13
27 -12 -6 -11 -9 -28 -7 -37 3 -11 9 -3 17 21 7 20 16 37 21 37 5 0 4 -14 -2
-31 -13 -37 -3 -52 11 -16 6 14 18 35 28 46 9 11 18 39 19 61 1 33 -3 44 -21
56 -12 8 -29 12 -38 8 -11 -4 -31 10 -62 41 -41 43 -45 45 -41 22 4 -25 34
-77 43 -77 3 0 2 7 -1 16 -3 8 -2 12 4 9 6 -3 10 -12 10 -18 0 -19 37 -39 43
-24 3 7 6 -5 6 -25 1 -21 6 -38 12 -38 8 0 10 12 6 34 -5 29 -3 34 10 29 11
-5 14 -16 10 -45 -7 -52 -15 -58 -39 -29 -16 21 -21 22 -29 10 -8 -11 -17 -6
-48 29 -24 26 -37 49 -34 60 2 10 0 36 -5 60 -6 24 -6 39 -1 36 13 -8 10 8 -5
28 -10 14 -16 15 -37 5 -13 -7 -39 -11 -56 -9 -25 3 -33 8 -33 23 0 12 5 19
13 16 6 -2 11 -9 10 -14 -1 -5 7 -10 18 -10 11 -1 17 2 14 7 -8 13 21 20 34 7
8 -8 11 -8 11 2 0 7 5 9 10 6 6 -3 10 1 10 10 0 13 -5 15 -22 9 -13 -4 -45 -7
-72 -6 l-49 3 6 -31 c6 -28 5 -30 -23 -30 -35 0 -41 -19 -7 -21 22 -2 22 -2
-1 -6 -15 -3 -29 2 -39 14 -12 15 -14 15 -9 1 2 -9 -1 -21 -8 -27 -18 -15 -29
-1 -13 17 10 13 9 14 -10 3 -25 -13 -29 -26 -12 -36 6 -4 8 -13 5 -21 -3 -8 1
-14 9 -14 8 0 15 5 15 10 0 6 7 10 16 10 19 0 54 -37 54 -56 0 -7 16 -29 35
-50 19 -20 35 -44 35 -52 0 -24 -78 57 -92 95 -10 28 -15 32 -37 26 -31 -7
-47 -20 -38 -30 4 -4 13 -1 19 5 17 17 28 15 28 -7 0 -12 -9 -20 -25 -23 -14
-3 -25 -2 -25 2 0 7 -36 20 -70 25 -8 1 -37 6 -65 10 -27 4 -47 4 -43 0 4 -5
3 -14 -3 -22 -8 -8 -8 -13 -1 -13 8 0 1 -35 -14 -68 -1 -1 -9 0 -18 4 -22 9
-20 31 4 39 22 7 18 25 -6 25 -8 0 -31 7 -52 16 -20 8 -37 15 -37 14 0 -1 -13
4 -29 10 -29 11 -56 0 -56 -23 0 -7 4 -7 12 1 7 7 20 12 31 12 14 0 17 -5 12
-22 -4 -13 -16 -30 -27 -39 -16 -12 -18 -18 -8 -24 8 -5 16 -1 22 9 10 17 33
22 42 8 3 -5 3 -18 0 -29 -5 -19 -7 -19 -50 -5 -37 12 -44 19 -42 36 2 12 10
21 20 21 9 0 20 4 24 8 4 4 -4 7 -17 7 -33 0 -52 19 -38 37 7 7 19 13 28 13
14 0 14 2 1 11 -11 8 -7 9 17 4 20 -4 34 -2 39 6 4 8 3 9 -4 5 -7 -4 -20 10
-34 38 -12 25 -24 42 -27 38 -10 -13 -62 -32 -72 -26 -5 3 -8 0 -7 -8 2 -7 -2
-12 -7 -11 -6 1 -11 -7 -11 -18 0 -10 6 -19 14 -19 7 0 10 -5 7 -10 -3 -5 -2
-10 4 -10 5 0 13 5 16 10 4 6 10 8 15 5 5 -3 11 -1 15 5 3 5 1 10 -6 10 -8 0
-9 3 0 13 6 8 8 17 4 20 -3 4 3 7 15 7 30 0 35 -15 11 -36 -12 -11 -25 -29
-30 -41 -8 -21 -10 -21 -35 -8 -15 7 -30 19 -34 26 -5 7 -13 8 -21 3 -17 -10
-59 -12 -65 -2 -3 4 -1 8 4 8 5 0 29 15 52 34 24 19 58 37 75 40 32 6 71 41
56 51 -5 3 -9 24 -8 47 2 80 -28 304 -43 323 -5 6 -13 28 -19 50 -18 68 -68
142 -116 175 -46 31 -53 32 -88 8 -16 -11 -21 -9 -41 14 -29 37 -46 35 -102
-13 -41 -35 -49 -38 -56 -24 -7 11 -3 29 11 59 12 23 21 47 21 52 0 5 27 40
60 77 93 105 127 175 139 290 1 4 8 7 16 7 8 0 15 5 15 11 0 5 -4 7 -10 4 -7
-4 -7 3 0 20 6 15 8 31 5 36 -3 5 0 19 6 31 11 20 10 21 -3 10 -13 -10 -17
-10 -21 1 -8 22 -71 47 -119 47 -61 0 -136 -25 -180 -60 -47 -38 -78 -40 -78
-5 0 18 19 43 61 85 33 33 64 58 69 55 20 -12 240 209 276 278 22 42 50 147
37 133 -3 -3 -15 14 -27 36 -34 67 -65 84 -149 80 -107 -4 -125 -6 -121 -13 7
-12 -49 -20 -60 -9 -15 15 3 40 50 67 44 26 68 31 38 8 -10 -8 -14 -15 -8 -15
13 0 52 29 39 30 -9 1 47 29 70 34 6 2 27 10 47 20 21 9 42 16 48 16 27 0 73
35 110 84 45 59 83 167 62 174 -7 2 -10 13 -6 27 3 12 1 26 -5 29 -7 5 -9 0
-5 -11 3 -10 -2 -4 -12 12 -28 51 -57 76 -114 102 -86 39 -172 59 -240 56 -14
-1 -46 -2 -73 -4 -55 -3 -63 2 -48 30 30 54 134 79 321 77 143 -2 146 -2 242
-40z m993 -1873 c29 -32 31 -43 10 -43 -8 0 -15 4 -15 9 0 4 -12 20 -26 35
-20 19 -23 26 -11 26 9 0 28 -12 42 -27z m-85 -38 c9 -10 9 -15 1 -15 -6 0
-11 4 -11 9 0 5 -8 12 -17 14 -15 4 -15 5 -2 6 9 0 22 -6 29 -14z m-221 -36
c-16 -10 -23 -4 -14 10 3 6 11 8 17 5 6 -4 5 -9 -3 -15z m11 -19 c0 -5 -7 -10
-16 -10 -8 0 -12 5 -9 10 3 6 10 10 16 10 5 0 9 -4 9 -10z m230 -254 c0 -3 -4
-8 -10 -11 -5 -3 -10 -1 -10 4 0 6 5 11 10 11 6 0 10 -2 10 -4z m331 -19 c-10
-9 -11 -8 -5 6 3 10 9 15 12 12 3 -3 0 -11 -7 -18z m-391 -22 c11 -21 11 -28
1 -38 -11 -9 -14 -9 -18 1 -3 6 -11 12 -18 12 -18 0 -26 25 -12 39 17 17 33
13 47 -14z m256 0 c12 -8 24 -11 28 -8 3 3 6 1 6 -5 0 -16 -23 -28 -28 -14 -2
7 -8 10 -13 6 -5 -3 -9 0 -9 5 0 6 -5 11 -10 11 -6 0 -3 -14 6 -32 14 -28 14
-31 1 -18 -9 8 -19 27 -22 43 -8 31 8 36 41 12z m-295 -48 c-1 -12 -15 -9 -19
4 -3 6 1 10 8 8 6 -3 11 -8 11 -12z m349 -6 c0 -10 -7 -24 -15 -31 -13 -10
-15 -9 -15 12 0 14 3 28 7 31 12 13 23 7 23 -12z m131 -77 c7 -9 8 -14 1 -14
-6 0 -14 5 -17 10 -7 11 -25 4 -25 -10 0 -4 14 -13 30 -19 17 -5 30 -17 30
-27 0 -15 -2 -15 -25 0 -18 12 -36 15 -59 11 -21 -4 -36 -2 -41 5 -10 17 2 25
18 12 13 -11 27 -7 27 8 0 4 -11 12 -25 18 -14 7 -25 20 -25 31 0 17 4 19 31
11 36 -11 49 -6 50 18 0 9 5 4 9 -11 5 -16 14 -35 21 -43z m-128 9 c-4 -10 -2
-14 5 -9 6 3 13 2 17 -4 3 -5 -1 -10 -9 -10 -8 0 -20 9 -26 20 -8 16 -8 20 4
20 10 0 13 -6 9 -17z m-339 -8 c-4 -8 -8 -15 -10 -15 -2 0 -4 7 -4 15 0 8 4
15 10 15 5 0 7 -7 4 -15z m-197 -160 c0 -8 -4 -15 -8 -15 -11 0 -20 16 -12 24
11 11 20 7 20 -9z m-157 -35 c0 -5 -12 -10 -26 -10 -14 0 -23 4 -19 10 3 6 15
10 26 10 10 0 19 -4 19 -10z m-520 -7 c-1 -18 -19 -35 -29 -28 -9 5 -9 10 0
21 12 15 29 19 29 7z m-67 -82 c-4 -14 14 -14 23 0 4 6 10 7 15 2 6 -6 3 -24
-6 -46 -8 -20 -15 -42 -14 -49 0 -7 4 -2 10 10 15 39 34 21 31 -29 -2 -33 0
-40 7 -29 10 14 15 7 12 -13 -1 -5 3 -5 9 -2 8 5 6 13 -5 25 -8 9 -13 24 -9
34 16 42 48 -10 33 -53 -11 -32 -23 -39 -34 -21 -3 6 -15 10 -26 10 -25 0
-101 50 -96 63 6 20 27 19 27 -2 0 -14 5 -19 15 -15 12 5 13 9 4 20 -9 12 -7
20 11 39 13 14 18 25 12 25 -7 0 -15 0 -19 0 -5 0 -9 -4 -9 -10 -1 -5 -2 -15
-3 -22 -1 -7 -8 -5 -19 5 -10 10 -23 17 -28 17 -5 0 -3 -4 4 -8 13 -9 7 -42
-8 -42 -4 0 -13 7 -20 15 -10 12 -7 21 19 50 27 31 31 33 31 15 0 -12 4 -19 9
-16 5 3 7 16 4 27 -5 16 -2 20 8 17 8 -3 13 -11 12 -17z m370 -12 c14 -20 16
-20 26 -2 9 15 12 16 20 3 5 -8 7 -18 5 -22 -3 -4 0 -8 5 -8 6 0 11 7 11 16 0
11 5 14 16 10 9 -3 19 -6 24 -6 5 0 12 -10 16 -22 6 -20 7 -21 20 -4 13 18 38
13 31 -7 -4 -13 -41 -16 -83 -7 -27 6 -33 4 -43 -16 -6 -13 -7 -24 -2 -24 4 0
6 -22 5 -49 -3 -38 1 -54 17 -72 11 -13 17 -18 14 -11 -4 8 1 19 11 27 24 18
38 19 31 1 -4 -10 0 -12 14 -9 10 3 19 1 19 -5 0 -9 -46 -24 -80 -26 -8 -1
-16 -8 -18 -17 -2 -9 -14 -21 -28 -28 -33 -14 -33 -14 -31 8 0 11 5 17 10 14
4 -2 19 3 33 12 20 13 23 19 14 31 -8 8 -21 12 -36 8 -21 -5 -24 -3 -24 21 0
14 4 24 9 20 5 -3 12 -1 16 5 4 6 -6 11 -24 11 -53 2 -56 4 -56 24 0 12 9 22
25 26 25 7 25 7 2 8 -33 1 -27 45 6 47 20 1 22 -4 24 -50 l2 -51 3 47 c3 34 8
46 18 42 7 -3 16 -1 19 4 3 5 -13 14 -34 21 -29 9 -40 17 -40 31 0 26 15 25
33 -1z m230 -40 c5 -3 8 -9 7 -13 -3 -15 37 -53 53 -50 9 1 17 -2 17 -7 0 -5
-6 -9 -14 -9 -8 0 -16 -5 -18 -12 -11 -31 -88 70 -88 116 l0 30 17 -24 c9 -14
21 -28 26 -31z m-393 19 c0 -21 1 -21 13 -3 16 22 36 13 34 -15 -2 -25 -10
-25 -50 -2 -18 9 -34 18 -36 19 -1 1 0 6 4 12 11 19 35 12 35 -11z m813 7 c-3
-9 -8 -14 -10 -11 -3 3 -2 9 2 15 9 16 15 13 8 -4z m-931 -20 c-5 -29 -10 -31
-28 -13 -19 19 -10 41 14 36 11 -2 16 -11 14 -23z m149 -35 c15 -9 17 -14 7
-29 -14 -22 -48 -16 -48 8 0 31 11 36 41 21z m233 -27 c-3 -21 -14 -46 -24
-57 -17 -17 -17 -17 -13 8 3 14 10 26 15 26 5 0 3 7 -6 15 -19 19 -10 45 16
45 16 0 18 -5 12 -37z m276 26 c0 -22 -15 -39 -34 -40 -11 0 -15 -3 -8 -6 20
-8 14 -30 -10 -37 -34 -9 -38 -8 -38 9 0 8 7 15 15 15 11 0 15 8 13 28 -3 23
0 27 21 24 13 -2 21 0 18 6 -4 5 0 9 8 9 8 0 15 -4 15 -8z m-211 -3 c-15 -13
-49 -25 -49 -17 0 5 8 12 18 14 24 6 36 8 31 3z m-245 -22 c13 -33 7 -46 -16
-38 -31 9 -31 9 -18 33 13 25 26 27 34 5z m256 -40 c0 -14 -6 -32 -14 -40 -19
-18 -26 -18 -26 1 0 17 -16 20 -25 5 -3 -5 -12 -10 -18 -10 -7 1 -1 10 13 21
14 12 26 16 28 10 2 -6 8 -11 13 -11 6 0 7 5 4 10 -3 6 -1 10 4 10 6 0 11 8
11 18 -1 15 -2 15 -13 2 -7 -8 -21 -16 -31 -18 -16 -3 -17 -2 -5 11 17 16 41
26 52 20 4 -2 7 -15 7 -29z m664 0 c2 -6 0 -17 -5 -25 -7 -11 -12 -10 -30 8
-28 28 -20 60 11 41 11 -7 22 -18 24 -24z m-971 0 c37 -13 47 -20 47 -39 0
-18 -4 -21 -25 -17 -17 3 -25 11 -26 26 0 11 -3 15 -6 9 -5 -15 -39 -17 -47
-4 -5 8 2 41 8 41 1 0 23 -7 49 -16z m113 -36 c12 -19 -7 -57 -36 -72 -29 -14
-30 -14 -30 10 0 18 6 24 23 25 18 1 18 2 4 6 -11 3 -16 10 -13 20 3 8 6 18 6
23 0 10 38 1 46 -12z m154 -68 c0 -5 -4 -10 -10 -10 -5 0 -10 5 -10 10 0 6 5
10 10 10 6 0 10 -4 10 -10z m-295 -10 c3 -5 -3 -10 -14 -10 -12 0 -21 5 -21
10 0 6 6 10 14 10 8 0 18 -4 21 -10z m321 -62 c-9 -5 -22 -7 -29 -4 -7 2 -4 5
6 5 10 1 15 5 12 11 -4 6 1 7 11 3 15 -6 15 -7 0 -15z m-431 2 c-3 -5 -11 -10
-16 -10 -6 0 -7 5 -4 10 3 6 11 10 16 10 6 0 7 -4 4 -10z m-215 -32 c7 -18 9
-19 9 -5 1 16 3 16 31 2 17 -9 30 -24 30 -34 0 -16 -5 -18 -33 -11 -38 8 -79
29 -59 30 10 0 10 5 2 20 -8 14 -8 20 0 20 6 0 15 -10 20 -22z m-66 -19 c-3
-5 -10 -7 -15 -3 -5 3 -7 10 -3 15 3 5 10 7 15 3 5 -3 7 -10 3 -15z m-99 -40
c-13 -21 -12 -59 1 -59 8 0 11 -6 8 -15 -5 -12 -10 -13 -20 -4 -9 8 -14 8 -14
1 0 -17 21 -25 33 -13 15 15 27 14 27 -4 0 -9 6 -12 15 -9 11 4 15 -1 16 -17
0 -13 3 -18 6 -11 6 15 23 6 23 -14 0 -19 -24 -18 -40 2 -18 21 -50 37 -50 25
0 -5 6 -11 14 -13 8 -2 11 -10 7 -21 -6 -16 -11 -15 -43 16 -30 28 -34 37 -25
53 9 17 9 18 -6 5 -15 -12 -17 -11 -17 3 0 9 7 16 15 16 9 0 12 6 8 15 -3 9 3
25 12 35 19 21 41 28 30 9z m766 -6 c-7 -13 -5 -23 7 -37 16 -18 16 -18 -6 -7
-18 10 -26 10 -38 0 -14 -11 -15 -9 -12 17 1 16 8 29 15 29 6 0 15 3 19 8 14
14 25 7 15 -10z m-733 -20 c6 -2 12 2 12 7 0 6 9 10 20 10 11 0 20 -4 20 -10
0 -5 7 -10 16 -10 13 0 15 -7 9 -42 -4 -24 -9 -45 -11 -47 -8 -8 -103 92 -97
102 3 5 8 5 12 1 3 -5 12 -10 19 -11z m-77 -112 c13 7 46 -26 41 -43 -5 -22
-15 -23 -32 -3 -14 17 -30 20 -30 4 0 -5 4 -8 9 -4 13 8 25 -15 14 -26 -6 -6
-17 -1 -29 12 -18 20 -18 21 -1 34 12 8 14 15 7 20 -5 3 -8 11 -5 16 3 5 -1 6
-9 3 -11 -4 -14 1 -11 23 2 15 4 33 5 38 1 6 9 -9 19 -33 9 -24 19 -42 22 -41z
m1063 57 c-3 -31 -3 -30 -14 -23 -7 4 -7 13 0 26 14 25 17 24 14 -3z m-1109
-54 c14 -6 13 -9 -6 -30 -12 -13 -26 -21 -32 -17 -5 3 -13 -1 -18 -8 -8 -14
-12 -15 -45 -18 -8 0 -12 -6 -9 -12 4 -6 13 -8 21 -5 8 3 14 2 14 -3 0 -18
-14 -19 -39 -3 -24 16 -25 16 -13 0 8 -10 11 -22 7 -28 -9 -14 -27 -2 -18 13
3 7 -3 4 -14 -6 -14 -12 -22 -14 -25 -7 -2 8 -8 7 -17 -4 -12 -14 -11 -16 5
-13 11 1 24 6 31 10 18 11 23 -6 8 -26 -11 -16 -13 -16 -19 -2 -3 9 -10 13
-16 10 -12 -7 -14 -26 -2 -22 18 6 12 -17 -13 -45 l-26 -29 22 -20 c20 -17 21
-22 9 -29 -8 -6 -10 -10 -5 -11 6 0 -1 -4 -15 -8 -21 -6 -29 -1 -52 31 -29 40
-35 58 -18 58 6 0 10 -7 10 -16 0 -8 4 -13 9 -9 5 3 11 -4 13 -15 2 -14 7 -17
17 -11 11 7 10 12 -5 27 -11 11 -26 33 -34 49 -8 17 -16 33 -18 36 -1 4 5 9
14 13 12 5 15 2 10 -11 -6 -15 -4 -15 14 2 11 10 23 15 27 11 4 -4 1 -11 -7
-16 -8 -6 -10 -10 -5 -10 6 0 17 5 25 10 12 8 13 12 2 19 -11 6 -8 14 12 34
14 14 26 21 26 16 0 -6 7 -3 16 5 8 9 22 16 30 16 8 0 14 3 14 8 0 4 14 13 31
21 18 8 28 19 25 27 -3 8 0 11 8 8 8 -3 17 -1 21 5 7 13 8 13 30 5z m739 -10
c5 -12 2 -15 -10 -10 -8 3 -18 6 -20 6 -3 0 -2 5 1 10 9 15 22 12 29 -6z m386
2 c0 -2 -7 -7 -16 -10 -8 -3 -12 -2 -9 4 6 10 25 14 25 6z m-580 -37 c0 -5 -7
-6 -15 -3 -8 4 -15 13 -15 21 0 13 3 13 15 3 8 -7 15 -16 15 -21z m175 11 c3
-5 1 -10 -4 -10 -6 0 -11 5 -11 10 0 6 2 10 4 10 3 0 8 -4 11 -10z m-921 -64
c-4 -11 -14 -16 -24 -13 -11 3 -17 -1 -16 -12 1 -11 -8 -16 -29 -17 -41 -1
-52 4 -58 26 -4 14 0 18 17 16 12 -1 28 -6 35 -10 7 -5 19 -2 29 7 9 8 23 12
30 10 6 -3 12 1 12 8 0 7 2 10 5 7 3 -3 2 -13 -1 -22z m681 4 c3 -5 -1 -10
-10 -10 -9 0 -13 5 -10 10 3 6 8 10 10 10 2 0 7 -4 10 -10z m155 -19 c0 -10
-9 -21 -20 -24 -25 -6 -25 1 -2 24 22 23 22 23 22 0z m-1084 -41 c-2 -17 0
-33 4 -35 5 -3 7 -13 5 -23 -2 -9 -4 -19 -4 -22 -1 -3 -6 2 -11 10 -13 20 -13
100 0 100 5 0 8 -14 6 -30z m354 24 c0 -3 -11 -20 -25 -38 -14 -18 -25 -38
-25 -44 0 -7 -7 -12 -15 -12 -8 0 -15 7 -15 15 0 8 3 15 8 15 4 0 18 16 31 35
21 31 41 45 41 29z m760 -48 c0 -2 3 -11 6 -20 4 -11 0 -16 -14 -16 -20 0 -36
23 -25 34 7 7 33 8 33 2z m-770 -22 c0 -8 -4 -12 -10 -9 -5 3 -10 10 -10 16 0
5 5 9 10 9 6 0 10 -7 10 -16z m950 -85 c0 -18 -20 -26 -33 -13 -8 8 15 44 25
38 4 -3 8 -14 8 -25z m-1673 -36 c-9 -2 -15 -9 -12 -13 3 -5 17 -4 30 2 28 12
48 2 25 -12 -8 -5 -12 -10 -10 -12 3 -2 16 -12 30 -23 l25 -20 -19 23 c-11 12
-17 22 -13 22 3 0 13 3 23 7 13 5 16 3 11 -10 -3 -9 1 -21 11 -29 11 -9 14
-10 8 0 -4 6 -3 12 3 12 5 0 11 -6 14 -12 2 -7 3 -5 2 4 -3 18 28 34 45 23 6
-4 9 -1 8 7 -2 8 7 13 25 13 18 -1 26 3 23 12 -4 8 3 13 18 13 25 0 91 -64 81
-80 -3 -6 -1 -10 5 -10 6 0 8 -4 5 -10 -3 -6 1 -7 9 -4 16 6 39 -33 29 -49 -3
-4 1 -14 7 -22 7 -9 9 -26 6 -41 -9 -34 -37 -28 -48 11 -5 17 -12 37 -15 45
-4 8 -5 19 -4 23 1 5 -3 6 -9 2 -5 -3 -20 -1 -32 6 -29 16 -137 16 -166 0 -13
-7 -38 -11 -55 -10 -18 2 -37 0 -43 -3 -17 -11 -97 0 -106 14 -15 25 -8 31 14
12 21 -19 21 -19 14 1 -4 11 -4 16 -1 13 4 -4 18 -2 32 3 20 7 24 6 20 -4 -4
-10 2 -14 16 -13 12 1 25 -3 29 -9 5 -6 8 -6 8 2 0 7 7 10 15 7 9 -4 15 0 15
7 0 12 2 12 9 1 7 -11 9 -11 14 1 6 16 -9 17 -32 3 -11 -7 -13 -5 -8 8 4 10 3
15 -3 11 -6 -3 -10 -1 -10 5 0 6 -5 8 -12 4 -9 -6 -9 -9 0 -12 19 -6 14 -18
-7 -19 -11 -1 -22 5 -25 13 -3 9 -9 13 -14 10 -4 -2 -13 4 -20 15 -10 16 -10
21 3 25 14 6 14 8 -1 25 -16 18 -16 19 17 18 19 -1 26 -3 16 -6z m123 3 c0 -8
-51 -13 -56 -5 -3 5 9 9 25 9 17 0 31 -2 31 -4z m0 -25 c0 -5 -6 -14 -14 -20
-12 -10 -13 -8 -9 8 5 21 23 30 23 12z"/>
<path d="M1209 4101 c23 -15 21 -41 -2 -51 -22 -9 -22 -9 1 -9 13 -1 33 -6 45
-12 20 -9 20 -9 5 4 -10 8 -19 28 -20 45 -2 25 -7 32 -23 32 -16 0 -17 -2 -6
-9z"/>
<path d="M1353 4066 c-13 -6 -23 -14 -23 -18 0 -11 4 -10 35 6 31 16 20 27
-12 12z"/>
<path d="M1480 4071 c0 -5 -9 -7 -19 -4 -11 3 -28 0 -38 -6 -15 -9 -12 -10 20
-11 21 0 47 -5 57 -10 12 -7 21 -7 25 0 4 6 13 6 25 0 11 -6 29 -14 40 -20 11
-5 28 -10 37 -10 10 0 42 -11 71 -25 30 -14 63 -25 73 -25 10 0 19 -3 19 -7 0
-11 79 -47 86 -40 4 3 -20 18 -52 33 -33 14 -77 35 -99 45 -116 52 -205 79
-205 60 0 -6 -7 -8 -16 -4 -11 4 -12 8 -4 13 8 5 7 9 -4 13 -9 4 -16 2 -16 -2z"/>
<path d="M1158 4043 c7 -3 16 -2 19 1 4 3 -2 6 -13 5 -11 0 -14 -3 -6 -6z"/>
<path d="M1365 4009 c27 -11 57 -26 65 -32 13 -11 13 -10 1 6 -16 20 -74 47
-100 46 -9 0 6 -9 34 -20z"/>
<path d="M1466 3962 c5 -4 23 -18 39 -32 l30 -25 -29 33 c-17 17 -34 32 -40
32 -6 0 -6 -3 0 -8z"/>
<path d="M1585 3920 c3 -5 11 -10 16 -10 6 0 7 5 4 10 -3 6 -11 10 -16 10 -6
0 -7 -4 -4 -10z"/>
<path d="M1954 3843 c58 -62 122 -146 147 -195 10 -20 38 -65 62 -100 23 -35
43 -67 43 -73 1 -19 34 -84 47 -92 8 -4 30 -37 50 -73 20 -36 37 -60 37 -55 0
6 5 3 10 -5 8 -13 10 -13 10 1 0 9 -7 20 -16 23 -10 4 -13 13 -9 26 4 14 -2
28 -20 46 -28 28 -132 190 -173 269 -31 60 -143 206 -180 236 -15 11 -26 24
-24 27 2 4 -5 9 -14 11 -10 2 1 -17 30 -46z m366 -514 c0 -6 -4 -7 -10 -4 -5
3 -10 11 -10 16 0 6 5 7 10 4 6 -3 10 -11 10 -16z"/>
<path d="M1880 3860 c0 -6 5 -10 11 -10 5 0 8 -4 5 -9 -3 -5 2 -15 12 -22 14
-11 15 -11 5 0 -6 7 -9 19 -7 26 3 7 -2 15 -10 18 -9 4 -16 2 -16 -3z"/>
<path d="M1925 3770 c3 -5 8 -10 11 -10 2 0 4 5 4 10 0 6 -5 10 -11 10 -5 0
-7 -4 -4 -10z"/>
<path d="M1570 3760 c0 -5 10 -10 23 -10 18 0 19 2 7 10 -19 13 -30 13 -30 0z"/>
<path d="M1625 3680 c3 -5 8 -10 11 -10 2 0 4 5 4 10 0 6 -5 10 -11 10 -5 0
-7 -4 -4 -10z"/>
<path d="M1620 3630 c20 -13 33 -13 25 0 -3 6 -14 10 -23 10 -15 0 -15 -2 -2
-10z"/>
<path d="M1685 3610 c-6 -10 1 -14 19 -11 4 1 15 -4 22 -10 24 -19 112 -58
118 -51 3 3 6 1 6 -4 0 -5 10 -10 23 -11 20 -2 20 -1 4 9 -11 5 -25 11 -32 12
-7 1 -19 7 -27 14 -28 23 -127 61 -133 52z"/>
<path d="M1810 3606 c0 -3 9 -10 20 -16 11 -6 20 -8 20 -6 0 3 -9 10 -20 16
-11 6 -20 8 -20 6z"/>
<path d="M1548 3543 c7 -3 16 -2 19 1 4 3 -2 6 -13 5 -11 0 -14 -3 -6 -6z"/>
<path d="M1395 3509 c38 -13 165 -27 159 -18 -2 4 1 9 8 11 9 3 9 6 0 12 -7 4
-12 2 -12 -3 0 -6 -9 -11 -21 -11 -13 0 -18 4 -13 13 5 8 3 8 -9 -2 -10 -8
-26 -11 -39 -6 -13 3 -41 8 -63 10 -39 4 -39 4 -10 -6z"/>
<path d="M1668 3513 c7 -3 16 -2 19 1 4 3 -2 6 -13 5 -11 0 -14 -3 -6 -6z"/>
<path d="M1906 3511 c9 -10 133 -81 140 -81 2 0 4 5 4 10 0 6 -4 10 -9 10 -6
0 -36 16 -68 35 -56 34 -88 46 -67 26z"/>
<path d="M1830 3505 c0 -8 150 -78 156 -72 2 2 -28 19 -68 38 -40 18 -76 35
-80 37 -5 2 -8 1 -8 -3z"/>
<path d="M1270 3490 c-8 -5 -12 -12 -9 -15 4 -3 12 1 19 10 14 17 11 19 -10 5z"/>
<path d="M1576 3493 c-9 -9 194 -64 212 -58 7 3 27 -2 45 -11 17 -9 42 -20 56
-25 14 -4 56 -19 94 -33 37 -14 67 -22 67 -19 0 3 8 -1 18 -9 9 -9 28 -19 42
-23 14 -3 57 -22 97 -41 39 -19 78 -34 86 -34 8 0 20 -7 27 -15 7 -8 18 -15
24 -15 21 1 -66 69 -98 75 -17 4 -67 23 -111 42 -44 19 -113 46 -153 59 -40
13 -96 36 -123 50 -28 14 -57 23 -65 20 -21 -8 -75 5 -67 17 3 5 0 8 -8 5 -8
-3 -34 1 -58 9 -49 15 -74 16 -85 6z"/>
<path d="M2482 3465 c0 -16 2 -22 5 -12 2 9 2 23 0 30 -3 6 -5 -1 -5 -18z"/>
<path d="M1375 3460 c-3 -5 0 -10 7 -10 8 -1 5 -7 -7 -16 -20 -16 -20 -16 0
-10 65 19 173 24 196 10 7 -4 24 -9 38 -10 13 -2 27 -7 30 -12 3 -5 15 -8 25
-6 11 1 31 -3 45 -11 14 -7 42 -15 61 -19 68 -11 115 -23 135 -33 11 -6 37
-13 57 -17 21 -4 59 -17 85 -30 71 -35 169 -76 181 -76 6 0 31 -9 56 -20 25
-10 46 -16 46 -11 0 8 -87 52 -105 52 -5 1 -21 7 -35 14 -39 21 -119 56 -132
59 -7 2 -33 12 -58 23 -25 10 -65 25 -90 32 -25 7 -53 17 -62 22 -12 6 -18 5
-18 -2 0 -5 -5 -7 -12 -3 -7 5 -28 9 -47 10 -18 0 -37 8 -42 15 -4 8 -20 14
-36 13 -15 0 -30 2 -33 7 -3 4 -25 10 -50 14 -24 4 -51 10 -60 14 -15 8 -86 6
-127 -4 -13 -3 -23 -1 -23 5 0 13 -17 13 -25 0z"/>
<path d="M1239 3433 c-12 -15 -12 -16 4 -10 10 4 23 7 28 7 6 0 7 5 4 10 -9
15 -21 12 -36 -7z"/>
<path d="M2073 3432 c17 -19 97 -67 97 -59 0 7 -98 77 -107 77 -3 0 1 -8 10
-18z"/>
<path d="M2077 3399 c7 -7 15 -10 18 -7 3 3 -2 9 -12 12 -14 6 -15 5 -6 -5z"/>
<path d="M2192 3350 c7 -11 16 -20 21 -20 4 0 6 -4 3 -8 -2 -4 4 -9 15 -9 10
-1 19 3 19 8 0 6 -4 8 -9 4 -5 -3 -18 6 -29 20 -24 30 -37 33 -20 5z"/>
<path d="M2210 3366 c0 -2 8 -10 18 -17 15 -13 16 -12 3 4 -13 16 -21 21 -21
13z"/>
<path d="M1568 3283 c6 -2 18 -2 25 0 6 3 1 5 -13 5 -14 0 -19 -2 -12 -5z"/>
<path d="M2455 3273 c-4 -10 -9 -27 -10 -38 -4 -32 -17 -65 -26 -65 -4 0 -13
8 -19 18 -8 14 -9 11 -4 -12 5 -19 2 -31 -7 -37 -11 -7 -10 -9 4 -9 9 0 17 4
17 9 0 6 10 21 23 34 29 32 52 96 39 109 -6 6 -12 3 -17 -9z"/>
<path d="M2402 3264 c10 -10 20 -16 22 -13 3 3 -5 11 -17 18 -21 13 -21 12 -5
-5z"/>
<path d="M1478 3253 c7 -3 16 -2 19 1 4 3 -2 6 -13 5 -11 0 -14 -3 -6 -6z"/>
<path d="M1532 3224 c8 -7 140 -35 145 -30 4 4 -119 36 -138 36 -7 0 -10 -3
-7 -6z"/>
<path d="M2368 3213 c7 -3 16 -2 19 1 4 3 -2 6 -13 5 -11 0 -14 -3 -6 -6z"/>
<path d="M2110 3183 c19 -9 49 -18 65 -20 20 -2 12 4 -25 17 -65 24 -89 26
-40 3z"/>
<path d="M2347 3153 c-15 -16 -39 -18 -170 -19 -84 0 -158 -4 -165 -8 -7 -4
-63 -11 -125 -16 -77 -6 -153 -20 -242 -45 -71 -20 -143 -39 -160 -42 -16 -3
-36 -11 -44 -17 -12 -8 -13 -8 -7 2 5 8 -8 4 -30 -7 -21 -12 -46 -21 -55 -21
-9 0 -22 -7 -29 -15 -7 -8 -22 -16 -34 -16 -17 -1 -18 -2 -3 -6 10 -3 14 -9
10 -16 -7 -12 27 11 38 26 3 4 19 9 36 10 17 1 29 6 25 11 -3 5 2 7 11 3 20
-8 80 16 70 28 -5 4 -2 5 5 1 18 -11 74 3 66 16 -4 6 -3 8 3 5 5 -3 50 5 99
19 77 22 292 55 377 58 15 1 27 4 27 7 0 4 57 7 128 8 141 1 184 9 188 34 3
21 2 21 -19 0z"/>
<path d="M1660 3140 c-8 -5 -10 -10 -5 -10 6 0 17 5 25 10 8 5 11 10 5 10 -5
0 -17 -5 -25 -10z"/>
<path d="M2420 3132 c0 -12 19 -26 26 -19 2 2 -2 10 -11 17 -9 8 -15 8 -15 2z"/>
<path d="M1467 3109 c7 -7 15 -10 18 -7 3 3 -2 9 -12 12 -14 6 -15 5 -6 -5z"/>
<path d="M2400 3100 c-13 -8 -12 -10 3 -10 9 0 17 5 17 10 0 12 -1 12 -20 0z"/>
<path d="M2083 3092 c-40 -2 -73 -6 -73 -10 0 -5 -19 -8 -42 -9 -54 -1 -88 -6
-88 -13 0 -3 -21 -6 -46 -8 -108 -6 -299 -53 -352 -86 -7 -4 -16 -5 -19 -2 -3
3 -15 0 -27 -6 -11 -7 -30 -13 -41 -15 -11 -2 -23 -10 -28 -18 -4 -8 -13 -12
-20 -9 -7 2 -21 -4 -31 -15 -10 -11 -24 -17 -31 -15 -7 3 -20 -5 -29 -17 -17
-26 -11 -43 7 -19 7 9 47 31 90 49 42 19 77 37 77 41 0 4 10 6 23 5 12 -1 28
2 35 8 6 5 12 7 12 3 0 -4 14 1 30 9 17 9 35 13 40 10 6 -3 10 -2 10 3 0 18
51 32 137 37 87 6 212 30 245 47 14 7 16 5 11 -9 -6 -16 -5 -16 10 -4 9 7 23
11 31 8 7 -3 18 -1 24 5 5 5 49 9 98 9 103 0 184 8 184 18 0 7 -104 8 -237 3z"/>
<path d="M2351 3087 c-6 -8 -34 -26 -63 -42 -29 -16 -96 -57 -149 -91 -53 -35
-129 -82 -170 -106 -41 -24 -87 -56 -103 -71 -16 -15 -32 -24 -37 -21 -5 3 -9
1 -9 -3 0 -5 -26 -23 -57 -40 -32 -18 -76 -50 -98 -73 -64 -67 -163 -142 -176
-134 -7 4 -9 3 -6 -3 9 -14 -19 -37 -33 -28 -5 3 -10 1 -10 -4 0 -6 11 -11 24
-11 16 0 56 28 120 85 52 47 98 85 101 85 4 0 18 14 32 30 13 17 29 28 34 24
9 -5 98 50 137 86 12 11 22 18 22 15 0 -3 10 3 22 14 11 11 26 18 31 14 6 -3
7 -2 4 4 -4 5 6 16 21 24 15 8 29 17 32 20 3 3 21 14 40 24 19 10 71 41 115
70 44 28 103 66 132 84 53 33 83 61 65 61 -5 0 -15 -6 -21 -13z"/>
<path d="M2400 3060 c0 -6 -7 -10 -16 -8 -10 2 -19 -4 -21 -12 -4 -13 -3 -13
6 0 9 13 11 13 11 -1 0 -8 -14 -38 -32 -65 -67 -105 -76 -120 -85 -136 -5 -10
-25 -37 -46 -60 -35 -40 -187 -263 -187 -274 0 -3 5 -2 10 1 16 10 11 -1 -7
-16 -15 -12 -16 -12 -8 1 8 13 7 13 -8 1 -10 -8 -15 -16 -12 -19 2 -3 -3 -10
-12 -17 -9 -7 -18 -23 -19 -36 -2 -13 -9 -59 -15 -101 -6 -42 -8 -81 -5 -86 3
-6 3 -12 -1 -14 -19 -8 -66 -167 -70 -233 -1 -38 -9 -90 -17 -115 -21 -67 -26
-102 -12 -91 7 6 13 23 14 40 3 37 20 85 21 59 1 -10 6 -18 11 -18 6 0 10 -4
10 -10 0 -5 -8 -7 -17 -3 -14 5 -15 3 -6 -7 14 -16 33 -5 33 21 0 10 4 19 10
19 5 0 7 7 4 15 -5 11 -2 14 12 9 17 -6 17 -5 -1 9 -24 19 -35 14 -28 -13 3
-11 1 -20 -5 -20 -18 0 -19 22 -4 68 13 36 13 45 2 52 -11 7 -11 12 1 27 13
16 13 17 -3 4 -24 -18 -23 -14 11 55 28 58 45 118 44 162 0 12 3 22 6 22 4 0
8 10 9 23 6 75 14 122 22 132 6 7 6 16 2 21 -4 4 0 3 9 -4 14 -10 18 -10 22 2
3 8 1 17 -6 20 -7 2 -5 5 4 5 10 1 36 35 64 84 26 45 55 96 65 113 26 46 90
128 106 137 8 5 12 12 10 16 -3 4 5 19 17 32 12 13 22 26 23 29 4 23 26 60 33
55 5 -3 13 0 17 6 4 8 3 9 -4 5 -7 -4 -12 -5 -12 -2 0 8 42 79 57 98 10 11 11
18 4 23 -6 3 -11 1 -11 -5z"/>
<path d="M2210 3040 c-9 -6 -10 -10 -3 -10 6 0 15 5 18 10 8 12 4 12 -15 0z"/>
<path d="M2335 3038 c-4 -10 -11 -18 -17 -18 -5 0 -36 -18 -69 -40 -33 -22
-63 -40 -65 -40 -3 0 -10 -5 -17 -10 -7 -6 -41 -30 -76 -53 -35 -23 -74 -49
-86 -57 -13 -8 -47 -29 -76 -47 -30 -18 -66 -43 -81 -55 -15 -13 -43 -34 -62
-48 -19 -14 -32 -29 -29 -34 3 -5 0 -7 -8 -4 -7 2 -25 -6 -39 -19 -14 -13 -29
-23 -33 -23 -9 0 -54 -33 -94 -70 -13 -11 -49 -41 -80 -67 -32 -26 -62 -51
-68 -55 -5 -5 -29 -22 -53 -39 -23 -17 -39 -35 -36 -41 3 -5 0 -8 -8 -6 -14 3
-88 -50 -121 -87 -39 -44 -37 -57 3 -16 41 42 45 43 89 37 41 -6 43 -5 26 8
-11 8 -23 12 -27 10 -5 -3 -8 -1 -8 4 0 5 10 13 23 19 25 12 99 70 160 126 23
20 45 37 50 37 8 0 44 31 108 93 15 15 31 28 34 27 9 0 105 62 112 73 12 18
176 137 189 137 3 0 23 13 43 29 20 15 51 36 70 46 19 9 39 21 45 26 31 26
147 99 156 99 5 0 10 5 10 10 0 6 6 10 14 10 18 0 39 26 33 42 -3 9 -7 8 -12
-4z"/>
<path d="M1996 2967 c3 -10 9 -15 12 -12 3 3 0 11 -7 18 -10 9 -11 8 -5 -6z"/>
<path d="M1690 2955 c-14 -8 -20 -14 -14 -15 5 0 19 7 30 15 24 18 16 19 -16
0z"/>
<path d="M1233 2913 c9 -2 23 -2 30 0 6 3 -1 5 -18 5 -16 0 -22 -2 -12 -5z"/>
<path d="M1400 2876 c0 -8 -6 -17 -12 -19 -8 -4 -7 -6 3 -6 19 -1 33 25 19 34
-6 4 -10 0 -10 -9z"/>
<path d="M1130 2865 c-9 -11 -10 -15 -1 -15 16 0 4 -41 -17 -57 -8 -7 -14 -15
-11 -17 2 -2 17 6 33 19 24 19 27 25 17 44 -7 12 -9 26 -6 31 10 15 -1 12 -15
-5z"/>
<path d="M2346 2827 c-17 -23 -32 -35 -34 -28 -2 7 -15 -3 -28 -23 -14 -20
-28 -35 -32 -33 -4 1 -7 -1 -7 -4 0 -3 -16 -26 -36 -50 -37 -45 -100 -142
-111 -169 -3 -8 -13 -32 -22 -52 -26 -62 -8 -43 25 25 16 34 38 76 47 93 25
45 126 165 130 154 2 -6 8 -7 14 -4 7 4 6 9 -1 13 -8 5 -6 13 5 27 13 16 15
16 10 2 -8 -26 9 -22 22 5 7 12 22 34 34 49 12 15 20 30 17 32 -2 2 -17 -14
-33 -37z"/>
<path d="M2185 2834 c-18 -16 -22 -22 -9 -15 18 9 53 42 43 41 -2 -1 -17 -12
-34 -26z"/>
<path d="M1710 2759 c0 -5 5 -7 10 -4 6 3 10 8 10 11 0 2 -4 4 -10 4 -5 0 -10
-5 -10 -11z"/>
<path d="M1400 2629 c0 -5 5 -7 10 -4 6 3 10 8 10 11 0 2 -4 4 -10 4 -5 0 -10
-5 -10 -11z"/>
<path d="M1415 2594 l-30 -26 33 22 c17 12 32 23 32 26 0 7 -4 5 -35 -22z"/>
<path d="M1950 2490 c-13 -8 -12 -10 3 -10 9 0 17 5 17 10 0 12 -1 12 -20 0z"/>
<path d="M1695 2470 c-18 -20 -18 -21 5 -12 13 5 26 14 28 20 6 19 -13 14 -33
-8z"/>
<path d="M1424 2451 c5 -7 -50 -55 -64 -56 -3 0 -24 -13 -48 -29 -42 -28 -50
-46 -15 -31 10 5 22 7 26 6 5 -1 6 3 2 8 -5 9 32 36 45 33 3 0 18 10 34 24 17
13 33 24 38 24 14 0 9 18 -8 24 -8 3 -13 2 -10 -3z"/>
<path d="M1919 2443 c-13 -16 -12 -17 4 -4 9 7 17 15 17 17 0 8 -8 3 -21 -13z"/>
<path d="M1640 2430 c-8 -5 -10 -10 -5 -10 6 0 17 5 25 10 8 5 11 10 5 10 -5
0 -17 -5 -25 -10z"/>
<path d="M1880 2419 c0 -5 5 -7 10 -4 6 3 10 8 10 11 0 2 -4 4 -10 4 -5 0 -10
-5 -10 -11z"/>
<path d="M2035 2398 c-4 -13 -6 -29 -6 -35 1 -7 -3 -13 -10 -13 -6 0 -8 -7 -5
-16 3 -8 1 -25 -5 -36 -9 -17 -15 -38 -23 -85 -1 -7 -5 -16 -9 -19 -4 -4 -7
-27 -7 -51 0 -25 -5 -54 -11 -65 -7 -13 -7 -18 -1 -14 12 7 10 -42 -2 -63 -6
-9 -5 -12 1 -8 6 4 14 0 17 -9 3 -8 2 -12 -3 -9 -5 3 -13 0 -18 -7 -11 -19
-13 -39 -2 -32 5 3 7 9 4 14 -3 4 3 6 13 4 15 -5 17 4 20 83 2 107 8 147 34
238 28 100 36 145 28 145 -4 0 -11 -10 -15 -22z"/>
<path d="M2013 2398 c-15 -20 -25 -38 -20 -38 3 0 12 11 21 25 17 26 16 35 -1
13z"/>
<path d="M1879 2333 c-13 -16 -12 -17 4 -4 9 7 17 15 17 17 0 8 -8 3 -21 -13z"/>
<path d="M1225 2304 c-17 -22 -24 -39 -18 -45 6 -6 18 7 32 32 30 52 22 60
-14 13z"/>
<path d="M1625 2290 c-33 -27 -66 -50 -72 -50 -14 0 -18 -20 -5 -20 12 0 78
49 120 89 52 49 23 36 -43 -19z"/>
<path d="M1475 2299 c-11 -17 1 -21 15 -4 8 9 8 15 2 15 -6 0 -14 -5 -17 -11z"/>
<path d="M1885 2281 c-10 -17 12 -21 25 -6 10 12 10 15 -3 15 -9 0 -18 -4 -22
-9z"/>
<path d="M1349 2203 c-13 -16 -12 -17 4 -4 9 7 17 15 17 17 0 8 -8 3 -21 -13z"/>
<path d="M1518 2182 c-16 -9 -28 -20 -28 -25 0 -4 14 2 30 15 26 19 36 29 28
28 -2 0 -15 -8 -30 -18z"/>
<path d="M1876 2184 c-11 -7 -17 -16 -15 -19 3 -3 14 2 25 9 10 8 17 17 14 19
-3 3 -14 -1 -24 -9z"/>
<path d="M1545 2130 c-3 -6 1 -7 9 -4 18 7 21 14 7 14 -6 0 -13 -4 -16 -10z"/>
<path d="M1868 2117 c-7 -6 -40 -23 -73 -36 -116 -47 -127 -52 -123 -56 8 -9
201 73 210 88 11 20 5 22 -14 4z"/>
<path d="M2236 2115 c4 -8 11 -15 18 -15 6 0 4 -5 -4 -10 -20 -13 -33 -13 -25
0 3 6 2 10 -4 10 -6 0 -17 -13 -26 -30 -9 -16 -22 -30 -30 -30 -8 0 -15 -4
-15 -10 0 -5 7 -7 15 -4 11 4 13 2 9 -9 -3 -9 -13 -13 -25 -10 -14 4 -19 0
-19 -14 0 -11 -9 -28 -20 -38 -17 -15 -24 -16 -46 -6 -23 10 -26 10 -20 -4 3
-9 6 -18 6 -20 0 -2 9 -1 20 2 12 3 20 0 20 -7 0 -7 7 -10 15 -6 13 5 14 2 4
-15 -6 -11 -8 -23 -5 -27 3 -3 6 0 6 6 0 7 7 12 16 12 9 0 14 -6 12 -12 -3 -7
-16 -13 -29 -13 -18 0 -24 5 -24 22 0 12 -4 25 -8 29 -4 4 -7 3 -7 -3 0 -16
-33 -11 -59 9 -28 21 -48 24 -29 4 7 -8 16 -12 20 -10 4 2 9 0 13 -6 3 -5 1
-10 -4 -10 -6 0 -11 -8 -11 -17 0 -10 4 -14 8 -8 4 6 17 11 30 11 18 1 20 -1
11 -13 -9 -11 -9 -17 0 -26 10 -9 11 -8 6 6 -4 9 -3 17 4 17 13 0 33 -35 24
-44 -3 -3 -2 -6 3 -6 6 0 15 5 22 12 18 18 27 1 14 -28 -9 -19 -9 -24 0 -18 8
5 9 2 5 -9 -4 -10 -2 -29 4 -44 8 -21 12 -24 19 -13 5 8 5 19 1 25 -7 8 -8 90
-2 130 3 21 22 -15 23 -44 1 -32 12 -41 21 -17 3 8 1 17 -6 19 -9 3 -9 7 0 17
10 11 15 11 27 1 8 -7 20 -10 25 -7 5 4 12 2 16 -3 3 -5 18 -9 33 -8 21 2 27
8 29 30 2 23 -2 27 -26 27 -45 0 -91 19 -84 36 7 20 33 17 33 -3 0 -14 2 -15
9 -5 7 11 10 11 22 0 8 -7 28 -13 45 -13 26 -1 31 3 30 24 -1 13 6 26 14 28
13 4 13 3 0 -6 -13 -9 -13 -12 -1 -23 8 -7 11 -8 8 -2 -8 14 6 20 69 29 27 4
56 11 66 16 11 6 18 4 22 -6 5 -13 9 -13 26 -3 28 18 25 25 -17 46 -51 25 -96
23 -101 -3 -8 -40 -25 -42 -19 -2 5 33 3 38 -10 33 -8 -4 -21 -2 -27 3 -6 5
-28 13 -48 19 -35 9 -36 9 -25 -8 6 -10 15 -16 21 -13 5 3 6 1 2 -5 -3 -6 -2
-13 4 -17 5 -3 10 1 10 9 0 9 5 16 10 16 14 0 13 -23 -2 -38 -9 -9 -9 -12 0
-12 7 0 12 5 12 10 0 6 5 10 10 10 6 0 10 -9 10 -20 0 -11 -3 -19 -7 -18 -18
3 -43 -16 -43 -33 0 -10 -7 -19 -15 -19 -19 0 -19 20 0 47 17 24 10 57 -11 49
-17 -7 -36 18 -28 38 4 9 1 16 -6 16 -7 0 -10 7 -7 15 4 8 2 17 -4 20 -5 4 -7
11 -4 16 4 5 -1 9 -9 9 -10 0 -13 -6 -10 -15z m-6 -56 c0 -5 -4 -8 -9 -6 -9 2
-11 -3 -11 -24 0 -8 5 -7 15 1 18 15 28 9 20 -12 -4 -9 -14 -14 -23 -11 -11 2
-26 -7 -40 -27 -13 -17 -27 -28 -33 -25 -12 8 -12 45 2 45 5 0 7 -6 3 -12 -4
-7 1 -6 10 3 10 9 18 22 20 30 7 41 46 74 46 38z m30 1 c0 -5 -4 -10 -10 -10
-5 0 -10 5 -10 10 0 6 5 10 10 10 6 0 10 -4 10 -10z m14 -65 c-3 -7 -12 -11
-20 -8 -11 4 -12 9 -3 19 14 17 30 9 23 -11z m209 13 c5 -16 -2 -38 -13 -38
-5 0 -6 10 -4 23 l5 22 -10 -22 c-13 -30 -21 -29 -21 2 0 18 5 25 19 25 11 0
21 -6 24 -12z m27 -14 c0 -22 -16 -17 -17 6 -1 11 2 18 8 15 5 -4 9 -13 9 -21z
m-264 -20 c16 -16 24 -20 24 -11 0 19 26 41 34 29 8 -13 -17 -62 -31 -62 -7 0
-22 9 -33 20 -11 11 -20 17 -20 13 0 -4 -5 -2 -11 4 -11 11 -5 33 8 33 3 0 16
-11 29 -26z m304 16 c12 -7 10 -9 -8 -7 -12 0 -22 5 -22 9 0 11 12 10 30 -2z
m-345 -53 c-4 -9 -13 -13 -21 -10 -10 4 -11 10 -3 25 13 23 33 10 24 -15z
m-65 9 c0 -2 -7 -6 -15 -10 -8 -3 -15 -1 -15 4 0 6 7 10 15 10 8 0 15 -2 15
-4z m18 -28 c-6 -18 -28 -21 -28 -4 0 9 7 16 16 16 9 0 14 -5 12 -12z m32 -19
c0 -5 4 -8 9 -4 6 3 16 -1 23 -8 7 -8 20 -12 30 -9 10 2 18 -1 18 -7 0 -6 -11
-11 -24 -11 -33 0 -98 29 -91 40 8 13 35 13 35 -1z m115 -39 c3 -5 -1 -10 -9
-10 -9 0 -16 5 -16 10 0 6 4 10 9 10 6 0 13 -4 16 -10z"/>
<path d="M1633 2022 c-19 -15 -20 -18 -6 -31 14 -12 15 -12 11 0 -3 8 1 22 10
32 19 22 13 22 -15 -1z"/>
<path d="M1820 2005 c-17 -10 -20 -14 -9 -15 9 0 22 7 29 15 15 18 12 18 -20
0z"/>
<path d="M1705 1990 c-3 -6 1 -7 9 -4 18 7 21 14 7 14 -6 0 -13 -4 -16 -10z"/>
<path d="M1755 1975 c-25 -12 -26 -14 -5 -9 14 4 29 10 35 15 12 12 5 11 -30
-6z"/>
<path d="M1814 1958 c-19 -23 -19 -23 2 -5 11 9 24 14 27 10 4 -3 7 -1 7 5 0
19 -15 14 -36 -10z"/>
<path d="M2386 1921 c-3 -5 1 -11 8 -14 8 -3 16 -18 18 -34 3 -28 4 -28 9 5 4
25 1 35 -12 43 -10 5 -20 5 -23 0z"/>
<path d="M1969 1905 c-1 -8 -2 -21 -3 -27 -1 -7 -9 -21 -19 -31 -10 -10 -15
-22 -12 -26 2 -5 -2 -11 -9 -14 -8 -3 -17 -3 -19 1 -2 4 -2 1 -1 -5 2 -7 -1
-13 -6 -13 -5 0 -10 6 -13 13 -2 6 -3 4 -2 -5 2 -10 -1 -18 -7 -18 -6 0 -7 -7
-4 -16 5 -12 2 -15 -9 -10 -9 3 -13 2 -10 -4 3 -6 -1 -10 -9 -10 -8 0 -18 -4
-21 -10 -3 -6 1 -7 9 -4 15 6 20 -5 17 -33 -1 -8 5 -10 14 -7 17 7 21 24 5 24
-5 0 -10 5 -10 11 0 5 5 7 12 3 7 -4 8 -3 4 4 -5 8 2 10 22 6 18 -4 32 -1 37
5 5 8 -1 10 -18 6 -17 -5 -26 -2 -30 9 -4 9 -2 16 3 16 5 0 15 6 22 13 7 7 28
21 47 30 l33 17 -4 -25 c-3 -13 -1 -22 3 -19 5 3 10 2 10 -3 6 -38 5 -59 -4
-65 -5 -3 -11 -18 -13 -31 -2 -23 0 -25 19 -18 17 7 22 17 22 47 0 22 4 45 9
53 7 11 5 13 -7 8 -12 -5 -18 2 -23 28 -3 19 -9 35 -13 35 -8 0 -11 18 -11 58
0 25 -9 31 -11 7z m7 -62 c-2 -9 -8 -19 -15 -21 -14 -5 -11 20 4 30 14 10 14
10 11 -9z m44 -142 c0 -6 -4 -13 -10 -16 -5 -3 -10 1 -10 9 0 9 5 16 10 16 6
0 10 -4 10 -9z"/>
<path d="M1669 1879 c-19 -16 -25 -25 -14 -20 31 16 59 40 54 46 -3 2 -21 -9
-40 -26z"/>
<path d="M2336 1875 c4 -8 8 -15 10 -15 2 0 4 7 4 15 0 8 -4 15 -10 15 -5 0
-7 -7 -4 -15z"/>
<path d="M2590 1865 c-7 -9 -8 -15 -2 -15 5 0 12 7 16 15 3 8 4 15 2 15 -2 0
-9 -7 -16 -15z"/>
<path d="M2020 1862 c0 -7 -4 -10 -10 -7 -6 3 -7 -1 -4 -9 3 -9 9 -14 13 -11
4 2 15 -11 24 -30 14 -30 15 -36 2 -49 -22 -21 -18 -32 4 -12 17 16 19 14 36
-46 17 -62 23 -85 24 -101 1 -5 6 -5 11 -2 6 4 8 11 5 16 -3 5 -13 34 -20 64
-15 57 -84 210 -85 187z"/>
<path d="M2625 1860 c-3 -5 2 -13 11 -18 11 -6 13 -11 5 -16 -6 -4 -11 -12
-11 -18 0 -7 4 -7 13 1 8 6 17 8 20 4 4 -3 7 0 7 8 0 19 -37 51 -45 39z"/>
<path d="M1669 1843 c-13 -15 -12 -15 9 -4 23 12 28 21 13 21 -5 0 -15 -7 -22
-17z"/>
<path d="M2060 1818 c0 -10 4 -18 8 -18 5 0 17 -25 27 -55 18 -53 35 -72 35
-40 0 8 -5 15 -11 15 -5 0 -8 4 -5 8 3 5 -2 21 -10 37 -13 26 -13 30 1 37 8 5
15 14 15 19 0 6 -7 3 -16 -6 -15 -14 -17 -14 -30 2 -13 17 -13 17 -14 1z"/>
<path d="M2337 1823 c-4 -3 -32 -5 -62 -4 -54 1 -55 1 -55 -27 0 -28 3 -29 38
-28 l37 1 1 -45 c0 -25 9 -66 18 -92 10 -25 15 -52 10 -60 -4 -7 -4 -10 0 -6
10 8 47 -23 40 -34 -3 -4 1 -5 9 -2 8 3 17 -2 21 -11 3 -10 13 -15 20 -12 8 3
17 -1 20 -9 3 -7 0 -13 -6 -11 -6 1 -13 -4 -16 -12 -2 -8 0 -11 6 -7 6 3 13 2
17 -4 9 -14 25 -12 21 3 -15 46 -16 68 -4 61 9 -6 9 -3 -1 10 -8 9 -19 15 -25
13 -15 -6 -43 17 -84 69 -28 37 -42 74 -27 74 7 0 65 -59 65 -66 0 -3 -5 -2
-12 2 -7 4 -8 3 -4 -5 6 -9 11 -9 22 0 11 9 14 8 14 -4 0 -8 10 -18 23 -22 13
-4 17 -8 9 -12 -6 -2 -10 -9 -6 -14 10 -16 22 -9 26 16 3 13 1 22 -3 19 -5 -3
-9 0 -9 5 0 6 5 11 11 11 8 0 7 5 -1 15 -10 12 -15 13 -21 4 -7 -12 -61 40
-86 85 -16 27 -16 69 -1 84 6 6 9 14 7 17 -3 3 -9 2 -12 -2z m-20 -35 c-1 -20
-12 -24 -22 -8 -3 5 -19 7 -35 3 -23 -4 -30 -2 -30 10 0 11 11 15 44 13 36 -1
44 -4 43 -18z m13 -75 c0 -7 -4 -13 -10 -13 -5 0 -10 12 -10 28 0 21 2 24 10
12 5 -8 10 -21 10 -27z"/>
<path d="M2016 1805 c4 -8 8 -15 10 -15 2 0 4 7 4 15 0 8 -4 15 -10 15 -5 0
-7 -7 -4 -15z"/>
<path d="M1719 1783 c-13 -15 -12 -15 9 -4 23 12 28 21 13 21 -5 0 -15 -7 -22
-17z"/>
<path d="M2350 1784 c0 -8 5 -12 10 -9 6 3 10 10 10 16 0 5 -4 9 -10 9 -5 0
-10 -7 -10 -16z"/>
<path d="M1935 1780 c3 -6 1 -10 -6 -10 -7 0 -10 -3 -6 -6 3 -3 13 -2 22 4 16
8 16 9 1 15 -10 4 -15 3 -11 -3z"/>
<path d="M2177 1783 c-10 -9 -8 -33 2 -33 5 0 11 9 14 20 5 20 -3 26 -16 13z"/>
<path d="M1806 1764 c-9 -23 -2 -28 13 -10 7 8 8 17 3 20 -6 3 -13 -1 -16 -10z"/>
<path d="M1965 1759 c-17 -6 -17 -8 -2 -8 19 -1 24 -17 5 -18 -22 -1 -84 -32
-65 -33 9 0 25 4 35 9 9 5 27 13 38 17 14 6 19 14 15 25 -4 12 -12 14 -26 8z"/>
<path d="M2360 1743 c0 -4 5 -15 10 -23 8 -13 10 -13 10 2 0 9 -4 20 -10 23
-5 3 -10 3 -10 -2z"/>
<path d="M2465 1740 c3 -5 8 -10 11 -10 2 0 4 5 4 10 0 6 -5 10 -11 10 -5 0
-7 -4 -4 -10z"/>
<path d="M2170 1725 c0 -18 17 -20 23 -2 3 9 8 8 22 -3 13 -10 19 -11 22 -4 2
7 12 10 22 7 10 -3 22 0 25 6 5 8 -12 11 -53 11 -48 0 -61 -3 -61 -15z"/>
<path d="M2698 1733 c7 -3 16 -2 19 1 4 3 -2 6 -13 5 -11 0 -14 -3 -6 -6z"/>
<path d="M1795 1710 c3 -5 8 -10 11 -10 2 0 4 5 4 10 0 6 -5 10 -11 10 -5 0
-7 -4 -4 -10z"/>
<path d="M2040 1709 c0 -5 5 -7 11 -3 9 5 10 -1 5 -20 -5 -20 -4 -26 5 -20 9
5 10 1 7 -14 -4 -12 -2 -22 4 -22 10 0 3 64 -8 82 -7 12 -24 10 -24 -3z"/>
<path d="M2700 1710 c0 -5 5 -10 11 -10 5 0 7 5 4 10 -3 6 -8 10 -11 10 -2 0
-4 -4 -4 -10z"/>
<path d="M1946 1701 c-4 -5 0 -11 6 -14 10 -3 10 -7 0 -19 -10 -13 -10 -17 0
-21 10 -4 10 -7 -1 -15 -11 -8 -11 -11 0 -16 12 -5 12 -7 0 -12 -11 -5 -11 -8
0 -15 12 -8 11 -11 -1 -19 -13 -9 -13 -10 0 -10 10 0 11 -3 4 -8 -6 -4 -14
-14 -17 -22 -5 -14 -11 91 -7 138 1 12 -3 22 -8 22 -6 0 -8 -9 -5 -21 5 -16 2
-20 -13 -17 -14 2 -19 -3 -18 -18 1 -19 -2 -21 -27 -14 -17 5 -29 5 -29 -1 0
-5 4 -9 9 -9 6 0 8 -9 6 -20 -2 -11 0 -18 6 -15 5 4 9 13 9 21 0 8 4 14 8 14
16 0 9 -33 -10 -52 -10 -10 -16 -23 -13 -28 3 -5 -3 -11 -14 -15 -11 -3 -25
-13 -33 -22 -9 -12 -9 -15 0 -9 8 5 12 0 12 -13 0 -15 -6 -21 -22 -20 -22 0
-22 1 -3 9 13 6 15 9 5 9 -8 0 -22 -4 -30 -9 -8 -5 -11 -10 -6 -10 5 0 3 -7
-4 -15 -15 -18 -10 -18 25 -5 23 9 26 8 22 -4 -9 -22 9 -29 19 -8 4 9 6 21 5
26 -1 5 4 13 11 17 9 6 9 9 1 9 -17 0 -10 23 15 48 19 19 22 20 23 5 2 -26 -2
-47 -9 -53 -4 -3 -8 -12 -10 -20 -3 -12 -1 -13 9 -2 20 19 50 16 42 -5 -6 -17
-5 -16 15 0 20 18 48 15 37 -4 -4 -5 -2 -9 4 -9 5 0 11 5 13 11 3 8 10 6 20
-5 12 -12 19 -13 24 -4 4 6 2 14 -4 16 -7 2 -10 7 -8 10 2 4 -21 8 -51 9 -30
1 -58 5 -61 8 -13 13 16 39 44 40 24 0 29 -4 28 -22 -1 -30 8 -29 23 3 9 20 9
25 0 21 -7 -2 -18 2 -25 9 -7 8 -11 14 -10 15 2 0 12 3 23 6 11 3 32 5 48 4
17 0 27 5 27 14 0 8 5 15 11 15 5 0 8 -4 4 -10 -3 -5 7 -8 25 -7 27 2 29 3 13
15 -10 7 -18 17 -18 22 0 4 -4 12 -8 17 -5 4 -7 2 -5 -6 2 -7 -3 -16 -9 -18
-9 -3 -13 6 -13 26 0 37 -19 48 -51 31 -15 -9 -18 -14 -9 -20 9 -6 9 -9 0 -15
-9 -6 -9 -9 1 -16 7 -4 10 -11 7 -14 -16 -17 -28 11 -28 66 0 54 -10 74 -24
50z m82 -79 c-10 -13 -10 -14 0 -8 9 6 11 1 8 -19 -9 -50 -19 -44 -29 17 -2
15 1 29 7 31 20 7 27 -4 14 -21z m-111 -36 l0 -53 -30 11 c-17 6 -23 12 -14
14 8 2 17 19 21 43 9 56 22 48 23 -15z m83 -20 c0 -2 -7 -6 -15 -10 -8 -3 -15
-1 -15 4 0 6 7 10 15 10 8 0 15 -2 15 -4z"/>
<path d="M2131 1687 c-14 -14 -14 -29 2 -50 11 -16 13 -16 25 4 13 20 12 21
-7 16 -25 -6 -26 -1 -5 20 14 14 16 14 28 -3 8 -10 12 -24 9 -30 -8 -21 12
-24 25 -3 10 16 9 19 -3 19 -8 0 -15 7 -15 15 0 20 20 19 36 -2 12 -16 13 -16
14 -1 0 21 40 12 40 -9 0 -8 -4 -11 -10 -8 -5 3 -22 -1 -37 -9 l-28 -16 40 4
c34 3 40 7 43 29 2 18 -2 27 -15 30 -33 9 -131 5 -142 -6z"/>
<path d="M1880 1680 c-8 -5 -24 -7 -35 -4 -15 5 -17 3 -9 -5 12 -13 64 -5 64
10 0 11 -1 11 -20 -1z"/>
<path d="M1855 1640 c3 -5 11 -10 16 -10 6 0 7 5 4 10 -3 6 -11 10 -16 10 -6
0 -7 -4 -4 -10z"/>
<path d="M2160 1535 c0 -8 51 -55 61 -55 5 0 13 -10 18 -22 4 -12 10 -17 13
-12 11 17 -11 54 -44 74 -32 19 -48 25 -48 15z"/>
<path d="M1705 1500 c-3 -5 -2 -10 4 -10 5 0 13 5 16 10 3 6 2 10 -4 10 -5 0
-13 -4 -16 -10z"/>
<path d="M2360 1501 c0 -5 5 -13 10 -16 6 -3 10 -2 10 4 0 5 -4 13 -10 16 -5
3 -10 2 -10 -4z"/>
<path d="M1915 1490 c-3 -5 -1 -10 4 -10 6 0 11 5 11 10 0 6 -2 10 -4 10 -3 0
-8 -4 -11 -10z"/>
<path d="M1495 1469 c-11 -17 1 -21 15 -4 8 9 8 15 2 15 -6 0 -14 -5 -17 -11z"/>
<path d="M1708 1443 c6 -2 18 -2 25 0 6 3 1 5 -13 5 -14 0 -19 -2 -12 -5z"/>
<path d="M2470 1442 c0 -7 5 -12 11 -12 5 0 8 -4 4 -9 -3 -5 -1 -12 4 -15 19
-12 20 12 1 29 -12 10 -20 13 -20 7z"/>
<path d="M2670 1385 c0 -8 -7 -15 -15 -15 -8 0 -15 -5 -15 -10 0 -12 21 -3 55
24 20 15 20 15 -2 16 -14 0 -23 -6 -23 -15z"/>
<path d="M2910 1359 c0 -6 -8 -8 -17 -5 -13 5 -12 2 4 -11 11 -10 24 -27 27
-38 3 -11 4 -8 2 8 -2 19 3 32 18 42 20 15 20 15 -7 15 -15 0 -27 -5 -27 -11z"/>
<path d="M2581 1345 c-18 -8 -38 -12 -44 -8 -5 3 -7 1 -4 -4 11 -17 47 -23 47
-8 0 8 8 12 18 10 11 -2 19 3 19 11 0 8 -1 14 -1 14 -1 -1 -16 -7 -35 -15z"/>
<path d="M2496 1334 c-11 -8 -16 -14 -10 -14 13 0 39 18 34 24 -3 2 -14 -2
-24 -10z"/>
<path d="M2447 1289 c7 -7 15 -10 18 -7 3 3 -2 9 -12 12 -14 6 -15 5 -6 -5z"/>
<path d="M2345 1259 c4 -41 15 -50 15 -11 0 17 -4 33 -9 36 -5 3 -7 -8 -6 -25z"/>
<path d="M2900 1274 c0 -8 5 -12 10 -9 6 4 8 11 5 16 -9 14 -15 11 -15 -7z"/>
<path d="M2296 1173 c-6 -14 -5 -15 5 -6 7 7 10 15 7 18 -3 3 -9 -2 -12 -12z"/>
<path d="M2850 1706 c0 -9 30 -14 35 -6 4 6 -3 10 -14 10 -12 0 -21 -2 -21 -4z"/>
<path d="M1540 1285 c-8 -9 -8 -15 -2 -15 12 0 26 19 19 26 -2 2 -10 -2 -17
-11z"/>
<path d="M1297 963 c-12 -11 -8 -23 7 -23 8 0 16 -8 18 -17 3 -16 4 -16 10 -1
7 17 -23 53 -35 41z"/>
<path d="M927 669 c-10 -11 -16 -24 -12 -27 4 -4 11 1 16 11 6 9 14 15 20 12
5 -4 9 1 9 9 0 22 -12 20 -33 -5z"/>
<path d="M890 669 c0 -5 5 -7 10 -4 6 3 10 8 10 11 0 2 -4 4 -10 4 -5 0 -10
-5 -10 -11z"/>
<path d="M920 569 c0 -5 5 -7 10 -4 6 3 10 8 10 11 0 2 -4 4 -10 4 -5 0 -10
-5 -10 -11z"/>
<path d="M565 520 c-3 -5 -15 -10 -26 -10 -10 0 -19 -5 -19 -11 0 -6 7 -8 16
-5 10 4 13 2 8 -7 -5 -9 -4 -9 7 1 19 18 28 15 24 -8 -2 -11 0 -22 4 -25 5 -2
7 9 6 25 -2 27 0 30 19 25 21 -6 21 -6 2 9 -23 19 -32 20 -41 6z"/>
<path d="M498 478 c-7 -16 18 -35 30 -23 3 3 0 5 -6 5 -6 0 -12 8 -14 18 -3
15 -4 16 -10 0z"/>
<path d="M610 450 c-6 -11 -9 -20 -8 -20 2 0 11 9 21 20 9 11 13 20 7 20 -5 0
-14 -9 -20 -20z"/>
<path d="M2846 2327 c3 -10 9 -15 12 -12 3 3 0 11 -7 18 -10 9 -11 8 -5 -6z"/>
<path d="M2856 2285 c4 -8 8 -15 10 -15 2 0 4 7 4 15 0 8 -4 15 -10 15 -5 0
-7 -7 -4 -15z"/>
<path d="M2843 2251 c0 -11 5 -18 9 -15 4 3 5 11 1 19 -7 21 -12 19 -10 -4z"/>
<path d="M2865 2200 c-3 -5 -2 -10 4 -10 5 0 13 5 16 10 3 6 2 10 -4 10 -5 0
-13 -4 -16 -10z"/>
<path d="M2573 2158 c2 -15 6 -30 10 -34 10 -10 8 17 -3 41 -8 17 -9 16 -7 -7z"/>
<path d="M2827 2156 c-7 -18 24 -31 35 -14 4 7 7 18 7 23 0 6 -3 4 -6 -2 -2
-7 -9 -13 -14 -13 -6 0 -7 5 -4 10 3 6 2 10 -3 10 -6 0 -12 -6 -15 -14z"/>
<path d="M2450 2154 c0 -3 7 -12 15 -20 13 -13 15 -13 15 -1 0 8 -7 17 -15 21
-8 3 -15 3 -15 0z"/>
<path d="M2533 2124 c4 -4 -2 -13 -14 -19 -18 -10 -16 -12 19 -11 43 0 45 8 9
27 -12 7 -18 8 -14 3z"/>
<path d="M2641 2110 c-1 -17 17 -40 32 -40 4 0 5 5 2 10 -3 6 -2 10 4 10 5 0
12 -6 14 -12 3 -7 6 -2 6 11 1 20 -3 22 -23 17 -15 -4 -26 -1 -29 7 -4 8 -6 7
-6 -3z"/>
<path d="M2715 2090 c-3 -5 -1 -10 4 -10 6 0 11 5 11 10 0 6 -2 10 -4 10 -3 0
-8 -4 -11 -10z"/>
<path d="M2526 2082 c-3 -6 -1 -14 5 -17 15 -10 25 3 12 16 -7 7 -13 7 -17 1z"/>
<path d="M2885 1814 c-16 -25 -16 -25 4 -14 12 6 21 17 21 25 0 21 -5 19 -25
-11z"/>
<path d="M1400 1238 c-1 -5 -3 -12 -4 -17 0 -5 -4 -12 -8 -16 -4 -4 -4 -14 0
-23 5 -14 3 -15 -9 -5 -11 9 -20 8 -38 -1 -19 -10 -20 -14 -8 -19 9 -3 18 -1
20 6 3 9 8 8 21 -2 15 -13 18 -12 23 7 7 29 22 28 17 0 -4 -22 -4 -21 6 1 6
15 7 27 1 30 -5 3 -11 15 -14 26 -2 11 -6 17 -7 13z"/>
<path d="M1440 1163 c0 -20 3 -24 9 -14 5 8 14 10 22 6 8 -5 5 1 -5 13 -24 28
-26 28 -26 -5z"/>
<path d="M2109 1168 c-5 -18 -6 -38 -1 -34 7 8 12 36 6 36 -2 0 -4 -1 -5 -2z"/>
<path d="M1486 1143 c-6 -14 -5 -15 5 -6 7 7 10 15 7 18 -3 3 -9 -2 -12 -12z"/>
<path d="M1370 1140 c0 -4 7 -13 15 -20 10 -9 15 -9 15 -1 0 6 1 14 3 18 1 3
-6 7 -15 9 -10 1 -18 -1 -18 -6z"/>
<path d="M1300 1121 c0 -5 7 -12 16 -15 14 -5 15 -4 4 9 -14 17 -20 19 -20 6z"/>
<path d="M1420 1119 c0 -5 4 -8 8 -5 10 6 48 -26 54 -45 3 -9 10 -9 28 1 l25
13 -28 10 c-15 5 -25 12 -22 17 3 4 -4 6 -15 3 -11 -3 -20 0 -20 6 0 6 -7 11
-15 11 -8 0 -15 -5 -15 -11z"/>
<path d="M1706 1085 c-3 -9 -2 -13 3 -10 6 3 14 -3 20 -12 6 -10 10 -13 10 -8
0 6 -6 18 -13 28 -12 16 -14 16 -20 2z"/>
<path d="M1840 1089 c0 -5 5 -7 10 -4 6 3 10 8 10 11 0 2 -4 4 -10 4 -5 0 -10
-5 -10 -11z"/>
<path d="M1700 1052 c0 -7 -11 -18 -25 -24 -30 -14 -32 -28 -5 -35 11 -3 20
-9 20 -14 0 -5 5 -9 11 -9 16 0 0 20 -25 30 -19 8 -19 9 8 9 21 1 27 5 22 16
-8 23 11 18 28 -7 9 -12 16 -18 16 -12 0 6 -11 21 -25 34 -14 13 -25 18 -25
12z"/>
<path d="M375 983 c3 -19 23 -19 40 -1 7 8 5 9 -7 5 -10 -4 -18 -2 -18 3 0 6
-4 10 -9 10 -5 0 -8 -8 -6 -17z"/>
<path d="M216 975 c-3 -9 -10 -14 -15 -10 -5 3 -12 2 -15 -3 -2 -4 4 -8 14 -9
17 -1 36 24 26 34 -2 2 -6 -3 -10 -12z"/>
<path d="M260 980 c-12 -8 -10 -10 10 -11 14 -1 31 -1 37 0 8 1 10 -5 7 -14
-4 -8 0 -23 7 -32 8 -9 13 -19 12 -22 -1 -3 1 -8 4 -11 3 -3 2 9 -2 25 -4 17
-8 37 -10 45 -1 8 -10 14 -19 14 -9 -1 -16 2 -16 7 0 12 -11 11 -30 -1z"/>
<path d="M1391 963 c-8 -16 -8 -30 -1 -41 8 -14 9 -13 10 8 0 17 3 21 11 13 6
-6 11 -17 13 -24 3 -21 23 -54 33 -54 4 0 7 -3 6 -7 -2 -5 10 -9 27 -9 17 -1
38 -2 47 -3 9 0 18 5 21 13 3 9 0 11 -8 6 -7 -4 -16 -2 -21 6 -14 22 -10 31
10 24 11 -3 21 0 24 8 4 10 -1 13 -19 9 -13 -2 -27 -9 -30 -14 -3 -5 -11 -5
-18 1 -11 9 -22 13 -66 20 -3 1 1 5 8 10 11 6 8 14 -11 33 l-25 25 -11 -24z
m117 -89 l27 -26 -32 16 c-18 9 -33 21 -33 26 0 16 9 12 38 -16z"/>
<path d="M455 970 c-3 -5 -11 -8 -16 -4 -5 3 -9 2 -8 -3 1 -4 0 -10 -1 -13 -6
-15 -4 -70 3 -70 4 0 7 12 7 28 0 33 10 48 30 47 10 0 15 -11 16 -32 0 -42 14
-56 14 -16 0 25 3 30 18 26 10 -2 19 -11 19 -19 0 -8 -6 -13 -14 -10 -7 3 -13
1 -13 -4 0 -6 5 -10 11 -10 8 0 9 -4 0 -13 -6 -8 -8 -17 -4 -20 12 -12 19 -7
20 14 3 30 10 34 36 20 49 -27 63 -41 48 -50 -19 -12 -41 -3 -34 15 3 8 1 14
-4 14 -5 0 -10 -11 -11 -24 -1 -20 2 -24 24 -21 18 2 24 -2 20 -11 -3 -8 -1
-14 4 -14 6 0 10 9 10 20 0 24 6 25 28 3 16 -16 16 -16 0 -10 -14 5 -18 1 -18
-14 0 -11 -4 -18 -9 -14 -6 3 -15 -3 -20 -14 -14 -25 -14 -31 0 -31 5 0 8 4 5
8 -2 4 0 14 5 22 7 10 8 0 5 -32 -3 -27 -2 -48 2 -48 16 0 32 17 35 35 4 28
17 46 27 40 5 -3 12 0 15 6 9 14 -37 8 -47 -6 -4 -5 -8 -21 -9 -35 0 -14 -3
-19 -6 -12 -17 42 24 109 51 82 13 -13 26 -13 26 2 0 6 -3 9 -6 5 -3 -3 -18 7
-33 22 -14 16 -43 36 -63 46 -21 9 -40 26 -43 36 -5 16 -9 18 -21 8 -12 -9
-13 -9 -9 3 4 11 -2 18 -22 23 -15 3 -35 13 -45 21 -11 11 -18 12 -23 4z"/>
<path d="M2088 973 c7 -3 16 -2 19 1 4 3 -2 6 -13 5 -11 0 -14 -3 -6 -6z"/>
<path d="M2131 960 l-23 -20 23 0 c12 0 19 3 16 7 -4 3 1 12 11 19 9 7 13 13
7 13 -5 0 -21 -9 -34 -19z"/>
<path d="M1643 960 c-21 -9 -33 -23 -15 -18 4 1 17 -1 29 -6 12 -4 38 -3 57 2
27 8 37 6 51 -7 14 -12 16 -12 9 -1 -5 8 -9 20 -9 25 0 10 -12 10 -74 -2 -25
-4 -32 -3 -27 5 8 14 8 14 -21 2z"/>
<path d="M233 949 c3 -15 -32 -20 -55 -8 -15 8 -25 4 -48 -21 -30 -32 -38 -50
-22 -50 5 0 14 11 20 25 9 19 19 25 42 25 16 0 30 -4 30 -10 0 -5 -11 -10 -24
-10 -17 0 -23 -5 -22 -17 4 -22 26 -29 37 -12 6 10 9 8 9 -9 0 -14 4 -21 11
-16 7 4 9 -2 7 -16 -2 -13 3 -24 10 -26 7 -1 8 0 3 2 -6 3 -8 11 -5 19 3 7 -2
25 -12 40 -13 20 -14 29 -5 38 8 8 11 8 11 -2 0 -7 4 -10 10 -6 5 3 7 12 4 19
-3 8 -1 17 5 21 14 8 14 25 1 25 -5 0 -9 -5 -7 -11z"/>
<path d="M401 908 c-1 -29 0 -50 2 -48 9 9 16 100 8 100 -4 0 -8 -24 -10 -52z"/>
<path d="M2058 953 c6 -2 18 -2 25 0 6 3 1 5 -13 5 -14 0 -19 -2 -12 -5z"/>
<path d="M284 928 c20 -28 20 -38 1 -38 -8 0 -15 9 -15 20 0 11 -4 20 -10 20
-12 0 -12 -2 0 -34 5 -15 5 -28 0 -31 -4 -3 -11 3 -13 12 -4 14 -5 14 -6 2 -3
-40 72 -78 86 -43 3 7 8 12 12 10 11 -7 36 12 28 20 -9 9 -58 -16 -51 -27 2
-4 -8 -6 -23 -5 -15 2 -29 9 -31 16 -3 9 1 11 12 7 10 -4 16 -1 16 8 0 7 5 17
12 21 8 5 9 2 5 -9 -3 -10 -2 -17 3 -17 13 0 13 13 -2 47 -6 15 -11 31 -10 36
1 4 -5 7 -14 7 -14 0 -14 -2 0 -22z"/>
<path d="M364 934 c-15 -13 -16 -15 -2 -10 12 3 18 -2 21 -17 3 -15 5 -12 6
11 1 37 1 37 -25 16z"/>
<path d="M1460 939 c0 -5 5 -7 10 -4 6 3 10 8 10 11 0 2 -4 4 -10 4 -5 0 -10
-5 -10 -11z"/>
<path d="M1787 931 c3 -12 9 -21 14 -21 14 0 11 16 -5 29 -12 10 -13 8 -9 -8z"/>
<path d="M454 910 c0 -11 4 -20 8 -20 4 0 8 9 8 20 0 11 -4 20 -8 20 -4 0 -8
-9 -8 -20z"/>
<path d="M1635 920 c-3 -5 1 -10 10 -10 9 0 13 5 10 10 -3 6 -8 10 -10 10 -2
0 -7 -4 -10 -10z"/>
<path d="M1682 890 c14 -22 24 -19 15 5 -4 8 -11 15 -17 15 -6 0 -6 -7 2 -20z"/>
<path d="M1918 903 c7 -3 16 -2 19 1 4 3 -2 6 -13 5 -11 0 -14 -3 -6 -6z"/>
<path d="M2485 886 c10 -14 22 -26 29 -25 7 0 6 2 -2 6 -6 2 -10 9 -7 13 3 5
-4 14 -15 20 -21 11 -21 11 -5 -14z"/>
<path d="M1390 885 c0 -8 2 -15 4 -15 2 0 6 7 10 15 3 8 1 15 -4 15 -6 0 -10
-7 -10 -15z"/>
<path d="M1650 891 c0 -6 4 -13 10 -16 6 -3 7 1 4 9 -7 18 -14 21 -14 7z"/>
<path d="M2118 883 c7 -3 16 -2 19 1 4 3 -2 6 -13 5 -11 0 -14 -3 -6 -6z"/>
<path d="M550 860 c0 -14 -7 -20 -21 -20 -11 0 -17 -5 -14 -10 4 -6 11 -7 17
-4 7 5 9 1 5 -9 -3 -10 -3 -17 2 -17 8 0 19 27 27 68 1 6 -2 12 -7 12 -5 0 -9
-9 -9 -20z"/>
<path d="M108 856 c-16 -5 -30 -18 -34 -28 -3 -10 -10 -16 -15 -13 -5 3 -6 0
-3 -8 3 -8 16 -14 29 -13 15 0 20 5 14 11 -14 14 -11 25 6 25 8 0 15 -6 15
-12 0 -8 8 -4 17 7 12 15 14 16 10 3 -3 -9 1 -22 9 -28 10 -9 14 -9 14 -1 0 6
-4 11 -9 11 -4 0 -6 11 -4 24 6 28 -12 36 -49 22z"/>
<path d="M462 848 c8 -13 14 -31 12 -40 -1 -10 2 -18 7 -18 5 0 9 14 9 31 0
17 -4 28 -10 24 -5 -3 -10 1 -10 9 0 9 -5 16 -11 16 -7 0 -6 -8 3 -22z"/>
<path d="M1420 860 c0 -6 -12 -8 -27 -5 -24 5 -25 5 -10 -5 13 -9 17 -19 12
-39 -5 -25 -3 -27 25 -26 16 0 30 3 30 7 0 5 -9 8 -21 8 -20 0 -21 7 -2 58 3
6 2 12 -1 12 -3 0 -6 -5 -6 -10z"/>
<path d="M423 845 c0 -8 6 -15 13 -15 8 0 11 6 8 15 -4 8 -9 15 -13 15 -4 0
-8 -7 -8 -15z"/>
<path d="M1441 844 c0 -11 3 -14 6 -6 3 7 2 16 -1 19 -3 4 -6 -2 -5 -13z"/>
<path d="M2346 846 c5 -14 56 -46 82 -51 9 -2 29 -6 45 -10 41 -11 32 8 -13
27 -22 9 -40 21 -40 27 0 6 6 8 14 5 8 -3 17 -1 21 5 4 7 -4 11 -19 11 -25 0
-31 -8 -27 -38 2 -10 -2 -10 -18 0 -12 7 -21 16 -21 19 0 4 -7 9 -14 12 -9 4
-13 1 -10 -7z"/>
<path d="M171 834 c0 -11 3 -14 6 -6 3 7 2 16 -1 19 -3 4 -6 -2 -5 -13z"/>
<path d="M369 828 c17 -22 27 -23 35 -2 5 13 4 14 -7 6 -10 -9 -17 -8 -27 1
-12 10 -12 9 -1 -5z"/>
<path d="M1476 825 c-18 -14 -18 -14 1 -12 11 0 20 7 20 14 0 7 -1 13 -1 13
-1 0 -9 -7 -20 -15z"/>
<path d="M410 816 c0 -10 28 -13 41 -5 10 6 7 9 -13 9 -16 0 -28 -2 -28 -4z"/>
<path d="M503 800 c1 -11 5 -20 9 -20 4 0 8 9 8 20 0 11 -4 20 -9 20 -6 0 -9
-9 -8 -20z"/>
<path d="M551 779 c-8 -22 -7 -29 1 -27 6 2 12 16 14 31 4 35 -2 34 -15 -4z"/>
<path d="M583 793 c0 -10 -4 -38 -7 -63 -4 -33 -3 -40 5 -27 6 9 14 15 20 12
5 -4 9 -1 9 4 0 6 -5 11 -11 11 -8 0 -9 13 -5 40 3 22 3 40 -2 40 -4 0 -8 -8
-9 -17z"/>
<path d="M733 798 c4 -11 2 -18 -5 -18 -6 0 -9 -3 -5 -6 3 -3 13 -2 22 3 15 9
15 11 -1 24 -16 12 -17 12 -11 -3z"/>
<path d="M115 780 c-10 -11 -13 -20 -7 -20 6 0 12 -8 14 -17 3 -10 6 -1 9 20
3 20 4 37 4 37 -1 0 -10 -9 -20 -20z"/>
<path d="M180 796 c0 -2 7 -6 15 -10 8 -3 15 -1 15 4 0 6 -7 10 -15 10 -8 0
-15 -2 -15 -4z"/>
<path d="M1351 781 c-8 -14 -7 -20 2 -24 7 -3 12 5 12 19 0 29 -1 29 -14 5z"/>
<path d="M1470 794 c0 -3 7 -12 15 -20 13 -14 15 -13 15 5 0 12 -6 21 -15 21
-8 0 -15 -3 -15 -6z"/>
<path d="M1127 770 c3 -11 9 -17 14 -14 20 12 19 -26 0 -67 -24 -48 -24 -49
-13 -49 4 0 13 15 20 33 7 17 17 40 23 49 6 13 3 24 -15 43 -28 30 -36 32 -29
5z"/>
<path d="M1949 755 c9 -19 24 -37 34 -40 9 -4 17 -11 17 -16 0 -6 -4 -7 -10
-4 -5 3 -10 1 -10 -5 0 -6 6 -10 13 -9 31 4 47 -3 75 -31 29 -29 30 -29 28 -6
0 14 -6 22 -13 19 -7 -3 -13 0 -13 6 0 6 5 11 11 11 6 0 4 7 -5 15 -19 19 -32
20 -17 1 10 -12 8 -13 -11 -9 -13 3 -27 11 -33 18 -5 6 -19 17 -30 24 -18 11
-17 12 13 8 17 -2 32 0 32 4 0 12 -35 29 -59 29 -12 0 -21 5 -21 10 0 6 -4 10
-9 10 -5 0 -1 -16 8 -35z"/>
<path d="M60 770 c-1 -8 -2 -21 -1 -29 2 -7 -1 -11 -6 -8 -4 3 -9 -12 -10 -34
-3 -39 10 -59 23 -37 4 7 7 27 6 46 -2 21 1 31 8 27 5 -3 10 -15 10 -26 0 -10
4 -19 9 -19 5 0 17 -8 27 -17 16 -16 16 -16 10 5 -5 13 -3 22 3 22 6 0 11 5
11 10 0 6 -7 10 -16 10 -8 0 -13 -4 -9 -9 3 -5 1 -12 -5 -16 -10 -6 -14 7 -11
33 1 8 -7 16 -18 19 -11 3 -22 12 -24 22 -4 13 -5 13 -7 1z m4 -95 c-4 -8 -8
-15 -10 -15 -2 0 -4 7 -4 15 0 8 4 15 10 15 5 0 7 -7 4 -15z"/>
<path d="M141 764 c0 -11 3 -14 6 -6 3 7 2 16 -1 19 -3 4 -6 -2 -5 -13z"/>
<path d="M458 773 c7 -3 16 -2 19 1 4 3 -2 6 -13 5 -11 0 -14 -3 -6 -6z"/>
<path d="M1838 773 c7 -3 16 -2 19 1 4 3 -2 6 -13 5 -11 0 -14 -3 -6 -6z"/>
<path d="M1883 768 c-28 -14 -30 -27 -3 -25 11 1 20 8 20 16 0 10 8 8 27 -10
l27 -24 -15 24 c-19 30 -27 33 -56 19z"/>
<path d="M165 761 c3 -6 -3 -14 -12 -20 -10 -6 -13 -11 -7 -11 12 0 34 20 34
32 0 4 -5 8 -11 8 -5 0 -8 -4 -4 -9z"/>
<path d="M1426 761 c-4 -5 -2 -12 3 -15 5 -4 12 -2 15 3 4 5 2 12 -3 15 -5 4
-12 2 -15 -3z"/>
<path d="M1310 751 c0 -4 9 -13 19 -20 11 -8 17 -21 13 -29 -3 -10 -1 -13 6
-8 20 12 13 40 -13 53 -14 6 -25 8 -25 4z"/>
<path d="M500 739 c0 -5 11 -9 24 -9 13 0 27 -5 29 -10 3 -6 4 -5 3 2 -3 14
-56 31 -56 17z"/>
<path d="M1228 728 c-8 -20 10 -28 37 -16 19 8 19 8 -2 4 -15 -2 -23 2 -25 13
-3 15 -4 15 -10 -1z"/>
<path d="M1300 715 c-18 -21 -23 -52 -10 -60 9 -5 12 8 9 31 0 4 5 10 11 14 7
4 11 13 8 20 -3 9 -8 7 -18 -5z"/>
<path d="M1378 723 c7 -3 16 -2 19 1 4 3 -2 6 -13 5 -11 0 -14 -3 -6 -6z"/>
<path d="M1180 710 c0 -5 4 -10 9 -10 6 0 13 5 16 10 3 6 -1 10 -9 10 -9 0
-16 -4 -16 -10z"/>
<path d="M1884 709 c-4 -7 -3 -9 4 -5 5 3 13 0 15 -6 4 -9 6 -10 6 -1 1 17
-16 25 -25 12z"/>
<path d="M1920 709 c0 -5 5 -7 10 -4 6 3 10 8 10 11 0 2 -4 4 -10 4 -5 0 -10
-5 -10 -11z"/>
<path d="M1210 689 c0 -5 5 -7 10 -4 6 3 10 8 10 11 0 2 -4 4 -10 4 -5 0 -10
-5 -10 -11z"/>
<path d="M1245 680 c3 -5 10 -10 16 -10 5 0 9 5 9 10 0 6 -7 10 -16 10 -8 0
-12 -4 -9 -10z"/>
<path d="M643 666 c4 -9 -1 -17 -11 -19 -12 -3 -11 -5 6 -6 16 -1 22 5 22 19
0 11 -5 20 -11 20 -6 0 -9 -6 -6 -14z"/>
<path d="M1916 664 c-10 -26 -7 -29 9 -8 9 12 14 14 15 6 0 -7 4 -11 9 -8 5 4
12 0 14 -6 3 -7 6 -3 6 10 1 17 -5 22 -23 22 -13 0 -27 -7 -30 -16z"/>
<path d="M1192 658 c2 -5 8 -9 13 -9 5 0 11 4 13 9 1 5 -4 9 -13 9 -9 0 -14
-4 -13 -9z"/>
<path d="M1716 654 c-3 -9 -6 -17 -6 -18 0 -1 9 -2 20 -2 24 0 24 3 6 21 -12
12 -15 12 -20 -1z"/>
<path d="M1247 653 c-4 -3 -7 -11 -7 -17 0 -6 5 -5 12 2 6 6 9 14 7 17 -3 3
-9 2 -12 -2z"/>
<path d="M1075 640 c-3 -5 0 -10 9 -10 8 0 16 -4 18 -10 2 -6 8 -6 18 0 13 8
12 10 -2 10 -10 0 -18 5 -18 10 0 6 -4 10 -9 10 -6 0 -13 -4 -16 -10z"/>
<path d="M1150 641 c0 -6 5 -13 10 -16 6 -3 10 1 10 9 0 9 -4 16 -10 16 -5 0
-10 -4 -10 -9z"/>
<path d="M640 626 c0 -2 9 -6 20 -9 11 -3 18 -1 14 4 -5 9 -34 13 -34 5z"/>
<path d="M714 596 l-14 -30 22 21 c35 31 48 36 48 19 0 -8 -8 -17 -17 -20 -14
-4 -14 -4 2 -3 12 1 21 11 23 25 5 35 -44 26 -64 -12z"/>
<path d="M1180 621 c0 -6 4 -12 8 -15 5 -3 9 1 9 9 0 8 -4 15 -9 15 -4 0 -8
-4 -8 -9z"/>
<path d="M70 610 c0 -5 -9 -10 -20 -10 -11 0 -20 -4 -20 -9 0 -4 11 -6 25 -3
14 2 25 11 25 18 0 8 -2 14 -5 14 -3 0 -5 -4 -5 -10z"/>
<path d="M680 600 c-13 -8 -13 -10 2 -10 9 0 20 5 23 10 8 13 -5 13 -25 0z"/>
<path d="M1140 600 c0 -5 5 -10 10 -10 6 0 10 5 10 10 0 6 -4 10 -10 10 -5 0
-10 -4 -10 -10z"/>
<path d="M98 588 c15 -15 16 -29 1 -25 -6 1 -13 -3 -16 -10 -3 -7 3 -9 16 -6
12 3 21 10 21 15 0 5 9 6 21 3 20 -7 20 -6 2 14 -9 12 -26 21 -37 21 -16 0
-17 -3 -8 -12z"/>
<path d="M1090 589 c0 -5 5 -7 10 -4 6 3 10 8 10 11 0 2 -4 4 -10 4 -5 0 -10
-5 -10 -11z"/>
<path d="M1030 579 c0 -5 -4 -7 -10 -4 -5 3 -10 1 -10 -4 0 -15 13 -14 36 4
17 13 17 14 2 15 -10 0 -18 -5 -18 -11z"/>
<path d="M1878 573 c6 -2 9 -10 6 -15 -4 -7 -2 -8 5 -4 13 9 5 26 -12 25 -9 0
-8 -2 1 -6z"/>
<path d="M1811 554 c0 -11 3 -14 6 -6 3 7 2 16 -1 19 -3 4 -6 -2 -5 -13z"/>
<path d="M1910 560 c0 -5 5 -10 10 -10 6 0 10 5 10 10 0 6 -4 10 -10 10 -5 0
-10 -4 -10 -10z"/>
<path d="M1709 549 c-10 -6 -7 -9 14 -9 29 0 35 5 14 13 -8 3 -20 1 -28 -4z"/>
<path d="M1714 518 c-3 -4 5 -5 17 -3 30 6 36 14 9 12 -12 -1 -24 -5 -26 -9z"/>
<path d="M1670 499 c-41 -59 -53 -70 -69 -64 -9 4 -22 9 -29 12 -8 3 -10 0 -6
-11 3 -9 14 -16 24 -16 25 0 36 -20 19 -31 -10 -6 -10 -9 -2 -9 7 0 17 9 23
21 9 16 14 18 26 8 13 -10 13 -8 4 17 -8 20 -8 30 -1 32 6 2 11 10 11 18 0 8
4 14 9 14 5 0 11 7 15 15 8 22 -7 18 -24 -6z"/>
<path d="M1780 499 c0 -5 -4 -8 -8 -5 -5 3 -9 -1 -9 -9 0 -8 4 -12 8 -9 4 2 9
-2 12 -8 2 -7 4 -1 4 15 0 15 -1 27 -3 27 -2 0 -4 -5 -4 -11z"/>
<path d="M1690 470 c8 -5 22 -9 30 -9 10 0 8 3 -5 9 -27 12 -43 12 -25 0z"/>
<path d="M1750 445 c0 -8 5 -15 10 -15 6 0 10 7 10 15 0 8 -4 15 -10 15 -5 0
-10 -7 -10 -15z"/>
<path d="M1507 336 l-7 -109 65 -87 c61 -82 95 -110 133 -110 10 0 28 -7 40
-16 12 -8 27 -14 32 -12 11 3 -54 39 -106 58 -17 6 -47 33 -67 60 -38 51 -43
67 -19 62 12 -3 12 -1 1 10 -7 8 -21 14 -32 14 -33 -1 -43 27 -28 86 7 29 13
63 13 75 0 21 1 21 25 5 l26 -16 -22 -14 c-26 -18 -28 -37 -2 -21 10 7 26 9
36 5 15 -5 15 -9 4 -23 -12 -15 -12 -16 4 -10 23 9 22 -2 -4 -29 -23 -25 -20
-54 6 -54 18 0 20 27 3 32 -7 3 -6 7 5 11 11 4 17 1 17 -7 0 -14 29 -30 38
-21 3 3 0 5 -7 5 -7 0 -10 4 -6 9 3 5 1 12 -5 16 -19 11 0 24 23 16 12 -5 22
-17 23 -28 2 -27 12 -43 30 -43 19 0 17 -10 -6 -40 l-19 -25 -10 27 c-8 20
-15 26 -27 21 -15 -5 -13 -10 13 -33 16 -15 32 -34 36 -43 4 -10 18 -22 32
-27 15 -6 24 -14 21 -18 -2 -4 4 -8 14 -9 17 -2 18 1 8 23 -7 14 -17 23 -24
20 -8 -3 -16 -1 -19 5 -4 5 -11 6 -17 3 -15 -10 0 36 23 68 l19 28 -27 30
c-15 17 -28 36 -29 43 -1 7 -6 21 -10 32 -7 17 -2 16 32 -9 21 -16 47 -38 57
-47 9 -10 23 -16 30 -13 10 3 12 -5 9 -31 -2 -20 0 -35 6 -35 6 0 19 -3 29 -7
17 -6 17 -5 2 13 -23 27 -21 56 2 43 24 -12 39 -41 39 -73 0 -14 4 -26 9 -26
4 0 8 22 7 49 -1 27 -4 47 -7 45 -10 -6 -61 45 -54 55 3 5 1 12 -5 16 -6 3
-10 -3 -10 -15 0 -27 -15 -23 -82 23 -37 25 -48 38 -48 59 0 17 5 27 12 25 18
-3 22 38 5 51 -11 9 -14 8 -14 -3 0 -8 4 -12 9 -9 4 3 8 -5 8 -18 0 -13 -3
-18 -8 -12 -8 13 -27 -2 -28 -21 -2 -40 -18 -85 -31 -85 -13 0 -13 3 -3 15 17
20 1 19 -22 -2 -17 -15 -18 -15 -20 3 0 10 -1 24 -1 30 0 6 -7 11 -15 10 -9 0
-19 10 -23 24 -4 14 -7 22 -8 17 -1 -4 -12 0 -26 9 -14 9 -26 12 -26 8 -1 -5
-4 5 -8 21 -5 20 -9 -5 -14 -79z m213 -111 c7 -9 8 -15 2 -15 -5 0 -12 7 -16
15 -3 8 -4 15 -2 15 2 0 9 -7 16 -15z"/>
<path d="M1661 381 c-7 -5 -11 -15 -9 -22 3 -10 8 -7 17 9 13 24 12 26 -8 13z"/>
<path d="M1620 360 c0 -5 5 -10 10 -10 6 0 10 5 10 10 0 6 -4 10 -10 10 -5 0
-10 -4 -10 -10z"/>
<path d="M1553 308 c-33 -16 -31 -41 2 -26 13 6 22 14 20 19 -3 4 3 10 12 12
12 3 13 5 3 5 -8 0 -25 -4 -37 -10z"/>
<path d="M1810 290 c8 -5 20 -10 25 -10 6 0 3 5 -5 10 -8 5 -19 10 -25 10 -5
0 -3 -5 5 -10z"/>
<path d="M1520 249 c0 -5 4 -8 9 -5 5 4 11 1 13 -6 3 -7 10 -8 17 -4 11 7 11
10 0 17 -19 12 -39 11 -39 -2z"/>
<path d="M1641 201 c-7 -5 -9 -11 -4 -14 6 -4 19 0 29 8 15 11 16 14 4 15 -8
0 -21 -4 -29 -9z"/>
<path d="M1781 196 c-8 -10 -9 -16 -1 -21 6 -4 10 -12 8 -18 -4 -26 26 -97 41
-97 14 -1 13 -2 -1 -11 -10 -5 -18 -15 -18 -22 0 -6 10 -2 22 10 22 22 22 22
2 44 -16 19 -17 22 -2 16 10 -3 20 -2 23 3 4 6 -3 10 -14 10 -12 0 -21 6 -21
13 0 9 12 11 40 9 31 -3 40 -1 40 11 0 12 -8 15 -34 12 -37 -5 -62 14 -52 40
7 19 -17 20 -33 1z"/>
<path d="M1613 163 c-18 -7 -16 -20 2 -20 8 0 16 6 19 14 6 13 0 15 -21 6z"/>
<path d="M1757 163 c-4 -3 -7 -18 -7 -32 l0 -26 15 29 c8 15 15 30 15 32 0 6
-16 5 -23 -3z"/>
<path d="M1651 141 c-7 -5 -12 -14 -10 -20 3 -6 9 -7 18 -2 7 5 12 14 10 20
-3 6 -9 7 -18 2z"/>
<path d="M1870 80 c0 -5 10 -10 23 -10 18 0 19 2 7 10 -19 13 -30 13 -30 0z"/>
<path d="M1905 49 c-34 -35 -40 -38 -47 -22 -6 16 -7 16 -7 1 -1 -9 -9 -19
-18 -21 -10 -3 -4 -5 12 -6 33 0 62 19 89 62 25 37 18 34 -29 -14z"/>
</g>
</svg>
