<?xml version="1.0" standalone="no"?>
<!DOCTYPE svg PUBLIC "-//W3C//DTD SVG 20010904//EN"
 "http://www.w3.org/TR/2001/REC-SVG-20010904/DTD/svg10.dtd">
<svg version="1.0" xmlns="http://www.w3.org/2000/svg"
 width="300.000000pt" height="231.000000pt" viewBox="0 0 300.000000 231.000000"
 preserveAspectRatio="xMidYMid meet">
<metadata>
Created by potrace 1.10, written by Peter Selinger 2001-2011
</metadata>
<g transform="translate(0.000000,231.000000) scale(0.050000,-0.050000)"
fill="#000000" stroke="none">
<path d="M811 4527 c44 -251 166 -489 364 -710 144 -159 148 -217 7 -99 -231
194 -488 512 -650 804 -57 104 -60 39 -3 -110 81 -217 340 -545 526 -667 41
-27 63 -85 33 -85 -43 0 -452 331 -628 508 -116 116 -213 203 -216 193 -24
-70 281 -401 516 -561 109 -74 163 -141 91 -113 -74 28 -451 277 -607 400
-171 135 -226 149 -145 35 58 -82 317 -287 462 -367 106 -58 161 -120 133
-148 -14 -13 -345 155 -520 264 -116 72 -145 84 -151 58 -9 -42 67 -122 130
-138 30 -8 46 -24 43 -45 -4 -22 36 -55 128 -104 224 -120 217 -163 -16 -92
-54 16 -120 29 -148 29 l-50 0 60 -50 c33 -28 119 -79 190 -115 l130 -64 -75
-6 c-109 -9 -87 -58 61 -132 42 -22 60 -42 50 -58 -47 -76 10 -134 134 -134
73 0 94 -31 39 -60 -108 -58 9 -170 156 -149 91 12 109 -6 45 -46 -54 -34 -50
-58 15 -89 30 -15 56 -38 58 -51 1 -14 3 -34 5 -44 1 -11 37 -29 81 -41 75
-20 78 -24 67 -89 -11 -73 -7 -76 124 -95 29 -5 42 -24 46 -72 7 -71 21 -80
184 -124 50 -14 101 -28 113 -31 13 -4 19 -24 14 -45 -12 -45 40 -104 91 -104
20 0 52 -18 72 -40 20 -22 53 -40 73 -40 20 0 55 -18 77 -40 22 -22 58 -40 80
-40 22 0 40 -8 40 -19 0 -62 162 -94 210 -41 59 66 112 54 84 -19 -28 -75 45
-170 120 -155 32 6 49 -3 57 -30 14 -42 87 -79 119 -60 11 7 56 9 100 6 44 -4
110 -7 146 -8 48 -1 64 -9 60 -32 -9 -58 25 -82 115 -82 49 0 89 -8 89 -19 0
-31 67 -42 137 -22 81 23 79 -15 -3 -55 -56 -27 -77 -71 -24 -51 49 19 34 -26
-22 -62 -69 -45 -48 -61 42 -31 95 31 112 12 27 -32 -38 -19 -56 -38 -41 -43
15 -5 -19 -51 -87 -115 -112 -106 -116 -166 -9 -136 21 6 19 1 -4 -13 -19 -12
-50 -53 -68 -92 -26 -56 -44 -69 -91 -69 -36 0 -78 -19 -108 -49 -46 -46 -49
-47 -49 -9 0 37 -4 37 -71 -14 -38 -29 -66 -58 -60 -63 17 -17 -42 -112 -127
-203 -117 -127 -82 -130 40 -4 56 58 103 102 105 99 3 -4 16 -22 31 -41 22
-29 20 -43 -14 -90 -32 -45 -104 -195 -104 -216 0 -29 97 -16 172 22 52 26
124 48 161 48 45 0 88 20 138 64 59 52 90 64 169 65 69 1 110 13 143 43 97 88
244 75 269 -23 11 -44 22 -51 79 -46 37 3 73 -1 81 -9 21 -20 148 -17 148 4 0
70 281 76 497 11 44 -14 45 -12 20 28 -15 24 -42 48 -61 54 -19 6 -54 38 -77
70 -50 71 -63 72 -140 15 -87 -65 -121 -22 -53 67 28 37 98 162 156 277 85
168 136 240 257 363 83 84 185 190 227 235 84 92 119 101 160 42 15 -22 32
-36 37 -31 4 5 10 -15 13 -44 15 -179 183 -181 191 -1 3 62 -1 66 -57 61 -55
-4 -56 -2 -15 15 47 19 60 68 25 90 -12 7 -15 21 -9 32 6 10 20 13 30 7 11 -6
19 14 18 45 0 52 -2 53 -23 16 -12 -22 -24 -43 -27 -47 -3 -3 -66 53 -139 125
-84 83 -150 132 -177 131 l-43 -1 45 -31 c25 -18 45 -48 45 -68 0 -20 9 -42
20 -49 31 -19 23 -56 -10 -43 -32 13 -11 -37 50 -116 26 -34 22 -33 -34 6 -81
56 -173 178 -119 157 22 -8 30 -6 22 7 -7 11 -28 16 -47 10 -21 -7 -53 8 -82
39 -43 45 -44 50 -9 50 44 0 21 23 -56 56 -64 27 -69 20 -20 -28 33 -33 32
-34 -25 -21 l-60 14 46 -36 c56 -45 40 -65 -53 -65 -99 0 -63 -24 49 -32 96
-8 149 -28 71 -28 -50 0 -57 -30 -11 -48 47 -18 62 -14 28 8 -16 11 -21 19
-10 19 11 0 37 -13 59 -30 26 -19 30 -29 11 -29 -21 0 -22 -6 -5 -23 16 -16
17 -35 3 -60 -11 -20 -12 -38 -4 -39 9 -1 -11 -9 -44 -18 -33 -8 -78 -22 -100
-31 -36 -15 -37 -13 -13 17 24 29 24 34 0 34 -21 1 -21 5 3 22 22 16 6 19 -65
12 -52 -5 -95 -1 -95 8 0 10 13 18 28 18 60 0 50 57 -14 79 -52 18 -58 26 -34
42 26 17 25 24 -9 49 -37 28 -37 30 -2 30 36 0 36 1 1 40 -34 38 -34 40 -1 40
22 0 31 11 24 28 -6 18 8 33 40 41 37 9 45 19 30 37 -12 15 -14 37 -3 54 9 15
13 35 8 44 -6 8 4 10 21 4 17 -7 31 -2 31 10 0 32 90 27 176 -11 41 -18 142
-44 224 -58 l150 -26 70 67 c106 101 235 161 360 168 176 9 282 95 253 206 -5
19 5 46 22 60 57 47 108 190 96 271 -9 59 -7 66 9 35 15 -31 19 -20 15 55 -3
52 2 95 10 95 9 0 11 34 5 75 -8 50 5 124 38 225 67 206 -24 246 -117 50 -18
-40 -47 -77 -63 -83 -15 -6 -28 -19 -28 -29 0 -10 -31 -66 -69 -123 -37 -58
-84 -154 -103 -215 -19 -60 -43 -121 -54 -135 -29 -39 0 -55 60 -34 50 18 110
107 165 244 42 106 5 -71 -42 -198 -36 -101 -50 -117 -95 -119 -82 -4 -89 -6
-139 -41 -26 -19 -41 -44 -34 -55 9 -15 -22 -23 -93 -24 -141 -3 -201 -21
-208 -64 -6 -44 68 -27 106 24 24 31 28 28 34 -23 1 -13 19 -28 39 -32 24 -4
33 1 24 15 -7 12 0 22 16 22 17 0 36 -17 42 -38 20 -62 98 -31 82 32 -8 32 -5
45 8 36 12 -7 21 -28 21 -46 1 -27 9 -23 40 16 22 28 39 40 40 28 0 -37 -82
-129 -103 -116 -11 7 -30 -1 -43 -17 -37 -45 -94 -59 -94 -23 0 17 -9 25 -20
18 -27 -17 -103 8 -90 30 5 9 -7 12 -29 6 -21 -5 -43 -23 -49 -39 -9 -22 -2
-26 26 -17 21 6 45 1 53 -12 9 -15 7 -19 -7 -11 -11 8 -27 4 -34 -7 -8 -13
-27 -12 -55 3 -32 17 -45 17 -51 0 -9 -27 -44 -11 -44 19 0 11 8 15 18 9 10
-6 23 3 29 19 16 40 -16 38 -82 -5 -29 -19 -47 -25 -39 -12 7 13 1 28 -14 34
-18 6 -26 -2 -23 -23 3 -19 -5 -41 -17 -50 -12 -8 10 -10 49 -3 52 9 79 3 98
-19 22 -27 20 -32 -17 -32 -23 0 -42 -10 -42 -21 0 -24 -58 -89 -62 -70 -10
42 -7 63 11 75 11 8 -2 22 -29 32 -36 13 -55 11 -70 -9 -16 -23 -33 -24 -86
-5 -36 12 -72 17 -79 9 -19 -18 38 -51 62 -37 11 7 14 3 7 -8 -9 -14 -36 -13
-82 1 l-69 22 74 42 c41 25 81 36 92 26 10 -9 28 -17 40 -17 12 0 9 8 -5 17
-37 23 -8 81 48 95 26 7 43 20 37 30 -6 10 9 18 35 18 33 1 38 5 19 18 -19 12
-4 21 50 32 73 14 74 16 31 36 -37 17 -57 12 -107 -25 -40 -29 -108 -51 -194
-63 -197 -25 -251 -17 -103 15 278 62 277 66 -23 56 -306 -9 -382 -21 -334
-51 15 -10 52 -18 82 -18 100 0 57 -35 -85 -70 -128 -31 -202 -70 -136 -70 21
-1 21 -4 -1 -18 -58 -37 64 -38 204 -2 79 20 200 48 269 61 194 38 132 45 -76
9 -102 -18 -188 -29 -192 -24 -8 8 244 64 391 87 l88 13 -39 -42 c-22 -23 -89
-66 -149 -94 -60 -28 -91 -47 -69 -41 36 10 35 7 -6 -28 -33 -28 -63 -36 -105
-28 -33 7 -59 4 -59 -6 0 -10 -18 -20 -40 -22 -22 -1 -40 6 -40 16 0 11 -7 19
-16 19 -8 0 -15 -18 -15 -40 0 -22 8 -40 19 -40 10 0 13 -5 7 -12 -7 -7 -32 2
-56 18 -24 17 -56 26 -71 20 -41 -15 -133 51 -120 86 8 20 -21 43 -96 76 -60
27 -162 84 -227 127 -122 81 -296 169 -385 195 -27 8 -162 70 -300 139 -137
68 -260 121 -272 117 -12 -4 -38 16 -56 44 -19 28 -41 47 -51 41 -9 -6 -22 2
-27 17 -6 15 -54 48 -107 73 -98 47 -177 100 -311 208 -40 32 -89 60 -109 63
-20 3 -55 10 -77 15 -22 6 -47 11 -55 11 -8 1 -48 34 -89 72 -41 39 -85 70
-98 70 -89 0 -277 337 -387 694 -92 303 -138 290 -69 -20 37 -164 103 -309
191 -420 80 -101 60 -115 -42 -31 -183 151 -396 465 -542 802 -103 236 -152
298 -128 162z m399 -1045 c377 -178 389 -185 315 -173 -62 10 -88 -13 -45 -39
12 -7 16 -21 10 -30 -6 -10 5 -27 25 -38 27 -17 29 -25 9 -38 -31 -21 -2 -51
71 -73 25 -8 40 -22 34 -32 -6 -11 9 -28 35 -38 99 -42 156 -121 86 -121 -16
0 -30 -9 -30 -20 0 -11 26 -20 58 -20 77 0 122 -18 122 -50 0 -24 114 -90 157
-90 52 0 39 -44 -21 -70 -62 -27 -63 -29 -16 -31 100 -6 171 4 235 33 83 38
83 38 -34 40 -111 2 -169 37 -154 92 6 25 -2 36 -26 36 -20 0 -47 14 -61 30
-14 17 -37 30 -51 30 -49 0 -128 90 -117 133 9 32 -4 47 -55 68 -71 30 -161
108 -144 125 37 37 307 -123 307 -181 0 -16 170 -145 191 -145 5 0 42 -36 81
-80 40 -44 83 -80 95 -80 13 0 59 -11 103 -24 l80 -24 -67 -11 -67 -11 47 -52
c26 -29 57 -69 69 -90 12 -21 53 -43 90 -48 60 -10 64 -13 31 -33 -36 -20 -36
-23 9 -54 64 -45 132 -42 158 7 20 38 25 38 83 9 33 -18 73 -27 88 -21 15 5
33 1 40 -9 6 -11 19 -15 29 -9 9 6 42 -1 74 -15 58 -26 65 -30 144 -95 26 -22
78 -50 115 -64 37 -13 67 -36 67 -52 0 -18 19 -25 57 -21 32 3 72 -5 88 -19
17 -14 40 -23 50 -20 31 9 198 -152 215 -206 9 -26 25 -55 38 -65 16 -11 14
-19 -5 -27 -22 -9 -22 -14 -2 -27 30 -18 79 -3 79 24 0 11 -11 13 -25 4 -14
-8 -12 1 5 22 28 35 31 32 40 -51 6 -48 17 -86 25 -83 24 8 23 -2 -5 -48 -15
-24 -38 -39 -52 -34 -47 19 -54 -38 -8 -73 32 -24 38 -39 22 -49 -18 -11 -18
-21 0 -43 29 -36 15 -53 -29 -36 -43 16 -42 46 2 82 33 27 32 28 -5 15 -22 -8
-56 -15 -75 -16 -19 -1 -35 -9 -35 -17 0 -9 -11 -16 -26 -16 -34 0 -98 -77
-83 -101 6 -10 2 -19 -10 -19 -11 0 -21 13 -21 28 0 15 -13 33 -30 39 -33 13
-41 86 -10 96 12 4 9 28 -8 59 -26 52 -26 52 46 47 39 -2 95 5 122 16 l50 21
-60 13 c-33 7 -84 7 -113 -1 -80 -21 -104 49 -57 171 38 102 -16 48 -86 -86
l-72 -137 52 -42 c28 -22 65 -36 83 -31 29 9 29 7 -1 -12 -21 -14 -30 -39 -24
-71 7 -37 2 -46 -22 -37 -16 6 -30 19 -30 29 0 10 -37 12 -84 5 l-85 -14 34
53 35 52 -60 -7 c-33 -5 -65 0 -71 11 -7 10 -21 13 -33 5 -14 -8 -18 5 -12 40
13 64 -33 75 -192 45 -60 -12 -67 -8 -59 24 9 32 -1 36 -82 32 -67 -4 -91 1
-91 22 0 43 73 75 117 52 54 -29 115 43 69 82 -43 35 -103 22 -174 -37 -44
-38 -71 -46 -110 -36 -29 7 -68 15 -87 16 -20 2 -35 10 -35 18 0 8 0 26 0 38
0 13 6 18 13 11 7 -7 30 0 51 14 21 15 55 23 75 18 89 -23 63 54 -29 85 -51
17 -59 29 -53 77 l6 57 -70 -54 c-79 -60 -271 -140 -290 -120 -30 30 223 189
303 190 24 0 76 27 114 59 l70 59 -60 -7 c-79 -9 -127 -29 -202 -86 -34 -25
-69 -46 -77 -46 -9 0 -69 -32 -135 -72 -65 -40 -123 -68 -129 -62 -15 16 54
114 80 114 31 0 253 142 253 161 0 9 -38 -6 -85 -32 -120 -68 -182 -96 -203
-91 -9 2 -32 -9 -50 -25 -68 -60 -129 -63 -118 -6 11 57 -16 77 -68 50 -48
-24 -107 89 -64 125 31 26 38 98 10 98 -44 0 -82 -27 -82 -57 0 -19 -7 -24
-15 -13 -8 11 -44 22 -80 25 -36 3 -83 23 -105 45 -22 22 -49 40 -60 40 -11 0
-20 19 -20 41 0 26 9 36 23 27 13 -8 18 -3 12 14 -5 15 -21 25 -35 22 -83 -19
-203 73 -135 104 14 6 3 10 -25 9 -107 -3 -120 2 -120 53 0 28 11 51 25 53 36
4 98 10 149 14 33 2 42 12 34 38 -9 30 -8 31 9 4 26 -40 190 -21 343 38 59 23
-154 26 -337 4 -186 -22 -374 -11 -395 22 -6 9 6 18 26 19 20 0 54 5 76 10 22
5 135 13 250 17 116 5 219 10 229 10 12 1 12 8 0 20 -16 16 -367 1 -459 -19
-62 -14 -150 3 -150 29 0 15 -20 32 -45 37 -25 5 45 11 155 13 110 3 238 6
285 8 47 1 85 8 85 16 0 25 -148 38 -390 33 -194 -4 -251 2 -300 29 -34 19
-47 34 -30 36 17 1 49 6 72 10 23 4 119 1 214 -7 95 -9 190 -9 213 -1 22 9 45
7 52 -4 14 -24 103 -25 117 -2 16 25 -171 59 -398 73 -245 15 -429 48 -389 70
55 29 210 40 279 20 39 -11 115 -26 170 -32 55 -6 132 -19 170 -29 99 -26 174
-25 146 3 -33 33 -294 98 -526 129 -257 35 -287 35 -210 0 l60 -28 -56 -1
c-35 -1 -60 11 -68 33 -8 19 -28 46 -45 59 -26 21 -21 25 35 25 39 1 61 9 54
21 -22 36 277 -12 423 -68 73 -28 315 -92 344 -92 54 2 -376 152 -582 203
-287 72 -325 103 -110 88 185 -12 296 -46 481 -144 60 -32 174 -69 174 -57 0
13 -456 230 -484 230 -14 0 -39 10 -56 21 -82 56 151 -14 330 -99z m151 7 c32
-16 59 -39 59 -50 0 -22 -110 29 -130 61 -17 28 2 25 71 -11z m238 -106 c-20
-7 -179 92 -179 111 0 5 45 -17 100 -48 55 -31 90 -59 79 -63z m1169 -820 c20
-32 -143 -72 -177 -44 -17 14 -31 34 -31 43 0 23 194 24 208 1z m-178 -623 c7
-11 3 -20 -9 -20 -11 0 -21 -13 -21 -30 0 -21 -21 -30 -70 -30 -38 0 -74 0
-80 0 -30 0 -8 34 42 63 67 39 120 46 138 17z m1330 -20 c0 -22 -13 -40 -29
-40 -20 0 -26 -12 -17 -35 8 -24 5 -29 -10 -15 -28 27 -6 130 28 130 16 0 28
-18 28 -40z m104 -94 c-11 -20 -12 -54 -3 -76 18 -44 26 -26 20 45 -4 51 15
57 66 20 38 -28 -1 -145 -60 -181 -15 -9 -27 -30 -27 -48 0 -48 73 22 89 85
16 67 151 74 151 8 0 -27 -11 -39 -33 -35 -23 4 -39 -14 -51 -59 -17 -65 -64
-87 -83 -40 -6 15 -10 12 -11 -9 -1 -18 7 -39 17 -46 26 -15 124 49 110 72 -6
10 7 18 30 18 49 0 54 -31 9 -56 -51 -29 24 -146 111 -174 36 -11 41 -18 19
-30 -40 -22 -129 -9 -123 17 3 13 -4 23 -15 23 -11 0 -19 -27 -16 -60 3 -41
13 -58 31 -51 15 6 32 -3 38 -19 9 -25 17 -24 58 2 49 33 152 31 163 -2 3 -11
-13 -32 -36 -46 -38 -24 -40 -23 -27 18 l14 44 -68 -39 c-53 -32 -66 -51 -61
-94 3 -29 -4 -53 -15 -53 -12 0 -21 14 -21 32 0 23 -10 28 -35 17 -19 -9 -60
-17 -90 -20 -30 -2 -69 -5 -87 -6 -20 -2 -28 -14 -21 -33 8 -20 -1 -30 -28
-30 -41 0 -54 -48 -19 -70 11 -7 20 -3 20 9 0 11 9 21 20 21 12 0 10 -16 -5
-40 -13 -22 -36 -40 -51 -40 -14 0 -21 -9 -14 -20 7 -12 -5 -17 -28 -14 -58 9
-71 28 -43 63 13 16 19 38 12 49 -6 10 5 24 25 31 20 6 49 43 64 81 28 72 56
86 94 48 13 -13 34 -16 49 -6 15 10 35 18 45 18 10 0 22 10 26 23 6 17 -12 19
-64 7 -59 -13 -71 -11 -62 12 13 34 -16 36 -73 5 -32 -17 -45 -17 -51 0 -4 13
-17 23 -28 23 -12 0 -10 -14 6 -32 22 -27 21 -35 -8 -51 -19 -11 -31 -26 -26
-34 5 -8 -10 -16 -34 -18 -34 -3 -37 1 -14 16 25 15 24 18 -6 19 -28 0 -34 10
-24 40 10 31 4 40 -29 40 -49 0 -75 49 -44 86 15 19 10 32 -20 51 -29 19 -35
33 -21 47 30 30 89 -34 92 -99 1 -28 15 -56 30 -61 19 -6 24 1 16 23 -8 20 11
55 52 96 40 40 55 67 39 72 -32 11 -32 70 0 102 31 31 29 288 -3 299 -39 13
-23 61 23 68 53 7 64 -9 39 -58z m-455 -577 c44 -29 53 -29 103 4 54 35 54 35
30 -8 -22 -42 -18 -45 59 -57 56 -9 74 -19 56 -31 -21 -13 -22 -21 -3 -33 29
-18 17 -104 -25 -186 -16 -31 -29 -71 -29 -88 0 -23 -14 -31 -45 -26 -35 5
-44 18 -41 61 3 52 1 53 -30 22 -30 -31 -35 -28 -61 35 -16 37 -33 56 -38 42
-5 -14 1 -37 13 -52 18 -21 10 -29 -38 -39 -48 -10 -63 -25 -73 -73 -7 -33
-20 -60 -29 -60 -10 0 -18 -13 -18 -28 0 -15 -14 -33 -32 -40 -21 -8 -27 -25
-19 -47 7 -18 7 -28 0 -20 -17 16 -54 -19 -87 -82 -27 -50 -46 -44 -56 17 -3
21 13 51 37 68 26 18 38 42 30 62 -7 17 -1 49 12 71 19 31 19 47 0 78 -28 46
2 77 43 43 14 -12 30 -17 36 -11 6 6 7 -15 2 -45 -7 -44 -4 -49 12 -26 12 17
22 46 22 65 0 19 18 53 40 75 22 22 33 40 24 40 -9 0 -34 14 -55 30 -26 20
-29 27 -7 19 43 -15 96 47 60 70 -18 11 -13 19 18 27 54 14 43 59 -18 73 -24
6 -42 20 -39 31 3 11 17 17 31 14 14 -3 26 4 26 15 0 30 34 26 89 -10z m38
-382 c7 -8 -1 -35 -17 -60 -17 -26 -22 -47 -12 -47 11 0 25 9 32 20 8 13 23
10 41 -8 16 -16 39 -32 52 -36 13 -5 17 -19 9 -32 -11 -19 -24 -18 -56 4 -22
16 -51 25 -63 20 -33 -12 -77 68 -63 113 13 39 51 51 77 26z m560 -43 c-9 -35
-22 -41 -64 -32 -42 9 -47 7 -23 -11 24 -18 17 -22 -36 -17 -36 3 -72 -5 -80
-17 -18 -30 -121 -24 -133 7 -13 35 23 52 82 37 31 -8 46 -5 38 7 -19 31 60
63 125 50 36 -7 65 -3 74 11 21 35 30 16 17 -35z m-934 -54 c-18 -13 -27 -29
-21 -35 6 -6 -12 -10 -40 -8 l-50 3 54 43 c30 24 62 38 72 32 10 -6 3 -22 -15
-35z m914 -40 c-6 -16 -20 -24 -31 -18 -11 7 -18 -8 -16 -35 6 -72 1 -90 -18
-60 -12 19 -19 13 -26 -24 -9 -45 -5 -49 27 -31 25 13 37 13 37 -1 0 -12 -8
-21 -18 -21 -10 0 -33 -5 -50 -12 -23 -9 -32 0 -32 29 0 22 -9 46 -19 52 -10
7 -15 -6 -11 -28 4 -23 -1 -41 -11 -41 -56 0 -13 102 66 158 96 68 119 75 102
32z m-573 -36 c39 -24 5 -134 -41 -134 -24 0 -55 -18 -68 -40 -30 -47 -85 -53
-85 -10 0 17 -13 30 -30 30 -16 0 -30 9 -30 20 0 26 34 26 50 0 25 -41 52 5
39 65 -12 56 -10 60 34 49 44 -11 44 -10 10 15 -39 30 74 34 121 5z m276 -147
c-35 -53 -13 -97 40 -80 10 3 28 -1 40 -10 11 -10 41 -33 66 -52 46 -35 45
-105 0 -105 -11 0 -15 13 -9 28 9 25 -62 92 -96 92 -30 0 -6 -59 29 -70 22 -7
40 -21 40 -32 0 -11 20 -27 45 -37 25 -10 33 -19 18 -20 -39 -2 -143 59 -218
128 -69 63 -82 53 -35 -29 37 -65 37 -81 0 -67 -16 6 -30 20 -30 30 0 27 -63
88 -106 104 -64 23 -31 81 53 95 47 7 97 34 129 68 61 66 85 35 34 -43z m-710
62 c0 -6 -35 -46 -78 -90 -44 -43 -71 -79 -62 -79 10 0 23 9 30 20 20 32 46
23 60 -20 7 -22 21 -35 31 -29 11 6 19 -4 19 -23 0 -32 3 -31 40 2 22 20 46
31 52 24 17 -16 -21 -124 -44 -124 -10 0 -30 -8 -44 -17 -40 -25 -54 1 -22 42
26 33 25 33 -12 3 -78 -62 -99 -68 -63 -17 18 26 33 65 33 86 0 55 -54 7 -90
-81 -16 -36 -42 -72 -59 -78 -17 -7 -32 -27 -33 -45 -1 -22 -5 -24 -12 -7 -8
21 -16 21 -43 0 -37 -29 -16 3 66 104 l41 50 -42 -35 c-51 -43 -77 -24 -40 29
15 21 24 54 20 72 -6 23 24 57 90 104 54 39 98 75 98 80 -2 29 7 40 34 40 17
0 30 -5 30 -11z m272 -294 c-33 -21 -72 -18 -72 6 0 12 8 16 18 10 9 -6 24 10
31 34 13 44 14 44 29 5 10 -25 8 -46 -6 -55z"/>
<path d="M2216 2481 c-122 -47 -239 -120 -226 -141 5 -9 62 9 125 41 63 31
144 67 180 80 64 23 89 60 40 58 -14 0 -67 -17 -119 -38z"/>
<path d="M2170 2331 c-121 -60 -132 -69 -80 -70 33 0 83 13 110 29 137 79 143
80 163 44 22 -39 47 -30 78 27 35 67 -108 51 -271 -30z"/>
<path d="M2752 2308 c-20 -52 -15 -61 68 -115 97 -65 166 -74 113 -16 -18 20
-33 46 -33 59 0 66 -126 128 -148 72z"/>
<path d="M2480 2280 c0 -43 15 -49 58 -22 32 21 13 62 -29 62 -16 0 -29 -18
-29 -40z"/>
<path d="M3051 2230 c44 -39 95 -75 114 -81 19 -7 35 -20 35 -30 0 -11 9 -19
21 -19 14 0 14 13 -1 40 -12 22 -35 40 -51 40 -17 0 -57 27 -89 60 -32 33 -70
60 -83 60 -13 0 11 -32 54 -70z"/>
<path d="M2275 2245 c-50 -31 -73 -65 -43 -65 23 0 128 69 128 84 0 24 -24 18
-85 -19z"/>
<path d="M3025 2117 c-50 -50 -19 -109 43 -85 39 15 40 30 7 75 -20 27 -31 29
-50 10z"/>
<path d="M2726 2095 c-41 -52 -45 -71 -17 -82 25 -9 131 68 131 96 0 22 -96
10 -114 -14z"/>
<path d="M2899 2029 c-87 -46 -132 -105 -91 -121 18 -7 44 -3 57 8 23 19 105
147 91 142 -3 -1 -29 -14 -57 -29z"/>
<path d="M3379 2039 c-28 -7 -70 -26 -94 -41 -38 -23 -52 -23 -100 6 -63 37
-113 21 -94 -31 8 -18 4 -33 -9 -33 -12 0 -22 -11 -22 -24 0 -18 6 -18 23 -1
16 16 34 17 62 2 26 -14 56 -14 92 0 29 11 80 25 113 32 76 17 170 57 170 74
0 20 -87 31 -141 16z"/>
<path d="M3620 1961 c0 -11 -14 -21 -31 -21 -43 0 -28 -68 16 -76 19 -4 35 3
35 16 0 12 -9 17 -20 10 -30 -19 -24 3 10 37 19 19 23 35 10 43 -11 7 -20 3
-20 -9z"/>
<path d="M3420 1918 c0 -11 -22 -42 -49 -69 -27 -27 -51 -60 -53 -74 -6 -52 3
-77 23 -64 12 7 17 18 11 24 -6 6 20 38 58 71 75 63 88 103 40 121 -16 7 -30
3 -30 -9z"/>
<path d="M3142 1845 c8 -51 -8 -84 -47 -98 -25 -8 -49 -17 -55 -19 -5 -2 -31
-10 -57 -18 -29 -10 -38 -21 -24 -30 18 -10 184 28 216 50 27 18 25 130 -2
130 -18 0 -32 -7 -31 -15z"/>
<path d="M3581 1755 c3 -95 36 -130 38 -40 0 47 -8 85 -19 85 -11 0 -19 -20
-19 -45z"/>
<path d="M3793 1706 c-7 -7 -13 -27 -13 -44 1 -22 5 -25 16 -8 8 13 28 22 44
20 17 -2 35 4 40 14 12 21 -68 37 -87 18z"/>
<path d="M3995 1362 c-13 -49 9 -55 44 -13 19 23 32 24 62 6 34 -22 79 -9 55
16 -38 37 -151 31 -161 -9z"/>
<path d="M3982 1302 c-59 -10 -64 -16 -38 -37 25 -21 39 -19 78 14 27 22 44
39 38 38 -5 -1 -41 -8 -78 -15z"/>
<path d="M3619 1118 c-1 -4 -6 -37 -10 -73 l-9 -66 50 33 c54 36 64 51 26 43
-13 -3 -25 6 -25 18 -1 23 -30 63 -32 45z"/>
<path d="M5582 4427 c-1 -12 12 -34 29 -48 26 -21 30 -21 25 2 -7 31 80 42
117 14 14 -10 29 -7 38 7 10 15 7 19 -8 10 -13 -8 -23 -6 -23 5 0 22 -97 20
-133 -3 -13 -8 -28 -3 -34 11 -6 16 -10 16 -11 2z"/>
<path d="M5209 4258 c-5 -8 0 -21 12 -29 12 -7 17 -25 11 -40 -6 -15 0 -34 12
-41 13 -9 17 -5 8 8 -7 13 5 39 27 58 23 19 41 44 41 55 0 12 -9 8 -20 -9 -11
-16 -20 -20 -20 -8 0 24 -57 29 -71 6z"/>
<path d="M5681 4205 c-1 -14 -1 -32 -1 -40 0 -25 48 -19 83 10 29 24 37 23 57
-9 19 -29 21 -30 13 -2 -6 18 0 37 13 42 13 5 -5 8 -39 7 -35 -2 -63 -7 -63
-13 3 -39 -8 -42 -33 -9 -17 22 -30 28 -30 14z"/>
<path d="M5527 3205 c-142 -152 -305 -666 -210 -660 18 1 52 -4 75 -12 37 -12
46 -3 68 82 63 239 67 251 81 212 8 -23 25 29 46 143 38 208 42 290 12 290
-11 0 -44 -25 -72 -55z"/>
<path d="M5191 3045 c-48 -51 -54 -64 -49 -98 1 -7 -12 -21 -29 -30 -69 -39
-102 -232 -74 -433 1 -4 18 -1 39 5 50 16 145 -8 130 -33 -7 -11 15 -16 55
-12 42 4 76 -5 91 -24 17 -21 25 -22 25 -5 1 14 13 25 28 25 15 0 44 20 65 45
31 36 31 39 3 17 -19 -15 -35 -20 -35 -12 0 8 -14 4 -30 -10 -25 -21 -38 -19
-70 10 -23 21 -40 26 -40 13 0 -13 -12 -23 -27 -23 -36 0 -54 136 -37 269 l13
101 11 -90 c10 -80 14 -68 31 100 28 260 6 300 -100 185z"/>
<path d="M4700 2669 c-28 -73 -25 -135 9 -180 17 -22 30 -56 30 -76 1 -30 10
-35 46 -23 83 28 235 35 235 12 0 -32 64 -26 110 11 38 30 37 31 -23 23 -76
-10 -203 84 -217 162 -22 118 -154 167 -190 71z"/>
<path d="M3010 1083 c-68 -7 -115 -39 -99 -65 6 -10 1 -18 -11 -18 -13 0 -18
-16 -11 -37 10 -32 -35 -52 -364 -163 -472 -158 -465 -155 -411 -199 40 -33
40 -33 -27 -77 -77 -51 -85 -83 -26 -99 39 -10 38 -14 -22 -76 -63 -65 -65
-109 -5 -109 29 0 29 -4 -1 -37 -58 -63 -30 -103 72 -103 44 0 385 330 385
374 1 38 83 138 154 188 58 40 62 41 31 5 -19 -22 -31 -45 -26 -50 6 -5 -16
-38 -48 -73 -32 -35 -51 -64 -42 -64 30 0 9 -70 -21 -71 -15 0 -26 -12 -23
-25 3 -13 -4 -22 -14 -19 -39 10 -136 -74 -160 -140 -15 -41 -35 -64 -51 -58
-14 6 -49 -15 -79 -46 -47 -49 -50 -57 -19 -69 41 -16 168 23 168 51 0 11 -11
13 -25 5 -14 -8 50 63 142 157 155 157 194 215 136 198 -52 -15 81 101 205
178 97 60 117 80 77 74 -62 -11 -70 14 -24 74 26 35 29 35 29 4 0 -33 3 -33
49 1 63 46 78 84 47 121 -29 34 41 105 104 105 20 0 41 14 48 32 20 53 32 50
-138 31z m-340 -335 c-44 -39 -129 -94 -190 -122 -89 -41 -103 -54 -72 -65 32
-11 21 -24 -68 -79 -88 -54 -109 -60 -123 -36 -10 18 -36 25 -71 20 l-56 -9
50 42 c50 42 176 115 205 119 14 1 117 54 304 156 111 61 114 56 21 -26z
m-253 -283 c-78 -99 -125 -120 -57 -25 23 33 52 60 64 60 12 0 10 -14 -7 -35z
m-185 -176 c-43 -38 -82 -66 -86 -62 -17 18 23 77 71 103 90 49 96 31 15 -41z"/>
<path d="M2621 231 c-26 -27 -52 -49 -59 -48 -54 7 -85 -13 -114 -74 -18 -39
-29 -75 -24 -80 12 -11 137 30 171 56 30 23 34 63 5 45 -35 -22 -22 14 31 83
60 79 55 87 -10 18z"/>
</g>
</svg>
