<?xml version="1.0" standalone="no"?>
<!DOCTYPE svg PUBLIC "-//W3C//DTD SVG 20010904//EN"
 "http://www.w3.org/TR/2001/REC-SVG-20010904/DTD/svg10.dtd">
<svg version="1.0" xmlns="http://www.w3.org/2000/svg"
 width="300.000000pt" height="417.000000pt" viewBox="0 0 300.000000 417.000000"
 preserveAspectRatio="xMidYMid meet">
<metadata>
Created by potrace 1.10, written by Peter Selinger 2001-2011
</metadata>
<g transform="translate(0.000000,417.000000) scale(0.050000,-0.050000)"
fill="#000000" stroke="none">
<path d="M5257 7815 c-48 -57 -159 -177 -247 -265 -89 -88 -190 -205 -227
-260 -54 -82 -55 -87 -9 -30 99 123 212 241 221 232 4 -5 -48 -79 -117 -165
-140 -176 -298 -413 -298 -446 0 -12 -13 -27 -29 -33 -24 -9 -82 -128 -62
-128 3 0 53 72 111 160 58 88 109 160 115 160 5 0 -7 -25 -27 -55 -20 -30
-160 -257 -312 -505 -348 -570 -558 -899 -584 -915 -11 -7 -1 19 22 56 143
234 292 483 326 543 16 29 59 99 95 155 35 55 56 101 45 101 -11 0 -20 -7 -21
-15 0 -8 -23 -42 -51 -75 l-51 -60 32 65 c18 36 60 112 93 170 124 210 142
246 108 205 -51 -62 -370 -608 -585 -1003 -209 -382 -248 -458 -211 -408 138
187 129 126 -14 -89 -51 -77 -128 -198 -170 -270 -43 -71 -128 -197 -190 -280
-167 -223 -305 -420 -293 -420 5 0 105 126 222 280 117 154 220 280 228 280 9
0 31 32 49 71 21 44 43 66 57 57 14 -9 18 -5 9 9 -8 13 -4 23 8 23 12 0 17 9
10 20 -7 11 -5 20 4 20 9 0 38 41 64 91 28 53 56 83 66 73 11 -11 2 -46 -22
-86 -25 -43 -37 -92 -32 -131 4 -35 -5 -79 -21 -100 -22 -30 -28 -31 -28 -6
-1 17 10 43 24 58 16 17 17 22 2 14 -13 -7 -29 -2 -35 12 -7 17 -10 15 -9 -5
4 -65 -4 -82 -38 -76 -24 4 -37 -9 -42 -44 -4 -27 -16 -61 -28 -75 -11 -14
-14 -32 -5 -40 8 -8 19 -4 24 10 5 14 17 25 27 25 10 0 12 -15 5 -33 -9 -24
-6 -29 14 -17 17 11 21 8 12 -7 -8 -13 -23 -18 -34 -12 -25 16 -73 -35 -63
-66 5 -14 -1 -25 -13 -25 -12 0 -22 9 -22 19 0 11 -13 15 -30 8 -16 -6 -30
-20 -30 -30 0 -11 10 -13 23 -5 16 10 18 5 6 -14 -10 -15 -21 -49 -24 -75 -8
-52 -75 -133 -111 -133 -13 0 -24 -14 -24 -30 0 -17 -26 -58 -58 -90 -31 -33
-52 -50 -45 -38 6 12 -2 21 -18 21 -35 0 -37 -17 -7 -47 16 -16 12 -28 -17
-43 -22 -12 -45 -16 -52 -9 -7 7 -13 2 -13 -12 0 -13 -8 -19 -18 -13 -10 6
-23 -3 -30 -21 -17 -44 -15 -52 8 -38 33 20 23 -3 -14 -33 -29 -23 -31 -23
-16 3 15 26 13 26 -16 3 -18 -15 -29 -36 -23 -45 6 -10 -1 -18 -17 -18 -16 0
-55 -38 -86 -85 -76 -111 -100 -136 -118 -119 -8 8 -49 -26 -91 -75 -88 -102
-142 -72 -59 33 200 253 313 437 282 460 -28 21 -26 23 10 14 35 -9 71 33 232
266 250 363 259 377 241 394 -8 9 -1 12 15 9 48 -11 16 589 -36 673 -14 22
-17 35 -21 116 -3 49 -9 55 -48 43 -42 -12 -43 -11 -9 15 40 30 20 163 -56
376 -18 50 -54 183 -81 296 -154 650 -326 759 -535 340 -137 -275 -174 -684
-113 -1240 25 -223 15 -634 -19 -776 l-17 -70 -25 65 c-86 231 -276 539 -484
787 -40 48 -125 151 -188 228 -64 77 -174 204 -247 281 -72 78 -184 202 -248
276 -282 325 -466 434 -527 313 -57 -112 -9 -513 68 -574 16 -13 24 -33 17
-45 -7 -11 -4 -21 7 -21 11 0 16 -12 10 -27 -5 -15 4 -38 20 -51 16 -14 24
-39 17 -57 -8 -21 -4 -27 11 -17 15 9 20 4 14 -12 -12 -32 231 -423 317 -510
34 -35 85 -107 113 -160 27 -53 61 -110 75 -128 38 -48 252 -488 335 -690 125
-304 291 -639 329 -663 31 -19 57 -2 184 116 141 134 171 158 149 123 -5 -9
35 -16 89 -16 54 0 104 -7 112 -14 26 -27 -78 -114 -136 -114 -40 0 -57 -10
-57 -33 0 -19 -5 -28 -12 -22 -6 6 -37 3 -68 -8 l-56 -20 43 -68 c24 -37 54
-64 68 -59 52 18 -7 -181 -77 -260 -33 -38 -33 -42 1 -85 40 -48 61 -28 61 60
0 42 0 42 37 3 56 -60 36 -206 -21 -154 -22 20 -46 35 -53 34 -7 -1 -34 26
-59 60 -25 34 -65 78 -90 97 -24 19 -35 34 -23 35 12 0 18 29 13 68 -4 37 2
86 14 108 16 31 15 43 -3 49 -15 5 -7 18 20 32 25 14 45 38 45 54 0 37 -28 37
-60 -1 -13 -16 -32 -25 -42 -19 -54 33 -118 -176 -77 -253 17 -31 14 -41 -15
-51 -20 -7 -58 -32 -84 -55 -27 -23 -42 -31 -35 -18 18 30 -47 66 -119 66
-209 0 -290 -466 -92 -529 50 -16 264 -226 264 -259 0 -15 -18 -67 -39 -115
-31 -68 -37 -112 -27 -202 11 -104 8 -115 -26 -115 -29 -1 -32 -5 -10 -18 36
-23 12 -234 -30 -258 -40 -22 -70 -274 -37 -319 20 -28 26 -16 39 73 8 58 36
188 63 289 27 101 62 242 78 313 59 263 96 360 139 360 47 1 62 11 137 93 92
103 112 301 22 226 -30 -24 -39 -21 -81 28 -27 30 -48 50 -48 45 0 -6 -23 -2
-51 8 -27 11 -73 24 -102 29 -29 5 -68 23 -87 41 -20 18 -49 25 -69 18 -27
-11 -33 -5 -28 24 4 21 27 41 51 44 26 4 46 23 50 49 8 55 56 71 56 18 0 -22
-9 -46 -20 -53 -52 -32 98 -110 213 -110 38 0 99 -13 136 -28 51 -22 71 -23
78 -5 7 16 10 15 11 -3 1 -14 -18 -33 -43 -43 -34 -14 -37 -19 -10 -20 19 0
33 -8 30 -16 -7 -24 48 -145 66 -145 88 0 219 -493 219 -819 0 -59 3 -63 33
-38 31 25 31 23 5 -18 -15 -25 -33 -45 -41 -45 -7 0 -19 -24 -26 -52 -7 -29
-17 -48 -23 -43 -13 14 -237 -222 -239 -252 -3 -49 -49 -131 -102 -180 -30
-29 -50 -57 -43 -64 27 -26 93 34 135 123 24 51 71 116 105 144 34 29 96 96
139 150 66 84 77 91 77 51 1 -38 4 -41 20 -17 11 17 20 54 20 82 0 29 45 133
100 230 106 189 118 228 71 228 -17 0 -43 25 -59 55 -59 115 -152 184 -117 88
22 -62 115 -182 141 -183 15 0 21 -9 14 -20 -7 -12 -20 -16 -28 -11 -9 5 -30
-22 -48 -60 -19 -38 -24 -69 -14 -69 11 0 4 -16 -15 -37 -46 -48 -43 -58 -65
181 -17 178 -16 219 11 273 30 59 30 67 -9 131 -28 44 -42 100 -42 168 0 62
-9 104 -25 110 -14 5 -20 14 -13 21 6 7 60 -14 120 -47 59 -32 133 -59 164
-60 77 0 321 -83 567 -193 l202 -90 43 -143 c53 -182 102 -435 102 -534 0 -41
18 -115 40 -163 23 -50 39 -131 40 -192 0 -58 9 -105 20 -105 37 0 30 195 -10
293 -15 35 -33 125 -40 200 -13 122 -84 505 -121 655 -9 35 -20 47 -29 32 -10
-16 -32 -7 -72 30 l-58 52 50 -11 c40 -9 36 -4 -16 23 -58 30 -69 31 -87 5
-17 -24 -19 -23 -10 4 7 24 -7 40 -49 55 -35 12 -55 13 -48 1 7 -10 -2 -13
-19 -7 -17 7 -25 22 -18 35 8 13 6 17 -2 9 -9 -8 -34 -5 -55 6 -38 21 -98 38
-156 44 -16 2 -37 13 -45 24 -8 12 -15 8 -15 -10 0 -18 -6 -22 -15 -10 -27 37
-122 70 -130 46 -9 -27 -155 17 -155 47 0 11 8 14 18 8 10 -6 13 9 7 34 -10
37 -7 41 17 21 59 -48 254 -102 408 -113 88 -6 205 -20 260 -32 395 -81 491
-97 524 -88 156 41 455 -1281 309 -1371 -21 -13 -21 -19 4 -28 71 -27 116 153
77 310 -12 47 -32 185 -44 306 -43 430 -168 870 -246 870 -12 0 -4 -13 17 -30
36 -27 34 -28 -31 -18 -128 22 -231 55 -196 63 19 4 66 -1 105 -12 42 -12 71
-12 71 -1 0 10 -3 18 -6 18 -4 0 -163 26 -355 58 -192 32 -419 65 -506 73
-117 10 -159 22 -168 46 -7 18 -48 78 -91 133 -78 99 -78 100 -31 111 26 6 50
28 54 50 4 21 18 45 30 53 13 8 28 75 33 148 l10 134 86 25 c47 14 98 36 115
50 24 19 29 17 29 -14 -1 -42 -28 -92 -48 -87 -35 9 -131 -42 -152 -80 -33
-61 -9 -74 61 -33 32 19 59 29 59 22 0 -7 31 14 68 47 38 33 128 89 200 125
73 35 132 73 132 83 0 20 205 116 249 116 16 0 41 18 56 39 28 39 194 121 246
121 15 0 36 16 47 35 10 20 87 62 170 94 84 32 152 65 152 75 0 10 58 44 128
75 71 32 139 76 150 98 12 22 48 45 79 52 92 21 154 97 113 139 -99 98 -317
53 -225 -47 14 -15 3 -12 -24 6 -63 42 -182 43 -232 2 -37 -30 -36 -31 26 -21
89 15 82 -14 -15 -58 -78 -35 -80 -37 -45 -76 34 -39 34 -39 -9 -17 -53 28
-186 30 -186 3 0 -11 -36 -44 -81 -73 -44 -29 -77 -64 -72 -76 6 -15 -15 -20
-59 -15 -41 5 -68 0 -68 -14 0 -12 -32 -35 -72 -52 -48 -20 -69 -39 -61 -58 8
-23 -1 -22 -46 4 -55 31 -62 30 -169 -22 -125 -61 -126 -64 -77 -122 19 -23 6
-16 -28 15 -67 61 -158 62 -206 4 -13 -15 -46 -33 -75 -40 l-51 -13 57 -64
c47 -52 49 -56 8 -21 -82 69 -137 91 -175 69 -31 -17 -28 -22 23 -41 64 -25
53 -50 -31 -71 -30 -8 -58 -4 -66 8 -26 43 -52 22 -29 -23 20 -38 15 -36 -28
10 -70 74 -77 69 -31 -20 38 -73 39 -138 3 -283 -8 -32 -4 -43 10 -35 29 18
-3 -93 -39 -138 -69 -85 -123 -126 -157 -119 -24 5 -43 -7 -50 -31 -7 -22 -25
-39 -41 -39 -56 0 -79 -85 -32 -116 57 -38 54 -60 -7 -57 -38 2 -50 14 -50 49
0 51 -48 79 -85 49 -38 -30 -135 -49 -135 -26 0 11 23 35 50 53 28 18 50 45
50 60 0 15 25 33 55 40 30 7 78 34 105 59 28 26 74 56 104 67 106 40 186 383
81 349 -28 -9 -29 -7 -6 10 24 17 24 25 2 52 -31 37 -16 61 27 45 47 -19 59
-173 26 -337 -37 -175 -32 -193 16 -63 47 130 58 243 32 337 -11 44 -22 88
-23 99 -1 11 -10 29 -20 41 -11 14 26 53 103 109 323 235 600 602 1268 1680
160 259 528 889 635 1090 162 303 266 493 340 618 114 195 319 630 306 651
-29 46 -91 16 -174 -84z m123 55 c0 -20 -300 -402 -401 -510 l-102 -110 122
170 c245 341 381 502 381 450z m-410 -630 c-7 -11 -2 -20 10 -20 14 0 11 -12
-7 -30 -17 -16 -40 -30 -51 -30 -12 0 -19 -19 -17 -42 3 -25 -11 -52 -35 -65
-22 -13 -44 -26 -49 -29 -6 -3 1 -13 14 -21 19 -11 17 -26 -7 -59 -17 -25 -40
-39 -52 -32 -13 8 -16 -2 -8 -27 15 -45 -35 -102 -58 -66 -18 29 52 182 77
167 10 -7 13 -2 5 10 -14 24 39 111 126 209 50 55 75 72 52 35z m-247 -460
c11 0 17 -10 13 -21 -4 -12 -16 -19 -26 -15 -11 3 -25 -21 -31 -54 -6 -33 -22
-58 -35 -55 -13 3 -24 -17 -24 -44 0 -53 -32 -83 -82 -75 -18 3 -43 -8 -57
-25 -21 -26 -21 -31 5 -31 17 0 35 11 41 25 5 14 11 -9 11 -50 1 -49 -6 -73
-23 -70 -114 23 -78 227 37 206 51 -9 62 7 28 41 -28 28 61 192 97 178 14 -6
35 -10 46 -10z m-1963 -221 c0 -12 8 -16 18 -10 10 6 8 -10 -4 -36 -18 -39
-27 -43 -48 -22 -35 35 -33 89 4 89 17 0 30 -10 30 -21z m-100 -119 c45 -14
42 -16 -24 -18 -40 -1 -79 7 -86 18 -14 23 38 23 110 0z m207 -61 c12 -1 5
-10 -17 -19 -22 -9 -28 -18 -14 -19 15 0 21 -10 14 -21 -7 -11 -3 -20 9 -20
11 0 21 -11 20 -25 0 -14 -18 -4 -40 22 -21 26 -34 54 -29 63 6 9 3 20 -5 25
-8 5 -3 5 12 2 14 -4 37 -8 50 -8z m1543 1 c-7 -11 1 -20 16 -20 30 0 59 -68
39 -89 -6 -6 -23 -1 -37 11 -18 15 -38 14 -67 -1 -45 -24 -55 -3 -17 35 13 13
16 24 6 24 -10 0 0 13 21 29 46 35 56 38 39 11z m-1821 -78 c6 -11 38 -25 71
-32 33 -7 60 -21 60 -32 0 -27 -45 -21 -89 13 -21 16 -55 29 -75 29 -20 0 -36
9 -36 20 0 25 54 26 69 2z m1812 -51 c-29 -34 -9 -78 25 -58 14 8 17 6 7 -5
-9 -10 -25 -19 -35 -20 -10 -2 -26 -4 -35 -5 -10 -2 -13 -25 -8 -53 6 -31 0
-50 -14 -50 -15 0 -19 15 -11 40 7 23 4 40 -9 40 -11 0 -21 -10 -21 -22 0 -12
-13 -17 -30 -11 -18 7 -30 0 -30 -18 0 -16 11 -27 24 -24 37 8 43 -64 8 -103
-18 -19 -26 -41 -19 -49 8 -7 3 -13 -10 -13 -34 0 -28 59 7 73 17 6 30 19 30
29 0 23 -45 14 -65 -12 -9 -12 -15 -10 -15 6 0 15 -8 21 -19 15 -30 -19 -48
30 -20 56 19 18 22 17 11 -2 -8 -14 -5 -25 7 -25 12 0 28 16 34 35 35 104 58
138 115 167 81 42 103 45 73 9z m-1792 -31 c28 -10 51 -29 51 -40 0 -14 -15
-13 -45 3 -25 13 -47 22 -50 20 -16 -11 -45 0 -45 17 0 25 23 25 89 0z m131
-20 c-21 -13 -22 -20 -5 -22 14 -2 34 -4 45 -5 11 -2 21 -12 21 -23 1 -11 21
-30 44 -42 40 -22 40 -23 -11 -23 -29 0 -48 8 -42 18 6 9 -6 23 -26 31 -58 22
-91 61 -61 73 44 17 66 13 35 -7z m-100 -53 c104 -18 176 -67 100 -67 -11 0
-20 8 -20 19 0 10 -17 15 -38 11 -48 -9 -187 38 -168 57 8 8 28 9 45 2 17 -7
54 -17 81 -22z m-1840 -8 c0 14 10 17 25 8 36 -23 75 -26 75 -7 0 9 16 13 35
10 19 -4 40 -8 45 -9 6 -1 -3 -10 -20 -21 -24 -16 -21 -19 16 -20 29 0 41 8
33 22 -8 12 12 6 44 -14 79 -50 84 -56 32 -43 -25 6 -45 3 -45 -7 0 -10 9 -18
20 -18 11 0 20 -13 20 -30 0 -16 9 -31 20 -32 11 -2 28 -4 38 -5 10 -2 26 -11
35 -21 10 -11 7 -12 -8 -4 -35 20 -31 -18 5 -48 17 -14 30 -18 30 -9 0 8 18
-1 40 -21 22 -20 39 -46 38 -58 0 -12 -6 -10 -12 5 -9 23 -14 23 -29 0 -15
-21 -17 -20 -13 7 3 18 -2 33 -11 33 -9 -1 -44 25 -77 56 l-61 57 33 -66 c19
-36 28 -74 21 -85 -6 -11 -5 -19 5 -17 42 7 61 -5 59 -37 -2 -19 6 -34 17 -35
11 0 31 -8 45 -16 15 -10 25 -7 25 6 0 12 9 17 20 10 49 -31 10 -47 -107 -43
-90 2 -126 11 -126 30 0 17 16 23 46 17 26 -4 47 -1 47 7 0 30 -78 41 -121 19
-23 -13 -54 -18 -69 -13 -15 6 -32 0 -37 -13 -8 -19 -10 -19 -11 0 -1 13 7 29
18 36 35 22 21 55 -19 45 -21 -6 -42 0 -47 12 -5 14 18 25 61 28 56 4 67 -1
57 -27 -16 -42 2 -69 39 -55 24 9 25 18 6 40 -19 24 -15 31 21 41 75 19 6 44
-101 36 -56 -5 -102 2 -110 14 -7 12 -5 17 6 10 10 -6 31 -4 47 6 16 10 44 9
66 -3 30 -16 37 -15 29 6 -5 16 -38 27 -81 27 -39 0 -83 11 -96 24 -18 18 -14
21 22 12 33 -9 43 -5 36 16 -5 15 -24 28 -41 28 -18 0 -40 9 -49 18 -9 11 -6
13 8 5 13 -8 29 -5 35 6 7 10 26 14 42 8 20 -8 26 -2 18 18 -7 19 -32 27 -68
23 -39 -5 -61 4 -70 25 -10 27 -7 28 19 7 22 -18 30 -19 30 -1z m2020 -105
c22 6 22 3 -3 -13 -35 -22 -170 19 -145 45 7 7 37 0 66 -14 28 -15 66 -23 82
-18z m132 -44 c51 -48 52 -50 11 -50 -24 0 -43 8 -43 17 0 10 -25 13 -55 9
-41 -7 -48 -4 -26 11 16 11 36 16 45 11 9 -6 16 -2 16 9 0 11 -11 24 -25 30
-18 7 -19 10 -1 11 13 1 48 -20 78 -48z m-314 10 c19 0 52 -14 73 -31 37 -30
37 -31 -11 -17 -27 8 -68 16 -90 18 -67 8 -70 9 -70 32 0 12 14 17 32 10 17
-7 47 -12 66 -12z m1530 -12 c53 -20 36 -49 -27 -44 -46 3 -54 10 -38 30 25
30 24 30 65 14z m-1482 -92 c24 -13 56 -26 71 -29 35 -5 53 -24 38 -39 -13
-12 -195 63 -195 81 0 18 40 12 86 -13z m345 3 c6 -10 -4 -13 -23 -5 -25 9
-30 6 -19 -13 12 -19 4 -22 -31 -12 -36 10 -41 8 -19 -7 38 -25 18 -47 -27
-30 -30 12 -31 16 -4 46 34 37 105 49 123 21z m1124 -47 c-25 -10 -60 -16 -78
-14 -19 2 -40 -7 -48 -20 -15 -24 82 -18 161 11 39 14 39 14 1 -17 -21 -18
-30 -32 -20 -32 11 0 6 -9 -10 -19 -20 -12 -35 -11 -44 4 -10 17 -25 14 -52
-11 -47 -42 -73 -44 -58 -5 7 19 1 25 -17 18 -16 -6 -27 -17 -25 -24 2 -7 -8
-34 -23 -60 -14 -26 -17 -42 -6 -35 11 7 24 5 29 -3 5 -8 6 -4 3 9 -4 14 2 30
13 37 20 12 21 9 29 -64 3 -31 -4 -40 -25 -32 -25 9 -24 2 3 -39 36 -55 7 -88
-56 -64 -35 13 -65 -92 -31 -112 15 -10 12 -18 -9 -27 -22 -8 -32 0 -32 23 0
23 -12 15 -37 -26 -43 -69 -35 -104 14 -66 29 23 30 22 6 -9 -20 -25 -37 -29
-63 -15 -30 16 -41 7 -65 -54 -28 -70 -31 -72 -52 -31 -19 36 -16 47 19 72 23
16 36 40 29 52 -7 11 5 47 28 79 22 32 41 68 41 81 0 13 23 46 51 74 28 28 47
56 42 61 -31 31 179 313 221 297 14 -5 26 -1 26 10 0 11 17 8 40 -5 39 -25 39
-26 -5 -44z m-1491 -26 c20 -18 36 -41 36 -52 0 -11 -16 -5 -37 13 -40 37 -83
44 -83 13 0 -11 9 -20 20 -20 22 0 100 -72 100 -92 0 -7 -13 -7 -29 -1 -15 6
-32 0 -36 -13 -6 -16 -19 -13 -43 11 -19 19 -44 35 -56 35 -13 0 -11 11 4 30
18 22 19 37 3 57 -44 53 65 70 121 19z m-166 -181 c1 -36 -6 -65 -17 -65 -30
0 -44 36 -18 44 14 5 19 23 11 43 -8 20 -23 30 -34 23 -11 -7 -20 2 -20 19 0
17 9 31 20 31 11 0 21 16 22 35 3 55 34 -55 36 -130z m282 115 c0 -11 20 -20
45 -20 25 0 59 -10 75 -22 24 -17 23 -19 -10 -11 -22 6 -69 16 -105 23 -36 7
-60 22 -54 32 15 24 49 23 49 -2z m64 -87 c14 -14 38 -22 51 -18 14 5 25 -5
25 -22 0 -16 6 -44 12 -62 9 -24 3 -29 -25 -20 -34 11 -34 10 2 -20 37 -29 31
-31 -84 -29 -71 2 -119 11 -113 22 7 10 40 16 75 13 41 -4 61 3 58 19 -3 13 9
24 25 24 44 0 37 35 -10 50 -22 7 -40 21 -40 31 0 11 -21 10 -50 -1 -29 -11
-50 -11 -50 -1 0 15 31 30 84 39 7 1 25 -10 40 -25z m187 -22 c19 -28 44 -44
61 -38 15 6 28 3 28 -6 0 -45 -96 -25 -108 22 -7 26 -28 52 -47 57 -33 9 -33
10 0 12 19 1 48 -20 66 -47z m-1817 -18 c22 -22 -1 -25 -124 -16 -80 5 -107
13 -80 22 45 17 185 12 204 -6z m170 -3 c50 5 82 -4 100 -25 23 -28 21 -30
-14 -16 -22 8 -83 15 -135 15 -52 0 -95 8 -95 16 0 23 48 37 60 19 6 -9 44
-13 84 -9z m-204 -50 c0 -11 -14 -20 -31 -20 -17 0 -26 -9 -19 -20 15 -24 -5
-24 -60 0 -38 16 -38 17 5 19 25 0 45 10 45 21 0 11 14 20 30 20 17 0 30 -9
30 -20z m293 -45 c8 -14 -5 -16 -39 -8 -28 7 -57 4 -64 -7 -11 -18 32 -28 105
-25 14 0 25 -9 25 -20 0 -33 -142 -1 -181 41 -34 37 -32 38 53 39 48 1 94 -8
101 -20z m167 -54 c0 -10 -18 -24 -40 -31 -22 -7 -40 -30 -40 -51 0 -21 -17
-47 -37 -58 -49 -26 -218 -52 -198 -30 15 15 55 25 140 34 23 2 28 10 15 23
-28 28 -25 52 7 52 15 0 48 18 73 40 50 43 80 51 80 21z m-463 -26 c20 -20 28
-19 41 2 12 19 36 23 82 13 47 -10 58 -19 38 -32 -16 -9 -31 -9 -34 1 -3 9
-32 7 -65 -5 -49 -19 -65 -17 -93 12 -19 19 -25 34 -14 34 11 0 31 -11 45 -25z
m1699 -4 c4 -5 2 -37 -6 -72 -11 -48 -19 -57 -37 -38 -17 18 -17 26 2 33 14 5
25 22 25 38 0 15 -11 29 -25 30 -14 0 -41 4 -60 8 -19 3 -41 -3 -48 -15 -7
-12 -4 -15 9 -8 11 8 27 5 34 -7 7 -11 -2 -20 -19 -20 -17 0 -31 -13 -31 -30
0 -16 -8 -30 -17 -30 -10 0 -15 20 -13 45 3 25 6 57 7 73 3 25 153 19 179 -7z
m272 -128 c-7 -7 -18 -2 -23 12 -4 14 -19 37 -32 50 -21 22 -24 39 -15 90 1 8
21 -20 43 -62 23 -43 35 -83 27 -90z m-554 61 c4 -40 -2 -61 -14 -54 -11 7
-20 31 -20 53 0 29 -9 38 -30 30 -17 -7 -30 -1 -30 15 0 64 89 23 94 -44z
m241 -99 c6 -18 -10 -21 -56 -12 -58 12 -62 9 -50 -30 8 -26 5 -43 -8 -43 -11
0 -21 14 -21 30 0 17 -9 30 -20 30 -11 0 -20 8 -20 19 0 40 162 46 175 6z
m-1170 -71 c63 1 115 -7 115 -17 0 -11 -19 -14 -42 -6 -26 8 -49 3 -58 -11
-12 -20 -37 -20 -117 -1 -55 14 -121 19 -147 12 -44 -12 -44 -11 4 17 28 17
68 25 90 17 22 -7 92 -12 155 -11z m1026 -44 c31 -75 60 -97 39 -30 -13 41 18
56 40 20 13 -20 -26 -178 -52 -207 -8 -10 -25 3 -38 28 -21 39 -20 43 8 33 17
-7 32 -4 32 6 0 38 -65 180 -82 180 -10 0 -18 9 -18 20 0 46 44 15 71 -50z
m262 30 c48 0 149 -60 136 -81 -6 -10 0 -19 13 -19 14 0 19 -6 11 -13 -7 -7
-29 0 -48 17 -19 17 -75 49 -123 71 -51 23 -76 44 -60 49 15 6 31 2 35 -7 3
-9 20 -17 36 -17z m-1396 -51 c22 7 45 4 51 -6 7 -10 -11 -24 -38 -31 -48 -12
-71 -52 -30 -52 11 0 20 10 20 21 0 12 9 16 19 10 31 -20 121 11 121 41 0 15
16 28 35 28 28 -1 29 -4 7 -18 -15 -10 -21 -28 -13 -40 8 -14 -5 -22 -38 -22
-28 0 -51 -10 -51 -21 0 -13 -17 -16 -40 -9 -23 7 -40 4 -40 -9 0 -11 0 -27 0
-35 1 -22 168 -5 182 18 9 13 28 12 56 -3 23 -13 52 -17 62 -11 11 7 20 4 20
-6 0 -29 -77 -43 -86 -17 -7 17 -20 16 -52 -3 -24 -14 -54 -19 -66 -12 -14 9
-16 5 -6 -12 13 -20 7 -23 -22 -11 -21 9 -51 16 -68 16 -52 1 -119 55 -69 56
37 0 37 2 -6 38 -32 27 -38 41 -20 49 20 10 20 14 0 24 -14 6 -25 21 -25 32 0
13 11 12 29 -3 16 -13 47 -19 68 -12z m1403 -29 c12 -22 39 -40 61 -40 22 0
45 -13 52 -30 6 -16 19 -25 29 -19 10 6 18 -4 18 -23 0 -31 -3 -31 -41 3 -22
20 -60 40 -83 43 -59 9 -129 106 -77 106 11 0 29 -18 41 -40z m-309 1 c-6 -10
-3 -24 9 -31 11 -7 20 -21 20 -32 0 -11 -11 -13 -25 -5 -14 9 -41 13 -60 10
-19 -3 -35 5 -35 18 0 13 13 18 28 12 16 -6 34 2 40 18 6 16 16 29 23 29 6 0
6 -8 0 -19z m-803 -36 c22 -3 49 -15 62 -25 13 -11 30 -14 37 -6 7 7 13 2 13
-11 0 -29 -12 -29 -109 5 -44 15 -83 39 -88 53 -5 16 1 19 19 7 16 -9 45 -20
66 -23z m1892 -11 c-16 -13 -43 -49 -58 -79 -37 -71 -51 -69 -54 5 -2 51 7 63
60 78 84 25 87 24 52 -4z m-892 -62 c-7 -17 6 -34 31 -42 22 -7 41 -21 41 -31
0 -28 -33 -23 -66 10 -16 16 -36 23 -45 15 -8 -8 -9 -3 -1 11 8 15 3 25 -12
25 -19 1 -18 6 4 20 43 28 60 25 48 -8z m200 -30 c36 -30 42 -62 12 -62 -11 0
-20 13 -20 29 0 18 -12 25 -30 18 -16 -6 -30 -1 -30 12 0 13 -9 18 -20 11 -11
-7 -20 -3 -20 9 0 27 67 17 108 -17z m-336 -65 c7 -11 24 -9 41 5 24 20 38 16
73 -19 37 -37 38 -43 8 -43 -18 0 -34 8 -34 19 0 10 -31 17 -68 15 -52 -3 -64
-10 -48 -29 15 -18 12 -25 -12 -25 -17 0 -32 10 -32 21 0 12 -11 15 -23 7 -16
-10 -20 -4 -12 16 7 17 3 40 -7 50 -12 12 3 16 42 10 33 -5 66 -17 72 -27z
m-1006 -17 c9 -8 3 -20 -13 -26 -16 -6 -46 7 -66 30 -36 41 -36 41 13 26 28
-8 57 -21 66 -30z m1226 -50 c17 -16 41 -36 55 -45 33 -20 98 -190 69 -180
-12 4 -25 28 -29 53 -7 46 -67 147 -67 113 0 -10 -18 1 -40 24 -59 64 -48 96
12 35z m-1232 -50 c0 -10 -13 -14 -30 -7 -16 6 -30 1 -30 -11 0 -12 19 -22 42
-22 31 0 39 -9 30 -32 -10 -26 -2 -31 38 -23 28 5 56 2 61 -7 6 -9 23 -12 38
-6 15 6 34 0 42 -14 11 -17 6 -21 -18 -12 -18 7 -33 4 -33 -7 0 -14 -13 -13
-39 0 -53 29 -61 27 -61 -19 0 -42 -29 -54 -50 -20 -7 11 -3 20 9 20 11 0 21
9 21 20 0 11 -14 20 -31 20 -17 0 -26 8 -20 18 6 9 -5 22 -25 27 -30 8 -42 72
-26 131 4 14 82 -39 82 -56z m220 39 c0 -12 8 -16 19 -10 10 6 24 2 31 -9 7
-11 20 -16 30 -10 23 14 124 -74 182 -159 26 -39 59 -67 73 -62 14 6 25 -3 25
-20 0 -16 7 -29 16 -29 8 0 18 -27 20 -60 4 -48 -3 -60 -36 -60 -25 0 -39 -13
-38 -35 1 -21 5 -25 11 -10 22 54 48 21 42 -55 -5 -76 -41 -109 -61 -55 -5 14
-8 1 -6 -28 1 -41 8 -49 27 -32 33 27 43 16 49 -56 8 -101 -22 -209 -55 -196
-16 6 -29 1 -29 -11 0 -12 14 -22 30 -22 17 0 30 -13 30 -30 0 -16 -10 -30
-21 -30 -12 0 -16 9 -9 20 7 11 3 20 -8 20 -11 0 -27 -13 -36 -29 -12 -20 -26
-23 -46 -10 -22 13 -23 18 -4 19 15 0 20 10 13 22 -8 12 -2 30 13 40 21 13 16
17 -17 18 -29 0 -46 13 -47 35 -6 85 -10 95 -35 89 -15 -3 -23 6 -18 20 5 15
31 23 60 20 55 -7 90 24 53 47 -12 8 -31 2 -42 -13 -15 -22 -17 -20 -9 7 8 22
1 35 -16 35 -22 0 -24 14 -11 61 16 56 15 60 -26 49 -42 -11 -42 -11 -7 18 36
29 31 72 -9 72 -11 0 -16 -7 -10 -16 23 -39 -24 -71 -56 -39 -20 20 -25 37
-12 45 31 19 24 50 -11 50 -18 0 -26 -9 -17 -23 8 -12 -17 -6 -54 15 -37 21
-71 40 -75 41 -4 2 3 20 15 40 18 33 21 33 21 3 1 -24 18 -33 63 -32 39 2 70
-10 81 -30 11 -19 31 -27 50 -20 19 7 43 -2 58 -22 23 -31 25 -30 24 12 -1 25
4 60 12 76 14 34 -17 96 -39 75 -7 -8 -3 -27 10 -42 18 -22 16 -31 -6 -40 -19
-7 -26 -1 -20 14 12 33 -47 84 -117 101 -30 7 -55 22 -55 33 0 24 98 9 127
-20 26 -26 53 -27 53 -3 0 28 -136 107 -160 92 -11 -7 -20 2 -20 19 0 36 98
23 124 -17 20 -30 39 -4 25 33 -11 30 -61 46 -214 68 -48 7 -75 3 -75 -11 0
-12 27 -22 60 -22 33 0 60 -8 60 -17 0 -24 -101 -23 -145 0 -32 17 -32 20 0
56 37 40 165 56 165 20z m965 -79 c23 -22 53 -40 67 -40 13 0 29 -13 35 -29
15 -40 -83 -3 -132 49 -63 68 -39 84 30 20z m-85 -70 c0 -16 -9 -30 -20 -30
-11 0 -20 10 -20 22 0 17 -8 17 -28 0 -21 -18 -30 -16 -39 7 -9 24 3 31 48 31
39 0 59 -10 59 -30z m-185 -111 c-15 -59 -14 -88 2 -104 13 -13 23 -41 22 -64
0 -39 -2 -39 -28 -5 -20 27 -29 29 -37 10 -7 -20 -18 -17 -47 10 -39 38 -5 87
42 59 12 -7 9 2 -5 20 -22 27 -20 35 10 55 26 16 29 25 11 33 -36 15 -31 43
10 53 19 5 36 10 38 12 1 1 -7 -35 -18 -79z m282 39 c19 -31 20 -49 5 -64 -21
-21 -32 3 -24 51 1 8 -11 15 -28 15 -16 0 -30 9 -30 20 0 36 50 21 77 -22z
m-172 -6 c21 -16 31 -40 23 -59 -10 -28 -18 -26 -50 15 -58 74 -43 98 27 44z
m-830 -47 c5 -14 -14 -20 -49 -16 -71 8 -70 8 -58 28 15 24 98 14 107 -12z
m913 -80 c-14 -41 -27 -90 -27 -109 -1 -45 -37 -65 -69 -38 -28 24 -52 10 -52
-31 0 -15 13 -21 30 -14 19 7 30 0 30 -19 0 -19 -13 -27 -35 -22 -25 7 -46
-14 -74 -73 -27 -57 -43 -73 -50 -52 -7 21 -20 26 -39 15 -15 -10 -23 -25 -17
-35 5 -9 3 -35 -6 -57 -16 -38 -16 -38 -18 4 0 26 -18 49 -43 57 -29 9 -39 24
-31 53 7 28 2 36 -18 28 -37 -14 -37 3 1 41 17 17 25 38 19 49 -6 10 -2 18 10
18 11 0 21 -18 21 -41 0 -57 40 -93 93 -83 53 10 47 111 -10 164 -24 22 -26
23 -8 1 28 -32 34 -141 9 -141 -27 0 -64 46 -63 79 1 22 6 20 17 -8 9 -22 21
-30 28 -18 23 37 -35 89 -102 91 -68 2 -91 36 -24 36 22 0 40 8 40 18 0 10 5
33 12 50 8 21 1 32 -20 32 -18 0 -32 10 -32 21 0 12 20 19 45 15 46 -7 47 -10
25 -101 -13 -51 -11 -53 48 -46 35 5 59 2 54 -6 -5 -8 8 -36 29 -64 l38 -49 1
45 c0 25 8 45 17 45 29 0 61 92 41 122 -9 15 -18 19 -18 8 0 -11 -9 -7 -19 9
-28 44 -5 63 41 36 32 -20 38 -38 27 -94 -11 -62 -9 -66 20 -42 18 15 28 39
23 54 -6 14 5 41 24 60 23 23 26 36 10 42 -13 4 -19 21 -13 37 29 74 63 -11
35 -87z m-765 51 c24 -39 21 -56 -13 -56 -16 0 -30 13 -30 28 0 18 -14 25 -40
18 -27 -7 -40 -1 -40 19 0 37 98 30 123 -9z m-263 -76 c26 -18 26 -22 1 -39
-26 -16 -25 -21 6 -33 20 -7 31 -26 24 -41 -5 -16 1 -27 14 -25 53 6 73 -4 85
-43 7 -22 4 -52 -6 -65 -14 -16 -11 -32 8 -50 17 -15 29 -17 31 -5 5 44 8 52
42 100 33 47 37 48 69 16 18 -19 27 -41 19 -49 -8 -8 -23 -2 -33 14 -10 16
-24 23 -31 16 -19 -19 9 -56 42 -56 16 0 29 -13 29 -30 0 -43 -31 -37 -64 14
l-29 44 -11 -43 c-7 -27 -3 -39 11 -33 13 4 38 -19 57 -52 19 -33 26 -60 15
-60 -10 0 -19 8 -19 17 0 9 -23 27 -51 40 -47 21 -49 20 -28 -19 16 -31 17
-48 1 -64 -21 -21 -32 3 -24 51 1 8 -15 25 -36 38 -21 13 -34 35 -28 49 6 17
-5 21 -35 14 -32 -9 -42 -4 -35 16 5 15 26 28 46 28 20 0 41 13 46 28 7 20 -1
24 -26 15 -39 -15 -88 35 -89 92 -1 19 -11 35 -23 35 -12 0 -18 12 -12 28 6
15 1 37 -12 50 -27 27 5 29 46 2z m649 -445 c-15 -75 -41 -110 -64 -86 -8 9
-4 20 10 25 14 5 25 30 25 56 0 26 -11 51 -25 57 -14 5 -4 11 22 11 42 2 45
-4 32 -63z m1040 -334 c-43 -42 -229 -101 -229 -73 0 22 95 58 239 90 5 1 0
-6 -10 -17z m-829 -62 c0 -38 -50 -76 -72 -53 -13 13 36 94 57 94 8 0 15 -18
15 -41z m-147 -91 c64 -17 147 -221 87 -215 -16 2 -73 9 -125 17 l-95 12 0 88
c0 102 32 125 133 98z m67 -279 c0 -28 -42 -85 -69 -96 -41 -16 -40 35 0 76
31 31 69 42 69 20z m-845 -149 c-61 -47 -75 -50 -75 -12 0 31 29 48 88 50 32
2 30 -4 -13 -38z m317 25 c26 -18 68 -94 68 -124 0 -36 -98 -23 -140 19 -73
73 -13 161 72 105z m748 -55 c0 -16 -16 -31 -35 -31 -30 -1 -29 -4 5 -18 22
-9 65 -44 95 -79 30 -34 66 -62 78 -62 13 0 18 -5 12 -12 -16 -16 -95 27 -160
88 -30 28 -55 41 -55 29 0 -12 9 -28 20 -35 26 -16 26 -70 1 -70 -66 0 -86
128 -29 174 69 54 68 54 68 16z m-1110 -101 c0 -22 17 -42 39 -46 36 -7 35
-10 -8 -42 -26 -20 -41 -46 -33 -58 23 -36 68 -27 82 17 18 57 32 51 119 -52
42 -51 104 -104 137 -118 34 -14 63 -38 65 -54 7 -44 -114 -20 -126 26 -9 34
-75 71 -111 62 -62 -17 -234 62 -234 107 0 27 7 49 16 49 8 0 12 37 7 82 -6
64 -1 81 20 74 15 -5 27 -27 27 -47z m979 -50 l40 -68 -73 59 c-41 32 -69 66
-63 75 18 30 55 4 96 -66z m-193 -54 c5 -34 -3 -45 -35 -45 -22 0 -41 8 -41
18 0 10 -6 34 -13 52 -10 26 -3 32 35 27 32 -5 50 -22 54 -52z m914 -75 c271
-41 333 -53 323 -64 -5 -5 -116 6 -246 24 -130 19 -273 32 -317 31 -135 -6
-155 -4 -177 18 -31 31 179 27 417 -9z m-875 -66 c6 -16 -17 -24 -63 -24 -79
0 -98 32 -27 46 60 11 81 6 90 -22z m20 -163 c56 -89 59 -102 32 -135 -26 -31
-29 -31 -20 -2 6 18 1 37 -10 40 -12 4 -34 43 -49 87 -49 142 -36 145 47 10z"/>
<path d="M900 6105 c0 -30 55 -70 78 -56 10 6 24 3 31 -7 6 -10 -4 -24 -23
-31 -20 -8 -40 0 -51 19 -20 36 -58 21 -43 -18 6 -14 30 -27 54 -27 81 0 96
-5 85 -24 -6 -10 -2 -24 10 -31 23 -15 18 64 -8 105 -8 14 -10 33 -4 43 6 10
-7 14 -29 8 -22 -6 -54 0 -70 14 -17 14 -30 16 -30 5z"/>
<path d="M2080 4679 c0 -11 13 -25 29 -31 16 -7 35 -28 41 -48 10 -33 66 -70
82 -55 9 9 -122 155 -139 155 -7 0 -13 -9 -13 -21z"/>
<path d="M2179 4475 c-15 -53 -14 -135 1 -135 11 0 20 11 20 25 0 14 6 45 13
70 7 27 3 45 -11 45 -12 0 -23 -2 -23 -5z"/>
<path d="M4342 6556 c-32 -52 -46 -121 -21 -105 11 6 14 20 8 30 -6 11 -4 19
5 19 24 0 68 77 50 88 -9 5 -28 -9 -42 -32z"/>
<path d="M1668 1344 c-37 -24 -53 -124 -20 -124 16 0 35 28 42 61 15 68 10 84
-22 63z"/>
</g>
</svg>
