<?xml version="1.0" standalone="no"?>
<!DOCTYPE svg PUBLIC "-//W3C//DTD SVG 20010904//EN"
 "http://www.w3.org/TR/2001/REC-SVG-20010904/DTD/svg10.dtd">
<svg version="1.0" xmlns="http://www.w3.org/2000/svg"
 width="300.000000pt" height="475.000000pt" viewBox="0 0 300.000000 475.000000"
 preserveAspectRatio="xMidYMid meet">
<metadata>
Created by potrace 1.10, written by Peter Selinger 2001-2011
</metadata>
<g transform="translate(0.000000,475.000000) scale(0.050000,-0.050000)"
fill="#000000" stroke="none">
<path d="M3056 8966 c-184 -110 -232 -313 -125 -526 73 -145 74 -145 48 -161
-18 -11 -13 -22 18 -42 52 -32 56 -57 9 -57 -26 0 -28 -6 -11 -23 18 -18 15
-30 -11 -50 -31 -23 -28 -26 21 -26 62 -1 73 -30 20 -50 -31 -12 -31 -17 -5
-37 37 -29 34 -154 -3 -176 -15 -8 -62 -42 -105 -77 -43 -34 -102 -67 -130
-73 -152 -34 -200 -51 -222 -78 -32 -38 -2 -38 49 1 62 47 81 34 29 -20 -166
-169 -155 -143 -162 -371 -7 -227 -5 -222 -238 -717 -43 -92 -78 -185 -78
-207 0 -22 -27 -63 -60 -92 -34 -30 -60 -73 -60 -99 0 -38 -155 -472 -220
-615 -10 -22 -38 -89 -62 -150 -48 -118 -97 -170 -177 -187 -85 -19 -152 -143
-148 -276 l4 -113 -144 -137 c-79 -75 -216 -200 -303 -277 -88 -77 -215 -191
-282 -255 -67 -63 -134 -115 -149 -115 -29 0 -179 -157 -179 -186 0 -41 45
-94 80 -94 22 0 51 -24 67 -55 29 -55 277 -305 303 -305 66 0 133 83 214 261
l87 195 -19 172 c-22 202 -13 199 -149 51 -93 -101 -115 -138 -121 -204 -4
-31 -57 -13 -100 33 -54 57 -42 90 62 182 38 33 77 74 87 90 11 17 82 83 159
147 77 65 208 190 292 279 150 159 153 160 199 127 59 -40 107 -43 92 -5 -7
18 8 33 43 43 30 7 43 18 29 23 -15 6 -1 28 37 61 42 35 58 63 51 91 -14 51
285 389 309 350 9 -14 7 -35 -3 -47 -11 -13 -10 -30 2 -42 14 -14 11 -29 -10
-46 -36 -30 -41 -92 -10 -112 75 -46 211 115 163 192 -17 28 -19 63 -6 121 46
205 -46 189 -279 -47 -198 -201 -213 -190 -70 53 47 79 93 165 101 191 10 31
19 38 29 22 17 -27 110 207 132 331 7 43 32 110 54 148 25 44 44 122 51 210 5
77 21 158 35 180 51 80 264 603 289 710 41 176 58 182 54 20 -3 -103 7 -176
30 -230 18 -44 38 -105 45 -135 6 -30 37 -84 69 -120 31 -36 63 -86 71 -111
19 -62 166 -152 244 -150 50 2 60 -5 53 -34 -5 -19 0 -42 12 -49 37 -23 24
-71 -18 -71 -57 0 -50 -25 21 -78 70 -51 53 -102 -33 -102 -59 0 -62 -28 -8
-66 38 -26 38 -31 8 -56 -28 -23 -38 -21 -68 18 -45 54 -60 56 -60 5 0 -33
-10 -38 -57 -29 -48 10 -59 4 -69 -34 -14 -52 -94 -4 -94 57 0 57 -51 11 -100
-91 -27 -57 -62 -103 -76 -104 -19 0 -22 -19 -13 -70 11 -57 7 -70 -19 -70
-25 0 -33 -17 -31 -65 1 -36 -4 -85 -12 -110 -8 -28 -5 -45 9 -45 12 0 22 9
22 20 0 11 9 20 20 20 29 0 23 -102 -10 -160 -16 -27 -29 -90 -30 -140 0 -49
-18 -128 -39 -174 -35 -77 -51 -180 -71 -446 -10 -144 -47 -384 -69 -460 -12
-38 -21 -113 -21 -166 0 -52 -13 -128 -30 -167 -17 -40 -30 -88 -30 -107 0
-20 -32 -84 -71 -142 -45 -67 -68 -121 -61 -145 6 -24 -4 -50 -24 -65 -26 -19
-34 -58 -35 -171 -2 -129 -23 -209 -173 -657 -94 -280 -212 -685 -263 -900
-232 -979 -281 -1098 -477 -1138 -35 -7 -66 -23 -70 -35 -10 -29 78 -51 149
-37 30 6 44 5 30 -2 -53 -24 -26 -68 43 -68 103 0 252 146 252 248 0 41 9 91
20 111 13 25 12 58 -3 101 -26 74 -15 133 104 570 41 154 90 354 107 444 17
91 71 266 119 390 48 124 112 301 141 392 112 355 211 563 284 594 73 30 102
96 76 174 -9 25 -13 62 -10 82 3 20 -5 49 -18 64 -25 31 -8 203 23 222 10 6
12 19 6 29 -6 10 7 93 30 184 22 91 54 251 72 355 17 108 68 290 118 420 47
127 93 280 100 340 16 129 68 280 96 280 12 0 14 -36 5 -95 -28 -177 -2 -1265
30 -1265 7 0 20 197 27 437 11 371 52 691 74 573 2 -11 14 29 26 88 48 227 91
122 94 -228 1 -110 10 -218 19 -240 20 -46 19 -56 29 240 12 357 50 433 115
231 26 -78 33 -153 27 -286 -8 -194 14 -212 42 -35 17 104 14 154 -23 425 -19
138 35 175 59 40 55 -320 104 -348 126 -73 11 131 43 197 47 94 2 -55 3 -54
35 19 51 115 63 92 63 -115 0 -113 8 -190 20 -190 11 0 20 60 20 140 0 80 9
140 20 140 11 0 20 -17 20 -38 0 -28 10 -36 40 -28 37 10 39 3 27 -149 -9
-119 -6 -163 13 -175 21 -13 24 3 14 74 -7 50 -7 96 0 103 21 22 66 -30 66
-75 0 -24 9 -53 21 -65 11 -11 30 -105 42 -209 33 -291 64 -274 47 27 -15 281
2 322 59 140 19 -63 62 -173 94 -245 54 -119 137 -372 178 -540 107 -436 139
-662 102 -706 -39 -47 -20 -216 37 -334 113 -233 181 -1197 95 -1354 -59 -107
39 -310 133 -274 13 5 64 -21 113 -58 151 -114 203 -123 279 -44 71 74 68 78
-85 123 -311 93 -324 117 -320 607 2 148 -13 360 -35 520 -30 216 -34 320 -22
520 15 241 14 252 -29 304 -33 39 -51 101 -68 230 -33 255 -74 423 -175 716
-163 475 -245 738 -265 845 -11 58 -47 168 -81 245 -40 91 -57 156 -49 188 17
67 -18 123 -113 183 -46 29 -90 76 -101 110 -26 74 -137 103 -195 50 -34 -30
-40 -30 -70 -1 -36 37 -43 101 -12 120 34 21 22 45 -30 58 -64 16 -66 82 -5
133 38 33 41 41 15 58 -45 29 0 64 125 96 297 76 470 406 376 722 -15 53 -12
82 12 129 20 39 28 91 22 146 -16 143 60 172 150 59 30 -38 55 -74 55 -81 0
-7 32 -55 72 -106 39 -52 112 -179 161 -284 50 -104 122 -255 160 -334 38 -80
68 -156 66 -170 -7 -52 2 -75 48 -120 106 -103 85 -126 -74 -82 -25 7 -35 1
-29 -15 5 -15 48 -36 97 -48 102 -24 138 -77 139 -203 0 -154 26 -388 42 -388
36 0 55 202 32 336 -9 50 -7 82 3 76 86 -53 35 -365 -82 -506 -103 -126 -117
-127 -227 -26 -160 148 -163 102 -5 -83 l97 -112 0 -191 c0 -165 5 -192 35
-201 19 -6 -8 -5 -60 1 -117 13 -136 -39 -30 -83 125 -52 154 -105 160 -284 6
-181 -20 -242 -87 -206 -54 29 -51 -34 3 -92 25 -26 73 -154 118 -312 42 -147
89 -306 105 -353 33 -97 212 -341 251 -343 98 -4 306 609 354 1043 81 735 79
695 55 1398 -16 495 -17 693 0 740 18 53 16 66 -11 82 -28 15 -33 58 -33 279
0 215 -5 258 -27 240 -73 -61 -216 182 -249 424 -48 362 -77 369 -92 23 -6
-136 -4 -190 6 -140 15 75 16 76 19 18 4 -96 -16 -174 -60 -229 l-39 -49 33
70 c41 86 12 58 -52 -50 -30 -50 -36 -73 -17 -60 16 11 13 5 -7 -14 -20 -19
-36 -39 -36 -45 3 -40 -2 -50 -23 -46 -13 3 -25 -13 -25 -35 -1 -22 -12 -38
-25 -35 -14 2 -20 -7 -14 -22 5 -15 -6 -39 -25 -55 -30 -25 -33 -24 -22 5 9
24 3 30 -24 23 -20 -5 -74 10 -120 33 l-84 43 25 -46 c13 -25 54 -80 91 -121
58 -65 67 -90 70 -190 l4 -115 13 130 13 130 5 -130 c3 -71 8 -148 12 -170 22
-131 29 -197 19 -175 -7 14 -34 25 -61 25 -47 0 -67 30 -29 43 10 4 25 34 33
67 13 54 11 57 -19 33 -30 -25 -33 -19 -33 75 0 74 -9 107 -30 115 -17 6 -134
220 -261 474 -127 255 -242 472 -257 483 -47 36 -94 150 -106 256 -11 97 -163
296 -232 303 -8 0 -22 11 -30 23 -28 45 -138 53 -167 13 -15 -20 -57 -57 -93
-83 l-66 -46 -130 35 c-71 20 -134 42 -139 51 -18 29 30 39 70 14 69 -43 214
135 189 234 -11 46 -21 50 -100 44 -57 -4 -90 2 -96 19 -10 24 159 18 187 -6
23 -20 101 86 101 137 0 32 15 86 32 120 160 309 -298 652 -616 462z m294 -86
c44 -21 92 -39 107 -39 18 -1 24 -24 20 -74 -4 -46 3 -77 18 -82 16 -5 25 11
25 42 0 28 9 56 20 63 29 18 24 -31 -9 -95 -30 -58 -12 -87 41 -67 23 9 28 2
18 -27 -8 -25 0 -45 24 -58 73 -41 -65 -80 -140 -40 -33 18 -38 16 -28 -11 16
-40 -13 -42 -46 -2 -14 17 -38 30 -54 30 -17 0 -23 10 -14 25 8 14 -12 1 -44
-29 -64 -59 -158 -46 -107 16 16 18 16 28 3 28 -18 0 -50 -62 -53 -103 -1 -8
-8 -21 -18 -30 -9 -9 -14 -8 -11 3 2 11 -7 47 -22 80 -36 83 -43 130 -20 130
11 0 20 -7 20 -16 0 -8 18 -17 39 -18 32 -3 36 4 22 40 -17 47 -21 63 -21 94
0 11 -19 20 -42 20 -36 0 -39 5 -18 30 21 26 20 29 -5 19 -17 -6 -37 -2 -44
10 -8 13 9 21 47 21 63 0 100 -30 57 -47 -15 -6 -12 -10 9 -11 18 -1 39 7 46
18 7 12 19 17 26 13 8 -4 32 10 54 31 40 39 40 39 -15 18 -35 -13 -55 -14 -55
-2 0 11 -16 21 -35 21 -30 2 -29 4 5 19 63 27 113 22 200 -20z m162 -470 c-17
-18 -32 -46 -32 -63 0 -16 -9 -24 -20 -17 -11 7 -20 4 -20 -6 0 -25 -119 -10
-154 20 -23 18 -33 18 -45 -2 -12 -19 -19 -17 -29 10 -24 63 43 86 179 59 38
-8 75 -1 99 17 51 36 65 24 22 -18z m-297 -172 c13 -34 32 -56 44 -49 12 8 21
4 21 -7 0 -11 16 -19 35 -19 58 0 104 -14 130 -40 20 -20 11 -23 -45 -14 -38
7 -60 5 -48 -4 12 -8 22 -30 22 -49 -1 -28 -10 -25 -49 17 -34 37 -54 46 -69
31 -39 -39 -105 69 -98 161 3 54 31 41 57 -27z m602 -332 c15 -7 -63 -186 -81
-186 -10 0 -13 9 -6 20 7 11 8 20 2 20 -22 0 -66 -111 -62 -156 2 -32 -5 -43
-25 -35 -17 7 -25 1 -20 -14 6 -14 38 -24 77 -22 l67 4 -50 -38 c-33 -26 -39
-38 -19 -39 24 -1 22 -7 -7 -29 -49 -38 -28 -67 63 -83 83 -15 144 -59 144
-105 0 -23 -9 -20 -40 13 -23 24 -53 38 -70 31 -17 -6 -42 -2 -57 11 -15 12
-32 17 -38 10 -24 -24 -98 35 -85 69 8 22 -1 19 -29 -12 -23 -24 -70 -59 -103
-76 -57 -30 -59 -35 -32 -75 30 -45 154 -74 154 -36 0 23 53 7 99 -30 132
-107 158 -133 167 -170 11 -41 9 -41 -42 6 -108 100 -220 156 -161 81 24 -32
24 -32 -8 -8 -19 15 -30 36 -24 45 6 10 -34 18 -90 18 -55 0 -101 -9 -101 -20
0 -11 7 -19 15 -18 91 15 172 -28 90 -47 -26 -7 -21 -12 20 -24 30 -8 55 -24
55 -34 0 -11 8 -14 19 -8 10 6 24 3 31 -9 7 -11 21 -20 32 -20 11 0 15 9 8 20
-31 51 32 13 72 -43 l44 -62 -50 33 c-48 31 -52 31 -64 0 -10 -26 -18 -28 -42
-8 -51 42 -34 -12 24 -78 65 -74 86 -78 86 -17 1 36 4 39 20 15 11 -16 20 -50
20 -75 0 -27 12 -45 30 -45 44 0 36 -72 -13 -118 -50 -47 -201 -102 -279 -102
-89 0 -52 65 58 100 76 24 95 40 100 81 9 75 -112 271 -186 302 -33 13 -68 28
-78 33 -10 5 -11 -2 -2 -16 12 -20 -1 -22 -59 -11 -53 9 -71 7 -61 -9 7 -12
-9 -42 -36 -66 -27 -24 -54 -57 -60 -74 -8 -23 -11 -22 -12 6 -1 20 -10 31
-20 25 -25 -15 -38 96 -17 151 16 45 49 77 79 78 8 0 -4 -34 -28 -75 l-42 -75
62 70 c34 39 63 79 63 90 1 11 10 7 20 -9 10 -17 26 -23 35 -14 15 15 -68 92
-101 93 -9 0 -57 -40 -106 -90 -50 -49 -82 -90 -73 -90 10 0 29 11 42 24 29
29 31 -11 4 -74 -16 -37 -17 -37 -19 -3 -1 33 -5 34 -35 10 -29 -23 -31 -23
-17 3 9 17 -12 -1 -46 -40 -45 -51 -62 -61 -62 -36 -1 19 43 82 97 140 54 58
95 109 91 114 -25 24 -265 -186 -292 -255 -10 -27 -23 -44 -29 -38 -15 15 78
214 100 215 43 1 234 146 217 163 -12 12 -41 -1 -78 -37 -32 -31 -87 -71 -122
-90 -35 -18 -82 -63 -105 -100 -46 -77 -51 -41 -9 74 15 44 29 82 29 85 0 3
-22 5 -50 5 -27 0 -51 -11 -52 -25 -1 -19 -4 -18 -12 1 -14 36 203 247 240
233 16 -7 43 11 63 43 36 54 36 54 -12 41 -26 -7 -72 -13 -102 -13 -36 0 -55
-11 -55 -31 0 -17 -9 -26 -20 -19 -11 7 -20 2 -20 -10 0 -12 -10 -16 -22 -9
-12 7 -16 34 -10 60 7 26 3 53 -9 60 -12 7 -27 -6 -33 -29 -11 -42 -37 -55
-52 -27 -12 24 38 106 55 90 9 -8 10 5 3 28 -12 37 -7 42 27 33 38 -10 53 17
43 79 -1 8 41 9 93 3 126 -16 186 -12 215 12 13 11 29 14 36 7 7 -7 38 4 68
25 31 20 76 39 101 43 25 3 88 25 140 48 130 56 205 78 205 57 0 -9 -11 -21
-25 -27 -14 -5 -9 -11 12 -11 29 -2 35 8 26 44 -21 84 5 135 54 108 24 -13 46
-26 50 -28z m-337 -74 c0 -41 -51 -53 -119 -29 -88 30 -75 57 29 57 64 0 90
-8 90 -28z m469 -58 c-6 -15 12 -56 40 -89 l51 -61 -45 1 c-25 0 -65 -5 -89
-11 -32 -8 -41 -4 -33 18 8 20 2 25 -21 16 -49 -19 -39 -59 31 -117 76 -65 63
-86 -26 -42 -100 48 -138 82 -147 131 -7 34 -3 39 18 22 14 -12 31 -16 39 -9
7 7 -3 25 -22 39 -32 25 -31 27 11 27 42 1 145 87 141 118 -5 37 6 43 33 16
16 -17 25 -43 19 -59z m-849 3 c0 -34 -61 -97 -93 -97 -38 0 -34 20 16 74 48
50 77 59 77 23z m902 -241 c12 -47 10 -49 -29 -28 -98 51 -103 58 -62 74 56
22 75 12 91 -46z m-122 -126 c59 -63 47 -63 -63 0 -78 44 -81 50 -35 50 29 0
71 -22 98 -50z m-104 -195 c88 -43 164 -129 89 -101 -19 8 -62 29 -95 48 -33
19 -105 41 -160 49 -116 16 -135 25 -119 51 18 30 186 2 285 -47z m1554 -195
c-7 -11 -29 -20 -48 -20 -23 0 -84 -69 -168 -190 l-132 -190 5 -225 c3 -170
13 -240 39 -285 24 -42 33 -48 29 -20 -3 23 7 39 25 40 17 1 29 17 26 40 -4
51 75 192 99 177 11 -7 9 7 -4 31 -13 24 -17 53 -9 66 9 14 5 17 -9 8 -13 -8
-22 -26 -19 -39 7 -30 -65 -193 -85 -193 -8 0 1 47 20 105 39 113 88 277 90
298 0 8 9 21 19 30 11 10 12 7 4 -8 -8 -14 -6 -25 4 -25 11 0 33 29 51 65 21
42 32 52 33 29 0 -20 8 -32 17 -26 9 6 16 -3 16 -20 0 -16 -11 -25 -24 -20
-29 11 -53 -83 -26 -100 16 -10 26 20 19 58 -2 10 6 11 18 4 11 -7 20 -26 20
-42 0 -19 10 -25 25 -16 15 8 18 7 8 -4 -9 -10 -26 -18 -38 -18 -12 0 -25 -11
-30 -25 -5 -14 1 -25 11 -25 21 0 16 -184 -6 -219 -7 -12 1 -16 19 -9 17 7 31
26 31 43 0 18 4 27 10 22 5 -6 0 -62 -11 -125 -17 -90 -16 -122 5 -148 23 -31
22 -31 -9 -7 -31 25 -35 23 -35 -22 0 -35 10 -50 33 -48 18 2 35 -8 38 -22 4
-16 2 -17 -5 -4 -6 13 -27 -1 -48 -34 -48 -73 -48 -86 2 -73 33 9 40 1 40 -47
-1 -44 -5 -50 -20 -27 -16 23 -19 19 -15 -20 3 -27 19 -56 35 -63 23 -9 17
-18 -24 -34 -29 -12 -65 -42 -78 -67 -22 -42 -22 -43 9 -19 27 23 33 23 33 1
0 -20 5 -21 24 -2 56 56 79 2 24 -58 -29 -33 -29 -34 12 -24 40 11 42 8 21
-31 -12 -24 -17 -53 -10 -64 7 -12 -15 -32 -49 -44 -33 -13 -65 -34 -70 -47
-6 -16 11 -13 51 6 62 32 100 21 62 -17 -12 -12 -17 -36 -10 -53 7 -18 3 -25
-9 -18 -12 8 -26 -4 -32 -25 -9 -37 -7 -37 38 -8 52 34 67 7 18 -33 -27 -22
-27 -28 4 -50 29 -22 31 -34 10 -79 -13 -30 -15 -48 -4 -41 35 21 22 -18 -32
-97 -45 -67 -47 -74 -12 -55 22 12 45 33 50 47 4 14 16 18 25 10 9 -9 1 -47
-17 -85 -24 -51 -27 -70 -9 -70 19 -1 19 -5 -1 -17 -14 -9 -27 -54 -29 -100
-3 -59 -11 -81 -29 -74 -31 12 -36 -80 -6 -99 31 -19 24 -86 -15 -145 -32 -48
-32 -52 -2 -40 38 14 68 -36 35 -56 -12 -7 -16 -25 -11 -39 6 -14 -2 -43 -18
-63 -38 -51 -38 -115 1 -100 38 15 39 -15 2 -45 -15 -13 -34 -46 -41 -74 -7
-27 -21 -44 -32 -37 -11 6 -14 20 -8 30 21 35 -5 19 -43 -26 -37 -44 -37 -44
1 -15 35 27 37 27 25 -7 -12 -30 -7 -35 20 -24 19 7 31 9 25 5 -171 -156 -250
-206 -225 -142 6 18 0 39 -15 48 -21 13 -19 26 8 68 28 43 28 49 3 39 -22 -8
-27 -2 -18 21 8 22 4 29 -15 22 -70 -27 -32 95 57 183 120 118 102 129 -22 13
-54 -50 -93 -77 -86 -60 6 17 -1 36 -17 42 -16 6 -29 25 -29 43 0 17 9 26 19
20 10 -7 28 5 39 26 27 49 42 283 19 283 -10 0 -4 32 12 71 16 39 20 65 9 58
-13 -9 -19 8 -15 44 4 31 -2 57 -13 58 -11 0 -17 -11 -14 -25 3 -14 -4 -44
-16 -66 -12 -22 -13 -38 -3 -35 19 5 23 -4 23 -47 0 -16 -10 -14 -31 3 -23 19
-29 48 -21 103 8 53 4 74 -10 64 -14 -8 -14 3 2 31 13 25 19 49 13 55 -10 10
32 92 102 202 27 43 28 49 4 30 -26 -20 -31 -16 -30 28 1 29 11 56 24 60 14 5
18 31 9 72 -11 52 -13 162 -3 214 1 6 10 -3 21 -20 14 -22 20 -6 20 60 0 66 6
82 20 60 23 -35 27 -17 20 98 -2 37 5 73 16 80 25 16 54 111 29 95 -21 -13
-15 93 8 134 8 15 4 14 -14 -2 -64 -59 -58 -17 10 65 88 108 73 122 -18 16
l-64 -73 -26 93 c-14 52 -49 118 -76 148 -49 53 -50 57 -41 325 l9 271 106
150 c58 83 125 166 148 185 46 36 144 49 123 15z m-2570 -125 c0 -14 -8 -37
-18 -52 -22 -35 -51 5 -34 48 13 36 52 39 52 4z m389 -137 c-24 -38 12 -102
43 -77 22 19 28 17 28 -9 0 -18 -13 -38 -30 -45 -16 -6 -25 -19 -19 -29 28
-45 -59 -37 -143 12 -67 39 -86 60 -70 76 12 12 22 39 22 60 0 54 49 30 57
-28 8 -58 43 -101 43 -53 0 50 44 135 63 123 10 -6 12 -19 6 -30z m438 -63 c7
-19 15 -18 32 5 18 24 21 18 17 -30 -6 -60 -102 -132 -133 -99 -7 8 -2 18 12
23 14 5 25 36 25 68 0 59 28 79 47 33z m-137 -35 c-41 -45 -48 -47 -88 -22
-42 27 -7 62 62 62 61 0 61 -1 26 -40z m-448 -71 c40 -28 99 -54 130 -57 31
-4 60 -17 64 -31 6 -18 -5 -21 -36 -11 -28 9 -40 7 -33 -6 18 -29 -105 -15
-133 16 -19 20 -18 23 6 11 17 -8 1 9 -35 38 -111 92 -83 123 37 40z m383 -52
c-68 -27 -87 -20 -62 21 20 31 31 34 60 15 35 -21 35 -23 2 -36z m435 -67 c0
-6 -51 -43 -114 -83 -130 -84 -323 -121 -259 -50 18 20 28 41 22 47 -18 18
110 56 189 56 40 0 86 9 102 20 33 21 60 26 60 10z m-630 -70 c44 -49 24 -78
-25 -36 -19 17 -62 40 -95 52 l-60 21 72 1 c48 1 84 -11 108 -38z m-1070 -448
c0 -4 -22 -66 -49 -137 -27 -72 -44 -136 -37 -142 17 -18 -36 -134 -56 -122
-10 6 -18 -5 -18 -25 -1 -44 -33 -99 -50 -83 -6 6 3 54 20 105 18 51 27 101
21 111 -6 9 -2 38 9 64 19 43 20 42 11 -13 -12 -74 8 -35 70 135 33 91 79 153
79 107z m1194 -167 c-4 -59 -70 -103 -94 -64 -28 44 2 110 50 114 40 4 47 -4
44 -50z m-255 6 c31 -37 19 -101 -19 -101 -31 0 -84 88 -68 114 16 25 61 19
87 -13z m2008 -26 c-7 -30 -30 -91 -50 -135 -20 -44 -36 -93 -37 -110 0 -16
-36 -77 -80 -135 -44 -58 -73 -105 -65 -105 21 0 6 -563 -16 -600 -11 -18 -18
102 -18 310 l0 340 59 77 c32 43 78 138 102 210 24 73 51 149 61 168 29 55 59
42 44 -20z m-1519 -71 c15 -24 14 -40 -4 -58 -33 -33 -95 27 -77 74 15 39 51
32 81 -16z m-625 8 c26 -4 37 -68 16 -93 -26 -32 -79 -16 -79 23 0 32 -52 38
-70 8 -19 -31 -90 -24 -90 9 0 32 69 60 100 41 11 -7 20 -4 20 5 0 16 23 17
103 7z m367 -44 c0 -10 9 -18 20 -19 11 0 40 -38 65 -85 34 -63 44 -72 40 -36
-3 29 7 52 25 57 24 6 25 5 3 -11 -23 -16 -20 -27 14 -61 40 -40 26 -79 -19
-52 -15 10 -18 0 -8 -31 10 -31 7 -41 -8 -31 -12 7 -22 0 -22 -17 0 -16 9 -35
19 -41 11 -7 14 -27 7 -45 -9 -22 -5 -28 11 -18 12 8 24 48 24 88 1 57 5 65
17 34 19 -48 45 8 59 126 2 15 22 4 50 -28 26 -31 56 -48 70 -40 15 9 5 30
-32 62 l-55 49 53 0 c28 1 64 -13 78 -30 14 -17 40 -26 57 -19 18 6 5 -11 -28
-37 l-60 -49 55 -51 c62 -58 68 -88 26 -144 -27 -36 -28 -33 -17 36 13 85 -23
105 -53 30 -17 -41 -19 -42 -20 -5 -2 36 -5 35 -31 -10 -35 -61 -37 -47 -7 39
16 47 27 58 39 38 10 -16 18 -18 18 -4 0 12 -13 33 -30 47 -25 20 -30 19 -30
-8 0 -17 -10 -32 -21 -32 -12 0 -61 -40 -109 -89 -62 -63 -90 -80 -98 -60 -10
28 -127 109 -156 109 -8 0 -37 -34 -65 -75 -28 -41 -51 -65 -51 -54 0 11 12
38 27 60 40 56 65 150 29 108 -14 -17 -42 -38 -62 -45 -20 -8 -31 -22 -25 -32
14 -24 -8 -82 -31 -82 -10 0 -18 23 -18 50 0 28 -11 68 -25 90 -20 33 -18 45
10 74 20 19 35 25 35 11 0 -12 -9 -28 -20 -35 -25 -15 -26 -50 -2 -50 10 0 28
27 39 61 13 36 14 56 2 49 -10 -7 -19 8 -19 33 0 41 -5 39 -49 -22 -41 -55
-48 -83 -40 -159 8 -69 5 -81 -9 -49 -34 77 -65 77 -135 0 -37 -40 -67 -67
-67 -61 0 22 46 99 86 143 23 25 33 45 22 45 -10 0 -4 10 12 22 24 17 21 20
-15 12 -54 -12 -60 34 -14 96 30 39 68 18 69 -38 0 -11 22 2 49 27 28 26 46
54 40 62 -5 9 -4 28 2 44 15 38 144 35 169 -4 10 -17 23 -25 29 -19 6 6 -8 31
-30 54 l-41 44 52 0 c35 0 48 -8 40 -25 -6 -14 0 -10 14 9 24 33 46 31 46 -6z
m-514 -123 c1 -14 8 -49 15 -79 9 -38 1 -71 -29 -113 -23 -33 -42 -68 -42 -79
0 -11 -18 -24 -40 -30 -48 -12 -54 16 -8 34 23 9 30 30 24 72 -5 33 -2 60 7
60 28 0 19 55 -13 87 -16 17 -30 36 -30 44 0 7 14 8 30 2 17 -7 30 -3 30 8 0
28 53 23 56 -6z m-581 -269 c3 -11 -12 -26 -34 -32 -25 -6 -41 -1 -41 15 0 51
59 65 75 17z m2776 -105 c-4 -39 -3 -60 2 -46 6 14 19 25 29 25 12 0 11 -16
-2 -39 -11 -22 -18 -46 -15 -55 3 -9 0 -16 -7 -16 -6 0 -26 -11 -43 -26 -35
-29 -67 16 -34 49 22 22 32 131 14 158 -6 11 5 20 26 20 31 0 36 -12 30 -70z
m-1991 -82 c0 -97 -24 -130 -48 -67 -16 41 -15 158 1 174 28 29 47 -14 47
-107z m-760 81 c0 -40 -9 -50 -39 -43 -42 9 -47 17 -32 42 17 27 71 28 71 1z
m-474 -154 c-5 -13 -21 -19 -36 -13 -14 5 -32 0 -39 -12 -7 -11 -27 -21 -43
-21 -21 0 -13 18 25 57 55 55 116 49 93 -11z m882 -109 c-30 -59 -61 -129 -69
-157 -12 -37 -16 -40 -17 -12 -2 40 118 298 132 284 5 -4 -16 -56 -46 -115z
m2346 43 c-6 -22 -2 -40 9 -40 21 0 -2 -47 -53 -110 -31 -39 -32 -39 -10 5 12
25 17 54 11 64 -13 20 21 121 41 121 7 0 8 -18 2 -40z m-113 -693 c-31 -113
-53 -143 -84 -112 -19 19 -19 25 -1 25 13 0 24 8 24 18 0 32 62 166 72 156 6
-5 1 -45 -11 -87z m344 -582 c-25 -16 -45 -39 -45 -50 0 -11 14 -9 30 5 63 52
52 0 -12 -59 -73 -66 -109 -79 -91 -31 7 17 1 30 -13 31 -13 0 16 36 64 80 48
44 93 74 100 67 7 -7 -8 -26 -33 -43z m-25 -168 c-27 -23 -47 -52 -44 -65 4
-13 -4 -11 -20 4 -21 22 -17 33 24 65 68 52 103 48 40 -4z"/>
<path d="M3371 8662 c-6 -10 -29 -14 -51 -8 -27 7 -40 1 -40 -19 0 -38 93 -23
108 17 12 31 1 38 -17 10z"/>
<path d="M3585 7755 c-11 -14 -39 -70 -63 -125 -34 -77 -48 -93 -63 -70 -15
25 -18 24 -19 -6 0 -22 -9 -31 -22 -23 -12 8 -30 2 -40 -13 -14 -23 -17 -21
-18 5 0 19 11 38 25 43 14 5 0 8 -31 6 -42 -1 -54 -10 -47 -36 5 -18 -4 -52
-20 -75 -18 -25 -21 -41 -8 -41 12 0 27 14 34 30 6 17 30 30 53 30 33 0 37 -5
18 -24 -32 -32 -31 -67 2 -40 14 12 37 15 52 5 45 -28 -12 -45 -101 -30 -58 9
-85 25 -92 53 -8 28 -15 32 -26 15 -24 -39 1 -79 48 -79 35 -1 38 -4 13 -20
-22 -15 -14 -18 30 -11 33 5 102 15 153 21 58 7 98 24 105 43 7 17 25 26 40
20 43 -16 56 10 18 37 -26 19 -44 18 -88 -7 -63 -37 -98 -18 -62 33 13 19 32
53 43 76 10 24 33 48 52 55 20 8 28 26 21 46 -7 18 -2 45 11 60 12 15 18 32
13 38 -6 5 -19 -2 -31 -16z"/>
<path d="M2860 7558 c0 -10 9 -18 20 -18 11 0 20 -10 20 -22 0 -12 -13 -17
-30 -11 -16 7 -30 2 -30 -9 0 -11 -11 -14 -25 -6 -20 11 -20 8 0 -13 14 -15
26 -45 26 -68 1 -37 3 -37 20 6 16 39 25 43 48 24 31 -26 68 55 43 95 -16 26
-92 44 -92 22z"/>
<path d="M3075 7359 c-34 -61 -19 -62 50 -3 19 16 29 37 23 47 -18 30 -37 19
-73 -44z"/>
<path d="M3222 7329 c-1 -11 -18 -22 -37 -24 -98 -10 -169 -33 -191 -64 -13
-18 -40 -40 -59 -47 -19 -7 -35 -31 -35 -53 0 -67 74 -49 160 39 81 83 128
104 106 48 -10 -28 -4 -28 45 5 31 20 61 34 65 30 4 -3 13 -1 19 5 6 7 -3 12
-20 12 -18 0 -36 16 -41 35 -5 19 -10 26 -12 14z"/>
<path d="M5215 6515 c-6 -15 1 -43 15 -62 37 -50 60 -4 24 48 -21 30 -32 34
-39 14z"/>
<path d="M5173 5475 c-21 -77 -15 -83 32 -33 29 30 38 54 25 63 -33 24 -45 18
-57 -30z"/>
<path d="M5190 3968 c-44 -39 -66 -64 -50 -56 17 8 46 28 65 44 20 17 35 21
35 9 0 -12 -25 -40 -55 -62 -30 -22 -49 -46 -42 -53 26 -26 141 99 134 145 -7
42 -11 41 -87 -27z"/>
<path d="M3295 5511 c5 -28 18 -46 27 -40 10 6 18 -3 18 -20 0 -17 14 -31 31
-31 37 0 14 51 -47 106 -38 34 -38 34 -29 -15z"/>
<path d="M3135 5416 c-19 -24 -30 -48 -25 -53 12 -12 90 57 90 80 0 30 -29 18
-65 -27z"/>
<path d="M3543 5418 c-24 -62 -11 -75 32 -32 25 26 28 39 10 57 -18 18 -28 12
-42 -25z"/>
<path d="M3270 5400 c-18 -28 4 -56 71 -91 l59 -30 -35 70 c-35 70 -71 89 -95
51z"/>
</g>
</svg>
