<?xml version="1.0" standalone="no"?>
<!DOCTYPE svg PUBLIC "-//W3C//DTD SVG 20010904//EN"
 "http://www.w3.org/TR/2001/REC-SVG-20010904/DTD/svg10.dtd">
<svg version="1.0" xmlns="http://www.w3.org/2000/svg"
 width="269.000000pt" height="300.000000pt" viewBox="0 0 269.000000 300.000000"
 preserveAspectRatio="xMidYMid meet">
<metadata>
Created by potrace 1.10, written by Peter Selinger 2001-2011
</metadata>
<g transform="translate(0.000000,300.000000) scale(0.050000,-0.050000)"
fill="#000000" stroke="none">
<path d="M3890 5921 c-22 -9 -121 -13 -220 -9 -363 16 -1286 -160 -1440 -274
-11 -8 -85 -47 -165 -87 -84 -42 -145 -85 -145 -103 0 -23 -15 -27 -65 -18
-229 43 -1283 -951 -1182 -1114 6 -10 -12 -35 -39 -57 -102 -80 -362 -696
-463 -1099 -136 -541 -151 -1211 -33 -1415 29 -49 27 -23 -11 163 -77 380 103
1094 357 1417 117 148 188 79 117 -112 -53 -143 -124 -417 -111 -430 5 -5 14
4 19 19 185 520 300 698 451 698 70 0 68 -56 -5 -176 -38 -63 -81 -150 -95
-194 -56 -175 -143 -329 -222 -391 -97 -77 -149 -174 -168 -315 -7 -58 -26
-151 -41 -206 -41 -159 -8 -203 202 -267 44 -13 94 -18 110 -10 16 8 54 24 84
36 126 50 175 343 73 445 -78 78 -22 229 117 313 156 94 325 268 404 416 l75
139 213 0 c227 0 228 0 185 -48 -85 -97 -159 -279 -184 -452 -27 -190 -36
-205 -193 -314 -27 -19 -55 -59 -61 -90 -6 -31 -31 -77 -54 -102 -176 -187
-181 -565 -10 -715 38 -34 59 -87 80 -209 1 -5 17 -39 36 -75 27 -49 32 -90
22 -163 -8 -63 -5 -102 10 -111 12 -7 22 -56 22 -107 -2 -218 -79 -385 -220
-474 -118 -74 -167 -183 -136 -299 24 -91 76 -126 76 -52 0 105 144 106 185 1
33 -82 75 -107 75 -45 2 132 151 178 184 56 30 -113 39 -113 98 -2 28 53 55
82 65 72 10 -10 30 -13 45 -7 28 10 38 -34 29 -121 -6 -55 31 -24 87 73 57 97
46 241 -21 287 -72 50 -86 68 -109 147 -18 59 -19 93 -3 125 36 74 45 145 27
208 -32 110 96 312 150 237 15 -22 73 -86 128 -142 115 -118 137 -188 92 -297
-80 -191 33 -316 226 -249 46 16 88 17 148 1 46 -11 108 -26 137 -32 36 -7 57
-28 66 -63 16 -63 33 -50 64 49 21 67 24 69 37 28 21 -65 50 -55 50 16 0 73
-78 218 -120 222 -16 1 -68 0 -113 -2 -129 -7 -200 89 -155 207 27 72 221 -19
335 -157 146 -176 203 -200 492 -205 138 -2 288 -10 333 -17 124 -19 200 29
260 163 79 178 66 229 -97 389 -52 51 -108 125 -124 164 -23 55 -44 74 -86 79
-46 5 -55 15 -56 67 0 34 -20 95 -45 136 -48 83 -36 131 64 255 23 29 52 69
63 89 35 58 207 -117 218 -223 27 -244 99 -492 161 -550 22 -21 83 -75 135
-121 121 -105 141 -257 40 -302 -71 -32 -349 -312 -334 -336 6 -11 40 -19 76
-19 61 0 86 16 302 194 22 18 81 37 132 42 98 9 87 15 254 -136 121 -109 170
-137 270 -151 57 -7 118 -23 136 -34 40 -25 139 -3 139 30 -1 14 -39 51 -87
83 -47 31 -97 83 -111 115 -14 31 -38 57 -54 57 -16 0 -60 49 -99 110 -51 81
-96 123 -168 160 -56 28 -104 68 -112 92 -7 24 -39 85 -71 135 -43 67 -58 116
-58 184 0 133 -21 219 -52 219 -18 0 -28 23 -28 65 -1 43 -32 113 -90 203 -97
149 -107 205 -67 364 28 111 -57 406 -139 482 l-48 44 84 186 c46 102 102 227
125 276 109 242 212 629 180 679 -18 30 -17 40 7 49 40 15 83 124 98 244 7 54
20 143 31 198 97 517 101 751 22 1423 -28 240 -192 338 -301 180 -115 -168
-140 -270 -114 -468 22 -172 46 -157 55 35 6 132 15 167 52 204 l45 45 3 -60
c6 -103 -3 -235 -26 -364 -17 -97 -16 -132 3 -155 19 -22 19 -30 1 -30 -13 0
-42 -43 -65 -95 -23 -52 -72 -142 -109 -200 -37 -58 -67 -113 -67 -122 0 -36
-100 -108 -136 -98 -21 5 -60 -2 -86 -17 -64 -36 -72 -35 -84 12 -16 63 -145
54 -261 -20 -116 -73 -107 -74 -140 5 l-28 65 -25 -60 c-15 -33 -47 -108 -73
-167 -26 -59 -47 -123 -47 -142 0 -50 -63 -100 -167 -131 l-90 -27 -14 129
c-8 77 -5 164 9 217 27 110 28 191 2 191 -11 0 -20 9 -20 20 0 11 13 20 29 20
16 0 47 39 68 87 112 254 487 653 613 653 34 0 208 154 276 246 99 133 93 127
113 96 10 -16 0 -88 -24 -176 -33 -120 -35 -153 -15 -172 20 -19 23 -18 12 0
-7 14 8 72 34 130 169 372 61 630 -216 517z m156 -74 c-5 -13 -24 -20 -43 -14
-20 7 -25 4 -11 -6 42 -32 47 -127 7 -127 -44 0 -65 58 -48 128 10 38 25 50
59 47 27 -2 42 -13 36 -28z m-129 -80 c-2 -74 7 -100 43 -127 l45 -34 -46 -12
c-79 -21 -169 107 -102 145 29 17 27 20 -10 20 -43 1 -50 28 -20 76 41 65 92
27 90 -68z m-562 48 c14 -11 25 -12 25 -2 0 23 236 21 288 -3 23 -10 52 -7 77
8 37 24 38 21 25 -62 -23 -134 -35 -139 -194 -85 -100 34 -439 2 -615 -58
l-81 -28 11 52 11 53 -32 -55 c-17 -30 -47 -55 -66 -55 -19 0 -53 -12 -75 -27
-21 -15 -91 -34 -154 -42 -63 -7 -119 -22 -126 -32 -6 -10 -60 -33 -120 -50
-59 -17 -113 -40 -120 -50 -6 -11 -30 -19 -52 -19 -22 0 -64 -18 -92 -40 -66
-52 -91 -51 -73 5 8 25 13 70 11 99 -3 42 4 52 27 43 16 -6 30 -2 30 9 0 11
32 25 70 33 39 7 70 21 70 32 0 10 22 19 49 19 27 0 55 10 62 21 7 12 25 17
39 12 15 -6 32 2 38 18 6 16 31 29 57 29 25 0 81 19 124 42 63 34 87 38 116
20 20 -13 46 -17 58 -10 14 9 12 19 -6 30 -20 13 -17 18 13 20 22 1 49 5 60 7
11 3 45 6 76 8 31 2 51 11 45 22 -7 11 22 15 69 11 45 -4 80 1 80 13 0 11 16
15 35 9 19 -6 48 -3 64 7 38 24 144 21 176 -4z m793 -27 c18 -46 15 -124 -5
-136 -20 -12 -85 139 -68 157 22 22 61 11 73 -21z m382 -68 c0 -26 -9 -50 -21
-54 -11 -3 -20 20 -20 54 1 33 10 57 21 53 11 -3 20 -27 20 -53z m-81 -63 c-6
-15 -32 -43 -59 -62 -58 -43 -57 11 2 101 35 53 82 21 57 -39z m157 10 c-9
-23 -5 -29 11 -19 36 22 27 -17 -17 -73 -43 -55 -102 -78 -140 -55 -15 9 -6
19 28 28 29 7 52 26 52 42 0 25 57 110 74 110 3 0 -1 -15 -8 -33z m-736 -107
c60 0 57 -86 -4 -109 -28 -10 -28 -7 -4 23 22 27 17 26 -25 -5 -29 -21 -44
-42 -34 -46 21 -8 -103 -94 -126 -88 -7 2 -28 -14 -48 -36 -19 -21 -49 -39
-65 -39 -32 0 -59 -22 -169 -137 -36 -37 -99 -103 -140 -145 -41 -43 -75 -87
-75 -97 0 -11 -18 -29 -41 -41 -22 -12 -34 -32 -26 -44 7 -12 4 -17 -7 -10
-27 17 -93 -57 -80 -90 6 -16 17 -8 30 24 12 28 22 37 22 20 1 -36 -47 -103
-71 -98 -45 8 -51 -5 -16 -33 28 -21 30 -29 9 -26 -16 3 -51 -2 -77 -11 -60
-21 -72 -6 -40 51 14 26 27 52 28 57 29 115 403 552 458 534 11 -4 30 11 41
34 12 23 39 50 61 62 155 79 346 240 351 297 2 12 7 7 12 -12 5 -19 21 -35 36
-35z m763 -35 c-5 -8 -15 -59 -22 -114 -7 -54 -18 -105 -23 -114 -5 -9 -14
-45 -19 -81 -33 -250 -48 -278 -117 -226 -27 21 -32 36 -17 54 22 28 48 176
55 313 4 69 17 97 62 134 57 46 99 64 81 34z m-1573 -65 c0 -11 -20 -20 -45
-21 -44 0 -45 -1 -5 -31 24 -18 62 -26 94 -20 30 6 60 2 66 -9 7 -10 -2 -19
-20 -19 -40 0 -130 -95 -130 -138 1 -26 8 -24 35 10 19 23 82 65 140 93 103
50 104 51 60 81 -62 41 -34 61 35 26 30 -16 70 -24 87 -17 23 8 20 -2 -10 -31
-24 -23 -67 -48 -95 -55 -29 -7 -52 -24 -52 -38 0 -13 -23 -35 -51 -48 -29
-13 -45 -33 -38 -45 9 -15 0 -18 -27 -9 -34 11 -39 6 -29 -31 10 -40 6 -43
-51 -32 -52 11 -67 5 -87 -32 -12 -24 -35 -51 -50 -60 -15 -9 -23 -24 -17 -34
12 -20 -69 -72 -98 -63 -10 3 -8 -8 5 -23 19 -24 12 -34 -36 -54 -33 -13 -56
-33 -49 -42 15 -25 -47 -84 -72 -68 -11 7 -15 -1 -8 -19 7 -18 -1 -36 -20 -43
-24 -9 -27 -20 -13 -37 15 -18 7 -31 -30 -48 -28 -13 -46 -32 -40 -42 7 -10
-6 -29 -29 -41 -48 -26 -35 -64 16 -45 30 11 30 8 7 -21 -15 -18 -37 -28 -48
-21 -13 8 -16 -5 -8 -39 16 -61 -13 -85 -92 -77 -30 3 -55 -3 -55 -14 0 -10
18 -15 40 -9 52 14 52 -17 0 -49 -26 -17 -40 -18 -40 -4 0 12 -9 16 -20 9 -12
-7 -15 -21 -9 -31 6 -11 5 -29 -2 -41 -10 -16 -18 -15 -29 2 -11 17 -19 18
-29 2 -7 -12 -4 -22 8 -22 11 0 21 -9 21 -19 0 -21 -94 -121 -114 -121 -6 0
-22 -15 -36 -33 -13 -18 -35 -29 -48 -24 -16 5 -7 28 27 67 28 33 47 72 41 86
-5 14 -1 21 10 14 11 -7 20 -2 20 12 0 31 147 264 233 370 37 45 67 91 67 103
0 22 173 228 300 357 44 44 80 93 80 107 0 15 13 20 32 13 22 -8 29 -4 22 14
-5 15 7 38 28 51 21 13 38 32 38 43 0 28 -74 25 -92 -3 -9 -15 -5 -18 12 -7
18 11 21 8 11 -8 -8 -14 -27 -20 -42 -15 -30 12 -76 -34 -54 -55 7 -8 -1 -8
-19 -2 -22 9 -47 -7 -78 -49 -25 -33 -58 -61 -73 -61 -15 0 -22 -8 -16 -18 6
-10 -3 -23 -20 -30 -18 -6 -26 -21 -19 -32 7 -12 6 -20 -4 -18 -40 7 -66 -4
-66 -27 0 -81 -140 -154 -197 -104 -16 14 509 463 583 498 19 8 18 14 -1 23
-14 6 -25 24 -25 40 0 15 -10 28 -22 28 -13 0 -18 -16 -13 -36 7 -28 -24 -58
-128 -124 -75 -49 -137 -94 -137 -102 0 -7 -27 -24 -60 -38 -33 -14 -60 -38
-60 -54 0 -16 -10 -26 -22 -22 -48 16 -520 -453 -559 -557 -10 -27 -27 -44
-37 -38 -9 6 -29 -3 -42 -19 -14 -17 -19 -30 -11 -30 8 0 0 -14 -18 -32 -17
-17 -29 -37 -25 -45 16 -36 -105 -120 -125 -87 -15 26 -18 18 -12 -31 5 -36 1
-65 -8 -65 -9 0 -21 -18 -27 -41 -6 -22 -19 -38 -30 -35 -11 3 -39 -16 -62
-42 -23 -26 -42 -42 -42 -34 0 8 -10 8 -22 1 -16 -10 -14 -19 5 -32 21 -13 16
-20 -18 -29 -25 -7 -45 -20 -45 -30 0 -9 -31 -51 -68 -92 -38 -42 -91 -103
-119 -136 -78 -90 -67 -16 15 113 222 347 301 457 330 459 22 1 24 4 6 12 -18
7 -4 33 43 83 228 241 368 383 378 383 5 0 46 34 89 75 147 141 276 249 316
265 65 27 230 174 214 191 -8 8 -4 10 9 2 12 -7 44 4 70 24 26 20 64 42 84 50
24 9 33 25 24 47 -7 18 -1 40 13 49 38 24 136 21 136 -4 0 -12 9 -16 20 -9 11
7 20 2 20 -11 0 -14 14 -18 33 -10 19 7 40 3 47 -9 9 -15 22 -11 40 10 23 27
20 34 -17 43 -52 14 -58 80 -8 93 58 15 65 15 65 -6z m-1189 -109 c44 -43 35
-82 -25 -109 -196 -89 -727 -544 -890 -762 -117 -158 -215 -234 -216 -170 -1
30 67 150 85 150 8 0 15 17 15 38 0 21 18 42 42 48 23 6 37 20 30 31 -16 26
147 206 173 190 12 -7 16 -4 9 7 -17 27 132 160 173 154 18 -2 33 4 33 14 0
10 -11 18 -25 18 -14 0 -2 16 26 35 28 19 69 53 92 75 77 77 143 126 185 139
23 8 42 22 42 32 0 11 9 19 19 19 11 0 58 27 105 59 102 71 92 68 127 32z
m629 -115 c0 -8 -15 -9 -33 -2 -24 9 -31 5 -23 -16 7 -19 -4 -29 -35 -31 -77
-4 -165 -53 -188 -102 -12 -26 -28 -43 -37 -37 -9 5 -65 -35 -125 -88 -60 -54
-114 -99 -121 -99 -25 -2 -97 -76 -84 -88 7 -7 1 -13 -14 -13 -32 0 -300 -280
-300 -314 0 -14 -11 -20 -25 -15 -14 5 -37 -17 -52 -51 -14 -33 -35 -55 -45
-49 -10 6 -18 -3 -18 -21 0 -17 -28 -44 -63 -58 -39 -17 -52 -30 -35 -36 43
-15 -15 -76 -72 -76 -28 0 -49 -15 -56 -40 -8 -33 -4 -36 27 -20 47 26 79 25
79 -1 0 -12 -8 -16 -18 -10 -9 6 -29 -3 -42 -19 -14 -17 -20 -30 -13 -30 28 0
-94 -102 -160 -133 -41 -19 -63 -38 -50 -43 14 -4 38 3 54 17 32 26 36 19 17
-29 -7 -18 -25 -32 -41 -32 -16 0 -24 -9 -17 -20 7 -11 3 -20 -9 -20 -11 0
-21 -13 -21 -30 0 -16 -10 -30 -21 -30 -12 0 -15 -11 -7 -23 10 -16 4 -20 -16
-12 -24 9 -29 2 -21 -26 5 -22 0 -39 -14 -39 -13 0 -18 11 -11 25 7 14 -2 7
-19 -15 -85 -105 -114 -131 -133 -119 -13 8 -9 28 11 56 17 24 39 61 49 83 10
22 50 87 90 145 40 57 72 111 72 118 0 15 101 169 122 187 7 6 23 31 36 56 13
25 33 39 44 33 12 -7 18 0 14 15 -14 64 472 579 734 779 99 75 191 146 204
157 13 11 29 20 35 20 6 0 56 28 111 62 56 34 114 57 129 51 15 -6 39 3 53 19
24 29 57 8 58 -36z m526 -169 c20 -19 -24 -87 -57 -87 -35 0 -36 9 -4 60 26
42 40 48 61 27z m-1368 -166 c-26 -17 -64 -49 -84 -71 -20 -22 -53 -58 -75
-81 -21 -22 -39 -48 -39 -57 0 -10 -22 -38 -50 -64 -27 -25 -50 -56 -50 -67 0
-12 -9 -21 -21 -21 -27 0 -119 -92 -119 -118 0 -11 -20 -39 -45 -62 -25 -23
-45 -49 -45 -57 0 -27 -85 -122 -97 -109 -7 7 -13 -2 -13 -19 0 -17 -8 -35
-18 -38 -10 -4 -21 -25 -25 -47 -10 -54 -59 -110 -98 -110 -24 0 -32 -17 -29
-60 2 -33 -5 -60 -15 -60 -35 0 -77 -56 -50 -67 15 -6 11 -10 -10 -11 -29 -2
-46 -26 -32 -47 11 -16 -48 -94 -64 -84 -11 7 -18 0 -14 -15 3 -14 -6 -24 -19
-21 -14 2 -20 -8 -14 -23 11 -27 -88 -112 -130 -112 -12 0 -22 -9 -22 -20 0
-11 -8 -20 -18 -20 -31 0 1 80 44 110 23 16 36 35 29 42 -7 7 9 45 36 85 27
40 49 83 49 97 0 13 20 38 44 55 25 17 33 31 19 31 -14 0 -20 9 -13 20 7 12
22 15 33 8 11 -6 17 0 14 15 -7 36 38 117 96 171 26 24 47 56 47 70 0 14 35
61 78 106 156 160 183 193 172 209 -5 10 17 27 50 38 53 19 69 41 63 87 -1 7
34 30 77 50 69 31 90 59 83 109 -1 7 12 18 29 25 20 8 25 3 16 -13 -8 -14 5
-5 29 19 24 24 43 51 44 60 1 31 189 146 197 122 4 -13 -13 -38 -40 -55z
m1262 10 c0 -27 -53 -123 -75 -137 -14 -9 -25 -33 -25 -53 0 -20 -13 -42 -30
-48 -16 -7 -30 -31 -30 -54 0 -23 -9 -36 -20 -29 -11 7 -21 -2 -22 -19 -3 -30
-8 -56 -18 -86 -3 -8 -4 -22 -2 -31 1 -8 -11 -20 -27 -27 -22 -8 -25 -21 -11
-47 19 -35 -10 -63 -68 -68 -28 -3 -37 -47 -13 -61 31 -19 26 -51 -8 -51 -18
0 -25 -12 -18 -30 7 -19 0 -30 -20 -30 -66 0 -58 89 20 232 42 76 99 181 127
233 86 164 240 360 240 306z m1591 -66 c-38 -175 -132 -417 -171 -443 -40 -27
-42 -26 -29 25 12 48 8 53 -44 54 -50 2 -52 4 -17 19 22 9 32 18 21 19 -10 0
-2 13 18 28 25 18 30 31 15 41 -24 14 8 112 37 112 12 0 22 24 50 125 2 8 5
23 7 34 2 16 29 25 109 38 9 2 11 -22 4 -52z m-2143 -145 c13 -13 9 -20 -13
-20 -18 0 -38 -19 -45 -42 -8 -22 -18 -37 -23 -32 -16 16 -102 -74 -110 -116
-5 -25 -22 -38 -44 -34 -20 4 -34 -5 -32 -20 9 -65 -2 -117 -22 -105 -12 7
-17 25 -11 40 6 15 2 33 -9 40 -17 10 -28 -32 -21 -76 1 -8 -16 -15 -38 -15
-22 0 -40 -10 -40 -21 0 -12 9 -16 20 -9 11 7 20 4 20 -6 0 -10 25 -15 55 -10
l55 9 -48 -27 c-27 -14 -63 -55 -80 -91 -18 -35 -42 -61 -55 -56 -30 11 -111
-66 -96 -90 6 -11 -5 -19 -25 -19 -20 0 -48 -19 -63 -42 -14 -23 -16 -36 -4
-29 11 7 21 3 21 -10 0 -13 -14 -18 -33 -11 -20 8 -43 -2 -61 -28 -34 -48 -96
-55 -78 -8 7 17 12 37 12 45 0 7 27 45 60 83 33 39 60 81 60 93 0 13 7 27 15
30 9 4 64 75 123 157 60 83 150 195 201 250 52 55 110 126 131 157 38 58 127
64 178 13z m2292 10 c21 -25 17 -30 -28 -30 -50 0 -66 19 -39 47 21 20 40 16
67 -17z m-13 -195 c-15 -80 -31 -158 -36 -175 -4 -16 -9 -39 -9 -50 -1 -11
-24 -21 -52 -23 -27 -1 -45 5 -40 13 6 9 0 20 -13 24 -24 8 19 62 68 84 20 10
20 14 0 24 -41 19 -30 88 15 88 34 0 36 6 17 49 -28 61 -10 111 39 111 36 0
37 -7 11 -145z m-1710 -67 c-1 -58 8 -100 25 -112 22 -16 21 -17 -6 -9 -22 7
-38 -3 -46 -28 -7 -21 -22 -36 -34 -34 -11 3 -26 -8 -31 -23 -7 -18 -2 -22 15
-12 16 10 22 6 16 -12 -5 -15 -31 -33 -57 -40 -27 -8 -38 -15 -24 -16 14 -1
25 -11 25 -21 0 -11 -13 -15 -30 -8 -16 6 -30 26 -30 44 -1 29 -3 29 -20 3
-15 -24 -19 -19 -20 21 0 28 17 70 38 92 27 29 32 50 19 74 -13 22 -12 33 3
33 12 0 20 11 17 25 -12 63 26 115 84 115 55 0 57 -3 56 -92z m792 -62 c-24
-48 -24 -61 2 -100 49 -75 39 -152 -16 -121 -80 45 -148 175 -92 175 13 0 18
6 11 13 -17 16 63 87 98 87 20 0 20 -11 -3 -54z m483 -70 c59 -36 108 -71 108
-78 0 -23 -108 -35 -143 -16 -49 26 -119 21 -177 -12 -39 -22 -42 -29 -15 -29
20 -1 53 10 75 24 32 20 48 20 80 0 24 -15 70 -21 115 -14 87 13 145 -58 145
-180 0 -74 -50 -137 -55 -70 -4 59 -48 92 -115 87 -33 -3 -71 -5 -85 -6 -57
-4 -20 -42 41 -42 163 0 225 -328 90 -470 l-66 -70 -90 27 c-49 14 -112 21
-140 14 -41 -10 -30 -17 64 -38 149 -33 173 -63 117 -142 -58 -81 -113 -78
-211 11 -44 40 -125 93 -181 118 -139 63 -154 86 -137 208 11 84 48 148 48 83
0 -10 19 -24 41 -31 29 -10 38 -24 28 -47 -35 -85 -37 -114 -6 -88 32 26 77 0
77 -46 0 -45 61 -21 75 29 16 62 19 76 23 102 1 11 15 20 31 20 16 0 39 18 51
40 13 23 42 40 71 40 54 0 63 36 27 103 -12 22 -17 45 -11 51 13 13 75 -108
71 -139 -10 -83 33 -100 102 -41 83 72 44 152 -85 176 -42 8 -80 23 -86 32
-16 25 -84 22 -100 -4 -10 -15 0 -18 28 -9 36 12 43 6 43 -36 0 -28 9 -56 20
-63 36 -22 21 -50 -28 -50 -26 0 -58 -13 -72 -30 -57 -68 -99 -16 -100 124 0
35 9 69 20 76 11 7 20 29 20 50 0 20 10 40 21 44 31 10 -66 116 -107 116 -24
0 -34 17 -34 59 0 32 -9 64 -20 71 -41 25 -18 50 35 40 46 -9 48 -7 15 8 -44
21 -28 28 52 23 28 -2 63 11 78 30 37 44 114 27 252 -55z m-752 29 c0 -9 31
-51 70 -95 38 -44 69 -100 70 -124 0 -79 59 -88 65 -9 2 26 11 35 24 24 12
-10 53 -21 91 -24 42 -4 68 -17 65 -31 -2 -14 8 -20 23 -14 29 11 65 -26 44
-47 -7 -6 -32 -13 -55 -15 -25 -2 -46 -18 -49 -38 -3 -20 -18 -46 -34 -59 -39
-31 -65 -140 -31 -129 14 5 41 -5 61 -22 45 -39 48 -91 4 -74 -17 7 -38 12
-47 12 -38 0 -96 77 -106 141 -19 119 -69 219 -110 219 -48 0 -85 38 -85 88 0
22 -19 59 -41 84 -37 38 -39 49 -16 86 26 42 57 56 57 27z m-2790 -254 c-150
-232 -350 -642 -350 -718 0 -9 -13 -45 -29 -80 -15 -35 -53 -156 -84 -269 -57
-208 -91 -251 -47 -58 31 132 160 538 180 564 9 11 22 52 30 90 8 39 31 93 50
120 33 47 65 126 70 170 3 36 56 130 73 130 8 0 11 12 5 27 -6 15 4 33 21 40
17 6 31 26 31 42 0 17 10 31 21 31 12 0 16 9 9 20 -11 18 111 86 126 71 3 -4
-44 -85 -106 -180z m3918 66 c-9 -26 -13 -59 -11 -74 3 -15 -5 -24 -18 -19
-27 9 -46 128 -29 174 21 54 77 -25 58 -81z m-1168 -19 c0 -45 -9 -98 -21
-119 -20 -39 7 -58 30 -21 18 29 109 38 130 13 32 -39 -32 -111 -98 -111 -72
0 -163 99 -147 160 8 31 17 36 37 19 20 -17 23 -12 15 20 -14 54 10 146 35
131 10 -7 19 -48 19 -92z m-720 -98 c20 -11 69 -24 109 -29 39 -5 101 -32 138
-60 66 -50 173 -70 173 -31 0 11 14 20 30 20 17 0 30 -8 30 -18 0 -10 20 -13
45 -8 41 10 42 8 14 -22 -35 -37 -106 -45 -239 -25 -49 7 -79 8 -65 1 14 -6
20 -20 13 -31 -6 -10 3 -41 21 -68 30 -46 30 -49 -9 -49 -22 0 -40 8 -40 19 0
11 -24 11 -60 1 -35 -10 -64 -9 -71 1 -6 11 5 19 25 19 26 1 29 5 10 17 -21
13 -20 21 3 41 33 27 30 113 -5 148 -17 17 -20 8 -11 -38 9 -43 3 -71 -20 -94
-18 -18 -32 -37 -32 -43 3 -45 -3 -54 -31 -43 -17 7 -49 -1 -71 -16 -39 -27
-39 -29 -4 -38 40 -10 -33 -16 -220 -18 -72 -1 -106 -8 -90 -19 15 -9 53 -11
85 -5 39 8 53 5 43 -10 -8 -13 4 -23 33 -24 40 -1 39 -4 -12 -19 -35 -10 -73
-9 -95 3 -20 11 -37 13 -37 5 0 -8 -11 -4 -24 9 -32 32 -56 30 -56 -5 0 -19
-12 -25 -31 -18 -18 7 -42 -3 -57 -23 -19 -27 -40 -32 -84 -22 -40 9 -49 7
-29 -6 34 -23 -62 -55 -98 -33 -11 7 -21 3 -21 -10 0 -13 -14 -18 -31 -11 -17
6 -26 3 -20 -7 12 -18 -25 -52 -39 -37 -32 32 45 166 97 170 32 2 68 19 82 38
18 24 40 30 78 21 69 -18 69 2 0 28 -45 17 -62 13 -105 -27 -71 -65 -121 -50
-118 34 1 36 -4 76 -12 89 -20 33 -53 29 -40 -6 12 -31 -63 -21 -83 11 -30 49
125 87 376 92 184 4 285 16 365 43 60 20 110 31 110 24 0 -20 94 -14 113 7 10
11 7 13 -7 5 -13 -8 -29 -5 -36 7 -18 29 -165 25 -332 -10 -165 -35 -199 -26
-86 23 130 57 362 82 428 47z m909 -216 c-8 -30 -18 -65 -20 -79 -12 -58 -61
-145 -81 -145 -43 0 -200 -136 -238 -207 -51 -95 -70 -93 -48 4 30 134 52 173
145 263 50 47 86 95 80 105 -8 12 -17 12 -24 0 -7 -11 -35 -27 -62 -35 -27 -8
-61 -28 -76 -43 -30 -29 -105 -37 -105 -11 0 9 -12 33 -27 54 -24 32 -25 24
-9 -61 10 -55 23 -130 29 -169 l11 -70 -35 48 c-20 26 -40 94 -45 150 -5 60
-24 119 -46 143 -37 40 -36 40 98 41 74 0 176 5 227 9 51 5 89 2 84 -6 -5 -8
5 -15 22 -15 17 0 31 10 31 22 0 30 88 99 97 76 4 -11 0 -44 -8 -74z m662 -6
c7 -12 3 -32 -10 -45 -22 -22 -60 10 -61 52 0 23 56 18 71 -7z m-2456 -90 c52
-33 60 -128 20 -221 -24 -54 -75 -88 -75 -49 0 10 -30 11 -70 2 -43 -10 -70
-8 -70 4 0 11 -10 16 -21 12 -12 -4 -21 -15 -19 -24 5 -27 -47 -52 -61 -30 -7
11 -27 14 -45 7 -19 -7 -29 -21 -23 -31 6 -10 -9 -19 -35 -19 l-46 -2 46 -18
c63 -25 34 -66 -37 -52 -61 12 -85 -16 -58 -67 19 -37 -29 -110 -60 -91 -11 7
-21 4 -21 -8 0 -11 9 -21 20 -21 42 0 18 -40 -25 -42 -27 -1 -34 -6 -17 -12
21 -8 15 -19 -20 -40 l-48 -28 53 8 c47 7 51 4 31 -28 -18 -29 -28 -31 -52
-12 -23 19 -26 19 -15 -1 22 -36 -18 -31 -56 6 -40 41 -39 61 4 105 83 87 106
121 90 131 -53 33 -145 -104 -141 -208 4 -86 -3 -110 -40 -139 -24 -20 -44
-47 -44 -59 0 -13 -9 -18 -20 -11 -11 7 -20 1 -21 -14 0 -14 -27 -52 -60 -84
-32 -32 -59 -70 -59 -84 0 -14 -25 -45 -55 -68 -50 -40 -52 -45 -20 -69 19
-14 29 -31 21 -38 -7 -7 2 -14 21 -15 75 -6 83 -10 80 -43 -1 -19 4 -35 12
-35 8 0 15 -11 15 -25 1 -14 8 -41 16 -60 19 -47 -21 -45 -84 5 -28 22 -60 34
-71 27 -12 -7 -7 -20 12 -31 54 -30 39 -90 -27 -113 -70 -25 -80 -48 -15 -39
33 4 44 -4 42 -29 -4 -47 24 -44 60 6 20 29 33 35 43 18 8 -13 -3 -41 -26 -63
-56 -57 -290 25 -251 88 5 9 -1 16 -13 16 -12 0 -16 10 -8 23 25 41 20 241 -7
252 -63 24 -27 102 50 110 l75 8 -64 16 -63 15 48 53 c27 29 49 59 49 67 0 8
15 9 33 2 22 -8 29 -5 20 10 -8 12 11 47 42 78 31 31 69 83 85 116 15 33 41
76 57 95 16 19 23 41 16 49 -7 7 1 34 18 60 17 26 29 58 26 71 -7 42 106 255
135 255 16 0 28 10 28 21 0 12 -9 16 -20 9 -11 -7 -20 -4 -20 7 0 22 61 49 76
33 6 -5 0 -10 -14 -10 -13 0 -19 -9 -12 -20 7 -11 -7 -47 -30 -80 -38 -53 -39
-64 -14 -101 32 -44 56 -10 64 91 1 22 12 38 24 36 12 -3 33 8 47 25 17 20 17
29 1 29 -12 0 -22 10 -22 21 0 12 9 16 20 9 11 -7 20 -5 20 4 0 9 29 28 65 43
118 48 158 71 212 122 29 27 59 48 66 46 7 -2 29 15 49 37 40 44 101 39 183
-14z m-345 -28 c12 -20 -96 -77 -210 -111 -79 -24 -10 48 90 94 94 42 103 44
120 17z m1572 -43 c11 -20 11 -37 2 -37 -10 0 -8 -31 4 -70 12 -38 28 -70 36
-70 27 0 -54 -120 -89 -131 -19 -7 -86 12 -148 42 -109 51 -116 52 -180 22
-107 -51 -175 -16 -138 71 15 35 39 69 54 73 15 5 48 30 75 56 49 49 95 64 70
24 -10 -16 3 -19 44 -8 32 8 63 23 69 33 7 11 36 0 67 -24 30 -23 59 -38 64
-33 6 6 -14 29 -43 52 l-53 42 73 -3 c48 -2 80 -15 93 -39z m800 -27 c0 -11
-19 -23 -41 -26 -31 -5 -38 1 -28 26 13 34 69 34 69 0z m-1327 -90 c-4 -45
-12 -48 -55 -20 -27 18 -27 22 0 40 45 29 58 24 55 -20z m-144 -19 c-7 -11
-27 -21 -43 -21 -16 0 -50 -19 -74 -41 -112 -105 -287 -147 -538 -129 -256 19
-251 40 9 40 199 0 210 2 385 84 216 101 294 121 261 67z m1143 -53 l43 -12
-58 -108 c-32 -59 -53 -121 -46 -139 9 -23 22 -11 47 45 48 107 105 154 164
134 62 -21 68 -23 129 -25 70 -4 49 -23 -36 -34 -102 -13 -166 -70 -173 -156
-7 -82 -4 -80 -72 -54 -34 13 -72 12 -116 -4 l-66 -24 110 -18 c114 -18 194
-21 280 -10 38 5 49 -1 44 -28 -3 -19 4 -35 15 -35 37 0 22 90 -19 115 -26 17
-40 18 -40 4 0 -30 -35 -5 -61 42 -16 31 -14 39 12 39 21 0 29 -11 22 -29 -7
-19 -1 -25 17 -18 31 12 210 -87 210 -115 0 -11 23 -28 51 -38 79 -31 153
-208 145 -353 l-6 -114 -60 108 c-33 60 -66 127 -73 149 -14 43 -27 -1 -19
-65 2 -15 -9 -19 -30 -11 -24 9 -30 5 -20 -11 8 -12 27 -23 43 -23 35 0 39
-39 4 -42 -15 -1 -13 -6 5 -13 36 -14 140 -122 140 -146 0 -9 14 -30 31 -48
24 -23 25 -31 5 -31 -16 0 -18 -6 -6 -15 56 -42 75 -85 50 -115 -20 -25 -19
-30 8 -30 42 0 75 -81 47 -115 -14 -17 -13 -25 3 -25 25 0 30 -73 5 -88 -9 -6
-12 -38 -7 -71 7 -53 2 -61 -39 -63 -36 -2 -38 -5 -11 -12 29 -7 34 -22 24
-67 -7 -31 -3 -75 9 -98 19 -35 17 -41 -16 -41 -34 0 -72 62 -65 106 2 10 -7
11 -19 4 -11 -8 -43 10 -69 38 -26 29 -37 52 -24 52 18 1 18 4 0 16 -51 32
-68 122 -27 144 32 17 40 11 51 -40 13 -61 43 -94 65 -71 7 7 -3 43 -23 79
-47 87 -36 144 26 137 40 -5 43 -1 22 25 -13 16 -20 50 -13 75 11 43 10 44
-18 6 -16 -21 -29 -50 -29 -65 0 -64 -45 -13 -118 136 -74 149 -78 165 -51
206 35 54 5 172 -44 172 -21 0 -26 12 -17 40 7 22 5 40 -4 39 -37 -1 -166 -73
-153 -85 8 -8 3 -14 -10 -14 -13 0 -23 9 -23 20 0 11 -10 20 -23 20 -14 0 -10
-15 10 -37 51 -56 41 -64 -67 -60 -102 3 -146 60 -70 90 16 6 25 19 19 28 -5
9 10 35 34 58 24 22 37 47 28 56 -9 8 -20 4 -25 -10 -13 -36 -40 -31 -88 17
-56 56 -76 30 -21 -29 43 -46 42 -113 -1 -113 -12 0 -16 -22 -11 -50 6 -34 1
-50 -19 -50 -16 0 -23 9 -17 19 7 10 -24 30 -68 43 -45 13 -81 34 -81 46 0 12
-9 9 -20 -8 -18 -27 -22 -27 -40 0 -11 17 -20 20 -20 8 -1 -106 399 -210 571
-147 45 17 148 -27 113 -48 -144 -90 -676 1 -755 129 -7 10 -18 15 -26 10 -17
-10 -11 90 9 178 13 57 101 192 133 207 8 3 15 19 15 35 0 15 9 28 20 28 34 0
22 37 -15 46 -20 5 -9 10 25 12 46 2 53 7 30 22 -26 17 -25 19 4 20 23 0 31
11 23 30 -6 16 -19 25 -29 19 -10 -6 -18 -7 -18 -2 0 5 -5 24 -12 41 -7 18 -2
32 12 32 29 0 129 77 133 102 1 10 3 27 5 38 2 23 32 25 96 8z m-356 -59 c12
7 22 4 22 -8 0 -11 -15 -21 -34 -21 -30 0 -30 -3 3 -27 37 -27 60 -173 27
-173 -9 0 -16 -18 -16 -40 0 -22 -9 -40 -20 -40 -11 0 -20 -13 -20 -29 0 -40
-83 -114 -114 -102 -14 5 -26 1 -26 -10 0 -58 -177 12 -340 136 -103 78 -158
87 -92 15 26 -27 57 -50 69 -50 13 0 23 -11 23 -25 0 -32 216 -166 236 -146 6
6 22 1 37 -12 94 -77 -68 -64 -166 14 -40 32 -98 69 -128 82 -84 36 -162 153
-175 262 -6 53 -24 105 -42 119 -45 33 -5 67 53 45 25 -10 45 -26 45 -35 0
-18 144 0 204 25 39 17 176 -23 176 -51 0 -20 68 -23 133 -6 23 6 53 35 66 64
18 38 28 45 40 25 9 -14 27 -20 39 -12z m-898 -161 c0 -28 5 -29 34 -5 29 24
32 23 20 -8 -12 -34 42 -155 71 -155 8 0 15 -14 15 -31 0 -17 22 -52 48 -79
26 -26 44 -51 39 -56 -4 -5 6 -20 23 -34 16 -14 30 -41 30 -61 0 -20 9 -42 20
-49 28 -17 25 -84 -5 -98 -20 -10 -20 -14 0 -24 14 -6 25 -25 25 -42 0 -19 11
-26 32 -18 17 7 49 12 70 12 33 0 35 5 14 39 -35 56 -3 75 41 24 21 -24 61
-43 90 -43 55 0 72 -29 28 -47 -15 -6 -11 -10 10 -11 23 -1 35 13 35 39 0 23
8 36 18 30 10 -6 22 0 27 14 18 55 74 -37 58 -97 -10 -35 -21 -47 -30 -33 -20
33 -73 8 -73 -34 0 -28 12 -33 55 -25 69 12 54 -6 -20 -24 -47 -11 -55 -6 -55
29 0 29 -11 40 -35 35 -24 -5 -35 -26 -35 -65 0 -75 -39 -87 -80 -23 -37 55
-26 97 21 79 20 -8 29 2 29 31 0 23 1 49 2 57 0 7 -9 17 -20 21 -12 4 -22 -7
-22 -25 0 -24 -12 -29 -50 -19 -38 9 -50 4 -50 -20 0 -19 -17 -32 -42 -32 -31
0 -39 9 -30 33 24 63 -79 145 -159 127 -38 -9 -70 -12 -71 -8 -2 4 -4 17 -5
27 -2 11 -20 39 -41 64 -57 66 -110 201 -118 298 -4 48 -18 90 -32 95 -26 9
-19 -148 9 -221 8 -20 -1 -35 -25 -41 -29 -7 -27 -10 9 -12 25 -1 45 -10 45
-19 0 -10 27 -51 60 -93 77 -97 78 -91 -47 -188 -105 -81 -136 -97 -130 -67
11 51 -118 225 -166 225 -13 0 -6 -20 17 -45 38 -42 95 -175 75 -175 -5 0 -28
19 -51 42 -32 32 -57 39 -102 30 -39 -8 -69 -2 -89 18 -18 18 -21 30 -7 30 12
0 18 7 13 16 -16 25 11 51 94 90 43 20 73 41 67 47 -6 6 -32 -3 -57 -21 -70
-49 -96 -41 -79 23 16 61 80 82 150 49 23 -11 59 -26 79 -32 20 -7 41 -28 46
-47 6 -19 32 -51 58 -71 l49 -36 -21 56 c-12 30 -32 67 -45 83 -12 15 -26 115
-31 223 l-7 195 53 13 c29 7 48 21 42 31 -11 17 25 33 84 39 14 1 25 -13 25
-30z m-260 -188 c-27 -17 -27 -19 0 -20 24 -1 22 -7 -7 -29 -22 -17 -31 -38
-22 -53 11 -18 5 -21 -21 -11 -40 15 -14 -29 49 -84 27 -24 21 -26 -39 -15
-38 7 -82 14 -96 16 -14 1 -21 15 -15 29 5 15 -1 27 -15 28 -14 0 -9 11 11 27
19 14 35 32 35 39 0 31 73 93 109 93 34 -1 36 -4 11 -20z m1060 -129 c0 -20
-65 -71 -91 -71 -48 0 -33 31 26 54 30 12 57 23 60 24 3 1 5 -2 5 -7z m-1327
-381 c-9 -23 4 -30 53 -32 66 -2 176 -30 149 -39 -36 -10 -58 -14 -95 -16 -22
-2 -40 -16 -40 -33 0 -18 -18 -30 -45 -30 -36 -1 -39 -4 -15 -20 26 -17 25
-19 -5 -20 -19 0 -33 -10 -30 -22 3 -13 -8 -28 -23 -33 -22 -8 -26 7 -17 70 6
45 2 90 -9 101 -13 13 -7 34 17 60 44 49 76 56 60 14z m659 -135 c31 19 71 2
51 -22 -27 -32 -10 -53 40 -53 43 0 47 22 13 56 -19 19 -17 24 8 24 18 0 45 4
59 10 46 17 88 -22 61 -55 -32 -38 -9 -56 54 -44 51 10 51 10 5 -11 -26 -11
-54 -15 -63 -10 -10 6 -23 1 -30 -10 -7 -11 -21 -15 -32 -9 -10 6 -24 -5 -32
-25 -17 -45 -70 -86 -93 -71 -10 6 -3 19 14 29 50 27 44 83 -6 57 -78 -42
-106 -28 -72 37 27 53 27 60 -5 85 -30 24 -31 23 -8 -6 22 -28 22 -33 0 -30
-48 7 -73 33 -66 68 4 19 8 39 8 43 1 5 21 -9 44 -30 23 -21 46 -36 50 -33z
m-752 -20 c1 -36 1 -96 1 -135 l1 -70 37 45 c21 25 58 46 84 46 26 1 65 10 87
21 29 13 20 15 -37 7 -85 -13 -87 18 -3 39 28 7 69 31 91 53 41 41 132 56 108
17 -10 -15 0 -18 30 -8 52 16 161 -24 161 -60 0 -14 14 -36 30 -50 62 -52 -88
-124 -169 -81 -21 12 -68 20 -105 18 l-66 -3 60 -8 c136 -17 200 -135 66 -121
-28 3 -52 -11 -67 -40 -12 -25 -28 -39 -34 -33 -7 6 -10 -2 -8 -19 3 -16 25
-46 50 -67 39 -31 55 -65 61 -131 5 -43 76 -7 101 50 16 36 40 77 55 92 14 14
21 34 15 45 -23 36 -45 17 -58 -52 -7 -38 -16 -70 -20 -70 -4 0 -22 -5 -39
-12 -18 -7 -32 -2 -32 11 0 13 9 18 19 12 28 -18 69 69 44 94 -11 11 -15 34
-8 51 8 20 4 26 -12 16 -29 -18 -29 -7 -1 55 20 44 167 132 186 111 7 -7 29
-173 41 -308 5 -57 -36 -170 -62 -170 -7 0 -7 50 -1 112 10 99 8 108 -17 75
-15 -20 -28 -80 -28 -133 -1 -108 -28 -174 -71 -174 -114 0 -400 -544 -331
-629 43 -54 55 -266 19 -335 -12 -22 -8 -43 12 -63 17 -17 30 -49 30 -72 0
-22 10 -41 21 -41 12 0 17 -8 11 -17 -6 -9 21 -47 59 -84 71 -69 90 -111 41
-93 -15 6 -39 0 -52 -13 -20 -18 -23 -17 -12 2 8 14 6 25 -5 25 -10 0 -33 31
-51 70 -17 39 -47 102 -65 141 -34 73 -39 103 -46 239 -3 75 -5 77 -24 30 -23
-55 -9 -231 20 -267 11 -13 22 -45 26 -73 4 -27 18 -62 32 -76 43 -46 30 -79
-26 -69 -32 6 -66 -4 -92 -28 -42 -37 -42 -37 -28 33 8 39 18 128 22 200 l8
130 -38 -129 c-21 -72 -48 -133 -59 -137 -12 -4 -22 -19 -22 -34 0 -30 -69
-59 -98 -41 -28 17 -2 88 47 127 75 59 99 126 101 284 1 83 9 162 17 176 9 14
7 37 -4 51 -12 14 -16 45 -10 69 7 24 2 56 -9 69 -85 103 -29 232 87 203 42
-11 51 -8 39 12 -12 19 -3 23 37 16 56 -11 57 -9 58 109 0 29 7 50 15 45 8 -5
41 14 72 42 46 41 48 47 13 29 -30 -15 -45 -15 -45 -2 0 12 -13 21 -30 21 -20
0 -31 22 -32 65 -2 36 -7 49 -12 30 -5 -19 -16 -35 -25 -35 -30 0 -42 97 -22
174 10 42 27 110 38 151 10 41 13 75 5 75 -34 0 -84 -89 -92 -166 -5 -46 -14
-119 -20 -162 -8 -54 -2 -88 20 -112 27 -30 26 -35 -18 -56 -47 -21 -56 -36
-80 -147 -6 -29 -26 -58 -44 -65 -23 -9 -29 -4 -21 16 6 16 0 33 -12 37 -67
22 -42 283 37 386 138 181 180 411 73 407 -31 -2 -40 -7 -21 -12 32 -8 31
-138 -2 -166 -30 -26 -70 -86 -47 -73 14 9 25 6 25 -6 0 -11 -13 -21 -30 -21
-38 0 -38 9 8 135 21 58 32 105 24 105 -29 0 -102 -157 -102 -218 0 -34 -7
-62 -16 -62 -26 0 -77 71 -69 96 5 13 -1 24 -13 24 -12 0 -22 23 -22 50 0 28
10 50 22 50 15 0 16 8 4 25 -25 32 0 127 31 120 13 -3 23 4 23 15 0 11 15 20
34 20 26 0 28 6 11 23 -18 18 -32 16 -57 -5 -50 -41 3 56 82 150 74 89 90 90
90 7z m2092 10 c34 -23 54 -125 25 -125 -14 0 -7 -13 14 -29 22 -17 32 -30 23
-30 -8 -1 -6 -18 5 -40 14 -26 14 -43 1 -51 -11 -7 -20 -21 -20 -32 0 -11 8
-15 19 -9 18 11 47 -20 53 -59 2 -11 6 -29 8 -40 11 -47 -2 -70 -39 -70 -53 0
-65 27 -31 72 38 51 37 68 -5 68 -27 -1 -29 -4 -8 -18 21 -13 21 -21 3 -32
-41 -25 -83 40 -111 173 -47 217 -28 283 63 222z m-402 -80 c-15 -85 -88 -305
-110 -335 -8 -11 -20 -45 -28 -75 -15 -66 -46 -63 -255 28 -74 31 -146 57
-160 58 -65 1 -145 139 -81 139 8 0 55 36 104 80 102 92 94 89 328 130 99 16
183 35 189 40 23 23 27 5 13 -65z m-2782 -90 c-5 -58 -14 -120 -19 -139 -6
-19 4 -42 25 -54 29 -17 30 -21 5 -21 -17 -1 -46 26 -66 59 -31 52 -31 60 -4
60 22 0 31 20 31 68 0 64 16 132 31 132 3 0 2 -47 -3 -105z m3060 8 c6 -10 -6
-33 -26 -51 -31 -28 -39 -29 -48 -5 -18 46 49 96 74 56z m343 -53 c16 -38 38
-70 47 -70 28 0 13 -61 -19 -81 -40 -26 -61 -23 -58 6 9 65 -2 124 -18 99 -13
-21 -22 -20 -42 5 -21 25 -20 33 7 43 17 7 32 25 32 40 0 48 21 31 51 -42z
m-538 -165 c-8 -92 -42 -233 -63 -260 -6 -9 -129 56 -140 74 -5 10 25 61 67
115 42 53 87 117 101 141 38 71 47 53 35 -70z m-803 -77 c0 -21 12 -45 26 -54
17 -11 22 -44 14 -100 -27 -202 -28 -233 -7 -229 12 3 25 -4 29 -15 5 -11 -34
-21 -90 -22 -126 -3 -160 71 -57 124 49 26 57 41 49 84 -6 30 -2 69 7 87 13
23 9 36 -11 44 -22 8 -30 -2 -30 -37 0 -66 -41 -150 -73 -150 -20 0 -21 12 -7
51 29 74 25 89 -20 89 -40 0 -52 21 -27 46 7 8 25 4 38 -7 19 -16 29 -9 40 25
30 97 119 145 119 64z m-1190 -108 c24 -17 62 -100 46 -100 -53 1 -107 91
-104 174 l1 56 22 -60 c11 -33 27 -64 35 -70z m2159 25 c-48 -236 -59 -254
-123 -190 -41 42 68 256 136 265 2 0 -4 -34 -13 -75z m-829 -5 c7 -11 1 -21
-14 -21 -14 -1 -8 -9 14 -17 38 -15 38 -16 -5 -40 -42 -22 -45 -19 -45 37 0
60 26 81 50 41z m50 -106 c0 -55 -51 -102 -55 -51 -2 25 8 53 21 61 32 21 34
20 34 -10z m366 -92 c13 1 39 2 58 0 48 -3 23 -62 -26 -62 -21 0 -38 -9 -38
-20 0 -25 13 -25 62 1 29 16 46 13 70 -10 34 -34 18 -79 -23 -64 -14 6 -38 -4
-53 -22 -23 -28 -21 -31 14 -17 22 8 65 20 95 26 67 13 67 11 5 77 -60 66 -48
96 26 64 81 -34 93 -50 65 -84 -22 -26 -19 -31 19 -31 31 0 41 9 33 30 -13 34
4 38 47 10 22 -14 23 -19 4 -20 -15 0 -21 -9 -14 -20 7 -12 21 -15 31 -9 11 6
19 2 19 -8 0 -11 18 -26 40 -33 22 -7 35 -21 29 -31 -6 -11 -2 -19 10 -19 11
0 21 -9 21 -20 0 -11 -20 -20 -45 -20 -28 0 -100 -50 -185 -128 l-140 -129
-26 49 c-14 26 -30 48 -36 48 -6 0 -5 -8 1 -19 6 -10 2 -24 -9 -31 -11 -7 -26
2 -33 20 -7 18 -24 28 -39 22 -18 -7 -22 1 -13 24 11 30 8 31 -22 6 -49 -40
-83 -104 -48 -91 14 5 57 -13 94 -41 38 -27 84 -50 103 -50 44 0 28 -74 -19
-87 -24 -6 -21 -9 10 -11 23 -1 48 13 55 30 10 25 19 27 40 10 23 -19 27 -14
25 25 -2 27 -10 45 -18 40 -26 -16 -16 44 14 84 28 38 30 38 61 -6 18 -25 46
-45 62 -45 20 0 11 17 -26 49 l-56 48 62 27 c92 39 266 23 263 -24 -2 -22 -14
-32 -32 -24 -19 7 -24 2 -15 -13 8 -12 33 -23 55 -23 29 0 38 -9 30 -30 -7
-16 -2 -30 9 -30 11 0 15 -8 9 -19 -6 -10 6 -24 26 -30 64 -20 143 -106 148
-161 2 -28 13 -47 25 -43 12 5 21 -18 21 -54 -1 -35 8 -70 19 -78 11 -8 5 -15
-15 -15 -19 0 -34 -7 -33 -15 11 -70 -5 -128 -33 -117 -17 6 -27 5 -21 -4 5
-9 -27 -17 -72 -19 -65 -2 -82 4 -91 38 -8 31 -15 34 -27 14 -11 -18 -68 -28
-171 -31 -85 -3 -165 -9 -178 -13 -12 -5 -35 -1 -51 9 -21 13 -22 17 -2 18 15
0 21 8 15 18 -6 11 -47 16 -91 13 -44 -3 -80 1 -80 9 0 9 -20 21 -45 29 -44
13 -44 14 -5 31 39 17 39 17 -3 19 -46 1 -78 52 -46 72 10 6 19 21 19 33 0 12
-17 7 -38 -12 -37 -34 -42 -31 -135 61 -53 53 -127 107 -163 120 -37 13 -62
19 -57 13 14 -13 -160 -106 -198 -106 -44 0 -151 72 -134 90 8 9 0 11 -18 4
-20 -7 -38 1 -45 18 -7 17 -3 25 8 18 11 -7 20 1 20 18 0 17 -12 26 -26 21
-45 -18 -94 39 -105 123 -14 100 60 170 138 131 24 -11 77 -31 118 -43 78 -24
100 -45 40 -39 -19 2 -39 2 -45 0 -20 -8 -91 -23 -116 -26 -45 -3 -11 -45 36
-43 41 2 42 -1 13 -22 -68 -50 30 -131 153 -127 l104 3 -96 20 c-126 28 -139
139 -17 150 67 7 203 -43 203 -75 0 -21 200 -127 201 -106 1 8 10 -6 20 -32
11 -26 37 -51 59 -57 22 -6 35 -19 29 -28 -6 -10 -3 -18 8 -18 10 0 40 -22 66
-50 26 -27 58 -49 71 -50 13 0 31 -12 40 -27 9 -15 70 -40 136 -55 86 -20 119
-37 115 -58 -3 -23 18 -31 85 -32 50 -2 90 5 90 16 0 10 9 13 20 6 11 -7 20
-3 20 8 0 12 -25 18 -55 14 -30 -4 -44 -3 -30 2 14 5 25 17 25 28 0 24 135 7
170 -22 18 -15 31 -15 39 -1 18 28 -136 92 -285 117 -120 21 -318 133 -425
242 -17 18 -65 55 -105 82 -41 28 -74 57 -74 65 0 8 -17 15 -37 15 -219 0
-449 199 -304 263 32 14 54 33 48 41 -5 9 4 16 20 16 17 0 27 -15 24 -35 -3
-20 -20 -32 -38 -29 -18 3 -33 -4 -33 -15 0 -12 17 -21 38 -21 21 0 44 -11 50
-25 6 -14 7 -6 1 17 -9 37 -3 41 41 33 39 -8 46 -16 29 -36 -25 -31 8 -59 44
-37 16 10 20 4 12 -15 -11 -31 -3 -34 103 -40 53 -3 71 -57 20 -57 -10 0 -18
-9 -18 -21 0 -13 12 -14 35 -1 67 36 125 104 125 146 0 24 16 61 35 83 34 38
33 39 -3 26 -45 -17 -71 14 -73 87 -2 50 -2 49 -23 -7 -14 -40 -14 -63 2 -79
28 -28 29 -174 1 -174 -12 0 -16 9 -9 20 7 11 2 20 -11 20 -40 0 -142 83 -132
108 5 13 -10 25 -34 27 -66 5 -120 81 -84 117 37 37 51 35 53 -7 1 -20 10 -10
23 25 35 95 183 181 218 125 10 -17 20 -12 31 16 15 37 16 37 22 -7 4 -25 18
-44 30 -42z m1251 -169 c45 -56 23 -209 -38 -271 -68 -68 -118 -64 -104 7 7
36 -5 56 -48 84 -100 63 -204 308 -117 274 19 -7 28 -2 24 16 -4 15 -4 20 1
12 5 -8 25 -15 45 -15 20 0 64 -34 98 -75 l62 -75 -30 74 c-61 151 -39 223 30
99 33 -60 67 -118 77 -130z m-2229 55 c31 -80 -64 -228 -147 -228 -20 0 -48
-14 -62 -31 -23 -28 -20 -29 28 -7 29 14 59 19 66 11 16 -16 -34 -115 -52
-104 -7 5 -39 -31 -72 -80 -69 -103 -174 -131 -110 -30 10 17 26 23 34 14 9
-8 3 -24 -14 -36 -25 -17 -25 -19 1 -12 33 9 55 135 23 135 -11 0 -15 17 -9
39 6 25 21 34 41 26 20 -7 27 -4 18 11 -8 12 0 38 17 58 16 20 30 43 30 51 -1
31 126 154 146 141 13 -7 16 0 9 19 -12 31 -1 55 26 55 8 0 20 -14 27 -32z
m260 -21 c7 -18 7 -38 0 -45 -8 -7 -17 -2 -21 10 -5 12 -33 18 -63 13 -52 -9
-53 -9 -14 22 52 41 83 41 98 0z m-633 -77 c5 -60 -3 -62 -54 -11 -26 26 -31
42 -15 48 49 20 65 12 69 -37z m-95 -82 c0 -27 -14 -55 -31 -61 -42 -16 -46
-7 -25 69 20 73 56 68 56 -8z m525 4 c43 -33 45 -52 4 -52 -17 0 -53 -15 -80
-32 -58 -38 -61 -25 -15 54 39 66 43 67 91 30z m1972 -90 c14 -9 23 -38 20
-63 -5 -34 7 -54 40 -71 25 -13 56 -33 69 -46 12 -12 38 -22 58 -22 20 0 36
-8 36 -18 0 -10 28 -28 62 -40 43 -15 59 -31 51 -52 -7 -16 -3 -30 7 -30 10 0
14 -12 8 -27 -6 -15 6 -34 25 -41 31 -12 32 -17 6 -33 -24 -15 -23 -18 6 -19
19 0 34 -7 32 -15 -6 -31 34 -95 63 -101 67 -12 139 -50 129 -66 -6 -10 3 -18
20 -18 17 0 31 -9 31 -19 0 -10 75 -96 167 -190 167 -171 216 -244 79 -118
-41 37 -82 67 -91 67 -10 0 -29 11 -44 25 -61 60 -179 144 -208 150 -18 4 -67
12 -108 18 -81 13 -92 28 -45 67 44 36 37 65 -9 36 -21 -13 -43 -41 -48 -62
-8 -31 -22 -36 -62 -26 -32 8 -51 4 -51 -10 0 -12 -13 -17 -30 -11 -16 7 -30
2 -30 -9 0 -11 -9 -15 -20 -8 -11 7 -20 3 -20 -9 0 -11 -12 -21 -26 -21 -15 0
-46 -27 -71 -60 -38 -51 -163 -137 -163 -112 0 22 125 131 139 122 9 -5 15 6
14 25 -2 25 43 58 152 113 129 66 150 83 130 108 -13 16 -21 55 -18 87 4 37
-3 57 -20 57 -20 1 -19 6 3 20 24 16 21 19 -15 20 -41 0 -56 28 -47 85 1 8 -8
15 -21 15 -12 0 -43 23 -69 50 -25 28 -52 50 -60 50 -28 0 -104 107 -94 133 6
15 1 27 -10 27 -11 0 -25 14 -31 30 -13 33 21 39 64 12z m271 -93 c7 -28 8
-59 2 -69 -6 -9 -2 -23 10 -30 11 -7 20 -22 20 -35 0 -12 -21 -2 -47 22 -26
25 -59 42 -73 39 -43 -10 -44 40 -1 83 54 54 74 52 89 -10z m-1948 -394 c0
-22 -16 -53 -35 -68 -33 -25 -33 -26 3 -14 23 8 34 6 27 -5 -19 -30 45 -145
82 -148 18 -2 76 -4 128 -6 52 -2 95 -8 94 -14 -1 -27 -65 -87 -72 -68 -5 13
-54 18 -126 14 -130 -7 -259 72 -220 136 10 15 8 38 -5 52 -11 14 -13 26 -3
26 10 0 20 18 22 40 1 23 -5 36 -15 30 -10 -6 -16 6 -15 26 4 56 135 56 135
-1z m-954 -210 c-7 -19 -27 -49 -44 -67 -67 -68 -118 -135 -110 -144 5 -5 -9
-14 -31 -20 -67 -17 -48 31 49 126 50 49 90 100 90 114 0 14 13 26 29 26 20 0
25 -12 17 -35z m1347 -95 c24 -62 -10 -100 -51 -58 -20 21 -32 49 -27 63 13
35 64 31 78 -5z m-1628 -201 c29 -11 26 -100 -3 -118 -34 -20 -67 27 -54 77
14 56 15 57 57 41z m270 -114 c-39 -58 -61 -62 -90 -16 -35 56 19 111 78 79
36 -19 37 -25 12 -63z m250 60 c13 -39 -7 -95 -35 -95 -37 0 -76 55 -63 90 14
36 86 40 98 5z m221 -1 c5 -14 -2 -48 -17 -75 l-26 -49 -21 56 c-12 31 -22 65
-22 75 0 29 74 23 86 -7z"/>
<path d="M4219 3558 c-33 -61 -13 -65 41 -8 38 41 41 50 14 50 -18 0 -43 -19
-55 -42z"/>
<path d="M3285 3027 c-35 -15 -31 -60 7 -75 22 -9 29 -4 22 15 -6 16 -1 38 12
51 23 23 4 27 -41 9z"/>
<path d="M3182 2897 c-1 -19 -13 -39 -27 -45 -20 -10 -20 -14 0 -24 37 -17 30
-48 -10 -50 -21 -1 -25 -5 -10 -11 14 -6 19 -21 12 -34 -7 -13 7 -3 31 22 24
25 39 53 33 63 -6 10 3 23 19 29 17 7 30 27 30 45 0 26 -6 28 -28 10 -22 -18
-31 -18 -38 2 -7 17 -11 15 -12 -7z"/>
<path d="M2535 3297 c-54 -20 -76 -57 -33 -57 12 0 53 -15 91 -33 37 -18 74
-27 80 -21 6 7 -23 27 -66 46 -63 28 -70 36 -37 43 50 11 89 46 49 43 -16 0
-54 -10 -84 -21z"/>
<path d="M2880 3279 c0 -49 64 -145 80 -119 10 16 1 42 -21 66 -21 22 -33 48
-27 57 6 9 1 17 -11 17 -11 0 -21 -9 -21 -21z"/>
<path d="M2180 3160 c0 -12 26 -79 59 -150 36 -79 49 -130 35 -130 -13 0 8
-17 46 -38 80 -43 101 -38 54 14 -56 62 -118 224 -105 276 10 41 5 48 -39 48
-27 0 -50 -9 -50 -20z"/>
<path d="M1955 1758 c-19 -21 -30 -39 -25 -40 49 -11 89 -1 118 28 19 19 26
34 15 34 -11 0 -32 4 -46 8 -15 5 -43 -9 -62 -30z"/>
<path d="M1745 1246 c-38 -7 -43 -18 -32 -62 16 -68 27 -81 27 -34 0 20 15 53
33 73 18 21 30 36 25 34 -4 -1 -28 -6 -53 -11z"/>
<path d="M3400 984 c0 -22 78 -104 99 -104 36 0 9 71 -36 95 -56 29 -63 30
-63 9z"/>
<path d="M3633 848 c11 -28 7 -32 -25 -19 -21 9 -56 18 -78 21 -23 3 -26 1 -6
-4 18 -5 43 -21 56 -36 13 -15 35 -23 50 -17 15 5 31 -6 37 -27 5 -20 8 -5 7
32 -2 38 -15 73 -29 77 -17 6 -21 -3 -12 -27z"/>
</g>
</svg>
