<?xml version="1.0" standalone="no"?>
<!DOCTYPE svg PUBLIC "-//W3C//DTD SVG 20010904//EN"
 "http://www.w3.org/TR/2001/REC-SVG-20010904/DTD/svg10.dtd">
<svg version="1.0" xmlns="http://www.w3.org/2000/svg"
 width="300.000000pt" height="298.000000pt" viewBox="0 0 300.000000 298.000000"
 preserveAspectRatio="xMidYMid meet">
<metadata>
Created by potrace 1.10, written by Peter Selinger 2001-2011
</metadata>
<g transform="translate(0.000000,298.000000) scale(0.050000,-0.050000)"
fill="#000000" stroke="none">
<path d="M2868 5636 c-132 -80 -176 -96 -316 -113 -314 -39 -626 -280 -721
-556 -42 -121 -69 -169 -104 -185 -26 -11 -47 -30 -47 -40 0 -11 -45 -71 -99
-133 -55 -62 -109 -144 -122 -181 -12 -37 -30 -68 -40 -68 -26 0 -284 -273
-317 -337 -16 -29 -46 -65 -67 -81 -68 -48 -114 -180 -115 -328 0 -82 -16
-183 -40 -255 -82 -242 -71 -394 36 -493 59 -54 64 -118 24 -288 l-27 -112 86
-103 c143 -170 401 -262 401 -143 0 22 27 64 61 94 71 64 78 159 10 153 -22
-2 -52 13 -66 35 -25 35 -31 36 -71 8 -94 -66 -105 13 -14 100 33 32 60 73 60
91 0 19 20 59 44 89 l43 55 37 -44 c22 -28 36 -78 36 -129 0 -132 100 -188
141 -78 28 71 16 270 -16 281 -14 5 -25 -6 -25 -23 0 -53 -38 -36 -51 23 -20
87 -26 98 -27 50 -2 -46 -42 -65 -42 -20 1 52 36 80 88 71 41 -8 52 -3 52 27
0 20 7 37 16 37 8 0 32 29 53 65 21 36 69 100 107 143 158 178 214 498 123
709 l-29 67 125 113 c88 80 139 146 174 226 56 130 91 164 91 88 0 -74 94
-244 162 -293 79 -56 73 -101 -29 -206 l-88 -90 5 -366 c3 -223 14 -389 29
-425 19 -48 17 -88 -10 -206 -25 -113 -27 -161 -11 -209 48 -137 -18 -259
-247 -455 -197 -169 -312 -428 -361 -813 -20 -166 -38 -226 -96 -330 -100
-181 -105 -502 -10 -620 121 -151 371 -195 510 -91 l85 63 0 160 c1 88 11 193
22 234 13 49 14 98 2 140 l-19 66 -2 -76 c-2 -94 -42 -80 -42 15 0 42 12 71
31 79 17 6 26 20 19 31 -6 11 51 87 127 169 202 218 285 363 295 518 10 166
50 302 103 359 59 63 72 146 39 254 -28 88 -27 90 59 250 58 108 86 186 87
237 0 71 3 74 43 53 23 -13 73 -18 110 -12 166 27 361 -268 288 -434 -65 -149
-85 -284 -53 -361 19 -45 24 -144 19 -348 -6 -229 -1 -298 24 -345 17 -33 25
-69 18 -81 -16 -25 84 -173 135 -200 44 -24 227 -83 366 -118 126 -32 311 43
309 125 -2 43 -2 44 -21 5 -14 -30 -16 -19 -9 42 13 106 -180 284 -242 222 -6
-6 -28 7 -49 28 -43 43 -50 66 -13 48 14 -7 8 1 -14 19 -38 30 -74 39 -127 32
-19 -2 -17 11 8 49 68 104 162 113 139 13 -10 -46 -8 -48 11 -16 12 21 25 70
29 110 6 68 16 119 71 358 12 52 21 118 21 145 -4 523 1 484 -72 575 -48 62
-70 114 -80 190 -10 85 -32 131 -109 230 -91 118 -96 131 -100 260 -4 143 -37
268 -115 441 l-48 107 86 83 c97 95 148 190 173 325 25 131 54 151 67 45 17
-154 61 -226 173 -287 112 -61 117 -73 69 -169 -22 -44 -35 -130 -39 -258 l-6
-192 73 -107 c40 -59 91 -114 113 -122 38 -14 36 -18 -23 -49 -121 -62 -90
-180 62 -234 42 -15 96 -55 119 -88 210 -305 573 -415 536 -163 -3 20 14 50
36 66 49 34 54 101 12 160 -26 38 -26 46 0 67 17 14 30 38 30 53 0 16 20 49
45 74 68 68 144 344 126 458 -36 230 -169 431 -331 498 -237 99 -269 131 -309
306 -15 63 -107 184 -134 176 -9 -3 -17 3 -17 12 0 10 -23 40 -51 68 -44 44
-48 60 -34 128 30 143 2 275 -70 339 -36 31 -65 69 -65 83 0 14 -22 36 -50 49
-27 12 -50 30 -50 39 0 9 -11 17 -26 17 -14 0 -41 18 -59 40 -24 27 -59 40
-113 40 -49 0 -82 11 -89 28 -19 52 -192 136 -319 156 -218 34 -539 40 -586
12z m401 -41 c-5 -14 -30 -35 -54 -45 -25 -11 -63 -49 -85 -85 -27 -44 -52
-62 -77 -56 -27 6 -33 0 -24 -25 7 -18 7 -27 -1 -19 -7 7 -51 -18 -97 -56 -86
-70 -111 -71 -111 -6 0 44 137 176 184 176 18 1 39 18 45 38 7 22 51 50 106
69 118 39 126 40 114 9z m152 -96 c49 -26 100 -124 111 -212 11 -90 84 -201
153 -232 69 -31 69 -37 -4 -91 -77 -57 -81 -56 -82 21 -1 49 -5 56 -16 28 -8
-21 -13 -63 -11 -95 3 -43 -13 -72 -64 -117 -37 -33 -68 -69 -68 -80 0 -33
-28 -25 -65 18 -32 38 -30 42 28 83 51 36 64 39 81 16 16 -23 18 -23 10 2 -5
17 4 45 20 63 35 40 55 257 24 257 -13 0 -17 -15 -10 -33 8 -20 -3 -48 -29
-72 -40 -37 -40 -40 -5 -66 29 -21 31 -31 11 -52 -17 -17 -25 -18 -25 -2 0 35
-77 59 -210 63 -101 3 -154 83 -97 146 31 33 31 36 0 36 -18 0 -33 8 -33 17 0
10 22 13 49 8 41 -8 46 -16 32 -53 -20 -52 8 -112 51 -112 20 0 27 13 21 35
-6 19 -16 64 -23 99 -8 41 -22 60 -39 54 -14 -6 -30 7 -36 30 -6 22 1 44 15
49 45 17 112 -10 108 -45 -2 -17 1 -45 8 -62 6 -16 15 -48 18 -70 7 -41 96
-71 96 -31 0 11 14 21 30 21 17 0 30 14 30 30 0 20 -20 30 -61 30 -77 0 -76
61 1 82 l50 14 -55 2 c-30 1 -55 11 -55 22 0 11 -13 20 -30 20 -19 0 -30 20
-30 55 -1 43 -5 48 -20 25 -16 -24 -19 -22 -20 13 0 24 -11 48 -25 53 -15 6
-5 18 25 30 65 28 94 28 141 3z m248 -26 c39 -28 -31 -107 -72 -81 -34 21 -16
52 23 42 48 -12 50 -7 9 35 -39 38 -11 41 40 4z m-1156 -103 c27 -27 21 -30
-54 -30 -72 0 -80 4 -59 30 14 17 38 30 54 30 16 0 42 -13 59 -30z m1423 -20
c73 -39 94 -61 95 -101 1 -61 -64 -54 -200 21 -44 24 -107 51 -138 58 -64 15
-62 29 7 42 25 5 50 14 56 19 23 23 90 9 180 -39z m-1187 -29 c54 -103 21
-189 -64 -170 -15 3 -19 2 -10 -3 9 -5 13 -39 9 -76 l-8 -66 -52 52 c-54 54
-79 122 -44 122 11 0 20 20 20 44 0 35 88 156 113 156 3 0 20 -27 36 -59z
m328 -51 c-6 -86 -81 -164 -176 -183 -116 -23 -66 96 86 204 86 62 95 60 90
-21z m-642 -9 c40 -11 69 -11 76 0 6 11 22 19 35 19 17 -1 16 -6 -2 -17 -15
-10 -22 -38 -16 -70 11 -63 18 -62 -95 -12 -152 67 -151 124 2 80z m1201 -71
c13 -27 32 -50 44 -50 11 0 20 -9 20 -20 0 -11 -13 -20 -29 -20 -32 0 -91 74
-91 114 0 43 32 29 56 -24z m279 -30 c31 0 37 -11 30 -48 -5 -26 1 -54 14 -61
12 -8 21 -7 19 3 -15 86 39 113 105 53 43 -38 50 -156 12 -198 -14 -15 -37
-42 -52 -60 -34 -40 -40 -34 -62 73 -18 86 -18 86 -15 14 1 -41 -4 -80 -12
-88 -8 -8 -14 0 -14 19 0 18 -10 33 -22 33 -12 0 -17 14 -10 31 6 18 3 26 -8
19 -26 -16 -60 74 -60 159 0 51 -8 66 -34 64 -19 -2 -38 14 -42 35 -8 35 -4
35 52 -5 33 -24 78 -43 99 -43z m-1703 -30 c7 -46 -45 -150 -75 -150 -15 0
-13 10 3 30 15 18 21 58 14 98 -9 55 -5 67 21 63 17 -2 34 -21 37 -41z m268
-15 c0 -9 8 -13 17 -7 81 50 153 -328 75 -394 -100 -86 -293 -141 -323 -93 -7
12 -26 17 -41 11 -39 -15 -36 46 4 90 42 47 88 27 89 -39 2 -47 4 -48 18 -13
9 22 12 47 7 55 -4 8 6 15 23 15 17 0 31 -9 31 -20 0 -11 36 -20 80 -20 44 0
80 10 80 22 0 12 -11 18 -25 13 -14 -5 -37 6 -51 23 -15 18 -21 21 -14 7 16
-31 13 -31 -90 5 -46 16 -93 24 -104 18 -27 -17 -116 72 -116 116 0 21 14 42
30 49 17 6 30 24 30 39 0 78 138 185 210 163 39 -12 70 -30 70 -40z m576 -66
c2 -28 13 -69 25 -90 14 -28 14 -39 -1 -39 -13 0 -17 -9 -10 -20 18 -30 -5
-24 -65 15 -51 33 -52 33 -40 0 10 -25 4 -35 -21 -36 -30 0 -30 -4 5 -30 21
-16 29 -29 18 -29 -12 0 -41 18 -66 39 -35 30 -50 34 -70 15 -30 -27 65 -79
199 -107 87 -19 115 -78 35 -75 -25 0 -45 -7 -45 -18 0 -10 27 -15 60 -10 70
11 75 -9 30 -120 l-30 -74 39 50 c22 28 40 67 41 87 0 27 10 34 34 24 30 -11
30 -8 -3 27 -70 78 -27 103 96 55 60 -24 106 -46 103 -50 -4 -3 6 -37 22 -74
49 -119 37 -225 -35 -292 -63 -59 -105 -64 -57 -7 14 16 20 30 14 30 -6 0 -26
6 -45 13 -28 11 -31 4 -20 -47 13 -61 -32 -110 -60 -65 -6 10 -1 19 11 19 12
0 17 9 9 21 -8 14 -21 14 -41 -2 -32 -28 -88 6 -88 53 0 16 -9 28 -19 28 -11
0 -15 13 -9 28 6 15 1 34 -12 42 -13 8 -27 -3 -34 -28 -6 -23 -19 -37 -28 -31
-10 6 -18 2 -18 -10 0 -11 13 -21 28 -21 15 0 33 -14 40 -32 18 -47 15 -68
-11 -68 -13 0 -18 5 -12 12 7 6 -19 39 -57 72 -44 39 -63 69 -52 83 20 27 -20
182 -41 161 -18 -18 -76 30 -73 60 10 86 -4 132 -42 132 -51 0 -51 -31 -1 -74
47 -40 32 -79 -16 -42 -28 22 -30 22 -10 -4 12 -16 29 -59 36 -95 8 -36 22
-65 33 -65 10 0 18 -14 18 -31 0 -16 14 -35 30 -42 54 -21 31 -39 -55 -43 -60
-3 -76 1 -56 14 26 17 25 24 -2 56 -79 93 -97 294 -35 409 29 55 54 45 45 -18
-7 -47 -4 -44 19 15 31 81 26 100 -27 100 -44 0 -47 15 -19 89 17 45 84 76 78
36 -2 -8 -2 -35 0 -60 2 -50 62 -64 62 -15 0 17 -10 30 -21 30 -12 0 -16 9 -9
21 20 31 76 14 117 -36 20 -25 44 -40 55 -34 10 6 18 2 18 -10 0 -11 9 -21 21
-21 14 0 14 12 0 39 -12 21 -18 50 -14 65 3 14 3 19 -2 11 -5 -8 -22 -15 -40
-15 -27 0 -26 6 5 40 48 53 60 50 66 -11z m-941 -54 c-6 -99 -61 -122 -71 -30
-5 39 2 55 25 55 17 0 30 7 29 15 -4 24 1 45 12 45 5 0 7 -38 5 -85z m1333
-66 c13 -35 2 -41 -101 -58 -87 -14 -116 3 -95 56 20 54 175 55 196 2z m303
-54 c-6 -47 -15 -165 -20 -263 -10 -178 -40 -261 -103 -286 -40 -15 -61 9 -32
38 29 29 31 134 4 176 -14 21 -16 11 -8 -34 24 -126 -45 -164 -89 -50 -54 138
-12 302 88 348 27 12 49 29 49 37 0 24 82 119 103 119 11 0 15 -35 8 -85z
m513 41 c-13 -13 -24 -49 -24 -80 0 -64 -12 -69 -62 -24 -33 30 -31 35 29 88
59 53 108 67 57 16z m-2165 -73 c28 -26 48 -60 45 -75 -3 -15 6 -28 20 -29 15
0 7 -16 -18 -37 -24 -20 -39 -43 -32 -50 7 -6 -10 -12 -39 -12 -28 0 -56 -13
-62 -30 -7 -16 -26 -30 -42 -30 -17 0 -31 14 -31 30 0 17 -16 31 -35 32 -19 1
-3 13 35 25 80 26 98 65 40 83 -72 23 -37 157 37 145 17 -3 53 -26 82 -52z
m2050 -61 c41 -46 -12 -90 -95 -79 -24 3 -55 -1 -69 -10 -37 -23 -31 21 10 78
42 58 107 63 154 11z m108 -99 c-5 -36 7 -42 43 -23 36 19 40 15 40 -48 0 -98
-19 -98 -111 1 -45 47 -72 89 -60 93 28 10 90 -7 88 -23z m-117 -68 c1 -34 5
-38 19 -17 14 23 27 14 59 -40 l42 -68 -92 -6 c-108 -7 -107 -8 -127 83 -19
81 -12 93 52 93 35 0 47 -11 47 -45z m-1975 -15 c53 0 42 -37 -15 -52 -27 -7
-45 -19 -40 -28 6 -9 28 -12 50 -6 52 14 51 -17 -1 -50 -23 -15 -55 -58 -72
-97 -16 -39 -51 -95 -78 -124 -27 -29 -49 -60 -49 -69 0 -9 -8 -11 -19 -5 -24
15 -3 155 27 181 13 11 43 52 67 91 l43 71 -40 25 c-53 33 -13 92 51 75 22 -6
57 -12 76 -12z m375 -15 c-1 -51 -23 -125 -38 -125 -38 0 -58 77 -29 118 36
51 67 55 67 7z m-752 3 c18 -7 32 -26 32 -42 0 -16 11 -25 25 -20 14 5 23 19
20 32 -3 12 9 22 25 22 17 0 30 -10 30 -21 0 -12 9 -16 20 -9 12 7 20 -13 20
-48 0 -33 -9 -65 -19 -71 -11 -7 -14 -25 -8 -41 6 -15 -4 -49 -21 -74 -18 -24
-32 -74 -32 -110 0 -78 -11 -80 -88 -17 -37 30 -53 58 -46 79 7 18 4 32 -7 32
-29 0 -139 84 -139 105 0 10 9 12 20 5 11 -7 20 1 20 18 0 18 11 26 29 20 35
-14 100 80 84 122 -13 34 -10 35 35 18z m2651 -111 c24 -40 35 -84 28 -118 -9
-43 -2 -56 36 -68 41 -13 36 -17 -41 -32 -48 -10 -96 -13 -107 -6 -25 15 -2
130 30 151 20 12 20 15 0 16 -14 0 -25 25 -25 60 0 78 31 76 79 -3z m-136 -63
c17 -31 14 -44 -11 -58 -18 -10 -32 -44 -32 -78 0 -35 -8 -55 -20 -48 -11 7
-20 1 -20 -14 -1 -20 -5 -19 -19 2 -9 16 -46 29 -80 29 -76 0 -78 55 -2 73 59
14 72 46 32 79 -51 43 -35 61 50 58 58 -3 87 -15 102 -43z m-1700 -18 c36 6
47 -20 39 -96 -3 -27 -1 -27 17 0 23 35 87 6 97 -43 14 -70 -95 -89 -146 -26
-51 62 -64 109 -30 109 11 0 20 9 20 20 0 11 -7 19 -15 18 -39 -6 -62 5 -73
35 -11 28 -9 29 21 5 18 -15 50 -25 70 -22z m913 -113 c4 -24 13 -40 21 -35
31 19 69 -24 54 -61 -10 -23 -19 -28 -25 -13 -5 16 -30 20 -67 13 -72 -15 -97
32 -58 105 31 57 66 53 75 -9z m-1959 -18 c9 -19 14 -46 9 -60 -14 -37 28 -30
42 7 9 23 20 27 37 12 14 -11 30 -21 35 -21 127 -4 250 -212 163 -276 -29 -21
-28 -32 14 -106 62 -111 42 -124 -46 -31 -62 66 -71 88 -71 176 0 55 -5 95
-12 89 -22 -22 -24 -144 -4 -235 10 -49 21 -110 24 -134 3 -24 16 -57 30 -74
14 -17 20 -39 14 -49 -7 -11 -3 -23 8 -26 12 -5 13 -29 1 -67 -9 -33 -18 -49
-19 -36 -3 35 -62 8 -62 -27 0 -49 -34 -12 -46 50 -7 32 -26 72 -42 88 -35 35
-22 58 23 40 24 -9 29 -2 20 31 -7 28 0 45 22 52 18 6 0 8 -41 5 -40 -2 -69 2
-64 10 5 9 -17 14 -49 11 -33 -2 -55 -11 -50 -19 9 -15 -21 -22 -66 -17 -21 3
-35 -19 -46 -68 -19 -83 -86 -119 -109 -58 -20 51 -14 124 11 132 13 5 26 22
28 40 21 142 156 227 173 109 4 -29 20 -43 51 -43 25 0 43 9 40 20 -3 11 -18
20 -35 20 -16 0 -32 16 -36 35 -8 39 15 46 52 15 17 -14 19 -13 6 2 -10 13
-40 33 -65 46 -58 28 -73 132 -29 195 21 30 25 52 11 68 -14 17 -12 42 4 77
27 61 49 66 74 17z m1321 -36 c23 14 20 2 -48 -162 -57 -138 -164 -145 -152
-11 7 91 43 117 77 58 l26 -44 -5 50 c-5 65 42 155 64 120 9 -14 26 -19 38
-11z m1772 -49 c37 -125 32 -160 -21 -140 -35 14 -65 13 -92 -1 -28 -16 -47
-15 -66 1 -19 15 -31 15 -40 1 -20 -32 -51 -25 -38 9 6 18 0 30 -16 30 -21 1
-20 5 3 20 24 15 24 19 3 20 -23 0 -23 6 -3 30 14 17 37 30 52 30 16 0 28 9
28 21 0 34 179 14 190 -21z m-1234 -80 c8 -118 -32 -181 -82 -131 -34 34 -48
190 -20 219 45 44 96 0 102 -88z m-289 67 c7 -8 -1 -30 -19 -49 -35 -39 -22
-82 19 -66 14 5 25 29 25 54 -3 78 96 61 104 -18 5 -54 -3 -67 -64 -96 -84
-40 -232 -25 -232 23 0 25 -5 25 -30 5 -17 -14 -37 -20 -44 -13 -7 7 -2 13 10
13 13 0 18 14 11 30 -6 17 -2 30 9 30 11 0 16 18 10 40 -7 28 -1 40 22 40 17
0 32 -15 32 -34 0 -30 6 -29 44 10 46 45 79 55 103 31z m1169 -115 c4 -30 20
-59 35 -65 44 -17 36 -87 -10 -87 -44 0 -71 31 -43 49 12 7 8 34 -9 66 -35 68
-37 111 -4 100 14 -4 28 -33 31 -63z m485 8 c35 11 123 -44 102 -65 -13 -13
-23 -39 -23 -58 0 -61 -45 -66 -93 -9 -48 55 -57 102 -34 164 13 33 15 33 26
0 7 -19 17 -34 22 -32z m-3474 -101 c14 -67 -26 -167 -73 -185 -16 -6 -33 -29
-39 -52 -6 -23 -3 -37 7 -31 10 6 18 -17 18 -52 0 -81 -39 -55 -78 52 -21 60
-22 82 -1 121 27 50 98 66 101 23 1 -19 4 -19 11 -1 5 13 -1 43 -14 67 -16 30
-16 40 -1 30 14 -8 22 6 22 38 0 71 32 64 47 -10z m3633 -18 c-25 -48 31 -88
59 -42 11 17 20 7 29 -28 7 -29 8 -61 1 -72 -6 -10 -2 -19 8 -19 11 0 26 -49
34 -110 10 -77 22 -110 43 -110 16 0 26 -11 21 -25 -18 -55 -60 -19 -105 94
-27 65 -45 123 -40 128 5 4 -14 26 -42 48 -50 40 -56 134 -13 204 23 36 28
-27 5 -68z m-273 33 c7 7 13 -2 13 -21 0 -18 8 -33 17 -33 10 0 42 -24 71 -54
l54 -53 -46 -26 c-64 -36 -71 -34 -102 26 l-28 52 -32 -46 c-31 -43 -37 -44
-87 -18 -42 23 -55 24 -62 4 -5 -14 -18 -19 -30 -12 -12 8 -15 4 -7 -10 9 -14
-5 -31 -35 -42 -38 -14 -50 -33 -49 -75 2 -87 -2 -106 -23 -106 -11 0 -15 14
-8 30 6 17 2 30 -9 30 -11 0 -25 -11 -31 -25 -7 -18 -10 -18 -11 -1 -1 13 7
29 18 36 11 7 20 30 20 51 0 22 7 39 15 39 25 0 63 97 41 105 -51 17 54 136
109 124 32 -7 55 -4 55 8 0 26 83 40 112 19 12 -9 28 -10 35 -2z m-1379 -11
c6 -9 16 -47 22 -85 7 -37 30 -86 51 -109 30 -32 33 -47 15 -65 -40 -40 -61
-27 -47 31 8 30 8 48 -1 40 -8 -8 -26 -5 -41 8 -18 15 -27 15 -27 1 0 -12 10
-28 22 -35 13 -8 -7 -43 -53 -90 -42 -43 -83 -72 -93 -66 -10 6 -30 0 -46 -13
-16 -13 -36 -19 -46 -13 -29 18 -25 147 5 173 16 12 24 35 18 49 -14 39 29 59
64 30 25 -21 29 -15 24 42 -6 78 98 158 133 102z m182 -63 c22 -102 -39 -165
-70 -71 -18 57 -18 79 1 102 36 44 54 35 69 -31z m-434 9 c13 -10 -127 -129
-151 -129 -14 0 -25 -10 -25 -22 0 -12 13 -17 29 -11 19 7 25 1 18 -18 -6 -16
-19 -24 -28 -18 -9 5 -27 -8 -39 -30 -12 -23 -36 -41 -54 -41 -18 0 -27 6 -19
13 7 8 0 34 -16 59 -40 60 7 188 69 188 22 0 40 8 40 18 0 15 157 7 176 -9z
m-370 -42 c-9 -25 -5 -30 16 -19 19 10 18 6 -3 -12 -17 -14 -37 -42 -45 -61
-21 -58 -54 -39 -54 32 0 76 12 93 63 93 25 0 32 -10 23 -33z m1654 -88 c-39
-24 -75 -24 -90 1 -17 28 74 61 100 37 13 -12 9 -25 -10 -38z m610 -19 c24
-46 25 -60 6 -61 -15 0 -10 -12 13 -30 21 -16 31 -29 22 -29 -9 0 -6 -12 7
-28 18 -21 16 -30 -10 -40 -35 -13 -22 -42 19 -42 13 0 23 -10 23 -23 0 -13 7
-30 15 -39 22 -22 18 -228 -4 -228 -36 0 -84 123 -103 258 -16 113 -28 140
-83 186 -79 66 -118 73 -61 11 52 -57 128 -206 113 -222 -17 -16 -129 44 -177
95 -22 23 -62 56 -88 73 -39 25 -46 42 -35 85 13 50 73 79 73 35 0 -34 160
-15 194 23 41 46 39 47 76 -24z m-3077 -89 c-11 -38 -53 -33 -53 6 0 22 -9 46
-20 53 -11 7 -20 28 -20 46 0 25 13 18 49 -26 27 -33 47 -68 44 -79z m1685 64
c26 -69 -11 -130 -54 -88 -27 27 -28 39 -4 82 33 62 37 63 58 6z m982 -19 c0
-8 -19 -25 -41 -37 -23 -12 -59 -62 -80 -110 -20 -49 -48 -89 -60 -89 -13 0
-4 29 19 67 23 37 36 73 28 80 -7 7 -2 13 11 13 13 0 23 17 23 37 0 20 5 42
12 48 17 17 88 10 88 -9z m-1828 -31 c42 -56 36 -91 -12 -65 -22 12 -40 39
-40 61 0 48 17 50 52 4z m167 -200 c38 -30 62 -44 54 -30 -21 35 27 32 105 -7
36 -18 94 -29 132 -24 53 6 72 -1 87 -33 18 -36 20 -36 22 -6 1 42 99 195 124
195 9 0 24 0 32 0 14 0 15 -17 8 -81 -2 -12 -12 -16 -22 -10 -10 7 -24 -22
-30 -63 -42 -287 -167 -463 -192 -271 -8 55 -31 106 -68 143 -34 37 -50 69
-40 85 12 22 10 22 -12 2 -22 -20 -36 -16 -73 19 -55 51 -57 41 -13 -51 21
-44 27 -88 19 -124 l-14 -55 -88 86 c-74 73 -86 95 -76 143 7 36 3 57 -11 57
-13 0 -23 -9 -23 -20 0 -11 -18 -20 -40 -20 -37 0 -50 22 -41 70 3 11 -2 13
-10 5 -13 -13 -127 117 -128 147 -1 21 225 -99 298 -157z m-951 100 c-19 -80
-41 -95 -53 -36 -6 35 1 58 23 71 45 26 44 26 30 -35z m2731 11 c54 -49 28
-72 -85 -75 -30 0 -60 -14 -67 -31 -6 -16 -20 -24 -31 -18 -10 7 -54 -16 -96
-50 -92 -73 -100 -75 -85 -21 6 24 42 54 88 72 42 17 78 39 80 49 1 10 3 28 5
40 2 18 93 71 133 76 6 1 33 -18 58 -42z m-3484 -36 c2 -30 -10 -40 -46 -40
-57 0 -60 6 -18 49 42 42 60 39 64 -9z m386 19 c44 -23 104 -127 85 -146 -7
-7 -3 -13 10 -13 49 0 52 -144 4 -234 -43 -82 -49 -85 -119 -74 -46 8 -101 0
-150 -20 -98 -41 -106 -31 -52 57 57 92 120 137 153 109 16 -13 29 -13 37 0 6
10 2 25 -10 33 -14 8 -7 24 20 42 22 16 41 47 41 68 0 55 -40 49 -41 -6 -2
-43 -3 -43 -18 -5 -15 36 -20 32 -48 -33 -61 -140 -117 -89 -97 88 7 56 52 75
72 30 6 -14 6 -4 0 21 -8 32 0 56 25 75 45 34 41 34 88 8z m1779 10 c0 -52
-95 -129 -159 -129 -149 1 -224 49 -82 53 43 1 108 20 145 43 68 42 96 52 96
33z m208 -116 c8 -42 1 -95 -19 -143 l-32 -77 49 33 c55 36 88 8 122 -101 12
-36 22 -41 51 -25 31 16 42 8 68 -55 17 -41 31 -63 32 -49 2 56 41 -2 41 -62
0 -79 -77 -269 -115 -283 -27 -10 -103 59 -104 95 -1 24 -47 63 -81 70 -60 11
-124 107 -113 166 7 31 4 61 -5 67 -21 13 -2 199 21 208 9 3 12 15 6 25 -6 10
-1 18 12 18 13 0 19 12 13 28 -6 15 0 38 13 51 18 18 15 20 -12 10 -40 -15
-44 -2 -14 52 30 57 53 48 67 -28z m99 -46 c7 -52 9 -98 3 -104 -5 -5 -10 6
-10 25 0 19 -14 49 -31 66 -22 22 -25 37 -9 56 16 19 15 29 -4 36 -18 8 -16
11 6 12 24 2 36 -23 45 -91z m-2418 41 c18 -18 50 -66 71 -108 l38 -75 -49
-137 c-88 -244 -210 -245 -171 -3 1 8 -7 15 -18 15 -20 0 -54 154 -41 190 3
11 8 37 10 57 2 21 26 50 52 65 63 34 70 34 108 -4z m3548 -5 c18 -12 1 -21
-53 -30 -81 -13 -144 -76 -144 -145 0 -30 4 -30 49 0 69 45 77 40 38 -19 -22
-34 -46 -49 -70 -42 -26 6 -37 -2 -37 -28 0 -52 -33 -66 -46 -20 -5 22 2 43
18 49 15 6 28 27 28 46 -1 25 -5 29 -16 11 -12 -18 -25 -14 -50 16 -48 56 -8
113 90 130 42 7 81 21 87 31 14 23 70 23 106 1z m-2169 -40 c6 -10 -7 -39 -30
-65 -34 -39 -43 -42 -59 -17 -37 58 -21 82 65 97 7 1 18 -6 24 -15z m2267 -28
c19 -23 47 -164 30 -147 -5 5 -40 -27 -79 -70 -79 -87 -115 -97 -146 -38 -17
32 -15 40 9 40 17 0 30 7 29 15 -8 45 5 68 32 58 33 -13 42 18 10 37 -11 7
-20 22 -20 34 0 12 13 10 33 -6 29 -25 31 -23 18 18 -10 32 -6 43 12 40 15 -4
25 5 22 19 -3 14 3 25 13 25 9 0 26 -11 37 -25z m-2133 -71 c18 -34 38 -57 45
-50 59 59 127 -233 97 -420 -49 -312 -156 -427 -199 -213 -19 99 -19 100 21
65 38 -35 39 -35 15 4 -26 44 1 150 39 150 27 0 26 74 -1 91 -12 7 -20 1 -18
-14 8 -61 -1 -85 -23 -63 -12 12 -22 54 -22 94 0 40 -7 72 -16 72 -38 0 -66
241 -37 317 22 59 58 48 99 -33z m408 -104 c-6 -9 -1 -40 9 -68 16 -41 14 -52
-9 -52 -17 0 -30 -7 -30 -17 0 -9 -13 -16 -28 -16 -40 0 -80 93 -53 120 12 12
21 53 22 92 l0 71 50 -56 c27 -31 45 -64 39 -74z m1284 40 c-3 -44 -9 -54 -24
-35 -11 14 -33 25 -48 25 -49 0 -47 46 2 56 25 5 52 10 60 11 8 2 13 -24 10
-57z m-3365 -153 c7 -35 5 -68 -6 -75 -10 -6 -18 8 -17 33 1 25 -5 68 -14 95
-11 34 -10 43 4 30 11 -11 26 -48 33 -83z m3620 -31 c36 -5 -78 -96 -120 -96
-18 0 -8 98 11 110 11 7 21 32 22 56 2 40 4 39 24 -10 12 -30 39 -57 63 -60z
m279 37 c-7 -24 -25 -57 -40 -75 -16 -17 -22 -38 -14 -46 8 -8 0 -9 -17 -2
-22 8 -33 38 -33 92 -1 43 5 75 13 70 8 -5 28 -2 43 8 41 25 64 3 48 -47z
m-3428 -103 c-26 -27 -59 -50 -73 -50 -15 0 -27 -14 -27 -31 0 -17 9 -26 20
-19 11 7 20 4 20 -6 0 -11 -22 -19 -50 -19 -27 0 -50 2 -50 5 0 15 59 142 72
155 8 8 42 15 75 15 l60 0 -47 -50z m-152 -35 c-8 -25 -16 -65 -17 -88 0 -24
-21 -65 -46 -92 -25 -26 -45 -62 -45 -80 0 -18 -9 -38 -20 -45 -12 -7 -19 -4
-15 7 8 30 -21 27 -76 -9 -74 -49 -80 -21 -11 50 52 53 58 70 41 113 -29 77
-25 86 49 117 37 15 73 38 81 50 27 44 75 25 59 -23z m1227 -129 c-10 -13 -13
-34 -6 -45 8 -12 -1 -21 -18 -21 -19 0 -37 24 -44 60 -13 63 -6 93 18 85 8 -3
15 6 15 20 0 14 12 3 27 -25 17 -32 20 -59 8 -74z m2331 39 c-7 -19 -20 -45
-29 -57 -9 -12 -11 -28 -3 -35 7 -7 -7 -13 -31 -13 -44 0 -60 47 -23 70 12 7
16 20 10 30 -9 15 19 29 74 38 8 1 9 -14 2 -33z m-1071 -118 c-57 -30 -60 -26
-30 39 23 49 27 51 50 20 22 -29 19 -38 -20 -59z m-260 -25 c60 -24 89 -62 47
-62 -10 0 -33 -5 -50 -12 -19 -7 -32 -2 -32 13 0 14 -16 44 -35 65 -19 22 -26
36 -15 31 11 -5 49 -21 85 -35z m-1042 -136 c54 -47 48 -86 -12 -86 -42 0 -62
56 -58 170 3 67 4 70 11 20 5 -33 32 -80 59 -104z m1358 32 l0 -81 -36 44
c-38 47 -36 93 3 84 12 -3 22 4 22 15 0 11 2 20 5 20 3 0 6 -37 6 -82z m-71
-38 c0 -11 18 -38 40 -60 50 -50 58 -140 9 -99 -62 52 -111 179 -69 179 11 0
20 -9 20 -20z m-2718 -75 l1 -55 28 60 c30 66 36 49 17 -47 -7 -35 -24 -63
-39 -63 -28 0 -75 115 -58 142 23 36 49 16 51 -37z m1648 -64 c6 -11 -11 -26
-39 -33 -40 -10 -51 -25 -51 -70 0 -61 -17 -73 -54 -36 -60 60 -128 -189 -75
-271 22 -33 24 -51 9 -61 -33 -21 -81 5 -69 37 6 15 -2 33 -19 39 -32 13 -27
191 6 213 25 17 48 127 23 111 -12 -7 -21 -3 -21 8 0 29 78 67 111 54 15 -5
33 -2 40 9 15 25 123 25 139 0z m832 -6 c2 -14 1 -41 -1 -60 -2 -19 6 -35 18
-35 12 0 20 -37 19 -85 -2 -69 -5 -76 -16 -35 -14 47 -16 45 -29 -24 -17 -86
-43 -109 -84 -75 -38 31 -37 61 1 46 25 -9 30 10 30 109 0 67 5 135 12 152 15
38 47 42 50 7z m179 -37 c30 -55 6 -75 -31 -27 -34 46 -38 69 -11 69 11 0 30
-19 42 -42z m-81 -3 c0 -14 23 -51 50 -83 28 -32 50 -70 50 -85 0 -15 9 -27
20 -27 11 0 20 -10 20 -21 0 -12 -10 -15 -22 -8 -15 10 -18 -1 -9 -33 13 -47
12 -47 -19 -8 -17 22 -23 42 -12 46 13 4 12 25 -3 56 -12 28 -34 45 -49 39
-16 -6 -26 5 -26 27 0 20 -13 48 -30 62 -16 14 -30 33 -30 42 0 10 14 18 30
18 17 0 30 -11 30 -25z m-2400 -34 c21 -14 23 -26 8 -41 -15 -15 -32 -9 -58
20 -39 44 -8 57 50 21z m2585 -49 c21 -15 35 -53 35 -91 0 -96 48 -65 62 41
10 72 13 77 17 28 12 -137 -41 -290 -87 -252 -36 30 -53 118 -24 128 14 5 10
22 -11 46 -72 84 -66 157 8 100z m-1192 -78 c7 -8 -1 -14 -19 -14 -21 0 -29
-11 -21 -30 6 -17 1 -43 -12 -59 -14 -16 -19 -47 -12 -68 7 -22 3 -46 -10 -53
-30 -19 -39 -6 -52 77 -19 112 64 208 126 147z m1069 -282 c-9 -63 -31 -129
-50 -148 -32 -32 -33 -31 -12 25 22 59 22 59 -19 22 -50 -45 -52 -26 -19 129
24 115 37 116 60 5 14 -61 15 -53 9 43 -8 104 -6 113 19 78 20 -29 24 -68 12
-154z m-1470 119 c20 -42 16 -55 -32 -101 -47 -45 -57 -48 -67 -20 -23 60 20
169 67 170 6 0 20 -22 32 -49z m-141 -198 c-8 -46 -14 -99 -14 -118 1 -20 -8
-31 -18 -24 -11 6 -19 2 -19 -9 0 -62 41 -27 79 66 53 131 130 211 166 175 18
-18 18 -33 2 -58 -16 -27 -14 -40 10 -58 29 -21 29 -29 -1 -90 -31 -62 -35
-64 -47 -24 -13 45 -107 78 -111 39 -2 -12 -5 -103 -8 -202 -6 -232 -25 -326
-72 -351 -21 -11 -38 -36 -39 -55 0 -19 -19 1 -42 44 -31 59 -39 103 -32 175
5 54 1 97 -8 97 -9 0 -17 14 -17 30 0 17 9 30 19 30 11 0 15 13 8 30 -6 16 7
65 30 108 22 43 36 82 30 88 -5 5 5 43 22 84 17 41 31 99 32 127 0 48 2 49 22
16 13 -22 16 -71 8 -120z m1701 31 c-6 -49 -23 -103 -36 -119 -22 -27 4 -64
47 -65 16 0 57 114 57 161 0 19 13 45 30 59 34 28 22 -91 -13 -129 -9 -10 -17
-35 -17 -55 0 -31 -93 -113 -107 -94 -64 83 -70 105 -43 158 23 45 41 112 48
186 1 9 12 10 24 3 15 -9 18 -47 10 -105z m-1204 -10 c-36 -75 -88 -113 -88
-65 0 15 22 54 49 87 28 32 47 63 44 69 -4 5 1 3 11 -5 10 -8 3 -45 -16 -86z
m-112 -4 c-12 -27 -35 -50 -50 -50 -16 0 -23 -9 -16 -20 7 -11 -2 -20 -19 -20
-22 0 -29 -13 -22 -45 31 -143 1 -368 -43 -324 -33 33 -54 39 -36 9 7 -11 4
-20 -6 -20 -11 0 -25 -29 -32 -65 -16 -82 -94 -231 -127 -244 -41 -16 -28 47
15 74 27 17 40 46 40 92 0 57 -5 64 -29 44 -20 -17 -17 0 10 56 21 44 48 86
59 93 11 7 16 20 11 28 -5 9 8 51 30 93 26 52 39 65 39 38 1 -32 4 -34 20 -9
11 17 20 91 20 166 0 124 3 134 31 105 42 -41 62 -39 75 9 6 22 20 40 32 40
15 0 14 -15 -2 -50z m1049 -235 c-13 -107 -36 -93 -32 20 l4 95 -16 -80 c-8
-44 -17 -64 -18 -44 -2 22 -12 31 -26 22 -13 -8 -18 -5 -11 6 7 11 22 46 34
76 31 81 78 11 65 -95z m175 25 c21 -40 -32 -120 -80 -120 -26 0 -26 72 1 121
26 50 52 49 79 -1z m-1810 -359 c-16 -73 -51 -62 -49 15 2 48 4 50 19 14 16
-37 17 -37 19 8 0 27 6 43 13 37 6 -7 6 -40 -2 -74z m1960 59 c7 -11 2 -20
-10 -20 -12 0 -65 -41 -118 -90 -88 -82 -98 -87 -108 -50 -8 30 -1 40 29 40
22 0 34 8 28 18 -6 10 0 24 14 30 14 7 -18 8 -70 3 -52 -6 -95 -6 -95 -1 0 20
112 62 145 55 19 -4 35 2 35 14 0 27 133 28 150 1z m179 -79 c6 -10 -7 -24
-29 -31 -22 -7 -40 -21 -40 -31 0 -24 -97 -22 -150 3 -35 16 -34 17 10 9 28
-5 64 -1 80 10 17 10 23 19 14 19 -9 0 -11 9 -4 20 16 25 104 26 119 1z
m-2074 -126 c13 -36 25 -74 25 -85 1 -11 16 -42 34 -68 29 -45 29 -51 -1 -72
-18 -13 -27 -30 -19 -37 7 -7 -9 -12 -36 -12 -70 2 -216 34 -165 37 53 3 84
40 75 92 -7 48 31 210 50 210 8 0 25 -29 37 -65z m2133 12 c18 -45 3 -54 -62
-38 -54 14 -54 15 -17 43 50 36 64 35 79 -5z m-2168 -348 c0 -12 9 -16 20 -9
11 7 20 3 20 -8 0 -11 13 -16 28 -10 32 12 172 -103 172 -142 0 -62 -123 -49
-178 18 -15 18 -36 32 -46 32 -11 0 -36 20 -57 45 -21 25 -38 34 -38 20 -1
-14 8 -25 19 -25 11 0 20 -10 20 -23 0 -14 -15 -10 -37 10 -20 18 -47 33 -60
33 -31 0 -30 54 2 67 46 18 135 13 135 -8z m151 -280 c53 -49 50 -69 -11 -85
-22 -6 -36 -3 -30 6 5 8 -15 20 -45 25 -30 5 -72 17 -93 26 -26 10 -34 9 -26
-5 8 -12 -9 -26 -40 -32 l-54 -10 47 35 c26 20 41 46 33 58 -20 31 -49 29 -85
-7 -37 -37 -67 -39 -67 -3 0 72 292 66 371 -8z m-52 -147 c16 -20 17 -32 1
-42 -26 -16 -84 27 -69 52 16 26 41 22 68 -10z"/>
<path d="M3025 4607 c-15 -6 -24 -44 -23 -94 l2 -83 20 70 c11 39 29 81 40 95
21 25 6 30 -39 12z"/>
<path d="M1625 4145 c-26 -9 -36 -105 -10 -105 8 0 16 -23 18 -50 1 -28 -5
-50 -14 -50 -10 0 -12 -14 -6 -32 22 -55 69 17 71 107 1 91 -22 143 -59 130z"/>
<path d="M2900 3356 c0 -15 13 -46 29 -67 29 -38 30 -38 30 4 1 23 -12 53 -29
67 -24 20 -30 19 -30 -4z"/>
<path d="M3681 3096 c-10 -25 -19 -34 -20 -19 -1 35 -51 18 -52 -19 -2 -39 52
-181 82 -218 14 -16 29 -48 35 -70 7 -30 10 -26 12 16 1 31 12 75 23 97 18 33
15 42 -20 51 -22 6 -41 19 -41 30 0 10 9 13 21 5 13 -8 19 17 16 71 -6 97 -30
121 -56 56z"/>
<path d="M3480 3060 c18 -33 16 -37 -15 -27 -28 10 -26 4 9 -30 58 -57 67 -54
62 16 -2 32 -11 54 -20 48 -9 -5 -16 0 -16 12 0 11 -9 21 -21 21 -14 0 -14
-13 1 -40z"/>
<path d="M2062 1560 c1 -107 24 -179 46 -144 17 28 0 154 -28 201 -14 24 -19
10 -18 -57z"/>
</g>
</svg>
