<?xml version="1.0" standalone="no"?>
<!DOCTYPE svg PUBLIC "-//W3C//DTD SVG 20010904//EN"
 "http://www.w3.org/TR/2001/REC-SVG-20010904/DTD/svg10.dtd">
<svg version="1.0" xmlns="http://www.w3.org/2000/svg"
 width="300.000000pt" height="300.000000pt" viewBox="0 0 300.000000 300.000000"
 preserveAspectRatio="xMidYMid meet">
<metadata>
Created by potrace 1.10, written by Peter Selinger 2001-2011
</metadata>
<g transform="translate(0.000000,300.000000) scale(0.050000,-0.050000)"
fill="#000000" stroke="none">
<path d="M3123 5746 c-69 -28 -129 -62 -133 -74 -4 -12 -21 -107 -40 -212
l-33 -190 81 -218 c100 -265 104 -229 -38 -311 -120 -69 -147 -114 -93 -158
15 -13 33 -16 41 -8 8 7 8 -3 0 -24 -12 -31 -7 -36 29 -26 49 13 71 -11 81
-86 4 -41 249 -139 348 -139 87 0 144 -37 109 -71 -24 -25 -333 -33 -400 -11
-134 44 -313 304 -265 382 7 11 3 20 -9 20 -27 0 -101 -73 -101 -100 0 -36 -4
-50 -25 -89 -12 -22 -24 -133 -27 -247 -7 -222 -44 -388 -105 -466 -21 -26
-67 -102 -103 -168 -137 -250 -222 -366 -291 -399 -38 -18 -69 -43 -69 -55 0
-13 -5 -18 -10 -12 -6 5 3 42 20 82 35 85 38 114 10 114 -11 0 -20 -26 -20
-58 0 -145 -47 -113 -254 173 -1283 1770 -1388 1909 -1420 1877 -25 -24 525
-820 554 -802 10 6 24 0 32 -13 9 -14 6 -18 -9 -9 -36 22 -27 -20 11 -51 29
-23 31 -23 17 1 -12 19 -10 24 6 14 13 -8 19 -23 12 -33 -14 -23 50 -122 72
-109 9 6 23 0 31 -13 9 -14 6 -18 -9 -9 -39 24 -26 -3 49 -108 61 -85 116
-141 78 -80 -20 33 3 23 33 -14 23 -29 23 -31 -1 -17 -19 11 -24 8 -18 -11 5
-15 19 -28 31 -28 12 0 29 -8 38 -18 10 -11 7 -12 -8 -4 -14 8 -25 6 -25 -4 0
-30 52 -65 70 -49 9 8 10 4 2 -10 -11 -20 496 -765 549 -805 58 -45 54 -93
-12 -138 -76 -52 -75 -100 0 -51 44 29 48 29 61 -10 17 -55 142 -148 179 -134
18 7 38 -10 55 -48 14 -32 33 -59 42 -59 9 0 10 -10 3 -22 -9 -13 4 -19 34
-15 72 10 71 79 -2 133 -34 25 -61 63 -61 86 0 38 221 320 319 408 189 168
534 795 504 916 -2 10 5 11 17 4 11 -7 20 -24 20 -39 0 -50 112 -77 260 -62
l140 13 0 -242 c0 -133 9 -260 21 -281 14 -26 14 -39 0 -39 -11 0 -17 -27 -13
-60 6 -50 2 -57 -21 -37 -15 12 -23 39 -17 58 10 31 -5 38 -100 50 -102 13
-110 17 -97 56 8 24 14 63 13 88 -1 25 6 45 16 45 25 0 23 46 -5 114 -13 31
-26 74 -31 95 -9 49 -58 104 -104 116 -38 10 -33 -64 26 -335 30 -141 20 -318
-20 -352 -15 -12 -28 -36 -28 -51 0 -15 -28 -84 -63 -153 -254 -502 -440
-1459 -304 -1567 48 -38 48 -606 0 -747 -40 -117 -58 -136 -238 -262 -101 -70
-115 -88 -115 -147 0 -116 119 -123 380 -21 99 39 188 70 200 70 11 0 20 37
20 81 0 112 31 315 103 669 35 173 56 332 51 375 l-10 75 105 -12 105 -13 13
80 c7 44 61 205 121 358 121 310 197 548 188 586 -3 14 5 30 17 35 16 5 28
-32 37 -108 27 -233 159 -686 199 -686 16 0 40 -54 61 -139 20 -83 43 -136 57
-131 101 30 129 28 139 -10 6 -26 27 -40 57 -40 26 0 67 -6 92 -13 69 -18 59
64 -15 126 -50 42 -60 65 -60 138 0 112 31 132 48 30 19 -120 58 -127 41 -8
-44 318 -252 807 -419 985 -159 171 -250 296 -298 411 -39 93 -47 84 99 109
65 11 151 26 190 33 l71 13 86 -220 c48 -120 107 -241 132 -268 31 -34 40 -59
28 -78 -36 -57 -19 -95 53 -118 84 -28 126 -106 84 -156 -21 -26 -20 -29 5
-16 17 8 13 1 -9 -17 -21 -17 -28 -31 -14 -31 18 0 19 -10 2 -41 -32 -61 -10
-173 41 -215 39 -31 42 -43 22 -80 -15 -29 -16 -44 -3 -44 12 0 21 14 21 31 0
17 9 26 20 19 11 -7 20 -34 20 -60 0 -26 7 -52 16 -58 9 -5 15 -44 14 -86 -2
-42 5 -87 15 -100 11 -14 10 -39 -3 -62 -11 -21 -17 -58 -12 -82 4 -24 0 -38
-11 -31 -12 7 -16 -24 -11 -80 10 -101 19 -96 -161 -99 -57 -2 -100 3 -96 10
5 7 -10 29 -31 48 -60 54 -54 -54 21 -375 33 -144 68 -326 78 -404 10 -77 26
-173 36 -212 11 -39 12 -91 3 -115 -9 -24 -10 -45 -2 -46 8 -2 58 -5 112 -8
63 -3 108 -17 122 -37 29 -40 272 -98 338 -82 103 26 89 137 -28 222 -335 245
-340 255 -340 694 l0 283 60 34 c97 55 80 353 -39 676 -80 219 -178 582 -155
575 11 -4 31 -43 45 -86 58 -185 229 -755 229 -763 0 -4 10 -2 21 5 12 7 16
28 9 46 -16 40 -180 585 -205 683 l-19 70 122 0 c259 0 327 151 245 543 -35
167 -94 373 -104 363 -4 -4 13 -84 39 -177 100 -366 76 -381 -49 -29 -97 273
-123 370 -129 490 -4 84 -26 198 -49 260 -41 110 -41 110 -29 26 19 -145 -16
-144 -65 1 -33 100 -42 160 -33 233 25 211 -109 436 -270 454 -40 4 -82 15
-93 24 -12 9 -97 23 -190 30 -208 17 -189 -9 -202 269 -10 218 -15 243 -88
398 l-78 165 -131 -1 c-94 -1 -168 -16 -259 -53z m352 -58 c-7 -7 5 -31 26
-54 22 -23 39 -52 39 -65 0 -14 13 -50 30 -82 39 -76 38 -109 -3 -93 -22 8
-29 5 -20 -9 17 -28 -38 -46 -172 -56 -58 -5 -136 -13 -175 -20 -210 -34 -240
-34 -240 -1 0 19 18 33 45 34 35 2 37 5 9 12 -22 6 -32 22 -26 43 5 18 15 85
22 148 12 104 17 115 60 115 49 0 84 -32 61 -56 -7 -7 -21 0 -31 16 -13 21
-16 11 -11 -30 5 -33 9 -102 10 -153 1 -93 65 -142 131 -101 11 7 37 15 57 19
43 6 132 65 100 65 -21 0 -39 47 -59 155 -5 25 1 45 13 45 12 0 15 10 8 22
-10 15 0 18 31 8 29 -9 40 -7 32 6 -7 12 3 25 23 30 19 5 39 10 43 12 5 1 3
-3 -3 -10z m-331 -184 c2 -35 10 -64 16 -64 6 0 13 -19 15 -41 1 -24 -7 -38
-21 -34 -14 5 -27 55 -30 116 -7 113 11 134 20 23z m399 -229 c2 -14 5 -34 8
-45 2 -11 5 -36 7 -55 1 -19 11 -35 21 -35 11 0 15 14 8 30 -6 17 -1 30 11 30
12 0 22 -18 22 -40 0 -22 -10 -40 -22 -40 -15 0 -13 -12 5 -33 21 -26 21 -35
2 -42 -14 -5 -25 -17 -25 -28 0 -11 8 -15 17 -9 30 19 73 -87 51 -124 -39 -66
-282 -171 -399 -172 -114 -2 -123 -9 -86 -70 28 -45 10 -102 -33 -102 -28 0
-28 5 1 48 29 45 29 50 -4 68 -29 17 -31 25 -9 51 14 17 20 41 13 52 -8 12 -2
21 13 21 17 1 19 6 5 15 -34 23 -48 78 -26 100 23 23 -11 105 -44 105 -11 0
-16 22 -11 48 5 27 3 55 -5 62 -7 7 -14 22 -15 32 -2 10 -4 27 -5 38 -2 11
-19 21 -38 22 -19 1 54 17 162 36 108 19 223 32 255 30 32 -2 63 4 69 14 16
26 49 22 52 -7z m-2983 -171 c44 -63 147 -208 230 -324 163 -228 158 -220 132
-220 -18 0 -413 547 -461 637 -43 82 14 28 99 -93z m3553 -382 c-21 -189 -59
-305 -113 -345 -80 -60 -341 -127 -362 -94 -28 43 -22 53 50 76 173 57 321
233 375 446 33 129 67 73 50 -83z m187 28 c42 -68 46 -157 6 -141 -42 16 -46
-20 -6 -54 21 -18 42 -24 47 -13 6 10 8 8 5 -6 -26 -130 -172 68 -172 233 0
131 30 126 120 -19z m-500 80 c-20 -24 -18 -39 8 -79 56 -86 11 -92 -74 -9
-51 49 -53 56 -23 86 43 43 125 45 89 2z m-91 -112 c-6 -10 4 -18 22 -18 23 0
29 -10 21 -33 -7 -18 1 -48 18 -67 33 -36 -15 -70 -85 -61 -23 2 -32 -22 -20
-51 11 -26 -95 -64 -129 -46 -27 15 -33 12 -24 -10 8 -20 32 -26 79 -20 79 10
89 -16 25 -61 -57 -40 -155 -39 -206 2 -32 26 -33 30 -5 20 19 -6 35 -3 35 7
0 10 16 13 35 6 28 -9 30 -6 12 14 -13 14 -47 25 -75 25 -29 0 -52 9 -52 20 0
11 -23 15 -50 10 -64 -12 -77 9 -61 98 10 51 22 68 47 62 19 -4 32 -18 29 -31
-3 -13 4 -24 15 -24 11 0 20 10 20 21 0 13 17 16 40 9 30 -10 37 -5 28 19 -9
22 1 31 35 33 26 0 36 6 22 11 -14 6 -25 20 -25 33 0 53 50 -32 52 -89 2 -59
0 -61 -64 -51 -45 8 -63 4 -57 -12 10 -26 158 -43 190 -23 11 6 13 22 5 35
-39 63 8 174 73 174 13 0 18 9 11 20 -7 11 1 14 19 8 17 -7 26 -20 20 -30z
m279 -32 c-20 -31 -37 -61 -37 -67 -2 -22 -131 -167 -131 -147 0 12 18 38 41
59 22 20 36 49 30 64 -6 15 -3 23 5 17 9 -5 38 26 64 68 27 43 52 74 57 70 5
-5 -8 -34 -29 -64z m-1266 -300 c-53 -100 -59 -23 -7 87 29 60 36 66 41 32 4
-23 -12 -77 -34 -119z m1684 89 c-11 -14 -20 -72 -21 -130 -1 -130 -102 -292
-170 -270 -8 3 -15 -10 -15 -28 0 -19 -6 -28 -13 -21 -7 8 -25 -2 -39 -21 -24
-31 -27 -27 -29 35 -3 72 -33 191 -37 144 -1 -15 -10 -22 -19 -16 -9 6 -27
-12 -40 -39 -13 -28 -59 -98 -103 -157 -44 -58 -80 -128 -80 -156 0 -34 -16
-57 -50 -72 -49 -23 -73 -78 -25 -58 14 6 40 16 59 24 30 12 115 -98 92 -120
-15 -15 -242 -49 -258 -39 -10 6 -18 135 -18 286 l0 274 135 25 c148 27 318
105 310 141 -9 43 9 23 74 -81 l64 -104 60 109 c49 90 56 116 36 147 -20 33
-18 36 14 24 30 -12 29 -6 -8 33 -45 48 -61 87 -26 66 10 -6 24 -3 31 9 7 11
31 20 54 20 30 0 36 -7 22 -25z m-1588 -186 c15 9 22 -18 22 -86 0 -99 0 -99
-55 -84 -54 15 -73 101 -27 117 10 3 13 26 8 50 -7 33 -4 37 10 16 11 -15 30
-21 42 -13z m1539 -324 c25 -74 50 -145 56 -158 10 -24 -312 -367 -345 -367
-10 1 -43 64 -73 142 l-55 142 145 136 c80 74 158 159 174 188 40 74 48 68 98
-83z m-281 37 c-6 -44 -2 -55 20 -47 23 9 24 4 4 -27 -31 -48 -154 -148 -133
-108 9 17 -2 8 -24 -19 -22 -28 -36 -57 -30 -65 5 -9 -5 -10 -22 -3 -25 9 -27
18 -9 39 13 16 15 28 5 29 -9 0 14 27 51 59 38 32 76 54 85 48 16 -10 26 37
18 80 -4 25 15 72 31 72 7 0 9 -26 4 -58z m563 -819 c69 -190 121 -349 118
-353 -18 -17 -118 -33 -114 -17 20 68 -26 187 -73 187 -35 0 -46 -8 -37 -31 9
-24 18 -25 44 -5 28 20 29 20 8 -4 -33 -37 -32 -80 5 -120 28 -31 26 -34 -25
-30 -77 5 -79 6 -93 41 -6 17 -4 26 6 20 10 -6 29 3 42 19 31 38 -19 43 -56 6
-32 -32 -87 -38 -118 -12 -37 30 -32 56 9 57 61 1 125 59 65 59 -26 0 -63 -15
-83 -33 -48 -43 -81 -16 -126 103 -21 55 -44 86 -58 79 -13 -7 4 11 37 39 33
29 52 52 43 52 -10 0 42 63 115 140 72 78 132 151 132 164 0 60 44 -39 159
-361z m-510 62 c9 -28 5 -45 -9 -45 -12 0 -17 9 -10 20 7 11 4 20 -6 20 -24 0
-67 98 -53 121 6 11 1 19 -11 19 -12 0 -16 10 -8 23 14 23 68 -65 97 -158z
m-859 95 c7 -11 30 -20 51 -20 58 0 48 -38 -51 -190 -86 -130 -95 -186 -26
-160 17 7 61 67 98 134 69 122 171 250 187 233 17 -16 -87 -218 -156 -303
-226 -279 -457 -825 -482 -1138 -9 -126 -8 -139 14 -96 14 28 34 64 45 80 22
33 24 41 28 105 3 45 4 45 34 5 59 -77 -5 -240 -99 -254 -32 -4 -45 -22 -49
-72 -5 -50 -15 -65 -40 -60 -62 12 -28 553 43 697 17 32 36 86 43 119 7 33 21
60 30 60 10 0 17 27 16 59 -1 33 -10 55 -19 49 -9 -5 -11 4 -5 21 7 17 29 31
50 31 24 0 33 10 25 30 -6 17 -1 30 12 30 13 0 19 7 13 16 -5 9 8 46 29 81 21
35 39 97 40 138 0 41 18 111 39 155 21 44 39 89 39 100 5 104 61 198 91 150z
m340 -160 c7 -32 23 -57 36 -55 15 3 22 -25 21 -80 -2 -49 5 -80 16 -73 23 14
100 -51 87 -72 -14 -23 65 -86 89 -71 12 8 30 -9 41 -38 10 -28 30 -51 43 -51
43 0 2 -23 -57 -32 -60 -9 -217 63 -267 123 -37 45 -60 34 -40 -18 15 -40 10
-52 -32 -75 -42 -22 -45 -28 -17 -38 28 -10 29 -16 7 -34 -21 -17 -44 -3 -103
65 l-76 88 100 210 c105 222 131 248 152 151z m-224 -578 c9 -1 11 -11 3 -23
-7 -11 -2 -34 12 -50 19 -23 10 -60 -43 -184 -90 -212 -91 -213 -194 -162 -75
37 -81 45 -52 66 21 16 28 35 18 51 -10 16 -8 21 5 13 25 -15 55 41 64 122 3
24 7 27 15 9 7 -18 20 -9 38 27 34 65 35 76 5 57 -16 -10 -18 -5 -6 14 33 53
59 73 89 67 16 -3 37 -7 46 -7z m624 -62 c7 -24 23 -35 36 -27 17 9 17 5 -1
-14 -17 -19 -18 -33 -2 -53 12 -14 16 -26 8 -26 -8 0 1 -15 19 -33 18 -17 28
-44 22 -60 -6 -15 -4 -27 4 -27 14 0 90 -145 78 -150 -2 0 -36 -16 -75 -33
l-71 -32 -2 70 c-1 38 -12 76 -25 84 -13 9 -25 61 -27 118 -2 57 -11 103 -20
103 -8 0 -6 18 6 40 15 29 15 40 0 40 -13 0 -17 9 -10 20 20 32 46 23 60 -20z
m-745 -580 c13 0 -1 -25 -29 -55 -28 -30 -60 -82 -72 -115 l-21 -60 -1 62 c-3
94 37 193 72 179 16 -6 39 -11 51 -11z m908 -187 l10 -63 -42 50 c-23 28 -61
75 -83 105 l-41 55 47 18 c51 20 86 -35 109 -165z m-813 160 c0 -10 -62 -133
-67 -133 -3 0 -1 32 3 70 6 53 64 110 64 63z m-271 -322 c-22 -17 -52 -31 -69
-32 -21 -1 -22 -5 -5 -12 14 -6 25 -19 25 -29 0 -12 -16 -11 -40 2 -22 12 -40
15 -40 8 0 -8 -19 3 -42 24 l-42 38 57 13 c121 27 199 21 156 -12z m-247 -76
c-1 -8 -2 -33 -2 -55 0 -64 -30 -46 -34 21 -3 36 4 59 16 55 12 -4 20 -14 20
-21z m1458 -35 c-28 -18 -13 -29 28 -21 10 2 26 -9 35 -23 42 -67 -2 -76 -62
-13 -40 44 -38 77 5 77 14 0 12 -8 -6 -20z m-1468 -673 c-32 -83 -67 -24 -40
66 15 51 30 126 32 165 2 40 7 10 11 -66 4 -76 2 -150 -3 -165z m1728 -39 c0
-16 -13 -28 -30 -28 -19 0 -30 19 -30 52 0 45 5 49 30 28 17 -14 30 -37 30
-52z"/>
<path d="M3370 5220 c4 -22 -6 -35 -27 -35 -98 0 -104 -3 -79 -44 18 -28 29
-33 40 -15 14 23 16 17 16 -61 0 -31 -51 -15 -93 28 -23 24 -50 38 -58 31 -8
-8 -10 2 -3 21 7 19 3 35 -8 35 -13 0 -16 -23 -8 -58 7 -33 3 -64 -9 -71 -33
-21 -25 -45 19 -57 22 -6 40 -3 40 6 0 33 98 35 104 2 4 -18 24 -32 46 -32 44
0 61 -126 21 -155 -13 -9 -12 -14 5 -15 36 0 178 75 196 104 9 13 -18 5 -59
-20 -95 -55 -94 -56 -73 16 10 35 9 64 -1 71 -11 6 -19 21 -19 33 0 14 10 13
28 -3 24 -19 27 -16 18 16 -6 27 4 49 32 66 23 15 42 35 42 44 0 10 -13 7 -30
-7 -24 -20 -30 -20 -30 0 0 13 -13 19 -30 13 -34 -13 -42 37 -10 57 34 21 22
45 -28 55 -38 7 -47 1 -42 -25z"/>
<path d="M3220 4971 c0 -15 -16 -44 -35 -63 -25 -25 -27 -32 -5 -25 16 6 43
-5 60 -22 16 -18 22 -21 12 -6 -10 14 -17 53 -16 86 1 32 -3 59 -7 59 -5 0 -9
-13 -9 -29z"/>
<path d="M4681 3798 c-2 -99 23 -192 41 -147 23 59 21 93 -5 77 -14 -8 -18 -5
-10 7 7 12 5 42 -6 68 l-18 47 -2 -52z"/>
<path d="M3358 466 c-1 -21 -5 -26 -11 -11 -10 24 -127 37 -127 14 0 -45 68
-59 269 -57 306 3 318 64 16 81 -129 8 -145 4 -147 -27z"/>
<path d="M4100 474 c44 -21 33 -24 -95 -30 -144 -6 -187 -28 -100 -51 66 -18
79 -16 65 12 -7 14 1 8 19 -14 20 -25 31 -29 31 -11 0 14 6 21 13 14 7 -8 27
-2 44 11 17 14 25 15 17 3 -8 -15 4 -19 38 -13 33 7 47 20 40 38 -8 20 1 24
36 16 26 -7 53 -4 59 7 12 18 -97 45 -177 43 -35 -1 -33 -5 10 -25z"/>
</g>
</svg>
