<?xml version="1.0" standalone="no"?>
<!DOCTYPE svg PUBLIC "-//W3C//DTD SVG 20010904//EN"
 "http://www.w3.org/TR/2001/REC-SVG-20010904/DTD/svg10.dtd">
<svg version="1.0" xmlns="http://www.w3.org/2000/svg"
 width="300.000000pt" height="326.000000pt" viewBox="0 0 300.000000 326.000000"
 preserveAspectRatio="xMidYMid meet">
<metadata>
Created by potrace 1.10, written by Peter Selinger 2001-2011
</metadata>
<g transform="translate(0.000000,326.000000) scale(0.050000,-0.050000)"
fill="#000000" stroke="none">
<path d="M5640 3260 l0 -3260 180 0 180 0 0 1040 c0 819 -5 1040 -25 1040 -14
0 -52 22 -85 48 l-60 48 -1 758 c-1 417 -9 769 -17 782 -8 13 -7 24 2 24 9 0
16 72 16 160 0 88 -7 160 -16 160 -9 0 -9 11 -1 25 9 14 14 250 12 525 -4 455
3 589 27 564 5 -4 40 20 78 55 l70 64 -1 574 c0 531 -3 574 -34 569 -20 -4
-43 13 -55 39 -17 40 -34 45 -145 45 l-125 0 0 -3260z m218 2960 c-2 -99 -9
-180 -16 -180 -65 2 -81 360 -16 360 32 0 36 -19 32 -180z m2 -240 c0 -22 -13
-40 -29 -40 -35 0 -58 33 -41 60 22 35 70 21 70 -20z m0 -119 c0 -48 -7 -58
-35 -49 -30 10 -29 7 4 -20 38 -32 38 -32 0 -34 -34 -2 -34 -4 -4 -12 55 -14
52 -286 -3 -286 -42 0 -53 137 -13 165 14 9 13 14 -4 15 -14 0 -25 9 -25 20 0
11 14 20 30 20 17 0 30 9 30 19 0 11 -13 15 -30 8 -31 -12 -47 170 -17 200 33
33 67 9 67 -46z m0 -531 c0 -37 -11 -50 -40 -50 -39 0 -57 57 -27 87 31 30 67
10 67 -37z m40 -3350 c0 -11 -20 -21 -45 -23 l-45 -2 45 -9 c25 -5 45 -17 45
-27 0 -11 -20 -20 -45 -22 l-45 -2 45 -9 c47 -9 63 -46 20 -46 -19 -1 -19 -4
-2 -15 50 -32 22 -195 -33 -195 -54 0 -79 130 -35 185 14 17 13 25 -3 25 -12
0 -22 34 -22 80 0 76 3 80 60 80 33 0 60 -9 60 -20z m-4 -458 c-9 -44 -103
-42 -112 2 -5 26 8 33 56 32 45 -2 60 -11 56 -34z m-6 -82 c7 -11 -8 -21 -34
-23 l-46 -2 45 -9 c25 -5 45 -17 45 -27 0 -11 -20 -20 -45 -22 l-45 -2 45 -9
c65 -13 56 -50 -10 -42 -44 5 -56 18 -62 64 -8 74 72 128 107 72z m0 -260 c0
-19 -23 -32 -63 -36 -56 -6 -63 -1 -53 36 13 50 116 50 116 0z m10 -141 c0
-11 -9 -19 -20 -19 -11 0 -20 9 -20 20 0 11 -18 20 -40 20 -22 0 -40 13 -40
28 0 25 9 25 60 -1 33 -16 60 -38 60 -48z m-40 -57 l-50 -14 50 -16 50 -16
-50 -14 -50 -14 50 -16 c42 -14 44 -18 14 -26 -61 -16 -94 9 -94 73 0 56 6 61
65 59 60 -2 61 -3 15 -16z m40 -181 c0 -43 -55 -81 -95 -67 -26 10 -34 70 -12
93 32 31 107 13 107 -26z m-4 -126 c-9 -65 -116 -78 -116 -14 0 34 9 41 40 33
22 -6 40 -2 40 8 0 10 10 18 21 18 12 0 19 -20 15 -45z m-15 -186 c21 -25 20
-36 -4 -61 -34 -34 -97 -18 -97 24 0 15 -9 28 -20 28 -11 0 -20 9 -20 20 0 32
113 23 141 -11z m19 -179 c14 -16 17 -30 8 -30 -9 0 -5 -11 8 -24 60 -60 -6
-176 -100 -176 -52 0 -116 72 -116 130 0 102 140 172 200 100z"/>
<path d="M5764 276 c-69 -69 12 -181 97 -135 56 29 45 107 -16 115 -34 5 -45
-3 -45 -35 0 -24 13 -41 32 -41 27 0 28 5 8 30 -18 22 -18 30 -2 30 35 0 51
-62 21 -81 -37 -23 -99 15 -99 61 0 21 16 47 35 58 19 12 26 21 14 21 -12 1
-32 -10 -45 -23z"/>
<path d="M800 6049 c0 -29 -33 -38 -115 -31 -51 4 -61 -33 -14 -51 26 -10 24
-17 -10 -41 -43 -30 -55 -66 -21 -66 11 0 20 15 20 33 0 19 5 28 12 22 18 -18
66 32 53 55 -6 11 1 9 15 -3 19 -19 36 -13 72 24 56 56 58 61 18 76 -18 7 -30
0 -30 -18z"/>
<path d="M3249 6059 c-6 -10 -4 -19 5 -20 9 0 0 -9 -19 -21 -19 -11 -35 -29
-35 -40 0 -11 27 -4 60 15 33 20 60 42 60 49 0 23 -58 37 -71 17z"/>
<path d="M3100 5995 c0 -14 17 -36 37 -48 32 -21 36 -18 28 25 -10 49 -65 69
-65 23z"/>
<path d="M2601 5903 c-91 -48 -118 -92 -86 -138 88 -125 92 -146 45 -239 -35
-70 -40 -104 -28 -172 8 -46 16 -134 17 -194 2 -125 42 -240 83 -240 17 0 28
-21 28 -51 0 -29 -9 -46 -20 -39 -30 19 -23 -35 11 -79 28 -37 29 -37 29 14 0
50 3 52 60 32 33 -12 60 -29 60 -39 0 -33 53 -18 94 27 36 39 41 69 39 239 -2
129 4 187 17 174 11 -11 20 -114 21 -230 l0 -210 -84 -41 c-108 -54 -205 -39
-275 44 -83 99 -403 71 -519 -44 -72 -73 -60 -89 34 -44 83 39 106 29 74 -31
-15 -28 -15 -42 -2 -42 12 0 21 14 21 30 0 39 52 39 67 0 10 -27 21 -26 93 2
65 26 86 28 110 8 17 -14 59 -31 95 -39 l65 -14 -100 -44 c-55 -25 -125 -69
-155 -98 -42 -40 -55 -45 -55 -20 0 18 -23 50 -50 71 -27 22 -50 47 -50 57 0
9 -67 17 -148 17 -82 0 -139 -6 -127 -13 11 -7 -9 -19 -44 -27 -92 -20 -90
-24 -100 246 -1 15 -10 21 -21 14 -25 -16 -26 59 -1 105 10 19 23 52 30 72 13
42 70 39 407 -19 171 -29 204 -26 204 22 0 32 -36 45 -160 59 -371 42 -419 55
-499 134 -67 68 -163 110 -131 57 7 -11 3 -20 -8 -20 -11 0 -16 -13 -9 -30 15
-41 -82 -39 -368 7 -183 29 -225 31 -225 10 0 -37 -21 -34 -51 8 -14 19 -35
35 -46 35 -12 0 -66 33 -121 74 l-99 75 -133 -60 c-160 -73 -159 -75 30 -186
l149 -88 91 39 c87 38 97 38 340 7 432 -57 433 -57 461 -174 26 -109 11 -149
-32 -88 -36 48 -66 23 -34 -28 13 -21 17 -41 9 -45 -54 -23 -111 -478 -75
-593 29 -92 481 28 656 174 78 66 80 61 76 -251 -3 -305 -28 -392 -158 -554
-70 -87 -82 -186 -33 -272 47 -83 39 -106 -35 -92 -121 23 -533 -141 -535
-213 0 -21 136 -19 220 4 148 39 282 35 312 -10 27 -41 26 -41 -91 -33 -216
16 -303 -57 -232 -193 46 -90 80 -100 343 -105 281 -6 378 25 356 112 -12 49
43 346 70 375 50 54 264 -31 308 -122 29 -62 65 -103 109 -123 119 -55 87
-303 -42 -325 -38 -7 -49 -3 -36 10 21 21 -5 104 -79 249 -21 41 -38 95 -38
119 0 56 -33 78 -71 46 -44 -36 -37 -176 11 -216 35 -30 54 -112 59 -269 1
-22 10 -31 24 -22 15 9 18 5 7 -12 -44 -71 -1 -335 57 -346 23 -5 -23 -10
-104 -11 -132 -3 -146 -7 -132 -38 8 -19 19 -98 24 -175 8 -140 32 -218 107
-350 172 -301 210 -441 160 -585 l-40 -115 64 0 c35 0 78 -10 94 -21 21 -14
-2 -16 -75 -7 -104 13 -105 13 -105 -41 0 -29 -9 -70 -19 -89 -46 -85 178
-184 229 -102 7 12 20 16 29 11 9 -6 39 7 66 29 27 21 94 48 147 60 54 12 121
44 148 70 77 73 149 91 404 104 250 13 289 -1 166 -60 -127 -61 -85 -121 108
-152 445 -72 1300 277 962 392 -132 45 -409 25 -290 -21 17 -7 30 -25 30 -41
0 -42 -60 -96 -93 -83 -16 5 -34 -4 -41 -21 -9 -25 -15 -26 -28 -5 -13 20 -17
21 -18 2 0 -14 -20 -25 -45 -25 -33 1 -38 5 -18 18 19 12 21 21 5 31 -12 7
-22 24 -22 37 0 15 9 12 21 -6 16 -23 19 -16 15 29 -4 44 -19 63 -56 73 l-50
14 50 5 c28 3 77 7 110 9 33 3 85 15 116 27 31 13 142 23 246 23 300 0 613 58
493 92 -25 7 -45 25 -45 40 0 34 -74 35 -431 8 -344 -26 -1746 -40 -1760 -18
-6 10 -24 18 -40 18 -44 0 -10 -61 47 -82 38 -15 45 -25 27 -43 -42 -42 -24
-67 58 -86 88 -20 114 -54 49 -65 -22 -3 -65 -16 -97 -28 -56 -22 -58 -35 -23
-122 8 -20 7 -33 -3 -30 -9 3 -57 -37 -105 -89 -87 -95 -122 -112 -86 -42 11
20 29 82 40 137 12 55 32 138 46 184 23 74 22 89 -8 121 -30 34 -74 213 -101
406 -5 38 2 91 16 117 30 56 6 182 -51 264 -20 29 -36 79 -35 110 0 32 -6 96
-14 142 -7 46 -8 151 0 233 l14 149 122 22 c165 29 173 41 99 156 -163 255
-167 360 -13 337 104 -16 236 16 290 70 38 38 39 38 88 -36 53 -81 121 -312
101 -345 -16 -26 -70 -26 -70 0 0 11 -19 20 -42 20 -29 0 -39 -9 -31 -30 7
-16 5 -30 -4 -30 -9 0 -16 -13 -16 -30 0 -22 6 -24 26 -7 57 47 23 -19 -38
-74 -35 -33 -48 -40 -29 -17 39 47 8 82 -102 117 -26 8 -56 35 -68 61 -12 27
-32 42 -48 36 -38 -14 -35 -40 11 -105 22 -31 44 -89 49 -130 5 -40 34 -106
64 -146 40 -51 46 -68 22 -59 -63 24 -34 -26 51 -87 95 -69 253 -254 254 -297
1 -16 22 -65 48 -110 26 -45 63 -129 81 -186 80 -242 251 -291 285 -81 12 71
-72 275 -113 275 -11 0 -20 12 -20 27 0 15 -18 43 -40 63 -33 30 -40 62 -40
188 -1 183 -52 293 -161 345 -38 18 -68 43 -67 55 1 12 3 56 5 97 5 102 228
183 368 133 140 -49 148 -45 293 156 108 150 125 152 272 27 l131 -111 62 31
c98 51 261 410 271 598 9 162 8 164 -116 229 l-93 48 78 102 c99 131 99 132
-46 132 -68 0 -180 10 -249 22 l-125 22 -33 103 c-232 718 -1046 1187 -1337
771 -22 -31 -41 -38 -74 -28 -31 10 -37 19 -20 30 20 12 20 24 1 61 -16 29
-21 86 -14 155 14 131 -21 325 -65 358 -21 17 -23 25 -6 25 31 1 33 54 2 73
-16 9 -18 5 -7 -14 13 -23 11 -23 -12 -2 -17 16 -20 31 -8 40 22 15 26 82 7
114 -7 11 -19 58 -26 105 -8 47 -23 80 -33 74 -10 -6 -18 3 -18 21 0 18 -8 27
-18 21 -9 -6 -29 3 -42 19 -33 40 -96 38 -179 -7z m219 -208 c0 -3 18 -54 40
-114 l39 -108 -69 67 c-66 64 -86 117 -57 147 13 13 47 18 47 8z m-142 -142
c-2 -46 3 -162 12 -258 11 -133 9 -175 -10 -175 -16 0 -22 26 -17 76 7 70 4
76 -38 68 -44 -8 -45 -4 -40 112 3 66 12 116 20 111 15 -9 18 10 22 116 1 35
10 49 28 42 17 -6 25 -39 23 -92z m-1971 -322 c18 8 33 4 33 -6 0 -11 20 -19
45 -17 28 1 45 -10 45 -28 0 -43 -67 -49 -110 -10 -21 19 -45 29 -55 23 -34
-21 -79 24 -46 46 19 12 34 12 42 -1 7 -11 27 -14 46 -7z m1932 -136 l-1 -85
-25 70 c-27 72 -24 100 8 100 11 0 18 -38 18 -85z m210 -93 c-6 -6 -20 2 -30
19 -15 23 -18 21 -16 -11 7 -85 -3 -141 -21 -113 -9 14 -24 23 -34 20 -10 -4
-21 18 -24 48 -4 31 3 55 16 55 12 0 18 -7 13 -16 -6 -9 -2 -29 8 -45 13 -21
18 -6 19 49 0 77 1 78 40 42 22 -20 35 -41 29 -48z m570 -127 c-27 -10 -57
-19 -67 -21 -104 -21 -203 -254 -107 -254 12 0 6 -12 -14 -27 -23 -17 -33 -40
-25 -60 9 -22 2 -33 -18 -33 -26 0 -29 15 -18 79 14 82 -52 160 -114 134 -18
-7 -16 -10 6 -11 17 -1 48 -20 68 -41 70 -78 -27 -204 -132 -170 -54 17 -32
-230 37 -411 6 -16 9 -39 7 -49 -3 -11 15 -2 40 20 34 29 42 31 33 8 -6 -17 6
-67 26 -110 21 -44 38 -89 38 -100 2 -38 81 -189 100 -189 10 0 24 -17 30 -38
7 -20 35 -63 63 -95 28 -31 74 -87 103 -123 28 -37 79 -80 113 -96 44 -21 52
-22 29 -3 -31 25 -31 30 4 76 21 27 33 65 27 84 -6 19 -1 35 12 35 12 0 16
-10 8 -23 -9 -14 -5 -18 8 -9 14 8 16 31 7 58 -24 68 -13 124 38 197 45 65 45
66 3 29 l-44 -38 0 121 c0 119 29 166 82 134 10 -6 18 3 18 20 0 24 -15 28
-70 20 -61 -10 -70 -6 -70 30 0 22 -9 41 -20 41 -12 0 -12 -17 -2 -46 46 -121
-19 -654 -80 -654 -24 0 -23 11 14 190 32 153 31 456 -2 535 -20 49 15 43 76
-13 53 -49 79 -49 60 0 -5 15 -23 28 -38 28 -15 0 -28 8 -28 17 0 10 -20 16
-45 15 -25 -1 -60 16 -79 38 -35 40 -35 40 -35 -5 -1 -25 -5 -45 -9 -45 -5 0
-23 -5 -40 -12 -46 -18 -39 33 14 92 24 28 42 47 40 43 -8 -14 51 -63 75 -63
18 0 18 7 -1 30 -14 17 -17 30 -7 31 9 0 0 13 -21 29 -34 26 -35 34 -10 94 16
36 29 75 31 86 1 11 4 25 6 30 2 6 7 24 10 40 4 17 13 53 20 81 11 40 6 51
-25 53 -32 3 -37 -10 -34 -76 2 -44 -4 -84 -13 -90 -9 -6 -17 0 -17 12 0 14
-10 12 -28 -4 -20 -19 -21 -30 -5 -41 15 -9 11 -14 -10 -15 -19 0 -38 -11 -44
-25 -6 -15 -10 -11 -11 9 -1 22 -13 31 -32 23 -62 -24 -27 14 45 48 78 37 114
105 54 105 -22 0 -29 11 -21 31 6 18 3 26 -8 19 -31 -19 -23 -70 11 -70 25 0
26 -5 5 -28 -38 -41 -56 -19 -56 69 0 44 -8 79 -18 79 -24 0 -41 -98 -19 -112
9 -6 16 -30 15 -54 l-2 -44 -13 44 c-10 35 -20 40 -43 24 -23 -16 -24 -24 -5
-31 14 -6 25 -20 25 -31 0 -13 -12 -11 -30 4 -30 25 -21 123 13 137 9 3 17 15
17 26 0 11 -9 14 -20 7 -11 -7 -35 -3 -55 7 -30 17 -27 22 22 34 41 10 49 19
30 31 -42 26 145 100 226 89 37 -4 74 -9 83 -10 9 0 12 -8 7 -17 -6 -8 5 -17
23 -18 70 -6 112 -20 119 -42 4 -12 18 -18 31 -13 13 5 48 -11 78 -36 29 -25
95 -80 146 -123 216 -181 439 -669 366 -799 -11 -21 -11 -33 2 -33 12 0 13
-23 1 -65 -23 -80 -23 -80 1 -65 11 7 20 3 20 -8 0 -23 -37 -49 -82 -56 -37
-6 -152 107 -130 128 13 14 27 0 71 -74 10 -16 25 -23 33 -15 8 9 -4 34 -28
56 -24 22 -49 62 -56 88 -7 29 -30 52 -55 56 -39 7 -40 9 -7 24 39 17 74 -5
81 -51 11 -73 64 -105 64 -39 0 21 -9 37 -20 35 -11 -2 -23 16 -27 40 -9 59
-79 80 -121 37 -31 -31 -30 -35 2 -59 39 -29 47 -72 14 -72 -12 0 -16 9 -10
19 7 10 -7 29 -30 42 -39 20 -40 25 -11 57 18 19 32 50 32 69 0 32 4 32 62 2
34 -18 57 -23 50 -12 -7 11 -1 24 13 29 14 5 18 16 7 26 -10 11 -21 8 -26 -7
-11 -29 -46 -34 -46 -7 0 28 65 45 87 23 50 -50 47 -14 -6 64 -84 125 -481
495 -530 495 -12 0 -7 -9 9 -20 25 -16 24 -19 -6 -20 -20 0 -31 -9 -25 -19 7
-11 26 -14 43 -8 20 8 34 -2 41 -29 6 -24 22 -37 38 -31 21 8 25 -11 20 -86
-5 -65 -2 -84 10 -57 9 22 17 32 18 23 0 -10 15 -6 32 8 26 21 30 21 25 -2 -3
-16 13 -31 37 -35 42 -6 25 -103 -19 -104 -9 0 -10 11 -2 25 8 14 7 18 -2 10
-9 -8 -30 -3 -47 10 -25 20 -28 20 -14 -2 11 -19 5 -25 -21 -20 -42 8 -76 133
-46 169 13 16 8 27 -13 36 -61 23 -70 12 -38 -50 36 -70 62 -408 29 -388 -28
17 -25 -37 4 -66 18 -18 17 -34 -2 -69 -13 -26 -26 -80 -28 -121 -2 -40 -11
-74 -20 -74 -9 0 -12 -8 -6 -17 11 -18 -2 -68 -58 -223 l-33 -89 54 -47 c32
-27 71 -43 92 -37 20 5 33 2 28 -6 -37 -59 250 -95 377 -48 161 61 257 272
149 328 -39 20 -43 19 -22 -3 60 -63 4 -198 -83 -198 -24 0 -51 -19 -62 -43
-30 -64 -103 -86 -101 -30 1 32 -9 42 -39 38 -39 -6 -39 -6 -1 18 21 13 42 15
45 5 4 -10 15 -31 25 -47 28 -44 48 -11 22 37 -19 35 -17 39 14 28 33 -12 33
-11 0 27 -43 49 -45 124 -6 180 16 23 23 49 15 58 -8 8 -3 9 11 1 14 -8 25 -5
25 7 0 35 127 14 165 -27 19 -21 35 -46 35 -55 0 -9 10 -17 22 -17 14 0 19 73
15 228 -4 136 0 224 11 217 11 -6 14 1 8 17 -6 15 0 39 14 52 83 77 110 -500
33 -697 -147 -376 -540 -438 -896 -141 -67 56 -130 96 -138 88 -8 -8 -10 -4
-3 8 13 22 -32 81 -100 131 -20 15 -48 50 -62 77 -14 28 -44 73 -67 100 -22
28 -34 37 -26 22 10 -19 7 -23 -9 -13 -13 8 -20 25 -16 38 5 13 -17 75 -49
138 -66 133 -160 403 -164 475 -2 28 -10 48 -18 45 -8 -3 -26 -5 -39 -5 -19 0
-19 -5 0 -24 33 -33 30 -57 -6 -43 -35 13 -41 -61 -11 -141 11 -27 25 -120 33
-206 17 -185 44 -219 136 -172 54 28 61 28 86 -6 36 -49 6 -74 -99 -80 -546
-31 -564 -29 -544 83 14 74 -22 255 -63 319 -60 93 -86 203 -58 244 17 25 21
49 9 67 -64 101 192 294 325 244 85 -33 223 24 194 79 -52 96 123 222 222 160
31 -19 40 -16 50 16 12 39 123 129 160 131 11 0 18 10 16 22 -2 12 18 17 49
11 l53 -10 -49 -19z m-668 -234 c-6 -10 -3 -24 9 -31 11 -7 20 -3 20 8 0 11
17 18 38 17 57 -5 27 -51 -42 -66 -80 -17 -122 22 -67 62 45 34 58 37 42 10z
m-981 -183 c-3 -67 -15 -131 -26 -142 -14 -14 -17 4 -10 60 10 76 8 81 -32 70
-24 -6 -39 -16 -34 -21 14 -14 -40 -65 -68 -65 -13 0 -19 11 -14 25 5 14 20
22 33 19 14 -3 21 6 16 20 -13 39 37 78 79 62 33 -12 33 -10 6 24 -16 21 -20
32 -7 24 13 -8 28 0 34 16 22 56 28 30 23 -92z m276 -30 c-5 -15 -23 -28 -38
-28 -16 0 -57 -27 -91 -60 -95 -90 -112 -79 -85 57 11 54 19 60 68 50 30 -6
61 -2 68 9 19 31 91 5 78 -28z m1244 32 c7 -11 1 -24 -14 -29 -60 -21 -102
-20 -110 2 -5 15 7 20 33 13 23 -6 41 -1 41 12 0 27 33 29 50 2z m203 -57
c-18 -20 -27 -42 -20 -50 8 -7 -11 -13 -41 -13 -32 0 -49 -8 -42 -20 7 -12 21
-16 30 -10 9 6 23 2 30 -10 7 -11 2 -20 -10 -20 -12 0 -18 -7 -12 -16 16 -27
-22 -70 -48 -54 -19 12 -18 19 3 33 21 13 16 20 -18 29 -25 7 -45 18 -45 24 0
19 65 84 84 84 10 0 37 18 60 40 52 48 76 35 29 -17z m-133 -6 c0 -9 -13 -17
-30 -17 -16 0 -30 -17 -30 -39 0 -50 -32 -70 -48 -29 -7 19 -30 28 -61 24 -27
-3 -52 2 -55 13 -7 22 103 55 139 42 14 -6 25 -3 25 6 0 9 14 16 30 16 17 0
30 -7 30 -16z m-118 -92 c12 -79 10 -147 -3 -156 -9 -5 1 -69 22 -142 40 -141
68 -195 47 -93 -7 36 -3 67 10 75 13 8 22 -2 22 -26 0 -73 98 -69 100 4 0 10
14 12 30 6 17 -7 31 -1 32 13 1 13 10 -7 19 -46 9 -38 9 -104 0 -145 -10 -44
-9 -80 1 -86 10 -7 12 -22 4 -35 -8 -13 -17 -36 -19 -52 -7 -47 -47 -75 -47
-33 0 21 -5 32 -12 26 -26 -26 14 -93 48 -81 27 9 25 4 -6 -23 -22 -19 -29
-28 -15 -21 15 7 25 0 25 -18 0 -19 -11 -26 -30 -19 -16 6 -30 29 -30 50 0 22
-8 34 -18 29 -19 -12 -91 89 -161 225 -36 72 -40 97 -22 148 28 80 27 85 -9
55 -43 -36 -62 -9 -22 30 43 44 40 57 -8 44 -49 -13 -51 1 -7 49 18 21 24 37
12 37 -12 0 -26 -11 -31 -25 -5 -14 -16 -18 -26 -8 -10 9 -2 25 17 35 43 24
47 61 5 45 -43 -16 -37 20 10 63 22 20 40 46 39 58 0 12 -13 5 -29 -17 -16
-21 -35 -33 -41 -27 -13 14 46 76 72 76 11 0 20 -7 21 -15z m92 -102 c-7 -31
-4 -65 5 -75 21 -22 -10 -108 -38 -108 -17 0 -17 56 0 100 11 30 7 72 -9 83
-21 15 2 57 32 57 12 0 16 -23 10 -57z m782 -69 c27 -32 -3 -85 -36 -64 -19
12 -18 19 3 32 20 13 20 17 2 18 -14 0 -25 9 -25 20 0 28 31 25 56 -6z m-161
-50 c5 -14 1 -23 -8 -20 -9 3 -18 -3 -20 -14 -2 -11 6 -18 16 -15 11 4 14 -3
7 -15 -7 -11 -3 -20 8 -20 11 0 16 -13 9 -30 -14 -38 -47 -39 -47 -2 0 15 -13
38 -30 52 -21 17 -30 18 -30 2 0 -12 10 -22 21 -22 12 0 15 -10 8 -21 -7 -12
3 -34 23 -48 32 -23 33 -34 11 -84 -20 -44 -20 -51 -1 -33 36 36 77 165 78
244 l0 67 55 -57 c55 -58 55 -58 10 -64 -83 -12 -50 -55 35 -46 27 3 27 1 0
-17 -16 -11 -45 -21 -64 -21 -18 0 -39 -8 -45 -19 -7 -11 12 -12 49 -1 66 19
70 15 38 -43 -33 -63 -44 -143 -16 -126 14 9 20 4 13 -13 -5 -15 -2 -48 7 -72
13 -34 10 -42 -13 -33 -16 6 -23 21 -16 32 8 13 3 15 -11 6 -14 -8 -20 -27
-14 -42 6 -16 0 -23 -16 -17 -18 7 -25 -20 -26 -102 0 -107 -53 -250 -92 -250
-9 0 -11 -8 -5 -19 6 -10 2 -24 -9 -31 -12 -7 -20 -6 -18 4 7 42 -5 61 -37 59
-50 -4 -47 123 3 182 22 25 34 50 28 55 -6 6 1 62 16 124 14 62 21 121 15 131
-6 10 -15 60 -20 112 -5 51 -17 118 -27 148 -11 34 -11 55 1 55 10 0 19 14 19
31 0 38 82 32 95 -7z m-559 -79 c2 -55 -2 -67 -16 -45 -24 37 -26 120 -3 120
9 0 18 -34 19 -75z m773 -369 c17 -25 31 -54 31 -65 0 -12 -9 -7 -20 9 -13 20
-19 22 -20 5 0 -14 -7 -25 -17 -25 -9 0 -17 11 -17 25 -1 14 -8 41 -16 60 -21
50 22 44 59 -9z m-1634 -199 c-14 -9 -15 -17 -4 -17 12 0 39 -14 60 -31 38
-30 38 -31 -4 -11 -40 20 -41 18 -20 -28 23 -49 53 -67 53 -32 0 39 112 35
115 -4 2 -31 -2 -33 -28 -11 -25 21 -34 19 -49 -7 -11 -20 -33 -28 -58 -22
-22 6 -40 1 -40 -12 0 -33 152 -27 188 9 17 16 25 46 19 65 -9 29 -8 30 11 4
19 -27 24 -27 41 0 15 23 19 21 16 -14 -2 -24 -10 -39 -18 -34 -8 5 -19 1 -25
-9 -7 -10 11 -23 38 -28 33 -6 50 0 50 17 0 16 13 22 30 15 28 -10 40 14 31
61 -2 10 13 6 33 -9 20 -15 29 -20 21 -10 -8 9 -5 29 8 44 25 30 66 37 48 8
-7 -10 33 -39 87 -64 55 -25 95 -52 90 -60 -4 -7 14 -32 42 -53 72 -57 62 -76
-41 -81 -119 -6 -169 11 -169 58 0 44 8 47 56 22 19 -10 61 -24 94 -32 l60
-14 -50 53 c-102 110 -156 122 -225 51 -34 -35 -73 -58 -87 -53 -15 6 -22 -1
-16 -16 12 -33 -43 -80 -72 -62 -13 8 -18 26 -13 41 17 43 -47 85 -69 45 -13
-24 -39 -29 -109 -21 -69 8 -89 4 -85 -16 3 -15 -10 -30 -30 -35 -33 -7 -35 3
-22 119 18 156 18 156 -2 217 -15 50 -15 50 28 11 33 -29 37 -42 17 -54z m625
11 c0 -17 -9 -25 -20 -18 -12 7 -15 23 -7 36 8 14 6 17 -5 7 -10 -9 -18 -35
-18 -58 0 -23 -10 -45 -22 -49 -29 -10 -11 98 19 118 28 18 53 1 53 -36z
m-741 -102 c-38 -41 -112 -114 -164 -164 l-95 -90 74 -76 c79 -81 71 -106 -10
-31 l-48 45 46 -78 46 -78 -66 -55 c-40 -34 -80 -51 -104 -44 -50 13 -50 14
34 96 l72 69 -42 71 c-43 73 -55 119 -26 101 10 -5 88 62 175 149 162 163 232
218 108 85z m2481 42 c0 -7 -65 -79 -143 -160 l-144 -148 49 -54 48 -54 -63
49 c-34 27 -73 67 -87 89 -20 33 -20 36 2 15 42 -40 161 84 138 144 -18 48 -5
78 38 87 18 4 24 -7 16 -35 -14 -57 9 -51 76 19 59 61 70 69 70 48z m-1375
-957 c46 18 67 -32 26 -63 -48 -35 -82 -17 -86 47 -3 35 1 46 12 29 9 -14 30
-20 48 -13z m186 -147 c33 -29 49 -46 34 -36 -17 11 -39 6 -63 -16 -46 -41
-87 -4 -69 64 15 56 24 55 98 -12z m-881 -284 c-7 -11 -59 -19 -116 -17 l-104
4 110 13 c61 7 113 15 116 17 4 2 1 -6 -6 -17z m90 -322 c0 -13 -20 3 -45 34
-24 32 -56 70 -70 84 -14 15 -25 33 -24 40 0 24 139 -134 139 -158z m1437
-630 c61 -43 87 -115 63 -178 -21 -56 -66 -70 -47 -15 8 24 1 20 -22 -10 -50
-68 -148 -61 -215 15 -29 33 -45 60 -36 60 8 0 21 22 28 49 23 91 149 135 229
79z m-383 -58 c-37 -27 -106 -19 -126 14 -7 11 13 15 50 9 34 -5 67 -1 74 10
7 11 18 14 25 7 7 -7 -3 -25 -23 -40z m-993 -261 c12 -15 16 -38 8 -50 -10
-17 -19 -16 -31 4 -14 22 -17 22 -18 1 0 -56 -54 -86 -109 -61 -55 25 -72 69
-18 49 27 -11 29 -8 7 18 -22 26 -20 29 12 19 37 -12 37 -11 2 18 -36 29 -36
30 0 37 54 11 122 -5 147 -35z"/>
<path d="M2969 4652 c-19 -30 -28 -66 -20 -87 11 -27 20 -18 42 44 33 96 24
113 -22 43z"/>
<path d="M3634 4683 c3 -5 -5 -27 -17 -49 -20 -36 -74 -238 -76 -280 -1 -8 19
-6 44 6 43 21 43 21 7 -8 -21 -17 -46 -26 -55 -20 -9 6 -17 -2 -17 -16 0 -34
76 -101 99 -87 10 6 12 -9 6 -34 -11 -45 -11 -45 32 -7 29 26 40 53 32 80 -9
34 -5 33 19 -8 40 -66 40 -24 0 71 -17 42 -27 96 -23 122 5 25 2 41 -8 35 -9
-6 -17 8 -17 31 0 106 232 -57 537 -377 84 -88 99 -98 70 -47 -19 36 -43 65
-51 65 -9 0 -16 22 -16 49 0 54 -31 85 -47 46 -8 -20 -10 -20 -11 0 -3 42 -8
54 -35 81 -15 15 -36 21 -47 14 -11 -7 -34 24 -51 67 -29 71 -89 129 -89 85 0
-10 -33 13 -74 50 -41 38 -86 68 -100 68 -14 0 -26 10 -26 22 0 12 -11 18 -25
13 -14 -5 -34 1 -45 13 -11 13 -18 19 -16 15z"/>
<path d="M3045 4626 c-30 -11 -34 -66 -5 -66 11 0 20 10 20 21 0 12 9 16 21 8
33 -20 -18 -69 -57 -55 -26 9 -29 6 -11 -13 28 -30 107 5 107 47 0 36 -44 69
-75 58z"/>
<path d="M2729 4405 c-12 -8 -23 -50 -26 -93 -6 -101 -5 -100 -114 -141 -88
-34 -93 -34 -120 2 -32 43 -37 -7 -11 -123 l13 -60 22 61 c20 54 37 65 140 88
161 35 192 54 175 106 -7 23 -14 69 -16 102 -3 62 -26 83 -63 58z"/>
<path d="M3688 4150 c5 -33 9 -68 10 -77 1 -10 14 -8 29 4 15 13 31 18 37 12
9 -9 8 30 -2 101 -1 11 -11 7 -22 -10 -18 -27 -22 -27 -40 0 -16 23 -19 15
-12 -30z"/>
<path d="M2743 4089 c-19 -41 -18 -57 4 -79 34 -33 53 -19 53 38 -1 76 -31 98
-57 41z"/>
<path d="M2734 3896 c-34 -59 -34 -66 -5 -88 25 -18 29 -42 19 -105 -9 -60 -5
-89 18 -112 68 -68 110 -2 76 120 -11 40 -15 85 -9 101 12 30 -29 148 -50 148
-7 0 -29 -29 -49 -64z"/>
<path d="M4188 3431 c-33 -86 40 -181 107 -139 51 32 45 97 -10 104 -30 5 -45
-3 -45 -25 0 -37 32 -41 47 -6 6 15 10 12 11 -9 2 -42 -25 -60 -66 -44 -43 16
-41 101 3 126 33 20 33 21 -1 21 -19 1 -40 -12 -46 -28z"/>
<path d="M3944 3682 c1 -34 -15 -82 -36 -107 -34 -40 -32 -40 17 4 36 31 53
64 49 94 -9 71 -32 78 -30 9z"/>
<path d="M3903 3500 c-49 -81 -49 -81 -23 -149 15 -39 13 -51 -9 -51 -18 0
-24 14 -16 43 8 30 4 39 -12 29 -36 -23 -29 -109 9 -104 57 9 105 92 88 153
-10 33 -8 63 4 75 11 11 16 33 11 47 -5 17 -25 1 -52 -43z"/>
<path d="M4221 1007 c-22 -16 -41 -39 -41 -51 0 -12 18 -6 39 13 49 45 133 28
151 -31 8 -22 19 -36 25 -30 51 51 -110 143 -174 99z"/>
<path d="M4240 920 c0 -44 31 -54 47 -15 6 15 10 11 11 -10 1 -20 -12 -35 -31
-35 -18 0 -45 16 -61 35 -26 33 -27 33 -22 -5 9 -59 128 -68 146 -11 16 52 -2
81 -51 81 -26 0 -39 -14 -39 -40z"/>
<path d="M4191 5881 c-38 -42 -36 -105 5 -113 14 -3 16 0 5 5 -28 14 -27 88 1
82 13 -3 25 11 29 30 7 44 3 44 -40 -4z"/>
<path d="M4331 5894 c7 -19 21 -34 29 -34 29 0 7 -100 -32 -145 -30 -35 -30
-38 -4 -18 19 15 44 21 55 14 13 -8 15 0 7 21 -7 19 -5 30 6 23 10 -6 18 26
19 70 1 45 -2 71 -7 57 -6 -17 -19 -14 -47 11 -35 32 -38 32 -26 1z"/>
<path d="M1916 5867 c20 -35 10 -102 -22 -142 -14 -19 -12 -23 11 -14 57 22
59 189 3 189 -5 0 -2 -15 8 -33z"/>
<path d="M558 5830 c-2 -5 -5 -21 -6 -35 -2 -14 -15 -23 -28 -20 -22 5 -33
-21 -26 -62 2 -10 -10 -13 -26 -6 -20 7 -26 2 -19 -18 9 -23 27 -16 86 30 120
96 136 121 73 121 -28 0 -53 -4 -54 -10z"/>
<path d="M5284 5659 c-55 -51 -56 -79 -2 -79 37 0 39 5 17 31 -21 26 -21 30 3
25 15 -3 25 6 22 21 -4 18 6 24 25 16 17 -6 31 -3 31 8 0 32 -50 21 -96 -22z"/>
<path d="M395 5665 c-40 -9 -48 -45 -10 -45 18 -1 18 -5 -2 -18 -16 -10 -19
-22 -8 -29 10 -6 31 11 45 38 30 55 25 65 -25 54z"/>
<path d="M4470 4840 c12 -20 -39 -64 -56 -48 -6 7 -10 -6 -9 -30 4 -48 35 -58
35 -11 0 19 9 26 23 17 14 -9 18 -5 9 9 -9 15 1 23 27 23 53 0 53 32 1 46 -22
6 -36 3 -30 -6z"/>
<path d="M708 4585 c-8 -30 -22 -66 -32 -78 -13 -17 -7 -21 23 -13 23 6 47 20
54 32 8 11 3 14 -10 6 -16 -10 -19 4 -10 47 15 76 -7 81 -25 6z"/>
<path d="M770 3587 c-40 -32 -40 -32 0 -20 40 13 40 13 0 -18 -36 -27 -42 -27
-63 2 -27 37 -76 20 -53 -17 8 -13 17 -36 19 -51 2 -15 11 -33 19 -40 8 -7 9
2 2 21 -9 25 3 37 48 47 34 7 66 25 71 41 6 15 24 28 40 28 16 0 24 9 17 20
-18 29 -54 24 -100 -13z"/>
<path d="M564 3386 c-21 -8 -21 -16 0 -42 21 -26 21 -29 -1 -16 -17 11 -37 1
-56 -26 -16 -24 -38 -38 -48 -31 -10 6 -13 -3 -7 -20 14 -34 48 -42 48 -11 0
11 9 20 21 20 22 0 117 100 118 125 1 17 -35 17 -75 1z"/>
<path d="M5251 3185 c-19 -49 13 -74 42 -34 35 47 34 62 -2 62 -16 0 -34 -12
-40 -28z"/>
<path d="M2453 2607 c-27 -28 -11 -114 50 -273 89 -228 104 -235 91 -40 -12
197 -88 365 -141 313z"/>
<path d="M4454 2360 c-15 -22 -34 -34 -41 -27 -7 8 -13 1 -13 -13 0 -19 -9
-15 -27 9 -24 33 -73 30 -73 -5 1 -34 99 -60 122 -32 13 15 36 28 52 28 15 0
23 9 16 20 -7 11 2 20 20 20 18 0 27 9 20 20 -19 31 -45 24 -76 -20z"/>
<path d="M1871 2341 c-12 -19 64 -61 110 -61 33 0 21 35 -16 48 -19 6 -45 17
-58 23 -13 6 -29 2 -36 -10z"/>
<path d="M4313 2267 c-7 -8 -13 -34 -13 -59 0 -35 -9 -44 -40 -38 -24 5 -40
-3 -40 -19 0 -14 -14 -38 -31 -52 -23 -19 -25 -29 -7 -40 38 -24 150 102 140
159 -6 35 -1 44 18 32 17 -11 21 -8 12 7 -17 27 -21 28 -39 10z"/>
<path d="M713 2167 c-7 -8 -13 -27 -13 -44 0 -16 -16 -48 -35 -69 -34 -39 -34
-39 9 -13 24 15 49 49 56 75 13 51 6 73 -17 51z"/>
<path d="M1737 2110 c-25 -37 -52 -63 -59 -59 -25 16 -40 -57 -16 -79 18 -16
20 -15 10 3 -10 17 0 25 29 25 31 0 40 9 31 31 -6 17 -3 26 7 20 10 -7 30 5
45 25 14 20 46 50 71 67 l45 31 -58 2 c-45 1 -69 -14 -105 -66z"/>
<path d="M1572 1969 c-6 -17 2 -35 19 -42 39 -15 57 3 42 42 -15 40 -45 40
-61 0z"/>
<path d="M3385 1386 c-49 -10 -120 -98 -97 -121 8 -8 64 12 124 44 78 40 103
62 84 74 -27 17 -36 17 -111 3z"/>
<path d="M820 1172 c0 -17 -13 -32 -28 -32 -30 0 -59 -53 -36 -68 34 -20 123
84 93 109 -23 19 -29 18 -29 -9z"/>
<path d="M2245 1176 c-138 -25 -133 -47 13 -63 139 -14 374 -99 367 -131 -7
-32 45 -49 105 -34 44 11 47 17 26 62 -15 34 -16 64 -2 95 36 81 -243 120
-509 71z"/>
<path d="M1744 996 c-13 -13 -24 -44 -24 -68 0 -52 50 -101 70 -68 7 11 1 19
-14 15 -17 -3 -25 15 -24 55 1 37 11 58 26 55 14 -4 19 3 12 15 -16 25 -17 25
-46 -4z"/>
<path d="M578 925 c-2 -8 -2 -22 0 -30 1 -8 -9 -15 -24 -15 -33 0 -101 -80
-83 -97 8 -7 18 -2 23 12 5 14 18 25 29 25 32 0 81 58 67 80 -7 11 1 15 19 8
17 -7 31 -2 31 10 0 24 -59 31 -62 7z"/>
<path d="M5251 745 c-18 -47 14 -66 58 -34 39 29 32 54 -18 61 -16 2 -34 -10
-40 -27z"/>
<path d="M2508 593 c-140 -113 -268 -238 -268 -261 0 -20 149 15 186 45 127
99 214 200 201 234 -9 22 -1 44 23 62 21 14 32 31 26 37 -6 6 -82 -46 -168
-117z"/>
</g>
</svg>
