<?xml version="1.0" standalone="no"?>
<!DOCTYPE svg PUBLIC "-//W3C//DTD SVG 20010904//EN"
 "http://www.w3.org/TR/2001/REC-SVG-20010904/DTD/svg10.dtd">
<svg version="1.0" xmlns="http://www.w3.org/2000/svg"
 width="300.000000pt" height="257.000000pt" viewBox="0 0 300.000000 257.000000"
 preserveAspectRatio="xMidYMid meet">
<metadata>
Created by potrace 1.10, written by Peter Selinger 2001-2011
</metadata>
<g transform="translate(0.000000,257.000000) scale(0.050000,-0.050000)"
fill="#000000" stroke="none">
<path d="M3277 4786 c-108 -175 -184 -415 -180 -571 2 -52 -5 -95 -15 -95 -41
0 -82 26 -82 52 0 16 12 22 30 15 36 -14 40 15 6 49 -19 19 -19 29 0 48 32 32
30 76 -4 76 -50 0 -74 100 -52 229 10 65 15 122 11 127 -17 16 -48 -151 -61
-326 -25 -340 -146 -356 -151 -20 -1 83 -5 93 -22 58 -22 -45 7 -243 72 -505
31 -125 34 -549 4 -598 -6 -10 -6 -25 1 -32 24 -24 82 -13 94 18 6 17 4 26 -6
20 -65 -40 1 375 74 458 24 28 44 65 44 81 0 17 9 46 20 65 11 19 28 58 38 85
30 88 107 113 180 61 34 -24 62 -34 62 -23 0 11 13 16 28 10 15 -6 34 -1 41
10 9 15 27 14 57 -2 24 -12 58 -29 74 -37 17 -9 28 -25 25 -37 -3 -12 5 -22
17 -22 13 0 17 -15 9 -34 -7 -19 -7 -28 1 -21 8 8 28 3 45 -10 25 -21 28 -20
13 5 -14 23 -7 22 35 -5 69 -45 71 -44 60 15 -5 28 -19 50 -30 50 -14 0 -17
63 -8 185 7 109 4 197 -7 215 -15 23 -19 15 -20 -32 -1 -215 -123 -301 -225
-158 -24 33 -17 156 12 211 14 28 32 82 39 120 10 53 -3 36 -56 -71 -38 -77
-70 -165 -70 -195 0 -30 -9 -55 -20 -55 -36 0 -45 103 -22 245 25 152 16 212
-12 73 -9 -47 -28 -89 -41 -93 -44 -15 -32 234 16 333 53 110 38 127 -24 28z
m-37 -507 c0 -53 -30 -95 -53 -73 -14 14 -25 121 -14 138 20 33 67 -13 67 -65z
m-271 -265 c48 -48 32 -118 -31 -135 -51 -14 -53 -12 -53 81 0 102 22 116 84
54z"/>
<path d="M4750 4660 c-33 -22 -100 -71 -150 -109 -49 -38 -135 -100 -190 -139
-55 -38 -215 -178 -356 -310 -141 -133 -265 -242 -277 -242 -11 0 -6 -14 12
-31 17 -18 31 -40 31 -50 0 -45 52 -6 246 186 114 113 247 236 296 275 48 38
120 101 158 140 39 39 126 114 195 166 153 118 182 211 35 114z"/>
<path d="M2310 4063 c22 -10 90 -24 150 -31 61 -8 124 -23 140 -34 31 -21
-168 -8 -202 14 -10 5 -34 1 -53 -10 -28 -17 -19 -21 45 -22 107 -1 147 -26
111 -68 -41 -50 70 -42 123 8 53 49 63 41 37 -29 -12 -29 -22 -82 -22 -117 -1
-59 -3 -60 -20 -19 -10 25 -13 58 -7 73 24 62 -424 44 -491 -20 -37 -35 -24
-35 174 0 130 23 180 16 125 -18 -11 -7 -20 -28 -20 -47 0 -19 -47 -75 -103
-124 -177 -152 -283 -259 -271 -272 7 -6 46 21 88 60 58 55 78 65 86 42 8 -22
20 -14 46 29 19 33 66 78 104 102 39 24 66 51 60 60 -12 20 80 88 145 109 36
11 45 6 45 -25 0 -24 -13 -38 -35 -38 -60 2 -150 -30 -127 -45 15 -9 -12 -81
-79 -210 -55 -109 -97 -211 -93 -229 6 -26 11 -25 24 8 27 68 178 310 194 310
25 0 -7 -127 -42 -170 -39 -48 -102 -160 -102 -182 0 -9 13 2 29 23 20 26 30
30 30 12 1 -23 7 -23 31 -3 21 17 30 18 30 2 0 -12 -36 -47 -79 -77 -87 -60
-103 -87 -41 -71 49 13 57 -49 9 -67 -17 -7 -49 -47 -71 -91 l-40 -79 42 23
c23 12 47 35 53 51 6 15 27 33 48 39 20 7 46 41 58 77 12 37 49 86 81 110 73
54 74 47 10 -73 -27 -51 -50 -105 -50 -118 0 -38 -99 -214 -131 -232 -16 -9
-29 -25 -29 -36 0 -11 -26 -54 -59 -94 -32 -41 -65 -99 -72 -130 -8 -33 -46
-78 -96 -112 -46 -31 -128 -105 -183 -164 -118 -127 -508 -448 -567 -467 -22
-7 -67 -43 -99 -79 -32 -37 -68 -70 -81 -74 -69 -23 -378 -328 -464 -458 -33
-49 -132 -161 -220 -249 -145 -145 -181 -191 -147 -191 14 0 135 96 200 159
23 23 48 41 56 41 8 0 47 31 88 68 87 81 256 212 274 212 6 0 -11 -33 -39 -74
-66 -97 -47 -111 35 -25 36 38 154 150 263 249 142 130 188 182 163 187 -42 8
12 83 60 83 14 0 39 19 55 41 21 31 32 35 39 15 6 -14 12 -3 13 24 2 35 31 71
95 120 52 39 158 129 237 200 243 220 390 330 442 331 27 0 80 25 118 56 114
90 78 24 -61 -113 -71 -71 -130 -140 -130 -153 0 -14 -15 -51 -34 -83 -82
-138 135 -239 434 -202 152 19 248 16 430 -12 l100 -15 -7 -166 c-6 -129 1
-185 29 -247 27 -61 31 -91 15 -133 -29 -79 -9 -117 27 -49 21 40 27 92 19
186 -15 182 9 234 53 117 19 -49 34 -102 34 -118 1 -25 3 -25 19 -1 10 17 10
48 0 74 -25 65 -42 225 -21 190 14 -21 21 -18 31 15 18 58 63 54 122 -10 50
-54 57 -89 50 -251 -3 -69 7 -111 37 -153 23 -33 43 -89 44 -126 0 -37 6 -56
11 -42 16 39 47 29 33 -10 -23 -66 -51 -90 -69 -61 -9 14 -10 -8 -4 -49 10
-64 7 -74 -19 -64 -23 9 -31 1 -29 -29 5 -67 49 -49 87 36 19 43 44 76 56 73
12 -2 15 -1 7 4 -23 13 -18 94 7 119 15 15 12 39 -10 83 -34 65 -44 223 -14
223 9 0 37 -53 61 -119 42 -111 108 -200 132 -177 5 6 -13 59 -40 118 -35 75
-51 143 -51 220 0 86 -14 139 -60 225 -37 68 -60 142 -60 189 0 105 -36 151
-106 133 -35 -9 -54 -27 -54 -51 0 -21 -10 -38 -21 -38 -12 0 -16 9 -9 20 7
11 -1 14 -19 8 -21 -9 -31 -1 -30 25 1 97 128 154 190 86 20 -22 49 -36 64
-30 76 29 112 -46 136 -278 2 -22 14 -43 26 -47 13 -4 23 -24 23 -43 0 -47 50
-144 66 -128 7 6 18 -12 25 -41 7 -28 21 -52 31 -52 10 0 18 -22 18 -49 0 -27
9 -54 20 -61 11 -7 20 -48 20 -92 0 -59 7 -76 25 -65 17 10 16 4 -2 -19 -16
-19 -23 -34 -16 -34 7 0 5 -20 -4 -45 -9 -25 -10 -67 -2 -95 l14 -50 22 50
c19 41 20 28 10 -70 -6 -66 -15 -125 -18 -131 -8 -13 -389 -19 -389 -6 0 5 15
33 32 63 l33 54 -42 -50 c-23 -27 -42 -57 -43 -65 0 -8 -25 -15 -56 -15 -31 0
-66 -10 -79 -23 -17 -17 -20 -11 -11 23 9 32 5 42 -11 32 -30 -19 -30 13 1 44
14 14 15 24 4 24 -11 0 -49 -32 -84 -72 -35 -39 -64 -64 -64 -55 0 9 -23 17
-50 17 -32 0 -47 -9 -41 -25 13 -34 -30 -31 -78 6 -48 36 -73 37 -59 2 12 -33
-42 -81 -71 -63 -12 7 -16 21 -10 32 6 10 20 13 30 7 11 -6 19 -3 19 6 0 22
-140 67 -162 54 -9 -6 -95 -17 -192 -27 -115 -10 -207 -31 -266 -61 -49 -24
-134 -58 -188 -74 -55 -17 -118 -43 -140 -57 -23 -15 -85 -38 -137 -51 -165
-41 -89 -65 163 -51 210 12 228 10 193 -18 -35 -27 -8 -30 284 -30 194 0 328
-8 335 -20 17 -27 222 -25 274 2 22 12 36 14 29 3 -6 -10 1 -18 17 -18 16 0
24 7 18 16 -6 9 4 17 22 17 20 0 27 -9 18 -25 -11 -20 -8 -20 13 0 15 14 36
25 48 25 12 0 8 -9 -9 -20 -23 -15 -14 -19 35 -20 36 0 65 7 65 16 0 8 16 17
35 19 19 1 58 7 85 12 257 48 327 54 342 29 13 -20 22 -18 42 9 23 32 471 57
586 34 57 -11 100 2 70 21 -24 16 -21 19 17 20 26 0 64 20 84 45 33 39 41 41
59 15 18 -27 22 -27 40 0 11 17 20 20 20 7 0 -15 45 -24 130 -25 125 0 130 1
109 40 -16 29 -16 48 1 67 34 42 -11 59 -167 63 -218 7 -279 23 -266 71 9 36
4 39 -43 25 -127 -35 -236 19 -179 89 16 19 17 26 2 17 -12 -7 -34 0 -47 16
-21 25 -18 30 16 30 34 0 30 10 -31 71 -74 74 -76 123 -2 57 28 -25 22 -8 -21
52 -34 50 -67 122 -72 160 -5 39 -18 99 -28 133 -10 35 -13 69 -7 75 6 6 -1
25 -15 42 -14 17 -20 54 -14 85 10 50 -2 135 -36 265 -10 39 -9 43 8 20 18
-26 21 -26 22 -1 1 112 106 -152 167 -419 50 -219 430 -417 657 -342 132 44
296 297 296 457 0 117 52 223 157 323 l93 88 -74 -12 c-53 -8 -95 -35 -150
-96 -42 -46 -89 -98 -105 -113 -18 -19 -26 -64 -23 -133 4 -94 1 -104 -40
-107 -55 -4 -80 -41 -66 -98 13 -50 -28 -84 -55 -45 -14 23 -26 19 -58 -20
-39 -47 -41 -47 -69 -10 -27 36 -28 36 -17 -6 13 -49 -68 -44 -99 7 -9 15 -33
36 -54 47 -44 23 -38 -21 10 -80 14 -16 30 -43 36 -60 9 -24 11 -23 12 5 2 44
42 47 42 3 0 -28 5 -29 33 -5 30 24 31 23 10 -18 -41 -77 -243 16 -243 111 0
24 -57 48 -80 34 -10 -6 -14 25 -11 69 5 73 1 79 -37 70 -52 -12 -76 5 -107
75 -53 122 49 84 284 -106 84 -68 159 -116 167 -108 8 9 3 20 -11 24 -14 5
-66 63 -116 128 -50 65 -100 118 -112 118 -46 0 -154 106 -186 185 -20 47 -45
105 -57 130 -11 25 -15 51 -7 59 18 18 72 -55 72 -100 3 -124 85 -131 112 -11
17 80 -22 124 -49 55 -12 -30 -20 -36 -21 -16 0 18 -19 56 -41 84 -23 29 -35
64 -27 84 9 25 3 31 -25 27 -32 -6 -37 4 -33 57 4 54 -12 81 -96 165 -61 61
-89 101 -70 101 54 0 33 39 -39 74 -38 18 -70 45 -70 60 0 14 -9 26 -19 26
-11 0 -15 12 -9 27 11 30 -40 92 -78 94 -13 1 -6 10 16 19 38 16 38 17 -6 19
-56 1 -94 82 -50 108 24 14 24 24 -5 67 -20 31 -30 77 -25 119 6 52 2 66 -20
58 -15 -6 -31 -11 -36 -11 -4 0 -8 -20 -8 -45 -1 -33 -5 -38 -18 -18 -9 15
-13 44 -7 65 5 21 0 38 -13 38 -12 0 -23 -18 -24 -40 -5 -66 -7 -76 -25 -93
-20 -19 -7 102 17 163 13 33 11 36 -11 15 -39 -36 -59 -31 -59 15 0 22 9 40
20 40 10 0 16 25 13 57 l-7 56 112 -45 c143 -58 227 -126 233 -189 3 -27 6
-57 7 -66 1 -10 14 -13 29 -7 31 12 87 -127 65 -162 -7 -11 -2 -24 10 -28 12
-4 30 -52 40 -106 10 -54 26 -106 36 -116 10 -10 11 18 2 65 -8 45 -7 87 3 93
9 6 18 -15 18 -46 2 -49 4 -51 19 -16 9 22 18 31 20 20 21 -146 57 -222 59
-123 1 52 9 74 26 68 16 -6 25 -51 25 -132 0 -134 20 -158 53 -63 12 33 30 60
40 60 11 0 14 -9 7 -20 -7 -11 3 -20 22 -20 32 0 32 -2 1 -37 -18 -20 -33 -44
-33 -53 0 -10 11 -2 25 17 24 32 42 36 152 32 21 -1 48 -24 60 -51 31 -67 28
-86 -6 -41 -16 20 -39 31 -51 23 -12 -8 -34 1 -47 19 -22 30 -32 27 -101 -39
-42 -39 -72 -77 -65 -83 6 -7 -2 -25 -18 -41 -32 -31 -38 -140 -11 -183 19
-30 42 11 42 76 0 45 52 150 91 182 26 22 49 8 150 -92 120 -119 140 -156 94
-177 -14 -6 -6 -7 18 -1 52 13 79 -96 33 -134 -15 -13 -22 -27 -17 -33 6 -5
24 2 41 16 26 21 30 16 30 -38 0 -34 8 -62 18 -62 23 0 42 50 42 112 0 27 18
74 41 105 48 66 37 107 -37 139 -38 16 -41 19 -9 12 72 -17 55 38 -35 110 -82
65 -100 120 -54 158 19 17 37 1 73 -68 26 -49 50 -86 54 -82 12 13 -39 143
-67 170 -30 31 -33 57 -10 72 9 5 33 -17 52 -50 60 -102 58 -49 -2 63 -79 148
-92 168 -132 207 -19 20 -49 63 -66 96 -27 52 -40 59 -89 49 -58 -12 -101 15
-54 34 14 5 4 11 -22 11 -34 2 -44 -6 -36 -28 7 -16 2 -30 -10 -30 -12 0 -17
-12 -11 -27 6 -14 -2 -26 -18 -26 -27 0 -34 15 -23 48 3 8 12 13 20 10 20 -7
18 19 -5 55 -13 22 -9 33 16 43 24 9 13 16 -39 26 -47 10 -77 28 -83 52 -21
79 66 82 124 4 22 -30 41 -43 41 -29 1 15 -45 71 -101 126 -116 112 -117 144
-4 80 l76 -43 -75 70 c-55 52 -92 71 -141 71 -47 0 -67 9 -67 30 0 43 157 -12
303 -106 12 -8 -6 11 -39 41 -78 70 -238 146 -340 162 -44 6 -104 30 -135 52
-30 23 -71 41 -92 41 -52 0 -88 86 -64 150 22 58 8 64 -42 18 -33 -29 -32 -35
15 -105 50 -72 50 -73 8 -79 -23 -4 -36 -15 -30 -25 7 -12 26 -11 49 1 53 28
84 10 146 -85 57 -88 78 -246 29 -230 -13 4 -24 30 -25 56 0 43 -18 54 -170
99 -93 27 -179 56 -190 62 -11 7 -55 24 -97 38 -105 34 -61 59 107 61 72 1
119 7 105 12 -35 14 -31 47 5 47 39 0 39 38 0 53 -16 6 -25 19 -19 29 6 10 -3
18 -21 18 -25 0 -27 -8 -11 -38 18 -34 8 -40 -109 -62 -80 -15 -125 -32 -117
-45 9 -14 -3 -17 -31 -10 -61 16 -149 -30 -117 -62 17 -17 14 -23 -14 -23 -46
0 -112 -74 -98 -111 9 -23 19 -22 56 6 25 19 42 46 36 60 -10 27 19 34 42 11
17 -16 -146 -166 -180 -166 -30 0 -55 67 -28 76 12 4 16 16 9 27 -14 23 30 80
53 66 9 -5 22 -1 28 9 7 11 -3 28 -21 38 -39 22 51 104 114 104 19 0 42 10 49
22 8 13 -4 19 -33 15 -33 -5 -49 4 -54 31 -9 41 32 77 71 62 14 -5 25 0 25 10
0 11 23 25 50 32 50 12 70 48 27 48 -13 0 -18 6 -11 13 7 7 -20 38 -59 70 -73
57 -115 77 -71 33 34 -34 30 -56 -11 -58 -21 -1 -25 -5 -10 -11 35 -14 31 -60
-5 -74 -16 -7 -30 -3 -30 8 0 10 -9 19 -20 19 -11 0 -19 -7 -18 -15 8 -46 -7
-49 -31 -5 -27 48 -29 48 -43 10 -16 -41 -45 -69 -75 -70 -10 0 -13 12 -7 27
6 14 -1 26 -14 26 -16 0 -22 -18 -16 -46 5 -26 17 -47 26 -47 30 0 20 -113
-12 -140 -16 -13 -26 -31 -21 -38 5 -8 0 -27 -10 -43 -13 -21 -18 -6 -19 49 0
116 -25 71 -28 -51 -2 -94 -6 -104 -49 -107 -59 -4 -95 -59 -86 -132 0 -7 -20
-8 -46 -3 -53 10 -84 -25 -54 -62 15 -18 11 -31 -16 -48 -30 -19 -43 -17 -64
9 -21 26 -22 34 -2 41 35 12 31 64 -5 68 -73 6 -130 37 -130 70 0 16 -15 26
-33 23 -49 -9 -70 91 -40 181 14 40 37 71 51 68 14 -4 21 1 15 10 -13 21 38
240 63 271 33 42 23 156 -11 122 -34 -34 -53 -37 -33 -5 8 13 3 18 -14 12 -15
-5 -42 3 -60 18 -19 17 -99 32 -200 38 -106 6 -153 3 -128 -8z m2052 -675 c18
-22 18 -36 2 -52 -17 -17 -26 -14 -35 11 -8 18 -26 33 -41 33 -43 0 -33 31 11
34 21 2 49 -10 63 -26z m-1724 -91 c20 -37 55 -76 79 -87 55 -25 55 -42 -2
-57 -28 -7 -50 -1 -61 18 -9 16 -28 29 -43 29 -37 0 -52 49 -38 121 14 69 17
68 65 -24z m568 36 c6 -15 -5 -54 -24 -85 -45 -75 -63 -145 -40 -159 41 -26
20 -169 -24 -169 -33 0 -40 -9 -32 -41 15 -56 -79 -219 -127 -219 -20 0 -42
-9 -49 -20 -7 -11 -34 -20 -60 -20 -26 0 -53 -9 -60 -20 -7 -11 -41 -20 -75
-20 -55 0 -58 -3 -29 -25 31 -22 23 -31 -67 -82 l-101 -56 13 56 c15 64 227
270 259 251 11 -6 9 2 -5 19 -56 69 -163 397 -123 376 42 -23 164 -274 150
-310 -18 -47 22 -79 60 -48 19 16 40 29 46 29 7 0 11 11 9 25 -1 14 6 25 16
25 11 0 14 9 7 20 -7 11 -1 20 12 20 14 0 19 6 12 12 -7 7 0 25 16 40 40 41
55 34 29 -14 -12 -23 -17 -46 -11 -52 6 -7 20 14 32 45 15 39 15 60 0 69 -12
7 -16 28 -9 46 7 19 23 28 34 21 12 -7 15 -4 8 8 -7 12 0 35 17 52 44 44 38
53 -35 53 -56 0 -65 -7 -68 -54 -2 -30 -18 -64 -35 -77 -20 -15 -28 -39 -20
-61 8 -28 7 -31 -7 -11 -11 14 -23 26 -27 25 -63 -9 -170 97 -150 149 13 35
52 39 52 6 0 -102 108 -105 150 -5 17 42 42 68 64 68 21 0 58 34 86 80 51 82
88 101 106 53z m370 -2 c21 36 23 34 23 -18 1 -44 -6 -54 -30 -45 -18 6 -49 3
-70 -9 -34 -18 -39 -14 -39 29 0 56 63 82 82 34 9 -25 16 -23 34 9z m-146
-126 c0 -83 -73 -110 -124 -46 -38 48 -31 61 34 61 40 0 60 10 60 30 0 17 7
30 15 30 8 0 15 -34 15 -75z m233 31 c-12 -14 -45 -52 -73 -84 -28 -32 -45
-64 -38 -70 6 -7 31 13 56 43 51 64 72 69 72 18 0 -42 66 -110 87 -90 7 8 13
2 13 -12 0 -16 17 -22 46 -17 38 7 47 0 50 -43 3 -39 -1 -44 -16 -21 -19 30
-31 6 -22 -46 2 -10 -5 -12 -15 -6 -10 7 -24 -9 -30 -35 -10 -39 -22 -45 -75
-37 -39 6 -69 -1 -79 -18 -14 -22 -26 -19 -63 14 -25 23 -80 62 -122 87 -70
42 -73 47 -40 73 33 26 33 27 1 16 -54 -19 -42 30 12 51 52 19 81 72 60 106
-7 12 -4 15 8 8 11 -7 26 1 33 18 11 29 134 94 149 79 4 -4 -3 -19 -14 -34z
m673 -63 c-8 -84 -49 -90 -48 -7 1 41 12 67 28 67 17 0 24 -21 20 -60z m134
-193 l34 -70 -54 53 c-32 30 -49 63 -40 76 17 28 16 29 60 -59z m-1102 -81
c39 -34 88 -63 111 -64 23 -2 41 -16 41 -32 0 -18 -14 -24 -40 -17 -27 7 -40
0 -40 -19 0 -17 -10 -23 -23 -15 -53 33 -155 27 -144 -8 7 -24 3 -22 -16 6
-46 72 -46 136 1 111 59 -32 68 -26 33 23 -66 95 -23 103 77 15z m-768 -19 c0
-11 -1 -26 -2 -33 -1 -7 11 -20 25 -29 22 -13 22 -21 -1 -42 -22 -21 -25 -21
-13 0 9 17 -7 32 -48 47 -50 17 -58 27 -39 49 26 32 78 37 78 8z m2160 -105
c0 -10 16 -43 36 -72 40 -59 113 -260 100 -274 -5 -4 -24 36 -43 89 -19 53
-52 115 -73 137 -21 23 -32 46 -25 53 7 7 -7 26 -30 43 -23 16 -41 47 -40 69
4 42 75 -1 75 -45z m214 -99 c-23 -15 -19 -18 29 -23 31 -4 45 -46 20 -61 -28
-17 -121 116 -118 167 4 43 5 43 49 -11 32 -42 38 -61 20 -72z m-1358 33 c-5
-77 -36 -119 -36 -49 0 23 -9 37 -20 30 -28 -17 -25 37 4 66 41 41 57 27 52
-47z m-250 -1 c-10 -26 -3 -30 31 -19 24 8 43 5 43 -5 0 -11 -31 -25 -69 -33
-83 -15 -107 -43 -52 -61 26 -8 44 -38 53 -86 17 -86 44 -43 47 71 0 36 11 65
24 65 15 0 18 -25 10 -74 -6 -40 -4 -83 5 -95 9 -12 5 -52 -11 -91 l-27 -70
10 80 c9 67 7 74 -12 42 -22 -36 -26 -54 -37 -162 -4 -40 -4 -40 -21 0 -9 22
-18 29 -19 15 0 -14 -10 -25 -21 -25 -28 0 -1 104 33 130 18 13 20 30 8 50
-22 34 -92 -104 -83 -165 3 -22 -5 -31 -22 -24 -35 13 -39 189 -5 223 37 37
47 32 35 -19 -9 -42 -7 -41 18 5 24 45 23 55 -13 92 l-41 41 -11 -61 c-5 -34
-21 -60 -35 -57 -14 3 -24 -17 -24 -48 0 -88 -14 -45 -26 83 -8 76 -6 105 6
80 15 -35 18 -33 21 20 l4 60 15 -60 c8 -33 16 -45 18 -27 1 19 13 37 27 42
20 7 20 15 0 39 -23 27 -18 30 35 26 40 -3 60 4 60 22 0 16 9 28 19 28 11 0
14 -15 7 -32z m325 -66 c-6 -9 14 -22 44 -28 70 -13 187 6 173 29 -6 9 10 16
36 15 25 0 36 -5 24 -10 -12 -5 -18 -31 -13 -58 9 -47 -68 -64 -109 -23 -7 7
-59 8 -115 2 -63 -8 -91 -5 -75 6 14 10 20 33 13 52 -8 19 -4 33 10 33 13 0
18 -8 12 -18z m-1181 -22 c7 -11 5 -31 -4 -45 -9 -14 -25 -61 -36 -105 -12
-49 -32 -80 -50 -80 -37 0 -39 41 -6 124 14 35 20 78 14 95 -14 35 61 45 82
11z m1050 -12 c0 -17 8 -25 19 -19 36 23 44 -32 10 -70 -39 -43 -86 -55 -55
-14 11 14 13 48 5 75 -15 49 -15 49 -17 -8 -2 -67 -11 -64 -29 9 -9 41 -4 51
28 54 23 1 39 -10 39 -27z m477 -108 c51 1 65 -6 57 -27 -13 -34 22 -73 65
-73 31 -1 181 -124 181 -150 0 -7 18 -37 40 -65 22 -28 40 -59 40 -70 0 -29
-61 26 -101 92 l-35 56 -31 -44 c-29 -42 -28 -47 15 -81 26 -20 57 -62 70 -93
13 -31 43 -65 67 -75 29 -13 49 -47 60 -98 20 -101 3 -117 -33 -30 -16 37 -45
86 -65 109 -21 23 -47 59 -59 80 -12 21 -41 42 -65 45 -24 4 -43 15 -43 24 0
9 -11 29 -25 44 -52 55 -135 189 -135 219 0 35 -43 77 -130 125 l-60 34 60
-12 c33 -7 90 -11 127 -10z m-1086 -62 c7 -12 33 -16 58 -10 40 10 43 5 35
-51 -7 -43 -2 -58 13 -49 13 8 23 30 23 48 0 19 8 45 16 58 9 14 15 -34 13
-105 -1 -102 4 -128 25 -120 16 6 42 -15 63 -49 36 -58 71 -64 49 -8 -5 15 0
28 12 28 12 0 22 -15 22 -32 0 -23 12 -29 40 -22 22 6 40 2 40 -8 0 -10 14
-18 30 -18 47 0 36 -30 -55 -152 l-85 -113 -16 84 c-20 98 -8 119 47 85 33
-21 39 -19 39 9 0 19 -6 28 -13 20 -8 -7 -34 0 -59 16 -25 17 -49 23 -53 15
-5 -7 -6 -4 -3 9 12 53 -179 188 -200 141 -6 -13 -10 3 -9 36 2 97 -1 107 -41
119 -71 23 -134 91 -102 111 29 18 88 -4 111 -42z m876 34 c46 17 150 -86 113
-112 -25 -17 -24 -22 11 -31 24 -7 42 -30 44 -55 2 -39 1 -40 -17 -9 -14 25
-30 30 -54 18 -47 -24 -83 -7 -105 49 -10 26 -28 48 -39 48 -34 0 14 -75 71
-112 27 -18 49 -45 49 -60 0 -16 9 -28 20 -28 11 0 20 -27 20 -60 0 -33 -9
-60 -19 -60 -27 0 -64 74 -57 115 12 66 -63 53 -77 -14 -11 -58 -15 -60 -47
-31 -32 29 -34 28 -25 -19 12 -63 -10 -67 -33 -6 -11 27 -9 55 3 70 14 18 11
25 -13 25 -17 0 -32 -10 -32 -23 0 -13 -17 -8 -40 13 -59 54 -22 210 50 210
18 0 24 12 16 32 -16 43 30 68 87 47 26 -10 59 -13 74 -7z m-1147 -142 c-14
-16 -37 -30 -52 -30 -16 0 -28 -9 -28 -20 0 -27 13 -25 66 8 62 39 222 29 230
-15 4 -18 -3 -33 -15 -33 -11 0 -22 11 -23 25 -1 20 -3 20 -11 0 -6 -14 -23
-25 -39 -25 -31 0 -39 -51 -10 -69 28 -17 1 -91 -33 -91 -17 0 -61 -19 -99
-42 -81 -51 -112 -36 -44 21 26 22 37 40 23 40 -52 2 -107 79 -85 120 16 30
13 43 -14 58 -39 22 0 92 42 77 12 -5 40 -2 62 6 52 19 62 9 30 -30z m2333
-160 c17 -12 28 -39 24 -58 -8 -42 -138 191 -136 244 1 19 19 -10 41 -65 22
-54 54 -108 71 -121z m-2473 75 c0 -6 -14 -21 -31 -33 -28 -21 -26 -30 18 -77
l49 -53 -47 -31 c-26 -17 -62 -25 -81 -17 -28 10 -32 4 -23 -31 10 -37 3 -43
-45 -43 -31 0 -60 -11 -65 -25 -6 -18 -20 -19 -57 -2 l-48 21 67 63 c37 35 55
63 40 64 -18 0 -15 7 8 21 19 11 35 33 35 48 0 15 9 33 20 40 11 7 14 -1 8
-19 -7 -17 -2 -31 10 -31 12 0 22 9 22 21 0 43 64 116 92 106 15 -6 28 -16 28
-22z m1475 -74 c-5 -28 -2 -45 8 -39 26 16 20 -21 -7 -48 -19 -19 -15 -24 16
-24 45 0 128 -68 128 -106 0 -13 6 -46 12 -74 8 -33 5 -41 -7 -25 -18 26 -37
-1 -76 -105 -13 -35 -16 -35 -23 -6 -5 19 1 52 13 75 15 27 16 41 2 41 -12 0
-21 -14 -21 -32 0 -20 -11 -28 -29 -21 -17 6 -35 2 -42 -9 -24 -38 -55 -6 -62
63 -13 120 10 138 66 49 31 -50 45 -62 36 -32 -9 32 -6 43 9 33 28 -17 28 11
1 82 -12 31 -28 47 -35 36 -23 -32 -64 -31 -64 1 0 17 10 30 21 30 12 0 16 8
10 18 -11 19 26 142 43 142 6 0 6 -22 1 -49z m-935 -101 c0 -42 35 -38 45 5 8
32 10 32 25 -3 10 -22 7 -52 -5 -72 -12 -19 -15 -43 -6 -52 32 -35 46 -134 15
-105 -16 14 -27 39 -26 55 1 17 -37 42 -94 62 -101 35 -242 131 -164 111 22
-6 67 -2 100 8 88 26 110 24 110 -9z m325 -243 c-14 -6 -25 -23 -25 -39 0 -15
-10 -28 -21 -28 -12 0 -17 -7 -11 -16 14 -23 -23 -76 -41 -58 -9 9 -5 33 8 54
14 21 19 52 13 69 -9 24 1 31 45 29 31 0 46 -6 32 -11z m752 -142 l-3 -115
-13 100 c-12 96 -9 130 10 130 5 0 8 -52 6 -115z m1105 -290 c-20 -40 -43 -68
-49 -61 -7 7 -13 -1 -13 -18 0 -52 -45 -72 -99 -44 l-49 26 52 20 c28 10 77
55 109 99 68 96 102 81 49 -22z m-162 -164 c0 -12 -29 -24 -65 -27 -58 -3 -61
-1 -31 23 42 32 96 34 96 4z m-795 -302 c30 -28 55 -62 55 -77 0 -36 73 -98
125 -106 51 -8 82 -49 52 -68 -15 -9 -14 -17 1 -27 12 -7 22 -4 22 8 0 11 14
21 30 21 17 0 30 -13 30 -29 0 -17 -11 -25 -25 -20 -14 5 -49 -12 -78 -39 -52
-49 -97 -40 -97 20 0 13 -31 29 -70 37 -59 11 -70 22 -72 67 -2 32 -6 40 -12
20 -5 -19 -40 -46 -78 -60 -54 -19 -68 -34 -60 -63 11 -44 -55 -124 -86 -104
-12 7 -22 5 -22 -5 0 -10 -25 -14 -55 -8 -30 6 -44 14 -30 19 14 5 25 21 25
37 0 15 10 28 21 28 30 0 62 37 108 124 25 47 45 66 54 51 23 -36 43 76 28
155 -16 89 49 98 134 19z m-1345 -289 c46 -46 50 -60 17 -60 -12 0 -34 16 -48
35 -25 33 -27 33 -41 -4 -10 -24 -6 -42 8 -46 54 -18 17 -35 -76 -35 -55 0
-100 5 -99 10 1 25 98 117 131 126 64 16 67 15 108 -26z m820 18 c0 -12 14
-17 31 -10 18 7 26 3 19 -9 -14 -22 -150 -19 -150 4 0 12 36 27 85 35 8 1 15
-8 15 -20z m-1080 -17 c0 -28 -33 -43 -111 -51 -83 -7 -86 0 -14 39 63 34 125
40 125 12z m1071 -92 c-34 -35 -43 -79 -11 -59 11 7 20 2 20 -10 0 -13 -20
-21 -45 -18 -60 7 -138 -20 -124 -43 6 -10 -3 -13 -20 -7 -17 7 -45 1 -61 -12
-25 -21 -30 -18 -30 18 0 23 7 40 15 37 8 -3 17 3 19 12 5 23 102 74 176 94
90 23 96 22 61 -12z m-631 -52 c-85 -51 -189 -73 -176 -36 9 29 196 100 223
84 9 -5 -12 -27 -47 -48z"/>
<path d="M4207 2291 c6 -15 1 -32 -12 -36 -12 -4 -15 -18 -7 -32 12 -19 22
-17 42 10 27 37 19 87 -14 87 -11 0 -15 -13 -9 -29z"/>
<path d="M2673 2181 c40 -69 57 -65 39 8 -7 28 -27 51 -44 51 -26 0 -26 -8 5
-59z"/>
<path d="M4340 731 c0 -5 43 -38 95 -74 87 -60 92 -61 63 -17 -28 42 -158 117
-158 91z"/>
<path d="M3214 4065 c-40 -9 -11 -65 34 -65 12 0 57 -24 100 -52 74 -51 133
-39 97 20 -8 12 -15 11 -20 -4 -11 -32 -46 -31 -40 1 3 14 -6 23 -20 20 -14
-3 -25 4 -25 15 0 11 -10 20 -23 20 -12 0 -33 12 -45 27 -12 14 -38 23 -58 18z"/>
<path d="M3060 3632 c0 -29 48 -57 67 -39 5 6 5 24 -1 39 -13 36 -66 36 -66 0z"/>
<path d="M2993 3450 c-6 -16 -23 -25 -38 -19 -17 6 -26 -5 -26 -31 0 -52 14
-51 69 8 25 27 36 53 26 60 -11 6 -25 -2 -31 -18z"/>
<path d="M4220 2674 c-29 -62 -29 -64 15 -64 37 0 45 11 45 65 0 82 -22 82
-60 -1z"/>
<path d="M4405 2487 c-33 -13 -32 -96 1 -123 43 -36 76 2 62 72 -13 65 -18 69
-63 51z"/>
<path d="M4656 2152 c-28 -39 -29 -50 -6 -74 15 -15 31 -77 35 -138 4 -60 16
-105 26 -100 11 6 16 24 11 40 -12 50 -9 166 8 245 18 89 -19 103 -74 27z"/>
<path d="M3470 963 c-40 -34 -68 -136 -30 -113 23 14 86 130 76 140 -3 4 -24
-8 -46 -27z"/>
</g>
</svg>
