<?xml version="1.0" standalone="no"?>
<!DOCTYPE svg PUBLIC "-//W3C//DTD SVG 20010904//EN"
 "http://www.w3.org/TR/2001/REC-SVG-20010904/DTD/svg10.dtd">
<svg version="1.0" xmlns="http://www.w3.org/2000/svg"
 width="229.000000pt" height="220.000000pt" viewBox="0 0 229.000000 220.000000"
 preserveAspectRatio="xMidYMid meet">
<metadata>
Created by potrace 1.10, written by Peter Selinger 2001-2011
</metadata>
<g transform="translate(0.000000,220.000000) scale(0.050000,-0.050000)"
fill="#000000" stroke="none">
<path d="M3858 4160 c-14 -44 -30 -80 -38 -80 -7 0 -80 -133 -161 -295 -82
-162 -155 -298 -164 -302 -8 -3 -15 -19 -15 -35 0 -15 -11 -28 -25 -29 -25 0
40 -59 66 -59 7 0 29 38 49 85 19 47 56 130 81 185 90 198 193 422 231 501 43
93 46 109 19 109 -11 0 -30 -36 -43 -80z"/>
<path d="M3344 3647 c-36 -66 -24 -143 20 -132 37 10 42 41 18 125 l-14 50
-24 -43z"/>
<path d="M3223 3573 c-31 -37 -23 -177 11 -188 31 -10 54 111 31 172 -15 41
-20 43 -42 16z"/>
<path d="M3343 3360 c1 -83 33 -168 34 -90 0 33 -8 78 -17 100 -16 36 -17 35
-17 -10z"/>
<path d="M3040 3359 c0 -7 -36 -29 -80 -49 -44 -20 -81 -46 -83 -58 -2 -12 -4
-32 -5 -45 -2 -12 -31 -52 -67 -88 -60 -61 -72 -127 -15 -79 47 39 23 -34 -30
-89 -26 -28 -41 -57 -33 -64 7 -8 13 -3 13 10 0 12 10 23 21 23 12 0 17 -19
11 -45 -7 -25 -6 -34 0 -20 16 35 49 11 35 -26 -6 -17 0 -29 16 -29 17 0 19
-6 6 -15 -11 -8 -35 -45 -52 -81 -17 -37 -37 -66 -44 -65 -8 1 -36 -13 -63
-31 -51 -33 -146 -20 -154 22 -8 48 -95 85 -226 96 -167 15 -225 -7 -138 -52
57 -30 57 -30 -37 -19 -116 13 -117 5 -11 -99 79 -77 81 -82 30 -69 -30 8 -54
6 -54 -4 0 -27 86 -45 109 -22 10 10 39 19 64 19 24 0 50 8 56 18 6 10 -8 13
-32 7 -30 -8 -40 -3 -33 17 5 15 29 31 53 34 24 4 39 14 34 22 -14 23 53 13
106 -16 25 -14 59 -20 76 -14 16 6 24 3 18 -7 -7 -10 -2 -24 10 -31 41 -26
-24 -69 -123 -82 -131 -18 -105 -48 35 -40 103 6 108 4 65 -20 -27 -15 -37
-27 -23 -27 54 -2 192 146 152 162 -37 14 -34 16 49 25 33 4 43 -3 34 -24 -9
-26 -6 -26 23 -2 31 25 33 23 21 -32 -7 -33 -18 -82 -24 -110 -8 -39 -5 -37
14 10 l24 60 14 -60 13 -60 3 70 c1 39 15 95 31 126 16 30 24 69 18 85 -7 19
-2 28 15 25 19 -4 25 16 21 74 -4 70 -1 76 23 46 24 -30 27 -22 29 66 3 110
-29 143 -90 95 -38 -29 -8 18 50 79 51 54 71 108 45 124 -17 10 -15 18 7 26
17 6 41 32 55 57 24 45 24 45 -29 11 -77 -50 -65 -27 37 75 102 102 106 110
50 106 -22 -2 -40 -9 -40 -16z m-160 -660 c0 -36 -8 -56 -20 -49 -11 7 -20 2
-20 -10 0 -12 -9 -17 -20 -10 -11 7 -20 1 -20 -12 0 -14 -5 -20 -10 -14 -16
15 48 156 70 156 11 0 20 -28 20 -61z"/>
<path d="M3164 3314 c-24 -26 -44 -69 -44 -96 0 -28 -11 -61 -24 -74 -19 -19
-19 -24 0 -24 13 0 24 9 24 20 0 11 14 20 30 20 22 0 27 -13 19 -47 -8 -33 -2
-51 19 -60 25 -9 27 -22 12 -62 -15 -41 -13 -51 12 -51 17 0 29 -15 27 -35 -9
-84 3 -165 23 -165 14 0 19 21 12 54 -18 95 5 114 67 55 53 -51 56 -51 68 -13
10 33 37 43 137 53 68 7 166 23 218 35 73 18 100 17 125 -3 62 -51 171 25 171
121 0 75 -5 81 -92 119 -91 39 -210 53 -206 24 8 -46 -7 -65 -52 -65 -28 0
-50 12 -50 26 0 62 -54 135 -115 155 -86 29 -106 13 -84 -66 11 -36 19 -91 19
-123 0 -33 17 -72 42 -93 41 -36 41 -37 -30 -50 -39 -7 -67 -21 -61 -31 6 -10
4 -18 -5 -18 -24 0 -59 63 -75 136 -8 35 -23 59 -34 52 -11 -7 -15 -33 -9 -58
10 -38 5 -44 -26 -36 -32 8 -38 30 -40 162 -3 176 -18 203 -78 138z"/>
<path d="M3096 3018 c-5 -98 -3 -121 13 -188 13 -57 12 -58 -18 -21 -30 37
-31 36 -31 -20 0 -33 -6 -78 -12 -101 -8 -32 0 -45 32 -54 55 -14 38 -44 -49
-85 -86 -40 -103 -82 -42 -97 31 -8 50 -31 58 -72 9 -43 23 -60 53 -60 22 0
40 -10 40 -22 0 -16 9 -15 30 2 42 35 40 175 -2 184 -29 5 -28 12 8 56 l40 50
11 -70 c6 -39 16 -146 22 -240 6 -93 24 -237 39 -318 33 -169 26 -217 -25
-178 -29 23 -30 22 -6 -9 24 -30 23 -41 -4 -80 -68 -98 -111 -144 -123 -132
-18 19 12 118 32 106 10 -7 24 3 31 21 20 52 -1 52 -59 -2 -30 -27 -54 -42
-54 -34 0 26 83 175 105 188 12 8 11 29 -4 57 -13 24 -26 101 -28 171 -4 122
-28 189 -47 135 -5 -14 -22 -25 -38 -25 -37 0 -36 -33 2 -47 18 -7 30 -37 30
-75 0 -49 -7 -60 -33 -50 -28 11 -29 8 -7 -19 23 -26 20 -33 -17 -42 -55 -15
-57 -89 -3 -123 42 -25 40 -92 -4 -164 -13 -22 -15 -19 -6 13 22 83 -186 68
-232 -16 -33 -62 -99 -34 -130 55 -31 89 -36 135 -12 120 9 -5 13 17 8 49 -9
61 2 68 86 59 22 -2 46 -13 53 -25 17 -27 55 -2 79 52 16 35 17 31 9 -22 -11
-71 52 -98 77 -33 20 53 13 88 -18 88 -16 0 -30 17 -30 39 0 21 -9 44 -20 51
-11 7 -20 -7 -20 -30 0 -23 -9 -37 -20 -30 -34 21 -22 108 19 149 45 45 71
127 54 171 -21 55 -53 31 -53 -41 0 -62 -5 -70 -39 -59 -30 9 -42 1 -49 -34
-31 -150 -34 -157 -68 -152 -22 4 -36 -9 -40 -39 -7 -49 -25 -56 -57 -24 -16
16 -38 7 -77 -30 -31 -28 -63 -51 -71 -51 -8 0 -20 -13 -26 -30 -15 -39 -4
-38 37 3 28 28 36 29 52 5 12 -20 18 -11 19 32 2 60 2 60 21 10 26 -64 -25
-106 -117 -95 -44 5 -65 -2 -65 -19 0 -14 18 -26 40 -26 41 0 55 -48 20 -70
-24 -15 -180 31 -180 53 0 9 9 18 20 20 11 1 28 3 38 5 56 7 33 29 -38 35 -56
6 -90 -1 -106 -21 -20 -25 -17 -27 15 -15 22 8 33 8 24 0 -50 -51 -190 -27
-256 44 -37 40 -90 84 -119 99 -52 28 -77 238 -33 282 28 27 15 63 -25 74 -32
8 -40 27 -40 90 0 63 -8 82 -40 90 -59 15 -49 43 25 65 43 13 64 31 62 54 -2
25 12 35 50 35 29 0 65 9 81 18 17 11 -8 14 -65 7 -62 -7 -93 -3 -93 12 0 13
32 23 73 23 89 0 83 10 -18 28 -60 11 -75 8 -75 -17 0 -17 -8 -31 -18 -31 -10
0 -47 -27 -82 -60 -35 -33 -54 -60 -41 -60 12 0 28 -16 35 -35 8 -19 28 -46
45 -60 34 -27 -15 -85 -73 -85 -46 0 -28 -39 24 -52 32 -8 51 -28 53 -55 2
-24 6 -70 10 -103 20 -167 0 -390 -35 -390 -10 0 -18 -32 -18 -70 l0 -70 -62
59 c-34 32 -56 68 -49 80 7 12 6 32 -2 46 -8 13 -13 54 -10 90 4 36 -2 65 -12
65 -72 0 -68 342 5 406 26 24 55 71 63 104 l14 60 -72 -60 c-40 -33 -73 -72
-74 -87 0 -15 -19 -31 -40 -37 -28 -7 -43 -34 -52 -98 -13 -85 -3 -139 106
-589 29 -121 29 -141 -4 -280 l-35 -150 64 -184 c62 -176 63 -187 35 -269 -29
-87 -25 -227 7 -247 10 -6 18 -33 18 -59 0 -71 96 -130 210 -130 78 0 92 6 82
32 -7 17 -12 35 -12 40 0 4 -9 8 -20 8 -27 0 -106 81 -92 95 6 6 26 -2 45 -17
31 -26 31 -24 10 17 -33 61 -122 148 -141 136 -23 -14 -78 123 -60 152 12 19
21 12 36 -23 11 -28 20 -41 21 -30 1 11 10 7 20 -8 18 -30 18 -32 19 292 0
189 51 317 167 419 38 33 96 100 130 149 86 125 113 146 144 109 38 -45 317
-146 451 -162 115 -14 226 -90 229 -157 1 -9 60 -96 131 -192 209 -281 243
-455 110 -560 -80 -63 -92 -120 -39 -190 8 -11 14 -46 14 -77 0 -83 50 -126
114 -97 45 20 54 17 83 -26 40 -61 208 -76 208 -19 0 35 -110 135 -156 142
-56 8 -73 43 -46 93 20 37 20 74 3 166 -14 79 -15 120 -1 125 34 11 25 183
-10 183 -16 0 -30 17 -30 39 0 21 -8 44 -18 50 -10 6 -13 -9 -8 -34 11 -44 11
-44 -20 -5 -19 25 -27 61 -20 95 7 34 2 55 -11 55 -13 0 -23 -11 -23 -25 0
-14 -23 14 -50 62 -64 111 -63 129 1 53 57 -66 45 -39 -31 75 -27 41 -60 75
-73 75 -12 0 -21 16 -20 35 2 19 -8 33 -22 30 -14 -3 -25 5 -25 17 0 16 -9 15
-30 -2 -17 -14 -30 -16 -30 -5 0 12 14 26 30 32 22 9 27 27 18 63 -13 51 27
127 50 95 7 -9 38 -32 69 -52 41 -26 54 -48 46 -76 -7 -29 -2 -37 18 -29 39
14 69 -49 69 -144 0 -101 35 -205 82 -247 21 -18 38 -47 38 -64 0 -83 40 -45
44 41 2 53 6 123 7 156 2 33 5 85 6 116 2 31 11 51 22 45 27 -17 39 12 52 122
6 53 36 147 65 207 81 165 50 523 -40 468 -15 -10 -18 1 -8 34 26 85 38 532
13 498 -12 -17 -16 -63 -10 -103 14 -87 -24 -125 -42 -43 -20 92 -27 106 -48
106 -12 0 -22 -29 -23 -65 -2 -36 -7 -49 -12 -30 -5 22 -28 35 -59 35 -45 0
-49 6 -38 57 32 146 28 291 -11 340 l-38 48 -4 -67z m-1292 -1278 c-5 -36 0
-60 14 -60 12 0 22 -10 22 -21 0 -12 -9 -16 -20 -9 -11 7 -20 -6 -20 -29 0
-22 -9 -41 -20 -41 -11 0 -20 -16 -20 -35 0 -19 -22 -71 -49 -115 -72 -116
-68 -29 9 190 33 94 60 172 60 175 0 3 7 5 17 5 9 0 12 -27 7 -60z m-191 -90
c15 -40 -33 -102 -54 -69 -18 29 -1 99 24 99 10 0 23 -14 30 -30z m19 -649
c22 -132 14 -139 -25 -26 -30 86 -34 145 -11 145 9 0 25 -54 36 -119z"/>
<path d="M1390 2640 c-136 -30 -352 -281 -310 -361 10 -18 14 -38 9 -44 -6 -5
-14 -31 -19 -57 -5 -27 -23 -58 -40 -70 -34 -25 -40 -68 -10 -68 11 0 20 8 20
17 0 9 17 36 37 59 l37 43 -3 -65 c-2 -35 -16 -86 -31 -114 -15 -27 -30 -62
-33 -77 -2 -15 -11 -33 -19 -40 -8 -7 -8 4 -1 25 12 32 9 34 -17 12 -40 -33
-63 -10 -30 30 53 64 2 48 -97 -30 -57 -45 -127 -90 -156 -101 -29 -11 -48
-25 -42 -31 6 -6 48 8 93 31 45 23 81 35 80 26 -2 -8 -1 -19 1 -25 21 -54 10
-87 -42 -126 -33 -24 -78 -82 -99 -129 -22 -47 -48 -85 -60 -85 -12 0 -15 -18
-8 -41 8 -23 2 -55 -13 -74 -23 -27 -23 -30 0 -16 21 12 24 6 13 -29 -11 -34
-8 -42 13 -31 15 8 9 -2 -14 -22 -23 -21 -48 -54 -56 -76 -14 -38 -14 -38 26
-2 48 43 54 19 11 -43 -16 -23 -24 -57 -18 -75 7 -17 0 -47 -14 -66 -20 -26
-15 -24 20 5 l47 40 -32 -64 c-24 -47 -27 -68 -10 -78 22 -14 84 45 103 97 5
14 14 20 21 13 7 -6 -14 -49 -47 -95 -60 -83 -79 -137 -38 -112 12 7 39 42 60
76 l40 63 -12 -60 -12 -60 32 50 c24 37 29 39 20 10 -41 -128 -32 -161 18 -70
28 50 51 117 53 150 1 50 4 53 17 21 14 -36 17 -34 29 15 16 61 46 71 58 19 5
-22 18 -3 35 51 18 58 32 77 43 60 11 -17 16 -6 17 30 0 31 13 70 29 85 34 35
56 198 47 349 l-6 110 -34 -110 c-19 -60 -50 -162 -68 -225 -20 -67 -45 -115
-61 -115 -15 0 -27 -16 -27 -35 0 -19 -18 -64 -40 -100 -42 -70 -100 -71 -100
-2 0 22 9 34 20 27 25 -16 25 11 0 50 -18 26 -22 26 -39 1 -10 -17 -25 -24
-33 -16 -24 24 33 73 68 60 29 -11 30 -8 7 20 -22 28 -20 40 15 78 51 55 37
77 -18 27 -73 -66 -41 -1 52 105 58 68 80 105 61 105 -17 0 -40 -16 -51 -35
-32 -59 -45 -15 -13 47 20 38 23 60 9 65 -11 4 12 38 53 76 41 37 69 74 62 81
-7 7 -13 2 -13 -11 0 -12 -9 -23 -20 -23 -34 0 -22 29 22 57 32 19 38 20 27 1
-11 -17 -6 -21 18 -12 29 11 31 7 12 -28 -20 -38 -19 -39 21 -18 41 22 42 21
17 -23 -34 -63 -42 -131 -17 -147 11 -7 20 5 20 27 0 78 93 212 117 170 20
-33 22 -32 22 15 1 29 14 90 30 134 22 63 24 100 8 158 -26 95 -29 97 -67 66
-47 -39 -35 2 29 99 32 48 54 96 48 106 -6 10 9 40 34 66 45 48 30 72 -16 26
-17 -17 -20 -12 -12 20 7 23 21 37 33 29 13 -8 16 0 8 21 -9 24 -2 33 28 33
26 0 36 9 28 25 -7 14 0 9 16 -10 39 -48 59 -44 44 10 -8 30 -6 36 5 19 15
-21 23 -20 42 3 31 37 -5 51 -87 33z m-210 -657 c0 -41 -14 -63 -50 -79 -59
-27 -60 -26 -16 65 40 86 66 91 66 14z"/>
<path d="M1889 2562 c9 -26 -1 -48 -30 -68 l-42 -30 46 -43 c51 -47 50 -49 63
84 7 74 3 95 -20 95 -19 0 -25 -13 -17 -38z"/>
<path d="M1561 2246 c15 -116 38 -186 60 -186 9 0 20 -16 25 -35 8 -29 10 -28
12 6 1 23 -9 52 -23 66 -13 13 -24 71 -25 128 0 77 -8 106 -31 110 -25 5 -28
-10 -18 -89z"/>
<path d="M2490 2315 c-33 -12 -90 -38 -126 -58 -36 -20 -78 -37 -95 -37 -16 0
-29 -9 -29 -20 0 -11 18 -20 40 -20 22 0 40 -13 40 -30 0 -16 9 -30 20 -30 11
0 20 -13 20 -30 0 -16 -9 -30 -20 -30 -11 0 -20 -9 -20 -20 0 -34 42 -22 83
25 22 25 34 33 26 18 -8 -15 -2 -36 13 -47 21 -15 18 -16 -12 -7 -29 10 -34 7
-18 -8 24 -25 94 -6 77 21 -6 10 -1 18 12 18 17 0 16 10 -4 33 -25 31 -23 31
23 7 45 -24 47 -23 24 5 -21 26 -18 37 25 71 61 48 63 56 12 70 -27 7 -37 23
-31 52 4 23 6 41 4 40 -2 0 -31 -11 -64 -23z m18 -126 c-32 -26 -76 -48 -98
-47 -31 0 -27 7 22 34 39 21 60 47 57 69 -4 29 1 31 35 13 40 -22 40 -23 -16
-69z"/>
<path d="M2017 2240 c10 -104 43 -104 38 0 -3 44 -14 80 -26 80 -11 0 -17 -34
-12 -80z"/>
<path d="M2240 2144 c0 -37 54 -90 68 -67 8 13 1 37 -15 53 -33 33 -53 38 -53
14z"/>
<path d="M2050 2101 c-6 -10 -1 -24 11 -32 12 -7 17 -34 11 -60 -12 -46 18
-86 44 -58 8 8 2 19 -12 24 -21 7 -21 15 2 42 24 29 23 38 -8 67 -20 19 -42
26 -48 17z"/>
<path d="M2300 2000 c-112 -14 -157 -37 -117 -62 40 -26 57 -22 57 12 0 35
159 21 183 -16 14 -22 57 -1 57 28 0 11 -10 14 -23 6 -13 -8 -33 -1 -45 14
-16 20 -48 25 -112 18z"/>
<path d="M818 1791 c-2 -6 -4 -20 -5 -32 -2 -11 -16 -29 -32 -39 -17 -10 -23
-25 -14 -33 21 -22 78 18 84 59 5 30 -27 73 -33 45z"/>
</g>
</svg>
