<?xml version="1.0" standalone="no"?>
<!DOCTYPE svg PUBLIC "-//W3C//DTD SVG 20010904//EN"
 "http://www.w3.org/TR/2001/REC-SVG-20010904/DTD/svg10.dtd">
<svg version="1.0" xmlns="http://www.w3.org/2000/svg"
 width="300.000000pt" height="400.000000pt" viewBox="0 0 300.000000 400.000000"
 preserveAspectRatio="xMidYMid meet">
<metadata>
Created by potrace 1.10, written by Peter Selinger 2001-2011
</metadata>
<g transform="translate(0.000000,400.000000) scale(0.050000,-0.050000)"
fill="#000000" stroke="none">
<path d="M3403 7764 c-48 -7 -104 -48 -219 -159 -67 -64 -67 -65 -53 -200 7
-74 14 -139 14 -145 1 -5 -6 -27 -15 -48 -10 -23 -6 -70 12 -119 l28 -81 -165
-164 c-91 -91 -165 -182 -165 -203 0 -26 -35 -54 -115 -93 -212 -101 -217
-110 -363 -547 -94 -283 -169 -619 -223 -995 -22 -161 -74 -425 -166 -850 -27
-126 -92 -338 -143 -470 -272 -703 -457 -1141 -492 -1170 -130 -106 -223 -535
-147 -682 40 -76 43 -73 160 157 52 102 100 185 107 185 79 0 383 -72 465
-109 59 -27 177 -63 263 -81 86 -18 175 -39 199 -48 49 -18 112 -159 249 -562
51 -148 101 -290 112 -315 16 -34 13 -53 -13 -81 -18 -21 -29 -42 -23 -47 14
-14 -48 -217 -67 -217 -16 0 -103 -169 -103 -201 0 -14 13 -13 39 0 49 26 61
26 61 0 0 -12 -40 -39 -89 -61 -113 -49 -127 -73 -61 -98 148 -56 376 30 407
154 35 139 45 246 23 246 -15 0 -15 12 -1 39 25 47 27 67 4 53 -35 -22 5 98
43 129 50 40 68 123 24 106 -21 -8 -30 2 -30 33 0 38 5 41 30 20 16 -13 42
-20 57 -14 20 8 26 -2 21 -32 -5 -24 -3 -33 3 -20 6 13 25 18 42 12 17 -7 38
-1 46 13 9 14 39 26 68 28 29 2 50 12 45 23 -4 11 -17 18 -29 15 -13 -3 -23 9
-23 25 0 46 51 36 73 -15 28 -65 11 -113 -44 -127 -39 -10 -46 -22 -37 -58 13
-54 -71 -50 -116 5 -23 28 -21 29 18 8 54 -29 110 -32 66 -3 -16 11 -21 20
-11 20 10 0 9 10 -3 22 -30 30 -100 -9 -116 -67 -7 -25 -26 -73 -41 -108 -69
-152 -21 -310 56 -187 29 47 95 54 95 10 0 -26 -35 -40 -84 -33 -7 1 -20 -18
-27 -42 -8 -25 -22 -50 -31 -56 -10 -6 -20 -92 -23 -190 l-5 -179 160 -6 c219
-8 250 2 250 79 0 56 3 59 35 34 19 -15 -6 19 -55 75 -105 119 -160 237 -102
219 57 -18 219 432 324 899 61 269 51 258 173 181 80 -50 185 -85 425 -144
l320 -77 0 -84 c0 -103 24 -120 96 -69 31 22 80 46 110 54 105 26 112 78 83
573 -14 245 -36 694 -48 996 -12 303 -31 676 -41 830 -10 154 -28 465 -39 690
-68 1266 -199 1782 -503 1975 -93 59 -122 90 -138 147 -11 39 -70 155 -132
258 -100 166 -109 190 -87 232 14 27 20 76 13 119 -7 40 -3 121 8 181 44 239
-181 450 -439 412z m128 -308 c105 -5 124 -13 164 -65 49 -63 58 -111 23 -111
-12 0 -18 -12 -12 -26 6 -17 -25 -38 -88 -61 -156 -55 -93 -147 68 -99 63 18
68 29 47 121 -6 25 -3 45 6 45 32 0 41 -147 10 -181 -34 -37 -38 -122 -8 -152
24 -24 4 -127 -24 -127 -12 0 -14 -37 -6 -89 15 -100 -22 -150 -180 -246 -157
-95 -318 51 -309 281 2 57 -2 132 -10 166 -11 48 -7 66 18 75 30 12 29 18 -2
72 -30 50 -32 70 -12 137 13 43 24 113 24 155 0 107 66 179 128 138 24 -15 97
-30 163 -33z m-372 -691 c0 -19 -8 -74 -18 -122 -18 -95 6 -221 45 -232 13 -4
51 -14 84 -21 59 -14 59 -15 14 -32 -26 -10 -41 -26 -35 -37 13 -21 -33 -72
-109 -121 -117 -76 -281 -247 -270 -281 7 -20 -2 -79 -18 -133 -16 -53 -53
-177 -82 -276 -69 -237 -172 -554 -257 -790 -74 -209 -78 -219 -146 -384 -26
-63 -47 -129 -47 -147 0 -19 -9 -26 -23 -17 -14 9 -18 5 -9 -8 7 -12 5 -38 -4
-58 -64 -130 -84 -184 -88 -241 -3 -36 -11 -65 -18 -65 -8 0 -19 -14 -26 -31
-6 -18 -3 -26 8 -19 34 21 -8 -267 -42 -290 -27 -18 -29 -125 -3 -135 14 -5
25 8 25 31 0 21 14 50 30 64 17 14 30 33 30 44 0 42 60 82 63 42 12 -130 5
-206 -18 -197 -32 12 -32 -3 0 -37 20 -22 32 -16 68 32 l44 59 -39 138 c-35
129 -42 304 -13 350 7 12 19 70 27 130 27 211 131 282 212 144 49 -83 46 -445
-4 -445 -40 0 -59 54 -60 166 0 94 -32 80 -48 -21 -19 -116 -19 -187 -3 -290
12 -75 10 -95 -12 -95 -16 0 -30 -23 -32 -55 -3 -30 -19 -155 -36 -277 -31
-218 -34 -822 -4 -918 45 -144 50 -170 35 -170 -10 0 -23 18 -30 40 -13 42
-26 47 -117 40 -31 -2 -72 11 -92 29 -27 24 -47 28 -86 13 -44 -17 -49 -14
-41 17 5 20 0 42 -11 49 -12 7 -16 26 -10 43 8 20 -2 29 -31 29 -23 0 -42 10
-42 21 0 12 8 16 19 10 10 -7 28 4 39 24 13 22 21 25 21 9 1 -15 16 -41 33
-59 30 -30 30 -34 -3 -45 -30 -11 -31 -15 -6 -25 18 -6 42 4 57 25 14 20 38
32 53 26 16 -6 27 4 27 24 0 23 -10 30 -31 23 -51 -20 -75 77 -37 151 17 33
28 82 23 108 -5 26 2 58 17 69 19 16 21 36 6 74 -14 38 -13 56 6 68 20 12 18
16 -8 17 -40 0 -87 -89 -106 -200 -7 -44 -28 -96 -46 -114 -19 -18 -49 -67
-68 -109 -19 -42 -43 -77 -55 -77 -12 0 -21 -15 -21 -34 0 -27 -5 -29 -25 -9
-17 17 -23 85 -19 222 3 120 -3 203 -15 211 -12 7 -22 -8 -23 -34 l-2 -46 -13
48 c-11 38 -18 42 -35 20 -41 -52 -46 -94 -14 -107 20 -8 27 -28 21 -62 -8
-42 -3 -48 28 -38 44 14 49 -16 7 -51 -16 -14 -30 -47 -30 -74 0 -29 -8 -43
-21 -35 -12 7 -17 26 -11 42 7 16 3 24 -8 17 -25 -16 -25 13 -1 79 21 54 9
111 -22 111 -11 0 -14 -20 -7 -45 9 -32 7 -37 -7 -17 -15 22 -26 15 -51 -34
-19 -38 -24 -63 -11 -68 12 -4 -7 -37 -40 -75 -90 -101 -72 -19 59 269 30 66
61 143 70 170 8 28 22 59 30 70 52 69 302 711 286 736 -7 11 -2 14 11 6 13 -8
23 -4 23 9 0 13 13 51 28 86 96 214 210 534 200 561 -7 18 -3 32 8 32 10 0 24
18 30 40 11 41 -14 55 -36 20 -7 -11 -21 -20 -32 -20 -11 0 -2 19 19 41 23 25
44 86 52 149 8 59 26 118 42 131 16 13 24 32 18 41 -6 10 -2 18 10 18 11 0 21
18 21 40 0 22 8 40 17 40 22 0 26 143 5 177 -10 17 -7 48 10 80 18 36 20 56 5
65 -28 17 -4 91 34 106 19 7 29 -2 29 -29 0 -21 9 -39 20 -39 41 0 18 74 -30
100 -38 20 -44 33 -27 53 12 15 29 22 39 16 10 -6 12 3 6 20 -7 17 -20 26 -30
20 -10 -6 -12 3 -6 20 7 17 22 31 33 31 12 0 6 17 -13 37 -32 36 -31 37 18 28
62 -12 85 -43 48 -67 -42 -26 14 -24 63 3 51 27 50 67 -1 53 -25 -6 -40 0 -40
17 0 35 34 55 50 29 19 -30 50 -24 50 10 0 17 13 30 29 30 17 0 25 12 19 28
-6 15 -1 34 11 41 41 25 21 50 -35 44 -46 -6 -56 1 -55 35 1 28 -11 41 -35 39
-28 -2 -32 7 -21 40 21 62 30 140 40 343 11 228 16 240 47 130 15 -49 25 -174
24 -277 -1 -103 2 -184 7 -179 16 16 69 325 69 401 0 41 10 75 21 75 12 0 20
16 18 35 -8 77 4 99 72 131 118 57 133 47 90 -55 -37 -85 -53 -242 -19 -188 8
14 11 32 6 41 -15 23 35 173 65 199 22 18 27 4 27 -71 0 -51 9 -92 21 -92 12
0 17 25 12 59 -6 39 0 62 21 70 46 17 56 13 30 -13 -34 -34 -30 -76 8 -76 26
0 28 6 9 28 -18 23 -16 33 8 46 26 15 4 39 -110 124 -129 96 -172 186 -73 152
13 -5 54 32 90 81 69 94 105 112 103 54z m690 -80 c11 -15 32 -39 46 -54 15
-17 18 -33 6 -40 -34 -21 1 -70 74 -105 l71 -33 -58 -25 c-32 -13 -128 -55
-213 -91 l-156 -67 76 -14 c96 -18 185 -1 185 36 0 15 7 27 15 25 8 -2 32 4
53 13 56 24 220 -66 228 -125 4 -26 -4 -45 -18 -45 -27 0 -6 -28 24 -32 10 -2
24 -4 31 -5 8 -2 -5 -23 -27 -48 -40 -43 -80 -266 -44 -244 8 5 18 -11 22 -36
12 -84 64 -50 100 65 l35 110 -4 -330 c-5 -440 36 -871 89 -935 14 -16 13 -44
-2 -88 -12 -34 -21 -82 -20 -105 2 -31 7 -26 18 18 15 58 15 58 18 8 1 -28 -5
-58 -13 -66 -18 -18 -20 -131 -2 -120 28 17 14 -529 -15 -553 -36 -31 -36 -79
1 -79 22 0 24 -13 11 -59 -19 -68 -5 -146 24 -128 13 7 15 -4 7 -30 -33 -103
96 -917 207 -1313 10 -33 19 -104 21 -159 2 -54 7 -105 12 -112 14 -23 32
-348 18 -335 -6 7 -19 56 -28 109 l-16 97 -3 -80 -3 -80 -41 48 c-53 64 -44
134 17 127 25 -2 45 3 45 12 0 25 -64 151 -84 165 -10 6 -23 47 -30 90 -7 43
-24 85 -39 94 -18 11 -22 27 -11 47 10 17 10 63 2 104 -9 40 -31 143 -49 228
-30 146 -35 154 -79 143 -59 -15 -83 23 -32 51 28 15 41 14 48 -4 5 -14 15
-19 22 -12 8 7 1 26 -16 42 -104 104 -133 209 -63 227 46 11 47 15 20 57 -16
24 -32 82 -35 129 -3 46 -15 91 -27 98 -12 8 -26 46 -31 84 -6 39 -14 84 -20
100 -5 17 -6 23 -1 15 5 -8 22 -15 38 -15 35 0 18 160 -20 185 -17 11 -16 14
2 15 14 0 25 13 25 28 0 46 -68 152 -97 152 -14 0 -21 11 -15 25 7 14 18 41
24 60 7 19 20 35 28 35 9 0 12 18 6 40 -6 22 -19 40 -30 40 -10 0 -13 -9 -6
-20 17 -28 -17 -25 -46 4 -33 33 -30 96 5 96 16 0 27 17 26 40 -4 40 -55 58
-55 19 0 -47 -75 58 -98 138 -14 48 -29 83 -34 78 -5 -5 0 -34 11 -64 12 -29
21 -79 21 -111 0 -32 23 -182 52 -334 28 -152 53 -287 56 -300 7 -43 30 -52
62 -26 17 14 37 20 43 13 7 -6 -2 -18 -20 -25 -18 -7 -33 -34 -33 -61 0 -33
-8 -44 -23 -35 -16 10 -20 4 -12 -16 6 -17 18 -75 26 -128 8 -54 24 -116 35
-138 12 -22 19 -63 17 -91 -5 -46 45 -328 96 -549 10 -44 38 -165 62 -270 24
-104 52 -208 61 -230 20 -47 79 -410 77 -475 -2 -35 -10 -28 -39 35 -20 44
-38 68 -39 54 -1 -21 -6 -21 -29 0 -15 14 -23 35 -16 46 6 11 -4 7 -23 -8 -37
-30 -133 -3 -133 37 0 11 -18 29 -40 41 -35 19 -39 15 -35 -24 3 -27 -7 -47
-26 -51 -38 -8 -124 63 -104 85 8 8 -10 11 -40 5 -31 -5 -61 -1 -67 9 -7 10
-24 8 -40 -5 -21 -18 -28 -18 -28 1 0 14 -13 19 -31 12 -18 -6 -36 2 -42 19
-7 17 -24 27 -38 21 -29 -11 -49 29 -49 95 1 34 4 37 19 13 13 -20 18 4 17 76
-2 81 7 114 41 150 23 26 43 67 43 91 0 25 9 40 20 33 27 -17 25 2 -5 51 -16
26 -18 45 -5 55 35 24 70 153 70 255 1 55 9 133 19 175 15 68 14 73 -15 50
-27 -23 -29 -21 -14 14 9 22 16 65 14 95 -1 30 6 55 17 55 10 0 20 -20 21 -45
2 -36 5 -37 12 -9 5 20 20 33 33 28 12 -4 36 6 53 23 27 27 31 26 37 -4 3 -18
14 -28 24 -22 11 6 17 -5 14 -25 -2 -20 3 -126 13 -236 9 -110 16 -204 16
-210 0 -5 7 -24 17 -41 9 -17 21 -114 27 -216 6 -102 16 -194 23 -204 19 -32
48 -1 35 37 -7 19 -5 27 4 19 9 -8 26 -6 39 4 15 13 22 -16 24 -100 2 -66 -5
-114 -15 -108 -10 6 -12 -3 -6 -20 9 -22 0 -31 -30 -31 -37 0 -39 -5 -18 -39
13 -21 29 -38 35 -37 43 4 61 -10 61 -47 0 -39 3 -41 35 -13 19 17 46 27 59
22 27 -10 -3 106 -37 143 -9 10 -17 39 -17 64 0 24 -8 49 -17 55 -16 10 -53
202 -46 237 2 8 -4 15 -13 15 -8 0 -17 39 -19 87 -2 48 -14 113 -26 145 -12
32 -39 148 -59 258 -21 110 -56 299 -79 420 -37 193 -81 461 -84 520 -1 11 5
38 14 60 8 22 -13 5 -48 -38 -57 -70 -60 -80 -30 -101 41 -31 -100 -72 -222
-64 -110 6 -109 40 4 121 102 74 145 140 145 223 0 66 -24 62 -67 -11 -43 -74
-128 -133 -153 -108 -26 27 156 287 234 333 85 50 95 -31 -115 945 -28 127
-117 635 -131 740 -5 44 -13 98 -15 121 -3 23 -12 51 -20 64 -7 12 -12 48 -9
79 2 32 -2 67 -10 79 -8 13 0 28 16 34 17 7 30 23 30 37 -1 18 -6 17 -20 -4
-17 -28 -136 77 -139 123 -2 22 144 1 159 -22 37 -62 111 124 133 338 11 100
17 118 34 88 11 -20 30 -48 42 -62z m-424 -398 c-61 -25 -12 -122 60 -121 19
0 35 10 36 22 0 12 10 6 21 -14 17 -29 10 -53 -33 -116 -42 -60 -50 -85 -32
-103 13 -13 23 -39 23 -59 0 -20 14 -36 30 -36 17 0 31 -9 33 -20 3 -25 7 -42
22 -80 33 -87 39 -119 42 -217 2 -59 -2 -110 -9 -114 -28 -17 -18 -190 12
-202 52 -20 32 -45 -29 -38 -33 5 -69 13 -79 20 -11 6 -26 1 -33 -11 -21 -34
29 -56 102 -44 70 11 113 -23 49 -40 -23 -6 -35 -2 -28 9 7 11 -7 8 -30 -6
-76 -48 -55 -64 74 -60 79 3 101 -37 56 -100 l-32 -45 -110 114 c-110 113
-111 71 -2 -53 28 -32 56 -74 62 -93 6 -20 34 -42 62 -49 27 -7 44 -21 38 -32
-7 -10 -5 -19 5 -19 27 0 18 -152 -10 -178 -14 -13 -25 -15 -25 -5 0 10 -19
23 -41 29 -30 8 -40 2 -35 -21 3 -18 11 -29 16 -26 17 10 179 -88 180 -109 0
-11 -42 -23 -95 -26 -138 -9 -157 -44 -24 -44 121 -1 170 -21 154 -65 -15 -39
-105 -55 -309 -55 -102 0 -164 -8 -157 -19 7 -11 25 -14 40 -9 15 6 47 1 69
-11 23 -12 42 -15 42 -6 0 8 61 18 135 22 l134 6 -48 -52 c-26 -28 -40 -52
-29 -54 10 -1 -13 -8 -52 -15 -42 -8 -68 -24 -64 -39 3 -15 -13 -31 -35 -37
-56 -15 -52 -45 4 -33 42 9 42 8 10 -19 -19 -15 -35 -38 -35 -51 0 -12 -15
-16 -33 -9 -27 10 -31 3 -20 -40 10 -38 4 -57 -22 -72 -31 -18 -31 -21 -2 -21
52 -1 91 -60 56 -83 -25 -16 -25 -21 0 -37 25 -16 24 -25 -10 -65 -21 -25 -40
-48 -41 -51 -3 -8 -202 -57 -291 -73 -40 -7 -83 -25 -95 -40 -17 -20 -58 -25
-152 -17 -79 6 -140 2 -155 -11 -15 -12 -44 -18 -66 -14 -21 4 -70 9 -109 10
-65 4 -66 5 -20 20 28 9 37 18 20 19 -21 3 -18 9 10 21 35 15 32 18 -20 20
-33 2 -49 8 -35 13 14 6 25 23 25 39 0 17 20 28 52 28 38 0 49 8 41 30 -18 46
60 79 125 52 49 -21 49 -21 13 8 -21 16 -55 30 -75 30 -28 0 -34 13 -29 65 3
36 -2 76 -12 89 -35 46 5 64 111 52 112 -12 119 9 10 33 -37 8 -64 25 -60 39
3 17 -9 21 -38 11 -29 -9 -39 -6 -29 9 7 12 -1 42 -18 66 -33 47 -42 116 -15
116 19 0 108 -61 131 -89 10 -13 13 -10 8 9 -4 17 -39 48 -77 70 -68 40 -112
147 -50 124 19 -8 24 0 17 29 -6 23 -22 35 -38 29 -23 -9 -24 -3 -6 31 18 33
17 40 -4 32 -15 -5 -27 -32 -26 -60 0 -29 -7 -48 -15 -42 -9 5 -16 -5 -16 -23
0 -18 -9 -27 -21 -20 -11 7 -19 24 -17 37 8 63 -5 113 -28 113 -17 0 -23 -24
-18 -79 7 -71 4 -77 -34 -67 -23 6 -42 18 -42 28 0 27 68 167 89 181 10 8 20
26 22 40 3 15 15 65 28 112 12 47 17 95 11 106 -7 10 1 24 18 31 16 6 35 38
42 70 7 32 22 58 33 58 11 0 14 -9 7 -20 -7 -11 -8 -20 -3 -20 5 0 26 -5 46
-12 27 -8 30 -6 11 7 -14 10 -27 40 -29 67 -2 26 -13 55 -24 63 -12 8 -6 15
15 15 27 0 33 10 25 38 -7 21 -7 62 1 91 22 89 66 0 69 -139 1 -86 7 -109 19
-80 9 22 19 31 21 20 2 -11 11 12 20 50 53 226 65 271 78 280 40 28 76 280 41
280 -11 0 -20 -26 -20 -59 0 -32 -14 -72 -31 -90 -36 -36 -58 -41 -38 -10 7
12 15 74 17 138 2 64 15 130 28 146 28 34 37 217 13 256 -10 18 -7 20 11 9 19
-12 23 -7 14 16 -17 45 16 61 52 25 26 -26 33 -26 54 0 15 17 17 29 4 29 -11
0 -18 16 -15 35 4 19 16 33 29 30 12 -3 22 14 22 37 0 29 9 39 29 31 17 -6 36
-1 43 11 9 13 5 17 -9 8 -13 -8 -23 -7 -23 2 0 9 23 26 50 39 28 13 50 17 50
10 0 -7 20 -26 45 -41 40 -25 42 -25 20 2 -34 41 -13 92 42 102 62 12 87 12
58 1z m-925 -357 c-13 -62 -18 -126 -12 -142 7 -17 3 -25 -8 -18 -20 12 -29
-27 -23 -95 1 -19 -6 -35 -17 -35 -25 0 -26 -74 -2 -89 22 -13 82 42 82 75 1
16 7 15 18 -3 9 -15 15 -42 12 -60 -2 -18 0 -22 4 -8 12 33 46 32 46 -2 0 -37
-73 -100 -98 -84 -11 7 -15 25 -9 42 16 41 -26 36 -54 -6 -20 -32 -21 -32 -11
-1 5 19 3 39 -5 44 -8 5 -17 -23 -20 -64 -3 -40 -12 -78 -21 -83 -9 -6 -21
-38 -29 -71 -32 -153 -218 -792 -227 -782 -7 6 108 460 233 922 20 77 62 242
92 366 55 229 92 300 49 94z m1900 -346 c0 -53 -8 -82 -20 -74 -11 7 -20 -11
-20 -42 0 -30 -5 -50 -10 -44 -6 5 -5 75 3 154 14 155 46 158 47 6z m40 -253
c0 -28 -9 -51 -20 -51 -11 0 -20 -16 -20 -35 1 -30 4 -31 22 -5 17 24 20 25
13 1 -14 -51 -55 -47 -55 6 0 27 -11 53 -25 58 -19 7 -19 16 2 42 19 23 21 33
5 33 -17 0 -16 8 2 27 34 37 76 -5 76 -76z m-1561 -106 c1 -14 -8 -25 -19 -25
-11 0 -20 8 -20 18 0 9 -5 47 -10 85 l-10 67 29 -60 c16 -33 30 -71 30 -85z
m1517 -60 c-3 -8 5 -33 17 -55 34 -62 55 -205 27 -177 -13 12 -28 59 -34 104
-6 45 -19 77 -29 71 -20 -12 -23 39 -4 59 18 17 28 17 23 -2z m87 -529 c4
-128 1 -223 -6 -210 -20 39 -38 483 -18 462 10 -10 21 -123 24 -252z m58 -816
c21 -192 44 -381 50 -420 7 -38 15 -110 19 -160 4 -49 12 -118 17 -151 6 -34
3 -73 -6 -87 -16 -26 -52 195 -81 508 -10 99 -27 221 -38 270 -12 50 -20 207
-18 350 2 143 6 211 10 150 4 -60 25 -267 47 -460z m-948 -290 c6 -16 24 -30
39 -30 15 0 28 -9 28 -20 0 -11 14 -20 30 -20 17 0 30 -10 30 -22 0 -15 22
-19 60 -11 46 9 60 5 60 -20 0 -23 -12 -28 -48 -19 -98 24 -147 -68 -52 -98
52 -16 126 -91 155 -156 15 -34 17 -51 4 -43 -43 26 -99 -73 -99 -174 0 -53
-7 -97 -16 -97 -18 0 -75 -198 -67 -229 13 -44 -18 -109 -47 -98 -19 7 -30 -1
-30 -23 0 -18 -20 -39 -44 -45 -43 -11 -43 -12 -2 -27 41 -15 78 -123 45 -134
-9 -4 -12 -20 -6 -35 8 -20 -2 -29 -31 -29 -23 0 -42 -9 -42 -20 0 -11 17 -20
38 -20 36 0 74 -55 52 -76 -5 -6 -10 0 -10 13 0 13 -20 22 -45 21 -34 -2 -36
-5 -10 -12 43 -11 45 -43 4 -59 -17 -7 -27 -23 -22 -37 6 -15 -12 -25 -52 -26
-34 -1 -68 -12 -75 -25 -8 -12 -32 -20 -52 -16 -45 9 -64 77 -21 77 17 0 27
14 23 35 -4 19 -8 35 -10 35 -29 0 -16 398 14 422 33 26 34 29 2 48 -38 23
-44 136 -15 270 12 59 10 87 -11 110 -15 16 -30 53 -34 80 -4 28 -13 60 -21
72 -8 12 -16 51 -19 85 -3 37 -16 63 -31 63 -15 0 -22 8 -16 19 6 10 1 25 -11
32 -24 15 -11 -181 21 -301 16 -64 8 -901 -11 -1045 -16 -131 -57 -114 -49 20
2 31 -6 55 -20 55 -16 0 -20 20 -12 59 6 33 5 64 -4 69 -31 19 -65 -24 -76
-100 -14 -87 -42 -134 -70 -116 -10 6 -32 1 -48 -12 -38 -32 -80 69 -54 129
26 60 9 108 -40 115 -31 4 -47 25 -57 71 -15 73 -5 82 34 30 24 -32 27 -32 27
-2 1 19 8 37 16 40 20 9 85 127 85 155 0 39 -40 24 -89 -33 l-47 -55 6 94 c7
111 46 224 161 466 86 180 117 258 105 262 -3 1 4 14 16 30 12 15 33 71 47
123 23 82 34 95 79 97 l52 2 -50 14 c-43 13 -36 18 60 41 61 14 124 34 140 43
48 27 120 21 133 -12z m-536 -120 c26 -2 57 -20 68 -39 15 -28 14 -33 -6 -21
-18 12 -22 5 -14 -26 7 -26 2 -41 -12 -38 -12 2 -40 -52 -61 -121 -22 -69 -50
-125 -63 -125 -14 0 -23 -16 -22 -35 2 -22 -13 -35 -43 -37 -60 -3 -83 -28
-26 -28 28 0 42 -10 36 -25 -5 -14 -20 -23 -33 -20 -13 4 -19 -3 -12 -14 23
-36 -11 -119 -43 -107 -21 8 -23 16 -6 26 16 10 17 20 4 27 -30 19 -47 -44
-24 -87 25 -47 26 -66 1 -51 -18 11 -46 -49 -52 -109 -1 -16 -9 -46 -18 -65
-9 -20 -11 -53 -5 -75 6 -22 2 -40 -8 -40 -10 0 -18 -18 -18 -40 0 -22 13 -40
30 -40 17 0 30 -9 30 -20 0 -11 -15 -20 -33 -20 -29 0 -29 -5 5 -43 38 -43 38
-43 -12 -30 -150 41 -160 41 -160 -9 1 -39 4 -42 20 -18 13 20 19 22 20 5 0
-17 34 -25 101 -25 63 0 97 -8 89 -20 -7 -11 -33 -20 -59 -20 -26 0 -52 -13
-58 -30 -14 -36 10 -39 43 -6 13 13 29 18 35 11 24 -24 -13 -89 -63 -112 -53
-24 -97 -14 -77 18 6 11 -7 19 -30 19 -27 0 -41 13 -41 39 0 21 -9 44 -19 51
-11 6 -17 47 -13 90 5 58 -4 88 -31 113 -37 33 -38 89 -4 212 5 19 0 35 -12
35 -11 0 -21 -15 -21 -33 0 -19 -6 -27 -14 -20 -18 18 -21 233 -3 233 7 0 9
38 4 85 -9 80 -8 83 22 46 17 -21 31 -33 31 -26 0 6 5 26 12 43 9 23 0 32 -30
32 -39 0 -55 34 -42 90 3 11 4 47 4 79 -1 33 6 69 14 80 19 24 50 133 45 156
-2 8 7 15 20 15 13 0 18 5 12 12 -33 33 39 57 150 51 73 -4 128 2 142 16 15
16 53 19 113 9 50 -8 111 -16 137 -18z m913 -149 c-9 -68 -6 -101 12 -112 17
-11 21 -6 12 17 -21 55 19 56 44 1 32 -71 -11 -133 -46 -65 -12 24 -30 42 -40
39 -25 -6 -52 43 -37 68 7 11 14 38 15 60 9 159 10 162 32 125 13 -22 16 -76
8 -133z m546 -126 c6 -199 14 -271 29 -287 11 -11 0 -110 -14 -124 -4 -3 -12
55 -19 130 -28 318 -33 446 -18 446 9 0 18 -74 22 -165z m-739 -728 c-36 -67
-39 -69 -28 -20 7 32 18 85 25 119 11 55 14 57 28 19 10 -28 2 -67 -25 -118z
m-986 -486 c-8 -12 -23 -16 -35 -9 -13 8 -15 -2 -7 -29 11 -35 5 -43 -30 -43
-38 0 -41 4 -17 33 25 29 23 31 -17 19 -71 -23 -54 24 20 55 66 28 111 15 86
-26z m725 2 c15 -9 20 -31 12 -52 -8 -21 -3 -42 14 -53 19 -11 -3 -17 -62 -16
-49 1 -78 6 -64 12 21 8 20 19 -5 57 -28 43 -27 47 14 55 25 5 50 10 55 11 6
1 22 -5 36 -14z m-380 -77 c65 -7 103 -20 98 -34 -12 -30 -66 -271 -98 -438
-32 -168 -62 -173 -80 -16 -7 66 -36 207 -65 313 -61 232 -61 217 -6 201 25
-8 93 -19 151 -26z m88 -940 c29 -9 30 -14 7 -38 -40 -40 -161 2 -125 43 13
15 38 22 54 16 17 -6 45 -16 64 -21z m-497 -281 c19 -32 -46 -94 -71 -69 -19
19 -19 24 0 24 13 0 24 14 24 30 0 31 31 41 47 15z m613 -336 c0 -21 -15 -30
-43 -25 -64 9 -71 56 -9 56 34 0 52 -11 52 -31z"/>
<path d="M3268 7192 c-20 -52 29 -112 91 -112 134 0 161 56 53 108 -84 40
-130 41 -144 4z"/>
<path d="M3360 6980 c-12 -23 -15 -52 -6 -65 8 -14 16 -29 17 -35 15 -74 40
-121 71 -131 21 -6 38 -19 38 -28 0 -10 17 -13 37 -8 56 15 161 253 108 245
-40 -7 -66 4 -55 22 21 34 -22 22 -57 -17 -31 -34 -30 -36 25 -28 31 5 63 0
70 -11 7 -12 -4 -16 -26 -10 -20 5 -44 0 -51 -12 -8 -13 2 -22 23 -23 34 0 34
-1 0 -21 -50 -29 -163 -3 -134 31 15 20 12 30 -12 39 -21 8 -29 27 -22 52 13
51 1 51 -26 0z"/>
<path d="M3266 6733 c5 -12 18 -21 29 -19 12 3 17 -12 11 -31 -14 -54 85 -159
163 -174 88 -17 137 12 189 111 46 89 51 108 24 91 -10 -6 -22 0 -27 14 -5 14
-15 -8 -23 -49 -32 -175 -248 -181 -280 -9 -9 46 -27 72 -54 79 -26 7 -37 2
-32 -13z"/>
<path d="M2839 6225 c-48 -163 -61 -222 -86 -390 -14 -96 -18 -175 -9 -175 9
0 16 3 16 7 0 25 40 210 52 241 10 27 8 34 -9 24 -32 -20 -29 11 6 60 16 23
28 59 28 80 -1 21 13 77 31 126 38 102 38 102 13 102 -11 0 -29 -34 -42 -75z"/>
<path d="M2247 2945 c-2 -159 -1 -165 13 -65 21 148 23 240 5 240 -8 0 -16
-79 -18 -175z"/>
<path d="M1876 3030 c-31 -40 -31 -48 -5 -58 33 -12 57 27 46 75 -5 22 -16 18
-41 -17z"/>
<path d="M3724 6134 c22 -101 36 -119 36 -47 0 55 27 70 52 29 10 -16 20 -11
30 15 14 35 15 34 17 -8 1 -32 10 -44 29 -36 41 15 54 -36 21 -80 -46 -62 -32
-76 20 -20 44 48 55 169 18 212 -18 20 -138 16 -151 -6 -11 -17 -24 -17 -53 1
-36 22 -37 19 -19 -60z"/>
<path d="M4027 5993 c9 -34 6 -53 -9 -53 -21 0 -15 -265 12 -510 5 -44 14
-174 22 -290 7 -115 21 -225 30 -244 10 -18 18 -56 18 -84 0 -27 7 -54 15 -59
34 -21 -31 771 -67 831 -15 24 43 76 86 77 33 0 33 2 2 20 -19 11 -29 33 -23
50 6 16 1 42 -11 57 -13 15 -29 74 -36 130 -6 57 -21 109 -32 116 -12 7 -15
-8 -7 -41z"/>
<path d="M3700 5801 c0 -68 7 -81 40 -81 24 0 40 13 40 32 0 28 -5 29 -33 5
-30 -24 -31 -23 -9 18 20 38 18 52 -7 77 -28 28 -31 23 -31 -51z"/>
<path d="M4180 5667 c0 -28 -12 -47 -30 -47 -39 0 -43 -33 -21 -165 19 -109
43 -92 70 50 13 69 28 144 34 167 7 28 0 41 -22 41 -19 0 -31 -17 -31 -46z"/>
<path d="M3733 5605 c3 -52 5 -102 6 -110 0 -8 9 -15 19 -15 27 0 41 107 18
135 -15 18 -14 25 4 25 20 0 20 6 0 30 -41 49 -51 35 -47 -65z"/>
<path d="M4177 4856 c-9 -78 32 -490 61 -605 14 -55 13 -88 -2 -105 -14 -18
-14 -26 0 -26 11 0 25 11 31 25 5 14 12 -2 14 -35 l4 -60 15 60 15 60 3 -58
c1 -32 8 -53 14 -46 7 7 7 46 -1 87 -11 55 -19 67 -32 46 -21 -34 -22 -29 -31
201 -14 340 -71 628 -91 456z"/>
<path d="M3960 4604 c0 -15 -9 -21 -20 -14 -11 7 -20 -6 -20 -29 0 -47 25 -53
56 -15 14 16 15 36 3 55 -14 21 -18 22 -19 3z"/>
<path d="M4308 3945 c7 -41 13 -93 13 -115 1 -36 3 -37 21 -6 22 40 2 196 -27
196 -11 0 -14 -31 -7 -75z"/>
<path d="M3952 3805 c-32 -52 -77 -111 -100 -131 -42 -35 -42 -35 9 -13 28 12
62 48 77 81 14 32 39 72 55 89 17 16 27 38 24 49 -4 11 -33 -23 -65 -75z"/>
<path d="M3943 2194 c-18 -22 -17 -34 7 -54 17 -14 33 -22 36 -18 3 4 19 25
35 47 22 30 23 35 2 22 -16 -9 -33 -7 -42 7 -11 18 -21 17 -38 -4z"/>
<path d="M2820 4802 c0 -10 -11 -17 -25 -17 -67 3 -95 -8 -95 -36 0 -25 15
-28 75 -17 75 14 111 42 93 72 -14 22 -48 20 -48 -2z"/>
<path d="M3354 4784 c-43 -4 -81 -19 -87 -35 -6 -16 -19 -24 -28 -18 -9 5 -26
-8 -38 -29 -14 -26 -14 -44 -1 -52 11 -7 20 -4 20 6 0 24 232 61 263 42 34
-21 76 0 64 32 -14 37 -102 62 -193 54z"/>
<path d="M2626 4615 c-35 -44 -50 -86 -17 -46 30 38 46 4 33 -74 -3 -19 21
-19 53 2 20 12 19 29 -6 79 -36 73 -37 73 -63 39z"/>
<path d="M2700 4423 c0 -9 24 -27 53 -41 51 -23 51 -25 15 -54 -37 -29 -37
-30 2 -21 22 5 110 21 195 35 170 29 188 43 90 76 -59 20 -62 19 -26 -8 37
-29 37 -30 -10 -30 -27 0 -83 -6 -124 -13 -63 -10 -75 -7 -75 23 0 22 -10 30
-29 23 -17 -6 -35 -3 -42 8 -14 23 -49 25 -49 2z"/>
<path d="M3240 4360 c-118 -9 -131 -14 -137 -57 -4 -31 1 -43 16 -34 12 8 71
14 131 14 63 0 110 9 110 21 0 11 -18 16 -40 10 -22 -6 -40 -3 -40 5 0 9 101
13 225 9 167 -6 210 -3 165 12 -75 25 -259 33 -430 20z"/>
<path d="M3280 4118 l-110 -11 100 -4 c73 -3 92 -9 70 -23 -26 -17 -26 -19 3
-20 18 0 38 15 45 33 16 41 23 39 -108 25z"/>
<path d="M3202 4037 c-65 -52 -47 -61 36 -18 45 23 58 38 39 46 -16 6 -50 -7
-75 -28z"/>
<path d="M2760 3594 c0 -10 261 -94 292 -94 43 0 -32 40 -112 60 -170 43 -180
45 -180 34z"/>
<path d="M3044 2897 c-14 -40 -24 -80 -22 -90 1 -9 1 -21 -2 -27 -24 -54 -15
-218 13 -228 48 -19 49 -15 43 210 -6 197 -7 204 -32 135z"/>
<path d="M3086 2336 c-17 -38 -12 -49 30 -71 56 -29 76 -21 52 19 -10 14 -17
39 -17 54 -1 47 -43 46 -65 -2z"/>
<path d="M2561 2075 c2 -41 3 -42 17 -6 11 27 20 31 30 14 16 -25 52 -13 52
18 0 11 -22 19 -50 19 -39 0 -50 -10 -49 -45z"/>
<path d="M198 642 c-53 -42 -63 -157 -20 -210 32 -38 150 -44 137 -7 -5 14
-28 22 -51 19 -92 -13 -86 160 6 177 58 10 59 11 17 35 -36 19 -51 17 -89 -14z"/>
<path d="M360 530 l0 -130 59 0 c32 0 64 9 71 20 7 11 -10 20 -39 20 -38 0
-51 10 -51 40 0 27 13 40 40 40 22 0 40 9 40 20 0 11 -18 20 -40 20 -22 0 -40
13 -40 30 0 17 17 30 39 30 21 0 44 9 51 20 7 12 -16 20 -59 20 l-71 0 0 -130z"/>
<path d="M540 550 c0 -60 0 -114 0 -120 0 -45 32 4 40 62 l10 74 46 -84 c60
-106 84 -89 84 59 0 130 -34 164 -44 44 l-6 -75 -47 75 c-64 102 -83 94 -83
-35z"/>
<path d="M764 537 l6 -122 65 -5 c36 -3 70 3 76 12 6 10 -12 18 -40 18 -38 0
-51 10 -51 40 0 22 13 40 30 40 17 0 30 9 30 20 0 11 -13 20 -30 20 -16 0 -30
14 -30 30 0 17 18 30 40 30 22 0 40 9 40 20 0 11 -32 20 -71 20 l-71 0 6 -123z"/>
<path d="M947 609 c-49 -75 -17 -197 53 -204 73 -8 102 19 114 109 18 134 -98
200 -167 95z m103 -81 c0 -56 -8 -78 -30 -78 -32 0 -52 91 -31 143 21 57 61
15 61 -65z"/>
<path d="M1410 595 c-20 -57 -19 -181 2 -188 12 -5 21 16 21 48 0 31 7 80 14
110 14 55 -19 81 -37 30z"/>
<path d="M1258 552 c0 -1 -4 -17 -7 -35 -4 -17 -13 -60 -20 -95 -19 -83 -6
-81 101 15 44 41 28 113 -27 115 -25 2 -46 2 -47 0z"/>
</g>
</svg>
