<?xml version="1.0" standalone="no"?>
<!DOCTYPE svg PUBLIC "-//W3C//DTD SVG 20010904//EN"
 "http://www.w3.org/TR/2001/REC-SVG-20010904/DTD/svg10.dtd">
<svg version="1.0" xmlns="http://www.w3.org/2000/svg"
 width="300.000000pt" height="380.000000pt" viewBox="0 0 300.000000 380.000000"
 preserveAspectRatio="xMidYMid meet">
<metadata>
Created by potrace 1.10, written by Peter Selinger 2001-2011
</metadata>
<g transform="translate(0.000000,380.000000) scale(0.050000,-0.050000)"
fill="#000000" stroke="none">
<path d="M1118 7414 c-98 -37 -187 -103 -240 -176 -47 -67 -50 -38 47 -364 12
-42 46 -96 75 -121 29 -24 58 -59 65 -77 18 -47 280 -216 335 -216 45 0 45 -1
10 -40 -38 -42 -15 -57 26 -16 19 19 24 13 24 -27 0 -28 18 -67 40 -87 22 -20
40 -48 40 -63 0 -15 9 -27 20 -27 27 0 25 -74 -2 -91 -12 -8 -31 -2 -42 13
-15 21 -17 19 -8 -9 7 -20 12 -41 12 -46 0 -5 9 -4 20 3 11 7 21 -12 22 -44 2
-56 2 -56 16 -6 24 86 69 68 142 -54 38 -64 75 -120 82 -126 26 -21 76 -135
64 -147 -7 -7 -7 -13 1 -13 21 0 85 69 100 109 7 19 25 31 40 25 19 -7 24 3
17 38 -10 57 -44 85 -44 38 0 -51 -69 -27 -77 27 -4 30 2 43 15 34 12 -7 22
-2 22 13 1 19 6 18 21 -4 15 -22 17 -10 8 43 -12 69 24 178 68 205 58 36 142
-50 135 -140 -7 -90 19 -135 49 -86 10 16 7 33 -7 43 -13 9 2 10 33 3 53 -12
56 -10 43 32 -8 25 -16 58 -19 74 -2 16 -15 36 -28 44 -13 8 -30 51 -36 94 -7
43 -20 87 -29 99 -9 11 -16 38 -15 60 0 21 -6 100 -14 174 -13 115 -10 135 16
135 17 0 36 14 42 30 7 17 35 30 64 30 28 0 66 14 83 31 18 18 57 29 94 25 76
-7 74 -44 -2 -52 -98 -10 -147 -44 -124 -87 11 -21 28 -33 37 -27 10 5 23 -1
29 -15 7 -14 8 -2 2 27 -21 115 45 75 124 -74 46 -86 40 -113 -13 -63 -21 20
-24 20 -13 0 9 -15 2 -25 -16 -25 -17 0 -45 25 -63 55 -27 47 -30 49 -22 10 9
-43 -32 -66 -52 -30 -5 8 -6 4 -3 -9 3 -13 0 -27 -8 -31 -8 -5 -4 -6 9 -3 13
3 20 -10 17 -28 -4 -19 -8 -34 -10 -34 -2 0 -7 -21 -12 -46 -7 -39 -1 -45 30
-35 45 15 74 -20 47 -55 -26 -35 -19 -84 12 -84 14 0 39 -17 55 -39 17 -23 28
-28 28 -12 0 19 7 20 27 3 59 -48 158 31 123 98 -20 39 -24 73 -13 104 10 25
13 57 8 71 -13 38 29 30 43 -8 7 -18 17 -28 23 -23 6 6 1 33 -9 61 -31 81 52
94 86 13 14 -32 31 -53 38 -45 22 22 109 -34 124 -80 13 -39 15 -38 27 15 11
48 17 53 37 30 32 -40 166 -375 166 -418 0 -115 -179 10 -182 127 0 34 -6 50
-11 33 -6 -16 -14 -42 -19 -58 -12 -39 -88 51 -89 106 0 46 -57 158 -58 116
-1 -15 8 -43 19 -64 11 -20 14 -51 8 -68 -21 -56 -83 0 -98 88 -12 70 -50 115
-50 59 0 -12 -9 -16 -20 -9 -11 7 -20 3 -20 -9 0 -11 10 -21 22 -21 13 0 19
-21 13 -50 -6 -34 -1 -50 19 -50 16 0 23 -8 17 -19 -6 -10 -2 -24 9 -31 12 -7
16 -31 9 -52 -6 -21 -4 -38 5 -39 9 -1 53 -3 99 -6 146 -9 273 -175 180 -236
-49 -33 -14 -199 62 -294 41 -51 59 -81 40 -66 -25 20 -42 22 -61 7 -57 -48
-174 18 -129 72 18 23 18 28 1 17 -13 -8 -43 -41 -66 -74 l-43 -59 68 9 c59 7
73 0 104 -53 27 -46 40 -54 53 -33 13 21 17 19 18 -9 0 -27 10 -33 38 -25 23
8 42 1 49 -17 7 -21 2 -26 -19 -19 -22 9 -19 -6 12 -58 23 -39 39 -78 36 -88
-2 -9 6 -37 20 -61 16 -29 17 -48 4 -56 -12 -7 -19 -1 -15 13 3 14 -15 35 -40
46 -25 11 -45 27 -45 36 0 8 -8 15 -18 15 -33 0 -192 161 -187 188 4 18 -10
24 -42 17 -33 -6 -57 4 -77 33 -16 23 -60 48 -98 55 -37 7 -73 19 -78 25 -36
42 -148 82 -163 58 -9 -15 -17 -17 -17 -4 0 12 -25 33 -55 46 -43 20 -37 10
30 -48 47 -40 85 -84 85 -97 0 -37 100 -76 112 -44 8 21 23 22 68 5 32 -12 53
-28 48 -36 -5 -9 10 -21 32 -28 22 -7 40 -24 40 -38 0 -35 93 -119 116 -104
29 18 164 -141 177 -210 8 -40 22 -57 40 -50 19 8 31 -13 39 -69 8 -44 21 -85
31 -91 10 -6 12 -19 6 -29 -6 -11 -1 -19 12 -19 13 0 18 -14 12 -30 -7 -16 -5
-30 3 -30 9 0 15 -17 15 -39 0 -21 -9 -37 -20 -35 -12 2 -19 -7 -16 -21 3 -14
-24 -43 -60 -65 -73 -45 -125 -53 -103 -16 9 13 -13 4 -47 -21 -122 -86 -11
-127 143 -51 32 15 60 28 63 28 45 0 -12 -155 -66 -179 -71 -31 -85 -60 -30
-63 19 -1 8 -10 -25 -20 -166 -50 -555 95 -431 161 51 28 103 28 61 1 -25 -16
-24 -19 7 -20 26 0 34 10 25 32 -7 17 -12 43 -12 57 0 15 -15 32 -32 39 -25
10 -30 3 -23 -25 5 -21 0 -37 -13 -37 -71 1 -119 -9 -101 -21 30 -22 24 -70
-11 -80 -24 -6 -25 -4 -3 11 21 15 21 21 -5 30 -17 7 -37 2 -44 -10 -10 -15
-23 -10 -40 13 -14 19 -35 29 -47 22 -11 -7 -21 -4 -21 7 0 11 9 25 20 32 11
7 20 30 20 51 0 38 50 55 63 22 4 -10 30 -24 57 -32 32 -9 20 5 -35 39 -93 57
-85 29 -93 330 -2 61 -11 123 -21 138 -13 22 -9 26 16 16 29 -11 31 -7 11 31
-40 77 -80 112 -119 105 -21 -4 -43 1 -50 11 -10 18 18 28 57 21 10 -2 11 7 3
19 -7 12 -18 17 -24 11 -6 -6 -46 20 -88 58 -77 69 -150 100 -87 37 24 -23 30
-52 22 -95 -10 -56 -8 -58 16 -26 29 37 92 3 92 -50 0 -11 13 -15 29 -9 34 13
136 -62 120 -89 -19 -31 -81 -20 -119 22 -20 22 -48 40 -63 40 -15 0 -27 11
-27 24 0 19 -5 19 -24 0 -29 -29 -63 -32 -45 -3 7 11 2 34 -12 50 -19 23 -18
29 2 29 15 0 4 24 -27 56 -60 62 -74 136 -23 116 19 -7 26 -3 18 10 -8 12 -30
17 -51 12 -30 -8 -38 1 -38 38 0 27 -12 48 -27 48 -38 0 -115 71 -98 90 8 9 5
11 -7 4 -13 -7 -46 14 -74 48 -27 34 -53 60 -57 58 -30 -12 -70 30 -66 69 4
37 -3 44 -33 36 -26 -6 -38 1 -38 23 0 47 -29 39 -58 -15 -35 -65 -134 -61
-127 5 3 31 -3 40 -20 30 -14 -8 -19 -8 -11 1 7 8 6 36 -4 61 -18 47 -5 136
17 122 18 -11 16 261 -2 280 -8 8 -15 4 -15 -10 0 -13 -28 -34 -61 -45 -37
-13 -58 -32 -51 -48 5 -14 -3 -36 -18 -49 -21 -18 -25 -14 -16 19 6 23 1 41
-11 41 -12 0 -17 13 -10 29 6 17 17 29 24 28 69 -9 116 96 52 116 -102 33
-225 -343 -230 -703 -1 -55 -9 -118 -18 -140 -27 -66 -48 49 -22 119 12 31 19
60 14 64 -37 37 -74 -182 -42 -243 28 -52 31 -73 13 -95 -16 -20 -17 -34 -2
-49 15 -15 14 -26 -2 -36 -14 -8 -31 -5 -38 7 -8 12 -36 -19 -65 -73 -28 -52
-62 -92 -75 -89 -14 4 -19 -3 -12 -15 7 -12 27 -19 44 -16 55 10 50 -37 -8
-75 -49 -32 -53 -32 -28 -2 15 19 21 40 13 48 -8 8 -23 -1 -33 -19 -10 -19
-33 -48 -49 -64 -45 -45 -132 -251 -116 -276 8 -14 4 -16 -10 -8 -31 19 -85
-107 -70 -163 6 -22 -4 -64 -22 -91 -22 -33 -26 -55 -12 -63 12 -7 21 -22 21
-33 0 -11 -8 -15 -19 -9 -10 6 -25 1 -33 -12 -10 -16 -20 -10 -31 20 -34 92
-257 -76 -257 -194 0 -30 -13 -73 -29 -96 -16 -23 -24 -47 -17 -54 6 -7 0 -26
-15 -44 -30 -36 -28 -188 3 -219 28 -28 57 25 58 104 0 35 10 70 22 77 16 10
18 -5 8 -50 -10 -47 -5 -74 21 -102 57 -63 93 -50 78 27 -10 56 -2 77 48 130
108 117 203 61 203 -120 0 -63 7 -76 40 -76 54 0 55 226 3 434 l-36 144 238
236 c217 216 496 551 545 656 11 24 53 72 93 107 53 47 80 91 97 163 30 123
10 129 195 -55 215 -214 228 -251 149 -422 -168 -364 -178 -391 -160 -453 9
-33 11 -124 4 -201 -6 -78 -2 -240 10 -360 12 -121 36 -438 52 -706 17 -268
35 -495 41 -505 6 -10 -7 -45 -30 -77 -143 -200 -446 -1056 -480 -1352 -11
-99 -40 -239 -63 -311 l-44 -133 84 -150 c68 -124 90 -149 122 -141 48 13 57
-115 16 -229 -35 -95 -12 -103 272 -90 290 12 269 -2 205 146 -66 151 -66 151
8 314 l60 133 -40 95 -41 95 48 176 c26 97 55 212 65 256 20 93 55 98 59 8 2
-34 14 -72 26 -84 12 -12 22 -38 22 -57 0 -20 27 -56 60 -80 48 -36 60 -59 60
-119 0 -184 36 -205 273 -167 98 16 184 29 192 29 29 0 14 52 -36 126 -60 88
-115 234 -89 234 34 0 58 136 35 196 -18 48 -13 70 30 145 34 58 56 135 66
223 12 122 26 154 141 327 71 106 128 198 128 204 0 7 26 71 58 143 73 164
168 700 214 1212 27 286 42 378 78 450 54 109 76 306 50 435 -10 52 -27 217
-37 365 -16 235 -30 308 -109 560 -50 159 -88 293 -84 296 3 4 73 -51 154
-121 193 -168 309 -250 516 -363 225 -123 254 -146 224 -176 -19 -19 -24 -16
-24 12 0 31 -5 33 -30 12 -34 -28 -41 -151 -9 -171 11 -7 15 -30 8 -52 -19
-59 29 -122 235 -310 45 -42 82 -15 67 47 -23 92 129 -61 364 -364 214 -277
679 -730 750 -730 20 0 60 36 90 79 63 91 100 108 57 26 -33 -62 -232 -264
-232 -235 0 10 -14 -1 -31 -26 -17 -24 -41 -44 -52 -44 -17 0 -126 -76 -204
-141 -52 -45 140 -314 270 -381 l78 -39 17 46 c58 151 124 256 241 383 180
194 279 426 281 657 0 76 -11 71 -133 -57 -81 -85 -115 -109 -142 -97 -19 8
-62 19 -94 25 -156 26 -541 346 -777 644 -56 72 -144 180 -196 240 -76 90 -93
125 -94 190 -2 105 -112 354 -150 339 -15 -6 -40 5 -56 24 -18 22 -19 29 -3
20 16 -10 25 -4 25 16 0 17 -10 31 -23 31 -27 0 -245 232 -405 430 -140 174
-358 351 -301 245 7 -14 -8 -2 -34 26 -26 29 -80 69 -121 89 -60 31 -70 44
-55 73 45 83 23 127 -106 211 -250 163 -426 288 -487 344 -153 141 -214 148
-522 59 -136 -40 -148 -40 -225 -10 -45 18 -121 33 -170 33 -96 0 -116 22 -87
99 93 251 -369 566 -666 455z m130 -137 c-6 -11 -31 -27 -55 -36 -39 -15 -37
-18 27 -36 44 -12 79 -12 94 0 28 21 112 0 97 -24 -6 -9 2 -27 17 -40 20 -16
33 -16 41 -2 20 31 51 25 51 -9 0 -36 23 -39 56 -6 45 45 28 79 -33 69 -86
-13 -109 13 -43 50 50 30 61 30 99 3 71 -49 33 -198 -46 -179 -36 9 -33 3 16
-37 52 -42 61 -44 82 -16 27 38 76 -71 56 -125 -6 -16 -2 -29 10 -29 12 0 35
-30 53 -67 17 -37 58 -86 91 -110 56 -42 80 -103 41 -103 -35 0 -144 125 -134
153 6 15 3 27 -6 27 -10 0 -23 -13 -29 -30 -25 -66 -53 -25 -53 78 0 124 -28
159 -131 159 -52 0 -72 10 -82 41 -13 44 -87 131 -110 132 -8 0 -11 -32 -8
-71 4 -54 -1 -69 -22 -61 -20 8 -19 -1 5 -38 18 -28 40 -45 49 -40 9 6 22 1
29 -10 8 -14 25 -14 51 0 30 17 36 15 27 -8 -14 -36 48 -31 71 6 9 15 16 -8
16 -55 0 -48 -11 -85 -27 -91 -15 -6 -22 1 -16 16 6 15 -2 32 -18 38 -20 7
-26 -6 -23 -53 5 -68 -33 -142 -99 -196 -57 -46 -68 -27 -18 28 23 25 47 68
54 95 6 28 6 38 0 24 -9 -20 -18 -20 -40 -2 -23 19 -27 17 -17 -8 9 -23 1 -31
-27 -29 -35 3 -37 8 -13 44 15 23 27 46 27 51 0 6 5 26 13 44 7 21 0 48 -19
67 -18 17 -32 43 -32 58 0 20 -17 21 -79 4 -44 -11 -76 -25 -71 -29 12 -12
-32 -49 -104 -87 -61 -32 -61 -32 -48 16 7 27 34 60 60 73 27 13 75 57 107 97
67 83 60 137 -11 87 -52 -36 -82 -39 -62 -5 8 14 -4 8 -28 -13 -24 -20 -48
-54 -55 -75 -17 -55 -37 -46 -75 34 -39 80 2 164 105 219 59 31 208 37 189 7z
m-17 -395 c-6 -10 0 -23 14 -29 14 -5 7 -11 -16 -11 -22 -1 -60 -16 -85 -33
-24 -17 -44 -23 -44 -12 0 10 29 38 65 61 73 47 82 50 66 24z m13 -132 c-66
-57 -81 -49 -37 19 20 29 45 45 62 39 22 -9 17 -22 -25 -58z m1393 45 c20 -20
29 -19 44 5 15 24 18 22 19 -13 0 -24 6 -59 13 -78 10 -24 5 -32 -15 -24 -15
5 -43 2 -62 -8 -38 -19 -51 -5 -76 84 -19 65 26 85 77 34z m-929 -134 c-5 -4
18 -20 52 -34 33 -14 60 -35 60 -46 0 -30 -40 -26 -41 4 0 14 -9 10 -20 -10
-21 -35 5 -115 37 -115 45 1 102 27 92 43 -6 10 -19 12 -29 6 -11 -6 -19 -2
-19 10 0 11 4 21 8 21 5 0 23 5 40 12 26 10 32 -3 32 -70 0 -45 10 -82 21 -82
12 0 16 -8 10 -19 -6 -10 -3 -24 9 -31 11 -7 21 4 22 24 6 95 7 96 78 91 l70
-5 -47 40 c-26 22 -60 40 -75 40 -18 0 -28 22 -28 59 0 81 36 96 44 18 3 -35
18 -68 33 -73 21 -7 24 6 13 56 -10 45 -8 61 8 51 12 -7 22 -35 22 -61 0 -26
8 -53 19 -59 62 -38 -8 -180 -77 -156 -17 6 -22 1 -14 -12 8 -13 41 -23 73
-23 33 0 59 -9 59 -19 0 -11 -41 -14 -98 -8 -96 12 -97 11 -88 -39 11 -56 -58
-174 -101 -174 -33 0 -202 158 -231 215 -33 63 9 60 70 -5 52 -56 128 -67 128
-19 0 19 -10 26 -25 17 -20 -11 -20 -8 0 13 30 33 40 24 53 -50 11 -59 52
-120 52 -76 0 12 -10 29 -21 36 -14 8 -8 23 15 39 59 43 -49 131 -112 92 -30
-20 -100 10 -128 53 -9 14 -27 25 -40 26 -33 1 -114 70 -114 97 0 32 32 27
123 -19 44 -23 86 -37 92 -30 7 6 1 11 -13 11 -13 0 -19 8 -13 18 6 10 -18 28
-54 41 -47 16 -58 27 -38 39 21 13 19 23 -14 45 -38 27 -36 29 37 28 42 -1 73
-5 68 -10z m785 -379 c5 -28 -2 -42 -16 -38 -13 5 -26 29 -30 54 -5 28 2 42
16 38 13 -5 26 -29 30 -54z m90 24 c23 -29 23 -31 -3 -16 -25 15 -26 12 -5
-13 26 -32 15 -57 -26 -57 -33 0 -50 71 -23 98 27 27 24 28 57 -12z m812 -341
c14 -5 25 1 25 13 0 12 -11 23 -25 24 -15 1 -13 6 5 13 17 6 41 26 53 43 49
66 48 2 -1 -75 -35 -55 -43 -83 -26 -89 13 -4 2 -4 -26 0 -27 5 -63 23 -80 40
-27 28 -26 28 14 8 60 -30 76 -28 46 8 -14 17 -48 30 -76 30 l-51 0 49 52 48
51 10 -55 c6 -30 21 -58 35 -63z m147 -107 c50 -50 25 -95 -35 -61 -36 21 -36
22 1 22 37 1 37 2 2 41 -48 53 -22 52 32 -2z m90 7 c36 -48 34 -65 -7 -65 -30
1 -31 3 -5 20 26 17 25 19 -5 20 -19 0 -35 14 -35 30 0 40 20 38 52 -5z m97
-167 c-9 -15 0 -18 27 -9 38 12 39 9 18 -38 -29 -61 -54 -66 -54 -11 0 22 -11
40 -25 40 -17 1 -15 7 5 20 39 25 45 25 29 -2z m-2319 -194 c-11 -8 -21 -25
-22 -39 -4 -56 -10 -62 -53 -69 -25 -4 -43 -19 -40 -33 4 -14 -3 -20 -15 -13
-26 16 -18 128 9 124 12 -2 19 7 16 20 -3 15 8 20 28 12 27 -10 31 -3 19 42
l-14 55 46 -42 c27 -25 37 -49 26 -57z m2818 -248 c-6 -9 -21 -11 -34 -5 -13
7 -8 -1 11 -17 31 -25 32 -32 5 -54 -21 -17 -31 -18 -32 -2 -2 12 -5 33 -7 47
-5 37 4 48 37 48 17 0 26 -7 20 -17z m-3105 -70 c23 -29 23 -31 -1 -17 -20 12
-24 10 -13 -8 10 -15 -12 -49 -57 -90 -40 -37 -72 -55 -72 -40 0 15 9 32 19
38 11 7 14 28 8 47 -8 26 -6 28 9 7 14 -21 25 -13 46 35 33 73 27 70 61 28z
m3221 -26 c8 -52 3 -60 -37 -60 -29 0 -47 12 -47 31 0 17 9 26 20 19 11 -7 20
6 20 29 0 63 34 49 44 -19z m88 -150 c-38 -29 -38 -30 5 -68 31 -26 37 -41 19
-47 -14 -4 -37 14 -51 41 -33 64 -32 79 10 90 56 15 57 14 17 -16z m-3312 -9
c0 -10 -20 -21 -45 -25 -33 -4 -46 -20 -47 -59 -2 -60 -88 -186 -88 -129 0 52
58 179 94 207 39 29 86 33 86 6z m1110 -101 c7 -22 19 -40 27 -40 8 0 16 -31
17 -70 1 -38 -6 -65 -16 -59 -10 6 -18 2 -18 -10 0 -11 18 -21 41 -21 22 0 39
11 37 25 -7 44 25 93 54 82 35 -14 37 -87 3 -87 -17 -1 -15 -7 5 -20 25 -16
24 -19 -9 -20 -30 0 -34 -5 -15 -24 76 -76 24 -119 -59 -48 -45 38 -88 70 -95
69 -44 -6 -84 8 -114 38 -19 19 -38 32 -42 29 -4 -3 -22 3 -40 13 -41 23 62
83 142 83 54 0 85 30 52 50 -25 16 -26 50 -1 50 10 0 24 -18 31 -40z m-178
-249 c6 -16 23 -24 37 -19 14 6 52 -16 83 -47 32 -32 83 -64 113 -72 30 -8 55
-23 55 -33 0 -11 14 -20 30 -20 23 0 28 -13 18 -55 -18 -72 -12 -70 -94 -35
-40 16 -116 30 -169 30 -55 0 -128 16 -171 38 -41 21 -74 30 -74 20 0 -9 -13
-12 -29 -6 -32 13 -37 128 -5 128 11 0 50 -22 86 -50 99 -76 142 -62 53 17
-41 36 -91 72 -110 79 -69 25 -34 54 66 54 69 0 104 -9 111 -29z m-92 -294 c0
-19 -80 -36 -112 -23 -54 20 -28 46 42 41 38 -3 70 -11 70 -18z m160 1 c24
-17 19 -19 -20 -11 -45 10 -46 8 -15 -15 43 -33 28 -49 -34 -37 -42 8 -46 14
-25 47 27 43 51 47 94 16z m-1687 -189 c4 -71 -1 -90 -22 -82 -17 6 -24 -2
-19 -23 9 -40 -45 -118 -66 -96 -8 8 -6 20 5 28 27 19 33 64 9 64 -11 0 -21
-11 -22 -25 -1 -20 -3 -20 -11 0 -6 14 -24 25 -40 25 -49 0 -22 69 30 77 28 4
42 16 36 32 -7 18 2 23 26 17 45 -12 75 30 34 46 -17 6 -25 25 -19 41 20 52
53 -6 59 -104z m2026 71 c13 0 37 -13 53 -29 16 -16 45 -25 66 -21 28 5 35 -2
27 -32 -13 -51 -57 -48 -113 8 -25 25 -57 42 -72 37 -15 -5 -20 1 -12 14 8 13
5 23 -7 23 -11 0 -21 16 -20 35 0 33 2 33 27 0 14 -19 37 -35 51 -35z m-479
10 c-27 -33 -26 -33 88 -37 50 -2 82 -14 89 -33 8 -25 4 -26 -21 -4 -26 20
-33 20 -43 -5 -7 -20 0 -31 19 -31 17 0 50 -11 74 -24 24 -13 64 -27 89 -31
25 -3 105 -37 179 -75 73 -37 143 -63 155 -56 13 8 13 3 -1 -12 -18 -19 -40
-18 -100 8 -43 18 -100 38 -126 43 -27 5 -94 25 -150 44 -56 19 -119 31 -141
27 -29 -6 191 -99 245 -103 4 -1 0 -11 -8 -24 -9 -15 -5 -18 10 -8 14 8 40 2
58 -14 19 -17 48 -36 64 -43 29 -12 -85 -1 -174 16 -37 8 -43 0 -42 -49 2 -53
36 -89 36 -38 0 26 88 15 170 -20 l60 -26 -110 -52 c-140 -65 -183 -73 -166
-30 8 22 4 29 -16 23 -15 -6 -27 -25 -25 -43 1 -18 -5 -33 -15 -33 -10 0 -18
8 -18 18 0 9 -27 28 -60 42 -33 14 -60 38 -60 53 0 21 -11 18 -43 -12 -57 -52
-77 -36 -77 62 0 64 -8 83 -41 91 l-41 11 42 29 c22 16 35 37 29 47 -6 11 -2
19 10 19 11 0 21 15 21 32 0 23 -12 29 -41 22 -26 -7 -38 -2 -33 13 4 12 23
20 41 17 18 -3 33 4 33 16 0 12 -9 17 -20 10 -11 -7 -20 2 -20 19 0 17 7 30
15 29 65 -11 86 3 64 44 -12 23 -34 36 -50 30 -32 -12 -57 19 -39 48 7 11 35
20 64 20 43 0 47 -5 26 -30z m288 -42 c17 -45 16 -48 -26 -48 -34 0 -40 21
-24 75 6 18 40 0 50 -27z m208 -82 c96 -56 147 -105 132 -129 -12 -19 -88 4
-88 27 0 10 -9 13 -20 6 -11 -7 -26 1 -32 19 -7 17 -21 26 -31 19 -10 -6 -33
0 -50 14 -17 15 -44 28 -61 31 -43 6 -58 27 -19 27 18 0 33 9 33 20 0 33 37
23 136 -34z m443 7 c37 -2 71 -14 75 -26 5 -13 25 -18 45 -13 37 10 97 -64 73
-89 -7 -6 -12 -2 -12 10 0 11 -12 25 -26 31 -15 5 -25 -6 -25 -28 0 -35 16
-46 55 -41 8 2 10 -11 3 -27 -6 -16 -17 -28 -24 -26 -7 1 -29 -5 -48 -13 -35
-15 -30 -51 7 -51 11 0 15 9 8 20 -7 11 -3 20 9 20 11 0 21 -10 21 -21 0 -12
8 -16 18 -10 10 6 14 -7 8 -29 -6 -22 -21 -40 -34 -40 -12 0 -34 -19 -48 -41
-24 -38 -23 -40 14 -20 54 29 70 26 37 -6 -65 -66 -237 -125 -204 -71 10 16 3
16 -27 0 -45 -24 -77 1 -53 40 10 16 3 16 -27 0 -49 -26 -86 -29 -46 -4 25 16
25 23 0 49 -69 77 -77 96 -81 192 -2 56 -15 111 -29 123 -21 17 -21 30 -2 60
33 54 94 49 94 -7 0 -25 10 -58 21 -75 16 -23 20 -17 18 30 -6 108 -4 111 56
88 30 -12 86 -23 124 -25z m-303 -310 c-4 -18 4 -31 16 -29 12 2 23 -7 24 -20
2 -13 9 -52 16 -87 7 -40 3 -68 -13 -78 -16 -9 -20 -7 -12 7 8 11 5 27 -7 34
-11 7 -20 -6 -20 -29 0 -22 -11 -42 -25 -43 -19 -1 -19 -4 1 -12 15 -5 42 4
61 21 31 28 41 28 91 2 72 -37 90 -37 41 0 -22 17 -28 30 -15 30 13 1 29 -8
36 -19 20 -32 63 -23 143 30 49 34 79 44 88 29 9 -15 18 -12 26 9 6 18 21 32
33 32 12 0 6 -22 -12 -50 -18 -27 -25 -50 -15 -50 74 -2 -66 -39 -147 -40 -57
0 -110 -10 -118 -23 -10 -16 17 -19 97 -8 107 13 112 11 154 -48 l44 -61 -50
0 c-28 0 -73 9 -102 20 -29 11 -51 11 -51 1 0 -10 18 -24 40 -31 22 -7 35 -21
29 -31 -11 -18 16 -27 61 -21 11 1 -2 -16 -29 -39 -27 -23 -65 -37 -84 -32
-34 8 -34 7 -1 -37 19 -25 40 -42 47 -38 7 4 23 -5 35 -19 18 -22 12 -26 -31
-17 -34 6 -48 2 -40 -11 7 -12 -10 -41 -40 -63 -29 -23 -42 -42 -30 -42 13 0
38 18 57 39 18 21 40 35 49 29 20 -12 -23 -108 -49 -108 -10 0 -7 -14 7 -31
32 -39 41 -189 14 -224 -11 -13 -14 -39 -7 -57 11 -28 3 -31 -50 -21 -54 11
-59 9 -38 -17 22 -26 17 -39 -9 -25 -22 12 -67 -76 -49 -98 13 -15 8 -27 -14
-35 -55 -21 -99 4 -134 78 -33 70 -114 98 -144 50 -7 -11 -3 -20 9 -20 37 0
50 -4 86 -23 47 -25 45 -63 -3 -48 -28 9 -39 0 -47 -39 -11 -60 11 -81 44 -41
21 25 33 24 86 -6 91 -51 93 -83 5 -83 -44 0 -67 -8 -60 -20 7 -12 21 -15 31
-9 11 6 19 1 19 -11 0 -12 9 -17 20 -10 26 16 25 -2 -1 -51 -11 -22 -34 -39
-50 -39 -16 0 -29 -11 -29 -26 0 -31 -72 -95 -88 -79 -7 6 -12 0 -12 -14 0
-45 -114 -170 -193 -211 -42 -22 -89 -53 -103 -70 -14 -16 -6 10 18 60 49 101
137 203 162 188 9 -6 16 0 16 12 0 12 9 17 20 10 37 -23 62 10 39 51 -25 48
-46 49 -90 5 -43 -43 -89 -51 -89 -15 0 42 36 53 46 14 6 -22 10 -14 12 20 3
76 -35 69 -115 -20 -37 -41 -58 -57 -48 -35 11 22 15 52 10 66 -5 14 0 23 11
20 11 -3 20 3 20 14 0 11 -10 17 -22 14 -13 -4 -7 10 12 31 19 21 27 46 19 55
-8 9 -3 10 11 2 15 -9 21 -33 14 -59 -12 -42 -11 -42 19 -4 21 26 24 43 10 52
-15 9 -16 34 -2 81 11 37 20 51 21 31 2 -31 7 -33 31 -14 50 41 74 5 37 -55
l-34 -54 50 50 c37 37 45 57 30 77 -30 40 -37 108 -9 91 15 -9 18 -5 7 12 -13
21 -21 19 -41 -7 -22 -31 -25 -31 -34 5 -8 29 6 48 52 72 50 26 53 31 15 23
-36 -8 -42 -5 -25 12 13 13 23 38 23 56 0 34 71 39 119 10 11 -7 21 0 21 17 0
19 -11 26 -30 19 -30 -11 -43 22 -15 38 8 5 4 6 -9 3 -39 -10 -66 55 -41 101
15 28 14 41 -2 47 -27 9 -31 124 -5 124 10 0 23 -11 29 -25 5 -14 11 -7 11 16
1 23 11 50 21 60 11 11 12 31 3 46 -12 20 -20 13 -30 -25 -7 -29 -26 -52 -42
-52 -39 0 -38 18 3 63 22 24 25 37 9 37 -14 0 -23 16 -21 35 7 73 0 90 -36 74
-19 -8 -51 -14 -70 -13 -53 2 -61 -31 -13 -57 34 -18 47 -17 60 4 10 15 18 18
18 6 0 -38 -47 -69 -104 -69 -31 0 -56 -10 -56 -22 0 -12 13 -17 29 -11 17 6
35 3 40 -6 6 -9 28 -13 48 -8 32 9 37 -1 35 -71 -1 -45 -10 -82 -20 -82 -10 0
-13 -6 -6 -13 8 -7 3 -26 -10 -42 -15 -18 -16 -33 -3 -42 25 -16 51 -83 31
-80 -47 7 -67 -6 -56 -36 14 -36 -43 -113 -71 -95 -9 6 -17 -24 -18 -66 0 -73
-41 -158 -64 -134 -6 6 -17 1 -24 -11 -8 -12 -3 -20 11 -16 41 9 53 -89 19
-150 -33 -58 -115 -80 -94 -25 7 17 3 30 -8 30 -10 0 -19 -27 -19 -59 0 -45 8
-57 30 -48 44 17 3 -90 -61 -159 -28 -30 -46 -62 -41 -71 6 -10 -15 -58 -46
-107 -32 -50 -64 -112 -72 -138 -8 -26 -26 -75 -40 -108 -15 -33 -42 -103 -61
-155 -19 -52 -42 -95 -52 -95 -9 0 -17 -14 -17 -31 0 -17 9 -26 20 -19 11 7
20 3 20 -9 0 -31 -38 -26 -74 10 -39 39 -45 32 -32 -36 7 -37 27 -59 58 -67
46 -12 68 -48 30 -48 -10 0 -8 -27 4 -61 30 -77 2 -98 -129 -99 -90 0 -153 36
-122 70 8 9 4 10 -10 2 -92 -53 -140 -10 -65 58 25 22 40 27 40 12 0 -13 9
-19 20 -12 11 7 15 33 9 59 -9 34 -2 48 27 56 29 7 47 46 73 153 24 95 48 150
73 163 21 11 38 34 38 51 0 16 13 27 29 24 15 -3 27 0 25 8 -2 8 14 27 36 44
44 32 41 41 -25 61 -27 8 -45 5 -45 -8 0 -11 -12 -21 -27 -21 -16 0 -33 -27
-40 -60 -11 -57 -53 -86 -53 -37 0 14 -15 10 -37 -10 -35 -32 -36 -31 -25 34
12 66 111 173 160 173 13 0 31 22 42 49 11 31 43 57 84 68 51 15 56 20 20 21
-27 1 -52 20 -63 47 -10 25 -19 34 -20 21 -2 -37 -61 -7 -61 31 1 26 4 27 18
6 13 -21 19 -20 29 7 7 19 8 42 2 52 -6 10 -2 18 10 18 95 0 171 156 91 187
-41 16 -38 48 8 72 31 17 37 14 29 -14 -5 -22 9 -46 37 -63 25 -15 39 -20 31
-11 -8 8 -5 27 8 42 16 20 16 27 -1 27 -12 0 -22 9 -22 20 0 11 18 20 41 20
43 0 58 23 67 108 7 63 71 129 112 115 21 -7 19 1 -6 26 -33 32 -33 39 -5 70
17 19 30 47 29 63 -1 23 -3 23 -12 1 -9 -23 -14 -23 -30 0 -14 20 -17 15 -10
-18 6 -25 2 -45 -8 -45 -10 0 -18 9 -18 21 0 14 -12 14 -39 0 -52 -28 -61 -27
-61 11 0 17 18 36 39 42 36 9 37 14 8 57 -17 26 -25 57 -17 69 7 11 6 20 -4
18 -40 -7 -49 4 -26 32 23 28 21 33 -13 28 -37 -5 -40 53 -4 85 44 38 65 137
29 137 -12 0 5 22 38 49 l60 50 -50 1 c-38 0 -43 5 -21 19 16 10 34 15 41 11
7 -4 24 12 39 35 26 43 26 43 -26 9 -60 -40 -81 -43 -61 -11 8 14 5 18 -7 10
-11 -7 -42 5 -68 26 -26 22 -38 40 -26 40 12 1 30 -8 42 -20 14 -14 29 -10 49
14 18 22 19 29 3 20 -15 -10 -25 -4 -25 14 0 15 -14 54 -32 86 l-31 57 10 -60
11 -60 -27 60 c-35 78 -3 161 40 102 16 -22 30 -27 38 -13 9 14 24 11 45 -10
26 -26 35 -27 49 -5 13 21 16 21 17 0 0 -15 7 -22 16 -16 9 5 26 -7 39 -27 20
-32 17 -35 -21 -26 -58 14 -21 -25 42 -44 30 -10 43 -6 40 10 -4 13 14 26 39
28 25 2 45 -3 45 -12 0 -10 -16 -17 -35 -17 -29 -1 -30 -4 -6 -19 16 -10 39
-12 50 -5 12 7 39 16 60 19 22 3 45 16 52 27 8 12 18 3 24 -20 6 -23 3 -42 -7
-42 -10 0 -18 -18 -18 -40 0 -22 -7 -40 -17 -40 -9 0 -16 -13 -16 -28 0 -16
12 -24 28 -17 19 7 26 -2 22 -27 -5 -27 6 -38 41 -40 27 -2 61 -19 75 -39 25
-34 27 -34 27 -2 0 23 9 30 25 21 14 -8 0 9 -30 38 -30 29 -55 68 -55 88 1 31
4 31 20 6 17 -26 19 -25 20 5 0 31 -36 46 -88 36 -10 -2 -8 9 4 25 13 15 17
35 9 44 -8 8 5 5 29 -8 24 -12 53 -38 65 -57 26 -46 26 -22 0 46 -11 30 -25
49 -32 43 -6 -6 -31 7 -54 30 -30 28 -35 44 -18 50 14 5 25 22 25 37 0 18 12
23 33 15 27 -10 31 -3 20 40 -10 38 -4 57 22 72 32 19 32 21 1 21 -18 1 -40
11 -48 24 -10 16 2 19 41 9 40 -10 50 -7 40 10 -10 16 -7 19 8 10 13 -8 22
-30 19 -49z m-596 -1214 c0 -6 -29 -38 -65 -71 -36 -33 -51 -55 -33 -48 20 7
31 1 31 -19 0 -38 -14 -39 -62 -4 -44 32 -28 104 19 86 17 -7 38 5 50 28 20
36 60 55 60 28z m126 -718 c15 6 25 -13 26 -51 1 -34 7 -66 13 -72 20 -19 176
-26 164 -7 -10 17 17 28 56 21 8 -1 15 8 15 19 0 12 11 16 25 9 14 -7 8 1 -14
18 -21 18 -34 34 -30 37 5 4 25 19 45 34 20 15 35 19 33 9 -8 -42 3 -51 31
-28 26 22 29 20 18 -7 -7 -18 -20 -33 -30 -33 -10 0 -18 -10 -18 -23 0 -25
-76 -97 -103 -97 -10 0 -6 -18 7 -39 22 -34 27 -36 42 -9 13 23 23 25 45 7 16
-13 24 -32 18 -41 -6 -10 -2 -18 10 -18 11 0 21 -13 21 -30 0 -16 -9 -30 -20
-30 -11 0 -20 9 -20 19 0 11 -12 15 -28 9 -28 -11 -117 30 -222 104 -101 70
-118 77 -107 46 10 -28 -37 -84 -80 -93 -35 -8 -28 17 22 72 l45 49 -66 -47
c-36 -26 -61 -57 -57 -70 11 -26 -65 -78 -84 -58 -7 8 -2 19 12 23 14 5 20 18
14 28 -6 10 -1 18 11 18 12 0 16 10 8 23 -9 15 -5 18 12 7 19 -12 23 -8 15 15
-7 18 0 36 16 43 16 6 28 18 27 26 -7 40 5 68 47 106 24 23 47 33 51 22 4 -11
17 -16 30 -11z m50 -336 c18 -22 9 -25 -47 -19 -63 8 -88 38 -56 70 15 15 71
-13 103 -51z m237 -101 c14 -14 -46 -45 -138 -70 -105 -29 -158 67 -56 99 32
11 176 -11 194 -29z m20 -110 c8 -52 7 -52 -62 -16 -50 26 -52 30 -18 49 50
29 72 20 80 -33z m-22 -99 c8 -19 13 -46 11 -60 -2 -14 9 -25 25 -25 20 0 26
-14 18 -43 -8 -32 -4 -39 14 -28 24 15 60 -18 61 -54 0 -28 -135 -15 -160 15
-21 25 -19 30 11 30 31 0 30 6 -12 51 -38 41 -42 55 -21 68 16 9 22 31 16 49
-17 44 18 41 37 -3z m-851 -366 c202 -72 273 -126 155 -116 -44 3 -84 -5 -100
-21 -21 -23 -18 -26 18 -17 32 8 46 0 54 -29 6 -22 5 -35 0 -29 -26 25 -62
-39 -46 -81 11 -29 9 -47 -7 -53 -13 -5 1 -11 31 -11 30 -1 55 -13 55 -25 0
-13 -6 -18 -13 -11 -7 7 -27 -3 -45 -22 -55 -61 -122 -36 -81 30 20 33 16 47
-29 95 -63 68 -64 83 -12 97 22 6 40 19 40 30 0 14 -19 13 -56 -1 -66 -25
-170 -5 -159 31 5 13 59 28 127 34 l118 10 -102 44 c-224 98 -186 130 52 45z
m232 -460 c42 -16 49 -26 31 -44 -18 -18 -34 -13 -68 21 -49 49 -42 53 37 23z
m-92 -90 c0 -16 -18 -29 -40 -29 -30 0 -39 12 -36 48 5 55 76 37 76 -19z"/>
<path d="M2115 3786 c-52 -13 -42 -41 15 -41 29 0 50 12 50 28 0 28 -5 29 -65
13z"/>
<path d="M2201 3355 c15 -51 12 -56 -22 -45 -23 8 -52 0 -70 -19 -29 -28 -29
-31 0 -31 29 0 29 -5 -1 -51 -18 -27 -38 -45 -44 -40 -25 26 -85 -111 -63
-145 17 -26 20 -27 13 -3 -5 17 3 53 17 80 15 27 28 40 28 30 1 -11 28 10 61
46 33 36 55 74 49 84 -6 10 2 13 18 7 16 -6 57 3 91 21 70 36 77 48 27 44 -24
-2 -35 11 -33 41 1 34 -9 44 -43 41 -38 -3 -42 -10 -28 -60z"/>
<path d="M2593 3230 c6 -16 19 -30 29 -30 10 0 18 -13 18 -29 0 -16 18 -39 40
-51 27 -15 40 -15 40 -1 0 12 -8 21 -19 21 -10 0 -35 27 -54 60 -37 62 -75 83
-54 30z"/>
<path d="M2150 3120 c-7 -11 -29 -20 -49 -20 -67 0 -83 -47 -30 -93 48 -43 69
-41 69 6 0 15 -18 27 -40 27 -22 0 -40 9 -40 21 0 11 11 19 25 16 37 -7 115
23 115 44 0 25 -34 24 -50 -1z"/>
<path d="M2570 2980 c-7 -44 -22 -75 -32 -69 -10 6 -18 2 -18 -10 0 -11 7 -21
15 -21 8 0 17 -33 20 -74 5 -68 30 -105 71 -106 20 0 -4 85 -28 101 -9 5 -8
22 1 37 11 18 20 20 30 4 46 -75 79 20 35 102 -62 118 -79 124 -94 36z"/>
<path d="M2740 2729 c13 -34 12 -49 -4 -49 -12 0 -17 -6 -10 -12 6 -7 36 6 65
29 56 44 57 42 -40 72 -23 7 -26 -1 -11 -40z"/>
<path d="M2037 2406 c-18 -23 -19 -29 -2 -19 16 10 25 4 25 -17 0 -18 -8 -27
-19 -21 -10 6 -24 3 -31 -9 -21 -34 43 -22 73 13 21 26 22 35 2 42 -14 5 -20
17 -14 27 19 31 -5 20 -34 -16z"/>
<path d="M2460 2325 c-42 -94 -27 -145 42 -145 25 0 7 62 -23 81 -23 15 -21
19 11 20 22 1 29 7 16 12 -18 7 -13 22 15 52 46 50 50 75 10 75 -16 0 -48 -43
-71 -95z"/>
<path d="M1886 2096 c8 -23 -5 -48 -37 -73 -68 -54 -62 -75 8 -25 32 22 64 34
73 26 8 -8 4 9 -10 36 -31 62 -51 82 -34 36z"/>
<path d="M1605 1136 c-58 -28 -58 -56 1 -56 31 0 46 13 49 40 1 22 1 39 -1 39
-2 -1 -24 -11 -49 -23z"/>
<path d="M2200 6625 c0 -12 10 -29 21 -36 12 -7 16 -37 9 -68 -8 -39 -3 -59
17 -67 22 -9 27 5 22 61 -6 65 -69 166 -69 110z"/>
<path d="M2400 6200 c0 -11 8 -20 19 -20 22 0 51 -78 44 -117 -3 -15 3 -21 14
-15 11 7 31 -3 43 -23 21 -32 22 -31 9 5 -8 22 -16 54 -18 70 -1 17 -11 32
-21 34 -10 1 -25 22 -33 45 -16 42 -57 57 -57 21z"/>
<path d="M2395 6072 c8 -43 2 -52 -33 -52 -29 0 -42 -13 -42 -41 0 -23 9 -36
20 -29 11 7 15 0 9 -15 -6 -16 6 -28 31 -29 22 -2 36 5 29 15 -6 11 -3 19 8
19 11 0 25 -11 31 -25 6 -14 6 16 0 65 -6 50 -23 102 -37 117 -22 22 -24 18
-16 -25z"/>
<path d="M2680 6051 c0 -36 8 -47 30 -38 20 7 31 -1 32 -26 0 -20 5 -27 10
-15 13 31 -27 128 -52 128 -11 0 -20 -22 -20 -49z"/>
<path d="M2280 5923 c0 -18 73 -87 120 -114 17 -9 3 16 -30 56 -59 71 -90 91
-90 58z"/>
<path d="M2580 5882 c0 -47 8 -59 39 -57 60 5 65 48 10 84 -48 31 -49 31 -49
-27z"/>
<path d="M2725 5900 c10 -33 -78 -127 -105 -110 -9 5 -12 -8 -6 -30 6 -22 24
-40 41 -40 23 0 25 6 7 28 -25 30 8 52 78 52 60 0 69 40 20 87 -29 28 -41 32
-35 13z"/>
<path d="M2965 5847 c-46 -33 -59 -76 -27 -96 10 -6 13 8 7 32 -9 35 -5 41 22
31 21 -8 33 -3 33 15 0 15 11 32 25 38 14 5 16 10 5 10 -11 1 -40 -13 -65 -30z"/>
<path d="M2462 5735 c16 -56 14 -57 -46 -44 -48 10 -58 8 -45 -14 13 -21 10
-22 -12 -6 -33 25 -58 25 -94 3 -14 -9 -36 -10 -50 -1 -20 12 -20 8 0 -16 13
-17 19 -36 12 -43 -7 -7 3 -19 22 -26 19 -8 41 -5 48 6 8 13 54 15 123 5 113
-15 242 53 177 93 -13 8 -33 1 -45 -14 -12 -15 -40 -30 -62 -33 -40 -6 -40 -6
0 17 58 34 58 34 31 67 -13 16 -19 38 -12 49 6 11 -5 18 -26 17 -32 -3 -35
-12 -21 -60z"/>
<path d="M2131 5681 c-19 -21 -28 -49 -20 -63 10 -16 24 -6 44 31 35 68 23 84
-24 32z"/>
<path d="M2694 5607 c-19 -18 36 -64 94 -78 42 -11 50 -7 40 18 -6 18 -18 30
-25 28 -7 -2 -32 7 -55 20 -24 13 -48 18 -54 12z"/>
<path d="M2240 5434 c0 -14 11 -38 25 -53 20 -21 20 -24 0 -13 -15 9 -25 3
-25 -15 0 -16 15 -35 34 -42 19 -7 28 -7 21 1 -8 8 -5 25 6 39 14 17 11 34
-10 55 -23 23 -25 33 -6 41 15 6 11 10 -10 11 -19 1 -35 -10 -35 -24z"/>
<path d="M2400 5320 c-39 -24 -39 -62 -1 -100 17 -16 31 -43 31 -60 0 -16 11
-28 25 -25 14 3 25 -7 25 -22 0 -15 18 -48 40 -73 22 -25 40 -58 40 -72 0 -14
16 -35 35 -46 27 -15 30 -25 11 -43 -18 -19 -35 -11 -75 31 -28 31 -51 48 -50
38 1 -27 62 -93 119 -130 39 -25 51 -52 56 -119 6 -89 -25 -133 -68 -97 -36
29 -48 -27 -16 -72 16 -21 28 -28 28 -17 0 22 93 20 115 -1 6 -7 26 -1 43 13
18 13 25 16 17 6 -8 -9 -5 -29 8 -44 16 -20 16 -27 -2 -27 -13 0 -18 -9 -12
-19 7 -11 26 -14 43 -8 26 10 25 17 -4 49 -20 23 -25 38 -11 38 13 0 23 9 23
20 0 11 -20 20 -45 19 -94 0 -117 7 -96 28 29 29 26 153 -5 213 -35 68 -21
126 27 114 32 -9 35 -4 18 28 -11 21 -30 38 -42 38 -12 0 -16 15 -8 34 7 19 7
28 -1 21 -8 -8 -26 -5 -39 6 -16 13 -30 14 -37 2 -7 -11 11 -38 38 -60 28 -22
43 -45 32 -52 -11 -6 -36 12 -56 40 -20 29 -52 70 -71 91 -37 40 -47 68 -18
50 9 -6 16 1 16 16 0 15 -19 24 -46 21 -43 -5 -52 25 -26 91 2 6 3 17 1 25 -1
8 12 15 29 15 17 0 26 9 20 19 -7 11 -27 14 -45 7 -22 -9 -28 -5 -18 11 17 28
-7 30 -48 3z"/>
<path d="M2804 4818 c5 -16 -4 -38 -20 -50 -24 -18 -25 -25 -4 -38 17 -11 21
-8 12 7 -9 15 1 23 29 23 26 0 47 -16 53 -40 6 -22 19 -40 28 -40 10 0 17 -7
16 -15 -8 -46 6 -78 32 -78 17 0 30 17 30 41 -1 31 -5 35 -18 15 -12 -19 -21
-21 -31 -5 -8 13 8 30 38 42 28 10 51 24 51 31 0 6 -9 6 -21 -2 -23 -14 -98
30 -163 95 -22 22 -37 29 -32 14z"/>
<path d="M3057 4766 c13 -24 23 -75 23 -115 0 -112 32 -83 38 34 2 57 -2 98
-10 90 -8 -8 -28 -3 -44 10 -27 22 -27 19 -7 -19z"/>
<path d="M3006 4267 c8 -7 -2 -25 -21 -39 -32 -24 -30 -27 18 -27 44 -1 51 6
43 39 -6 22 -20 40 -32 40 -11 0 -15 -6 -8 -13z"/>
</g>
</svg>
