<?xml version="1.0" standalone="no"?>
<!DOCTYPE svg PUBLIC "-//W3C//DTD SVG 20010904//EN"
 "http://www.w3.org/TR/2001/REC-SVG-20010904/DTD/svg10.dtd">
<svg version="1.0" xmlns="http://www.w3.org/2000/svg"
 width="300.000000pt" height="369.000000pt" viewBox="0 0 300.000000 369.000000"
 preserveAspectRatio="xMidYMid meet">
<metadata>
Created by potrace 1.10, written by Peter Selinger 2001-2011
</metadata>
<g transform="translate(0.000000,369.000000) scale(0.050000,-0.050000)"
fill="#000000" stroke="none">
<path d="M2054 7321 c-49 -82 -257 -341 -274 -341 -8 0 -13 41 -11 90 5 105 5
105 -83 38 -64 -48 -119 -122 -207 -280 -22 -39 -84 -129 -139 -200 -114 -148
-115 -153 -58 -210 51 -51 23 -148 -97 -336 -63 -100 -70 -127 -87 -330 -32
-398 -71 -487 -82 -185 -10 274 -57 181 -54 -107 1 -108 -7 -212 -18 -233 -10
-20 -23 -105 -28 -187 -8 -131 -22 -174 -102 -327 -76 -146 -89 -185 -73 -226
10 -27 19 -98 19 -158 0 -244 203 -195 251 61 16 84 56 66 102 -45 28 -66 131
-135 176 -118 58 22 54 112 -8 205 -92 136 -69 157 65 60 106 -78 171 50 67
133 -55 44 -74 44 -68 0 7 -49 -34 -56 -41 -7 -5 27 -17 36 -38 28 -26 -10
-30 -3 -19 36 7 26 13 55 13 63 0 36 40 11 40 -25 0 -22 7 -40 16 -40 8 0 12
36 7 80 -7 77 -5 80 50 80 68 0 147 -49 147 -91 0 -16 9 -29 20 -29 11 0 20
-36 20 -80 0 -139 90 -199 156 -105 109 153 109 312 -1 463 -43 59 -45 109 -4
143 20 16 27 44 20 77 -12 54 50 182 88 182 38 0 42 -43 23 -233 -21 -206 -16
-243 30 -205 47 39 65 -12 41 -115 -17 -68 180 -371 209 -324 25 40 36 -16 27
-133 -8 -111 41 -262 110 -336 40 -43 214 -34 213 11 -2 33 12 47 58 56 35 6
58 22 54 37 -4 20 12 23 63 14 47 -9 78 -4 97 15 16 16 46 33 67 38 33 7 30
11 -16 24 -71 20 -81 111 -11 111 34 0 39 5 20 24 -28 28 -31 75 -6 114 19 29
25 26 123 -63 39 -35 42 -34 47 7 3 33 75 78 125 78 39 0 44 -6 29 -45 -16
-43 -13 -45 78 -43 116 2 113 -14 -21 -120 -55 -44 -160 -137 -234 -207 -128
-122 -387 -273 -450 -263 -14 3 -50 -6 -81 -19 -31 -13 -85 -23 -120 -22 l-64
1 55 29 c68 38 70 76 5 105 -39 18 -50 18 -50 -1 -1 -18 -5 -18 -17 2 -13 19
-28 7 -59 -45 -24 -40 -52 -72 -63 -72 -27 0 -3 61 45 115 23 25 36 50 29 56
-6 7 -21 0 -33 -15 -90 -109 -123 -157 -140 -202 -11 -28 -39 -62 -62 -74
l-43 -23 40 77 c140 266 150 380 46 532 l-62 90 44 29 c42 28 42 31 9 64 -34
34 -37 33 -58 -23 -18 -49 -31 -57 -77 -50 -104 15 -130 -21 -63 -88 120 -119
150 -132 140 -63 -3 26 -31 57 -66 74 -48 24 -53 31 -24 37 51 10 104 -43 130
-131 40 -141 22 -188 -132 -343 -150 -149 -172 -162 -192 -110 -49 128 76 356
158 288 30 -25 75 20 54 52 -41 63 -109 45 -217 -56 l-107 -102 12 63 c21 102
-24 75 -116 -68 -115 -179 -265 -243 -266 -113 0 25 -17 34 -63 34 -34 0 -79
15 -100 33 -91 80 -315 218 -344 213 -56 -11 -46 -64 22 -111 36 -24 86 -60
113 -79 47 -34 47 -34 32 15 l-15 49 48 -41 c26 -22 156 -142 290 -265 271
-250 326 -285 159 -101 l-112 124 55 34 c30 18 59 30 64 25 6 -4 -3 -16 -19
-26 -28 -17 19 -77 62 -79 23 -2 166 -122 338 -284 296 -280 338 -317 359
-317 12 0 21 -10 21 -23 0 -12 50 -84 110 -159 162 -200 183 -342 26 -173 -43
47 -73 74 -66 60 7 -14 2 -25 -10 -25 -12 0 -17 -9 -10 -20 7 -12 23 -15 36
-7 13 7 18 6 10 -2 -8 -9 20 -62 62 -118 114 -156 242 -376 242 -417 0 -21 37
-102 83 -182 195 -338 242 -425 243 -449 0 -14 9 -25 19 -25 9 0 11 -10 3 -23
-8 -13 1 -34 20 -48 19 -14 34 -31 33 -37 -4 -40 2 -52 30 -52 25 0 26 -8 8
-42 -14 -26 -15 -38 -2 -30 24 15 38 -4 50 -71 14 -78 107 -251 142 -264 17
-6 31 -26 31 -43 0 -17 42 -103 93 -192 52 -88 95 -176 97 -194 1 -19 19 -68
38 -109 36 -74 32 -175 -7 -175 -31 0 -46 80 -20 111 15 19 16 29 3 29 -12 0
-28 -10 -35 -21 -15 -25 -67 35 -68 78 -1 24 4 24 32 0 31 -24 33 -22 21 23
-8 28 -14 64 -15 80 -1 17 -10 10 -20 -16 -16 -39 -25 -42 -59 -24 -23 12 -36
30 -31 39 6 9 -3 28 -19 41 -33 28 -42 69 -10 50 11 -7 20 -3 20 9 0 11 -12
21 -27 21 -29 0 -173 172 -173 205 0 11 -13 14 -29 8 -17 -6 -46 9 -68 38 -21
27 -49 49 -61 49 -13 0 -29 28 -35 62 -7 34 -25 66 -40 72 -15 6 -27 23 -27
38 0 15 -10 28 -21 28 -12 0 -19 20 -15 45 6 45 -45 115 -84 115 -11 0 -20 14
-20 30 0 67 87 9 138 -93 15 -30 39 -49 53 -44 14 5 31 0 38 -11 8 -13 1 -17
-18 -10 -48 19 -37 -19 39 -129 38 -56 70 -111 70 -123 0 -11 9 -20 20 -20 11
0 20 8 20 19 0 10 -9 24 -20 31 -11 7 -20 26 -20 42 0 17 9 25 20 18 11 -7 14
2 7 21 -7 18 -2 40 11 48 16 10 11 29 -19 68 -23 29 -51 48 -62 41 -11 -7 -18
0 -15 15 8 45 -76 210 -122 243 -25 17 -39 39 -33 50 7 10 -6 35 -27 54 -22
20 -40 45 -40 55 0 42 -289 412 -304 389 -8 -13 -6 -27 5 -31 10 -3 19 -19 19
-35 0 -15 8 -28 17 -28 21 0 283 -368 283 -398 0 -12 -9 -22 -20 -22 -11 0
-20 9 -20 20 0 11 -16 36 -35 56 -19 20 -52 70 -73 110 -23 45 -53 74 -76 74
-20 0 -45 20 -55 45 -10 25 -41 81 -68 125 -37 58 -44 87 -29 105 17 20 14 23
-11 13 -23 -8 -33 -2 -33 21 0 18 -8 28 -18 22 -10 -6 -14 6 -9 26 6 23 -2 42
-21 50 -18 6 -32 22 -32 34 0 12 -11 34 -25 49 -14 15 -47 59 -75 98 -43 61
-100 96 -100 61 0 -26 48 -102 96 -154 28 -30 52 -75 54 -100 2 -25 11 -61 19
-80 31 -72 -21 -32 -78 60 -33 52 -104 142 -158 200 -54 58 -87 105 -73 105
46 0 -297 379 -369 407 -17 6 -31 33 -31 59 0 26 -18 64 -40 84 -75 68 -40 73
45 7 l84 -67 -59 76 c-41 52 -72 73 -97 66 -24 -6 -68 19 -124 71 -228 210
-70 -107 202 -404 45 -49 186 -230 313 -402 246 -332 294 -393 381 -483 30
-31 55 -65 55 -76 0 -10 8 -18 18 -18 10 0 39 -34 65 -75 25 -41 73 -112 106
-157 34 -45 88 -119 121 -164 42 -58 70 -79 95 -72 37 11 50 -24 14 -36 -27
-9 27 -117 84 -168 23 -21 73 -104 111 -186 72 -154 136 -245 286 -402 320
-335 303 -320 334 -289 41 41 77 36 112 -17 38 -59 -25 -117 -79 -72 -25 22
-26 18 -5 -29 13 -29 39 -53 57 -53 18 0 44 -11 58 -25 19 -19 27 -15 36 20
14 56 39 57 72 5 18 -30 46 -40 112 -40 95 0 92 43 -3 67 -27 7 -80 66 -134
151 -49 76 -94 136 -101 132 -6 -4 -21 8 -33 28 -23 36 17 47 66 17 13 -8 18
9 12 49 -10 68 6 66 91 -10 52 -47 58 -74 15 -74 -34 0 -40 -31 -11 -49 11 -7
14 -27 7 -45 -10 -25 -5 -30 21 -20 18 7 33 4 33 -7 0 -10 19 -19 41 -19 101
0 260 -100 246 -154 -9 -37 -6 -48 10 -38 13 8 23 5 23 -7 0 -11 14 -21 30
-21 35 0 40 33 7 44 -13 5 -26 26 -30 47 -33 230 -33 229 0 229 18 0 34 -16
36 -35 2 -19 5 -44 8 -55 2 -11 6 -29 9 -40 3 -11 3 -28 2 -37 -2 -10 7 -30
20 -45 12 -15 17 -43 10 -63 -11 -33 -11 -33 15 0 15 19 42 35 59 35 41 0 61
33 32 51 -16 10 -14 19 5 31 23 15 22 21 -2 36 -40 26 -47 101 -11 115 50 19
34 49 -19 35 -29 -7 -76 1 -113 20 -35 18 -80 32 -99 32 -20 0 -40 11 -44 25
-5 14 -16 -5 -24 -41 -10 -47 -5 -80 18 -115 46 -70 2 -61 -49 11 -23 33 -60
60 -81 60 -37 0 -88 65 -67 86 14 13 -29 98 -60 119 -15 11 -11 24 13 42 31
24 32 38 10 130 -27 113 -55 136 -55 46 0 -52 -6 -57 -59 -51 -47 6 -60 -2
-67 -38 -6 -33 -9 -28 -11 18 -2 45 -17 68 -53 84 -27 13 -50 31 -50 40 0 10
23 29 50 44 52 28 69 100 25 101 -26 0 41 59 67 59 24 0 32 -65 15 -126 -11
-41 -8 -54 9 -49 39 13 43 283 5 314 -27 23 -31 16 -31 -48 0 -44 -8 -68 -20
-61 -11 7 -20 43 -20 80 0 37 -8 73 -18 79 -10 6 -13 47 -7 91 9 71 6 79 -25
67 -27 -10 -32 -5 -23 25 7 21 -1 64 -18 96 -31 60 -27 86 10 63 11 -7 22 -33
23 -57 1 -24 14 28 28 116 14 88 40 199 58 248 18 48 32 90 32 93 0 3 -29 -22
-65 -55 l-64 -61 -12 48 c-13 51 43 170 77 163 11 -3 25 8 31 25 7 16 3 29 -7
29 -24 0 -3 59 38 107 17 20 32 52 32 70 0 18 10 33 21 33 12 0 104 77 206
170 210 192 351 291 549 384 170 80 210 145 227 372 16 202 -106 444 -224 444
-16 0 -29 8 -29 18 0 29 59 43 117 29 49 -13 51 -11 24 22 -142 171 -667 -214
-742 -544 -16 -70 13 -112 34 -51 57 160 252 359 367 375 101 15 181 -70 113
-119 -22 -17 -23 -25 -2 -44 98 -92 -66 -601 -173 -535 -8 5 -21 1 -28 -11 -7
-11 -30 -20 -52 -20 -38 0 -37 4 12 68 93 122 192 396 153 425 -28 21 -35 16
-46 -35 -13 -62 -84 -178 -161 -265 -25 -29 -68 -84 -96 -122 -44 -61 -61 -70
-135 -70 -55 -1 -83 -9 -80 -25 5 -25 -198 -174 -239 -175 -120 -3 27 515 222
787 114 157 498 537 657 649 21 15 79 83 128 149 91 124 160 187 181 167 18
-19 -36 -89 -242 -312 -105 -115 -192 -222 -192 -237 0 -43 106 42 225 181 58
67 141 163 186 214 144 162 189 223 189 256 0 27 -8 25 -45 -9 -25 -22 -55
-37 -68 -32 -13 4 -29 -1 -36 -13 -8 -12 -23 -21 -35 -21 -13 0 -12 11 4 30
14 17 20 30 14 30 -6 0 -197 -187 -425 -415 -228 -228 -372 -367 -322 -308 51
59 93 118 93 131 0 25 136 176 230 253 121 101 118 124 -6 47 -147 -91 -864
-787 -864 -839 0 -6 -29 -58 -65 -115 -230 -365 -290 -615 -203 -850 39 -104
206 -367 241 -378 32 -11 72 109 41 120 -17 6 -10 35 22 92 25 45 37 82 28 82
-10 0 -34 -35 -53 -78 -34 -74 -91 -95 -91 -34 0 13 -11 35 -25 49 -13 13 -25
35 -25 49 -1 13 -18 93 -39 177 -36 148 -28 303 9 173 9 -29 35 -74 59 -100
l44 -46 -14 60 c-8 33 -24 72 -35 86 -14 18 -13 33 3 49 13 13 23 46 23 74 0
68 33 184 65 227 21 29 24 8 19 -124 -7 -169 10 -224 111 -359 l50 -67 75 82
c42 45 89 82 105 82 16 0 45 18 65 40 43 48 70 51 70 9 0 -20 9 -26 25 -16 15
9 12 -4 -7 -33 -17 -26 -62 -58 -99 -70 -50 -17 -87 -53 -135 -132 -87 -141
-244 -457 -244 -492 0 -15 -13 -32 -30 -39 -16 -6 -30 -24 -30 -39 0 -15 -9
-28 -20 -28 -25 0 -25 13 1 62 18 34 7 55 -78 144 -55 57 -124 131 -153 164
-63 73 -56 13 12 -107 41 -71 30 -134 -13 -75 -22 30 -25 31 -37 0 -8 -20 9
-57 46 -99 36 -41 55 -81 49 -104 -7 -26 6 -44 42 -61 74 -34 82 -75 25 -132
-53 -53 -114 -26 -114 51 0 36 -39 77 -74 77 -38 0 -32 -34 14 -80 25 -25 40
-67 40 -111 0 -43 8 -66 20 -59 11 7 20 -1 20 -18 0 -58 -37 -51 -75 15 -22
36 -57 86 -77 110 -21 25 -39 51 -39 59 -4 49 -37 158 -54 179 -11 14 -15 31
-9 38 14 14 -39 123 -124 257 -32 50 -64 124 -72 165 -7 40 -25 96 -39 124
-31 62 -57 247 -33 232 10 -6 28 -69 42 -141 13 -71 32 -130 40 -130 25 0 41
91 28 157 -17 82 13 353 31 284 11 -43 15 -37 34 44 15 66 15 96 0 101 -14 4
-9 38 13 96 19 49 34 109 34 132 0 24 10 50 21 57 12 7 17 26 11 42 -7 16 -3
24 8 17 11 -7 20 -3 20 8 0 49 -39 35 -94 -34 -89 -111 -114 -164 -88 -190 28
-28 29 -154 2 -154 -11 0 -20 34 -21 75 0 70 -2 73 -30 36 -16 -21 -29 -65
-29 -97 0 -42 -8 -55 -29 -47 -22 8 -34 -23 -53 -139 -28 -175 -38 -179 -41
-12 -1 96 11 148 61 253 62 132 79 187 41 131 -17 -25 -20 -23 -14 10 4 22 18
38 32 35 13 -3 32 15 41 40 10 25 38 63 63 85 29 25 40 29 31 10 -8 -16 8 -3
37 30 87 100 95 112 86 122 -5 5 -21 -5 -35 -22 -14 -16 -33 -30 -43 -30 -11
0 -41 -24 -68 -53 -27 -29 -49 -46 -49 -37 0 9 -16 1 -37 -17 -20 -18 -43 -27
-51 -19 -8 8 -8 -1 -1 -20 7 -19 4 -34 -7 -34 -26 0 -10 123 23 175 55 89 -60
1 -138 -105 -102 -140 -229 -210 -229 -127 0 30 81 183 120 227 165 185 400
380 505 418 101 36 219 104 285 163 215 192 470 360 470 309 0 -11 -19 -20
-42 -20 -36 0 -40 -8 -30 -55 10 -41 8 -47 -7 -25 -23 33 -70 -10 -49 -44 6
-8 -2 -11 -16 -5 -15 5 -121 -59 -236 -144 -115 -84 -259 -174 -320 -199 -62
-25 -147 -78 -191 -119 -71 -67 -64 -79 11 -19 17 14 57 31 90 39 62 14 178
87 425 266 80 58 136 90 124 70 -12 -19 -70 -69 -127 -111 -58 -42 -163 -130
-233 -197 -101 -95 -109 -106 -36 -49 52 40 103 72 115 72 47 0 384 250 549
407 96 93 170 155 164 139 -6 -17 -1 -26 13 -21 20 6 31 22 70 92 2 4 18 -6
35 -23 35 -35 41 -74 11 -74 -11 0 -45 -27 -77 -60 -32 -33 -66 -60 -76 -60
-10 0 -72 -45 -137 -100 -66 -56 -223 -185 -350 -288 -314 -255 -400 -347
-397 -422 1 -33 -13 -114 -33 -180 -19 -66 -46 -192 -60 -279 -13 -88 -35
-163 -47 -167 -13 -4 -23 -30 -23 -57 0 -27 8 -44 18 -39 21 14 45 -96 30
-136 -29 -77 249 -732 311 -732 43 0 18 67 -55 151 -144 163 -237 913 -134
1079 14 22 31 65 38 95 7 30 21 53 32 50 10 -3 57 72 104 165 47 94 98 170
114 170 15 0 41 23 57 50 l30 50 -42 -50 c-75 -89 -45 -19 45 109 126 176 170
204 90 56 -108 -199 -49 -195 131 10 65 74 92 113 60 85 -32 -27 -66 -61 -75
-75 -9 -14 -25 -25 -37 -25 -11 0 16 44 61 98 45 54 82 106 82 116 0 22 75 89
153 138 32 19 104 83 161 141 57 59 111 107 119 107 8 0 -11 -27 -43 -60 -32
-33 -47 -60 -35 -60 13 0 34 17 49 37 33 46 101 83 155 83 69 0 225 84 304
163 203 203 457 242 457 70 0 -14 10 -35 22 -47 55 -55 -17 -286 -123 -399
-138 -146 -144 -246 -14 -236 102 7 182 36 251 90 66 52 105 6 63 -73 -32 -60
-4 -131 72 -180 89 -59 209 125 209 320 0 57 11 115 24 128 19 19 16 38 -13
87 -46 79 -69 241 -29 202 27 -26 140 -345 122 -345 -5 0 -22 16 -36 35 -15
19 -27 24 -27 11 -1 -36 81 -86 141 -86 82 0 128 183 69 279 -5 7 -14 84 -20
171 -11 155 -44 230 -101 230 -62 0 -124 146 -98 230 14 44 26 121 26 171 1
50 12 101 23 112 94 94 81 1095 -13 1059 -22 -8 -28 12 -28 89 0 54 -9 99 -20
99 -11 0 -20 -23 -20 -51 0 -29 -9 -46 -20 -39 -11 7 -20 43 -20 80 0 37 -12
75 -28 84 -15 9 -38 67 -51 130 -29 140 -107 345 -132 348 -44 4 -89 34 -89
60 0 15 -13 28 -30 28 -37 0 -41 -101 -6 -136 13 -13 16 -30 8 -39 -25 -24
-131 117 -145 194 -14 82 -50 120 -216 231 l-121 80 -510 2 c-304 2 -466 -3
-400 -12 61 -9 155 -21 210 -29 55 -7 133 -17 174 -23 42 -7 122 3 185 21 110
32 195 26 248 -16 15 -12 46 -31 70 -43 26 -13 48 -48 55 -90 8 -39 37 -128
66 -199 79 -196 53 -305 -42 -170 -179 256 -392 390 -636 401 l-160 8 160 -46
c157 -44 297 -123 384 -217 84 -90 179 -377 125 -377 -13 0 -18 -13 -12 -30 7
-16 2 -30 -10 -30 -12 0 -17 -12 -11 -26 20 -52 -41 -105 -81 -70 -54 46 -116
68 -250 89 -84 14 -115 42 -73 69 39 24 127 22 186 -5 39 -18 58 -17 81 2 16
13 41 17 55 9 18 -11 17 -5 -3 19 -67 83 -397 141 -510 90 -39 -18 -59 -14
-109 21 l-60 44 -86 -55 c-47 -29 -96 -68 -109 -85 -13 -18 -37 -32 -54 -32
-17 0 -85 -52 -151 -116 l-119 -117 -43 43 -42 42 -69 -101 c-69 -100 -90
-171 -45 -156 13 4 33 24 45 45 32 58 65 90 93 90 17 0 15 -10 -6 -35 -76 -89
-51 -85 46 7 59 56 153 133 208 170 55 37 105 73 110 78 53 53 160 106 227
113 l83 9 -90 -43 c-108 -52 -220 -134 -220 -160 0 -11 63 12 140 51 197 99
274 89 133 -19 -72 -55 -104 -66 -80 -26 9 16 0 14 -24 -4 -68 -52 -107 -96
-94 -109 6 -7 -7 -12 -30 -12 -38 0 -166 -131 -187 -192 -7 -20 -56 -81 -224
-279 -31 -37 -59 -83 -63 -104 -9 -47 -127 -244 -171 -285 -18 -16 -58 -66
-90 -110 l-58 -80 64 59 c35 32 68 54 73 48 25 -25 -43 -139 -98 -165 -34 -16
-87 -72 -120 -128 -65 -107 -154 -173 -187 -140 -25 25 -64 -99 -64 -199 0
-89 32 -82 50 10 8 41 19 62 24 45 5 -16 13 -42 17 -56 19 -59 201 112 283
266 36 66 56 89 61 66 4 -18 -7 -62 -25 -97 -48 -92 -22 -96 38 -5 36 54 52
107 54 176 4 137 48 301 97 363 23 29 41 60 41 68 0 27 200 346 244 389 l41
40 -23 -44 c-12 -24 -32 -50 -44 -58 -13 -7 -54 -82 -92 -166 -38 -83 -91
-200 -118 -258 -91 -199 -42 -269 55 -78 22 43 44 73 50 68 11 -11 -63 -165
-102 -214 -59 -74 -168 -357 -141 -367 23 -9 90 63 90 96 0 6 42 88 92 182 54
100 95 204 99 248 3 43 25 121 48 174 26 59 35 99 22 103 -12 4 -21 17 -21 28
0 11 13 15 29 9 19 -7 56 32 112 123 85 136 193 264 223 264 9 0 41 26 71 59
30 32 116 99 192 148 l136 90 -66 8 c-44 6 -27 10 47 12 140 4 159 -19 55 -65
-44 -19 -75 -42 -69 -51 5 -9 -15 -33 -45 -52 -157 -103 -338 -407 -309 -518
l16 -57 32 83 c30 75 92 115 99 63 1 -11 4 -29 7 -40 3 -11 6 -40 8 -64 3 -59
51 4 74 96 15 62 68 154 81 141 5 -4 -1 -32 -13 -63 -41 -109 58 -73 111 40
29 61 89 98 89 55 0 -14 104 -71 109 -60 39 77 59 135 61 175 4 73 28 115 71
126 21 6 54 38 74 72 53 93 66 75 25 -34 -20 -53 -47 -154 -60 -225 -13 -71
-31 -138 -39 -149 -9 -11 -20 -79 -26 -151 -10 -133 -47 -227 -161 -404 -90
-140 -85 -106 16 117 91 201 121 320 60 240 -16 -21 -32 -48 -37 -60 -4 -12
-13 -17 -21 -10 -7 6 1 44 18 84 70 167 30 217 -76 94 -62 -73 -70 -96 -82
-245 -8 -92 -27 -185 -44 -212 -42 -62 -60 -39 -28 36 13 33 19 74 13 92 -7
18 -4 26 7 19 11 -7 20 -1 20 14 0 14 -23 27 -50 29 -42 2 -50 -6 -50 -52 0
-55 -87 -227 -164 -326 -72 -91 -31 -79 85 26 60 54 116 99 124 99 39 0 8 -85
-48 -135 -34 -30 -73 -65 -85 -76 -82 -79 -198 -110 -159 -43 12 21 -86 -56
-113 -88 -5 -7 -31 -19 -56 -27 -33 -10 -9 23 80 112 69 70 144 163 166 207
22 44 45 85 51 90 7 6 14 50 16 99 3 50 16 96 28 104 13 8 17 22 8 31 -9 9
-38 -11 -65 -44 -51 -64 -63 -102 -25 -78 13 8 9 -7 -10 -33 -18 -26 -33 -62
-33 -80 0 -43 -100 -142 -248 -245 -182 -127 -188 -130 -147 -73 55 76 64 106
37 115 -18 6 -16 18 8 44 20 23 25 41 12 49 -33 20 -322 -381 -322 -448 0 -9
-13 -27 -29 -40 -16 -13 -24 -37 -18 -52 11 -28 -13 -38 -70 -30 -19 2 -23
-10 -13 -43 9 -35 8 -39 -8 -16 -16 24 -23 21 -39 -20 -10 -28 -11 -53 -2 -56
9 -4 7 -34 -5 -67 -16 -45 -26 -54 -38 -34 -13 20 -17 15 -18 -18 0 -25 -19
-64 -42 -87 -22 -22 -36 -54 -30 -70 6 -16 -1 -28 -17 -28 -15 0 -31 11 -36
24 -11 35 -55 -1 -55 -45 0 -28 -14 -39 -50 -39 -27 0 -50 -10 -50 -21 0 -12
-9 -16 -20 -9 -11 7 -20 -2 -20 -19 0 -17 -13 -31 -30 -31 -16 0 -30 10 -30
21 0 12 -9 16 -19 10 -45 -28 -87 116 -83 281 3 98 -4 169 -17 177 -11 7 -21
22 -21 33 0 11 9 15 19 9 11 -7 6 13 -10 43 -31 61 -41 275 -11 257 16 -10 43
187 28 207 -14 20 -29 -19 -32 -86 -4 -78 -16 -88 -54 -42 -38 46 -34 394 7
560 43 172 115 375 129 361 6 -6 29 15 52 46 23 31 55 52 70 47 21 -7 25 3 16
35 -6 25 -6 40 0 33 7 -6 25 4 41 23 15 19 22 24 15 10 -7 -14 -8 -25 -3 -25
6 0 33 50 61 110 51 114 200 320 265 370 20 16 14 2 -15 -31 -79 -90 -143
-189 -122 -189 42 0 -20 -198 -75 -240 -22 -17 -141 -219 -141 -240 0 -58 56
1 120 126 28 54 78 130 112 170 34 41 100 140 147 221 55 96 91 139 101 123
11 -17 19 -18 29 -2 8 13 24 17 35 9 13 -8 16 -4 8 10 -14 23 102 147 173 186
44 23 45 1 2 -46 -18 -21 -23 -37 -11 -37 12 0 27 9 34 20 7 11 32 30 56 42
24 12 11 -6 -30 -40 -40 -35 -79 -81 -86 -103 -7 -22 -21 -35 -30 -29 -10 6
-31 -9 -48 -34 -24 -34 -26 -48 -7 -59 26 -16 120 59 105 84 -6 8 23 30 64 50
40 19 92 52 115 74 l41 40 -46 -24 c-96 -49 -83 -7 14 46 56 30 102 67 102 81
0 30 113 67 237 79 86 8 143 40 117 66 -8 8 -34 3 -59 -9 -25 -13 -90 -22
-145 -21 -215 4 -343 -46 -552 -216 -194 -157 -242 -139 -96 35 45 54 71 98
57 98 -28 0 -170 -141 -343 -340 -77 -89 -111 -117 -109 -90 2 33 -10 40 -67
41 -38 0 -86 8 -106 17 -20 9 -41 11 -48 4 -7 -6 4 -12 24 -12 86 0 -2 -36
-120 -49 -93 -10 -129 -31 -161 -92 -43 -84 -37 -87 58 -21 48 33 113 65 145
72 44 10 51 8 28 -8 -27 -19 -27 -21 1 -22 16 0 50 14 75 31 24 17 44 24 44
14 0 -34 -49 -65 -104 -65 -44 0 -62 -13 -78 -55 -37 -99 -99 -151 -131 -110
-26 33 -26 33 -15 0 9 -25 2 -35 -25 -35 -29 -1 -31 -4 -9 -18 15 -10 21 -28
13 -40 -7 -12 -21 -18 -31 -12 -24 15 -45 -62 -30 -109 8 -27 -1 -45 -30 -61
-40 -22 -41 -19 -31 144 7 99 4 155 -7 138 -10 -15 -27 -22 -37 -15 -24 14
-49 -92 -26 -107 22 -14 22 -140 0 -140 -10 0 -12 -15 -5 -33 8 -22 4 -30 -15
-23 -45 15 -62 117 -52 328 8 158 4 201 -17 201 -31 0 -49 -97 -59 -329 -5
-103 -18 -176 -32 -185 -17 -10 -22 -61 -15 -167 9 -133 7 -145 -16 -101 -15
28 -21 66 -14 85 9 24 6 28 -11 13 -12 -11 -27 -79 -32 -150 -5 -71 -15 -153
-22 -181 -8 -33 0 -77 20 -116 32 -62 32 -63 -8 -38 -54 34 -124 216 -83 216
27 0 46 110 38 220 l-7 90 -43 -93 c-76 -165 -85 -437 -14 -437 15 0 28 -12
28 -27 0 -15 18 -43 40 -63 49 -45 58 -210 11 -210 -15 0 -31 20 -35 45 -4 32
-23 48 -66 56 -45 8 -58 20 -53 47 4 27 -3 34 -25 25 -23 -8 -32 0 -32 30 0
35 -5 38 -30 17 -37 -31 -42 20 -8 84 12 23 13 36 2 29 -23 -15 -94 -162 -111
-233 -7 -27 -7 -39 -1 -25 6 14 21 20 32 13 11 -7 28 -1 38 14 14 23 17 21 18
-5 0 -19 11 -38 25 -42 14 -5 -18 -35 -71 -67 -132 -80 -245 -256 -272 -425
-11 -70 -31 -140 -44 -155 -34 -41 -40 -25 -19 48 11 39 11 68 0 75 -43 26
-16 117 63 206 109 123 137 175 80 144 -23 -12 -42 -35 -42 -50 0 -31 -113
-151 -142 -151 -34 0 -18 74 32 142 135 183 249 372 210 348 -11 -7 -20 6 -20
28 0 22 8 45 18 51 24 15 102 184 102 222 0 28 -4 28 -34 -2 -44 -44 -54 -13
-27 85 11 42 21 157 21 256 1 196 24 294 100 425 54 92 80 107 80 46 0 -72
-39 -146 -70 -134 -32 12 -34 1 -40 -197 -1 -55 -9 -154 -17 -220 -16 -138 11
-209 53 -142 13 22 53 72 89 113 72 81 80 121 35 159 -16 14 -30 50 -30 81 0
31 -9 62 -20 69 -23 14 10 88 54 121 16 11 35 71 44 133 14 108 110 295 136
268 7 -6 2 -23 -9 -37 -13 -15 -15 -62 -6 -122 11 -71 8 -99 -10 -106 -52 -20
-111 -203 -105 -323 6 -103 8 -108 25 -54 10 33 42 84 71 113 56 56 100 213
100 355 0 120 35 207 129 321 119 145 173 176 110 64 -51 -92 -41 -129 21 -73
54 49 50 27 -10 -62 -58 -85 -51 -113 13 -56 40 35 43 35 31 2 -20 -54 43 -13
73 48 13 26 37 48 54 48 16 0 49 11 72 25 35 19 46 19 52 0 5 -14 35 7 74 51
37 41 70 72 75 67 7 -8 -69 -134 -114 -187 -65 -78 12 -56 85 24 36 39 75 70
87 70 26 0 137 159 113 162 -65 9 -159 -13 -230 -52 -103 -57 -205 -77 -284
-54 l-59 16 84 91 c46 50 84 104 85 119 0 16 31 59 70 97 75 75 95 137 34 103
-66 -36 -226 -214 -235 -262 -10 -54 -42 -79 -100 -80 -79 -1 -305 -215 -406
-384 -17 -30 -43 -59 -56 -64 -33 -13 -56 119 -28 163 17 28 19 20 9 -35 -9
-48 -7 -64 7 -50 12 11 27 54 35 95 13 73 3 87 -56 77 -28 -4 -15 47 32 128
26 44 55 78 66 76 10 -2 20 14 22 35 3 39 149 267 187 290 15 9 14 0 -2 -30
-13 -25 -19 -49 -13 -54 5 -6 -12 -54 -39 -107 -52 -104 -59 -140 -28 -140 11
0 20 7 20 16 0 31 130 150 193 176 35 15 125 95 200 179 131 146 178 210 130
181 -29 -18 -30 18 -2 69 35 67 -47 48 -87 -20z m2634 -295 c20 -41 60 -106
91 -145 31 -39 75 -109 99 -156 23 -47 52 -85 63 -85 11 0 1 38 -22 85 -39 81
-39 83 -1 40 45 -52 126 -282 133 -380 3 -35 24 -95 46 -131 52 -84 83 -282
91 -594 2 -82 16 -189 29 -237 14 -48 23 -120 19 -160 -3 -40 3 -73 14 -73 46
0 34 400 -20 618 -35 142 -47 233 -38 287 8 54 2 98 -19 139 -33 64 -176 610
-163 623 13 13 89 -164 97 -227 7 -53 92 -368 154 -570 12 -38 20 -92 17 -120
-7 -81 1 -168 15 -154 11 12 18 49 24 140 6 80 45 4 43 -83 -2 -51 3 -150 11
-220 8 -76 5 -145 -7 -170 -40 -82 -84 -339 -84 -486 l0 -148 -60 31 c-86 44
-179 246 -180 388 0 62 -45 142 -80 142 -71 0 -63 -250 11 -329 27 -29 49 -70
49 -91 0 -20 17 -43 38 -49 21 -7 48 -37 60 -67 13 -30 49 -72 81 -93 32 -22
63 -57 69 -78 7 -29 21 -35 60 -25 73 18 82 -19 11 -49 -46 -18 -67 -19 -84
-2 -13 13 -32 23 -43 23 -11 0 0 -18 23 -40 51 -48 59 -49 96 -12 16 16 46 24
67 18 41 -10 70 -80 38 -91 -19 -6 32 -200 65 -245 22 -31 34 -151 16 -162
-10 -6 -17 2 -17 16 0 15 -19 35 -43 46 -54 25 -114 207 -76 230 45 28 2 101
-52 88 -37 -9 -72 8 -153 75 -135 111 -182 137 -249 137 -30 0 -70 15 -90 33
-45 40 -50 96 -7 80 39 -15 38 16 -1 55 -17 18 -25 43 -17 57 11 20 8 20 -13
0 -34 -31 -93 -33 -103 -2 -17 49 -316 -162 -316 -222 0 -15 -13 -20 -32 -13
-21 8 -35 -1 -42 -28 -6 -22 -19 -40 -30 -40 -10 0 -12 -10 -5 -21 17 -28 128
-4 175 37 33 29 35 29 23 0 -6 -18 -61 -58 -120 -89 -117 -61 -143 -96 -54
-74 50 12 53 11 26 -21 -37 -45 -137 -97 -167 -86 -13 5 -48 -4 -78 -19 -80
-40 -88 0 -18 88 44 54 57 88 49 121 -12 47 38 124 82 124 94 0 246 225 183
271 -44 32 -31 76 50 169 40 46 57 56 48 30 -33 -102 -35 -150 -5 -150 28 0
66 103 56 150 -15 68 -4 268 16 301 21 33 24 24 20 -61 -2 -55 -2 -126 0 -158
l3 -57 41 51 c31 41 39 78 37 170 -2 65 2 128 10 141 24 39 -26 180 -68 193
-22 7 -40 26 -40 41 0 16 -13 29 -30 29 -16 0 -30 4 -30 8 0 5 -5 23 -12 40
-7 19 -2 32 13 32 14 0 42 15 63 33 20 18 43 26 51 17 8 -8 5 -19 -6 -23 -24
-9 -14 -127 10 -127 8 0 26 24 39 54 l25 55 38 -50 37 -49 -5 136 c-6 144 -71
261 -111 197 -17 -27 -41 76 -42 176 0 48 2 47 58 -20 l58 -69 15 59 c11 44 4
78 -28 134 -24 41 -43 89 -43 107 0 17 -16 37 -35 44 -19 7 -43 23 -52 35 -10
13 -13 8 -6 -12 6 -18 -2 -74 -17 -125 -20 -66 -22 -92 -5 -92 12 0 2 -19 -23
-42 -24 -23 -40 -54 -34 -69 6 -15 2 -33 -9 -40 -10 -6 -19 -20 -19 -31 0 -11
9 -15 20 -8 30 19 24 -13 -10 -50 -27 -30 -27 -42 0 -106 30 -72 14 -111 -32
-83 -28 17 -2 -75 26 -93 10 -6 19 -31 21 -55 2 -24 11 -43 19 -43 9 0 16 -18
16 -40 0 -22 9 -40 20 -40 11 0 20 -9 20 -20 0 -11 -14 -20 -31 -20 -17 0 -27
7 -21 16 5 9 1 29 -9 45 -14 22 -18 22 -19 3 0 -15 -10 -20 -23 -12 -17 10
-19 3 -9 -23 56 -146 17 -371 -89 -522 -33 -46 -59 -109 -59 -141 0 -31 -22
-90 -50 -130 -27 -41 -50 -83 -50 -94 0 -11 -19 -31 -42 -43 -23 -12 -54 -51
-71 -86 l-29 -63 13 78 c11 72 9 77 -31 66 -39 -10 -39 -7 9 40 53 53 70 100
26 73 -14 -8 -67 -45 -117 -81 -51 -36 -106 -66 -121 -66 -16 0 -40 -11 -53
-24 -19 -19 -24 -19 -24 0 0 14 43 49 95 79 114 66 320 274 385 389 l46 83
-73 -56 c-40 -31 -89 -77 -108 -103 -19 -27 -84 -74 -145 -106 -60 -31 -108
-66 -106 -78 3 -11 -13 -15 -35 -10 -27 8 -39 1 -39 -23 0 -18 -9 -28 -20 -21
-11 7 -20 3 -20 -7 0 -11 -15 -35 -34 -54 -32 -32 -32 -36 3 -61 35 -26 35
-28 -11 -67 -62 -51 -73 -51 -84 4 -7 34 -9 31 -10 -15 -2 -82 -49 -210 -78
-210 -13 0 -30 -20 -38 -45 -13 -42 -162 -192 -192 -194 -20 -1 79 183 110
205 14 10 1 12 -34 4 -52 -11 -56 -9 -33 19 14 17 21 49 15 71 -6 22 -3 45 7
50 18 12 17 90 -1 90 -7 0 -29 -12 -50 -27 -32 -24 -43 -23 -77 10 -22 20 -52
37 -67 37 -43 0 -30 35 29 75 80 54 165 87 187 74 11 -7 32 -2 48 11 16 13 38
18 49 11 12 -8 16 -1 9 18 -7 17 -2 31 10 31 12 0 22 -16 23 -35 0 -33 1 -33
21 0 24 42 70 46 85 7 21 -56 105 -9 95 53 -1 8 7 15 17 15 18 0 218 131 276
180 14 12 25 16 25 10 0 -6 27 19 60 57 33 38 60 82 60 98 0 16 59 86 132 154
l132 124 -20 174 c-20 171 -14 284 36 643 15 107 35 179 55 194 31 25 28 177
-5 276 -10 29 4 21 48 -25 34 -36 62 -59 63 -50 0 8 27 -16 59 -55 50 -59 59
-64 61 -30 1 35 4 34 21 -9 11 -26 16 -58 11 -71 -5 -12 4 -39 19 -60 16 -21
28 -30 28 -21 0 9 16 4 35 -11 19 -15 28 -19 20 -9 -8 9 -5 29 8 44 48 59 -49
322 -131 354 -14 5 -41 60 -61 121 -19 62 -43 107 -53 101 -10 -6 -18 -3 -18
8 0 17 29 37 61 41 7 1 28 -31 47 -72z m37 -284 c14 -51 -15 -97 -32 -52 -18
47 -16 90 5 90 9 0 22 -17 27 -38z m-723 -434 c-23 -29 -37 -60 -32 -68 13
-21 -43 -41 -78 -28 -83 32 -3 143 104 147 l47 1 -41 -52z m189 21 c-42 -31
-111 -39 -111 -12 0 30 26 43 88 42 59 0 60 -2 23 -30z m-1872 -145 c-51 -58
-78 -106 -72 -128 5 -20 3 -36 -6 -36 -8 0 -26 -36 -41 -80 -15 -44 -33 -80
-42 -80 -9 0 -21 -43 -27 -95 -29 -242 -131 -565 -147 -465 -14 95 -43 89 -36
-7 7 -91 60 -183 93 -162 26 16 43 -67 22 -105 -17 -31 -24 -28 -56 29 -33 57
-62 75 -112 67 -22 -3 -18 47 6 71 13 13 21 110 21 235 -1 135 6 209 18 202
11 -7 20 -30 20 -51 0 -22 13 -39 28 -39 23 0 27 -23 19 -105 -12 -135 25 -90
44 54 7 56 22 117 33 137 22 43 1 160 -26 143 -10 -6 -18 4 -18 22 0 21 11 29
30 22 22 -9 30 3 30 43 0 48 43 148 131 308 37 66 127 140 152 124 10 -6 -19
-53 -64 -104z m1197 42 c-24 -25 -59 -46 -78 -46 -19 0 -51 -23 -72 -51 -34
-47 -38 -48 -40 -11 -4 54 112 154 180 154 l53 0 -43 -46z m280 -37 c-20 -44
-20 -58 -1 -64 18 -6 17 -16 -5 -38 -16 -16 -42 -48 -59 -71 -24 -35 -34 -38
-60 -17 -48 40 -38 75 52 172 91 99 112 104 73 18z m326 -1 c-23 -29 -42 -65
-42 -78 0 -25 -117 -59 -136 -40 -19 18 35 111 71 122 19 5 58 22 85 36 67 34
73 25 22 -40z m-257 -1103 c-7 -19 -34 -54 -60 -78 -26 -24 -47 -49 -46 -56 5
-48 -3 -68 -25 -60 -16 6 -37 -11 -50 -40 -13 -28 -31 -51 -41 -51 -27 0 -65
52 -49 67 7 7 -27 14 -76 15 -48 0 -74 6 -58 11 17 5 68 28 115 50 46 22 94
34 105 27 12 -7 19 -6 16 4 -2 9 22 45 54 81 64 71 138 90 115 30z m-425 -15
c0 -16 -13 -30 -30 -30 -16 0 -30 -9 -30 -20 0 -11 -14 -20 -32 -20 -26 0 -22
10 15 50 54 57 77 63 77 20z m-1731 -137 c53 -90 66 -153 31 -153 -11 0 -20
-22 -20 -50 0 -27 -9 -50 -20 -50 -19 0 -28 41 -21 95 1 14 -7 25 -18 25 -26
0 -28 73 -2 90 13 7 13 30 0 62 -38 101 -15 93 50 -19z m1579 51 c24 -39 -120
-140 -153 -107 -28 28 -3 85 32 72 15 -6 33 3 40 20 12 33 64 42 81 15z
m-1255 -222 c15 -30 25 -37 31 -19 6 18 26 8 63 -31 66 -72 67 -86 4 -44 -27
17 -63 32 -79 32 -29 0 -92 72 -92 106 0 32 50 1 73 -44z m3209 33 c58 -50
104 -115 81 -115 -13 0 -34 22 -46 48 -12 26 -41 57 -64 69 -24 11 -33 21 -22
22 12 0 35 -10 51 -24z m-4058 -153 c-4 -33 3 -92 16 -132 26 -79 1 -139 -40
-98 -31 31 -41 185 -16 240 30 66 51 60 40 -10z m1896 21 c0 -15 -86 -63 -114
-63 -7 0 4 18 24 40 37 40 90 54 90 23z m899 -74 c-24 -29 -205 -149 -225
-149 -6 0 -10 17 -9 39 2 21 9 35 16 31 6 -5 55 23 108 60 92 66 158 77 110
19z m-400 -216 c-24 -40 -53 -72 -66 -71 -16 1 -16 4 1 11 13 5 40 56 59 113
25 73 38 91 42 62 4 -23 -12 -75 -36 -115z m401 37 c-13 -38 -31 -70 -42 -70
-10 0 -18 -14 -18 -31 0 -19 -14 -29 -33 -25 -49 9 -58 56 -11 56 51 0 80 37
97 122 8 37 18 56 22 43 5 -14 -2 -56 -15 -95z m1143 -156 c46 -36 54 -95 22
-162 -17 -33 -21 -62 -10 -70 26 -17 -11 -147 -38 -130 -11 7 -17 50 -13 95 5
46 -3 106 -18 133 -57 110 -21 193 57 134z m-182 -161 c-15 -15 -21 -14 -21 4
0 14 -9 20 -20 13 -29 -18 -24 6 15 74 l35 59 6 -64 c4 -35 -3 -74 -15 -86z
m327 -120 c-11 -90 -19 -109 -40 -92 -14 12 -21 35 -15 50 6 16 -1 29 -16 29
-21 1 -20 5 3 19 16 11 31 31 32 45 1 14 3 44 5 65 2 27 9 33 24 18 12 -12 15
-64 7 -134z m-297 25 c16 -50 -18 -88 -96 -106 -44 -10 -55 -6 -55 22 0 76
130 148 151 84z m-2991 -72 c0 -50 -162 -210 -294 -292 -56 -35 -21 19 43 66
38 28 103 93 144 145 70 88 107 116 107 81z m-480 -148 c0 49 25 7 32 -55 5
-48 0 -57 -28 -50 -22 6 -35 31 -36 70 -2 40 3 51 14 34 14 -22 17 -22 18 1z
m1038 13 c-17 -16 -160 -111 -168 -111 -5 0 -87 -55 -184 -123 -97 -67 -164
-109 -150 -92 36 44 0 60 -69 33 -176 -71 -221 1 -49 76 62 27 158 70 214 97
57 26 142 54 190 61 49 8 106 26 127 41 36 24 110 40 89 18z m-110 -176 c-140
-122 -224 -205 -178 -173 30 20 28 13 -10 -29 -82 -92 -130 -111 -91 -36 17
33 26 73 20 88 -11 29 146 155 194 155 15 1 50 18 77 40 94 74 86 40 -12 -45z
m1938 -20 c29 -21 11 -25 -105 -25 -119 0 -132 3 -95 24 58 32 158 32 200 1z
m-765 -70 c-92 -109 -138 -162 -247 -285 -54 -60 -115 -141 -137 -180 -28 -51
-35 -57 -25 -20 18 67 195 322 315 454 113 123 195 150 94 31z m809 -25 c42
-33 65 -60 53 -60 -12 0 -38 13 -58 30 -19 16 -53 43 -75 59 -22 16 -30 30
-18 30 12 1 56 -26 98 -59z m-2417 -106 c-8 -29 -4 -32 19 -13 43 36 33 -8
-13 -57 -49 -53 -79 -56 -79 -9 1 30 3 31 20 5 17 -26 19 -25 20 5 0 26 -16
35 -60 35 -33 0 -60 11 -60 24 0 19 -5 19 -24 0 -29 -29 -56 -31 -56 -3 0 30
78 54 166 51 63 -2 74 -8 67 -38z m2436 2 c42 -60 43 -199 1 -183 -21 8 -30
-2 -30 -32 0 -47 -57 -170 -72 -156 -5 5 0 34 11 64 12 29 21 91 21 137 1 62
6 76 20 54 15 -23 19 -18 20 24 0 29 -9 59 -20 66 -25 16 -26 70 -1 70 10 0
33 -20 50 -44z m-1482 -115 c-31 -54 -59 -95 -64 -91 -9 10 94 190 109 190 6
0 -15 -45 -45 -99z m466 -126 c-14 -36 -38 -113 -52 -171 -14 -58 -30 -102
-35 -97 -16 16 36 240 66 288 42 65 53 55 21 -20z m-1033 -140 c-38 -66 -39
-71 -6 -84 22 -8 27 -18 14 -27 -12 -8 -32 -32 -46 -54 -22 -37 -23 -37 -11 8
7 26 5 42 -5 36 -58 -36 -9 135 52 179 48 35 48 20 2 -58z m746 -1110 c27 -55
25 -125 -4 -125 -26 0 -83 72 -69 87 8 7 3 13 -10 13 -18 0 -19 10 -3 40 29
55 54 50 86 -15z m195 -257 c-29 -105 -36 -161 -22 -175 13 -13 13 -28 0 -44
-13 -16 -13 -42 1 -78 28 -76 25 -162 -8 -189 -15 -13 -34 -46 -40 -73 -12
-46 -50 -64 -78 -36 -7 6 0 37 16 68 27 52 27 54 -11 45 -53 -14 -50 20 5 44
24 11 47 31 51 45 13 39 -49 29 -65 -10 -13 -32 -16 -32 -31 5 -28 70 -22 94
21 80 43 -14 57 20 15 36 -19 7 -20 15 -2 34 13 14 19 37 13 52 -6 16 2 28 20
28 38 0 54 42 54 140 0 72 81 238 96 198 4 -9 -12 -86 -35 -170z m-921 84 c0
-5 6 -24 13 -42 10 -26 3 -32 -35 -27 -61 9 -78 77 -19 77 22 0 41 -4 41 -8z
m100 -232 c0 -22 9 -40 20 -40 31 0 24 -34 -10 -47 -31 -12 -100 91 -76 114
27 27 66 11 66 -27z m640 -59 c0 -46 -32 -71 -50 -40 -17 27 2 79 29 79 12 0
21 -17 21 -39z m-9 -419 c-15 -25 -71 -30 -71 -6 0 9 11 27 24 40 28 28 68 -1
47 -34z m106 -107 c14 -36 40 -90 56 -121 25 -46 25 -103 0 -72 -28 35 -113
209 -113 231 0 48 30 29 57 -38z"/>
<path d="M4852 6387 c-35 -48 -35 -54 -4 -71 23 -13 30 -33 22 -62 -9 -30 -7
-35 5 -18 13 19 38 -13 85 -109 61 -124 68 -131 84 -87 19 53 4 108 -80 285
-62 132 -61 131 -112 62z"/>
<path d="M4760 6029 c11 -28 24 -143 28 -255 8 -203 55 -421 97 -447 30 -19 5
259 -33 367 -16 45 -31 135 -34 199 -7 150 -16 187 -50 187 -21 0 -23 -12 -8
-51z"/>
<path d="M4868 5938 c7 -38 16 -108 21 -158 16 -204 147 -485 203 -438 22 18
28 16 28 -8 0 -17 -10 -34 -23 -38 -17 -6 -17 -19 0 -51 13 -23 23 -64 23 -91
0 -26 18 -64 40 -84 39 -35 40 -35 40 8 0 131 -76 339 -138 377 -23 14 -60 63
-82 110 l-42 85 51 -60 c28 -33 51 -67 51 -75 0 -8 14 -15 30 -15 35 0 37 20
11 156 -29 151 -78 261 -101 224 -23 -37 -54 -9 -63 58 -4 27 -19 53 -35 58
-21 7 -24 -6 -14 -58z m152 -238 c0 -42 -31 -70 -48 -44 -16 26 10 105 30 93
10 -6 18 -28 18 -49z"/>
<path d="M4632 5768 c-14 -35 0 -68 29 -68 11 0 19 23 19 50 0 56 -29 67 -48
18z"/>
<path d="M4694 5659 c-7 -28 -1 -66 15 -90 15 -23 32 -72 38 -108 12 -74 33
-107 32 -49 -1 92 -72 297 -85 247z"/>
<path d="M4692 5264 c-17 -34 -32 -75 -32 -90 0 -16 -19 -53 -42 -82 -59 -76
-30 -91 42 -22 71 68 111 174 84 223 -17 29 -24 26 -52 -29z"/>
<path d="M3944 6956 c4 -33 48 -66 170 -129 186 -95 191 -81 24 68 -127 113
-205 138 -194 61z"/>
<path d="M2666 6947 c-52 -21 -63 -37 -62 -87 l2 -61 68 74 c80 88 78 110 -8
74z"/>
<path d="M2238 6781 c-54 -46 -63 -63 -43 -83 19 -20 32 -17 66 13 107 97 86
161 -23 70z"/>
<path d="M1984 6376 c-28 -28 -32 -76 -6 -76 30 0 60 50 45 76 -12 18 -21 18
-39 0z"/>
<path d="M3006 6201 c-25 -31 -44 -82 -44 -113 1 -32 -5 -85 -12 -118 l-13
-60 60 70 c33 38 56 73 52 78 -5 5 -1 18 9 30 10 12 25 56 32 97 18 93 -19
100 -84 16z"/>
<path d="M2737 6115 c-60 -65 -258 -375 -282 -441 -32 -90 -4 -83 53 14 28 49
64 101 78 116 102 104 249 305 240 328 -15 40 -41 35 -89 -17z"/>
<path d="M2724 5863 c-46 -62 -131 -207 -189 -323 -57 -115 -111 -213 -120
-217 -8 -3 -15 -15 -15 -26 0 -11 10 -13 23 -5 16 10 19 -1 10 -34 -36 -137
-36 -146 4 -71 22 42 47 105 54 140 19 90 147 371 205 449 72 99 76 63 5 -39
-34 -48 -64 -115 -67 -147 -2 -33 -15 -72 -29 -86 -30 -32 -32 -57 -6 -73 22
-14 103 102 208 297 128 234 66 334 -83 135z"/>
<path d="M3320 5767 c-27 -26 -42 -47 -33 -47 9 0 2 -14 -16 -31 -17 -18 -31
-42 -31 -54 0 -26 8 -18 88 91 66 90 62 108 -8 41z"/>
<path d="M2375 5722 c-55 -55 -127 -222 -96 -222 9 0 13 -20 8 -45 -9 -41 -7
-42 17 -12 20 24 37 28 62 14 23 -13 34 -12 34 3 0 12 -13 26 -28 32 -31 12
-23 57 36 196 41 97 36 103 -33 34z"/>
<path d="M3351 5709 c-64 -65 -155 -214 -264 -433 -61 -124 -141 -266 -177
-316 -209 -289 -147 -267 72 25 102 135 223 288 270 341 61 68 85 112 83 150
-2 30 4 77 12 104 12 38 10 43 -5 20 -12 -16 -22 -22 -22 -12 0 10 23 48 51
85 52 68 38 93 -20 36z"/>
<path d="M3490 5520 c-7 -22 -8 -48 -1 -58 6 -10 -21 -46 -59 -79 -39 -34 -70
-74 -70 -89 0 -15 -6 -34 -14 -41 -44 -45 -17 -69 32 -28 113 93 222 303 169
323 -43 17 -43 17 -57 -28z"/>
<path d="M1323 5489 c-44 -56 -75 -173 -55 -206 6 -10 -1 -24 -16 -29 -15 -6
-37 -41 -49 -77 l-23 -67 59 70 c33 39 58 79 56 90 -2 11 17 73 42 138 51 133
46 158 -14 81z"/>
<path d="M2333 5427 c-7 -8 -14 -32 -14 -55 -2 -41 -2 -41 -18 -2 -12 30 -18
17 -23 -55 -5 -52 -6 -95 -4 -95 12 0 54 97 67 155 15 68 14 74 -8 52z"/>
<path d="M2551 5341 c-17 -32 -30 -75 -29 -95 1 -24 8 -17 21 19 11 30 27 51
34 47 8 -5 16 13 19 39 5 65 -8 62 -45 -10z"/>
<path d="M800 5083 c0 -25 -8 -41 -17 -35 -9 6 -16 -30 -15 -79 2 -84 29 -128
34 -54 4 54 7 71 25 122 11 29 9 55 -5 69 -16 16 -22 10 -22 -23z"/>
<path d="M2642 4805 c-76 -75 -89 -101 -102 -201 -8 -63 -16 -93 -17 -68 -4
68 -40 124 -71 112 -16 -6 -34 -1 -41 10 -8 13 -42 5 -94 -22 l-81 -42 7 -166
c6 -141 14 -172 52 -208 25 -23 45 -32 45 -21 0 12 16 21 35 21 80 0 165 76
165 148 0 108 27 158 40 74 24 -165 88 -47 111 207 7 76 21 161 32 188 26 69
18 66 -81 -32z m-216 -298 c-14 -6 -20 -37 -14 -83 l10 -74 -31 80 c-17 44
-31 80 -31 81 0 0 20 1 45 3 25 1 34 -2 21 -7z"/>
<path d="M1540 4403 c-46 -9 -72 -26 -77 -50 -6 -32 2 -35 53 -24 59 13 104
-14 64 -39 -37 -23 -21 -50 29 -50 56 0 97 59 87 126 -7 48 -44 57 -156 37z"/>
<path d="M293 4183 c-44 -48 -47 -159 -3 -123 17 14 30 37 30 52 0 43 37 33
91 -25 47 -51 109 -42 109 17 0 10 14 33 31 50 28 28 30 25 17 -27 -13 -51
-11 -54 19 -30 40 34 44 103 4 103 -15 0 -42 -14 -60 -32 -28 -28 -37 -27 -98
10 -83 51 -98 52 -140 5z"/>
<path d="M1387 4149 c-63 -64 -54 -76 35 -46 71 25 102 54 86 81 -19 31 -70
16 -121 -35z"/>
<path d="M3969 4114 c-44 -37 -124 -97 -179 -135 -113 -79 -150 -110 -150
-130 0 -22 325 215 429 313 53 50 -32 9 -100 -48z"/>
<path d="M341 4052 c-26 -32 -7 -93 42 -127 72 -53 119 -138 89 -163 -31 -26
-102 26 -81 60 6 10 2 18 -8 18 -11 0 -26 18 -33 41 -16 51 -90 121 -113 107
-31 -19 -17 -107 21 -131 29 -18 34 -35 22 -67 -9 -24 -8 -56 1 -72 15 -22 18
-21 19 8 0 20 9 31 20 24 41 -25 9 -141 -37 -134 -68 10 -55 -69 17 -106 77
-40 76 -52 -2 -30 l-61 18 9 -94 c6 -52 16 -110 24 -129 8 -20 5 -35 -7 -35
-76 0 -111 -244 -129 -917 l-4 -147 110 -36 c61 -19 162 -59 226 -88 133 -60
171 -66 134 -22 -45 54 276 -44 335 -103 84 -82 26 -99 -95 -27 -173 102 -172
42 2 -88 142 -107 203 -123 148 -39 -24 36 -28 56 -12 66 62 38 -123 299 -193
272 -15 -6 -22 -2 -16 8 7 10 -20 30 -59 44 -38 14 -70 37 -70 51 0 18 13 20
45 8 25 -10 52 -17 61 -18 9 0 145 -64 303 -142 299 -148 323 -157 299 -119
-42 68 448 -261 597 -401 53 -49 120 -107 151 -129 31 -21 100 -97 154 -168
72 -94 101 -120 109 -97 14 38 128 -102 252 -308 43 -71 89 -137 102 -145 13
-8 48 -78 78 -155 31 -77 63 -140 72 -140 9 0 35 -45 59 -100 24 -55 50 -100
58 -100 9 0 21 -23 28 -50 7 -28 25 -50 39 -50 15 0 53 -24 84 -53 l57 -53 13
49 c21 79 -1 179 -38 172 -19 -3 -44 21 -64 63 -25 51 -36 60 -45 35 -7 -17 0
-45 16 -60 27 -27 21 -53 -11 -53 -18 0 -100 137 -184 307 -33 68 -100 176
-148 240 -48 65 -93 139 -99 165 -7 26 -20 48 -30 48 -10 0 -18 10 -18 23 0
36 -135 232 -284 411 -155 186 -174 202 -198 164 -16 -26 -27 -11 -20 28 1 9
-12 31 -30 49 -30 30 -30 34 0 56 28 21 28 27 -10 61 -41 37 -41 36 -27 -18
15 -61 -11 -71 -59 -24 -18 19 -27 55 -22 91 4 33 0 55 -8 50 -19 -11 -162
116 -162 144 0 12 -16 27 -36 34 -64 20 -195 211 -144 211 11 0 20 10 20 22 0
16 -10 15 -30 -2 -17 -14 -33 -22 -36 -18 -3 4 -30 44 -59 89 -30 44 -91 116
-136 160 l-82 79 13 -60 c43 -196 83 -295 172 -423 152 -222 116 -230 -67 -14
-234 276 -283 326 -269 277 31 -106 39 -195 17 -182 -13 8 -23 28 -23 45 0
115 -312 565 -557 804 -234 227 -245 245 -89 140 127 -87 128 -67 3 49 -109
100 -111 105 -75 138 67 63 317 -179 539 -520 96 -150 110 -163 133 -132 31
43 33 62 6 78 -11 7 -20 26 -20 44 0 24 6 26 27 9 15 -13 32 -17 38 -11 18 18
-6 68 -32 69 -13 1 -71 60 -130 132 -59 71 -112 124 -118 118 -6 -6 13 -34 42
-63 29 -30 53 -63 53 -75 0 -12 -33 14 -74 58 -40 43 -94 93 -118 110 -71 47
-373 341 -363 351 12 12 115 -34 115 -50 0 -30 140 -165 158 -153 14 8 3 30
-27 57 -95 86 -174 294 -111 294 11 0 20 -8 20 -18 0 -11 41 -79 90 -153 50
-74 90 -139 90 -145 0 -20 102 -144 119 -144 24 0 46 65 26 78 -36 27 -205
238 -205 257 0 12 -11 26 -25 31 -20 7 -19 15 1 37 23 23 31 21 54 -10 16 -22
37 -31 52 -22 14 9 19 7 12 -5 -14 -22 52 -93 70 -76 6 6 22 -3 36 -20 14 -16
33 -30 44 -30 33 0 -92 156 -154 192 -78 45 -242 203 -227 218 7 6 74 -38 150
-99 75 -61 148 -111 162 -111 44 0 27 40 -26 60 -84 32 -367 274 -346 295 12
12 1 31 -30 51 -41 27 -53 28 -72 6z m53 -958 c25 -22 40 -48 34 -57 -20 -32
-44 -17 -86 54 -43 73 -26 74 52 3z m98 -221 c-7 -29 42 -102 174 -261 221
-267 234 -281 234 -253 0 38 35 22 50 -24 8 -25 16 -49 18 -55 2 -5 15 -31 29
-57 36 -64 8 -83 -36 -25 -19 26 -45 42 -57 35 -22 -14 -153 104 -136 122 6 5
34 -18 64 -53 80 -96 81 -60 1 51 -75 103 -153 179 -153 148 0 -10 9 -24 20
-31 11 -7 30 -32 43 -56 21 -39 20 -41 -8 -18 -25 21 -33 21 -40 0 -6 -16 -43
12 -97 74 -48 55 -118 132 -156 170 -80 82 -88 163 -31 306 20 52 96 -17 81
-73z m-224 -193 c3 -49 15 -108 28 -130 12 -22 38 -76 56 -120 19 -44 39 -88
44 -98 6 -10 0 -12 -13 -4 -13 8 -23 23 -23 33 0 11 -33 66 -73 123 -79 113
-103 221 -76 350 l15 76 19 -70 c10 -38 21 -110 23 -160z m-69 -344 c0 -40 10
-79 21 -86 34 -21 22 -70 -17 -70 -53 0 -85 179 -50 272 19 49 44 -14 46 -116z
m121 -37 c0 -22 -8 -39 -18 -39 -23 0 -45 58 -31 82 18 28 49 1 49 -43z"/>
<path d="M420 2749 c0 -15 18 -39 40 -55 22 -15 34 -34 27 -41 -8 -7 -5 -13 7
-13 11 0 50 -45 88 -100 37 -55 75 -100 84 -100 22 0 -18 69 -78 134 -28 30
-46 70 -41 89 9 37 -49 102 -98 109 -16 3 -29 -8 -29 -23z"/>
<path d="M793 3811 c-12 -33 33 -78 57 -56 9 8 10 4 3 -9 -8 -13 13 -51 48
-87 63 -64 109 -68 56 -4 -16 19 -40 59 -52 89 -29 67 -96 108 -112 67z"/>
<path d="M3558 3725 c-83 -89 -127 -145 -113 -145 6 0 52 50 104 110 108 126
113 146 9 35z"/>
<path d="M5519 3608 c-86 -26 -334 -144 -348 -166 -4 -7 20 -13 53 -14 39 -2
50 3 33 14 -18 12 -9 17 30 18 32 0 113 14 180 32 78 20 165 28 239 22 132
-12 241 27 230 83 -8 42 -285 50 -417 11z"/>
<path d="M1349 3560 c9 -16 29 -43 43 -60 14 -16 25 -39 25 -49 0 -11 11 -24
24 -28 16 -5 19 1 9 17 -11 17 -8 21 7 12 13 -8 19 -22 14 -31 -6 -9 7 -39 29
-66 21 -27 32 -57 24 -66 -8 -8 -5 -10 6 -4 19 10 87 -46 73 -61 -7 -7 38 -63
299 -374 158 -188 350 -459 499 -704 48 -80 91 -141 95 -137 4 4 -17 44 -45
90 -29 45 -47 91 -41 102 7 10 2 19 -10 19 -12 0 -17 8 -11 18 6 10 4 22 -4
25 -47 21 -312 449 -295 477 6 10 0 24 -13 32 -15 9 -18 5 -7 -12 10 -17 8
-21 -6 -12 -12 7 -18 24 -13 38 11 28 -219 319 -419 530 -143 150 -314 298
-283 244z"/>
<path d="M5150 3541 c-33 -8 -98 -34 -144 -58 -47 -24 -98 -43 -115 -43 -33 0
-198 -140 -183 -155 17 -17 467 202 490 238 12 21 20 36 17 35 -3 -1 -32 -9
-65 -17z"/>
<path d="M2384 3434 c-69 -71 -79 -93 -38 -87 58 9 137 90 120 122 -15 26 -28
21 -82 -35z"/>
<path d="M3142 3360 c-76 -106 -180 -371 -193 -496 l-10 -94 37 120 c20 66 70
185 110 265 41 79 74 155 74 168 0 13 15 40 33 61 18 20 28 42 22 48 -7 6 -39
-26 -73 -72z"/>
<path d="M5170 3301 c-261 -68 -506 -189 -591 -292 -19 -23 10 -15 91 26 214
108 494 206 619 217 l121 11 -80 -38 c-44 -21 -128 -54 -186 -74 -61 -20 -136
-65 -175 -104 -59 -58 -69 -62 -69 -29 0 47 -94 29 -179 -34 -64 -48 -83 -97
-25 -66 50 27 64 28 64 3 0 -10 -17 -24 -38 -30 -41 -13 -122 -78 -122 -98 0
-7 70 22 155 65 281 141 552 201 646 144 75 -46 65 -53 -95 -69 -58 -6 -170
-30 -250 -54 -97 -29 -147 -36 -152 -21 -8 23 -107 -20 -169 -73 -42 -37 -26
-72 23 -46 51 27 283 78 271 60 -5 -9 -43 -27 -83 -40 -94 -31 -256 -126 -256
-150 0 -36 -66 -112 -78 -92 -7 11 -4 26 8 33 31 19 24 50 -10 37 -16 -6 -25
-19 -19 -28 6 -10 -27 -37 -73 -60 -56 -28 -76 -49 -63 -62 14 -14 36 -11 68
9 45 29 169 46 459 64 171 10 238 28 238 62 0 15 17 28 38 28 21 0 43 13 49
29 7 18 1 25 -14 19 -13 -5 -60 -14 -104 -19 -43 -6 -110 -16 -149 -21 -130
-19 -300 -25 -300 -11 0 38 222 146 251 122 25 -20 28 -19 17 8 -7 18 -5 34 5
36 9 1 35 5 57 8 22 3 77 19 123 36 166 60 251 61 375 5 149 -69 177 -59 92
33 -22 23 -40 54 -40 69 0 14 -22 26 -50 26 -28 0 -50 12 -50 27 0 18 30 26
101 26 60 0 90 -6 75 -16 -24 -15 19 -27 69 -19 21 3 19 -33 -4 -75 -23 -45
10 -107 36 -67 9 14 30 20 48 13 54 -20 60 30 6 54 -47 21 -48 25 -16 50 74
57 -59 134 -209 122 -74 -6 -132 -2 -139 10 -13 20 -149 11 -212 -15 -24 -10
-35 -5 -35 15 0 17 46 44 115 67 63 21 120 44 125 52 25 32 129 55 201 43 63
-9 79 -6 79 18 0 51 -109 81 -240 67 -79 -9 -120 -7 -120 7 0 30 -69 24 -230
-18z"/>
<path d="M874 3207 c-23 -22 -16 -47 11 -42 14 3 23 -7 20 -21 -4 -20 4 -21
35 -4 45 24 56 70 12 54 -15 -6 -36 -2 -46 8 -10 10 -25 13 -32 5z"/>
<path d="M628 3099 c138 -153 146 -159 82 -69 -31 44 -84 102 -118 129 -41 33
-29 13 36 -60z"/>
<path d="M1602 3005 c35 -52 93 -131 128 -175 34 -44 69 -98 77 -120 13 -39
13 -39 -17 -1 -16 21 -30 30 -29 20 0 -22 70 -109 87 -109 42 0 -8 99 -138
276 -154 209 -222 278 -108 109z"/>
<path d="M2871 2975 c-4 -14 -16 -53 -27 -87 -20 -62 -6 -189 32 -288 14 -36
19 12 17 175 -3 219 -6 251 -22 200z"/>
<path d="M4188 2741 c-129 -97 -179 -140 -163 -141 15 0 255 181 255 193 0 14
-16 5 -92 -52z"/>
<path d="M4530 2778 c-269 -230 -420 -324 -269 -166 l69 72 -75 -44 c-42 -24
-92 -66 -113 -92 -22 -27 -50 -43 -67 -37 -34 13 -84 -40 -66 -70 8 -12 2 -21
-13 -21 -100 0 -417 -422 -426 -568 l-6 -102 31 70 c17 39 34 60 38 48 5 -12
-9 -62 -30 -112 -31 -71 -39 -134 -37 -308 1 -174 4 -194 13 -98 7 66 28 156
48 200 120 262 301 625 328 655 17 19 25 41 18 49 -8 7 -40 -17 -72 -55 -54
-64 -58 -65 -47 -19 15 66 118 174 212 223 42 21 94 57 117 80 31 31 46 35 57
17 11 -18 29 -12 67 21 28 25 47 53 41 62 -6 9 8 17 30 17 22 0 45 9 52 20 20
32 55 23 43 -11 -9 -21 16 -14 82 24 123 70 126 73 55 56 -33 -8 -69 -22 -79
-32 -29 -27 -48 -20 -43 15 3 18 26 48 51 67 26 20 38 40 29 46 -10 6 -27 3
-38 -7z"/>
<path d="M5254 2718 c12 -12 88 -29 169 -37 121 -13 130 -16 53 -18 -145 -4
-108 -55 40 -56 129 0 271 -32 224 -50 -16 -6 -52 -8 -80 -5 -214 27 -285 31
-329 20 -89 -22 -55 -42 83 -49 142 -6 190 -23 258 -91 24 -23 85 -77 137
-121 110 -92 151 -162 151 -259 0 -38 9 -75 20 -82 13 -8 20 69 20 217 l0 229
-65 57 c-36 31 -92 78 -125 103 l-60 47 60 -13 c44 -9 54 -7 38 9 -12 13 -97
38 -190 57 -92 19 -171 41 -175 49 -3 8 -61 15 -129 15 -88 0 -116 -6 -100
-22z"/>
<path d="M1100 2671 c0 -42 75 -236 108 -282 43 -59 27 140 -19 236 -36 75
-89 102 -89 46z"/>
<path d="M3511 2436 c-48 -69 -37 -89 19 -36 28 26 50 54 50 63 0 32 -38 17
-69 -27z"/>
<path d="M5455 2468 c-7 -7 -65 -12 -130 -11 -64 1 -188 -15 -275 -36 -88 -21
-166 -33 -175 -28 -8 5 -15 1 -15 -10 0 -29 -173 -90 -202 -72 -18 11 -21 5
-11 -19 7 -20 13 -39 13 -44 0 -5 26 4 57 20 31 17 101 41 155 54 54 13 109
32 122 42 15 12 46 7 87 -14 35 -18 58 -24 50 -12 -7 12 11 26 43 33 31 6 77
20 102 30 26 11 71 14 100 7 43 -9 48 -7 24 12 -24 18 -16 20 35 11 171 -29
196 -31 155 -12 -40 18 -40 18 0 22 34 2 32 5 -10 19 -64 20 -110 23 -125 8z"/>
<path d="M2841 2410 c0 -33 8 -73 18 -89 35 -55 47 30 13 92 l-30 57 -1 -60z"/>
<path d="M4162 2368 c-25 -32 -56 -58 -69 -59 -13 0 -21 -11 -19 -23 3 -12
-30 -61 -71 -109 -74 -84 -127 -173 -165 -277 -18 -48 -17 -49 13 -10 17 22
35 37 41 34 14 -7 95 112 138 204 21 43 44 66 57 59 13 -8 17 -6 9 2 -8 9 18
55 57 103 39 48 67 97 63 111 -5 13 -27 -1 -54 -35z"/>
<path d="M4364 2339 c-37 -19 -83 -50 -102 -67 -19 -18 -44 -32 -55 -32 -11 0
-41 -22 -67 -50 -46 -49 -31 -73 16 -26 19 19 24 18 24 -1 0 -15 33 1 75 36
41 33 82 61 91 61 9 0 44 27 77 60 66 66 42 74 -59 19z"/>
<path d="M3712 2275 c-49 -56 -152 -235 -152 -265 0 -6 50 62 111 152 117 171
135 220 41 113z"/>
<path d="M5448 2287 c-6 -20 -12 -45 -14 -56 -2 -10 59 -20 135 -23 134 -4
141 -7 197 -76 32 -40 67 -72 79 -72 12 0 6 16 -12 37 -41 45 -43 71 -3 56 38
-15 38 8 1 58 -27 35 -30 36 -30 4 -1 -19 -9 -35 -19 -35 -10 0 -14 16 -9 35
7 28 -12 41 -97 62 -195 50 -218 51 -228 10z"/>
<path d="M5200 2260 c21 -14 -6 -16 -85 -7 -91 10 -116 6 -126 -17 -6 -17 -36
-31 -68 -32 -70 -2 -228 -43 -215 -56 5 -5 51 1 101 13 51 13 124 20 162 15
39 -4 71 -1 71 6 0 25 117 42 153 22 24 -14 42 -12 61 7 42 42 30 69 -29 69
-43 -1 -49 -5 -25 -20z"/>
<path d="M4514 2247 c-7 -6 -42 -13 -78 -15 -66 -3 -147 -45 -232 -120 -59
-53 -179 -65 -140 -15 23 29 22 30 -9 6 -19 -15 -30 -36 -24 -45 6 -10 3 -18
-6 -18 -10 0 -38 -36 -62 -80 -25 -43 -58 -86 -74 -95 -77 -44 -203 -354 -217
-537 -8 -116 -6 -168 6 -149 13 20 17 -33 11 -157 -9 -189 3 -290 31 -272 9 6
11 -9 5 -33 -8 -31 -4 -39 13 -28 18 11 21 64 11 198 -15 196 7 307 88 467 23
45 36 86 29 93 -6 7 -3 24 8 38 12 14 19 52 17 85 -5 78 34 171 136 328 46 70
81 137 78 150 -3 12 6 7 21 -11 23 -30 38 -25 161 56 75 50 168 101 208 115
40 14 63 31 51 38 -11 7 -26 8 -32 1z m-656 -610 c-14 -26 -54 -128 -91 -227
-42 -117 -65 -161 -66 -125 -2 95 143 438 172 408 6 -5 -1 -31 -15 -56z"/>
<path d="M5494 2178 c13 -13 19 -34 14 -47 -10 -26 164 -211 199 -211 13 0 12
9 -3 24 -32 32 -30 49 7 64 17 6 26 4 21 -5 -20 -32 36 -84 67 -64 40 25 -15
86 -128 140 -46 23 -103 59 -126 81 -45 41 -90 57 -51 18z m186 -161 c0 -34
-33 -16 -101 56 l-69 72 85 -55 c47 -30 85 -63 85 -73z"/>
<path d="M4785 2110 c-182 -49 -240 -80 -115 -62 l80 12 -60 -29 c-33 -16 -91
-30 -130 -30 -38 -1 -106 -24 -150 -50 -44 -27 -107 -62 -141 -77 -68 -32
-249 -224 -249 -265 0 -61 -30 -40 -31 22 -1 37 4 63 11 59 8 -5 35 20 61 56
25 35 63 76 83 90 20 15 50 54 68 87 l31 61 -63 -37 c-76 -44 -180 -157 -180
-196 0 -15 -9 -31 -21 -35 -11 -3 -22 -27 -24 -52 -2 -28 -13 -41 -29 -35 -31
12 -35 -21 -5 -40 12 -7 18 -23 13 -36 -4 -12 14 -39 39 -59 26 -20 47 -54 47
-75 0 -68 48 -41 95 51 25 49 45 103 45 120 0 51 55 33 69 -22 12 -51 -51
-127 -94 -113 -8 3 -13 -11 -12 -30 6 -72 -4 -105 -33 -105 -18 0 -30 -19 -30
-47 0 -77 -95 -249 -113 -203 -9 23 -5 41 10 46 19 6 19 15 2 36 -13 15 -18
41 -12 57 6 16 4 34 -6 40 -26 16 -43 -46 -28 -103 7 -28 4 -56 -7 -63 -11 -7
-25 -48 -32 -91 l-12 -78 41 44 c54 59 65 44 25 -36 -17 -35 -27 -77 -20 -93
6 -16 3 -29 -6 -29 -32 0 -43 -122 -13 -152 50 -50 91 -34 91 37 1 47 6 57 19
36 10 -16 14 -53 8 -82 -9 -42 -2 -56 31 -64 28 -8 38 -22 30 -43 -10 -26 -1
-30 51 -19 37 7 83 2 110 -13 41 -21 63 -17 163 30 64 30 148 59 188 65 71 9
179 72 160 92 -6 6 -61 -7 -123 -28 -173 -58 -251 -64 -263 -17 -6 21 -2 38 8
38 10 0 16 11 13 24 -4 22 47 39 201 69 26 4 73 35 105 68 32 32 66 59 76 59
10 0 24 14 31 31 8 23 21 26 47 12 41 -22 73 -3 140 85 25 31 45 49 45 40 0
-10 9 -4 20 12 11 17 19 21 20 10 0 -25 -177 -208 -249 -257 -29 -20 -50 -41
-45 -46 21 -20 131 43 225 129 215 198 246 224 267 224 60 0 -9 -129 -144
-273 -41 -42 -74 -86 -74 -97 0 -11 -24 -38 -53 -60 -30 -22 -100 -78 -157
-125 -101 -83 -378 -225 -438 -225 -16 0 -35 -9 -42 -20 -33 -53 227 -1 307
62 26 21 56 33 65 27 10 -6 18 -2 18 10 0 11 34 38 75 60 41 21 98 51 125 65
28 14 68 42 89 61 22 20 51 31 66 26 18 -7 23 5 16 41 -7 40 -2 49 21 40 17
-6 25 -3 19 7 -7 10 -3 24 8 30 88 55 266 372 192 344 -20 -8 -22 6 -9 64 22
96 22 103 -4 103 -12 0 -17 -13 -11 -30 7 -16 3 -30 -8 -30 -10 0 -19 -13 -19
-30 0 -16 -13 -30 -30 -30 -16 0 -30 9 -30 20 0 11 8 20 18 20 9 0 22 18 28
40 6 22 2 40 -7 40 -10 0 -9 23 2 51 14 39 12 59 -11 82 -16 16 -30 43 -30 60
0 16 -25 62 -55 101 l-54 72 64 -10 c70 -10 77 2 44 70 -19 40 -19 41 7 9 16
-19 43 -35 61 -35 32 0 26 44 -11 90 -9 11 -34 43 -55 72 -53 70 -211 104
-404 86 -81 -7 -171 -14 -200 -15 -64 -4 -220 -111 -321 -222 -60 -65 -79 -76
-99 -56 -42 42 301 325 394 325 23 0 52 11 65 24 58 58 513 22 529 -42 6 -23
36 -43 74 -52 72 -15 76 -23 88 -153 9 -96 64 -195 108 -196 14 -1 23 10 20
23 -3 13 14 25 37 25 23 1 58 15 79 31 20 17 31 20 23 8 -7 -13 5 -39 26 -58
21 -19 34 -43 28 -52 -5 -10 5 -12 24 -4 24 9 30 5 20 -11 -26 -41 -30 -206
-7 -244 16 -25 17 -49 2 -82 -19 -43 -26 -33 -69 103 -26 83 -55 153 -63 157
-8 3 -15 19 -15 35 0 15 -9 28 -20 28 -11 0 -20 -11 -20 -25 -1 -19 -4 -19
-16 -1 -9 15 -26 17 -43 7 -23 -15 -22 -23 6 -51 18 -18 33 -43 33 -56 0 -14
9 -12 20 6 21 32 30 7 21 -56 -2 -15 7 -40 20 -55 17 -21 17 -29 1 -29 -12 0
-22 -10 -22 -21 0 -12 9 -16 20 -9 12 8 21 -36 24 -114 2 -69 6 -157 9 -196 4
-66 -65 -262 -98 -277 -8 -3 -15 -25 -15 -47 0 -33 -5 -36 -28 -17 -23 18 -42
11 -95 -35 -90 -77 -510 -316 -660 -375 -180 -71 -276 -117 -276 -134 -1 -20
186 -19 210 1 10 9 55 27 99 41 114 37 251 104 316 156 32 27 68 40 88 33 19
-8 28 -5 20 8 -7 11 12 33 42 48 78 40 231 142 251 167 11 14 19 13 26 -4 14
-35 63 33 135 185 84 179 91 197 99 240 4 22 14 55 22 73 8 19 11 124 7 234
-7 169 -3 197 20 178 16 -13 24 -46 19 -79 -4 -31 -1 -56 8 -56 17 0 25 85 17
180 -8 106 58 -28 137 -280 l41 -130 1 106 c2 228 -377 864 -514 864 -20 0
-50 11 -66 25 -16 14 -1 -6 33 -45 117 -134 217 -314 163 -294 -14 5 -41 1
-60 -9 -26 -14 -31 -11 -22 12 6 17 19 26 29 20 54 -34 -12 80 -168 287 -81
108 -92 113 -319 134 -75 7 -130 21 -124 32 6 10 9 17 5 16 -3 -2 -80 -23
-171 -48z m109 -459 c130 -112 192 -282 153 -426 -21 -79 -45 -48 -51 65 -3
61 -15 111 -26 111 -11 1 -35 30 -54 65 -19 35 -35 55 -36 44 0 -11 -5 -100
-11 -197 -8 -153 -18 -188 -67 -260 -106 -154 -202 -236 -202 -173 0 11 -8 20
-18 20 -10 0 -13 -19 -7 -43 7 -28 4 -39 -10 -30 -12 7 -26 2 -31 -12 -7 -20
-14 -20 -36 0 -19 18 -19 25 -2 25 13 0 24 9 24 20 0 36 -37 21 -50 -20 -7
-22 -30 -40 -50 -40 -21 0 -43 -9 -50 -20 -7 -11 -25 -20 -41 -20 -41 0 -13
56 36 72 23 7 60 29 81 49 22 21 70 52 108 70 38 17 73 45 79 60 6 16 20 23
31 16 22 -13 55 27 56 68 0 39 -50 30 -92 -17 -20 -23 -69 -57 -108 -76 -96
-47 -163 -87 -196 -117 -15 -14 -35 -25 -45 -25 -10 0 -16 -40 -14 -90 2 -58
13 -90 29 -90 33 0 32 -20 -2 -65 -31 -41 -83 -46 -106 -10 -9 14 -34 35 -56
47 -97 54 -55 244 46 206 27 -11 54 -14 60 -9 6 6 1 11 -11 11 -72 0 -142 100
-121 175 23 86 122 269 165 304 16 13 35 52 42 87 53 242 404 377 583 225z
m23 -591 c-24 -44 -52 -80 -61 -80 -22 0 -21 55 2 69 21 13 80 190 86 255 2
25 7 -1 11 -59 5 -82 -3 -124 -38 -185z"/>
<path d="M4607 1501 c-34 -8 -79 -22 -100 -31 -47 -21 -60 -24 -97 -27 -16 -2
-30 -13 -30 -25 0 -13 18 -18 41 -12 35 9 38 6 16 -20 -28 -33 90 -32 166 2
24 11 37 3 47 -27 18 -57 40 -52 92 21 43 61 43 62 2 40 -24 -12 -46 -14 -53
-4 -6 10 3 23 19 29 42 16 38 73 -5 71 -19 -1 -63 -9 -98 -17z"/>
<path d="M93 2087 c-52 -53 3 -212 58 -166 19 16 29 16 29 2 0 -11 -15 -29
-33 -39 -42 -24 -42 -145 1 -277 7 -24 16 -159 20 -300 4 -171 16 -280 36
-327 16 -38 36 -124 43 -190 15 -131 88 -385 92 -320 4 67 39 -12 71 -156 15
-68 28 -104 28 -79 2 47 42 65 42 19 0 -50 132 -201 160 -184 18 11 47 5 216
-47 48 -15 64 -14 62 3 -8 64 2 71 67 53 141 -41 166 38 71 218 -184 349 -217
586 -88 629 15 5 14 17 -3 38 -14 17 -20 46 -13 63 14 37 52 23 44 -15 -11
-49 126 -194 169 -180 32 10 37 5 26 -28 -9 -28 2 -51 38 -80 30 -24 51 -60
51 -90 0 -27 14 -55 30 -61 39 -15 39 -51 0 -66 -38 -14 -139 82 -120 114 8
12 -4 42 -26 65 -21 24 -45 63 -53 87 -10 34 -98 87 -142 87 -11 0 3 -59 17
-73 8 -7 14 -30 14 -50 0 -21 22 -57 50 -81 52 -45 66 -96 27 -96 -13 0 -19
-5 -12 -11 6 -7 30 0 53 14 53 33 103 -4 65 -49 -30 -36 48 -75 107 -54 22 8
47 11 55 6 8 -4 15 6 15 23 0 17 14 31 30 31 17 0 30 9 30 20 0 11 10 20 21
20 12 0 16 -17 10 -38 -7 -21 -3 -44 8 -51 12 -8 16 -1 9 16 -15 40 120 10
174 -38 49 -45 38 -56 -29 -30 -29 11 -53 12 -53 3 0 -38 315 -342 353 -342
23 0 57 -18 77 -40 50 -56 230 -52 230 4 0 11 -14 15 -31 8 -20 -7 -50 10 -82
48 -28 33 -61 60 -74 60 -26 0 -52 27 -143 150 -33 44 -77 99 -100 122 -61 63
-100 116 -101 138 -3 50 -52 132 -74 125 -45 -15 -39 -69 9 -82 34 -9 40 -17
23 -34 -40 -40 -104 -4 -98 53 4 38 -7 57 -42 73 -51 23 -67 67 -17 48 78 -30
8 38 -235 227 -351 274 -354 275 -145 68 235 -234 377 -401 361 -427 -21 -34
-51 -24 -51 17 0 74 -453 496 -632 588 -99 51 -269 112 -257 92 19 -31 -36
-20 -74 15 -29 26 -42 28 -65 8 -24 -19 -36 -14 -63 28 -18 28 -48 51 -66 51
-28 1 -28 4 -4 19 22 14 23 24 4 47 -83 101 83 83 279 -30 194 -112 245 -175
70 -86 -55 28 -118 49 -140 49 -42 -2 -20 -14 164 -92 136 -57 100 52 -40 125
-30 16 -50 40 -45 54 6 14 -47 73 -121 134 -132 109 -203 194 -182 215 7 6 12
1 12 -12 0 -13 11 -21 24 -18 13 3 25 -6 25 -18 2 -39 25 -51 38 -19 7 20 -29
67 -103 134 -63 57 -100 94 -82 81 17 -12 85 -51 150 -85 156 -82 398 -246
498 -337 44 -40 98 -85 120 -100 22 -15 -2 10 -53 55 -51 46 -98 104 -104 129
-7 28 -45 64 -97 91 -114 59 -417 254 -433 278 -30 45 -124 78 -150 53z m463
-874 c4 -19 -6 -33 -25 -33 -18 0 -31 17 -31 42 0 48 47 42 56 -9z m271 -149
c31 -13 52 -36 47 -49 -5 -14 5 -41 22 -60 42 -48 -1 -44 -45 4 -31 34 -39 36
-65 10 -33 -33 -66 -22 -66 23 0 16 -22 53 -48 82 -71 76 -45 121 35 61 35
-26 88 -57 120 -71z m-401 -29 c19 -58 37 -114 41 -125 46 -157 105 -310 118
-310 10 0 12 -9 5 -20 -7 -11 2 -26 19 -32 17 -7 31 -34 31 -60 0 -26 9 -48
20 -48 11 0 20 -13 20 -30 0 -16 11 -30 25 -30 17 -1 15 -7 -5 -20 -26 -17
-25 -19 5 -20 19 0 35 -12 35 -27 0 -15 18 -47 40 -73 21 -25 34 -53 28 -63
-6 -9 -1 -17 11 -17 11 0 21 -7 21 -17 0 -23 -65 -22 -95 2 -14 11 -25 37 -25
57 0 43 -31 51 -47 13 -5 -14 -11 9 -11 50 -2 80 -41 106 -44 30 -1 -35 -6
-31 -20 19 -10 35 -27 70 -38 76 -11 7 -20 33 -20 59 0 25 -12 56 -28 69 -15
12 -38 63 -52 113 -14 49 -33 95 -43 101 -9 6 -17 30 -17 54 0 24 -14 80 -29
124 -34 92 -39 137 -14 122 10 -6 15 16 11 48 -11 95 21 70 58 -45z m225 -153
c53 16 193 -207 184 -294 -5 -52 0 -90 13 -95 12 -4 16 -14 9 -21 -7 -8 -26 0
-42 16 -17 17 -35 25 -41 19 -15 -15 -73 78 -84 134 -5 25 -18 51 -28 58 -11
6 -29 37 -41 68 -11 30 -13 50 -3 44 10 -6 23 3 30 20 9 24 2 29 -25 20 -32
-10 -36 -4 -27 43 8 44 13 48 23 19 7 -20 21 -34 32 -31z m449 -164 c0 -21 -9
-38 -19 -38 -28 0 -65 77 -50 101 18 30 69 -17 69 -63z m-121 -372 c30 -34 26
-47 -9 -33 -31 11 -44 -42 -15 -58 8 -5 4 -6 -10 -2 -14 3 -25 -3 -25 -14 0
-10 -7 -19 -16 -19 -24 0 -25 87 -1 102 15 9 15 25 0 53 -28 52 -2 78 31 31
13 -20 34 -47 45 -60z"/>
<path d="M1033 1984 c-6 -9 -2 -29 8 -45 10 -16 19 -46 19 -67 0 -38 121 -178
185 -214 39 -22 14 60 -38 123 -15 17 -22 51 -18 75 10 51 -132 168 -156 128z"/>
<path d="M5801 1921 c-27 -17 35 -129 143 -257 74 -87 71 -44 -4 66 -35 52
-52 93 -40 100 30 19 24 37 -27 73 -27 20 -57 27 -72 18z"/>
<path d="M1240 1829 c0 -6 36 -59 80 -119 44 -60 80 -116 80 -125 0 -9 27 -32
60 -52 33 -19 60 -43 60 -51 0 -27 292 -242 327 -242 47 0 -12 104 -118 208
-83 83 -70 123 22 64 27 -18 74 -47 104 -66 l55 -34 -40 45 c-72 85 -234 193
-486 327 -104 55 -144 67 -144 45z"/>
<path d="M360 1767 c0 -19 5 -29 11 -23 6 6 52 -30 101 -81 84 -87 88 -89 59
-29 -55 113 -171 203 -171 133z"/>
<path d="M814 1673 c28 -50 201 -193 233 -193 16 0 33 -20 37 -45 4 -33 50
-68 177 -135 94 -49 191 -102 215 -116 24 -14 45 -23 46 -20 12 46 11 74 -1
66 -9 -5 -21 8 -27 30 -14 56 22 49 112 -19 49 -36 67 -61 50 -67 -15 -6 1
-21 39 -37 36 -14 65 -33 65 -41 0 -9 14 -16 30 -16 17 0 30 -14 30 -31 0 -17
8 -27 17 -21 9 6 74 -43 145 -110 111 -104 130 -115 151 -88 29 41 112 7 244
-100 47 -39 95 -65 104 -59 10 6 13 -3 7 -20 -16 -42 -20 -41 -115 34 -67 53
-76 57 -49 18 38 -55 156 -132 156 -103 0 56 172 -94 282 -246 30 -42 79 -95
109 -118 l53 -42 -37 65 c-20 36 -46 83 -57 103 -11 21 -31 38 -46 38 -18 0
-22 14 -13 43 10 33 7 40 -16 32 -19 -8 -48 18 -86 78 -33 53 -66 85 -82 78
-15 -5 -27 0 -27 11 0 11 -8 15 -18 9 -10 -6 -14 6 -8 28 13 49 -112 237 -134
201 -9 -15 -26 -18 -41 -9 -18 11 -22 6 -13 -17 28 -75 -72 -16 -186 107 -102
112 -115 121 -95 65 12 -35 31 -58 42 -52 11 7 13 2 6 -10 -8 -11 -5 -27 7
-34 11 -7 20 -22 20 -33 0 -11 -38 12 -84 51 -46 40 -95 72 -110 72 -14 0 -26
12 -26 26 0 30 -314 285 -383 312 -26 9 -123 63 -215 120 -93 56 -178 102
-190 102 -12 0 -67 21 -122 47 -141 65 -218 83 -196 46z"/>
<path d="M40 1613 c0 -27 19 -70 41 -96 39 -44 40 -44 20 -3 -11 24 -21 61
-21 84 0 22 -9 45 -20 52 -11 7 -20 -9 -20 -37z"/>
<path d="M5288 1628 c7 -17 12 -44 12 -60 0 -17 20 -28 50 -28 63 0 63 21 0
76 -60 52 -79 56 -62 12z"/>
<path d="M601 1622 c2 -58 128 -172 190 -172 77 -1 76 -1 49 50 -35 66 -242
171 -239 122z"/>
<path d="M5919 1560 c21 -49 49 -93 62 -97 25 -8 -17 80 -69 147 -24 29 -22
16 7 -50z"/>
<path d="M3869 1358 c-18 -34 -35 -100 -38 -147 -3 -47 -10 -94 -16 -103 -6
-10 -14 -40 -17 -68 -8 -57 29 -82 38 -26 23 146 73 286 102 287 27 0 26 5 -6
29 -21 16 -32 41 -25 59 21 54 -5 33 -38 -31z"/>
<path d="M1303 1192 c12 -28 40 -57 60 -63 20 -6 37 -26 37 -43 0 -50 121
-157 141 -124 21 34 6 56 -53 79 -26 10 -48 31 -48 47 0 16 -36 57 -81 92 -79
63 -80 64 -56 12z"/>
<path d="M1154 1107 c103 -95 197 -167 218 -167 23 0 -103 108 -212 182 l-90
62 84 -77z"/>
<path d="M1522 1075 c80 -75 89 -92 72 -130 -19 -43 35 -143 62 -115 6 5 -6
28 -26 50 -38 42 -15 57 26 16 19 -19 24 -17 24 9 0 18 -9 38 -20 45 -30 19
-24 50 8 38 32 -12 52 -160 26 -186 -11 -11 -1 -24 23 -31 24 -8 37 -24 30
-41 -6 -15 8 -39 31 -54 23 -14 42 -36 42 -49 0 -13 7 -27 15 -30 17 -8 100
-137 144 -222 29 -58 67 -75 57 -26 -3 15 1 29 9 30 44 4 55 -2 55 -27 0 -15
14 -33 30 -39 41 -16 38 -48 -5 -59 -32 -8 -31 -10 2 -12 25 -1 33 -12 26 -32
-7 -17 -3 -30 8 -30 10 0 19 14 19 30 0 17 14 30 32 30 19 0 28 -11 22 -28 -6
-15 -1 -37 11 -49 12 -12 24 -46 27 -75 11 -99 113 -119 185 -37 l44 51 -43
60 c-23 33 -54 56 -68 51 -16 -7 -22 3 -16 25 6 24 -51 111 -163 252 -95 118
-181 232 -192 252 -11 21 -49 53 -85 71 l-64 33 65 -61 c114 -107 75 -106 -49
1 -23 21 -52 32 -64 26 -27 -17 -65 57 -50 97 8 20 1 31 -19 31 -16 0 -35 16
-42 35 -6 19 -72 69 -146 110 l-135 75 92 -85z m490 -545 c1 -11 9 -36 17 -56
19 -44 7 -59 -34 -43 -17 6 -35 40 -41 75 -5 35 -16 87 -23 114 -13 48 -12 48
33 -10 25 -33 47 -69 48 -80z m55 81 c18 -27 25 -54 15 -60 -16 -9 -82 70 -82
98 0 28 39 6 67 -38z"/>
<path d="M5858 1110 c-2 -33 -5 -82 -8 -110 -7 -69 8 -100 42 -87 17 7 28 -2
28 -23 0 -23 10 -30 32 -22 17 7 35 12 40 12 4 0 8 20 8 45 -1 33 -5 38 -18
17 -24 -38 -62 -9 -62 47 0 25 -13 77 -29 114 l-29 67 -4 -60z"/>
<path d="M2370 1078 c31 -52 218 -328 236 -348 35 -38 -52 121 -129 234 -69
102 -150 189 -107 114z"/>
<path d="M5782 1000 c-21 -134 -21 -167 -1 -147 12 12 18 57 14 99 -5 43 -10
65 -13 48z"/>
<path d="M3040 830 c0 -16 9 -30 20 -30 11 0 20 -17 20 -39 0 -21 10 -45 23
-53 14 -8 18 -5 10 7 -7 12 -2 26 12 32 18 8 16 18 -10 39 -19 16 -35 39 -35
51 0 13 -9 23 -20 23 -11 0 -20 -13 -20 -30z"/>
<path d="M2192 745 c20 -82 48 -128 69 -114 28 17 23 64 -13 120 -43 65 -72
62 -56 -6z"/>
<path d="M5882 653 c-23 -37 -42 -78 -42 -92 0 -13 -10 -17 -21 -10 -12 7 -27
-6 -33 -29 -6 -23 -19 -42 -30 -42 -10 0 -13 -8 -7 -18 6 -9 -3 -29 -19 -42
-25 -20 -30 -19 -30 8 0 49 -24 39 -90 -38 -70 -80 -106 -93 -58 -20 30 46 30
50 0 50 -17 0 -32 -13 -32 -29 0 -15 -18 -34 -40 -41 -41 -13 -56 -50 -20 -50
11 0 20 -10 20 -22 0 -12 -13 -17 -30 -11 -16 6 -27 4 -25 -6 3 -9 1 -16 -5
-15 -16 2 -115 -94 -116 -114 0 -10 -13 -25 -27 -34 -22 -14 -21 -17 3 -18 17
0 64 23 105 50 41 28 69 39 64 24 -6 -14 -37 -42 -70 -61 -32 -19 -59 -48 -59
-64 0 -47 70 -33 132 26 32 31 102 87 157 125 54 39 123 97 154 130 51 56 56
58 81 24 55 -73 96 -2 109 188 14 196 -7 235 -71 131z"/>
<path d="M2280 592 c0 -26 14 -53 30 -59 17 -7 30 -24 30 -40 0 -15 13 -39 28
-51 22 -19 27 -16 25 12 -5 64 106 37 186 -46 l71 -72 -97 72 c-89 66 -153 91
-153 59 0 -65 228 -377 260 -357 8 5 39 -18 71 -51 83 -87 149 -82 83 6 -74
99 -110 173 -67 138 90 -75 -44 131 -150 229 -72 67 -276 208 -302 208 -8 0
-15 -22 -15 -48z"/>
<path d="M3741 598 c12 -22 17 -54 11 -70 -18 -48 56 -168 90 -146 23 16 22
23 -9 47 -26 20 -34 44 -26 76 7 28 -1 66 -19 91 -39 57 -77 58 -47 2z"/>
<path d="M3911 548 c-39 -39 -23 -68 37 -68 58 0 70 13 57 61 -12 47 -51 50
-94 7z"/>
<path d="M1520 391 c0 -24 86 -151 102 -151 10 0 -5 36 -34 80 -49 74 -68 94
-68 71z"/>
<path d="M1200 213 c0 -98 178 -225 258 -184 77 40 140 39 185 -2 35 -31 40
-31 78 4 l41 37 -46 24 c-25 14 -52 20 -61 15 -8 -5 -39 19 -69 54 -47 56 -56
60 -77 31 -13 -18 -38 -32 -56 -32 -18 0 -33 -9 -33 -21 0 -12 -31 3 -70 32
-38 30 -70 46 -70 37 0 -9 -11 -5 -24 8 -32 32 -56 30 -56 -3z"/>
<path d="M5087 160 c-45 -20 -88 -46 -95 -57 -14 -23 165 50 197 79 30 28 -9
19 -102 -22z"/>
<path d="M5948 172 c-13 -14 -34 -46 -48 -73 -14 -27 -36 -55 -47 -63 -28 -18
37 -44 74 -30 15 6 33 49 41 95 15 95 12 106 -20 71z"/>
</g>
</svg>
