<?xml version="1.0" standalone="no"?>
<!DOCTYPE svg PUBLIC "-//W3C//DTD SVG 20010904//EN"
 "http://www.w3.org/TR/2001/REC-SVG-20010904/DTD/svg10.dtd">
<svg version="1.0" xmlns="http://www.w3.org/2000/svg"
 width="300.000000pt" height="375.000000pt" viewBox="0 0 300.000000 375.000000"
 preserveAspectRatio="xMidYMid meet">
<metadata>
Created by potrace 1.10, written by Peter Selinger 2001-2011
</metadata>
<g transform="translate(0.000000,375.000000) scale(0.050000,-0.050000)"
fill="#000000" stroke="none">
<path d="M1499 7268 c-21 -24 -21 -40 -3 -68 24 -40 -35 -109 -238 -280 -82
-68 -158 -205 -158 -283 0 -58 33 -27 76 69 59 132 284 325 284 244 0 -42
-107 -150 -148 -150 -18 0 -32 -13 -32 -30 0 -16 13 -30 29 -30 57 0 91 -198
41 -240 -16 -14 -30 -40 -30 -58 0 -19 -27 -65 -59 -103 -66 -76 -86 -144 -29
-97 18 14 52 36 75 48 24 11 59 55 78 96 33 69 75 100 75 54 0 -11 -8 -20 -17
-20 -10 0 -17 -65 -15 -145 2 -140 -1 -150 -83 -269 -47 -68 -85 -129 -85
-135 0 -6 -22 -58 -50 -115 -54 -112 -63 -175 -28 -210 34 -34 -13 -167 -80
-225 -85 -73 -93 -169 -15 -178 52 -5 56 -12 46 -65 -8 -39 6 -113 40 -212
l53 -152 -63 -128 c-36 -72 -72 -186 -83 -262 -24 -167 -24 -164 0 -164 11 0
20 16 20 35 1 19 18 58 40 85 22 28 39 70 40 95 0 82 36 47 43 -43 4 -49 0
-84 -8 -79 -8 5 -15 -8 -15 -29 0 -54 -139 -254 -280 -402 -66 -70 -120 -145
-120 -167 0 -48 -73 -172 -127 -216 -25 -21 -42 -66 -48 -135 -6 -57 -18 -104
-27 -104 -15 0 -34 -71 -46 -180 -3 -27 -25 -86 -49 -130 -46 -85 -57 -190
-21 -190 12 0 17 13 11 29 -6 17 -3 35 8 42 10 6 19 -16 19 -51 0 -36 -8 -57
-20 -50 -28 18 -24 -73 6 -112 13 -17 34 -28 47 -24 13 5 29 -10 37 -32 7 -23
19 -40 26 -39 99 14 170 -78 125 -161 -17 -32 -16 -53 2 -87 14 -25 39 -120
56 -213 17 -92 39 -164 50 -160 25 11 36 243 12 257 -10 7 -12 24 -2 39 11 19
36 -14 83 -108 71 -145 101 -146 51 -1 -25 76 -26 93 -1 125 25 32 27 32 16 1
-8 -22 0 -39 20 -47 18 -7 32 -34 32 -59 0 -26 13 -77 29 -113 16 -36 34 -91
40 -121 7 -30 21 -55 31 -55 24 0 25 31 3 110 -19 70 22 283 44 225 38 -103
41 -104 49 -27 8 87 58 178 88 159 11 -6 14 -47 7 -94 -32 -210 -33 -251 -12
-329 27 -102 63 -112 47 -14 -9 59 -5 70 26 70 32 1 33 4 8 21 -25 18 -24 20
7 15 40 -6 63 -155 33 -216 -35 -72 -42 -180 -12 -180 70 0 39 -172 -58 -320
-26 -38 -53 -119 -60 -178 -8 -59 -26 -136 -40 -170 -27 -64 -19 -172 12 -172
10 0 18 17 18 37 0 48 74 143 111 143 16 0 48 19 72 43 l44 44 16 -44 c18 -49
25 -51 78 -22 48 25 48 16 9 -134 -68 -263 -36 -299 134 -147 122 109 136 116
136 69 0 -23 12 -28 41 -19 60 20 99 -24 99 -112 0 -92 31 -104 50 -19 31 143
156 134 137 -10 -13 -92 18 -127 43 -49 17 52 39 50 83 -8 20 -26 66 -52 102
-59 69 -13 84 6 36 46 -30 25 9 121 48 121 35 0 71 -182 71 -355 0 -194 12
-225 47 -125 12 35 36 61 57 62 20 2 80 6 133 10 120 8 145 28 161 128 10 67
20 80 59 80 26 0 62 17 81 38 32 36 112 37 112 2 0 -8 23 -20 51 -25 77 -15
172 86 156 166 -9 46 -5 59 20 59 18 0 51 18 73 40 22 22 44 40 49 40 5 0 50
28 100 61 93 63 121 111 52 89 -42 -13 -161 39 -161 70 0 10 27 14 60 7 36 -7
72 -2 91 14 25 21 41 18 89 -18 83 -61 107 -54 68 21 -23 44 -26 67 -11 72 43
14 23 63 -38 94 -95 50 -15 102 177 115 61 5 136 85 110 119 -41 53 -41 92 -3
148 33 48 38 50 27 13 -8 -30 -4 -45 14 -46 14 -1 8 -10 -14 -19 -37 -16 -37
-17 -3 -19 37 -1 157 -76 170 -105 15 -37 43 -12 43 39 0 34 31 94 80 155 92
116 95 131 37 182 -39 34 -42 34 -31 3 16 -44 -2 -45 -49 -2 -22 20 -37 24
-37 10 0 -13 -15 -23 -33 -23 -31 0 -31 3 0 37 23 25 51 34 86 27 41 -8 49 -4
37 18 -13 23 -11 23 11 3 15 -14 57 -25 93 -25 36 0 66 -9 66 -20 0 -11 9 -20
20 -20 31 0 24 52 -11 81 -172 143 -49 346 147 241 51 -27 168 35 187 100 21
76 19 162 -3 148 -11 -7 -20 -29 -20 -49 0 -20 -15 -48 -32 -63 -18 -15 -41
-45 -50 -67 -14 -31 -15 -25 -7 22 12 66 -40 108 -93 76 -14 -9 -20 -4 -14 13
6 17 38 28 78 28 44 0 66 9 63 25 -3 14 4 25 15 25 45 0 16 30 -31 33 -111 6
-59 87 56 87 64 0 237 39 259 58 25 21 -10 50 -133 112 -141 71 -162 106 -62
106 53 0 71 -9 71 -33 0 -21 6 -25 15 -11 13 18 116 43 220 52 15 2 21 17 15
37 -14 42 37 97 114 123 31 11 56 33 56 48 0 33 -32 37 -51 6 -9 -14 -79 -20
-196 -16 -193 6 -320 -8 -482 -54 l-98 -28 -52 62 c-52 62 -53 63 -182 47 -71
-9 -113 -20 -94 -24 56 -13 19 -45 -51 -44 -61 0 -62 2 -25 30 38 29 38 29 0
29 -46 1 -144 72 -125 91 7 7 59 3 116 -9 128 -28 160 -28 160 0 0 12 -14 17
-31 10 -18 -6 -26 -3 -19 8 7 11 42 20 78 20 78 0 100 17 69 53 -17 21 -13 27
21 27 44 0 56 29 21 51 -14 8 -8 23 15 40 20 15 27 28 16 29 -11 0 -6 9 10 20
24 15 17 23 -35 41 -36 13 -65 31 -65 42 0 40 64 39 143 -2 60 -31 135 -47
261 -55 223 -15 242 23 21 44 -101 9 -179 28 -225 56 -145 87 -124 113 98 122
117 6 171 16 188 38 35 45 152 70 270 59 112 -11 150 25 49 46 -56 11 -130 29
-280 68 -51 14 -85 34 -85 52 0 35 33 39 46 4 7 -20 17 -20 46 -1 125 81 207
111 261 96 106 -29 297 -22 297 10 0 22 -35 31 -150 36 -82 3 -196 19 -253 35
-57 16 -140 29 -185 29 -105 0 -106 31 -2 45 49 7 107 34 148 70 39 35 100 64
149 72 98 16 105 41 24 83 -56 29 -62 28 -105 -18 -27 -28 -104 -64 -186 -88
-263 -75 -306 -81 -386 -53 -41 14 -87 18 -102 10 -33 -19 -102 -4 -102 21 0
10 13 18 29 18 15 0 54 10 85 22 71 28 11 60 -81 43 -48 -9 -56 -5 -50 27 4
23 27 41 57 45 77 10 94 39 44 74 -61 43 -56 62 28 101 39 19 76 47 82 62 21
55 -14 50 -84 -11 -39 -35 -87 -64 -106 -66 -19 -1 -72 -4 -118 -6 -51 -2
-101 -19 -126 -41 -40 -36 -41 -36 -27 -1 10 28 7 33 -13 21 -18 -11 -21 -8
-11 8 8 14 27 20 42 14 15 -5 32 7 39 28 7 20 31 40 54 44 24 3 47 19 52 34
13 39 -83 13 -159 -43 -53 -39 -64 -41 -123 -17 -67 28 -277 62 -293 48 -17
-15 48 -45 99 -46 72 -2 268 -73 243 -88 -12 -7 -16 -26 -10 -42 7 -19 -4 -27
-36 -25 -60 4 -82 35 -51 72 21 25 4 27 -123 15 -143 -14 -150 -13 -206 41
-53 50 -72 56 -216 58 -213 3 -285 70 -278 258 2 60 -8 103 -30 127 -41 46
-41 48 5 101 29 34 40 38 48 15 6 -15 6 -34 -1 -40 -34 -35 -17 -92 23 -81 24
7 33 4 21 -5 -12 -9 -22 -52 -23 -96 -1 -70 1 -74 17 -31 10 26 14 60 8 75 -5
14 -1 26 10 26 10 0 20 -22 22 -50 5 -91 7 -100 18 -110 5 -5 21 -32 35 -60
l24 -50 -11 50 c-10 47 -9 48 19 13 16 -20 24 -50 18 -65 -5 -15 0 -28 12 -28
12 0 22 10 22 23 0 13 17 8 40 -13 22 -20 40 -32 40 -26 0 5 41 3 91 -4 50 -8
95 -6 101 3 6 9 -16 17 -48 17 -33 0 -91 13 -130 30 -82 34 -125 83 -58 65 23
-6 46 0 51 12 7 15 10 14 11 -3 1 -15 11 -21 22 -14 11 7 14 -1 8 -19 -7 -17
-2 -31 10 -31 12 0 22 14 22 31 0 28 4 28 33 -1 24 -24 37 -27 47 -9 10 16 19
17 28 2 7 -12 27 -16 43 -10 23 9 25 18 7 39 -17 20 -17 28 0 28 20 0 25 -15
20 -53 -3 -27 51 -44 67 -21 11 18 21 15 36 -11 12 -21 45 -35 79 -35 32 0 65
-13 74 -29 18 -32 230 61 230 100 0 10 8 35 19 54 16 31 8 35 -72 35 -67 0
-95 -9 -110 -37 -20 -39 -113 -53 -133 -20 -5 9 -32 17 -59 17 -36 0 -49 11
-49 40 0 22 -9 40 -20 40 -11 0 -20 23 -20 50 0 28 9 50 20 50 11 0 20 15 20
32 0 28 -16 31 -109 19 l-109 -14 -43 100 c-23 55 -54 105 -68 110 -14 5 -31
44 -38 86 -17 104 -79 200 -161 249 -49 28 -71 59 -81 108 -8 44 -34 84 -71
110 -64 45 -130 163 -115 204 15 42 -41 132 -100 160 -30 14 -57 44 -61 66
-15 102 -27 125 -74 147 -29 12 -79 23 -112 23 -86 0 -158 155 -158 344 0 128
-3 136 -57 165 -44 22 -61 48 -70 109 -14 84 -63 129 -129 119 -19 -3 -46 2
-62 11 -15 10 -46 20 -70 22 -23 3 -48 6 -55 7 -6 2 -23 29 -36 62 -30 71 -70
89 -109 50 -42 -42 -52 -38 -162 63 -150 137 -260 178 -311 116z m132 -39 c37
-30 37 -31 -16 -23 -49 8 -54 3 -44 -34 12 -40 11 -40 -20 3 -56 76 3 116 80
54z m57 -81 c22 -57 13 -124 -19 -136 -18 -6 -26 -3 -19 8 18 29 -37 25 -70
-5 -23 -21 -23 -18 0 15 16 22 31 44 34 48 3 4 20 -5 39 -20 36 -30 35 -5 -3
87 -8 20 -5 35 6 35 11 0 25 -14 32 -32z m-180 -78 c-18 -27 -47 -50 -64 -50
-24 0 -20 11 16 50 26 28 55 50 64 50 9 0 2 -22 -16 -50z m280 -33 c-6 -9 10
-26 36 -36 42 -17 42 -19 6 -21 -38 -3 -38 -4 4 -24 34 -16 43 -35 38 -80 -5
-37 3 -63 20 -70 16 -6 28 -31 28 -57 0 -25 11 -58 25 -73 69 -72 144 -189
139 -216 -5 -27 -3 -27 16 0 18 26 23 26 40 -3 40 -68 152 -182 206 -210 46
-24 52 -35 33 -58 -27 -33 -99 -39 -99 -9 0 11 11 20 25 20 46 1 -33 39 -80
40 -48 0 -61 30 -20 47 14 5 4 11 -21 11 -27 1 -52 20 -63 47 -11 26 -19 32
-20 15 -1 -20 -7 -22 -16 -8 -8 12 -40 28 -71 36 -32 8 -50 22 -42 35 8 14 17
14 26 1 7 -12 22 -9 38 8 21 23 20 28 -5 28 -17 0 -31 11 -31 25 -1 17 -6 16
-19 -4 -21 -33 -76 -45 -92 -19 -6 10 2 18 19 18 16 0 36 10 44 23 8 14 5 18
-8 10 -11 -8 -27 -5 -34 7 -7 11 -3 20 9 20 11 0 21 9 21 19 0 11 -16 14 -35
7 -31 -12 -32 -9 -7 21 24 29 24 32 -3 22 -21 -8 -30 -1 -28 24 2 20 -20 47
-52 62 -30 15 -55 38 -55 51 1 16 6 15 18 -3 12 -19 21 -21 31 -5 8 13 23 17
34 10 14 -9 15 -1 2 25 -11 20 -25 51 -32 67 -7 17 -9 6 -3 -24 9 -49 5 -53
-45 -47 -79 9 -80 11 -25 36 48 21 49 22 7 30 -63 11 -76 80 -14 80 26 0 47
-9 47 -21 0 -11 6 -15 12 -8 7 7 -6 45 -30 84 -58 99 -59 172 -2 120 21 -19
34 -43 28 -53z m272 -19 c0 -21 -67 -24 -86 -5 -8 7 -4 26 9 40 23 28 77 3 77
-35z m-98 -30 c14 -18 40 -70 57 -115 43 -114 107 -215 131 -206 11 4 22 -22
25 -58 3 -45 -5 -69 -29 -78 -43 -16 -71 29 -40 66 20 24 16 26 -18 15 -27 -8
-52 -2 -68 18 -20 25 -19 30 8 30 17 0 32 5 32 11 0 23 -55 67 -68 55 -24 -24
-12 26 13 52 20 22 16 24 -23 12 -38 -12 -46 -8 -36 16 6 17 1 35 -12 39 -18
6 -17 18 4 43 25 30 25 33 0 28 -17 -4 -27 9 -24 34 2 22 -7 46 -20 54 -16 11
-14 15 9 16 17 0 44 -14 59 -32z m162 -55 c12 7 17 5 11 -5 -6 -10 11 -45 38
-78 26 -33 43 -44 36 -25 -8 20 -4 35 9 35 12 0 22 -8 22 -18 0 -10 6 -34 13
-54 10 -23 6 -30 -10 -20 -13 8 -23 3 -23 -14 0 -20 -16 -25 -50 -19 -53 10
-66 36 -25 50 14 5 2 23 -31 44 -43 28 -50 42 -32 64 17 20 17 27 0 27 -12 0
-22 16 -21 35 0 33 1 33 21 0 11 -20 30 -30 42 -22z m-583 -41 c-14 -27 -43
-53 -63 -58 -21 -6 -38 -24 -38 -40 0 -36 -54 -60 -71 -32 -13 21 89 112 116
103 8 -3 15 7 15 21 0 30 43 78 57 64 5 -6 -2 -32 -16 -58z m96 -166 c-19 -22
-18 -27 5 -22 19 4 30 -15 34 -59 5 -49 -1 -65 -26 -65 -18 0 -27 9 -20 20 7
11 4 20 -6 20 -19 0 -41 -51 -57 -135 -6 -35 4 -50 46 -66 71 -27 118 -16 114
27 -3 41 26 44 62 8 22 -22 20 -35 -11 -75 -54 -72 -47 -95 31 -95 l69 0 -40
43 c-35 37 -36 44 -9 50 17 3 26 14 20 24 -6 10 3 13 21 6 28 -10 27 -15 -4
-39 -34 -25 -33 -27 8 -27 45 -1 47 -22 15 -125 -9 -27 -6 -36 9 -27 12 7 22
3 22 -10 0 -13 -13 -18 -30 -12 -16 7 -30 5 -30 -3 0 -9 -20 -17 -45 -19 -44
-3 -44 -2 5 27 48 29 46 30 -47 19 l-98 -11 11 56 c15 74 -4 98 -74 96 -32 -1
-62 9 -67 23 -4 14 7 25 26 25 29 0 27 5 -8 35 -58 49 -77 141 -33 158 24 9
27 17 9 27 -45 28 14 155 72 155 41 0 46 -5 26 -29z m701 -15 c31 -16 73 -26
94 -23 21 4 27 2 13 -2 -14 -5 -20 -17 -14 -28 19 -30 -31 -21 -64 12 -43 43
-67 19 -40 -40 25 -54 70 -65 109 -26 19 19 31 17 56 -7 40 -41 31 -124 -11
-98 -24 15 -24 23 -1 51 24 29 21 31 -27 19 -75 -19 -159 5 -145 42 6 16 1 29
-10 29 -12 0 -15 19 -8 45 11 41 10 42 -16 10 -15 -19 -34 -29 -41 -21 -7 7
-13 -2 -13 -20 0 -18 11 -29 25 -23 14 5 35 -13 48 -41 22 -48 3 -72 -23 -30
-19 30 -50 4 -37 -31 6 -17 0 -29 -16 -29 -22 -1 -22 -4 0 -18 21 -13 21 -19
-3 -28 -29 -11 -35 15 -12 56 6 11 9 52 7 90 -8 113 42 156 129 111z m-921
-26 c-3 -19 0 -44 7 -56 7 -11 6 -32 -2 -47 -11 -17 -21 -4 -29 38 -12 60 -4
100 19 100 6 0 8 -16 5 -35z m1038 -254 c29 20 45 23 45 8 0 -12 -18 -27 -40
-33 -31 -8 -35 -18 -20 -47 27 -49 26 -50 -19 -50 -21 0 -34 7 -28 15 5 9 -5
22 -22 28 -17 7 -31 21 -31 31 0 11 11 13 25 5 19 -10 18 -7 -1 14 -21 23 -28
23 -42 1 -23 -37 -38 7 -25 74 l9 49 52 -63 c49 -61 54 -62 97 -32z m-455
-248 c-12 -4 -13 -19 -1 -41 20 -37 -58 -50 -92 -15 -10 9 -3 13 13 10 20 -5
28 6 24 30 -4 22 2 32 15 24 12 -8 21 2 21 23 1 30 4 31 20 6 12 -19 12 -32 0
-37z m506 -51 c6 -37 43 -112 82 -167 60 -84 72 -116 72 -203 0 -57 13 -123
28 -148 79 -121 25 -374 -61 -288 -28 28 12 79 43 54 41 -34 42 25 1 66 -16
16 -23 35 -16 43 8 7 -2 7 -22 -1 -26 -10 -29 -18 -12 -29 28 -17 8 -60 -27
-57 -17 1 -16 4 2 12 19 7 20 17 4 36 -16 19 -7 43 33 93 l55 67 -54 -48 -54
-49 -46 44 c-59 54 -73 54 -59 0 8 -30 4 -39 -12 -29 -29 18 -30 65 -2 83 11
7 32 3 47 -9 14 -12 33 -15 42 -7 9 8 10 4 3 -9 -8 -13 -5 -28 5 -35 10 -6 24
5 31 24 14 37 9 58 -12 51 -16 -6 -11 36 9 67 8 13 0 38 -17 55 -18 18 -26 32
-18 32 8 0 2 15 -14 33 -20 25 -21 36 -3 41 13 5 -2 32 -38 67 -34 32 -70 52
-82 46 -24 -16 -1 27 42 78 47 54 -3 41 -55 -14 -26 -28 -55 -45 -64 -39 -9 6
-17 -1 -17 -15 0 -17 -6 -19 -21 -4 -29 29 -8 71 60 116 32 22 55 44 50 48 -4
5 -20 0 -34 -11 -41 -32 -95 -46 -95 -25 0 10 12 19 27 19 14 0 43 17 65 39
63 64 121 53 134 -27z m354 -60 c0 -26 18 -69 39 -97 22 -27 35 -55 28 -61 -6
-6 7 -7 28 -1 32 8 41 -2 50 -56 7 -37 18 -83 25 -102 11 -28 4 -35 -36 -35
-27 0 -55 12 -60 28 -8 20 1 24 32 16 41 -11 42 -9 10 22 -18 19 -51 34 -73
34 -23 0 -46 9 -53 20 -7 11 8 20 34 20 37 1 40 4 16 20 -16 11 -50 20 -75 20
-25 0 -45 7 -45 17 0 9 29 14 65 10 36 -3 50 -1 31 5 -19 6 -40 28 -46 49 -7
22 -23 39 -36 39 -16 1 -14 7 4 18 42 27 7 62 -64 62 -35 0 -76 8 -91 18 -19
12 -10 17 29 17 31 0 60 10 64 22 14 42 124 -33 124 -85z m-1290 27 c8 -34 9
-66 4 -72 -13 -13 49 -87 72 -87 9 0 11 9 4 20 -7 11 -3 20 9 20 11 0 21 -15
21 -34 0 -29 4 -29 29 5 25 33 25 26 -1 -49 -16 -48 -24 -93 -17 -99 19 -19
78 -15 93 7 9 12 24 9 40 -8 19 -21 20 -24 1 -14 -17 10 -25 -2 -25 -37 0 -28
-9 -51 -20 -51 -11 0 -20 18 -20 40 0 22 -9 40 -20 40 -11 0 -19 -27 -16 -60
2 -33 10 -60 17 -60 7 0 10 -41 7 -92 -5 -81 -1 -91 32 -82 24 6 40 -3 46 -28
6 -21 2 -38 -9 -38 -11 0 -14 -8 -8 -18 13 -22 91 -5 91 20 0 10 10 16 23 13
12 -3 26 6 31 19 6 15 -11 23 -48 20 -41 -3 -55 5 -53 29 1 21 -8 30 -25 23
-17 -6 -28 3 -28 23 0 22 13 31 35 27 21 -4 34 -25 33 -52 -1 -36 7 -42 40
-32 99 30 172 68 172 88 0 12 10 16 21 9 12 -7 34 4 50 24 18 24 28 28 28 11
1 -15 10 -21 21 -14 11 7 20 -2 20 -19 0 -17 -14 -31 -31 -31 -19 0 -26 -9
-17 -23 10 -16 3 -20 -21 -10 -26 10 -32 6 -24 -17 7 -16 2 -30 -9 -30 -11 0
-15 -8 -9 -19 7 -10 -3 -27 -20 -37 -29 -16 -30 -21 -2 -48 19 -19 27 -52 22
-84 -7 -35 -1 -52 17 -52 18 0 25 21 21 65 -3 36 -1 49 5 30 6 -20 19 -30 30
-24 10 6 18 -10 18 -36 0 -66 20 -81 61 -44 31 28 35 27 47 -21 7 -28 21 -47
31 -40 10 6 30 -6 45 -26 24 -33 71 -61 96 -57 20 3 100 -76 100 -99 0 -13
-20 -19 -50 -13 -34 7 -54 -1 -62 -23 -8 -22 -26 -29 -50 -21 -54 17 -53 -82
1 -110 54 -29 70 -26 41 9 -13 16 -34 24 -45 17 -12 -7 -16 -4 -9 7 13 21 134
10 134 -12 0 -8 -11 -26 -25 -40 -20 -22 -20 -29 2 -37 21 -7 22 -14 4 -25
-17 -10 -15 -18 10 -28 28 -10 32 -3 24 38 -10 53 50 87 109 64 14 -6 3 -12
-25 -12 -47 -2 -51 -9 -46 -73 3 -46 -2 -66 -16 -57 -14 8 -17 -2 -8 -30 9
-29 4 -46 -17 -54 -17 -6 -36 -29 -43 -51 -9 -27 -24 -35 -51 -26 -22 7 -38 2
-38 -11 0 -12 9 -17 20 -10 37 23 20 -43 -20 -80 -22 -20 -40 -54 -40 -75 0
-27 -10 -36 -30 -28 -16 7 -30 3 -30 -8 0 -10 9 -19 19 -19 12 0 20 -68 19
-158 -1 -88 9 -177 20 -199 28 -52 28 -69 0 -52 -15 10 -15 1 1 -29 12 -23 16
-42 9 -42 -7 0 -2 -13 10 -28 31 -37 21 -77 -28 -105 -36 -22 -36 -23 14 -20
48 3 52 9 47 83 -5 80 -5 80 19 22 20 -48 18 -73 -13 -155 -46 -120 -51 -360
-9 -396 33 -26 62 4 62 64 0 19 9 34 20 33 11 0 19 -13 17 -29 -1 -16 5 -24
13 -19 9 5 21 -3 27 -18 6 -16 -2 -34 -18 -40 -16 -6 -29 0 -29 13 0 14 -15 9
-35 -12 -33 -34 -32 -38 28 -89 35 -30 73 -75 86 -100 13 -25 32 -40 42 -33
22 13 26 -17 5 -38 -8 -8 -16 -30 -19 -49 -4 -31 -2 -31 22 2 27 36 28 36 49
0 17 -29 21 -30 21 -5 1 17 -8 42 -19 55 -11 13 -2 8 20 -12 35 -31 38 -44 18
-100 -24 -69 -69 -91 -48 -23 7 22 6 39 -3 37 -64 -11 -127 6 -127 33 0 17 9
26 20 19 11 -7 20 -2 20 10 0 14 -16 18 -40 10 -23 -7 -40 -4 -40 9 0 11 14
21 31 21 28 0 28 4 -2 34 -22 22 -60 32 -113 29 -52 -3 -75 3 -66 16 7 12 20
17 29 12 9 -6 29 5 44 23 18 23 19 29 2 19 -14 -8 -41 -6 -60 5 -19 12 -24 21
-10 21 14 1 25 10 25 22 0 14 -13 14 -40 -1 -32 -17 -40 -15 -40 9 0 27 37 41
86 33 10 -2 11 7 3 19 -7 13 -35 19 -62 14 -45 -9 -46 -7 -16 26 19 21 24 40
12 47 -11 7 -26 4 -33 -8 -7 -11 -21 -20 -33 -20 -11 0 -6 13 10 30 17 17 39
30 50 30 12 0 26 8 32 18 6 10 -7 14 -29 8 -49 -13 -53 25 -5 52 33 19 32 21
-3 21 -38 1 -38 2 0 44 37 43 37 43 0 30 -32 -12 -34 -9 -12 17 22 26 20 29
-7 18 -18 -7 -33 -6 -33 1 0 7 27 22 60 34 33 12 60 30 60 41 0 11 -11 16 -25
10 -98 -40 -101 -41 -85 -15 10 18 6 23 -12 17 -15 -5 -25 -29 -22 -53 5 -30
-4 -43 -29 -43 -26 0 -29 6 -13 22 13 13 18 35 12 50 -6 16 9 35 38 46 49 18
58 71 26 148 -12 29 -20 31 -45 10 -20 -17 -16 0 12 53 45 85 39 120 -19 105
-26 -7 -38 0 -38 23 -1 29 -3 29 -20 3 -17 -26 -19 -25 -20 5 0 19 8 35 18 35
10 0 31 5 47 11 17 6 37 -9 51 -40 34 -74 57 -62 47 24 -9 69 -11 71 -24 25
-15 -48 -15 -49 -17 -4 -1 27 -19 52 -45 61 -29 11 -36 21 -20 31 12 8 23 30
23 48 -1 29 -3 30 -20 4 -14 -22 -19 -23 -20 -4 0 18 -14 22 -45 13 -45 -13
-45 -13 -5 20 22 19 29 28 15 21 -56 -28 -20 47 49 101 101 81 146 131 148
168 2 17 5 40 7 51 3 11 7 38 10 60 2 23 8 29 14 15 6 -14 18 -25 28 -25 10 0
13 14 6 30 -21 56 10 102 40 60 25 -33 28 -33 40 -2 7 20 4 29 -7 22 -11 -7
-20 6 -20 29 0 45 -31 56 -47 16 -5 -14 -11 -6 -11 18 -1 23 -15 48 -31 54
-19 7 -25 1 -18 -18 7 -18 -1 -29 -21 -29 -18 0 -33 14 -34 30 -7 72 -11 80
-43 74 -20 -3 -35 7 -35 23 0 16 -13 34 -30 40 -16 7 -30 23 -30 37 0 16 6 18
15 6 43 -58 145 -87 145 -41 0 17 -12 25 -28 19 -15 -6 -34 -1 -41 11 -8 12
-22 16 -32 10 -11 -6 -19 3 -19 20 0 17 -16 31 -36 31 -20 0 -54 14 -75 32
-31 25 -32 29 -6 21 28 -9 33 2 28 57 -5 51 0 65 21 56 15 -5 28 -2 28 9 0 10
-11 19 -25 19 -14 1 -59 16 -100 34 -43 18 -75 24 -75 12 0 -11 16 -20 35 -21
33 0 33 -2 -1 -21 -34 -20 -34 -24 5 -91 53 -90 52 -107 -9 -107 -52 0 -55 8
-55 135 0 36 -8 65 -18 65 -9 0 -17 13 -17 28 0 15 -14 33 -31 40 -18 6 -26 3
-19 -8 7 -11 4 -20 -7 -20 -11 0 -26 -27 -33 -60 -14 -62 -40 -78 -56 -35 -5
14 -5 -15 1 -63 8 -62 4 -84 -11 -74 -12 7 -17 29 -10 48 10 31 9 31 -16 1
-27 -32 -118 -70 -118 -49 0 5 29 37 65 70 55 52 58 59 20 49 -25 -6 -45 -20
-45 -29 0 -10 -9 -18 -20 -18 -25 0 -27 94 -2 109 10 6 23 0 29 -14 8 -18 18
-16 39 10 16 19 39 35 51 35 13 0 23 7 23 16 0 27 -46 64 -79 64 -51 0 -76 62
-56 137 21 80 36 71 56 -32 l14 -75 2 80 c2 77 -59 242 -80 220 -6 -6 -23 3
-37 20 -15 18 -17 30 -4 30 11 0 25 -11 31 -25 6 -15 16 -6 24 22 11 35 19 40
31 20 14 -21 17 -21 18 -2 0 24 -92 75 -123 69 -7 -1 -8 15 -3 37 7 24 1 39
-16 39 -18 0 -20 6 -5 21 11 11 35 15 54 8 37 -15 45 -49 12 -49 -12 0 -16 -9
-9 -20 21 -34 50 -22 50 20 0 65 -73 128 -98 85 -24 -44 -52 -19 -32 29 23 56
27 145 8 157 -24 15 -23 49 0 49 11 0 25 -28 32 -61z m114 16 c4 -31 22 -47
56 -51 38 -4 43 -1 21 14 -16 11 -38 14 -48 8 -11 -7 -13 -2 -5 11 23 37 119
29 104 -9 -8 -20 -3 -28 13 -22 14 5 23 20 20 33 -4 13 3 18 15 11 11 -7 16
-21 9 -31 -6 -10 16 -15 49 -11 33 3 63 -2 67 -13 4 -11 21 -6 39 12 37 37 56
42 56 15 0 -9 -31 -32 -68 -50 -79 -37 -99 -40 -82 -12 7 11 3 20 -9 20 -11 0
-21 -9 -21 -20 0 -12 -42 -18 -102 -15 -107 7 -158 45 -158 119 0 52 36 45 44
-9z m488 -146 c-6 -23 -34 -53 -63 -66 -32 -14 -46 -32 -36 -47 11 -19 16 -19
22 0 16 46 42 23 36 -31 -6 -63 -71 -91 -71 -30 0 20 -11 48 -24 61 -18 18
-18 24 -1 24 14 0 19 15 12 35 -9 30 -7 30 11 5 19 -26 21 -26 22 4 0 18 11
40 23 48 17 10 19 3 9 -24 -12 -31 -10 -33 12 -12 29 29 34 88 8 107 -9 7 -10
24 -1 38 21 35 55 -56 41 -112z m-310 -14 c1 -20 3 -20 11 0 14 33 87 32 87
-1 0 -24 -78 -104 -89 -90 -12 14 -51 94 -51 105 0 23 40 10 42 -14z m528 -60
c-48 -27 -103 6 -61 37 27 20 41 20 61 2 21 -20 21 -27 0 -39z m108 -13 c33
-21 -44 -71 -84 -55 -13 6 -3 17 23 24 35 11 40 19 20 31 -15 10 -18 17 -7 17
11 0 32 -8 48 -17z m-523 -42 c15 -24 17 -40 5 -40 -11 0 -20 9 -20 20 0 11
-10 20 -21 20 -12 0 -16 -8 -10 -18 6 -10 2 -22 -8 -25 -11 -4 -15 -27 -8 -52
l12 -46 37 44 38 43 0 -44 c0 -25 -9 -39 -20 -32 -11 7 -20 -7 -20 -30 0 -29
-8 -37 -25 -26 -14 8 -31 16 -38 16 -25 0 -44 30 -20 30 18 0 19 10 3 40 -17
32 -15 48 9 72 17 17 31 39 31 49 0 32 29 21 55 -21z m305 -70 c1 11 18 -2 40
-30 22 -27 39 -63 38 -80 -1 -26 -3 -26 -13 0 -29 73 -125 105 -125 41 0 -12
-19 -21 -42 -21 -36 0 -39 5 -18 30 13 16 31 25 40 20 8 -5 21 11 28 35 10 38
15 40 32 15 11 -16 20 -21 20 -10z m-785 -84 c-2 -28 -16 -55 -30 -61 -20 -7
-17 -17 9 -37 34 -25 33 -27 -10 -27 -39 -1 -43 -6 -24 -42 24 -45 8 -125 -23
-115 -11 4 -21 14 -21 22 -4 37 26 301 35 316 21 34 68 -7 64 -56z m356 19
c-6 -16 -1 -43 12 -58 27 -34 14 -52 -27 -37 -16 7 -27 32 -24 56 2 24 5 56 6
70 1 15 12 20 23 13 12 -7 16 -27 10 -44z m697 -9 c-7 -10 -26 -13 -43 -7 -25
10 -26 7 -5 -19 15 -19 17 -30 4 -30 -36 0 -47 37 -24 81 18 33 29 37 51 18
16 -13 23 -32 17 -43z m-461 29 c12 -20 -37 -88 -52 -73 -6 6 -17 -8 -25 -31
-7 -23 -21 -37 -30 -31 -10 6 2 42 26 80 45 69 64 82 81 55z m693 -6 c0 -12
11 -15 23 -7 16 10 20 4 11 -19 -8 -20 -3 -33 12 -33 13 0 35 -36 49 -80 29
-93 33 -220 6 -220 -27 0 -36 63 -17 116 10 30 9 42 -4 34 -11 -7 -20 -23 -21
-36 0 -13 -15 -42 -32 -64 -25 -31 -30 -33 -21 -6 7 19 4 40 -7 47 -10 6 -19
22 -19 35 0 15 8 13 19 -5 10 -17 25 -24 33 -16 7 8 1 29 -14 48 -16 19 -17
28 -4 21 13 -8 30 -4 38 9 9 15 5 18 -11 8 -18 -12 -22 -5 -12 25 7 22 3 47
-9 54 -11 7 -20 6 -18 -4 7 -39 -4 -67 -21 -56 -12 7 -13 30 -1 60 12 30 11
53 -1 60 -25 16 -25 50 1 50 11 0 20 -10 20 -21z m-1400 -48 c0 -53 -30 -84
-50 -51 -16 26 7 100 31 100 11 0 19 -22 19 -49z m1729 -46 c39 -41 70 -94 70
-118 1 -23 15 -53 31 -67 17 -14 30 -38 30 -53 0 -16 30 -42 67 -57 70 -29
133 -128 133 -209 0 -24 20 -63 45 -88 59 -60 122 -193 92 -193 -43 0 -157
102 -157 140 0 21 -9 43 -19 49 -11 7 -13 28 -6 47 11 30 8 31 -21 7 -38 -31
-46 -83 -13 -83 12 0 15 -10 8 -22 -52 -83 239 -224 365 -177 45 18 93 -61 58
-95 -6 -7 -12 7 -12 31 0 24 -9 43 -20 43 -11 0 -20 -22 -20 -49 0 -114 -131
-141 -205 -41 -8 11 -15 5 -15 -15 0 -19 -10 -35 -22 -35 -14 0 -18 19 -10 48
13 55 -37 62 -69 11 -28 -44 -24 14 4 67 21 40 20 41 -10 17 -29 -25 -33 -22
-33 25 0 37 -15 60 -50 76 -33 15 -50 39 -50 70 0 27 -9 43 -20 36 -11 -7 -20
8 -20 32 0 80 -44 169 -98 201 -45 25 -202 292 -202 343 0 37 41 8 52 -38 10
-38 18 -45 31 -25 14 22 20 22 37 -3 17 -26 19 -26 20 3 0 19 -10 37 -22 41
-13 4 -23 32 -23 61 0 30 -8 49 -17 43 -10 -5 -18 0 -18 12 0 12 -10 16 -23 8
-14 -9 -18 -5 -9 9 25 41 70 25 141 -52z m-809 -85 c22 -22 40 -58 40 -80 0
-22 11 -40 23 -40 13 0 3 -22 -23 -50 -78 -83 -99 -66 -98 80 2 145 2 146 58
90z m-963 -35 c-3 -19 2 -47 11 -62 17 -27 -22 -69 -49 -52 -7 4 -11 -14 -8
-42 3 -27 -3 -44 -12 -38 -20 12 -16 66 8 104 8 14 10 34 2 46 -7 11 -2 34 12
50 32 38 43 37 36 -6z m1094 -70 c15 -9 25 -52 24 -101 -1 -84 -2 -85 -67 -78
-84 10 -98 48 -37 105 35 32 45 60 38 97 -5 29 -3 39 4 22 7 -16 24 -37 38
-45z m-1021 -166 c3 -103 38 -237 70 -269 25 -25 23 -180 -2 -180 -19 0 -20
-6 -4 -22 26 -26 -6 -118 -39 -118 -11 0 -14 -15 -7 -33 7 -17 1 -46 -13 -63
-19 -25 -20 -28 0 -17 14 9 25 7 25 -3 0 -11 19 -24 42 -30 36 -10 41 -21 28
-68 -8 -31 -16 -69 -19 -85 -2 -16 -14 -32 -26 -36 -16 -5 -16 13 0 64 16 54
16 78 -1 95 -19 19 -24 16 -24 -9 0 -51 -37 -62 -91 -26 -45 30 -49 29 -49 -2
0 -18 -5 -29 -11 -23 -17 17 13 116 34 116 10 0 16 -15 13 -33 -3 -18 5 -37
19 -42 17 -6 21 3 11 28 -12 34 -10 34 25 7 31 -24 30 -19 -7 28 -53 69 -63
173 -13 131 17 -14 29 -17 26 -7 -10 36 26 108 48 95 14 -9 15 -4 4 15 -10 15
-15 47 -12 71 3 24 -4 49 -15 56 -12 7 -15 41 -8 77 6 35 5 58 -2 51 -21 -19
-30 -198 -9 -185 9 6 17 1 17 -10 0 -11 -9 -25 -20 -32 -11 -7 -21 -32 -21
-56 -2 -42 -2 -42 -18 -4 -9 24 -7 46 7 55 22 14 1 23 -36 16 -10 -2 -10 9 2
23 33 42 30 190 -6 225 -28 28 -27 31 9 31 22 0 44 -11 50 -25 8 -20 10 -20
11 0 1 14 -16 43 -37 64 -22 22 -31 45 -20 51 12 8 12 27 -2 51 -13 26 -14 39
0 39 13 0 13 17 0 53 -18 47 -17 50 11 27 26 -22 29 -20 17 10 -9 25 -5 33 13
27 18 -6 28 -50 30 -128z m1468 30 c46 -89 51 -107 23 -90 -10 6 -24 -6 -30
-27 -16 -48 -71 -72 -71 -30 0 17 8 26 17 20 9 -6 16 3 16 19 0 16 -6 29 -13
29 -16 0 -20 55 -8 115 12 61 17 58 66 -36z m-1287 23 c-6 -11 1 -31 17 -47
24 -24 22 -31 -11 -52 -21 -13 -33 -33 -27 -44 7 -10 3 -19 -7 -19 -11 0 -26
18 -33 40 -7 22 -21 40 -30 40 -10 0 -5 -25 11 -55 32 -62 37 -105 12 -105
-53 0 -69 160 -21 208 46 46 112 71 89 34z m1160 -96 c-5 -14 -1 -26 10 -26
10 0 19 -14 19 -31 0 -17 -9 -26 -20 -19 -13 8 -13 -5 0 -40 11 -29 20 -72 20
-95 0 -87 -47 3 -52 99 -3 53 -6 103 -7 112 0 9 -10 11 -21 4 -23 -14 -28 56
-6 78 20 20 69 -51 57 -82z m-298 -17 c6 -16 19 -24 28 -19 9 6 23 0 31 -13 9
-15 5 -18 -12 -7 -19 12 -23 8 -16 -13 8 -19 -2 -30 -28 -32 -29 -2 -36 6 -27
31 7 18 7 26 -1 19 -15 -15 -68 19 -68 43 0 27 82 19 93 -9z m482 -119 c-5
-49 -3 -85 6 -79 9 5 22 1 28 -10 7 -10 28 -14 47 -8 20 6 26 4 14 -6 -11 -9
-21 -84 -22 -167 -2 -172 -81 -375 -175 -455 -67 -57 -75 -56 -46 3 12 27 31
43 41 37 10 -6 12 -1 4 12 -8 13 -1 52 17 86 17 35 31 82 31 106 0 23 15 64
33 90 19 26 25 42 14 35 -12 -7 -22 13 -24 47 -1 32 -4 70 -4 84 -1 14 5 47
13 73 12 40 9 47 -19 36 -38 -15 -42 11 -11 69 15 28 15 48 1 62 -27 27 -6 75
32 75 24 0 28 -18 20 -90z m-1028 -80 c37 10 38 9 8 -10 -27 -17 -32 -39 -22
-108 7 -53 3 -92 -10 -100 -12 -7 -16 -26 -10 -43 7 -19 -1 -29 -26 -29 -22 0
-28 -6 -15 -15 16 -11 14 -35 -5 -85 -15 -38 -24 -51 -20 -27 5 23 0 55 -9 70
-13 20 -17 20 -18 2 0 -35 -33 -31 -48 6 -6 18 -3 26 8 19 11 -7 20 2 20 20 0
18 7 28 16 22 36 -22 89 106 58 137 -16 16 -34 24 -40 19 -5 -6 -17 0 -25 14
-10 15 -7 19 8 10 13 -8 23 -5 23 6 0 11 14 16 30 9 17 -6 30 -2 30 9 0 11
-13 25 -30 31 -16 7 -30 1 -30 -12 0 -17 -7 -16 -25 2 -20 20 -19 28 1 41 15
9 30 33 34 54 11 61 12 61 33 2 17 -44 30 -53 64 -44z m757 15 c-13 -5 -24
-17 -24 -27 0 -11 17 -10 42 3 37 20 39 18 20 -18 -12 -22 -23 -66 -23 -97 -2
-49 -4 -51 -19 -16 -9 22 -18 28 -19 13 -1 -26 -133 -18 -160 10 -22 21 49 43
82 26 46 -25 62 -24 45 4 -10 16 -4 20 19 11 18 -7 33 -4 33 7 0 11 -13 25
-28 31 -15 6 -23 27 -18 48 7 24 21 33 42 25 21 -8 24 -15 8 -20z m489 5 c16
-16 20 -30 8 -30 -11 0 -20 -7 -19 -15 7 -40 -4 -85 -19 -85 -10 0 -18 36 -18
80 0 89 5 93 48 50z m-1013 -94 c40 -14 92 -111 71 -131 -9 -8 -21 -4 -25 10
-5 14 -16 21 -23 17 -8 -5 -36 8 -64 29 l-49 37 48 -12 48 -12 -43 43 c-24 24
-43 54 -42 68 0 17 8 15 25 -6 13 -17 38 -37 54 -43z m-125 -31 c-1 -19 5 -54
12 -78 8 -25 6 -49 -6 -56 -21 -13 -29 13 -22 66 2 15 -6 21 -18 14 -14 -9
-13 4 2 38 28 60 35 64 32 16z m-275 -15 c14 -17 20 -37 13 -44 -7 -7 -13 -2
-13 12 0 13 -9 19 -19 13 -11 -7 -14 -28 -8 -47 12 -38 -15 -8 -54 61 -27 46
44 50 81 5z m-122 -129 c-21 -44 -38 -89 -38 -100 0 -12 -10 -21 -21 -21 -12
0 -17 8 -11 17 6 10 3 43 -6 75 -19 66 3 98 70 104 l44 3 -38 -78z m538 2 c4
-23 15 -43 25 -43 22 0 14 -72 -10 -94 -10 -9 -12 -6 -5 6 7 13 -5 43 -26 68
-44 51 -54 128 -15 115 14 -4 28 -28 31 -52z m612 26 c7 -19 3 -26 -10 -18
-12 7 -7 -15 12 -50 32 -63 32 -63 -10 -41 -41 22 -42 21 -17 -23 36 -66 40
-137 8 -137 -15 0 -25 16 -22 35 2 19 -7 46 -22 61 -15 15 -22 46 -16 70 6 24
12 64 14 89 4 51 45 60 63 14z m-814 -14 c-5 -14 5 -41 22 -60 35 -41 -10 -53
-50 -13 -24 24 -11 98 18 98 11 0 15 -11 10 -25z m299 -103 c-9 -130 -60 -242
-98 -219 -12 7 -16 4 -9 -7 7 -11 -10 -42 -38 -68 -32 -30 -46 -36 -38 -15 7
19 0 37 -19 44 -17 6 -31 22 -31 35 0 16 8 16 30 -2 24 -20 30 -19 30 6 0 18
-10 38 -22 45 -16 10 -14 20 5 33 21 15 21 21 2 29 -19 8 -19 20 -3 51 31 57
59 8 43 -73 -10 -53 -8 -58 18 -36 17 13 36 20 42 13 6 -6 18 0 26 14 10 15 7
19 -8 10 -31 -19 -29 0 6 54 17 26 26 73 21 112 -9 72 0 102 32 102 13 0 17
-49 11 -128z m-563 53 c0 -30 -7 -66 -16 -79 -8 -13 -6 -29 6 -36 11 -7 20
-21 20 -32 0 -11 -9 -15 -20 -8 -11 7 -20 -1 -20 -17 0 -16 24 -35 52 -42 29
-7 49 -17 44 -21 -42 -42 -125 29 -119 102 7 72 14 135 20 173 7 40 33 8 33
-40z m290 -132 c0 -10 -18 -13 -40 -7 -22 6 -40 2 -40 -7 0 -26 72 -60 91 -43
8 8 9 3 1 -11 -22 -38 -66 -30 -101 19 -44 64 -39 77 29 72 33 -2 60 -13 60
-23z m715 -41 c19 -40 16 -54 -16 -83 -21 -19 -33 -42 -27 -52 18 -29 -26 -19
-51 12 -20 24 -17 41 17 88 22 31 35 63 28 70 -7 7 -4 13 7 13 12 0 30 -22 42
-48z m403 -118 c37 -79 88 -172 114 -207 26 -34 49 -75 52 -90 12 -56 372
-277 453 -277 13 0 23 -13 23 -28 0 -16 5 -45 12 -65 9 -27 0 -24 -31 13 -38
44 -41 45 -22 6 25 -52 27 -72 5 -58 -10 5 -16 -9 -15 -32 2 -67 -44 -64 -79
5 -33 63 -24 113 11 58 14 -21 18 -22 19 -3 0 15 10 20 25 12 15 -8 18 -7 8 4
-9 10 -24 18 -34 18 -9 0 -31 18 -47 40 -29 39 -30 38 -19 -10 l10 -50 -41 47
c-23 26 -42 41 -42 33 0 -8 -22 0 -49 17 -45 30 -49 30 -57 -2 -7 -26 -10 -23
-12 10 -1 25 -11 45 -22 45 -11 0 -20 14 -20 30 0 39 -32 39 -48 -1 -6 -17 14
-78 46 -135 32 -57 54 -114 49 -126 -5 -12 7 -35 26 -50 23 -18 29 -19 20 -3
-24 40 17 29 57 -15 20 -22 48 -40 61 -40 14 0 29 -11 34 -24 6 -18 25 -16 76
8 134 61 151 61 221 -3 36 -33 110 -76 164 -95 148 -53 297 -246 191 -246 -11
0 -14 8 -8 18 6 10 -3 23 -19 29 -19 7 -30 0 -30 -19 0 -17 -8 -25 -19 -19
-10 6 -24 2 -31 -9 -7 -11 -21 -15 -32 -9 -10 6 -13 20 -7 31 6 10 20 14 29 8
9 -6 23 -2 30 10 13 21 -10 27 -80 22 -36 -3 -37 -1 -7 23 35 28 16 95 -26 95
-15 0 -15 -8 0 -27 13 -15 17 -33 9 -40 -23 -23 -46 -14 -46 18 0 16 -13 35
-30 42 -16 6 -25 19 -20 28 6 9 2 22 -10 29 -11 7 -20 1 -21 -14 0 -18 -8 -16
-25 6 -17 23 -44 30 -90 23 -55 -8 -68 -3 -78 33 -11 44 -50 60 -41 17 3 -14
-11 -22 -32 -19 -22 4 -32 -2 -24 -15 7 -11 4 -21 -8 -21 -11 0 -32 18 -46 40
-13 22 -33 40 -42 40 -10 0 -7 -13 7 -30 20 -25 19 -30 -8 -30 -17 0 -32 9
-32 20 0 19 -74 57 -130 68 -11 2 -40 15 -65 29 -27 15 -45 16 -45 4 0 -34
-63 3 -79 47 -33 89 58 204 116 147 20 -20 22 -17 11 15 -9 22 -30 54 -48 70
-19 17 -39 44 -45 60 -10 24 -12 23 -13 -5 -2 -40 -43 -46 -78 -11 -28 28 -33
84 -5 67 10 -6 24 -3 31 9 16 27 -36 26 -63 -1 -36 -36 -89 68 -76 149 6 39 2
74 -11 82 -11 7 -20 6 -18 -4 6 -35 -3 -92 -13 -82 -31 31 -30 237 1 249 43
16 61 -6 33 -39 -17 -21 -15 -37 7 -66 25 -33 29 -34 29 -5 1 19 -10 38 -24
44 -14 5 0 11 30 11 65 2 66 8 17 90 -46 76 -70 152 -48 151 9 -1 46 -66 84
-145z m-1245 77 c-7 -19 -1 -25 18 -18 16 6 29 0 29 -13 0 -13 12 -20 27 -14
21 8 27 -20 25 -133 -2 -135 -23 -200 -57 -180 -8 5 -15 -5 -15 -23 0 -18 8
-27 19 -21 27 17 41 -17 20 -50 -12 -19 -18 -21 -19 -5 0 14 -13 20 -29 13
-17 -6 -29 -17 -28 -24 7 -52 -4 -72 -24 -43 -15 23 -19 16 -15 -30 4 -35 -4
-59 -17 -60 -32 0 -60 -30 -29 -30 14 0 21 -11 17 -25 -5 -14 -2 -45 7 -70 11
-28 9 -45 -3 -45 -13 0 -12 -17 3 -44 17 -31 17 -46 2 -51 -12 -4 -17 -21 -11
-36 6 -16 2 -29 -9 -29 -11 0 -25 -14 -32 -31 -6 -18 -3 -26 8 -19 11 7 20 -3
20 -21 0 -21 -11 -29 -29 -22 -15 6 -33 0 -38 -13 -5 -13 -11 -8 -11 12 -1 20
11 61 27 92 16 32 24 63 17 69 -7 7 2 13 20 13 21 0 29 11 21 30 -6 17 -24 30
-40 30 -17 0 -23 10 -15 23 8 13 12 71 10 130 -2 62 6 107 17 107 12 0 21 12
21 27 0 14 22 47 49 72 28 26 45 54 40 63 -6 9 6 33 25 52 20 20 35 59 35 86
-1 28 5 70 14 94 8 25 7 50 -2 56 -26 15 -51 -32 -44 -85 4 -30 -5 -45 -26
-45 -17 0 -31 -9 -31 -20 0 -11 -10 -20 -22 -20 -14 0 -10 19 10 50 18 28 24
50 12 50 -15 0 -15 12 -1 38 15 28 13 44 -10 63 -22 18 -24 31 -7 52 30 36 65
35 51 -2z m-167 -82 c26 -35 29 -49 10 -49 -21 -1 -21 -4 1 -18 21 -13 20 -19
-5 -29 -20 -7 -32 -1 -32 18 0 16 -16 30 -35 31 -33 3 -33 3 0 12 19 5 35 18
35 30 0 11 -13 15 -28 9 -28 -10 -59 33 -39 54 18 17 55 -6 93 -58z m1069 11
c-2 -22 -10 -40 -17 -40 -8 0 -10 -18 -4 -40 6 -22 1 -40 -12 -40 -12 0 -22
-17 -22 -37 0 -20 -19 -90 -41 -155 -114 -327 -22 -805 204 -1059 47 -53 221
-387 229 -439 25 -181 135 -460 171 -438 9 6 12 -2 6 -18 -19 -48 233 -264
365 -314 133 -50 322 -24 311 43 -3 17 8 43 25 57 22 18 30 19 30 1 0 -13 9
-18 20 -11 11 7 20 30 20 51 0 22 10 39 21 39 30 0 3 -80 -43 -131 -56 -61
-46 -78 15 -30 34 26 61 35 73 23 28 -28 2 -55 -71 -72 -58 -14 -60 -17 -18
-25 26 -4 57 1 69 13 15 15 29 14 48 -1 21 -18 24 -15 13 15 -7 21 -6 31 4 22
22 -20 27 -174 6 -174 -9 0 -45 17 -82 37 -52 30 -87 34 -174 23 -146 -19
-396 52 -461 130 -14 16 -36 30 -50 30 -30 0 -118 111 -138 173 -21 68 -72
103 -72 49 0 -23 10 -42 22 -42 13 0 18 -18 12 -42 -8 -28 4 -57 32 -85 24
-24 58 -70 76 -103 17 -33 42 -58 55 -55 13 3 23 -6 23 -18 0 -13 6 -18 13
-11 7 8 25 4 40 -9 20 -16 27 -16 27 2 0 13 9 18 20 11 12 -7 15 -21 9 -31 -6
-11 7 -19 30 -19 22 0 41 -9 41 -19 0 -11 14 -15 30 -8 17 6 30 0 30 -13 0
-13 12 -20 28 -14 15 6 36 2 47 -9 14 -14 34 -14 62 1 50 27 63 28 63 2 0 -11
-11 -18 -25 -15 -14 3 -23 -6 -20 -20 8 -39 -448 54 -484 99 -49 61 -133 271
-143 356 -7 61 -22 116 -33 123 -11 6 -24 53 -30 104 -5 51 -18 87 -28 81 -9
-6 -17 13 -17 41 0 28 -7 51 -16 51 -22 0 -70 174 -54 199 7 12 1 20 -14 16
-14 -3 -24 9 -21 28 3 18 -12 37 -35 43 -25 6 -45 33 -53 72 -6 34 -20 56 -29
50 -10 -5 -18 -3 -18 6 0 9 -27 47 -60 86 -39 46 -56 83 -48 107 8 25 5 33
-10 24 -14 -9 -22 10 -23 53 -2 55 -5 59 -19 26 -15 -34 -17 -35 -19 -5 0 19
-9 35 -19 35 -11 0 -25 27 -32 60 -7 33 -21 60 -32 60 -10 0 -18 12 -18 28 0
15 -13 52 -28 81 -23 44 -23 71 -4 147 14 52 22 157 19 233 -5 123 7 196 65
389 14 48 14 48 -26 10 -22 -21 -36 -44 -33 -52 4 -7 -1 -19 -11 -25 -11 -7
-16 -29 -12 -51 4 -22 -1 -44 -12 -51 -10 -6 -13 -20 -7 -30 6 -11 2 -19 -10
-19 -11 0 -21 -16 -21 -35 1 -30 3 -31 20 -5 11 17 19 21 19 10 0 -11 -8 -32
-17 -48 -53 -83 -73 174 -24 304 23 58 69 77 49 19 -11 -31 -9 -31 16 2 16 20
42 35 58 32 51 -7 74 0 85 27 11 29 -99 33 -144 5 -44 -27 -47 4 -3 48 39 39
44 40 91 9 33 -22 50 -25 50 -9 0 13 9 18 20 11 11 -7 15 1 9 16 -6 16 3 34
21 41 18 7 27 22 20 33 -7 11 -3 20 8 20 11 0 18 -18 17 -40z m-1415 -220
c-22 -19 -40 -45 -40 -59 0 -13 -8 -18 -18 -12 -11 7 -9 35 4 70 12 32 29 54
38 49 9 -6 16 5 16 24 0 19 -5 29 -12 23 -7 -7 -24 -2 -37 11 -21 19 -19 28 7
47 55 41 96 -106 42 -153z m165 82 c-22 -18 -45 -48 -51 -67 -7 -19 -22 -35
-34 -35 -31 0 -16 65 24 102 19 17 49 31 67 31 28 0 27 -5 -6 -31z m2103 23
c9 -8 35 -15 59 -15 26 -1 42 -13 41 -32 -1 -17 9 -31 24 -31 14 0 22 7 17 15
-11 17 58 8 89 -11 10 -6 29 3 43 20 19 24 29 25 41 6 12 -19 22 -19 46 2 27
22 32 21 32 -7 0 -17 -16 -33 -35 -33 -27 -1 -24 -6 10 -20 25 -10 45 -29 45
-42 0 -14 13 -7 29 14 17 22 30 28 30 15 1 -14 53 4 129 45 137 74 256 99 181
37 -39 -31 -36 -31 66 1 25 7 45 6 45 -3 0 -30 -169 -86 -260 -87 -91 0 -160
-34 -160 -77 0 -14 -9 -19 -20 -12 -11 7 -20 -4 -20 -24 -1 -30 -4 -31 -20 -6
-17 26 -19 25 -20 -5 0 -50 -30 -43 -68 15 -18 28 -47 50 -63 50 -17 0 -68 20
-115 44 -46 24 -88 45 -94 46 -79 18 -166 110 -103 110 20 0 43 -7 51 -15z
m-1872 -95 c-12 -27 -29 -50 -37 -50 -21 0 -38 -77 -18 -84 10 -3 10 -19 0
-35 -15 -23 -24 -24 -49 -3 -29 24 -14 85 30 122 7 6 23 30 36 55 32 62 67 58
38 -5z m76 -81 c-20 -15 -30 -36 -23 -47 8 -14 0 -17 -21 -8 -24 9 -30 5 -20
-11 9 -14 -7 -50 -37 -85 -32 -38 -48 -77 -42 -105 41 -203 28 -311 -29 -243
-14 17 -19 30 -11 30 7 0 7 10 0 22 -10 16 -19 14 -32 -5 -20 -30 -10 48 13
108 8 20 3 49 -11 66 -13 16 -19 36 -12 43 7 7 13 2 13 -12 0 -13 9 -19 21
-11 14 8 14 21 -2 41 -34 40 -8 93 39 79 33 -11 63 20 70 72 1 8 8 20 16 27 7
8 8 27 2 42 -6 17 2 28 21 28 22 0 28 11 18 35 -11 31 -9 31 25 -2 36 -36 36
-39 2 -64z m-422 6 c-10 -39 -9 -40 10 -10 12 19 31 35 42 35 12 0 7 -14 -11
-31 -17 -18 -31 -41 -31 -52 0 -10 -9 -14 -20 -7 -22 13 -62 -69 -46 -95 5 -9
-3 -14 -18 -10 -16 3 -24 -11 -22 -36 3 -28 -8 -42 -35 -44 -50 -3 -49 2 9 88
27 40 44 84 38 100 -7 20 0 24 25 14 23 -9 31 -6 22 8 -16 27 4 85 30 85 11 0
14 -20 7 -45z m3019 -7 c-8 -71 -15 -75 -131 -73 -110 1 -150 24 -131 73 9 24
33 30 99 23 48 -4 100 0 115 10 45 29 54 23 48 -33z m-2867 -34 c-32 -32 -27
-55 8 -41 17 6 30 1 30 -12 0 -13 -9 -18 -21 -11 -13 9 -17 -12 -12 -58 4 -42
-5 -88 -22 -112 -18 -27 -22 -50 -10 -66 33 -43 16 -331 -21 -369 -51 -51 -80
-7 -43 64 44 84 51 171 14 171 -18 0 -25 12 -18 30 7 17 1 30 -13 31 -13 0 -7
13 15 30 21 16 29 29 18 29 -11 0 -20 27 -20 61 0 33 6 50 14 38 10 -17 18
-17 28 -1 7 12 8 30 2 41 -6 10 -3 24 9 31 11 7 20 32 20 56 -1 35 -4 38 -19
15 -10 -17 -26 -22 -35 -13 -9 10 -5 21 9 26 14 5 25 22 25 38 0 15 9 28 20
28 11 0 19 7 18 15 -6 33 6 53 16 28 6 -14 0 -37 -12 -49z m638 -24 c0 -16 10
-30 23 -30 13 0 -1 -22 -30 -49 -48 -44 -56 -111 -13 -111 9 0 21 -13 27 -30
12 -31 -91 -100 -114 -76 -24 24 -13 48 20 42 18 -3 37 8 41 24 7 24 5 25 -10
3 -14 -20 -21 -15 -28 23 -10 54 12 108 63 151 28 24 27 25 -4 15 -19 -6 -35
-1 -35 10 0 11 -11 14 -25 5 -17 -10 -16 -4 2 19 34 42 83 44 83 4z m731 -12
c13 -43 -24 -138 -54 -138 -9 0 -8 22 2 49 13 34 12 52 -5 60 -18 8 -18 14 1
23 14 6 20 20 14 30 -6 10 -2 18 8 18 11 0 26 -19 34 -42z m-929 -75 c-29 -53
-30 -147 -2 -103 11 17 20 23 20 15 0 -27 5 -44 24 -95 15 -40 14 -45 -7 -25
-14 14 -34 25 -45 25 -11 0 -9 -11 4 -24 30 -30 31 -76 3 -76 -12 0 -16 8 -10
19 6 10 3 24 -9 31 -11 7 -20 -6 -20 -29 0 -22 -9 -41 -20 -41 -11 0 -20 -14
-20 -31 0 -17 -10 -25 -21 -18 -14 8 -9 26 13 52 26 27 37 79 41 181 4 87 15
149 31 158 36 23 43 8 18 -39z m847 -16 c3 -31 7 -65 9 -74 1 -10 18 -12 37
-5 29 10 29 7 -4 -18 -21 -16 -46 -30 -54 -30 -9 0 -11 -13 -4 -30 6 -16 1
-30 -11 -30 -14 0 -18 -19 -10 -50 7 -28 4 -50 -8 -50 -44 0 -40 192 8 338 13
39 29 17 37 -51z m955 21 c9 -6 12 -18 7 -26 -5 -9 7 -34 28 -56 25 -27 31
-49 19 -68 -16 -23 -24 -22 -47 10 -16 20 -41 32 -56 27 -15 -6 -49 2 -76 16
-49 27 -49 28 -4 28 25 1 45 -10 45 -24 1 -17 6 -16 19 4 16 25 23 25 54 0 30
-25 29 -21 -4 24 -26 35 -44 45 -54 30 -10 -17 -14 -16 -15 2 0 14 -7 24 -15
23 -33 -6 -47 3 -36 21 11 17 100 10 135 -11z m974 -18 c38 -2 94 5 125 17 43
17 62 15 82 -5 21 -23 17 -26 -20 -17 -25 6 -50 3 -56 -7 -7 -10 -20 -13 -30
-7 -11 6 -19 2 -19 -9 0 -11 -16 -17 -35 -13 -19 3 -78 12 -130 20 -52 7 -100
23 -108 35 -9 16 7 17 55 6 37 -9 99 -18 136 -20z m-225 -81 c-7 -16 -35 -29
-62 -29 -51 0 -68 27 -31 50 11 7 20 3 20 -9 0 -11 10 -21 22 -21 14 0 17 19
9 52 -12 49 -11 50 20 20 18 -18 28 -46 22 -63z m-133 29 c0 -32 -12 -40 -55
-37 -126 8 -136 4 -94 -42 32 -35 33 -44 8 -60 -42 -27 -71 -23 -43 5 30 30
31 56 3 56 -12 0 -17 -7 -11 -16 5 -9 -10 -28 -34 -43 -39 -24 -41 -24 -19 3
13 16 19 35 12 42 -7 7 0 28 15 47 26 31 24 31 -17 5 -25 -15 -45 -34 -45 -43
0 -8 -11 -15 -24 -15 -18 0 -18 6 -2 22 13 13 18 35 12 50 -6 16 -3 29 7 30
106 14 127 13 115 -5 -8 -14 1 -13 28 1 31 16 43 15 51 -3 8 -18 17 -15 33 10
30 47 60 44 60 -7z m415 -39 c74 -12 155 -16 180 -10 69 18 224 -27 180 -52
-19 -10 -72 -17 -119 -15 -129 5 -160 0 -146 -22 19 -31 -49 -49 -76 -20 -19
19 -14 21 26 10 34 -10 44 -8 30 6 -11 11 -69 25 -130 31 -60 6 -112 12 -114
12 -3 1 0 13 5 27 6 15 -5 25 -29 25 -22 0 -35 -7 -29 -15 5 -9 0 -16 -11 -16
-11 0 -25 9 -32 20 -15 24 68 62 106 49 14 -5 86 -18 159 -30z m-915 -40 c-21
-13 -22 -18 -4 -19 14 0 30 14 37 30 18 47 51 35 36 -13 -11 -35 -7 -41 25
-33 25 7 39 0 39 -17 0 -34 -18 -34 -102 1 -55 23 -66 37 -57 72 8 31 17 37
34 20 16 -16 14 -27 -8 -41z m-2681 -32 c-11 -30 -16 -66 -10 -81 6 -16 2 -23
-8 -17 -9 6 -22 0 -28 -14 -5 -14 -11 -5 -11 19 -2 52 37 146 61 146 9 0 7
-24 -4 -53z m3271 20 c33 -7 74 -15 90 -17 17 -3 89 -32 162 -65 119 -55 158
-91 158 -147 0 -22 -67 -24 -88 -3 -9 8 -24 16 -34 18 -10 1 -26 3 -36 5 -9 1
-22 20 -28 42 -6 22 -21 40 -35 40 -18 0 -18 -7 1 -30 35 -42 9 -62 -29 -24
-17 17 -26 44 -20 59 17 46 -85 83 -109 39 -11 -19 -24 -32 -31 -29 -6 3 -49
4 -96 3 -47 -2 -67 -7 -45 -12 57 -14 71 -32 51 -64 -14 -24 -32 -21 -108 14
-139 66 -134 84 24 84 153 0 210 13 190 44 -7 13 -18 10 -28 -6 -13 -21 -26
-18 -61 13 -25 21 -38 28 -30 14 18 -31 8 -31 -57 -2 -114 52 -24 66 159 24z
m-3419 -82 c-25 -26 -94 -26 -79 0 39 69 55 78 73 45 10 -18 13 -39 6 -45z
m1966 9 c15 -18 18 -45 7 -74 -16 -44 -17 -44 -55 13 -73 108 -33 159 48 61z
m468 26 c33 -38 29 -49 -13 -41 -10 2 -7 -11 7 -28 15 -17 40 -29 57 -26 16 3
33 -4 37 -15 4 -11 -14 -21 -39 -23 -46 -2 -166 134 -140 160 23 23 57 13 91
-27z m559 -50 c47 -7 113 -36 146 -64 35 -29 45 -45 24 -39 -20 7 -31 5 -25
-5 6 -10 42 -23 81 -31 60 -11 70 -21 70 -67 -1 -129 -56 -130 -121 -3 -24 47
-54 79 -75 79 -20 0 -73 27 -118 60 -69 51 -84 55 -94 28 -17 -44 -15 -52 8
-38 12 7 14 -2 6 -23 -8 -21 -16 -26 -21 -11 -5 13 -23 24 -41 24 -24 0 -16
-17 31 -64 35 -35 71 -56 79 -47 9 9 5 20 -9 25 -27 10 -35 66 -10 66 53 -1
76 -76 34 -114 -25 -24 -125 61 -176 150 -13 21 -39 66 -58 100 l-35 62 109
-38 c60 -20 148 -43 195 -50z m-1864 19 c0 -32 -53 -63 -73 -42 -7 6 -7 25 0
42 15 40 73 40 73 0z m676 -14 l21 -45 3 50 c3 44 6 42 23 -17 11 -37 25 -62
32 -55 13 14 83 -122 84 -164 1 -44 41 -5 43 42 2 34 6 30 17 -16 12 -48 18
-53 30 -26 8 18 27 29 43 23 15 -6 23 -18 18 -27 -17 -28 14 -83 41 -73 41 16
51 -11 14 -39 -19 -15 -25 -27 -12 -27 35 -1 66 48 49 76 -9 14 -28 22 -44 19
-15 -3 -28 8 -28 24 0 34 147 56 168 25 17 -25 142 -85 177 -85 16 0 55 -19
87 -41 51 -37 60 -38 70 -11 7 18 21 27 31 20 11 -7 10 -22 -4 -39 -26 -32
-13 -60 45 -91 36 -19 40 -18 30 10 -9 23 -1 32 27 32 21 0 39 -9 39 -20 0
-11 14 -20 30 -20 17 0 30 -10 30 -21 0 -12 -9 -16 -20 -9 -11 7 -15 -1 -8
-18 9 -24 17 -25 37 -6 14 13 22 34 18 46 -5 12 4 21 20 21 23 0 25 -11 11
-48 -10 -27 -13 -57 -6 -68 7 -11 -5 -24 -26 -30 -40 -10 -116 -147 -82 -147
10 0 13 -8 7 -19 -6 -10 -3 -24 8 -30 10 -7 15 -24 9 -39 -5 -14 13 -41 41
-60 58 -38 65 -63 20 -80 -21 -8 -42 8 -65 48 -19 33 -42 60 -51 60 -10 0 -7
-13 7 -30 30 -36 -1 -41 -36 -6 -37 37 -28 76 17 76 23 0 36 9 29 20 -7 12
-20 16 -29 11 -9 -6 -21 7 -27 29 -6 22 -2 45 8 51 10 6 18 21 18 33 0 12 -14
10 -34 -7 -26 -21 -30 -21 -18 -1 10 17 -1 45 -29 75 -45 48 -40 98 5 53 29
-29 56 -31 56 -4 0 10 -23 25 -50 32 -28 7 -58 26 -67 42 -9 17 -34 26 -55 21
-32 -7 -28 -13 22 -34 33 -14 49 -30 35 -35 -14 -5 -68 21 -120 59 -52 37
-108 66 -125 65 -16 -1 -39 2 -50 8 -37 20 -90 22 -90 3 0 -11 -24 -11 -59 -1
-91 26 -110 42 -78 64 19 13 14 15 -16 7 -31 -9 -53 0 -75 33 -18 25 -32 36
-33 25 0 -10 -10 -2 -22 18 -15 27 -26 31 -36 14 -11 -17 -32 -10 -73 26 -47
40 -53 55 -33 76 14 14 25 34 24 46 0 12 -9 5 -21 -14 -11 -19 -33 -35 -48
-35 -37 0 -78 73 -50 90 11 7 20 34 20 61 0 61 27 63 56 4z m-776 -35 c0 -33
7 -36 50 -20 43 16 50 13 50 -21 0 -22 -14 -46 -32 -52 -25 -10 -26 -16 -5
-29 16 -11 18 -18 4 -18 -30 0 -57 37 -83 115 -13 39 -14 65 -3 65 10 0 19
-18 19 -40z m-1100 -29 c0 -15 -13 -42 -30 -58 -16 -17 -30 -45 -30 -63 0 -18
-9 -27 -20 -20 -11 7 -20 1 -20 -12 0 -14 -6 -19 -13 -12 -7 7 -1 27 12 43 14
17 20 44 14 61 -7 18 0 30 17 30 17 0 24 12 17 30 -7 19 1 30 21 30 18 0 32
-13 32 -29z m94 -28 c-7 -32 -2 -67 11 -80 25 -25 -30 -81 -80 -82 -14 -1 -25
-10 -25 -21 0 -24 44 -18 65 10 12 16 11 -15 -4 -87 0 -5 -13 2 -29 15 -21 18
-29 14 -38 -20 -10 -38 -15 -40 -42 -13 -38 38 -22 104 48 195 29 39 59 86 66
105 20 56 40 40 28 -22z m121 -56 c-5 -26 -2 -47 7 -47 18 0 9 -35 -35 -135
-16 -36 -38 -65 -48 -65 -11 0 -6 27 10 59 37 71 39 88 8 69 -17 -10 -19 -3
-8 24 8 21 16 47 18 58 2 11 12 33 22 48 12 19 10 24 -6 14 -14 -8 -23 -2 -23
16 0 20 11 26 32 19 21 -8 28 -29 23 -60z m451 5 c29 -23 31 -32 10 -55 -16
-16 -26 -73 -25 -142 1 -69 -7 -115 -20 -116 -11 0 -5 -10 15 -21 29 -17 31
-27 13 -50 -19 -22 -18 -28 1 -28 15 0 21 -18 16 -46 -15 -75 38 -106 54 -32
11 46 5 67 -23 89 -20 15 -27 28 -15 28 27 1 29 67 1 84 -14 10 -12 24 4 44
20 23 19 31 -1 39 -21 7 -21 14 -1 35 32 35 47 17 52 -64 2 -37 11 -77 19 -90
8 -13 3 -29 -11 -35 -20 -10 -20 -14 0 -24 17 -7 21 -36 13 -85 -7 -43 1 -109
19 -162 17 -48 26 -96 21 -105 -6 -9 0 -16 13 -16 13 0 18 -14 11 -31 -6 -17
3 -53 21 -80 17 -27 24 -49 14 -49 -9 0 -7 -7 6 -15 12 -8 28 -55 34 -105 7
-52 5 -79 -4 -63 -10 14 -25 28 -34 30 -10 2 -16 30 -14 63 4 50 1 53 -13 20
-22 -50 -55 8 -35 60 10 25 5 27 -28 10 -35 -19 -36 -26 -11 -51 16 -16 35
-58 43 -94 8 -36 24 -71 37 -79 16 -11 15 -26 -3 -55 -18 -29 -19 -40 -3 -36
13 3 25 -13 28 -35 2 -22 11 -65 19 -95 12 -42 8 -55 -15 -55 -35 0 -64 -61
-37 -78 10 -7 15 -37 12 -68 -4 -36 8 -71 33 -96 22 -22 35 -47 29 -56 -6 -10
3 -28 19 -42 21 -17 24 -34 10 -59 -10 -20 -13 -41 -7 -48 7 -6 16 -46 21 -87
4 -41 22 -90 39 -109 17 -19 26 -43 19 -53 -11 -18 29 -38 118 -57 44 -9 131
-108 117 -132 -5 -9 -20 -10 -31 -2 -13 7 -16 4 -9 -9 8 -11 5 -27 -7 -34 -19
-12 -28 14 -22 64 2 14 -14 42 -36 64 -40 40 -40 40 -31 -28 5 -39 -1 -74 -15
-82 -15 -10 -18 -3 -9 22 11 28 8 31 -13 13 -20 -16 -33 -16 -50 1 -29 29 -32
83 -4 66 11 -7 20 2 20 19 0 17 -9 31 -19 31 -21 0 -66 -142 -50 -157 5 -5 9
1 9 14 0 13 10 23 21 23 12 0 15 -10 7 -23 -8 -13 -5 -18 6 -11 36 22 88 -32
64 -66 -18 -25 -20 -24 -10 5 10 33 8 33 -44 0 -53 -33 -53 -33 -24 4 27 35
27 37 -4 26 -41 -16 -81 29 -64 72 7 18 2 33 -10 33 -12 0 -22 10 -22 22 0 12
13 17 28 12 17 -7 33 6 40 32 21 81 13 114 -27 114 -21 0 -52 19 -68 42 -42
59 -77 32 -51 -38 25 -65 26 -59 -10 -95 -37 -37 -52 -37 -52 1 0 33 -30 93
-85 168 -19 26 -34 62 -33 80 1 19 5 22 11 8 8 -19 18 -19 48 -1 42 27 49 23
68 -40 11 -35 6 -45 -23 -45 -31 -1 -31 -4 -6 -20 22 -15 41 -7 74 30 43 49
80 69 56 30 -7 -11 8 -40 32 -65 l43 -45 -15 50 c-8 28 -16 97 -17 155 -3 99
-12 114 -66 107 -12 -1 -28 11 -34 28 -7 16 -31 30 -55 30 -36 0 -39 5 -17 31
22 27 30 25 72 -14 40 -37 47 -39 47 -10 0 18 -8 33 -17 33 -9 0 -27 23 -40
51 -29 64 -29 75 0 57 15 -9 18 -5 9 9 -8 13 -23 18 -33 12 -11 -6 -19 -2 -19
10 0 11 9 21 20 21 11 0 20 17 20 38 0 21 14 43 31 50 29 11 29 15 0 43 -17
18 -32 54 -33 80 -4 66 -6 75 -24 104 -10 14 -7 25 5 25 11 0 21 10 21 21 0
12 -8 17 -17 11 -9 -6 -18 16 -19 47 -1 32 -11 76 -23 98 -29 55 -26 83 7 83
15 0 32 22 37 49 5 28 2 45 -8 39 -9 -6 -17 4 -17 21 0 17 -9 31 -20 31 -11 0
-20 17 -20 37 0 20 -22 47 -50 59 -53 25 -66 73 -25 92 20 10 20 14 0 24 -14
6 -20 20 -13 31 7 11 -3 60 -22 110 -33 85 -33 127 -1 217 14 40 14 40 -20 0
-34 -40 -34 -40 -19 0 8 22 14 61 13 86 -2 25 5 41 14 36 10 -6 13 11 8 39
-11 55 7 61 61 21z m374 -13 c0 -11 -11 -17 -25 -14 -30 6 -34 -66 -5 -98 11
-12 29 -17 40 -10 52 31 96 25 68 -11 -24 -28 -24 -31 0 -17 19 11 24 8 18
-11 -6 -16 -31 -26 -58 -23 -39 5 -36 0 17 -24 74 -33 77 -42 33 -86 -29 -29
-29 -33 0 -49 18 -10 32 -36 32 -57 0 -23 14 -39 32 -39 25 0 21 -9 -15 -38
l-47 -38 60 7 c33 4 44 3 24 -3 -21 -7 -32 -24 -27 -38 6 -15 0 -32 -13 -37
-13 -5 -4 -11 20 -11 34 -2 42 7 34 33 -10 33 -10 33 12 0 12 -19 17 -43 12
-52 -14 -22 57 -88 74 -70 24 24 70 -34 84 -109 9 -41 19 -63 24 -49 14 39 46
29 46 -14 0 -22 11 -37 25 -34 14 4 18 3 10 -2 -8 -5 -15 -21 -15 -37 0 -15
-18 -28 -39 -28 -29 0 -36 9 -27 33 9 23 5 29 -11 19 -21 -13 -32 11 -25 53 4
25 -34 17 -45 -10 -6 -15 -11 -10 -11 11 -2 40 -42 27 -42 -13 0 -14 32 -58
70 -99 80 -85 83 -94 34 -94 -21 0 -66 46 -111 115 -56 86 -74 102 -69 65 3
-27 19 -55 35 -62 17 -6 20 -16 8 -23 -11 -7 -46 5 -78 28 -39 26 -46 36 -19
29 35 -10 40 -2 38 59 -2 70 -28 127 -28 61 0 -99 -104 -101 -112 -2 -1 18
-19 62 -94 225 -26 57 1 87 35 40 40 -55 52 -42 38 40 -7 41 -12 91 -11 112 1
31 -3 32 -30 10 -29 -24 -30 -22 -8 20 15 27 37 42 54 35 15 -6 28 -2 28 9 0
10 -25 19 -56 19 -59 0 -73 -72 -33 -168 13 -32 9 -36 -19 -25 -19 7 -46 13
-59 13 -16 1 -16 5 2 16 18 12 19 34 5 85 -27 92 -26 99 15 101 22 1 17 7 -15
16 l-50 14 46 25 c25 14 40 33 34 43 -6 9 -2 23 9 29 11 7 12 31 3 55 -10 29
-5 53 16 76 32 34 62 33 62 -1z m2565 4 c28 -28 62 -31 45 -3 -7 11 1 14 19 8
17 -7 31 -21 31 -31 0 -11 -8 -14 -18 -8 -11 6 -22 -2 -25 -19 -6 -26 -13 -26
-63 0 -31 16 -67 27 -79 25 -13 -3 -26 9 -29 26 -9 37 82 39 119 2z m505 8
c51 -23 53 -28 18 -29 -72 -3 -168 22 -156 40 15 25 68 21 138 -11z m-3210
-21 c-20 -24 -19 -39 6 -77 20 -30 24 -56 12 -75 -24 -37 -58 10 -47 65 3 20
-2 42 -13 48 -23 14 15 69 47 69 11 0 9 -13 -5 -30z m2272 -81 c29 -38 48 -76
41 -82 -7 -7 -18 2 -25 20 -7 18 -22 33 -33 33 -22 0 -73 59 -74 85 -2 36 41
10 91 -56z m-2768 -14 c-11 -14 -25 -52 -31 -85 -6 -33 -17 -82 -25 -110 -11
-41 -9 -46 13 -25 38 35 53 31 65 -15 6 -22 2 -40 -8 -40 -10 0 -18 9 -18 19
0 11 -11 16 -25 11 -84 -31 -91 155 -8 232 46 43 68 51 37 13z m3147 6 c-6
-10 -2 -24 10 -32 12 -7 17 -26 11 -41 -6 -15 -1 -25 11 -23 12 3 24 -11 28
-32 4 -25 -3 -33 -24 -25 -17 7 -39 12 -50 12 -11 0 -16 11 -12 25 5 14 2 45
-7 69 -10 28 -8 47 8 53 36 15 37 14 25 -6z m-3771 -46 c-1 -40 -39 -93 -40
-55 -1 26 -3 26 -19 1 -11 -17 -13 -35 -5 -40 8 -6 -15 -69 -51 -141 -41 -83
-64 -114 -65 -86 0 24 8 49 18 55 9 6 24 53 31 106 16 109 132 251 131 160z
m1486 -15 c16 -64 16 -70 -9 -70 -13 0 -27 25 -31 55 -8 63 24 75 40 15z
m2228 -2 c13 -13 18 -35 12 -50 -8 -22 -15 -22 -40 3 -16 16 -40 23 -53 15
-12 -7 -11 2 4 20 33 40 47 42 77 12z m-2978 -238 c4 -60 1 -104 -6 -97 -7 8
-13 21 -13 30 0 10 -8 26 -17 38 -10 11 -22 69 -28 128 -10 106 -10 107 23 60
19 -27 37 -98 41 -159z m-562 158 c28 -28 11 -83 -19 -65 -12 8 -15 4 -7 -9 7
-13 18 -56 23 -97 5 -41 15 -79 22 -86 7 -6 8 9 2 34 -6 25 -3 45 7 45 10 0
19 -7 19 -15 1 -8 5 -40 9 -70 9 -67 2 -68 -59 -10 -50 48 -57 73 -53 210 2
87 16 103 56 63z m2046 -21 c0 -11 7 -15 15 -10 27 16 90 -43 74 -69 -10 -15
-7 -19 8 -10 14 9 23 2 23 -17 0 -49 -39 -36 -61 20 -14 40 -31 50 -68 45 -27
-3 -50 1 -50 9 -4 61 2 73 29 62 17 -6 30 -20 30 -30z m1395 -34 c19 -9 69
-33 110 -53 65 -32 103 -74 60 -68 -60 10 -113 -4 -85 -22 26 -17 25 -19 -5
-20 -19 0 -35 9 -35 19 0 11 -19 30 -42 42 -30 16 -39 16 -29 1 8 -13 -1 -22
-20 -22 -21 0 -29 11 -22 29 6 17 3 35 -8 42 -65 40 4 87 76 52z m-3265 -140
c-6 -39 -15 -75 -20 -80 -5 -5 2 -23 15 -39 20 -24 20 -32 0 -39 -38 -13 -30
-41 18 -56 33 -10 36 -17 15 -31 -17 -11 -19 -18 -5 -18 25 0 67 -103 67 -163
0 -20 -10 -37 -22 -37 -14 0 -19 21 -13 51 7 36 -1 59 -28 75 -20 13 -37 39
-37 59 0 19 -8 35 -18 35 -29 0 -35 130 -11 203 15 43 17 84 6 115 -16 42 -14
45 13 22 22 -19 28 -46 20 -97z m2411 66 c32 -16 59 -35 59 -41 0 -6 -11 -4
-25 5 -17 10 -16 4 2 -19 15 -18 37 -28 49 -20 13 8 16 0 8 -20 -7 -19 -5 -31
5 -29 20 6 111 -122 130 -183 8 -23 5 -42 -5 -42 -11 0 -25 23 -32 50 -14 54
-51 63 -114 29 -62 -33 19 -186 87 -164 8 3 15 -7 15 -23 0 -46 -124 -55 -162
-12 -35 40 -67 190 -47 221 6 11 4 20 -5 21 -101 9 -125 30 -136 117 -7 53 -4
61 19 42 23 -19 26 -15 17 18 -7 26 -1 41 17 41 21 1 20 5 -3 20 -52 33 54 24
121 -11z m-2142 -29 c33 -17 85 -116 90 -170 1 -11 10 -33 20 -48 26 -43 32
-163 10 -205 -12 -20 -12 -37 -2 -37 10 0 11 -35 3 -79 -9 -50 -6 -87 8 -101
27 -27 30 -66 6 -82 -9 -7 -3 -26 15 -44 17 -17 31 -48 31 -69 0 -21 6 -44 12
-51 7 -6 16 -58 21 -115 4 -57 14 -114 21 -125 33 -54 19 -114 -18 -80 -19 17
-32 37 -27 44 4 7 -9 45 -28 85 -33 67 -33 76 -4 105 21 21 23 32 7 32 -15 0
-24 30 -24 76 0 59 -14 90 -59 133 -53 51 -67 110 -20 80 10 -6 13 3 7 20 -7
17 -2 31 11 31 13 0 18 9 11 20 -7 11 -21 20 -32 20 -11 0 -15 -9 -8 -20 7
-11 4 -20 -7 -20 -21 0 -51 99 -34 116 6 6 29 -6 51 -26 23 -20 40 -26 40 -13
0 13 -9 23 -19 23 -11 0 -15 14 -8 30 6 17 2 30 -10 30 -12 0 -16 15 -9 34 12
30 15 29 28 -5 10 -26 14 -10 12 46 -3 62 -11 82 -31 75 -15 -6 -31 7 -37 30
-6 22 -17 36 -24 31 -8 -4 -15 9 -17 31 -1 21 5 34 15 28 9 -6 23 -1 30 10 16
25 -37 80 -76 80 -39 0 -57 49 -28 78 27 27 28 27 73 2z m1611 -20 c-7 -11 -5
-20 5 -20 10 0 37 -18 61 -41 25 -23 53 -36 64 -29 11 7 20 -2 20 -19 0 -17
12 -31 27 -31 15 0 37 -23 49 -50 13 -28 30 -48 39 -45 8 3 17 -2 18 -11 2 -9
19 -39 37 -67 18 -28 29 -55 23 -60 -5 -6 8 -28 29 -49 51 -51 48 -67 -15 -71
-38 -2 -45 2 -25 15 21 13 22 22 5 33 -13 9 -30 40 -38 70 -7 30 -21 55 -31
55 -10 0 -18 14 -18 30 0 33 -31 40 -49 11 -6 -10 8 -32 33 -50 25 -17 37 -31
26 -31 -10 0 -7 -11 6 -24 27 -27 33 -96 8 -96 -21 0 -91 120 -77 134 6 6 -3
25 -20 42 -29 29 -29 33 -1 43 29 11 -18 101 -53 101 -24 0 -151 146 -141 163
6 9 15 17 20 17 6 0 5 -9 -2 -20z m212 -43 c11 -21 27 -34 36 -28 8 5 15 -3
15 -19 0 -20 -9 -23 -31 -9 -62 36 -102 74 -102 96 0 32 58 4 82 -40z m1023
26 c5 -21 2 -52 -9 -70 -14 -25 -6 -38 33 -56 66 -30 66 -54 -1 -42 -60 12
-79 48 -51 98 12 23 13 49 1 71 -12 22 -12 36 -1 36 10 0 23 -17 28 -37z
m-1637 -26 c-6 -11 2 -30 20 -43 22 -17 26 -33 12 -54 -17 -25 -22 -23 -32 15
-7 24 -22 39 -34 31 -13 -8 -16 0 -7 22 7 20 13 44 13 55 0 11 9 14 20 7 12
-7 15 -22 8 -33z m1724 0 c9 -14 5 -18 -9 -9 -13 8 -23 6 -23 -5 0 -29 65 -47
81 -22 10 17 25 17 56 0 57 -30 54 -54 -7 -69 -60 -15 -173 57 -156 101 13 33
39 35 58 4z m-3542 -98 c8 -36 0 -80 -22 -123 -20 -36 -33 -94 -30 -128 5 -65
-43 -108 -70 -64 -9 14 -5 16 12 6 21 -13 24 0 15 56 -8 47 -3 79 14 93 69 57
33 174 -44 147 -20 -8 -21 1 -4 39 32 68 112 52 129 -26z m3329 19 l85 -61
-55 -29 c-48 -25 -59 -25 -89 2 -18 16 -44 30 -57 30 -12 0 -23 9 -23 19 0 11
-15 14 -33 7 -19 -7 -29 -5 -23 6 5 10 15 34 22 53 19 52 77 43 173 -27z
m-3241 24 c19 -12 24 -38 15 -80 -19 -98 2 -132 54 -88 41 35 42 35 13 -3 -27
-35 -27 -37 5 -25 42 15 46 -12 7 -44 -22 -18 -31 -18 -38 2 -7 16 -11 11 -12
-11 -2 -28 8 -35 36 -28 28 8 37 1 32 -23 -3 -18 6 -56 21 -83 15 -27 28 -42
28 -33 1 9 -8 33 -19 54 -13 25 -13 42 0 50 20 13 30 -42 22 -128 -4 -39 3
-45 38 -36 32 8 40 4 32 -17 -6 -17 1 -29 19 -29 16 0 29 9 29 20 0 11 8 20
17 20 22 0 5 -97 -19 -111 -10 -6 -18 3 -18 20 0 17 -13 31 -30 31 -16 0 -30
9 -30 20 0 11 -8 20 -18 20 -18 0 5 -94 42 -166 10 -20 12 -55 5 -78 -9 -27
-6 -36 9 -27 12 7 22 9 22 4 0 -5 5 -26 12 -46 10 -31 8 -32 -10 -7 -19 26
-21 26 -22 -4 0 -18 10 -40 22 -47 16 -10 15 -19 -3 -30 -14 -8 -26 -43 -26
-77 0 -34 -5 -62 -11 -62 -22 0 -65 166 -46 178 33 22 25 159 -11 180 -24 13
-33 42 -30 101 1 45 -5 77 -14 72 -18 -11 -42 36 -40 76 1 12 10 5 20 -17 16
-36 18 -35 14 10 -4 41 -14 49 -58 44 -61 -6 -93 28 -59 62 16 16 22 16 22 -2
0 -13 13 -24 29 -24 18 0 25 12 18 30 -6 16 -19 25 -29 19 -10 -6 -18 0 -18
15 -1 19 -6 18 -22 -4 -16 -23 -19 -17 -12 27 7 46 1 60 -31 69 -39 10 -39 11
-4 37 20 15 26 27 13 27 -13 0 -24 19 -24 41 0 23 9 36 20 29 11 -7 14 1 8 19
-7 17 -20 26 -30 20 -21 -13 -25 18 -5 38 18 17 31 16 65 -5z m-184 -138 c-19
-20 -35 -54 -35 -76 -1 -21 -10 -56 -21 -78 -13 -28 -15 -9 -8 65 7 64 4 105
-9 105 -11 0 -15 -13 -9 -28 6 -16 -4 -54 -22 -85 -31 -55 -32 -55 -21 -7 6
28 11 70 11 95 0 31 12 45 39 45 21 0 45 10 52 22 10 15 20 15 35 0 15 -15 11
-32 -12 -58z m903 21 c-1 -19 8 -64 19 -98 11 -35 14 -71 7 -80 -7 -9 7 0 32
21 41 35 45 35 45 4 0 -19 -9 -29 -20 -22 -19 12 -29 -17 -21 -60 2 -10 6 -55
8 -100 2 -44 14 -98 26 -120 32 -57 11 -210 -28 -210 -9 0 -17 16 -19 35 -10
152 -35 319 -51 340 -11 13 -14 38 -8 55 7 16 2 30 -9 30 -13 0 -18 31 -13 78
5 43 2 90 -6 104 -18 28 -7 58 21 58 10 0 17 -16 17 -35z m-228 -145 c-6 -100
-7 -104 -27 -91 -18 11 -45 123 -50 206 l-3 45 42 -45 c30 -31 42 -67 38 -115z
m2857 22 c36 -4 -11 -42 -52 -43 -38 -1 -35 -5 16 -27 33 -14 69 -24 80 -22
11 2 13 0 5 -5 -23 -13 -18 -65 6 -65 12 0 16 9 9 20 -7 11 -3 20 8 20 11 0
25 -9 33 -21 9 -14 21 -14 39 1 17 14 31 15 39 2 7 -11 24 -16 38 -10 15 5 38
-4 52 -21 22 -26 20 -31 -12 -34 -98 -7 -247 10 -247 29 0 9 -10 10 -23 2 -14
-8 -18 -5 -10 7 17 27 -5 85 -31 85 -12 0 -16 -18 -10 -40 13 -52 -23 -30 -46
27 -14 34 -18 36 -19 8 -1 -34 -42 -48 -66 -23 -19 19 110 124 144 117 17 -3
38 -7 47 -7z m382 -14 c53 -20 36 -47 -28 -42 -33 2 -60 10 -60 17 0 7 -17 9
-38 3 -21 -5 -44 0 -51 12 -15 24 121 31 177 10z m664 -28 c83 0 87 -2 64 -39
-23 -37 -27 -37 -61 -6 -35 32 -36 31 -17 -20 17 -44 15 -51 -9 -42 -16 6 -29
18 -29 27 0 9 -13 21 -30 27 -39 15 -38 -16 1 -56 18 -17 24 -31 15 -31 -9 0
-33 19 -53 42 -34 40 -37 40 -62 6 -24 -33 -27 -33 -40 8 -15 47 -50 57 -84
23 -12 -12 -39 -25 -59 -28 -21 -3 -36 -16 -33 -28 3 -12 -10 -16 -29 -9 -25
10 -30 5 -20 -20 8 -22 3 -29 -17 -21 -16 6 -29 19 -29 29 0 10 -10 18 -21 18
-12 0 -15 -10 -8 -22 10 -16 3 -16 -27 0 -30 16 -45 16 -55 0 -10 -15 -20 -15
-35 0 -15 15 -29 14 -50 -3 -23 -19 -38 -13 -75 31 -29 33 -52 45 -60 32 -10
-15 -20 -15 -35 0 -14 14 -29 14 -45 1 -17 -14 -28 -11 -36 10 -8 20 0 32 23
33 19 2 48 4 64 6 17 2 59 -7 93 -21 75 -28 165 -37 207 -22 133 50 185 63
290 75 66 8 132 11 147 7 14 -4 66 -7 115 -7z m-2472 -79 c-2 -57 -53 -75 -60
-21 -13 85 -1 113 31 71 16 -21 29 -44 29 -50z m-2175 -62 c8 1 24 1 35 1 11
0 19 -29 18 -65 -2 -36 -7 -49 -12 -30 -5 20 -17 31 -26 25 -10 -6 -29 21 -43
60 -14 38 -33 70 -43 70 -11 0 -7 15 9 33 24 30 28 27 37 -31 6 -35 17 -63 25
-63z m212 79 c-21 -13 -19 -22 10 -44 21 -15 34 -43 29 -65 -7 -33 -13 -29
-42 25 -34 64 -27 137 10 113 13 -7 10 -18 -7 -29z m2076 -73 c89 -201 102
-232 149 -365 25 -71 52 -133 60 -136 8 -3 9 -23 4 -44 -6 -21 0 -68 12 -103
17 -48 17 -68 0 -79 -16 -9 -10 -21 17 -35 22 -12 45 -48 51 -80 14 -66 154
-211 180 -185 10 10 41 10 71 0 29 -9 96 -27 148 -40 97 -24 116 -44 68 -72
-71 -43 -31 -119 57 -108 11 1 -2 -16 -30 -38 -27 -22 -61 -49 -74 -60 -37
-31 -50 -24 -36 20 10 32 6 37 -22 26 -25 -9 -30 -6 -19 13 12 19 5 22 -26 12
-23 -7 -59 -4 -81 8 -26 14 -44 14 -52 1 -19 -31 -50 -24 -65 15 -7 19 -24 46
-37 60 -13 13 -29 36 -35 50 -7 17 -15 18 -26 4 -10 -12 -39 -16 -67 -10 -34
9 -42 18 -25 28 17 10 19 27 7 49 -12 23 -9 47 10 73 31 43 39 21 30 -84 -2
-25 6 -45 18 -45 12 0 17 8 11 18 -28 46 69 -8 107 -60 24 -32 54 -58 67 -58
17 0 17 6 1 22 -13 13 -18 38 -13 55 7 22 5 25 -6 10 -16 -22 -127 51 -127 83
0 49 -67 107 -102 89 -26 -14 -38 -14 -38 0 0 12 9 21 21 21 13 0 12 16 -4 45
-21 41 -21 43 10 17 29 -24 32 -24 22 3 -7 17 -33 37 -58 43 -62 16 -78 65
-39 119 18 24 28 29 22 11 -6 -17 -2 -44 8 -60 12 -20 17 -10 18 35 0 54 -7
62 -48 60 -27 -2 -44 -9 -40 -16 12 -19 -13 -77 -33 -77 -37 0 -59 77 -39 131
17 44 29 51 70 41 73 -18 66 41 -10 84 -63 36 -73 54 -40 74 11 7 20 21 20 32
0 11 -8 15 -18 9 -10 -6 -23 2 -29 18 -7 18 -1 25 15 19 14 -5 25 4 25 21 0
17 -13 31 -29 31 -19 0 -25 14 -18 42 10 35 4 40 -32 29 -140 -39 -158 -39
-151 7 8 51 49 56 43 6 -3 -19 0 -23 6 -9 6 14 22 19 35 11 17 -10 17 -7 0 15
-13 16 -20 58 -16 93 9 70 -69 67 -124 -5 -19 -26 -24 -26 -35 4 -15 37 20 69
60 54 14 -6 42 7 63 28 37 37 40 38 62 3 16 -26 16 -40 0 -50 -14 -9 -13 -19
6 -30 22 -15 23 -21 0 -35 -20 -14 -17 -20 13 -28 34 -9 38 0 36 77 -1 59 -11
88 -29 88 -16 0 -23 12 -15 31 6 17 3 26 -6 20 -10 -6 -14 7 -8 29 16 59 23
52 79 -75z m-1792 80 c1 -8 6 -35 10 -60 6 -33 -1 -45 -26 -45 -27 1 -29 5 -9
17 22 14 21 23 -4 48 -16 17 -25 36 -18 43 17 17 46 15 47 -3z m2710 -54 c71
-71 56 -109 -37 -93 -9 1 -38 4 -64 7 -51 4 -79 44 -57 80 8 13 22 9 38 -13
17 -24 44 -32 82 -26 53 8 54 9 13 23 -24 8 -48 28 -54 43 -17 44 25 33 79
-21z m-291 -2 c0 -37 -29 -63 -61 -54 -61 15 -51 82 11 70 28 -5 50 -12 50
-16z m-2733 -31 c36 -51 7 -117 -49 -112 -43 3 -70 114 -33 137 38 25 50 21
82 -25z m1212 -54 c1 -18 15 -22 41 -14 31 10 40 4 40 -29 0 -22 -8 -41 -18
-41 -10 0 -35 -6 -54 -13 -27 -11 -32 -6 -22 19 8 22 3 29 -17 21 -16 -6 -29
-1 -29 11 0 12 9 22 20 22 11 0 20 9 20 21 0 11 -13 18 -29 15 -29 -6 -34 13
-16 60 11 29 63 -28 64 -72z m2235 -36 c20 -43 19 -47 -4 -28 -30 25 -70 12
-70 -22 0 -11 10 -14 23 -6 13 8 18 5 10 -7 -7 -11 1 -31 17 -45 24 -20 33
-15 53 28 21 47 25 49 49 17 33 -43 36 -85 6 -85 -12 0 -17 13 -11 29 6 17 0
36 -13 44 -13 7 -17 6 -9 -3 22 -24 -24 -70 -70 -70 -33 0 -36 -5 -15 -30 38
-45 12 -36 -31 11 -21 23 -29 40 -18 38 42 -8 53 2 30 30 -27 33 -88 19 -67
-16 8 -13 -3 -9 -23 7 -36 29 -36 30 6 36 25 4 43 21 43 40 -1 29 -3 30 -19 5
-10 -17 -26 -23 -35 -14 -24 24 52 72 91 58 29 -11 30 -8 5 22 -24 29 -24 32
0 23 15 -6 39 -34 52 -62z m-3325 9 c-9 -28 -6 -38 9 -28 14 8 17 1 8 -21 -9
-24 -5 -30 11 -20 12 8 23 4 23 -9 0 -14 -13 -18 -35 -9 -19 8 -45 15 -57 16
-14 0 -10 21 10 57 38 68 50 73 31 14z m1646 15 c3 -3 -18 -16 -46 -29 -30
-13 -46 -15 -39 -3 7 11 3 20 -9 20 -11 0 -21 8 -21 19 0 15 98 10 115 -7z
m708 -60 c7 -9 25 -10 40 -1 22 14 22 11 0 -17 -24 -29 -23 -34 5 -34 40 0 42
-52 2 -67 -16 -7 -30 -21 -30 -33 0 -12 20 -3 44 19 51 48 69 50 104 16 53
-53 71 -107 46 -133 -19 -19 -17 -22 8 -12 37 14 88 -38 68 -70 -14 -22 -92
-7 -111 22 -31 48 -68 -22 -44 -85 32 -85 18 -96 -22 -17 -29 58 -29 68 3 116
32 50 32 51 -3 38 -29 -11 -35 -7 -26 16 10 26 5 27 -32 8 -25 -13 -38 -16
-30 -7 8 8 -7 53 -34 100 -27 46 -44 89 -37 96 7 7 2 13 -11 13 -12 0 -23 14
-23 31 0 17 -9 26 -20 19 -11 -7 -15 1 -8 18 12 31 78 9 111 -36z m1393 39
c77 -20 122 -23 164 -8 61 21 200 -56 200 -110 0 -13 -9 -9 -20 7 -11 17 -20
22 -20 13 0 -10 -12 -8 -27 4 -21 18 -31 12 -47 -23 -12 -25 -40 -47 -64 -48
-28 -2 -38 5 -29 20 8 13 -2 11 -23 -6 -34 -28 -36 -27 -24 20 11 46 10 47
-15 14 -25 -33 -173 -42 -199 -12 -35 41 -47 91 -21 91 16 0 29 -8 29 -18 0
-9 8 -12 18 -6 10 6 14 -7 8 -29 -6 -22 -1 -40 12 -40 12 0 22 8 22 18 0 10 5
32 11 48 8 20 -8 32 -51 41 -45 9 -74 55 -34 53 2 0 52 -13 110 -29z m-1143
-40 c-6 -17 -3 -35 8 -42 10 -6 19 4 19 24 0 27 5 30 24 11 13 -13 40 -24 61
-24 20 0 41 -13 47 -28 6 -15 28 -33 49 -38 27 -7 36 -21 27 -47 -10 -31 -8
-32 10 -7 19 26 28 23 64 -20 23 -27 36 -39 29 -25 -19 36 11 30 67 -13 35
-26 41 -40 22 -52 -13 -8 -31 -4 -40 10 -11 17 -19 18 -29 2 -19 -32 -51 -27
-51 8 0 17 -9 30 -19 30 -11 0 -14 -16 -7 -35 12 -33 10 -33 -28 1 -23 20 -53
33 -68 30 -20 -4 -27 12 -24 54 3 33 0 50 -6 37 -14 -32 -206 95 -193 128 5
14 18 25 29 25 11 0 15 -13 9 -29z m956 7 c-8 -12 -3 -29 11 -38 17 -11 18
-19 2 -29 -12 -7 -22 -4 -22 8 0 11 -15 21 -33 21 -28 0 -26 -9 13 -50 26 -27
41 -56 33 -63 -7 -8 -13 -2 -13 13 0 15 -6 20 -14 13 -33 -33 -64 76 -31 112
34 38 76 48 54 13z m-2101 -82 c12 -8 22 -22 23 -30 0 -9 12 -37 26 -63 32
-56 25 -65 -35 -49 -28 7 -37 17 -23 26 33 19 -14 116 -63 131 -31 10 -34 18
-14 42 22 26 28 25 45 -7 11 -20 29 -42 41 -50z m-1623 7 c-2 -24 4 -43 15
-43 11 0 20 14 20 30 0 32 31 41 48 13 6 -9 1 -51 -10 -92 -15 -54 -15 -82 0
-97 28 -28 29 -94 2 -94 -11 0 -21 25 -23 55 -2 48 -4 49 -11 10 -5 -25 -17
-40 -27 -34 -27 16 -23 84 4 93 17 6 14 27 -9 75 -18 36 -28 74 -22 83 5 10 1
18 -11 18 -11 0 -21 10 -21 22 0 12 11 17 25 12 14 -4 23 -28 20 -51z m1727
41 c-5 -9 2 -40 17 -69 17 -33 23 -84 17 -134 -11 -78 -9 -81 45 -81 51 0 53
3 22 26 -34 25 -28 94 8 94 32 0 44 -45 17 -61 -20 -13 -16 -16 14 -14 42 3
47 75 6 75 -10 0 -18 9 -18 20 0 39 56 19 67 -24 15 -57 -42 -256 -73 -256
-15 0 -13 -8 5 -19 16 -10 38 -13 48 -7 11 7 13 3 6 -8 -7 -12 8 -43 34 -69
59 -60 83 -119 42 -104 -16 6 -29 3 -29 -8 0 -10 -14 -18 -32 -18 -24 0 -30
15 -24 64 6 50 1 62 -22 53 -18 -7 -23 -2 -14 13 8 13 8 23 -2 21 -76 -13 -98
4 -97 77 1 49 10 73 26 70 31 -6 33 28 3 46 -12 8 -29 3 -38 -11 -24 -38 -35
1 -30 105 3 52 -2 95 -10 95 -8 0 -13 20 -12 45 2 25 -11 56 -28 69 -26 21
-23 25 16 25 26 1 42 -6 36 -15z m1545 -84 c18 0 62 -18 97 -39 65 -40 184
-47 209 -13 7 10 41 8 78 -5 36 -13 91 -23 122 -23 66 0 72 -25 19 -78 -22
-22 -42 -59 -45 -84 -7 -43 -8 -43 -37 -7 -17 21 -19 30 -5 22 15 -10 25 -4
25 14 0 16 -7 33 -15 38 -8 5 -3 6 11 2 14 -4 20 3 13 15 -7 11 -26 16 -42 10
-16 -7 -53 4 -83 22 l-54 34 42 -49 c70 -82 80 -107 30 -80 -23 12 -42 30 -42
39 0 10 -22 22 -50 27 -32 6 -50 0 -50 -15 0 -34 54 -76 77 -62 32 20 223
-165 209 -202 -9 -22 -5 -28 11 -18 26 16 28 9 11 -36 -17 -44 -41 -40 -54 10
-6 23 -20 37 -31 30 -11 -7 -15 5 -9 28 7 28 1 40 -22 40 -17 0 -32 11 -32 25
-1 51 -38 88 -58 57 -14 -22 -22 -19 -41 16 -17 32 -35 40 -65 31 -25 -8 -48
-3 -58 14 -29 46 -19 69 13 28 26 -34 29 -35 29 -4 0 19 -13 39 -30 46 -16 6
-30 25 -30 42 0 26 -7 25 -43 -7 -38 -33 -42 -33 -32 -4 11 29 -58 64 -114 58
-25 -3 -199 112 -207 137 -6 18 1 23 20 16 16 -6 42 -4 57 5 17 11 47 0 84
-31 32 -27 73 -49 92 -49z m-1830 27 c37 -50 37 -51 0 -44 -20 4 -37 18 -37
31 0 12 -8 30 -18 39 -11 10 -13 7 -5 -7 8 -13 5 -29 -7 -36 -22 -14 -28 35
-7 57 22 21 35 15 74 -40z m-256 4 c16 -15 29 -34 29 -41 0 -7 14 -27 32 -45
18 -17 28 -51 23 -78 -5 -25 -2 -41 7 -36 13 9 84 -97 87 -131 1 -5 8 -21 17
-34 14 -23 -20 -59 -38 -40 -9 8 -20 70 -27 139 0 8 -17 15 -37 15 -55 0 -84
41 -85 119 -2 58 -5 64 -19 31 -15 -36 -17 -34 -19 13 0 30 -6 68 -13 85 -15
40 6 41 43 3z m153 -14 c4 -31 23 -44 66 -49 65 -7 113 -56 96 -100 -5 -15 0
-28 12 -28 12 0 22 -13 22 -30 0 -16 18 -48 41 -71 22 -22 35 -49 29 -60 -7
-10 -4 -19 5 -19 45 0 151 -286 118 -319 -17 -18 -15 -20 12 -10 26 10 35 3
35 -25 0 -21 8 -47 17 -57 9 -10 33 -59 52 -109 20 -49 40 -101 45 -115 6 -14
-3 -25 -19 -25 -15 0 -28 -13 -28 -30 0 -16 7 -30 16 -30 10 0 17 9 17 20 0
11 9 20 20 20 11 0 20 -18 20 -40 0 -22 11 -40 26 -40 14 0 41 -18 60 -40 38
-45 46 -120 13 -120 -13 0 -16 17 -9 40 7 23 4 40 -9 40 -11 0 -21 14 -21 30
0 34 -31 40 -50 10 -7 -11 -1 -21 14 -21 14 -1 8 -10 -14 -19 -36 -15 -36 -17
-4 -19 28 -1 34 -11 23 -44 -9 -28 -6 -38 9 -28 13 8 22 -3 22 -28 0 -22 9
-41 20 -41 11 0 20 -19 20 -41 0 -32 9 -39 40 -29 21 7 55 3 75 -8 30 -18 27
-21 -20 -21 -35 -1 -55 -12 -55 -31 0 -16 -9 -30 -20 -30 -11 0 -20 9 -20 19
0 11 -19 37 -43 59 -27 26 -38 54 -31 81 8 31 2 41 -22 36 -18 -3 -34 9 -35
25 0 17 -13 57 -28 90 -15 33 -29 74 -31 90 -10 68 -22 90 -60 110 -22 13 -39
41 -38 66 0 24 -5 44 -13 44 -21 0 4 108 29 125 14 9 9 15 -13 15 -22 0 -35
15 -35 40 0 49 -36 52 -73 5 -25 -33 -26 -33 -14 3 10 28 7 34 -12 23 -20 -12
-20 -7 -3 26 15 27 35 38 57 30 27 -8 29 -6 8 9 -15 10 -44 15 -65 9 -21 -5
-38 -1 -38 10 0 12 23 27 52 34 42 10 47 18 27 42 -32 39 -59 37 -59 -6 -1
-29 -4 -30 -19 -6 -12 20 -5 47 22 85 36 50 37 57 7 69 -18 7 -28 23 -23 37 6
16 -9 24 -44 22 -55 -2 -61 17 -34 98 13 36 12 36 -8 5 -23 -35 -64 -49 -58
-20 6 29 -28 85 -45 74 -10 -6 -18 -3 -18 8 0 10 13 24 30 30 16 6 27 5 25 -3
-3 -8 2 -16 10 -19 34 -11 55 -3 55 22 0 15 -19 25 -45 22 -59 -5 -115 25
-115 62 0 16 -10 29 -21 29 -12 0 -15 -10 -7 -23 9 -14 5 -18 -9 -9 -16 10
-16 24 2 53 32 51 51 49 59 -4z m536 -27 c0 -7 -18 -7 -40 0 -32 10 -37 5 -28
-24 9 -29 8 -30 -9 -7 -33 46 10 111 48 73 16 -16 29 -35 29 -42z m-1680 30
c0 -11 -9 -20 -19 -20 -11 0 -26 -34 -33 -75 -8 -41 -18 -64 -23 -50 -11 34
34 165 57 165 10 0 18 -9 18 -20z m1912 -112 c-12 -32 -15 -31 -41 4 -20 28
-22 41 -4 52 32 20 61 -15 45 -56z m727 52 c54 -28 88 -137 56 -178 -22 -28
-21 -29 7 -7 37 29 58 14 58 -41 0 -32 -5 -35 -30 -14 -24 20 -33 16 -47 -23
-28 -74 -4 -112 38 -61 32 40 35 40 44 7 16 -61 -31 -108 -69 -70 -24 24 -40
26 -69 10 -20 -12 -26 -22 -12 -22 29 -1 35 -41 6 -41 -10 0 -24 19 -32 43 -9
29 -18 35 -28 18 -11 -18 -19 -16 -28 8 -8 22 -5 28 10 19 16 -10 20 -1 12 28
-10 41 23 89 58 82 41 -7 55 4 27 23 -26 17 -26 23 5 47 42 32 45 52 8 52 -25
0 -73 79 -73 121 0 24 13 24 59 -1z m-2365 -64 c-14 -8 -6 -26 22 -50 32 -26
39 -44 24 -66 -17 -26 -19 -26 -20 3 0 52 -56 62 -66 11 -5 -26 -10 -13 -11
31 -2 41 6 75 16 75 11 0 14 15 7 34 -12 31 -10 31 18 5 21 -19 24 -33 10 -43z
m2846 -38 c0 -12 -24 -50 -52 -84 -31 -37 -43 -66 -30 -70 12 -4 22 -15 22
-25 0 -10 -15 -12 -33 -5 -23 9 -29 5 -19 -10 8 -13 4 -40 -8 -59 -22 -33 -22
-33 -11 2 7 24 2 33 -14 28 -14 -5 -23 -36 -22 -68 3 -40 -9 -67 -36 -84 -36
-23 -37 -21 -18 15 13 25 14 44 2 51 -11 7 -14 26 -8 42 7 17 4 28 -6 25 -37
-12 -103 70 -95 117 5 26 0 47 -12 47 -11 0 -20 9 -20 20 0 45 55 16 86 -45
l33 -65 -4 60 c-5 56 -1 60 58 54 35 -3 69 4 77 15 7 12 21 16 32 10 10 -6 24
3 30 20 14 36 48 42 48 9z m653 -4 c7 -8 -2 -31 -22 -53 -19 -21 -29 -48 -22
-60 8 -12 1 -16 -19 -8 -18 7 -28 23 -23 36 5 14 2 37 -8 52 -27 45 54 73 94
33z m-1873 -35 c0 -24 -19 -47 -45 -57 -49 -18 -95 -8 -95 21 0 32 63 44 82
15 13 -21 17 -17 18 17 0 25 9 45 20 45 11 0 20 -18 20 -41z m1280 -47 c0 -15
21 -33 47 -39 61 -16 249 -169 264 -216 6 -20 37 -51 68 -70 56 -33 78 -127
29 -127 -41 0 -47 26 -13 53 33 26 33 26 0 15 -24 -9 -35 -2 -35 21 0 18 -8
28 -19 22 -10 -6 -24 -2 -31 10 -9 14 -21 14 -38 1 -17 -14 -24 -9 -27 19 -1
22 6 35 16 28 10 -6 13 3 6 21 -6 17 -17 27 -22 21 -6 -6 -28 9 -48 32 -20 24
-37 33 -37 20 0 -13 -9 -23 -20 -23 -12 0 -16 24 -10 55 l10 55 -21 -54 c-18
-44 -27 -50 -48 -31 -14 14 -21 37 -15 53 6 17 0 24 -18 18 -15 -6 -26 -23
-23 -38 2 -16 -13 -40 -35 -53 -36 -23 -37 -21 -20 24 12 31 11 54 -1 61 -22
14 -26 116 -6 137 23 22 47 15 47 -15z m-2107 -40 c-6 -16 3 -34 20 -40 17 -7
25 -26 19 -47 -6 -19 -2 -48 8 -65 14 -22 19 -23 20 -4 0 15 9 21 20 14 12 -7
15 -21 9 -31 -6 -11 -1 -19 12 -19 13 0 18 -14 11 -31 -6 -18 -3 -26 8 -19 11
7 20 3 20 -8 0 -11 15 -15 33 -8 20 8 29 5 21 -7 -6 -11 2 -46 19 -78 17 -33
31 -88 31 -124 0 -36 8 -60 18 -54 25 16 23 -64 -3 -117 -20 -42 -20 -42 9 -6
34 41 92 16 92 -40 0 -16 13 -28 29 -28 39 0 86 -71 83 -126 -2 -24 5 -50 16
-57 10 -8 4 -28 -15 -47 -45 -45 -42 -64 4 -23 53 48 107 -12 68 -75 -22 -35
-23 -73 -3 -61 10 7 13 22 5 33 -8 13 -4 16 10 8 13 -8 23 -26 23 -41 0 -30
-54 -57 -82 -40 -29 18 -21 -30 19 -108 48 -94 147 -406 133 -419 -15 -15 -28
3 -35 47 -4 22 -31 76 -61 121 -56 82 -107 305 -85 364 7 16 2 41 -11 56 -17
21 -15 30 10 40 17 7 32 21 32 33 0 11 -13 9 -30 -5 -38 -32 -100 36 -130 142
-24 86 -103 170 -195 209 -73 30 -157 182 -139 251 6 21 1 38 -10 38 -10 0
-16 11 -11 25 5 14 -4 55 -19 92 -16 37 -23 72 -17 78 17 18 33 -6 36 -53 2
-23 11 -42 19 -42 9 0 15 -7 13 -15 -7 -32 28 -124 44 -115 9 6 16 -14 15 -45
-1 -88 38 -165 84 -165 29 0 40 13 40 49 0 39 -8 47 -35 37 -30 -12 -31 -9 -9
18 20 25 20 36 2 47 -16 10 -19 7 -8 -11 11 -17 8 -21 -7 -12 -13 8 -23 32
-23 54 0 22 -13 66 -30 98 -16 31 -24 74 -18 94 10 30 8 31 -10 6 -28 -38 -67
9 -54 65 5 21 0 30 -13 22 -14 -9 -16 6 -7 42 9 35 6 50 -7 41 -13 -7 -21 8
-21 39 0 28 10 51 22 51 12 0 17 -13 11 -28z m769 -30 c-27 -20 -42 -47 -34
-59 8 -13 5 -23 -6 -23 -11 0 -25 9 -33 21 -14 23 63 99 99 99 12 -1 0 -17
-26 -38z m1809 -56 c-9 -9 -21 -5 -25 9 -5 14 -18 20 -28 14 -10 -6 -18 9 -18
34 l0 46 44 -44 c24 -24 36 -51 27 -59z m-3119 9 c-4 -36 -9 -72 -10 -81 -1
-9 -13 -10 -27 -1 -17 10 -16 3 3 -20 32 -39 13 -72 -22 -37 -17 17 -17 35 1
74 12 29 23 69 23 91 0 21 9 39 20 39 11 0 16 -29 12 -65z m816 -7 c18 -48 14
-88 -9 -88 -13 0 -16 17 -8 43 11 34 7 41 -19 31 -32 -13 -44 8 -19 33 22 22
42 15 55 -19z m-616 -41 c-11 -27 -8 -29 18 -7 39 33 61 14 25 -23 -39 -40
-31 -86 17 -93 56 -8 95 -93 67 -145 -28 -53 -35 -49 -24 11 11 56 -27 68 -75
25 -16 -14 -13 -6 6 17 35 43 46 78 18 61 -30 -19 -60 17 -64 77 -6 81 -2 110
12 110 7 0 7 -15 0 -33z m1207 -62 c0 -14 -17 -25 -39 -25 -22 0 -40 10 -40
22 0 12 14 17 30 11 17 -7 30 -3 30 8 0 10 -20 19 -44 19 -43 0 -43 1 -5 29
40 29 64 7 68 -64z m-299 -25 c0 -22 9 -40 20 -40 11 0 20 -15 20 -34 0 -30
-4 -29 -36 5 -53 57 -69 109 -33 109 16 0 29 -18 29 -40z m1738 -103 c-22 -42
-24 -77 -2 -42 12 18 24 15 48 -13 30 -35 28 -39 -20 -61 -54 -25 -118 19 -92
63 6 10 -1 33 -15 51 -24 28 -22 31 9 19 22 -8 31 -6 24 6 -7 11 -3 20 8 20
11 0 15 16 9 35 -10 28 -7 28 18 -5 22 -27 26 -50 13 -73z m-2694 25 c30 -36
28 -62 -4 -62 -8 0 -24 23 -36 50 -27 59 -6 66 40 12z m1183 -70 c28 -42 28
-51 2 -73 -24 -20 -29 -16 -29 19 0 24 -13 42 -29 42 -18 0 -25 -12 -18 -30 7
-19 -1 -30 -21 -30 -18 0 -32 14 -32 31 0 17 -8 26 -18 20 -10 -6 -23 2 -28
17 -9 22 7 26 72 20 64 -7 74 -4 44 10 -31 15 -33 19 -7 21 18 0 47 -21 64
-47z m-30 -143 c13 -28 23 -61 23 -73 0 -12 16 -34 35 -48 31 -24 32 -27 2
-27 -28 -1 -72 61 -53 73 3 2 -8 16 -26 30 -18 14 -38 42 -45 61 -19 56 38 42
64 -16z m135 -13 c23 -44 26 -67 11 -72 -13 -4 -23 -20 -23 -35 0 -16 12 -23
30 -16 39 15 38 -2 -3 -64 -25 -39 -38 -45 -60 -27 -32 27 -36 58 -7 58 11 0
20 -15 20 -33 0 -19 5 -29 11 -22 6 6 0 66 -14 133 -15 74 -31 112 -41 97 -11
-18 -15 -15 -16 10 0 58 57 40 92 -29z m-1346 -29 c15 -14 -72 -87 -104 -87
-43 0 -23 77 23 86 25 5 50 10 57 11 6 2 17 -3 24 -10z m2804 -67 c-74 -49
-128 -55 -82 -9 18 17 41 26 52 19 11 -7 20 -3 20 9 0 11 16 21 35 21 25 0 18
-12 -25 -40z m-399 -29 c76 -26 122 -49 102 -50 -66 -2 -176 -65 -165 -94 6
-15 2 -47 -9 -72 -18 -41 -19 -40 -9 10 6 30 2 55 -9 55 -11 0 -15 14 -8 30 7
19 -1 30 -21 30 -18 0 -32 9 -32 21 0 14 -14 13 -41 -2 -41 -21 -41 -21 -9 45
l32 66 -50 -60 c-60 -70 -116 -48 -69 28 35 56 114 54 288 -7z m-2398 -1 c-7
-16 -5 -30 4 -30 23 0 21 -65 -2 -95 -13 -17 -13 -25 2 -25 21 0 21 -129 0
-150 -32 -31 -76 15 -54 56 28 51 35 193 12 207 -9 6 -6 23 6 39 31 37 46 36
32 -2z m244 -104 c-24 -29 -23 -32 8 -20 19 7 35 4 35 -7 0 -10 -9 -20 -20
-21 -11 -2 -31 -4 -44 -5 -14 -2 -24 -23 -23 -48 7 -135 9 -136 47 -45 21 50
38 73 39 52 0 -21 -21 -76 -48 -123 -27 -46 -44 -89 -38 -95 10 -10 -7 -131
-42 -309 -10 -50 25 -60 66 -20 20 20 23 18 12 -9 -7 -19 -30 -40 -51 -47 -42
-13 -52 -68 -13 -71 16 -1 14 -5 -4 -13 -16 -6 -46 -30 -66 -53 -37 -42 -41
108 -7 210 6 15 15 61 20 100 6 40 20 98 32 129 15 38 15 62 1 76 -12 12 -21
30 -21 42 0 12 9 8 20 -9 28 -43 27 35 -2 116 -17 50 -15 71 10 108 18 25 32
36 32 26 0 -10 14 1 31 26 17 24 36 44 43 44 6 0 -1 -15 -17 -34z m1235 11 c9
-14 5 -18 -9 -9 -31 19 -30 -33 1 -64 28 -28 -1 -32 -41 -6 -17 11 -22 33 -14
60 15 46 41 54 63 19z m1307 -12 c0 19 9 35 19 35 10 0 9 -26 -4 -59 -21 -56
-24 -57 -77 -30 -77 40 -92 73 -29 61 32 -6 53 0 53 14 1 13 10 6 19 -16 15
-34 17 -35 19 -5z m-999 -110 c0 -8 -13 -15 -30 -15 -16 0 -30 -9 -30 -20 0
-11 -8 -20 -18 -20 -10 0 -13 18 -8 41 6 23 -3 56 -22 76 -53 60 -11 66 51 7
31 -29 57 -61 57 -69z m-551 24 c-12 -20 60 -63 78 -45 15 15 73 -32 73 -59 0
-10 -13 -14 -29 -8 -17 6 -35 3 -42 -8 -22 -36 -45 -19 -87 62 -50 96 -51 101
-12 86 16 -6 25 -19 19 -28z m896 -2 c-8 -30 -4 -39 12 -29 13 8 23 2 23 -15
0 -16 -14 -34 -32 -41 -47 -18 -72 -15 -58 8 7 11 -1 14 -19 8 -36 -14 -39 0
-10 54 12 21 30 34 40 27 10 -6 19 -2 19 10 0 11 8 21 18 21 10 0 13 -19 7
-43z m-170 -28 c0 -37 -8 -48 -29 -40 -16 6 -40 11 -53 11 -16 1 59 76 80 80
1 0 2 -23 2 -51z m-415 -19 c10 6 24 0 32 -13 10 -16 1 -20 -29 -12 -30 8 -43
2 -43 -18 0 -16 9 -24 20 -17 25 16 90 -47 70 -66 -9 -8 -19 -3 -24 11 -5 14
-21 25 -35 25 -48 0 -78 55 -48 87 15 16 30 21 34 11 3 -10 14 -14 23 -8z
m-877 -15 c2 -14 4 -34 6 -45 1 -11 8 -30 16 -42 15 -24 38 -134 44 -209 2
-27 10 -62 19 -76 9 -14 11 -31 5 -37 -7 -6 -3 -28 8 -49 15 -27 14 -37 -5
-37 -20 -1 -20 -5 1 -18 16 -10 23 -30 18 -45 -5 -15 0 -45 12 -67 37 -69 88
-230 72 -230 -28 0 -56 51 -70 130 -8 44 -28 95 -44 114 -18 21 -26 56 -20 88
6 29 -7 102 -28 163 -22 60 -34 115 -28 120 6 6 0 24 -12 39 -25 30 -58 188
-44 211 15 24 47 18 50 -10z m1183 -48 c-55 -23 -131 16 -96 49 9 8 19 3 24
-11 5 -14 24 -24 43 -23 20 1 24 5 8 11 -14 6 -25 18 -25 27 0 9 23 6 50 -7
l50 -23 -54 -23z m-1963 18 c-9 -19 -13 -48 -8 -63 7 -20 0 -25 -22 -16 -38
15 -41 6 -14 -45 16 -28 13 -36 -12 -34 -18 2 -37 -8 -42 -22 -5 -15 3 -21 21
-14 17 7 35 4 40 -5 6 -9 -11 -17 -38 -19 -82 -5 -61 87 51 218 16 19 33 35
36 35 4 0 -2 -16 -12 -35z m667 -65 c-11 -64 -7 -82 20 -93 20 -7 29 -27 24
-48 -7 -27 -1 -33 23 -24 28 11 28 9 3 -18 -16 -17 -38 -30 -49 -29 -12 1 -22
-7 -24 -18 -2 -11 7 -17 20 -14 15 5 15 -1 -2 -19 -38 -38 -81 10 -46 52 17
20 19 40 7 56 -10 14 -16 57 -14 95 3 39 6 86 6 105 1 19 12 35 24 35 14 0 17
-27 8 -80z m-498 -45 c-14 -9 -12 -15 8 -15 18 0 22 -7 10 -15 -18 -13 -23
-58 -10 -85 18 -36 10 -100 -12 -100 -28 0 -55 143 -40 215 16 75 37 97 53 54
7 -22 4 -45 -9 -54z m2005 63 c35 -12 63 -31 63 -41 0 -11 -10 -13 -22 -6 -12
8 -30 2 -40 -13 -13 -22 -18 -19 -19 12 -1 31 -6 27 -26 -19 l-25 -59 0 74 c0
41 1 74 3 74 2 0 31 -10 66 -22z m-1662 -78 l5 -66 -45 37 -45 38 46 -50 c43
-47 103 -26 72 25 -6 9 3 16 20 16 23 0 30 -22 27 -95 -2 -54 11 -125 30 -165
42 -90 50 -130 25 -130 -11 0 -18 7 -15 15 3 8 -2 14 -10 13 -40 -7 -65 4 -60
27 3 14 -6 23 -20 20 -14 -3 -25 5 -25 17 0 16 -10 15 -30 -2 -26 -22 -29 -20
-17 10 9 25 6 32 -10 22 -14 -9 -24 0 -26 22 -6 66 -8 76 -24 101 -9 15 -5 26
11 27 20 1 20 3 1 11 -14 6 -25 24 -25 41 0 26 5 27 35 4 33 -26 33 -25 0 14
-43 51 -43 57 -3 97 46 46 76 28 83 -49z m834 36 c-14 -42 -12 -43 33 -13 111
72 188 65 158 -14 -15 -38 -12 -45 12 -36 17 7 43 -5 60 -25 21 -27 34 -31 41
-13 16 39 191 -62 232 -135 19 -34 44 -57 54 -50 22 13 91 -18 144 -64 30 -26
29 -33 -19 -80 -31 -31 -55 -43 -60 -29 -4 13 -20 23 -36 23 -15 0 -28 14 -28
30 0 17 10 30 21 30 12 0 16 -8 10 -18 -19 -31 51 -43 80 -14 32 33 18 54 -26
37 -23 -8 -27 -4 -15 15 10 17 8 21 -6 13 -11 -8 -27 -4 -35 9 -10 16 -18 15
-30 -3 -11 -19 -27 -16 -66 15 -40 32 -46 46 -27 66 19 20 19 23 0 12 -28 -15
-109 47 -94 71 6 9 -3 12 -18 6 -16 -7 -35 4 -42 24 -15 38 -72 -46 -72 -106
0 -16 -8 -24 -18 -18 -10 6 -14 -9 -10 -34 9 -44 9 -44 -11 2 -12 26 -15 56
-8 68 7 12 5 16 -6 9 -35 -21 -80 21 -52 49 17 17 25 18 25 3 0 -12 13 -21 29
-18 44 6 63 32 24 32 -18 0 -33 10 -33 21 0 12 -9 16 -20 9 -11 -7 -20 -2 -20
10 0 12 -8 17 -19 11 -10 -6 -24 -2 -32 11 -10 16 -18 16 -29 -2 -34 -55 -132
45 -107 110 18 47 31 35 16 -14z m644 -46 c-7 -18 0 -30 18 -30 16 0 29 -10
29 -21 0 -12 8 -16 19 -10 10 6 24 3 31 -9 16 -27 -16 -25 -79 3 -50 23 -65
57 -38 84 23 22 32 15 20 -17z m-1929 -80 c-5 -39 -19 -76 -31 -83 -13 -8 -16
-6 -8 3 8 9 5 28 -8 43 -16 20 -16 34 0 54 13 15 17 33 9 40 -7 7 1 13 17 13
21 0 27 -18 21 -70z m1844 20 c32 -28 75 -51 95 -52 20 -2 46 -5 57 -8 11 -3
27 -6 35 -8 8 -2 -2 -13 -22 -25 -28 -16 -42 -15 -53 2 -8 14 -18 23 -22 21
-16 -8 -118 47 -118 63 0 9 -13 17 -30 17 -16 0 -30 9 -30 20 0 32 26 23 88
-30z m-998 -45 c7 -41 21 -95 31 -119 11 -29 10 -49 -5 -58 -15 -10 -10 -23
15 -41 20 -15 30 -27 21 -27 -18 0 66 -143 97 -165 14 -9 12 -14 -5 -15 -14 0
-31 14 -37 32 -10 25 -16 26 -29 5 -35 -57 -64 16 -91 227 -7 52 -18 92 -25
87 -6 -4 -12 28 -12 71 -1 99 24 101 40 3z m310 -8 c0 -11 -8 -15 -17 -9 -49
30 -90 -41 -48 -83 23 -23 36 -47 30 -53 -6 -7 -1 -12 12 -12 13 0 23 19 23
42 0 29 -9 39 -30 31 -16 -7 -30 -4 -30 5 0 10 14 23 30 29 17 7 30 2 30 -9 0
-11 10 -14 23 -6 13 8 18 5 11 -5 -7 -11 1 -46 18 -77 21 -41 23 -63 7 -78
-13 -13 -20 -14 -18 -2 9 46 -3 68 -30 57 -26 -9 -26 -15 1 -42 29 -29 28 -33
-2 -50 -40 -23 -46 -18 -54 47 -4 28 -23 75 -42 104 -43 66 -43 107 0 131 37
21 86 9 86 -20z m253 -47 c-7 -16 -4 -30 5 -30 10 0 23 -13 29 -30 6 -16 5
-29 -3 -27 -38 5 -65 -5 -55 -21 6 -10 -3 -23 -21 -30 -62 -24 -85 -13 -79 38
4 37 -1 45 -18 31 -17 -14 -24 -11 -24 9 0 17 15 30 34 30 19 0 45 14 59 30
14 17 38 30 55 30 18 0 25 -12 18 -30z m274 -46 c29 -31 47 -64 38 -74 -8 -9
-4 -10 10 -2 16 9 46 -19 85 -81 83 -132 89 -159 41 -210 -22 -24 -46 -62 -53
-83 -13 -40 -47 -13 -47 36 0 11 8 7 19 -10 17 -26 19 -25 20 5 0 19 11 35 25
35 17 1 16 6 -4 19 -16 10 -38 13 -48 7 -11 -7 -13 -3 -6 9 7 11 1 55 -14 96
-21 61 -29 69 -40 40 -8 -20 -19 -32 -25 -26 -6 6 4 40 22 75 18 36 23 58 12
51 -12 -7 -37 -42 -55 -77 -45 -86 -59 -35 -16 56 19 39 30 76 24 81 -5 6 -25
-21 -43 -60 -37 -78 -62 -96 -41 -28 10 31 7 38 -12 27 -19 -12 -21 2 -10 62
24 129 38 135 118 52z m-993 3 c-7 -7 -4 -28 6 -47 10 -19 12 -41 4 -49 -8 -8
-15 -23 -16 -33 -7 -46 -11 -44 -36 12 -28 63 -11 130 32 130 12 0 17 -6 10
-13z m796 -87 c-7 -11 -1 -20 14 -21 49 -1 -51 -59 -103 -59 -40 -1 -45 -5
-21 -20 17 -11 21 -19 10 -19 -48 0 -80 37 -55 62 14 14 25 18 25 10 0 -9 24
3 53 26 55 43 98 55 77 21z m-983 -124 c-5 -9 11 -17 37 -17 43 -2 44 -3 6
-18 -48 -19 -73 -8 -66 29 4 15 -2 27 -12 27 -25 -1 -51 48 -38 70 7 10 28 -3
47 -29 20 -26 32 -54 26 -62z m233 44 c0 -22 -13 -40 -30 -40 -16 0 -30 -9
-30 -20 0 -11 -9 -20 -21 -20 -11 0 0 27 24 60 53 71 57 72 57 20z m508 -51
c-5 -39 1 -89 14 -112 17 -33 16 -46 -5 -59 -37 -23 -11 -22 53 2 l53 20 -46
-64 c-24 -35 -33 -56 -18 -47 18 11 23 8 17 -11 -17 -50 -64 -30 -77 32 -7 33
-32 100 -56 149 -24 49 -43 91 -43 94 0 5 101 63 113 66 2 1 0 -31 -5 -70z
m292 41 c0 -16 9 -30 19 -30 11 0 29 -36 41 -80 12 -44 31 -80 43 -80 12 0 16
-14 9 -31 -6 -18 -3 -26 8 -19 11 7 20 5 20 -4 0 -9 -18 -28 -40 -41 -34 -22
-40 -20 -40 7 0 27 -5 28 -30 8 -24 -20 -30 -19 -30 6 0 17 16 35 35 40 33 9
33 10 -1 12 -19 1 -40 -11 -47 -28 -17 -45 -38 -36 -42 19 -4 39 3 47 30 38
26 -8 28 -6 8 8 -14 11 -26 26 -26 35 0 9 12 24 26 34 20 13 16 16 -13 12 -22
-4 -40 -17 -40 -30 0 -12 -8 -30 -18 -39 -10 -10 -13 6 -8 38 6 30 3 55 -7 55
-9 0 -17 10 -17 21 0 12 7 17 16 11 9 -5 29 8 45 29 33 47 59 50 59 9z m-146
-167 c22 -22 23 -33 2 -59 -22 -27 -21 -30 10 -18 20 7 31 5 25 -5 -6 -9 -4
-21 4 -26 8 -5 4 -6 -10 -2 -23 5 -34 -19 -27 -59 2 -10 -5 -12 -15 -6 -10 6
-16 40 -13 76 8 90 -7 123 -42 94 -20 -17 -28 -17 -28 0 0 12 10 22 21 22 13
0 17 19 9 45 -11 43 -11 43 13 5 13 -22 37 -52 51 -67z m330 53 c-35 -35 -29
-65 6 -36 26 22 29 20 18 -8 -17 -44 -50 -32 -71 25 -10 27 -9 40 2 34 10 -7
24 -2 32 10 7 12 18 16 25 10 6 -6 1 -22 -12 -35z m-527 -181 c24 -153 25
-215 3 -215 -13 0 -19 13 -13 29 6 15 0 33 -13 38 -18 7 -17 15 3 29 20 14 21
23 4 34 -13 8 -19 27 -13 42 6 15 2 28 -9 28 -10 0 -19 9 -19 20 0 29 53 25
57 -5z"/>
<path d="M1925 5386 c-14 -5 -20 -18 -14 -28 6 -10 3 -18 -8 -18 -11 0 -24 11
-30 25 -6 16 -10 17 -11 2 -1 -12 12 -33 28 -47 24 -20 30 -20 30 0 0 13 13
19 30 13 18 -7 30 0 30 16 0 35 -21 49 -55 37z"/>
<path d="M2383 5063 c-14 -10 -53 -14 -85 -11 -61 8 -78 -24 -34 -68 15 -15
31 -16 47 -4 12 11 49 22 81 24 81 5 93 14 60 47 -34 34 -34 34 -69 12z"/>
<path d="M2272 4249 c-6 -17 -20 -26 -30 -20 -11 6 -24 3 -31 -7 -6 -11 7 -25
31 -33 31 -10 40 -25 33 -61 -5 -26 -2 -48 8 -48 17 0 24 29 19 73 -2 13 6 30
17 37 12 7 21 22 21 34 0 14 -10 13 -28 -3 -24 -19 -27 -16 -18 18 12 48 -4
56 -22 10z"/>
<path d="M3089 5457 c-10 -32 -17 -36 -30 -15 -9 15 -22 22 -28 16 -6 -7 13
-38 44 -71 30 -33 76 -85 102 -116 38 -45 51 -51 66 -29 13 20 16 10 13 -32
-5 -44 2 -59 26 -58 23 2 29 -11 22 -45 -5 -27 1 -47 14 -47 64 0 3 168 -92
255 -39 36 -64 65 -55 65 8 0 -3 16 -25 35 -22 19 -36 46 -31 60 4 14 4 25 -2
25 -6 0 -16 -19 -24 -43z"/>
<path d="M3101 4324 c-1 -15 -10 -21 -21 -14 -13 8 -12 -7 1 -42 11 -30 16
-68 10 -84 -9 -22 1 -26 39 -19 41 8 50 2 50 -33 -1 -34 -4 -37 -20 -12 -11
17 -20 23 -20 15 0 -25 47 -99 95 -150 l45 -47 0 56 c-1 38 -6 48 -18 29 -13
-21 -19 -20 -29 7 -7 19 -8 42 -2 52 6 10 2 18 -10 18 -11 0 -20 16 -19 35 1
21 5 25 11 10 6 -14 20 -25 32 -25 13 0 -1 25 -29 55 -28 30 -65 82 -83 115
-17 33 -32 48 -32 34z"/>
<path d="M3208 3655 c12 -20 25 -26 29 -14 4 13 26 9 57 -12 27 -18 54 -28 59
-22 6 5 -9 20 -32 32 -23 13 -38 30 -33 38 5 8 -16 14 -46 14 -49 -1 -53 -6
-34 -36z"/>
<path d="M3513 3371 c-7 -19 -1 -31 18 -31 16 0 29 -9 29 -20 0 -11 10 -20 22
-20 12 0 17 13 11 29 -6 15 -5 32 3 36 8 5 4 6 -9 3 -12 -3 -31 4 -42 15 -13
13 -24 9 -32 -12z"/>
<path d="M2050 3020 c-21 -23 -26 -40 -13 -40 13 0 23 -17 23 -39 0 -21 9 -44
20 -51 28 -18 25 57 -4 86 -19 19 -15 24 15 26 21 0 28 6 14 11 -14 6 -20 19
-14 29 20 32 -4 19 -41 -22z"/>
<path d="M2113 2896 c-6 -24 -2 -55 9 -68 14 -17 12 -27 -6 -33 -18 -6 -17 -8
3 -7 16 1 31 28 36 65 8 74 -25 107 -42 43z"/>
<path d="M3381 1587 c-1 -12 13 -33 29 -47 18 -15 27 -44 21 -68 -6 -23 -5
-31 1 -17 6 14 18 21 26 16 7 -4 27 0 43 10 25 16 25 18 0 19 -16 0 -50 25
-75 55 -24 30 -45 45 -45 32z"/>
<path d="M3540 1482 c0 -40 25 -81 42 -71 10 7 24 -3 30 -20 16 -40 40 -40 56
1 9 22 4 29 -15 22 -16 -6 -39 10 -54 38 -26 48 -59 65 -59 30z"/>
<path d="M758 2680 c-15 -48 -8 -100 14 -100 41 0 49 31 18 72 -16 21 -30 34
-32 28z"/>
<path d="M1931 921 c-16 -25 23 -47 52 -29 16 10 20 4 11 -20 -8 -19 -5 -29 5
-23 32 20 15 91 -22 91 -19 0 -40 -8 -46 -19z"/>
<path d="M2949 1119 c-7 -12 -23 -18 -36 -13 -13 5 -35 -3 -49 -19 -21 -22
-20 -27 4 -27 49 0 132 38 132 60 0 26 -34 26 -51 -1z"/>
<path d="M663 4719 l4 -189 12 170 c7 94 6 179 -3 189 -9 10 -14 -66 -13 -170z"/>
<path d="M652 4416 c-7 -35 -3 -73 8 -84 12 -12 21 -12 22 -1 8 102 8 133 -4
140 -7 5 -19 -20 -26 -55z"/>
<path d="M655 4245 c-6 -25 -6 -83 1 -130 l12 -85 13 78 c17 95 -6 213 -26
137z"/>
<path d="M4447 947 c-33 -81 -94 -140 -162 -159 -25 -7 -45 -21 -45 -33 0 -11
16 -15 35 -10 19 6 47 13 63 18 62 17 39 -45 -37 -95 -78 -51 -103 -88 -61
-88 11 0 56 33 100 73 45 40 86 68 91 62 23 -22 -40 -114 -92 -135 -66 -28
-87 -68 -51 -98 19 -16 36 -11 64 19 115 123 135 139 149 117 8 -13 24 -17 35
-10 12 7 27 3 34 -8 7 -11 22 -15 33 -8 11 6 36 -3 56 -21 46 -42 88 52 63
143 -16 59 -74 79 -70 24 2 -22 -9 -30 -33 -24 -22 6 -44 -6 -58 -32 -12 -23
-30 -42 -39 -42 -28 0 -8 140 25 177 18 20 33 47 33 60 0 39 -37 26 -72 -27
-43 -66 -100 -70 -66 -5 13 25 41 65 63 89 21 23 33 53 26 65 -25 39 -53 22
-84 -52z"/>
</g>
</svg>
