<?xml version="1.0" standalone="no"?>
<!DOCTYPE svg PUBLIC "-//W3C//DTD SVG 20010904//EN"
 "http://www.w3.org/TR/2001/REC-SVG-20010904/DTD/svg10.dtd">
<svg version="1.0" xmlns="http://www.w3.org/2000/svg"
 width="300.000000pt" height="205.000000pt" viewBox="0 0 300.000000 205.000000"
 preserveAspectRatio="xMidYMid meet">
<metadata>
Created by potrace 1.10, written by Peter Selinger 2001-2011
</metadata>
<g transform="translate(0.000000,205.000000) scale(0.050000,-0.050000)"
fill="#000000" stroke="none">
<path d="M3484 4078 c14 -42 -47 -76 -111 -64 -54 11 -92 -14 -93 -61 0 -24
158 -3 186 25 28 28 55 28 49 0 -3 -13 6 -27 20 -32 14 -5 25 3 25 18 0 40 40
75 72 62 22 -8 20 -22 -12 -66 -52 -73 -51 -75 25 -69 49 4 74 -7 102 -45 43
-57 17 -111 -34 -69 -22 19 -30 16 -39 -17 -9 -33 -21 -39 -62 -29 -40 10 -68
0 -123 -49 -90 -79 -111 -79 -88 3 28 97 9 130 -87 146 -107 18 -119 39 -72
122 20 37 28 67 18 67 -11 0 -20 10 -20 22 0 14 19 18 48 10 27 -6 70 -4 95 7
40 16 33 19 -43 19 -60 1 -107 -12 -140 -38 -27 -22 -61 -39 -75 -40 -32 0
-105 -145 -105 -208 0 -41 -14 -55 -79 -74 -105 -31 -117 -72 -43 -139 l60
-55 65 48 c49 36 90 48 171 48 144 0 134 -31 -15 -47 -67 -7 -135 -26 -152
-43 -17 -17 -38 -26 -46 -20 -9 5 -30 -12 -47 -37 -17 -26 -57 -53 -88 -59
-91 -20 -181 -87 -216 -162 -18 -38 -91 -123 -162 -189 -71 -67 -128 -137
-128 -158 0 -78 135 -218 236 -246 209 -56 132 -188 -134 -231 -45 -7 -152
-53 -237 -102 -85 -48 -200 -98 -255 -109 -290 -61 -276 -52 -777 -518 -253
-236 -517 -360 -656 -309 -119 43 -548 15 -475 -32 22 -14 21 -17 -7 -18 -45
0 -44 -13 10 -109 116 -205 572 -321 1055 -269 l70 8 5 -120 c2 -66 -9 -172
-25 -235 -28 -110 -24 -175 11 -175 9 0 27 -48 40 -107 39 -175 59 -190 269
-194 99 -2 206 3 237 11 33 9 101 5 161 -10 103 -24 105 -24 164 33 33 31 89
72 124 91 71 38 79 77 34 163 -50 96 -39 147 45 200 94 58 309 86 344 44 29
-35 122 -58 144 -36 26 26 -62 99 -142 119 -139 36 -5 146 177 146 62 0 87 13
144 77 175 199 334 187 378 -28 16 -77 42 -131 87 -177 275 -285 343 -392 395
-622 l28 -120 170 2 c94 1 220 8 280 16 71 9 137 6 186 -10 149 -49 277 19
193 103 -46 46 -29 78 42 79 17 0 46 27 66 60 20 34 58 75 84 93 57 37 63 67
14 67 -19 0 -83 23 -142 50 -65 30 -143 50 -198 50 -159 0 -325 194 -325 381
0 42 -9 82 -20 89 -56 35 -18 89 85 120 98 29 107 28 155 -7 27 -20 93 -42
146 -47 53 -6 112 -26 131 -44 20 -17 64 -32 99 -32 90 0 277 -90 290 -139 7
-28 27 -41 63 -41 55 0 129 -47 240 -151 138 -129 289 -135 364 -15 19 31 65
90 101 131 36 41 66 85 66 97 0 12 17 46 39 76 80 113 74 143 -58 279 l-121
126 0 143 c0 199 -131 430 -313 555 -44 30 -91 88 -197 244 -34 51 -66 75 -98
75 -49 0 -219 184 -254 274 -9 25 -48 65 -86 90 -38 25 -83 75 -100 111 -17
36 -40 65 -50 65 -10 0 -45 22 -77 49 -33 27 -131 86 -220 131 -263 133 -265
166 -20 358 240 189 200 258 -71 124 -91 -45 -180 -82 -197 -82 -37 0 -197
257 -197 315 0 97 -251 322 -276 248 -10 -30 -66 -30 -59 0 3 12 -7 27 -22 32
-17 6 -24 -1 -19 -17z m-309 -174 c-12 -45 22 -76 103 -94 63 -13 101 -58 74
-85 -8 -7 -31 -3 -53 11 -66 41 -215 7 -384 -87 -31 -18 -55 -22 -55 -11 0 12
45 40 100 64 91 39 98 47 87 95 -10 44 -7 49 14 28 44 -41 59 -29 59 45 0 51
9 70 32 70 21 0 29 -12 23 -36z m705 -195 c0 -7 -9 -29 -21 -50 -17 -33 -14
-39 20 -39 23 0 41 -13 41 -30 0 -16 8 -30 18 -30 24 0 42 -77 21 -91 -10 -6
-35 7 -57 29 -46 46 -164 64 -177 27 -5 -16 3 -21 23 -13 20 8 32 2 32 -15 -1
-46 -29 -75 -71 -72 -22 1 -70 -19 -106 -46 -65 -48 -67 -48 -95 -9 -48 65
-27 99 71 110 97 11 137 58 53 63 -29 1 -61 4 -72 7 -11 3 -27 6 -35 8 -8 1
-2 11 15 21 16 11 50 14 75 8 55 -14 177 41 210 94 23 37 55 53 55 28z m-301
-61 c-15 -18 -46 -39 -69 -48 -23 -9 -43 -35 -44 -59 -8 -98 -284 -149 -302
-56 -5 24 6 35 32 35 21 0 63 19 92 42 60 47 123 37 104 -17 -10 -29 -6 -28
23 5 92 106 246 198 164 98z m764 -75 c-13 -15 -73 -67 -134 -115 -61 -48
-140 -113 -175 -144 -77 -68 -274 -201 -284 -191 -3 4 -12 39 -19 77 -16 88
17 112 379 280 55 25 132 63 170 83 85 44 91 45 63 10z m-1149 -214 c16 -22
42 -30 75 -24 38 7 51 1 51 -23 0 -17 -9 -32 -20 -32 -11 0 -20 -18 -20 -40 0
-22 -9 -40 -20 -40 -11 0 -20 17 -20 38 0 20 -13 48 -30 62 -31 26 -37 16 -31
-45 2 -20 -16 -43 -43 -54 -36 -15 -38 -19 -10 -20 20 0 31 -10 24 -21 -16
-26 -124 -23 -201 7 -153 58 -245 192 -116 168 33 -7 55 2 68 28 17 30 35 35
97 25 46 -7 82 -4 90 9 17 27 74 6 106 -38z m513 -181 c15 -73 -15 -122 -62
-103 -24 9 -29 3 -19 -22 8 -20 3 -33 -13 -33 -14 0 -36 -11 -50 -25 -14 -14
-33 -25 -44 -25 -10 0 -43 -20 -74 -45 -106 -86 -308 -206 -326 -194 -35 21
-19 -25 21 -61 41 -37 56 -82 20 -60 -10 6 -62 -12 -114 -41 -52 -29 -124 -53
-159 -53 -35 0 -69 -12 -75 -27 -5 -15 -26 -25 -47 -24 -20 2 -140 -63 -266
-144 -126 -81 -250 -160 -276 -176 -77 -47 -33 -51 57 -5 46 24 79 35 73 25
-6 -9 -63 -43 -127 -75 -64 -32 -120 -63 -126 -69 -5 -6 -32 -24 -60 -40 -254
-145 -309 -180 -306 -197 3 -11 -11 -18 -30 -17 -19 2 -32 -8 -29 -21 6 -32
-49 -11 -62 24 -6 15 2 38 18 51 16 13 24 31 18 41 -6 10 1 13 15 8 48 -18
135 103 107 148 -7 12 -5 22 5 22 10 0 28 20 40 45 20 42 21 42 23 5 1 -33 5
-35 21 -10 16 25 23 25 37 3 14 -20 20 -18 28 12 7 29 25 38 74 35 35 -2 75 6
88 19 13 12 51 34 86 48 35 15 84 48 109 75 25 26 55 48 68 48 34 0 291 157
356 217 46 43 62 48 92 29 43 -27 127 -11 116 22 -5 12 -28 20 -51 17 -27 -3
-43 7 -43 25 0 17 8 30 18 30 10 0 24 24 31 52 22 87 63 114 151 100 43 -6 83
-4 89 6 15 25 -46 46 -92 31 -29 -9 -37 -1 -37 38 0 54 57 55 102 1 57 -69
395 144 445 279 7 21 25 33 41 26 16 -5 44 7 63 28 43 47 60 37 76 -43z m-362
-8 c-5 -28 -18 -55 -27 -61 -10 -6 -18 -33 -18 -59 0 -57 -35 -85 -52 -41 -7
17 -24 31 -39 31 -38 0 -54 33 -39 80 9 28 30 40 69 40 40 0 59 12 67 42 16
59 51 30 39 -32z m-547 -11 c54 -46 12 -129 -53 -104 -22 8 -27 4 -16 -13 21
-34 -28 -143 -88 -195 -47 -40 -96 -28 -68 17 5 9 0 16 -12 16 -11 0 -21 -10
-21 -21 0 -12 -15 -7 -34 12 -25 25 -28 42 -12 66 15 24 12 39 -12 57 -28 22
-27 25 12 25 31 1 41 10 33 31 -6 17 -1 30 12 30 13 0 18 -9 11 -20 -7 -11 -3
-20 10 -20 15 0 15 -11 0 -40 -24 -44 -2 -54 37 -15 20 20 29 19 45 -5 15 -23
18 -15 14 30 -4 38 -22 67 -52 82 l-47 23 54 43 c67 52 125 53 187 1z m1340
26 c-7 -42 9 -61 82 -103 44 -25 77 -51 72 -59 -17 -28 18 -55 98 -74 64 -15
80 -28 81 -65 0 -25 10 -52 22 -60 12 -8 27 -41 33 -74 6 -33 18 -85 25 -115
15 -62 -55 -81 -111 -30 -17 16 -15 4 6 -29 19 -30 34 -64 34 -74 0 -31 106
-130 145 -136 19 -3 35 0 35 8 0 29 -68 86 -103 86 -48 0 -48 34 1 49 49 16
103 76 60 67 -19 -4 -26 8 -22 37 3 24 -4 49 -15 56 -31 19 -26 51 8 51 16 0
39 16 52 35 19 30 21 30 12 2 -6 -19 1 -38 16 -44 35 -13 51 -105 23 -134 -16
-16 -12 -21 15 -16 56 10 89 -52 56 -105 -14 -23 -20 -47 -14 -54 7 -7 -8 -23
-33 -36 l-46 -25 57 -25 c39 -18 53 -37 46 -62 -8 -31 4 -36 80 -36 75 0 89 6
83 35 -5 24 -24 34 -62 31 -41 -3 -54 5 -54 35 0 22 10 39 22 39 13 0 18 18
12 40 -6 22 -3 44 5 49 27 17 101 -69 101 -118 0 -26 14 -52 32 -59 18 -7 27
-25 21 -42 -7 -19 0 -30 20 -30 20 0 27 11 20 30 -7 18 0 30 18 30 24 0 26 -8
10 -39 -28 -51 -26 -61 9 -61 17 0 30 16 30 36 0 20 13 54 29 75 28 36 30 33
30 -44 1 -87 31 -127 99 -132 45 -4 72 -47 41 -66 -11 -6 -13 -36 -6 -65 12
-48 10 -51 -18 -28 -18 15 -35 51 -39 80 -3 30 -13 52 -21 49 -8 -3 -41 -5
-73 -5 -49 0 -63 -12 -90 -80 -33 -85 -61 -97 -121 -53 -42 30 -26 123 19 106
28 -11 53 51 33 80 -23 31 -83 31 -71 0 6 -16 1 -35 -11 -42 -11 -7 -21 -33
-21 -57 0 -37 -8 -33 -61 31 -34 41 -73 75 -85 75 -50 1 -82 36 -60 63 17 21
8 44 -36 97 l-59 70 13 -67 c12 -58 9 -66 -23 -60 -24 5 -42 32 -51 74 -21
101 -50 116 -48 23 1 -62 17 -95 70 -150 69 -72 69 -87 -3 -48 -36 19 -38 17
-19 -18 11 -21 14 -46 6 -55 -8 -8 4 -9 26 0 22 8 57 18 77 22 48 10 158 -46
142 -72 -7 -11 -5 -18 5 -16 32 7 86 -28 86 -56 0 -15 13 -33 28 -39 16 -6 26
-32 23 -61 -5 -41 1 -48 32 -41 20 6 42 2 48 -8 6 -10 37 -18 68 -18 35 0 62
-13 70 -34 11 -30 17 -28 39 15 19 36 20 57 4 77 -19 24 -7 27 72 16 78 -11
95 -7 101 22 6 22 15 10 28 -36 14 -49 14 -75 -1 -85 -15 -10 -13 -21 7 -34
25 -16 25 -24 -5 -56 -39 -43 -43 -77 -13 -96 43 -26 73 30 64 121 -10 96 10
115 51 50 18 -29 19 -52 4 -79 -14 -27 -14 -43 1 -52 12 -7 27 6 33 30 10 40
14 40 47 10 20 -18 31 -45 26 -61 -6 -15 -1 -28 11 -28 12 0 22 -13 22 -30 0
-16 -2 -30 -5 -30 -3 0 -45 13 -95 27 -80 24 -96 23 -155 -10 -75 -42 -102
-45 -145 -17 -27 18 -27 22 0 41 25 17 23 20 -10 15 -31 -5 -41 7 -47 54 -7
68 -43 119 -43 62 0 -23 -10 -32 -29 -25 -42 16 -87 -45 -50 -68 16 -10 39
-19 52 -19 12 0 34 -15 49 -33 24 -29 23 -31 -13 -20 -33 11 -41 3 -45 -40 -8
-97 -64 -84 -64 14 0 34 -11 59 -25 60 -70 2 -170 159 -101 159 20 0 12 19
-27 60 -31 33 -64 60 -72 60 -28 0 -15 -78 16 -95 48 -27 15 -87 -41 -73 -31
8 -54 -1 -73 -27 -68 -96 -368 -124 -309 -29 7 12 -3 25 -23 30 -24 7 -20 10
15 12 28 1 86 16 130 31 121 44 145 39 90 -19 -46 -49 -36 -62 28 -38 18 7 32
28 32 46 0 19 13 52 29 73 58 76 -33 99 -150 38 -32 -16 -59 -26 -59 -21 0 6
-27 1 -60 -11 -33 -12 -60 -33 -60 -47 0 -15 -39 -61 -86 -103 -48 -42 -94
-90 -103 -107 -14 -24 -12 -25 10 -5 33 30 59 32 59 5 0 -31 -123 -100 -178
-100 l-49 0 44 46 c24 26 40 51 35 55 -5 5 20 31 55 57 35 26 79 82 100 125
23 48 54 82 85 89 26 7 48 23 48 37 0 13 77 60 170 103 216 99 209 136 -15 75
-19 -5 -35 0 -35 13 0 15 -11 16 -33 3 -45 -25 -134 3 -233 71 l-80 56 85 16
c59 12 79 24 65 38 -24 24 -189 -40 -172 -67 15 -25 -16 -21 -113 13 -59 21
-93 24 -107 10 -13 -13 -9 -20 13 -20 61 0 58 -41 -3 -62 -34 -12 -62 -35 -62
-51 0 -15 -15 -51 -33 -78 -18 -28 -27 -56 -21 -62 7 -7 32 21 55 60 80 136
69 88 -29 -133 -60 -133 -63 -148 -22 -114 38 32 39 -1 1 -51 -17 -22 -30 -60
-30 -86 -1 -25 -26 -71 -56 -101 -30 -30 -55 -72 -55 -92 0 -20 -13 -40 -30
-45 -24 -6 -25 -4 -3 11 18 12 20 24 7 32 -12 7 -68 -32 -124 -86 l-104 -99
86 -42 c47 -22 87 -39 89 -36 49 63 62 151 15 104 -41 -41 -58 -9 -27 50 80
148 125 -27 53 -200 -8 -18 4 -51 28 -79 26 -30 34 -54 22 -66 -12 -12 -9 -30
9 -48 16 -16 29 -48 28 -72 l-1 -44 -31 45 c-40 56 -67 58 -52 4 10 -39 6 -39
-65 10 -42 28 -84 51 -94 51 -10 0 -13 9 -6 20 7 11 35 20 63 20 l50 0 -46 57
c-30 36 -52 49 -61 35 -18 -27 -74 42 -75 91 -1 18 -12 32 -26 32 -74 -3 -95
8 -95 48 0 67 57 120 103 96 28 -16 37 -14 37 9 0 28 130 121 170 122 35 1 9
171 -33 213 -35 35 -35 42 -8 69 41 40 39 53 -9 83 -26 17 -40 18 -40 4 0 -12
-10 -15 -21 -8 -12 7 -17 25 -12 40 12 30 -41 82 -62 61 -7 -8 -2 -32 12 -54
14 -22 19 -58 13 -79 -9 -26 6 -54 49 -93 85 -78 91 -154 13 -163 -32 -3 -77
-18 -100 -33 -92 -59 -424 -164 -487 -154 -68 10 -54 40 25 55 39 8 71 24 72
36 9 82 42 153 72 153 15 0 23 9 15 21 -21 34 32 79 93 79 32 0 58 9 58 20 0
27 -99 25 -178 -2 -41 -15 -61 -33 -54 -50 11 -30 -171 -228 -210 -228 -16 0
-13 13 9 37 52 57 41 89 -18 51 -27 -18 -57 -26 -65 -18 -8 9 -4 19 8 23 12 5
18 31 13 58 -11 55 -1 59 59 27 45 -24 168 77 151 126 -4 14 -22 7 -46 -18
-50 -52 -124 -91 -136 -71 -15 25 33 78 87 94 74 23 120 71 120 126 0 46 -3
45 -67 -24 -71 -74 -133 -93 -133 -40 0 17 -9 26 -20 19 -11 -7 -20 -38 -20
-70 0 -62 -30 -97 -47 -55 -5 14 -11 -3 -11 -38 -2 -81 -56 -106 -74 -34 -17
64 -47 25 -49 -63 -2 -52 -4 -54 -19 -20 -14 32 -17 33 -19 7 -2 -49 21 -98
40 -86 9 5 7 -20 -4 -56 -12 -36 -25 -85 -31 -109 -6 -25 -25 -56 -43 -70 -30
-24 -30 -23 -3 12 28 35 26 37 -15 24 -59 -19 -21 198 67 375 15 31 28 78 28
105 0 26 7 47 15 46 52 -9 92 10 154 73 39 39 71 78 71 88 0 26 -82 -1 -93
-31 -6 -14 -41 -36 -79 -49 -37 -12 -69 -33 -70 -46 -1 -12 -9 0 -18 27 l-16
50 -3 -50 c-4 -46 -5 -47 -21 -10 -13 31 -17 22 -17 -40 0 -62 4 -71 17 -40
14 32 17 26 19 -34 0 -40 -9 -80 -22 -88 -13 -8 -18 -6 -13 4 6 10 -5 35 -25
55 -36 36 -36 35 -15 -34 17 -55 16 -92 -4 -158 -25 -80 -27 -82 -41 -35 -8
28 -17 37 -20 20 -9 -62 -9 -297 1 -296 39 3 52 -10 51 -52 -1 -27 -8 -55 -16
-63 -20 -21 -79 32 -68 61 5 13 2 54 -7 92 l-16 68 -2 -76 c-1 -42 -12 -96
-25 -119 -17 -32 -17 -45 0 -51 33 -11 28 -40 -15 -86 -37 -40 -37 -40 -46 32
-4 40 -1 77 8 82 9 6 16 30 15 54 0 43 -1 42 -30 -6 -28 -46 -32 59 -7 193 1
9 1 53 -2 97 l-5 80 -17 -80 c-10 -44 -21 -129 -26 -189 -4 -60 -18 -113 -30
-117 -12 -4 -22 -16 -22 -27 0 -31 -84 -219 -94 -210 -5 5 2 46 16 92 18 60
19 88 3 104 -13 13 -15 35 -5 55 108 208 160 387 121 412 -12 7 -21 9 -21 5 0
-78 -58 -272 -109 -365 -36 -66 -73 -147 -81 -180 l-16 -60 -15 50 c-8 28 -16
37 -17 20 -2 -27 -5 -27 -22 0 -15 23 -19 15 -20 -32 0 -48 12 -68 55 -88 l55
-27 -70 -14 c-38 -7 -86 -20 -105 -28 -23 -10 -35 -6 -35 10 0 17 -11 15 -37
-8 -40 -36 -103 -44 -103 -13 0 11 11 21 25 22 35 2 -179 59 -270 72 -63 9
-75 4 -75 -27 -1 -31 -4 -32 -20 -7 -17 27 -19 27 -20 0 -1 -25 -3 -26 -18 -2
-28 44 25 82 112 82 110 1 226 22 226 43 0 9 -86 14 -192 11 -149 -5 -195 0
-203 21 -13 34 24 73 70 76 107 7 125 11 125 29 0 11 -53 20 -120 20 -118 0
-158 25 -80 50 38 12 49 47 44 140 -1 22 3 30 8 17 7 -15 49 -20 126 -12 76 6
121 2 130 -12 8 -13 28 -23 44 -23 60 0 188 -104 188 -153 0 -62 23 -59 60 8
24 43 26 72 12 131 -14 55 -13 88 4 115 13 21 24 57 24 79 0 63 57 184 80 170
11 -7 20 6 20 29 0 22 18 52 40 66 22 13 40 42 40 63 0 21 6 33 13 25 8 -7 30
12 50 42 20 30 37 46 37 35 0 -13 6 -13 15 0 73 99 213 140 221 65 4 -30 16
-55 28 -55 11 0 17 26 12 60 -9 62 11 82 31 30 17 -44 43 -37 73 20 29 55 72
69 52 18 -32 -83 -32 -138 0 -68 34 74 66 104 92 88 9 -6 16 15 16 46 1 39 6
48 18 29 9 -15 12 -47 6 -70 -10 -39 -8 -41 25 -13 34 28 36 26 23 -20 -11
-38 -10 -43 6 -20 12 17 22 48 22 70 1 65 32 101 45 52 6 -23 3 -37 -7 -31
-10 6 -18 2 -18 -10 0 -11 8 -21 19 -21 24 0 81 57 81 81 0 24 101 24 138 1
41 -26 34 -344 -8 -375 -27 -19 -27 -24 -2 -33 39 -16 79 36 66 86 -12 46 94
61 113 15 8 -19 14 -19 29 3 54 77 128 -57 81 -144 -15 -27 -44 -79 -65 -116
-38 -67 -38 -68 0 -38 134 104 167 154 142 218 -18 49 -18 72 1 102 30 47 33
127 5 110 -25 -15 -26 21 -3 66 27 52 50 271 27 256 -30 -18 -44 66 -19 120
23 51 66 64 80 24 12 -37 75 -2 75 42 0 22 16 49 35 60 19 12 24 21 10 21 -69
2 -12 41 77 53 77 10 94 18 70 32 -18 10 -43 12 -56 4 -15 -10 -19 -4 -11 17
13 33 -60 115 -101 115 -39 0 -27 -36 16 -50 22 -7 40 -27 40 -45 0 -25 -6
-27 -23 -10 -29 29 -186 -45 -165 -78 9 -14 19 -12 30 6 22 34 21 0 -2 -53
-15 -34 -17 -35 -19 -5 0 19 -11 35 -22 35 -12 0 -15 -11 -6 -25 11 -18 6 -18
-18 1 -18 15 -28 42 -22 60 9 28 7 29 -10 5 -11 -16 -16 -36 -10 -45 5 -9 0
-16 -12 -16 -11 0 -21 -12 -21 -28 0 -33 -75 -57 -92 -29 -6 10 -7 30 -2 43 6
18 -13 22 -68 17 -48 -4 -78 1 -78 15 0 13 27 20 63 17 40 -3 66 5 73 23 6 19
-1 24 -23 16 -17 -7 -36 -5 -42 5 -6 9 16 27 50 38 36 13 56 14 49 2 -7 -10
-3 -19 9 -19 11 0 21 9 21 21 0 47 133 176 220 213 87 37 183 125 166 152 -8
13 1 16 22 8 19 -8 29 -6 23 4 -14 22 114 106 129 84 15 -23 163 -44 149 -21
-6 11 -22 19 -35 20 -77 2 -96 55 -32 87 71 35 105 42 58 12 -24 -16 -21 -19
17 -20 35 0 44 8 35 32 -10 25 -3 30 28 22 22 -6 45 -2 51 8 14 22 30 24 27 3z
m-1020 -132 c26 -13 47 -32 46 -43 -4 -38 -90 -33 -147 9 -31 23 -57 34 -57
24 0 -10 14 -24 30 -30 31 -12 42 -53 14 -53 -57 0 -85 50 -53 96 34 47 62 47
167 -3z m-247 -154 c7 -11 31 -15 53 -8 27 9 36 6 27 -9 -7 -12 -30 -22 -51
-22 -29 0 -41 -19 -51 -75 -20 -125 -24 -131 -84 -115 -76 19 -78 23 -38 96
l36 64 -47 -54 c-34 -41 -54 -49 -76 -35 -29 19 39 97 86 99 9 0 11 18 4 40
-14 44 114 62 141 19z m302 -466 c17 0 18 -9 0 -36 -12 -20 -41 -37 -64 -37
-23 0 -59 -13 -80 -28 -25 -18 -47 -22 -61 -10 -16 13 -26 1 -34 -39 -18 -88
-73 -97 -140 -23 -82 92 -66 131 51 127 81 -2 95 3 95 36 0 35 10 37 105 24
58 -7 115 -14 128 -14z m-453 -21 c0 -14 -145 -94 -153 -85 -5 4 21 27 57 50
63 40 96 52 96 35z m-12 -162 c30 -27 62 -50 71 -50 32 0 33 -46 2 -112 -34
-72 -72 -93 -51 -28 7 23 4 40 -9 40 -11 0 -21 -11 -21 -25 -1 -18 -5 -18 -18
2 -14 23 -22 21 -41 -10 -20 -32 -22 -29 -12 23 11 57 10 58 -19 21 -16 -21
-30 -46 -30 -55 0 -9 -18 -16 -40 -16 -42 0 -54 29 -20 50 31 19 24 50 -9 38
-95 -37 -83 44 15 107 122 78 115 77 182 15z m402 -10 c-18 -28 37 -25 66 4
39 39 167 -99 171 -183 3 -69 -3 -75 -132 -132 -41 -19 -75 -41 -75 -50 0 -23
80 -11 137 19 56 30 65 24 50 -34 -9 -34 -26 -44 -77 -44 -36 0 -95 -6 -131
-13 -65 -13 -65 -13 -52 51 14 73 119 178 129 131 9 -38 24 -36 56 6 39 51 34
70 -15 54 -89 -28 -181 -28 -170 1 6 15 -2 31 -17 37 -16 6 -23 27 -16 52 6
22 2 41 -10 41 -11 0 -25 14 -32 31 -9 24 3 21 48 -11 50 -35 60 -37 60 -11 0
17 -11 31 -25 31 -17 1 -15 7 5 20 38 25 45 25 30 0z m-690 -120 c0 -11 -14
-20 -30 -20 -23 0 -27 -13 -17 -53 11 -44 7 -51 -19 -41 -18 7 -38 4 -45 -7
-6 -10 -29 -19 -52 -19 -58 0 -39 56 33 96 33 19 63 41 67 49 10 22 63 18 63
-5z m-680 -100 c0 -9 -16 -36 -36 -60 l-36 -44 -2 69 c-2 60 4 69 36 60 21 -5
38 -17 38 -25z m-109 -44 c20 -62 -9 -153 -47 -147 -30 4 -40 67 -26 173 4 28
63 8 73 -26z m2548 -18 c-11 -20 -28 -41 -39 -48 -12 -7 -17 -19 -12 -26 4 -8
-24 -16 -62 -18 -99 -5 -126 -19 -126 -63 0 -21 -14 -44 -31 -51 -44 -16 -19
62 40 128 25 28 50 64 56 82 8 22 37 31 102 31 81 0 89 -4 72 -35z m177 -24
c20 -16 2 -30 -75 -59 -90 -34 -99 -42 -80 -77 17 -32 13 -42 -25 -57 -40 -16
-35 -19 34 -20 66 -2 74 -6 44 -23 -20 -12 -77 -18 -128 -15 -62 5 -95 -1
-101 -19 -5 -14 3 -23 17 -20 45 10 42 -59 -6 -105 -45 -43 -45 -43 -2 -21 24
12 49 31 56 42 7 12 21 15 32 9 45 -28 -96 -118 -152 -96 -28 11 -27 18 10 57
24 26 34 49 21 53 -14 5 -15 28 -2 73 10 37 13 81 7 98 -9 23 -5 28 12 17 45
-28 145 30 138 80 -13 102 111 154 200 83z m1079 -67 l-7 -57 -24 57 c-26 61
-13 110 20 77 10 -10 16 -45 11 -77z m-3435 -56 c-13 -39 -31 -71 -41 -71 -26
0 -5 124 24 142 39 24 43 7 17 -71z m-411 -65 c7 -19 4 -38 -8 -42 -11 -4 -21
-20 -21 -36 0 -33 -10 -35 -59 -8 -43 23 -65 -26 -39 -90 13 -34 15 -31 17 18
1 55 3 56 38 25 20 -18 55 -33 78 -33 24 0 48 -9 55 -20 27 -44 51 -16 46 52
-5 75 73 168 141 168 15 0 23 12 17 27 -7 19 3 24 35 18 34 -6 44 -19 36 -47
-5 -20 -17 -33 -26 -27 -9 5 -22 1 -28 -10 -7 -10 -25 -14 -42 -8 -23 9 -29
-9 -31 -86 -2 -75 -5 -86 -16 -47 -19 62 -35 17 -40 -109 -2 -44 -8 -84 -13
-89 -24 -23 -71 -16 -94 15 -52 69 -106 41 -100 -52 7 -105 -7 -107 -51 -10
l-33 75 -7 -64 -6 -65 -68 62 c-37 34 -71 81 -75 104 -5 24 -16 -6 -25 -67 -9
-60 -20 -99 -25 -85 -14 40 -45 7 -45 -47 0 -29 -9 -45 -20 -38 -11 7 -20 -2
-20 -19 0 -17 -7 -31 -17 -31 -9 0 -12 28 -7 63 7 43 2 58 -13 49 -13 -8 -23
-27 -23 -43 0 -16 -8 -45 -18 -64 -9 -19 -30 -61 -45 -93 -26 -57 -27 -57 -34
-13 -3 26 3 53 15 60 15 9 14 25 -6 51 -25 35 -28 34 -41 -25 -17 -76 -111
-151 -111 -88 0 47 -71 139 -91 118 -8 -8 -3 -28 10 -44 29 -35 12 -100 -20
-80 -12 7 -38 -2 -58 -20 -35 -31 -39 -31 -74 6 -21 22 -62 44 -92 48 -73 9
-78 18 -59 107 12 58 26 78 55 79 65 2 109 -48 96 -111 -6 -31 -2 -72 8 -91
16 -28 22 -21 33 40 8 41 6 85 -4 98 -53 67 -47 134 10 122 83 -19 131 -14
148 14 10 17 20 6 29 -32 17 -66 53 -25 40 45 -11 55 45 36 70 -24 18 -40 19
-40 17 -2 -6 102 1 115 52 105 46 -9 50 -3 50 63 1 88 38 46 42 -48 3 -50 5
-52 12 -13 6 32 19 42 40 34 25 -9 29 0 19 48 -6 33 -7 73 -2 88 16 41 148
-89 151 -148 2 -42 4 -43 13 -9 5 22 20 46 32 54 15 9 8 41 -22 100 -31 60
-45 74 -46 46 -2 -31 -7 -27 -23 16 -17 48 -14 63 21 95 54 51 57 50 73 -19
18 -82 98 -64 86 19 -10 66 86 36 113 -35z m2361 -85 c-7 -34 -29 -70 -49 -80
-20 -11 -42 -49 -50 -85 -8 -36 -19 -55 -25 -41 -10 26 114 292 129 276 5 -4
3 -36 -5 -70z m830 -96 c0 -8 29 -14 65 -14 78 2 175 -77 175 -142 0 -24 14
-56 32 -70 29 -24 28 -29 -4 -53 -41 -30 -148 -35 -148 -7 0 10 -20 21 -43 25
-24 3 -48 18 -52 32 -7 19 5 22 42 13 83 -21 111 15 32 41 -46 16 -71 38 -75
67 -8 54 -44 57 -44 3 0 -22 -13 -40 -30 -40 -34 0 -35 9 -17 98 10 52 67 92
67 47z m-879 -123 c-22 -42 -6 -44 89 -12 23 8 31 7 18 -3 -12 -9 -28 -44 -37
-77 -8 -33 -20 -64 -28 -70 -31 -24 -106 -144 -95 -154 6 -7 17 3 24 21 19 50
48 39 48 -17 0 -27 -9 -50 -20 -50 -34 0 -22 -70 31 -190 33 -75 47 -134 39
-168 -7 -32 1 -68 19 -92 35 -47 41 -98 9 -79 -38 24 24 -77 81 -133 80 -77
368 -101 355 -30 -2 12 8 22 23 22 19 0 31 -32 36 -97 7 -80 3 -96 -21 -87
-16 6 -34 -3 -41 -20 -6 -18 -18 -26 -25 -19 -7 7 -34 -6 -60 -30 -44 -42 -46
-42 -46 -5 -1 36 -3 36 -35 -4 -30 -36 -54 -42 -175 -38 -110 2 -143 -3 -155
-28 -9 -19 -11 -8 -5 25 8 36 4 52 -9 43 -12 -7 -21 -3 -21 8 0 11 -12 16 -27
10 -18 -7 -31 7 -37 39 -8 38 -3 47 20 38 20 -8 26 -4 16 12 -20 33 -2 29 73
-17 36 -22 83 -40 105 -39 51 1 -74 114 -146 132 -28 7 -42 23 -36 39 6 15 2
32 -9 39 -11 6 -27 -9 -36 -34 l-17 -46 -25 48 c-22 40 -21 50 7 65 17 10 32
28 32 39 0 13 -13 11 -33 -6 -27 -22 -35 -22 -42 -1 -5 14 -35 54 -67 89 -32
35 -58 73 -58 84 1 12 18 -1 39 -29 23 -30 60 -50 91 -51 54 -1 56 7 19 101
-16 39 -15 39 28 2 55 -49 55 -25 0 52 -58 82 -64 188 -16 282 21 41 39 94 39
118 0 23 23 82 51 130 29 48 47 99 42 112 -6 13 -11 9 -11 -10 -1 -19 -20 -44
-42 -56 -22 -12 -40 -35 -40 -51 0 -16 -9 -29 -20 -29 -11 0 -20 -35 -20 -79
0 -43 -9 -84 -20 -91 -11 -7 -20 -34 -20 -61 0 -32 -11 -49 -32 -49 -21 0 -28
11 -20 32 7 17 18 81 25 141 7 61 24 121 37 134 33 34 70 105 70 137 -1 14
-20 4 -43 -24 l-42 -50 31 50 c17 28 40 48 50 46 11 -3 36 29 56 70 25 52 38
64 43 40 4 -19 -2 -52 -14 -74z m779 38 c-13 -25 -42 -40 -76 -40 -30 0 -67
-9 -84 -20 -22 -14 -7 -19 55 -20 47 0 85 -9 85 -20 0 -11 -53 -20 -119 -20
-65 0 -124 -9 -131 -19 -14 -23 -169 -68 -184 -53 -6 5 11 39 36 76 87 123
177 167 147 73 -13 -40 -12 -40 43 -4 126 83 262 111 228 47z m743 -82 c-4
-26 -17 -61 -30 -76 -18 -23 -15 -25 20 -14 55 17 80 -19 32 -46 -33 -20 -33
-21 0 -21 19 -1 35 -10 35 -21 0 -25 -65 -26 -91 -2 -27 24 -169 47 -169 27 0
-9 11 -29 25 -44 27 -28 -34 -23 -113 10 -25 10 -34 9 -26 -5 23 -37 -54 -82
-141 -83 -46 0 -90 9 -97 20 -6 11 0 18 15 15 49 -8 104 25 74 44 -18 12 -6
17 36 18 66 0 227 121 227 170 0 15 23 20 63 14 45 -7 68 0 81 24 27 48 67 28
59 -30z m109 -52 c2 -31 -6 -39 -30 -31 -67 25 -71 94 -5 81 18 -4 34 -26 35
-50z m-5090 -21 c45 -118 -38 -267 -90 -162 -41 82 -44 205 -4 152 49 -64 89
-44 51 26 -14 27 -14 39 1 39 11 0 30 -25 42 -55z m-294 -12 c-6 -13 3 -6 20
16 18 21 36 33 42 27 6 -6 -6 -32 -28 -58 -42 -52 -50 -50 -71 17 -11 35 -7
42 18 33 17 -7 26 -22 19 -35z m4641 8 c7 -10 -4 -27 -24 -38 -29 -17 -30 -22
-5 -30 17 -5 44 -14 60 -20 17 -5 1 -11 -35 -11 -36 -1 -65 6 -65 16 0 10 -34
24 -75 32 -109 20 -124 38 -45 52 110 20 177 20 189 -1z m902 -12 c-37 -28
-37 -29 10 -29 39 -1 43 -5 19 -20 -16 -11 -59 -20 -95 -20 -112 0 -37 84 85
97 11 1 3 -11 -19 -28z m-5431 -48 c0 -21 -8 -44 -18 -50 -21 -13 -47 45 -31
71 20 32 49 19 49 -21z m2520 -43 c0 -10 -22 -18 -50 -18 -52 0 -69 30 -25 45
32 12 75 -4 75 -27z m2911 -40 c8 -12 45 -18 83 -14 l69 8 -46 -35 c-46 -34
-46 -34 41 -23 70 10 85 6 77 -16 -5 -16 -32 -26 -61 -24 -44 3 -53 -6 -58
-60 -7 -75 -43 -78 -52 -4 -10 78 -91 123 -172 93 -81 -29 -152 -30 -152 -1 0
12 18 26 40 32 22 6 40 18 40 27 0 36 170 51 191 17z m-2937 -43 c28 -37 20
-78 -18 -102 -56 -35 -91 12 -56 77 30 56 46 62 74 25z m2929 -120 c31 -59
-11 -75 -94 -37 -80 38 -83 46 -24 73 56 26 90 16 118 -36z m-563 27 c0 -10
-15 -23 -33 -30 -18 -7 -28 -18 -22 -24 6 -6 39 3 72 21 78 40 125 40 110 1
-8 -23 -2 -27 24 -17 24 10 31 6 21 -10 -8 -12 -5 -23 7 -23 11 0 21 9 21 20
0 30 73 24 106 -9 16 -16 52 -35 80 -42 33 -8 48 -23 41 -41 -9 -21 7 -28 61
-28 49 0 72 9 72 29 0 43 38 58 53 21 8 -20 -8 -54 -43 -90 -30 -31 -48 -66
-41 -78 32 -53 -112 21 -185 94 -25 25 -82 43 -162 52 -80 9 -128 25 -135 43
-6 16 -37 29 -68 29 -107 0 -176 38 -130 71 43 32 151 39 151 11z m-2880 -192
c0 -82 -39 -116 -41 -36 -2 52 -4 51 -30 -22 -37 -100 -64 -132 -113 -132 -21
0 -34 -8 -28 -17 31 -50 -149 -80 -189 -31 -31 37 2 67 75 68 24 0 49 9 56 20
7 11 31 20 55 20 53 0 115 55 115 101 0 61 19 90 61 94 32 2 39 -10 39 -65z
m-800 -146 c58 -13 64 -41 31 -152 -39 -136 -61 -146 -42 -20 10 64 7 88 -7
79 -12 -7 -22 -30 -22 -51 0 -20 -11 -41 -25 -46 -19 -7 -20 -18 -1 -49 18
-32 17 -49 -7 -83 -45 -64 -57 -52 -57 56 0 54 7 97 16 95 9 -1 29 27 44 63
16 36 20 60 9 54 -26 -17 -47 42 -30 85 12 31 17 31 38 5 13 -16 37 -33 53
-36z m-129 -46 c14 -45 -24 -138 -57 -138 -11 0 -14 27 -6 63 6 34 12 74 12
90 0 42 36 32 51 -15z m225 -87 c-4 -37 -1 -64 8 -58 9 5 16 22 16 38 0 35 10
36 63 7 32 -17 46 -14 68 15 33 44 38 21 8 -35 -18 -34 -13 -40 39 -51 98 -19
55 -65 -59 -62 -53 1 -92 9 -87 19 6 9 19 11 29 5 24 -15 24 12 -1 51 -20 32
-78 -22 -79 -74 -1 -42 73 -70 116 -43 38 24 163 -13 163 -49 0 -83 -158 -151
-245 -105 -30 15 -59 20 -65 11 -12 -20 -170 -22 -170 -3 0 7 32 38 70 69 39
31 65 65 58 76 -11 19 53 257 69 258 4 0 4 -31 -1 -69z m387 -264 c53 -47 46
-87 -14 -87 -53 0 -81 40 -62 90 15 38 31 38 76 -3z"/>
<path d="M4100 3107 c0 -10 13 -41 28 -71 34 -65 25 -76 -66 -77 -64 -1 -67
-4 -26 -20 49 -20 219 -3 235 22 5 9 -8 22 -30 29 -22 7 -62 39 -90 73 -28 33
-51 53 -51 44z"/>
<path d="M3912 2928 c-16 -43 -3 -56 39 -40 18 6 29 23 24 36 -12 38 -49 40
-63 4z"/>
<path d="M4089 2859 c-12 -21 150 -142 217 -162 139 -41 169 -5 72 85 -69 65
-109 75 -89 24 12 -31 10 -31 -25 1 -49 43 -160 76 -175 52z"/>
<path d="M3689 2839 c-6 -11 -2 -19 9 -19 11 0 15 -15 8 -33 -10 -26 -5 -31
20 -21 19 7 33 6 31 -2 -5 -38 6 -47 33 -24 21 17 30 18 30 2 0 -12 32 -22 70
-22 82 0 96 -39 15 -42 -30 0 -43 -6 -29 -12 21 -8 21 -16 0 -41 -23 -28 -20
-30 24 -16 61 19 241 35 201 18 -34 -15 123 -84 194 -86 30 -1 53 -19 65 -51
23 -60 41 -67 26 -10 -11 43 -115 140 -149 140 -11 0 -49 23 -85 50 -36 28
-80 50 -98 50 -17 0 -37 9 -44 20 -7 11 -2 20 10 20 44 0 -3 40 -66 56 -41 11
-77 9 -99 -4 -27 -17 -50 -14 -95 12 -34 19 -64 26 -71 15z"/>
<path d="M3540 2718 c0 -29 139 -54 160 -28 17 20 2 27 -69 33 -50 4 -91 2
-91 -5z"/>
<path d="M3750 2596 c22 -12 45 -30 52 -40 18 -28 158 -45 158 -19 0 13 -20
23 -45 24 -25 0 -67 13 -95 29 -27 16 -63 29 -80 29 -21 0 -18 -7 10 -23z"/>
<path d="M3860 2486 c0 -10 23 -49 50 -86 39 -53 50 -60 50 -29 -1 44 -15 67
-65 106 -19 16 -35 20 -35 9z"/>
<path d="M3628 2463 c8 -13 31 -23 51 -23 43 0 90 -50 73 -77 -7 -11 15 -9 48
3 66 25 73 39 35 70 -38 31 -224 55 -207 27z"/>
<path d="M4160 2413 c0 -6 9 -35 21 -66 20 -52 19 -53 -15 -23 -57 52 -91 50
-107 -4 -14 -46 -15 -47 -17 -6 -1 24 -10 49 -21 55 -10 7 -14 -10 -9 -40 8
-46 5 -49 -31 -29 -32 17 -41 15 -41 -7 0 -48 55 -82 88 -54 20 16 33 16 41 2
8 -12 29 -21 47 -21 29 1 30 3 4 20 -16 11 -21 19 -10 19 41 0 71 -33 59 -64
-9 -24 -2 -32 28 -30 36 3 39 13 28 104 -9 76 -65 200 -65 144z"/>
<path d="M4303 2366 c4 -41 15 -57 42 -57 50 0 40 98 -10 107 -28 6 -35 -5
-32 -50z"/>
<path d="M3611 2308 c-21 -15 -65 -28 -96 -28 -38 0 -55 -9 -49 -25 5 -14 17
-24 27 -23 9 2 47 8 85 15 l67 13 -14 -85 c-8 -47 -17 -107 -20 -134 -7 -52
-77 -121 -123 -121 -36 0 -36 -38 0 -52 36 -14 130 35 182 93 37 43 37 45 3
32 -28 -10 -34 -6 -25 17 6 16 18 45 25 63 10 24 7 29 -12 18 -19 -12 -22 -5
-13 26 7 24 17 61 23 83 10 36 15 37 42 10 26 -26 35 -26 76 1 44 29 49 28 78
-13 28 -39 33 -41 44 -12 22 58 -67 111 -201 119 -22 1 -45 9 -50 17 -6 8 -28
2 -49 -14z"/>
<path d="M4340 2202 c0 -24 93 -83 108 -68 22 23 12 39 -39 63 -61 28 -69 28
-69 5z"/>
<path d="M4420 2070 c-50 -28 -50 -28 26 -26 41 1 72 12 68 23 -11 33 -40 34
-94 3z"/>
<path d="M4750 1880 c7 -11 -9 -20 -35 -20 -107 0 -121 -50 -15 -52 55 -1 100
7 100 17 0 11 24 14 55 7 41 -10 47 -8 25 7 -16 11 -46 21 -65 21 -19 0 -35 9
-35 20 0 11 -10 20 -21 20 -12 0 -16 -9 -9 -20z"/>
<path d="M3685 1805 l-43 -55 -1 50 -2 50 -39 -50 c-49 -62 -51 -98 -5 -97 19
1 64 -11 99 -25 72 -29 76 -28 95 42 l13 50 -39 -45 c-54 -62 -84 9 -34 79 25
37 31 39 31 10 0 -18 9 -34 20 -34 11 0 20 18 20 40 0 59 -64 50 -115 -15z"/>
<path d="M2300 1705 c-13 -63 -32 -136 -43 -163 -28 -71 -5 -75 31 -5 18 33
26 75 19 94 -7 18 -4 39 7 46 29 19 49 118 28 132 -11 6 -30 -40 -42 -104z"/>
<path d="M2328 1554 c-53 -82 -71 -156 -47 -194 14 -24 19 -19 20 20 1 28 7
38 13 23 7 -17 28 4 58 57 62 109 61 125 -2 40 -27 -37 -50 -55 -50 -40 0 15
14 43 32 62 17 19 28 49 25 66 -5 22 -20 11 -49 -34z"/>
<path d="M2043 1295 c-13 -13 -23 -32 -23 -44 0 -12 -13 -46 -29 -77 -16 -30
-21 -50 -12 -45 10 6 22 0 28 -14 7 -17 23 -10 52 22 63 73 49 223 -16 158z"/>
<path d="M1622 987 c22 -26 22 -35 3 -42 -44 -15 -27 -41 36 -55 110 -24 68
-81 -57 -76 -114 5 -130 -5 -55 -33 84 -32 180 -4 208 60 29 64 17 103 -26 87
-15 -6 -37 7 -49 28 -11 22 -36 45 -54 52 -29 11 -30 9 -6 -21z"/>
<path d="M3818 820 c-2 -11 -3 -33 -3 -50 0 -59 5 -70 33 -70 15 0 32 11 37
25 15 40 -5 74 -37 62 -20 -8 -25 -2 -16 21 7 17 7 32 0 32 -7 0 -13 -9 -14
-20z"/>
<path d="M4122 232 c-16 -19 -17 -33 -3 -41 12 -8 21 -4 21 8 0 11 31 21 69
21 95 0 104 29 12 35 -47 4 -85 -5 -99 -23z"/>
</g>
</svg>
