<?xml version="1.0" standalone="no"?>
<!DOCTYPE svg PUBLIC "-//W3C//DTD SVG 20010904//EN"
 "http://www.w3.org/TR/2001/REC-SVG-20010904/DTD/svg10.dtd">
<svg version="1.0" xmlns="http://www.w3.org/2000/svg"
 width="300.000000pt" height="493.000000pt" viewBox="0 0 300.000000 493.000000"
 preserveAspectRatio="xMidYMid meet">
<metadata>
Created by potrace 1.10, written by Peter Selinger 2001-2011
</metadata>
<g transform="translate(0.000000,493.000000) scale(0.050000,-0.050000)"
fill="#000000" stroke="none">
<path d="M4404 9736 c-52 -52 6 -212 68 -188 20 7 28 -5 28 -41 0 -38 -8 -48
-31 -39 -19 7 -26 3 -18 -9 7 -12 1 -37 -14 -55 -20 -24 -24 -66 -16 -144 12
-104 13 -105 16 -25 2 47 12 85 23 85 11 0 20 18 20 40 0 77 32 38 138 -170
112 -218 140 -244 178 -160 68 148 285 -63 382 -370 95 -302 140 -1612 58
-1690 -7 -7 -382 32 -766 79 -143 18 -372 45 -510 61 -137 16 -322 38 -410 49
-88 11 -265 31 -394 44 l-233 25 -21 122 c-16 90 -15 157 4 261 50 277 -2 331
-266 276 -304 -63 -446 -151 -522 -325 -24 -54 -36 -63 -78 -53 -27 6 -107 22
-176 34 -86 16 -123 31 -116 48 5 14 -2 40 -15 59 -33 44 -125 34 -117 -14 5
-30 -11 -28 -140 15 -166 56 -456 110 -456 85 0 -9 -40 -16 -89 -16 -84 0
-188 -75 -163 -117 4 -7 34 -71 67 -143 83 -180 185 -317 395 -529 99 -100
206 -212 238 -248 l57 -65 -52 -55 c-60 -62 -68 -87 -22 -70 25 10 22 -3 -11
-63 l-42 -75 51 13 c54 14 66 -5 27 -44 -46 -46 3 -47 93 -3 96 48 120 46 99
-9 -8 -21 -21 -27 -35 -15 -32 24 -146 -27 -173 -77 -18 -34 -15 -40 18 -40
35 0 31 -14 -39 -135 -80 -136 -96 -178 -59 -155 40 25 18 -12 -55 -93 -48
-54 -66 -86 -50 -92 18 -6 15 -23 -14 -64 -71 -99 -89 -168 -41 -155 40 10 40
10 -1 -48 -30 -41 -59 -58 -100 -58 -67 0 -63 -50 5 -71 23 -8 33 -19 24 -26
-10 -7 -36 -48 -57 -90 -45 -89 -78 -108 -122 -72 -61 51 -51 0 12 -55 35 -31
85 -75 110 -98 25 -24 70 -49 100 -56 29 -8 49 -19 42 -25 -17 -17 -213 58
-201 77 6 9 -4 16 -21 16 -17 0 -31 13 -31 29 0 16 -9 34 -20 41 -12 7 -14 -2
-6 -22 13 -36 -10 -35 -102 3 -26 11 -35 8 -29 -9 4 -14 17 -24 28 -22 10 1
24 -18 31 -44 6 -25 22 -44 35 -41 13 3 23 -4 23 -15 0 -11 9 -20 20 -20 11 0
20 14 20 31 0 26 7 27 55 2 30 -16 84 -34 120 -42 36 -8 65 -27 65 -42 0 -22
-11 -24 -52 -8 -29 11 -111 17 -182 14 -104 -4 -134 2 -155 30 -31 42 -63 45
-77 7 -15 -39 3 -52 69 -52 32 0 57 -8 57 -18 0 -10 23 -23 50 -30 28 -7 50
-22 50 -32 0 -11 16 -21 35 -21 19 -1 71 -18 115 -38 l80 -36 -100 -13 c-55
-7 -129 -17 -165 -21 -97 -13 -78 24 30 57 73 22 82 30 42 31 -30 0 -68 6 -84
13 -26 10 -213 -238 -213 -282 0 -29 -170 -360 -230 -447 -73 -107 -53 -148
34 -69 49 44 22 -35 -56 -169 -48 -82 -43 -111 10 -60 14 14 6 -12 -17 -58
-59 -115 -117 -399 -88 -428 17 -17 26 -1 37 59 7 45 21 86 30 92 8 5 8 -24
-2 -65 -9 -41 -17 -106 -18 -144 0 -42 -17 -86 -43 -115 l-44 -46 42 0 c24 0
48 9 55 20 23 37 45 2 59 -90 16 -106 43 -116 67 -25 l18 65 31 -74 c79 -183
166 -262 133 -120 -26 114 -22 116 38 26 54 -79 177 -176 198 -154 14 13 -31
145 -89 262 -37 72 -41 92 -17 72 40 -34 9 65 -37 118 -36 40 -62 200 -33 200
12 0 22 -12 22 -28 0 -15 15 -39 33 -55 30 -24 32 -21 19 33 -18 70 -18 68
-14 120 2 29 7 33 19 14 11 -18 23 -10 42 30 15 32 30 45 35 31 15 -39 46 -29
46 15 0 22 9 40 20 40 11 0 20 -9 20 -20 0 -36 40 -21 41 15 0 33 2 33 27 0
37 -49 52 -44 54 20 2 34 6 42 12 20 7 -26 22 -32 57 -23 31 8 49 4 49 -11 0
-13 9 -18 19 -11 11 6 26 -11 33 -39 7 -28 21 -45 32 -38 11 7 28 0 38 -15 13
-20 17 -21 18 -3 0 48 33 24 69 -50 20 -41 40 -64 45 -50 14 37 46 30 46 -10
1 -27 4 -29 18 -8 12 20 27 -2 51 -75 36 -106 70 -134 72 -57 1 37 7 33 40
-29 43 -83 79 -113 79 -68 0 127 140 -92 152 -238 3 -44 10 -121 15 -171 11
-105 7 -114 -82 -176 -85 -60 -83 -76 40 -323 l104 -210 3 -332 c2 -207 13
-349 27 -376 19 -36 16 -52 -18 -95 -23 -29 -41 -69 -41 -89 0 -52 -43 -139
-63 -126 -9 6 -17 32 -17 59 0 27 -9 49 -20 49 -25 0 -25 -13 -1 -95 21 -74 9
-87 -18 -20 -17 42 -19 42 -20 5 0 -22 -20 -52 -43 -67 -23 -14 -36 -16 -29
-4 7 11 4 21 -8 21 -11 0 -21 13 -21 28 0 34 -36 49 -86 36 -25 -6 -32 -21
-22 -51 12 -43 12 -43 -20 -3 -30 38 -31 38 -19 2 11 -32 7 -36 -22 -25 -32
12 -33 10 -10 -19 15 -18 31 -23 34 -12 8 24 85 7 85 -20 0 -10 -9 -13 -20 -6
-28 17 -25 -17 4 -46 13 -13 17 -30 9 -37 -7 -8 -27 3 -43 24 -25 34 -29 34
-29 6 -1 -23 -42 6 -126 85 -69 65 -153 139 -188 163 -35 24 -78 68 -95 97
l-32 55 75 -37 c70 -34 140 -34 85 0 -14 9 -19 25 -12 36 7 12 2 28 -11 36
-14 9 -18 6 -9 -9 17 -27 -64 -31 -105 -5 -49 31 64 130 117 102 23 -12 57
-19 76 -14 24 7 21 10 -11 12 -46 2 -60 30 -25 52 27 17 -23 68 -55 55 -14 -5
-25 1 -25 14 0 16 -11 13 -30 -6 -17 -17 -30 -44 -30 -62 0 -17 -10 -31 -21
-31 -12 0 -16 -9 -9 -20 11 -18 -20 -28 -84 -25 -17 0 -19 -10 -7 -33 21 -40
-9 -102 -50 -102 -16 0 -29 -8 -29 -18 0 -21 -38 -19 -74 4 -13 8 -29 5 -36
-6 -14 -23 -44 4 -86 78 -33 56 -20 75 22 33 32 -32 67 -9 44 29 -24 39 26 19
53 -21 26 -39 27 -38 31 30 3 56 -4 71 -31 71 -19 0 -45 10 -58 23 -17 17 -20
11 -12 -25 8 -35 5 -40 -9 -20 -19 27 -182 -74 -205 -128 -5 -11 -15 -18 -23
-15 -7 2 -12 -14 -10 -35 4 -61 81 3 83 70 1 11 19 23 41 27 38 7 39 6 5 -31
-19 -22 -30 -45 -23 -51 18 -18 69 6 57 27 -6 10 -2 18 10 18 38 0 22 -33 -40
-81 -51 -39 -56 -49 -30 -64 38 -21 71 -3 71 38 0 22 10 27 35 16 19 -8 55
-13 79 -12 60 3 72 -24 25 -53 -22 -13 -39 -16 -39 -7 0 10 -18 23 -40 29 -27
7 -40 0 -40 -20 0 -18 12 -26 29 -19 17 6 35 3 41 -7 6 -10 24 -14 39 -8 41
16 55 -24 19 -53 -26 -22 -34 -21 -49 2 -15 23 -19 21 -20 -11 -1 -31 -5 -33
-15 -10 -8 17 -32 32 -54 34 -22 3 -29 0 -15 -6 32 -15 32 -51 0 -47 -59 8
-97 -2 -84 -23 7 -12 35 -16 63 -9 32 8 45 5 36 -8 -7 -12 -1 -22 14 -22 14
-1 6 -11 -19 -23 -36 -18 -53 -15 -85 14 -23 21 -40 26 -40 13 0 -13 10 -23
21 -23 12 0 16 -9 9 -20 -7 -11 1 -20 16 -20 16 0 34 -18 40 -41 9 -32 21 -38
62 -28 40 10 52 6 52 -19 0 -18 13 -38 29 -44 16 -6 24 -22 19 -36 -10 -27 60
-118 78 -100 6 7 27 2 47 -10 34 -19 32 -21 -11 -21 -49 -1 -48 -21 1 -28 15
-2 36 -9 47 -16 71 -41 166 39 152 128 -3 23 28 18 91 -15 40 -21 46 -30 21
-30 -20 0 -31 -9 -24 -20 7 -11 3 -20 -9 -20 -11 0 -21 11 -21 24 0 18 -6 18
-22 2 -16 -16 -16 -33 -1 -59 12 -20 22 -27 22 -15 1 12 21 19 46 17 25 -2 43
-14 40 -26 -3 -13 4 -23 15 -23 11 0 20 9 20 19 0 11 13 15 30 8 16 -6 30 -3
30 8 0 12 27 11 70 -3 53 -17 67 -30 58 -57 -6 -20 -4 -34 5 -32 28 8 107 -24
107 -43 0 -9 28 -14 63 -9 68 8 112 36 47 29 -92 -10 -124 1 -75 24 51 25 59
49 16 49 -16 0 -25 -6 -20 -14 5 -8 -5 -20 -21 -26 -19 -8 -30 0 -30 23 -1 29
-3 30 -20 4 -17 -25 -22 -23 -32 13 -10 36 -72 70 -128 70 -16 0 -60 41 -60
56 0 8 27 10 60 5 33 -5 55 -16 49 -26 -10 -17 23 -26 86 -23 13 0 19 -9 12
-20 -8 -13 10 -17 49 -11 34 5 57 1 52 -8 -6 -9 -1 -16 11 -16 11 0 21 8 21
18 0 10 17 14 38 8 21 -5 55 -1 75 9 20 10 64 12 97 5 l60 -14 -55 -15 c-30
-8 -50 -23 -44 -32 6 -10 24 -12 40 -6 16 6 41 3 54 -8 14 -10 52 -17 84 -15
33 2 90 -8 126 -23 49 -21 76 -22 106 -6 36 19 39 16 29 -26 -10 -37 -4 -46
29 -46 23 0 38 10 33 22 -5 14 16 24 52 25 72 2 85 12 69 53 -9 23 -32 28 -92
21 -51 -7 -81 -2 -81 11 0 12 8 16 19 10 24 -15 117 26 190 85 45 37 62 42 70
21 6 -15 38 -27 71 -28 44 0 59 -9 57 -35 -3 -36 23 -46 42 -16 15 24 111 40
111 18 0 -10 11 -11 25 -3 40 25 74 25 69 0 -2 -13 11 -23 30 -23 19 0 46 -12
60 -26 21 -22 19 -24 -12 -12 -32 12 -37 8 -27 -28 13 -52 -127 -110 -168 -69
-35 35 0 65 75 65 63 0 67 4 48 40 -12 22 -31 40 -43 40 -14 0 -13 -10 3 -30
29 -35 13 -39 -41 -9 -23 12 -39 13 -39 2 0 -11 -20 -15 -45 -9 -36 8 -39 5
-15 -12 26 -18 25 -21 -6 -22 -41 0 -94 -45 -94 -79 0 -32 74 -25 87 9 7 16 2
30 -11 30 -12 0 -17 6 -10 13 22 22 76 -38 64 -71 -7 -17 -6 -25 1 -17 8 7 27
0 44 -17 16 -16 35 -24 42 -18 6 7 -1 21 -18 31 -26 16 66 32 127 21 10 -2 11
6 4 18 -7 11 -3 20 9 20 11 0 21 15 21 32 0 25 13 30 55 22 116 -23 131 -23
139 -1 4 13 -10 30 -33 37 -23 7 -36 23 -28 35 8 13 4 15 -13 5 -19 -12 -14
-25 22 -52 l48 -37 -75 23 c-93 28 -107 96 -20 96 38 1 47 6 28 18 -40 25 2
44 102 45 47 1 100 9 119 19 19 11 52 10 80 -1 25 -10 34 -19 19 -20 -24 -1
-24 -6 0 -34 24 -30 22 -32 -26 -21 -37 10 -60 4 -80 -21 -25 -32 -24 -33 10
-6 25 20 40 22 50 7 7 -13 37 -21 66 -19 29 2 49 10 44 18 -5 8 22 15 60 15
64 0 108 38 78 68 -19 20 -68 13 -55 -7 7 -12 -13 -11 -49 2 -96 33 -73 40 94
26 85 -7 179 -12 207 -11 29 1 83 -11 121 -26 72 -30 225 -32 251 -3 9 10 5
11 -9 3 -14 -8 -25 -4 -25 9 0 17 26 21 81 13 67 -9 80 -5 71 19 -7 17 -3 24
10 16 11 -7 16 -26 9 -43 -6 -16 4 -44 23 -62 32 -32 33 -32 20 2 -10 28 0 38
46 47 33 7 60 20 60 31 0 10 -9 13 -21 5 -11 -7 -34 -1 -50 12 -25 21 -22 28
24 52 29 15 58 23 63 17 6 -5 23 8 38 30 16 22 44 40 62 40 19 0 25 7 14 15
-28 21 -35 80 -11 95 12 7 16 -1 8 -20 -11 -29 51 -34 113 -9 6 2 26 2 45 0
19 -2 35 8 35 21 0 14 -6 19 -13 12 -20 -20 -69 27 -54 51 8 12 3 15 -10 7
-13 -8 -23 -4 -23 8 0 12 -10 16 -23 8 -15 -9 -12 -19 11 -32 18 -10 27 -28
20 -39 -7 -11 -24 -2 -41 22 -16 22 -25 48 -19 57 5 9 1 29 -9 45 -15 24 -21
20 -31 -16 -16 -58 -48 -59 -37 -1 4 23 -2 55 -14 70 -16 19 -15 34 3 57 32
38 100 -13 100 -75 0 -21 9 -33 20 -26 12 7 15 23 7 34 -8 13 -4 16 10 8 13
-8 23 -5 23 7 0 11 -10 21 -21 21 -12 0 -16 9 -9 20 7 11 -6 20 -28 20 -22 0
-46 10 -53 21 -7 12 -25 17 -40 12 -40 -16 -84 45 -48 67 42 26 9 47 -37 22
-21 -11 -42 -19 -47 -16 -4 2 4 -6 19 -19 18 -16 19 -27 5 -36 -11 -7 -21 -24
-21 -37 0 -14 8 -12 20 6 20 31 21 27 30 -59 3 -27 15 -53 27 -57 13 -4 23
-20 23 -35 0 -18 -13 -23 -35 -15 -29 10 -30 7 -10 -15 14 -15 25 -34 25 -43
0 -21 -106 4 -122 29 -7 10 -18 3 -26 -16 -7 -19 -19 -29 -26 -22 -7 7 4 31
24 53 67 74 7 94 -98 32 -119 -69 -125 -84 -30 -75 118 11 94 -30 -26 -44
-120 -14 -134 -7 -98 51 24 38 22 41 -17 30 -36 -9 -59 11 -131 113 -48 67
-111 151 -139 186 -28 34 -51 76 -51 92 0 39 -57 176 -89 215 -104 128 -169
598 -125 900 l16 110 -96 70 c-174 127 -355 565 -350 850 1 44 -12 192 -28
328 -29 243 -28 260 24 421 6 18 34 -9 79 -74 65 -98 219 -225 270 -225 41 0
9 169 -58 305 -133 270 -17 509 254 524 297 16 780 418 988 821 l61 120 28
-60 c25 -55 27 -49 16 85 -7 85 -5 145 6 145 10 0 30 41 44 90 14 50 33 90 43
90 23 0 22 -7 -16 -100 -17 -45 -28 -86 -22 -91 11 -11 119 246 233 551 56
152 88 212 115 217 64 12 126 127 127 235 0 39 11 42 118 40 175 -3 198 58 30
80 -43 6 -116 20 -163 32 l-85 21 9 373 c5 215 2 342 -7 302 l-17 -70 -2 81
c-2 45 -13 91 -25 103 -15 15 -12 39 11 84 40 77 56 80 39 7 -8 -30 -7 -49 1
-42 8 8 22 44 30 80 9 37 23 85 30 107 13 36 11 36 -26 -5 -56 -63 -63 -58
-63 50 0 603 -304 1205 -570 1128 -33 -9 -72 -13 -86 -8 -42 14 -163 277 -197
427 -39 174 -86 231 -143 174z m-1719 -1955 c-100 -72 -171 -164 -217 -281
-19 -49 -43 -95 -53 -102 -9 -6 15 -33 54 -60 70 -48 107 -98 72 -98 -10 0
-24 9 -31 20 -7 11 -32 30 -56 42 -42 21 -42 21 -11 -12 27 -28 29 -43 12 -71
-20 -32 -27 -24 -54 56 -29 87 -37 94 -147 131 -144 47 -137 68 8 25 137 -40
132 -41 170 32 l32 63 -62 -13 c-38 -7 -62 -4 -62 9 0 11 -24 18 -53 14 -30
-3 -57 4 -61 17 -9 27 83 53 132 38 48 -16 122 42 85 66 -20 13 -17 20 15 28
57 15 54 54 -3 43 -41 -8 -40 -7 5 14 28 12 75 35 105 51 30 16 63 24 74 18
10 -6 24 -3 31 9 7 11 31 20 54 20 34 0 26 -12 -39 -59z m173 -96 c-26 -30
-68 -76 -93 -102 -47 -50 -42 -102 6 -62 45 37 63 -73 19 -121 -37 -41 -23
-89 22 -72 19 7 28 -5 28 -39 0 -51 -64 -71 -90 -29 -7 12 -20 16 -30 10 -9
-5 -11 9 -5 32 6 25 -1 49 -17 60 -38 24 -118 23 -118 -2 0 -11 -20 -20 -45
-19 -38 0 -40 3 -13 19 19 11 30 39 27 69 -5 43 5 52 64 63 39 7 75 26 81 42
11 28 187 205 204 206 5 0 -13 -25 -40 -55z m-1383 -85 c13 0 35 -17 48 -38
19 -30 34 -34 71 -21 27 11 46 11 46 0 0 -10 5 -32 12 -50 10 -25 -1 -30 -60
-26 -39 3 -72 12 -72 20 0 27 -163 117 -196 109 -22 -6 3 -25 71 -55 58 -26
105 -54 105 -63 0 -9 -37 2 -83 25 -88 46 -178 42 -248 -10 -50 -36 -26 -61
29 -32 24 13 42 14 42 3 0 -10 -11 -23 -25 -27 -14 -5 0 -9 32 -10 31 0 66
-10 78 -22 17 -17 9 -23 -30 -23 -29 0 -58 -9 -65 -20 -26 -42 -170 -17 -170
29 0 47 80 128 140 141 82 18 75 60 -20 120 -113 71 -103 72 95 7 96 -31 186
-57 200 -57z m-511 -24 l-40 -63 2 73 c1 48 12 75 33 79 47 10 49 -19 5 -89z
m104 39 c-9 -25 -20 -80 -27 -123 -6 -43 -22 -82 -36 -87 -36 -12 -32 115 6
192 37 73 79 86 57 18z m906 -217 c31 0 44 -6 30 -11 -26 -11 -224 30 -224 46
0 47 51 54 92 13 26 -25 71 -47 102 -48z m46 72 c36 -44 17 -53 -44 -21 -29
15 -58 22 -65 16 -6 -7 -11 -1 -11 12 0 34 91 28 120 -7z m225 -82 c97 -33
190 -181 142 -229 -11 -11 -29 16 -46 74 -23 79 -39 97 -114 130 -48 22 -87
43 -87 48 0 13 3 12 105 -23z m-39 -58 c84 -35 134 -99 134 -169 0 -46 -5 -43
-50 31 -28 47 -76 94 -110 108 -62 25 -98 60 -64 60 11 0 51 -13 90 -30z
m-465 -98 c21 -54 33 -105 28 -113 -12 -19 29 -52 99 -78 52 -20 56 -18 46 19
-6 23 -2 35 9 28 12 -7 11 3 -1 25 -36 63 -83 193 -74 202 25 25 172 -85 172
-129 0 -54 -33 -62 -46 -11 -5 19 -10 -8 -12 -61 -1 -60 11 -115 33 -150 l35
-54 -58 45 c-31 25 -76 45 -98 45 -23 0 -64 20 -91 45 -27 25 -42 32 -33 15
35 -64 74 -95 109 -86 45 12 76 -32 39 -56 -45 -28 -171 -21 -198 12 -14 17
-17 30 -8 30 9 0 5 11 -8 24 -13 13 -24 38 -24 54 0 20 12 14 34 -19 60 -87
115 -102 59 -16 -16 27 -27 79 -23 121 4 44 -4 83 -20 96 -34 29 -57 -6 -40
-60 17 -54 10 -52 -124 38 -116 78 -154 89 -106 32 17 -20 18 -30 2 -30 -12 0
-22 -11 -23 -25 0 -14 -17 -60 -37 -102 -46 -99 -75 -61 -31 41 43 100 53 161
31 175 -10 6 -23 -11 -30 -39 -12 -49 -85 -130 -116 -130 -9 0 -4 20 12 45 16
25 32 68 35 95 8 58 82 76 294 72 l127 -2 37 -98z m-491 30 c-7 -23 -26 -42
-43 -42 -16 0 -24 -9 -17 -20 7 -11 3 -20 -9 -20 -32 0 -25 40 9 53 17 6 30
19 30 29 0 9 -13 12 -30 5 -17 -6 -30 0 -30 13 0 15 16 20 40 14 22 -6 40 -1
40 11 0 12 5 16 12 10 6 -7 6 -31 -2 -53z m965 -28 c35 -24 69 -55 74 -69 19
-49 -41 -22 -129 59 -92 84 -62 89 55 10z m324 -13 c19 -12 35 -11 43 3 8 13
36 16 68 8 30 -8 49 -19 43 -26 -18 -18 27 -66 61 -66 20 0 25 13 16 40 -10
31 -4 40 30 40 31 0 40 -9 32 -35 -5 -19 -14 -57 -20 -85 -27 -138 -35 -158
-71 -170 -22 -7 -75 5 -120 27 -95 46 -95 50 -32 -128 42 -122 48 -131 50 -71
0 38 7 63 14 55 7 -7 26 5 41 27 16 22 41 40 56 40 15 0 46 24 69 53 28 36 41
43 41 21 0 -39 -53 -94 -91 -94 -110 0 -114 -450 -4 -545 32 -29 35 -41 15
-65 -14 -17 -16 -30 -5 -30 12 0 26 15 33 32 11 27 19 24 54 -20 37 -47 38
-59 15 -112 -23 -50 -29 -54 -41 -25 -12 26 -14 23 -11 -15 4 -41 14 -49 55
-43 77 10 92 35 65 107 -27 70 -19 100 11 43 61 -116 51 -162 -36 -177 -67
-11 -80 -20 -69 -47 8 -18 43 -132 80 -253 240 -805 323 -1060 344 -1060 12 0
35 -12 49 -28 22 -23 19 -26 -19 -17 -25 6 -45 4 -45 -5 0 -37 66 -80 123 -80
46 0 58 -8 53 -35 -9 -45 -96 -52 -96 -7 -1 26 -4 27 -18 4 -21 -32 -6 -87 19
-72 9 6 22 1 30 -11 9 -14 34 -2 71 33 84 80 72 34 -14 -54 l-71 -73 46 -44
c31 -29 65 -41 101 -36 60 9 79 -18 62 -83 -10 -41 -11 -41 -48 6 -21 26 -60
53 -88 60 -27 7 -50 22 -50 32 0 61 -37 4 -58 -89 -40 -177 -158 -312 -179
-204 -8 46 25 83 57 63 18 -11 18 -19 -2 -31 -15 -9 -21 -23 -13 -30 7 -8 31
16 53 53 23 37 33 71 24 77 -40 27 -43 201 -3 201 26 0 41 -18 48 -55 5 -30 8
3 5 74 -3 77 -15 132 -29 137 -13 4 -18 16 -12 26 26 41 -113 240 -295 423
-131 131 -182 195 -158 195 21 0 65 6 99 12 66 14 145 -99 111 -156 -9 -13 -5
-17 9 -8 13 8 23 4 23 -8 0 -12 36 -77 80 -145 44 -68 80 -117 80 -109 0 8
-44 151 -98 319 -54 168 -118 373 -143 455 -35 118 -48 142 -60 110 -9 -22
-17 -29 -18 -16 0 13 -44 49 -96 79 -205 117 -485 311 -485 336 0 15 16 46 35
70 l36 44 179 -119 c215 -144 319 -246 305 -299 -6 -24 1 -38 18 -38 31 0 29
8 -38 228 -25 80 -50 145 -57 145 -18 0 -8 -66 18 -114 20 -35 0 -27 -94 38
-119 82 -119 82 -87 134 l32 52 -57 -53 c-52 -50 -59 -52 -101 -24 l-46 29 44
68 c55 88 64 87 182 -20 119 -108 122 -106 80 42 -32 110 -35 113 -56 66 l-23
-50 -169 116 c-150 103 -169 133 -76 118 8 -1 15 6 15 16 0 36 100 35 162 -2
73 -45 87 -39 60 26 -22 53 -127 400 -162 533 -50 195 -75 47 -30 -175 9 -43
8 -45 -8 -10 -15 31 -19 33 -21 8 0 -18 -6 -60 -13 -93 -11 -56 -9 -60 40 -50
29 5 52 1 52 -10 0 -28 -97 -44 -106 -18 -10 32 -89 -145 -114 -256 -12 -55
-40 -128 -62 -163 -42 -69 -72 -259 -38 -238 11 7 20 46 21 86 0 41 12 95 26
120 l25 46 39 -45 c22 -24 28 -38 15 -30 -13 7 -29 5 -35 -5 -7 -11 10 -16 40
-10 75 13 37 -46 -105 -166 -63 -53 -157 -135 -210 -184 -53 -48 -97 -77 -98
-65 -5 40 -9 52 -32 94 -21 37 -10 53 100 148 105 90 125 101 131 69 14 -79
33 -63 37 31 2 53 22 134 45 178 41 82 112 345 84 311 -9 -10 -41 -94 -72
-188 -81 -243 -87 -253 -122 -207 -35 47 -37 79 -3 50 36 -29 81 111 175 535
20 91 11 137 -14 70 -8 -21 -33 -69 -57 -108 -57 -93 -97 -244 -81 -303 11
-36 9 -40 -7 -17 -16 23 -21 10 -22 -56 0 -48 -8 -82 -17 -76 -9 6 -28 -26
-42 -72 -16 -55 -30 -74 -41 -57 -11 19 -26 11 -53 -31 -91 -140 -151 -148
-118 -16 27 111 111 193 111 110 0 -73 74 -25 99 65 38 135 56 233 42 223 -8
-4 -25 -57 -38 -116 -14 -60 -38 -126 -55 -146 -29 -36 -30 -34 -17 22 7 33
16 78 19 100 12 75 60 180 166 360 58 99 115 214 128 255 12 41 35 75 50 75
16 0 23 -8 17 -19 -6 -10 -3 -24 9 -31 11 -7 20 -2 20 10 0 12 8 17 18 11 10
-6 22 14 28 44 23 114 50 194 52 155 3 -49 162 -188 162 -141 0 17 -9 31 -20
31 -26 0 -105 91 -124 142 -16 42 -2 48 43 19z m-420 -106 c27 -47 50 -94 51
-105 1 -11 14 -17 29 -14 20 4 18 -8 -8 -47 -20 -30 -31 -75 -25 -103 8 -42 5
-46 -18 -22 -15 15 -37 76 -48 137 -35 187 -37 199 -50 219 -7 11 -5 20 4 20
9 0 38 -38 65 -85z m1341 16 c226 -28 487 -59 580 -70 805 -93 1170 -142 1176
-159 4 -11 20 -15 35 -9 43 17 35 -28 -10 -52 -59 -32 -81 -25 -82 24 0 39 -3
41 -20 11 -54 -92 -115 -97 -589 -50 -325 32 -349 33 -420 4 -22 -9 -68 -27
-103 -41 -62 -25 -627 -18 -627 8 0 6 20 31 43 57 24 25 34 46 22 46 -13 0
-28 -9 -35 -20 -7 -11 -22 -20 -34 -20 -12 0 -6 17 13 39 20 22 35 70 35 111
0 84 -18 113 -35 58 -38 -114 -58 -149 -104 -180 -48 -31 -50 -31 -38 1 35 92
38 144 5 101 -61 -80 -74 -90 -119 -90 -25 0 -55 -10 -67 -22 -15 -15 -33 -14
-63 5 -33 20 -47 21 -67 1 -13 -13 -42 -23 -65 -23 l-41 2 41 16 c90 37 114
153 58 288 -13 33 -8 36 43 26 32 -7 243 -35 468 -62z m-1891 -27 c-5 -63 -35
-138 -78 -193 -44 -54 -61 -25 -21 36 18 28 29 59 23 69 -6 9 -1 50 11 89 25
82 72 82 65 -1z m-116 -51 c-7 -23 -28 -53 -49 -66 -37 -23 -37 -22 -1 49 20
40 38 86 39 103 2 22 5 20 12 -6 5 -20 5 -56 -1 -80z m251 -143 c32 -27 74
-50 93 -50 28 -1 29 -3 3 -20 -24 -15 -19 -19 22 -20 28 0 68 -18 88 -40 54
-59 88 -51 77 18 -5 32 1 64 12 71 12 8 21 -2 21 -21 0 -19 23 -64 51 -101 60
-79 51 -114 -23 -86 -28 10 -71 19 -97 19 -25 0 -57 13 -70 29 -13 16 -44 32
-67 35 -24 4 -43 16 -41 26 2 11 -24 21 -58 22 -39 2 -74 20 -96 50 -46 61
-32 76 25 26 l44 -38 -34 54 c-58 92 -40 102 50 26z m3672 15 c-8 -43 -76 -60
-76 -18 0 27 26 48 66 51 10 1 14 -14 10 -33z m-3396 -34 c0 -14 -20 -32 -45
-38 -78 -21 -85 -14 -35 34 51 49 80 51 80 4z m971 -103 c-19 -29 -27 -48 -18
-43 9 6 35 3 57 -5 23 -9 71 -2 115 15 41 16 88 24 104 18 16 -6 35 -2 42 8 6
11 20 14 31 8 35 -22 -3 -47 -92 -60 -105 -16 -121 -49 -24 -49 106 0 156 -68
56 -76 -38 -3 -79 13 -117 45 -65 54 -85 49 -85 -22 0 -34 -8 -43 -32 -33 -28
10 -29 6 -10 -31 29 -53 45 -54 78 -3 30 49 112 37 174 -25 l40 -40 -75 11
c-78 12 -92 -1 -51 -42 13 -13 17 -24 9 -24 -36 0 -165 65 -198 101 -30 32
-89 48 -155 43 -6 -1 -33 16 -60 37 l-50 38 53 1 c59 0 167 108 144 145 -7 12
-4 15 8 8 11 -7 32 1 46 18 40 48 48 15 10 -43z m1321 -22 c-7 -61 -40 -61
-48 0 -4 31 4 47 23 47 19 0 28 -16 25 -47z m84 7 c5 -22 -7 -33 -35 -33 -22
0 -41 9 -41 20 0 11 16 20 35 20 30 1 31 4 5 22 -27 19 -27 20 0 13 17 -5 33
-23 36 -42z m1103 18 c-43 -42 -147 -65 -135 -29 8 25 71 52 135 56 26 2 26
-1 0 -27z m-3722 -52 c3 -11 24 -19 46 -19 22 0 34 -9 27 -21 -7 -11 15 -30
48 -41 34 -12 62 -29 62 -37 0 -9 29 -30 65 -48 58 -29 60 -32 18 -33 -26 0
-69 18 -97 39 -46 37 -53 37 -82 8 -39 -39 -149 -87 -198 -87 -30 1 -31 4 -7
19 55 35 5 45 -52 10 -45 -26 -42 -19 18 34 81 72 99 111 36 78 -54 -30 -70
-26 -41 9 14 17 53 39 88 50 59 19 57 19 -23 12 -96 -9 -98 -8 -52 38 34 34
130 26 144 -11z m2859 14 c13 -9 24 -5 24 7 0 13 11 16 25 7 14 -9 91 -18 173
-21 81 -2 153 -10 160 -18 8 -9 -514 1 -593 11 -3 1 -5 8 -5 16 0 19 184 17
216 -2z m-1074 -28 c1 20 3 20 12 -1 7 -20 16 -20 38 -2 21 17 28 17 28 0 0
-15 26 -18 77 -10 73 11 139 -62 95 -106 -16 -17 -93 16 -81 35 6 11 2 19 -10
19 -11 0 -21 -13 -21 -30 0 -16 -13 -30 -29 -30 -16 0 -39 -18 -51 -40 -12
-22 -30 -40 -41 -40 -13 0 -13 13 0 39 12 21 20 55 19 75 0 20 -6 25 -11 12
-7 -18 -28 -12 -73 19 -35 25 -67 47 -71 49 -4 2 -1 13 7 26 10 16 28 13 62
-9 36 -24 48 -26 50 -6z m658 14 c0 -12 -11 -15 -23 -7 -16 10 -20 4 -11 -20
8 -20 5 -29 -6 -22 -10 6 -32 -19 -47 -57 -16 -37 -40 -75 -53 -83 -14 -8 -10
11 9 48 17 34 40 84 51 112 19 49 80 71 80 29z m-801 -47 c37 -45 -10 -58 -78
-22 -34 17 -61 35 -61 41 0 22 117 6 139 -19z m477 -38 c5 -42 0 -51 -25 -42
-37 15 -43 115 -6 103 14 -4 28 -32 31 -61z m90 -46 c-38 -112 -46 -111 -46
10 0 87 4 97 38 88 36 -9 37 -14 8 -98z m1503 94 c12 -19 -66 -40 -105 -27
-13 5 -19 17 -13 27 15 23 103 24 118 0z m-1109 -52 c0 -27 9 -50 20 -50 11 0
20 23 20 50 0 28 9 50 20 50 11 0 20 -17 20 -39 0 -21 9 -44 20 -51 11 -7 20
6 20 29 0 22 9 41 20 41 11 0 20 -13 20 -30 0 -16 8 -30 18 -30 10 0 33 -5 50
-12 23 -9 32 0 32 32 0 56 46 42 50 -16 3 -42 -4 -44 -185 -44 -178 0 -187 -2
-175 -40 10 -30 5 -37 -19 -28 -41 16 -40 88 1 88 24 0 29 12 20 50 -9 37 -5
50 18 50 19 0 30 -19 30 -50z m-1740 -45 c0 -41 -96 -131 -127 -119 -43 17
-43 54 0 54 19 0 28 6 20 13 -7 7 7 25 32 38 54 30 75 34 75 14z m826 -40 c40
-44 16 -91 -38 -74 -120 39 -158 78 -93 95 69 18 99 13 131 -21z m-1535 -13
c30 -31 -11 -71 -104 -100 -24 -7 -54 -27 -68 -43 -13 -16 -51 -29 -85 -29
-57 0 -58 2 -27 37 18 20 27 42 20 50 -8 7 -5 13 6 13 10 0 28 -9 39 -20 12
-12 47 5 99 50 92 81 84 78 120 42z m1005 -61 c14 -14 27 -46 29 -73 3 -71 39
-113 56 -65 11 32 19 30 76 -27 82 -82 81 -122 -2 -62 -36 25 -75 43 -87 41
-13 -3 -46 25 -75 63 -59 77 -69 110 -23 72 17 -14 30 -16 30 -5 0 11 -27 31
-60 45 -34 14 -66 33 -72 43 -16 26 96 -2 128 -32z m2244 -1 c0 -155 -270
-807 -448 -1079 -229 -352 -792 -772 -792 -591 0 63 -25 50 -189 -105 -153
-143 -231 -204 -203 -158 9 15 -5 23 -42 23 -69 0 -262 306 -223 353 11 14 18
71 14 125 l-7 100 51 -49 c72 -69 84 -61 41 26 -42 84 -69 205 -46 205 8 0 26
-29 39 -64 37 -96 49 -56 26 85 -23 148 -15 170 28 76 l31 -67 -12 80 c-30
189 -29 285 2 230 37 -65 38 -27 1 77 -32 90 -26 101 25 50 51 -51 54 2 6 113
-60 140 -58 175 10 131 64 -42 82 -30 28 19 -22 20 -40 62 -40 93 0 66 12 70
64 24 72 -66 55 -11 -25 80 l-82 93 71 0 c52 0 68 7 60 28 -13 34 227 68 452
65 139 -3 150 -6 156 -47 l7 -45 80 51 c89 56 112 53 78 -10 -29 -54 -3 -53
81 4 123 83 124 83 109 37 -18 -57 -5 -54 100 18 67 46 89 53 89 30 0 -36 31
-41 51 -10 48 78 409 86 409 9z m-3171 -35 c-71 -84 -197 -159 -254 -151 -38
5 -27 18 71 86 216 148 269 167 183 65z m1085 -24 c40 -36 62 -44 88 -30 41
22 222 -38 212 -70 -12 -35 -90 -36 -157 -2 -35 17 -72 31 -82 31 -38 0 -152
64 -163 92 -17 45 44 33 102 -21z m361 4 c41 -32 8 -53 -55 -35 -87 25 -109
42 -80 60 28 17 98 4 135 -25z m-1509 -137 c-13 -13 -19 -34 -13 -48 9 -25
-100 -130 -135 -130 -26 0 37 145 76 175 44 32 104 35 72 3z m544 -40 l93 -63
-45 -48 -46 -48 -66 65 c-68 66 -82 96 -45 96 12 0 16 -9 9 -20 -7 -11 -3 -20
9 -20 28 0 27 46 -3 76 -43 43 0 25 94 -38z m882 -20 c38 -31 35 -53 -7 -63
-19 -5 -60 15 -90 42 -30 28 -55 39 -55 26 0 -14 -9 -20 -20 -13 -11 7 -20 21
-20 32 0 11 9 15 20 8 11 -7 20 -3 20 7 0 24 110 -4 152 -39z m-1621 -9 c-40
-41 -41 -62 -1 -29 26 22 29 20 17 -12 -23 -65 -88 -147 -133 -171 l-44 -22
44 48 c46 50 35 117 -15 86 -14 -8 -9 8 13 36 35 49 96 90 134 94 9 0 3 -13
-15 -30z m1357 -55 c11 -18 14 -38 7 -46 -17 -16 -70 25 -97 75 -25 47 59 20
90 -29z m19 -123 c19 -50 -89 -176 -118 -137 -28 39 -19 78 23 94 15 6 28 29
28 51 0 43 49 38 67 -8z m-1296 -26 c-2 -97 -110 -255 -141 -205 -21 34 30
218 67 240 55 32 74 23 74 -35z m1445 -185 c0 -73 -3 -81 -16 -40 -9 28 -16
91 -16 140 0 73 3 81 16 40 9 -27 16 -90 16 -140z m-1379 -35 c14 -52 35 -112
46 -132 11 -20 12 -32 3 -26 -10 5 -16 -45 -13 -113 3 -68 6 -160 6 -204 l1
-80 85 -4 c47 -2 193 -12 325 -22 175 -13 272 -11 360 7 66 13 130 20 143 15
12 -5 29 1 36 13 7 11 31 21 54 21 52 0 43 -77 -13 -108 -21 -12 -48 -33 -60
-47 -53 -67 -170 -55 -173 17 -2 56 -4 59 -12 18 -14 -75 -32 -79 -304 -69
l-251 10 154 -76 c154 -75 154 -75 155 -155 l0 -80 -41 65 c-43 66 -86 90 -65
35 22 -59 -28 -28 -120 73 -51 56 -93 115 -93 130 0 15 -9 27 -20 27 -11 0
-20 16 -20 35 -1 30 -4 31 -22 5 -17 -24 -20 -22 -12 14 16 72 -32 34 -138
-107 -151 -203 -209 -326 -143 -301 14 5 23 19 20 32 -3 12 9 22 27 22 24 0
30 -19 26 -85 -7 -117 -13 -122 -70 -61 -49 53 -50 53 -61 10 -7 -24 -19 -44
-29 -44 -24 0 -6 160 20 186 32 32 27 54 -13 54 -27 1 -25 6 11 25 54 29 185
216 170 242 -6 9 -18 6 -26 -7 -9 -14 -27 -18 -40 -10 -14 8 -32 3 -41 -12
-14 -22 -22 -23 -42 -3 -35 35 -48 31 -52 -15 -1 -22 6 -40 17 -40 11 0 15 9
8 20 -21 35 24 22 52 -15 15 -19 19 -29 11 -22 -21 18 -133 -21 -133 -46 0
-34 -116 48 -138 98 -19 39 -14 62 29 135 29 49 53 120 55 159 2 39 13 71 25
71 11 0 22 41 24 90 4 93 56 198 87 179 10 -6 18 -2 18 9 0 24 118 162 138
162 7 0 25 -43 39 -95z m474 77 c-6 -9 3 -29 20 -43 44 -36 -235 -293 -374
-344 -39 -15 -67 106 -30 128 13 8 100 72 193 144 160 122 217 156 191 115z
m658 -74 c-30 -96 -34 -97 -61 -8 -15 50 -28 92 -28 95 0 3 22 -8 49 -26 27
-18 45 -45 40 -61z m183 75 c-6 -9 -2 -47 8 -85 27 -98 -2 -382 -40 -394 -16
-5 -24 -3 -16 6 8 8 0 28 -16 45 -23 23 -25 35 -7 46 17 10 13 20 -12 35 -35
19 -35 22 -2 73 19 29 41 48 49 44 8 -5 16 38 18 94 3 88 0 98 -22 68 -23 -31
-26 -28 -28 25 -1 47 7 60 39 60 21 0 35 -8 29 -17z m-1574 -114 c-15 -51 -37
-100 -49 -110 -31 -26 -32 64 0 100 14 17 33 52 40 78 8 25 19 41 25 35 6 -5
-1 -52 -16 -103z m-58 44 c0 -15 -22 -53 -50 -85 -60 -69 -65 -44 -10 47 42
70 60 81 60 38z m1075 -138 c144 -75 190 -111 96 -75 -27 10 -85 37 -128 59
-85 43 -103 32 -103 -61 0 -21 -9 -38 -20 -38 -11 0 -20 26 -20 57 0 83 -15
86 -124 31 -55 -28 -104 -47 -109 -42 -10 10 237 155 253 148 6 -2 75 -38 155
-79z m-1143 -105 c-17 -92 -52 -154 -52 -92 0 10 -5 31 -10 45 -8 23 56 157
76 157 3 0 -3 -49 -14 -110z m894 57 c-13 -5 -19 -21 -14 -36 10 -26 -47 -50
-122 -51 -29 0 -18 14 40 49 44 28 89 49 100 49 11 -1 9 -6 -4 -11z m243 -21
c39 -18 71 -44 71 -57 0 -13 27 -29 59 -36 148 -29 78 -193 -81 -193 -43 0
-78 -8 -78 -19 0 -27 -267 -21 -285 6 -8 13 -15 55 -15 94 l0 70 -120 -11
c-90 -9 -120 -5 -120 14 0 19 37 26 130 26 73 0 130 9 130 20 0 11 60 20 140
20 80 0 140 -9 140 -20 0 -11 18 -20 40 -20 67 0 45 37 -30 51 -51 10 -70 24
-70 51 0 46 1 46 89 4z m653 -187 c-18 -46 -20 -45 -20 21 -2 110 26 192 34
99 3 -39 -3 -93 -14 -120z m-1843 -56 c1 -71 -4 -84 -26 -66 -33 28 -53 10
-53 -49 0 -25 -9 -51 -20 -58 -26 -16 -24 51 7 196 14 64 31 109 39 102 8 -8
15 -2 15 14 4 64 36 -58 38 -139z m1504 59 c7 -71 3 -80 -43 -86 -47 -7 -50
-2 -50 78 0 123 82 130 93 8z m-795 -27 l-9 -45 20 45 c13 30 37 45 72 45 30
0 46 -9 39 -20 -7 -12 -21 -15 -31 -9 -11 6 -19 -2 -19 -19 0 -20 11 -26 32
-19 24 10 30 2 25 -34 -7 -44 -14 -46 -147 -41 -148 5 -202 31 -170 82 17 26
19 25 20 -3 0 -34 110 -73 135 -49 6 7 -3 12 -22 12 -18 0 -33 4 -33 8 0 5 -6
25 -13 44 -11 27 -6 32 19 22 18 -7 38 -4 45 7 22 36 45 19 37 -26z m-872
-133 c-11 -44 -43 -100 -71 -125 l-51 -47 53 92 c29 50 48 97 41 103 -15 15 8
55 31 55 9 0 8 -35 -3 -78z m796 -179 c-6 -9 2 -34 18 -55 16 -21 29 -58 29
-82 1 -25 24 -96 51 -158 28 -62 50 -124 50 -138 0 -13 27 -58 60 -100 33 -42
60 -86 61 -98 0 -12 18 -58 39 -102 58 -121 53 -156 -20 -140 -42 9 -60 6 -60
-12 0 -49 -40 12 -44 68 -3 30 -11 54 -18 54 -7 0 -18 36 -23 79 -6 44 -30
106 -54 140 -43 60 -84 222 -82 326 1 30 -12 87 -29 127 -38 92 -38 108 1 108
17 0 27 -8 21 -17z m-835 -65 c51 -22 107 -33 135 -26 63 16 61 -2 -10 -83
-47 -53 -61 -93 -73 -197 -14 -134 -49 -164 -49 -44 0 56 -11 71 -65 95 -65
29 -59 33 15 10 33 -10 48 4 82 77 l41 89 -126 60 c-197 92 -155 108 50 19z
m1423 -39 c-39 -32 -81 -58 -95 -58 -29 -1 -33 -265 -5 -331 15 -36 17 -34 19
13 2 81 76 239 145 311 113 117 117 55 14 -221 -32 -86 -57 -171 -56 -190 0
-18 13 -1 28 37 38 97 37 29 -1 -98 -18 -58 -27 -117 -22 -131 18 -49 -20 -81
-55 -46 -34 34 -26 81 21 137 49 57 14 157 -45 130 -30 -14 -48 -39 -48 -68 0
-26 7 -42 15 -37 8 5 12 -33 8 -85 -7 -107 3 -119 149 -190 l96 -47 47 223
c68 324 71 361 15 182 -28 -88 -46 -129 -40 -92 59 386 79 481 96 451 10 -18
14 -59 9 -91 -10 -71 16 -77 33 -7 7 28 21 46 31 39 11 -6 6 -41 -10 -80 -32
-76 -102 -362 -128 -520 -23 -135 65 -227 163 -172 31 18 56 44 56 58 0 20
-10 19 -44 -5 -25 -17 -59 -31 -75 -31 -17 1 13 28 66 62 98 61 140 65 93 8
-21 -25 -19 -30 8 -30 31 0 31 -5 -1 -65 -30 -59 -34 -61 -49 -25 -14 38 -19
36 -25 -8 -2 -10 -10 -25 -18 -34 -23 -22 -18 -49 7 -43 13 3 27 -4 31 -16 4
-12 -25 -23 -68 -26 -70 -5 -72 -3 -35 24 48 36 -29 121 -101 112 -17 -3 -235
122 -277 158 -36 32 -37 27 -24 -184 10 -171 8 -215 -12 -208 -18 6 -25 48
-22 137 3 92 -1 114 -13 78 -9 -27 -18 -43 -19 -34 -66 523 -92 994 -55 994
16 0 77 22 135 49 129 60 152 48 58 -30z m-601 -106 c1 -29 -5 -33 -26 -16
-32 27 -39 -32 -8 -72 13 -17 13 -25 -1 -25 -14 0 -11 -20 6 -54 33 -62 22
-88 -18 -45 -50 54 -96 236 -52 209 11 -7 21 -3 23 9 1 11 4 30 7 41 3 11 6
36 8 55 4 46 60 -47 61 -102z m801 -85 c-34 -222 -83 -428 -101 -428 -9 0 -13
16 -8 35 4 19 21 87 37 151 16 63 35 183 43 266 8 92 21 144 32 133 12 -12 10
-73 -3 -157z m-1311 99 c29 -20 32 -27 10 -27 -17 0 -50 14 -75 31 -37 26 -44
27 -44 3 0 -33 94 -57 157 -41 24 7 43 5 43 -3 0 -15 -44 -174 -51 -185 -1 -3
-31 6 -66 21 -35 15 -59 32 -52 38 6 6 -21 17 -60 25 -39 7 -71 21 -71 30 0
10 20 13 45 9 45 -9 45 -9 -1 11 -48 21 -45 37 14 102 34 37 84 33 151 -14z
m658 -33 c15 -35 73 -122 130 -192 101 -126 120 -162 86 -162 -65 0 -180 173
-265 396 -27 71 18 33 49 -42z m-327 -139 c0 -25 23 -94 51 -153 61 -131 53
-187 -9 -66 -48 95 -87 264 -59 264 9 0 17 -20 17 -45z m80 -30 c13 -41 73
-203 134 -360 l111 -286 125 69 124 68 -6 -58 c-4 -32 -22 -86 -39 -120 -18
-34 -28 -66 -22 -72 5 -5 20 10 33 34 13 24 28 39 34 33 6 -6 -7 -36 -29 -67
-22 -31 -52 -90 -66 -131 -15 -41 -35 -75 -44 -75 -10 0 -12 9 -5 20 7 11 7
29 -1 41 -23 37 -69 -22 -69 -88 0 -35 -8 -75 -17 -89 -10 -16 -16 25 -15 100
1 71 13 138 27 152 14 15 25 37 25 50 1 13 41 67 90 119 49 52 82 95 73 95 -8
0 -46 -32 -84 -71 -43 -45 -82 -68 -104 -62 -19 5 -43 -5 -52 -21 -15 -27 -31
-28 -125 -5 -118 29 -171 59 -103 59 67 0 70 33 5 60 -57 24 -65 74 -8 52 52
-20 28 24 -47 87 l-75 64 60 -13 60 -13 -44 46 c-25 28 -48 84 -54 135 l-11
88 66 -63 c36 -35 73 -57 83 -48 9 8 11 5 4 -7 -7 -12 0 -39 16 -60 51 -67 32
-77 -33 -17 l-64 59 45 -65 c25 -36 62 -74 83 -86 22 -11 39 -35 39 -53 0 -28
-6 -27 -45 6 l-45 38 38 -45 c20 -24 44 -40 52 -35 8 5 24 -13 37 -41 23 -51
7 -65 -31 -27 -12 12 -34 19 -48 14 -14 -5 7 -28 49 -54 43 -26 68 -55 60 -69
-7 -13 2 -9 19 7 29 27 25 44 -40 179 -125 263 -236 601 -198 601 5 0 19 -34
32 -75z m1071 -106 c-53 -113 -71 -95 -24 24 15 37 34 85 43 107 13 32 18 34
24 9 4 -18 -15 -81 -43 -140z m184 -168 c10 -62 12 -116 4 -122 -8 -5 -8 -40
1 -79 9 -40 8 -70 -2 -70 -10 0 -20 29 -21 65 -2 36 -6 79 -8 95 -3 17 -6 39
-8 50 -1 11 -15 -2 -30 -30 -20 -36 -21 -54 -5 -64 13 -8 19 -17 13 -21 -12
-9 -182 -121 -214 -141 -15 -10 -25 -6 -25 10 0 14 28 44 61 66 81 52 126 125
56 89 -26 -13 -67 -42 -91 -64 l-44 -40 3 48 c2 26 22 79 46 117 23 39 48 93
55 121 7 28 32 95 55 148 l43 96 46 -80 c25 -45 54 -132 65 -194z m-1865 229
c-11 -18 44 -27 184 -28 23 0 39 -8 33 -16 -5 -9 0 -16 11 -16 11 0 25 9 32
20 19 31 56 24 44 -8 -12 -29 109 -65 144 -43 10 6 11 -22 3 -64 -15 -70 -12
-258 8 -595 4 -77 22 -174 40 -216 48 -112 90 -358 69 -398 -10 -18 -18 -62
-18 -96 0 -77 -34 -72 -82 11 -18 33 -44 57 -56 54 -42 -10 -81 128 -105 374
-32 321 -76 341 -79 36 0 -113 -6 -191 -11 -175 -6 17 -15 44 -22 60 -6 17
-11 35 -10 41 1 6 -15 10 -36 10 -22 0 -39 -7 -39 -15 0 -9 14 -16 30 -16 17
0 30 -18 30 -40 0 -56 -87 -21 -99 40 -19 97 -27 106 -54 69 -29 -39 -85 3
-86 66 -1 14 -14 25 -30 25 -33 0 -57 61 -40 105 6 17 2 37 -10 44 -11 7 -22
6 -23 -3 -2 -9 -6 -42 -9 -73 -8 -70 -55 -125 -120 -142 -28 -6 -50 -27 -50
-46 -2 -29 -4 -28 -18 5 -9 22 -12 49 -7 60 5 11 -4 4 -21 -16 -37 -46 -66 17
-41 91 9 25 13 65 10 90 -2 24 2 56 11 70 9 14 17 34 19 45 2 11 10 61 18 110
7 50 21 100 31 111 11 13 8 32 -6 48 -18 19 -18 23 -1 14 28 -16 52 17 59 83
6 62 130 191 151 158 10 -16 15 -17 16 -2 0 12 23 20 52 17 36 -4 48 2 41 21
-17 43 11 52 50 17 35 -31 37 -31 37 1 0 36 17 35 248 -10 54 -10 101 -16 105
-12 12 12 -132 49 -288 74 -124 20 -217 80 -124 80 12 0 16 -9 9 -20z m-403
-163 c-28 -174 -59 -253 -75 -190 -14 57 44 273 73 273 9 0 9 -37 2 -83z
m2620 -121 c-19 -36 -33 -73 -31 -82 3 -10 -4 -12 -14 -5 -12 7 -8 33 9 66 16
30 29 69 29 87 0 44 29 68 36 31 4 -17 -9 -60 -29 -97z m-2757 -170 c-6 -52
-21 -100 -33 -108 -12 -7 -26 -62 -30 -121 -4 -59 -13 -138 -20 -177 l-14 -70
-14 79 c-8 43 -6 106 4 140 28 100 19 152 -15 76 -29 -68 -68 -87 -68 -34 0
55 80 191 104 177 13 -8 17 -5 9 7 -11 18 56 125 79 125 5 0 4 -42 -2 -94z
m130 -21 c0 -8 -13 -91 -29 -185 -40 -233 -50 -340 -33 -340 9 0 15 -13 15
-30 0 -23 -6 -24 -27 -6 -16 12 -26 14 -23 4 9 -33 -26 -148 -45 -148 -10 0
-19 20 -19 45 -1 25 -6 65 -10 90 -5 25 -1 45 8 45 9 0 18 11 19 25 13 111 65
388 84 445 20 61 60 98 60 55z m1946 -264 c28 -33 53 -69 57 -81 5 -15 33 -13
87 6 44 16 94 23 110 17 19 -7 1 -20 -50 -37 l-80 -26 95 7 c110 9 111 8 46
-62 -39 -42 -52 -47 -61 -23 -14 36 -93 45 -114 12 -24 -38 -148 40 -248 157
-107 126 -114 171 -14 95 84 -64 69 -22 -19 53 -32 27 -67 67 -79 88 -26 49
201 -124 270 -206z m790 166 c12 -41 17 -82 10 -93 -20 -33 -80 67 -70 118 13
68 34 59 60 -25z m-1676 -114 c86 -21 110 -34 110 -65 0 -24 -11 -35 -30 -30
-16 4 -50 7 -75 5 -27 -1 -45 9 -45 26 0 16 -18 34 -40 41 -30 10 -62 54 -35
49 3 0 55 -12 115 -26z m737 -143 c98 -115 160 -221 193 -330 l15 -50 -45 46
c-24 26 -39 52 -33 58 6 6 -2 38 -19 70 -17 33 -36 55 -41 50 -6 -6 6 -36 26
-67 l35 -57 -41 36 c-41 34 -42 34 -53 -7 -23 -89 -117 29 -148 186 l-13 63
65 -69 c68 -73 59 -33 -18 81 -105 155 -59 149 77 -10z m-276 -22 c-32 -173
-22 -237 13 -88 24 98 35 120 46 90 37 -104 -25 -390 -84 -390 -26 0 0 105 31
124 15 10 12 15 -10 16 -18 0 -38 -22 -45 -50 -7 -27 -27 -50 -44 -50 -51 0
-18 263 47 385 64 118 74 111 46 -37z m-1788 -83 c1 -74 12 -170 24 -214 25
-91 14 -122 -16 -44 -11 29 -25 53 -30 53 -6 0 -1 -25 11 -55 13 -35 15 -103
6 -185 -10 -80 -19 -109 -23 -75 -4 31 -16 51 -25 45 -49 -30 -60 71 -20 189
41 122 54 272 23 253 -10 -6 -24 -49 -31 -96 -11 -64 -19 -78 -33 -56 -27 43
-24 105 4 88 16 -10 20 -1 12 29 -6 24 -2 49 9 55 11 7 33 43 48 80 37 89 38
89 41 -67z m1314 105 c39 -16 103 -30 141 -30 57 0 69 -7 67 -39 -3 -31 -14
-37 -49 -28 -59 15 -60 -9 -1 -31 36 -13 27 -17 -42 -17 -55 0 -90 10 -97 28
-6 17 -26 23 -47 17 -19 -6 -42 -1 -51 13 -10 16 -4 20 19 11 22 -9 33 -2 33
19 0 19 -11 27 -29 20 -17 -6 -35 -3 -42 8 -6 10 0 19 15 19 19 1 18 6 -4 20
-46 30 6 24 87 -10z m1120 -146 c33 -4 52 2 44 14 -18 29 29 50 55 24 16 -16
14 -22 -7 -22 -25 -1 -25 -4 1 -20 23 -15 17 -20 -30 -23 -33 -2 -73 -4 -90
-6 -32 -2 -79 45 -79 79 0 11 11 7 25 -10 13 -16 50 -33 81 -36z m-320 -233
c132 -94 151 -124 184 -291 7 -38 35 -114 62 -168 79 -160 94 -256 45 -293
-41 -31 -41 -31 12 -150 29 -66 79 -189 111 -276 31 -86 111 -257 175 -380 65
-122 124 -258 130 -301 7 -43 30 -97 51 -120 56 -61 123 -211 123 -273 0 -30
14 -66 31 -80 37 -31 112 -179 100 -198 -8 -12 16 -144 41 -226 10 -34 7 -34
-61 -2 -42 21 -71 49 -71 70 0 24 -10 32 -30 24 -16 -6 -30 -24 -30 -39 0 -15
-14 -28 -31 -28 -17 0 -26 -9 -19 -20 7 -12 -9 -10 -39 3 -50 23 -50 25 -16
65 33 39 33 40 0 14 -19 -15 -35 -19 -35 -9 0 9 -7 7 -15 -5 -31 -45 -143 -51
-139 -7 1 25 13 36 29 30 15 -6 22 -2 15 9 -16 26 16 26 41 1 12 -12 30 -12
49 0 25 16 25 18 -5 19 -48 0 -44 12 25 86 50 54 60 58 60 26 0 -36 4 -36 50
8 50 47 67 100 31 100 -10 0 -23 -8 -29 -17 -6 -10 -36 -23 -67 -30 -30 -6
-82 -35 -114 -63 -41 -36 -74 -49 -104 -41 -25 6 -50 2 -57 -9 -31 -50 -86
-61 -75 -15 9 38 6 41 -17 19 -16 -14 -28 -36 -28 -48 0 -12 -18 -32 -39 -44
-21 -12 -54 -39 -72 -60 -32 -38 -33 -38 -44 6 -8 29 -2 48 17 55 15 6 28 20
28 30 0 10 -20 7 -45 -7 -25 -13 -52 -22 -61 -20 -10 3 -12 -4 -5 -14 6 -11 2
-25 -9 -32 -11 -7 -26 4 -34 24 -15 39 -56 86 -75 86 -21 0 -11 -37 19 -67 19
-19 23 -35 10 -43 -11 -7 -20 -3 -20 8 0 14 -17 15 -50 2 -27 -10 -51 -15 -52
-10 -10 38 -6 62 11 75 14 9 12 14 -4 15 -14 0 -25 10 -25 21 0 12 10 15 21 8
26 -16 18 51 -10 83 -14 15 -30 9 -55 -20 -26 -32 -35 -35 -37 -12 -1 17 -14
-1 -28 -40 -14 -39 -17 -75 -7 -82 23 -15 -3 -82 -30 -73 -25 9 -33 115 -8
115 26 0 6 146 -22 155 -13 5 -24 -2 -24 -15 0 -12 -11 -16 -25 -8 -20 11 -20
8 0 -13 33 -35 32 -59 -2 -59 -18 0 -32 35 -41 99 -16 119 2 208 39 193 20 -7
18 12 -7 80 -27 72 -28 96 -8 128 18 29 19 63 5 125 -37 160 4 813 70 1110 7
35 -2 50 -37 64 -64 24 -141 301 -129 462 10 121 95 299 95 197 0 -95 167
-438 212 -438 70 0 92 376 30 513 -67 147 -105 138 -52 -13 36 -103 36 -100 2
-100 -19 0 -35 49 -51 162 -13 89 -28 177 -33 195 -5 18 8 -4 30 -50 27 -57
78 -111 169 -176z m-682 209 c41 0 75 -9 75 -20 0 -30 -121 -23 -190 11 -53
26 -54 28 -10 19 28 -5 84 -10 125 -10z m213 -205 c-7 -102 -8 -213 -3 -247 6
-42 -2 -73 -27 -97 -41 -41 -48 -26 -86 166 -24 118 30 199 71 108 22 -51 24
-52 25 -10 1 26 -18 57 -48 77 -27 18 -44 42 -37 53 8 13 4 15 -10 7 -13 -8
-22 -26 -19 -39 3 -13 -14 -43 -39 -68 -46 -46 -68 -57 -61 -30 13 48 -30 106
-68 94 -27 -9 -36 -6 -28 8 8 12 6 38 -4 58 -35 67 -10 79 118 60 97 -15 129
-12 164 12 24 17 49 31 54 32 6 1 5 -82 -2 -184z m882 137 c0 -16 -34 -40 -75
-53 -41 -13 -88 -34 -105 -46 -17 -13 -14 -3 7 21 36 43 36 43 -10 32 -65 -16
-29 19 49 47 88 33 134 32 134 -1z m-591 -223 l15 -119 -42 48 c-31 36 -40 67
-34 120 5 40 11 95 12 122 l3 50 16 -51 c8 -28 22 -104 30 -170z m677 96 c70
-146 61 -382 -10 -300 -22 25 -51 42 -63 38 -13 -3 -17 0 -9 8 8 7 1 27 -16
44 -38 38 -19 59 22 25 26 -22 29 -20 18 7 -8 21 -2 33 15 34 19 0 17 8 -8 27
-19 14 -35 36 -35 47 0 37 -58 44 -81 9 -17 -27 -19 -22 -9 26 10 45 7 54 -10
37 -13 -12 -28 -59 -34 -104 l-11 -83 -34 64 c-40 74 34 164 150 181 32 5 64
10 69 12 6 1 26 -31 46 -72z m-1086 -331 c33 -156 -52 -368 -110 -274 -7 12
-6 20 4 18 47 -8 66 7 66 52 0 28 -8 50 -17 50 -35 0 -103 76 -92 104 6 16 0
55 -13 88 -13 32 -22 78 -20 103 6 53 -28 59 -56 10 -12 -19 -21 -24 -21 -10
-1 14 18 44 41 67 l42 42 77 -75 c57 -55 83 -102 99 -175z m-1648 134 c-7 -17
-13 -60 -14 -95 l-1 -63 -18 60 c-20 66 -8 130 24 130 12 0 16 -14 9 -32z
m228 -120 c0 -6 -9 -5 -20 2 -30 19 -25 0 24 -83 25 -41 33 -68 20 -60 -38 24
-89 134 -98 212 l-8 71 41 -65 c22 -36 41 -71 41 -77z m1519 -209 c-16 -31
-15 -49 4 -72 21 -26 19 -36 -13 -59 -44 -32 -110 -37 -110 -8 0 11 9 20 20
20 11 0 20 22 20 49 0 48 46 111 82 111 12 0 10 -17 -3 -41z m1083 -7 c-20
-24 -17 -27 20 -17 31 8 41 3 34 -16 -10 -32 -80 -55 -166 -55 l-60 0 55 22
c42 17 52 31 43 61 -10 30 -5 36 19 27 17 -7 37 -3 44 8 7 11 18 16 24 10 6
-6 0 -24 -13 -40z m78 -103 c0 -7 -10 -30 -21 -52 -18 -33 -13 -48 31 -85 l53
-46 -63 -26 c-47 -19 -68 -20 -85 -3 -13 13 -50 24 -84 25 l-61 2 67 16 c37 9
77 27 90 40 18 19 14 22 -19 12 -23 -7 -67 0 -99 17 l-56 29 58 23 c128 51
189 66 189 48z m-1108 -61 c-7 -17 -12 -35 -12 -39 0 -9 -112 -69 -130 -69 -6
0 -2 17 9 37 11 21 13 45 5 54 -8 8 -4 10 8 3 12 -7 39 0 60 16 50 38 75 37
60 -2z m40 -121 c-5 -44 -112 -137 -112 -97 0 6 -20 1 -45 -12 -37 -19 -41
-18 -20 4 34 36 31 59 -5 45 -16 -6 -30 -1 -30 11 0 12 24 20 53 17 34 -3 63
11 85 40 44 60 80 57 74 -8z m45 -61 c-24 -29 -23 -32 8 -20 83 31 -59 -111
-150 -150 -52 -23 -95 -47 -95 -53 0 -7 -23 -40 -50 -73 l-50 -60 21 60 c30
83 74 127 183 182 51 26 98 56 105 66 6 10 -38 -8 -98 -41 -122 -66 -205 -153
-223 -234 -19 -88 -25 -96 -26 -37 -4 112 62 194 228 284 55 30 113 67 129 82
41 39 52 35 18 -6z m1105 -97 c118 -61 198 -149 196 -216 l-2 -63 -18 64 c-30
102 -137 173 -369 244 -114 36 -213 72 -218 81 -14 22 337 -72 411 -110z m-21
103 c-19 -24 -16 -27 21 -17 29 7 41 3 35 -13 -9 -28 -15 -28 -87 -10 -62 15
-65 42 -5 54 25 5 48 10 52 11 5 2 -3 -10 -16 -25z m-255 -116 c24 -13 90 -26
145 -28 130 -4 215 -49 255 -133 53 -110 -10 -220 -65 -116 -29 53 -26 81 7
81 18 0 25 -14 18 -38 -5 -21 0 -44 12 -51 13 -8 22 3 22 26 0 61 -21 103 -53
103 -16 0 -53 17 -83 38 -30 22 -85 45 -124 52 -52 9 -62 7 -40 -8 17 -12 45
-22 62 -22 50 0 138 -78 138 -122 0 -50 57 -138 89 -138 13 0 24 -13 24 -30 0
-16 -12 -30 -26 -30 -15 0 -27 14 -27 30 0 18 -19 30 -48 30 -45 0 -47 -6 -37
-80 7 -53 2 -80 -12 -80 -13 0 -23 27 -23 60 0 40 -10 60 -30 60 -27 0 -27 8
1 74 29 72 29 76 -13 107 -32 24 -37 37 -19 48 16 10 -4 29 -58 53 -46 21 -78
46 -71 58 7 11 1 20 -14 21 -27 0 -115 59 -89 59 9 0 35 -11 59 -24z m-822
-40 c-15 -15 -25 -97 -27 -215 l-2 -191 -20 146 c-21 163 -30 172 -46 42 -18
-146 -28 -178 -59 -178 -17 0 -29 7 -28 15 8 51 -7 68 -24 27 -13 -32 -12 -56
1 -69 12 -12 21 -38 21 -59 0 -29 10 -36 42 -28 31 8 38 4 30 -19 -7 -17 -18
-66 -25 -109 -7 -47 -23 -78 -40 -78 -15 0 -27 -18 -27 -40 0 -22 8 -40 17
-40 26 0 12 -199 -15 -226 -17 -17 -19 1 -10 71 8 52 3 135 -10 187 -24 92
-15 141 17 90 12 -20 19 -21 31 -2 8 14 6 30 -5 37 -50 32 -103 270 -71 320
24 38 25 58 7 98 -36 80 -7 124 126 187 137 64 152 69 117 34z m-264 -265 c0
-26 -15 -53 -35 -60 -28 -11 -30 -8 -10 12 14 14 25 39 25 56 -1 27 -3 27 -20
1 -17 -26 -19 -26 -20 2 0 17 6 37 13 44 22 22 47 -7 47 -55z m1467 -321 c26
-62 49 -90 75 -90 32 0 38 -14 35 -85 -2 -59 -6 -68 -11 -30 -6 36 -38 75 -97
118 -49 35 -89 72 -89 82 0 10 14 4 31 -14 50 -50 55 -36 10 27 -48 67 -50 82
-16 82 14 0 42 -41 62 -90z m43 -258 c22 -8 45 -15 50 -15 15 0 45 -59 35 -69
-17 -16 -104 28 -160 81 -66 63 -75 116 -10 57 25 -22 63 -46 85 -54z m-1357
-41 c-8 -20 -1 -25 21 -17 27 11 30 2 19 -53 -14 -70 2 -166 26 -152 7 5 10
-16 6 -47 -6 -35 -30 -68 -67 -90 -32 -19 -58 -44 -58 -55 0 -12 -18 -17 -40
-11 -25 6 -50 -3 -65 -24 -14 -19 -37 -42 -51 -50 -61 -36 24 61 127 146 94
78 104 93 85 129 -21 40 -23 39 -68 -13 -90 -105 -94 -49 -6 79 54 78 59 98
41 139 -18 40 -17 48 10 48 19 0 27 -11 20 -29z m1511 -178 c56 -3 66 -12 78
-69 13 -63 12 -65 -24 -32 -20 18 -34 39 -29 46 4 6 -24 12 -63 12 -57 0 -81
13 -123 69 l-53 69 75 -46 c42 -25 104 -47 139 -49z m36 -150 c0 -50 6 -56 50
-48 28 6 50 0 50 -12 0 -12 -15 -16 -35 -8 -33 12 -33 10 0 -41 40 -60 29
-158 -15 -141 -15 5 -31 -6 -36 -27 -8 -31 -10 -31 -12 5 -1 23 11 59 27 80
40 53 38 76 -5 64 -54 -14 -94 38 -61 80 19 23 20 28 2 18 -27 -17 -32 5 -13
55 20 52 48 37 48 -25z m228 -189 c26 -81 46 -113 65 -106 15 6 28 2 30 -9 1
-10 3 -27 5 -37 1 -10 10 -26 20 -35 11 -10 12 -7 4 8 -22 38 17 30 52 -10 65
-74 98 -160 66 -172 -19 -8 -31 1 -32 23 0 19 -5 24 -10 13 -19 -45 -124 -7
-149 53 -13 32 -31 58 -39 58 -8 0 -30 43 -50 95 -19 52 -47 115 -63 140 -24
39 -24 45 3 45 36 0 40 32 5 48 -14 6 -7 9 15 7 30 -4 50 -35 78 -121z m-1719
-12 c50 -243 29 -350 -67 -334 -40 7 -117 18 -172 25 -55 7 -107 23 -115 35
-9 13 -15 8 -15 -15 0 -25 -10 -33 -29 -26 -17 6 -35 3 -42 -8 -15 -25 -109
-25 -109 1 0 11 -13 20 -28 20 -15 0 -33 15 -40 32 -10 25 -3 30 28 22 22 -6
35 -2 29 8 -6 9 2 12 18 6 17 -6 35 -24 41 -41 15 -39 49 -16 74 49 15 40 24
46 37 25 9 -15 31 -21 49 -15 21 9 32 2 32 -20 0 -29 3 -29 27 4 15 20 48 40
74 44 58 9 67 17 49 46 -10 16 -22 15 -45 -4 -26 -22 -25 -15 4 42 24 47 40
60 51 43 28 -46 144 -6 119 41 -11 21 -30 38 -41 38 -11 0 -15 -8 -9 -19 7
-10 -13 -16 -44 -12 -98 10 -79 64 23 64 81 0 91 -5 101 -51z m-1007 -82 c150
-128 232 -205 204 -191 -13 7 -34 -6 -46 -28 -12 -23 -31 -41 -42 -41 -11 0
-15 8 -10 18 10 15 -35 31 -148 52 -16 4 -61 16 -99 28 -81 25 -97 16 -59 -33
26 -33 25 -33 -14 0 -23 19 -49 28 -58 20 -9 -8 -10 -3 -1 11 8 14 4 38 -8 52
-17 21 -13 30 19 38 22 6 35 3 30 -6 -6 -10 -2 -22 8 -29 10 -6 23 3 29 19 8
20 -6 34 -43 43 -87 20 -90 28 -36 85 77 80 148 70 274 -38z m818 73 c0 -4
-14 -35 -31 -70 -33 -64 -57 -87 -36 -33 6 17 1 30 -12 30 -16 0 -17 11 -1 40
17 33 80 58 80 33z m1881 -170 l35 -78 -73 -24 c-40 -13 -83 -28 -96 -33 -22
-9 -33 22 -57 152 -8 48 -7 48 21 11 16 -21 29 -55 29 -75 0 -56 27 -43 68 32
21 39 30 80 21 95 -8 15 -8 20 1 12 9 -8 32 -50 51 -92z m-950 -162 c-8 -12
-22 -16 -33 -10 -10 6 -27 -9 -37 -35 -10 -25 -20 -41 -21 -36 -14 50 -13 78
2 69 10 -6 18 -2 18 8 0 11 16 24 35 28 44 10 53 4 36 -24z m233 -45 c-12 -12
-44 -24 -71 -27 -28 -3 -60 -11 -72 -18 -12 -8 -16 -1 -8 19 7 18 31 31 55 29
75 -6 92 0 94 36 1 24 5 26 12 8 6 -14 1 -36 -10 -47z m-2234 31 c27 -10 28
-16 7 -29 -42 -27 -77 -21 -77 12 0 33 18 37 70 17z m110 -10 c0 -9 32 -17 70
-17 39 0 70 -10 70 -21 0 -12 -16 -17 -35 -12 -19 6 -64 16 -100 23 -66 13
-90 43 -35 43 17 0 30 -7 30 -16z m1440 -89 c0 -16 -9 -28 -19 -28 -25 0 -63
71 -47 87 17 18 66 -26 66 -59z m-1573 -18 c7 -18 26 -25 47 -18 26 9 29 7 10
-7 -39 -28 -124 -7 -110 27 14 37 39 36 53 -2z m1449 -102 c-31 -16 -85 -24
-128 -19 -40 6 -84 4 -96 -4 -37 -23 -169 -26 -183 -3 -20 32 0 42 115 52 58
6 107 11 109 13 2 2 56 0 120 -4 113 -7 114 -8 63 -35z"/>
<path d="M2387 6757 c2 -73 10 -129 18 -124 19 11 16 117 -5 197 -12 44 -15
25 -13 -73z"/>
<path d="M2711 5781 c-20 -32 6 -61 43 -47 25 10 30 5 20 -22 -8 -19 -5 -29 5
-23 9 6 22 0 28 -14 7 -18 10 -18 11 -1 3 37 -92 131 -107 107z"/>
<path d="M2770 5180 c9 -29 4 -40 -21 -40 -21 0 -29 11 -22 30 7 19 0 30 -20
30 -20 0 -27 -11 -19 -32 7 -17 12 -35 12 -40 0 -4 23 -8 50 -8 40 0 50 10 50
50 0 28 -10 50 -21 50 -13 0 -16 -17 -9 -40z"/>
<path d="M2120 5170 c-21 -25 -18 -30 19 -30 27 0 38 8 29 23 -9 15 6 20 49
13 35 -5 63 -2 63 7 0 29 -134 18 -160 -13z"/>
<path d="M2322 5494 c-36 -36 -25 -74 23 -75 42 0 42 -2 10 -27 -52 -39 -42
-72 20 -70 30 0 45 5 34 10 -12 5 -18 36 -13 68 6 41 0 60 -19 61 -15 1 -9 9
12 17 38 15 37 16 -3 26 -24 6 -52 2 -64 -10z"/>
<path d="M2490 5480 c22 -9 29 -18 15 -19 -38 -2 -30 -76 10 -99 30 -18 26
-21 -25 -23 -58 -1 -58 -2 -13 -20 67 -27 83 -9 83 92 0 84 -3 89 -55 88 -49
-2 -50 -4 -15 -19z"/>
<path d="M3057 4541 c-32 -77 -32 -78 5 -55 22 14 38 46 38 79 0 72 -4 70 -43
-24z"/>
<path d="M3086 4409 c-23 -49 -35 -89 -29 -88 34 1 103 80 103 116 0 74 -33
62 -74 -28z"/>
<path d="M2985 4366 c-22 -31 -51 -78 -65 -106 -40 -76 27 -17 82 73 52 84 38
111 -17 33z"/>
<path d="M1513 4351 c6 -17 -2 -43 -17 -58 -18 -18 -25 -55 -20 -101 9 -81 34
-80 50 3 5 30 19 84 30 120 19 58 17 65 -17 65 -25 0 -34 -10 -26 -29z"/>
<path d="M1420 4080 c-11 -21 -17 -62 -12 -90 5 -27 1 -50 -9 -50 -9 0 -16
-25 -14 -55 1 -30 -4 -84 -13 -120 -13 -57 -10 -65 26 -65 38 0 40 12 40 190
0 105 6 200 12 210 7 11 8 20 2 20 -6 0 -20 -18 -32 -40z"/>
<path d="M2806 3840 c26 -69 126 -130 142 -87 6 16 4 24 -6 18 -10 -6 -36 19
-57 56 -50 83 -109 93 -79 13z"/>
<path d="M2425 3107 c-29 -12 -34 -79 -6 -96 10 -6 24 9 32 34 8 25 24 52 37
60 25 17 -23 18 -63 2z"/>
<path d="M2795 2332 c-33 -25 -33 -28 -1 -54 18 -16 28 -19 22 -8 -15 25 34
73 55 54 9 -8 9 -3 1 11 -18 31 -33 31 -77 -3z"/>
<path d="M2812 2207 c-15 -38 4 -65 24 -36 13 17 84 33 84 18 0 -42 -121 -60
-149 -22 -30 41 -31 41 -26 3 4 -29 -5 -38 -32 -34 -22 4 -32 -2 -24 -15 7
-11 33 -21 57 -22 l44 0 -43 -25 c-48 -26 -23 -96 28 -79 14 5 25 -1 25 -13 0
-12 10 -22 21 -22 12 0 16 11 9 25 -7 14 6 4 28 -22 44 -49 57 -95 22 -73 -11
7 -20 3 -20 -9 0 -30 20 -25 110 28 44 25 77 57 74 71 -3 13 5 37 18 53 42 50
8 47 -53 -5 -32 -28 -46 -44 -31 -36 19 9 23 6 14 -9 -18 -29 -72 -30 -72 -2
0 12 -10 15 -22 8 -14 -9 -19 15 -13 74 4 48 18 85 30 83 12 -3 19 9 17 25 -3
17 -13 31 -23 32 -11 0 -34 9 -52 19 -23 12 -37 8 -45 -15z"/>
<path d="M3060 1896 c0 -10 -17 -13 -38 -7 -21 7 -45 2 -54 -12 -10 -16 -4
-20 16 -12 17 7 40 3 50 -7 13 -13 39 -12 73 1 66 25 67 34 3 46 -27 5 -50 1
-50 -9z"/>
<path d="M2786 1751 c-19 -21 -15 -29 18 -38 23 -6 37 -22 31 -37 -5 -14 2
-38 18 -52 15 -14 27 -17 27 -5 0 11 14 14 31 8 17 -7 27 -24 21 -39 -6 -16 1
-22 19 -15 16 6 43 0 59 -13 21 -17 30 -18 30 -2 0 12 7 21 15 20 8 -2 31 -2
50 0 55 3 41 34 -15 34 -27 0 -50 -6 -50 -14 0 -8 -18 -10 -40 -4 -22 6 -34
20 -27 31 8 12 3 15 -10 7 -13 -8 -23 -5 -23 7 0 11 -17 21 -38 21 -21 0 -37
11 -37 25 4 96 -29 123 -79 66z"/>
<path d="M3200 1560 c-18 -34 -28 -37 -64 -18 -34 19 -47 17 -66 -9 -15 -20
-30 -25 -43 -12 -23 23 -227 38 -227 17 0 -8 11 -19 25 -25 14 -5 -4 -11 -39
-11 -35 -1 -70 -12 -77 -24 -8 -12 -41 -17 -76 -11 -35 5 -52 6 -38 0 34 -14
31 -57 -5 -87 -16 -14 -29 -40 -28 -57 0 -19 5 -23 11 -9 5 13 23 19 39 13 23
-9 24 -18 5 -44 -21 -28 -19 -27 13 1 35 32 38 32 65 0 15 -19 22 -22 15 -8
-8 14 -1 41 13 59 15 18 17 27 4 19 -16 -10 -20 0 -12 30 12 43 13 43 30 -10
10 -30 27 -49 37 -43 10 6 23 -2 30 -18 6 -16 26 -26 44 -23 35 6 36 45 1 80
-13 13 -15 8 -6 -15 8 -21 4 -35 -9 -35 -13 0 -28 13 -35 30 -6 16 -19 25 -29
19 -10 -6 -18 -2 -18 10 0 11 12 21 28 21 15 0 39 14 53 31 17 21 43 27 81 19
39 -9 60 -3 74 22 10 18 29 27 42 19 12 -7 16 -24 9 -37 -8 -13 4 -8 26 11 44
38 77 47 57 15 -7 -12 -6 -19 4 -17 41 9 123 -29 113 -53 -5 -14 0 -32 11 -39
13 -8 17 -1 10 16 -6 16 -1 35 11 42 14 9 12 23 -7 42 -33 33 -60 39 -42 9 7
-11 -1 -15 -17 -8 -26 9 -25 16 4 46 31 32 35 32 70 -7 l38 -41 -15 50 c-26
84 -76 103 -110 40z"/>
<path d="M3237 1282 c-83 -87 -255 -348 -243 -368 6 -10 -1 -26 -16 -35 -16
-10 -33 -7 -42 7 -12 18 -15 18 -16 -1 0 -14 -9 -25 -20 -25 -22 0 -6 95 22
131 29 37 97 209 82 208 -8 0 -35 -46 -61 -101 -43 -92 -53 -100 -100 -89 -33
8 -43 6 -27 -5 14 -9 20 -31 14 -47 -15 -39 24 -143 48 -128 10 6 23 0 29 -14
5 -14 11 -9 11 12 2 29 8 33 28 16 20 -16 39 -14 72 10 36 25 40 36 19 49 -15
10 -17 18 -6 18 23 0 111 110 117 147 11 57 36 113 52 113 10 0 23 18 30 40 7
22 22 40 33 40 10 0 13 -10 5 -23 -9 -14 -5 -18 9 -9 15 9 18 3 10 -19 -9 -24
-16 -26 -28 -8 -9 15 -14 4 -12 -27 3 -53 3 -53 43 -13 33 33 35 46 15 78 -13
22 -19 53 -13 70 17 43 6 38 -55 -27z"/>
<path d="M2898 1233 c-22 -44 -46 -63 -80 -63 -48 0 -117 -101 -115 -170 0
-20 3 -22 10 -5 6 14 19 20 29 14 10 -6 18 5 18 25 0 20 17 47 38 60 33 20 36
18 27 -15 -21 -81 27 -34 72 70 52 119 52 186 1 84z"/>
<path d="M3290 1093 c-109 -122 -131 -155 -120 -173 19 -31 73 2 60 37 -7 17
-6 26 1 18 20 -19 66 33 100 114 36 87 34 88 -41 4z"/>
<path d="M3421 988 c-77 -88 -77 -100 0 -54 94 55 128 98 91 112 -18 7 -53
-15 -91 -58z"/>
<path d="M2063 3217 c15 -26 35 -53 45 -60 9 -7 12 -36 4 -65 -7 -30 -4 -52 8
-52 52 0 1 197 -57 216 -22 7 -22 0 0 -39z"/>
<path d="M1212 909 c-28 -20 -31 -34 -14 -63 11 -20 21 -25 21 -11 1 34 41 32
69 -3 12 -15 44 -35 71 -43 50 -14 50 -14 -10 57 -73 88 -92 96 -137 63z"/>
<path d="M3720 8647 c-658 -704 -737 -792 -695 -776 15 6 238 237 496 513 258
277 529 567 601 645 175 186 245 271 225 271 -9 0 -291 -294 -627 -653z"/>
<path d="M700 4813 c0 -16 44 -36 112 -52 134 -30 161 -18 43 19 -47 15 -94
34 -104 43 -28 25 -51 20 -51 -10z"/>
<path d="M1419 2073 c27 -34 25 -41 -20 -78 -27 -22 -50 -45 -51 -52 -1 -7 -9
-29 -17 -49 -9 -20 -10 -41 -3 -48 6 -7 12 3 12 23 0 22 10 31 28 25 17 -7 32
4 38 27 16 60 56 47 45 -13 -8 -48 -6 -50 25 -23 19 16 48 26 64 21 27 -8 27
-7 0 12 -26 18 -25 21 5 22 19 0 35 9 35 21 0 14 -11 15 -34 2 -38 -21 -106 4
-106 38 0 11 16 9 38 -5 33 -20 49 -14 111 40 40 35 62 64 50 64 -13 0 -41
-22 -63 -50 -49 -63 -104 -68 -85 -7 9 29 6 38 -10 28 -12 -8 -38 -2 -57 12
-31 25 -31 24 -5 -10z"/>
<path d="M1588 1882 l-62 -34 52 -24 c42 -20 56 -20 72 2 11 15 29 24 40 21
11 -4 33 13 48 38 27 42 26 43 -8 15 -28 -23 -39 -24 -45 -5 -10 30 -18 29
-97 -13z"/>
<path d="M1685 1788 c-60 -50 -85 -62 -85 -40 0 17 -22 37 -50 44 -27 7 -50
20 -50 30 0 29 -29 21 -72 -19 -21 -20 -50 -32 -63 -28 -15 5 -21 -3 -14 -21
7 -17 2 -36 -10 -43 -11 -7 -21 -24 -21 -36 0 -12 13 -5 29 16 17 22 30 29 30
17 1 -11 -23 -43 -52 -70 -29 -26 -46 -34 -36 -18 14 26 12 26 -17 3 -19 -16
-34 -19 -34 -7 0 13 -17 12 -50 -3 -27 -13 -50 -38 -50 -57 0 -24 -14 -32 -50
-28 -68 7 -82 26 -32 41 33 11 41 28 37 77 -3 44 3 62 21 59 16 -4 21 4 13 16
-18 30 -58 -10 -61 -62 -5 -70 -8 -79 -26 -79 -10 0 -14 18 -8 40 8 31 3 38
-22 28 -34 -13 -45 -68 -14 -68 32 0 10 -67 -27 -80 -28 -10 -30 -16 -8 -33
36 -28 117 -47 117 -27 0 8 -19 20 -42 26 -28 8 -37 20 -26 37 10 17 18 18 23
3 4 -12 25 -17 46 -11 36 9 38 5 19 -46 -15 -39 -15 -62 0 -77 28 -28 92 12
85 52 -4 22 12 28 60 25 36 -2 81 9 100 26 49 43 95 1 85 -78 -5 -40 0 -57 16
-51 28 9 20 140 -8 151 -40 14 -15 47 29 36 33 -9 46 -4 46 19 0 22 -13 27
-46 19 -33 -8 -47 -3 -47 16 0 42 71 53 124 19 35 -22 32 -17 -10 22 -60 55
-50 70 17 25 82 -55 110 -56 101 -2 -5 27 -1 49 9 49 11 0 19 15 19 33 0 19 6
28 12 21 16 -15 56 24 73 71 18 45 19 46 -80 -37z m-412 -222 c-23 -6 -33 -23
-28 -44 6 -22 -3 -33 -28 -33 -24 0 -34 10 -27 27 5 15 10 36 10 46 0 10 25
17 55 16 37 -2 43 -6 18 -12z"/>
<path d="M4049 1742 c13 -22 9 -26 -16 -16 -21 8 -33 3 -33 -14 0 -15 19 -32
42 -38 28 -8 37 -20 26 -38 -13 -21 -10 -21 16 0 22 17 37 19 45 5 8 -12 22
-21 33 -21 11 0 13 11 5 25 -9 14 -14 43 -11 65 5 37 3 37 -16 5 -12 -19 -31
-35 -42 -35 -11 0 -15 8 -9 18 6 9 -5 30 -23 45 -29 23 -31 23 -17 -1z"/>
<path d="M1682 1645 c7 -54 -22 -104 -54 -92 -20 8 -28 -5 -28 -44 0 -31 6
-50 13 -43 7 8 26 -2 41 -21 25 -31 26 -30 6 11 -25 52 4 109 47 92 14 -5 26
9 27 32 2 22 -6 40 -17 40 -12 0 -16 14 -10 30 7 17 2 30 -9 30 -11 0 -19 -16
-16 -35z"/>
<path d="M940 1596 c0 -18 -22 -51 -50 -72 -73 -57 -61 -69 20 -21 76 44 79
52 50 97 -17 26 -19 25 -20 -4z"/>
<path d="M4428 1584 c11 -18 2 -30 -26 -38 -34 -9 -38 -17 -20 -38 30 -37 65
-36 51 1 -6 16 3 31 21 35 28 5 28 10 -5 36 -25 20 -31 21 -21 4z"/>
<path d="M1770 1520 c-7 -12 -20 -16 -29 -10 -9 5 -22 -4 -28 -20 -7 -17 -3
-30 8 -30 10 0 19 -13 19 -30 0 -16 -11 -28 -25 -25 -14 3 -25 -11 -25 -31 0
-21 -17 -46 -38 -58 -33 -19 -36 -16 -25 29 9 35 4 54 -17 62 -18 7 -30 0 -30
-16 0 -16 -16 -32 -35 -37 -27 -7 -25 -10 9 -12 80 -4 85 -122 5 -122 -22 0
-39 -9 -39 -20 0 -11 28 -20 61 -20 35 0 56 8 49 20 -7 11 1 14 19 8 18 -7 31
-2 31 12 0 19 7 19 28 1 22 -17 32 -17 43 1 11 17 6 19 -13 8 -17 -10 -21 -9
-11 2 16 17 23 20 78 26 19 2 18 7 -2 20 -20 12 -21 21 -4 31 17 11 13 22 -11
40 -24 18 -30 37 -19 63 15 36 28 128 18 128 -3 0 -10 -9 -17 -20z"/>
<path d="M1874 1486 c10 -24 4 -30 -18 -21 -24 9 -29 2 -21 -30 8 -28 4 -37
-12 -27 -30 19 -29 -29 3 -68 44 -55 140 -88 114 -39 -12 22 -31 35 -41 28
-10 -6 -19 2 -19 18 0 16 -5 44 -12 61 -7 18 -3 32 8 32 10 0 25 -20 33 -45 9
-28 18 -36 24 -19 6 14 0 38 -13 54 -13 15 -18 37 -12 47 7 10 -1 24 -17 30
-20 8 -25 1 -17 -21z"/>
<path d="M1486 1447 c-18 -47 39 -73 69 -33 34 46 32 57 -16 61 -23 1 -46 -11
-53 -28z"/>
<path d="M4600 1463 c0 -11 11 -27 25 -36 35 -22 95 -23 95 -2 0 9 11 11 25 3
14 -8 18 -7 10 3 -9 9 -31 18 -50 20 -19 2 -51 10 -70 19 -20 8 -35 6 -35 -7z"/>
<path d="M5312 1463 c-6 -9 16 -36 48 -60 60 -45 114 -61 59 -17 -17 13 -37
40 -45 59 -14 37 -45 46 -62 18z"/>
<path d="M740 1382 c0 -9 -18 -22 -40 -28 -22 -6 -40 -25 -40 -42 0 -18 -13
-32 -30 -32 -16 0 -30 -9 -30 -21 0 -14 13 -14 40 1 48 26 52 9 8 -35 -25 -25
-35 -26 -47 -6 -24 38 -88 9 -128 -59 -20 -34 -45 -55 -57 -47 -15 9 -18 -4
-9 -38 8 -33 2 -59 -17 -75 -36 -30 -40 -69 -5 -47 14 9 43 14 65 11 28 -3 55
20 88 75 27 44 54 76 60 73 18 -9 80 63 67 76 -6 7 0 12 14 12 18 0 22 18 14
60 -11 57 -9 59 30 39 31 -17 47 -17 64 2 18 19 15 22 -12 13 -23 -9 -35 -3
-35 18 0 17 8 26 17 20 9 -6 16 3 16 19 0 16 -7 29 -16 29 -9 0 -17 -8 -17
-18z m-207 -225 c-6 -42 -63 -97 -99 -97 -11 0 -8 13 6 30 13 16 34 24 45 17
13 -8 15 -3 6 11 -8 13 -4 37 10 53 33 40 40 37 32 -14z"/>
<path d="M4600 1381 c0 -31 58 -79 95 -80 14 -1 25 10 25 22 0 13 -6 18 -14
10 -7 -7 -34 6 -60 30 -29 28 -46 34 -46 18z"/>
<path d="M1043 1353 c-21 -25 -18 -34 16 -53 23 -12 37 -31 30 -41 -6 -11 -20
-15 -29 -9 -10 6 -16 -7 -15 -30 2 -22 15 -40 29 -40 14 0 25 7 23 15 -5 20
39 125 52 125 5 0 5 -13 -2 -30 -7 -18 0 -30 18 -30 15 0 28 14 28 30 0 29 -7
34 -58 38 -14 1 -34 14 -46 29 -17 22 -25 21 -46 -4z"/>
<path d="M4140 1319 c-26 -16 -26 -18 3 -19 43 0 88 -53 55 -64 -14 -5 -2 -31
31 -67 35 -38 57 -50 64 -35 16 39 63 -15 52 -58 -5 -20 0 -36 12 -36 12 0 16
15 9 33 -10 26 -5 31 21 21 22 -9 33 -4 31 11 -3 14 2 41 9 60 7 19 17 49 23
66 5 17 19 26 30 19 11 -7 20 -3 20 9 0 35 -30 24 -80 -29 -54 -57 -85 -65
-66 -18 10 26 3 30 -31 19 -32 -10 -56 1 -98 47 -41 45 -63 55 -85 41z"/>
<path d="M4694 1286 c-22 -6 -32 -21 -26 -38 6 -15 -1 -28 -15 -28 -15 0 -26
-12 -26 -26 0 -14 15 -25 34 -25 24 0 33 13 29 46 -3 27 5 43 18 39 12 -5 21
-23 19 -41 -1 -18 5 -33 15 -33 16 0 25 27 21 62 0 6 11 11 26 11 16 0 22 -12
16 -30 -8 -19 -4 -24 11 -16 13 8 10 -9 -7 -41 -34 -67 -36 -86 -8 -86 12 0
16 8 10 19 -25 39 31 41 72 2 24 -22 49 -35 56 -29 6 6 -7 26 -30 45 -57 46
-56 128 0 100 34 -16 33 -12 -6 22 -26 22 -64 41 -84 41 -19 0 -48 3 -62 8
-15 4 -43 3 -63 -2z"/>
<path d="M1814 1246 c-31 -8 -35 -22 -23 -93 17 -105 22 -113 73 -113 31 0 36
6 19 26 -12 14 -24 64 -27 110 -3 46 -6 83 -6 82 0 -2 -16 -7 -36 -12z"/>
<path d="M1927 1226 c10 -14 12 -39 6 -55 -13 -35 10 -54 42 -34 16 10 10 29
-21 65 -24 27 -36 38 -27 24z"/>
<path d="M1301 1213 c-11 -11 -21 -35 -20 -52 0 -25 4 -25 21 4 15 27 29 31
58 15 45 -24 60 -25 60 -5 0 30 -96 61 -119 38z"/>
<path d="M4454 1173 c-29 -44 -29 -51 -2 -61 28 -11 28 -15 -1 -43 -17 -18
-30 -47 -29 -65 0 -19 5 -24 11 -11 11 27 141 -6 184 -48 14 -14 34 -21 43
-15 9 6 21 -1 27 -15 6 -15 10 -11 11 10 1 19 -8 35 -19 35 -12 0 -16 9 -9 20
7 11 -11 20 -41 20 -40 0 -50 8 -41 31 6 17 4 27 -5 21 -21 -13 -83 61 -66 79
7 9 -5 9 -27 2 -36 -12 -37 -11 -6 13 19 16 27 37 18 51 -12 18 -25 12 -48
-24z"/>
<path d="M5062 1172 c-18 -21 -18 -32 -1 -42 15 -10 7 -30 -24 -63 -32 -34
-36 -45 -13 -37 18 7 38 27 45 44 8 22 19 25 36 10 29 -24 140 -8 124 18 -7
10 -28 9 -50 -3 -40 -21 -42 -18 -47 59 -3 41 -42 48 -70 14z"/>
<path d="M4544 1145 c7 -41 37 -67 60 -52 20 12 -19 87 -46 87 -11 0 -17 -16
-14 -35z"/>
<path d="M5440 1164 c0 -15 131 -124 149 -124 33 0 1 39 -69 85 -44 29 -80 46
-80 39z"/>
<path d="M1405 1080 c0 -72 83 -190 118 -168 9 6 17 -3 17 -20 0 -16 8 -35 18
-41 10 -6 15 5 12 24 -4 19 -8 42 -8 50 -1 8 -18 15 -37 15 -28 1 -30 4 -7 18
23 15 16 30 -32 75 -34 31 -66 71 -71 87 -6 17 -10 -1 -10 -40z"/>
<path d="M5254 1040 c-6 -24 -6 -39 1 -32 6 6 23 2 38 -11 20 -16 27 -16 27 2
0 13 9 18 21 10 13 -8 4 -27 -23 -51 -46 -40 -36 -46 59 -38 30 2 42 -5 34
-18 -7 -12 -4 -22 9 -22 15 0 15 -12 -1 -42 -21 -39 -24 -40 -60 -7 -21 19
-51 29 -67 22 -21 -8 -26 -2 -18 21 10 25 5 30 -21 20 -29 -11 -31 -7 -12 28
12 23 16 47 8 55 -8 7 -19 2 -23 -12 -5 -14 -16 -21 -25 -16 -8 5 -25 -12 -37
-38 -19 -42 -16 -49 27 -60 29 -7 48 -26 47 -46 -1 -21 -5 -25 -11 -10 -13 32
-72 32 -103 1 -19 -19 -24 -15 -24 15 0 66 -124 204 -141 157 -10 -29 4 -49
54 -84 44 -30 67 -62 67 -92 0 -58 49 -106 71 -70 10 15 7 19 -8 10 -14 -9
-18 -3 -12 15 9 22 25 16 73 -28 57 -52 116 -60 116 -16 0 11 -9 14 -20 7 -11
-7 -20 -3 -20 9 0 11 0 27 -1 35 -2 50 125 4 136 -49 8 -42 -30 -28 -41 15 -6
22 -22 40 -37 40 -22 -1 -22 -4 1 -18 17 -11 21 -28 10 -45 -24 -39 -27 -77
-6 -77 10 0 18 8 18 18 0 23 66 17 85 -8 9 -12 15 -10 15 6 0 14 20 34 45 45
41 18 41 19 -9 9 -59 -11 -75 113 -20 148 30 18 -25 102 -67 102 -39 0 -37 33
4 48 18 7 49 -2 70 -21 21 -18 37 -23 37 -11 0 31 -76 69 -103 52 -13 -8 -35
2 -50 23 -15 20 -27 28 -27 18 0 -11 -9 -5 -20 11 -17 27 -19 27 -20 0 0 -24
-4 -25 -18 -3 -12 20 -19 16 -28 -17z"/>
<path d="M682 985 c-12 -19 -22 -26 -23 -15 -2 11 -9 -1 -16 -27 l-13 -47 -39
43 c-38 42 -38 43 0 30 35 -11 36 -10 4 10 -43 28 -155 -46 -155 -103 0 -21
-13 -42 -30 -49 -16 -6 -30 -24 -30 -40 0 -16 -7 -25 -15 -20 -8 5 -26 -3 -40
-18 -15 -17 -17 -31 -5 -39 11 -7 20 -21 20 -32 0 -11 -9 -15 -20 -8 -11 7
-14 -2 -7 -21 7 -18 18 -25 25 -15 18 24 122 25 122 1 0 -12 5 -17 11 -11 5 6
1 34 -10 63 -16 41 -14 53 7 53 15 0 32 18 38 40 6 22 2 40 -8 40 -10 0 -18
10 -18 22 0 17 7 17 27 0 15 -12 24 -43 19 -68 -7 -35 1 -46 38 -50 97 -10
121 -18 139 -50 17 -31 77 -27 77 6 0 32 -104 85 -120 60 -10 -16 -18 -13 -27
11 -11 27 -19 29 -43 9 -34 -28 -39 -6 -11 40 14 21 8 42 -20 71 -31 33 -33
42 -10 42 16 0 25 -7 20 -15 -5 -8 8 -21 30 -28 21 -6 35 -23 29 -37 -5 -14 7
-24 31 -24 21 0 35 4 30 8 -5 5 1 21 13 36 17 20 15 30 -10 39 -17 7 -32 20
-32 30 0 9 23 7 50 -6 59 -26 81 -12 60 38 -10 24 -18 28 -24 11 -15 -41 -44
-28 -36 15 9 49 -1 51 -28 5z"/>
<path d="M5578 992 c15 -18 32 -29 38 -23 5 5 36 -12 68 -40 33 -27 69 -49 82
-49 13 0 15 6 3 15 -10 9 -41 35 -69 58 -68 57 -162 88 -122 39z"/>
<path d="M5484 803 c-20 -13 -14 -25 24 -50 61 -40 97 -43 45 -4 -20 16 -31
38 -24 50 16 25 -8 27 -45 4z"/>
<path d="M531 649 c-38 -28 -24 -39 42 -31 13 2 29 -5 36 -16 6 -10 31 -13 54
-7 35 9 41 5 31 -22 -16 -42 37 -45 79 -3 27 27 26 31 -7 42 -20 6 -52 20 -72
30 -20 11 -55 14 -78 7 -27 -9 -36 -6 -27 9 19 31 -12 26 -58 -9z"/>
<path d="M5212 644 c-16 -26 20 -51 48 -34 11 7 20 4 20 -7 0 -26 -89 -46
-132 -30 -24 10 -30 6 -20 -10 9 -14 5 -38 -9 -54 -17 -21 -18 -29 -1 -29 13
0 28 13 34 29 7 16 51 35 100 42 48 8 88 21 88 31 0 21 -80 65 -80 44 0 -9 -8
-4 -18 11 -11 18 -22 20 -30 7z"/>
<path d="M832 625 c-22 -21 -13 -45 18 -45 17 0 30 -10 30 -21 0 -12 9 -16 20
-9 11 7 20 19 20 26 0 22 -74 63 -88 49z"/>
<path d="M458 428 c48 -21 74 -24 89 -9 11 11 17 21 12 22 -5 0 -45 4 -89 9
l-80 9 68 -31z"/>
<path d="M732 429 c-6 -18 -3 -26 8 -19 11 7 20 3 20 -8 0 -11 19 -16 43 -11
65 12 70 29 9 29 -31 0 -49 9 -42 20 7 11 4 20 -7 20 -10 0 -24 -14 -31 -31z"/>
<path d="M4449 409 c55 -41 126 -41 84 1 -17 17 -51 30 -77 29 -45 0 -45 -1
-7 -30z"/>
<path d="M3385 407 c-39 -16 -9 -47 45 -47 57 0 82 31 38 48 -35 13 -47 13
-83 -1z"/>
<path d="M4800 393 c0 -54 201 -41 253 15 10 10 -12 12 -53 3 -92 -20 -102
-20 -155 -3 -33 11 -45 7 -45 -15z"/>
<path d="M5110 391 c-33 -15 -82 -37 -110 -48 -48 -21 -47 -21 10 -9 77 16
230 83 190 83 -16 0 -57 -12 -90 -26z"/>
<path d="M2765 326 c33 -5 50 -17 43 -30 -8 -12 -2 -17 13 -12 63 21 40 56
-34 53 -61 -2 -66 -5 -22 -11z"/>
<path d="M2020 299 c-78 -21 -4 -41 80 -22 64 14 66 16 20 25 -27 6 -72 4
-100 -3z"/>
<path d="M2215 304 c-20 -4 -30 -15 -24 -26 7 -10 20 -14 30 -7 10 6 13 -3 6
-20 -10 -26 -17 -28 -43 -7 -25 22 -29 21 -21 -4 11 -31 197 -46 197 -16 0 8
15 9 33 2 21 -8 29 -5 21 8 -7 12 -37 21 -67 21 -30 0 -64 13 -75 28 -12 16
-38 25 -57 21z"/>
<path d="M2720 281 c0 -10 -16 -22 -35 -26 -19 -4 3 -12 50 -17 47 -5 85 -2
85 6 0 9 -13 16 -30 16 -16 0 -30 9 -30 20 0 11 -9 20 -20 20 -11 0 -20 -8
-20 -19z"/>
<path d="M3718 251 c9 -11 20 -31 24 -44 5 -14 22 -5 41 21 33 44 32 45 -24
45 -38 0 -52 -8 -41 -22z"/>
</g>
</svg>
