<?xml version="1.0" standalone="no"?>
<!DOCTYPE svg PUBLIC "-//W3C//DTD SVG 20010904//EN"
 "http://www.w3.org/TR/2001/REC-SVG-20010904/DTD/svg10.dtd">
<svg version="1.0" xmlns="http://www.w3.org/2000/svg"
 width="300.000000pt" height="155.000000pt" viewBox="0 0 300.000000 155.000000"
 preserveAspectRatio="xMidYMid meet">
<metadata>
Created by potrace 1.10, written by Peter Selinger 2001-2011
</metadata>
<g transform="translate(0.000000,155.000000) scale(0.050000,-0.050000)"
fill="#000000" stroke="none">
<path d="M568 2925 c-10 -36 -28 -45 -85 -47 -40 0 -59 -6 -43 -11 17 -6 42
-14 57 -19 19 -6 14 -20 -20 -49 l-47 -41 46 22 c64 31 118 -9 79 -58 -22 -28
-21 -29 10 -5 32 25 44 18 38 -21 -2 -8 11 -9 27 -3 19 7 30 0 30 -19 0 -17
14 -45 31 -63 31 -30 11 -39 -64 -29 -7 1 -19 -10 -28 -23 -29 -47 -84 -4 -71
56 11 46 9 49 -10 18 -12 -20 -17 -54 -11 -77 9 -34 3 -39 -39 -31 -38 8 -48
2 -44 -22 4 -18 20 -34 36 -36 17 -3 73 -10 126 -17 104 -14 115 -43 32 -85
-44 -22 -44 -24 -7 -25 23 0 50 9 61 20 65 65 98 -31 62 -183 -57 -239 -58
-254 -16 -167 22 44 40 107 41 141 4 165 93 173 102 9 l4 -70 13 60 c7 33 21
56 32 50 24 -12 21 -83 -8 -190 -12 -44 -26 -105 -32 -136 -7 -33 -29 -62 -56
-72 -153 -59 -334 -266 -334 -383 0 -53 -7 -62 -38 -54 -47 13 -170 -84 -212
-166 -35 -67 -37 -79 -10 -79 11 0 20 13 20 28 0 46 140 157 168 134 27 -23
152 42 152 78 0 11 26 20 58 20 32 0 63 13 69 29 35 92 271 147 335 78 65 -69
143 -107 221 -107 161 0 241 -80 178 -179 -43 -68 12 -101 168 -101 145 0 211
-26 211 -82 0 -69 -320 -249 -405 -227 -36 8 -50 -2 -71 -48 -29 -66 -125
-116 -179 -92 -19 8 -42 14 -50 12 -27 -6 -16 22 19 48 74 53 -5 94 -166 86
-151 -8 -229 -47 -227 -115 0 -27 5 -26 28 5 60 78 285 89 261 12 -22 -69 40
-132 124 -126 41 3 101 -7 133 -24 33 -16 81 -29 108 -29 58 0 171 -50 257
-114 47 -35 104 -50 243 -64 271 -28 351 -56 314 -109 -58 -83 -28 -100 41
-25 54 60 80 74 115 65 25 -7 68 -13 95 -13 33 0 57 -16 70 -45 23 -52 106
-69 170 -35 33 18 42 17 39 -4 -13 -93 4 -185 24 -131 13 34 35 55 59 55 21 0
38 12 38 27 0 76 84 109 230 90 77 -9 266 -13 420 -8 154 6 379 11 500 12 261
2 490 19 490 37 0 6 -121 9 -269 5 -508 -12 -1038 55 -1182 149 -46 30 -47 30
-37 -22 11 -62 -6 -130 -33 -130 -25 0 -24 152 2 245 22 80 67 114 179 136
l70 14 -76 3 c-88 2 -83 28 13 72 40 19 45 25 15 18 -31 -8 -43 -5 -33 10 7
12 26 22 42 22 42 0 249 88 249 105 0 9 -38 -4 -85 -28 -81 -41 -255 -70 -255
-43 0 7 16 32 35 54 30 36 28 36 -16 -3 -77 -67 -136 -55 -74 15 14 16 6 13
-17 -6 -43 -35 -108 -46 -108 -18 0 9 -41 13 -90 10 -69 -5 -94 1 -103 25 -24
63 29 79 269 82 399 4 595 72 980 336 714 490 1476 728 1914 599 36 -11 37 -9
9 20 -33 35 -231 78 -315 68 -126 -14 16 116 206 191 11 4 15 13 8 20 -17 19
-261 -96 -332 -155 -67 -56 -166 -100 -166 -74 0 9 13 28 30 42 16 14 39 59
50 102 13 46 58 114 111 167 49 50 80 91 68 91 -39 0 -205 -171 -234 -240 -45
-108 -118 -194 -174 -205 -58 -11 -59 -9 -30 51 15 31 4 25 -35 -18 -62 -69
-146 -107 -146 -66 0 14 -13 8 -28 -13 -16 -22 -36 -40 -45 -41 -19 -2 -102
-34 -208 -79 -39 -17 -84 -34 -100 -37 -16 -3 -118 -47 -226 -99 -108 -51
-203 -93 -210 -93 -8 0 -59 -29 -113 -65 -228 -149 -514 -273 -660 -287 -144
-13 -310 16 -310 54 0 11 -9 15 -20 8 -11 -7 -14 1 -8 19 8 19 1 31 -16 31
-87 0 -143 133 -61 146 50 7 50 8 -11 11 -90 4 -184 56 -184 101 0 87 159 130
360 97 l90 -15 -80 32 c-61 23 -114 28 -220 17 -344 -33 -444 8 -331 136 99
113 301 171 441 126 39 -12 45 -10 27 9 -84 88 -337 29 -517 -120 -255 -213
-417 -102 -230 157 119 163 306 232 480 177 l50 -16 -50 30 c-191 116 -444
-25 -582 -323 -81 -176 -147 -234 -215 -192 -74 47 -39 321 40 301 32 -9 35
-6 15 18 -19 23 -15 39 23 79 25 27 39 49 32 49 -8 0 -36 -22 -61 -50 l-46
-49 -162 127 c-211 167 -271 201 -409 232 -67 15 -115 37 -115 52 0 14 -16 35
-35 46 -19 12 -24 21 -11 21 33 1 125 -39 191 -84 30 -21 55 -28 55 -17 0 26
-167 112 -255 131 -75 16 -87 64 -20 78 29 6 20 9 -25 9 -108 0 -113 3 -60 33
129 75 259 88 420 43 44 -13 43 -10 -10 21 -106 62 -520 11 -477 -58 7 -11
-28 3 -76 30 -48 26 -99 72 -113 101 -21 43 -40 54 -94 54 -52 0 -79 15 -119
65 -50 63 -52 64 -63 20z m352 -489 c0 -15 -78 -6 -180 19 -44 11 -40 14 30
24 75 11 150 -10 150 -43z m19 -65 c14 -17 31 -28 38 -27 68 17 169 -46 121
-75 -14 -9 -18 -46 -11 -97 l12 -82 -50 108 c-27 59 -49 115 -49 125 0 9 -7
16 -15 14 -20 -5 -125 39 -125 53 0 22 56 9 79 -19z m261 -43 c44 -18 80 -40
80 -49 0 -14 -172 50 -198 74 -21 18 44 4 118 -25z m416 -116 c52 -26 127 -74
167 -105 40 -31 88 -66 107 -77 32 -20 33 -27 2 -116 -17 -53 -32 -127 -32
-166 0 -81 -82 -179 -133 -160 -16 7 -38 12 -46 12 -75 0 -28 120 74 190 41
27 65 50 55 50 -34 0 -138 -71 -200 -137 -105 -110 -159 -13 -57 101 19 20 29
41 22 47 -14 14 -95 -89 -95 -121 0 -14 -13 -36 -30 -50 -16 -13 -25 -33 -19
-42 21 -34 -66 -18 -113 20 -113 91 57 232 343 284 169 30 206 59 43 34 -274
-42 -554 -147 -570 -214 -5 -24 -14 -17 -34 23 -31 65 -1 185 64 254 23 25 28
41 13 41 -14 0 -7 13 14 28 26 19 50 22 72 10 55 -29 70 -21 21 13 -44 31 -61
89 -26 89 24 0 202 -198 202 -225 0 -12 5 -17 11 -10 14 13 -62 167 -91 185
-11 7 -20 30 -20 51 0 57 136 52 256 -9z m-596 -50 c0 -20 -15 -49 -34 -65
-29 -24 -32 -23 -20 10 8 20 14 49 14 65 0 15 9 28 20 28 11 0 20 -17 20 -38z
m-16 -467 c3 -29 8 -49 13 -45 5 5 27 -2 51 -15 23 -13 60 -26 81 -30 60 -9
97 -78 42 -78 -16 0 -25 6 -20 14 15 24 -44 38 -67 15 -13 -13 -33 -7 -60 20
-23 23 -46 35 -52 29 -7 -6 -12 8 -12 31 0 28 -9 39 -28 32 -15 -6 -33 -2 -40
9 -6 10 2 24 19 31 22 8 28 25 18 57 -12 41 -10 42 19 14 17 -16 34 -54 36
-84z m398 -95 c21 0 38 -10 38 -22 0 -27 -100 -6 -130 26 -14 15 -9 18 17 9
20 -7 54 -13 75 -13z m788 0 c-7 -11 -3 -20 8 -20 11 0 24 7 30 16 9 16 54 15
211 -3 121 -14 100 -56 -22 -45 -59 6 -89 5 -67 -1 81 -24 135 -48 126 -57 -5
-5 -40 0 -77 11 -67 19 -340 -44 -338 -79 2 -45 188 -125 299 -129 66 -1 120
-10 120 -18 0 -8 16 -15 35 -15 28 1 29 4 7 18 -15 10 -21 27 -14 38 14 23
-16 35 -143 54 -83 13 -110 38 -60 55 37 12 96 -7 84 -27 -6 -10 3 -12 20 -6
17 7 25 22 18 34 -8 11 6 7 31 -10 25 -18 63 -27 86 -21 31 8 38 4 27 -14 -13
-20 -7 -20 28 -2 42 23 103 1 98 -36 -9 -68 7 -103 48 -105 25 -2 2 -13 -51
-26 -53 -12 -90 -30 -81 -38 9 -9 1 -11 -17 -4 -80 31 -119 -115 -54 -198 46
-58 38 -94 -10 -53 -47 38 -111 158 -89 165 33 11 -6 78 -41 71 -17 -4 -30
-17 -28 -29 5 -23 -106 -75 -175 -83 -12 -2 -16 -11 -10 -21 17 -28 -29 -52
-189 -99 -180 -52 -218 -53 -110 -3 44 20 67 38 51 39 -16 0 1 23 39 51 37 28
59 50 47 50 -11 0 -20 13 -20 28 0 32 86 28 151 -7 52 -28 62 -27 62 9 0 17
12 30 28 30 15 0 38 14 52 30 17 21 18 30 2 30 -12 0 -22 14 -22 30 0 17 -7
31 -15 32 -102 13 -305 10 -305 -4 0 -10 8 -18 18 -18 9 0 22 -17 27 -38 9
-34 6 -35 -43 -10 -28 15 -67 23 -85 17 -19 -6 -39 -1 -46 10 -8 13 1 16 23 8
26 -9 30 -7 16 10 -12 12 -57 35 -100 51 -66 24 -71 29 -30 31 74 2 113 32 67
49 -20 8 -39 5 -43 -7 -11 -32 -64 -25 -64 8 0 20 12 25 33 17 22 -8 29 -5 20
9 -15 24 133 22 267 -3 l70 -13 -60 26 c-67 28 -89 75 -35 75 19 1 58 18 85
40 l50 39 -50 2 -50 2 50 20 c28 12 64 29 80 38 40 22 44 22 30 -1z m-510
-111 c0 -25 -105 -189 -121 -189 -46 0 -36 49 24 119 62 72 97 97 97 70z m289
-361 c38 -38 22 -64 -77 -132 l-62 -43 55 60 c61 66 71 107 25 107 -16 0 -30
9 -30 20 0 31 53 24 89 -12z m871 -8 c0 -27 -17 -43 -55 -51 -30 -7 -90 -29
-133 -51 -43 -21 -80 -36 -84 -33 -19 20 89 95 137 95 14 0 42 18 60 40 44 51
75 51 75 0z m-460 -180 c-11 -21 -19 -49 -18 -64 1 -14 17 8 37 50 37 81 61
66 51 -30 -5 -41 1 -51 25 -41 21 8 27 4 17 -12 -8 -12 -28 -23 -45 -23 -20 0
-27 -11 -20 -30 7 -16 3 -30 -8 -30 -10 0 -19 18 -19 40 0 22 -9 40 -20 40
-25 0 -25 -5 0 -71 21 -54 22 -54 185 -44 216 13 325 -24 305 -103 -7 -29 -14
-67 -16 -86 -5 -56 -34 -18 -34 45 0 54 -6 59 -72 59 -72 0 -188 -87 -188
-141 0 -14 24 -1 53 28 64 64 147 72 147 14 0 -22 -18 -49 -40 -61 -51 -28
-51 -73 1 -100 54 -29 28 -66 -38 -54 -34 7 -60 -1 -76 -23 -21 -29 -26 -27
-45 21 -19 52 -27 54 -146 53 -69 -1 -166 9 -216 23 -49 14 -166 42 -260 62
-101 21 -129 31 -70 25 55 -6 136 -15 180 -19 44 -4 118 -10 165 -15 49 -5 79
0 73 11 -7 10 5 31 25 47 33 25 25 28 -79 28 -65 1 -111 9 -105 19 7 11 -71
19 -184 20 -218 2 -489 40 -472 67 6 10 25 12 42 6 16 -6 40 -3 53 7 21 18
224 64 297 69 21 1 32 13 26 27 -5 14 1 26 15 26 15 0 13 8 -6 20 -27 17 -27
19 0 20 27 1 27 3 0 21 -22 15 -2 19 75 15 94 -5 103 -2 93 31 -10 32 -4 35
47 24 41 -9 66 -3 84 18 14 17 45 31 68 31 24 0 56 9 72 19 42 26 64 5 41 -39z"/>
<path d="M1860 1314 c0 -27 19 -34 90 -34 52 0 90 9 90 22 0 12 -13 17 -29 11
-17 -6 -35 -2 -42 9 -8 13 -21 13 -37 -1 -17 -14 -32 -13 -48 3 -19 19 -24 16
-24 -10z"/>
<path d="M2031 1002 c-37 -15 -37 -16 4 -27 24 -6 59 1 79 16 43 33 -10 39
-83 11z"/>
<path d="M2100 780 c-15 -10 -35 -13 -44 -7 -9 5 -16 1 -16 -10 0 -11 -17 -15
-38 -9 -21 5 -44 0 -51 -12 -11 -18 33 -33 54 -19 3 2 25 -7 50 -20 37 -20 42
-19 32 7 -8 21 -2 27 18 19 17 -6 35 2 42 19 14 38 -10 55 -47 32z"/>
<path d="M1735 666 c-52 -5 -95 -17 -95 -27 0 -18 166 -31 210 -17 38 12 160
4 200 -13 37 -16 38 -15 7 17 -37 36 -170 53 -322 40z"/>
<path d="M2230 580 l-80 -14 95 -3 c52 -2 95 6 95 17 0 11 -7 19 -15 17 -8 -1
-51 -9 -95 -17z"/>
</g>
</svg>
