<?xml version="1.0" encoding="utf-8"?>
<svg width="600px" height="600" xmlns="http://www.w3.org/2000/svg">
  <g transform="matrix(2.000004, 0, 0, 1.431543, -225.407364, 0.003305)">
    <path d="M 227.762 0.7 C 235.468 0 243.875 0.7 251.58 0 C 257.885 0 260.687 2.802 264.891 2.802 C 271.896 7.705 269.094 15.411 273.297 20.315 C 270.495 14.711 270.495 8.406 273.997 3.502 C 281.703 7.705 292.211 3.502 299.917 6.304 C 330.741 4.203 363.666 4.203 393.789 2.101 C 397.992 3.502 400.794 4.903 402.195 7.705 C 407.799 15.411 407.099 23.818 406.398 32.224 C 402.896 30.823 401.495 35.026 400.094 36.427 C 402.195 34.326 404.297 31.524 407.099 35.727 C 408.5 42.732 409.901 48.336 409.901 53.941 C 408.5 60.245 400.094 59.545 397.291 59.545 C 400.094 60.245 407.799 57.443 410.602 64.449 C 408.5 91.769 410.602 118.39 412.703 143.609 C 408.5 149.914 411.302 156.919 407.799 161.122 C 404.297 163.224 402.195 163.924 400.794 165.326 C 397.291 164.625 395.19 163.924 393.789 162.523 C 395.19 163.924 396.591 164.625 398.692 165.326 C 402.896 164.625 405.698 161.823 409.2 161.122 C 412.703 173.732 412.003 186.342 412.003 196.85 C 408.5 214.363 409.901 231.176 404.997 245.887 C 404.297 250.791 402.195 252.192 399.393 253.593 C 395.89 252.892 393.789 251.491 392.388 249.39 C 397.992 254.293 402.896 257.796 406.398 263.4 C 401.495 288.619 406.398 315.94 404.297 339.058 C 406.398 345.363 413.404 346.063 410.602 353.069 C 409.901 358.673 409.2 367.079 403.596 369.881 C 404.297 368.48 407.099 368.48 407.099 370.582 C 409.2 380.389 411.302 390.897 412.703 398.603 C 410.602 405.609 409.2 411.913 404.997 415.416 C 378.377 416.117 353.158 417.518 326.537 418.218 C 323.735 416.117 322.334 415.416 320.233 414.015 C 318.131 416.117 316.73 418.218 313.928 418.218 C 299.917 420.32 287.308 418.218 273.997 417.518 C 266.992 417.518 264.19 413.314 261.388 409.812 C 259.987 407.01 261.388 405.609 262.088 404.208 C 259.987 400.705 259.987 397.903 257.185 396.502 C 258.586 397.903 260.687 400.004 261.388 402.106 C 258.586 409.111 261.388 413.314 258.586 417.518 C 252.281 415.416 243.875 416.117 239.671 412.614 C 240.372 414.716 237.57 415.416 236.169 414.716 C 212.35 412.614 186.431 418.919 163.313 413.314 C 160.511 412.614 159.11 411.213 158.409 409.812 C 158.409 411.213 160.511 413.314 157.008 414.015 C 152.105 415.416 147.901 416.117 143.698 416.817 C 132.49 414.015 125.484 405.609 117.778 399.304 C 111.474 390.197 117.078 380.389 114.976 371.983 C 119.88 365.678 124.083 370.582 127.586 372.684 C 122.682 369.181 118.479 367.78 114.976 364.978 C 116.377 337.657 109.372 310.336 115.677 283.716 C 121.281 280.914 117.078 271.807 123.383 271.106 C 129.688 270.406 133.891 274.609 138.794 275.309 C 142.998 272.507 145.8 271.106 146.5 268.304 C 144.399 269.005 141.597 273.208 138.094 273.908 C 132.49 271.106 128.286 269.005 123.383 268.304 C 114.976 266.202 114.976 259.197 113.575 253.593 C 112.174 225.571 116.377 194.047 114.976 164.625 C 119.18 157.62 121.982 169.529 128.286 165.326 C 123.383 166.727 120.581 163.224 118.479 159.721 C 114.976 155.518 112.875 151.315 112.875 147.112 C 111.474 124.695 119.18 103.679 117.078 80.561 C 122.682 72.855 126.185 86.165 131.789 79.16 C 126.885 84.064 124.083 74.957 119.88 77.058 C 117.778 74.957 116.377 72.155 116.377 70.053 C 116.377 49.737 115.677 28.021 116.377 9.807 C 117.778 9.107 121.281 9.107 121.982 10.508 C 122.682 -7.706 153.506 15.411 162.613 8.406 C 166.816 11.208 164.714 14.01 166.115 15.411 C 168.217 12.609 166.115 9.107 168.217 7.005 C 171.019 4.203 173.121 2.802 176.623 3.502 C 193.436 1.401 210.949 2.101 226.361 0.7" fill="rgb(228,184,121)"/>
    <path d="M 154.907 15.411 C 144.399 21.716 121.982 11.909 136.693 38.529 C 133.891 42.032 133.19 39.93 131.789 43.433 C 131.089 47.636 135.292 45.534 137.393 47.636 C 135.292 53.24 131.789 49.037 131.089 53.24 C 133.19 56.042 135.292 53.24 135.992 55.342 C 133.19 57.443 131.089 56.743 128.286 58.144 C 125.484 60.245 128.987 64.449 124.083 65.85 C 129.688 72.855 131.789 69.352 133.19 67.951 C 135.292 71.454 137.393 72.855 135.292 76.358 C 147.901 73.556 133.891 81.962 147.201 79.86 C 140.896 81.962 131.789 82.663 131.089 90.368 C 128.987 105.08 127.586 124.695 130.388 140.807 C 128.286 147.112 125.484 151.315 125.484 154.818 C 129.688 162.523 131.089 163.224 138.794 169.529 C 135.292 173.031 132.49 169.529 130.388 173.031 C 132.49 180.037 131.089 184.24 135.292 189.144 C 128.987 194.748 126.885 196.85 124.784 198.951 C 126.885 203.154 127.586 198.251 132.49 198.951 C 133.19 209.459 126.185 203.855 124.784 207.358 C 128.286 218.566 138.094 236.78 140.196 252.892 C 138.794 258.497 140.896 264.801 134.591 267.603 C 143.698 264.101 147.201 268.304 154.907 257.796 C 151.404 263.4 150.003 271.106 145.099 273.208 C 143.698 277.411 141.597 280.914 144.399 283.716 C 141.597 283.015 137.393 279.513 135.992 278.812 C 132.49 280.914 135.292 284.416 133.891 286.518 C 134.591 294.924 133.891 297.726 135.992 302.63 C 136.693 304.031 135.992 308.935 133.19 308.234 C 136.693 322.946 132.49 334.154 133.891 344.662 C 137.393 340.459 135.292 351.668 138.094 353.069 C 137.393 357.272 134.591 365.678 133.19 367.78 C 133.19 369.881 136.693 371.983 133.19 374.085 C 135.992 373.384 137.393 373.384 139.495 373.384 C 138.794 378.288 138.094 384.593 134.591 384.593 C 142.297 393.7 150.704 386.694 152.805 395.101 C 155.607 392.999 161.212 392.999 159.81 387.395 C 161.212 391.598 163.313 395.101 161.912 399.304 C 166.816 400.004 169.618 401.405 173.121 403.507 C 180.826 407.01 180.126 398.603 192.736 399.304 C 190.634 397.202 189.933 395.801 187.832 395.101 C 191.334 393.7 187.131 390.197 191.334 389.496 C 201.842 395.101 221.457 402.106 222.859 408.411 C 229.163 409.111 232.666 409.812 236.869 410.512 C 234.768 407.71 240.372 402.806 238.971 398.603 C 243.174 401.405 245.276 404.908 243.875 409.812 C 250.179 408.411 255.784 407.71 257.185 409.812 C 261.388 407.01 250.88 407.71 249.479 408.411 C 253.682 395.801 250.88 410.512 256.484 403.507 C 250.88 397.903 253.682 392.298 248.778 388.095 C 250.88 385.994 248.778 383.892 250.179 382.491 C 259.286 388.095 263.489 400.004 269.794 402.806 C 273.297 406.309 272.596 401.405 278.201 403.507 C 277.5 407.01 278.201 409.111 282.404 409.111 C 285.206 409.812 288.709 407.01 290.11 407.01 C 290.81 403.507 286.607 406.309 285.206 402.806 C 285.206 400.004 285.206 399.304 283.805 397.903 C 299.217 400.004 304.12 402.806 313.227 399.304 C 315.329 399.304 315.329 396.502 319.532 396.502 C 334.944 396.502 346.853 395.101 351.056 393.7 C 355.259 393.7 352.457 392.298 351.757 389.496 C 355.96 388.796 358.062 390.897 358.762 392.298 C 359.463 390.897 356.66 390.197 358.062 388.095 C 360.864 387.395 365.067 390.197 364.366 386.694 C 365.767 389.496 370.671 385.293 367.869 390.897 C 376.976 385.293 376.976 383.892 386.083 379.689 C 386.083 376.887 387.484 374.085 387.484 369.881 C 390.286 368.48 388.184 370.582 390.987 370.582 C 386.083 365.678 393.789 365.678 392.388 359.373 C 393.789 357.972 394.489 357.972 395.89 358.673 C 393.789 357.272 390.286 357.972 390.987 353.069 C 390.286 350.266 390.286 348.865 389.586 346.764 C 391.687 341.86 395.19 346.063 394.489 346.063 C 395.19 345.363 393.088 343.962 391.687 343.962 C 390.286 335.555 395.19 326.448 390.286 320.143 C 397.992 319.443 390.286 319.443 394.489 313.839 C 394.489 290.021 387.484 280.213 388.184 266.903 C 390.286 261.299 390.286 255.694 393.088 259.898 C 388.184 252.192 388.885 254.994 380.479 252.892 C 386.083 250.791 386.783 240.983 394.489 243.085 C 394.489 232.577 394.489 226.272 388.885 216.465 C 389.586 211.561 391.687 209.459 393.789 206.657 C 386.783 208.759 393.088 205.256 389.586 202.454 C 393.789 198.951 394.489 196.85 395.89 193.347 C 393.088 193.347 393.088 189.144 391.687 189.144 C 395.19 193.347 394.489 185.641 397.291 185.641 C 394.489 183.539 398.692 181.438 394.489 180.037 C 401.495 179.336 402.195 181.438 404.997 179.336 C 402.195 174.432 398.692 175.834 402.195 171.63 C 395.89 168.828 396.591 178.636 393.088 173.732 C 393.088 170.93 395.89 170.93 395.89 170.229 C 391.687 166.026 390.286 163.924 386.783 159.721 C 383.981 159.021 383.281 161.122 381.179 161.122 C 386.083 157.62 383.281 156.219 386.783 154.117 C 389.586 154.117 389.586 158.32 390.987 156.919 C 390.286 152.716 388.184 154.117 386.783 150.614 C 393.088 152.015 393.088 152.015 398.692 154.117 C 399.393 147.812 393.789 149.914 391.687 147.812 C 393.088 147.812 394.489 145.01 395.89 145.01 C 388.184 144.31 400.094 141.507 395.89 142.208 C 398.692 140.807 400.094 142.208 399.393 143.609 C 394.489 137.304 400.094 134.502 399.393 130.999 C 395.19 128.197 397.291 122.593 394.489 121.192 C 395.89 119.09 396.591 120.491 397.291 120.491 C 393.789 113.486 397.291 110.684 397.291 108.582 C 395.89 104.379 392.388 104.379 389.586 100.176 C 392.388 90.368 384.682 93.171 390.987 81.962 C 388.184 79.16 386.783 77.058 383.981 74.957 C 385.382 71.454 386.783 69.352 387.484 67.251 C 389.586 70.053 379.078 65.85 382.58 72.855 C 380.479 72.155 376.976 70.053 376.976 70.053 C 381.88 70.053 376.976 58.844 382.58 58.844 C 379.778 58.144 384.682 52.54 380.479 51.139 C 375.575 46.235 381.179 51.839 373.473 49.737 C 374.174 46.235 372.773 44.133 369.971 44.133 C 366.468 39.229 362.265 42.732 358.062 40.631 C 356.66 32.224 341.949 35.026 338.447 28.721 C 337.046 34.326 331.441 26.62 330.741 30.823 C 322.334 25.919 322.334 22.417 313.928 19.615 C 305.521 18.914 303.42 18.914 293.612 17.513 C 291.511 18.213 285.206 18.213 282.404 22.417 C 283.805 29.422 278.201 27.32 278.901 30.823 C 279.602 30.823 280.302 30.123 281.003 28.721 C 284.505 28.721 283.805 31.524 284.505 32.224 C 280.302 30.823 281.703 37.828 277.5 32.925 C 276.8 40.631 275.399 40.631 277.5 46.235 C 273.297 43.433 272.596 41.331 268.393 44.133 C 270.495 39.229 273.297 33.625 269.794 30.123 C 266.992 32.224 263.489 30.823 261.388 30.123 C 262.789 26.62 264.891 29.422 266.992 28.021 C 267.693 26.62 266.292 26.62 265.591 25.219 C 250.88 15.411 221.457 21.716 216.554 16.112 C 202.543 20.315 194.137 18.914 185.73 21.716 C 186.431 23.818 191.334 23.117 191.334 28.021 C 187.832 31.524 180.126 32.224 181.527 39.229 C 178.725 32.925 182.228 33.625 172.42 30.823 C 175.222 28.721 175.923 31.524 178.725 30.123 C 176.623 30.123 175.222 27.32 173.821 29.422 C 181.527 37.128 171.019 37.128 180.826 41.331 C 178.024 46.235 175.923 47.636 175.923 52.54 C 172.42 42.732 168.217 37.128 159.81 33.625 C 163.313 28.721 163.313 35.026 164.014 32.224 C 160.511 25.919 164.014 23.818 160.511 16.812 C 158.409 14.01 155.607 14.711 154.206 15.411" fill="rgb(237,196,131)"/>
    <path d="M 235.468 23.117 M 235.468 21.716 M 236.869 22.417 L 237.57 22.417 C 248.778 27.32 258.586 27.32 265.591 32.224 C 266.992 35.026 263.489 33.625 262.789 32.925 C 260.687 36.427 264.891 34.326 266.292 35.727 C 262.088 39.229 270.495 43.433 264.891 43.433 C 274.698 47.636 266.992 51.839 278.901 49.737 C 275.399 42.032 283.104 44.133 281.703 39.229 C 285.907 37.128 288.709 42.032 291.511 43.433 C 290.81 43.433 285.907 38.529 286.607 35.026 C 290.11 37.828 294.313 34.326 297.115 32.925 C 299.917 33.625 298.516 30.823 299.217 30.123 C 301.318 30.823 306.222 28.021 307.623 32.925 C 306.923 30.123 306.923 28.021 309.725 27.32 C 313.928 27.32 316.029 30.823 320.233 30.123 C 320.933 35.026 322.334 38.529 323.735 39.93 C 331.441 40.631 336.345 42.732 341.949 44.834 C 341.949 44.834 344.051 46.935 341.949 46.935 C 344.051 47.636 342.65 42.032 348.254 44.834 C 345.452 48.336 346.853 46.235 343.35 52.54 C 346.853 53.941 343.35 48.336 347.554 50.438 C 349.655 56.042 365.067 63.748 368.57 72.855 C 372.773 79.86 375.575 81.261 369.971 86.866 C 373.473 84.064 374.174 90.368 375.575 87.566 C 379.778 90.368 379.778 102.978 377.676 98.775 C 377.676 102.278 380.479 100.876 381.88 100.876 C 379.078 101.577 379.078 109.983 381.88 109.983 C 381.179 110.684 379.778 111.384 378.377 110.684 C 379.078 112.786 381.88 112.085 381.88 114.887 C 381.88 112.085 384.682 112.786 383.281 110.684 L 383.981 109.983 L 384.682 109.283 L 386.083 109.283 C 386.083 111.384 387.484 114.887 384.682 117.689 C 388.184 115.588 390.286 120.491 390.987 121.892 C 388.184 124.695 390.286 130.999 384.682 126.796 C 390.987 132.4 381.88 130.999 386.083 135.903 C 383.281 133.802 381.179 133.802 378.377 134.502 C 381.88 134.502 382.58 135.903 384.682 137.304 C 383.981 140.106 381.179 138.705 379.778 139.406 C 379.078 139.406 382.58 143.609 386.083 145.01 C 387.484 150.614 383.981 153.416 379.778 152.015 C 380.479 156.919 379.078 159.721 379.078 163.224 C 379.078 163.224 380.479 161.122 382.58 163.224 C 380.479 175.834 386.083 172.331 386.783 182.138 C 385.382 185.641 383.981 187.743 380.479 188.443 C 380.479 193.347 380.479 191.245 383.981 191.245 C 378.377 198.251 387.484 208.058 379.778 213.662 C 382.58 215.764 383.281 225.571 386.083 229.775 C 383.281 236.78 379.778 236.78 374.874 242.384 C 381.179 240.983 379.078 238.181 387.484 240.283 C 379.778 240.983 385.382 248.689 379.078 248.689 C 383.281 258.497 378.377 276.71 381.179 287.218 C 382.58 291.422 379.078 292.823 379.078 289.32 C 381.179 292.122 383.981 294.224 386.083 296.325 C 383.281 305.432 385.382 314.539 386.083 317.341 C 383.281 318.042 384.682 317.341 381.88 320.143 C 385.382 323.646 381.179 327.849 387.484 327.149 C 386.083 337.657 383.981 336.956 380.479 348.865 C 379.078 351.668 380.479 358.673 381.88 362.876 C 380.479 364.978 379.078 363.577 379.078 362.876 C 376.275 366.379 376.976 371.983 375.575 376.887 C 369.27 376.186 372.072 371.282 370.671 370.582 C 362.965 372.684 358.062 376.186 353.858 376.887 C 357.361 382.491 339.147 387.395 341.949 389.496 C 334.944 388.095 337.746 385.994 328.639 388.796 C 330.741 386.694 328.639 383.892 331.441 383.892 C 327.238 385.293 325.136 388.095 324.436 389.496 C 314.628 388.796 310.425 392.298 299.917 386.694 C 291.511 389.496 293.612 388.796 289.409 392.999 C 285.206 390.897 285.907 388.796 283.104 386.694 C 280.302 390.197 274.698 388.796 279.602 392.298 C 271.195 392.999 270.495 387.395 265.591 389.496 C 261.388 385.994 267.693 389.496 266.992 386.694 C 264.891 387.395 261.388 387.395 259.987 390.197 C 259.987 388.796 257.885 386.694 257.185 386.694 L 257.185 385.994 L 257.185 384.593 L 258.586 385.293 L 259.286 386.694 C 259.987 386.694 260.687 385.293 262.088 385.994 C 262.789 383.892 263.489 383.192 261.388 381.79 C 263.489 382.491 261.388 383.892 259.286 385.994 C 261.388 383.192 250.179 384.593 248.778 378.288 C 245.976 381.79 248.778 387.395 243.875 389.496 C 241.072 395.801 229.864 394.4 231.265 399.304 C 225.661 399.304 218.655 397.903 212.35 396.502 C 204.645 393.7 198.34 385.994 195.538 382.491 C 189.933 388.796 184.329 381.09 181.527 385.994 C 181.527 382.491 176.623 383.892 175.923 382.491 C 171.019 381.79 173.821 384.593 174.522 385.994 C 169.618 387.395 171.72 381.79 167.516 383.892 C 167.516 387.395 165.415 384.593 164.714 388.095 C 161.912 385.293 160.511 383.892 159.81 381.79 C 150.704 380.389 151.404 376.887 147.201 375.486 C 145.099 371.282 146.5 369.181 149.302 369.181 C 142.998 362.176 142.998 354.47 140.896 350.266 C 142.297 347.464 140.196 346.063 141.597 343.962 C 145.8 345.363 146.5 341.16 149.302 340.459 C 150.003 337.657 144.399 336.956 144.399 338.357 C 143.698 332.053 147.901 336.956 145.099 331.352 C 136.693 330.652 147.901 325.748 138.794 325.047 C 147.901 319.443 135.292 313.839 143.698 310.336 C 143.698 308.935 140.896 311.037 140.196 309.635 C 141.597 306.833 142.998 307.534 143.698 307.534 C 138.094 304.732 144.399 297.026 140.196 294.224 C 143.698 299.127 141.597 292.122 145.099 289.32 C 141.597 276.01 148.602 283.015 148.602 271.106 C 155.607 271.106 151.404 259.197 160.511 257.796 C 157.008 256.395 151.404 257.796 150.704 253.593 C 151.404 256.395 149.302 259.197 145.8 259.898 C 146.5 257.095 143.698 256.395 142.297 254.293 C 144.399 255.694 145.099 246.587 148.602 251.491 C 145.8 246.587 143.698 248.689 140.896 246.587 C 149.302 247.989 138.094 238.882 146.5 239.582 C 142.998 238.181 142.998 233.277 139.495 231.876 C 140.196 231.876 136.693 225.571 143.698 224.17 C 139.495 220.668 140.196 215.764 137.393 214.363 C 145.099 212.962 131.789 203.855 144.399 206.657 C 140.196 203.154 142.297 196.85 140.896 191.245 C 138.794 189.844 136.693 185.641 136.693 184.94 C 137.393 180.037 133.891 173.732 138.794 171.63 C 137.393 165.326 135.992 163.924 135.992 159.721 C 136.693 155.518 139.495 154.117 140.196 152.015 C 135.292 146.411 140.896 141.507 135.992 138.705 C 140.896 134.502 131.789 128.898 139.495 121.192 C 138.094 121.892 137.393 125.395 135.292 123.994 C 136.693 118.39 136.693 114.187 138.794 111.384 C 133.19 107.882 139.495 100.876 137.393 100.876 C 140.196 98.775 139.495 95.272 142.998 94.572 C 145.099 89.668 141.597 86.866 144.399 84.064 C 145.8 83.363 148.602 84.064 150.003 84.064 C 147.901 85.465 147.901 79.86 146.5 77.058 C 146.5 71.454 152.105 77.759 150.704 74.957 C 147.901 72.855 145.8 75.657 145.099 74.957 C 148.602 71.454 143.698 70.753 147.201 65.85 C 141.597 68.652 142.297 60.245 137.393 61.647 C 145.8 60.245 136.693 49.737 147.901 52.54 C 142.998 46.235 145.099 51.839 140.896 48.336 C 140.196 38.529 142.297 48.336 144.399 46.235 C 146.5 42.732 142.297 40.631 147.901 40.631 C 147.901 41.331 152.805 38.529 151.404 43.433 C 157.709 39.229 156.308 39.93 166.816 38.529 C 166.816 45.534 175.222 56.042 176.623 58.144 C 180.126 49.737 182.228 49.737 187.832 48.336 C 181.527 41.331 193.436 39.93 189.233 37.828 C 192.035 35.026 195.538 32.925 197.639 37.128 C 197.639 31.524 199.04 29.422 201.142 28.021 C 206.046 25.219 209.548 24.518 212.35 24.518 C 220.757 24.518 224.96 27.32 228.463 29.422 C 229.864 25.919 231.965 24.518 233.367 23.117" fill="rgb(238,199,134)"/>
    <path d="M 236.169 23.117 C 233.367 23.818 229.864 25.919 229.864 28.721 C 221.457 25.219 210.249 23.117 201.842 28.021 C 200.441 30.823 197.639 30.823 200.441 35.727 C 196.238 37.828 192.736 32.925 190.634 37.128 C 194.137 41.331 182.228 40.631 189.933 47.636 C 181.527 50.438 180.826 50.438 179.425 58.144 C 174.522 56.743 166.816 46.235 166.816 39.93 C 157.008 40.631 157.008 39.93 152.105 42.032 C 150.704 42.032 151.404 39.93 148.602 40.631 C 140.896 42.032 147.901 42.032 145.099 46.935 C 138.094 39.93 141.597 51.139 144.399 48.336 C 145.099 50.438 148.602 48.336 148.602 51.839 C 137.393 49.737 146.5 60.245 136.693 60.245 C 142.297 59.545 142.297 68.652 146.5 65.149 C 144.399 70.053 149.302 72.855 144.399 72.855 C 149.302 76.358 147.201 85.465 152.105 81.962 C 148.602 85.465 146.5 83.363 144.399 84.064 C 142.297 86.866 145.8 89.668 142.998 93.171 C 140.196 95.272 141.597 99.475 137.393 99.475 C 140.196 101.577 133.891 107.181 140.196 109.983 C 131.789 122.593 140.196 134.502 136.693 138.005 C 141.597 141.507 135.992 146.411 141.597 149.914 C 140.196 154.117 137.393 155.518 136.693 157.62 C 136.693 163.924 138.794 165.326 140.196 170.229 C 134.591 173.732 138.094 180.037 135.992 183.539 C 137.393 187.743 140.196 187.743 142.297 189.144 C 142.998 195.448 141.597 203.855 142.998 203.855 C 133.19 206.657 145.8 210.86 138.094 212.962 C 140.896 215.764 140.196 220.668 142.998 222.069 C 137.393 226.272 140.896 230.475 140.896 231.176 C 143.698 233.277 143.698 237.481 146.5 238.181 C 141.597 240.283 145.099 243.085 142.297 245.887 C 143.698 247.288 146.5 245.887 146.5 249.39 C 144.399 250.09 145.8 254.293 143.698 254.293 C 145.099 255.694 147.201 257.796 144.399 259.898 C 147.901 258.497 150.704 257.095 150.003 252.192 C 151.404 257.095 157.008 255.694 159.81 256.395 C 152.105 259.898 156.308 271.106 150.003 269.705 C 150.704 283.015 141.597 276.71 147.901 286.518 C 143.698 288.619 142.998 300.529 140.896 292.823 C 145.099 297.026 138.794 304.732 145.099 306.833 C 142.998 308.234 141.597 308.234 139.495 308.234 C 140.196 311.037 144.399 307.534 145.099 311.037 C 135.992 313.138 148.602 320.143 138.794 324.347 C 148.602 327.149 135.292 329.951 146.5 330.652 C 147.901 334.154 142.297 335.555 143.698 337.657 C 145.099 333.454 147.201 340.459 150.003 336.956 C 150.003 346.063 139.495 341.86 142.297 348.865 C 143.698 354.47 143.698 362.176 148.602 367.079 C 147.901 370.582 145.8 370.582 147.201 374.785 C 153.506 377.587 150.003 380.389 159.11 380.389 C 161.212 382.491 161.912 385.293 163.313 387.395 C 165.415 384.593 166.816 386.694 166.115 383.192 C 171.019 381.09 171.019 385.994 172.42 385.994 C 171.72 384.593 171.72 381.09 175.222 381.09 C 175.923 382.491 181.527 382.491 180.826 385.293 C 184.329 380.389 189.933 388.095 193.436 381.09 C 199.04 385.293 203.944 393.7 211.65 395.101 C 218.655 397.202 224.96 398.603 230.564 397.903 C 229.864 393.7 240.372 395.101 242.473 390.897 C 248.778 387.395 243.875 381.09 246.677 378.288 C 250.88 379.689 256.484 385.994 258.586 382.491 C 259.286 385.293 255.083 385.994 259.987 388.796 C 261.388 386.694 264.891 386.694 266.992 385.994 C 268.393 388.095 265.591 388.796 264.19 388.095 C 271.195 386.694 271.195 392.298 277.5 391.598 C 273.297 389.496 281.003 388.095 281.003 385.994 C 285.206 387.395 287.308 390.897 288.008 392.298 C 292.912 388.095 292.211 388.796 299.217 388.095 C 304.12 390.897 311.826 385.293 314.628 392.999 C 322.334 383.892 320.233 397.903 329.34 381.79 C 331.441 385.293 330.04 384.593 329.34 388.095 C 337.046 385.293 336.345 387.395 340.548 390.197 C 339.848 385.994 356.66 381.79 351.056 376.186 C 356.66 374.785 363.666 371.983 369.27 371.282 C 374.174 370.582 369.27 375.486 374.174 376.186 C 374.874 370.582 376.976 366.379 379.078 363.577 C 380.479 361.475 379.778 363.577 380.479 364.277 C 379.778 358.673 378.377 351.668 380.479 348.865 C 383.281 336.956 385.382 336.956 386.083 327.849 C 380.479 328.55 384.682 323.646 381.88 321.545 C 383.981 317.341 383.981 316.641 386.083 318.742 C 384.682 315.24 382.58 306.133 386.083 297.026 C 383.981 293.523 380.479 293.523 378.377 291.422 C 379.778 288.619 381.179 292.823 381.88 288.619 C 377.676 276.71 382.58 258.497 378.377 251.491 C 384.682 247.288 379.078 241.684 386.783 240.283 C 377.676 236.78 382.58 245.186 374.174 243.785 C 376.275 240.983 375.575 239.582 377.676 237.481 C 379.778 238.181 382.58 237.481 382.58 238.882 C 383.281 238.181 381.179 238.181 380.479 236.079 C 387.484 237.481 380.479 233.277 386.783 230.475 C 383.281 223.47 381.179 217.165 380.479 215.764 C 387.484 208.759 378.377 199.652 382.58 191.946 C 381.179 192.646 379.078 191.245 379.778 189.144 C 383.281 187.042 384.682 185.641 386.083 182.138 C 386.083 175.133 383.281 175.133 381.88 171.63 C 383.281 168.128 384.682 172.331 385.382 168.828 C 381.88 170.229 383.281 157.62 377.676 166.026 C 378.377 159.721 379.778 156.919 379.078 152.716 C 382.58 152.015 386.783 151.315 384.682 145.711 C 380.479 144.31 381.179 140.106 378.377 141.507 C 380.479 138.005 383.281 139.406 384.682 138.005 C 381.88 134.502 380.479 136.604 376.976 135.203 C 379.778 133.802 383.981 132.4 383.981 135.903 C 380.479 130.299 390.987 131.7 383.281 126.796 C 390.987 130.999 386.083 124.695 390.286 122.593 L 391.687 124.695 L 390.286 122.593 C 388.885 121.192 388.184 116.288 383.981 119.09 C 386.783 115.588 385.382 109.983 385.382 109.983 C 384.682 111.384 383.981 112.786 382.58 114.187 C 380.479 114.187 381.179 112.786 379.078 112.786 C 384.682 113.486 374.174 102.978 381.88 102.278 C 379.078 103.679 376.976 100.176 376.976 98.775 C 379.778 102.978 379.078 90.368 375.575 89.668 C 373.473 89.668 373.473 85.465 370.671 88.967 C 374.874 81.261 372.072 80.561 369.971 73.556 C 365.067 65.149 349.655 55.342 346.853 53.941 C 344.751 49.037 347.554 56.743 343.35 53.24 C 344.051 46.235 348.254 46.235 349.655 46.235 C 341.949 42.732 346.152 48.336 343.35 49.037 C 341.249 46.935 342.65 46.235 341.949 44.834 C 336.345 43.433 331.441 41.331 323.735 41.331 C 323.035 39.229 319.532 35.727 319.532 32.224 C 315.329 31.524 313.928 28.021 310.425 28.721 C 306.222 28.721 309.725 30.823 309.024 32.224 C 304.821 28.021 303.42 30.823 299.917 30.123 C 299.217 31.524 300.618 35.026 297.816 35.026 C 295.013 35.026 290.11 38.529 288.709 35.727 C 288.008 37.128 287.308 39.229 289.409 39.93 C 285.206 39.93 283.104 37.128 280.302 40.631 C 281.003 39.229 283.104 39.229 283.104 39.93 C 278.901 44.133 278.901 44.133 278.901 50.438 C 266.292 52.54 273.297 46.935 265.591 44.133 C 269.094 43.433 260.687 38.529 266.292 36.427 C 264.19 35.026 260.687 37.128 260.687 33.625 C 263.489 32.224 264.891 33.625 266.992 32.925 C 258.586 28.021 248.778 28.021 237.57 23.117" fill="rgb(238,199,135)"/>
    <path d="M 284.505 7.705 C 268.393 11.909 281.703 20.315 275.399 31.524 L 278.201 32.925 L 277.5 32.925 L 276.8 34.326 C 275.399 37.828 273.297 41.331 275.399 44.834 C 269.094 38.529 276.099 37.828 271.896 35.026 C 272.596 32.224 271.195 28.721 270.495 30.123 C 271.195 30.123 272.596 32.224 271.896 32.925 C 269.094 37.128 274.698 40.631 269.094 42.032 C 271.195 39.93 271.896 41.331 273.997 43.433 L 275.399 45.534 L 276.099 46.235 L 276.8 45.534 C 273.997 41.331 276.099 39.93 276.8 33.625 C 281.703 36.427 279.602 30.823 283.104 32.925 C 284.505 26.62 281.003 30.823 278.201 31.524 C 277.5 27.32 283.104 28.021 280.302 23.117 C 285.206 18.213 290.81 17.513 292.912 16.112 C 302.719 18.213 306.923 18.213 312.527 20.315 C 323.035 21.716 323.035 25.219 330.04 30.823 C 334.243 28.021 342.65 30.823 351.056 34.326 C 353.158 36.427 360.864 35.727 356.66 39.93 C 362.965 39.93 371.372 40.631 372.072 44.834 C 373.473 46.235 374.874 48.336 373.473 49.737 C 378.377 50.438 379.078 48.336 381.88 50.438 C 385.382 51.839 380.479 58.844 383.281 57.443 C 377.676 58.144 382.58 70.753 376.275 68.652 C 377.676 71.454 380.479 70.753 381.88 72.155 C 378.377 63.748 388.885 71.454 385.382 63.048 C 388.885 67.951 386.083 71.454 384.682 73.556 C 387.484 76.358 388.885 79.16 390.286 81.261 C 389.586 86.165 390.286 91.069 388.184 91.069 C 395.89 90.368 386.083 105.78 398.692 105.08 C 397.992 111.384 394.489 113.486 398.692 119.791 C 397.291 121.892 396.591 119.791 395.89 119.791 C 397.992 122.593 395.89 128.197 400.794 128.898 C 400.094 137.304 396.591 129.598 394.489 130.299 C 395.89 133.101 397.992 132.4 400.094 134.502 C 395.89 140.807 401.495 142.908 395.19 142.908 C 394.489 145.711 397.291 143.609 397.291 145.711 C 395.89 145.01 394.489 147.812 393.088 147.812 C 394.489 148.513 400.094 147.812 399.393 154.117 C 393.789 152.716 392.388 152.716 388.885 149.914 C 387.484 152.716 393.088 152.015 388.885 155.518 C 384.682 152.015 386.783 159.021 381.179 159.721 C 383.281 159.721 384.682 158.32 386.083 158.32 C 390.286 163.224 392.388 165.326 395.89 168.828 C 396.591 171.63 393.789 170.93 394.489 173.031 C 395.89 175.834 395.19 171.63 397.291 171.63 L 398.692 170.93 L 399.393 171.63 L 402.195 170.93 C 400.794 176.534 401.495 173.732 404.297 178.636 C 401.495 182.839 402.195 179.336 395.89 180.037 C 399.393 181.438 395.19 184.24 398.692 184.94 C 395.89 184.24 395.19 194.748 391.687 187.743 C 393.088 191.245 394.489 191.946 397.291 191.946 C 395.19 197.55 393.789 198.951 390.987 201.753 C 393.789 205.956 386.783 208.058 395.19 205.956 C 390.286 209.459 390.987 215.063 387.484 215.764 C 389.586 215.063 392.388 220.668 393.789 224.871 C 393.789 229.074 397.291 236.78 394.489 240.983 C 390.286 238.181 383.981 252.892 381.88 250.791 C 387.484 254.994 390.286 250.791 390.987 257.796 C 387.484 260.598 388.885 271.807 388.885 277.411 C 392.388 280.914 393.789 301.229 394.489 312.438 C 393.789 315.94 394.489 319.443 390.987 320.143 C 393.088 324.347 395.19 333.454 390.987 337.657 C 393.789 341.16 390.987 345.363 396.591 343.962 C 394.489 349.566 393.789 342.561 390.987 346.063 C 390.987 348.865 390.987 350.266 390.286 352.368 C 390.987 357.972 394.489 355.871 395.89 357.272 C 389.586 358.673 395.19 367.78 388.184 368.48 C 388.184 374.085 386.083 378.288 387.484 380.389 C 376.976 382.491 379.078 388.796 369.971 387.395 C 365.067 386.694 363.666 389.496 358.762 388.095 C 357.361 390.897 361.564 390.197 360.163 392.999 C 357.361 391.598 355.96 389.496 353.158 390.197 C 354.559 392.999 353.858 394.4 351.757 395.801 C 348.254 395.801 332.142 397.202 320.933 396.502 C 314.628 397.202 317.431 400.705 315.329 402.806 C 313.227 399.304 309.024 401.405 308.324 400.004 C 306.923 404.208 304.12 401.405 302.719 402.806 C 298.516 395.101 290.11 402.106 285.206 397.903 C 282.404 404.908 290.11 403.507 292.211 405.609 C 288.709 409.111 284.505 409.111 282.404 409.812 C 277.5 409.812 276.8 406.309 278.901 404.908 C 272.596 402.106 273.297 407.01 269.794 404.208 C 263.489 400.004 259.286 388.796 250.88 383.892 C 249.479 390.197 255.083 397.202 257.185 403.507 C 248.078 409.812 254.383 400.705 250.88 404.208 C 250.88 405.609 248.778 407.01 249.479 408.411 C 246.677 409.111 247.377 409.812 246.677 411.213 C 242.473 407.71 244.575 401.405 239.671 399.304 C 240.372 404.208 234.067 408.411 238.971 411.913 C 238.971 409.111 238.971 405.609 239.671 402.106 C 242.473 406.309 243.174 408.411 242.473 411.213 C 247.377 411.213 252.281 414.716 256.484 415.416 C 256.484 412.614 258.586 414.716 258.586 409.812 C 255.784 407.71 254.383 410.512 250.179 409.111 C 257.185 407.01 257.185 407.01 258.586 405.609 C 252.981 392.298 259.987 396.502 250.179 385.994 C 269.794 397.903 259.286 412.614 271.896 410.512 C 288.008 409.812 301.318 402.806 316.029 404.208 C 316.73 411.213 319.532 408.411 320.933 411.213 C 323.735 411.213 328.639 413.314 332.142 413.314 C 353.158 413.314 371.372 413.314 390.286 412.614 C 394.489 411.913 393.088 405.609 389.586 403.507 C 372.773 407.71 354.559 406.309 339.147 406.309 C 331.441 404.908 322.334 403.507 316.73 403.507 C 316.73 399.304 320.933 398.603 319.532 397.903 C 335.644 398.603 349.655 398.603 359.463 400.705 C 366.468 399.304 383.981 395.101 393.088 391.598 C 394.489 390.197 397.291 389.496 397.291 385.994 C 402.195 388.796 404.997 387.395 404.297 392.298 C 405.698 382.491 397.992 388.796 397.992 381.09 C 400.094 381.09 399.393 377.587 400.794 377.587 C 399.393 373.384 394.489 383.192 392.388 374.085 C 395.89 372.684 397.291 367.78 400.794 368.48 C 402.195 355.871 402.896 359.373 404.297 350.967 C 402.896 345.363 400.794 341.16 397.992 337.657 C 393.088 285.117 397.291 282.315 394.489 257.796 C 392.388 257.095 391.687 249.39 385.382 253.593 C 395.89 243.085 393.088 251.491 400.794 242.384 C 402.896 237.481 402.195 231.876 400.794 227.673 C 402.896 225.571 402.896 226.973 403.596 226.973 C 405.698 223.47 409.2 220.668 407.799 215.764 C 407.799 218.566 406.398 222.069 404.297 223.47 C 402.195 219.967 404.297 218.566 404.297 215.764 C 404.997 212.261 409.2 204.555 409.2 210.86 C 408.5 208.759 409.901 203.855 407.099 207.358 C 404.997 209.459 404.997 212.261 403.596 213.662 C 402.195 217.866 400.794 221.368 400.794 223.47 C 397.992 224.17 395.89 223.47 394.489 222.769 C 393.088 208.058 412.003 184.94 407.099 171.63 C 405.698 165.326 401.495 170.93 398.692 170.229 L 397.291 170.229 L 398.692 167.427 C 395.19 167.427 388.885 159.721 388.885 159.021 L 386.783 159.021 L 385.382 156.919 C 391.687 156.219 396.591 166.727 402.896 159.021 C 407.099 152.015 401.495 154.117 404.997 148.513 C 403.596 136.604 402.195 111.384 395.89 93.171 C 396.591 82.663 397.291 67.251 395.89 62.347 C 392.388 55.342 388.885 60.946 386.083 56.743 C 395.19 57.443 388.885 50.438 393.789 46.235 C 392.388 47.636 390.987 47.636 388.184 49.737 C 389.586 41.331 393.088 32.925 393.789 25.219 C 393.088 33.625 388.885 43.433 385.382 49.737 C 362.265 36.427 327.238 21.716 304.12 11.909 C 297.816 11.208 292.211 9.807 285.206 8.406" fill="rgb(211,144,78)"/>
    <path d="M 135.992 8.406 C 138.094 13.31 130.388 8.406 128.286 9.807 C 125.484 11.909 122.682 12.609 121.982 14.711 C 133.891 30.123 121.982 38.529 128.286 49.037 C 127.586 51.839 126.185 52.54 125.484 50.438 C 111.474 74.957 128.987 77.759 142.998 78.459 C 129.688 75.657 138.094 67.251 123.383 70.053 C 128.286 63.048 124.083 60.946 126.185 58.144 C 130.388 56.743 132.49 56.042 135.292 57.443 C 134.591 55.342 131.789 56.042 131.089 53.941 C 131.089 49.037 134.591 51.839 135.992 49.737 C 133.891 46.935 131.089 46.935 131.089 43.433 C 138.794 33.625 127.586 23.818 132.49 16.812 C 146.5 21.016 150.704 12.609 159.81 15.411 C 164.714 23.117 161.212 26.62 164.714 30.823 C 164.014 32.224 163.313 34.326 162.613 34.326 C 164.014 35.727 168.217 34.326 168.217 38.529 C 171.72 43.433 173.121 44.834 174.522 51.139 C 175.222 49.037 176.623 44.834 178.725 45.534 C 177.324 37.828 174.522 37.828 175.923 34.326 C 176.623 32.224 177.324 31.524 179.425 32.224 C 181.527 34.326 178.725 35.727 180.126 38.529 C 180.126 32.224 187.131 30.823 189.933 28.721 C 191.334 23.117 183.629 24.518 183.629 19.615 C 194.137 18.213 202.543 19.615 215.853 16.812 C 217.955 18.914 220.056 16.812 222.859 18.914 C 224.96 14.01 239.671 20.315 246.677 18.914 C 254.383 23.117 259.286 23.818 264.891 25.219 C 273.297 31.524 255.083 28.021 265.591 29.422 C 269.094 31.524 264.19 28.721 271.195 26.62 C 269.794 25.219 272.596 23.818 271.195 22.417 C 268.393 18.914 267.693 16.112 265.591 14.01 C 262.088 15.411 260.687 16.112 259.286 17.513 C 251.58 17.513 236.169 12.609 223.559 11.909 C 209.548 10.508 199.741 17.513 187.131 16.812 C 178.725 14.711 180.826 24.518 176.623 21.016 C 177.324 21.016 177.324 22.417 178.024 22.417 C 172.42 22.417 170.318 30.123 170.318 33.625 C 168.217 34.326 168.917 32.925 168.217 32.224 C 168.917 32.925 167.516 35.026 168.917 35.026 C 168.217 37.128 171.72 35.727 170.318 39.229 C 168.217 35.727 165.415 33.625 163.313 35.727 C 164.014 33.625 164.714 32.925 165.415 32.224 C 164.014 30.823 166.816 27.32 167.516 28.021 C 167.516 24.518 167.516 24.518 168.217 26.62 C 161.912 21.016 166.115 20.315 162.613 12.609 C 150.704 8.406 142.297 16.812 135.992 9.807" fill="rgb(214,145,78)"/>
    <path d="M 144.399 273.208 C 144.399 276.71 138.794 276.01 141.597 280.213 C 140.196 277.411 135.292 277.411 135.992 276.01 C 119.18 272.507 137.393 287.919 131.089 302.63 C 129.688 310.336 130.388 320.143 129.688 329.25 C 133.19 337.657 131.089 345.363 133.19 350.266 C 126.185 352.368 136.693 357.972 123.383 365.678 C 128.286 369.881 132.49 374.785 134.591 378.288 C 132.49 376.186 127.586 379.689 124.083 374.785 C 121.281 378.988 121.982 378.288 124.083 383.892 C 134.591 388.796 136.693 389.496 145.8 395.101 C 150.003 402.106 154.206 404.208 153.506 411.913 C 155.607 403.507 158.409 414.015 157.008 400.705 C 160.511 404.208 164.714 409.812 161.912 411.213 C 193.436 403.507 189.233 402.106 204.645 397.903 C 210.249 403.507 213.752 406.309 220.056 409.111 C 227.762 409.812 232.666 414.716 236.169 411.913 C 218.655 411.913 213.752 395.801 190.634 392.999 C 187.832 390.197 192.035 395.101 187.131 392.999 C 190.634 395.101 190.634 397.202 192.736 397.903 C 187.131 400.705 181.527 399.304 180.126 405.609 C 173.121 404.208 170.318 402.806 161.912 400.004 C 162.613 396.502 160.511 391.598 161.212 389.496 C 161.212 393.7 155.607 393.7 154.206 395.801 C 150.704 387.395 142.297 393.7 135.992 385.293 C 137.393 383.192 138.094 378.288 137.393 374.085 C 137.393 375.486 135.292 372.684 134.591 374.085 C 134.591 373.384 133.891 369.181 132.49 368.48 C 133.891 364.978 136.693 357.272 135.992 354.47 C 134.591 350.967 137.393 341.86 133.19 346.063 C 131.789 335.555 135.292 327.849 133.891 313.138 C 131.789 308.234 137.393 306.133 135.992 302.63 C 132.49 297.026 134.591 293.523 131.789 287.218 C 133.891 284.416 133.19 279.513 134.591 278.812 C 137.393 278.812 141.597 281.614 142.998 283.716 C 140.896 280.914 142.998 277.411 144.399 274.609" fill="rgb(212,145,79)"/>
    <path d="M 142.297 80.561 C 144.399 84.064 130.388 79.16 128.987 84.064 C 124.784 103.679 126.885 119.791 128.286 138.705 C 128.286 142.908 127.586 144.31 126.885 146.411 C 126.185 142.908 126.885 139.406 126.185 135.203 C 126.885 138.705 126.885 142.208 124.784 145.01 C 121.281 143.609 121.281 141.507 119.88 140.106 C 119.88 142.908 123.383 145.01 122.682 147.112 C 119.18 148.513 121.982 152.015 121.281 154.117 C 119.88 152.015 117.778 151.315 117.778 150.614 C 121.982 158.32 122.682 161.122 137.393 169.529 C 127.586 167.427 119.88 169.529 117.778 168.128 C 119.18 173.031 117.078 176.534 119.88 177.235 C 126.885 179.336 117.778 173.732 125.484 175.834 C 124.083 180.037 129.688 182.138 131.789 184.94 C 126.885 185.641 123.383 182.839 120.581 184.94 C 121.982 187.743 115.677 189.144 118.479 194.748 C 120.581 217.165 132.49 232.577 136.693 251.491 C 136.693 264.801 121.982 259.197 123.383 264.801 C 127.586 266.202 131.089 269.005 134.591 269.005 L 135.292 269.005 L 135.292 270.406 L 136.693 270.406 L 137.393 270.406 C 142.998 270.406 141.597 267.603 145.8 267.603 C 140.196 266.202 140.896 266.903 135.292 270.406 C 140.196 265.502 138.094 259.898 140.196 254.293 C 137.393 236.78 127.586 218.566 126.185 210.16 C 125.484 201.753 133.19 210.16 131.789 200.352 C 126.885 201.053 126.885 203.154 124.083 200.352 C 126.185 195.448 128.286 195.448 133.19 189.144 C 132.49 189.144 135.992 186.342 132.49 186.342 C 131.089 182.138 130.388 177.935 128.286 173.732 C 131.789 169.529 135.292 171.63 138.094 170.93 C 130.388 163.924 129.688 162.523 124.083 156.219 C 124.784 151.315 127.586 147.112 128.286 142.208 C 126.885 124.695 128.286 105.08 128.987 90.368 C 128.286 80.561 148.602 82.663 143.698 80.561" fill="rgb(212,144,78)"/>
    <path d="M 318.131 7.005 C 308.324 8.406 321.634 7.005 323.735 6.304 C 331.441 13.31 342.65 14.01 352.457 21.716 C 358.062 18.914 372.072 28.021 370.671 18.914 C 370.671 23.818 374.874 23.818 377.676 24.518 C 378.377 23.818 376.275 22.417 373.473 23.117 C 379.078 18.914 379.778 24.518 382.58 20.315 C 379.778 18.914 385.382 16.112 380.479 17.513 C 383.981 16.112 384.682 12.609 388.184 12.609 C 372.072 7.705 339.848 11.208 324.436 6.304 C 322.334 6.304 320.933 6.304 318.832 6.304" fill="rgb(209,142,75)"/>
    <path d="M 397.992 5.604 C 393.789 5.604 391.687 9.807 389.586 12.609 C 386.083 17.513 383.981 22.417 381.179 26.62 C 379.778 35.026 382.58 41.331 384.682 45.534 C 386.083 39.229 390.286 33.625 390.987 27.32 C 386.783 22.417 387.484 35.727 383.981 34.326 C 382.58 28.021 387.484 26.62 386.083 21.016 C 390.286 21.716 393.789 21.716 395.19 24.518 C 395.89 32.224 394.489 37.128 393.088 42.032 C 397.992 37.828 397.291 32.925 404.997 30.823 C 403.596 25.219 407.799 14.01 398.692 4.903" fill="rgb(102,34,12)"/>
    <path d="M 396.591 300.529 C 394.489 307.534 404.997 328.55 399.393 336.956 C 401.495 341.16 403.596 345.363 404.297 349.566 C 404.297 352.368 404.297 354.47 402.896 355.871 C 403.596 360.774 402.195 363.577 401.495 366.379 C 397.992 369.181 396.591 371.983 393.088 374.085 C 395.19 381.09 397.291 374.085 402.195 376.186 C 394.489 380.389 402.896 383.892 396.591 388.796 C 391.687 395.801 362.265 398.603 358.062 400.705 C 347.554 397.903 332.842 399.304 320.233 397.202 C 333.543 400.004 334.944 398.603 358.062 402.106 C 378.377 397.903 382.58 396.502 398.692 393.7 C 400.794 397.903 404.997 397.202 404.997 400.004 C 409.2 400.004 409.2 398.603 408.5 395.801 C 409.901 397.903 409.901 399.304 409.901 400.705 C 410.602 388.796 407.799 390.197 407.099 375.486 C 404.997 376.887 402.896 370.582 400.794 373.384 C 404.997 369.881 402.195 358.673 404.297 357.972 C 404.997 355.871 404.997 357.272 407.099 356.571 C 404.297 343.962 399.393 318.742 397.291 301.93" fill="rgb(182,105,45)"/>
    <path d="M 306.222 7.005 C 333.543 16.812 358.062 33.625 383.981 46.935 C 379.078 41.331 380.479 37.828 379.778 28.721 C 379.778 30.123 378.377 30.823 379.078 32.925 C 358.762 28.721 337.746 16.812 306.923 7.005" fill="rgb(239,196,130)"/>
    <path d="M 231.265 1.401 C 206.046 4.903 175.222 0 173.821 8.406 C 173.121 14.01 191.334 3.502 197.639 8.406 C 205.345 7.005 205.345 2.101 213.752 3.502 C 214.452 5.604 218.655 5.604 217.254 7.005 C 222.859 0 241.773 13.31 254.383 9.107 C 249.479 1.401 241.072 4.903 232.666 0.7" fill="rgb(203,147,86)"/>
    <path d="M 119.88 279.513 C 121.982 289.32 114.976 304.031 117.078 317.341 C 117.778 329.25 117.078 341.86 119.88 350.266 C 120.581 327.849 120.581 304.732 124.083 285.117 C 121.281 282.315 122.682 280.914 119.88 281.614" fill="rgb(183,101,40)"/>
    <path d="M 121.982 175.834 C 121.982 176.534 126.185 175.834 123.383 177.935 C 122.682 180.037 121.281 182.138 121.281 181.438 C 119.18 180.737 117.078 184.94 115.677 181.438 C 120.581 188.443 113.575 205.256 114.976 217.165 C 115.677 214.363 114.276 203.855 116.377 198.951 C 114.976 210.86 132.49 236.78 132.49 249.39 C 133.19 252.192 133.891 257.095 130.388 258.497 C 127.586 258.497 124.784 259.898 124.083 257.095 C 124.784 259.197 120.581 260.598 118.479 259.898 C 118.479 265.502 121.982 266.202 124.083 268.304 C 122.682 268.304 121.281 265.502 122.682 262.7 C 125.484 263.4 128.987 261.299 131.089 259.898 C 134.591 257.095 135.992 254.994 136.693 252.192 C 129.688 242.384 129.688 222.769 120.581 214.363 C 119.18 203.855 114.976 190.545 119.88 184.94 C 122.682 188.443 122.682 182.138 121.982 178.636 C 128.987 180.737 122.682 187.743 131.789 184.94 C 126.885 184.24 126.185 177.235 124.784 175.834" fill="rgb(173,104,50)"/>
    <path d="M 391.687 394.4 C 379.078 398.603 391.687 393.7 395.89 396.502 C 398.692 400.004 400.794 402.106 402.195 404.908 C 400.094 407.71 398.692 407.01 397.992 407.71 C 396.591 404.208 397.291 400.004 392.388 398.603 C 389.586 402.106 393.789 406.309 394.489 410.512 C 397.291 412.614 397.992 414.716 399.393 415.416 C 402.896 416.117 404.297 414.716 404.997 413.314 C 408.5 407.71 410.602 402.806 409.2 396.502 C 409.901 398.603 409.901 401.405 407.099 400.004 C 404.297 397.903 402.195 398.603 399.393 395.101 C 396.591 395.801 395.19 394.4 391.687 395.101" fill="rgb(100,28,12)"/>
    <path d="M 274.698 3.502 C 275.399 3.502 276.8 5.604 277.5 5.604 C 276.099 6.304 274.698 4.903 273.997 8.406 C 274.698 17.513 276.099 22.417 273.997 30.123 C 277.5 18.213 276.8 21.716 274.698 11.909 C 276.8 10.508 281.003 8.406 284.505 7.705 C 297.816 10.508 294.313 11.208 303.42 10.508 C 321.634 18.213 348.254 30.823 368.57 39.93 C 346.853 28.021 322.334 14.711 318.832 14.01 L 316.73 12.609 L 318.131 14.01 C 307.623 10.508 297.115 7.005 285.907 7.705 C 282.404 7.705 281.003 7.005 278.901 6.304 C 276.8 5.604 276.8 4.203 275.399 4.203" fill="rgb(171,105,46)"/>
    <path d="M 313.227 7.005 C 335.644 16.812 364.366 28.721 377.676 30.123 C 383.281 25.919 371.372 25.219 372.072 21.716 C 372.072 28.721 357.361 19.615 354.559 22.417 C 341.949 14.711 332.142 14.01 323.035 9.107 C 323.035 7.705 321.634 7.005 320.233 7.705" fill="rgb(228,176,108)"/>
    <path d="M 376.976 4.203 C 338.447 6.304 355.259 7.705 327.939 5.604 C 346.853 9.807 368.57 7.705 384.682 11.208 C 383.981 17.513 380.479 15.411 383.981 19.615 C 380.479 25.219 379.778 20.315 374.874 21.716 C 378.377 21.016 378.377 24.518 379.778 25.919 C 379.778 22.417 383.281 23.818 383.281 20.315 C 386.783 15.411 387.484 12.609 387.484 8.406 C 383.281 4.203 381.88 8.406 376.976 6.304 C 395.19 3.502 402.896 4.203 376.976 3.502" fill="rgb(221,173,114)"/>
    <path d="M 402.896 70.053 C 402.896 86.866 405.698 110.684 409.2 124.695 C 407.799 111.384 407.799 91.769 407.099 69.352 C 406.398 70.753 404.997 70.053 404.297 70.753" fill="rgb(198,133,76)"/>
    <path d="M 117.778 392.298 C 117.778 398.603 124.784 400.004 126.185 403.507 C 128.286 401.405 133.891 410.512 138.794 410.512 C 142.297 407.71 142.297 404.908 138.794 402.106 C 131.089 398.603 125.484 394.4 119.18 392.298" fill="rgb(196,126,66)"/>
    <path d="M 119.18 370.582 C 114.976 368.48 117.078 377.587 119.88 383.892 C 128.286 388.095 135.992 390.897 142.297 396.502 C 148.602 397.903 150.003 412.614 150.003 405.609 C 151.404 409.111 150.704 411.213 149.302 413.314 C 152.805 414.015 154.907 413.314 156.308 412.614 L 157.709 411.913 L 157.709 411.213 C 157.008 410.512 157.008 409.111 156.308 407.71 C 156.308 409.111 157.008 409.812 156.308 411.913 C 154.907 412.614 154.206 412.614 153.506 413.314 C 153.506 404.908 150.003 402.106 145.8 395.801 C 136.693 389.496 133.891 390.197 124.083 385.293 C 121.982 376.887 119.88 381.09 121.982 374.785 C 127.586 376.887 135.292 379.689 133.19 376.887 C 130.388 374.785 128.987 376.887 127.586 369.881 L 125.484 369.881 L 124.083 369.881 L 126.185 370.582 L 126.885 370.582 C 128.286 371.983 129.688 371.983 128.286 374.785 C 126.185 371.282 121.982 372.684 119.88 369.881" fill="rgb(175,102,50)"/>
    <path d="M 402.896 35.026 C 400.094 37.128 401.495 41.331 400.794 45.534 C 395.89 40.631 395.89 42.032 399.393 37.128 C 394.489 42.732 390.987 42.032 388.184 49.037 C 391.687 51.839 390.987 44.834 394.489 45.534 C 392.388 47.636 390.286 52.54 395.19 56.743 C 391.687 54.641 390.987 55.342 385.382 56.743 C 388.885 56.042 397.291 60.245 393.789 58.844 C 395.19 54.641 398.692 57.443 400.094 56.743 C 400.794 48.336 404.297 36.427 404.997 35.727" fill="rgb(178,100,43)"/>
    <path d="M 397.992 68.652 C 393.088 77.759 401.495 85.465 396.591 92.47 C 402.896 111.384 404.297 136.604 405.698 146.411 C 402.195 153.416 407.799 152.716 404.297 160.422 C 397.992 166.026 393.088 159.721 386.083 156.919 C 390.286 159.721 397.291 163.224 399.393 163.924 C 402.195 161.823 404.297 161.823 407.099 159.721 C 407.099 156.919 406.398 149.213 407.799 148.513 C 405.698 125.395 397.992 96.673 398.692 70.753" fill="rgb(173,105,45)"/>
    <path d="M 124.784 271.807 C 122.682 272.507 121.982 273.208 121.281 277.411 C 126.885 284.416 126.885 280.213 130.388 292.823 C 131.089 319.443 126.185 311.037 128.987 329.25 C 128.286 339.058 131.089 344.662 132.49 355.17 C 131.789 347.464 131.789 339.758 129.688 330.652 C 129.688 320.143 128.987 310.336 132.49 303.331 C 128.286 294.924 135.292 280.914 125.484 278.812 C 129.688 274.609 133.891 279.513 135.292 275.309 C 138.094 277.411 140.196 277.411 140.196 279.513 C 138.094 276.01 143.698 276.71 143.698 273.208 C 141.597 273.908 140.196 277.411 136.693 276.01 C 131.789 275.309 128.987 272.507 126.185 271.106" fill="rgb(175,106,49)"/>
    <path d="M 380.479 404.908 C 397.291 402.106 388.184 411.913 379.078 411.213 C 373.473 411.913 367.869 412.614 362.965 411.213 C 367.869 407.71 374.174 406.309 381.179 405.609" fill="rgb(192,115,55)"/>
    <path d="M 117.078 280.213 C 114.976 292.823 116.377 304.732 115.677 317.341 C 116.377 331.352 116.377 334.154 117.778 349.566 C 118.479 350.967 120.581 353.069 121.281 351.668 C 120.581 327.149 124.083 307.534 124.784 283.716 C 122.682 297.026 119.88 327.849 122.682 349.566 C 116.377 342.561 117.778 329.25 116.377 319.443 C 115.677 304.031 118.479 293.523 120.581 280.914" fill="rgb(205,140,82)"/>
    <path d="M 126.185 284.416 C 128.987 306.133 121.281 327.849 125.484 350.967 C 126.885 350.967 128.286 350.967 130.388 351.668 C 129.688 343.962 126.185 337.657 125.484 329.951 C 126.185 314.539 130.388 299.828 126.885 285.117" fill="rgb(241,197,133)"/>
    <path d="M 406.398 163.224 C 406.398 166.727 399.393 167.427 397.291 170.229 C 400.794 168.128 402.896 168.828 405.698 166.727 C 411.302 171.63 404.997 176.534 409.2 177.935 C 409.901 193.347 393.088 208.058 395.19 219.267 C 396.591 215.063 407.799 191.946 409.901 181.438 C 409.901 182.839 410.602 180.737 409.901 179.336 C 411.302 171.63 407.799 163.224 406.398 163.924" fill="rgb(180,101,45)"/>
    <path d="M 175.923 4.203 C 175.222 6.304 171.72 4.203 171.019 6.304 C 168.217 11.208 170.318 14.01 173.121 15.411 C 172.42 14.01 177.324 12.609 178.024 11.208 C 184.329 9.807 191.334 7.705 196.939 11.208 C 203.244 7.005 213.051 8.406 215.153 6.304 C 215.153 2.802 210.249 4.203 206.746 3.502 C 208.147 8.406 199.04 5.604 199.04 8.406 C 191.334 5.604 180.826 11.208 172.42 9.807 C 170.318 9.807 171.72 9.107 170.318 8.406 C 175.923 5.604 180.826 4.903 184.329 4.203 C 182.228 4.203 179.425 5.604 176.623 4.203" fill="rgb(222,172,107)"/>
    <path d="M 399.393 268.304 C 397.992 280.914 400.094 293.523 402.896 304.031 C 402.195 294.224 403.596 285.117 404.297 276.01 C 402.896 272.507 404.297 268.304 401.495 268.304" fill="rgb(193,130,75)"/>
    <path d="M 119.18 394.4 C 126.185 395.801 134.591 399.304 138.794 405.609 C 135.292 408.411 124.083 401.405 119.88 397.202" fill="rgb(190,114,52)"/>
    <path d="M 116.377 225.571 C 117.778 233.978 115.677 238.882 114.976 245.887 C 115.677 245.186 114.976 243.785 115.677 243.085 C 117.778 246.587 115.677 250.09 118.479 252.192 C 121.982 251.491 124.784 255.694 130.388 254.994 C 132.49 254.293 122.682 252.892 120.581 250.791 C 119.88 242.384 121.281 232.577 117.778 226.973" fill="rgb(176,102,47)"/>
    <path d="M 344.051 11.208 C 353.858 10.508 366.468 10.508 376.275 13.31 C 365.767 17.513 353.858 12.609 343.35 13.31" fill="rgb(197,123,56)"/>
    <path d="M 383.281 405.609 C 376.275 407.01 369.27 407.71 362.965 410.512 C 369.27 414.716 400.094 407.71 385.382 404.908" fill="rgb(189,109,51)"/>
    <path d="M 306.222 404.908 C 295.714 406.309 286.607 411.913 273.297 412.614 C 271.195 405.609 262.789 416.117 262.789 404.208 C 263.489 411.913 265.591 416.117 272.596 413.314 L 273.297 414.015 L 272.596 414.716 L 272.596 416.117 L 278.201 416.817 C 264.19 416.817 293.612 406.309 306.222 407.01 C 318.832 408.411 333.543 425.924 314.628 404.908 C 312.527 402.806 310.425 408.411 308.324 405.609" fill="rgb(163,103,51)"/>
    <path d="M 116.377 214.363 C 115.677 220.668 114.976 227.673 115.677 235.379 C 117.078 237.481 114.976 226.973 117.078 224.871 C 122.682 231.176 119.18 235.379 121.281 242.384 C 121.982 246.587 121.982 250.09 119.18 251.491 C 115.677 249.39 117.078 246.587 116.377 243.085 C 114.976 252.892 114.976 250.791 117.778 251.491 L 117.778 252.892 L 119.18 250.791 C 123.383 250.791 123.383 249.39 125.484 245.186 C 123.383 237.481 122.682 231.176 119.18 226.272 C 117.078 222.069 116.377 218.566 115.677 215.764" fill="rgb(201,140,81)"/>
    <path d="M 401.495 226.973 C 402.896 231.876 403.596 236.78 401.495 242.384 C 395.89 243.785 395.19 254.293 392.388 245.186 C 393.789 249.39 395.89 250.09 397.992 250.791 C 402.896 250.791 402.896 248.689 404.997 243.085 C 408.5 236.079 401.495 236.079 404.297 225.571" fill="rgb(168,100,48)"/>
    <path d="M 192.736 400.705 C 184.329 407.71 174.522 410.512 164.014 411.913 C 166.816 411.913 233.367 411.213 179.425 409.812 C 183.629 403.507 191.334 407.01 192.035 402.106" fill="rgb(178,106,47)"/>
    <path d="M 321.634 405.609 C 330.04 404.208 335.644 408.411 340.548 408.411 C 336.345 409.812 332.842 411.213 329.34 411.913 C 325.837 411.913 323.735 409.111 323.035 407.01" fill="rgb(194,119,59)"/>
    <path d="M 123.383 78.459 C 123.383 88.967 121.281 113.486 121.281 128.197 C 122.682 133.802 119.88 136.604 125.484 138.005 C 121.982 121.192 121.982 105.08 123.383 86.165 C 123.383 81.261 124.083 79.16 127.586 81.962 C 126.185 81.962 125.484 81.261 124.784 79.86" fill="rgb(241,200,141)"/>
    <path d="M 318.832 409.111 C 323.035 414.015 326.537 414.716 330.04 414.716 C 353.158 414.716 374.174 415.416 393.789 413.314 C 393.789 411.913 393.789 411.213 393.789 410.512 C 378.377 414.716 353.858 413.314 334.243 414.716 C 328.639 413.314 323.735 413.314 320.233 411.213" fill="rgb(219,170,114)"/>
    <path d="M 190.634 10.508 C 181.527 7.705 173.821 17.513 168.217 14.01 C 174.522 11.909 199.04 17.513 194.137 9.807" fill="rgb(240,196,129)"/>
    <path d="M 403.596 70.053 C 409.901 71.454 406.398 84.764 406.398 90.368 C 402.896 84.064 403.596 79.16 402.896 72.155" fill="rgb(194,120,60)"/>
    <path d="M 199.741 407.71 C 194.137 409.111 188.532 408.411 182.928 409.812 C 189.233 411.213 203.244 406.309 203.944 411.213 C 187.832 416.817 177.324 407.71 171.72 413.314 C 183.629 414.015 220.757 416.117 202.543 408.411" fill="rgb(199,142,87)"/>
    <path d="M 390.987 397.202 C 377.676 397.202 367.168 404.908 354.559 405.609 C 362.265 404.908 371.372 403.507 378.377 403.507 C 385.382 402.106 389.586 397.903 389.586 399.304" fill="rgb(240,196,136)"/>
    <path d="M 206.046 400.004 C 190.634 402.806 215.153 412.614 219.356 413.314 C 215.853 409.812 209.548 407.71 206.046 401.405" fill="rgb(114,43,14)"/>
    <path d="M 120.581 395.801 C 122.682 401.405 135.292 406.309 138.094 407.01 C 134.591 399.304 127.586 398.603 121.982 395.101" fill="rgb(187,108,45)"/>
    <path d="M 409.901 182.839 C 409.2 194.748 400.794 205.256 397.992 215.063 C 404.997 208.058 406.398 199.652 409.901 191.245 C 409.901 188.443 410.602 185.641 409.2 184.24" fill="rgb(120,42,14)"/>
    <path d="M 260.687 4.203 C 259.987 5.604 258.586 3.502 257.885 4.903 C 256.484 9.107 256.484 12.609 257.885 14.711 C 257.185 10.508 265.591 11.208 266.992 8.406 C 266.992 7.005 264.891 3.502 262.088 3.502" fill="rgb(114,34,12)"/>
    <path d="M 306.222 406.309 C 305.521 409.812 306.923 412.614 309.725 414.015 C 312.527 415.416 314.628 417.518 316.73 416.117 C 319.532 411.913 316.73 413.314 316.029 410.512 C 312.527 408.411 309.024 409.812 306.923 407.71" fill="rgb(102,31,12)"/>
    <path d="M 124.784 282.315 C 125.484 299.828 123.383 313.138 122.682 329.25 C 125.484 336.256 121.982 348.865 124.784 351.668 C 120.581 330.652 128.286 303.331 126.185 283.015" fill="rgb(227,173,109)"/>
    <path d="M 118.479 80.561 C 121.281 96.673 112.174 119.791 117.078 133.802 C 119.88 114.187 117.078 98.775 119.88 81.261" fill="rgb(166,114,66)"/>
    <path d="M 119.18 23.818 C 117.778 32.224 118.479 42.732 117.778 51.839 C 120.581 51.839 118.479 50.438 121.281 46.935 C 123.383 40.631 120.581 32.925 118.479 25.219" fill="rgb(197,132,71)"/>
    <path d="M 219.356 7.005 C 227.062 4.903 252.281 17.513 254.383 13.31 C 244.575 9.807 234.067 9.107 223.559 4.903" fill="rgb(228,174,109)"/>
    <path d="M 404.297 37.828 C 402.896 40.631 402.896 60.245 396.591 56.743 C 401.495 58.844 404.297 56.042 407.099 57.443 C 400.094 55.342 409.2 41.331 404.997 37.128" fill="rgb(122,51,18)"/>
    <path d="M 400.094 60.946 C 400.794 61.647 400.094 62.347 400.094 67.951 C 403.596 69.352 407.099 70.053 408.5 67.951 C 409.2 63.048 404.997 61.647 402.896 60.245" fill="rgb(100,31,13)"/>
    <path d="M 119.18 369.881 C 114.276 371.983 115.677 381.09 117.078 384.593 C 128.286 391.598 139.495 392.999 147.201 402.106 C 140.196 392.999 129.688 389.496 119.88 385.293 C 115.677 381.09 116.377 374.085 117.778 369.881" fill="rgb(110,52,23)"/>
    <path d="M 116.377 384.593 C 114.976 385.994 117.778 386.694 116.377 389.496 C 128.987 391.598 140.896 400.705 146.5 405.609 C 138.094 392.999 125.484 393.7 115.677 385.994" fill="rgb(236,197,145)"/>
    <path d="M 400.094 269.705 C 405.698 272.507 402.195 284.416 402.195 288.619 C 400.094 284.416 399.393 277.411 399.393 272.507" fill="rgb(188,119,61)"/>
    <path d="M 318.131 399.304 C 320.933 404.208 339.147 402.806 345.452 404.908 C 337.046 401.405 330.741 400.004 322.334 399.304" fill="rgb(241,201,139)"/>
    <path d="M 203.944 398.603 C 202.543 400.004 195.538 400.705 200.441 404.208 C 196.238 400.705 203.244 400.705 204.645 400.004 C 208.848 407.01 215.853 409.111 220.757 411.913 C 225.661 409.111 231.965 416.817 237.57 413.314 C 235.468 415.416 229.163 411.913 221.457 410.512 C 213.752 407.01 210.249 404.908 207.447 398.603 L 206.046 398.603 L 205.345 398.603" fill="rgb(169,102,51)"/>
    <path d="M 119.88 11.208 C 121.982 17.513 125.484 34.326 124.784 35.026 C 129.688 25.219 121.281 20.315 121.281 11.909" fill="rgb(178,103,45)"/>
    <path d="M 121.281 77.058 C 119.18 89.668 120.581 138.705 114.976 132.4 C 119.18 138.005 119.18 136.604 121.281 137.304 C 118.479 120.491 121.982 98.074 121.982 79.16" fill="rgb(201,142,83)"/>
    <path d="M 126.185 37.828 C 121.281 49.737 122.682 53.24 118.479 72.155 C 119.88 63.748 122.682 58.144 124.083 51.839 C 126.185 50.438 126.185 51.839 127.586 50.438 C 121.982 47.636 126.885 41.331 126.885 39.229" fill="rgb(184,106,46)"/>
    <path d="M 116.377 210.86 C 116.377 224.871 128.987 234.678 126.885 249.39 C 128.987 248.689 129.688 249.39 130.388 250.09 C 128.987 236.079 119.88 224.871 116.377 212.261" fill="rgb(240,197,140)"/>
    <path d="M 343.35 12.609 C 351.757 11.909 365.767 16.812 374.874 14.01 C 366.468 11.909 355.96 11.208 346.853 11.909" fill="rgb(194,120,53)"/>
    <path d="M 322.334 406.309 C 323.735 408.411 325.136 411.213 328.639 411.213 C 332.842 410.512 336.345 409.111 339.848 409.812 C 335.644 409.111 330.741 405.609 323.735 405.609" fill="rgb(191,115,56)"/>
    <path d="M 221.457 10.508 C 209.548 11.208 199.741 11.909 189.233 16.112 C 200.441 16.812 209.548 10.508 221.457 11.208 C 257.185 17.513 255.083 16.112 220.056 9.807" fill="rgb(177,110,50)"/>
    <path d="M 145.099 344.662 C 148.602 343.261 144.399 348.865 147.901 348.865 C 145.099 343.962 150.704 349.566 151.404 348.165 C 149.302 350.967 150.704 353.769 145.8 354.47 C 140.896 350.266 145.8 350.266 144.399 346.764" fill="rgb(232,188,119)"/>
    <path d="M 117.078 9.807 C 120.581 16.812 117.778 27.32 124.083 32.925 C 122.682 25.219 120.581 16.112 118.479 10.508" fill="rgb(118,49,14)"/>
    <path d="M 121.982 357.272 C 124.784 360.774 115.677 361.475 117.778 365.678 C 121.281 364.277 124.083 365.678 123.383 369.181 C 121.982 359.373 140.896 356.571 121.281 360.074" fill="rgb(178,99,42)"/>
    <path d="M 267.693 8.406 C 248.778 21.716 264.19 9.107 271.896 19.615 C 268.393 17.513 269.794 13.31 268.393 10.508 L 268.393 9.807 L 267.693 11.208 L 267.693 10.508" fill="rgb(178,101,44)"/>
    <path d="M 121.281 353.069 C 115.677 353.769 115.677 358.673 116.377 363.577 C 119.88 365.678 122.682 367.78 125.484 369.881 C 121.982 367.78 122.682 364.978 117.078 365.678 C 117.778 362.176 119.88 360.774 121.281 358.673 C 120.581 357.272 121.982 355.17 121.281 353.769" fill="rgb(107,38,16)"/>
    <path d="M 298.516 413.314 C 292.912 414.716 286.607 416.117 282.404 416.117 C 296.415 418.919 302.719 416.117 302.019 412.614" fill="rgb(172,110,55)"/>
    <path d="M 171.72 395.101 L 173.121 393.7 C 175.923 397.903 177.324 395.101 180.826 395.801 C 175.923 399.304 168.217 404.208 171.019 395.801" fill="rgb(215,159,94)"/>
    <path d="M 120.581 252.192 C 117.078 252.892 115.677 256.395 116.377 260.598 L 117.078 261.999 L 117.778 262.7 C 118.479 264.801 120.581 264.801 121.982 266.202 C 120.581 264.801 118.479 264.801 117.778 262.7 C 117.078 257.796 121.982 261.299 122.682 257.796 C 121.982 256.395 121.982 254.293 120.581 252.892" fill="rgb(108,45,16)"/>
    <path d="M 400.094 267.603 C 400.094 268.304 399.393 269.005 397.992 268.304 C 397.992 284.416 398.692 301.93 403.596 313.138 C 407.099 280.213 397.992 320.844 397.992 263.4 C 400.094 267.603 401.495 268.304 402.195 267.603 C 404.297 271.807 404.297 274.609 404.997 277.411 C 404.297 274.609 404.997 270.406 404.297 267.603 C 402.896 267.603 402.195 267.603 401.495 268.304" fill="rgb(217,171,118)"/>
    <path d="M 175.222 15.411 C 184.329 16.112 175.222 18.213 172.42 16.812 C 172.42 18.914 173.121 21.016 174.522 21.716 C 172.42 23.117 169.618 24.518 171.72 25.919 C 169.618 21.016 194.837 16.112 178.024 15.411" fill="rgb(178,104,46)"/>
    <path d="M 398.692 257.095 C 397.992 261.299 398.692 261.299 399.393 264.101 C 400.094 266.903 402.896 266.903 403.596 266.903 C 405.698 262.7 402.896 259.197 400.094 258.497" fill="rgb(107,38,18)"/>
    <path d="M 404.297 70.753 C 403.596 78.459 403.596 83.363 404.997 89.668 C 406.398 84.064 407.099 76.358 405.698 70.753" fill="rgb(189,112,52)"/>
    <path d="M 119.18 29.422 C 121.281 32.925 121.281 41.331 120.581 46.235 C 117.078 42.732 118.479 36.427 117.778 32.224" fill="rgb(191,123,60)"/>
    <path d="M 334.944 84.764 C 334.944 83.363 335.644 84.064 337.046 84.064 C 339.848 85.465 338.447 86.866 341.249 88.267 C 337.746 88.967 324.436 85.465 333.543 84.064" fill="rgb(229,187,122)"/>
    <path d="M 121.281 4.903 C 121.982 8.406 123.383 8.406 124.083 11.909 C 126.885 6.304 133.891 9.807 137.393 11.208 C 133.891 8.406 128.286 4.203 121.982 5.604" fill="rgb(172,101,46)"/>
    <path d="M 402.195 384.593 C 402.195 383.192 403.596 385.293 404.997 385.293 C 406.398 388.796 405.698 390.197 404.997 392.999 C 407.799 383.192 395.89 394.4 400.094 384.593" fill="rgb(205,123,53)"/>
    <path d="M 375.575 398.603 C 369.27 399.304 363.666 402.106 358.062 402.806 C 348.955 401.405 341.249 401.405 334.243 399.304 C 342.65 400.705 349.655 405.609 360.163 403.507 C 365.767 400.705 370.671 400.004 374.874 398.603" fill="rgb(117,48,15)"/>
    <path d="M 145.099 405.609 C 136.693 409.812 141.597 418.919 149.302 414.015 C 150.003 411.213 150.704 409.111 150.003 406.309 C 150.704 408.411 150.003 410.512 148.602 411.913 C 145.099 414.015 142.998 411.913 142.297 411.213 C 142.998 409.111 146.5 409.812 146.5 406.309" fill="rgb(100,44,20)"/>
    <path d="M 120.581 138.005 C 117.778 138.005 116.377 140.106 115.677 142.908 C 114.276 148.513 114.976 152.716 117.778 155.518 C 112.174 151.315 118.479 146.411 117.078 141.507 C 119.18 136.604 122.682 141.507 123.383 142.208 C 125.484 139.406 123.383 138.005 121.982 137.304" fill="rgb(111,46,19)"/>
    <path d="M 402.896 91.069 C 400.794 105.78 410.602 128.898 409.901 142.908 C 412.703 119.791 403.596 119.791 403.596 89.668" fill="rgb(218,173,114)"/>
    <path d="M 118.479 143.609 C 118.479 146.411 115.677 147.812 115.677 150.614 C 117.078 154.117 117.078 155.518 118.479 157.62 C 121.982 161.823 124.083 163.924 128.987 164.625 C 117.778 157.62 123.383 159.021 116.377 153.416 C 118.479 149.213 119.88 152.015 120.581 152.716 C 119.88 152.015 119.18 147.112 122.682 147.812 C 121.281 146.411 117.778 147.112 117.778 144.31" fill="rgb(175,105,51)"/>
    <path d="M 392.388 22.417 C 391.687 30.823 386.783 38.529 385.382 46.235 L 383.981 46.235 L 383.981 44.834 L 384.682 46.935 L 386.083 47.636 C 389.586 40.631 392.388 29.422 393.789 22.417" fill="rgb(166,102,51)"/>
    <path d="M 116.377 390.897 C 124.784 394.4 140.196 399.304 142.998 406.309 C 142.998 401.405 137.393 400.004 134.591 397.202 C 127.586 395.801 124.083 390.197 118.479 390.897" fill="rgb(223,173,110)"/>
    <path d="M 340.548 50.438 C 344.051 49.737 342.65 54.641 340.548 55.342 C 337.746 54.641 335.644 55.342 334.243 53.941 C 334.243 50.438 337.746 53.24 339.147 51.139" fill="rgb(229,187,121)"/>
    <path d="M 116.377 161.823 C 119.18 167.427 113.575 175.834 118.479 178.636 C 119.18 179.336 114.976 171.63 117.778 167.427 C 121.281 171.63 128.987 163.924 135.992 170.93 C 131.089 162.523 123.383 172.331 117.778 163.224" fill="rgb(167,109,59)"/>
    <path d="M 402.195 342.561 C 409.2 345.363 404.297 354.47 406.398 356.571 C 409.901 353.769 409.2 350.967 409.2 348.165 C 407.099 346.063 404.997 346.063 404.297 343.261" fill="rgb(105,40,20)"/>
    <path d="M 396.591 4.203 C 390.286 5.604 384.682 4.203 377.676 5.604 C 382.58 5.604 390.286 4.203 388.184 11.208 C 390.286 4.203 401.495 3.502 397.992 4.903" fill="rgb(229,193,137)"/>
    <path d="M 400.794 271.106 C 399.393 276.71 400.794 283.015 400.794 288.619 C 402.896 283.015 403.596 276.71 401.495 270.406" fill="rgb(184,111,51)"/>
    <path d="M 195.538 400.004 C 193.436 403.507 190.634 405.609 187.131 407.71 C 192.035 403.507 207.447 409.111 195.538 401.405" fill="rgb(242,197,137)"/>
    <path d="M 408.5 208.759 C 404.997 212.261 404.297 217.866 402.896 222.069 C 407.799 219.967 408.5 214.363 408.5 210.16" fill="rgb(184,108,50)"/>
    <path d="M 130.388 80.561 C 129.688 81.962 127.586 81.962 126.885 82.663 C 126.185 85.465 126.185 86.165 126.885 87.566 C 122.682 105.78 128.286 127.497 126.885 145.01 C 128.286 124.695 122.682 105.78 128.286 84.064 C 128.286 84.064 134.591 79.86 132.49 81.261" fill="rgb(169,105,55)"/>
    <path d="M 123.383 47.636 C 118.479 51.139 121.281 58.144 117.778 60.946 C 117.078 67.251 118.479 70.753 119.18 74.256 C 115.677 66.55 121.982 57.443 122.682 49.037" fill="rgb(107,45,20)"/>
    <path d="M 213.051 9.107 C 204.645 12.609 231.265 7.005 235.468 11.909 C 229.864 9.107 222.859 9.107 215.853 7.705" fill="rgb(126,53,12)"/>
    <path d="M 397.992 281.614 C 395.89 299.828 403.596 315.94 404.997 331.352 C 406.398 303.331 399.393 320.844 397.291 280.213" fill="rgb(231,193,145)"/>
    <path d="M 388.885 399.304 C 381.88 405.609 370.671 403.507 360.864 404.908 C 367.869 406.309 395.89 402.806 388.885 400.004" fill="rgb(226,172,110)"/>
    <path d="M 316.73 402.106 C 330.741 404.208 343.35 407.01 358.762 405.609 C 345.452 404.908 334.243 404.208 318.832 402.106" fill="rgb(226,171,109)"/>
    <path d="M 346.853 4.203 C 326.537 9.807 360.864 5.604 371.372 4.203 C 362.965 3.502 352.457 6.304 342.65 4.203" fill="rgb(223,194,147)"/>
    <path d="M 145.8 344.662 C 146.5 350.266 142.297 349.566 144.399 353.769 C 150.704 353.069 148.602 350.967 150.704 348.865 C 147.901 346.764 146.5 350.266 145.099 346.764" fill="rgb(230,186,118)"/>
    <path d="M 182.228 23.818 C 185.03 22.417 187.832 25.919 189.233 25.919 C 185.73 28.021 180.126 28.021 180.826 23.818" fill="rgb(227,162,89)"/>
    <path d="M 171.019 37.828 C 175.222 37.828 174.522 44.133 175.222 46.935 C 172.42 44.834 173.121 41.331 169.618 39.229" fill="rgb(196,115,49)"/>
    <path d="M 121.982 88.267 C 121.281 103.679 120.581 121.192 119.18 136.604 C 120.581 123.994 121.281 104.379 122.682 89.668" fill="rgb(230,173,107)"/>
    <path d="M 398.692 68.652 C 401.495 79.16 402.195 92.47 401.495 103.679 C 403.596 93.171 400.094 77.058 400.794 68.652" fill="rgb(245,195,131)"/>
    <path d="M 172.42 394.4 C 168.217 403.507 174.522 398.603 179.425 397.202 C 177.324 397.202 175.222 397.903 173.821 394.4" fill="rgb(212,157,92)"/>
    <path d="M 407.799 68.652 C 407.799 74.256 408.5 85.465 407.799 92.47 C 409.901 86.165 407.799 76.358 410.602 69.352" fill="rgb(210,168,121)"/>
    <path d="M 365.767 5.604 C 368.57 4.903 372.773 5.604 375.575 4.903 C 372.773 7.705 369.27 7.705 366.468 7.005" fill="rgb(224,185,126)"/>
    <path d="M 236.869 1.401 C 243.174 3.502 246.677 2.802 258.586 4.903 C 260.687 0 243.875 2.101 237.57 1.401" fill="rgb(207,168,120)"/>
    <path d="M 393.789 48.336 C 395.19 46.935 396.591 50.438 397.992 51.139 C 396.591 52.54 395.89 54.641 395.19 54.641 C 393.088 52.54 391.687 51.139 393.789 49.737" fill="rgb(202,125,60)"/>
    <path d="M 391.687 253.593 C 397.992 253.593 393.789 264.801 397.992 266.202 C 398.692 263.4 395.89 258.497 398.692 257.095 C 397.291 256.395 396.591 254.994 393.789 254.293" fill="rgb(169,100,48)"/>
    <path d="M 336.345 84.764 C 325.136 84.764 336.345 87.566 339.147 89.668 C 337.046 87.566 339.848 84.764 336.345 84.064" fill="rgb(229,186,121)"/>
    <path d="M 397.992 308.234 C 400.794 316.641 402.195 325.748 402.896 334.855 C 404.997 326.448 400.794 317.341 399.393 308.935" fill="rgb(118,53,19)"/>
    <path d="M 122.682 73.556 C 112.875 74.957 131.789 78.459 141.597 81.261 C 135.992 78.459 125.484 77.058 123.383 73.556" fill="rgb(168,110,61)"/>
    <path d="M 117.778 114.187 C 119.88 114.887 116.377 121.192 117.078 123.994 C 114.976 121.192 114.976 118.39 117.078 116.288" fill="rgb(170,122,79)"/>
    <path d="M 117.078 220.668 C 121.281 227.673 129.688 245.887 122.682 250.791 C 127.586 240.283 121.982 229.074 117.078 221.368" fill="rgb(226,174,109)"/>
    <path d="M 389.586 59.545 C 391.687 59.545 393.088 58.844 392.388 64.449 C 388.885 63.748 390.286 62.347 388.184 60.946" fill="rgb(223,159,92)"/>
    <path d="M 123.383 352.368 C 123.383 355.871 126.885 356.571 128.987 355.871 C 130.388 352.368 126.885 352.368 125.484 353.069" fill="rgb(109,28,9)"/>
    <path d="M 157.709 9.807 C 145.099 14.711 161.212 7.005 161.912 12.609 C 164.014 14.01 164.014 21.016 166.816 26.62 C 171.72 17.513 161.912 25.919 164.714 9.807 C 161.912 10.508 159.81 10.508 158.409 9.807" fill="rgb(163,114,70)"/>
  </g>
  <g transform="matrix(0.083493, 0, 0, -0.083493, 49.209423, 525.382019)" fill="#000000" stroke="none">
    <path d="M4282 5358 c-60 -59 -78 -98 -47 -98 8 0 37 -6 63 -13 45 -12 47 -9 36 50 -10 48 -6 63 17 63 16 0 29 14 29 30 0 46 -31 36 -98 -32z"/>
    <path d="M3740 5290 c-20 -24 -20 -47 1 -115 14 -47 26 -130 26 -186 0 -82 6 -100 35 -100 19 0 31 5 27 13 -4 7 10 29 32 49 24 22 35 50 28 72 -28 89 9 123 74 67 33 -27 71 -44 84 -37 13 7 16 6 8 -3 -15 -17 57 -90 89 -90 10 0 12 -10 5 -22 -10 -16 -19 -14 -31 5 -14 22 -17 21 -17 -3 0 -45 32 -87 55 -73 11 7 25 -1 31 -17 13 -34 53 -41 53 -9 0 12 -9 16 -20 9 -11 -7 -20 9 -20 37 0 27 -5 64 -12 81 -15 38 51 45 87 9 12 -12 56 -24 97 -25 42 -1 79 -13 83 -28 6 -18 -5 -22 -41 -13 -50 12 -96 -23 -62 -48 10 -7 18 -26 18 -43 0 -16 17 -33 38 -37 52 -10 197 150 181 200 -11 34 8 47 56 39 8 -1 15 8 15 20 0 14 -19 18 -50 10 -100 -25 -216 8 -178 51 44 48 27 47 -61 -5 -39 -23 -66 -50 -60 -60 24 -39 -123 -7 -171 37 -27 25 -81 67 -120 92 -38 25 -106 70 -151 100 -95 62 -96 62 -129 23z"/>
    <path d="M4503 5138 c-14 -23 -22 -46 -17 -50 16 -17 75 17 95 54 30 55 -43 51 -78 -4z"/>
    <path d="M3671 5009 c-21 -16 -54 -29 -73 -29 -35 0 -118 -97 -118 -137 0 -39 58 -1 64 42 10 70 56 66 56 -4 0 -46 -12 -67 -45 -80 -25 -10 -33 -19 -18 -20 16 0 22 -13 15 -31 -7 -16 -18 -45 -25 -63 -10 -24 -7 -29 12 -17 17 10 39 -1 63 -32 l37 -48 1 46 c0 26 9 41 20 34 12 -7 15 11 7 49 -7 34 -4 61 7 61 29 0 23 57 -6 68 -29 11 -8 114 34 164 29 36 19 35 -31 -3z"/>
    <path d="M4740 5032 c0 -25 64 -155 72 -146 12 11 -45 154 -61 154 -6 0 -11 -3 -11 -8z"/>
    <path d="M748 4954 c-52 -17 -62 -31 -60 -76 2 -52 32 -110 32 -63 0 12 11 34 25 49 112 121 112 126 3 90z"/>
    <path d="M3921 4861 c-31 -57 -26 -81 19 -81 31 0 40 13 40 60 0 68 -29 79 -59 21z"/>
    <path d="M3760 4828 c0 -39 -34 -153 -67 -224 -14 -30 -14 -57 -2 -77 27 -43 57 -43 66 0 4 24 -1 33 -15 24 -27 -16 -29 31 -4 93 41 101 49 127 53 161 2 20 -4 41 -14 47 -9 6 -17 -5 -17 -24z"/>
    <path d="M1110 4669 c-51 -72 -114 -167 -139 -211 l-46 -81 -127 105 c-71 57 -156 136 -190 174 -34 39 -67 62 -73 51 -13 -19 254 -431 287 -444 10 -3 19 -21 19 -40 1 -24 8 -20 24 14 20 40 16 52 -26 86 l-49 39 64 -31 c80 -39 98 -39 66 -1 -32 38 -6 39 31 1 33 -32 39 -59 9 -41 -11 7 -20 3 -20 -9 0 -11 11 -21 24 -21 19 0 19 -5 0 -24 -13 -13 -23 -42 -22 -65 2 -34 4 -35 12 -6 8 32 12 32 40 4 17 -17 36 -25 43 -17 7 7 2 18 -12 22 -14 5 -20 18 -14 28 22 36 49 -5 49 -73 0 -72 -16 -85 -56 -45 -13 13 -29 18 -35 12 -19 -19 112 -156 149 -156 19 0 52 -13 73 -29 35 -26 30 -26 -46 -7 -47 11 -85 29 -85 40 0 10 -10 12 -21 5 -12 -7 -17 -18 -11 -24 15 -14 -113 -124 -131 -113 -24 15 -77 132 -67 148 5 9 -2 20 -17 26 -40 16 -56 94 -19 94 46 0 29 23 -171 229 -198 205 -220 218 -176 109 15 -37 47 -149 71 -249 51 -208 73 -254 100 -211 22 34 82 14 82 -27 0 -17 8 -31 18 -31 16 0 102 -128 102 -151 0 -4 -12 -3 -27 3 -15 5 -38 -4 -52 -21 -28 -34 -71 -43 -51 -11 21 35 -16 22 -61 -21 l-44 -41 -14 96 c-14 99 -307 745 -338 746 -10 0 -11 -25 -3 -55 41 -157 69 -375 69 -540 1 -148 7 -185 30 -185 95 0 156 -73 160 -190 1 -28 14 -40 46 -38 53 1 54 -5 13 -72 l-30 -50 12 50 c11 45 6 43 -61 -27 -50 -52 -69 -89 -62 -116 5 -22 -7 -77 -28 -123 -21 -46 -38 -104 -39 -128 0 -59 -34 -76 -91 -46 -73 40 -101 14 -165 -154 -97 -254 -100 -325 -5 -142 93 179 104 188 168 146 91 -59 105 -230 45 -550 -6 -27 -18 -108 -28 -180 -23 -165 -123 -642 -142 -676 -33 -59 68 -523 121 -556 24 -15 21 13 -13 145 -75 289 2 719 91 504 14 -34 69 -134 122 -222 125 -209 170 -333 197 -548 30 -232 138 -689 173 -726 34 -37 34 -37 -12 224 l-37 215 58 186 c31 102 92 243 134 314 42 72 101 173 132 225 108 189 255 236 376 121 l54 -51 -49 -97 c-27 -53 -43 -109 -37 -125 6 -17 -7 -71 -29 -120 -44 -100 -14 -218 61 -244 115 -39 166 -189 76 -223 -84 -32 -80 -69 5 -43 36 11 80 25 99 31 44 13 67 83 38 112 -12 12 -22 36 -22 54 0 17 -17 65 -37 105 -42 81 -24 113 94 174 25 13 55 50 66 82 33 95 154 119 339 67 l114 -32 -19 -67 c-10 -36 -22 -101 -27 -143 -26 -213 -36 -262 -69 -338 -47 -107 -238 -271 -346 -298 -58 -14 -93 -37 -114 -74 -33 -60 -18 -95 27 -58 16 13 77 27 135 31 65 4 146 27 204 59 85 44 113 49 215 39 131 -14 139 -5 86 98 -27 50 -28 70 -9 101 17 28 18 45 3 60 -35 35 -25 125 17 163 29 26 36 51 28 93 -10 50 -6 58 31 58 37 0 40 6 22 40 -27 51 24 78 72 38 28 -23 30 -17 17 48 -17 95 9 94 65 -3 43 -75 43 -77 6 -115 -21 -21 -43 -65 -50 -98 -10 -46 -8 -53 8 -30 16 22 21 -7 22 -116 0 -129 4 -146 35 -140 19 4 45 -6 58 -22 37 -50 127 2 127 73 l-1 55 -24 -48 c-59 -115 -105 -24 -55 108 26 69 44 55 134 -111 76 -139 93 -153 142 -122 21 13 6 51 -63 165 -75 123 -86 153 -65 178 14 16 37 59 51 95 36 90 69 107 52 28 -11 -49 -7 -63 15 -63 22 0 33 30 41 105 16 155 21 175 44 191 11 8 33 52 48 99 19 59 39 85 64 85 50 0 48 -11 -33 -171 -82 -163 -78 -149 -38 -149 32 0 32 -23 -1 -104 -11 -27 -6 -31 31 -21 41 11 43 6 32 -62 -7 -44 -4 -69 7 -62 11 6 19 -7 19 -29 0 -22 -9 -45 -19 -51 -11 -7 -15 -25 -9 -40 6 -15 1 -33 -11 -41 -13 -8 -17 -40 -10 -79 7 -37 3 -86 -10 -108 -19 -38 -14 -45 49 -72 46 -19 70 -42 70 -68 0 -51 199 -93 226 -48 9 14 25 21 35 14 35 -21 20 44 -21 93 -161 194 -155 181 -156 322 0 106 6 131 28 123 23 -9 23 0 5 54 -19 52 -18 69 5 87 16 12 25 44 21 70 -5 37 1 45 27 35 24 -10 30 -4 22 22 -9 32 -18 208 -14 290 6 118 782 -9 813 -134 16 -63 44 -66 53 -6 6 41 11 38 44 -25 119 -224 465 -540 591 -540 166 0 -181 436 -465 584 -57 30 -90 55 -73 55 17 1 42 -10 55 -23 50 -50 20 9 -91 178 -63 97 -132 214 -153 261 -43 96 -75 112 -62 30 64 -390 68 -377 -83 -335 -64 18 -227 38 -362 44 l-245 11 -20 73 c-29 105 -25 162 11 162 23 0 28 12 19 40 -11 33 -4 40 41 40 88 0 188 59 201 117 6 29 15 64 19 77 3 13 61 39 128 57 153 43 290 158 324 270 30 103 24 105 204 -83 170 -177 201 -233 183 -326 -18 -95 44 -9 71 97 91 361 210 381 547 92 353 -303 475 -527 492 -901 1 -23 6 -21 23 7 15 26 15 92 -1 230 -12 106 -25 229 -30 273 -4 44 -22 148 -41 230 -56 245 16 901 103 934 90 35 222 -247 240 -511 15 -213 43 -164 44 77 0 191 -20 322 -56 362 -60 68 -330 475 -357 538 -16 39 -45 88 -64 110 -90 101 -221 390 -221 488 0 200 105 218 307 54 147 -120 143 -90 -10 81 -167 186 -215 209 -294 142 -34 -28 -55 -57 -47 -65 8 -9 -7 -4 -33 9 -26 14 -52 40 -57 59 -5 19 -121 137 -257 262 -137 126 -249 233 -249 240 0 6 -27 28 -61 47 -49 29 -56 42 -38 65 19 23 16 28 -19 28 -23 0 -42 13 -42 29 0 16 -18 39 -40 51 -59 31 -54 -45 5 -87 39 -27 40 -31 9 -32 -20 -1 -76 26 -124 59 -48 33 -97 60 -109 60 -11 0 -21 10 -21 21 0 12 -9 16 -20 9 -28 -18 -25 -89 5 -101 14 -5 53 -12 87 -16 92 -10 116 -30 84 -68 -23 -28 -20 -30 19 -20 28 7 45 2 45 -13 0 -13 26 -39 58 -58 32 -18 78 -72 102 -119 l44 -85 -43 39 -44 40 13 -53 c15 -60 -41 -176 -84 -176 -14 0 -26 -8 -26 -19 0 -37 40 -42 98 -12 69 35 110 40 92 11 -17 -27 -1 -25 83 10 105 44 116 37 49 -28 -50 -49 -82 -61 -196 -72 -75 -7 -152 -18 -171 -23 -26 -7 -32 -1 -23 27 6 20 -18 2 -53 -40 -35 -42 -92 -90 -127 -107 -41 -21 -54 -23 -37 -5 35 36 31 52 -15 64 -22 6 -40 19 -40 29 0 24 210 165 245 165 29 0 128 119 153 185 18 48 -39 155 -83 155 -12 0 -39 15 -59 34 -22 19 -68 33 -107 32 -38 -1 -69 7 -69 19 0 11 -22 -3 -50 -33 -52 -56 -62 -102 -32 -149 13 -21 19 -18 31 10 17 45 13 59 -12 52 -11 -4 -14 3 -7 15 28 45 64 14 95 -82 31 -97 31 -104 -7 -165 l-40 -63 14 125 c14 137 -9 166 -44 55 -12 -38 -15 -70 -7 -70 9 0 6 -29 -5 -65 -31 -96 -46 -122 -75 -131 -18 -6 -21 0 -10 18 9 14 15 54 13 87 -3 34 4 90 14 125 12 40 12 86 0 120 -18 55 -18 55 -9 -8 5 -36 1 -70 -10 -77 -11 -6 -19 -5 -17 5 6 37 -3 66 -23 66 -11 0 -19 -11 -18 -25 14 -101 -4 -277 -26 -269 -14 4 -23 28 -20 53 6 57 -28 121 -66 121 -16 0 -29 10 -29 22 0 13 -18 18 -40 12 -22 -6 -35 -3 -30 6 6 9 0 42 -13 73 -13 31 -22 64 -20 73 2 10 -6 11 -17 4 -20 -12 -16 -42 16 -130 10 -26 7 -26 -22 -3 -20 16 -34 56 -34 94 0 119 -32 90 -76 -67 -73 -264 -75 -291 -26 -260 23 14 33 29 22 33 -11 3 -20 19 -20 34 0 23 10 24 49 6 28 -13 46 -30 40 -38 -21 -35 116 -60 152 -28 21 19 40 24 47 12 7 -11 3 -26 -8 -33 -12 -7 -17 -29 -10 -49 12 -40 -36 -168 -56 -148 -8 8 -14 -5 -14 -27 0 -23 -13 -52 -30 -66 -16 -14 -30 -38 -30 -54 0 -15 -9 -23 -20 -16 -11 7 -20 2 -20 -10 0 -12 -9 -17 -21 -9 -44 27 -9 164 59 227 84 79 67 102 -77 102 l-118 0 -71 -128 c-40 -71 -107 -172 -149 -226 l-78 -99 -132 1 c-96 0 -142 -10 -169 -35 -22 -19 -53 -28 -71 -21 -39 15 -38 17 -13 -71 19 -68 -4 -133 -40 -111 -9 5 -21 -4 -28 -21 -13 -34 27 -56 82 -45 25 5 46 -14 70 -63 51 -106 43 -116 -32 -43 -65 63 -69 64 -81 24 -11 -34 -21 -38 -51 -22 -70 37 -77 20 -17 -40 62 -62 97 -76 97 -39 0 12 -10 15 -22 8 -15 -9 -14 1 2 31 l24 44 29 -57 c38 -74 74 -111 55 -57 -15 42 57 -24 142 -130 l40 -50 -44 37 c-25 21 -59 32 -76 26 -18 -7 -27 -5 -21 5 18 29 -118 121 -149 102 -23 -14 -23 -27 -2 -73 24 -53 21 -60 -51 -128 -76 -72 -104 -138 -60 -141 13 0 38 -4 56 -8 25 -4 41 18 60 82 14 50 33 80 43 70 10 -10 4 -44 -14 -79 -36 -68 -41 -103 -14 -103 9 0 22 27 29 60 8 39 24 60 47 60 26 0 29 5 10 24 -32 32 -30 57 3 44 16 -6 45 -44 65 -84 21 -41 47 -81 58 -89 11 -8 -10 -15 -46 -15 -37 0 -62 7 -57 15 5 9 -3 33 -19 54 -26 37 -28 35 -28 -20 0 -76 -90 -130 -107 -64 -7 26 -19 34 -36 23 -14 -9 -51 -14 -81 -12 -31 3 -56 -6 -56 -18 0 -16 -9 -16 -30 2 -16 14 -30 37 -30 52 0 16 -14 28 -32 28 -20 0 -28 11 -21 29 6 16 -8 52 -30 81 -50 63 -38 83 26 46 63 -35 80 -62 51 -80 -18 -12 -18 -15 0 -16 13 0 29 -18 36 -40 7 -22 25 -40 39 -40 17 0 23 15 17 40 -6 22 -22 40 -36 40 -42 0 -10 81 40 100 42 16 81 76 62 95 -18 18 -52 -18 -38 -41 8 -14 0 -13 -20 3 -28 23 -38 22 -65 -5 -39 -39 -57 -40 -88 -3 -70 85 -185 54 -234 -64 -15 -36 -34 -66 -42 -67 -63 -6 -96 -20 -103 -42 -15 -45 -125 -136 -149 -123 -17 10 -17 7 -1 -12 30 -31 160 -20 153 14 -3 14 5 25 17 25 12 0 17 13 11 29 -7 20 -1 25 19 18 18 -7 27 -2 24 14 -3 14 13 36 37 48 23 12 59 36 79 52 32 26 34 25 22 -6 -32 -85 42 -112 100 -36 19 25 22 13 18 -64 -3 -61 5 -104 21 -118 15 -12 27 -55 27 -94 l-1 -73 -41 64 c-27 42 -51 60 -72 52 -25 -10 -28 -1 -17 51 9 38 6 63 -6 63 -11 0 -27 21 -36 46 -17 45 -18 45 -94 -30 -68 -66 -72 -76 -35 -76 54 0 52 -17 -8 -85 -56 -63 -75 -67 -112 -23 -22 27 -21 37 12 60 21 15 29 28 18 28 -11 0 -31 -11 -44 -24 -20 -20 -34 -19 -69 2 -45 28 -45 27 -7 -15 42 -47 31 -55 -29 -23 -32 18 -36 15 -27 -15 10 -30 7 -30 -20 4 -35 42 -92 59 -92 28 0 -11 -14 -6 -31 12 -38 37 -111 41 -145 7 -19 -19 -24 -16 -24 11 0 20 9 30 20 23 25 -16 25 -10 -2 67 -16 45 -34 63 -65 62 -42 -2 -42 -2 3 -20 39 -15 47 -59 12 -59 -6 0 -4 10 4 23 10 16 -1 19 -37 10 -55 -14 -122 35 -71 53 14 5 -1 6 -34 2 -60 -6 -60 -6 -15 25 25 18 45 47 45 66 0 18 13 51 29 72 51 67 -7 218 -68 179 -10 -6 -24 -2 -31 10 -7 11 -1 21 14 21 14 1 8 10 -14 19 -22 9 -28 18 -14 19 15 0 21 10 14 21 -11 17 10 23 65 19 8 -1 12 -15 9 -30 -12 -59 39 -26 68 44 22 51 25 78 9 94 -11 11 -21 40 -21 63 0 87 -54 128 -80 61 -12 -33 -18 -76 -13 -96 5 -20 -1 -34 -14 -32 -45 8 -135 -49 -123 -79 8 -22 -2 -26 -39 -19 -29 5 -45 1 -38 -10 7 -12 -5 -14 -30 -6 -36 12 -43 6 -43 -38 0 -38 10 -51 41 -51 23 0 36 9 29 20 -7 11 -4 20 5 20 35 0 43 -26 21 -68 -21 -38 -20 -40 12 -14 32 27 34 22 28 -68 -7 -109 -56 -154 -56 -52 0 44 -10 62 -32 62 -27 0 -28 5 -8 30 36 43 -15 41 -64 -3 -20 -18 -43 -26 -51 -17 -8 8 -3 20 11 25 18 6 13 20 -18 47 -27 23 -53 31 -66 21 -13 -11 -51 -6 -92 10 -38 15 -50 24 -25 19 97 -18 38 27 -65 50 -61 13 -121 39 -134 56 -20 27 -20 28 4 7 15 -14 42 -25 59 -24 26 0 25 4 -4 21 -19 11 -35 33 -35 48 0 16 -22 49 -50 74 -41 39 -47 58 -37 122 14 83 53 90 64 12 7 -52 38 -98 65 -98 24 0 23 85 -1 147 -13 36 -12 53 5 60 13 5 3 11 -22 11 -26 1 -41 -7 -34 -18 17 -28 -6 -25 -37 4 -30 28 33 105 73 89 17 -7 16 -10 -2 -11 -15 -1 -21 -11 -15 -21 7 -11 25 -14 42 -8 19 7 30 -2 31 -26 7 -131 9 -137 41 -131 40 6 67 -28 37 -46 -36 -22 -21 -50 28 -50 66 0 114 -20 101 -42 -6 -10 4 -18 22 -18 18 0 51 -23 73 -51 48 -60 69 -52 37 14 -22 45 -22 45 8 8 17 -21 31 -46 31 -55 0 -9 9 -16 21 -16 11 0 6 27 -12 62 -23 45 -26 69 -11 84 28 28 29 74 2 74 -11 0 -20 -12 -20 -26 0 -50 -43 -74 -75 -41 -23 22 -25 35 -8 52 17 17 23 14 23 -11 0 -19 9 -34 19 -34 11 0 15 13 9 28 -6 15 8 65 31 110 41 80 34 107 -15 58 -19 -19 -24 -12 -24 30 0 46 9 54 55 54 52 -1 142 -39 92 -40 -80 -1 -68 -199 13 -217 16 -3 36 -16 44 -29 10 -16 17 -14 23 7 30 103 61 211 62 222 2 29 31 42 32 15 1 -16 8 -11 17 12 29 74 4 110 -79 110 -41 0 -79 -9 -82 -20 -4 -12 -37 6 -73 40 -91 82 -63 113 44 50 106 -62 96 -63 181 12 70 62 71 62 71 15 0 -26 14 -96 31 -157 17 -60 45 -164 62 -230 42 -159 55 -170 218 -178 77 -4 156 -8 176 -9 28 -2 35 -14 27 -44 -14 -53 87 -118 177 -115 72 3 247 -75 263 -117 12 -31 71 -35 121 -8 19 10 51 23 71 29 51 16 10 92 -43 79 -26 -7 -51 9 -80 49 -63 89 -52 101 20 23 35 -38 57 -58 49 -44 -12 20 -4 20 37 2 28 -13 51 -31 51 -40 0 -9 11 -17 24 -17 13 0 -2 27 -33 59 -31 33 -62 58 -69 58 -39 -5 -63 8 -82 43 -17 32 -15 37 10 27 16 -6 30 -1 30 11 0 31 32 27 67 -8 39 -39 66 -38 81 2 9 24 4 29 -19 20 -17 -6 -26 -3 -20 7 7 10 3 24 -9 31 -11 7 -20 2 -20 -11 0 -14 -13 -18 -35 -9 -19 8 -52 16 -73 17 -21 2 -43 16 -48 31 -7 20 1 24 24 15 19 -7 30 -6 25 2 -5 8 4 27 19 41 23 21 28 17 28 -25 0 -28 8 -51 18 -51 10 0 14 18 8 40 -6 22 -1 40 11 40 13 0 34 -18 48 -40 51 -82 107 -16 127 152 21 184 89 272 223 292 73 10 138 -41 118 -93 -15 -38 56 -42 130 -7 47 22 50 32 44 143 -8 138 -50 216 -67 123 -14 -77 -48 -83 -83 -16 -15 31 -58 98 -96 150 -63 87 -67 105 -63 227 7 184 -117 161 -168 -31 -13 -49 -12 -48 39 10 65 73 61 49 -32 -190 -100 -261 -180 -309 -206 -124 -51 348 -385 644 -581 516 -60 -40 -69 -84 -11 -53 128 69 267 -13 360 -211 76 -160 107 -287 52 -213 -18 25 -50 45 -71 45 -43 0 -100 71 -100 124 0 47 -8 46 -74 -16 -31 -29 -83 -66 -116 -83 -33 -17 -92 -55 -130 -86 -146 -114 -276 -61 -200 82 57 105 -51 45 -120 -67 l-35 -57 -46 77 c-26 42 -67 101 -93 132 -123 151 -191 301 -202 444 -15 216 -61 225 -194 39z m61 -177 c28 -28 23 -59 -26 -192 -6 -16 -12 -46 -14 -66 -3 -19 -14 -45 -27 -58 -16 -16 -20 -5 -14 43 6 46 1 62 -17 55 -42 -16 -37 109 7 181 45 73 52 76 91 37z m3176 -108 c-14 -52 -74 -61 -62 -9 4 19 18 33 31 30 13 -3 24 6 24 18 0 13 4 20 9 14 5 -5 4 -29 -2 -53z m-3005 -273 c22 -23 24 -172 3 -202 -34 -49 -79 -47 -74 3 3 26 -1 48 -10 48 -24 0 -121 96 -121 120 0 12 10 16 21 9 43 -26 114 10 130 66 13 47 17 49 24 15 5 -22 17 -49 27 -59z m-624 -51 c23 -44 38 -80 34 -80 -9 0 -112 156 -112 171 0 28 39 -18 78 -91z m2322 8 c0 -27 -14 -55 -31 -61 -42 -16 -46 -7 -25 69 20 73 56 68 56 -8z m-2568 -218 c73 -73 67 -141 -9 -102 -49 26 -59 46 -70 136 -20 164 -12 247 11 120 12 -66 37 -124 68 -154z m2425 91 c-18 -52 -77 -124 -77 -95 0 15 82 154 91 154 4 0 -2 -26 -14 -59z m1893 39 c-7 -11 0 -20 15 -20 28 0 282 -302 337 -401 18 -32 36 -56 41 -53 4 2 1 -4 -6 -14 -16 -19 18 -90 59 -122 14 -11 27 -41 29 -65 2 -25 12 -45 21 -45 10 0 13 -14 6 -31 -6 -18 -3 -26 8 -19 11 7 20 -2 20 -19 0 -17 18 -46 39 -65 21 -18 34 -41 29 -50 -6 -9 -1 -16 10 -16 72 0 188 -323 128 -357 -27 -15 -34 -53 -37 -196 -2 -97 -11 -222 -20 -277 l-16 -100 -35 110 c-20 61 -36 143 -37 184 0 40 -12 85 -26 100 -69 73 -352 691 -383 836 -6 28 -74 130 -151 228 -130 163 -150 196 -143 237 1 8 -8 15 -19 15 -12 0 -17 8 -11 17 14 23 -73 13 -124 -15 -23 -12 -89 -30 -148 -40 l-106 -17 90 -4 90 -4 -110 -26 c-60 -15 -161 -38 -224 -52 -116 -25 -140 -54 -45 -54 28 0 72 -19 97 -43 25 -23 51 -37 58 -29 21 21 150 -268 175 -391 12 -61 53 -222 91 -356 65 -228 69 -259 64 -497 l-6 -254 -64 60 c-36 33 -69 55 -75 49 -6 -6 -11 -1 -11 10 0 24 -91 55 -141 49 -32 -4 -79 73 -79 129 0 17 -9 25 -20 18 -11 -7 -20 7 -20 30 0 26 10 40 25 35 14 -5 47 27 73 72 l48 80 37 -46 c20 -25 37 -57 37 -71 0 -14 11 -30 25 -35 49 -19 41 254 -9 298 -24 20 -36 26 -29 13 20 -34 -38 -139 -76 -139 -27 0 -36 19 -29 68 1 8 10 13 20 10 28 -8 21 18 -15 59 -40 43 -21 73 23 36 17 -14 36 -21 41 -15 6 6 -18 32 -53 58 -202 149 -246 215 -297 437 -45 200 -70 506 -37 454 9 -14 16 5 18 46 2 63 3 65 17 20 l14 -50 72 74 c60 63 73 69 84 41 12 -32 -33 -85 -73 -85 -9 0 -16 -9 -16 -20 0 -35 93 -21 130 19 19 22 53 46 75 52 62 20 175 103 160 118 -8 7 4 7 26 -1 21 -9 46 -25 55 -37 10 -14 27 -5 47 24 40 56 82 58 91 3 6 -40 7 -40 76 9 74 53 110 66 90 33z m323 -192 c0 -46 -38 -22 -98 64 -101 142 -101 159 -1 62 55 -53 99 -109 99 -126z m-2601 177 c38 -26 54 -126 18 -112 -16 6 -25 19 -19 28 5 9 -6 26 -26 37 -27 16 -28 21 -5 22 27 1 27 3 0 20 -16 11 -21 19 -10 19 11 0 30 -6 42 -14z m-1012 -63 c0 -69 -76 -111 -143 -78 -58 29 -61 34 -21 35 25 0 50 15 57 31 12 32 107 43 107 12z m1167 -12 c7 -16 35 -30 62 -30 31 0 51 -11 51 -28 0 -16 11 -33 25 -39 17 -7 15 -10 -5 -11 -17 -1 -42 -20 -55 -42 -20 -32 -20 -39 0 -35 14 3 30 16 35 29 7 17 20 15 49 -5 34 -25 34 -29 5 -29 -19 0 -34 -14 -34 -32 0 -19 -11 -28 -28 -22 -15 6 -34 6 -41 -1 -29 -29 -71 -19 -71 17 0 21 -13 38 -30 38 -16 0 -30 4 -30 8 0 5 -6 25 -14 45 -11 31 -9 33 17 12 16 -13 51 -20 76 -15 70 13 70 25 3 40 -34 7 -67 22 -74 34 -8 13 2 15 29 7 33 -11 40 -7 31 18 -7 17 -20 31 -30 31 -10 0 -18 9 -18 20 0 31 34 24 47 -10z m-392 -23 c25 -6 45 -24 45 -39 0 -17 21 -28 50 -28 28 0 50 -9 50 -20 0 -10 22 -25 48 -31 27 -7 53 -30 59 -52 8 -31 4 -35 -18 -16 -67 56 -97 10 -34 -53 85 -85 107 -201 44 -225 -38 -13 -60 -3 -127 62 -79 77 -115 76 -73 -3 24 -45 28 -142 6 -142 -8 0 -51 32 -95 70 -73 64 -75 68 -24 50 84 -30 85 -27 6 60 -45 51 -72 100 -72 135 -1 118 -35 110 -50 -11 l-14 -121 -96 69 c-146 105 -146 167 -1 245 109 58 206 75 296 50z m-573 -64 c-14 -25 -13 -44 1 -58 12 -12 17 -34 11 -48 -8 -18 -16 -12 -25 18 -8 25 -23 45 -34 45 -12 0 -5 18 15 40 45 50 57 51 32 3z m1931 -27 c-24 -68 -61 -111 -125 -148 -21 -12 -49 -44 -63 -72 -44 -89 -89 -114 -81 -45 4 39 -3 57 -18 54 -55 -11 20 90 85 116 59 22 66 33 56 78 -11 50 -11 50 21 11 33 -40 34 -39 77 15 57 73 77 70 48 -9z m-2392 -59 l49 -38 -95 13 c-90 12 -95 10 -95 -35 -1 -37 -4 -41 -20 -17 -40 63 46 207 89 148 13 -18 45 -50 72 -71z m3481 -117 c61 -82 127 -190 148 -240 21 -49 48 -103 60 -120 12 -16 37 -61 54 -100 18 -38 74 -159 124 -267 51 -108 92 -214 92 -236 0 -21 12 -63 27 -93 15 -30 39 -103 53 -164 13 -60 36 -137 49 -170 42 -102 87 -267 76 -279 -6 -5 -43 21 -83 60 -40 38 -80 67 -89 64 -9 -3 -34 27 -54 65 -21 39 -38 58 -38 44 -1 -15 -10 -21 -21 -14 -12 7 -16 21 -9 31 6 10 -3 13 -20 7 -18 -7 -31 -2 -31 14 0 19 -6 20 -23 3 -17 -17 -33 -16 -65 5 -38 24 -133 27 -212 8 -16 -5 -42 -24 -56 -43 -60 -80 -70 -39 -59 232 9 203 5 275 -14 295 -14 16 -37 73 -50 128 -13 55 -36 127 -51 160 -32 73 -90 335 -90 409 0 30 -17 70 -38 89 -149 135 -84 240 100 163 37 -15 67 81 45 144 -19 53 42 -15 175 -195z m-2886 92 c4 -41 -3 -86 -14 -99 -13 -17 -12 -40 5 -74 24 -49 3 -199 -28 -199 -19 0 -39 165 -26 214 6 23 1 48 -11 55 -12 7 -21 42 -20 77 l2 64 21 -65 c11 -36 28 -65 38 -65 24 0 21 95 -5 144 -17 32 -16 39 5 32 15 -5 30 -43 33 -84z m-859 55 c36 -10 45 -23 38 -60 -5 -26 3 -57 18 -69 37 -31 34 -97 -5 -112 -21 -7 -49 9 -79 46 -26 32 -48 51 -48 42 -2 -36 -61 46 -61 84 0 61 58 90 137 69z m2715 -136 c-7 -27 4 -125 25 -218 42 -190 41 -202 -56 -623 -53 -232 -255 -288 -397 -111 -67 82 -81 114 -40 89 13 -9 46 -16 72 -17 26 -2 56 -18 67 -37 26 -47 91 -43 118 8 31 58 84 240 72 251 -5 5 3 61 18 123 15 63 28 206 28 318 1 185 5 204 41 216 22 7 40 21 40 31 0 11 5 19 12 19 7 0 7 -22 0 -49z m-882 -71 c7 -11 3 -20 -8 -20 -11 0 -16 -13 -9 -30 8 -22 -3 -30 -40 -30 -65 0 -153 33 -153 58 0 33 191 53 210 22z m747 -275 c-12 -69 -43 -186 -69 -260 l-49 -135 11 140 c6 77 16 208 22 290 6 89 24 170 44 200 l33 50 14 -80 c8 -44 5 -136 -6 -205z m-246 98 c7 -20 17 -22 35 -6 19 16 34 2 60 -59 34 -79 28 -152 -8 -95 -13 21 -17 19 -18 -9 0 -52 -40 -21 -41 32 -1 66 -46 119 -76 89 -18 -18 -21 -8 -13 46 10 62 9 65 -13 24 -26 -51 -77 -61 -77 -15 0 17 9 30 20 30 27 0 99 74 103 105 2 14 7 -6 11 -45 4 -38 12 -82 17 -97z m-332 73 c23 -24 41 -51 41 -60 0 -30 -58 -16 -78 19 -12 19 -21 28 -21 19 -1 -9 -10 -11 -21 -4 -12 8 -10 23 5 40 32 36 27 37 74 -14z m81 -16 c25 -22 36 -40 23 -40 -13 0 -23 -7 -23 -17 0 -9 20 -15 45 -15 35 2 46 -11 52 -55 4 -41 -1 -53 -19 -42 -13 8 5 -27 40 -78 46 -67 77 -93 112 -93 26 0 53 -9 60 -20 7 -11 -2 -20 -19 -20 -17 0 -31 -10 -31 -22 0 -38 49 -7 95 61 51 75 61 49 15 -39 -16 -31 -47 -63 -69 -70 -44 -14 -147 44 -129 73 6 10 -17 51 -52 90 -35 40 -73 93 -84 119 -12 26 -29 42 -38 37 -8 -5 -21 -1 -28 11 -7 11 -3 20 9 20 29 0 27 86 -3 116 -39 39 -6 27 44 -16z m-896 -146 c10 -15 0 -26 -26 -31 -40 -6 -138 65 -138 101 0 22 145 -39 164 -70z m161 6 c42 0 84 -28 166 -112 122 -125 131 -148 60 -148 -67 0 -145 81 -101 105 25 14 21 25 -25 64 -58 50 -87 52 -48 4 24 -29 12 -93 -18 -93 -35 0 -40 40 -5 42 28 1 29 4 6 12 -43 16 -98 66 -146 135 l-43 59 49 -34 c27 -19 74 -34 105 -34z m723 -64 c40 -46 72 -94 72 -107 0 -39 180 -229 217 -229 58 -1 88 -32 74 -78 -13 -41 -131 -65 -131 -26 0 9 -30 31 -66 48 -74 36 -227 294 -206 348 6 17 4 25 -6 19 -10 -6 -28 16 -39 49 -29 83 1 75 85 -24z m861 -181 c36 -36 112 -104 168 -152 115 -96 134 -135 44 -91 -122 61 -152 52 -69 -22 43 -38 84 -69 92 -69 7 -1 6 -27 -4 -59 -9 -33 -12 -64 -6 -69 5 -6 -9 -5 -32 1 -32 8 -42 1 -42 -27 -1 -68 -37 -102 -66 -64 -28 36 -174 104 -190 88 -15 -15 35 -68 78 -82 62 -19 44 -64 -33 -78 -44 -8 -65 -21 -56 -35 7 -13 4 -17 -9 -9 -28 18 -243 -81 -257 -118 -6 -16 -19 -24 -29 -18 -10 6 -18 -3 -18 -20 0 -17 -13 -31 -30 -31 -16 0 -30 -9 -30 -20 0 -11 -10 -18 -23 -15 -13 3 -30 -17 -38 -45 -10 -33 -16 -38 -17 -15 -1 20 6 51 15 70 33 66 68 175 71 218 1 24 8 39 16 35 7 -5 19 10 26 32 7 22 25 40 40 40 15 0 42 20 59 45 19 27 54 45 92 47 78 4 84 12 62 71 -13 33 -11 64 6 96 18 33 28 39 35 19 8 -23 15 -24 42 -1 18 14 41 21 51 15 34 -21 86 10 64 37 -12 14 -16 30 -10 36 6 6 -14 30 -45 54 -55 44 -73 98 -53 166 13 47 19 45 96 -30z m-2528 6 c21 35 79 -9 79 -61 0 -37 -78 -148 -94 -133 -5 5 -11 62 -14 126 -2 64 -1 100 4 79 6 -29 12 -32 25 -11z m-881 -131 c-13 -39 -32 -70 -43 -70 -11 0 -16 11 -10 25 6 14 22 61 36 105 17 50 29 67 33 45 4 -20 -3 -67 -16 -105z m188 115 c9 -8 35 -15 59 -15 26 0 41 -11 37 -28 -4 -18 7 -24 35 -16 23 5 41 2 41 -8 0 -10 -7 -18 -16 -18 -9 0 -28 -47 -43 -105 -14 -58 -37 -132 -52 -165 -15 -35 -30 -182 -37 -350 -6 -159 -29 -398 -51 -529 -31 -180 -36 -257 -21 -310 21 -74 26 -354 5 -301 -6 17 -35 84 -65 150 -30 66 -70 170 -89 230 -19 61 -39 124 -46 140 -6 17 -9 39 -7 49 11 44 28 270 30 381 0 66 10 126 21 134 10 7 20 115 21 240 3 306 102 597 178 521z m497 -101 c4 14 10 -6 11 -44 2 -39 8 -92 14 -120 36 -171 52 -360 47 -570 -6 -220 -2 -248 42 -339 27 -54 49 -128 50 -163 1 -54 6 -61 35 -46 61 33 136 22 136 -20 0 -24 18 -41 50 -47 44 -8 49 -4 38 33 -30 98 -110 140 -167 87 -19 -18 -23 -18 -13 -1 7 13 -2 58 -20 100 -21 48 -42 196 -59 406 -15 182 -33 386 -41 455 l-14 125 53 -4 c62 -5 65 -12 18 -49 -33 -25 -33 -28 -1 -47 65 -39 97 -84 86 -119 -14 -45 38 -89 90 -75 33 9 51 -9 93 -93 29 -57 59 -107 66 -113 111 -79 170 -335 78 -339 -7 -1 -41 -56 -76 -124 -64 -127 -60 -156 21 -157 17 0 49 -19 70 -42 28 -31 56 -40 110 -34 69 6 72 4 56 -38 -10 -26 -9 -49 3 -56 43 -27 14 -91 -75 -167 -115 -99 -103 -126 23 -52 67 38 105 80 137 146 36 76 63 102 148 142 90 43 157 121 104 121 -33 0 -19 29 52 110 38 44 75 96 81 115 12 35 51 47 74 23 7 -7 2 -30 -11 -51 -19 -31 -18 -42 6 -57 54 -34 121 65 75 111 -7 7 -5 34 5 59 10 25 11 52 4 60 -8 8 5 9 29 2 24 -8 49 -4 56 7 8 12 1 16 -18 9 -17 -7 -31 -2 -31 10 0 12 4 22 8 22 5 0 23 5 40 12 50 19 39 -48 -18 -116 -46 -55 -44 -136 4 -136 7 0 7 6 0 12 -7 7 3 27 21 45 17 18 35 29 38 23 13 -21 62 73 74 141 13 67 10 72 -52 90 -79 23 -96 115 -23 125 50 7 77 -58 41 -97 -18 -18 -11 -22 29 -15 50 9 51 7 38 -66 -12 -66 -9 -77 25 -82 65 -10 -273 -295 -351 -296 -16 -1 -15 -6 3 -18 15 -9 20 -22 10 -27 -40 -25 -67 42 -32 77 25 26 27 32 5 25 -31 -11 -162 -237 -149 -258 4 -7 -46 -57 -112 -111 -167 -138 -139 -175 44 -57 40 26 78 41 85 34 15 -14 -106 -145 -134 -145 -10 0 -78 -28 -151 -63 -149 -71 -225 -79 -279 -30 -21 18 -50 33 -66 34 -15 0 -55 22 -88 49 l-60 49 50 91 c44 80 56 90 102 80 34 -8 67 1 100 28 l48 39 -98 42 c-96 41 -140 41 -98 -1 24 -24 -79 -138 -125 -138 -15 0 -37 36 -49 80 -26 96 -113 123 -95 30 7 -35 3 -45 -13 -33 -18 15 -152 16 -192 2 -5 -2 -17 -3 -25 -1 -8 1 -15 -8 -15 -19 0 -53 -133 -134 -234 -144 -13 -1 -20 -9 -14 -19 6 -9 19 -11 29 -5 11 6 19 3 19 -8 0 -11 -7 -23 -15 -26 -31 -14 -104 -122 -94 -139 6 -10 2 -18 -10 -18 -11 0 -20 -7 -19 -15 5 -30 -27 -105 -44 -105 -10 0 -19 25 -20 55 -1 30 -4 78 -8 105 -28 225 5 1184 44 1246 5 9 14 64 19 122 13 150 97 395 115 337 8 -25 25 -39 41 -33 15 6 39 -2 53 -18 29 -30 98 31 98 87 0 18 7 18 28 1 22 -18 30 -18 37 2z m1392 -330 c-26 -48 -72 -12 -72 55 0 48 1 48 45 15 36 -26 41 -42 27 -70z m524 -16 c12 -23 18 -46 12 -51 -5 -6 -20 8 -32 31 -12 23 -32 42 -44 42 -11 0 3 -41 33 -92 52 -88 53 -154 2 -84 -21 29 -42 32 -129 18 -94 -15 -103 -13 -103 22 0 80 39 121 104 108 44 -9 58 -5 50 14 -17 45 82 38 107 -8z m135 -78 c1 -47 -7 -60 -38 -60 -55 0 -73 60 -27 93 53 39 63 34 65 -33z m-1448 -30 c120 -53 123 -58 91 -141 -24 -65 -12 -84 31 -49 47 39 54 14 19 -70 l-32 -76 -34 50 c-18 27 -44 46 -57 42 -31 -11 -90 80 -75 118 6 17 -8 63 -32 103 -51 87 -54 86 89 23z m915 17 c22 -20 37 -24 37 -10 0 13 9 23 20 23 26 0 26 -52 -1 -102 -25 -47 -139 4 -139 63 0 64 31 73 83 26z m-354 -102 c-8 -30 -16 -115 -17 -188 -2 -144 -34 -203 -123 -226 -27 -6 -49 -21 -49 -33 0 -11 10 -14 23 -6 15 9 18 5 9 -9 -8 -13 -22 -19 -30 -14 -9 5 -33 -3 -54 -19 -35 -26 -35 -29 -3 -29 39 -1 43 -17 16 -60 -16 -25 -21 -23 -33 10 -8 21 -40 77 -71 123 -81 118 -77 130 121 328 189 188 237 217 211 123z m917 13 c-11 -11 -59 -26 -105 -32 -47 -7 -89 -23 -94 -37 -5 -14 -32 -23 -59 -20 -40 5 -44 0 -25 -23 13 -15 34 -24 48 -18 16 6 21 -4 14 -29 -10 -40 -45 -54 -45 -19 0 11 -16 20 -35 19 -33 0 -33 -2 0 -27 19 -14 35 -36 35 -49 0 -12 15 -16 33 -9 22 8 29 5 20 -9 -7 -12 2 -26 22 -31 27 -7 24 -10 -10 -12 -29 -1 -45 -15 -45 -37 1 -29 4 -30 19 -6 42 67 63 -75 28 -189 -12 -37 -14 -37 -30 7 -10 27 -9 61 3 83 32 60 22 74 -16 24 l-35 -46 -50 53 c-27 29 -37 49 -21 46 15 -4 30 2 35 14 4 11 -12 22 -35 24 -55 4 -62 12 -46 54 10 25 18 28 29 10 8 -13 25 -18 37 -10 31 19 27 51 -7 51 -33 0 -60 68 -41 105 7 14 0 9 -16 -10 -39 -48 -54 -44 -54 15 0 80 75 115 213 100 66 -8 139 -4 167 7 67 27 93 28 66 1z m834 -8 c0 -5 -35 -27 -78 -49 -114 -58 -291 -244 -353 -371 -29 -60 -61 -110 -69 -110 -9 0 -26 -27 -37 -60 -12 -33 -37 -66 -57 -72 -20 -6 -52 -20 -73 -31 -33 -17 -36 -11 -31 77 3 53 -6 121 -19 152 -27 67 -31 118 -5 77 16 -26 91 -4 122 36 6 7 33 29 60 48 l50 35 -55 -13 c-64 -15 -67 -6 -23 61 32 49 137 114 155 96 6 -5 -8 -42 -29 -80 -47 -84 -41 -96 31 -63 42 19 52 36 45 72 -7 36 3 54 38 70 27 12 48 32 48 45 0 13 47 38 105 55 111 32 175 41 175 25z m-798 -55 c1 -20 3 -20 11 0 13 32 47 12 47 -27 0 -17 -8 -25 -19 -19 -10 6 -24 2 -31 -9 -19 -30 -50 -4 -50 41 0 42 39 55 42 14z m749 -171 c-100 -139 -236 -214 -196 -108 12 34 198 262 235 288 54 40 26 -89 -39 -180z m-818 146 c6 -17 1 -43 -12 -59 -19 -22 -14 -30 23 -37 35 -6 30 -9 -19 -11 -54 -3 -65 -11 -63 -48 3 -76 30 -145 55 -140 13 3 23 -8 23 -23 0 -15 14 -33 30 -39 19 -8 30 0 30 21 0 49 22 17 29 -42 7 -70 -20 -65 -101 16 -37 37 -68 64 -68 59 0 -6 -13 4 -30 20 -39 39 -38 60 2 45 24 -9 29 -4 20 19 -6 18 -12 45 -12 61 0 15 -16 29 -35 30 -22 1 -14 9 21 22 51 18 53 22 22 45 -44 32 -23 91 32 91 23 0 46 -14 53 -30z m-600 -98 c-15 -40 -51 -41 -66 -2 -22 58 9 102 46 65 18 -17 27 -46 20 -63z m672 -101 c5 -29 0 -47 -13 -45 -50 9 -72 94 -24 94 15 0 32 -22 37 -49z m-383 -187 c2 -34 6 -41 12 -19 7 28 16 31 50 13 29 -16 34 -28 18 -44 -12 -12 -22 -47 -22 -78 0 -62 -32 -76 -46 -21 -5 19 -10 -14 -11 -75 -3 -125 24 -193 47 -121 7 24 9 49 3 55 -7 6 2 30 18 53 16 23 29 57 29 76 0 19 11 41 23 49 16 10 20 4 11 -19 -7 -18 -6 -33 2 -33 9 0 27 41 40 90 13 50 32 90 42 90 10 0 7 -43 -8 -95 -29 -108 -87 -245 -91 -215 -1 11 -13 -16 -27 -60 -15 -48 -36 -78 -52 -74 -22 5 -22 0 -2 -24 14 -17 21 -38 15 -47 -32 -52 -29 -225 4 -226 24 -1 21 -6 -11 -19 -25 -10 -51 -45 -60 -80 l-16 -61 -125 124 c-99 99 -131 146 -157 235 -18 62 -37 101 -42 87 -13 -34 -46 -32 -46 3 0 16 -11 32 -24 37 -15 5 -17 21 -6 46 9 22 15 46 13 54 -2 8 8 13 22 10 14 -3 23 12 21 35 -3 22 0 28 7 14 9 -21 17 -21 44 -1 18 14 8 -2 -24 -37 -35 -39 -48 -67 -35 -75 12 -7 22 -3 22 10 0 13 14 18 30 12 17 -7 30 -3 30 7 0 11 18 48 39 83 l39 65 20 -52 c33 -89 59 -84 39 8 -22 95 -7 165 24 115 10 -16 19 -60 19 -99 0 -112 39 -229 66 -202 17 17 17 33 -2 62 -13 22 -24 69 -24 105 -1 36 -8 97 -18 137 -17 75 38 152 67 92 6 -13 6 2 0 33 -7 36 -3 52 10 43 12 -7 22 -37 23 -66z m-944 -94 c54 -103 42 -135 -72 -183 -103 -43 -106 -35 -53 123 59 176 63 177 125 60z m262 -88 c0 -52 -120 -122 -211 -122 -32 0 43 65 105 90 36 16 72 42 78 59 18 47 28 37 28 -27z m991 -9 c11 -44 -165 -506 -185 -486 -26 26 -24 115 4 126 30 11 74 142 100 297 21 123 59 152 81 63z m85 -251 c-4 -68 -15 -93 -41 -98 -36 -7 -55 189 -22 222 33 34 69 -37 63 -124z m-826 -47 c19 -108 19 -152 1 -219 -17 -62 -70 -92 -73 -40 -1 20 -5 24 -11 9 -6 -14 -25 -25 -44 -25 -23 -1 -26 -5 -9 -16 17 -11 18 -24 3 -45 -15 -22 -22 -23 -30 -4 -6 14 -21 19 -34 11 -73 -46 -107 -10 -65 70 42 82 84 113 99 75 7 -18 25 -25 43 -18 28 10 27 14 -3 36 -32 24 -30 43 11 111 10 17 27 55 39 85 31 78 56 68 73 -30z m704 -116 c-12 -61 -27 -94 -38 -83 -21 21 21 208 44 194 8 -5 5 -55 -6 -111z m-1505 -238 c13 -21 -50 -61 -96 -61 -19 0 -26 13 -19 40 11 42 93 57 115 21z m971 -54 c0 -16 9 -24 20 -17 29 18 23 -54 -8 -96 -25 -33 -30 -30 -70 37 -49 82 -52 102 -17 114 38 14 75 -6 75 -38z m1845 -80 c159 -101 404 -364 370 -399 -18 -18 -250 172 -338 277 -168 202 -170 209 -32 122z m-1592 7 c-3 -15 -24 -51 -48 -82 -24 -30 -49 -73 -56 -94 -6 -21 -20 -38 -31 -38 -25 0 39 123 80 154 20 16 23 25 8 25 -33 1 -9 61 24 61 15 0 25 -12 23 -26z"/>
    <path d="M4840 2698 c0 -48 32 -98 63 -98 19 0 0 55 -36 109 -26 38 -27 38 -27 -11z"/>
    <path d="M2645 1504 c14 -37 34 -68 45 -69 57 -8 148 -121 128 -159 -12 -22 -33 -34 -49 -29 -17 7 -23 1 -17 -16 6 -15 27 -22 47 -17 20 5 55 0 77 -12 54 -29 70 15 33 86 -15 29 -19 48 -8 41 10 -6 19 3 19 20 0 17 -10 31 -21 31 -12 0 -16 8 -10 18 15 24 -114 103 -173 107 -25 2 -57 17 -71 34 -21 25 -21 18 0 -35z"/>
    <path d="M3973 4764 c-41 -45 -42 -64 -4 -64 15 0 34 19 41 42 19 56 3 66 -37 22z"/>
    <path d="M4040 4767 c0 -31 56 -35 99 -8 26 17 26 20 0 28 -52 17 -99 7 -99 -20z"/>
    <path d="M3780 4693 c0 -16 -5 -42 -10 -57 -6 -15 1 -43 15 -63 25 -34 27 -34 31 1 14 102 12 133 -11 141 -14 4 -25 -5 -25 -22z"/>
    <path d="M3849 4555 c8 -47 16 -94 18 -105 3 -11 22 -41 44 -66 l39 -45 11 45 c6 25 24 46 40 46 16 0 28 11 27 25 -1 14 -3 62 -5 107 -3 71 -7 79 -33 58 -24 -20 -30 -20 -32 3 -1 15 -9 5 -18 -23 l-16 -50 -2 50 c-2 40 -7 44 -22 20 -13 -20 -19 -22 -20 -5 0 14 -10 25 -23 25 -15 0 -18 -27 -8 -85z"/>
    <path d="M3387 4170 c-21 -56 27 -84 87 -50 72 41 69 69 -9 76 -46 5 -69 -3 -78 -26z"/>
    <path d="M1975 3135 c-19 -19 -25 -35 -14 -35 12 0 17 -8 11 -17 -6 -10 10 -13 35 -8 76 14 127 -81 62 -115 -26 -14 -43 -33 -38 -42 5 -8 -6 -25 -26 -36 -31 -19 -30 -21 11 -21 26 -1 41 -9 35 -19 -6 -10 -29 -14 -51 -8 -24 6 -40 1 -40 -14 0 -15 -16 -20 -42 -14 -23 6 -37 6 -30 -1 6 -6 2 -22 -9 -36 -11 -14 -18 -34 -15 -45 3 -12 -12 -35 -34 -53 -23 -18 -27 -27 -10 -22 17 6 55 14 86 19 58 10 194 140 194 185 0 14 19 36 42 48 31 17 36 29 20 45 -30 30 -28 48 9 62 18 6 46 -2 63 -19 44 -44 77 -6 43 49 -21 33 -40 40 -87 31 -47 -9 -73 1 -120 45 -58 53 -62 54 -95 21z"/>
  </g>
</svg>