<?xml version="1.0" encoding="utf-8"?>
<svg width="600px" height="600" xmlns="http://www.w3.org/2000/svg">
  <g transform="matrix(2.000004, 0, 0, 1.431543, -225.407364, 0.003305)">
    <path d="M 227.762 0.7 C 235.468 0 243.875 0.7 251.58 0 C 257.885 0 260.687 2.802 264.891 2.802 C 271.896 7.705 269.094 15.411 273.297 20.315 C 270.495 14.711 270.495 8.406 273.997 3.502 C 281.703 7.705 292.211 3.502 299.917 6.304 C 330.741 4.203 363.666 4.203 393.789 2.101 C 397.992 3.502 400.794 4.903 402.195 7.705 C 407.799 15.411 407.099 23.818 406.398 32.224 C 402.896 30.823 401.495 35.026 400.094 36.427 C 402.195 34.326 404.297 31.524 407.099 35.727 C 408.5 42.732 409.901 48.336 409.901 53.941 C 408.5 60.245 400.094 59.545 397.291 59.545 C 400.094 60.245 407.799 57.443 410.602 64.449 C 408.5 91.769 410.602 118.39 412.703 143.609 C 408.5 149.914 411.302 156.919 407.799 161.122 C 404.297 163.224 402.195 163.924 400.794 165.326 C 397.291 164.625 395.19 163.924 393.789 162.523 C 395.19 163.924 396.591 164.625 398.692 165.326 C 402.896 164.625 405.698 161.823 409.2 161.122 C 412.703 173.732 412.003 186.342 412.003 196.85 C 408.5 214.363 409.901 231.176 404.997 245.887 C 404.297 250.791 402.195 252.192 399.393 253.593 C 395.89 252.892 393.789 251.491 392.388 249.39 C 397.992 254.293 402.896 257.796 406.398 263.4 C 401.495 288.619 406.398 315.94 404.297 339.058 C 406.398 345.363 413.404 346.063 410.602 353.069 C 409.901 358.673 409.2 367.079 403.596 369.881 C 404.297 368.48 407.099 368.48 407.099 370.582 C 409.2 380.389 411.302 390.897 412.703 398.603 C 410.602 405.609 409.2 411.913 404.997 415.416 C 378.377 416.117 353.158 417.518 326.537 418.218 C 323.735 416.117 322.334 415.416 320.233 414.015 C 318.131 416.117 316.73 418.218 313.928 418.218 C 299.917 420.32 287.308 418.218 273.997 417.518 C 266.992 417.518 264.19 413.314 261.388 409.812 C 259.987 407.01 261.388 405.609 262.088 404.208 C 259.987 400.705 259.987 397.903 257.185 396.502 C 258.586 397.903 260.687 400.004 261.388 402.106 C 258.586 409.111 261.388 413.314 258.586 417.518 C 252.281 415.416 243.875 416.117 239.671 412.614 C 240.372 414.716 237.57 415.416 236.169 414.716 C 212.35 412.614 186.431 418.919 163.313 413.314 C 160.511 412.614 159.11 411.213 158.409 409.812 C 158.409 411.213 160.511 413.314 157.008 414.015 C 152.105 415.416 147.901 416.117 143.698 416.817 C 132.49 414.015 125.484 405.609 117.778 399.304 C 111.474 390.197 117.078 380.389 114.976 371.983 C 119.88 365.678 124.083 370.582 127.586 372.684 C 122.682 369.181 118.479 367.78 114.976 364.978 C 116.377 337.657 109.372 310.336 115.677 283.716 C 121.281 280.914 117.078 271.807 123.383 271.106 C 129.688 270.406 133.891 274.609 138.794 275.309 C 142.998 272.507 145.8 271.106 146.5 268.304 C 144.399 269.005 141.597 273.208 138.094 273.908 C 132.49 271.106 128.286 269.005 123.383 268.304 C 114.976 266.202 114.976 259.197 113.575 253.593 C 112.174 225.571 116.377 194.047 114.976 164.625 C 119.18 157.62 121.982 169.529 128.286 165.326 C 123.383 166.727 120.581 163.224 118.479 159.721 C 114.976 155.518 112.875 151.315 112.875 147.112 C 111.474 124.695 119.18 103.679 117.078 80.561 C 122.682 72.855 126.185 86.165 131.789 79.16 C 126.885 84.064 124.083 74.957 119.88 77.058 C 117.778 74.957 116.377 72.155 116.377 70.053 C 116.377 49.737 115.677 28.021 116.377 9.807 C 117.778 9.107 121.281 9.107 121.982 10.508 C 122.682 -7.706 153.506 15.411 162.613 8.406 C 166.816 11.208 164.714 14.01 166.115 15.411 C 168.217 12.609 166.115 9.107 168.217 7.005 C 171.019 4.203 173.121 2.802 176.623 3.502 C 193.436 1.401 210.949 2.101 226.361 0.7" fill="rgb(228,184,121)"/>
    <path d="M 154.907 15.411 C 144.399 21.716 121.982 11.909 136.693 38.529 C 133.891 42.032 133.19 39.93 131.789 43.433 C 131.089 47.636 135.292 45.534 137.393 47.636 C 135.292 53.24 131.789 49.037 131.089 53.24 C 133.19 56.042 135.292 53.24 135.992 55.342 C 133.19 57.443 131.089 56.743 128.286 58.144 C 125.484 60.245 128.987 64.449 124.083 65.85 C 129.688 72.855 131.789 69.352 133.19 67.951 C 135.292 71.454 137.393 72.855 135.292 76.358 C 147.901 73.556 133.891 81.962 147.201 79.86 C 140.896 81.962 131.789 82.663 131.089 90.368 C 128.987 105.08 127.586 124.695 130.388 140.807 C 128.286 147.112 125.484 151.315 125.484 154.818 C 129.688 162.523 131.089 163.224 138.794 169.529 C 135.292 173.031 132.49 169.529 130.388 173.031 C 132.49 180.037 131.089 184.24 135.292 189.144 C 128.987 194.748 126.885 196.85 124.784 198.951 C 126.885 203.154 127.586 198.251 132.49 198.951 C 133.19 209.459 126.185 203.855 124.784 207.358 C 128.286 218.566 138.094 236.78 140.196 252.892 C 138.794 258.497 140.896 264.801 134.591 267.603 C 143.698 264.101 147.201 268.304 154.907 257.796 C 151.404 263.4 150.003 271.106 145.099 273.208 C 143.698 277.411 141.597 280.914 144.399 283.716 C 141.597 283.015 137.393 279.513 135.992 278.812 C 132.49 280.914 135.292 284.416 133.891 286.518 C 134.591 294.924 133.891 297.726 135.992 302.63 C 136.693 304.031 135.992 308.935 133.19 308.234 C 136.693 322.946 132.49 334.154 133.891 344.662 C 137.393 340.459 135.292 351.668 138.094 353.069 C 137.393 357.272 134.591 365.678 133.19 367.78 C 133.19 369.881 136.693 371.983 133.19 374.085 C 135.992 373.384 137.393 373.384 139.495 373.384 C 138.794 378.288 138.094 384.593 134.591 384.593 C 142.297 393.7 150.704 386.694 152.805 395.101 C 155.607 392.999 161.212 392.999 159.81 387.395 C 161.212 391.598 163.313 395.101 161.912 399.304 C 166.816 400.004 169.618 401.405 173.121 403.507 C 180.826 407.01 180.126 398.603 192.736 399.304 C 190.634 397.202 189.933 395.801 187.832 395.101 C 191.334 393.7 187.131 390.197 191.334 389.496 C 201.842 395.101 221.457 402.106 222.859 408.411 C 229.163 409.111 232.666 409.812 236.869 410.512 C 234.768 407.71 240.372 402.806 238.971 398.603 C 243.174 401.405 245.276 404.908 243.875 409.812 C 250.179 408.411 255.784 407.71 257.185 409.812 C 261.388 407.01 250.88 407.71 249.479 408.411 C 253.682 395.801 250.88 410.512 256.484 403.507 C 250.88 397.903 253.682 392.298 248.778 388.095 C 250.88 385.994 248.778 383.892 250.179 382.491 C 259.286 388.095 263.489 400.004 269.794 402.806 C 273.297 406.309 272.596 401.405 278.201 403.507 C 277.5 407.01 278.201 409.111 282.404 409.111 C 285.206 409.812 288.709 407.01 290.11 407.01 C 290.81 403.507 286.607 406.309 285.206 402.806 C 285.206 400.004 285.206 399.304 283.805 397.903 C 299.217 400.004 304.12 402.806 313.227 399.304 C 315.329 399.304 315.329 396.502 319.532 396.502 C 334.944 396.502 346.853 395.101 351.056 393.7 C 355.259 393.7 352.457 392.298 351.757 389.496 C 355.96 388.796 358.062 390.897 358.762 392.298 C 359.463 390.897 356.66 390.197 358.062 388.095 C 360.864 387.395 365.067 390.197 364.366 386.694 C 365.767 389.496 370.671 385.293 367.869 390.897 C 376.976 385.293 376.976 383.892 386.083 379.689 C 386.083 376.887 387.484 374.085 387.484 369.881 C 390.286 368.48 388.184 370.582 390.987 370.582 C 386.083 365.678 393.789 365.678 392.388 359.373 C 393.789 357.972 394.489 357.972 395.89 358.673 C 393.789 357.272 390.286 357.972 390.987 353.069 C 390.286 350.266 390.286 348.865 389.586 346.764 C 391.687 341.86 395.19 346.063 394.489 346.063 C 395.19 345.363 393.088 343.962 391.687 343.962 C 390.286 335.555 395.19 326.448 390.286 320.143 C 397.992 319.443 390.286 319.443 394.489 313.839 C 394.489 290.021 387.484 280.213 388.184 266.903 C 390.286 261.299 390.286 255.694 393.088 259.898 C 388.184 252.192 388.885 254.994 380.479 252.892 C 386.083 250.791 386.783 240.983 394.489 243.085 C 394.489 232.577 394.489 226.272 388.885 216.465 C 389.586 211.561 391.687 209.459 393.789 206.657 C 386.783 208.759 393.088 205.256 389.586 202.454 C 393.789 198.951 394.489 196.85 395.89 193.347 C 393.088 193.347 393.088 189.144 391.687 189.144 C 395.19 193.347 394.489 185.641 397.291 185.641 C 394.489 183.539 398.692 181.438 394.489 180.037 C 401.495 179.336 402.195 181.438 404.997 179.336 C 402.195 174.432 398.692 175.834 402.195 171.63 C 395.89 168.828 396.591 178.636 393.088 173.732 C 393.088 170.93 395.89 170.93 395.89 170.229 C 391.687 166.026 390.286 163.924 386.783 159.721 C 383.981 159.021 383.281 161.122 381.179 161.122 C 386.083 157.62 383.281 156.219 386.783 154.117 C 389.586 154.117 389.586 158.32 390.987 156.919 C 390.286 152.716 388.184 154.117 386.783 150.614 C 393.088 152.015 393.088 152.015 398.692 154.117 C 399.393 147.812 393.789 149.914 391.687 147.812 C 393.088 147.812 394.489 145.01 395.89 145.01 C 388.184 144.31 400.094 141.507 395.89 142.208 C 398.692 140.807 400.094 142.208 399.393 143.609 C 394.489 137.304 400.094 134.502 399.393 130.999 C 395.19 128.197 397.291 122.593 394.489 121.192 C 395.89 119.09 396.591 120.491 397.291 120.491 C 393.789 113.486 397.291 110.684 397.291 108.582 C 395.89 104.379 392.388 104.379 389.586 100.176 C 392.388 90.368 384.682 93.171 390.987 81.962 C 388.184 79.16 386.783 77.058 383.981 74.957 C 385.382 71.454 386.783 69.352 387.484 67.251 C 389.586 70.053 379.078 65.85 382.58 72.855 C 380.479 72.155 376.976 70.053 376.976 70.053 C 381.88 70.053 376.976 58.844 382.58 58.844 C 379.778 58.144 384.682 52.54 380.479 51.139 C 375.575 46.235 381.179 51.839 373.473 49.737 C 374.174 46.235 372.773 44.133 369.971 44.133 C 366.468 39.229 362.265 42.732 358.062 40.631 C 356.66 32.224 341.949 35.026 338.447 28.721 C 337.046 34.326 331.441 26.62 330.741 30.823 C 322.334 25.919 322.334 22.417 313.928 19.615 C 305.521 18.914 303.42 18.914 293.612 17.513 C 291.511 18.213 285.206 18.213 282.404 22.417 C 283.805 29.422 278.201 27.32 278.901 30.823 C 279.602 30.823 280.302 30.123 281.003 28.721 C 284.505 28.721 283.805 31.524 284.505 32.224 C 280.302 30.823 281.703 37.828 277.5 32.925 C 276.8 40.631 275.399 40.631 277.5 46.235 C 273.297 43.433 272.596 41.331 268.393 44.133 C 270.495 39.229 273.297 33.625 269.794 30.123 C 266.992 32.224 263.489 30.823 261.388 30.123 C 262.789 26.62 264.891 29.422 266.992 28.021 C 267.693 26.62 266.292 26.62 265.591 25.219 C 250.88 15.411 221.457 21.716 216.554 16.112 C 202.543 20.315 194.137 18.914 185.73 21.716 C 186.431 23.818 191.334 23.117 191.334 28.021 C 187.832 31.524 180.126 32.224 181.527 39.229 C 178.725 32.925 182.228 33.625 172.42 30.823 C 175.222 28.721 175.923 31.524 178.725 30.123 C 176.623 30.123 175.222 27.32 173.821 29.422 C 181.527 37.128 171.019 37.128 180.826 41.331 C 178.024 46.235 175.923 47.636 175.923 52.54 C 172.42 42.732 168.217 37.128 159.81 33.625 C 163.313 28.721 163.313 35.026 164.014 32.224 C 160.511 25.919 164.014 23.818 160.511 16.812 C 158.409 14.01 155.607 14.711 154.206 15.411" fill="rgb(237,196,131)"/>
    <path d="M 235.468 23.117 M 235.468 21.716 M 236.869 22.417 L 237.57 22.417 C 248.778 27.32 258.586 27.32 265.591 32.224 C 266.992 35.026 263.489 33.625 262.789 32.925 C 260.687 36.427 264.891 34.326 266.292 35.727 C 262.088 39.229 270.495 43.433 264.891 43.433 C 274.698 47.636 266.992 51.839 278.901 49.737 C 275.399 42.032 283.104 44.133 281.703 39.229 C 285.907 37.128 288.709 42.032 291.511 43.433 C 290.81 43.433 285.907 38.529 286.607 35.026 C 290.11 37.828 294.313 34.326 297.115 32.925 C 299.917 33.625 298.516 30.823 299.217 30.123 C 301.318 30.823 306.222 28.021 307.623 32.925 C 306.923 30.123 306.923 28.021 309.725 27.32 C 313.928 27.32 316.029 30.823 320.233 30.123 C 320.933 35.026 322.334 38.529 323.735 39.93 C 331.441 40.631 336.345 42.732 341.949 44.834 C 341.949 44.834 344.051 46.935 341.949 46.935 C 344.051 47.636 342.65 42.032 348.254 44.834 C 345.452 48.336 346.853 46.235 343.35 52.54 C 346.853 53.941 343.35 48.336 347.554 50.438 C 349.655 56.042 365.067 63.748 368.57 72.855 C 372.773 79.86 375.575 81.261 369.971 86.866 C 373.473 84.064 374.174 90.368 375.575 87.566 C 379.778 90.368 379.778 102.978 377.676 98.775 C 377.676 102.278 380.479 100.876 381.88 100.876 C 379.078 101.577 379.078 109.983 381.88 109.983 C 381.179 110.684 379.778 111.384 378.377 110.684 C 379.078 112.786 381.88 112.085 381.88 114.887 C 381.88 112.085 384.682 112.786 383.281 110.684 L 383.981 109.983 L 384.682 109.283 L 386.083 109.283 C 386.083 111.384 387.484 114.887 384.682 117.689 C 388.184 115.588 390.286 120.491 390.987 121.892 C 388.184 124.695 390.286 130.999 384.682 126.796 C 390.987 132.4 381.88 130.999 386.083 135.903 C 383.281 133.802 381.179 133.802 378.377 134.502 C 381.88 134.502 382.58 135.903 384.682 137.304 C 383.981 140.106 381.179 138.705 379.778 139.406 C 379.078 139.406 382.58 143.609 386.083 145.01 C 387.484 150.614 383.981 153.416 379.778 152.015 C 380.479 156.919 379.078 159.721 379.078 163.224 C 379.078 163.224 380.479 161.122 382.58 163.224 C 380.479 175.834 386.083 172.331 386.783 182.138 C 385.382 185.641 383.981 187.743 380.479 188.443 C 380.479 193.347 380.479 191.245 383.981 191.245 C 378.377 198.251 387.484 208.058 379.778 213.662 C 382.58 215.764 383.281 225.571 386.083 229.775 C 383.281 236.78 379.778 236.78 374.874 242.384 C 381.179 240.983 379.078 238.181 387.484 240.283 C 379.778 240.983 385.382 248.689 379.078 248.689 C 383.281 258.497 378.377 276.71 381.179 287.218 C 382.58 291.422 379.078 292.823 379.078 289.32 C 381.179 292.122 383.981 294.224 386.083 296.325 C 383.281 305.432 385.382 314.539 386.083 317.341 C 383.281 318.042 384.682 317.341 381.88 320.143 C 385.382 323.646 381.179 327.849 387.484 327.149 C 386.083 337.657 383.981 336.956 380.479 348.865 C 379.078 351.668 380.479 358.673 381.88 362.876 C 380.479 364.978 379.078 363.577 379.078 362.876 C 376.275 366.379 376.976 371.983 375.575 376.887 C 369.27 376.186 372.072 371.282 370.671 370.582 C 362.965 372.684 358.062 376.186 353.858 376.887 C 357.361 382.491 339.147 387.395 341.949 389.496 C 334.944 388.095 337.746 385.994 328.639 388.796 C 330.741 386.694 328.639 383.892 331.441 383.892 C 327.238 385.293 325.136 388.095 324.436 389.496 C 314.628 388.796 310.425 392.298 299.917 386.694 C 291.511 389.496 293.612 388.796 289.409 392.999 C 285.206 390.897 285.907 388.796 283.104 386.694 C 280.302 390.197 274.698 388.796 279.602 392.298 C 271.195 392.999 270.495 387.395 265.591 389.496 C 261.388 385.994 267.693 389.496 266.992 386.694 C 264.891 387.395 261.388 387.395 259.987 390.197 C 259.987 388.796 257.885 386.694 257.185 386.694 L 257.185 385.994 L 257.185 384.593 L 258.586 385.293 L 259.286 386.694 C 259.987 386.694 260.687 385.293 262.088 385.994 C 262.789 383.892 263.489 383.192 261.388 381.79 C 263.489 382.491 261.388 383.892 259.286 385.994 C 261.388 383.192 250.179 384.593 248.778 378.288 C 245.976 381.79 248.778 387.395 243.875 389.496 C 241.072 395.801 229.864 394.4 231.265 399.304 C 225.661 399.304 218.655 397.903 212.35 396.502 C 204.645 393.7 198.34 385.994 195.538 382.491 C 189.933 388.796 184.329 381.09 181.527 385.994 C 181.527 382.491 176.623 383.892 175.923 382.491 C 171.019 381.79 173.821 384.593 174.522 385.994 C 169.618 387.395 171.72 381.79 167.516 383.892 C 167.516 387.395 165.415 384.593 164.714 388.095 C 161.912 385.293 160.511 383.892 159.81 381.79 C 150.704 380.389 151.404 376.887 147.201 375.486 C 145.099 371.282 146.5 369.181 149.302 369.181 C 142.998 362.176 142.998 354.47 140.896 350.266 C 142.297 347.464 140.196 346.063 141.597 343.962 C 145.8 345.363 146.5 341.16 149.302 340.459 C 150.003 337.657 144.399 336.956 144.399 338.357 C 143.698 332.053 147.901 336.956 145.099 331.352 C 136.693 330.652 147.901 325.748 138.794 325.047 C 147.901 319.443 135.292 313.839 143.698 310.336 C 143.698 308.935 140.896 311.037 140.196 309.635 C 141.597 306.833 142.998 307.534 143.698 307.534 C 138.094 304.732 144.399 297.026 140.196 294.224 C 143.698 299.127 141.597 292.122 145.099 289.32 C 141.597 276.01 148.602 283.015 148.602 271.106 C 155.607 271.106 151.404 259.197 160.511 257.796 C 157.008 256.395 151.404 257.796 150.704 253.593 C 151.404 256.395 149.302 259.197 145.8 259.898 C 146.5 257.095 143.698 256.395 142.297 254.293 C 144.399 255.694 145.099 246.587 148.602 251.491 C 145.8 246.587 143.698 248.689 140.896 246.587 C 149.302 247.989 138.094 238.882 146.5 239.582 C 142.998 238.181 142.998 233.277 139.495 231.876 C 140.196 231.876 136.693 225.571 143.698 224.17 C 139.495 220.668 140.196 215.764 137.393 214.363 C 145.099 212.962 131.789 203.855 144.399 206.657 C 140.196 203.154 142.297 196.85 140.896 191.245 C 138.794 189.844 136.693 185.641 136.693 184.94 C 137.393 180.037 133.891 173.732 138.794 171.63 C 137.393 165.326 135.992 163.924 135.992 159.721 C 136.693 155.518 139.495 154.117 140.196 152.015 C 135.292 146.411 140.896 141.507 135.992 138.705 C 140.896 134.502 131.789 128.898 139.495 121.192 C 138.094 121.892 137.393 125.395 135.292 123.994 C 136.693 118.39 136.693 114.187 138.794 111.384 C 133.19 107.882 139.495 100.876 137.393 100.876 C 140.196 98.775 139.495 95.272 142.998 94.572 C 145.099 89.668 141.597 86.866 144.399 84.064 C 145.8 83.363 148.602 84.064 150.003 84.064 C 147.901 85.465 147.901 79.86 146.5 77.058 C 146.5 71.454 152.105 77.759 150.704 74.957 C 147.901 72.855 145.8 75.657 145.099 74.957 C 148.602 71.454 143.698 70.753 147.201 65.85 C 141.597 68.652 142.297 60.245 137.393 61.647 C 145.8 60.245 136.693 49.737 147.901 52.54 C 142.998 46.235 145.099 51.839 140.896 48.336 C 140.196 38.529 142.297 48.336 144.399 46.235 C 146.5 42.732 142.297 40.631 147.901 40.631 C 147.901 41.331 152.805 38.529 151.404 43.433 C 157.709 39.229 156.308 39.93 166.816 38.529 C 166.816 45.534 175.222 56.042 176.623 58.144 C 180.126 49.737 182.228 49.737 187.832 48.336 C 181.527 41.331 193.436 39.93 189.233 37.828 C 192.035 35.026 195.538 32.925 197.639 37.128 C 197.639 31.524 199.04 29.422 201.142 28.021 C 206.046 25.219 209.548 24.518 212.35 24.518 C 220.757 24.518 224.96 27.32 228.463 29.422 C 229.864 25.919 231.965 24.518 233.367 23.117" fill="rgb(238,199,134)"/>
    <path d="M 236.169 23.117 C 233.367 23.818 229.864 25.919 229.864 28.721 C 221.457 25.219 210.249 23.117 201.842 28.021 C 200.441 30.823 197.639 30.823 200.441 35.727 C 196.238 37.828 192.736 32.925 190.634 37.128 C 194.137 41.331 182.228 40.631 189.933 47.636 C 181.527 50.438 180.826 50.438 179.425 58.144 C 174.522 56.743 166.816 46.235 166.816 39.93 C 157.008 40.631 157.008 39.93 152.105 42.032 C 150.704 42.032 151.404 39.93 148.602 40.631 C 140.896 42.032 147.901 42.032 145.099 46.935 C 138.094 39.93 141.597 51.139 144.399 48.336 C 145.099 50.438 148.602 48.336 148.602 51.839 C 137.393 49.737 146.5 60.245 136.693 60.245 C 142.297 59.545 142.297 68.652 146.5 65.149 C 144.399 70.053 149.302 72.855 144.399 72.855 C 149.302 76.358 147.201 85.465 152.105 81.962 C 148.602 85.465 146.5 83.363 144.399 84.064 C 142.297 86.866 145.8 89.668 142.998 93.171 C 140.196 95.272 141.597 99.475 137.393 99.475 C 140.196 101.577 133.891 107.181 140.196 109.983 C 131.789 122.593 140.196 134.502 136.693 138.005 C 141.597 141.507 135.992 146.411 141.597 149.914 C 140.196 154.117 137.393 155.518 136.693 157.62 C 136.693 163.924 138.794 165.326 140.196 170.229 C 134.591 173.732 138.094 180.037 135.992 183.539 C 137.393 187.743 140.196 187.743 142.297 189.144 C 142.998 195.448 141.597 203.855 142.998 203.855 C 133.19 206.657 145.8 210.86 138.094 212.962 C 140.896 215.764 140.196 220.668 142.998 222.069 C 137.393 226.272 140.896 230.475 140.896 231.176 C 143.698 233.277 143.698 237.481 146.5 238.181 C 141.597 240.283 145.099 243.085 142.297 245.887 C 143.698 247.288 146.5 245.887 146.5 249.39 C 144.399 250.09 145.8 254.293 143.698 254.293 C 145.099 255.694 147.201 257.796 144.399 259.898 C 147.901 258.497 150.704 257.095 150.003 252.192 C 151.404 257.095 157.008 255.694 159.81 256.395 C 152.105 259.898 156.308 271.106 150.003 269.705 C 150.704 283.015 141.597 276.71 147.901 286.518 C 143.698 288.619 142.998 300.529 140.896 292.823 C 145.099 297.026 138.794 304.732 145.099 306.833 C 142.998 308.234 141.597 308.234 139.495 308.234 C 140.196 311.037 144.399 307.534 145.099 311.037 C 135.992 313.138 148.602 320.143 138.794 324.347 C 148.602 327.149 135.292 329.951 146.5 330.652 C 147.901 334.154 142.297 335.555 143.698 337.657 C 145.099 333.454 147.201 340.459 150.003 336.956 C 150.003 346.063 139.495 341.86 142.297 348.865 C 143.698 354.47 143.698 362.176 148.602 367.079 C 147.901 370.582 145.8 370.582 147.201 374.785 C 153.506 377.587 150.003 380.389 159.11 380.389 C 161.212 382.491 161.912 385.293 163.313 387.395 C 165.415 384.593 166.816 386.694 166.115 383.192 C 171.019 381.09 171.019 385.994 172.42 385.994 C 171.72 384.593 171.72 381.09 175.222 381.09 C 175.923 382.491 181.527 382.491 180.826 385.293 C 184.329 380.389 189.933 388.095 193.436 381.09 C 199.04 385.293 203.944 393.7 211.65 395.101 C 218.655 397.202 224.96 398.603 230.564 397.903 C 229.864 393.7 240.372 395.101 242.473 390.897 C 248.778 387.395 243.875 381.09 246.677 378.288 C 250.88 379.689 256.484 385.994 258.586 382.491 C 259.286 385.293 255.083 385.994 259.987 388.796 C 261.388 386.694 264.891 386.694 266.992 385.994 C 268.393 388.095 265.591 388.796 264.19 388.095 C 271.195 386.694 271.195 392.298 277.5 391.598 C 273.297 389.496 281.003 388.095 281.003 385.994 C 285.206 387.395 287.308 390.897 288.008 392.298 C 292.912 388.095 292.211 388.796 299.217 388.095 C 304.12 390.897 311.826 385.293 314.628 392.999 C 322.334 383.892 320.233 397.903 329.34 381.79 C 331.441 385.293 330.04 384.593 329.34 388.095 C 337.046 385.293 336.345 387.395 340.548 390.197 C 339.848 385.994 356.66 381.79 351.056 376.186 C 356.66 374.785 363.666 371.983 369.27 371.282 C 374.174 370.582 369.27 375.486 374.174 376.186 C 374.874 370.582 376.976 366.379 379.078 363.577 C 380.479 361.475 379.778 363.577 380.479 364.277 C 379.778 358.673 378.377 351.668 380.479 348.865 C 383.281 336.956 385.382 336.956 386.083 327.849 C 380.479 328.55 384.682 323.646 381.88 321.545 C 383.981 317.341 383.981 316.641 386.083 318.742 C 384.682 315.24 382.58 306.133 386.083 297.026 C 383.981 293.523 380.479 293.523 378.377 291.422 C 379.778 288.619 381.179 292.823 381.88 288.619 C 377.676 276.71 382.58 258.497 378.377 251.491 C 384.682 247.288 379.078 241.684 386.783 240.283 C 377.676 236.78 382.58 245.186 374.174 243.785 C 376.275 240.983 375.575 239.582 377.676 237.481 C 379.778 238.181 382.58 237.481 382.58 238.882 C 383.281 238.181 381.179 238.181 380.479 236.079 C 387.484 237.481 380.479 233.277 386.783 230.475 C 383.281 223.47 381.179 217.165 380.479 215.764 C 387.484 208.759 378.377 199.652 382.58 191.946 C 381.179 192.646 379.078 191.245 379.778 189.144 C 383.281 187.042 384.682 185.641 386.083 182.138 C 386.083 175.133 383.281 175.133 381.88 171.63 C 383.281 168.128 384.682 172.331 385.382 168.828 C 381.88 170.229 383.281 157.62 377.676 166.026 C 378.377 159.721 379.778 156.919 379.078 152.716 C 382.58 152.015 386.783 151.315 384.682 145.711 C 380.479 144.31 381.179 140.106 378.377 141.507 C 380.479 138.005 383.281 139.406 384.682 138.005 C 381.88 134.502 380.479 136.604 376.976 135.203 C 379.778 133.802 383.981 132.4 383.981 135.903 C 380.479 130.299 390.987 131.7 383.281 126.796 C 390.987 130.999 386.083 124.695 390.286 122.593 L 391.687 124.695 L 390.286 122.593 C 388.885 121.192 388.184 116.288 383.981 119.09 C 386.783 115.588 385.382 109.983 385.382 109.983 C 384.682 111.384 383.981 112.786 382.58 114.187 C 380.479 114.187 381.179 112.786 379.078 112.786 C 384.682 113.486 374.174 102.978 381.88 102.278 C 379.078 103.679 376.976 100.176 376.976 98.775 C 379.778 102.978 379.078 90.368 375.575 89.668 C 373.473 89.668 373.473 85.465 370.671 88.967 C 374.874 81.261 372.072 80.561 369.971 73.556 C 365.067 65.149 349.655 55.342 346.853 53.941 C 344.751 49.037 347.554 56.743 343.35 53.24 C 344.051 46.235 348.254 46.235 349.655 46.235 C 341.949 42.732 346.152 48.336 343.35 49.037 C 341.249 46.935 342.65 46.235 341.949 44.834 C 336.345 43.433 331.441 41.331 323.735 41.331 C 323.035 39.229 319.532 35.727 319.532 32.224 C 315.329 31.524 313.928 28.021 310.425 28.721 C 306.222 28.721 309.725 30.823 309.024 32.224 C 304.821 28.021 303.42 30.823 299.917 30.123 C 299.217 31.524 300.618 35.026 297.816 35.026 C 295.013 35.026 290.11 38.529 288.709 35.727 C 288.008 37.128 287.308 39.229 289.409 39.93 C 285.206 39.93 283.104 37.128 280.302 40.631 C 281.003 39.229 283.104 39.229 283.104 39.93 C 278.901 44.133 278.901 44.133 278.901 50.438 C 266.292 52.54 273.297 46.935 265.591 44.133 C 269.094 43.433 260.687 38.529 266.292 36.427 C 264.19 35.026 260.687 37.128 260.687 33.625 C 263.489 32.224 264.891 33.625 266.992 32.925 C 258.586 28.021 248.778 28.021 237.57 23.117" fill="rgb(238,199,135)"/>
    <path d="M 284.505 7.705 C 268.393 11.909 281.703 20.315 275.399 31.524 L 278.201 32.925 L 277.5 32.925 L 276.8 34.326 C 275.399 37.828 273.297 41.331 275.399 44.834 C 269.094 38.529 276.099 37.828 271.896 35.026 C 272.596 32.224 271.195 28.721 270.495 30.123 C 271.195 30.123 272.596 32.224 271.896 32.925 C 269.094 37.128 274.698 40.631 269.094 42.032 C 271.195 39.93 271.896 41.331 273.997 43.433 L 275.399 45.534 L 276.099 46.235 L 276.8 45.534 C 273.997 41.331 276.099 39.93 276.8 33.625 C 281.703 36.427 279.602 30.823 283.104 32.925 C 284.505 26.62 281.003 30.823 278.201 31.524 C 277.5 27.32 283.104 28.021 280.302 23.117 C 285.206 18.213 290.81 17.513 292.912 16.112 C 302.719 18.213 306.923 18.213 312.527 20.315 C 323.035 21.716 323.035 25.219 330.04 30.823 C 334.243 28.021 342.65 30.823 351.056 34.326 C 353.158 36.427 360.864 35.727 356.66 39.93 C 362.965 39.93 371.372 40.631 372.072 44.834 C 373.473 46.235 374.874 48.336 373.473 49.737 C 378.377 50.438 379.078 48.336 381.88 50.438 C 385.382 51.839 380.479 58.844 383.281 57.443 C 377.676 58.144 382.58 70.753 376.275 68.652 C 377.676 71.454 380.479 70.753 381.88 72.155 C 378.377 63.748 388.885 71.454 385.382 63.048 C 388.885 67.951 386.083 71.454 384.682 73.556 C 387.484 76.358 388.885 79.16 390.286 81.261 C 389.586 86.165 390.286 91.069 388.184 91.069 C 395.89 90.368 386.083 105.78 398.692 105.08 C 397.992 111.384 394.489 113.486 398.692 119.791 C 397.291 121.892 396.591 119.791 395.89 119.791 C 397.992 122.593 395.89 128.197 400.794 128.898 C 400.094 137.304 396.591 129.598 394.489 130.299 C 395.89 133.101 397.992 132.4 400.094 134.502 C 395.89 140.807 401.495 142.908 395.19 142.908 C 394.489 145.711 397.291 143.609 397.291 145.711 C 395.89 145.01 394.489 147.812 393.088 147.812 C 394.489 148.513 400.094 147.812 399.393 154.117 C 393.789 152.716 392.388 152.716 388.885 149.914 C 387.484 152.716 393.088 152.015 388.885 155.518 C 384.682 152.015 386.783 159.021 381.179 159.721 C 383.281 159.721 384.682 158.32 386.083 158.32 C 390.286 163.224 392.388 165.326 395.89 168.828 C 396.591 171.63 393.789 170.93 394.489 173.031 C 395.89 175.834 395.19 171.63 397.291 171.63 L 398.692 170.93 L 399.393 171.63 L 402.195 170.93 C 400.794 176.534 401.495 173.732 404.297 178.636 C 401.495 182.839 402.195 179.336 395.89 180.037 C 399.393 181.438 395.19 184.24 398.692 184.94 C 395.89 184.24 395.19 194.748 391.687 187.743 C 393.088 191.245 394.489 191.946 397.291 191.946 C 395.19 197.55 393.789 198.951 390.987 201.753 C 393.789 205.956 386.783 208.058 395.19 205.956 C 390.286 209.459 390.987 215.063 387.484 215.764 C 389.586 215.063 392.388 220.668 393.789 224.871 C 393.789 229.074 397.291 236.78 394.489 240.983 C 390.286 238.181 383.981 252.892 381.88 250.791 C 387.484 254.994 390.286 250.791 390.987 257.796 C 387.484 260.598 388.885 271.807 388.885 277.411 C 392.388 280.914 393.789 301.229 394.489 312.438 C 393.789 315.94 394.489 319.443 390.987 320.143 C 393.088 324.347 395.19 333.454 390.987 337.657 C 393.789 341.16 390.987 345.363 396.591 343.962 C 394.489 349.566 393.789 342.561 390.987 346.063 C 390.987 348.865 390.987 350.266 390.286 352.368 C 390.987 357.972 394.489 355.871 395.89 357.272 C 389.586 358.673 395.19 367.78 388.184 368.48 C 388.184 374.085 386.083 378.288 387.484 380.389 C 376.976 382.491 379.078 388.796 369.971 387.395 C 365.067 386.694 363.666 389.496 358.762 388.095 C 357.361 390.897 361.564 390.197 360.163 392.999 C 357.361 391.598 355.96 389.496 353.158 390.197 C 354.559 392.999 353.858 394.4 351.757 395.801 C 348.254 395.801 332.142 397.202 320.933 396.502 C 314.628 397.202 317.431 400.705 315.329 402.806 C 313.227 399.304 309.024 401.405 308.324 400.004 C 306.923 404.208 304.12 401.405 302.719 402.806 C 298.516 395.101 290.11 402.106 285.206 397.903 C 282.404 404.908 290.11 403.507 292.211 405.609 C 288.709 409.111 284.505 409.111 282.404 409.812 C 277.5 409.812 276.8 406.309 278.901 404.908 C 272.596 402.106 273.297 407.01 269.794 404.208 C 263.489 400.004 259.286 388.796 250.88 383.892 C 249.479 390.197 255.083 397.202 257.185 403.507 C 248.078 409.812 254.383 400.705 250.88 404.208 C 250.88 405.609 248.778 407.01 249.479 408.411 C 246.677 409.111 247.377 409.812 246.677 411.213 C 242.473 407.71 244.575 401.405 239.671 399.304 C 240.372 404.208 234.067 408.411 238.971 411.913 C 238.971 409.111 238.971 405.609 239.671 402.106 C 242.473 406.309 243.174 408.411 242.473 411.213 C 247.377 411.213 252.281 414.716 256.484 415.416 C 256.484 412.614 258.586 414.716 258.586 409.812 C 255.784 407.71 254.383 410.512 250.179 409.111 C 257.185 407.01 257.185 407.01 258.586 405.609 C 252.981 392.298 259.987 396.502 250.179 385.994 C 269.794 397.903 259.286 412.614 271.896 410.512 C 288.008 409.812 301.318 402.806 316.029 404.208 C 316.73 411.213 319.532 408.411 320.933 411.213 C 323.735 411.213 328.639 413.314 332.142 413.314 C 353.158 413.314 371.372 413.314 390.286 412.614 C 394.489 411.913 393.088 405.609 389.586 403.507 C 372.773 407.71 354.559 406.309 339.147 406.309 C 331.441 404.908 322.334 403.507 316.73 403.507 C 316.73 399.304 320.933 398.603 319.532 397.903 C 335.644 398.603 349.655 398.603 359.463 400.705 C 366.468 399.304 383.981 395.101 393.088 391.598 C 394.489 390.197 397.291 389.496 397.291 385.994 C 402.195 388.796 404.997 387.395 404.297 392.298 C 405.698 382.491 397.992 388.796 397.992 381.09 C 400.094 381.09 399.393 377.587 400.794 377.587 C 399.393 373.384 394.489 383.192 392.388 374.085 C 395.89 372.684 397.291 367.78 400.794 368.48 C 402.195 355.871 402.896 359.373 404.297 350.967 C 402.896 345.363 400.794 341.16 397.992 337.657 C 393.088 285.117 397.291 282.315 394.489 257.796 C 392.388 257.095 391.687 249.39 385.382 253.593 C 395.89 243.085 393.088 251.491 400.794 242.384 C 402.896 237.481 402.195 231.876 400.794 227.673 C 402.896 225.571 402.896 226.973 403.596 226.973 C 405.698 223.47 409.2 220.668 407.799 215.764 C 407.799 218.566 406.398 222.069 404.297 223.47 C 402.195 219.967 404.297 218.566 404.297 215.764 C 404.997 212.261 409.2 204.555 409.2 210.86 C 408.5 208.759 409.901 203.855 407.099 207.358 C 404.997 209.459 404.997 212.261 403.596 213.662 C 402.195 217.866 400.794 221.368 400.794 223.47 C 397.992 224.17 395.89 223.47 394.489 222.769 C 393.088 208.058 412.003 184.94 407.099 171.63 C 405.698 165.326 401.495 170.93 398.692 170.229 L 397.291 170.229 L 398.692 167.427 C 395.19 167.427 388.885 159.721 388.885 159.021 L 386.783 159.021 L 385.382 156.919 C 391.687 156.219 396.591 166.727 402.896 159.021 C 407.099 152.015 401.495 154.117 404.997 148.513 C 403.596 136.604 402.195 111.384 395.89 93.171 C 396.591 82.663 397.291 67.251 395.89 62.347 C 392.388 55.342 388.885 60.946 386.083 56.743 C 395.19 57.443 388.885 50.438 393.789 46.235 C 392.388 47.636 390.987 47.636 388.184 49.737 C 389.586 41.331 393.088 32.925 393.789 25.219 C 393.088 33.625 388.885 43.433 385.382 49.737 C 362.265 36.427 327.238 21.716 304.12 11.909 C 297.816 11.208 292.211 9.807 285.206 8.406" fill="rgb(211,144,78)"/>
    <path d="M 135.992 8.406 C 138.094 13.31 130.388 8.406 128.286 9.807 C 125.484 11.909 122.682 12.609 121.982 14.711 C 133.891 30.123 121.982 38.529 128.286 49.037 C 127.586 51.839 126.185 52.54 125.484 50.438 C 111.474 74.957 128.987 77.759 142.998 78.459 C 129.688 75.657 138.094 67.251 123.383 70.053 C 128.286 63.048 124.083 60.946 126.185 58.144 C 130.388 56.743 132.49 56.042 135.292 57.443 C 134.591 55.342 131.789 56.042 131.089 53.941 C 131.089 49.037 134.591 51.839 135.992 49.737 C 133.891 46.935 131.089 46.935 131.089 43.433 C 138.794 33.625 127.586 23.818 132.49 16.812 C 146.5 21.016 150.704 12.609 159.81 15.411 C 164.714 23.117 161.212 26.62 164.714 30.823 C 164.014 32.224 163.313 34.326 162.613 34.326 C 164.014 35.727 168.217 34.326 168.217 38.529 C 171.72 43.433 173.121 44.834 174.522 51.139 C 175.222 49.037 176.623 44.834 178.725 45.534 C 177.324 37.828 174.522 37.828 175.923 34.326 C 176.623 32.224 177.324 31.524 179.425 32.224 C 181.527 34.326 178.725 35.727 180.126 38.529 C 180.126 32.224 187.131 30.823 189.933 28.721 C 191.334 23.117 183.629 24.518 183.629 19.615 C 194.137 18.213 202.543 19.615 215.853 16.812 C 217.955 18.914 220.056 16.812 222.859 18.914 C 224.96 14.01 239.671 20.315 246.677 18.914 C 254.383 23.117 259.286 23.818 264.891 25.219 C 273.297 31.524 255.083 28.021 265.591 29.422 C 269.094 31.524 264.19 28.721 271.195 26.62 C 269.794 25.219 272.596 23.818 271.195 22.417 C 268.393 18.914 267.693 16.112 265.591 14.01 C 262.088 15.411 260.687 16.112 259.286 17.513 C 251.58 17.513 236.169 12.609 223.559 11.909 C 209.548 10.508 199.741 17.513 187.131 16.812 C 178.725 14.711 180.826 24.518 176.623 21.016 C 177.324 21.016 177.324 22.417 178.024 22.417 C 172.42 22.417 170.318 30.123 170.318 33.625 C 168.217 34.326 168.917 32.925 168.217 32.224 C 168.917 32.925 167.516 35.026 168.917 35.026 C 168.217 37.128 171.72 35.727 170.318 39.229 C 168.217 35.727 165.415 33.625 163.313 35.727 C 164.014 33.625 164.714 32.925 165.415 32.224 C 164.014 30.823 166.816 27.32 167.516 28.021 C 167.516 24.518 167.516 24.518 168.217 26.62 C 161.912 21.016 166.115 20.315 162.613 12.609 C 150.704 8.406 142.297 16.812 135.992 9.807" fill="rgb(214,145,78)"/>
    <path d="M 144.399 273.208 C 144.399 276.71 138.794 276.01 141.597 280.213 C 140.196 277.411 135.292 277.411 135.992 276.01 C 119.18 272.507 137.393 287.919 131.089 302.63 C 129.688 310.336 130.388 320.143 129.688 329.25 C 133.19 337.657 131.089 345.363 133.19 350.266 C 126.185 352.368 136.693 357.972 123.383 365.678 C 128.286 369.881 132.49 374.785 134.591 378.288 C 132.49 376.186 127.586 379.689 124.083 374.785 C 121.281 378.988 121.982 378.288 124.083 383.892 C 134.591 388.796 136.693 389.496 145.8 395.101 C 150.003 402.106 154.206 404.208 153.506 411.913 C 155.607 403.507 158.409 414.015 157.008 400.705 C 160.511 404.208 164.714 409.812 161.912 411.213 C 193.436 403.507 189.233 402.106 204.645 397.903 C 210.249 403.507 213.752 406.309 220.056 409.111 C 227.762 409.812 232.666 414.716 236.169 411.913 C 218.655 411.913 213.752 395.801 190.634 392.999 C 187.832 390.197 192.035 395.101 187.131 392.999 C 190.634 395.101 190.634 397.202 192.736 397.903 C 187.131 400.705 181.527 399.304 180.126 405.609 C 173.121 404.208 170.318 402.806 161.912 400.004 C 162.613 396.502 160.511 391.598 161.212 389.496 C 161.212 393.7 155.607 393.7 154.206 395.801 C 150.704 387.395 142.297 393.7 135.992 385.293 C 137.393 383.192 138.094 378.288 137.393 374.085 C 137.393 375.486 135.292 372.684 134.591 374.085 C 134.591 373.384 133.891 369.181 132.49 368.48 C 133.891 364.978 136.693 357.272 135.992 354.47 C 134.591 350.967 137.393 341.86 133.19 346.063 C 131.789 335.555 135.292 327.849 133.891 313.138 C 131.789 308.234 137.393 306.133 135.992 302.63 C 132.49 297.026 134.591 293.523 131.789 287.218 C 133.891 284.416 133.19 279.513 134.591 278.812 C 137.393 278.812 141.597 281.614 142.998 283.716 C 140.896 280.914 142.998 277.411 144.399 274.609" fill="rgb(212,145,79)"/>
    <path d="M 142.297 80.561 C 144.399 84.064 130.388 79.16 128.987 84.064 C 124.784 103.679 126.885 119.791 128.286 138.705 C 128.286 142.908 127.586 144.31 126.885 146.411 C 126.185 142.908 126.885 139.406 126.185 135.203 C 126.885 138.705 126.885 142.208 124.784 145.01 C 121.281 143.609 121.281 141.507 119.88 140.106 C 119.88 142.908 123.383 145.01 122.682 147.112 C 119.18 148.513 121.982 152.015 121.281 154.117 C 119.88 152.015 117.778 151.315 117.778 150.614 C 121.982 158.32 122.682 161.122 137.393 169.529 C 127.586 167.427 119.88 169.529 117.778 168.128 C 119.18 173.031 117.078 176.534 119.88 177.235 C 126.885 179.336 117.778 173.732 125.484 175.834 C 124.083 180.037 129.688 182.138 131.789 184.94 C 126.885 185.641 123.383 182.839 120.581 184.94 C 121.982 187.743 115.677 189.144 118.479 194.748 C 120.581 217.165 132.49 232.577 136.693 251.491 C 136.693 264.801 121.982 259.197 123.383 264.801 C 127.586 266.202 131.089 269.005 134.591 269.005 L 135.292 269.005 L 135.292 270.406 L 136.693 270.406 L 137.393 270.406 C 142.998 270.406 141.597 267.603 145.8 267.603 C 140.196 266.202 140.896 266.903 135.292 270.406 C 140.196 265.502 138.094 259.898 140.196 254.293 C 137.393 236.78 127.586 218.566 126.185 210.16 C 125.484 201.753 133.19 210.16 131.789 200.352 C 126.885 201.053 126.885 203.154 124.083 200.352 C 126.185 195.448 128.286 195.448 133.19 189.144 C 132.49 189.144 135.992 186.342 132.49 186.342 C 131.089 182.138 130.388 177.935 128.286 173.732 C 131.789 169.529 135.292 171.63 138.094 170.93 C 130.388 163.924 129.688 162.523 124.083 156.219 C 124.784 151.315 127.586 147.112 128.286 142.208 C 126.885 124.695 128.286 105.08 128.987 90.368 C 128.286 80.561 148.602 82.663 143.698 80.561" fill="rgb(212,144,78)"/>
    <path d="M 318.131 7.005 C 308.324 8.406 321.634 7.005 323.735 6.304 C 331.441 13.31 342.65 14.01 352.457 21.716 C 358.062 18.914 372.072 28.021 370.671 18.914 C 370.671 23.818 374.874 23.818 377.676 24.518 C 378.377 23.818 376.275 22.417 373.473 23.117 C 379.078 18.914 379.778 24.518 382.58 20.315 C 379.778 18.914 385.382 16.112 380.479 17.513 C 383.981 16.112 384.682 12.609 388.184 12.609 C 372.072 7.705 339.848 11.208 324.436 6.304 C 322.334 6.304 320.933 6.304 318.832 6.304" fill="rgb(209,142,75)"/>
    <path d="M 397.992 5.604 C 393.789 5.604 391.687 9.807 389.586 12.609 C 386.083 17.513 383.981 22.417 381.179 26.62 C 379.778 35.026 382.58 41.331 384.682 45.534 C 386.083 39.229 390.286 33.625 390.987 27.32 C 386.783 22.417 387.484 35.727 383.981 34.326 C 382.58 28.021 387.484 26.62 386.083 21.016 C 390.286 21.716 393.789 21.716 395.19 24.518 C 395.89 32.224 394.489 37.128 393.088 42.032 C 397.992 37.828 397.291 32.925 404.997 30.823 C 403.596 25.219 407.799 14.01 398.692 4.903" fill="rgb(102,34,12)"/>
    <path d="M 396.591 300.529 C 394.489 307.534 404.997 328.55 399.393 336.956 C 401.495 341.16 403.596 345.363 404.297 349.566 C 404.297 352.368 404.297 354.47 402.896 355.871 C 403.596 360.774 402.195 363.577 401.495 366.379 C 397.992 369.181 396.591 371.983 393.088 374.085 C 395.19 381.09 397.291 374.085 402.195 376.186 C 394.489 380.389 402.896 383.892 396.591 388.796 C 391.687 395.801 362.265 398.603 358.062 400.705 C 347.554 397.903 332.842 399.304 320.233 397.202 C 333.543 400.004 334.944 398.603 358.062 402.106 C 378.377 397.903 382.58 396.502 398.692 393.7 C 400.794 397.903 404.997 397.202 404.997 400.004 C 409.2 400.004 409.2 398.603 408.5 395.801 C 409.901 397.903 409.901 399.304 409.901 400.705 C 410.602 388.796 407.799 390.197 407.099 375.486 C 404.997 376.887 402.896 370.582 400.794 373.384 C 404.997 369.881 402.195 358.673 404.297 357.972 C 404.997 355.871 404.997 357.272 407.099 356.571 C 404.297 343.962 399.393 318.742 397.291 301.93" fill="rgb(182,105,45)"/>
    <path d="M 306.222 7.005 C 333.543 16.812 358.062 33.625 383.981 46.935 C 379.078 41.331 380.479 37.828 379.778 28.721 C 379.778 30.123 378.377 30.823 379.078 32.925 C 358.762 28.721 337.746 16.812 306.923 7.005" fill="rgb(239,196,130)"/>
    <path d="M 231.265 1.401 C 206.046 4.903 175.222 0 173.821 8.406 C 173.121 14.01 191.334 3.502 197.639 8.406 C 205.345 7.005 205.345 2.101 213.752 3.502 C 214.452 5.604 218.655 5.604 217.254 7.005 C 222.859 0 241.773 13.31 254.383 9.107 C 249.479 1.401 241.072 4.903 232.666 0.7" fill="rgb(203,147,86)"/>
    <path d="M 119.88 279.513 C 121.982 289.32 114.976 304.031 117.078 317.341 C 117.778 329.25 117.078 341.86 119.88 350.266 C 120.581 327.849 120.581 304.732 124.083 285.117 C 121.281 282.315 122.682 280.914 119.88 281.614" fill="rgb(183,101,40)"/>
    <path d="M 121.982 175.834 C 121.982 176.534 126.185 175.834 123.383 177.935 C 122.682 180.037 121.281 182.138 121.281 181.438 C 119.18 180.737 117.078 184.94 115.677 181.438 C 120.581 188.443 113.575 205.256 114.976 217.165 C 115.677 214.363 114.276 203.855 116.377 198.951 C 114.976 210.86 132.49 236.78 132.49 249.39 C 133.19 252.192 133.891 257.095 130.388 258.497 C 127.586 258.497 124.784 259.898 124.083 257.095 C 124.784 259.197 120.581 260.598 118.479 259.898 C 118.479 265.502 121.982 266.202 124.083 268.304 C 122.682 268.304 121.281 265.502 122.682 262.7 C 125.484 263.4 128.987 261.299 131.089 259.898 C 134.591 257.095 135.992 254.994 136.693 252.192 C 129.688 242.384 129.688 222.769 120.581 214.363 C 119.18 203.855 114.976 190.545 119.88 184.94 C 122.682 188.443 122.682 182.138 121.982 178.636 C 128.987 180.737 122.682 187.743 131.789 184.94 C 126.885 184.24 126.185 177.235 124.784 175.834" fill="rgb(173,104,50)"/>
    <path d="M 391.687 394.4 C 379.078 398.603 391.687 393.7 395.89 396.502 C 398.692 400.004 400.794 402.106 402.195 404.908 C 400.094 407.71 398.692 407.01 397.992 407.71 C 396.591 404.208 397.291 400.004 392.388 398.603 C 389.586 402.106 393.789 406.309 394.489 410.512 C 397.291 412.614 397.992 414.716 399.393 415.416 C 402.896 416.117 404.297 414.716 404.997 413.314 C 408.5 407.71 410.602 402.806 409.2 396.502 C 409.901 398.603 409.901 401.405 407.099 400.004 C 404.297 397.903 402.195 398.603 399.393 395.101 C 396.591 395.801 395.19 394.4 391.687 395.101" fill="rgb(100,28,12)"/>
    <path d="M 274.698 3.502 C 275.399 3.502 276.8 5.604 277.5 5.604 C 276.099 6.304 274.698 4.903 273.997 8.406 C 274.698 17.513 276.099 22.417 273.997 30.123 C 277.5 18.213 276.8 21.716 274.698 11.909 C 276.8 10.508 281.003 8.406 284.505 7.705 C 297.816 10.508 294.313 11.208 303.42 10.508 C 321.634 18.213 348.254 30.823 368.57 39.93 C 346.853 28.021 322.334 14.711 318.832 14.01 L 316.73 12.609 L 318.131 14.01 C 307.623 10.508 297.115 7.005 285.907 7.705 C 282.404 7.705 281.003 7.005 278.901 6.304 C 276.8 5.604 276.8 4.203 275.399 4.203" fill="rgb(171,105,46)"/>
    <path d="M 313.227 7.005 C 335.644 16.812 364.366 28.721 377.676 30.123 C 383.281 25.919 371.372 25.219 372.072 21.716 C 372.072 28.721 357.361 19.615 354.559 22.417 C 341.949 14.711 332.142 14.01 323.035 9.107 C 323.035 7.705 321.634 7.005 320.233 7.705" fill="rgb(228,176,108)"/>
    <path d="M 376.976 4.203 C 338.447 6.304 355.259 7.705 327.939 5.604 C 346.853 9.807 368.57 7.705 384.682 11.208 C 383.981 17.513 380.479 15.411 383.981 19.615 C 380.479 25.219 379.778 20.315 374.874 21.716 C 378.377 21.016 378.377 24.518 379.778 25.919 C 379.778 22.417 383.281 23.818 383.281 20.315 C 386.783 15.411 387.484 12.609 387.484 8.406 C 383.281 4.203 381.88 8.406 376.976 6.304 C 395.19 3.502 402.896 4.203 376.976 3.502" fill="rgb(221,173,114)"/>
    <path d="M 402.896 70.053 C 402.896 86.866 405.698 110.684 409.2 124.695 C 407.799 111.384 407.799 91.769 407.099 69.352 C 406.398 70.753 404.997 70.053 404.297 70.753" fill="rgb(198,133,76)"/>
    <path d="M 117.778 392.298 C 117.778 398.603 124.784 400.004 126.185 403.507 C 128.286 401.405 133.891 410.512 138.794 410.512 C 142.297 407.71 142.297 404.908 138.794 402.106 C 131.089 398.603 125.484 394.4 119.18 392.298" fill="rgb(196,126,66)"/>
    <path d="M 119.18 370.582 C 114.976 368.48 117.078 377.587 119.88 383.892 C 128.286 388.095 135.992 390.897 142.297 396.502 C 148.602 397.903 150.003 412.614 150.003 405.609 C 151.404 409.111 150.704 411.213 149.302 413.314 C 152.805 414.015 154.907 413.314 156.308 412.614 L 157.709 411.913 L 157.709 411.213 C 157.008 410.512 157.008 409.111 156.308 407.71 C 156.308 409.111 157.008 409.812 156.308 411.913 C 154.907 412.614 154.206 412.614 153.506 413.314 C 153.506 404.908 150.003 402.106 145.8 395.801 C 136.693 389.496 133.891 390.197 124.083 385.293 C 121.982 376.887 119.88 381.09 121.982 374.785 C 127.586 376.887 135.292 379.689 133.19 376.887 C 130.388 374.785 128.987 376.887 127.586 369.881 L 125.484 369.881 L 124.083 369.881 L 126.185 370.582 L 126.885 370.582 C 128.286 371.983 129.688 371.983 128.286 374.785 C 126.185 371.282 121.982 372.684 119.88 369.881" fill="rgb(175,102,50)"/>
    <path d="M 402.896 35.026 C 400.094 37.128 401.495 41.331 400.794 45.534 C 395.89 40.631 395.89 42.032 399.393 37.128 C 394.489 42.732 390.987 42.032 388.184 49.037 C 391.687 51.839 390.987 44.834 394.489 45.534 C 392.388 47.636 390.286 52.54 395.19 56.743 C 391.687 54.641 390.987 55.342 385.382 56.743 C 388.885 56.042 397.291 60.245 393.789 58.844 C 395.19 54.641 398.692 57.443 400.094 56.743 C 400.794 48.336 404.297 36.427 404.997 35.727" fill="rgb(178,100,43)"/>
    <path d="M 397.992 68.652 C 393.088 77.759 401.495 85.465 396.591 92.47 C 402.896 111.384 404.297 136.604 405.698 146.411 C 402.195 153.416 407.799 152.716 404.297 160.422 C 397.992 166.026 393.088 159.721 386.083 156.919 C 390.286 159.721 397.291 163.224 399.393 163.924 C 402.195 161.823 404.297 161.823 407.099 159.721 C 407.099 156.919 406.398 149.213 407.799 148.513 C 405.698 125.395 397.992 96.673 398.692 70.753" fill="rgb(173,105,45)"/>
    <path d="M 124.784 271.807 C 122.682 272.507 121.982 273.208 121.281 277.411 C 126.885 284.416 126.885 280.213 130.388 292.823 C 131.089 319.443 126.185 311.037 128.987 329.25 C 128.286 339.058 131.089 344.662 132.49 355.17 C 131.789 347.464 131.789 339.758 129.688 330.652 C 129.688 320.143 128.987 310.336 132.49 303.331 C 128.286 294.924 135.292 280.914 125.484 278.812 C 129.688 274.609 133.891 279.513 135.292 275.309 C 138.094 277.411 140.196 277.411 140.196 279.513 C 138.094 276.01 143.698 276.71 143.698 273.208 C 141.597 273.908 140.196 277.411 136.693 276.01 C 131.789 275.309 128.987 272.507 126.185 271.106" fill="rgb(175,106,49)"/>
    <path d="M 380.479 404.908 C 397.291 402.106 388.184 411.913 379.078 411.213 C 373.473 411.913 367.869 412.614 362.965 411.213 C 367.869 407.71 374.174 406.309 381.179 405.609" fill="rgb(192,115,55)"/>
    <path d="M 117.078 280.213 C 114.976 292.823 116.377 304.732 115.677 317.341 C 116.377 331.352 116.377 334.154 117.778 349.566 C 118.479 350.967 120.581 353.069 121.281 351.668 C 120.581 327.149 124.083 307.534 124.784 283.716 C 122.682 297.026 119.88 327.849 122.682 349.566 C 116.377 342.561 117.778 329.25 116.377 319.443 C 115.677 304.031 118.479 293.523 120.581 280.914" fill="rgb(205,140,82)"/>
    <path d="M 126.185 284.416 C 128.987 306.133 121.281 327.849 125.484 350.967 C 126.885 350.967 128.286 350.967 130.388 351.668 C 129.688 343.962 126.185 337.657 125.484 329.951 C 126.185 314.539 130.388 299.828 126.885 285.117" fill="rgb(241,197,133)"/>
    <path d="M 406.398 163.224 C 406.398 166.727 399.393 167.427 397.291 170.229 C 400.794 168.128 402.896 168.828 405.698 166.727 C 411.302 171.63 404.997 176.534 409.2 177.935 C 409.901 193.347 393.088 208.058 395.19 219.267 C 396.591 215.063 407.799 191.946 409.901 181.438 C 409.901 182.839 410.602 180.737 409.901 179.336 C 411.302 171.63 407.799 163.224 406.398 163.924" fill="rgb(180,101,45)"/>
    <path d="M 175.923 4.203 C 175.222 6.304 171.72 4.203 171.019 6.304 C 168.217 11.208 170.318 14.01 173.121 15.411 C 172.42 14.01 177.324 12.609 178.024 11.208 C 184.329 9.807 191.334 7.705 196.939 11.208 C 203.244 7.005 213.051 8.406 215.153 6.304 C 215.153 2.802 210.249 4.203 206.746 3.502 C 208.147 8.406 199.04 5.604 199.04 8.406 C 191.334 5.604 180.826 11.208 172.42 9.807 C 170.318 9.807 171.72 9.107 170.318 8.406 C 175.923 5.604 180.826 4.903 184.329 4.203 C 182.228 4.203 179.425 5.604 176.623 4.203" fill="rgb(222,172,107)"/>
    <path d="M 399.393 268.304 C 397.992 280.914 400.094 293.523 402.896 304.031 C 402.195 294.224 403.596 285.117 404.297 276.01 C 402.896 272.507 404.297 268.304 401.495 268.304" fill="rgb(193,130,75)"/>
    <path d="M 119.18 394.4 C 126.185 395.801 134.591 399.304 138.794 405.609 C 135.292 408.411 124.083 401.405 119.88 397.202" fill="rgb(190,114,52)"/>
    <path d="M 116.377 225.571 C 117.778 233.978 115.677 238.882 114.976 245.887 C 115.677 245.186 114.976 243.785 115.677 243.085 C 117.778 246.587 115.677 250.09 118.479 252.192 C 121.982 251.491 124.784 255.694 130.388 254.994 C 132.49 254.293 122.682 252.892 120.581 250.791 C 119.88 242.384 121.281 232.577 117.778 226.973" fill="rgb(176,102,47)"/>
    <path d="M 344.051 11.208 C 353.858 10.508 366.468 10.508 376.275 13.31 C 365.767 17.513 353.858 12.609 343.35 13.31" fill="rgb(197,123,56)"/>
    <path d="M 383.281 405.609 C 376.275 407.01 369.27 407.71 362.965 410.512 C 369.27 414.716 400.094 407.71 385.382 404.908" fill="rgb(189,109,51)"/>
    <path d="M 306.222 404.908 C 295.714 406.309 286.607 411.913 273.297 412.614 C 271.195 405.609 262.789 416.117 262.789 404.208 C 263.489 411.913 265.591 416.117 272.596 413.314 L 273.297 414.015 L 272.596 414.716 L 272.596 416.117 L 278.201 416.817 C 264.19 416.817 293.612 406.309 306.222 407.01 C 318.832 408.411 333.543 425.924 314.628 404.908 C 312.527 402.806 310.425 408.411 308.324 405.609" fill="rgb(163,103,51)"/>
    <path d="M 116.377 214.363 C 115.677 220.668 114.976 227.673 115.677 235.379 C 117.078 237.481 114.976 226.973 117.078 224.871 C 122.682 231.176 119.18 235.379 121.281 242.384 C 121.982 246.587 121.982 250.09 119.18 251.491 C 115.677 249.39 117.078 246.587 116.377 243.085 C 114.976 252.892 114.976 250.791 117.778 251.491 L 117.778 252.892 L 119.18 250.791 C 123.383 250.791 123.383 249.39 125.484 245.186 C 123.383 237.481 122.682 231.176 119.18 226.272 C 117.078 222.069 116.377 218.566 115.677 215.764" fill="rgb(201,140,81)"/>
    <path d="M 401.495 226.973 C 402.896 231.876 403.596 236.78 401.495 242.384 C 395.89 243.785 395.19 254.293 392.388 245.186 C 393.789 249.39 395.89 250.09 397.992 250.791 C 402.896 250.791 402.896 248.689 404.997 243.085 C 408.5 236.079 401.495 236.079 404.297 225.571" fill="rgb(168,100,48)"/>
    <path d="M 192.736 400.705 C 184.329 407.71 174.522 410.512 164.014 411.913 C 166.816 411.913 233.367 411.213 179.425 409.812 C 183.629 403.507 191.334 407.01 192.035 402.106" fill="rgb(178,106,47)"/>
    <path d="M 321.634 405.609 C 330.04 404.208 335.644 408.411 340.548 408.411 C 336.345 409.812 332.842 411.213 329.34 411.913 C 325.837 411.913 323.735 409.111 323.035 407.01" fill="rgb(194,119,59)"/>
    <path d="M 123.383 78.459 C 123.383 88.967 121.281 113.486 121.281 128.197 C 122.682 133.802 119.88 136.604 125.484 138.005 C 121.982 121.192 121.982 105.08 123.383 86.165 C 123.383 81.261 124.083 79.16 127.586 81.962 C 126.185 81.962 125.484 81.261 124.784 79.86" fill="rgb(241,200,141)"/>
    <path d="M 318.832 409.111 C 323.035 414.015 326.537 414.716 330.04 414.716 C 353.158 414.716 374.174 415.416 393.789 413.314 C 393.789 411.913 393.789 411.213 393.789 410.512 C 378.377 414.716 353.858 413.314 334.243 414.716 C 328.639 413.314 323.735 413.314 320.233 411.213" fill="rgb(219,170,114)"/>
    <path d="M 190.634 10.508 C 181.527 7.705 173.821 17.513 168.217 14.01 C 174.522 11.909 199.04 17.513 194.137 9.807" fill="rgb(240,196,129)"/>
    <path d="M 403.596 70.053 C 409.901 71.454 406.398 84.764 406.398 90.368 C 402.896 84.064 403.596 79.16 402.896 72.155" fill="rgb(194,120,60)"/>
    <path d="M 199.741 407.71 C 194.137 409.111 188.532 408.411 182.928 409.812 C 189.233 411.213 203.244 406.309 203.944 411.213 C 187.832 416.817 177.324 407.71 171.72 413.314 C 183.629 414.015 220.757 416.117 202.543 408.411" fill="rgb(199,142,87)"/>
    <path d="M 390.987 397.202 C 377.676 397.202 367.168 404.908 354.559 405.609 C 362.265 404.908 371.372 403.507 378.377 403.507 C 385.382 402.106 389.586 397.903 389.586 399.304" fill="rgb(240,196,136)"/>
    <path d="M 206.046 400.004 C 190.634 402.806 215.153 412.614 219.356 413.314 C 215.853 409.812 209.548 407.71 206.046 401.405" fill="rgb(114,43,14)"/>
    <path d="M 120.581 395.801 C 122.682 401.405 135.292 406.309 138.094 407.01 C 134.591 399.304 127.586 398.603 121.982 395.101" fill="rgb(187,108,45)"/>
    <path d="M 409.901 182.839 C 409.2 194.748 400.794 205.256 397.992 215.063 C 404.997 208.058 406.398 199.652 409.901 191.245 C 409.901 188.443 410.602 185.641 409.2 184.24" fill="rgb(120,42,14)"/>
    <path d="M 260.687 4.203 C 259.987 5.604 258.586 3.502 257.885 4.903 C 256.484 9.107 256.484 12.609 257.885 14.711 C 257.185 10.508 265.591 11.208 266.992 8.406 C 266.992 7.005 264.891 3.502 262.088 3.502" fill="rgb(114,34,12)"/>
    <path d="M 306.222 406.309 C 305.521 409.812 306.923 412.614 309.725 414.015 C 312.527 415.416 314.628 417.518 316.73 416.117 C 319.532 411.913 316.73 413.314 316.029 410.512 C 312.527 408.411 309.024 409.812 306.923 407.71" fill="rgb(102,31,12)"/>
    <path d="M 124.784 282.315 C 125.484 299.828 123.383 313.138 122.682 329.25 C 125.484 336.256 121.982 348.865 124.784 351.668 C 120.581 330.652 128.286 303.331 126.185 283.015" fill="rgb(227,173,109)"/>
    <path d="M 118.479 80.561 C 121.281 96.673 112.174 119.791 117.078 133.802 C 119.88 114.187 117.078 98.775 119.88 81.261" fill="rgb(166,114,66)"/>
    <path d="M 119.18 23.818 C 117.778 32.224 118.479 42.732 117.778 51.839 C 120.581 51.839 118.479 50.438 121.281 46.935 C 123.383 40.631 120.581 32.925 118.479 25.219" fill="rgb(197,132,71)"/>
    <path d="M 219.356 7.005 C 227.062 4.903 252.281 17.513 254.383 13.31 C 244.575 9.807 234.067 9.107 223.559 4.903" fill="rgb(228,174,109)"/>
    <path d="M 404.297 37.828 C 402.896 40.631 402.896 60.245 396.591 56.743 C 401.495 58.844 404.297 56.042 407.099 57.443 C 400.094 55.342 409.2 41.331 404.997 37.128" fill="rgb(122,51,18)"/>
    <path d="M 400.094 60.946 C 400.794 61.647 400.094 62.347 400.094 67.951 C 403.596 69.352 407.099 70.053 408.5 67.951 C 409.2 63.048 404.997 61.647 402.896 60.245" fill="rgb(100,31,13)"/>
    <path d="M 119.18 369.881 C 114.276 371.983 115.677 381.09 117.078 384.593 C 128.286 391.598 139.495 392.999 147.201 402.106 C 140.196 392.999 129.688 389.496 119.88 385.293 C 115.677 381.09 116.377 374.085 117.778 369.881" fill="rgb(110,52,23)"/>
    <path d="M 116.377 384.593 C 114.976 385.994 117.778 386.694 116.377 389.496 C 128.987 391.598 140.896 400.705 146.5 405.609 C 138.094 392.999 125.484 393.7 115.677 385.994" fill="rgb(236,197,145)"/>
    <path d="M 400.094 269.705 C 405.698 272.507 402.195 284.416 402.195 288.619 C 400.094 284.416 399.393 277.411 399.393 272.507" fill="rgb(188,119,61)"/>
    <path d="M 318.131 399.304 C 320.933 404.208 339.147 402.806 345.452 404.908 C 337.046 401.405 330.741 400.004 322.334 399.304" fill="rgb(241,201,139)"/>
    <path d="M 203.944 398.603 C 202.543 400.004 195.538 400.705 200.441 404.208 C 196.238 400.705 203.244 400.705 204.645 400.004 C 208.848 407.01 215.853 409.111 220.757 411.913 C 225.661 409.111 231.965 416.817 237.57 413.314 C 235.468 415.416 229.163 411.913 221.457 410.512 C 213.752 407.01 210.249 404.908 207.447 398.603 L 206.046 398.603 L 205.345 398.603" fill="rgb(169,102,51)"/>
    <path d="M 119.88 11.208 C 121.982 17.513 125.484 34.326 124.784 35.026 C 129.688 25.219 121.281 20.315 121.281 11.909" fill="rgb(178,103,45)"/>
    <path d="M 121.281 77.058 C 119.18 89.668 120.581 138.705 114.976 132.4 C 119.18 138.005 119.18 136.604 121.281 137.304 C 118.479 120.491 121.982 98.074 121.982 79.16" fill="rgb(201,142,83)"/>
    <path d="M 126.185 37.828 C 121.281 49.737 122.682 53.24 118.479 72.155 C 119.88 63.748 122.682 58.144 124.083 51.839 C 126.185 50.438 126.185 51.839 127.586 50.438 C 121.982 47.636 126.885 41.331 126.885 39.229" fill="rgb(184,106,46)"/>
    <path d="M 116.377 210.86 C 116.377 224.871 128.987 234.678 126.885 249.39 C 128.987 248.689 129.688 249.39 130.388 250.09 C 128.987 236.079 119.88 224.871 116.377 212.261" fill="rgb(240,197,140)"/>
    <path d="M 343.35 12.609 C 351.757 11.909 365.767 16.812 374.874 14.01 C 366.468 11.909 355.96 11.208 346.853 11.909" fill="rgb(194,120,53)"/>
    <path d="M 322.334 406.309 C 323.735 408.411 325.136 411.213 328.639 411.213 C 332.842 410.512 336.345 409.111 339.848 409.812 C 335.644 409.111 330.741 405.609 323.735 405.609" fill="rgb(191,115,56)"/>
    <path d="M 221.457 10.508 C 209.548 11.208 199.741 11.909 189.233 16.112 C 200.441 16.812 209.548 10.508 221.457 11.208 C 257.185 17.513 255.083 16.112 220.056 9.807" fill="rgb(177,110,50)"/>
    <path d="M 145.099 344.662 C 148.602 343.261 144.399 348.865 147.901 348.865 C 145.099 343.962 150.704 349.566 151.404 348.165 C 149.302 350.967 150.704 353.769 145.8 354.47 C 140.896 350.266 145.8 350.266 144.399 346.764" fill="rgb(232,188,119)"/>
    <path d="M 117.078 9.807 C 120.581 16.812 117.778 27.32 124.083 32.925 C 122.682 25.219 120.581 16.112 118.479 10.508" fill="rgb(118,49,14)"/>
    <path d="M 121.982 357.272 C 124.784 360.774 115.677 361.475 117.778 365.678 C 121.281 364.277 124.083 365.678 123.383 369.181 C 121.982 359.373 140.896 356.571 121.281 360.074" fill="rgb(178,99,42)"/>
    <path d="M 267.693 8.406 C 248.778 21.716 264.19 9.107 271.896 19.615 C 268.393 17.513 269.794 13.31 268.393 10.508 L 268.393 9.807 L 267.693 11.208 L 267.693 10.508" fill="rgb(178,101,44)"/>
    <path d="M 121.281 353.069 C 115.677 353.769 115.677 358.673 116.377 363.577 C 119.88 365.678 122.682 367.78 125.484 369.881 C 121.982 367.78 122.682 364.978 117.078 365.678 C 117.778 362.176 119.88 360.774 121.281 358.673 C 120.581 357.272 121.982 355.17 121.281 353.769" fill="rgb(107,38,16)"/>
    <path d="M 298.516 413.314 C 292.912 414.716 286.607 416.117 282.404 416.117 C 296.415 418.919 302.719 416.117 302.019 412.614" fill="rgb(172,110,55)"/>
    <path d="M 171.72 395.101 L 173.121 393.7 C 175.923 397.903 177.324 395.101 180.826 395.801 C 175.923 399.304 168.217 404.208 171.019 395.801" fill="rgb(215,159,94)"/>
    <path d="M 120.581 252.192 C 117.078 252.892 115.677 256.395 116.377 260.598 L 117.078 261.999 L 117.778 262.7 C 118.479 264.801 120.581 264.801 121.982 266.202 C 120.581 264.801 118.479 264.801 117.778 262.7 C 117.078 257.796 121.982 261.299 122.682 257.796 C 121.982 256.395 121.982 254.293 120.581 252.892" fill="rgb(108,45,16)"/>
    <path d="M 400.094 267.603 C 400.094 268.304 399.393 269.005 397.992 268.304 C 397.992 284.416 398.692 301.93 403.596 313.138 C 407.099 280.213 397.992 320.844 397.992 263.4 C 400.094 267.603 401.495 268.304 402.195 267.603 C 404.297 271.807 404.297 274.609 404.997 277.411 C 404.297 274.609 404.997 270.406 404.297 267.603 C 402.896 267.603 402.195 267.603 401.495 268.304" fill="rgb(217,171,118)"/>
    <path d="M 175.222 15.411 C 184.329 16.112 175.222 18.213 172.42 16.812 C 172.42 18.914 173.121 21.016 174.522 21.716 C 172.42 23.117 169.618 24.518 171.72 25.919 C 169.618 21.016 194.837 16.112 178.024 15.411" fill="rgb(178,104,46)"/>
    <path d="M 398.692 257.095 C 397.992 261.299 398.692 261.299 399.393 264.101 C 400.094 266.903 402.896 266.903 403.596 266.903 C 405.698 262.7 402.896 259.197 400.094 258.497" fill="rgb(107,38,18)"/>
    <path d="M 404.297 70.753 C 403.596 78.459 403.596 83.363 404.997 89.668 C 406.398 84.064 407.099 76.358 405.698 70.753" fill="rgb(189,112,52)"/>
    <path d="M 119.18 29.422 C 121.281 32.925 121.281 41.331 120.581 46.235 C 117.078 42.732 118.479 36.427 117.778 32.224" fill="rgb(191,123,60)"/>
    <path d="M 334.944 84.764 C 334.944 83.363 335.644 84.064 337.046 84.064 C 339.848 85.465 338.447 86.866 341.249 88.267 C 337.746 88.967 324.436 85.465 333.543 84.064" fill="rgb(229,187,122)"/>
    <path d="M 121.281 4.903 C 121.982 8.406 123.383 8.406 124.083 11.909 C 126.885 6.304 133.891 9.807 137.393 11.208 C 133.891 8.406 128.286 4.203 121.982 5.604" fill="rgb(172,101,46)"/>
    <path d="M 402.195 384.593 C 402.195 383.192 403.596 385.293 404.997 385.293 C 406.398 388.796 405.698 390.197 404.997 392.999 C 407.799 383.192 395.89 394.4 400.094 384.593" fill="rgb(205,123,53)"/>
    <path d="M 375.575 398.603 C 369.27 399.304 363.666 402.106 358.062 402.806 C 348.955 401.405 341.249 401.405 334.243 399.304 C 342.65 400.705 349.655 405.609 360.163 403.507 C 365.767 400.705 370.671 400.004 374.874 398.603" fill="rgb(117,48,15)"/>
    <path d="M 145.099 405.609 C 136.693 409.812 141.597 418.919 149.302 414.015 C 150.003 411.213 150.704 409.111 150.003 406.309 C 150.704 408.411 150.003 410.512 148.602 411.913 C 145.099 414.015 142.998 411.913 142.297 411.213 C 142.998 409.111 146.5 409.812 146.5 406.309" fill="rgb(100,44,20)"/>
    <path d="M 120.581 138.005 C 117.778 138.005 116.377 140.106 115.677 142.908 C 114.276 148.513 114.976 152.716 117.778 155.518 C 112.174 151.315 118.479 146.411 117.078 141.507 C 119.18 136.604 122.682 141.507 123.383 142.208 C 125.484 139.406 123.383 138.005 121.982 137.304" fill="rgb(111,46,19)"/>
    <path d="M 402.896 91.069 C 400.794 105.78 410.602 128.898 409.901 142.908 C 412.703 119.791 403.596 119.791 403.596 89.668" fill="rgb(218,173,114)"/>
    <path d="M 118.479 143.609 C 118.479 146.411 115.677 147.812 115.677 150.614 C 117.078 154.117 117.078 155.518 118.479 157.62 C 121.982 161.823 124.083 163.924 128.987 164.625 C 117.778 157.62 123.383 159.021 116.377 153.416 C 118.479 149.213 119.88 152.015 120.581 152.716 C 119.88 152.015 119.18 147.112 122.682 147.812 C 121.281 146.411 117.778 147.112 117.778 144.31" fill="rgb(175,105,51)"/>
    <path d="M 392.388 22.417 C 391.687 30.823 386.783 38.529 385.382 46.235 L 383.981 46.235 L 383.981 44.834 L 384.682 46.935 L 386.083 47.636 C 389.586 40.631 392.388 29.422 393.789 22.417" fill="rgb(166,102,51)"/>
    <path d="M 116.377 390.897 C 124.784 394.4 140.196 399.304 142.998 406.309 C 142.998 401.405 137.393 400.004 134.591 397.202 C 127.586 395.801 124.083 390.197 118.479 390.897" fill="rgb(223,173,110)"/>
    <path d="M 340.548 50.438 C 344.051 49.737 342.65 54.641 340.548 55.342 C 337.746 54.641 335.644 55.342 334.243 53.941 C 334.243 50.438 337.746 53.24 339.147 51.139" fill="rgb(229,187,121)"/>
    <path d="M 116.377 161.823 C 119.18 167.427 113.575 175.834 118.479 178.636 C 119.18 179.336 114.976 171.63 117.778 167.427 C 121.281 171.63 128.987 163.924 135.992 170.93 C 131.089 162.523 123.383 172.331 117.778 163.224" fill="rgb(167,109,59)"/>
    <path d="M 402.195 342.561 C 409.2 345.363 404.297 354.47 406.398 356.571 C 409.901 353.769 409.2 350.967 409.2 348.165 C 407.099 346.063 404.997 346.063 404.297 343.261" fill="rgb(105,40,20)"/>
    <path d="M 396.591 4.203 C 390.286 5.604 384.682 4.203 377.676 5.604 C 382.58 5.604 390.286 4.203 388.184 11.208 C 390.286 4.203 401.495 3.502 397.992 4.903" fill="rgb(229,193,137)"/>
    <path d="M 400.794 271.106 C 399.393 276.71 400.794 283.015 400.794 288.619 C 402.896 283.015 403.596 276.71 401.495 270.406" fill="rgb(184,111,51)"/>
    <path d="M 195.538 400.004 C 193.436 403.507 190.634 405.609 187.131 407.71 C 192.035 403.507 207.447 409.111 195.538 401.405" fill="rgb(242,197,137)"/>
    <path d="M 408.5 208.759 C 404.997 212.261 404.297 217.866 402.896 222.069 C 407.799 219.967 408.5 214.363 408.5 210.16" fill="rgb(184,108,50)"/>
    <path d="M 130.388 80.561 C 129.688 81.962 127.586 81.962 126.885 82.663 C 126.185 85.465 126.185 86.165 126.885 87.566 C 122.682 105.78 128.286 127.497 126.885 145.01 C 128.286 124.695 122.682 105.78 128.286 84.064 C 128.286 84.064 134.591 79.86 132.49 81.261" fill="rgb(169,105,55)"/>
    <path d="M 123.383 47.636 C 118.479 51.139 121.281 58.144 117.778 60.946 C 117.078 67.251 118.479 70.753 119.18 74.256 C 115.677 66.55 121.982 57.443 122.682 49.037" fill="rgb(107,45,20)"/>
    <path d="M 213.051 9.107 C 204.645 12.609 231.265 7.005 235.468 11.909 C 229.864 9.107 222.859 9.107 215.853 7.705" fill="rgb(126,53,12)"/>
    <path d="M 397.992 281.614 C 395.89 299.828 403.596 315.94 404.997 331.352 C 406.398 303.331 399.393 320.844 397.291 280.213" fill="rgb(231,193,145)"/>
    <path d="M 388.885 399.304 C 381.88 405.609 370.671 403.507 360.864 404.908 C 367.869 406.309 395.89 402.806 388.885 400.004" fill="rgb(226,172,110)"/>
    <path d="M 316.73 402.106 C 330.741 404.208 343.35 407.01 358.762 405.609 C 345.452 404.908 334.243 404.208 318.832 402.106" fill="rgb(226,171,109)"/>
    <path d="M 346.853 4.203 C 326.537 9.807 360.864 5.604 371.372 4.203 C 362.965 3.502 352.457 6.304 342.65 4.203" fill="rgb(223,194,147)"/>
    <path d="M 145.8 344.662 C 146.5 350.266 142.297 349.566 144.399 353.769 C 150.704 353.069 148.602 350.967 150.704 348.865 C 147.901 346.764 146.5 350.266 145.099 346.764" fill="rgb(230,186,118)"/>
    <path d="M 182.228 23.818 C 185.03 22.417 187.832 25.919 189.233 25.919 C 185.73 28.021 180.126 28.021 180.826 23.818" fill="rgb(227,162,89)"/>
    <path d="M 171.019 37.828 C 175.222 37.828 174.522 44.133 175.222 46.935 C 172.42 44.834 173.121 41.331 169.618 39.229" fill="rgb(196,115,49)"/>
    <path d="M 121.982 88.267 C 121.281 103.679 120.581 121.192 119.18 136.604 C 120.581 123.994 121.281 104.379 122.682 89.668" fill="rgb(230,173,107)"/>
    <path d="M 398.692 68.652 C 401.495 79.16 402.195 92.47 401.495 103.679 C 403.596 93.171 400.094 77.058 400.794 68.652" fill="rgb(245,195,131)"/>
    <path d="M 172.42 394.4 C 168.217 403.507 174.522 398.603 179.425 397.202 C 177.324 397.202 175.222 397.903 173.821 394.4" fill="rgb(212,157,92)"/>
    <path d="M 407.799 68.652 C 407.799 74.256 408.5 85.465 407.799 92.47 C 409.901 86.165 407.799 76.358 410.602 69.352" fill="rgb(210,168,121)"/>
    <path d="M 365.767 5.604 C 368.57 4.903 372.773 5.604 375.575 4.903 C 372.773 7.705 369.27 7.705 366.468 7.005" fill="rgb(224,185,126)"/>
    <path d="M 236.869 1.401 C 243.174 3.502 246.677 2.802 258.586 4.903 C 260.687 0 243.875 2.101 237.57 1.401" fill="rgb(207,168,120)"/>
    <path d="M 393.789 48.336 C 395.19 46.935 396.591 50.438 397.992 51.139 C 396.591 52.54 395.89 54.641 395.19 54.641 C 393.088 52.54 391.687 51.139 393.789 49.737" fill="rgb(202,125,60)"/>
    <path d="M 391.687 253.593 C 397.992 253.593 393.789 264.801 397.992 266.202 C 398.692 263.4 395.89 258.497 398.692 257.095 C 397.291 256.395 396.591 254.994 393.789 254.293" fill="rgb(169,100,48)"/>
    <path d="M 336.345 84.764 C 325.136 84.764 336.345 87.566 339.147 89.668 C 337.046 87.566 339.848 84.764 336.345 84.064" fill="rgb(229,186,121)"/>
    <path d="M 397.992 308.234 C 400.794 316.641 402.195 325.748 402.896 334.855 C 404.997 326.448 400.794 317.341 399.393 308.935" fill="rgb(118,53,19)"/>
    <path d="M 122.682 73.556 C 112.875 74.957 131.789 78.459 141.597 81.261 C 135.992 78.459 125.484 77.058 123.383 73.556" fill="rgb(168,110,61)"/>
    <path d="M 117.778 114.187 C 119.88 114.887 116.377 121.192 117.078 123.994 C 114.976 121.192 114.976 118.39 117.078 116.288" fill="rgb(170,122,79)"/>
    <path d="M 117.078 220.668 C 121.281 227.673 129.688 245.887 122.682 250.791 C 127.586 240.283 121.982 229.074 117.078 221.368" fill="rgb(226,174,109)"/>
    <path d="M 389.586 59.545 C 391.687 59.545 393.088 58.844 392.388 64.449 C 388.885 63.748 390.286 62.347 388.184 60.946" fill="rgb(223,159,92)"/>
    <path d="M 123.383 352.368 C 123.383 355.871 126.885 356.571 128.987 355.871 C 130.388 352.368 126.885 352.368 125.484 353.069" fill="rgb(109,28,9)"/>
    <path d="M 157.709 9.807 C 145.099 14.711 161.212 7.005 161.912 12.609 C 164.014 14.01 164.014 21.016 166.816 26.62 C 171.72 17.513 161.912 25.919 164.714 9.807 C 161.912 10.508 159.81 10.508 158.409 9.807" fill="rgb(163,114,70)"/>
  </g>
  <g transform="matrix(0.089058, 0, 0, -0.089058, 19.692825, 614.477783)" fill="#000000" stroke="none">
    <path d="M3154 6318 c-115 -27 -174 -65 -292 -187 -125 -129 -120 -142 53 -157 121 -10 167 10 85 36 -76 24 -40 49 55 38 84 -11 134 -21 295 -60 31 -8 34 -6 10 9 -22 14 -28 48 -23 132 8 135 40 125 116 -39 l47 -100 -43 -7 c-35 -5 -38 -10 -15 -25 24 -16 23 -23 -6 -45 -32 -24 -28 -29 39 -49 97 -30 108 -8 62 132 -55 166 -212 351 -290 342 -9 -1 -51 -10 -93 -20z m142 -43 c13 -16 14 -57 3 -115 -9 -49 -18 -97 -18 -105 -1 -8 -10 -15 -22 -15 -14 0 -14 12 0 38 16 30 12 40 -19 48 -27 7 -40 27 -40 60 0 103 48 147 96 89z m-144 -99 c-17 -86 -30 -96 -107 -80 -74 16 -50 87 42 124 71 29 79 23 65 -44z"/>
    <path d="M 2574 5985 C 2452 5973 2483 5917 2630 5881 C 2696 5865 2753 5850 2756 5848 C 2771 5839 2708 5760 2686 5760 C 2673 5760 2655 5748 2646 5733 C 2625 5698 2507 5674 2320 5666 C 2034 5655 1840 5607 1840 5548 C 1840 5534 1776 5480 1697 5430 C 1464 5279 1260 5028 1260 4893 C 1260 4820 1325 4703 1364 4705 C 1426 4708 1460 4699 1455 4679 C 1452 4668 1501 4656 1570 4651 C 1725 4642 1769 4625 1738 4588 C 1726 4573 1720 4542 1726 4520 C 1741 4462 1689 4368 1566 4232 C 1508 4166 1460 4101 1460 4087 C 1460 4072 1447 4060 1431 4060 C 1416 4060 1370 4006 1331 3941 C 1291 3876 1234 3804 1204 3782 C 1157 3748 1153 3737 1176 3706 C 1190 3686 1217 3643 1236 3610 C 1255 3577 1313 3509 1366 3458 C 1432 3395 1465 3345 1472 3298 C 1486 3214 1379 2841 1320 2766 C 1298 2738 1280 2695 1280 2671 C 1280 2647 1267 2610 1251 2589 C 1234 2567 1221 2535 1221 2516 C 1220 2497 1193 2436 1160 2381 C 1030 2160 978 2002 940 1710 C 920 1556 888 1376 869 1310 C 851 1244 832 1159 826 1120 C 821 1082 804 998 788 934 C 739 740 758 724 1040 724 C 1242 723 1299 785 1197 893 C 1106 990 1135 1204 1277 1491 C 1344 1626 1418 1807 1442 1893 C 1465 1979 1497 2064 1512 2082 C 1527 2099 1540 2140 1540 2173 C 1540 2208 1557 2249 1580 2270 C 1605 2292 1620 2332 1620 2373 C 1620 2436 1623 2438 1671 2420 C 1700 2409 1751 2401 1786 2403 C 1835 2405 1839 2407 1804 2414 C 1755 2424 1741 2444 1733 2522 C 1730 2548 1717 2606 1705 2650 C 1692 2694 1677 2766 1671 2811 C 1664 2855 1654 2914 1647 2941 C 1640 2968 1633 3040 1630 3100 C 1627 3161 1620 3232 1613 3259 C 1606 3286 1595 3344 1589 3389 C 1582 3433 1570 3482 1561 3499 C 1552 3516 1549 3540 1554 3553 C 1558 3565 1539 3594 1511 3616 C 1482 3638 1469 3660 1482 3664 C 1498 3669 1499 3707 1484 3801 C 1466 3922 1467 3960 1490 3937 C 1495 3932 1501 3863 1505 3783 C 1509 3653 1514 3638 1554 3627 C 1622 3610 1765 3698 1753 3749 C 1737 3814 1719 3992 1730 3970 C 1781 3867 1793 3737 1756 3689 C 1735 3662 1723 3631 1730 3620 C 1737 3609 1733 3600 1722 3600 C 1708 3600 1707 3583 1720 3549 C 1731 3520 1740 3472 1740 3441 C 1740 3410 1752 3375 1767 3362 C 1783 3349 1790 3318 1785 3290 C 1780 3262 1785 3228 1797 3214 C 1825 3179 1818 3104 1785 3091 C 1765 3083 1763 3071 1780 3040 C 1792 3017 1810 3004 1820 3010 C 1830 3016 1833 2975 1827 2915 C 1812 2765 1812 2754 1831 2712 C 1842 2685 1840 2678 1824 2688 C 1811 2695 1816 2674 1835 2641 C 1863 2592 1865 2576 1844 2563 C 1776 2520 1886 2440 1959 2480 C 1982 2492 2000 2493 2000 2483 C 2000 2473 1973 2453 1939 2440 C 1900 2423 1882 2404 1889 2386 C 1895 2371 1892 2363 1882 2369 C 1865 2379 1740 2164 1740 2124 C 1740 2102 1974 2166 2003 2195 C 2013 2205 2096 2379 2188 2581 C 2529 3334 2487 3272 2585 3177 C 2621 3143 2686 3092 2730 3063 C 3016 2878 3037 2824 2910 2601 C 2844 2487 2818 2413 2800 2300 C 2787 2218 2768 2110 2756 2060 C 2723 1915 2695 1716 2695 1635 C 2696 1573 2689 1560 2656 1560 C 2625 1560 2619 1552 2631 1525 C 2639 1506 2645 1474 2643 1455 C 2642 1436 2639 1370 2637 1308 L 2633 1196 L 2563 1207 C 2374 1238 2228 930 2414 892 C 2605 854 2964 818 3049 829 C 3109 837 3247 829 3394 808 C 3673 769 3689 774 3710 901 C 3738 1063 3709 1132 3604 1161 C 3487 1193 3485 1194 3530 1227 C 3583 1266 3555 1320 3482 1320 C 3449 1320 3417 1329 3410 1340 C 3392 1369 3296 1363 3252 1330 C 3223 1308 3206 1306 3187 1323 C 3167 1339 3147 1336 3108 1311 C 3038 1265 3028 1282 3091 1341 C 3135 1382 3147 1385 3183 1363 C 3205 1349 3228 1342 3234 1347 C 3239 1353 3217 1371 3185 1388 C 3140 1410 3120 1412 3103 1395 C 3090 1382 3080 1379 3080 1387 C 3080 1428 3141 1464 3171 1440 C 3192 1422 3200 1421 3200 1438 C 3200 1451 3180 1469 3155 1479 C 3115 1494 3114 1498 3145 1510 C 3188 1528 3190 1557 3149 1573 C 3132 1580 3101 1569 3079 1549 C 3041 1515 3040 1515 3040 1566 C 3040 1654 3304 2431 3393 2605 C 3420 2657 3419 2660 3376 2660 C 3350 2660 3317 2670 3300 2681 C 3271 2700 3319 2695 3422 2668 C 3517 2642 3599 2796 3551 2911 C 3522 2979 3505 3029 3510 3021 C 3515 3012 3496 3010 3469 3015 C 3418 3025 3123 3422 3135 3464 C 3145 3497 3072 3601 3045 3591 C 3019 3581 3012 3601 3019 3667 C 3021 3687 2988 3746 2945 3797 C 2851 3909 2787 4004 2812 3996 C 2874 3975 2913 4074 2915 4258 C 2917 4488 2909 4483 3065 4351 C 3136 4290 3213 4240 3236 4240 C 3310 4240 3340 4217 3340 4160 C 3340 4074 3409 4044 3631 4033 C 3675 4030 3733 4013 3760 3994 C 3826 3948 3866 3951 3933 4007 C 4039 4095 4160 4121 4294 4087 C 4432 4050 4492 4022 4429 4021 C 4407 4020 4337 4002 4275 3980 C 4212 3958 4126 3940 4083 3940 C 4040 3940 3979 3927 3947 3910 C 3896 3884 3888 3884 3868 3910 C 3837 3952 3815 3947 3829 3902 C 3836 3881 3832 3858 3821 3851 C 3809 3843 3800 3829 3800 3819 C 3800 3790 3872 3797 3898 3828 C 3912 3845 3983 3861 4079 3870 C 4185 3879 4289 3905 4401 3950 C 4532 4003 4576 4013 4616 3998 C 4644 3987 4681 3980 4698 3982 C 4761 3988 4779 3979 4836 3918 C 4904 3846 5247 3739 5287 3779 C 5302 3794 5290 3807 5247 3824 L 5185 3847 L 5287 3942 C 5372 4020 5400 4035 5445 4026 C 5578 4000 5499 4077 5338 4131 C 5148 4194 5016 4201 4923 4152 C 4785 4080 4824 4159 4972 4252 C 5040 4295 5080 4340 5122 4425 C 5154 4488 5203 4554 5231 4572 C 5335 4641 5337 4724 5233 4670 C 5155 4629 4994 4605 4640 4580 C 4470 4568 4211 4545 4066 4528 C 3862 4505 3783 4503 3716 4520 C 3669 4533 3596 4552 3554 4562 C 3513 4573 3480 4593 3482 4606 C 3488 4638 3462 4698 3412 4770 C 3348 4862 3298 4982 3310 5019 C 3322 5057 3133 5280 3088 5280 C 3073 5280 3060 5288 3060 5298 C 3060 5308 3115 5313 3181 5310 C 3305 5303 3370 5355 3327 5425 C 3318 5439 3326 5442 3347 5434 C 3368 5426 3380 5431 3380 5451 C 3380 5467 3398 5480 3420 5480 C 3450 5480 3460 5493 3460 5535 C 3459 5579 3455 5584 3439 5560 C 3424 5538 3422 5553 3432 5610 C 3449 5717 3462 5727 3553 5702 C 3649 5675 3774 5674 3789 5699 C 3824 5754 3513 5841 3030 5912 C 2920 5928 2803 5949 2770 5958 C 2737 5968 2697 5980 2680 5984 C 2664 5989 2616 5990 2574 5985 Z M 2974 5787 C 2980 5793 3001 5778 3021 5754 C 3040 5730 3049 5706 3040 5700 C 3031 5694 3036 5672 3052 5651 C 3088 5601 3094 5697 3058 5763 C 3027 5821 3063 5849 3111 5805 C 3132 5786 3173 5772 3200 5775 L 3250 5781 L 3195 5735 C 3145 5693 3140 5676 3140 5554 C 3140 5434 3102 5352 3099 5465 C 3098 5498 3094 5502 3084 5480 C 3064 5435 3031 5443 2973 5505 C 2945 5535 2893 5576 2856 5596 C 2820 5617 2787 5650 2783 5671 C 2777 5703 2786 5700 2848 5653 C 2892 5619 2920 5608 2920 5624 C 2920 5638 2884 5667 2840 5688 C 2749 5732 2743 5750 2801 5801 C 2838 5833 2847 5833 2902 5806 C 2935 5789 2968 5781 2974 5787 Z M 3360 5707 C 3360 5691 3368 5683 3378 5688 C 3403 5704 3402 5598 3376 5545 C 3363 5520 3337 5500 3317 5500 C 3296 5500 3280 5496 3280 5492 C 3280 5487 3274 5467 3267 5447 C 3256 5414 3258 5415 3288 5450 C 3320 5489 3320 5488 3299 5438 C 3266 5362 3214 5370 3232 5448 C 3240 5482 3246 5521 3246 5534 C 3247 5547 3254 5554 3263 5548 C 3273 5542 3280 5573 3280 5617 C 3280 5661 3285 5710 3292 5727 C 3306 5764 3360 5748 3360 5707 Z M 2737 5660 C 2757 5627 2778 5605 2784 5611 C 2796 5623 2920 5500 2920 5476 C 2920 5448 2889 5459 2839 5505 C 2813 5530 2784 5548 2775 5545 C 2767 5542 2760 5550 2760 5561 C 2760 5573 2736 5614 2708 5651 C 2679 5689 2665 5720 2678 5720 C 2690 5720 2717 5693 2737 5660 Z M 2847 5410 C 2839 5389 2869 5363 2900 5366 C 2924 5368 3000 5317 3000 5299 C 3000 5288 2973 5293 2941 5309 C 2909 5326 2868 5340 2852 5340 C 2835 5340 2814 5354 2804 5372 C 2794 5389 2783 5401 2778 5397 C 2766 5387 2620 5502 2620 5522 C 2620 5532 2639 5540 2661 5540 C 2684 5540 2697 5549 2690 5560 C 2683 5572 2667 5575 2654 5567 C 2641 5560 2636 5561 2644 5569 C 2652 5578 2649 5604 2637 5628 C 2625 5651 2670 5617 2736 5552 C 2802 5488 2852 5423 2847 5410 Z M 2229 5578 C 2223 5569 2187 5562 2148 5564 C 2107 5565 2088 5573 2103 5582 C 2136 5602 2241 5599 2229 5578 Z M 2357 5563 C 2410 5510 2422 5465 2388 5452 C 2371 5446 2363 5448 2369 5458 C 2374 5467 2361 5495 2340 5520 C 2276 5594 2290 5630 2357 5563 Z M 2192 5517 C 2202 5501 2197 5499 2178 5511 C 2155 5525 2155 5522 2179 5492 C 2196 5470 2225 5460 2253 5466 C 2297 5474 2379 5393 2353 5367 C 2348 5361 2333 5375 2321 5398 C 2309 5421 2288 5440 2274 5440 C 2259 5440 2261 5432 2280 5420 C 2297 5409 2301 5400 2290 5400 C 2279 5400 2282 5392 2298 5382 C 2315 5371 2319 5355 2308 5337 C 2283 5298 2284 5275 2314 5231 C 2328 5209 2340 5176 2340 5157 C 2340 5138 2358 5117 2380 5110 C 2402 5103 2429 5080 2441 5058 C 2453 5037 2470 5024 2480 5030 C 2489 5036 2509 5025 2524 5005 C 2538 4986 2561 4968 2575 4965 C 2589 4962 2611 4958 2625 4955 C 2639 4952 2653 4974 2656 5003 C 2663 5060 2741 5057 2811 4999 C 2846 4970 2904 4982 2884 5014 C 2876 5027 2847 5041 2820 5046 C 2698 5067 2640 5086 2640 5105 C 2640 5116 2621 5142 2597 5163 C 2573 5183 2562 5200 2573 5200 C 2583 5200 2603 5189 2615 5177 C 2642 5150 2783 5140 2767 5165 C 2761 5174 2782 5174 2813 5166 C 2887 5145 3014 5146 3090 5166 C 3145 5181 3148 5180 3118 5150 C 3097 5129 3049 5116 2982 5115 C 2890 5113 2882 5109 2909 5083 C 2929 5063 2972 5054 3034 5056 C 3109 5059 3122 5056 3095 5039 C 3076 5027 3051 5023 3040 5030 C 3014 5046 3014 4994 3041 4967 C 3055 4953 3037 4947 2986 4946 C 2844 4945 2818 4940 2831 4919 C 2838 4908 2861 4904 2882 4911 C 2911 4920 2920 4913 2920 4881 C 2920 4831 2838 4825 2760 4870 C 2733 4886 2685 4899 2654 4899 C 2544 4901 2200 5212 2200 5311 C 2200 5389 2122 5388 2031 5308 C 1979 5262 1906 5208 1869 5188 L 1803 5153 L 1721 5226 C 1631 5308 1643 5328 1736 5250 C 1812 5186 1817 5187 1911 5267 C 2008 5349 2170 5452 2149 5419 C 2139 5402 2142 5399 2158 5409 C 2173 5418 2175 5432 2164 5447 C 2128 5494 2121 5540 2149 5540 C 2165 5540 2184 5530 2192 5517 Z M 2028 5462 C 2060 5426 2059 5424 1996 5412 C 1960 5405 1895 5372 1851 5339 C 1759 5270 1751 5269 1690 5316 L 1644 5353 L 1744 5400 C 1799 5426 1849 5459 1854 5474 C 1869 5514 1989 5506 2028 5462 Z M 2619 5400 C 2631 5400 2640 5391 2640 5380 C 2640 5369 2651 5360 2664 5360 C 2677 5360 2657 5392 2620 5430 C 2517 5536 2565 5514 2750 5369 C 2873 5273 2937 5237 2989 5233 C 3066 5227 3112 5200 3045 5200 C 3022 5200 2988 5194 2968 5187 C 2945 5177 2938 5181 2948 5197 C 2956 5209 2953 5220 2941 5220 C 2930 5220 2920 5211 2920 5200 C 2920 5172 2894 5175 2849 5209 C 2812 5237 2812 5238 2860 5228 L 2910 5217 L 2860 5248 C 2798 5286 2778 5288 2791 5253 C 2799 5234 2786 5229 2740 5236 C 2706 5241 2681 5237 2684 5227 C 2703 5170 2575 5212 2507 5286 C 2476 5320 2466 5336 2485 5322 C 2545 5276 2523 5324 2455 5386 C 2419 5419 2406 5440 2425 5434 C 2448 5425 2469 5435 2485 5461 C 2510 5501 2511 5501 2554 5451 C 2578 5423 2608 5400 2619 5400 Z M 2430 5320 C 2437 5298 2453 5269 2467 5255 C 2548 5170 2579 5112 2568 5063 C 2558 5015 2560 5013 2586 5045 C 2626 5094 2638 5089 2636 5021 C 2633 4926 2503 5010 2383 5185 C 2310 5292 2332 5311 2423 5220 C 2456 5187 2478 5160 2472 5160 C 2465 5160 2476 5142 2494 5121 C 2513 5099 2531 5085 2535 5089 C 2543 5096 2499 5183 2478 5200 C 2471 5206 2455 5231 2442 5256 C 2429 5281 2410 5296 2400 5290 C 2377 5276 2354 5314 2370 5340 C 2390 5372 2416 5363 2430 5320 Z M 2159 5244 C 2165 5218 2179 5200 2190 5204 C 2201 5207 2212 5192 2215 5170 C 2221 5125 2145 4988 2125 5008 C 2118 5015 2123 5031 2136 5044 C 2149 5057 2160 5081 2160 5097 C 2160 5116 2143 5107 2111 5073 C 2043 5000 2004 5003 2016 5081 C 2022 5122 2040 5149 2071 5160 C 2096 5170 2122 5187 2129 5199 C 2146 5226 2128 5226 2079 5199 C 2047 5182 2040 5185 2040 5215 C 2040 5302 2140 5326 2159 5244 Z M 1701 5188 C 1723 5162 1723 5154 1699 5140 C 1682 5129 1665 5131 1656 5146 C 1644 5164 1641 5164 1640 5144 C 1640 5125 1630 5124 1599 5141 C 1566 5158 1562 5169 1581 5191 C 1612 5229 1669 5228 1701 5188 Z M 1980 5181 C 1980 5171 1965 5148 1947 5130 C 1880 5063 1700 5018 1700 5068 C 1700 5103 1744 5120 1795 5107 C 1819 5101 1856 5116 1892 5148 C 1953 5202 1980 5212 1980 5181 Z M 1654 5077 C 1677 5058 1675 5047 1643 5012 C 1622 4989 1586 4930 1564 4880 C 1542 4831 1523 4806 1522 4825 C 1521 4848 1504 4860 1474 4860 C 1389 4860 1307 5009 1366 5056 C 1444 5117 1593 5128 1654 5077 Z M 2279 5046 C 2244 4955 2192 4880 2164 4880 C 2129 4880 2148 4946 2213 5046 C 2267 5130 2310 5130 2279 5046 Z M 1950 5058 C 1941 5034 1840 5010 1840 5031 C 1840 5042 1949 5098 1955 5091 C 1958 5088 1956 5073 1950 5058 Z M 2380 4979 C 2380 4951 2394 4940 2430 4940 C 2462 4940 2480 4929 2480 4909 C 2480 4892 2490 4884 2501 4891 C 2541 4915 2640 4858 2638 4813 C 2636 4781 2633 4779 2626 4804 C 2617 4840 2600 4844 2453 4841 C 2368 4840 2357 4844 2368 4875 C 2379 4908 2379 4908 2353 4875 C 2294 4800 2227 4842 2261 4933 C 2298 5035 2380 5066 2380 4979 Z M 3220 5010 C 3220 4969 3038 4857 3009 4881 C 2995 4892 2978 4890 2964 4876 C 2948 4860 2940 4859 2940 4874 C 2940 4908 3005 4925 3023 4896 C 3036 4875 3039 4875 3040 4896 C 3040 4911 3047 4918 3055 4913 C 3063 4908 3082 4917 3096 4932 C 3111 4948 3113 4960 3101 4960 C 3089 4960 3080 4970 3080 4982 C 3080 4994 3093 4999 3108 4993 C 3124 4987 3142 4995 3148 5011 C 3162 5049 3220 5048 3220 5010 Z M 1884 4960 C 2040 4909 2085 4864 2037 4807 C 2026 4793 2022 4773 2029 4762 C 2059 4712 1822 4741 1715 4801 C 1696 4811 1663 4820 1641 4820 C 1613 4820 1605 4829 1613 4851 C 1621 4871 1637 4877 1658 4868 C 1737 4835 1835 4804 1900 4792 C 1939 4785 1900 4805 1814 4837 C 1636 4903 1635 4904 1651 4946 C 1659 4965 1676 4973 1697 4965 C 1726 4954 1727 4956 1701 4989 C 1666 5032 1662 5032 1884 4960 Z M 3338 4827 C 3373 4754 3397 4690 3393 4686 C 3386 4679 3260 4931 3260 4952 C 3260 4981 3285 4942 3338 4827 Z M 2145 4760 C 2151 4777 2161 4804 2165 4820 C 2170 4837 2180 4809 2188 4758 C 2196 4700 2192 4645 2177 4608 L 2152 4550 L 2145 4605 C 2137 4659 2100 4684 2100 4635 C 2100 4621 2081 4598 2058 4583 C 1983 4536 2093 4512 2240 4543 C 2288 4553 2318 4550 2340 4530 C 2356 4515 2393 4497 2420 4490 C 2494 4471 2571 4403 2546 4378 C 2532 4364 2516 4367 2495 4388 C 2468 4415 2462 4415 2453 4390 C 2446 4373 2428 4366 2410 4373 C 2392 4380 2382 4397 2388 4411 C 2393 4425 2386 4447 2371 4459 C 2341 4484 2293 4383 2317 4346 C 2338 4313 2495 4296 2506 4325 C 2512 4339 2523 4321 2531 4285 C 2539 4249 2553 4220 2564 4220 C 2574 4220 2578 4228 2572 4237 C 2566 4247 2579 4275 2600 4300 C 2631 4336 2635 4352 2617 4373 C 2605 4389 2601 4407 2608 4415 C 2616 4423 2631 4416 2641 4399 C 2656 4375 2659 4376 2660 4406 C 2660 4426 2669 4437 2681 4429 C 2692 4422 2696 4399 2690 4378 C 2671 4321 2695 4296 2742 4321 C 2772 4337 2790 4336 2811 4319 C 2827 4306 2840 4302 2840 4310 C 2840 4318 2854 4314 2870 4300 C 2904 4272 2911 4200 2880 4200 C 2869 4200 2860 4213 2860 4229 C 2860 4245 2851 4263 2840 4270 C 2829 4277 2822 4263 2825 4236 C 2829 4198 2821 4190 2775 4191 C 2745 4191 2720 4182 2720 4171 C 2719 4128 2686 4099 2653 4112 C 2631 4120 2623 4138 2631 4162 C 2637 4182 2633 4215 2622 4235 C 2603 4266 2601 4266 2601 4225 C 2600 4200 2588 4180 2572 4180 C 2556 4180 2540 4169 2535 4155 C 2528 4135 2520 4135 2496 4155 C 2480 4169 2444 4180 2418 4179 C 2203 4176 2200 4177 2198 4256 C 2196 4297 2191 4314 2186 4294 C 2181 4273 2165 4262 2150 4267 C 2135 4273 2119 4267 2115 4255 C 2110 4240 2092 4249 2069 4276 C 2048 4300 2023 4320 2014 4320 C 1953 4320 1923 4410 1962 4473 C 2009 4550 1977 4585 1929 4511 C 1910 4483 1887 4460 1878 4460 C 1847 4460 1859 4525 1895 4552 C 1926 4576 1925 4577 1877 4569 C 1846 4564 1815 4572 1800 4590 C 1771 4625 1793 4627 1945 4602 C 2063 4583 2072 4593 2093 4760 C 2108 4886 2109 4887 2121 4810 C 2128 4763 2138 4742 2145 4760 Z M 3220 4767 C 3220 4741 3211 4720 3200 4720 C 3168 4720 3115 4817 3128 4853 C 3146 4900 3220 4831 3220 4767 Z M 2260 4710 C 2260 4651 2250 4596 2238 4589 C 2222 4579 2219 4606 2229 4682 C 2239 4766 2237 4783 2219 4760 C 2200 4735 2198 4736 2208 4767 C 2215 4787 2220 4812 2220 4823 C 2220 4834 2229 4837 2240 4830 C 2251 4823 2260 4769 2260 4710 Z M 2735 4784 C 2759 4803 2764 4803 2753 4785 C 2744 4771 2747 4760 2759 4760 C 2770 4760 2780 4774 2780 4792 C 2780 4809 2791 4820 2805 4815 C 2819 4810 2830 4790 2830 4770 C 2830 4750 2841 4730 2855 4725 C 2869 4720 2880 4731 2880 4748 C 2880 4784 2952 4828 2981 4809 C 2993 4802 3015 4807 3031 4821 C 3064 4848 3069 4825 3047 4745 C 3034 4693 3000 4684 3000 4732 C 3000 4759 2994 4760 2971 4741 C 2955 4727 2932 4722 2921 4729 C 2909 4737 2900 4734 2900 4725 C 2900 4700 3207 4636 3248 4652 C 3268 4660 3292 4652 3306 4635 C 3319 4619 3416 4577 3520 4542 C 3625 4507 3724 4473 3740 4466 C 3778 4451 3816 4441 3880 4432 C 3908 4428 3937 4424 3945 4422 C 3966 4419 3963 4336 3942 4302 C 3927 4278 3910 4278 3831 4305 C 3754 4330 3739 4331 3748 4308 C 3754 4292 3752 4280 3743 4280 C 3716 4280 3683 4324 3692 4349 C 3708 4389 3488 4455 2924 4581 C 2866 4594 2804 4619 2786 4637 C 2768 4655 2731 4672 2703 4674 C 2626 4680 2613 4708 2653 4783 C 2686 4846 2689 4847 2696 4804 C 2702 4764 2708 4761 2735 4784 Z M 2331 4668 C 2324 4631 2308 4595 2296 4587 C 2282 4579 2277 4584 2284 4602 C 2317 4691 2323 4724 2302 4711 C 2281 4698 2283 4717 2314 4795 C 2334 4848 2347 4753 2331 4668 Z M 2513 4773 C 2571 4770 2636 4740 2583 4740 C 2571 4740 2560 4722 2560 4700 C 2560 4667 2548 4661 2495 4665 C 2437 4669 2429 4664 2424 4615 C 2420 4585 2408 4560 2396 4560 C 2376 4560 2379 4587 2410 4670 C 2425 4710 2425 4710 2393 4670 C 2363 4632 2361 4634 2361 4717 C 2360 4799 2363 4804 2405 4790 C 2430 4782 2478 4774 2513 4773 Z M 2657 4598 C 2671 4575 2678 4551 2672 4545 C 2655 4529 2580 4601 2580 4632 C 2580 4669 2625 4648 2657 4598 Z M 5120 4564 C 5120 4511 4996 4363 4915 4321 L 4824 4272 L 4537 4337 C 4379 4373 4219 4411 4180 4420 C 4142 4430 4066 4444 4013 4451 C 3829 4474 3950 4496 4460 4530 C 4741 4549 4974 4568 4978 4572 C 4994 4587 5120 4580 5120 4564 Z M 2797 4498 C 2866 4474 2877 4451 2828 4432 C 2774 4411 2735 4418 2746 4448 C 2752 4463 2747 4485 2734 4498 C 2706 4526 2718 4526 2797 4498 Z M 3061 4439 C 3099 4405 3112 4387 3090 4398 C 3029 4429 2947 4499 2971 4500 C 2982 4500 3023 4473 3061 4439 Z M 3375 4400 C 3480 4376 3505 4354 3451 4333 C 3436 4327 3412 4335 3399 4351 C 3364 4393 3335 4387 3359 4342 C 3390 4285 3455 4276 3490 4326 C 3511 4357 3526 4362 3542 4347 C 3557 4331 3551 4316 3517 4292 C 3448 4244 3406 4253 3335 4330 C 3299 4369 3259 4400 3246 4400 C 3233 4400 3216 4410 3209 4422 C 3200 4436 3208 4441 3232 4434 C 3253 4428 3317 4413 3375 4400 Z M 1771 4348 C 1764 4319 1741 4272 1719 4243 C 1648 4146 1634 4060 1691 4065 C 1718 4067 1739 4078 1737 4089 C 1722 4214 1785 4264 1864 4191 L 1917 4141 L 1930 4200 C 1947 4276 1975 4293 2017 4251 C 2045 4223 2045 4220 2019 4230 C 1994 4239 1974 4198 1920 4032 C 1882 3917 1845 3827 1838 3831 C 1830 3836 1818 3829 1812 3815 C 1806 3801 1806 3822 1813 3860 C 1820 3899 1828 3966 1830 4010 C 1833 4054 1841 4108 1849 4130 C 1862 4167 1861 4168 1834 4135 C 1819 4116 1795 4100 1783 4100 C 1770 4100 1760 4087 1760 4070 C 1760 4051 1740 4040 1705 4040 C 1675 4040 1614 4034 1570 4028 C 1511 4020 1498 4022 1520 4038 C 1537 4049 1550 4067 1550 4078 C 1550 4088 1591 4144 1640 4202 C 1690 4259 1738 4327 1747 4353 C 1769 4417 1788 4413 1771 4348 Z M 4340 4281 C 4340 4269 4372 4244 4410 4226 C 4484 4191 4488 4184 4465 4147 C 4441 4110 4256 4160 4272 4200 C 4279 4216 4284 4260 4282 4297 C 4279 4358 4282 4361 4309 4334 C 4326 4317 4340 4293 4340 4281 Z M 3665 4295 C 3681 4249 3657 4202 3625 4215 C 3601 4224 3596 4217 3605 4184 C 3614 4147 3611 4144 3579 4160 C 3559 4171 3522 4181 3496 4181 C 3453 4182 3452 4184 3490 4199 C 3512 4208 3552 4239 3578 4268 C 3632 4326 3653 4332 3665 4295 Z M 4654 4191 C 4740 4152 4795 4121 4777 4121 C 4737 4120 4575 4188 4514 4230 C 4447 4277 4485 4266 4654 4191 Z M 4655 4126 C 4702 4110 4740 4091 4740 4086 C 4740 4070 4589 4097 4531 4123 C 4477 4148 4483 4191 4537 4169 C 4555 4162 4608 4142 4655 4126 Z M 2315 4106 C 2272 4095 2270 4068 2311 4052 C 2328 4046 2346 4054 2353 4071 C 2361 4091 2372 4095 2387 4082 C 2411 4063 2436 4060 2624 4060 L 2739 4061 L 2694 4014 C 2633 3948 2565 3933 2549 3982 C 2537 4021 2517 4030 2493 4007 C 2486 3999 2496 3976 2515 3954 C 2549 3916 2548 3915 2504 3929 C 2472 3939 2461 3935 2464 3917 C 2468 3897 2441 3889 2366 3888 C 2202 3884 2197 3879 2202 3735 C 2204 3666 2196 3590 2183 3565 C 2170 3541 2162 3470 2165 3406 C 2169 3322 2163 3291 2145 3295 C 2118 3300 2111 3275 2133 3253 C 2152 3235 2153 3122 2135 3133 C 2127 3138 2120 3164 2120 3191 C 2120 3230 2110 3240 2070 3240 L 2020 3240 L 2025 3430 C 2028 3535 2023 3620 2015 3620 C 2002 3620 1989 3371 1997 3275 C 1998 3256 1986 3240 1970 3240 C 1953 3240 1938 3256 1937 3275 C 1935 3294 1931 3324 1929 3340 C 1926 3357 1923 3420 1922 3480 C 1920 3559 1914 3582 1900 3560 C 1869 3513 1876 3714 1908 3820 C 1991 4093 2060 4136 2183 3992 L 2236 3930 L 2226 3986 C 2214 4048 2265 4122 2318 4118 C 2344 4116 2343 4114 2315 4106 Z M 5218 4097 C 5342 4068 5342 4071 5223 3953 C 5134 3865 5120 3858 5055 3870 C 4957 3889 4762 4035 4813 4051 C 4833 4058 4877 4075 4910 4090 C 4986 4124 5088 4127 5218 4097 Z M 1698 3831 C 1715 3706 1692 3657 1673 3775 C 1657 3870 1656 3970 1671 3955 C 1678 3949 1690 3893 1698 3831 Z M 1567 3835 C 1585 3686 1583 3636 1562 3690 C 1536 3756 1517 3940 1537 3940 C 1546 3940 1560 3893 1567 3835 Z M 1637 3827 C 1663 3698 1666 3647 1647 3666 C 1627 3687 1583 3940 1600 3940 C 1608 3940 1625 3889 1637 3827 Z M 2702 3880 C 2739 3810 2780 3712 2780 3695 C 2780 3685 2798 3653 2820 3625 C 2874 3557 2875 3400 2823 3352 C 2787 3320 2785 3322 2775 3414 C 2770 3467 2742 3555 2713 3610 C 2684 3665 2646 3744 2627 3785 C 2609 3826 2586 3860 2576 3860 C 2566 3860 2567 3845 2577 3825 C 2596 3790 2681 3544 2729 3388 C 2752 3312 2752 3306 2720 3314 C 2700 3319 2679 3314 2671 3302 C 2663 3288 2671 3285 2694 3292 C 2714 3299 2703 3286 2670 3263 C 2638 3240 2604 3228 2595 3237 C 2576 3256 2478 3825 2491 3838 C 2509 3856 2522 3822 2533 3722 C 2541 3659 2554 3622 2568 3626 C 2593 3635 2586 3741 2559 3769 C 2548 3779 2540 3809 2540 3835 C 2540 3909 2667 3945 2702 3880 Z M 1289 3759 C 1270 3738 1247 3726 1237 3732 C 1206 3751 1219 3780 1260 3780 C 1284 3780 1301 3794 1302 3815 C 1303 3838 1307 3841 1314 3824 C 1319 3809 1308 3780 1289 3759 Z M 2857 3793 C 2882 3767 2911 3713 2922 3673 C 2933 3633 2954 3600 2970 3600 C 2985 3600 3003 3583 3010 3561 C 3025 3513 2971 3380 2936 3380 C 2915 3381 2915 3384 2935 3397 C 2963 3414 2929 3620 2899 3620 C 2880 3620 2811 3737 2796 3795 C 2780 3853 2802 3852 2857 3793 Z M 2427 3650 C 2420 3631 2428 3620 2448 3620 C 2487 3620 2488 3594 2451 3490 C 2424 3411 2424 3410 2477 3398 C 2525 3387 2523 3384 2446 3371 C 2345 3352 2278 3239 2332 3178 C 2368 3138 2367 3120 2330 3120 C 2314 3120 2300 3110 2300 3098 C 2300 3086 2286 3081 2269 3088 C 2245 3097 2212 3045 2124 2860 C 1995 2589 1984 2579 1976 2725 C 1968 2872 2078 3110 2146 3093 C 2196 3080 2292 3164 2270 3200 C 2263 3211 2272 3266 2290 3321 C 2310 3379 2321 3463 2317 3520 C 2311 3606 2315 3619 2350 3624 C 2377 3628 2391 3647 2393 3680 C 2398 3765 2402 3771 2421 3725 C 2431 3700 2434 3666 2427 3650 Z M 1365 3691 C 1378 3621 1352 3585 1312 3619 C 1274 3650 1271 3683 1304 3716 C 1340 3752 1354 3746 1365 3691 Z M 3119 3341 C 3145 3293 3146 3274 3120 3290 C 3109 3297 3084 3292 3065 3280 C 3035 3261 3036 3260 3075 3270 C 3106 3279 3124 3273 3133 3250 C 3140 3232 3155 3222 3168 3226 C 3180 3231 3207 3212 3228 3184 L 3267 3134 L 3202 3147 C 3110 3165 3144 3126 3246 3097 C 3384 3058 3421 3000 3308 3000 C 3100 3000 2813 3342 3003 3365 C 3040 3370 3076 3375 3084 3377 C 3092 3379 3108 3363 3119 3341 Z M 2880 3281 C 2880 3255 2826 3229 2741 3213 C 2664 3198 2668 3207 2763 3260 C 2838 3302 2880 3309 2880 3281 Z M 2918 3187 C 2879 3140 3142 2940 3243 2940 C 3256 2940 3251 2923 3230 2900 C 3186 2852 3119 2849 3029 2892 C 2907 2950 2906 2982 3028 2939 C 3089 2918 3155 2901 3175 2901 C 3213 2902 3051 2982 2890 3041 C 2795 3075 2793 3077 2855 3079 C 2968 3081 2925 3120 2810 3120 C 2682 3120 2669 3143 2775 3186 C 2865 3223 2948 3224 2918 3187 Z M 1531 2785 C 1559 2694 1587 2605 1594 2587 C 1610 2544 1533 2568 1448 2633 C 1372 2691 1361 2692 1375 2637 C 1383 2607 1379 2598 1363 2608 C 1335 2626 1332 2720 1360 2720 C 1371 2720 1380 2728 1380 2739 C 1380 2749 1390 2783 1403 2814 C 1425 2868 1429 2886 1437 2970 C 1443 3033 1472 2975 1531 2785 Z M 3521 2917 C 3548 2868 3552 2872 3430 2831 C 3376 2812 3324 2787 3316 2774 C 3304 2756 3301 2756 3300 2775 C 3300 2789 3282 2800 3260 2800 C 3208 2800 3209 2823 3265 2874 C 3364 2964 3485 2985 3521 2917 Z M 3236 2664 C 3302 2609 3310 2540 3250 2540 C 3221 2540 3100 2670 3100 2701 C 3100 2738 3170 2719 3236 2664 Z M 3151 2595 C 3243 2496 3246 2490 3202 2483 C 3169 2479 3139 2496 3099 2543 C 3067 2580 3041 2605 3041 2598 C 3039 2565 3086 2460 3103 2460 C 3153 2460 3189 2396 3154 2371 C 3136 2357 3125 2342 3130 2337 C 3135 2331 3122 2292 3100 2249 C 3078 2207 3060 2180 3060 2190 C 3060 2200 3047 2190 3032 2169 C 3016 2147 3008 2107 3013 2078 C 3021 2042 3014 2022 2992 2014 C 2974 2007 2960 1985 2959 1966 C 2958 1942 2949 1950 2929 1990 C 2901 2049 2902 2024 2932 1917 C 2939 1894 2936 1880 2926 1886 C 2917 1892 2909 1880 2909 1860 C 2909 1839 2929 1811 2954 1798 C 3051 1746 2959 1666 2832 1690 C 2773 1701 2772 1700 2809 1671 C 2830 1654 2871 1640 2899 1639 L 2950 1639 L 2905 1601 C 2874 1575 2868 1560 2885 1553 C 2899 1548 2870 1543 2820 1542 C 2735 1541 2733 1543 2777 1568 C 2817 1590 2819 1596 2792 1606 C 2754 1621 2749 1707 2785 1735 C 2799 1746 2827 1748 2850 1739 C 2905 1717 2920 1717 2920 1740 C 2920 1750 2898 1765 2870 1772 C 2819 1784 2803 1827 2840 1850 C 2853 1858 2853 1875 2840 1900 C 2828 1923 2827 1942 2839 1949 C 2864 1965 2920 2079 2920 2114 C 2920 2130 2912 2138 2903 2132 C 2894 2126 2888 2159 2890 2206 C 2896 2344 2899 2363 2917 2352 C 2926 2346 2932 2373 2931 2412 C 2928 2507 2949 2537 2983 2483 C 3017 2428 3067 2425 3050 2480 C 3029 2546 3020 2700 3037 2700 C 3046 2700 3097 2653 3151 2595 Z M 1500 2540 C 1606 2434 1536 2337 1414 2420 C 1364 2453 1315 2480 1304 2480 C 1293 2480 1279 2493 1273 2509 C 1246 2581 1434 2606 1500 2540 Z M 1425 2251 C 1487 2231 1533 2153 1477 2162 C 1462 2164 1425 2156 1395 2144 C 1358 2128 1324 2127 1289 2140 C 1225 2165 1220 2165 1220 2141 C 1220 2114 1328 2060 1379 2060 C 1430 2060 1430 2050 1379 1978 C 1356 1946 1343 1912 1349 1902 C 1370 1868 1318 1782 1284 1795 C 1264 1803 1258 1799 1268 1784 C 1277 1769 1272 1764 1254 1771 C 1219 1785 1196 1712 1225 1683 C 1239 1669 1232 1666 1201 1674 C 1162 1684 1157 1680 1169 1643 C 1188 1585 1169 1535 1117 1503 C 1080 1480 1076 1480 1086 1507 C 1093 1526 1089 1534 1074 1529 C 1058 1523 1050 1543 1050 1590 C 1050 1628 1058 1660 1067 1660 C 1077 1660 1075 1672 1062 1687 C 1030 1727 1047 1811 1086 1804 C 1109 1800 1122 1820 1132 1871 C 1141 1919 1151 1935 1161 1918 C 1194 1864 1203 1994 1171 2070 C 1133 2162 1132 2187 1168 2174 C 1189 2165 1192 2177 1180 2232 C 1171 2270 1172 2300 1182 2300 C 1192 2300 1200 2292 1200 2281 C 1200 2252 1260 2200 1295 2200 C 1323 2200 1323 2203 1296 2235 C 1262 2273 1200 2389 1200 2413 C 1200 2421 1236 2393 1280 2350 C 1324 2307 1389 2263 1425 2251 Z M 1425 2300 C 1437 2300 1442 2295 1436 2289 C 1415 2269 1322 2319 1298 2363 C 1276 2405 1279 2404 1339 2354 C 1374 2324 1413 2300 1425 2300 Z M 2992 1482 C 2974 1463 2919 1427 2869 1402 C 2761 1348 2764 1329 2875 1359 C 2924 1372 2963 1398 2980 1430 C 2995 1457 3015 1480 3025 1480 C 3034 1480 3028 1460 3011 1436 C 2971 1379 2971 1352 3011 1368 C 3055 1384 3027 1345 2976 1318 C 2940 1298 2936 1300 2947 1331 C 2958 1358 2955 1361 2934 1344 C 2920 1332 2870 1316 2824 1308 C 2707 1290 2700 1365 2815 1413 L 2889 1444 L 2830 1471 L 2770 1497 L 2840 1500 C 2879 1501 2928 1510 2950 1519 C 3007 1542 3028 1522 2992 1482 Z M 1098 1427 C 1155 1375 1120 1290 1035 1275 C 993 1268 993 1266 1050 1241 L 1110 1215 L 1011 1188 C 907 1161 864 1168 927 1203 C 952 1218 960 1238 952 1270 C 941 1312 949 1318 1024 1331 L 1108 1345 L 1054 1373 C 1024 1389 1000 1409 1000 1419 C 1000 1429 994 1451 988 1469 C 971 1511 1032 1489 1098 1427 Z M 2860 1239 C 2860 1216 2746 1213 2732 1237 C 2726 1246 2753 1255 2791 1256 C 2829 1258 2860 1250 2860 1239 Z M 3218 1176 C 3389 1158 3460 1142 3489 1116 C 3512 1095 3517 1080 3503 1080 C 3489 1080 3483 1071 3490 1060 C 3497 1048 3513 1045 3526 1051 C 3539 1058 3528 1044 3502 1021 C 3456 980 3404 998 3433 1044 C 3438 1053 3438 1060 3433 1060 C 3428 1060 3408 1066 3390 1073 C 3363 1083 3358 1075 3363 1028 C 3371 965 3315 933 3294 988 C 3286 1007 3291 1014 3308 1008 C 3322 1003 3333 1011 3333 1027 C 3333 1047 3314 1055 3272 1053 C 3220 1051 3211 1043 3216 1005 C 3223 954 3105 960 3074 1013 C 3055 1044 2747 1031 2706 996 C 2687 981 2680 983 2679 1003 C 2679 1021 2669 1017 2649 991 C 2622 955 2620 958 2620 1035 C 2620 1080 2615 1129 2609 1144 C 2601 1167 2624 1170 2727 1164 C 2799 1159 2872 1165 2893 1177 C 2940 1205 2941 1205 3218 1176 Z M 1069 944 C 1077 905 1069 900 1004 900 C 946 901 937 905 960 922 C 984 939 985 945 964 954 C 944 962 946 973 974 1000 C 1016 1041 1055 1018 1069 944 Z M 1140 862 C 1140 834 1098 826 992 836 C 927 842 904 850 922 862 C 959 885 1140 885 1140 862 Z"/>
    <path d="M2811 5782 c-15 -25 59 -75 139 -93 l60 -13 -50 36 c-27 21 -51 33 -53 28 -1 -6 -21 6 -43 26 -25 23 -45 29 -53 16z"/>
    <path d="M2691 5005 c-25 -26 -8 -65 29 -65 22 0 40 9 40 20 0 11 10 20 22 20 16 0 17 -8 2 -25 -15 -18 -12 -37 8 -64 26 -36 28 -34 23 29 -6 64 -88 121 -124 85z"/>
    <path d="M2472 5423 c-10 -17 102 -130 133 -135 8 -2 22 -4 30 -6 8 -1 2 -11 -15 -22 -26 -17 -25 -19 4 -20 46 0 63 33 25 48 -19 7 -25 22 -16 37 10 17 3 16 -20 -3 -29 -24 -32 -24 -23 1 12 32 -101 127 -118 100z"/>
    <path d="M2071 4461 c-39 -75 -42 -70 34 -75 201 -11 212 -9 182 38 -16 26 -20 36 -24 76 -6 45 -45 16 -56 -42 l-13 -62 -39 62 c-48 76 -47 76 -84 3z"/>
    <path d="M2051 3963 c-7 -21 -26 -45 -43 -51 -17 -6 -25 -21 -18 -32 7 -11 -7 -75 -31 -142 -23 -66 -38 -126 -31 -132 11 -12 91 160 93 201 0 12 13 59 29 102 15 44 25 83 21 87 -4 4 -13 -11 -20 -33z"/>
    <path d="M2273 3985 c-5 -8 14 -32 43 -54 46 -35 50 -35 38 -3 -8 19 -14 44 -14 54 0 22 -54 24 -67 3z"/>
    <path d="M2580 3526 c0 -23 14 -67 32 -99 l31 -57 -13 80 c-15 89 -50 143 -50 76z"/>
    <path d="M3080 2390 c-24 -64 -25 -70 -3 -70 27 0 64 97 42 110 -10 7 -28 -11 -39 -40z"/>
    <path d="M2909 2278 c-19 -30 22 -66 60 -51 17 6 31 26 31 42 0 35 -71 42 -91 9z"/>
  </g>
</svg>