<?xml version="1.0" encoding="utf-8"?>
<svg width="600px" height="600" xmlns="http://www.w3.org/2000/svg">
  <g transform="matrix(2.000004, 0, 0, 1.431543, -225.407364, 0.003305)">
    <path d="M 227.762 0.7 C 235.468 0 243.875 0.7 251.58 0 C 257.885 0 260.687 2.802 264.891 2.802 C 271.896 7.705 269.094 15.411 273.297 20.315 C 270.495 14.711 270.495 8.406 273.997 3.502 C 281.703 7.705 292.211 3.502 299.917 6.304 C 330.741 4.203 363.666 4.203 393.789 2.101 C 397.992 3.502 400.794 4.903 402.195 7.705 C 407.799 15.411 407.099 23.818 406.398 32.224 C 402.896 30.823 401.495 35.026 400.094 36.427 C 402.195 34.326 404.297 31.524 407.099 35.727 C 408.5 42.732 409.901 48.336 409.901 53.941 C 408.5 60.245 400.094 59.545 397.291 59.545 C 400.094 60.245 407.799 57.443 410.602 64.449 C 408.5 91.769 410.602 118.39 412.703 143.609 C 408.5 149.914 411.302 156.919 407.799 161.122 C 404.297 163.224 402.195 163.924 400.794 165.326 C 397.291 164.625 395.19 163.924 393.789 162.523 C 395.19 163.924 396.591 164.625 398.692 165.326 C 402.896 164.625 405.698 161.823 409.2 161.122 C 412.703 173.732 412.003 186.342 412.003 196.85 C 408.5 214.363 409.901 231.176 404.997 245.887 C 404.297 250.791 402.195 252.192 399.393 253.593 C 395.89 252.892 393.789 251.491 392.388 249.39 C 397.992 254.293 402.896 257.796 406.398 263.4 C 401.495 288.619 406.398 315.94 404.297 339.058 C 406.398 345.363 413.404 346.063 410.602 353.069 C 409.901 358.673 409.2 367.079 403.596 369.881 C 404.297 368.48 407.099 368.48 407.099 370.582 C 409.2 380.389 411.302 390.897 412.703 398.603 C 410.602 405.609 409.2 411.913 404.997 415.416 C 378.377 416.117 353.158 417.518 326.537 418.218 C 323.735 416.117 322.334 415.416 320.233 414.015 C 318.131 416.117 316.73 418.218 313.928 418.218 C 299.917 420.32 287.308 418.218 273.997 417.518 C 266.992 417.518 264.19 413.314 261.388 409.812 C 259.987 407.01 261.388 405.609 262.088 404.208 C 259.987 400.705 259.987 397.903 257.185 396.502 C 258.586 397.903 260.687 400.004 261.388 402.106 C 258.586 409.111 261.388 413.314 258.586 417.518 C 252.281 415.416 243.875 416.117 239.671 412.614 C 240.372 414.716 237.57 415.416 236.169 414.716 C 212.35 412.614 186.431 418.919 163.313 413.314 C 160.511 412.614 159.11 411.213 158.409 409.812 C 158.409 411.213 160.511 413.314 157.008 414.015 C 152.105 415.416 147.901 416.117 143.698 416.817 C 132.49 414.015 125.484 405.609 117.778 399.304 C 111.474 390.197 117.078 380.389 114.976 371.983 C 119.88 365.678 124.083 370.582 127.586 372.684 C 122.682 369.181 118.479 367.78 114.976 364.978 C 116.377 337.657 109.372 310.336 115.677 283.716 C 121.281 280.914 117.078 271.807 123.383 271.106 C 129.688 270.406 133.891 274.609 138.794 275.309 C 142.998 272.507 145.8 271.106 146.5 268.304 C 144.399 269.005 141.597 273.208 138.094 273.908 C 132.49 271.106 128.286 269.005 123.383 268.304 C 114.976 266.202 114.976 259.197 113.575 253.593 C 112.174 225.571 116.377 194.047 114.976 164.625 C 119.18 157.62 121.982 169.529 128.286 165.326 C 123.383 166.727 120.581 163.224 118.479 159.721 C 114.976 155.518 112.875 151.315 112.875 147.112 C 111.474 124.695 119.18 103.679 117.078 80.561 C 122.682 72.855 126.185 86.165 131.789 79.16 C 126.885 84.064 124.083 74.957 119.88 77.058 C 117.778 74.957 116.377 72.155 116.377 70.053 C 116.377 49.737 115.677 28.021 116.377 9.807 C 117.778 9.107 121.281 9.107 121.982 10.508 C 122.682 -7.706 153.506 15.411 162.613 8.406 C 166.816 11.208 164.714 14.01 166.115 15.411 C 168.217 12.609 166.115 9.107 168.217 7.005 C 171.019 4.203 173.121 2.802 176.623 3.502 C 193.436 1.401 210.949 2.101 226.361 0.7" fill="rgb(228,184,121)"/>
    <path d="M 154.907 15.411 C 144.399 21.716 121.982 11.909 136.693 38.529 C 133.891 42.032 133.19 39.93 131.789 43.433 C 131.089 47.636 135.292 45.534 137.393 47.636 C 135.292 53.24 131.789 49.037 131.089 53.24 C 133.19 56.042 135.292 53.24 135.992 55.342 C 133.19 57.443 131.089 56.743 128.286 58.144 C 125.484 60.245 128.987 64.449 124.083 65.85 C 129.688 72.855 131.789 69.352 133.19 67.951 C 135.292 71.454 137.393 72.855 135.292 76.358 C 147.901 73.556 133.891 81.962 147.201 79.86 C 140.896 81.962 131.789 82.663 131.089 90.368 C 128.987 105.08 127.586 124.695 130.388 140.807 C 128.286 147.112 125.484 151.315 125.484 154.818 C 129.688 162.523 131.089 163.224 138.794 169.529 C 135.292 173.031 132.49 169.529 130.388 173.031 C 132.49 180.037 131.089 184.24 135.292 189.144 C 128.987 194.748 126.885 196.85 124.784 198.951 C 126.885 203.154 127.586 198.251 132.49 198.951 C 133.19 209.459 126.185 203.855 124.784 207.358 C 128.286 218.566 138.094 236.78 140.196 252.892 C 138.794 258.497 140.896 264.801 134.591 267.603 C 143.698 264.101 147.201 268.304 154.907 257.796 C 151.404 263.4 150.003 271.106 145.099 273.208 C 143.698 277.411 141.597 280.914 144.399 283.716 C 141.597 283.015 137.393 279.513 135.992 278.812 C 132.49 280.914 135.292 284.416 133.891 286.518 C 134.591 294.924 133.891 297.726 135.992 302.63 C 136.693 304.031 135.992 308.935 133.19 308.234 C 136.693 322.946 132.49 334.154 133.891 344.662 C 137.393 340.459 135.292 351.668 138.094 353.069 C 137.393 357.272 134.591 365.678 133.19 367.78 C 133.19 369.881 136.693 371.983 133.19 374.085 C 135.992 373.384 137.393 373.384 139.495 373.384 C 138.794 378.288 138.094 384.593 134.591 384.593 C 142.297 393.7 150.704 386.694 152.805 395.101 C 155.607 392.999 161.212 392.999 159.81 387.395 C 161.212 391.598 163.313 395.101 161.912 399.304 C 166.816 400.004 169.618 401.405 173.121 403.507 C 180.826 407.01 180.126 398.603 192.736 399.304 C 190.634 397.202 189.933 395.801 187.832 395.101 C 191.334 393.7 187.131 390.197 191.334 389.496 C 201.842 395.101 221.457 402.106 222.859 408.411 C 229.163 409.111 232.666 409.812 236.869 410.512 C 234.768 407.71 240.372 402.806 238.971 398.603 C 243.174 401.405 245.276 404.908 243.875 409.812 C 250.179 408.411 255.784 407.71 257.185 409.812 C 261.388 407.01 250.88 407.71 249.479 408.411 C 253.682 395.801 250.88 410.512 256.484 403.507 C 250.88 397.903 253.682 392.298 248.778 388.095 C 250.88 385.994 248.778 383.892 250.179 382.491 C 259.286 388.095 263.489 400.004 269.794 402.806 C 273.297 406.309 272.596 401.405 278.201 403.507 C 277.5 407.01 278.201 409.111 282.404 409.111 C 285.206 409.812 288.709 407.01 290.11 407.01 C 290.81 403.507 286.607 406.309 285.206 402.806 C 285.206 400.004 285.206 399.304 283.805 397.903 C 299.217 400.004 304.12 402.806 313.227 399.304 C 315.329 399.304 315.329 396.502 319.532 396.502 C 334.944 396.502 346.853 395.101 351.056 393.7 C 355.259 393.7 352.457 392.298 351.757 389.496 C 355.96 388.796 358.062 390.897 358.762 392.298 C 359.463 390.897 356.66 390.197 358.062 388.095 C 360.864 387.395 365.067 390.197 364.366 386.694 C 365.767 389.496 370.671 385.293 367.869 390.897 C 376.976 385.293 376.976 383.892 386.083 379.689 C 386.083 376.887 387.484 374.085 387.484 369.881 C 390.286 368.48 388.184 370.582 390.987 370.582 C 386.083 365.678 393.789 365.678 392.388 359.373 C 393.789 357.972 394.489 357.972 395.89 358.673 C 393.789 357.272 390.286 357.972 390.987 353.069 C 390.286 350.266 390.286 348.865 389.586 346.764 C 391.687 341.86 395.19 346.063 394.489 346.063 C 395.19 345.363 393.088 343.962 391.687 343.962 C 390.286 335.555 395.19 326.448 390.286 320.143 C 397.992 319.443 390.286 319.443 394.489 313.839 C 394.489 290.021 387.484 280.213 388.184 266.903 C 390.286 261.299 390.286 255.694 393.088 259.898 C 388.184 252.192 388.885 254.994 380.479 252.892 C 386.083 250.791 386.783 240.983 394.489 243.085 C 394.489 232.577 394.489 226.272 388.885 216.465 C 389.586 211.561 391.687 209.459 393.789 206.657 C 386.783 208.759 393.088 205.256 389.586 202.454 C 393.789 198.951 394.489 196.85 395.89 193.347 C 393.088 193.347 393.088 189.144 391.687 189.144 C 395.19 193.347 394.489 185.641 397.291 185.641 C 394.489 183.539 398.692 181.438 394.489 180.037 C 401.495 179.336 402.195 181.438 404.997 179.336 C 402.195 174.432 398.692 175.834 402.195 171.63 C 395.89 168.828 396.591 178.636 393.088 173.732 C 393.088 170.93 395.89 170.93 395.89 170.229 C 391.687 166.026 390.286 163.924 386.783 159.721 C 383.981 159.021 383.281 161.122 381.179 161.122 C 386.083 157.62 383.281 156.219 386.783 154.117 C 389.586 154.117 389.586 158.32 390.987 156.919 C 390.286 152.716 388.184 154.117 386.783 150.614 C 393.088 152.015 393.088 152.015 398.692 154.117 C 399.393 147.812 393.789 149.914 391.687 147.812 C 393.088 147.812 394.489 145.01 395.89 145.01 C 388.184 144.31 400.094 141.507 395.89 142.208 C 398.692 140.807 400.094 142.208 399.393 143.609 C 394.489 137.304 400.094 134.502 399.393 130.999 C 395.19 128.197 397.291 122.593 394.489 121.192 C 395.89 119.09 396.591 120.491 397.291 120.491 C 393.789 113.486 397.291 110.684 397.291 108.582 C 395.89 104.379 392.388 104.379 389.586 100.176 C 392.388 90.368 384.682 93.171 390.987 81.962 C 388.184 79.16 386.783 77.058 383.981 74.957 C 385.382 71.454 386.783 69.352 387.484 67.251 C 389.586 70.053 379.078 65.85 382.58 72.855 C 380.479 72.155 376.976 70.053 376.976 70.053 C 381.88 70.053 376.976 58.844 382.58 58.844 C 379.778 58.144 384.682 52.54 380.479 51.139 C 375.575 46.235 381.179 51.839 373.473 49.737 C 374.174 46.235 372.773 44.133 369.971 44.133 C 366.468 39.229 362.265 42.732 358.062 40.631 C 356.66 32.224 341.949 35.026 338.447 28.721 C 337.046 34.326 331.441 26.62 330.741 30.823 C 322.334 25.919 322.334 22.417 313.928 19.615 C 305.521 18.914 303.42 18.914 293.612 17.513 C 291.511 18.213 285.206 18.213 282.404 22.417 C 283.805 29.422 278.201 27.32 278.901 30.823 C 279.602 30.823 280.302 30.123 281.003 28.721 C 284.505 28.721 283.805 31.524 284.505 32.224 C 280.302 30.823 281.703 37.828 277.5 32.925 C 276.8 40.631 275.399 40.631 277.5 46.235 C 273.297 43.433 272.596 41.331 268.393 44.133 C 270.495 39.229 273.297 33.625 269.794 30.123 C 266.992 32.224 263.489 30.823 261.388 30.123 C 262.789 26.62 264.891 29.422 266.992 28.021 C 267.693 26.62 266.292 26.62 265.591 25.219 C 250.88 15.411 221.457 21.716 216.554 16.112 C 202.543 20.315 194.137 18.914 185.73 21.716 C 186.431 23.818 191.334 23.117 191.334 28.021 C 187.832 31.524 180.126 32.224 181.527 39.229 C 178.725 32.925 182.228 33.625 172.42 30.823 C 175.222 28.721 175.923 31.524 178.725 30.123 C 176.623 30.123 175.222 27.32 173.821 29.422 C 181.527 37.128 171.019 37.128 180.826 41.331 C 178.024 46.235 175.923 47.636 175.923 52.54 C 172.42 42.732 168.217 37.128 159.81 33.625 C 163.313 28.721 163.313 35.026 164.014 32.224 C 160.511 25.919 164.014 23.818 160.511 16.812 C 158.409 14.01 155.607 14.711 154.206 15.411" fill="rgb(237,196,131)"/>
    <path d="M 235.468 23.117 M 235.468 21.716 M 236.869 22.417 L 237.57 22.417 C 248.778 27.32 258.586 27.32 265.591 32.224 C 266.992 35.026 263.489 33.625 262.789 32.925 C 260.687 36.427 264.891 34.326 266.292 35.727 C 262.088 39.229 270.495 43.433 264.891 43.433 C 274.698 47.636 266.992 51.839 278.901 49.737 C 275.399 42.032 283.104 44.133 281.703 39.229 C 285.907 37.128 288.709 42.032 291.511 43.433 C 290.81 43.433 285.907 38.529 286.607 35.026 C 290.11 37.828 294.313 34.326 297.115 32.925 C 299.917 33.625 298.516 30.823 299.217 30.123 C 301.318 30.823 306.222 28.021 307.623 32.925 C 306.923 30.123 306.923 28.021 309.725 27.32 C 313.928 27.32 316.029 30.823 320.233 30.123 C 320.933 35.026 322.334 38.529 323.735 39.93 C 331.441 40.631 336.345 42.732 341.949 44.834 C 341.949 44.834 344.051 46.935 341.949 46.935 C 344.051 47.636 342.65 42.032 348.254 44.834 C 345.452 48.336 346.853 46.235 343.35 52.54 C 346.853 53.941 343.35 48.336 347.554 50.438 C 349.655 56.042 365.067 63.748 368.57 72.855 C 372.773 79.86 375.575 81.261 369.971 86.866 C 373.473 84.064 374.174 90.368 375.575 87.566 C 379.778 90.368 379.778 102.978 377.676 98.775 C 377.676 102.278 380.479 100.876 381.88 100.876 C 379.078 101.577 379.078 109.983 381.88 109.983 C 381.179 110.684 379.778 111.384 378.377 110.684 C 379.078 112.786 381.88 112.085 381.88 114.887 C 381.88 112.085 384.682 112.786 383.281 110.684 L 383.981 109.983 L 384.682 109.283 L 386.083 109.283 C 386.083 111.384 387.484 114.887 384.682 117.689 C 388.184 115.588 390.286 120.491 390.987 121.892 C 388.184 124.695 390.286 130.999 384.682 126.796 C 390.987 132.4 381.88 130.999 386.083 135.903 C 383.281 133.802 381.179 133.802 378.377 134.502 C 381.88 134.502 382.58 135.903 384.682 137.304 C 383.981 140.106 381.179 138.705 379.778 139.406 C 379.078 139.406 382.58 143.609 386.083 145.01 C 387.484 150.614 383.981 153.416 379.778 152.015 C 380.479 156.919 379.078 159.721 379.078 163.224 C 379.078 163.224 380.479 161.122 382.58 163.224 C 380.479 175.834 386.083 172.331 386.783 182.138 C 385.382 185.641 383.981 187.743 380.479 188.443 C 380.479 193.347 380.479 191.245 383.981 191.245 C 378.377 198.251 387.484 208.058 379.778 213.662 C 382.58 215.764 383.281 225.571 386.083 229.775 C 383.281 236.78 379.778 236.78 374.874 242.384 C 381.179 240.983 379.078 238.181 387.484 240.283 C 379.778 240.983 385.382 248.689 379.078 248.689 C 383.281 258.497 378.377 276.71 381.179 287.218 C 382.58 291.422 379.078 292.823 379.078 289.32 C 381.179 292.122 383.981 294.224 386.083 296.325 C 383.281 305.432 385.382 314.539 386.083 317.341 C 383.281 318.042 384.682 317.341 381.88 320.143 C 385.382 323.646 381.179 327.849 387.484 327.149 C 386.083 337.657 383.981 336.956 380.479 348.865 C 379.078 351.668 380.479 358.673 381.88 362.876 C 380.479 364.978 379.078 363.577 379.078 362.876 C 376.275 366.379 376.976 371.983 375.575 376.887 C 369.27 376.186 372.072 371.282 370.671 370.582 C 362.965 372.684 358.062 376.186 353.858 376.887 C 357.361 382.491 339.147 387.395 341.949 389.496 C 334.944 388.095 337.746 385.994 328.639 388.796 C 330.741 386.694 328.639 383.892 331.441 383.892 C 327.238 385.293 325.136 388.095 324.436 389.496 C 314.628 388.796 310.425 392.298 299.917 386.694 C 291.511 389.496 293.612 388.796 289.409 392.999 C 285.206 390.897 285.907 388.796 283.104 386.694 C 280.302 390.197 274.698 388.796 279.602 392.298 C 271.195 392.999 270.495 387.395 265.591 389.496 C 261.388 385.994 267.693 389.496 266.992 386.694 C 264.891 387.395 261.388 387.395 259.987 390.197 C 259.987 388.796 257.885 386.694 257.185 386.694 L 257.185 385.994 L 257.185 384.593 L 258.586 385.293 L 259.286 386.694 C 259.987 386.694 260.687 385.293 262.088 385.994 C 262.789 383.892 263.489 383.192 261.388 381.79 C 263.489 382.491 261.388 383.892 259.286 385.994 C 261.388 383.192 250.179 384.593 248.778 378.288 C 245.976 381.79 248.778 387.395 243.875 389.496 C 241.072 395.801 229.864 394.4 231.265 399.304 C 225.661 399.304 218.655 397.903 212.35 396.502 C 204.645 393.7 198.34 385.994 195.538 382.491 C 189.933 388.796 184.329 381.09 181.527 385.994 C 181.527 382.491 176.623 383.892 175.923 382.491 C 171.019 381.79 173.821 384.593 174.522 385.994 C 169.618 387.395 171.72 381.79 167.516 383.892 C 167.516 387.395 165.415 384.593 164.714 388.095 C 161.912 385.293 160.511 383.892 159.81 381.79 C 150.704 380.389 151.404 376.887 147.201 375.486 C 145.099 371.282 146.5 369.181 149.302 369.181 C 142.998 362.176 142.998 354.47 140.896 350.266 C 142.297 347.464 140.196 346.063 141.597 343.962 C 145.8 345.363 146.5 341.16 149.302 340.459 C 150.003 337.657 144.399 336.956 144.399 338.357 C 143.698 332.053 147.901 336.956 145.099 331.352 C 136.693 330.652 147.901 325.748 138.794 325.047 C 147.901 319.443 135.292 313.839 143.698 310.336 C 143.698 308.935 140.896 311.037 140.196 309.635 C 141.597 306.833 142.998 307.534 143.698 307.534 C 138.094 304.732 144.399 297.026 140.196 294.224 C 143.698 299.127 141.597 292.122 145.099 289.32 C 141.597 276.01 148.602 283.015 148.602 271.106 C 155.607 271.106 151.404 259.197 160.511 257.796 C 157.008 256.395 151.404 257.796 150.704 253.593 C 151.404 256.395 149.302 259.197 145.8 259.898 C 146.5 257.095 143.698 256.395 142.297 254.293 C 144.399 255.694 145.099 246.587 148.602 251.491 C 145.8 246.587 143.698 248.689 140.896 246.587 C 149.302 247.989 138.094 238.882 146.5 239.582 C 142.998 238.181 142.998 233.277 139.495 231.876 C 140.196 231.876 136.693 225.571 143.698 224.17 C 139.495 220.668 140.196 215.764 137.393 214.363 C 145.099 212.962 131.789 203.855 144.399 206.657 C 140.196 203.154 142.297 196.85 140.896 191.245 C 138.794 189.844 136.693 185.641 136.693 184.94 C 137.393 180.037 133.891 173.732 138.794 171.63 C 137.393 165.326 135.992 163.924 135.992 159.721 C 136.693 155.518 139.495 154.117 140.196 152.015 C 135.292 146.411 140.896 141.507 135.992 138.705 C 140.896 134.502 131.789 128.898 139.495 121.192 C 138.094 121.892 137.393 125.395 135.292 123.994 C 136.693 118.39 136.693 114.187 138.794 111.384 C 133.19 107.882 139.495 100.876 137.393 100.876 C 140.196 98.775 139.495 95.272 142.998 94.572 C 145.099 89.668 141.597 86.866 144.399 84.064 C 145.8 83.363 148.602 84.064 150.003 84.064 C 147.901 85.465 147.901 79.86 146.5 77.058 C 146.5 71.454 152.105 77.759 150.704 74.957 C 147.901 72.855 145.8 75.657 145.099 74.957 C 148.602 71.454 143.698 70.753 147.201 65.85 C 141.597 68.652 142.297 60.245 137.393 61.647 C 145.8 60.245 136.693 49.737 147.901 52.54 C 142.998 46.235 145.099 51.839 140.896 48.336 C 140.196 38.529 142.297 48.336 144.399 46.235 C 146.5 42.732 142.297 40.631 147.901 40.631 C 147.901 41.331 152.805 38.529 151.404 43.433 C 157.709 39.229 156.308 39.93 166.816 38.529 C 166.816 45.534 175.222 56.042 176.623 58.144 C 180.126 49.737 182.228 49.737 187.832 48.336 C 181.527 41.331 193.436 39.93 189.233 37.828 C 192.035 35.026 195.538 32.925 197.639 37.128 C 197.639 31.524 199.04 29.422 201.142 28.021 C 206.046 25.219 209.548 24.518 212.35 24.518 C 220.757 24.518 224.96 27.32 228.463 29.422 C 229.864 25.919 231.965 24.518 233.367 23.117" fill="rgb(238,199,134)"/>
    <path d="M 236.169 23.117 C 233.367 23.818 229.864 25.919 229.864 28.721 C 221.457 25.219 210.249 23.117 201.842 28.021 C 200.441 30.823 197.639 30.823 200.441 35.727 C 196.238 37.828 192.736 32.925 190.634 37.128 C 194.137 41.331 182.228 40.631 189.933 47.636 C 181.527 50.438 180.826 50.438 179.425 58.144 C 174.522 56.743 166.816 46.235 166.816 39.93 C 157.008 40.631 157.008 39.93 152.105 42.032 C 150.704 42.032 151.404 39.93 148.602 40.631 C 140.896 42.032 147.901 42.032 145.099 46.935 C 138.094 39.93 141.597 51.139 144.399 48.336 C 145.099 50.438 148.602 48.336 148.602 51.839 C 137.393 49.737 146.5 60.245 136.693 60.245 C 142.297 59.545 142.297 68.652 146.5 65.149 C 144.399 70.053 149.302 72.855 144.399 72.855 C 149.302 76.358 147.201 85.465 152.105 81.962 C 148.602 85.465 146.5 83.363 144.399 84.064 C 142.297 86.866 145.8 89.668 142.998 93.171 C 140.196 95.272 141.597 99.475 137.393 99.475 C 140.196 101.577 133.891 107.181 140.196 109.983 C 131.789 122.593 140.196 134.502 136.693 138.005 C 141.597 141.507 135.992 146.411 141.597 149.914 C 140.196 154.117 137.393 155.518 136.693 157.62 C 136.693 163.924 138.794 165.326 140.196 170.229 C 134.591 173.732 138.094 180.037 135.992 183.539 C 137.393 187.743 140.196 187.743 142.297 189.144 C 142.998 195.448 141.597 203.855 142.998 203.855 C 133.19 206.657 145.8 210.86 138.094 212.962 C 140.896 215.764 140.196 220.668 142.998 222.069 C 137.393 226.272 140.896 230.475 140.896 231.176 C 143.698 233.277 143.698 237.481 146.5 238.181 C 141.597 240.283 145.099 243.085 142.297 245.887 C 143.698 247.288 146.5 245.887 146.5 249.39 C 144.399 250.09 145.8 254.293 143.698 254.293 C 145.099 255.694 147.201 257.796 144.399 259.898 C 147.901 258.497 150.704 257.095 150.003 252.192 C 151.404 257.095 157.008 255.694 159.81 256.395 C 152.105 259.898 156.308 271.106 150.003 269.705 C 150.704 283.015 141.597 276.71 147.901 286.518 C 143.698 288.619 142.998 300.529 140.896 292.823 C 145.099 297.026 138.794 304.732 145.099 306.833 C 142.998 308.234 141.597 308.234 139.495 308.234 C 140.196 311.037 144.399 307.534 145.099 311.037 C 135.992 313.138 148.602 320.143 138.794 324.347 C 148.602 327.149 135.292 329.951 146.5 330.652 C 147.901 334.154 142.297 335.555 143.698 337.657 C 145.099 333.454 147.201 340.459 150.003 336.956 C 150.003 346.063 139.495 341.86 142.297 348.865 C 143.698 354.47 143.698 362.176 148.602 367.079 C 147.901 370.582 145.8 370.582 147.201 374.785 C 153.506 377.587 150.003 380.389 159.11 380.389 C 161.212 382.491 161.912 385.293 163.313 387.395 C 165.415 384.593 166.816 386.694 166.115 383.192 C 171.019 381.09 171.019 385.994 172.42 385.994 C 171.72 384.593 171.72 381.09 175.222 381.09 C 175.923 382.491 181.527 382.491 180.826 385.293 C 184.329 380.389 189.933 388.095 193.436 381.09 C 199.04 385.293 203.944 393.7 211.65 395.101 C 218.655 397.202 224.96 398.603 230.564 397.903 C 229.864 393.7 240.372 395.101 242.473 390.897 C 248.778 387.395 243.875 381.09 246.677 378.288 C 250.88 379.689 256.484 385.994 258.586 382.491 C 259.286 385.293 255.083 385.994 259.987 388.796 C 261.388 386.694 264.891 386.694 266.992 385.994 C 268.393 388.095 265.591 388.796 264.19 388.095 C 271.195 386.694 271.195 392.298 277.5 391.598 C 273.297 389.496 281.003 388.095 281.003 385.994 C 285.206 387.395 287.308 390.897 288.008 392.298 C 292.912 388.095 292.211 388.796 299.217 388.095 C 304.12 390.897 311.826 385.293 314.628 392.999 C 322.334 383.892 320.233 397.903 329.34 381.79 C 331.441 385.293 330.04 384.593 329.34 388.095 C 337.046 385.293 336.345 387.395 340.548 390.197 C 339.848 385.994 356.66 381.79 351.056 376.186 C 356.66 374.785 363.666 371.983 369.27 371.282 C 374.174 370.582 369.27 375.486 374.174 376.186 C 374.874 370.582 376.976 366.379 379.078 363.577 C 380.479 361.475 379.778 363.577 380.479 364.277 C 379.778 358.673 378.377 351.668 380.479 348.865 C 383.281 336.956 385.382 336.956 386.083 327.849 C 380.479 328.55 384.682 323.646 381.88 321.545 C 383.981 317.341 383.981 316.641 386.083 318.742 C 384.682 315.24 382.58 306.133 386.083 297.026 C 383.981 293.523 380.479 293.523 378.377 291.422 C 379.778 288.619 381.179 292.823 381.88 288.619 C 377.676 276.71 382.58 258.497 378.377 251.491 C 384.682 247.288 379.078 241.684 386.783 240.283 C 377.676 236.78 382.58 245.186 374.174 243.785 C 376.275 240.983 375.575 239.582 377.676 237.481 C 379.778 238.181 382.58 237.481 382.58 238.882 C 383.281 238.181 381.179 238.181 380.479 236.079 C 387.484 237.481 380.479 233.277 386.783 230.475 C 383.281 223.47 381.179 217.165 380.479 215.764 C 387.484 208.759 378.377 199.652 382.58 191.946 C 381.179 192.646 379.078 191.245 379.778 189.144 C 383.281 187.042 384.682 185.641 386.083 182.138 C 386.083 175.133 383.281 175.133 381.88 171.63 C 383.281 168.128 384.682 172.331 385.382 168.828 C 381.88 170.229 383.281 157.62 377.676 166.026 C 378.377 159.721 379.778 156.919 379.078 152.716 C 382.58 152.015 386.783 151.315 384.682 145.711 C 380.479 144.31 381.179 140.106 378.377 141.507 C 380.479 138.005 383.281 139.406 384.682 138.005 C 381.88 134.502 380.479 136.604 376.976 135.203 C 379.778 133.802 383.981 132.4 383.981 135.903 C 380.479 130.299 390.987 131.7 383.281 126.796 C 390.987 130.999 386.083 124.695 390.286 122.593 L 391.687 124.695 L 390.286 122.593 C 388.885 121.192 388.184 116.288 383.981 119.09 C 386.783 115.588 385.382 109.983 385.382 109.983 C 384.682 111.384 383.981 112.786 382.58 114.187 C 380.479 114.187 381.179 112.786 379.078 112.786 C 384.682 113.486 374.174 102.978 381.88 102.278 C 379.078 103.679 376.976 100.176 376.976 98.775 C 379.778 102.978 379.078 90.368 375.575 89.668 C 373.473 89.668 373.473 85.465 370.671 88.967 C 374.874 81.261 372.072 80.561 369.971 73.556 C 365.067 65.149 349.655 55.342 346.853 53.941 C 344.751 49.037 347.554 56.743 343.35 53.24 C 344.051 46.235 348.254 46.235 349.655 46.235 C 341.949 42.732 346.152 48.336 343.35 49.037 C 341.249 46.935 342.65 46.235 341.949 44.834 C 336.345 43.433 331.441 41.331 323.735 41.331 C 323.035 39.229 319.532 35.727 319.532 32.224 C 315.329 31.524 313.928 28.021 310.425 28.721 C 306.222 28.721 309.725 30.823 309.024 32.224 C 304.821 28.021 303.42 30.823 299.917 30.123 C 299.217 31.524 300.618 35.026 297.816 35.026 C 295.013 35.026 290.11 38.529 288.709 35.727 C 288.008 37.128 287.308 39.229 289.409 39.93 C 285.206 39.93 283.104 37.128 280.302 40.631 C 281.003 39.229 283.104 39.229 283.104 39.93 C 278.901 44.133 278.901 44.133 278.901 50.438 C 266.292 52.54 273.297 46.935 265.591 44.133 C 269.094 43.433 260.687 38.529 266.292 36.427 C 264.19 35.026 260.687 37.128 260.687 33.625 C 263.489 32.224 264.891 33.625 266.992 32.925 C 258.586 28.021 248.778 28.021 237.57 23.117" fill="rgb(238,199,135)"/>
    <path d="M 284.505 7.705 C 268.393 11.909 281.703 20.315 275.399 31.524 L 278.201 32.925 L 277.5 32.925 L 276.8 34.326 C 275.399 37.828 273.297 41.331 275.399 44.834 C 269.094 38.529 276.099 37.828 271.896 35.026 C 272.596 32.224 271.195 28.721 270.495 30.123 C 271.195 30.123 272.596 32.224 271.896 32.925 C 269.094 37.128 274.698 40.631 269.094 42.032 C 271.195 39.93 271.896 41.331 273.997 43.433 L 275.399 45.534 L 276.099 46.235 L 276.8 45.534 C 273.997 41.331 276.099 39.93 276.8 33.625 C 281.703 36.427 279.602 30.823 283.104 32.925 C 284.505 26.62 281.003 30.823 278.201 31.524 C 277.5 27.32 283.104 28.021 280.302 23.117 C 285.206 18.213 290.81 17.513 292.912 16.112 C 302.719 18.213 306.923 18.213 312.527 20.315 C 323.035 21.716 323.035 25.219 330.04 30.823 C 334.243 28.021 342.65 30.823 351.056 34.326 C 353.158 36.427 360.864 35.727 356.66 39.93 C 362.965 39.93 371.372 40.631 372.072 44.834 C 373.473 46.235 374.874 48.336 373.473 49.737 C 378.377 50.438 379.078 48.336 381.88 50.438 C 385.382 51.839 380.479 58.844 383.281 57.443 C 377.676 58.144 382.58 70.753 376.275 68.652 C 377.676 71.454 380.479 70.753 381.88 72.155 C 378.377 63.748 388.885 71.454 385.382 63.048 C 388.885 67.951 386.083 71.454 384.682 73.556 C 387.484 76.358 388.885 79.16 390.286 81.261 C 389.586 86.165 390.286 91.069 388.184 91.069 C 395.89 90.368 386.083 105.78 398.692 105.08 C 397.992 111.384 394.489 113.486 398.692 119.791 C 397.291 121.892 396.591 119.791 395.89 119.791 C 397.992 122.593 395.89 128.197 400.794 128.898 C 400.094 137.304 396.591 129.598 394.489 130.299 C 395.89 133.101 397.992 132.4 400.094 134.502 C 395.89 140.807 401.495 142.908 395.19 142.908 C 394.489 145.711 397.291 143.609 397.291 145.711 C 395.89 145.01 394.489 147.812 393.088 147.812 C 394.489 148.513 400.094 147.812 399.393 154.117 C 393.789 152.716 392.388 152.716 388.885 149.914 C 387.484 152.716 393.088 152.015 388.885 155.518 C 384.682 152.015 386.783 159.021 381.179 159.721 C 383.281 159.721 384.682 158.32 386.083 158.32 C 390.286 163.224 392.388 165.326 395.89 168.828 C 396.591 171.63 393.789 170.93 394.489 173.031 C 395.89 175.834 395.19 171.63 397.291 171.63 L 398.692 170.93 L 399.393 171.63 L 402.195 170.93 C 400.794 176.534 401.495 173.732 404.297 178.636 C 401.495 182.839 402.195 179.336 395.89 180.037 C 399.393 181.438 395.19 184.24 398.692 184.94 C 395.89 184.24 395.19 194.748 391.687 187.743 C 393.088 191.245 394.489 191.946 397.291 191.946 C 395.19 197.55 393.789 198.951 390.987 201.753 C 393.789 205.956 386.783 208.058 395.19 205.956 C 390.286 209.459 390.987 215.063 387.484 215.764 C 389.586 215.063 392.388 220.668 393.789 224.871 C 393.789 229.074 397.291 236.78 394.489 240.983 C 390.286 238.181 383.981 252.892 381.88 250.791 C 387.484 254.994 390.286 250.791 390.987 257.796 C 387.484 260.598 388.885 271.807 388.885 277.411 C 392.388 280.914 393.789 301.229 394.489 312.438 C 393.789 315.94 394.489 319.443 390.987 320.143 C 393.088 324.347 395.19 333.454 390.987 337.657 C 393.789 341.16 390.987 345.363 396.591 343.962 C 394.489 349.566 393.789 342.561 390.987 346.063 C 390.987 348.865 390.987 350.266 390.286 352.368 C 390.987 357.972 394.489 355.871 395.89 357.272 C 389.586 358.673 395.19 367.78 388.184 368.48 C 388.184 374.085 386.083 378.288 387.484 380.389 C 376.976 382.491 379.078 388.796 369.971 387.395 C 365.067 386.694 363.666 389.496 358.762 388.095 C 357.361 390.897 361.564 390.197 360.163 392.999 C 357.361 391.598 355.96 389.496 353.158 390.197 C 354.559 392.999 353.858 394.4 351.757 395.801 C 348.254 395.801 332.142 397.202 320.933 396.502 C 314.628 397.202 317.431 400.705 315.329 402.806 C 313.227 399.304 309.024 401.405 308.324 400.004 C 306.923 404.208 304.12 401.405 302.719 402.806 C 298.516 395.101 290.11 402.106 285.206 397.903 C 282.404 404.908 290.11 403.507 292.211 405.609 C 288.709 409.111 284.505 409.111 282.404 409.812 C 277.5 409.812 276.8 406.309 278.901 404.908 C 272.596 402.106 273.297 407.01 269.794 404.208 C 263.489 400.004 259.286 388.796 250.88 383.892 C 249.479 390.197 255.083 397.202 257.185 403.507 C 248.078 409.812 254.383 400.705 250.88 404.208 C 250.88 405.609 248.778 407.01 249.479 408.411 C 246.677 409.111 247.377 409.812 246.677 411.213 C 242.473 407.71 244.575 401.405 239.671 399.304 C 240.372 404.208 234.067 408.411 238.971 411.913 C 238.971 409.111 238.971 405.609 239.671 402.106 C 242.473 406.309 243.174 408.411 242.473 411.213 C 247.377 411.213 252.281 414.716 256.484 415.416 C 256.484 412.614 258.586 414.716 258.586 409.812 C 255.784 407.71 254.383 410.512 250.179 409.111 C 257.185 407.01 257.185 407.01 258.586 405.609 C 252.981 392.298 259.987 396.502 250.179 385.994 C 269.794 397.903 259.286 412.614 271.896 410.512 C 288.008 409.812 301.318 402.806 316.029 404.208 C 316.73 411.213 319.532 408.411 320.933 411.213 C 323.735 411.213 328.639 413.314 332.142 413.314 C 353.158 413.314 371.372 413.314 390.286 412.614 C 394.489 411.913 393.088 405.609 389.586 403.507 C 372.773 407.71 354.559 406.309 339.147 406.309 C 331.441 404.908 322.334 403.507 316.73 403.507 C 316.73 399.304 320.933 398.603 319.532 397.903 C 335.644 398.603 349.655 398.603 359.463 400.705 C 366.468 399.304 383.981 395.101 393.088 391.598 C 394.489 390.197 397.291 389.496 397.291 385.994 C 402.195 388.796 404.997 387.395 404.297 392.298 C 405.698 382.491 397.992 388.796 397.992 381.09 C 400.094 381.09 399.393 377.587 400.794 377.587 C 399.393 373.384 394.489 383.192 392.388 374.085 C 395.89 372.684 397.291 367.78 400.794 368.48 C 402.195 355.871 402.896 359.373 404.297 350.967 C 402.896 345.363 400.794 341.16 397.992 337.657 C 393.088 285.117 397.291 282.315 394.489 257.796 C 392.388 257.095 391.687 249.39 385.382 253.593 C 395.89 243.085 393.088 251.491 400.794 242.384 C 402.896 237.481 402.195 231.876 400.794 227.673 C 402.896 225.571 402.896 226.973 403.596 226.973 C 405.698 223.47 409.2 220.668 407.799 215.764 C 407.799 218.566 406.398 222.069 404.297 223.47 C 402.195 219.967 404.297 218.566 404.297 215.764 C 404.997 212.261 409.2 204.555 409.2 210.86 C 408.5 208.759 409.901 203.855 407.099 207.358 C 404.997 209.459 404.997 212.261 403.596 213.662 C 402.195 217.866 400.794 221.368 400.794 223.47 C 397.992 224.17 395.89 223.47 394.489 222.769 C 393.088 208.058 412.003 184.94 407.099 171.63 C 405.698 165.326 401.495 170.93 398.692 170.229 L 397.291 170.229 L 398.692 167.427 C 395.19 167.427 388.885 159.721 388.885 159.021 L 386.783 159.021 L 385.382 156.919 C 391.687 156.219 396.591 166.727 402.896 159.021 C 407.099 152.015 401.495 154.117 404.997 148.513 C 403.596 136.604 402.195 111.384 395.89 93.171 C 396.591 82.663 397.291 67.251 395.89 62.347 C 392.388 55.342 388.885 60.946 386.083 56.743 C 395.19 57.443 388.885 50.438 393.789 46.235 C 392.388 47.636 390.987 47.636 388.184 49.737 C 389.586 41.331 393.088 32.925 393.789 25.219 C 393.088 33.625 388.885 43.433 385.382 49.737 C 362.265 36.427 327.238 21.716 304.12 11.909 C 297.816 11.208 292.211 9.807 285.206 8.406" fill="rgb(211,144,78)"/>
    <path d="M 135.992 8.406 C 138.094 13.31 130.388 8.406 128.286 9.807 C 125.484 11.909 122.682 12.609 121.982 14.711 C 133.891 30.123 121.982 38.529 128.286 49.037 C 127.586 51.839 126.185 52.54 125.484 50.438 C 111.474 74.957 128.987 77.759 142.998 78.459 C 129.688 75.657 138.094 67.251 123.383 70.053 C 128.286 63.048 124.083 60.946 126.185 58.144 C 130.388 56.743 132.49 56.042 135.292 57.443 C 134.591 55.342 131.789 56.042 131.089 53.941 C 131.089 49.037 134.591 51.839 135.992 49.737 C 133.891 46.935 131.089 46.935 131.089 43.433 C 138.794 33.625 127.586 23.818 132.49 16.812 C 146.5 21.016 150.704 12.609 159.81 15.411 C 164.714 23.117 161.212 26.62 164.714 30.823 C 164.014 32.224 163.313 34.326 162.613 34.326 C 164.014 35.727 168.217 34.326 168.217 38.529 C 171.72 43.433 173.121 44.834 174.522 51.139 C 175.222 49.037 176.623 44.834 178.725 45.534 C 177.324 37.828 174.522 37.828 175.923 34.326 C 176.623 32.224 177.324 31.524 179.425 32.224 C 181.527 34.326 178.725 35.727 180.126 38.529 C 180.126 32.224 187.131 30.823 189.933 28.721 C 191.334 23.117 183.629 24.518 183.629 19.615 C 194.137 18.213 202.543 19.615 215.853 16.812 C 217.955 18.914 220.056 16.812 222.859 18.914 C 224.96 14.01 239.671 20.315 246.677 18.914 C 254.383 23.117 259.286 23.818 264.891 25.219 C 273.297 31.524 255.083 28.021 265.591 29.422 C 269.094 31.524 264.19 28.721 271.195 26.62 C 269.794 25.219 272.596 23.818 271.195 22.417 C 268.393 18.914 267.693 16.112 265.591 14.01 C 262.088 15.411 260.687 16.112 259.286 17.513 C 251.58 17.513 236.169 12.609 223.559 11.909 C 209.548 10.508 199.741 17.513 187.131 16.812 C 178.725 14.711 180.826 24.518 176.623 21.016 C 177.324 21.016 177.324 22.417 178.024 22.417 C 172.42 22.417 170.318 30.123 170.318 33.625 C 168.217 34.326 168.917 32.925 168.217 32.224 C 168.917 32.925 167.516 35.026 168.917 35.026 C 168.217 37.128 171.72 35.727 170.318 39.229 C 168.217 35.727 165.415 33.625 163.313 35.727 C 164.014 33.625 164.714 32.925 165.415 32.224 C 164.014 30.823 166.816 27.32 167.516 28.021 C 167.516 24.518 167.516 24.518 168.217 26.62 C 161.912 21.016 166.115 20.315 162.613 12.609 C 150.704 8.406 142.297 16.812 135.992 9.807" fill="rgb(214,145,78)"/>
    <path d="M 144.399 273.208 C 144.399 276.71 138.794 276.01 141.597 280.213 C 140.196 277.411 135.292 277.411 135.992 276.01 C 119.18 272.507 137.393 287.919 131.089 302.63 C 129.688 310.336 130.388 320.143 129.688 329.25 C 133.19 337.657 131.089 345.363 133.19 350.266 C 126.185 352.368 136.693 357.972 123.383 365.678 C 128.286 369.881 132.49 374.785 134.591 378.288 C 132.49 376.186 127.586 379.689 124.083 374.785 C 121.281 378.988 121.982 378.288 124.083 383.892 C 134.591 388.796 136.693 389.496 145.8 395.101 C 150.003 402.106 154.206 404.208 153.506 411.913 C 155.607 403.507 158.409 414.015 157.008 400.705 C 160.511 404.208 164.714 409.812 161.912 411.213 C 193.436 403.507 189.233 402.106 204.645 397.903 C 210.249 403.507 213.752 406.309 220.056 409.111 C 227.762 409.812 232.666 414.716 236.169 411.913 C 218.655 411.913 213.752 395.801 190.634 392.999 C 187.832 390.197 192.035 395.101 187.131 392.999 C 190.634 395.101 190.634 397.202 192.736 397.903 C 187.131 400.705 181.527 399.304 180.126 405.609 C 173.121 404.208 170.318 402.806 161.912 400.004 C 162.613 396.502 160.511 391.598 161.212 389.496 C 161.212 393.7 155.607 393.7 154.206 395.801 C 150.704 387.395 142.297 393.7 135.992 385.293 C 137.393 383.192 138.094 378.288 137.393 374.085 C 137.393 375.486 135.292 372.684 134.591 374.085 C 134.591 373.384 133.891 369.181 132.49 368.48 C 133.891 364.978 136.693 357.272 135.992 354.47 C 134.591 350.967 137.393 341.86 133.19 346.063 C 131.789 335.555 135.292 327.849 133.891 313.138 C 131.789 308.234 137.393 306.133 135.992 302.63 C 132.49 297.026 134.591 293.523 131.789 287.218 C 133.891 284.416 133.19 279.513 134.591 278.812 C 137.393 278.812 141.597 281.614 142.998 283.716 C 140.896 280.914 142.998 277.411 144.399 274.609" fill="rgb(212,145,79)"/>
    <path d="M 142.297 80.561 C 144.399 84.064 130.388 79.16 128.987 84.064 C 124.784 103.679 126.885 119.791 128.286 138.705 C 128.286 142.908 127.586 144.31 126.885 146.411 C 126.185 142.908 126.885 139.406 126.185 135.203 C 126.885 138.705 126.885 142.208 124.784 145.01 C 121.281 143.609 121.281 141.507 119.88 140.106 C 119.88 142.908 123.383 145.01 122.682 147.112 C 119.18 148.513 121.982 152.015 121.281 154.117 C 119.88 152.015 117.778 151.315 117.778 150.614 C 121.982 158.32 122.682 161.122 137.393 169.529 C 127.586 167.427 119.88 169.529 117.778 168.128 C 119.18 173.031 117.078 176.534 119.88 177.235 C 126.885 179.336 117.778 173.732 125.484 175.834 C 124.083 180.037 129.688 182.138 131.789 184.94 C 126.885 185.641 123.383 182.839 120.581 184.94 C 121.982 187.743 115.677 189.144 118.479 194.748 C 120.581 217.165 132.49 232.577 136.693 251.491 C 136.693 264.801 121.982 259.197 123.383 264.801 C 127.586 266.202 131.089 269.005 134.591 269.005 L 135.292 269.005 L 135.292 270.406 L 136.693 270.406 L 137.393 270.406 C 142.998 270.406 141.597 267.603 145.8 267.603 C 140.196 266.202 140.896 266.903 135.292 270.406 C 140.196 265.502 138.094 259.898 140.196 254.293 C 137.393 236.78 127.586 218.566 126.185 210.16 C 125.484 201.753 133.19 210.16 131.789 200.352 C 126.885 201.053 126.885 203.154 124.083 200.352 C 126.185 195.448 128.286 195.448 133.19 189.144 C 132.49 189.144 135.992 186.342 132.49 186.342 C 131.089 182.138 130.388 177.935 128.286 173.732 C 131.789 169.529 135.292 171.63 138.094 170.93 C 130.388 163.924 129.688 162.523 124.083 156.219 C 124.784 151.315 127.586 147.112 128.286 142.208 C 126.885 124.695 128.286 105.08 128.987 90.368 C 128.286 80.561 148.602 82.663 143.698 80.561" fill="rgb(212,144,78)"/>
    <path d="M 318.131 7.005 C 308.324 8.406 321.634 7.005 323.735 6.304 C 331.441 13.31 342.65 14.01 352.457 21.716 C 358.062 18.914 372.072 28.021 370.671 18.914 C 370.671 23.818 374.874 23.818 377.676 24.518 C 378.377 23.818 376.275 22.417 373.473 23.117 C 379.078 18.914 379.778 24.518 382.58 20.315 C 379.778 18.914 385.382 16.112 380.479 17.513 C 383.981 16.112 384.682 12.609 388.184 12.609 C 372.072 7.705 339.848 11.208 324.436 6.304 C 322.334 6.304 320.933 6.304 318.832 6.304" fill="rgb(209,142,75)"/>
    <path d="M 397.992 5.604 C 393.789 5.604 391.687 9.807 389.586 12.609 C 386.083 17.513 383.981 22.417 381.179 26.62 C 379.778 35.026 382.58 41.331 384.682 45.534 C 386.083 39.229 390.286 33.625 390.987 27.32 C 386.783 22.417 387.484 35.727 383.981 34.326 C 382.58 28.021 387.484 26.62 386.083 21.016 C 390.286 21.716 393.789 21.716 395.19 24.518 C 395.89 32.224 394.489 37.128 393.088 42.032 C 397.992 37.828 397.291 32.925 404.997 30.823 C 403.596 25.219 407.799 14.01 398.692 4.903" fill="rgb(102,34,12)"/>
    <path d="M 396.591 300.529 C 394.489 307.534 404.997 328.55 399.393 336.956 C 401.495 341.16 403.596 345.363 404.297 349.566 C 404.297 352.368 404.297 354.47 402.896 355.871 C 403.596 360.774 402.195 363.577 401.495 366.379 C 397.992 369.181 396.591 371.983 393.088 374.085 C 395.19 381.09 397.291 374.085 402.195 376.186 C 394.489 380.389 402.896 383.892 396.591 388.796 C 391.687 395.801 362.265 398.603 358.062 400.705 C 347.554 397.903 332.842 399.304 320.233 397.202 C 333.543 400.004 334.944 398.603 358.062 402.106 C 378.377 397.903 382.58 396.502 398.692 393.7 C 400.794 397.903 404.997 397.202 404.997 400.004 C 409.2 400.004 409.2 398.603 408.5 395.801 C 409.901 397.903 409.901 399.304 409.901 400.705 C 410.602 388.796 407.799 390.197 407.099 375.486 C 404.997 376.887 402.896 370.582 400.794 373.384 C 404.997 369.881 402.195 358.673 404.297 357.972 C 404.997 355.871 404.997 357.272 407.099 356.571 C 404.297 343.962 399.393 318.742 397.291 301.93" fill="rgb(182,105,45)"/>
    <path d="M 306.222 7.005 C 333.543 16.812 358.062 33.625 383.981 46.935 C 379.078 41.331 380.479 37.828 379.778 28.721 C 379.778 30.123 378.377 30.823 379.078 32.925 C 358.762 28.721 337.746 16.812 306.923 7.005" fill="rgb(239,196,130)"/>
    <path d="M 231.265 1.401 C 206.046 4.903 175.222 0 173.821 8.406 C 173.121 14.01 191.334 3.502 197.639 8.406 C 205.345 7.005 205.345 2.101 213.752 3.502 C 214.452 5.604 218.655 5.604 217.254 7.005 C 222.859 0 241.773 13.31 254.383 9.107 C 249.479 1.401 241.072 4.903 232.666 0.7" fill="rgb(203,147,86)"/>
    <path d="M 119.88 279.513 C 121.982 289.32 114.976 304.031 117.078 317.341 C 117.778 329.25 117.078 341.86 119.88 350.266 C 120.581 327.849 120.581 304.732 124.083 285.117 C 121.281 282.315 122.682 280.914 119.88 281.614" fill="rgb(183,101,40)"/>
    <path d="M 121.982 175.834 C 121.982 176.534 126.185 175.834 123.383 177.935 C 122.682 180.037 121.281 182.138 121.281 181.438 C 119.18 180.737 117.078 184.94 115.677 181.438 C 120.581 188.443 113.575 205.256 114.976 217.165 C 115.677 214.363 114.276 203.855 116.377 198.951 C 114.976 210.86 132.49 236.78 132.49 249.39 C 133.19 252.192 133.891 257.095 130.388 258.497 C 127.586 258.497 124.784 259.898 124.083 257.095 C 124.784 259.197 120.581 260.598 118.479 259.898 C 118.479 265.502 121.982 266.202 124.083 268.304 C 122.682 268.304 121.281 265.502 122.682 262.7 C 125.484 263.4 128.987 261.299 131.089 259.898 C 134.591 257.095 135.992 254.994 136.693 252.192 C 129.688 242.384 129.688 222.769 120.581 214.363 C 119.18 203.855 114.976 190.545 119.88 184.94 C 122.682 188.443 122.682 182.138 121.982 178.636 C 128.987 180.737 122.682 187.743 131.789 184.94 C 126.885 184.24 126.185 177.235 124.784 175.834" fill="rgb(173,104,50)"/>
    <path d="M 391.687 394.4 C 379.078 398.603 391.687 393.7 395.89 396.502 C 398.692 400.004 400.794 402.106 402.195 404.908 C 400.094 407.71 398.692 407.01 397.992 407.71 C 396.591 404.208 397.291 400.004 392.388 398.603 C 389.586 402.106 393.789 406.309 394.489 410.512 C 397.291 412.614 397.992 414.716 399.393 415.416 C 402.896 416.117 404.297 414.716 404.997 413.314 C 408.5 407.71 410.602 402.806 409.2 396.502 C 409.901 398.603 409.901 401.405 407.099 400.004 C 404.297 397.903 402.195 398.603 399.393 395.101 C 396.591 395.801 395.19 394.4 391.687 395.101" fill="rgb(100,28,12)"/>
    <path d="M 274.698 3.502 C 275.399 3.502 276.8 5.604 277.5 5.604 C 276.099 6.304 274.698 4.903 273.997 8.406 C 274.698 17.513 276.099 22.417 273.997 30.123 C 277.5 18.213 276.8 21.716 274.698 11.909 C 276.8 10.508 281.003 8.406 284.505 7.705 C 297.816 10.508 294.313 11.208 303.42 10.508 C 321.634 18.213 348.254 30.823 368.57 39.93 C 346.853 28.021 322.334 14.711 318.832 14.01 L 316.73 12.609 L 318.131 14.01 C 307.623 10.508 297.115 7.005 285.907 7.705 C 282.404 7.705 281.003 7.005 278.901 6.304 C 276.8 5.604 276.8 4.203 275.399 4.203" fill="rgb(171,105,46)"/>
    <path d="M 313.227 7.005 C 335.644 16.812 364.366 28.721 377.676 30.123 C 383.281 25.919 371.372 25.219 372.072 21.716 C 372.072 28.721 357.361 19.615 354.559 22.417 C 341.949 14.711 332.142 14.01 323.035 9.107 C 323.035 7.705 321.634 7.005 320.233 7.705" fill="rgb(228,176,108)"/>
    <path d="M 376.976 4.203 C 338.447 6.304 355.259 7.705 327.939 5.604 C 346.853 9.807 368.57 7.705 384.682 11.208 C 383.981 17.513 380.479 15.411 383.981 19.615 C 380.479 25.219 379.778 20.315 374.874 21.716 C 378.377 21.016 378.377 24.518 379.778 25.919 C 379.778 22.417 383.281 23.818 383.281 20.315 C 386.783 15.411 387.484 12.609 387.484 8.406 C 383.281 4.203 381.88 8.406 376.976 6.304 C 395.19 3.502 402.896 4.203 376.976 3.502" fill="rgb(221,173,114)"/>
    <path d="M 402.896 70.053 C 402.896 86.866 405.698 110.684 409.2 124.695 C 407.799 111.384 407.799 91.769 407.099 69.352 C 406.398 70.753 404.997 70.053 404.297 70.753" fill="rgb(198,133,76)"/>
    <path d="M 117.778 392.298 C 117.778 398.603 124.784 400.004 126.185 403.507 C 128.286 401.405 133.891 410.512 138.794 410.512 C 142.297 407.71 142.297 404.908 138.794 402.106 C 131.089 398.603 125.484 394.4 119.18 392.298" fill="rgb(196,126,66)"/>
    <path d="M 119.18 370.582 C 114.976 368.48 117.078 377.587 119.88 383.892 C 128.286 388.095 135.992 390.897 142.297 396.502 C 148.602 397.903 150.003 412.614 150.003 405.609 C 151.404 409.111 150.704 411.213 149.302 413.314 C 152.805 414.015 154.907 413.314 156.308 412.614 L 157.709 411.913 L 157.709 411.213 C 157.008 410.512 157.008 409.111 156.308 407.71 C 156.308 409.111 157.008 409.812 156.308 411.913 C 154.907 412.614 154.206 412.614 153.506 413.314 C 153.506 404.908 150.003 402.106 145.8 395.801 C 136.693 389.496 133.891 390.197 124.083 385.293 C 121.982 376.887 119.88 381.09 121.982 374.785 C 127.586 376.887 135.292 379.689 133.19 376.887 C 130.388 374.785 128.987 376.887 127.586 369.881 L 125.484 369.881 L 124.083 369.881 L 126.185 370.582 L 126.885 370.582 C 128.286 371.983 129.688 371.983 128.286 374.785 C 126.185 371.282 121.982 372.684 119.88 369.881" fill="rgb(175,102,50)"/>
    <path d="M 402.896 35.026 C 400.094 37.128 401.495 41.331 400.794 45.534 C 395.89 40.631 395.89 42.032 399.393 37.128 C 394.489 42.732 390.987 42.032 388.184 49.037 C 391.687 51.839 390.987 44.834 394.489 45.534 C 392.388 47.636 390.286 52.54 395.19 56.743 C 391.687 54.641 390.987 55.342 385.382 56.743 C 388.885 56.042 397.291 60.245 393.789 58.844 C 395.19 54.641 398.692 57.443 400.094 56.743 C 400.794 48.336 404.297 36.427 404.997 35.727" fill="rgb(178,100,43)"/>
    <path d="M 397.992 68.652 C 393.088 77.759 401.495 85.465 396.591 92.47 C 402.896 111.384 404.297 136.604 405.698 146.411 C 402.195 153.416 407.799 152.716 404.297 160.422 C 397.992 166.026 393.088 159.721 386.083 156.919 C 390.286 159.721 397.291 163.224 399.393 163.924 C 402.195 161.823 404.297 161.823 407.099 159.721 C 407.099 156.919 406.398 149.213 407.799 148.513 C 405.698 125.395 397.992 96.673 398.692 70.753" fill="rgb(173,105,45)"/>
    <path d="M 124.784 271.807 C 122.682 272.507 121.982 273.208 121.281 277.411 C 126.885 284.416 126.885 280.213 130.388 292.823 C 131.089 319.443 126.185 311.037 128.987 329.25 C 128.286 339.058 131.089 344.662 132.49 355.17 C 131.789 347.464 131.789 339.758 129.688 330.652 C 129.688 320.143 128.987 310.336 132.49 303.331 C 128.286 294.924 135.292 280.914 125.484 278.812 C 129.688 274.609 133.891 279.513 135.292 275.309 C 138.094 277.411 140.196 277.411 140.196 279.513 C 138.094 276.01 143.698 276.71 143.698 273.208 C 141.597 273.908 140.196 277.411 136.693 276.01 C 131.789 275.309 128.987 272.507 126.185 271.106" fill="rgb(175,106,49)"/>
    <path d="M 380.479 404.908 C 397.291 402.106 388.184 411.913 379.078 411.213 C 373.473 411.913 367.869 412.614 362.965 411.213 C 367.869 407.71 374.174 406.309 381.179 405.609" fill="rgb(192,115,55)"/>
    <path d="M 117.078 280.213 C 114.976 292.823 116.377 304.732 115.677 317.341 C 116.377 331.352 116.377 334.154 117.778 349.566 C 118.479 350.967 120.581 353.069 121.281 351.668 C 120.581 327.149 124.083 307.534 124.784 283.716 C 122.682 297.026 119.88 327.849 122.682 349.566 C 116.377 342.561 117.778 329.25 116.377 319.443 C 115.677 304.031 118.479 293.523 120.581 280.914" fill="rgb(205,140,82)"/>
    <path d="M 126.185 284.416 C 128.987 306.133 121.281 327.849 125.484 350.967 C 126.885 350.967 128.286 350.967 130.388 351.668 C 129.688 343.962 126.185 337.657 125.484 329.951 C 126.185 314.539 130.388 299.828 126.885 285.117" fill="rgb(241,197,133)"/>
    <path d="M 406.398 163.224 C 406.398 166.727 399.393 167.427 397.291 170.229 C 400.794 168.128 402.896 168.828 405.698 166.727 C 411.302 171.63 404.997 176.534 409.2 177.935 C 409.901 193.347 393.088 208.058 395.19 219.267 C 396.591 215.063 407.799 191.946 409.901 181.438 C 409.901 182.839 410.602 180.737 409.901 179.336 C 411.302 171.63 407.799 163.224 406.398 163.924" fill="rgb(180,101,45)"/>
    <path d="M 175.923 4.203 C 175.222 6.304 171.72 4.203 171.019 6.304 C 168.217 11.208 170.318 14.01 173.121 15.411 C 172.42 14.01 177.324 12.609 178.024 11.208 C 184.329 9.807 191.334 7.705 196.939 11.208 C 203.244 7.005 213.051 8.406 215.153 6.304 C 215.153 2.802 210.249 4.203 206.746 3.502 C 208.147 8.406 199.04 5.604 199.04 8.406 C 191.334 5.604 180.826 11.208 172.42 9.807 C 170.318 9.807 171.72 9.107 170.318 8.406 C 175.923 5.604 180.826 4.903 184.329 4.203 C 182.228 4.203 179.425 5.604 176.623 4.203" fill="rgb(222,172,107)"/>
    <path d="M 399.393 268.304 C 397.992 280.914 400.094 293.523 402.896 304.031 C 402.195 294.224 403.596 285.117 404.297 276.01 C 402.896 272.507 404.297 268.304 401.495 268.304" fill="rgb(193,130,75)"/>
    <path d="M 119.18 394.4 C 126.185 395.801 134.591 399.304 138.794 405.609 C 135.292 408.411 124.083 401.405 119.88 397.202" fill="rgb(190,114,52)"/>
    <path d="M 116.377 225.571 C 117.778 233.978 115.677 238.882 114.976 245.887 C 115.677 245.186 114.976 243.785 115.677 243.085 C 117.778 246.587 115.677 250.09 118.479 252.192 C 121.982 251.491 124.784 255.694 130.388 254.994 C 132.49 254.293 122.682 252.892 120.581 250.791 C 119.88 242.384 121.281 232.577 117.778 226.973" fill="rgb(176,102,47)"/>
    <path d="M 344.051 11.208 C 353.858 10.508 366.468 10.508 376.275 13.31 C 365.767 17.513 353.858 12.609 343.35 13.31" fill="rgb(197,123,56)"/>
    <path d="M 383.281 405.609 C 376.275 407.01 369.27 407.71 362.965 410.512 C 369.27 414.716 400.094 407.71 385.382 404.908" fill="rgb(189,109,51)"/>
    <path d="M 306.222 404.908 C 295.714 406.309 286.607 411.913 273.297 412.614 C 271.195 405.609 262.789 416.117 262.789 404.208 C 263.489 411.913 265.591 416.117 272.596 413.314 L 273.297 414.015 L 272.596 414.716 L 272.596 416.117 L 278.201 416.817 C 264.19 416.817 293.612 406.309 306.222 407.01 C 318.832 408.411 333.543 425.924 314.628 404.908 C 312.527 402.806 310.425 408.411 308.324 405.609" fill="rgb(163,103,51)"/>
    <path d="M 116.377 214.363 C 115.677 220.668 114.976 227.673 115.677 235.379 C 117.078 237.481 114.976 226.973 117.078 224.871 C 122.682 231.176 119.18 235.379 121.281 242.384 C 121.982 246.587 121.982 250.09 119.18 251.491 C 115.677 249.39 117.078 246.587 116.377 243.085 C 114.976 252.892 114.976 250.791 117.778 251.491 L 117.778 252.892 L 119.18 250.791 C 123.383 250.791 123.383 249.39 125.484 245.186 C 123.383 237.481 122.682 231.176 119.18 226.272 C 117.078 222.069 116.377 218.566 115.677 215.764" fill="rgb(201,140,81)"/>
    <path d="M 401.495 226.973 C 402.896 231.876 403.596 236.78 401.495 242.384 C 395.89 243.785 395.19 254.293 392.388 245.186 C 393.789 249.39 395.89 250.09 397.992 250.791 C 402.896 250.791 402.896 248.689 404.997 243.085 C 408.5 236.079 401.495 236.079 404.297 225.571" fill="rgb(168,100,48)"/>
    <path d="M 192.736 400.705 C 184.329 407.71 174.522 410.512 164.014 411.913 C 166.816 411.913 233.367 411.213 179.425 409.812 C 183.629 403.507 191.334 407.01 192.035 402.106" fill="rgb(178,106,47)"/>
    <path d="M 321.634 405.609 C 330.04 404.208 335.644 408.411 340.548 408.411 C 336.345 409.812 332.842 411.213 329.34 411.913 C 325.837 411.913 323.735 409.111 323.035 407.01" fill="rgb(194,119,59)"/>
    <path d="M 123.383 78.459 C 123.383 88.967 121.281 113.486 121.281 128.197 C 122.682 133.802 119.88 136.604 125.484 138.005 C 121.982 121.192 121.982 105.08 123.383 86.165 C 123.383 81.261 124.083 79.16 127.586 81.962 C 126.185 81.962 125.484 81.261 124.784 79.86" fill="rgb(241,200,141)"/>
    <path d="M 318.832 409.111 C 323.035 414.015 326.537 414.716 330.04 414.716 C 353.158 414.716 374.174 415.416 393.789 413.314 C 393.789 411.913 393.789 411.213 393.789 410.512 C 378.377 414.716 353.858 413.314 334.243 414.716 C 328.639 413.314 323.735 413.314 320.233 411.213" fill="rgb(219,170,114)"/>
    <path d="M 190.634 10.508 C 181.527 7.705 173.821 17.513 168.217 14.01 C 174.522 11.909 199.04 17.513 194.137 9.807" fill="rgb(240,196,129)"/>
    <path d="M 403.596 70.053 C 409.901 71.454 406.398 84.764 406.398 90.368 C 402.896 84.064 403.596 79.16 402.896 72.155" fill="rgb(194,120,60)"/>
    <path d="M 199.741 407.71 C 194.137 409.111 188.532 408.411 182.928 409.812 C 189.233 411.213 203.244 406.309 203.944 411.213 C 187.832 416.817 177.324 407.71 171.72 413.314 C 183.629 414.015 220.757 416.117 202.543 408.411" fill="rgb(199,142,87)"/>
    <path d="M 390.987 397.202 C 377.676 397.202 367.168 404.908 354.559 405.609 C 362.265 404.908 371.372 403.507 378.377 403.507 C 385.382 402.106 389.586 397.903 389.586 399.304" fill="rgb(240,196,136)"/>
    <path d="M 206.046 400.004 C 190.634 402.806 215.153 412.614 219.356 413.314 C 215.853 409.812 209.548 407.71 206.046 401.405" fill="rgb(114,43,14)"/>
    <path d="M 120.581 395.801 C 122.682 401.405 135.292 406.309 138.094 407.01 C 134.591 399.304 127.586 398.603 121.982 395.101" fill="rgb(187,108,45)"/>
    <path d="M 409.901 182.839 C 409.2 194.748 400.794 205.256 397.992 215.063 C 404.997 208.058 406.398 199.652 409.901 191.245 C 409.901 188.443 410.602 185.641 409.2 184.24" fill="rgb(120,42,14)"/>
    <path d="M 260.687 4.203 C 259.987 5.604 258.586 3.502 257.885 4.903 C 256.484 9.107 256.484 12.609 257.885 14.711 C 257.185 10.508 265.591 11.208 266.992 8.406 C 266.992 7.005 264.891 3.502 262.088 3.502" fill="rgb(114,34,12)"/>
    <path d="M 306.222 406.309 C 305.521 409.812 306.923 412.614 309.725 414.015 C 312.527 415.416 314.628 417.518 316.73 416.117 C 319.532 411.913 316.73 413.314 316.029 410.512 C 312.527 408.411 309.024 409.812 306.923 407.71" fill="rgb(102,31,12)"/>
    <path d="M 124.784 282.315 C 125.484 299.828 123.383 313.138 122.682 329.25 C 125.484 336.256 121.982 348.865 124.784 351.668 C 120.581 330.652 128.286 303.331 126.185 283.015" fill="rgb(227,173,109)"/>
    <path d="M 118.479 80.561 C 121.281 96.673 112.174 119.791 117.078 133.802 C 119.88 114.187 117.078 98.775 119.88 81.261" fill="rgb(166,114,66)"/>
    <path d="M 119.18 23.818 C 117.778 32.224 118.479 42.732 117.778 51.839 C 120.581 51.839 118.479 50.438 121.281 46.935 C 123.383 40.631 120.581 32.925 118.479 25.219" fill="rgb(197,132,71)"/>
    <path d="M 219.356 7.005 C 227.062 4.903 252.281 17.513 254.383 13.31 C 244.575 9.807 234.067 9.107 223.559 4.903" fill="rgb(228,174,109)"/>
    <path d="M 404.297 37.828 C 402.896 40.631 402.896 60.245 396.591 56.743 C 401.495 58.844 404.297 56.042 407.099 57.443 C 400.094 55.342 409.2 41.331 404.997 37.128" fill="rgb(122,51,18)"/>
    <path d="M 400.094 60.946 C 400.794 61.647 400.094 62.347 400.094 67.951 C 403.596 69.352 407.099 70.053 408.5 67.951 C 409.2 63.048 404.997 61.647 402.896 60.245" fill="rgb(100,31,13)"/>
    <path d="M 119.18 369.881 C 114.276 371.983 115.677 381.09 117.078 384.593 C 128.286 391.598 139.495 392.999 147.201 402.106 C 140.196 392.999 129.688 389.496 119.88 385.293 C 115.677 381.09 116.377 374.085 117.778 369.881" fill="rgb(110,52,23)"/>
    <path d="M 116.377 384.593 C 114.976 385.994 117.778 386.694 116.377 389.496 C 128.987 391.598 140.896 400.705 146.5 405.609 C 138.094 392.999 125.484 393.7 115.677 385.994" fill="rgb(236,197,145)"/>
    <path d="M 400.094 269.705 C 405.698 272.507 402.195 284.416 402.195 288.619 C 400.094 284.416 399.393 277.411 399.393 272.507" fill="rgb(188,119,61)"/>
    <path d="M 318.131 399.304 C 320.933 404.208 339.147 402.806 345.452 404.908 C 337.046 401.405 330.741 400.004 322.334 399.304" fill="rgb(241,201,139)"/>
    <path d="M 203.944 398.603 C 202.543 400.004 195.538 400.705 200.441 404.208 C 196.238 400.705 203.244 400.705 204.645 400.004 C 208.848 407.01 215.853 409.111 220.757 411.913 C 225.661 409.111 231.965 416.817 237.57 413.314 C 235.468 415.416 229.163 411.913 221.457 410.512 C 213.752 407.01 210.249 404.908 207.447 398.603 L 206.046 398.603 L 205.345 398.603" fill="rgb(169,102,51)"/>
    <path d="M 119.88 11.208 C 121.982 17.513 125.484 34.326 124.784 35.026 C 129.688 25.219 121.281 20.315 121.281 11.909" fill="rgb(178,103,45)"/>
    <path d="M 121.281 77.058 C 119.18 89.668 120.581 138.705 114.976 132.4 C 119.18 138.005 119.18 136.604 121.281 137.304 C 118.479 120.491 121.982 98.074 121.982 79.16" fill="rgb(201,142,83)"/>
    <path d="M 126.185 37.828 C 121.281 49.737 122.682 53.24 118.479 72.155 C 119.88 63.748 122.682 58.144 124.083 51.839 C 126.185 50.438 126.185 51.839 127.586 50.438 C 121.982 47.636 126.885 41.331 126.885 39.229" fill="rgb(184,106,46)"/>
    <path d="M 116.377 210.86 C 116.377 224.871 128.987 234.678 126.885 249.39 C 128.987 248.689 129.688 249.39 130.388 250.09 C 128.987 236.079 119.88 224.871 116.377 212.261" fill="rgb(240,197,140)"/>
    <path d="M 343.35 12.609 C 351.757 11.909 365.767 16.812 374.874 14.01 C 366.468 11.909 355.96 11.208 346.853 11.909" fill="rgb(194,120,53)"/>
    <path d="M 322.334 406.309 C 323.735 408.411 325.136 411.213 328.639 411.213 C 332.842 410.512 336.345 409.111 339.848 409.812 C 335.644 409.111 330.741 405.609 323.735 405.609" fill="rgb(191,115,56)"/>
    <path d="M 221.457 10.508 C 209.548 11.208 199.741 11.909 189.233 16.112 C 200.441 16.812 209.548 10.508 221.457 11.208 C 257.185 17.513 255.083 16.112 220.056 9.807" fill="rgb(177,110,50)"/>
    <path d="M 145.099 344.662 C 148.602 343.261 144.399 348.865 147.901 348.865 C 145.099 343.962 150.704 349.566 151.404 348.165 C 149.302 350.967 150.704 353.769 145.8 354.47 C 140.896 350.266 145.8 350.266 144.399 346.764" fill="rgb(232,188,119)"/>
    <path d="M 117.078 9.807 C 120.581 16.812 117.778 27.32 124.083 32.925 C 122.682 25.219 120.581 16.112 118.479 10.508" fill="rgb(118,49,14)"/>
    <path d="M 121.982 357.272 C 124.784 360.774 115.677 361.475 117.778 365.678 C 121.281 364.277 124.083 365.678 123.383 369.181 C 121.982 359.373 140.896 356.571 121.281 360.074" fill="rgb(178,99,42)"/>
    <path d="M 267.693 8.406 C 248.778 21.716 264.19 9.107 271.896 19.615 C 268.393 17.513 269.794 13.31 268.393 10.508 L 268.393 9.807 L 267.693 11.208 L 267.693 10.508" fill="rgb(178,101,44)"/>
    <path d="M 121.281 353.069 C 115.677 353.769 115.677 358.673 116.377 363.577 C 119.88 365.678 122.682 367.78 125.484 369.881 C 121.982 367.78 122.682 364.978 117.078 365.678 C 117.778 362.176 119.88 360.774 121.281 358.673 C 120.581 357.272 121.982 355.17 121.281 353.769" fill="rgb(107,38,16)"/>
    <path d="M 298.516 413.314 C 292.912 414.716 286.607 416.117 282.404 416.117 C 296.415 418.919 302.719 416.117 302.019 412.614" fill="rgb(172,110,55)"/>
    <path d="M 171.72 395.101 L 173.121 393.7 C 175.923 397.903 177.324 395.101 180.826 395.801 C 175.923 399.304 168.217 404.208 171.019 395.801" fill="rgb(215,159,94)"/>
    <path d="M 120.581 252.192 C 117.078 252.892 115.677 256.395 116.377 260.598 L 117.078 261.999 L 117.778 262.7 C 118.479 264.801 120.581 264.801 121.982 266.202 C 120.581 264.801 118.479 264.801 117.778 262.7 C 117.078 257.796 121.982 261.299 122.682 257.796 C 121.982 256.395 121.982 254.293 120.581 252.892" fill="rgb(108,45,16)"/>
    <path d="M 400.094 267.603 C 400.094 268.304 399.393 269.005 397.992 268.304 C 397.992 284.416 398.692 301.93 403.596 313.138 C 407.099 280.213 397.992 320.844 397.992 263.4 C 400.094 267.603 401.495 268.304 402.195 267.603 C 404.297 271.807 404.297 274.609 404.997 277.411 C 404.297 274.609 404.997 270.406 404.297 267.603 C 402.896 267.603 402.195 267.603 401.495 268.304" fill="rgb(217,171,118)"/>
    <path d="M 175.222 15.411 C 184.329 16.112 175.222 18.213 172.42 16.812 C 172.42 18.914 173.121 21.016 174.522 21.716 C 172.42 23.117 169.618 24.518 171.72 25.919 C 169.618 21.016 194.837 16.112 178.024 15.411" fill="rgb(178,104,46)"/>
    <path d="M 398.692 257.095 C 397.992 261.299 398.692 261.299 399.393 264.101 C 400.094 266.903 402.896 266.903 403.596 266.903 C 405.698 262.7 402.896 259.197 400.094 258.497" fill="rgb(107,38,18)"/>
    <path d="M 404.297 70.753 C 403.596 78.459 403.596 83.363 404.997 89.668 C 406.398 84.064 407.099 76.358 405.698 70.753" fill="rgb(189,112,52)"/>
    <path d="M 119.18 29.422 C 121.281 32.925 121.281 41.331 120.581 46.235 C 117.078 42.732 118.479 36.427 117.778 32.224" fill="rgb(191,123,60)"/>
    <path d="M 334.944 84.764 C 334.944 83.363 335.644 84.064 337.046 84.064 C 339.848 85.465 338.447 86.866 341.249 88.267 C 337.746 88.967 324.436 85.465 333.543 84.064" fill="rgb(229,187,122)"/>
    <path d="M 121.281 4.903 C 121.982 8.406 123.383 8.406 124.083 11.909 C 126.885 6.304 133.891 9.807 137.393 11.208 C 133.891 8.406 128.286 4.203 121.982 5.604" fill="rgb(172,101,46)"/>
    <path d="M 402.195 384.593 C 402.195 383.192 403.596 385.293 404.997 385.293 C 406.398 388.796 405.698 390.197 404.997 392.999 C 407.799 383.192 395.89 394.4 400.094 384.593" fill="rgb(205,123,53)"/>
    <path d="M 375.575 398.603 C 369.27 399.304 363.666 402.106 358.062 402.806 C 348.955 401.405 341.249 401.405 334.243 399.304 C 342.65 400.705 349.655 405.609 360.163 403.507 C 365.767 400.705 370.671 400.004 374.874 398.603" fill="rgb(117,48,15)"/>
    <path d="M 145.099 405.609 C 136.693 409.812 141.597 418.919 149.302 414.015 C 150.003 411.213 150.704 409.111 150.003 406.309 C 150.704 408.411 150.003 410.512 148.602 411.913 C 145.099 414.015 142.998 411.913 142.297 411.213 C 142.998 409.111 146.5 409.812 146.5 406.309" fill="rgb(100,44,20)"/>
    <path d="M 120.581 138.005 C 117.778 138.005 116.377 140.106 115.677 142.908 C 114.276 148.513 114.976 152.716 117.778 155.518 C 112.174 151.315 118.479 146.411 117.078 141.507 C 119.18 136.604 122.682 141.507 123.383 142.208 C 125.484 139.406 123.383 138.005 121.982 137.304" fill="rgb(111,46,19)"/>
    <path d="M 402.896 91.069 C 400.794 105.78 410.602 128.898 409.901 142.908 C 412.703 119.791 403.596 119.791 403.596 89.668" fill="rgb(218,173,114)"/>
    <path d="M 118.479 143.609 C 118.479 146.411 115.677 147.812 115.677 150.614 C 117.078 154.117 117.078 155.518 118.479 157.62 C 121.982 161.823 124.083 163.924 128.987 164.625 C 117.778 157.62 123.383 159.021 116.377 153.416 C 118.479 149.213 119.88 152.015 120.581 152.716 C 119.88 152.015 119.18 147.112 122.682 147.812 C 121.281 146.411 117.778 147.112 117.778 144.31" fill="rgb(175,105,51)"/>
    <path d="M 392.388 22.417 C 391.687 30.823 386.783 38.529 385.382 46.235 L 383.981 46.235 L 383.981 44.834 L 384.682 46.935 L 386.083 47.636 C 389.586 40.631 392.388 29.422 393.789 22.417" fill="rgb(166,102,51)"/>
    <path d="M 116.377 390.897 C 124.784 394.4 140.196 399.304 142.998 406.309 C 142.998 401.405 137.393 400.004 134.591 397.202 C 127.586 395.801 124.083 390.197 118.479 390.897" fill="rgb(223,173,110)"/>
    <path d="M 340.548 50.438 C 344.051 49.737 342.65 54.641 340.548 55.342 C 337.746 54.641 335.644 55.342 334.243 53.941 C 334.243 50.438 337.746 53.24 339.147 51.139" fill="rgb(229,187,121)"/>
    <path d="M 116.377 161.823 C 119.18 167.427 113.575 175.834 118.479 178.636 C 119.18 179.336 114.976 171.63 117.778 167.427 C 121.281 171.63 128.987 163.924 135.992 170.93 C 131.089 162.523 123.383 172.331 117.778 163.224" fill="rgb(167,109,59)"/>
    <path d="M 402.195 342.561 C 409.2 345.363 404.297 354.47 406.398 356.571 C 409.901 353.769 409.2 350.967 409.2 348.165 C 407.099 346.063 404.997 346.063 404.297 343.261" fill="rgb(105,40,20)"/>
    <path d="M 396.591 4.203 C 390.286 5.604 384.682 4.203 377.676 5.604 C 382.58 5.604 390.286 4.203 388.184 11.208 C 390.286 4.203 401.495 3.502 397.992 4.903" fill="rgb(229,193,137)"/>
    <path d="M 400.794 271.106 C 399.393 276.71 400.794 283.015 400.794 288.619 C 402.896 283.015 403.596 276.71 401.495 270.406" fill="rgb(184,111,51)"/>
    <path d="M 195.538 400.004 C 193.436 403.507 190.634 405.609 187.131 407.71 C 192.035 403.507 207.447 409.111 195.538 401.405" fill="rgb(242,197,137)"/>
    <path d="M 408.5 208.759 C 404.997 212.261 404.297 217.866 402.896 222.069 C 407.799 219.967 408.5 214.363 408.5 210.16" fill="rgb(184,108,50)"/>
    <path d="M 130.388 80.561 C 129.688 81.962 127.586 81.962 126.885 82.663 C 126.185 85.465 126.185 86.165 126.885 87.566 C 122.682 105.78 128.286 127.497 126.885 145.01 C 128.286 124.695 122.682 105.78 128.286 84.064 C 128.286 84.064 134.591 79.86 132.49 81.261" fill="rgb(169,105,55)"/>
    <path d="M 123.383 47.636 C 118.479 51.139 121.281 58.144 117.778 60.946 C 117.078 67.251 118.479 70.753 119.18 74.256 C 115.677 66.55 121.982 57.443 122.682 49.037" fill="rgb(107,45,20)"/>
    <path d="M 213.051 9.107 C 204.645 12.609 231.265 7.005 235.468 11.909 C 229.864 9.107 222.859 9.107 215.853 7.705" fill="rgb(126,53,12)"/>
    <path d="M 397.992 281.614 C 395.89 299.828 403.596 315.94 404.997 331.352 C 406.398 303.331 399.393 320.844 397.291 280.213" fill="rgb(231,193,145)"/>
    <path d="M 388.885 399.304 C 381.88 405.609 370.671 403.507 360.864 404.908 C 367.869 406.309 395.89 402.806 388.885 400.004" fill="rgb(226,172,110)"/>
    <path d="M 316.73 402.106 C 330.741 404.208 343.35 407.01 358.762 405.609 C 345.452 404.908 334.243 404.208 318.832 402.106" fill="rgb(226,171,109)"/>
    <path d="M 346.853 4.203 C 326.537 9.807 360.864 5.604 371.372 4.203 C 362.965 3.502 352.457 6.304 342.65 4.203" fill="rgb(223,194,147)"/>
    <path d="M 145.8 344.662 C 146.5 350.266 142.297 349.566 144.399 353.769 C 150.704 353.069 148.602 350.967 150.704 348.865 C 147.901 346.764 146.5 350.266 145.099 346.764" fill="rgb(230,186,118)"/>
    <path d="M 182.228 23.818 C 185.03 22.417 187.832 25.919 189.233 25.919 C 185.73 28.021 180.126 28.021 180.826 23.818" fill="rgb(227,162,89)"/>
    <path d="M 171.019 37.828 C 175.222 37.828 174.522 44.133 175.222 46.935 C 172.42 44.834 173.121 41.331 169.618 39.229" fill="rgb(196,115,49)"/>
    <path d="M 121.982 88.267 C 121.281 103.679 120.581 121.192 119.18 136.604 C 120.581 123.994 121.281 104.379 122.682 89.668" fill="rgb(230,173,107)"/>
    <path d="M 398.692 68.652 C 401.495 79.16 402.195 92.47 401.495 103.679 C 403.596 93.171 400.094 77.058 400.794 68.652" fill="rgb(245,195,131)"/>
    <path d="M 172.42 394.4 C 168.217 403.507 174.522 398.603 179.425 397.202 C 177.324 397.202 175.222 397.903 173.821 394.4" fill="rgb(212,157,92)"/>
    <path d="M 407.799 68.652 C 407.799 74.256 408.5 85.465 407.799 92.47 C 409.901 86.165 407.799 76.358 410.602 69.352" fill="rgb(210,168,121)"/>
    <path d="M 365.767 5.604 C 368.57 4.903 372.773 5.604 375.575 4.903 C 372.773 7.705 369.27 7.705 366.468 7.005" fill="rgb(224,185,126)"/>
    <path d="M 236.869 1.401 C 243.174 3.502 246.677 2.802 258.586 4.903 C 260.687 0 243.875 2.101 237.57 1.401" fill="rgb(207,168,120)"/>
    <path d="M 393.789 48.336 C 395.19 46.935 396.591 50.438 397.992 51.139 C 396.591 52.54 395.89 54.641 395.19 54.641 C 393.088 52.54 391.687 51.139 393.789 49.737" fill="rgb(202,125,60)"/>
    <path d="M 391.687 253.593 C 397.992 253.593 393.789 264.801 397.992 266.202 C 398.692 263.4 395.89 258.497 398.692 257.095 C 397.291 256.395 396.591 254.994 393.789 254.293" fill="rgb(169,100,48)"/>
    <path d="M 336.345 84.764 C 325.136 84.764 336.345 87.566 339.147 89.668 C 337.046 87.566 339.848 84.764 336.345 84.064" fill="rgb(229,186,121)"/>
    <path d="M 397.992 308.234 C 400.794 316.641 402.195 325.748 402.896 334.855 C 404.997 326.448 400.794 317.341 399.393 308.935" fill="rgb(118,53,19)"/>
    <path d="M 122.682 73.556 C 112.875 74.957 131.789 78.459 141.597 81.261 C 135.992 78.459 125.484 77.058 123.383 73.556" fill="rgb(168,110,61)"/>
    <path d="M 117.778 114.187 C 119.88 114.887 116.377 121.192 117.078 123.994 C 114.976 121.192 114.976 118.39 117.078 116.288" fill="rgb(170,122,79)"/>
    <path d="M 117.078 220.668 C 121.281 227.673 129.688 245.887 122.682 250.791 C 127.586 240.283 121.982 229.074 117.078 221.368" fill="rgb(226,174,109)"/>
    <path d="M 389.586 59.545 C 391.687 59.545 393.088 58.844 392.388 64.449 C 388.885 63.748 390.286 62.347 388.184 60.946" fill="rgb(223,159,92)"/>
    <path d="M 123.383 352.368 C 123.383 355.871 126.885 356.571 128.987 355.871 C 130.388 352.368 126.885 352.368 125.484 353.069" fill="rgb(109,28,9)"/>
    <path d="M 157.709 9.807 C 145.099 14.711 161.212 7.005 161.912 12.609 C 164.014 14.01 164.014 21.016 166.816 26.62 C 171.72 17.513 161.912 25.919 164.714 9.807 C 161.912 10.508 159.81 10.508 158.409 9.807" fill="rgb(163,114,70)"/>
  </g>
  <g transform="matrix(0.094625, 0, 0, -0.094625, 99.2575, 549.714661)" fill="#000000" stroke="none">
    <path d="M 1787.843 5274.022 C 1787.843 5260.519 1778.841 5256.018 1767.59 5262.77 C 1705.704 5299.901 1635.942 5023.104 1673.073 4892.581 C 1692.202 4829.571 1693.327 4831.821 1742.835 5023.104 C 1776.591 5154.751 1840.727 5145.75 1927.367 4998.349 L 1991.503 4889.206 L 1945.37 4831.821 C 1920.616 4800.316 1900.362 4745.181 1900.362 4710.3 C 1900.362 4650.665 1894.736 4647.289 1832.851 4659.667 C 1795.719 4667.543 1765.339 4664.167 1766.464 4654.041 C 1767.59 4615.784 1850.854 4532.52 1886.86 4532.52 C 1931.868 4532.52 1932.993 4539.271 1868.857 4407.623 C 1808.096 4282.727 1747.336 4215.216 1607.812 4116.199 C 1491.917 4034.06 1450.285 3945.169 1450.285 3776.39 C 1450.285 3552.477 1403.027 3361.194 1323.139 3255.426 C 1254.502 3165.411 1203.868 3038.264 1202.743 2957.25 C 1202.743 2939.247 1175.738 2868.36 1144.233 2799.723 C 1111.602 2732.212 1071.095 2620.818 1053.092 2552.181 C 1035.089 2484.67 1005.834 2405.906 987.831 2378.902 C 937.198 2301.263 947.324 2275.384 1065.469 2162.865 C 1126.23 2104.355 1181.364 2044.719 1185.865 2028.967 C 1218.496 1938.951 1230.873 2078.475 1219.621 2417.158 C 1215.12 2545.43 1313.012 2733.337 1450.285 2855.983 C 1500.919 2902.116 1562.805 3004.508 1562.805 3043.89 C 1562.805 3095.649 1485.166 3048.391 1462.662 2984.255 C 1450.285 2944.873 1416.53 2890.864 1388.4 2862.734 L 1337.766 2812.101 L 1338.891 2868.36 C 1338.891 2898.74 1353.519 2942.623 1372.647 2967.377 C 1390.65 2991.006 1405.278 3029.263 1405.278 3051.767 C 1405.278 3074.27 1415.404 3092.273 1427.781 3092.273 C 1440.159 3092.273 1450.285 3103.525 1450.285 3115.903 C 1450.285 3129.405 1466.038 3156.409 1485.166 3175.538 C 1504.295 3193.541 1513.296 3228.422 1506.545 3249.8 C 1489.667 3304.935 1517.797 3420.83 1540.301 3384.824 C 1549.302 3370.196 1579.682 3346.567 1608.937 3331.939 C 1637.067 3317.312 1665.197 3291.433 1670.823 3274.555 C 1678.699 3249.8 1668.573 3252.051 1628.066 3280.181 C 1567.305 3322.938 1518.922 3329.689 1558.304 3290.307 C 1572.931 3275.68 1585.308 3245.3 1585.308 3222.796 C 1585.308 3200.292 1596.56 3182.289 1608.937 3182.289 C 1622.44 3182.289 1626.94 3192.416 1619.064 3204.793 C 1611.188 3217.17 1614.563 3227.297 1626.94 3227.297 C 1638.192 3227.297 1653.945 3212.669 1660.696 3193.541 C 1668.573 3175.538 1662.947 3159.785 1649.444 3159.785 C 1634.817 3159.785 1640.443 3136.156 1661.821 3103.525 C 1710.205 3029.263 1689.951 3032.638 1613.438 3110.277 C 1579.682 3145.158 1553.803 3168.787 1557.179 3163.161 C 1559.429 3157.535 1551.553 3139.532 1538.05 3123.779 C 1518.922 3100.15 1524.548 3095.649 1560.554 3103.525 C 1616.814 3113.652 1615.689 3119.278 1577.432 2997.757 C 1530.174 2848.107 1495.293 2623.068 1494.168 2462.166 C 1493.043 2382.277 1491.917 2179.742 1490.792 2012.089 C 1487.417 1666.655 1511.046 1001.666 1530.174 892.522 C 1551.553 766.501 1502.044 657.357 1379.398 559.465 C 1073.346 316.424 1056.468 279.292 1217.37 206.155 C 1317.513 161.147 1354.644 175.775 1484.041 313.048 C 1533.55 364.807 1602.186 414.316 1635.942 422.192 C 1697.828 437.945 1697.828 439.07 1697.828 625.852 C 1697.828 734.995 1712.455 853.141 1731.583 909.4 C 1774.341 1029.796 1774.341 1052.3 1731.583 1036.547 C 1683.2 1017.419 1643.818 1099.558 1685.45 1133.314 C 1720.331 1162.569 1764.214 1098.433 1820.474 934.154 L 1848.603 853.141 L 1899.237 951.032 C 1926.242 1006.167 1979.126 1090.556 2015.132 1140.065 C 2056.764 1198.575 2080.393 1259.335 2080.393 1307.718 C 2080.393 1395.483 2140.028 1524.88 2170.408 1505.752 C 2207.54 1483.248 2327.935 1208.701 2327.935 1149.066 C 2327.935 1116.436 2354.94 1021.919 2386.445 937.53 C 2477.586 703.49 2480.962 382.81 2394.322 187.027 C 2351.564 90.26 2338.062 35.126 2352.69 17.123 C 2379.694 -14.383 2559.725 -7.632 2649.74 28.375 C 2684.621 43.002 2721.753 54.254 2733.005 54.254 C 2774.637 54.254 2765.635 182.526 2716.127 297.296 C 2687.997 363.682 2671.119 426.693 2677.87 439.07 C 2685.747 450.322 2674.495 504.331 2654.241 559.465 C 2611.484 669.734 2615.985 832.887 2666.618 1005.042 C 2702.624 1129.938 2674.495 1279.589 2594.606 1389.857 C 2554.099 1446.117 2545.097 1504.627 2528.22 1817.43 C 2518.093 2017.715 2497.839 2231.501 2485.462 2293.387 C 2471.96 2355.272 2462.958 2476.793 2465.209 2563.433 C 2466.334 2650.073 2456.207 2777.22 2440.455 2844.731 C 2388.696 3068.644 2421.326 3294.808 2504.591 3294.808 C 2533.846 3294.808 2575.478 3130.53 2575.478 3014.635 C 2575.478 2934.747 2595.731 2872.861 2656.492 2763.717 C 2762.26 2574.685 2806.142 2412.657 2767.886 2356.398 C 2727.379 2297.888 2642.989 2005.338 2642.989 1924.324 C 2642.989 1839.934 2677.87 1832.058 2698.124 1913.072 C 2707.125 1952.454 2722.878 1967.081 2745.382 1958.08 C 2763.385 1950.203 2790.389 1938.951 2806.142 1933.325 C 2821.895 1926.574 2883.78 1965.956 2943.416 2019.965 L 3053.684 2117.857 L 3025.555 2284.385 C 3009.802 2375.526 2982.797 2506.048 2965.919 2573.56 C 2949.042 2641.071 2935.539 2782.846 2935.539 2888.614 C 2934.414 3029.263 2923.162 3106.901 2891.657 3175.538 C 2845.524 3276.805 2826.396 3571.605 2855.651 3733.633 C 2878.154 3861.905 2829.771 3990.177 2734.13 4054.313 C 2691.373 4082.443 2608.108 4151.08 2549.598 4205.089 C 2489.963 4259.098 2411.2 4322.109 2374.068 4344.613 C 2302.056 4386.245 2284.053 4457.132 2332.436 4505.515 C 2347.064 4520.143 2360.566 4595.531 2362.816 4673.169 C 2365.067 4785.688 2379.694 4838.572 2437.079 4939.839 C 2513.592 5074.863 2523.719 5150.25 2476.461 5214.386 C 2438.204 5262.77 2344.813 5181.756 2246.922 5014.102 C 2173.784 4889.206 2165.908 4890.331 2073.642 5033.23 C 2030.885 5098.492 1978.001 5167.128 1954.371 5186.257 C 1872.232 5254.893 1787.843 5298.776 1787.843 5274.022 Z M 2129.901 4714.801 C 2120.9 4691.172 2128.776 4686.671 2156.906 4696.798 C 2182.786 4706.925 2189.537 4703.549 2179.41 4685.546 C 2168.158 4668.668 2174.909 4664.167 2197.413 4673.169 C 2215.416 4679.92 2244.671 4676.544 2262.674 4665.292 C 2285.178 4651.79 2286.303 4646.164 2266.05 4645.039 C 2250.297 4645.039 2237.92 4630.412 2237.92 4611.283 C 2237.92 4593.28 2224.418 4577.527 2206.415 4577.527 C 2189.537 4577.527 2162.532 4560.65 2144.529 4539.271 C 2127.651 4519.017 2124.276 4506.64 2136.653 4514.517 C 2165.908 4531.395 2260.424 4495.388 2260.424 4468.384 C 2260.424 4456.007 2222.167 4436.878 2176.034 4424.501 L 2091.645 4401.997 L 2174.909 4399.747 C 2219.917 4398.622 2264.925 4386.245 2273.926 4371.617 C 2285.178 4353.614 2279.552 4351.364 2258.173 4364.866 C 2232.294 4380.619 2231.169 4377.243 2255.923 4347.988 C 2279.552 4318.733 2278.427 4310.857 2250.297 4299.605 C 2231.169 4292.854 2215.416 4295.104 2215.416 4306.356 C 2215.416 4316.483 2194.037 4319.858 2167.033 4313.107 C 2137.778 4305.231 2108.523 4314.232 2093.895 4334.486 C 2080.393 4352.489 2046.637 4379.494 2018.507 4395.246 C 1978.001 4416.625 1972.375 4430.127 1989.252 4462.758 C 2001.63 4485.262 2003.88 4511.141 1996.004 4519.017 C 1987.002 4528.019 1998.254 4528.019 2019.633 4520.143 C 2041.011 4512.266 2057.889 4511.141 2057.889 4519.017 C 2057.889 4526.894 2030.885 4543.772 1998.254 4556.149 C 1956.622 4571.902 1945.37 4586.529 1961.123 4602.282 C 1978.001 4619.16 1998.254 4618.034 2029.759 4597.781 C 2056.764 4580.903 2090.52 4577.527 2116.399 4588.779 C 2140.028 4598.906 2167.033 4605.657 2176.034 4603.407 C 2209.79 4596.656 2191.787 4634.912 2147.905 4661.917 C 2111.898 4684.421 2093.895 4684.421 2059.014 4663.042 C 2034.26 4647.289 2007.256 4643.914 1997.129 4654.041 C 1987.002 4665.292 1991.503 4677.67 2006.13 4683.296 C 2020.758 4688.922 2028.634 4705.799 2021.883 4720.427 C 2015.132 4738.43 2034.26 4747.432 2077.017 4747.432 C 2124.276 4746.306 2138.903 4737.305 2129.901 4714.801 Z M 2053.388 4297.355 C 2060.14 4290.603 2047.762 4284.977 2026.384 4284.977 C 2005.005 4284.977 1992.628 4275.976 1999.379 4265.849 C 2006.13 4254.597 2042.136 4248.971 2080.393 4253.472 C 2146.779 4261.348 2171.534 4234.344 2123.15 4205.089 C 2109.648 4196.087 2089.395 4202.838 2079.268 4218.591 C 2057.889 4253.472 1990.378 4209.59 1990.378 4161.206 C 1990.378 4145.454 1974.625 4119.574 1955.497 4103.821 C 1935.243 4088.069 1923.991 4055.438 1930.742 4032.934 C 1936.368 4010.43 1932.993 3987.927 1922.866 3981.175 C 1912.739 3974.424 1909.364 3950.795 1916.115 3926.041 C 1925.116 3891.16 1917.24 3884.409 1874.483 3893.41 L 1821.599 3903.537 L 1873.358 3881.033 C 1929.617 3856.279 1921.741 3805.645 1865.481 3827.024 C 1847.478 3833.775 1832.851 3829.275 1832.851 3816.897 C 1832.851 3803.395 1853.104 3789.893 1878.984 3785.392 C 1903.738 3782.016 1922.866 3768.514 1921.741 3756.137 C 1919.491 3743.76 1908.239 3735.884 1896.987 3739.259 C 1885.735 3742.635 1878.984 3728.007 1882.359 3706.629 C 1887.985 3673.998 1866.606 3663.871 1765.339 3651.494 C 1697.828 3643.618 1623.565 3630.115 1602.186 3621.114 C 1580.808 3612.112 1561.679 3613.238 1560.554 3624.489 C 1559.429 3634.616 1554.928 3671.748 1549.302 3705.503 C 1538.05 3769.639 1559.429 3784.267 1599.936 3743.76 C 1616.814 3726.882 1628.066 3729.132 1638.192 3755.012 C 1644.944 3774.14 1641.568 3789.893 1629.191 3789.893 C 1617.939 3789.893 1607.812 3804.52 1607.812 3821.398 C 1607.812 3839.401 1595.435 3859.655 1579.682 3866.406 C 1563.93 3873.157 1577.432 3877.658 1607.812 3876.533 C 1701.203 3873.157 1706.829 3877.658 1664.072 3924.916 C 1611.188 3983.426 1626.94 3995.803 1752.962 3998.053 C 1810.347 3999.179 1863.231 4009.305 1869.982 4020.557 C 1891.361 4054.313 1828.35 4081.318 1784.467 4058.814 C 1732.709 4030.684 1728.208 4031.809 1728.208 4070.066 C 1728.208 4088.069 1736.084 4098.195 1746.211 4091.444 C 1757.463 4084.693 1765.339 4089.194 1765.339 4101.571 C 1765.339 4112.823 1781.092 4128.576 1800.22 4136.452 C 1819.348 4143.203 1829.475 4140.953 1822.724 4129.701 C 1803.596 4097.07 1883.484 4077.942 1904.863 4109.447 C 1958.872 4189.336 1970.124 4226.467 1958.872 4274.851 C 1945.37 4324.359 2010.631 4340.112 2053.388 4297.355 Z M 2290.804 4161.206 C 2327.935 4124.075 2363.942 4117.324 2378.569 4144.328 C 2384.195 4153.33 2385.32 4148.829 2380.819 4133.076 C 2376.319 4112.823 2393.197 4108.322 2435.954 4116.199 C 2468.584 4122.95 2484.337 4121.825 2468.584 4113.948 C 2452.832 4107.197 2446.081 4091.444 2452.832 4080.192 C 2459.583 4068.94 2446.081 4059.939 2423.577 4059.939 C 2399.948 4059.939 2372.943 4052.063 2363.942 4043.061 C 2334.687 4013.806 2147.905 4022.808 2147.905 4052.063 C 2147.905 4094.82 2196.288 4113.948 2217.666 4080.192 C 2228.918 4062.189 2237.92 4055.438 2237.92 4063.315 C 2237.92 4072.316 2243.546 4097.07 2251.422 4119.574 C 2262.674 4154.455 2260.424 4155.58 2240.17 4127.451 C 2219.917 4099.321 2216.541 4102.696 2215.416 4144.328 C 2215.416 4202.838 2242.421 4209.59 2290.804 4161.206 Z M 2170.408 4149.954 C 2170.408 4137.577 2156.906 4127.451 2138.903 4127.451 C 2122.025 4127.451 2096.146 4112.823 2080.393 4093.695 C 2056.764 4065.565 2060.14 4059.939 2095.021 4059.939 C 2128.776 4058.814 2131.027 4055.438 2104.022 4038.56 C 2041.011 3999.179 2099.521 3980.05 2350.439 3962.047 C 2394.322 3958.672 2435.954 3966.548 2444.955 3980.05 C 2506.841 4072.316 2545.097 3815.772 2484.337 3715.63 C 2460.708 3676.248 2440.455 3655.995 2440.455 3671.748 C 2440.455 3687.5 2430.328 3699.877 2419.076 3699.877 C 2406.699 3699.877 2402.198 3685.25 2410.074 3666.122 C 2417.951 3644.743 2408.949 3632.366 2386.445 3632.366 C 2366.192 3632.366 2350.439 3622.239 2350.439 3609.862 C 2350.439 3580.607 2261.549 3581.732 2129.901 3612.112 C 1961.123 3651.494 1949.871 3657.12 2001.63 3678.499 C 2039.886 3694.251 2041.011 3696.502 2007.256 3698.752 C 1983.626 3698.752 1967.874 3717.88 1967.874 3743.76 C 1967.874 3767.389 1985.877 3791.018 2007.256 3795.519 C 2039.886 3803.395 2036.511 3810.146 1990.378 3830.4 C 1959.997 3843.902 1941.994 3855.154 1950.996 3856.279 C 1958.872 3856.279 1957.747 3881.033 1946.495 3910.288 C 1926.242 3963.172 1987.002 3983.426 2029.759 3937.293 C 2038.761 3926.041 2034.26 3924.916 2019.633 3932.792 C 1979.126 3956.421 1964.498 3911.414 2002.755 3878.783 C 2032.01 3855.154 2044.387 3856.279 2073.642 3886.659 C 2118.65 3931.667 2079.268 3993.553 2012.881 3981.175 C 1934.118 3965.423 1961.123 4101.571 2044.387 4138.702 C 2129.901 4175.834 2170.408 4179.209 2170.408 4149.954 Z M 2770.136 3838.276 C 2721.753 3785.392 2722.878 3685.25 2772.386 3657.12 C 2824.145 3626.74 2788.139 3625.615 2731.879 3655.995 C 2675.62 3685.25 2673.369 3806.771 2727.379 3848.403 C 2785.889 3892.285 2812.893 3886.659 2770.136 3838.276 Z M 2604.733 3685.25 C 2594.606 3659.37 2599.107 3652.619 2618.235 3664.996 C 2635.113 3675.123 2644.114 3670.622 2639.614 3651.494 C 2636.238 3634.616 2649.74 3586.233 2668.869 3542.35 C 2744.257 3371.321 2754.383 3318.437 2718.377 3283.556 C 2680.121 3245.3 2642.989 3239.674 2642.989 3272.304 C 2642.989 3284.681 2630.612 3294.808 2614.859 3294.808 C 2576.603 3294.808 2524.844 3380.323 2543.972 3411.828 C 2554.099 3426.456 2549.598 3430.956 2533.846 3420.83 C 2515.842 3409.578 2507.966 3432.082 2507.966 3493.967 C 2507.966 3599.735 2527.094 3659.37 2555.224 3642.493 C 2566.476 3635.741 2575.478 3650.369 2575.478 3676.248 C 2575.478 3701.003 2585.604 3722.381 2596.856 3722.381 C 2609.233 3722.381 2612.609 3705.503 2604.733 3685.25 Z M 1953.246 3603.111 C 1987.002 3635.741 1964.498 3590.734 1926.242 3545.726 C 1871.107 3482.715 1865.481 3483.84 1859.855 3565.979 C 1855.355 3626.74 1858.73 3632.366 1896.987 3612.112 C 1920.616 3599.735 1945.37 3595.234 1953.246 3603.111 Z M 1804.721 3529.973 C 1810.347 3452.335 1869.982 3342.066 1907.113 3340.941 C 1917.24 3339.816 1919.491 3348.817 1912.739 3361.194 C 1890.236 3396.075 1996.004 3589.609 2030.885 3577.231 C 2047.762 3570.48 2071.391 3564.854 2082.643 3564.854 C 2093.895 3564.854 2102.897 3550.227 2102.897 3532.224 C 2102.897 3511.97 2116.399 3504.094 2136.653 3511.97 C 2154.656 3518.721 2163.657 3534.474 2155.781 3546.851 C 2146.779 3561.479 2161.407 3563.729 2195.163 3552.477 C 2225.543 3542.35 2267.175 3535.599 2288.554 3536.724 C 2309.932 3537.85 2332.436 3529.973 2340.312 3518.721 C 2347.064 3506.344 2343.688 3497.343 2331.311 3497.343 C 2318.934 3497.343 2291.929 3490.592 2269.425 3482.715 C 2243.546 3471.463 2235.67 3475.964 2246.922 3493.967 C 2282.928 3552.477 2216.541 3514.221 2153.531 3441.083 C 2077.017 3351.068 2045.512 3343.191 2028.634 3409.578 C 2010.631 3474.839 1963.373 3452.335 1954.371 3375.822 C 1948.746 3322.938 1955.497 3315.062 1991.503 3324.063 C 2027.509 3334.19 2030.885 3328.564 2011.756 3292.558 C 1984.752 3243.049 1961.123 3239.674 1899.237 3277.93 C 1862.106 3301.559 1850.854 3300.434 1833.976 3273.429 C 1810.347 3235.173 1826.1 3198.042 1857.605 3217.17 C 1868.857 3223.921 1872.232 3241.924 1863.231 3254.301 C 1854.229 3270.054 1858.73 3272.304 1876.733 3262.178 C 1896.987 3249.8 1896.987 3237.423 1880.109 3220.545 C 1848.603 3189.04 1847.478 3137.281 1877.858 3137.281 C 1890.236 3137.281 1900.362 3158.66 1900.362 3184.539 C 1900.362 3223.921 1912.739 3229.547 1978.001 3223.921 C 2020.758 3220.545 2063.515 3226.171 2073.642 3237.423 C 2083.769 3247.55 2080.393 3249.8 2065.766 3241.924 C 2028.634 3221.671 2042.136 3288.057 2080.393 3322.938 C 2107.398 3346.567 2107.398 3345.442 2083.769 3312.811 C 2059.014 3281.306 2062.39 3271.179 2104.022 3248.675 C 2135.527 3231.797 2147.905 3231.797 2138.903 3246.425 C 2129.901 3259.927 2144.529 3283.556 2169.283 3299.309 C 2195.163 3315.062 2215.416 3337.565 2215.416 3347.692 C 2215.416 3358.944 2199.663 3355.569 2181.66 3339.816 C 2135.527 3301.559 2107.398 3331.939 2149.03 3372.446 C 2195.163 3417.454 2318.934 3446.709 2294.18 3407.327 C 2280.677 3384.824 2288.554 3381.448 2324.56 3390.449 C 2372.943 3402.827 2395.447 3356.694 2352.69 3329.689 C 2341.438 3322.938 2336.937 3297.059 2343.688 3272.304 C 2351.564 3243.049 2341.438 3222.796 2313.308 3211.544 C 2276.177 3196.916 2278.427 3193.541 2327.935 3181.164 L 2384.195 3166.536 L 2316.683 3137.281 C 2279.552 3120.403 2236.795 3109.151 2221.042 3112.527 C 2205.289 3114.777 2198.538 3102.4 2206.415 3083.272 C 2217.666 3052.892 2226.668 3052.892 2273.926 3084.397 C 2304.306 3104.651 2334.687 3114.777 2341.438 3108.026 C 2349.314 3101.275 2322.309 3078.771 2282.928 3058.518 C 2227.793 3030.388 2217.666 3015.76 2236.795 2992.131 C 2312.183 2900.991 2140.028 2738.963 1997.129 2764.843 C 1948.746 2773.844 1921.741 2792.972 1920.616 2817.727 C 1919.491 2840.23 1914.99 2844.731 1908.239 2827.853 C 1899.237 2807.6 1885.735 2806.475 1850.854 2824.478 C 1824.974 2839.105 1810.347 2840.23 1818.223 2826.728 C 1832.851 2803.099 1748.461 2779.47 1703.454 2794.098 C 1689.951 2798.598 1684.325 2818.852 1692.202 2839.105 C 1700.078 2861.609 1696.702 2869.485 1679.825 2859.359 C 1666.322 2850.357 1643.818 2863.859 1630.316 2888.614 C 1614.563 2920.119 1613.438 2934.747 1629.191 2934.747 C 1642.693 2934.747 1652.82 2923.495 1652.82 2911.118 C 1652.82 2897.615 1664.072 2894.24 1676.449 2902.116 C 1689.951 2909.992 1715.831 2897.615 1734.959 2875.111 C 1767.59 2834.604 1768.715 2834.604 1752.962 2878.487 C 1745.086 2903.241 1733.834 2953.875 1729.333 2991.006 C 1723.707 3028.138 1715.831 3070.895 1709.08 3086.648 C 1701.203 3109.151 1709.08 3110.277 1741.71 3092.273 C 1765.339 3079.896 1805.846 3069.77 1831.726 3069.77 C 1882.359 3069.77 1884.61 3067.519 1864.356 3015.76 C 1856.48 2995.507 1824.974 2979.754 1792.344 2979.754 C 1752.962 2979.754 1741.71 2971.878 1756.338 2957.25 C 1783.342 2930.246 1937.494 2922.369 2007.256 2943.748 C 2069.141 2964.002 2074.767 2923.495 2018.507 2860.484 C 1980.251 2816.601 1980.251 2816.601 2029.759 2846.982 C 2057.889 2863.859 2080.393 2886.363 2080.393 2896.49 C 2080.393 2906.617 2090.52 2908.867 2102.897 2900.991 C 2116.399 2893.114 2119.775 2877.362 2113.024 2866.11 C 2091.645 2830.104 2140.028 2842.481 2171.534 2879.612 C 2222.167 2940.373 2217.666 3056.267 2167.033 3010.134 C 2143.404 2989.881 2118.65 2978.629 2110.773 2987.631 C 2101.772 2995.507 2115.274 3020.261 2138.903 3041.64 C 2187.286 3086.648 2204.164 3137.281 2170.408 3137.281 C 2158.031 3137.281 2147.905 3127.154 2147.905 3114.777 C 2147.905 3102.4 2132.152 3092.273 2113.024 3092.273 C 2093.895 3092.273 2083.769 3082.147 2091.645 3069.77 C 2099.521 3057.393 2092.77 3047.266 2078.143 3047.266 C 2062.39 3047.266 2056.764 3040.515 2064.64 3032.638 C 2084.894 3013.51 2011.756 2958.376 1964.498 2958.376 C 1928.492 2957.25 1893.611 3032.638 1918.365 3057.393 C 1925.116 3064.144 1954.371 3069.77 1984.752 3069.77 C 2014.007 3069.77 2071.391 3094.524 2111.898 3126.029 C 2162.532 3164.286 2191.787 3174.413 2208.665 3157.535 C 2225.543 3140.657 2235.67 3154.159 2242.421 3200.292 C 2253.673 3282.431 2225.543 3276.805 2081.518 3166.536 C 1949.871 3067.519 1805.846 3065.269 1725.957 3160.91 C 1679.825 3218.295 1678.699 3225.046 1713.58 3253.176 C 1734.959 3270.054 1745.086 3272.304 1737.209 3258.802 C 1729.333 3245.3 1737.209 3235.173 1756.338 3235.173 C 1778.841 3235.173 1782.217 3241.924 1766.464 3257.677 C 1732.709 3291.433 1737.209 3346.567 1772.09 3333.065 C 1793.469 3325.188 1799.095 3339.816 1792.344 3387.074 C 1786.718 3423.08 1774.341 3452.335 1763.089 3452.335 C 1709.08 3452.335 1674.199 3583.983 1725.957 3594.109 C 1754.087 3599.735 1782.217 3605.361 1787.843 3606.486 C 1794.594 3608.737 1801.345 3573.856 1804.721 3529.973 Z M 1646.069 3540.1 C 1638.192 3513.095 1644.944 3504.094 1666.322 3513.095 C 1688.826 3520.972 1694.452 3513.095 1684.325 3488.341 C 1676.449 3469.213 1680.95 3452.335 1693.327 3452.335 C 1722.582 3452.335 1740.585 3349.943 1716.956 3312.811 C 1703.454 3290.307 1698.953 3290.307 1697.828 3311.686 C 1697.828 3327.439 1700.078 3344.317 1703.454 3348.817 C 1706.829 3353.318 1691.076 3376.947 1669.698 3401.701 C 1648.319 3425.33 1637.067 3451.21 1644.944 3460.211 C 1653.945 3468.088 1647.194 3474.839 1631.441 3474.839 C 1615.689 3474.839 1607.812 3488.341 1614.563 3506.344 C 1621.315 3523.222 1616.814 3546.851 1605.562 3558.103 C 1592.06 3571.605 1596.56 3579.482 1620.189 3579.482 C 1643.818 3579.482 1652.82 3565.979 1646.069 3540.1 Z M 2789.264 3073.145 C 2789.264 2978.629 2783.638 2966.252 2747.632 2975.253 C 2716.127 2983.13 2713.876 2989.881 2736.38 3004.508 C 2760.009 3019.136 2761.134 3028.138 2738.631 3050.641 C 2702.624 3086.648 2736.38 3182.289 2784.763 3182.289 C 2787.014 3182.289 2789.264 3132.78 2789.264 3073.145 Z M 1818.223 2692.83 C 1849.729 2630.945 1837.351 2543.18 1796.845 2538.679 C 1785.593 2537.554 1759.713 2529.677 1738.335 2520.676 C 1628.066 2471.167 1526.798 2594.938 1593.185 2696.206 C 1648.319 2780.595 1774.341 2779.47 1818.223 2692.83 Z M 2061.265 2585.937 C 2052.263 2477.918 2003.88 2427.285 1965.623 2486.92 C 1946.495 2518.425 1934.118 2488.045 1943.12 2432.911 C 1945.37 2421.659 1936.368 2420.534 1922.866 2428.41 C 1910.489 2436.286 1899.237 2429.535 1899.237 2412.657 C 1898.112 2396.905 1890.236 2403.656 1881.234 2428.41 C 1849.729 2511.674 1867.732 2619.693 1919.491 2655.699 C 1959.997 2683.829 1967.874 2683.829 1967.874 2657.949 C 1967.874 2641.071 1983.626 2627.569 2002.755 2627.569 C 2021.883 2627.569 2032.01 2639.946 2026.384 2654.574 C 2020.758 2670.326 2021.883 2688.329 2028.634 2696.206 C 2057.889 2724.336 2069.141 2684.954 2061.265 2585.937 Z M 2170.408 2638.821 C 2170.408 2627.569 2195.163 2625.319 2224.418 2632.07 C 2253.673 2639.946 2285.178 2635.445 2293.054 2621.943 C 2300.931 2608.441 2297.555 2597.189 2284.053 2597.189 C 2271.676 2597.189 2262.674 2585.937 2266.05 2571.309 C 2271.676 2543.18 2110.773 2470.042 2089.395 2491.421 C 2060.14 2519.551 2106.272 2684.954 2138.903 2672.577 C 2155.781 2665.826 2170.408 2651.198 2170.408 2638.821 Z M 2271.676 2467.792 C 2262.674 2446.413 2240.17 2385.653 2222.167 2332.769 C 2183.911 2222.5 2158.031 2199.996 2114.149 2237.127 C 2096.146 2251.755 2070.266 2256.256 2056.764 2247.254 C 2042.136 2238.252 2023.008 2242.753 2015.132 2256.256 C 2007.256 2269.758 1978.001 2274.259 1949.871 2267.507 C 1882.359 2249.504 1874.483 2077.35 1941.994 2089.727 C 2008.381 2103.229 2053.388 2066.098 2015.132 2030.092 C 1991.503 2006.463 1982.501 2006.463 1974.625 2028.967 C 1958.872 2070.599 1904.863 2062.722 1878.984 2014.339 C 1860.981 1981.709 1867.732 1956.954 1905.988 1907.446 C 1937.494 1865.814 1941.994 1854.562 1916.115 1873.69 C 1895.861 1891.693 1876.733 1896.194 1875.608 1884.942 C 1857.605 1747.669 1858.73 1738.667 1887.985 1763.421 C 1910.489 1782.55 1920.616 1781.424 1927.367 1761.171 C 1937.494 1730.791 1990.378 1754.42 1990.378 1789.301 C 1990.378 1801.678 1979.126 1805.053 1965.623 1797.177 C 1948.746 1785.925 1948.746 1796.052 1966.749 1829.808 C 1980.251 1855.687 1983.626 1877.066 1974.625 1877.066 C 1964.498 1877.066 1972.375 1887.192 1990.378 1899.57 C 2019.633 1917.573 2019.633 1920.948 1991.503 1922.073 C 1964.498 1922.073 1964.498 1926.574 1989.252 1950.203 C 2012.881 1972.707 2020.758 1972.707 2028.634 1950.203 C 2034.26 1934.451 2047.762 1926.574 2056.764 1933.325 C 2104.022 1962.58 2107.398 1653.152 2060.14 1593.517 C 2034.26 1560.887 2019.633 1522.63 2027.509 1509.128 C 2036.511 1494.5 2034.26 1490 2025.259 1499.001 C 2015.132 1508.003 1972.375 1488.874 1929.617 1456.244 C 1873.358 1412.361 1860.981 1392.108 1882.359 1378.605 C 1916.115 1356.102 1862.106 1307.718 1827.225 1329.097 C 1795.719 1348.225 1812.597 1621.647 1845.228 1621.647 C 1866.606 1621.647 1868.857 1607.02 1853.104 1567.638 C 1827.225 1497.876 1827.225 1488.874 1857.605 1506.877 C 1873.358 1517.004 1872.232 1502.377 1854.229 1469.746 C 1826.1 1417.987 1826.1 1416.862 1880.109 1452.868 C 1909.364 1473.122 1932.993 1510.253 1932.993 1536.132 C 1931.868 1560.887 1938.619 1580.015 1947.62 1577.765 C 1955.497 1575.514 1962.248 1583.39 1961.123 1595.768 C 1958.872 1608.145 1945.37 1616.021 1930.742 1611.52 C 1916.115 1608.145 1896.987 1616.021 1889.11 1629.523 C 1881.234 1643.026 1882.359 1652.027 1893.611 1649.777 C 1934.118 1643.026 1967.874 1653.152 1967.874 1672.281 C 1967.874 1700.41 1912.739 1690.284 1871.107 1655.403 C 1822.724 1616.021 1812.597 1646.401 1831.726 1773.548 C 1842.977 1839.934 1839.602 1908.571 1824.974 1947.953 C 1806.971 1996.336 1806.971 2024.466 1826.1 2054.846 C 1851.979 2096.478 1844.103 2124.608 1804.721 2124.608 C 1794.594 2124.608 1791.219 2114.481 1799.095 2102.104 C 1806.971 2089.727 1802.471 2079.6 1788.968 2079.6 C 1774.341 2079.6 1769.84 2057.096 1778.841 2023.341 C 1787.843 1988.46 1783.342 1967.081 1767.59 1967.081 C 1721.457 1967.081 1747.336 2131.359 1803.596 2199.996 C 1831.726 2234.877 1855.355 2281.01 1855.355 2302.388 C 1855.355 2339.52 2069.141 2458.79 2092.77 2435.161 C 2097.271 2429.535 2110.773 2385.653 2123.15 2337.269 C 2142.279 2251.755 2143.404 2251.755 2145.654 2318.141 C 2146.779 2357.523 2169.283 2414.908 2194.037 2447.538 C 2246.922 2515.05 2296.43 2527.427 2271.676 2467.792 Z M 1996.004 2167.365 C 1990.378 2143.736 1975.75 2124.608 1965.623 2124.608 C 1941.994 2124.608 1939.744 2172.991 1959.997 2225.875 C 1979.126 2276.509 2011.756 2224.75 1996.004 2167.365 Z M 2170.408 2135.86 C 2170.408 2105.48 2160.282 2079.6 2147.905 2079.6 C 2135.527 2079.6 2125.401 2068.348 2125.401 2055.971 C 2125.401 2042.469 2135.527 2037.968 2147.905 2045.845 C 2160.282 2053.721 2170.408 2043.594 2170.408 2024.466 C 2170.408 2005.338 2180.535 1989.585 2191.787 1989.585 C 2204.164 1989.585 2208.665 2005.338 2200.789 2023.341 C 2180.535 2077.35 2212.041 2143.736 2239.045 2100.979 C 2255.923 2075.1 2259.299 2075.1 2260.424 2098.729 C 2260.424 2124.608 2267.175 2124.608 2294.18 2102.104 C 2313.308 2086.351 2327.935 2062.722 2327.935 2049.22 C 2327.935 2034.593 2317.809 2039.093 2305.432 2057.096 C 2286.303 2086.351 2284.053 2085.226 2282.928 2051.471 C 2282.928 2030.092 2298.68 2012.089 2316.683 2012.089 C 2335.812 2012.089 2350.439 2001.962 2350.439 1989.585 C 2350.439 1977.208 2360.566 1967.081 2371.818 1967.081 C 2384.195 1967.081 2388.696 1985.084 2381.945 2006.463 C 2371.818 2040.219 2372.943 2040.219 2396.572 2004.212 C 2417.951 1970.457 2416.826 1958.08 2392.071 1942.327 C 2375.193 1931.075 2358.316 1932.2 2353.815 1945.702 C 2341.438 1980.583 2282.928 1970.457 2282.928 1932.2 C 2282.928 1913.072 2273.926 1902.945 2261.549 1909.696 C 2250.297 1916.447 2235.67 1914.197 2228.918 1902.945 C 2221.042 1891.693 2236.795 1877.066 2262.674 1870.315 C 2288.554 1863.563 2303.181 1846.685 2295.305 1834.308 C 2287.428 1821.931 2267.175 1817.43 2248.047 1824.182 C 2230.044 1830.933 2215.416 1825.307 2215.416 1811.805 C 2215.416 1798.302 2235.67 1787.05 2261.549 1787.05 C 2294.18 1787.05 2309.932 1767.922 2320.059 1718.414 C 2329.061 1676.781 2344.813 1654.278 2361.691 1659.904 C 2380.819 1667.78 2388.696 1648.652 2385.32 1599.143 C 2383.07 1560.887 2370.693 1530.506 2357.19 1532.757 C 2343.688 1535.007 2336.937 1502.377 2340.312 1453.993 L 2347.064 1370.729 L 2320.059 1450.618 C 2306.557 1494.5 2271.676 1558.636 2243.546 1594.642 C 2183.911 1668.905 2181.66 1688.033 2226.668 1704.911 C 2245.796 1712.788 2260.424 1730.791 2260.424 1745.418 C 2260.424 1767.922 2254.798 1767.922 2233.419 1746.543 C 2181.66 1694.785 2167.033 1720.664 2180.535 1848.936 C 2189.537 1938.951 2187.286 1963.706 2172.659 1929.95 C 2113.024 1796.052 2082.643 1896.194 2117.524 2107.73 C 2133.277 2202.246 2170.408 2222.5 2170.408 2135.86 Z M 2875.904 2158.364 C 2892.782 2113.356 2873.654 2064.973 2837.648 2064.973 C 2819.644 2064.973 2812.893 2087.477 2818.519 2127.984 C 2828.646 2197.746 2855.651 2211.248 2875.904 2158.364 Z M 1791.219 1685.783 C 1797.97 1592.392 1794.594 1573.264 1769.84 1578.89 C 1755.212 1582.265 1743.96 1576.639 1745.086 1567.638 C 1752.962 1521.505 1738.335 1499.001 1696.702 1487.749 C 1661.821 1478.748 1651.695 1484.374 1658.446 1513.629 C 1662.947 1533.882 1678.699 1548.51 1693.327 1545.134 C 1707.954 1541.758 1720.331 1554.135 1720.331 1572.139 C 1720.331 1590.142 1736.084 1613.771 1756.338 1625.023 C 1790.093 1643.026 1788.968 1646.401 1755.212 1659.904 C 1734.959 1667.78 1723.707 1684.658 1731.583 1697.035 C 1752.962 1730.791 1787.843 1724.04 1791.219 1685.783 Z M 1619.064 1412.361 C 1569.556 1363.978 1554.928 1385.357 1588.684 1458.494 C 1611.188 1509.128 1619.064 1513.629 1635.942 1484.374 C 1649.444 1460.745 1643.818 1437.115 1619.064 1412.361 Z M 2525.969 1144.565 C 2525.969 1101.808 2538.346 1050.049 2554.099 1032.046 C 2576.603 1003.916 2575.478 1000.541 2545.097 1012.918 C 2516.968 1023.045 2507.966 1014.043 2507.966 973.536 C 2509.091 929.654 2512.467 926.278 2532.72 954.408 C 2554.099 984.788 2555.224 984.788 2547.348 954.408 C 2528.22 883.521 2476.461 920.652 2470.835 1008.417 C 2467.459 1056.8 2453.957 1107.434 2441.58 1119.811 C 2392.071 1169.32 2416.826 1205.326 2511.342 1222.204 C 2519.218 1223.329 2525.969 1188.448 2525.969 1144.565 Z"/>
    <path d="M1932 3852 c19 -49 69 -54 122 -12 28 22 42 40 30 40 -12 0 -27 -9 -34 -20 -7 -11 -21 -20 -32 -20 -11 0 -15 9 -8 20 7 11 -10 20 -38 20 -36 0 -47 -8 -40 -28z"/>
    <path d="M1421 2791 c-39 -47 -18 -120 37 -128 51 -7 85 27 68 70 -15 39 -66 33 -66 -8 1 -27 4 -29 18 -8 12 19 21 21 31 5 16 -26 -37 -52 -68 -33 -34 22 -24 68 20 92 51 27 98 -5 101 -68 2 -36 4 -37 12 -7 21 80 -101 147 -153 85z"/>
  </g>
</svg>