<?xml version="1.0" encoding="utf-8"?>
<svg width="600px" height="600" xmlns="http://www.w3.org/2000/svg">
  <g transform="matrix(2.000004, 0, 0, 1.431543, -225.407364, 0.003305)">
    <path d="M 227.762 0.7 C 235.468 0 243.875 0.7 251.58 0 C 257.885 0 260.687 2.802 264.891 2.802 C 271.896 7.705 269.094 15.411 273.297 20.315 C 270.495 14.711 270.495 8.406 273.997 3.502 C 281.703 7.705 292.211 3.502 299.917 6.304 C 330.741 4.203 363.666 4.203 393.789 2.101 C 397.992 3.502 400.794 4.903 402.195 7.705 C 407.799 15.411 407.099 23.818 406.398 32.224 C 402.896 30.823 401.495 35.026 400.094 36.427 C 402.195 34.326 404.297 31.524 407.099 35.727 C 408.5 42.732 409.901 48.336 409.901 53.941 C 408.5 60.245 400.094 59.545 397.291 59.545 C 400.094 60.245 407.799 57.443 410.602 64.449 C 408.5 91.769 410.602 118.39 412.703 143.609 C 408.5 149.914 411.302 156.919 407.799 161.122 C 404.297 163.224 402.195 163.924 400.794 165.326 C 397.291 164.625 395.19 163.924 393.789 162.523 C 395.19 163.924 396.591 164.625 398.692 165.326 C 402.896 164.625 405.698 161.823 409.2 161.122 C 412.703 173.732 412.003 186.342 412.003 196.85 C 408.5 214.363 409.901 231.176 404.997 245.887 C 404.297 250.791 402.195 252.192 399.393 253.593 C 395.89 252.892 393.789 251.491 392.388 249.39 C 397.992 254.293 402.896 257.796 406.398 263.4 C 401.495 288.619 406.398 315.94 404.297 339.058 C 406.398 345.363 413.404 346.063 410.602 353.069 C 409.901 358.673 409.2 367.079 403.596 369.881 C 404.297 368.48 407.099 368.48 407.099 370.582 C 409.2 380.389 411.302 390.897 412.703 398.603 C 410.602 405.609 409.2 411.913 404.997 415.416 C 378.377 416.117 353.158 417.518 326.537 418.218 C 323.735 416.117 322.334 415.416 320.233 414.015 C 318.131 416.117 316.73 418.218 313.928 418.218 C 299.917 420.32 287.308 418.218 273.997 417.518 C 266.992 417.518 264.19 413.314 261.388 409.812 C 259.987 407.01 261.388 405.609 262.088 404.208 C 259.987 400.705 259.987 397.903 257.185 396.502 C 258.586 397.903 260.687 400.004 261.388 402.106 C 258.586 409.111 261.388 413.314 258.586 417.518 C 252.281 415.416 243.875 416.117 239.671 412.614 C 240.372 414.716 237.57 415.416 236.169 414.716 C 212.35 412.614 186.431 418.919 163.313 413.314 C 160.511 412.614 159.11 411.213 158.409 409.812 C 158.409 411.213 160.511 413.314 157.008 414.015 C 152.105 415.416 147.901 416.117 143.698 416.817 C 132.49 414.015 125.484 405.609 117.778 399.304 C 111.474 390.197 117.078 380.389 114.976 371.983 C 119.88 365.678 124.083 370.582 127.586 372.684 C 122.682 369.181 118.479 367.78 114.976 364.978 C 116.377 337.657 109.372 310.336 115.677 283.716 C 121.281 280.914 117.078 271.807 123.383 271.106 C 129.688 270.406 133.891 274.609 138.794 275.309 C 142.998 272.507 145.8 271.106 146.5 268.304 C 144.399 269.005 141.597 273.208 138.094 273.908 C 132.49 271.106 128.286 269.005 123.383 268.304 C 114.976 266.202 114.976 259.197 113.575 253.593 C 112.174 225.571 116.377 194.047 114.976 164.625 C 119.18 157.62 121.982 169.529 128.286 165.326 C 123.383 166.727 120.581 163.224 118.479 159.721 C 114.976 155.518 112.875 151.315 112.875 147.112 C 111.474 124.695 119.18 103.679 117.078 80.561 C 122.682 72.855 126.185 86.165 131.789 79.16 C 126.885 84.064 124.083 74.957 119.88 77.058 C 117.778 74.957 116.377 72.155 116.377 70.053 C 116.377 49.737 115.677 28.021 116.377 9.807 C 117.778 9.107 121.281 9.107 121.982 10.508 C 122.682 -7.706 153.506 15.411 162.613 8.406 C 166.816 11.208 164.714 14.01 166.115 15.411 C 168.217 12.609 166.115 9.107 168.217 7.005 C 171.019 4.203 173.121 2.802 176.623 3.502 C 193.436 1.401 210.949 2.101 226.361 0.7" fill="rgb(228,184,121)"/>
    <path d="M 154.907 15.411 C 144.399 21.716 121.982 11.909 136.693 38.529 C 133.891 42.032 133.19 39.93 131.789 43.433 C 131.089 47.636 135.292 45.534 137.393 47.636 C 135.292 53.24 131.789 49.037 131.089 53.24 C 133.19 56.042 135.292 53.24 135.992 55.342 C 133.19 57.443 131.089 56.743 128.286 58.144 C 125.484 60.245 128.987 64.449 124.083 65.85 C 129.688 72.855 131.789 69.352 133.19 67.951 C 135.292 71.454 137.393 72.855 135.292 76.358 C 147.901 73.556 133.891 81.962 147.201 79.86 C 140.896 81.962 131.789 82.663 131.089 90.368 C 128.987 105.08 127.586 124.695 130.388 140.807 C 128.286 147.112 125.484 151.315 125.484 154.818 C 129.688 162.523 131.089 163.224 138.794 169.529 C 135.292 173.031 132.49 169.529 130.388 173.031 C 132.49 180.037 131.089 184.24 135.292 189.144 C 128.987 194.748 126.885 196.85 124.784 198.951 C 126.885 203.154 127.586 198.251 132.49 198.951 C 133.19 209.459 126.185 203.855 124.784 207.358 C 128.286 218.566 138.094 236.78 140.196 252.892 C 138.794 258.497 140.896 264.801 134.591 267.603 C 143.698 264.101 147.201 268.304 154.907 257.796 C 151.404 263.4 150.003 271.106 145.099 273.208 C 143.698 277.411 141.597 280.914 144.399 283.716 C 141.597 283.015 137.393 279.513 135.992 278.812 C 132.49 280.914 135.292 284.416 133.891 286.518 C 134.591 294.924 133.891 297.726 135.992 302.63 C 136.693 304.031 135.992 308.935 133.19 308.234 C 136.693 322.946 132.49 334.154 133.891 344.662 C 137.393 340.459 135.292 351.668 138.094 353.069 C 137.393 357.272 134.591 365.678 133.19 367.78 C 133.19 369.881 136.693 371.983 133.19 374.085 C 135.992 373.384 137.393 373.384 139.495 373.384 C 138.794 378.288 138.094 384.593 134.591 384.593 C 142.297 393.7 150.704 386.694 152.805 395.101 C 155.607 392.999 161.212 392.999 159.81 387.395 C 161.212 391.598 163.313 395.101 161.912 399.304 C 166.816 400.004 169.618 401.405 173.121 403.507 C 180.826 407.01 180.126 398.603 192.736 399.304 C 190.634 397.202 189.933 395.801 187.832 395.101 C 191.334 393.7 187.131 390.197 191.334 389.496 C 201.842 395.101 221.457 402.106 222.859 408.411 C 229.163 409.111 232.666 409.812 236.869 410.512 C 234.768 407.71 240.372 402.806 238.971 398.603 C 243.174 401.405 245.276 404.908 243.875 409.812 C 250.179 408.411 255.784 407.71 257.185 409.812 C 261.388 407.01 250.88 407.71 249.479 408.411 C 253.682 395.801 250.88 410.512 256.484 403.507 C 250.88 397.903 253.682 392.298 248.778 388.095 C 250.88 385.994 248.778 383.892 250.179 382.491 C 259.286 388.095 263.489 400.004 269.794 402.806 C 273.297 406.309 272.596 401.405 278.201 403.507 C 277.5 407.01 278.201 409.111 282.404 409.111 C 285.206 409.812 288.709 407.01 290.11 407.01 C 290.81 403.507 286.607 406.309 285.206 402.806 C 285.206 400.004 285.206 399.304 283.805 397.903 C 299.217 400.004 304.12 402.806 313.227 399.304 C 315.329 399.304 315.329 396.502 319.532 396.502 C 334.944 396.502 346.853 395.101 351.056 393.7 C 355.259 393.7 352.457 392.298 351.757 389.496 C 355.96 388.796 358.062 390.897 358.762 392.298 C 359.463 390.897 356.66 390.197 358.062 388.095 C 360.864 387.395 365.067 390.197 364.366 386.694 C 365.767 389.496 370.671 385.293 367.869 390.897 C 376.976 385.293 376.976 383.892 386.083 379.689 C 386.083 376.887 387.484 374.085 387.484 369.881 C 390.286 368.48 388.184 370.582 390.987 370.582 C 386.083 365.678 393.789 365.678 392.388 359.373 C 393.789 357.972 394.489 357.972 395.89 358.673 C 393.789 357.272 390.286 357.972 390.987 353.069 C 390.286 350.266 390.286 348.865 389.586 346.764 C 391.687 341.86 395.19 346.063 394.489 346.063 C 395.19 345.363 393.088 343.962 391.687 343.962 C 390.286 335.555 395.19 326.448 390.286 320.143 C 397.992 319.443 390.286 319.443 394.489 313.839 C 394.489 290.021 387.484 280.213 388.184 266.903 C 390.286 261.299 390.286 255.694 393.088 259.898 C 388.184 252.192 388.885 254.994 380.479 252.892 C 386.083 250.791 386.783 240.983 394.489 243.085 C 394.489 232.577 394.489 226.272 388.885 216.465 C 389.586 211.561 391.687 209.459 393.789 206.657 C 386.783 208.759 393.088 205.256 389.586 202.454 C 393.789 198.951 394.489 196.85 395.89 193.347 C 393.088 193.347 393.088 189.144 391.687 189.144 C 395.19 193.347 394.489 185.641 397.291 185.641 C 394.489 183.539 398.692 181.438 394.489 180.037 C 401.495 179.336 402.195 181.438 404.997 179.336 C 402.195 174.432 398.692 175.834 402.195 171.63 C 395.89 168.828 396.591 178.636 393.088 173.732 C 393.088 170.93 395.89 170.93 395.89 170.229 C 391.687 166.026 390.286 163.924 386.783 159.721 C 383.981 159.021 383.281 161.122 381.179 161.122 C 386.083 157.62 383.281 156.219 386.783 154.117 C 389.586 154.117 389.586 158.32 390.987 156.919 C 390.286 152.716 388.184 154.117 386.783 150.614 C 393.088 152.015 393.088 152.015 398.692 154.117 C 399.393 147.812 393.789 149.914 391.687 147.812 C 393.088 147.812 394.489 145.01 395.89 145.01 C 388.184 144.31 400.094 141.507 395.89 142.208 C 398.692 140.807 400.094 142.208 399.393 143.609 C 394.489 137.304 400.094 134.502 399.393 130.999 C 395.19 128.197 397.291 122.593 394.489 121.192 C 395.89 119.09 396.591 120.491 397.291 120.491 C 393.789 113.486 397.291 110.684 397.291 108.582 C 395.89 104.379 392.388 104.379 389.586 100.176 C 392.388 90.368 384.682 93.171 390.987 81.962 C 388.184 79.16 386.783 77.058 383.981 74.957 C 385.382 71.454 386.783 69.352 387.484 67.251 C 389.586 70.053 379.078 65.85 382.58 72.855 C 380.479 72.155 376.976 70.053 376.976 70.053 C 381.88 70.053 376.976 58.844 382.58 58.844 C 379.778 58.144 384.682 52.54 380.479 51.139 C 375.575 46.235 381.179 51.839 373.473 49.737 C 374.174 46.235 372.773 44.133 369.971 44.133 C 366.468 39.229 362.265 42.732 358.062 40.631 C 356.66 32.224 341.949 35.026 338.447 28.721 C 337.046 34.326 331.441 26.62 330.741 30.823 C 322.334 25.919 322.334 22.417 313.928 19.615 C 305.521 18.914 303.42 18.914 293.612 17.513 C 291.511 18.213 285.206 18.213 282.404 22.417 C 283.805 29.422 278.201 27.32 278.901 30.823 C 279.602 30.823 280.302 30.123 281.003 28.721 C 284.505 28.721 283.805 31.524 284.505 32.224 C 280.302 30.823 281.703 37.828 277.5 32.925 C 276.8 40.631 275.399 40.631 277.5 46.235 C 273.297 43.433 272.596 41.331 268.393 44.133 C 270.495 39.229 273.297 33.625 269.794 30.123 C 266.992 32.224 263.489 30.823 261.388 30.123 C 262.789 26.62 264.891 29.422 266.992 28.021 C 267.693 26.62 266.292 26.62 265.591 25.219 C 250.88 15.411 221.457 21.716 216.554 16.112 C 202.543 20.315 194.137 18.914 185.73 21.716 C 186.431 23.818 191.334 23.117 191.334 28.021 C 187.832 31.524 180.126 32.224 181.527 39.229 C 178.725 32.925 182.228 33.625 172.42 30.823 C 175.222 28.721 175.923 31.524 178.725 30.123 C 176.623 30.123 175.222 27.32 173.821 29.422 C 181.527 37.128 171.019 37.128 180.826 41.331 C 178.024 46.235 175.923 47.636 175.923 52.54 C 172.42 42.732 168.217 37.128 159.81 33.625 C 163.313 28.721 163.313 35.026 164.014 32.224 C 160.511 25.919 164.014 23.818 160.511 16.812 C 158.409 14.01 155.607 14.711 154.206 15.411" fill="rgb(237,196,131)"/>
    <path d="M 235.468 23.117 M 235.468 21.716 M 236.869 22.417 L 237.57 22.417 C 248.778 27.32 258.586 27.32 265.591 32.224 C 266.992 35.026 263.489 33.625 262.789 32.925 C 260.687 36.427 264.891 34.326 266.292 35.727 C 262.088 39.229 270.495 43.433 264.891 43.433 C 274.698 47.636 266.992 51.839 278.901 49.737 C 275.399 42.032 283.104 44.133 281.703 39.229 C 285.907 37.128 288.709 42.032 291.511 43.433 C 290.81 43.433 285.907 38.529 286.607 35.026 C 290.11 37.828 294.313 34.326 297.115 32.925 C 299.917 33.625 298.516 30.823 299.217 30.123 C 301.318 30.823 306.222 28.021 307.623 32.925 C 306.923 30.123 306.923 28.021 309.725 27.32 C 313.928 27.32 316.029 30.823 320.233 30.123 C 320.933 35.026 322.334 38.529 323.735 39.93 C 331.441 40.631 336.345 42.732 341.949 44.834 C 341.949 44.834 344.051 46.935 341.949 46.935 C 344.051 47.636 342.65 42.032 348.254 44.834 C 345.452 48.336 346.853 46.235 343.35 52.54 C 346.853 53.941 343.35 48.336 347.554 50.438 C 349.655 56.042 365.067 63.748 368.57 72.855 C 372.773 79.86 375.575 81.261 369.971 86.866 C 373.473 84.064 374.174 90.368 375.575 87.566 C 379.778 90.368 379.778 102.978 377.676 98.775 C 377.676 102.278 380.479 100.876 381.88 100.876 C 379.078 101.577 379.078 109.983 381.88 109.983 C 381.179 110.684 379.778 111.384 378.377 110.684 C 379.078 112.786 381.88 112.085 381.88 114.887 C 381.88 112.085 384.682 112.786 383.281 110.684 L 383.981 109.983 L 384.682 109.283 L 386.083 109.283 C 386.083 111.384 387.484 114.887 384.682 117.689 C 388.184 115.588 390.286 120.491 390.987 121.892 C 388.184 124.695 390.286 130.999 384.682 126.796 C 390.987 132.4 381.88 130.999 386.083 135.903 C 383.281 133.802 381.179 133.802 378.377 134.502 C 381.88 134.502 382.58 135.903 384.682 137.304 C 383.981 140.106 381.179 138.705 379.778 139.406 C 379.078 139.406 382.58 143.609 386.083 145.01 C 387.484 150.614 383.981 153.416 379.778 152.015 C 380.479 156.919 379.078 159.721 379.078 163.224 C 379.078 163.224 380.479 161.122 382.58 163.224 C 380.479 175.834 386.083 172.331 386.783 182.138 C 385.382 185.641 383.981 187.743 380.479 188.443 C 380.479 193.347 380.479 191.245 383.981 191.245 C 378.377 198.251 387.484 208.058 379.778 213.662 C 382.58 215.764 383.281 225.571 386.083 229.775 C 383.281 236.78 379.778 236.78 374.874 242.384 C 381.179 240.983 379.078 238.181 387.484 240.283 C 379.778 240.983 385.382 248.689 379.078 248.689 C 383.281 258.497 378.377 276.71 381.179 287.218 C 382.58 291.422 379.078 292.823 379.078 289.32 C 381.179 292.122 383.981 294.224 386.083 296.325 C 383.281 305.432 385.382 314.539 386.083 317.341 C 383.281 318.042 384.682 317.341 381.88 320.143 C 385.382 323.646 381.179 327.849 387.484 327.149 C 386.083 337.657 383.981 336.956 380.479 348.865 C 379.078 351.668 380.479 358.673 381.88 362.876 C 380.479 364.978 379.078 363.577 379.078 362.876 C 376.275 366.379 376.976 371.983 375.575 376.887 C 369.27 376.186 372.072 371.282 370.671 370.582 C 362.965 372.684 358.062 376.186 353.858 376.887 C 357.361 382.491 339.147 387.395 341.949 389.496 C 334.944 388.095 337.746 385.994 328.639 388.796 C 330.741 386.694 328.639 383.892 331.441 383.892 C 327.238 385.293 325.136 388.095 324.436 389.496 C 314.628 388.796 310.425 392.298 299.917 386.694 C 291.511 389.496 293.612 388.796 289.409 392.999 C 285.206 390.897 285.907 388.796 283.104 386.694 C 280.302 390.197 274.698 388.796 279.602 392.298 C 271.195 392.999 270.495 387.395 265.591 389.496 C 261.388 385.994 267.693 389.496 266.992 386.694 C 264.891 387.395 261.388 387.395 259.987 390.197 C 259.987 388.796 257.885 386.694 257.185 386.694 L 257.185 385.994 L 257.185 384.593 L 258.586 385.293 L 259.286 386.694 C 259.987 386.694 260.687 385.293 262.088 385.994 C 262.789 383.892 263.489 383.192 261.388 381.79 C 263.489 382.491 261.388 383.892 259.286 385.994 C 261.388 383.192 250.179 384.593 248.778 378.288 C 245.976 381.79 248.778 387.395 243.875 389.496 C 241.072 395.801 229.864 394.4 231.265 399.304 C 225.661 399.304 218.655 397.903 212.35 396.502 C 204.645 393.7 198.34 385.994 195.538 382.491 C 189.933 388.796 184.329 381.09 181.527 385.994 C 181.527 382.491 176.623 383.892 175.923 382.491 C 171.019 381.79 173.821 384.593 174.522 385.994 C 169.618 387.395 171.72 381.79 167.516 383.892 C 167.516 387.395 165.415 384.593 164.714 388.095 C 161.912 385.293 160.511 383.892 159.81 381.79 C 150.704 380.389 151.404 376.887 147.201 375.486 C 145.099 371.282 146.5 369.181 149.302 369.181 C 142.998 362.176 142.998 354.47 140.896 350.266 C 142.297 347.464 140.196 346.063 141.597 343.962 C 145.8 345.363 146.5 341.16 149.302 340.459 C 150.003 337.657 144.399 336.956 144.399 338.357 C 143.698 332.053 147.901 336.956 145.099 331.352 C 136.693 330.652 147.901 325.748 138.794 325.047 C 147.901 319.443 135.292 313.839 143.698 310.336 C 143.698 308.935 140.896 311.037 140.196 309.635 C 141.597 306.833 142.998 307.534 143.698 307.534 C 138.094 304.732 144.399 297.026 140.196 294.224 C 143.698 299.127 141.597 292.122 145.099 289.32 C 141.597 276.01 148.602 283.015 148.602 271.106 C 155.607 271.106 151.404 259.197 160.511 257.796 C 157.008 256.395 151.404 257.796 150.704 253.593 C 151.404 256.395 149.302 259.197 145.8 259.898 C 146.5 257.095 143.698 256.395 142.297 254.293 C 144.399 255.694 145.099 246.587 148.602 251.491 C 145.8 246.587 143.698 248.689 140.896 246.587 C 149.302 247.989 138.094 238.882 146.5 239.582 C 142.998 238.181 142.998 233.277 139.495 231.876 C 140.196 231.876 136.693 225.571 143.698 224.17 C 139.495 220.668 140.196 215.764 137.393 214.363 C 145.099 212.962 131.789 203.855 144.399 206.657 C 140.196 203.154 142.297 196.85 140.896 191.245 C 138.794 189.844 136.693 185.641 136.693 184.94 C 137.393 180.037 133.891 173.732 138.794 171.63 C 137.393 165.326 135.992 163.924 135.992 159.721 C 136.693 155.518 139.495 154.117 140.196 152.015 C 135.292 146.411 140.896 141.507 135.992 138.705 C 140.896 134.502 131.789 128.898 139.495 121.192 C 138.094 121.892 137.393 125.395 135.292 123.994 C 136.693 118.39 136.693 114.187 138.794 111.384 C 133.19 107.882 139.495 100.876 137.393 100.876 C 140.196 98.775 139.495 95.272 142.998 94.572 C 145.099 89.668 141.597 86.866 144.399 84.064 C 145.8 83.363 148.602 84.064 150.003 84.064 C 147.901 85.465 147.901 79.86 146.5 77.058 C 146.5 71.454 152.105 77.759 150.704 74.957 C 147.901 72.855 145.8 75.657 145.099 74.957 C 148.602 71.454 143.698 70.753 147.201 65.85 C 141.597 68.652 142.297 60.245 137.393 61.647 C 145.8 60.245 136.693 49.737 147.901 52.54 C 142.998 46.235 145.099 51.839 140.896 48.336 C 140.196 38.529 142.297 48.336 144.399 46.235 C 146.5 42.732 142.297 40.631 147.901 40.631 C 147.901 41.331 152.805 38.529 151.404 43.433 C 157.709 39.229 156.308 39.93 166.816 38.529 C 166.816 45.534 175.222 56.042 176.623 58.144 C 180.126 49.737 182.228 49.737 187.832 48.336 C 181.527 41.331 193.436 39.93 189.233 37.828 C 192.035 35.026 195.538 32.925 197.639 37.128 C 197.639 31.524 199.04 29.422 201.142 28.021 C 206.046 25.219 209.548 24.518 212.35 24.518 C 220.757 24.518 224.96 27.32 228.463 29.422 C 229.864 25.919 231.965 24.518 233.367 23.117" fill="rgb(238,199,134)"/>
    <path d="M 236.169 23.117 C 233.367 23.818 229.864 25.919 229.864 28.721 C 221.457 25.219 210.249 23.117 201.842 28.021 C 200.441 30.823 197.639 30.823 200.441 35.727 C 196.238 37.828 192.736 32.925 190.634 37.128 C 194.137 41.331 182.228 40.631 189.933 47.636 C 181.527 50.438 180.826 50.438 179.425 58.144 C 174.522 56.743 166.816 46.235 166.816 39.93 C 157.008 40.631 157.008 39.93 152.105 42.032 C 150.704 42.032 151.404 39.93 148.602 40.631 C 140.896 42.032 147.901 42.032 145.099 46.935 C 138.094 39.93 141.597 51.139 144.399 48.336 C 145.099 50.438 148.602 48.336 148.602 51.839 C 137.393 49.737 146.5 60.245 136.693 60.245 C 142.297 59.545 142.297 68.652 146.5 65.149 C 144.399 70.053 149.302 72.855 144.399 72.855 C 149.302 76.358 147.201 85.465 152.105 81.962 C 148.602 85.465 146.5 83.363 144.399 84.064 C 142.297 86.866 145.8 89.668 142.998 93.171 C 140.196 95.272 141.597 99.475 137.393 99.475 C 140.196 101.577 133.891 107.181 140.196 109.983 C 131.789 122.593 140.196 134.502 136.693 138.005 C 141.597 141.507 135.992 146.411 141.597 149.914 C 140.196 154.117 137.393 155.518 136.693 157.62 C 136.693 163.924 138.794 165.326 140.196 170.229 C 134.591 173.732 138.094 180.037 135.992 183.539 C 137.393 187.743 140.196 187.743 142.297 189.144 C 142.998 195.448 141.597 203.855 142.998 203.855 C 133.19 206.657 145.8 210.86 138.094 212.962 C 140.896 215.764 140.196 220.668 142.998 222.069 C 137.393 226.272 140.896 230.475 140.896 231.176 C 143.698 233.277 143.698 237.481 146.5 238.181 C 141.597 240.283 145.099 243.085 142.297 245.887 C 143.698 247.288 146.5 245.887 146.5 249.39 C 144.399 250.09 145.8 254.293 143.698 254.293 C 145.099 255.694 147.201 257.796 144.399 259.898 C 147.901 258.497 150.704 257.095 150.003 252.192 C 151.404 257.095 157.008 255.694 159.81 256.395 C 152.105 259.898 156.308 271.106 150.003 269.705 C 150.704 283.015 141.597 276.71 147.901 286.518 C 143.698 288.619 142.998 300.529 140.896 292.823 C 145.099 297.026 138.794 304.732 145.099 306.833 C 142.998 308.234 141.597 308.234 139.495 308.234 C 140.196 311.037 144.399 307.534 145.099 311.037 C 135.992 313.138 148.602 320.143 138.794 324.347 C 148.602 327.149 135.292 329.951 146.5 330.652 C 147.901 334.154 142.297 335.555 143.698 337.657 C 145.099 333.454 147.201 340.459 150.003 336.956 C 150.003 346.063 139.495 341.86 142.297 348.865 C 143.698 354.47 143.698 362.176 148.602 367.079 C 147.901 370.582 145.8 370.582 147.201 374.785 C 153.506 377.587 150.003 380.389 159.11 380.389 C 161.212 382.491 161.912 385.293 163.313 387.395 C 165.415 384.593 166.816 386.694 166.115 383.192 C 171.019 381.09 171.019 385.994 172.42 385.994 C 171.72 384.593 171.72 381.09 175.222 381.09 C 175.923 382.491 181.527 382.491 180.826 385.293 C 184.329 380.389 189.933 388.095 193.436 381.09 C 199.04 385.293 203.944 393.7 211.65 395.101 C 218.655 397.202 224.96 398.603 230.564 397.903 C 229.864 393.7 240.372 395.101 242.473 390.897 C 248.778 387.395 243.875 381.09 246.677 378.288 C 250.88 379.689 256.484 385.994 258.586 382.491 C 259.286 385.293 255.083 385.994 259.987 388.796 C 261.388 386.694 264.891 386.694 266.992 385.994 C 268.393 388.095 265.591 388.796 264.19 388.095 C 271.195 386.694 271.195 392.298 277.5 391.598 C 273.297 389.496 281.003 388.095 281.003 385.994 C 285.206 387.395 287.308 390.897 288.008 392.298 C 292.912 388.095 292.211 388.796 299.217 388.095 C 304.12 390.897 311.826 385.293 314.628 392.999 C 322.334 383.892 320.233 397.903 329.34 381.79 C 331.441 385.293 330.04 384.593 329.34 388.095 C 337.046 385.293 336.345 387.395 340.548 390.197 C 339.848 385.994 356.66 381.79 351.056 376.186 C 356.66 374.785 363.666 371.983 369.27 371.282 C 374.174 370.582 369.27 375.486 374.174 376.186 C 374.874 370.582 376.976 366.379 379.078 363.577 C 380.479 361.475 379.778 363.577 380.479 364.277 C 379.778 358.673 378.377 351.668 380.479 348.865 C 383.281 336.956 385.382 336.956 386.083 327.849 C 380.479 328.55 384.682 323.646 381.88 321.545 C 383.981 317.341 383.981 316.641 386.083 318.742 C 384.682 315.24 382.58 306.133 386.083 297.026 C 383.981 293.523 380.479 293.523 378.377 291.422 C 379.778 288.619 381.179 292.823 381.88 288.619 C 377.676 276.71 382.58 258.497 378.377 251.491 C 384.682 247.288 379.078 241.684 386.783 240.283 C 377.676 236.78 382.58 245.186 374.174 243.785 C 376.275 240.983 375.575 239.582 377.676 237.481 C 379.778 238.181 382.58 237.481 382.58 238.882 C 383.281 238.181 381.179 238.181 380.479 236.079 C 387.484 237.481 380.479 233.277 386.783 230.475 C 383.281 223.47 381.179 217.165 380.479 215.764 C 387.484 208.759 378.377 199.652 382.58 191.946 C 381.179 192.646 379.078 191.245 379.778 189.144 C 383.281 187.042 384.682 185.641 386.083 182.138 C 386.083 175.133 383.281 175.133 381.88 171.63 C 383.281 168.128 384.682 172.331 385.382 168.828 C 381.88 170.229 383.281 157.62 377.676 166.026 C 378.377 159.721 379.778 156.919 379.078 152.716 C 382.58 152.015 386.783 151.315 384.682 145.711 C 380.479 144.31 381.179 140.106 378.377 141.507 C 380.479 138.005 383.281 139.406 384.682 138.005 C 381.88 134.502 380.479 136.604 376.976 135.203 C 379.778 133.802 383.981 132.4 383.981 135.903 C 380.479 130.299 390.987 131.7 383.281 126.796 C 390.987 130.999 386.083 124.695 390.286 122.593 L 391.687 124.695 L 390.286 122.593 C 388.885 121.192 388.184 116.288 383.981 119.09 C 386.783 115.588 385.382 109.983 385.382 109.983 C 384.682 111.384 383.981 112.786 382.58 114.187 C 380.479 114.187 381.179 112.786 379.078 112.786 C 384.682 113.486 374.174 102.978 381.88 102.278 C 379.078 103.679 376.976 100.176 376.976 98.775 C 379.778 102.978 379.078 90.368 375.575 89.668 C 373.473 89.668 373.473 85.465 370.671 88.967 C 374.874 81.261 372.072 80.561 369.971 73.556 C 365.067 65.149 349.655 55.342 346.853 53.941 C 344.751 49.037 347.554 56.743 343.35 53.24 C 344.051 46.235 348.254 46.235 349.655 46.235 C 341.949 42.732 346.152 48.336 343.35 49.037 C 341.249 46.935 342.65 46.235 341.949 44.834 C 336.345 43.433 331.441 41.331 323.735 41.331 C 323.035 39.229 319.532 35.727 319.532 32.224 C 315.329 31.524 313.928 28.021 310.425 28.721 C 306.222 28.721 309.725 30.823 309.024 32.224 C 304.821 28.021 303.42 30.823 299.917 30.123 C 299.217 31.524 300.618 35.026 297.816 35.026 C 295.013 35.026 290.11 38.529 288.709 35.727 C 288.008 37.128 287.308 39.229 289.409 39.93 C 285.206 39.93 283.104 37.128 280.302 40.631 C 281.003 39.229 283.104 39.229 283.104 39.93 C 278.901 44.133 278.901 44.133 278.901 50.438 C 266.292 52.54 273.297 46.935 265.591 44.133 C 269.094 43.433 260.687 38.529 266.292 36.427 C 264.19 35.026 260.687 37.128 260.687 33.625 C 263.489 32.224 264.891 33.625 266.992 32.925 C 258.586 28.021 248.778 28.021 237.57 23.117" fill="rgb(238,199,135)"/>
    <path d="M 284.505 7.705 C 268.393 11.909 281.703 20.315 275.399 31.524 L 278.201 32.925 L 277.5 32.925 L 276.8 34.326 C 275.399 37.828 273.297 41.331 275.399 44.834 C 269.094 38.529 276.099 37.828 271.896 35.026 C 272.596 32.224 271.195 28.721 270.495 30.123 C 271.195 30.123 272.596 32.224 271.896 32.925 C 269.094 37.128 274.698 40.631 269.094 42.032 C 271.195 39.93 271.896 41.331 273.997 43.433 L 275.399 45.534 L 276.099 46.235 L 276.8 45.534 C 273.997 41.331 276.099 39.93 276.8 33.625 C 281.703 36.427 279.602 30.823 283.104 32.925 C 284.505 26.62 281.003 30.823 278.201 31.524 C 277.5 27.32 283.104 28.021 280.302 23.117 C 285.206 18.213 290.81 17.513 292.912 16.112 C 302.719 18.213 306.923 18.213 312.527 20.315 C 323.035 21.716 323.035 25.219 330.04 30.823 C 334.243 28.021 342.65 30.823 351.056 34.326 C 353.158 36.427 360.864 35.727 356.66 39.93 C 362.965 39.93 371.372 40.631 372.072 44.834 C 373.473 46.235 374.874 48.336 373.473 49.737 C 378.377 50.438 379.078 48.336 381.88 50.438 C 385.382 51.839 380.479 58.844 383.281 57.443 C 377.676 58.144 382.58 70.753 376.275 68.652 C 377.676 71.454 380.479 70.753 381.88 72.155 C 378.377 63.748 388.885 71.454 385.382 63.048 C 388.885 67.951 386.083 71.454 384.682 73.556 C 387.484 76.358 388.885 79.16 390.286 81.261 C 389.586 86.165 390.286 91.069 388.184 91.069 C 395.89 90.368 386.083 105.78 398.692 105.08 C 397.992 111.384 394.489 113.486 398.692 119.791 C 397.291 121.892 396.591 119.791 395.89 119.791 C 397.992 122.593 395.89 128.197 400.794 128.898 C 400.094 137.304 396.591 129.598 394.489 130.299 C 395.89 133.101 397.992 132.4 400.094 134.502 C 395.89 140.807 401.495 142.908 395.19 142.908 C 394.489 145.711 397.291 143.609 397.291 145.711 C 395.89 145.01 394.489 147.812 393.088 147.812 C 394.489 148.513 400.094 147.812 399.393 154.117 C 393.789 152.716 392.388 152.716 388.885 149.914 C 387.484 152.716 393.088 152.015 388.885 155.518 C 384.682 152.015 386.783 159.021 381.179 159.721 C 383.281 159.721 384.682 158.32 386.083 158.32 C 390.286 163.224 392.388 165.326 395.89 168.828 C 396.591 171.63 393.789 170.93 394.489 173.031 C 395.89 175.834 395.19 171.63 397.291 171.63 L 398.692 170.93 L 399.393 171.63 L 402.195 170.93 C 400.794 176.534 401.495 173.732 404.297 178.636 C 401.495 182.839 402.195 179.336 395.89 180.037 C 399.393 181.438 395.19 184.24 398.692 184.94 C 395.89 184.24 395.19 194.748 391.687 187.743 C 393.088 191.245 394.489 191.946 397.291 191.946 C 395.19 197.55 393.789 198.951 390.987 201.753 C 393.789 205.956 386.783 208.058 395.19 205.956 C 390.286 209.459 390.987 215.063 387.484 215.764 C 389.586 215.063 392.388 220.668 393.789 224.871 C 393.789 229.074 397.291 236.78 394.489 240.983 C 390.286 238.181 383.981 252.892 381.88 250.791 C 387.484 254.994 390.286 250.791 390.987 257.796 C 387.484 260.598 388.885 271.807 388.885 277.411 C 392.388 280.914 393.789 301.229 394.489 312.438 C 393.789 315.94 394.489 319.443 390.987 320.143 C 393.088 324.347 395.19 333.454 390.987 337.657 C 393.789 341.16 390.987 345.363 396.591 343.962 C 394.489 349.566 393.789 342.561 390.987 346.063 C 390.987 348.865 390.987 350.266 390.286 352.368 C 390.987 357.972 394.489 355.871 395.89 357.272 C 389.586 358.673 395.19 367.78 388.184 368.48 C 388.184 374.085 386.083 378.288 387.484 380.389 C 376.976 382.491 379.078 388.796 369.971 387.395 C 365.067 386.694 363.666 389.496 358.762 388.095 C 357.361 390.897 361.564 390.197 360.163 392.999 C 357.361 391.598 355.96 389.496 353.158 390.197 C 354.559 392.999 353.858 394.4 351.757 395.801 C 348.254 395.801 332.142 397.202 320.933 396.502 C 314.628 397.202 317.431 400.705 315.329 402.806 C 313.227 399.304 309.024 401.405 308.324 400.004 C 306.923 404.208 304.12 401.405 302.719 402.806 C 298.516 395.101 290.11 402.106 285.206 397.903 C 282.404 404.908 290.11 403.507 292.211 405.609 C 288.709 409.111 284.505 409.111 282.404 409.812 C 277.5 409.812 276.8 406.309 278.901 404.908 C 272.596 402.106 273.297 407.01 269.794 404.208 C 263.489 400.004 259.286 388.796 250.88 383.892 C 249.479 390.197 255.083 397.202 257.185 403.507 C 248.078 409.812 254.383 400.705 250.88 404.208 C 250.88 405.609 248.778 407.01 249.479 408.411 C 246.677 409.111 247.377 409.812 246.677 411.213 C 242.473 407.71 244.575 401.405 239.671 399.304 C 240.372 404.208 234.067 408.411 238.971 411.913 C 238.971 409.111 238.971 405.609 239.671 402.106 C 242.473 406.309 243.174 408.411 242.473 411.213 C 247.377 411.213 252.281 414.716 256.484 415.416 C 256.484 412.614 258.586 414.716 258.586 409.812 C 255.784 407.71 254.383 410.512 250.179 409.111 C 257.185 407.01 257.185 407.01 258.586 405.609 C 252.981 392.298 259.987 396.502 250.179 385.994 C 269.794 397.903 259.286 412.614 271.896 410.512 C 288.008 409.812 301.318 402.806 316.029 404.208 C 316.73 411.213 319.532 408.411 320.933 411.213 C 323.735 411.213 328.639 413.314 332.142 413.314 C 353.158 413.314 371.372 413.314 390.286 412.614 C 394.489 411.913 393.088 405.609 389.586 403.507 C 372.773 407.71 354.559 406.309 339.147 406.309 C 331.441 404.908 322.334 403.507 316.73 403.507 C 316.73 399.304 320.933 398.603 319.532 397.903 C 335.644 398.603 349.655 398.603 359.463 400.705 C 366.468 399.304 383.981 395.101 393.088 391.598 C 394.489 390.197 397.291 389.496 397.291 385.994 C 402.195 388.796 404.997 387.395 404.297 392.298 C 405.698 382.491 397.992 388.796 397.992 381.09 C 400.094 381.09 399.393 377.587 400.794 377.587 C 399.393 373.384 394.489 383.192 392.388 374.085 C 395.89 372.684 397.291 367.78 400.794 368.48 C 402.195 355.871 402.896 359.373 404.297 350.967 C 402.896 345.363 400.794 341.16 397.992 337.657 C 393.088 285.117 397.291 282.315 394.489 257.796 C 392.388 257.095 391.687 249.39 385.382 253.593 C 395.89 243.085 393.088 251.491 400.794 242.384 C 402.896 237.481 402.195 231.876 400.794 227.673 C 402.896 225.571 402.896 226.973 403.596 226.973 C 405.698 223.47 409.2 220.668 407.799 215.764 C 407.799 218.566 406.398 222.069 404.297 223.47 C 402.195 219.967 404.297 218.566 404.297 215.764 C 404.997 212.261 409.2 204.555 409.2 210.86 C 408.5 208.759 409.901 203.855 407.099 207.358 C 404.997 209.459 404.997 212.261 403.596 213.662 C 402.195 217.866 400.794 221.368 400.794 223.47 C 397.992 224.17 395.89 223.47 394.489 222.769 C 393.088 208.058 412.003 184.94 407.099 171.63 C 405.698 165.326 401.495 170.93 398.692 170.229 L 397.291 170.229 L 398.692 167.427 C 395.19 167.427 388.885 159.721 388.885 159.021 L 386.783 159.021 L 385.382 156.919 C 391.687 156.219 396.591 166.727 402.896 159.021 C 407.099 152.015 401.495 154.117 404.997 148.513 C 403.596 136.604 402.195 111.384 395.89 93.171 C 396.591 82.663 397.291 67.251 395.89 62.347 C 392.388 55.342 388.885 60.946 386.083 56.743 C 395.19 57.443 388.885 50.438 393.789 46.235 C 392.388 47.636 390.987 47.636 388.184 49.737 C 389.586 41.331 393.088 32.925 393.789 25.219 C 393.088 33.625 388.885 43.433 385.382 49.737 C 362.265 36.427 327.238 21.716 304.12 11.909 C 297.816 11.208 292.211 9.807 285.206 8.406" fill="rgb(211,144,78)"/>
    <path d="M 135.992 8.406 C 138.094 13.31 130.388 8.406 128.286 9.807 C 125.484 11.909 122.682 12.609 121.982 14.711 C 133.891 30.123 121.982 38.529 128.286 49.037 C 127.586 51.839 126.185 52.54 125.484 50.438 C 111.474 74.957 128.987 77.759 142.998 78.459 C 129.688 75.657 138.094 67.251 123.383 70.053 C 128.286 63.048 124.083 60.946 126.185 58.144 C 130.388 56.743 132.49 56.042 135.292 57.443 C 134.591 55.342 131.789 56.042 131.089 53.941 C 131.089 49.037 134.591 51.839 135.992 49.737 C 133.891 46.935 131.089 46.935 131.089 43.433 C 138.794 33.625 127.586 23.818 132.49 16.812 C 146.5 21.016 150.704 12.609 159.81 15.411 C 164.714 23.117 161.212 26.62 164.714 30.823 C 164.014 32.224 163.313 34.326 162.613 34.326 C 164.014 35.727 168.217 34.326 168.217 38.529 C 171.72 43.433 173.121 44.834 174.522 51.139 C 175.222 49.037 176.623 44.834 178.725 45.534 C 177.324 37.828 174.522 37.828 175.923 34.326 C 176.623 32.224 177.324 31.524 179.425 32.224 C 181.527 34.326 178.725 35.727 180.126 38.529 C 180.126 32.224 187.131 30.823 189.933 28.721 C 191.334 23.117 183.629 24.518 183.629 19.615 C 194.137 18.213 202.543 19.615 215.853 16.812 C 217.955 18.914 220.056 16.812 222.859 18.914 C 224.96 14.01 239.671 20.315 246.677 18.914 C 254.383 23.117 259.286 23.818 264.891 25.219 C 273.297 31.524 255.083 28.021 265.591 29.422 C 269.094 31.524 264.19 28.721 271.195 26.62 C 269.794 25.219 272.596 23.818 271.195 22.417 C 268.393 18.914 267.693 16.112 265.591 14.01 C 262.088 15.411 260.687 16.112 259.286 17.513 C 251.58 17.513 236.169 12.609 223.559 11.909 C 209.548 10.508 199.741 17.513 187.131 16.812 C 178.725 14.711 180.826 24.518 176.623 21.016 C 177.324 21.016 177.324 22.417 178.024 22.417 C 172.42 22.417 170.318 30.123 170.318 33.625 C 168.217 34.326 168.917 32.925 168.217 32.224 C 168.917 32.925 167.516 35.026 168.917 35.026 C 168.217 37.128 171.72 35.727 170.318 39.229 C 168.217 35.727 165.415 33.625 163.313 35.727 C 164.014 33.625 164.714 32.925 165.415 32.224 C 164.014 30.823 166.816 27.32 167.516 28.021 C 167.516 24.518 167.516 24.518 168.217 26.62 C 161.912 21.016 166.115 20.315 162.613 12.609 C 150.704 8.406 142.297 16.812 135.992 9.807" fill="rgb(214,145,78)"/>
    <path d="M 144.399 273.208 C 144.399 276.71 138.794 276.01 141.597 280.213 C 140.196 277.411 135.292 277.411 135.992 276.01 C 119.18 272.507 137.393 287.919 131.089 302.63 C 129.688 310.336 130.388 320.143 129.688 329.25 C 133.19 337.657 131.089 345.363 133.19 350.266 C 126.185 352.368 136.693 357.972 123.383 365.678 C 128.286 369.881 132.49 374.785 134.591 378.288 C 132.49 376.186 127.586 379.689 124.083 374.785 C 121.281 378.988 121.982 378.288 124.083 383.892 C 134.591 388.796 136.693 389.496 145.8 395.101 C 150.003 402.106 154.206 404.208 153.506 411.913 C 155.607 403.507 158.409 414.015 157.008 400.705 C 160.511 404.208 164.714 409.812 161.912 411.213 C 193.436 403.507 189.233 402.106 204.645 397.903 C 210.249 403.507 213.752 406.309 220.056 409.111 C 227.762 409.812 232.666 414.716 236.169 411.913 C 218.655 411.913 213.752 395.801 190.634 392.999 C 187.832 390.197 192.035 395.101 187.131 392.999 C 190.634 395.101 190.634 397.202 192.736 397.903 C 187.131 400.705 181.527 399.304 180.126 405.609 C 173.121 404.208 170.318 402.806 161.912 400.004 C 162.613 396.502 160.511 391.598 161.212 389.496 C 161.212 393.7 155.607 393.7 154.206 395.801 C 150.704 387.395 142.297 393.7 135.992 385.293 C 137.393 383.192 138.094 378.288 137.393 374.085 C 137.393 375.486 135.292 372.684 134.591 374.085 C 134.591 373.384 133.891 369.181 132.49 368.48 C 133.891 364.978 136.693 357.272 135.992 354.47 C 134.591 350.967 137.393 341.86 133.19 346.063 C 131.789 335.555 135.292 327.849 133.891 313.138 C 131.789 308.234 137.393 306.133 135.992 302.63 C 132.49 297.026 134.591 293.523 131.789 287.218 C 133.891 284.416 133.19 279.513 134.591 278.812 C 137.393 278.812 141.597 281.614 142.998 283.716 C 140.896 280.914 142.998 277.411 144.399 274.609" fill="rgb(212,145,79)"/>
    <path d="M 142.297 80.561 C 144.399 84.064 130.388 79.16 128.987 84.064 C 124.784 103.679 126.885 119.791 128.286 138.705 C 128.286 142.908 127.586 144.31 126.885 146.411 C 126.185 142.908 126.885 139.406 126.185 135.203 C 126.885 138.705 126.885 142.208 124.784 145.01 C 121.281 143.609 121.281 141.507 119.88 140.106 C 119.88 142.908 123.383 145.01 122.682 147.112 C 119.18 148.513 121.982 152.015 121.281 154.117 C 119.88 152.015 117.778 151.315 117.778 150.614 C 121.982 158.32 122.682 161.122 137.393 169.529 C 127.586 167.427 119.88 169.529 117.778 168.128 C 119.18 173.031 117.078 176.534 119.88 177.235 C 126.885 179.336 117.778 173.732 125.484 175.834 C 124.083 180.037 129.688 182.138 131.789 184.94 C 126.885 185.641 123.383 182.839 120.581 184.94 C 121.982 187.743 115.677 189.144 118.479 194.748 C 120.581 217.165 132.49 232.577 136.693 251.491 C 136.693 264.801 121.982 259.197 123.383 264.801 C 127.586 266.202 131.089 269.005 134.591 269.005 L 135.292 269.005 L 135.292 270.406 L 136.693 270.406 L 137.393 270.406 C 142.998 270.406 141.597 267.603 145.8 267.603 C 140.196 266.202 140.896 266.903 135.292 270.406 C 140.196 265.502 138.094 259.898 140.196 254.293 C 137.393 236.78 127.586 218.566 126.185 210.16 C 125.484 201.753 133.19 210.16 131.789 200.352 C 126.885 201.053 126.885 203.154 124.083 200.352 C 126.185 195.448 128.286 195.448 133.19 189.144 C 132.49 189.144 135.992 186.342 132.49 186.342 C 131.089 182.138 130.388 177.935 128.286 173.732 C 131.789 169.529 135.292 171.63 138.094 170.93 C 130.388 163.924 129.688 162.523 124.083 156.219 C 124.784 151.315 127.586 147.112 128.286 142.208 C 126.885 124.695 128.286 105.08 128.987 90.368 C 128.286 80.561 148.602 82.663 143.698 80.561" fill="rgb(212,144,78)"/>
    <path d="M 318.131 7.005 C 308.324 8.406 321.634 7.005 323.735 6.304 C 331.441 13.31 342.65 14.01 352.457 21.716 C 358.062 18.914 372.072 28.021 370.671 18.914 C 370.671 23.818 374.874 23.818 377.676 24.518 C 378.377 23.818 376.275 22.417 373.473 23.117 C 379.078 18.914 379.778 24.518 382.58 20.315 C 379.778 18.914 385.382 16.112 380.479 17.513 C 383.981 16.112 384.682 12.609 388.184 12.609 C 372.072 7.705 339.848 11.208 324.436 6.304 C 322.334 6.304 320.933 6.304 318.832 6.304" fill="rgb(209,142,75)"/>
    <path d="M 397.992 5.604 C 393.789 5.604 391.687 9.807 389.586 12.609 C 386.083 17.513 383.981 22.417 381.179 26.62 C 379.778 35.026 382.58 41.331 384.682 45.534 C 386.083 39.229 390.286 33.625 390.987 27.32 C 386.783 22.417 387.484 35.727 383.981 34.326 C 382.58 28.021 387.484 26.62 386.083 21.016 C 390.286 21.716 393.789 21.716 395.19 24.518 C 395.89 32.224 394.489 37.128 393.088 42.032 C 397.992 37.828 397.291 32.925 404.997 30.823 C 403.596 25.219 407.799 14.01 398.692 4.903" fill="rgb(102,34,12)"/>
    <path d="M 396.591 300.529 C 394.489 307.534 404.997 328.55 399.393 336.956 C 401.495 341.16 403.596 345.363 404.297 349.566 C 404.297 352.368 404.297 354.47 402.896 355.871 C 403.596 360.774 402.195 363.577 401.495 366.379 C 397.992 369.181 396.591 371.983 393.088 374.085 C 395.19 381.09 397.291 374.085 402.195 376.186 C 394.489 380.389 402.896 383.892 396.591 388.796 C 391.687 395.801 362.265 398.603 358.062 400.705 C 347.554 397.903 332.842 399.304 320.233 397.202 C 333.543 400.004 334.944 398.603 358.062 402.106 C 378.377 397.903 382.58 396.502 398.692 393.7 C 400.794 397.903 404.997 397.202 404.997 400.004 C 409.2 400.004 409.2 398.603 408.5 395.801 C 409.901 397.903 409.901 399.304 409.901 400.705 C 410.602 388.796 407.799 390.197 407.099 375.486 C 404.997 376.887 402.896 370.582 400.794 373.384 C 404.997 369.881 402.195 358.673 404.297 357.972 C 404.997 355.871 404.997 357.272 407.099 356.571 C 404.297 343.962 399.393 318.742 397.291 301.93" fill="rgb(182,105,45)"/>
    <path d="M 306.222 7.005 C 333.543 16.812 358.062 33.625 383.981 46.935 C 379.078 41.331 380.479 37.828 379.778 28.721 C 379.778 30.123 378.377 30.823 379.078 32.925 C 358.762 28.721 337.746 16.812 306.923 7.005" fill="rgb(239,196,130)"/>
    <path d="M 231.265 1.401 C 206.046 4.903 175.222 0 173.821 8.406 C 173.121 14.01 191.334 3.502 197.639 8.406 C 205.345 7.005 205.345 2.101 213.752 3.502 C 214.452 5.604 218.655 5.604 217.254 7.005 C 222.859 0 241.773 13.31 254.383 9.107 C 249.479 1.401 241.072 4.903 232.666 0.7" fill="rgb(203,147,86)"/>
    <path d="M 119.88 279.513 C 121.982 289.32 114.976 304.031 117.078 317.341 C 117.778 329.25 117.078 341.86 119.88 350.266 C 120.581 327.849 120.581 304.732 124.083 285.117 C 121.281 282.315 122.682 280.914 119.88 281.614" fill="rgb(183,101,40)"/>
    <path d="M 121.982 175.834 C 121.982 176.534 126.185 175.834 123.383 177.935 C 122.682 180.037 121.281 182.138 121.281 181.438 C 119.18 180.737 117.078 184.94 115.677 181.438 C 120.581 188.443 113.575 205.256 114.976 217.165 C 115.677 214.363 114.276 203.855 116.377 198.951 C 114.976 210.86 132.49 236.78 132.49 249.39 C 133.19 252.192 133.891 257.095 130.388 258.497 C 127.586 258.497 124.784 259.898 124.083 257.095 C 124.784 259.197 120.581 260.598 118.479 259.898 C 118.479 265.502 121.982 266.202 124.083 268.304 C 122.682 268.304 121.281 265.502 122.682 262.7 C 125.484 263.4 128.987 261.299 131.089 259.898 C 134.591 257.095 135.992 254.994 136.693 252.192 C 129.688 242.384 129.688 222.769 120.581 214.363 C 119.18 203.855 114.976 190.545 119.88 184.94 C 122.682 188.443 122.682 182.138 121.982 178.636 C 128.987 180.737 122.682 187.743 131.789 184.94 C 126.885 184.24 126.185 177.235 124.784 175.834" fill="rgb(173,104,50)"/>
    <path d="M 391.687 394.4 C 379.078 398.603 391.687 393.7 395.89 396.502 C 398.692 400.004 400.794 402.106 402.195 404.908 C 400.094 407.71 398.692 407.01 397.992 407.71 C 396.591 404.208 397.291 400.004 392.388 398.603 C 389.586 402.106 393.789 406.309 394.489 410.512 C 397.291 412.614 397.992 414.716 399.393 415.416 C 402.896 416.117 404.297 414.716 404.997 413.314 C 408.5 407.71 410.602 402.806 409.2 396.502 C 409.901 398.603 409.901 401.405 407.099 400.004 C 404.297 397.903 402.195 398.603 399.393 395.101 C 396.591 395.801 395.19 394.4 391.687 395.101" fill="rgb(100,28,12)"/>
    <path d="M 274.698 3.502 C 275.399 3.502 276.8 5.604 277.5 5.604 C 276.099 6.304 274.698 4.903 273.997 8.406 C 274.698 17.513 276.099 22.417 273.997 30.123 C 277.5 18.213 276.8 21.716 274.698 11.909 C 276.8 10.508 281.003 8.406 284.505 7.705 C 297.816 10.508 294.313 11.208 303.42 10.508 C 321.634 18.213 348.254 30.823 368.57 39.93 C 346.853 28.021 322.334 14.711 318.832 14.01 L 316.73 12.609 L 318.131 14.01 C 307.623 10.508 297.115 7.005 285.907 7.705 C 282.404 7.705 281.003 7.005 278.901 6.304 C 276.8 5.604 276.8 4.203 275.399 4.203" fill="rgb(171,105,46)"/>
    <path d="M 313.227 7.005 C 335.644 16.812 364.366 28.721 377.676 30.123 C 383.281 25.919 371.372 25.219 372.072 21.716 C 372.072 28.721 357.361 19.615 354.559 22.417 C 341.949 14.711 332.142 14.01 323.035 9.107 C 323.035 7.705 321.634 7.005 320.233 7.705" fill="rgb(228,176,108)"/>
    <path d="M 376.976 4.203 C 338.447 6.304 355.259 7.705 327.939 5.604 C 346.853 9.807 368.57 7.705 384.682 11.208 C 383.981 17.513 380.479 15.411 383.981 19.615 C 380.479 25.219 379.778 20.315 374.874 21.716 C 378.377 21.016 378.377 24.518 379.778 25.919 C 379.778 22.417 383.281 23.818 383.281 20.315 C 386.783 15.411 387.484 12.609 387.484 8.406 C 383.281 4.203 381.88 8.406 376.976 6.304 C 395.19 3.502 402.896 4.203 376.976 3.502" fill="rgb(221,173,114)"/>
    <path d="M 402.896 70.053 C 402.896 86.866 405.698 110.684 409.2 124.695 C 407.799 111.384 407.799 91.769 407.099 69.352 C 406.398 70.753 404.997 70.053 404.297 70.753" fill="rgb(198,133,76)"/>
    <path d="M 117.778 392.298 C 117.778 398.603 124.784 400.004 126.185 403.507 C 128.286 401.405 133.891 410.512 138.794 410.512 C 142.297 407.71 142.297 404.908 138.794 402.106 C 131.089 398.603 125.484 394.4 119.18 392.298" fill="rgb(196,126,66)"/>
    <path d="M 119.18 370.582 C 114.976 368.48 117.078 377.587 119.88 383.892 C 128.286 388.095 135.992 390.897 142.297 396.502 C 148.602 397.903 150.003 412.614 150.003 405.609 C 151.404 409.111 150.704 411.213 149.302 413.314 C 152.805 414.015 154.907 413.314 156.308 412.614 L 157.709 411.913 L 157.709 411.213 C 157.008 410.512 157.008 409.111 156.308 407.71 C 156.308 409.111 157.008 409.812 156.308 411.913 C 154.907 412.614 154.206 412.614 153.506 413.314 C 153.506 404.908 150.003 402.106 145.8 395.801 C 136.693 389.496 133.891 390.197 124.083 385.293 C 121.982 376.887 119.88 381.09 121.982 374.785 C 127.586 376.887 135.292 379.689 133.19 376.887 C 130.388 374.785 128.987 376.887 127.586 369.881 L 125.484 369.881 L 124.083 369.881 L 126.185 370.582 L 126.885 370.582 C 128.286 371.983 129.688 371.983 128.286 374.785 C 126.185 371.282 121.982 372.684 119.88 369.881" fill="rgb(175,102,50)"/>
    <path d="M 402.896 35.026 C 400.094 37.128 401.495 41.331 400.794 45.534 C 395.89 40.631 395.89 42.032 399.393 37.128 C 394.489 42.732 390.987 42.032 388.184 49.037 C 391.687 51.839 390.987 44.834 394.489 45.534 C 392.388 47.636 390.286 52.54 395.19 56.743 C 391.687 54.641 390.987 55.342 385.382 56.743 C 388.885 56.042 397.291 60.245 393.789 58.844 C 395.19 54.641 398.692 57.443 400.094 56.743 C 400.794 48.336 404.297 36.427 404.997 35.727" fill="rgb(178,100,43)"/>
    <path d="M 397.992 68.652 C 393.088 77.759 401.495 85.465 396.591 92.47 C 402.896 111.384 404.297 136.604 405.698 146.411 C 402.195 153.416 407.799 152.716 404.297 160.422 C 397.992 166.026 393.088 159.721 386.083 156.919 C 390.286 159.721 397.291 163.224 399.393 163.924 C 402.195 161.823 404.297 161.823 407.099 159.721 C 407.099 156.919 406.398 149.213 407.799 148.513 C 405.698 125.395 397.992 96.673 398.692 70.753" fill="rgb(173,105,45)"/>
    <path d="M 124.784 271.807 C 122.682 272.507 121.982 273.208 121.281 277.411 C 126.885 284.416 126.885 280.213 130.388 292.823 C 131.089 319.443 126.185 311.037 128.987 329.25 C 128.286 339.058 131.089 344.662 132.49 355.17 C 131.789 347.464 131.789 339.758 129.688 330.652 C 129.688 320.143 128.987 310.336 132.49 303.331 C 128.286 294.924 135.292 280.914 125.484 278.812 C 129.688 274.609 133.891 279.513 135.292 275.309 C 138.094 277.411 140.196 277.411 140.196 279.513 C 138.094 276.01 143.698 276.71 143.698 273.208 C 141.597 273.908 140.196 277.411 136.693 276.01 C 131.789 275.309 128.987 272.507 126.185 271.106" fill="rgb(175,106,49)"/>
    <path d="M 380.479 404.908 C 397.291 402.106 388.184 411.913 379.078 411.213 C 373.473 411.913 367.869 412.614 362.965 411.213 C 367.869 407.71 374.174 406.309 381.179 405.609" fill="rgb(192,115,55)"/>
    <path d="M 117.078 280.213 C 114.976 292.823 116.377 304.732 115.677 317.341 C 116.377 331.352 116.377 334.154 117.778 349.566 C 118.479 350.967 120.581 353.069 121.281 351.668 C 120.581 327.149 124.083 307.534 124.784 283.716 C 122.682 297.026 119.88 327.849 122.682 349.566 C 116.377 342.561 117.778 329.25 116.377 319.443 C 115.677 304.031 118.479 293.523 120.581 280.914" fill="rgb(205,140,82)"/>
    <path d="M 126.185 284.416 C 128.987 306.133 121.281 327.849 125.484 350.967 C 126.885 350.967 128.286 350.967 130.388 351.668 C 129.688 343.962 126.185 337.657 125.484 329.951 C 126.185 314.539 130.388 299.828 126.885 285.117" fill="rgb(241,197,133)"/>
    <path d="M 406.398 163.224 C 406.398 166.727 399.393 167.427 397.291 170.229 C 400.794 168.128 402.896 168.828 405.698 166.727 C 411.302 171.63 404.997 176.534 409.2 177.935 C 409.901 193.347 393.088 208.058 395.19 219.267 C 396.591 215.063 407.799 191.946 409.901 181.438 C 409.901 182.839 410.602 180.737 409.901 179.336 C 411.302 171.63 407.799 163.224 406.398 163.924" fill="rgb(180,101,45)"/>
    <path d="M 175.923 4.203 C 175.222 6.304 171.72 4.203 171.019 6.304 C 168.217 11.208 170.318 14.01 173.121 15.411 C 172.42 14.01 177.324 12.609 178.024 11.208 C 184.329 9.807 191.334 7.705 196.939 11.208 C 203.244 7.005 213.051 8.406 215.153 6.304 C 215.153 2.802 210.249 4.203 206.746 3.502 C 208.147 8.406 199.04 5.604 199.04 8.406 C 191.334 5.604 180.826 11.208 172.42 9.807 C 170.318 9.807 171.72 9.107 170.318 8.406 C 175.923 5.604 180.826 4.903 184.329 4.203 C 182.228 4.203 179.425 5.604 176.623 4.203" fill="rgb(222,172,107)"/>
    <path d="M 399.393 268.304 C 397.992 280.914 400.094 293.523 402.896 304.031 C 402.195 294.224 403.596 285.117 404.297 276.01 C 402.896 272.507 404.297 268.304 401.495 268.304" fill="rgb(193,130,75)"/>
    <path d="M 119.18 394.4 C 126.185 395.801 134.591 399.304 138.794 405.609 C 135.292 408.411 124.083 401.405 119.88 397.202" fill="rgb(190,114,52)"/>
    <path d="M 116.377 225.571 C 117.778 233.978 115.677 238.882 114.976 245.887 C 115.677 245.186 114.976 243.785 115.677 243.085 C 117.778 246.587 115.677 250.09 118.479 252.192 C 121.982 251.491 124.784 255.694 130.388 254.994 C 132.49 254.293 122.682 252.892 120.581 250.791 C 119.88 242.384 121.281 232.577 117.778 226.973" fill="rgb(176,102,47)"/>
    <path d="M 344.051 11.208 C 353.858 10.508 366.468 10.508 376.275 13.31 C 365.767 17.513 353.858 12.609 343.35 13.31" fill="rgb(197,123,56)"/>
    <path d="M 383.281 405.609 C 376.275 407.01 369.27 407.71 362.965 410.512 C 369.27 414.716 400.094 407.71 385.382 404.908" fill="rgb(189,109,51)"/>
    <path d="M 306.222 404.908 C 295.714 406.309 286.607 411.913 273.297 412.614 C 271.195 405.609 262.789 416.117 262.789 404.208 C 263.489 411.913 265.591 416.117 272.596 413.314 L 273.297 414.015 L 272.596 414.716 L 272.596 416.117 L 278.201 416.817 C 264.19 416.817 293.612 406.309 306.222 407.01 C 318.832 408.411 333.543 425.924 314.628 404.908 C 312.527 402.806 310.425 408.411 308.324 405.609" fill="rgb(163,103,51)"/>
    <path d="M 116.377 214.363 C 115.677 220.668 114.976 227.673 115.677 235.379 C 117.078 237.481 114.976 226.973 117.078 224.871 C 122.682 231.176 119.18 235.379 121.281 242.384 C 121.982 246.587 121.982 250.09 119.18 251.491 C 115.677 249.39 117.078 246.587 116.377 243.085 C 114.976 252.892 114.976 250.791 117.778 251.491 L 117.778 252.892 L 119.18 250.791 C 123.383 250.791 123.383 249.39 125.484 245.186 C 123.383 237.481 122.682 231.176 119.18 226.272 C 117.078 222.069 116.377 218.566 115.677 215.764" fill="rgb(201,140,81)"/>
    <path d="M 401.495 226.973 C 402.896 231.876 403.596 236.78 401.495 242.384 C 395.89 243.785 395.19 254.293 392.388 245.186 C 393.789 249.39 395.89 250.09 397.992 250.791 C 402.896 250.791 402.896 248.689 404.997 243.085 C 408.5 236.079 401.495 236.079 404.297 225.571" fill="rgb(168,100,48)"/>
    <path d="M 192.736 400.705 C 184.329 407.71 174.522 410.512 164.014 411.913 C 166.816 411.913 233.367 411.213 179.425 409.812 C 183.629 403.507 191.334 407.01 192.035 402.106" fill="rgb(178,106,47)"/>
    <path d="M 321.634 405.609 C 330.04 404.208 335.644 408.411 340.548 408.411 C 336.345 409.812 332.842 411.213 329.34 411.913 C 325.837 411.913 323.735 409.111 323.035 407.01" fill="rgb(194,119,59)"/>
    <path d="M 123.383 78.459 C 123.383 88.967 121.281 113.486 121.281 128.197 C 122.682 133.802 119.88 136.604 125.484 138.005 C 121.982 121.192 121.982 105.08 123.383 86.165 C 123.383 81.261 124.083 79.16 127.586 81.962 C 126.185 81.962 125.484 81.261 124.784 79.86" fill="rgb(241,200,141)"/>
    <path d="M 318.832 409.111 C 323.035 414.015 326.537 414.716 330.04 414.716 C 353.158 414.716 374.174 415.416 393.789 413.314 C 393.789 411.913 393.789 411.213 393.789 410.512 C 378.377 414.716 353.858 413.314 334.243 414.716 C 328.639 413.314 323.735 413.314 320.233 411.213" fill="rgb(219,170,114)"/>
    <path d="M 190.634 10.508 C 181.527 7.705 173.821 17.513 168.217 14.01 C 174.522 11.909 199.04 17.513 194.137 9.807" fill="rgb(240,196,129)"/>
    <path d="M 403.596 70.053 C 409.901 71.454 406.398 84.764 406.398 90.368 C 402.896 84.064 403.596 79.16 402.896 72.155" fill="rgb(194,120,60)"/>
    <path d="M 199.741 407.71 C 194.137 409.111 188.532 408.411 182.928 409.812 C 189.233 411.213 203.244 406.309 203.944 411.213 C 187.832 416.817 177.324 407.71 171.72 413.314 C 183.629 414.015 220.757 416.117 202.543 408.411" fill="rgb(199,142,87)"/>
    <path d="M 390.987 397.202 C 377.676 397.202 367.168 404.908 354.559 405.609 C 362.265 404.908 371.372 403.507 378.377 403.507 C 385.382 402.106 389.586 397.903 389.586 399.304" fill="rgb(240,196,136)"/>
    <path d="M 206.046 400.004 C 190.634 402.806 215.153 412.614 219.356 413.314 C 215.853 409.812 209.548 407.71 206.046 401.405" fill="rgb(114,43,14)"/>
    <path d="M 120.581 395.801 C 122.682 401.405 135.292 406.309 138.094 407.01 C 134.591 399.304 127.586 398.603 121.982 395.101" fill="rgb(187,108,45)"/>
    <path d="M 409.901 182.839 C 409.2 194.748 400.794 205.256 397.992 215.063 C 404.997 208.058 406.398 199.652 409.901 191.245 C 409.901 188.443 410.602 185.641 409.2 184.24" fill="rgb(120,42,14)"/>
    <path d="M 260.687 4.203 C 259.987 5.604 258.586 3.502 257.885 4.903 C 256.484 9.107 256.484 12.609 257.885 14.711 C 257.185 10.508 265.591 11.208 266.992 8.406 C 266.992 7.005 264.891 3.502 262.088 3.502" fill="rgb(114,34,12)"/>
    <path d="M 306.222 406.309 C 305.521 409.812 306.923 412.614 309.725 414.015 C 312.527 415.416 314.628 417.518 316.73 416.117 C 319.532 411.913 316.73 413.314 316.029 410.512 C 312.527 408.411 309.024 409.812 306.923 407.71" fill="rgb(102,31,12)"/>
    <path d="M 124.784 282.315 C 125.484 299.828 123.383 313.138 122.682 329.25 C 125.484 336.256 121.982 348.865 124.784 351.668 C 120.581 330.652 128.286 303.331 126.185 283.015" fill="rgb(227,173,109)"/>
    <path d="M 118.479 80.561 C 121.281 96.673 112.174 119.791 117.078 133.802 C 119.88 114.187 117.078 98.775 119.88 81.261" fill="rgb(166,114,66)"/>
    <path d="M 119.18 23.818 C 117.778 32.224 118.479 42.732 117.778 51.839 C 120.581 51.839 118.479 50.438 121.281 46.935 C 123.383 40.631 120.581 32.925 118.479 25.219" fill="rgb(197,132,71)"/>
    <path d="M 219.356 7.005 C 227.062 4.903 252.281 17.513 254.383 13.31 C 244.575 9.807 234.067 9.107 223.559 4.903" fill="rgb(228,174,109)"/>
    <path d="M 404.297 37.828 C 402.896 40.631 402.896 60.245 396.591 56.743 C 401.495 58.844 404.297 56.042 407.099 57.443 C 400.094 55.342 409.2 41.331 404.997 37.128" fill="rgb(122,51,18)"/>
    <path d="M 400.094 60.946 C 400.794 61.647 400.094 62.347 400.094 67.951 C 403.596 69.352 407.099 70.053 408.5 67.951 C 409.2 63.048 404.997 61.647 402.896 60.245" fill="rgb(100,31,13)"/>
    <path d="M 119.18 369.881 C 114.276 371.983 115.677 381.09 117.078 384.593 C 128.286 391.598 139.495 392.999 147.201 402.106 C 140.196 392.999 129.688 389.496 119.88 385.293 C 115.677 381.09 116.377 374.085 117.778 369.881" fill="rgb(110,52,23)"/>
    <path d="M 116.377 384.593 C 114.976 385.994 117.778 386.694 116.377 389.496 C 128.987 391.598 140.896 400.705 146.5 405.609 C 138.094 392.999 125.484 393.7 115.677 385.994" fill="rgb(236,197,145)"/>
    <path d="M 400.094 269.705 C 405.698 272.507 402.195 284.416 402.195 288.619 C 400.094 284.416 399.393 277.411 399.393 272.507" fill="rgb(188,119,61)"/>
    <path d="M 318.131 399.304 C 320.933 404.208 339.147 402.806 345.452 404.908 C 337.046 401.405 330.741 400.004 322.334 399.304" fill="rgb(241,201,139)"/>
    <path d="M 203.944 398.603 C 202.543 400.004 195.538 400.705 200.441 404.208 C 196.238 400.705 203.244 400.705 204.645 400.004 C 208.848 407.01 215.853 409.111 220.757 411.913 C 225.661 409.111 231.965 416.817 237.57 413.314 C 235.468 415.416 229.163 411.913 221.457 410.512 C 213.752 407.01 210.249 404.908 207.447 398.603 L 206.046 398.603 L 205.345 398.603" fill="rgb(169,102,51)"/>
    <path d="M 119.88 11.208 C 121.982 17.513 125.484 34.326 124.784 35.026 C 129.688 25.219 121.281 20.315 121.281 11.909" fill="rgb(178,103,45)"/>
    <path d="M 121.281 77.058 C 119.18 89.668 120.581 138.705 114.976 132.4 C 119.18 138.005 119.18 136.604 121.281 137.304 C 118.479 120.491 121.982 98.074 121.982 79.16" fill="rgb(201,142,83)"/>
    <path d="M 126.185 37.828 C 121.281 49.737 122.682 53.24 118.479 72.155 C 119.88 63.748 122.682 58.144 124.083 51.839 C 126.185 50.438 126.185 51.839 127.586 50.438 C 121.982 47.636 126.885 41.331 126.885 39.229" fill="rgb(184,106,46)"/>
    <path d="M 116.377 210.86 C 116.377 224.871 128.987 234.678 126.885 249.39 C 128.987 248.689 129.688 249.39 130.388 250.09 C 128.987 236.079 119.88 224.871 116.377 212.261" fill="rgb(240,197,140)"/>
    <path d="M 343.35 12.609 C 351.757 11.909 365.767 16.812 374.874 14.01 C 366.468 11.909 355.96 11.208 346.853 11.909" fill="rgb(194,120,53)"/>
    <path d="M 322.334 406.309 C 323.735 408.411 325.136 411.213 328.639 411.213 C 332.842 410.512 336.345 409.111 339.848 409.812 C 335.644 409.111 330.741 405.609 323.735 405.609" fill="rgb(191,115,56)"/>
    <path d="M 221.457 10.508 C 209.548 11.208 199.741 11.909 189.233 16.112 C 200.441 16.812 209.548 10.508 221.457 11.208 C 257.185 17.513 255.083 16.112 220.056 9.807" fill="rgb(177,110,50)"/>
    <path d="M 145.099 344.662 C 148.602 343.261 144.399 348.865 147.901 348.865 C 145.099 343.962 150.704 349.566 151.404 348.165 C 149.302 350.967 150.704 353.769 145.8 354.47 C 140.896 350.266 145.8 350.266 144.399 346.764" fill="rgb(232,188,119)"/>
    <path d="M 117.078 9.807 C 120.581 16.812 117.778 27.32 124.083 32.925 C 122.682 25.219 120.581 16.112 118.479 10.508" fill="rgb(118,49,14)"/>
    <path d="M 121.982 357.272 C 124.784 360.774 115.677 361.475 117.778 365.678 C 121.281 364.277 124.083 365.678 123.383 369.181 C 121.982 359.373 140.896 356.571 121.281 360.074" fill="rgb(178,99,42)"/>
    <path d="M 267.693 8.406 C 248.778 21.716 264.19 9.107 271.896 19.615 C 268.393 17.513 269.794 13.31 268.393 10.508 L 268.393 9.807 L 267.693 11.208 L 267.693 10.508" fill="rgb(178,101,44)"/>
    <path d="M 121.281 353.069 C 115.677 353.769 115.677 358.673 116.377 363.577 C 119.88 365.678 122.682 367.78 125.484 369.881 C 121.982 367.78 122.682 364.978 117.078 365.678 C 117.778 362.176 119.88 360.774 121.281 358.673 C 120.581 357.272 121.982 355.17 121.281 353.769" fill="rgb(107,38,16)"/>
    <path d="M 298.516 413.314 C 292.912 414.716 286.607 416.117 282.404 416.117 C 296.415 418.919 302.719 416.117 302.019 412.614" fill="rgb(172,110,55)"/>
    <path d="M 171.72 395.101 L 173.121 393.7 C 175.923 397.903 177.324 395.101 180.826 395.801 C 175.923 399.304 168.217 404.208 171.019 395.801" fill="rgb(215,159,94)"/>
    <path d="M 120.581 252.192 C 117.078 252.892 115.677 256.395 116.377 260.598 L 117.078 261.999 L 117.778 262.7 C 118.479 264.801 120.581 264.801 121.982 266.202 C 120.581 264.801 118.479 264.801 117.778 262.7 C 117.078 257.796 121.982 261.299 122.682 257.796 C 121.982 256.395 121.982 254.293 120.581 252.892" fill="rgb(108,45,16)"/>
    <path d="M 400.094 267.603 C 400.094 268.304 399.393 269.005 397.992 268.304 C 397.992 284.416 398.692 301.93 403.596 313.138 C 407.099 280.213 397.992 320.844 397.992 263.4 C 400.094 267.603 401.495 268.304 402.195 267.603 C 404.297 271.807 404.297 274.609 404.997 277.411 C 404.297 274.609 404.997 270.406 404.297 267.603 C 402.896 267.603 402.195 267.603 401.495 268.304" fill="rgb(217,171,118)"/>
    <path d="M 175.222 15.411 C 184.329 16.112 175.222 18.213 172.42 16.812 C 172.42 18.914 173.121 21.016 174.522 21.716 C 172.42 23.117 169.618 24.518 171.72 25.919 C 169.618 21.016 194.837 16.112 178.024 15.411" fill="rgb(178,104,46)"/>
    <path d="M 398.692 257.095 C 397.992 261.299 398.692 261.299 399.393 264.101 C 400.094 266.903 402.896 266.903 403.596 266.903 C 405.698 262.7 402.896 259.197 400.094 258.497" fill="rgb(107,38,18)"/>
    <path d="M 404.297 70.753 C 403.596 78.459 403.596 83.363 404.997 89.668 C 406.398 84.064 407.099 76.358 405.698 70.753" fill="rgb(189,112,52)"/>
    <path d="M 119.18 29.422 C 121.281 32.925 121.281 41.331 120.581 46.235 C 117.078 42.732 118.479 36.427 117.778 32.224" fill="rgb(191,123,60)"/>
    <path d="M 334.944 84.764 C 334.944 83.363 335.644 84.064 337.046 84.064 C 339.848 85.465 338.447 86.866 341.249 88.267 C 337.746 88.967 324.436 85.465 333.543 84.064" fill="rgb(229,187,122)"/>
    <path d="M 121.281 4.903 C 121.982 8.406 123.383 8.406 124.083 11.909 C 126.885 6.304 133.891 9.807 137.393 11.208 C 133.891 8.406 128.286 4.203 121.982 5.604" fill="rgb(172,101,46)"/>
    <path d="M 402.195 384.593 C 402.195 383.192 403.596 385.293 404.997 385.293 C 406.398 388.796 405.698 390.197 404.997 392.999 C 407.799 383.192 395.89 394.4 400.094 384.593" fill="rgb(205,123,53)"/>
    <path d="M 375.575 398.603 C 369.27 399.304 363.666 402.106 358.062 402.806 C 348.955 401.405 341.249 401.405 334.243 399.304 C 342.65 400.705 349.655 405.609 360.163 403.507 C 365.767 400.705 370.671 400.004 374.874 398.603" fill="rgb(117,48,15)"/>
    <path d="M 145.099 405.609 C 136.693 409.812 141.597 418.919 149.302 414.015 C 150.003 411.213 150.704 409.111 150.003 406.309 C 150.704 408.411 150.003 410.512 148.602 411.913 C 145.099 414.015 142.998 411.913 142.297 411.213 C 142.998 409.111 146.5 409.812 146.5 406.309" fill="rgb(100,44,20)"/>
    <path d="M 120.581 138.005 C 117.778 138.005 116.377 140.106 115.677 142.908 C 114.276 148.513 114.976 152.716 117.778 155.518 C 112.174 151.315 118.479 146.411 117.078 141.507 C 119.18 136.604 122.682 141.507 123.383 142.208 C 125.484 139.406 123.383 138.005 121.982 137.304" fill="rgb(111,46,19)"/>
    <path d="M 402.896 91.069 C 400.794 105.78 410.602 128.898 409.901 142.908 C 412.703 119.791 403.596 119.791 403.596 89.668" fill="rgb(218,173,114)"/>
    <path d="M 118.479 143.609 C 118.479 146.411 115.677 147.812 115.677 150.614 C 117.078 154.117 117.078 155.518 118.479 157.62 C 121.982 161.823 124.083 163.924 128.987 164.625 C 117.778 157.62 123.383 159.021 116.377 153.416 C 118.479 149.213 119.88 152.015 120.581 152.716 C 119.88 152.015 119.18 147.112 122.682 147.812 C 121.281 146.411 117.778 147.112 117.778 144.31" fill="rgb(175,105,51)"/>
    <path d="M 392.388 22.417 C 391.687 30.823 386.783 38.529 385.382 46.235 L 383.981 46.235 L 383.981 44.834 L 384.682 46.935 L 386.083 47.636 C 389.586 40.631 392.388 29.422 393.789 22.417" fill="rgb(166,102,51)"/>
    <path d="M 116.377 390.897 C 124.784 394.4 140.196 399.304 142.998 406.309 C 142.998 401.405 137.393 400.004 134.591 397.202 C 127.586 395.801 124.083 390.197 118.479 390.897" fill="rgb(223,173,110)"/>
    <path d="M 340.548 50.438 C 344.051 49.737 342.65 54.641 340.548 55.342 C 337.746 54.641 335.644 55.342 334.243 53.941 C 334.243 50.438 337.746 53.24 339.147 51.139" fill="rgb(229,187,121)"/>
    <path d="M 116.377 161.823 C 119.18 167.427 113.575 175.834 118.479 178.636 C 119.18 179.336 114.976 171.63 117.778 167.427 C 121.281 171.63 128.987 163.924 135.992 170.93 C 131.089 162.523 123.383 172.331 117.778 163.224" fill="rgb(167,109,59)"/>
    <path d="M 402.195 342.561 C 409.2 345.363 404.297 354.47 406.398 356.571 C 409.901 353.769 409.2 350.967 409.2 348.165 C 407.099 346.063 404.997 346.063 404.297 343.261" fill="rgb(105,40,20)"/>
    <path d="M 396.591 4.203 C 390.286 5.604 384.682 4.203 377.676 5.604 C 382.58 5.604 390.286 4.203 388.184 11.208 C 390.286 4.203 401.495 3.502 397.992 4.903" fill="rgb(229,193,137)"/>
    <path d="M 400.794 271.106 C 399.393 276.71 400.794 283.015 400.794 288.619 C 402.896 283.015 403.596 276.71 401.495 270.406" fill="rgb(184,111,51)"/>
    <path d="M 195.538 400.004 C 193.436 403.507 190.634 405.609 187.131 407.71 C 192.035 403.507 207.447 409.111 195.538 401.405" fill="rgb(242,197,137)"/>
    <path d="M 408.5 208.759 C 404.997 212.261 404.297 217.866 402.896 222.069 C 407.799 219.967 408.5 214.363 408.5 210.16" fill="rgb(184,108,50)"/>
    <path d="M 130.388 80.561 C 129.688 81.962 127.586 81.962 126.885 82.663 C 126.185 85.465 126.185 86.165 126.885 87.566 C 122.682 105.78 128.286 127.497 126.885 145.01 C 128.286 124.695 122.682 105.78 128.286 84.064 C 128.286 84.064 134.591 79.86 132.49 81.261" fill="rgb(169,105,55)"/>
    <path d="M 123.383 47.636 C 118.479 51.139 121.281 58.144 117.778 60.946 C 117.078 67.251 118.479 70.753 119.18 74.256 C 115.677 66.55 121.982 57.443 122.682 49.037" fill="rgb(107,45,20)"/>
    <path d="M 213.051 9.107 C 204.645 12.609 231.265 7.005 235.468 11.909 C 229.864 9.107 222.859 9.107 215.853 7.705" fill="rgb(126,53,12)"/>
    <path d="M 397.992 281.614 C 395.89 299.828 403.596 315.94 404.997 331.352 C 406.398 303.331 399.393 320.844 397.291 280.213" fill="rgb(231,193,145)"/>
    <path d="M 388.885 399.304 C 381.88 405.609 370.671 403.507 360.864 404.908 C 367.869 406.309 395.89 402.806 388.885 400.004" fill="rgb(226,172,110)"/>
    <path d="M 316.73 402.106 C 330.741 404.208 343.35 407.01 358.762 405.609 C 345.452 404.908 334.243 404.208 318.832 402.106" fill="rgb(226,171,109)"/>
    <path d="M 346.853 4.203 C 326.537 9.807 360.864 5.604 371.372 4.203 C 362.965 3.502 352.457 6.304 342.65 4.203" fill="rgb(223,194,147)"/>
    <path d="M 145.8 344.662 C 146.5 350.266 142.297 349.566 144.399 353.769 C 150.704 353.069 148.602 350.967 150.704 348.865 C 147.901 346.764 146.5 350.266 145.099 346.764" fill="rgb(230,186,118)"/>
    <path d="M 182.228 23.818 C 185.03 22.417 187.832 25.919 189.233 25.919 C 185.73 28.021 180.126 28.021 180.826 23.818" fill="rgb(227,162,89)"/>
    <path d="M 171.019 37.828 C 175.222 37.828 174.522 44.133 175.222 46.935 C 172.42 44.834 173.121 41.331 169.618 39.229" fill="rgb(196,115,49)"/>
    <path d="M 121.982 88.267 C 121.281 103.679 120.581 121.192 119.18 136.604 C 120.581 123.994 121.281 104.379 122.682 89.668" fill="rgb(230,173,107)"/>
    <path d="M 398.692 68.652 C 401.495 79.16 402.195 92.47 401.495 103.679 C 403.596 93.171 400.094 77.058 400.794 68.652" fill="rgb(245,195,131)"/>
    <path d="M 172.42 394.4 C 168.217 403.507 174.522 398.603 179.425 397.202 C 177.324 397.202 175.222 397.903 173.821 394.4" fill="rgb(212,157,92)"/>
    <path d="M 407.799 68.652 C 407.799 74.256 408.5 85.465 407.799 92.47 C 409.901 86.165 407.799 76.358 410.602 69.352" fill="rgb(210,168,121)"/>
    <path d="M 365.767 5.604 C 368.57 4.903 372.773 5.604 375.575 4.903 C 372.773 7.705 369.27 7.705 366.468 7.005" fill="rgb(224,185,126)"/>
    <path d="M 236.869 1.401 C 243.174 3.502 246.677 2.802 258.586 4.903 C 260.687 0 243.875 2.101 237.57 1.401" fill="rgb(207,168,120)"/>
    <path d="M 393.789 48.336 C 395.19 46.935 396.591 50.438 397.992 51.139 C 396.591 52.54 395.89 54.641 395.19 54.641 C 393.088 52.54 391.687 51.139 393.789 49.737" fill="rgb(202,125,60)"/>
    <path d="M 391.687 253.593 C 397.992 253.593 393.789 264.801 397.992 266.202 C 398.692 263.4 395.89 258.497 398.692 257.095 C 397.291 256.395 396.591 254.994 393.789 254.293" fill="rgb(169,100,48)"/>
    <path d="M 336.345 84.764 C 325.136 84.764 336.345 87.566 339.147 89.668 C 337.046 87.566 339.848 84.764 336.345 84.064" fill="rgb(229,186,121)"/>
    <path d="M 397.992 308.234 C 400.794 316.641 402.195 325.748 402.896 334.855 C 404.997 326.448 400.794 317.341 399.393 308.935" fill="rgb(118,53,19)"/>
    <path d="M 122.682 73.556 C 112.875 74.957 131.789 78.459 141.597 81.261 C 135.992 78.459 125.484 77.058 123.383 73.556" fill="rgb(168,110,61)"/>
    <path d="M 117.778 114.187 C 119.88 114.887 116.377 121.192 117.078 123.994 C 114.976 121.192 114.976 118.39 117.078 116.288" fill="rgb(170,122,79)"/>
    <path d="M 117.078 220.668 C 121.281 227.673 129.688 245.887 122.682 250.791 C 127.586 240.283 121.982 229.074 117.078 221.368" fill="rgb(226,174,109)"/>
    <path d="M 389.586 59.545 C 391.687 59.545 393.088 58.844 392.388 64.449 C 388.885 63.748 390.286 62.347 388.184 60.946" fill="rgb(223,159,92)"/>
    <path d="M 123.383 352.368 C 123.383 355.871 126.885 356.571 128.987 355.871 C 130.388 352.368 126.885 352.368 125.484 353.069" fill="rgb(109,28,9)"/>
    <path d="M 157.709 9.807 C 145.099 14.711 161.212 7.005 161.912 12.609 C 164.014 14.01 164.014 21.016 166.816 26.62 C 171.72 17.513 161.912 25.919 164.714 9.807 C 161.912 10.508 159.81 10.508 158.409 9.807" fill="rgb(163,114,70)"/>
  </g>
  <g transform="matrix(0.085381, 0, 0, -0.085381, 44.009312, 555.566284)" fill="#000000" stroke="none">
    <path d="M4520 5044 c17 -10 63 -25 104 -32 104 -19 111 -46 15 -62 -93 -16 -314 5 -330 32 -18 28 -49 21 -49 -11 0 -59 81 -77 309 -67 254 11 294 5 287 -40 -8 -44 135 -69 307 -54 81 7 138 4 146 -8 26 -43 -90 -68 -378 -83 -166 -8 -341 -26 -391 -40 -49 -14 -98 -24 -108 -21 -92 23 -166 -92 -92 -144 54 -38 30 -55 -43 -30 -41 14 -62 37 -70 77 -10 50 -16 54 -49 33 -80 -50 12 -194 124 -194 30 0 61 -9 68 -20 7 -11 -1 -20 -17 -20 -16 0 -34 -11 -39 -25 -7 -19 -16 -17 -37 6 -55 64 -134 102 -123 60 19 -72 121 -145 257 -183 214 -59 287 -182 135 -227 -35 -10 -74 -39 -88 -64 -13 -25 -31 -41 -40 -36 -8 5 -56 -1 -106 -15 -83 -22 -96 -20 -147 17 -115 85 -225 83 -225 -3 0 -26 -19 -80 -43 -120 -31 -53 -39 -92 -31 -151 5 -43 3 -79 -6 -79 -44 0 -280 232 -280 276 0 11 -13 25 -30 31 -34 13 -41 73 -10 73 12 0 29 -20 40 -45 43 -104 112 -152 95 -67 -6 32 -1 45 15 39 13 -5 21 -29 17 -53 -5 -28 15 -69 54 -114 53 -59 61 -63 53 -25 -6 25 -2 45 8 45 10 0 18 14 18 30 0 17 19 71 43 121 l42 91 -42 45 c-49 52 -54 93 -18 132 20 22 19 25 -8 15 -59 -20 -144 14 -147 60 -2 30 6 39 27 31 18 -7 24 -3 16 10 -27 44 36 129 131 177 102 52 136 104 41 64 -30 -13 -64 -31 -74 -40 -10 -9 -48 -16 -83 -16 -35 0 -74 -13 -87 -29 -49 -59 -216 -152 -250 -139 -22 9 -53 -6 -90 -41 -41 -40 -61 -48 -72 -29 -10 15 5 41 41 69 38 31 52 57 45 85 -7 29 18 65 97 137 102 92 127 127 93 127 -37 0 -235 -184 -237 -221 -2 -22 -18 -57 -37 -78 -19 -21 -42 -71 -51 -112 l-17 -73 61 12 c34 7 90 12 126 12 49 0 90 22 160 85 180 162 252 180 121 30 -105 -121 -106 -138 -2 -164 96 -24 190 -156 154 -214 -13 -20 -23 -66 -24 -102 l-1 -65 -38 70 c-42 77 -51 151 -20 170 23 14 27 90 5 90 -40 -1 -65 -36 -52 -72 13 -33 11 -35 -19 -11 -18 15 -29 36 -23 45 7 10 -3 33 -21 51 -30 30 -33 29 -44 -10 -15 -61 -46 -53 -48 12 -1 32 -6 43 -13 25 -17 -44 -65 -87 -80 -71 -8 7 -1 21 15 31 24 15 25 23 4 44 -21 21 -29 21 -43 -2 -9 -15 -27 -21 -40 -13 -12 8 -37 2 -55 -12 -26 -21 -34 -22 -41 -2 -13 38 -39 30 -51 -15 -10 -41 -54 -57 -54 -20 0 11 -9 20 -20 20 -11 0 -20 -19 -20 -42 0 -36 -8 -40 -55 -29 -30 8 -49 8 -41 0 29 -29 -24 -94 -55 -68 -24 20 -29 15 -29 -27 0 -48 -5 -51 -73 -40 l-74 12 34 -47 c49 -70 41 -82 -40 -67 l-73 14 33 -48 c48 -68 41 -83 -30 -67 l-64 14 43 -55 c50 -64 40 -100 -19 -68 -53 28 -91 -5 -48 -41 39 -33 40 -81 2 -81 -19 0 -25 -12 -18 -31 7 -19 26 -26 49 -18 42 13 71 -33 47 -73 -11 -17 -23 -14 -42 13 -16 21 -27 26 -27 11 0 -18 -18 -21 -63 -11 -62 13 -62 13 -30 -33 42 -59 43 -106 3 -90 -16 7 -43 17 -58 23 -23 10 -26 -4 -18 -70 12 -87 -18 -110 -64 -48 -35 49 -72 14 -63 -60 4 -34 3 -47 -1 -27 -7 29 -15 32 -38 13 -38 -32 -37 -119 2 -119 36 0 40 -32 6 -52 -13 -8 -27 -4 -31 8 -5 13 -20 24 -34 24 -18 0 -23 34 -19 120 3 67 -2 120 -13 120 -10 0 -19 -9 -19 -20 0 -38 -30 -20 -55 34 -25 54 -15 95 12 50 11 -18 27 -13 59 17 59 54 55 65 -16 49 -65 -14 -79 9 -30 50 17 14 30 35 30 46 0 14 -8 14 -24 -2 -48 -48 -82 -28 -68 40 10 51 8 60 -12 40 -42 -42 -101 -31 -77 15 32 58 26 88 -10 52 -43 -43 -104 -43 -69 -1 58 70 -4 47 -113 -41 -128 -103 -208 -191 -194 -213 4 -8 -3 -32 -17 -54 -41 -67 -6 -68 110 -2 110 61 253 71 195 13 -16 -16 -27 -16 -37 -1 -23 35 -146 -24 -131 -63 7 -19 -7 -49 -35 -75 l-47 -44 45 -6 45 -7 -40 -50 c-21 -27 -34 -65 -28 -83 9 -28 7 -29 -10 -5 -31 45 -47 14 -24 -46 11 -29 34 -53 50 -53 31 0 32 -36 2 -105 -26 -60 -49 -38 -30 28 10 34 11 56 4 48 -44 -43 -62 -176 -25 -185 32 -9 51 -40 71 -123 18 -77 33 -38 23 63 -10 98 -5 120 29 153 59 55 47 195 -22 257 l-51 47 52 -11 c48 -10 56 -2 100 108 59 148 93 153 154 20 26 -56 55 -96 65 -89 11 6 19 -12 19 -40 0 -28 7 -50 15 -49 39 7 48 -5 25 -32 -14 -16 -38 -30 -55 -30 -18 0 -25 12 -18 30 7 18 0 30 -18 30 -16 0 -29 14 -29 30 0 22 -22 30 -80 30 l-80 0 0 -90 c0 -49 1 -97 1 -105 2 -18 34 -15 89 6 40 16 40 16 0 -29 -34 -40 -36 -49 -10 -69 17 -13 30 -36 30 -53 0 -18 22 -33 55 -36 67 -8 70 -31 10 -75 l-45 -33 55 12 c71 16 71 -14 0 -47 -57 -26 -24 -81 49 -81 41 0 30 -36 -15 -50 -75 -24 -139 39 -139 137 0 90 -33 213 -58 213 -71 0 -102 -66 -102 -218 l0 -156 96 9 c87 8 103 3 182 -64 123 -102 140 -109 293 -115 l136 -6 65 90 c37 50 90 119 119 155 l52 64 -41 53 c-23 30 -42 65 -42 78 0 14 -28 37 -62 51 -80 33 -110 82 -140 233 -25 123 -5 205 44 175 10 -6 18 30 18 80 0 91 0 91 70 91 67 0 68 2 46 50 -24 53 -13 83 23 61 11 -7 21 -35 21 -62 0 -27 9 -49 20 -49 11 0 20 -9 20 -20 0 -11 -22 -20 -50 -20 -30 0 -50 -11 -50 -29 0 -15 -16 -32 -35 -37 -19 -5 -1 -10 40 -12 92 -3 101 -42 10 -42 -45 -1 -56 -6 -37 -18 15 -10 21 -28 13 -41 -10 -16 1 -19 37 -10 43 11 55 4 72 -40 25 -66 25 -71 0 -71 -11 0 -20 14 -20 30 0 39 -32 39 -47 0 -7 -17 -26 -30 -45 -30 -20 0 -28 11 -21 30 15 39 -21 38 -61 -1 -28 -28 -27 -32 11 -43 48 -12 55 -46 19 -82 -19 -19 -14 -24 22 -24 33 0 43 -9 35 -30 -8 -21 1 -30 29 -30 22 0 35 -8 29 -18 -16 -26 9 -82 37 -82 68 0 120 -214 57 -235 -14 -5 -25 -21 -25 -37 0 -15 -13 -28 -30 -28 -20 0 -30 -20 -30 -61 0 -54 -6 -60 -42 -48 -36 11 -40 7 -29 -29 11 -33 5 -42 -28 -42 -22 0 -40 -7 -39 -15 13 -83 -50 -117 -102 -55 -13 16 -33 24 -43 18 -25 -15 19 -68 55 -68 16 0 28 -9 28 -20 0 -11 -13 -20 -30 -20 -16 0 -30 11 -30 23 0 13 -6 18 -13 10 -8 -7 -31 2 -52 21 -37 34 -38 33 -25 -17 13 -52 -70 -106 -87 -56 -13 38 -63 18 -63 -26 l0 -44 -47 49 c-27 28 -44 56 -40 64 25 43 -71 92 -146 75 -157 -35 -245 -299 -99 -299 11 0 9 11 -4 24 -36 36 -31 123 6 109 41 -16 90 5 90 39 0 15 14 28 30 28 17 0 30 -7 30 -15 0 -9 20 -24 45 -35 56 -25 68 -80 26 -121 -17 -18 -31 -25 -31 -17 0 8 -18 -7 -40 -32 -22 -25 -40 -39 -40 -29 0 9 -12 0 -27 -20 -15 -21 -37 -31 -50 -23 -13 8 -23 4 -23 -8 0 -12 -8 -17 -19 -11 -10 7 -28 -4 -39 -24 -12 -19 -21 -26 -22 -15 0 11 -9 7 -20 -10 -17 -27 -20 -27 -21 0 -1 20 -7 17 -19 -10 -17 -40 -17 -40 -19 0 -1 33 -5 35 -21 10 -17 -26 -19 -26 -20 3 0 18 -14 38 -32 45 -48 19 -108 14 -108 -8 0 -11 14 -20 31 -20 17 0 26 -9 19 -20 -7 -12 -21 -15 -31 -9 -11 6 -19 -5 -19 -25 -1 -31 -4 -31 -20 -6 -18 27 -22 27 -40 0 -11 -16 -20 -21 -22 -10 -1 11 -9 -2 -18 -30 l-16 -50 -2 47 c-2 39 -10 46 -47 36 -25 -7 -61 -13 -79 -13 -83 0 -114 -161 -49 -250 27 -36 28 -31 18 55 -12 107 2 117 59 45 51 -65 83 -63 140 7 75 93 140 124 268 127 137 3 202 38 365 195 59 57 112 99 117 93 6 -5 -35 -55 -92 -110 -56 -55 -102 -109 -102 -121 0 -11 -13 -21 -28 -21 -16 0 -32 -9 -36 -21 -4 -12 -20 -23 -36 -26 -17 -2 -40 -10 -52 -18 -12 -7 -60 -20 -106 -27 -60 -10 -81 -21 -74 -41 6 -15 1 -27 -10 -27 -11 0 -15 -9 -8 -20 7 -11 -2 -20 -20 -20 -24 0 -29 -11 -19 -43 11 -33 7 -40 -17 -31 -32 12 -53 -37 -54 -128 0 -102 150 -176 240 -118 23 15 15 19 -33 20 -52 0 -61 7 -54 37 6 20 -6 53 -25 72 -34 34 -34 37 -2 61 19 13 34 44 34 67 0 63 105 121 197 110 110 -14 313 147 272 215 -5 8 0 21 12 29 26 16 15 -70 -20 -161 -13 -33 -24 -64 -24 -70 0 -5 -10 -21 -21 -35 -12 -14 -15 -25 -7 -25 7 0 -1 -20 -18 -44 -94 -135 90 -255 208 -137 136 136 157 341 35 341 -35 0 -34 -4 9 -40 l47 -40 -47 -39 c-25 -22 -40 -49 -33 -61 12 -19 -62 -98 -93 -99 -26 -2 -42 122 -19 145 12 12 22 41 22 64 0 50 163 305 222 346 23 16 55 60 70 97 16 37 38 67 50 67 73 0 379 266 439 384 57 108 55 511 -2 583 -29 36 -32 52 -14 59 18 6 19 15 3 32 -30 32 -88 6 -88 -40 0 -21 -9 -38 -20 -38 -11 0 -20 36 -20 80 0 44 -9 80 -20 80 -11 0 -20 14 -20 30 0 17 9 30 20 30 11 0 20 14 20 30 0 17 10 30 21 30 12 0 16 9 9 20 -7 11 -29 17 -50 14 -44 -7 -79 -34 -43 -34 13 0 23 -13 23 -30 0 -48 -52 -34 -77 21 -42 93 -27 130 36 90 19 -12 39 -11 55 2 28 23 86 -21 86 -66 0 -19 6 -19 23 -2 17 17 34 15 67 -7 25 -16 53 -28 63 -26 9 3 42 -6 73 -19 72 -29 74 -29 74 7 0 17 18 30 40 30 24 0 50 21 64 50 26 57 108 117 137 100 30 -19 23 -56 -9 -44 -20 8 -24 -1 -17 -31 9 -33 4 -39 -23 -28 -28 10 -32 5 -21 -30 11 -35 7 -41 -22 -30 -30 12 -31 9 -8 -18 22 -27 22 -35 0 -49 -29 -17 -15 -80 18 -80 11 0 15 14 8 30 -6 17 -1 30 11 30 12 0 22 18 22 40 0 22 9 40 20 40 11 0 20 17 20 38 0 20 14 49 31 63 21 17 24 32 10 46 -12 12 -21 30 -21 41 0 11 18 0 40 -23 48 -51 51 -85 10 -85 -16 0 -30 -13 -30 -30 0 -36 33 -40 46 -5 5 14 15 19 23 11 8 -7 1 -34 -17 -59 -36 -51 -43 -106 -12 -87 25 15 180 242 180 263 0 8 -27 -11 -60 -43 -55 -53 -116 -58 -64 -6 38 38 32 107 -6 76 -25 -20 -30 -19 -30 9 0 18 -9 28 -21 20 -11 -7 -33 -2 -48 10 -20 17 -30 14 -40 -13 -12 -32 -17 -31 -39 11 l-26 48 -14 -48 -14 -47 -22 45 c-25 51 -56 60 -56 16 0 -54 -31 -48 -66 12 l-34 60 135 -9 c468 -32 542 -65 440 -196 -141 -180 -140 -177 -126 -249 14 -73 -7 -89 -49 -39 -39 46 -60 36 -60 -30 0 -66 -33 -83 -44 -21 -6 41 -152 -37 -170 -92 -12 -36 434 -66 657 -43 187 19 508 136 373 136 -29 0 -57 -11 -62 -25 -6 -17 -23 -11 -58 20 -61 56 -116 59 -116 5 0 -55 -40 -51 -42 5 0 25 -5 61 -10 80 -29 106 -28 148 1 185 25 32 29 33 19 5 -15 -43 28 -48 45 -5 14 38 47 39 47 1 0 -16 24 -31 55 -35 56 -6 101 -156 46 -156 -60 0 -9 -36 64 -46 104 -14 145 16 80 60 -50 35 -61 77 -15 59 22 -9 30 2 30 38 0 30 11 49 30 49 20 0 30 -21 31 -65 l0 -65 46 52 c25 29 63 62 85 74 36 22 36 23 -6 23 -92 2 -190 118 -183 215 5 52 -1 84 -13 79 -11 -4 -67 -23 -125 -42 -116 -38 -223 -143 -286 -281 -20 -45 -37 -64 -38 -44 -2 52 53 153 126 232 l63 68 -67 -38 c-38 -21 -107 -85 -154 -143 l-86 -106 58 -142 c67 -163 66 -185 -7 -98 -62 73 -157 84 -186 22 -11 -26 -27 -34 -43 -24 -30 19 89 283 127 283 13 0 29 29 37 65 7 36 25 92 41 125 l27 60 -12 -70 -12 -69 101 89 c112 100 120 119 29 71 -69 -35 -90 -39 -75 -14 6 10 -52 24 -130 32 -94 9 -138 21 -132 37 9 28 -91 75 -153 72 -30 -1 -22 -8 27 -24 95 -29 14 -45 -89 -17 -44 12 -96 13 -134 2 -38 -11 -75 -10 -95 1 -26 15 -26 19 -3 19 23 1 24 6 5 25 -47 47 -23 55 48 15 40 -23 77 -36 83 -31 6 6 -13 21 -42 34 -29 14 -53 32 -53 42 0 9 25 4 55 -11 125 -64 148 -53 41 20 -106 72 -168 148 -142 174 6 7 56 -31 109 -82 122 -117 191 -159 82 -50 -76 76 -121 165 -83 165 10 0 18 -7 18 -16 0 -9 14 -34 31 -55 30 -38 30 -38 10 5 -26 55 -28 206 -1 206 10 0 25 -22 32 -50 7 -27 20 -45 29 -39 10 6 32 -19 50 -55 19 -36 52 -86 75 -111 22 -25 35 -45 27 -45 -20 0 -120 65 -137 89 -8 11 -21 12 -30 3 -29 -29 166 -184 289 -229 122 -44 521 -65 497 -25 -6 9 31 14 83 10 l95 -7 -87 19 c-109 23 -149 55 -135 109 10 40 9 40 -19 2 -16 -21 -34 -33 -40 -26 -17 17 28 95 57 98 13 1 43 4 67 7 72 7 107 27 107 59 0 17 9 31 20 31 29 0 25 -47 -10 -113 -35 -66 -38 -119 -10 -137 11 -7 20 9 20 38 0 27 9 55 20 62 11 7 20 -12 20 -44 1 -43 5 -49 20 -26 11 17 20 21 20 10 0 -11 8 -8 18 7 13 21 29 14 73 -30 l57 -56 16 64 c10 36 25 65 35 65 18 0 -2 -97 -30 -141 -10 -17 -18 -17 -28 0 -11 17 -28 17 -67 -1 -29 -13 -48 -31 -43 -40 5 -8 1 -21 -11 -28 -11 -7 -19 -41 -18 -76 l2 -64 16 67 c9 37 32 82 51 100 32 31 34 30 20 -7 -8 -22 -19 -69 -25 -105 -6 -36 -20 -65 -31 -65 -11 0 -8 -14 6 -31 22 -27 30 -26 67 8 23 21 78 58 122 82 179 96 241 141 271 194 17 30 75 82 129 116 312 195 421 560 200 671 -87 44 -219 187 -226 246 -7 59 5 64 214 94 238 33 310 92 288 233 l-10 64 -126 -1 c-69 0 -173 15 -229 34 -67 22 -183 36 -327 39 -123 3 -255 12 -294 20 -47 9 -60 7 -40 -5z m495 -115 c34 -17 117 -40 185 -52 169 -30 137 -43 -63 -25 -92 8 -156 18 -142 23 17 6 10 21 -20 46 -55 46 -41 49 40 8z m358 -59 c6 -16 21 -24 34 -16 13 8 11 -2 -4 -20 -29 -35 -53 -47 -34 -16 6 9 -19 32 -54 49 l-65 32 56 1 c31 0 60 -13 67 -30z m-472 -315 l2 -45 18 45 c18 46 70 65 53 20 -5 -14 10 -45 32 -70 23 -25 31 -45 19 -45 -13 0 -29 10 -36 22 -7 12 -32 17 -54 11 -67 -18 -120 21 -95 68 29 52 60 49 61 -6z m-93 -57 c20 -19 -118 -18 -148 2 -22 14 -7 18 54 14 46 -3 89 -10 94 -16z m-104 -40 c58 -12 115 -30 125 -40 34 -32 53 -19 31 21 -25 48 143 -14 200 -73 27 -28 25 -28 -16 -7 -25 13 -57 20 -70 16 -13 -5 3 -23 36 -40 103 -53 135 -105 144 -230 5 -63 3 -108 -5 -101 -7 8 -42 -29 -78 -80 -35 -52 -116 -148 -180 -214 -160 -166 -166 -173 -182 -236 -16 -65 -35 -56 -38 18 -2 30 12 59 33 70 20 11 50 48 69 84 18 35 45 71 60 80 15 9 27 32 27 53 0 20 16 48 35 64 32 24 32 24 8 -8 -43 -54 -2 -41 61 19 64 62 77 112 14 54 -23 -21 -48 -36 -55 -34 -30 10 -102 -20 -133 -54 -19 -21 -46 -33 -61 -27 -14 6 -54 -20 -87 -56 -34 -37 -61 -55 -61 -41 -1 15 -11 20 -23 13 -13 -8 -20 4 -18 34 7 74 2 92 -27 103 -19 7 -24 -3 -18 -35 6 -34 -3 -48 -36 -57 -34 -9 -39 -6 -22 11 13 13 23 44 23 69 0 38 97 106 152 106 19 0 5 -40 -23 -69 -49 -48 28 -41 127 12 90 47 129 105 132 196 1 33 9 61 17 61 22 0 18 -128 -5 -189 l-19 -52 59 31 c148 77 163 265 30 386 -79 73 -123 72 -55 -1 56 -60 83 -136 65 -185 -12 -35 -16 -32 -28 22 -8 34 -59 113 -115 175 l-100 113 -164 0 c-112 1 -154 7 -133 20 40 26 174 25 304 -2z m-48 -81 c26 -9 40 -27 33 -38 -7 -12 4 -34 24 -50 33 -25 29 -26 -30 -6 -41 14 -58 28 -43 37 13 8 -24 21 -82 28 -162 22 -227 78 -68 60 66 -8 141 -21 166 -31z m-16 -112 c-1 -57 -37 -66 -102 -27 l-68 42 85 0 c47 0 85 -7 85 -15z m646 -157 c-1 -40 -13 -82 -25 -95 -18 -17 -21 -10 -11 30 7 29 4 87 -8 128 -19 71 -19 74 13 43 20 -20 32 -62 31 -106z m-506 72 c22 -22 39 -65 38 -95 -2 -54 -2 -54 -20 10 -21 71 -98 130 -98 75 0 -18 -9 -27 -20 -20 -11 7 -20 25 -20 41 0 42 74 35 120 -11z m-54 -224 c-20 -35 -50 -67 -66 -72 -23 -8 -22 -1 5 30 19 21 35 67 35 101 0 34 11 66 25 70 40 14 41 -61 1 -129z m-678 -69 c12 -31 -53 -175 -90 -198 -13 -8 -17 -42 -9 -86 11 -68 10 -70 -19 -34 -43 56 -37 111 22 198 32 47 49 94 43 123 -10 51 33 49 53 -3z m955 -142 c-15 -5 -59 -38 -99 -72 l-72 -63 49 67 c47 65 118 110 139 88 6 -6 -2 -15 -17 -20z m-1948 -85 c46 0 63 -154 21 -196 -42 -42 -53 -26 -31 44 22 72 8 143 -24 123 -23 -14 -66 58 -46 77 8 8 24 0 37 -17 12 -17 32 -31 43 -31z m-158 -9 c12 -60 -33 -85 -54 -29 -10 26 -14 55 -9 64 15 26 55 4 63 -35z m303 -12 c0 -10 -12 -19 -28 -19 -33 0 -77 49 -59 66 16 16 87 -22 87 -47z m-360 -89 c13 -16 19 -45 12 -63 -8 -19 -3 -40 9 -48 13 -7 19 -31 13 -51 -9 -34 -11 -34 -24 7 -18 54 -50 60 -50 8 0 -55 -23 -67 -52 -28 -38 50 -34 85 9 85 29 0 34 12 27 60 -9 65 16 78 56 30z m320 -99 c0 -27 -9 -54 -20 -61 -12 -7 -20 13 -20 49 0 33 9 61 20 61 11 0 20 -22 20 -49z m-99 -100 c-14 -17 -34 -31 -43 -31 -26 0 -22 48 6 76 35 35 69 -6 37 -45z m1276 -96 c5 40 39 29 66 -20 21 -41 20 -42 -10 -18 -40 34 -47 -13 -12 -78 32 -60 -11 -47 -67 20 -34 40 -47 75 -40 105 21 97 33 106 47 36 7 -38 15 -59 16 -45z m-2237 67 c0 -9 -13 -28 -28 -41 -32 -26 -64 4 -42 39 15 25 70 27 70 2z m740 -20 c0 -42 -52 -71 -71 -40 -14 22 25 78 53 78 10 0 18 -17 18 -38z m390 -2 c16 -26 -7 -100 -31 -100 -11 0 -19 27 -19 60 0 59 26 79 50 40z m90 -39 c0 -20 -13 -42 -30 -48 -31 -12 -45 65 -17 93 20 21 47 -5 47 -45z m512 -456 c-18 -18 -112 23 -112 48 0 24 10 23 59 -6 33 -19 57 -38 53 -42z m-2037 -16 c6 -49 -22 -67 -45 -29 -7 12 -21 15 -31 9 -11 -6 -19 -1 -19 12 0 13 14 18 32 11 23 -9 29 -4 22 16 -12 30 5 59 23 41 6 -6 14 -33 18 -60z m445 15 c0 -30 -48 -64 -89 -63 -39 0 -39 2 6 40 50 41 83 50 83 23z m431 -75 c-26 -20 -46 -22 -59 -9 -13 13 -7 29 19 49 26 19 46 22 59 8 13 -13 7 -29 -19 -48z m-351 28 c0 -41 -65 -97 -112 -97 -76 0 -73 34 7 77 89 48 105 51 105 20z m419 -58 c-42 -60 -61 -70 -86 -46 -17 17 91 127 112 114 9 -5 -3 -36 -26 -68z m161 41 c0 -23 13 -40 32 -40 17 0 28 -11 23 -25 -5 -14 -19 -24 -32 -23 -12 1 -45 3 -73 5 -47 3 -76 63 -30 63 11 0 20 14 20 30 0 17 14 30 30 30 17 0 30 -18 30 -40z m-562 -172 c-48 -51 -118 -65 -118 -23 1 37 23 62 90 96 78 41 95 -2 28 -73z m506 -35 c-3 -18 4 -33 15 -33 12 0 21 -9 21 -20 0 -11 -17 -20 -39 -20 -40 0 -73 65 -50 101 19 31 60 10 53 -28z m-436 -63 c-19 -29 -60 -57 -91 -64 -46 -9 -53 -17 -35 -39 32 -39 62 -34 146 23 93 63 143 67 112 10 -56 -104 -228 -144 -307 -71 -77 71 -73 140 7 124 48 -10 73 0 125 46 73 65 95 50 43 -29z m122 -192 c-31 -82 -195 -133 -250 -78 -50 50 -53 89 -5 70 90 -35 157 -33 205 6 55 44 67 45 50 2z m310 -17 c22 -15 24 -25 7 -42 -28 -28 -67 -9 -67 32 0 33 18 36 60 10z m-50 -121 c0 -43 -58 -37 -67 7 -5 27 3 35 30 30 20 -4 37 -21 37 -37z"/>
    <path d="M2302 4879 c-81 -21 -157 -46 -170 -56 -12 -10 -58 -29 -102 -44 -172 -55 -524 -234 -566 -289 -57 -72 -58 -197 -3 -287 23 -37 37 -72 31 -77 -19 -20 -57 21 -92 100 -33 72 -37 75 -44 32 -13 -88 101 -231 138 -173 17 27 141 124 233 182 52 33 54 39 25 71 -36 39 -41 117 -12 162 15 23 19 15 20 -33 0 -122 115 -115 630 42 11 3 -4 12 -33 20 -36 10 -70 3 -107 -21 -44 -29 -56 -30 -70 -8 -13 21 -24 22 -44 5 -14 -12 -83 -25 -151 -28 -69 -4 -125 -14 -125 -23 0 -9 -9 -11 -20 -4 -30 19 -24 50 10 50 17 0 30 7 30 15 0 8 31 50 69 92 54 61 66 68 57 32 -12 -44 -11 -44 66 8 42 29 89 53 103 53 14 0 34 22 45 49 13 36 38 52 94 61 42 7 96 23 120 34 38 19 230 14 299 -7 13 -4 26 2 29 13 6 18 -205 68 -282 68 -16 0 -96 -18 -178 -39z m-752 -519 c0 -143 -14 -161 -66 -83 -27 39 -26 43 3 31 26 -10 33 0 33 45 1 48 19 147 27 147 2 0 3 -63 3 -140z"/>
    <path d="M3071 4537 c-106 -118 -165 -209 -101 -157 42 35 43 37 -57 -166 -43 -87 -82 -194 -88 -239 l-11 -81 88 60 c48 33 107 66 130 74 24 7 59 50 80 97 21 46 57 113 81 148 81 119 -16 105 -104 -15 -40 -54 -81 -98 -92 -98 -26 0 -2 116 37 178 24 37 25 50 5 62 -17 11 2 45 68 115 51 55 93 105 93 112 0 35 -45 3 -129 -90z"/>
    <path d="M1408 4606 c-81 -16 -354 -401 -379 -535 -11 -57 89 -516 119 -546 30 -29 30 20 3 150 -69 327 -44 439 152 688 41 52 50 77 32 84 -18 8 -15 17 10 33 19 12 35 33 35 47 0 14 29 40 65 58 63 31 50 38 -37 21z"/>
    <path d="M2520 4537 c-60 -22 -200 -72 -310 -110 -257 -88 -349 -131 -350 -162 0 -14 -13 -25 -30 -25 -34 0 -39 -56 -11 -124 10 -25 24 -71 30 -101 14 -67 50 -70 108 -9 37 41 40 55 22 109 -18 51 -15 77 18 148 39 85 40 86 42 27 5 -138 136 -334 199 -296 21 14 42 17 46 8 3 -9 69 -22 145 -29 l140 -12 -69 34 c-38 19 -74 55 -79 79 -8 34 -18 40 -41 26 -47 -30 -60 -24 -60 29 0 27 -9 54 -20 61 -11 7 -20 -6 -20 -29 0 -43 -40 -59 -41 -16 0 14 -9 9 -21 -10 -11 -19 -35 -35 -54 -35 -24 1 -27 5 -10 16 37 23 87 157 74 198 -11 34 -10 34 18 1 28 -34 30 -34 40 5 6 24 27 40 52 40 23 0 52 17 65 38 14 21 37 33 53 27 17 -6 40 2 52 19 51 69 154 101 296 91 142 -10 202 11 93 33 -116 23 -267 11 -377 -31z"/>
    <path d="M1235 4164 c-62 -130 -69 -237 -32 -494 21 -142 57 -249 57 -168 0 90 45 370 64 392 11 14 12 26 2 26 -36 0 -106 82 -106 125 0 37 7 34 51 -26 56 -76 103 -88 136 -35 17 27 15 41 -12 60 -39 31 -75 119 -75 187 0 77 -26 57 -85 -67z"/>
    <path d="M889 4157 c-68 -32 -95 -99 -99 -242 -5 -139 2 -153 50 -110 24 21 24 20 3 -8 -30 -40 -12 -136 33 -171 26 -22 24 -27 -16 -42 -32 -12 -39 -22 -22 -32 13 -9 39 -10 58 -3 27 11 29 8 9 -12 -38 -39 -34 -89 5 -57 17 14 37 20 44 13 7 -7 2 -13 -12 -13 -13 0 14 -45 60 -100 101 -120 109 -121 125 -26 11 67 5 79 -68 141 -43 38 -79 82 -79 100 0 18 -13 46 -28 63 -34 39 -46 151 -23 230 14 48 9 65 -26 94 -56 45 -54 74 11 142 55 58 47 68 -25 33z"/>
    <path d="M1652 4112 c-13 -54 19 -165 64 -217 41 -47 21 -62 -44 -32 -70 31 -101 3 -74 -68 19 -51 12 -75 -23 -75 -11 0 -14 14 -8 30 24 63 -41 27 -73 -41 -42 -88 -45 -123 -6 -90 17 13 33 15 40 4 6 -10 -2 -30 -18 -43 -61 -50 -27 -56 56 -9 54 30 99 75 120 120 19 39 26 66 14 59 -11 -7 -20 -3 -20 9 0 11 12 21 26 21 15 0 53 28 85 61 l59 62 -55 40 c-31 23 -65 60 -76 84 -16 32 -10 30 26 -12 52 -62 75 -69 75 -25 0 17 -7 30 -17 30 -9 0 -12 26 -8 58 5 33 -2 64 -16 73 -19 12 -22 -1 -12 -53 l13 -68 -40 50 c-21 28 -39 57 -40 65 -1 35 -37 11 -48 -33z"/>
    <path d="M2021 4095 c23 -79 24 -100 3 -87 -9 5 -28 -9 -42 -32 -23 -38 -22 -40 11 -26 20 9 65 20 100 25 l63 9 -63 87 c-76 104 -97 111 -72 24z"/>
    <path d="M1509 4014 c-140 -149 -149 -166 -178 -316 -35 -182 -28 -191 40 -55 29 59 94 150 145 202 80 82 92 105 87 169 -6 97 -3 97 -94 0z"/>
    <path d="M2002 3904 c-105 -41 -161 -224 -58 -193 36 11 41 8 22 -11 -34 -36 -86 -9 -87 44 l0 46 -40 -47 c-46 -55 -52 -143 -11 -143 16 0 33 -11 39 -25 8 -20 10 -20 11 0 1 14 14 25 28 25 42 0 294 277 294 323 0 27 -103 18 -198 -19z"/>
    <path d="M2221 3848 c-22 -50 -79 -138 -126 -194 -79 -96 -81 -100 -22 -58 64 44 222 64 197 24 -7 -11 -34 -20 -61 -20 -30 0 -49 -12 -49 -30 0 -16 -13 -30 -30 -30 -33 0 -41 -31 -12 -49 10 -6 23 0 29 14 5 14 11 6 11 -17 1 -23 21 -59 44 -80 23 -21 64 -81 90 -133 68 -134 109 -127 177 30 37 84 57 167 61 255 l5 130 -36 -110 c-20 -60 -37 -132 -38 -160 l-2 -50 -29 50 c-77 133 -150 294 -148 330 0 22 6 29 11 15 15 -37 47 -10 49 41 2 24 11 -10 20 -75 38 -257 74 -299 118 -137 15 53 36 108 47 123 12 15 38 60 57 100 20 40 31 53 24 28 -7 -29 -2 -45 15 -45 19 0 20 -5 1 -24 -13 -13 -24 -65 -23 -115 l1 -91 36 70 c20 39 43 122 51 185 l14 115 -221 0 -220 0 -41 -92z m219 -26 c0 -21 -6 -54 -13 -72 -18 -48 -43 0 -32 61 11 58 45 66 45 11z"/>
    <path d="M5272 3652 c-49 -83 -307 -351 -414 -429 -25 -18 -80 -69 -122 -113 -42 -44 -76 -71 -76 -59 0 12 11 32 24 45 19 19 15 24 -18 24 -52 0 -119 -95 -88 -126 25 -25 202 86 339 215 48 44 79 63 67 41 -39 -77 -187 -229 -265 -273 -59 -33 -76 -54 -68 -81 13 -39 -11 -48 -43 -16 -14 14 -46 11 -99 -12 -100 -41 -96 -37 -69 -88 13 -24 28 -39 33 -34 6 6 38 2 71 -7 80 -23 107 -5 64 43 -49 55 -29 61 77 23 119 -43 141 -20 54 55 -38 32 -59 59 -46 59 12 1 34 -13 48 -30 15 -18 63 -52 108 -75 l81 -44 -130 -12 c-71 -6 -121 -13 -110 -15 43 -8 -44 -42 -110 -43 -99 -2 -37 -35 170 -93 175 -48 157 -56 -65 -27 -140 18 -287 75 -317 123 -10 17 -3 19 23 9 33 -12 31 -7 -8 35 -56 59 -112 50 -139 -24 -39 -104 -44 -125 -24 -113 11 7 20 4 20 -7 0 -11 21 -45 47 -76 26 -32 53 -82 60 -111 21 -86 -39 -49 -99 61 l-50 93 11 -110 11 -110 -40 48 c-59 69 -67 127 -34 241 35 119 8 137 -77 52 -56 -56 -61 -107 -20 -221 53 -147 27 -173 -71 -68 -54 58 -83 156 -38 128 11 -7 20 6 20 29 0 22 -9 41 -20 41 -11 0 -20 19 -20 42 0 37 -4 39 -32 16 -26 -21 -30 -49 -20 -136 7 -61 6 -103 -2 -94 -9 8 -20 71 -26 139 -12 150 -70 183 -70 39 0 -95 -14 -90 -49 19 -13 41 -33 75 -45 75 -26 0 -11 -87 33 -190 48 -111 -7 -54 -77 80 l-52 100 0 -67 c0 -44 -8 -63 -25 -58 -14 5 -24 40 -23 82 3 81 2 82 -56 51 -29 -15 -45 -16 -54 -1 -18 29 -182 54 -182 27 0 -59 283 -230 577 -349 l187 -75 233 11 c231 10 417 34 533 70 33 10 95 23 137 30 42 6 72 17 66 23 -19 19 -173 42 -173 25 0 -22 -80 2 -160 50 l-70 41 59 7 c39 4 68 -5 84 -28 22 -29 60 -35 231 -37 271 -2 323 29 773 455 85 80 224 295 208 321 -7 11 -22 3 -34 -17 -63 -108 -238 -306 -300 -339 -39 -21 -71 -49 -71 -63 0 -35 -134 -149 -217 -183 -38 -16 -87 -51 -108 -78 -24 -31 -57 -47 -91 -46 l-54 2 54 22 c29 11 59 42 65 67 7 30 27 47 52 47 22 0 78 36 125 79 82 78 70 112 -21 62 -19 -10 -88 -38 -153 -61 -64 -23 -136 -55 -159 -71 -46 -32 -293 -42 -293 -11 0 24 73 41 180 42 109 1 199 54 125 73 -77 20 -49 38 46 30 106 -8 169 34 169 112 0 39 -7 46 -35 34 -44 -18 -204 -29 -250 -16 -57 16 -40 47 26 47 56 0 59 3 30 31 -17 18 -31 33 -31 35 6 92 73 232 156 328 94 110 217 320 198 339 -5 5 -33 -32 -62 -81z m-751 -1111 c17 -19 64 -51 106 -71 41 -19 72 -38 69 -41 -16 -15 -202 48 -255 87 -108 80 -95 42 28 -78 61 -59 34 -86 -33 -33 -48 38 -136 180 -136 219 0 41 167 -21 221 -83z"/>
    <path d="M1350 3480 c-33 -71 -62 -135 -65 -141 -3 -7 17 -24 45 -39 66 -35 64 -60 -6 -60 -36 0 -73 -20 -107 -59 -29 -33 -57 -54 -63 -48 -7 6 -11 -6 -9 -27 4 -49 -44 -166 -67 -166 -29 0 -21 -67 14 -117 37 -53 23 -81 -22 -43 -26 22 -29 20 -18 -7 7 -18 22 -33 34 -33 13 0 -6 -25 -41 -55 -38 -33 -66 -78 -69 -111 -4 -39 -25 -68 -66 -90 -33 -19 -66 -42 -73 -52 -7 -9 -22 -11 -33 -4 -12 7 -27 4 -34 -8 -7 -11 -1 -20 14 -20 19 -1 18 -6 -4 -20 -24 -15 -20 -20 20 -21 45 -2 46 -3 10 -18 -40 -16 -40 -16 0 -26 33 -8 34 -11 5 -13 -39 -2 -49 -62 -11 -62 13 0 7 -12 -13 -27 -48 -35 -12 -154 60 -202 47 -31 49 -30 49 14 -1 56 -27 99 -55 91 -11 -3 -22 3 -24 14 -2 11 13 23 33 27 119 21 186 48 186 74 0 16 14 29 32 29 20 0 28 11 21 30 -7 18 0 30 18 30 18 0 29 20 29 51 0 34 -8 46 -23 37 -41 -25 -3 133 43 183 24 25 79 50 126 58 46 7 99 27 118 45 20 18 36 23 36 11 0 -11 27 -24 60 -29 47 -7 55 -4 37 18 -35 42 6 30 55 -16 l45 -42 14 70 c23 125 -58 148 -170 48 l-48 -44 38 68 c24 42 58 71 88 75 64 10 65 11 40 80 -32 93 -74 74 -109 -47 -36 -123 -89 -186 -158 -186 -126 0 -248 -62 -261 -134 -14 -72 -61 -83 -61 -14 0 41 126 173 151 157 30 -18 -8 78 -45 115 -37 37 -37 39 3 90 23 28 41 68 41 88 0 64 44 65 103 1 33 -35 49 -63 37 -63 -12 0 -3 -20 19 -44 23 -24 41 -53 41 -65 -1 -14 -5 -14 -15 -1 -48 67 -176 85 -191 28 -11 -41 -10 -41 32 -5 24 20 33 23 19 7 -14 -15 -25 -49 -25 -74 0 -55 98 -66 140 -16 13 16 33 25 42 19 17 -11 26 17 20 61 -1 11 12 2 30 -20 32 -39 32 -38 20 20 -8 33 -36 78 -62 100 -44 37 -46 43 -16 62 49 30 14 68 -64 68 -81 0 -106 30 -51 60 23 12 41 35 41 52 0 75 90 19 116 -72 15 -49 36 -112 48 -140 l21 -50 18 48 c12 31 11 56 -2 69 -30 30 -26 53 9 53 17 0 30 8 30 17 0 9 23 27 50 39 28 13 50 40 50 60 0 20 11 47 24 60 19 19 17 32 -9 57 -31 31 -32 30 -21 -12 11 -42 8 -44 -33 -22 -41 22 -44 21 -32 -17 11 -32 7 -39 -18 -30 -18 7 -31 2 -31 -12 0 -15 -14 -19 -34 -11 -30 11 -29 8 3 -28 44 -48 5 -58 -42 -10 -58 57 48 159 308 299 102 55 133 90 79 90 -14 0 -36 -10 -48 -22 -15 -15 -25 -15 -35 0 -19 31 -51 27 -51 -6 0 -19 -14 -25 -43 -17 -30 8 -39 4 -29 -12 10 -15 -4 -23 -39 -23 -39 0 -50 -8 -42 -30 8 -20 0 -30 -23 -30 -57 1 -80 27 -87 100 -7 70 -7 70 -67 -60z m110 -82 c0 -10 -19 -18 -42 -18 -33 0 -40 -9 -32 -40 11 -43 -1 -49 -43 -22 -22 14 -19 29 18 79 43 59 99 59 99 1z m-484 -943 c2 -14 9 -54 16 -90 10 -49 5 -68 -21 -77 -39 -15 -70 8 -37 28 22 14 33 51 28 102 -3 41 -77 -30 -88 -85 -6 -29 -9 -22 -11 21 -3 61 14 80 109 125 1 1 3 -10 4 -24z m75 -83 c0 -52 -9 -102 -20 -111 -14 -12 -21 21 -21 101 0 70 8 115 20 111 11 -3 20 -49 21 -101z"/>
    <path d="M1160 3420 c0 -33 8 -60 18 -60 10 0 14 -18 8 -40 -6 -22 -1 -40 12 -40 27 0 30 113 3 129 -11 7 -14 25 -8 42 6 16 1 29 -11 29 -12 0 -22 -27 -22 -60z"/>
    <path d="M1073 3099 c-19 -32 -48 -59 -65 -59 -43 0 -78 -91 -55 -142 27 -60 96 4 79 73 -8 29 -1 49 18 56 28 11 79 110 65 125 -4 4 -23 -20 -42 -53z"/>
    <path d="M4103 3050 c8 -70 74 -92 117 -40 22 27 21 37 -9 66 -33 32 -35 31 -21 -16 l15 -50 -54 50 -54 50 6 -60z"/>
    <path d="M1941 3032 c-12 -30 -21 -56 -21 -58 0 -2 23 -5 50 -7 59 -3 58 -7 21 64 l-29 56 -21 -55z"/>
    <path d="M3080 3046 c0 -21 -11 -49 -24 -62 -20 -20 -20 -33 0 -64 32 -52 30 -67 -6 -53 -25 10 -27 5 -10 -27 29 -55 28 -55 121 82 94 137 94 130 -6 148 -65 13 -75 10 -75 -24z"/>
    <path d="M3763 3028 c-28 -61 -22 -74 24 -56 36 13 42 43 16 84 -12 18 -23 10 -40 -28z"/>
    <path d="M310 3040 c-7 -11 -6 -20 3 -20 8 0 -3 -13 -24 -28 -21 -16 -46 -24 -56 -18 -9 6 -11 -8 -4 -30 9 -30 1 -48 -30 -64 -26 -14 -38 -35 -30 -53 7 -20 -3 -34 -28 -41 -22 -6 -44 -25 -48 -43 -32 -118 -31 -141 7 -186 l40 -47 -20 56 c-30 84 -25 96 30 82 44 -11 52 -5 63 51 15 76 70 109 156 93 35 -7 69 -7 76 0 28 28 -14 66 -88 78 -77 13 -78 15 -45 52 44 49 98 49 132 0 30 -42 136 -37 136 7 0 41 -74 98 -86 67 -9 -21 -14 -21 -29 0 -10 14 -38 27 -62 29 -24 2 -43 11 -43 19 0 23 -35 20 -50 -4z"/>
    <path d="M3286 2938 c-1 -49 3 -72 8 -53 5 19 17 35 27 35 27 0 23 26 -8 69 -23 32 -26 27 -27 -51z"/>
    <path d="M547 2855 c-34 -54 -24 -103 12 -56 33 44 99 40 103 -6 11 -110 20 -143 50 -175 29 -33 30 -38 4 -38 -48 0 -73 43 -80 139 -6 93 -44 130 -62 62 -7 -28 -27 -41 -63 -41 -29 0 -57 -13 -64 -30 -6 -16 -19 -30 -29 -30 -10 0 -18 14 -18 30 0 44 -23 37 -91 -25 -74 -69 -119 -153 -98 -187 12 -19 20 -16 31 13 12 28 15 19 12 -31 -4 -74 119 -112 142 -43 7 21 1 22 -33 0 -60 -37 -109 9 -54 50 26 19 34 43 26 81 -21 114 65 111 175 -6 104 -111 163 -127 268 -73 82 43 114 171 42 171 -22 0 -40 9 -40 19 0 11 -12 15 -27 9 -21 -8 -25 3 -18 41 6 30 1 51 -13 51 -12 0 -21 7 -20 15 13 81 -112 130 -155 60z"/>
    <path d="M3210 2860 c7 -11 -2 -26 -19 -33 -20 -7 -28 -25 -21 -48 7 -23 -2 -44 -24 -57 -29 -17 -31 -25 -8 -39 32 -22 13 -63 -29 -63 -16 0 -29 -9 -29 -20 0 -11 8 -20 19 -20 27 0 11 -107 -17 -116 -18 -6 -18 -15 1 -37 15 -18 17 -35 6 -44 -11 -7 -19 -40 -19 -73 0 -33 -8 -75 -19 -94 -14 -25 -9 -45 18 -75 36 -40 36 -41 -8 -41 l-45 0 47 -39 47 -40 -55 0 c-56 -1 -75 -30 -30 -48 14 -5 9 -11 -12 -11 -29 -2 -35 -13 -28 -51 6 -31 -1 -53 -20 -60 -32 -12 -22 -64 12 -56 12 2 16 -9 10 -25 -8 -21 2 -30 31 -30 23 0 42 -9 42 -20 0 -11 -7 -19 -15 -18 -96 16 -105 -21 -35 -146 87 -156 257 -227 360 -150 36 28 32 30 -65 31 -162 1 -241 79 -185 182 31 59 24 95 -29 148 -59 59 -37 175 39 209 50 23 49 106 -3 166 -15 17 -23 35 -18 40 5 5 11 65 13 133 3 69 13 125 24 125 10 0 14 18 8 39 -5 22 1 43 13 47 16 5 14 18 -6 43 -27 32 -26 35 9 28 26 -5 44 -29 51 -67 l11 -60 11 55 c16 78 -2 155 -37 155 -21 0 -26 11 -16 35 8 19 19 51 25 70 5 19 17 35 27 35 9 0 12 14 5 30 -6 17 -20 30 -30 30 -11 0 -14 -9 -7 -20z"/>
    <path d="M5523 2734 c-48 -56 -115 -123 -149 -148 -34 -25 -51 -46 -37 -46 36 0 143 58 143 77 0 9 21 26 46 38 37 17 107 158 88 178 -2 2 -43 -42 -91 -99z"/>
    <path d="M1472 2596 c-30 -72 -32 -158 -4 -155 10 2 25 -10 34 -24 14 -21 17 -20 18 6 0 19 22 60 50 93 46 55 47 60 15 88 -72 61 -85 60 -113 -8z"/>
    <path d="M1257 2616 c-73 -19 -162 -137 -116 -153 11 -4 33 -33 50 -64 23 -45 55 -66 144 -91 63 -19 125 -48 138 -66 19 -25 19 -12 1 55 -20 75 -25 81 -35 40 -9 -38 -15 -31 -28 43 -30 156 -31 182 -5 168 18 -11 19 -8 1 12 -13 13 -19 37 -13 52 12 32 -28 33 -137 4z m103 -14 c0 -10 -10 -22 -23 -26 -14 -5 -8 -22 15 -46 37 -36 37 -37 -7 -25 -50 12 -58 -4 -21 -41 37 -37 -6 -29 -47 9 -32 29 -37 29 -37 3 0 -17 20 -45 45 -63 25 -17 36 -31 25 -32 -24 -1 -130 94 -129 115 2 37 179 141 179 106z"/>
    <path d="M3320 2528 c0 -50 198 -422 281 -527 84 -106 412 -235 803 -314 l174 -36 351 117 c426 141 707 305 886 516 89 106 122 156 100 156 -3 0 -71 -62 -152 -139 -158 -148 -200 -171 -346 -190 -82 -11 -98 -22 -148 -101 -69 -109 -112 -132 -96 -52 9 45 3 58 -31 67 -79 21 -43 50 48 40 60 -7 90 -3 90 12 0 13 -18 23 -40 23 -46 0 -51 20 -15 58 21 22 11 24 -55 13 -114 -21 -156 -47 -144 -93 14 -51 -35 -97 -86 -84 -48 13 -122 -45 -107 -84 5 -14 1 -31 -10 -38 -11 -7 -26 17 -33 53 -8 36 -33 82 -57 102 -40 34 -40 36 -3 21 127 -51 245 -7 202 75 -24 45 -23 51 6 49 20 -1 35 17 39 48 9 71 58 117 136 132 48 9 66 22 62 45 -3 23 10 33 43 33 47 0 102 57 78 80 -10 11 -72 -18 -270 -127 -26 -14 -110 -41 -185 -58 l-138 -33 80 -90 c87 -99 75 -128 -28 -68 -48 28 -67 54 -71 102 -7 71 -10 73 -65 43 -79 -42 -45 -156 87 -294 66 -68 75 -85 45 -85 -37 0 -183 140 -246 236 -27 40 -27 49 2 81 38 42 44 72 10 51 -13 -8 -58 -13 -100 -11 -144 5 -141 -160 8 -329 54 -63 54 -99 -1 -44 -35 35 -29 -7 8 -61 43 -61 26 -73 -31 -20 -140 131 -233 346 -171 397 16 13 25 32 20 41 -12 19 -122 -10 -162 -43 -22 -18 -28 -16 -28 10 0 43 -26 40 -70 -7 -30 -35 -32 -48 -10 -100 30 -74 60 -79 60 -12 0 88 70 102 73 14 1 -41 28 -123 59 -183 32 -61 61 -117 65 -127 21 -46 -121 56 -147 107 -17 33 -41 60 -53 60 -15 0 -15 -8 -2 -25 28 -36 44 -115 24 -115 -30 0 -114 128 -128 195 -8 36 -23 65 -35 65 -20 0 -14 -64 15 -155 11 -37 7 -43 -18 -33 -17 6 -45 54 -60 105 -19 60 -30 77 -31 47 -3 -66 -35 -37 -47 41 -19 128 13 164 85 92 69 -69 69 -69 88 11 13 52 11 56 -17 33 -26 -22 -31 -20 -31 18 0 27 -10 41 -25 35 -14 -5 -40 5 -59 21 -45 39 -96 19 -83 -32 6 -22 1 -56 -11 -76 -18 -30 -21 -19 -18 58 3 94 -37 178 -58 120 -13 -34 -46 -32 -46 3 0 23 -222 192 -252 192 -5 0 -8 -14 -8 -32z m271 -203 c30 -22 66 -157 49 -185 -10 -16 -19 -13 -28 13 -12 30 -17 31 -33 6 -13 -20 -18 -3 -19 60 0 69 -5 84 -24 65 -35 -35 -56 -29 -56 16 0 41 67 56 111 25z m1289 -57 c0 -21 -11 -28 -32 -20 -17 7 -40 12 -51 12 -11 0 -14 9 -7 20 20 33 90 23 90 -12z m-440 -129 c0 -94 6 -107 99 -200 106 -106 109 -115 25 -71 -140 73 -247 281 -180 348 43 43 56 26 56 -77z"/>
    <path d="M1562 2457 c-30 -85 -28 -89 18 -47 40 37 55 110 22 110 -10 0 -28 -28 -40 -63z"/>
    <path d="M1578 2366 c-36 -96 26 -183 82 -116 20 24 20 30 -3 30 -22 1 -22 4 -1 17 21 13 21 27 2 70 -31 67 -54 67 -80 -1z"/>
    <path d="M3290 2359 c59 -268 206 -503 356 -569 517 -230 638 -271 792 -268 180 3 239 34 70 36 -236 3 -371 50 -193 67 l75 6 -60 16 c-716 189 -772 228 -981 668 -56 118 -79 135 -59 44z"/>
    <path d="M1502 2360 c-4 -80 26 -177 55 -186 18 -5 50 -17 71 -25 29 -12 35 -9 22 11 -12 20 -7 23 18 13 20 -7 40 -13 45 -13 5 0 4 -9 -3 -20 -7 -11 -27 -20 -44 -20 -17 0 -52 -22 -78 -50 -40 -43 -64 -50 -172 -50 -149 -1 -209 -27 -270 -118 -82 -122 -30 -302 88 -302 29 0 27 5 -11 32 -93 65 -89 193 8 257 l49 32 0 -87 c0 -93 32 -138 116 -163 46 -14 104 16 104 54 0 12 -11 11 -27 -3 -39 -32 -89 -7 -124 59 -59 116 -2 193 127 172 53 -8 90 -3 120 18 30 21 65 27 112 18 62 -12 72 -7 100 48 41 79 42 163 2 163 -20 0 -30 20 -30 60 0 33 -8 60 -17 60 -24 0 -4 -167 22 -183 20 -13 -53 -137 -80 -137 -7 0 -2 11 11 24 29 29 32 156 4 156 -11 0 -20 14 -20 31 0 25 -8 26 -42 8 -52 -28 -95 8 -131 107 -13 35 -25 51 -25 34z"/>
    <path d="M1080 2187 c0 -11 27 -45 60 -77 33 -32 60 -48 60 -37 0 11 -27 45 -60 77 -33 32 -60 48 -60 37z"/>
    <path d="M1020 2146 c0 -37 44 -126 63 -126 25 0 21 12 -23 85 -22 36 -40 54 -40 41z"/>
  </g>
</svg>