<?xml version="1.0" encoding="utf-8"?>
<svg width="600px" height="600" xmlns="http://www.w3.org/2000/svg">
  <g transform="matrix(2.000004, 0, 0, 1.431543, -225.407364, 0.003305)">
    <path d="M 227.762 0.7 C 235.468 0 243.875 0.7 251.58 0 C 257.885 0 260.687 2.802 264.891 2.802 C 271.896 7.705 269.094 15.411 273.297 20.315 C 270.495 14.711 270.495 8.406 273.997 3.502 C 281.703 7.705 292.211 3.502 299.917 6.304 C 330.741 4.203 363.666 4.203 393.789 2.101 C 397.992 3.502 400.794 4.903 402.195 7.705 C 407.799 15.411 407.099 23.818 406.398 32.224 C 402.896 30.823 401.495 35.026 400.094 36.427 C 402.195 34.326 404.297 31.524 407.099 35.727 C 408.5 42.732 409.901 48.336 409.901 53.941 C 408.5 60.245 400.094 59.545 397.291 59.545 C 400.094 60.245 407.799 57.443 410.602 64.449 C 408.5 91.769 410.602 118.39 412.703 143.609 C 408.5 149.914 411.302 156.919 407.799 161.122 C 404.297 163.224 402.195 163.924 400.794 165.326 C 397.291 164.625 395.19 163.924 393.789 162.523 C 395.19 163.924 396.591 164.625 398.692 165.326 C 402.896 164.625 405.698 161.823 409.2 161.122 C 412.703 173.732 412.003 186.342 412.003 196.85 C 408.5 214.363 409.901 231.176 404.997 245.887 C 404.297 250.791 402.195 252.192 399.393 253.593 C 395.89 252.892 393.789 251.491 392.388 249.39 C 397.992 254.293 402.896 257.796 406.398 263.4 C 401.495 288.619 406.398 315.94 404.297 339.058 C 406.398 345.363 413.404 346.063 410.602 353.069 C 409.901 358.673 409.2 367.079 403.596 369.881 C 404.297 368.48 407.099 368.48 407.099 370.582 C 409.2 380.389 411.302 390.897 412.703 398.603 C 410.602 405.609 409.2 411.913 404.997 415.416 C 378.377 416.117 353.158 417.518 326.537 418.218 C 323.735 416.117 322.334 415.416 320.233 414.015 C 318.131 416.117 316.73 418.218 313.928 418.218 C 299.917 420.32 287.308 418.218 273.997 417.518 C 266.992 417.518 264.19 413.314 261.388 409.812 C 259.987 407.01 261.388 405.609 262.088 404.208 C 259.987 400.705 259.987 397.903 257.185 396.502 C 258.586 397.903 260.687 400.004 261.388 402.106 C 258.586 409.111 261.388 413.314 258.586 417.518 C 252.281 415.416 243.875 416.117 239.671 412.614 C 240.372 414.716 237.57 415.416 236.169 414.716 C 212.35 412.614 186.431 418.919 163.313 413.314 C 160.511 412.614 159.11 411.213 158.409 409.812 C 158.409 411.213 160.511 413.314 157.008 414.015 C 152.105 415.416 147.901 416.117 143.698 416.817 C 132.49 414.015 125.484 405.609 117.778 399.304 C 111.474 390.197 117.078 380.389 114.976 371.983 C 119.88 365.678 124.083 370.582 127.586 372.684 C 122.682 369.181 118.479 367.78 114.976 364.978 C 116.377 337.657 109.372 310.336 115.677 283.716 C 121.281 280.914 117.078 271.807 123.383 271.106 C 129.688 270.406 133.891 274.609 138.794 275.309 C 142.998 272.507 145.8 271.106 146.5 268.304 C 144.399 269.005 141.597 273.208 138.094 273.908 C 132.49 271.106 128.286 269.005 123.383 268.304 C 114.976 266.202 114.976 259.197 113.575 253.593 C 112.174 225.571 116.377 194.047 114.976 164.625 C 119.18 157.62 121.982 169.529 128.286 165.326 C 123.383 166.727 120.581 163.224 118.479 159.721 C 114.976 155.518 112.875 151.315 112.875 147.112 C 111.474 124.695 119.18 103.679 117.078 80.561 C 122.682 72.855 126.185 86.165 131.789 79.16 C 126.885 84.064 124.083 74.957 119.88 77.058 C 117.778 74.957 116.377 72.155 116.377 70.053 C 116.377 49.737 115.677 28.021 116.377 9.807 C 117.778 9.107 121.281 9.107 121.982 10.508 C 122.682 -7.706 153.506 15.411 162.613 8.406 C 166.816 11.208 164.714 14.01 166.115 15.411 C 168.217 12.609 166.115 9.107 168.217 7.005 C 171.019 4.203 173.121 2.802 176.623 3.502 C 193.436 1.401 210.949 2.101 226.361 0.7" fill="rgb(228,184,121)"/>
    <path d="M 154.907 15.411 C 144.399 21.716 121.982 11.909 136.693 38.529 C 133.891 42.032 133.19 39.93 131.789 43.433 C 131.089 47.636 135.292 45.534 137.393 47.636 C 135.292 53.24 131.789 49.037 131.089 53.24 C 133.19 56.042 135.292 53.24 135.992 55.342 C 133.19 57.443 131.089 56.743 128.286 58.144 C 125.484 60.245 128.987 64.449 124.083 65.85 C 129.688 72.855 131.789 69.352 133.19 67.951 C 135.292 71.454 137.393 72.855 135.292 76.358 C 147.901 73.556 133.891 81.962 147.201 79.86 C 140.896 81.962 131.789 82.663 131.089 90.368 C 128.987 105.08 127.586 124.695 130.388 140.807 C 128.286 147.112 125.484 151.315 125.484 154.818 C 129.688 162.523 131.089 163.224 138.794 169.529 C 135.292 173.031 132.49 169.529 130.388 173.031 C 132.49 180.037 131.089 184.24 135.292 189.144 C 128.987 194.748 126.885 196.85 124.784 198.951 C 126.885 203.154 127.586 198.251 132.49 198.951 C 133.19 209.459 126.185 203.855 124.784 207.358 C 128.286 218.566 138.094 236.78 140.196 252.892 C 138.794 258.497 140.896 264.801 134.591 267.603 C 143.698 264.101 147.201 268.304 154.907 257.796 C 151.404 263.4 150.003 271.106 145.099 273.208 C 143.698 277.411 141.597 280.914 144.399 283.716 C 141.597 283.015 137.393 279.513 135.992 278.812 C 132.49 280.914 135.292 284.416 133.891 286.518 C 134.591 294.924 133.891 297.726 135.992 302.63 C 136.693 304.031 135.992 308.935 133.19 308.234 C 136.693 322.946 132.49 334.154 133.891 344.662 C 137.393 340.459 135.292 351.668 138.094 353.069 C 137.393 357.272 134.591 365.678 133.19 367.78 C 133.19 369.881 136.693 371.983 133.19 374.085 C 135.992 373.384 137.393 373.384 139.495 373.384 C 138.794 378.288 138.094 384.593 134.591 384.593 C 142.297 393.7 150.704 386.694 152.805 395.101 C 155.607 392.999 161.212 392.999 159.81 387.395 C 161.212 391.598 163.313 395.101 161.912 399.304 C 166.816 400.004 169.618 401.405 173.121 403.507 C 180.826 407.01 180.126 398.603 192.736 399.304 C 190.634 397.202 189.933 395.801 187.832 395.101 C 191.334 393.7 187.131 390.197 191.334 389.496 C 201.842 395.101 221.457 402.106 222.859 408.411 C 229.163 409.111 232.666 409.812 236.869 410.512 C 234.768 407.71 240.372 402.806 238.971 398.603 C 243.174 401.405 245.276 404.908 243.875 409.812 C 250.179 408.411 255.784 407.71 257.185 409.812 C 261.388 407.01 250.88 407.71 249.479 408.411 C 253.682 395.801 250.88 410.512 256.484 403.507 C 250.88 397.903 253.682 392.298 248.778 388.095 C 250.88 385.994 248.778 383.892 250.179 382.491 C 259.286 388.095 263.489 400.004 269.794 402.806 C 273.297 406.309 272.596 401.405 278.201 403.507 C 277.5 407.01 278.201 409.111 282.404 409.111 C 285.206 409.812 288.709 407.01 290.11 407.01 C 290.81 403.507 286.607 406.309 285.206 402.806 C 285.206 400.004 285.206 399.304 283.805 397.903 C 299.217 400.004 304.12 402.806 313.227 399.304 C 315.329 399.304 315.329 396.502 319.532 396.502 C 334.944 396.502 346.853 395.101 351.056 393.7 C 355.259 393.7 352.457 392.298 351.757 389.496 C 355.96 388.796 358.062 390.897 358.762 392.298 C 359.463 390.897 356.66 390.197 358.062 388.095 C 360.864 387.395 365.067 390.197 364.366 386.694 C 365.767 389.496 370.671 385.293 367.869 390.897 C 376.976 385.293 376.976 383.892 386.083 379.689 C 386.083 376.887 387.484 374.085 387.484 369.881 C 390.286 368.48 388.184 370.582 390.987 370.582 C 386.083 365.678 393.789 365.678 392.388 359.373 C 393.789 357.972 394.489 357.972 395.89 358.673 C 393.789 357.272 390.286 357.972 390.987 353.069 C 390.286 350.266 390.286 348.865 389.586 346.764 C 391.687 341.86 395.19 346.063 394.489 346.063 C 395.19 345.363 393.088 343.962 391.687 343.962 C 390.286 335.555 395.19 326.448 390.286 320.143 C 397.992 319.443 390.286 319.443 394.489 313.839 C 394.489 290.021 387.484 280.213 388.184 266.903 C 390.286 261.299 390.286 255.694 393.088 259.898 C 388.184 252.192 388.885 254.994 380.479 252.892 C 386.083 250.791 386.783 240.983 394.489 243.085 C 394.489 232.577 394.489 226.272 388.885 216.465 C 389.586 211.561 391.687 209.459 393.789 206.657 C 386.783 208.759 393.088 205.256 389.586 202.454 C 393.789 198.951 394.489 196.85 395.89 193.347 C 393.088 193.347 393.088 189.144 391.687 189.144 C 395.19 193.347 394.489 185.641 397.291 185.641 C 394.489 183.539 398.692 181.438 394.489 180.037 C 401.495 179.336 402.195 181.438 404.997 179.336 C 402.195 174.432 398.692 175.834 402.195 171.63 C 395.89 168.828 396.591 178.636 393.088 173.732 C 393.088 170.93 395.89 170.93 395.89 170.229 C 391.687 166.026 390.286 163.924 386.783 159.721 C 383.981 159.021 383.281 161.122 381.179 161.122 C 386.083 157.62 383.281 156.219 386.783 154.117 C 389.586 154.117 389.586 158.32 390.987 156.919 C 390.286 152.716 388.184 154.117 386.783 150.614 C 393.088 152.015 393.088 152.015 398.692 154.117 C 399.393 147.812 393.789 149.914 391.687 147.812 C 393.088 147.812 394.489 145.01 395.89 145.01 C 388.184 144.31 400.094 141.507 395.89 142.208 C 398.692 140.807 400.094 142.208 399.393 143.609 C 394.489 137.304 400.094 134.502 399.393 130.999 C 395.19 128.197 397.291 122.593 394.489 121.192 C 395.89 119.09 396.591 120.491 397.291 120.491 C 393.789 113.486 397.291 110.684 397.291 108.582 C 395.89 104.379 392.388 104.379 389.586 100.176 C 392.388 90.368 384.682 93.171 390.987 81.962 C 388.184 79.16 386.783 77.058 383.981 74.957 C 385.382 71.454 386.783 69.352 387.484 67.251 C 389.586 70.053 379.078 65.85 382.58 72.855 C 380.479 72.155 376.976 70.053 376.976 70.053 C 381.88 70.053 376.976 58.844 382.58 58.844 C 379.778 58.144 384.682 52.54 380.479 51.139 C 375.575 46.235 381.179 51.839 373.473 49.737 C 374.174 46.235 372.773 44.133 369.971 44.133 C 366.468 39.229 362.265 42.732 358.062 40.631 C 356.66 32.224 341.949 35.026 338.447 28.721 C 337.046 34.326 331.441 26.62 330.741 30.823 C 322.334 25.919 322.334 22.417 313.928 19.615 C 305.521 18.914 303.42 18.914 293.612 17.513 C 291.511 18.213 285.206 18.213 282.404 22.417 C 283.805 29.422 278.201 27.32 278.901 30.823 C 279.602 30.823 280.302 30.123 281.003 28.721 C 284.505 28.721 283.805 31.524 284.505 32.224 C 280.302 30.823 281.703 37.828 277.5 32.925 C 276.8 40.631 275.399 40.631 277.5 46.235 C 273.297 43.433 272.596 41.331 268.393 44.133 C 270.495 39.229 273.297 33.625 269.794 30.123 C 266.992 32.224 263.489 30.823 261.388 30.123 C 262.789 26.62 264.891 29.422 266.992 28.021 C 267.693 26.62 266.292 26.62 265.591 25.219 C 250.88 15.411 221.457 21.716 216.554 16.112 C 202.543 20.315 194.137 18.914 185.73 21.716 C 186.431 23.818 191.334 23.117 191.334 28.021 C 187.832 31.524 180.126 32.224 181.527 39.229 C 178.725 32.925 182.228 33.625 172.42 30.823 C 175.222 28.721 175.923 31.524 178.725 30.123 C 176.623 30.123 175.222 27.32 173.821 29.422 C 181.527 37.128 171.019 37.128 180.826 41.331 C 178.024 46.235 175.923 47.636 175.923 52.54 C 172.42 42.732 168.217 37.128 159.81 33.625 C 163.313 28.721 163.313 35.026 164.014 32.224 C 160.511 25.919 164.014 23.818 160.511 16.812 C 158.409 14.01 155.607 14.711 154.206 15.411" fill="rgb(237,196,131)"/>
    <path d="M 235.468 23.117 M 235.468 21.716 M 236.869 22.417 L 237.57 22.417 C 248.778 27.32 258.586 27.32 265.591 32.224 C 266.992 35.026 263.489 33.625 262.789 32.925 C 260.687 36.427 264.891 34.326 266.292 35.727 C 262.088 39.229 270.495 43.433 264.891 43.433 C 274.698 47.636 266.992 51.839 278.901 49.737 C 275.399 42.032 283.104 44.133 281.703 39.229 C 285.907 37.128 288.709 42.032 291.511 43.433 C 290.81 43.433 285.907 38.529 286.607 35.026 C 290.11 37.828 294.313 34.326 297.115 32.925 C 299.917 33.625 298.516 30.823 299.217 30.123 C 301.318 30.823 306.222 28.021 307.623 32.925 C 306.923 30.123 306.923 28.021 309.725 27.32 C 313.928 27.32 316.029 30.823 320.233 30.123 C 320.933 35.026 322.334 38.529 323.735 39.93 C 331.441 40.631 336.345 42.732 341.949 44.834 C 341.949 44.834 344.051 46.935 341.949 46.935 C 344.051 47.636 342.65 42.032 348.254 44.834 C 345.452 48.336 346.853 46.235 343.35 52.54 C 346.853 53.941 343.35 48.336 347.554 50.438 C 349.655 56.042 365.067 63.748 368.57 72.855 C 372.773 79.86 375.575 81.261 369.971 86.866 C 373.473 84.064 374.174 90.368 375.575 87.566 C 379.778 90.368 379.778 102.978 377.676 98.775 C 377.676 102.278 380.479 100.876 381.88 100.876 C 379.078 101.577 379.078 109.983 381.88 109.983 C 381.179 110.684 379.778 111.384 378.377 110.684 C 379.078 112.786 381.88 112.085 381.88 114.887 C 381.88 112.085 384.682 112.786 383.281 110.684 L 383.981 109.983 L 384.682 109.283 L 386.083 109.283 C 386.083 111.384 387.484 114.887 384.682 117.689 C 388.184 115.588 390.286 120.491 390.987 121.892 C 388.184 124.695 390.286 130.999 384.682 126.796 C 390.987 132.4 381.88 130.999 386.083 135.903 C 383.281 133.802 381.179 133.802 378.377 134.502 C 381.88 134.502 382.58 135.903 384.682 137.304 C 383.981 140.106 381.179 138.705 379.778 139.406 C 379.078 139.406 382.58 143.609 386.083 145.01 C 387.484 150.614 383.981 153.416 379.778 152.015 C 380.479 156.919 379.078 159.721 379.078 163.224 C 379.078 163.224 380.479 161.122 382.58 163.224 C 380.479 175.834 386.083 172.331 386.783 182.138 C 385.382 185.641 383.981 187.743 380.479 188.443 C 380.479 193.347 380.479 191.245 383.981 191.245 C 378.377 198.251 387.484 208.058 379.778 213.662 C 382.58 215.764 383.281 225.571 386.083 229.775 C 383.281 236.78 379.778 236.78 374.874 242.384 C 381.179 240.983 379.078 238.181 387.484 240.283 C 379.778 240.983 385.382 248.689 379.078 248.689 C 383.281 258.497 378.377 276.71 381.179 287.218 C 382.58 291.422 379.078 292.823 379.078 289.32 C 381.179 292.122 383.981 294.224 386.083 296.325 C 383.281 305.432 385.382 314.539 386.083 317.341 C 383.281 318.042 384.682 317.341 381.88 320.143 C 385.382 323.646 381.179 327.849 387.484 327.149 C 386.083 337.657 383.981 336.956 380.479 348.865 C 379.078 351.668 380.479 358.673 381.88 362.876 C 380.479 364.978 379.078 363.577 379.078 362.876 C 376.275 366.379 376.976 371.983 375.575 376.887 C 369.27 376.186 372.072 371.282 370.671 370.582 C 362.965 372.684 358.062 376.186 353.858 376.887 C 357.361 382.491 339.147 387.395 341.949 389.496 C 334.944 388.095 337.746 385.994 328.639 388.796 C 330.741 386.694 328.639 383.892 331.441 383.892 C 327.238 385.293 325.136 388.095 324.436 389.496 C 314.628 388.796 310.425 392.298 299.917 386.694 C 291.511 389.496 293.612 388.796 289.409 392.999 C 285.206 390.897 285.907 388.796 283.104 386.694 C 280.302 390.197 274.698 388.796 279.602 392.298 C 271.195 392.999 270.495 387.395 265.591 389.496 C 261.388 385.994 267.693 389.496 266.992 386.694 C 264.891 387.395 261.388 387.395 259.987 390.197 C 259.987 388.796 257.885 386.694 257.185 386.694 L 257.185 385.994 L 257.185 384.593 L 258.586 385.293 L 259.286 386.694 C 259.987 386.694 260.687 385.293 262.088 385.994 C 262.789 383.892 263.489 383.192 261.388 381.79 C 263.489 382.491 261.388 383.892 259.286 385.994 C 261.388 383.192 250.179 384.593 248.778 378.288 C 245.976 381.79 248.778 387.395 243.875 389.496 C 241.072 395.801 229.864 394.4 231.265 399.304 C 225.661 399.304 218.655 397.903 212.35 396.502 C 204.645 393.7 198.34 385.994 195.538 382.491 C 189.933 388.796 184.329 381.09 181.527 385.994 C 181.527 382.491 176.623 383.892 175.923 382.491 C 171.019 381.79 173.821 384.593 174.522 385.994 C 169.618 387.395 171.72 381.79 167.516 383.892 C 167.516 387.395 165.415 384.593 164.714 388.095 C 161.912 385.293 160.511 383.892 159.81 381.79 C 150.704 380.389 151.404 376.887 147.201 375.486 C 145.099 371.282 146.5 369.181 149.302 369.181 C 142.998 362.176 142.998 354.47 140.896 350.266 C 142.297 347.464 140.196 346.063 141.597 343.962 C 145.8 345.363 146.5 341.16 149.302 340.459 C 150.003 337.657 144.399 336.956 144.399 338.357 C 143.698 332.053 147.901 336.956 145.099 331.352 C 136.693 330.652 147.901 325.748 138.794 325.047 C 147.901 319.443 135.292 313.839 143.698 310.336 C 143.698 308.935 140.896 311.037 140.196 309.635 C 141.597 306.833 142.998 307.534 143.698 307.534 C 138.094 304.732 144.399 297.026 140.196 294.224 C 143.698 299.127 141.597 292.122 145.099 289.32 C 141.597 276.01 148.602 283.015 148.602 271.106 C 155.607 271.106 151.404 259.197 160.511 257.796 C 157.008 256.395 151.404 257.796 150.704 253.593 C 151.404 256.395 149.302 259.197 145.8 259.898 C 146.5 257.095 143.698 256.395 142.297 254.293 C 144.399 255.694 145.099 246.587 148.602 251.491 C 145.8 246.587 143.698 248.689 140.896 246.587 C 149.302 247.989 138.094 238.882 146.5 239.582 C 142.998 238.181 142.998 233.277 139.495 231.876 C 140.196 231.876 136.693 225.571 143.698 224.17 C 139.495 220.668 140.196 215.764 137.393 214.363 C 145.099 212.962 131.789 203.855 144.399 206.657 C 140.196 203.154 142.297 196.85 140.896 191.245 C 138.794 189.844 136.693 185.641 136.693 184.94 C 137.393 180.037 133.891 173.732 138.794 171.63 C 137.393 165.326 135.992 163.924 135.992 159.721 C 136.693 155.518 139.495 154.117 140.196 152.015 C 135.292 146.411 140.896 141.507 135.992 138.705 C 140.896 134.502 131.789 128.898 139.495 121.192 C 138.094 121.892 137.393 125.395 135.292 123.994 C 136.693 118.39 136.693 114.187 138.794 111.384 C 133.19 107.882 139.495 100.876 137.393 100.876 C 140.196 98.775 139.495 95.272 142.998 94.572 C 145.099 89.668 141.597 86.866 144.399 84.064 C 145.8 83.363 148.602 84.064 150.003 84.064 C 147.901 85.465 147.901 79.86 146.5 77.058 C 146.5 71.454 152.105 77.759 150.704 74.957 C 147.901 72.855 145.8 75.657 145.099 74.957 C 148.602 71.454 143.698 70.753 147.201 65.85 C 141.597 68.652 142.297 60.245 137.393 61.647 C 145.8 60.245 136.693 49.737 147.901 52.54 C 142.998 46.235 145.099 51.839 140.896 48.336 C 140.196 38.529 142.297 48.336 144.399 46.235 C 146.5 42.732 142.297 40.631 147.901 40.631 C 147.901 41.331 152.805 38.529 151.404 43.433 C 157.709 39.229 156.308 39.93 166.816 38.529 C 166.816 45.534 175.222 56.042 176.623 58.144 C 180.126 49.737 182.228 49.737 187.832 48.336 C 181.527 41.331 193.436 39.93 189.233 37.828 C 192.035 35.026 195.538 32.925 197.639 37.128 C 197.639 31.524 199.04 29.422 201.142 28.021 C 206.046 25.219 209.548 24.518 212.35 24.518 C 220.757 24.518 224.96 27.32 228.463 29.422 C 229.864 25.919 231.965 24.518 233.367 23.117" fill="rgb(238,199,134)"/>
    <path d="M 236.169 23.117 C 233.367 23.818 229.864 25.919 229.864 28.721 C 221.457 25.219 210.249 23.117 201.842 28.021 C 200.441 30.823 197.639 30.823 200.441 35.727 C 196.238 37.828 192.736 32.925 190.634 37.128 C 194.137 41.331 182.228 40.631 189.933 47.636 C 181.527 50.438 180.826 50.438 179.425 58.144 C 174.522 56.743 166.816 46.235 166.816 39.93 C 157.008 40.631 157.008 39.93 152.105 42.032 C 150.704 42.032 151.404 39.93 148.602 40.631 C 140.896 42.032 147.901 42.032 145.099 46.935 C 138.094 39.93 141.597 51.139 144.399 48.336 C 145.099 50.438 148.602 48.336 148.602 51.839 C 137.393 49.737 146.5 60.245 136.693 60.245 C 142.297 59.545 142.297 68.652 146.5 65.149 C 144.399 70.053 149.302 72.855 144.399 72.855 C 149.302 76.358 147.201 85.465 152.105 81.962 C 148.602 85.465 146.5 83.363 144.399 84.064 C 142.297 86.866 145.8 89.668 142.998 93.171 C 140.196 95.272 141.597 99.475 137.393 99.475 C 140.196 101.577 133.891 107.181 140.196 109.983 C 131.789 122.593 140.196 134.502 136.693 138.005 C 141.597 141.507 135.992 146.411 141.597 149.914 C 140.196 154.117 137.393 155.518 136.693 157.62 C 136.693 163.924 138.794 165.326 140.196 170.229 C 134.591 173.732 138.094 180.037 135.992 183.539 C 137.393 187.743 140.196 187.743 142.297 189.144 C 142.998 195.448 141.597 203.855 142.998 203.855 C 133.19 206.657 145.8 210.86 138.094 212.962 C 140.896 215.764 140.196 220.668 142.998 222.069 C 137.393 226.272 140.896 230.475 140.896 231.176 C 143.698 233.277 143.698 237.481 146.5 238.181 C 141.597 240.283 145.099 243.085 142.297 245.887 C 143.698 247.288 146.5 245.887 146.5 249.39 C 144.399 250.09 145.8 254.293 143.698 254.293 C 145.099 255.694 147.201 257.796 144.399 259.898 C 147.901 258.497 150.704 257.095 150.003 252.192 C 151.404 257.095 157.008 255.694 159.81 256.395 C 152.105 259.898 156.308 271.106 150.003 269.705 C 150.704 283.015 141.597 276.71 147.901 286.518 C 143.698 288.619 142.998 300.529 140.896 292.823 C 145.099 297.026 138.794 304.732 145.099 306.833 C 142.998 308.234 141.597 308.234 139.495 308.234 C 140.196 311.037 144.399 307.534 145.099 311.037 C 135.992 313.138 148.602 320.143 138.794 324.347 C 148.602 327.149 135.292 329.951 146.5 330.652 C 147.901 334.154 142.297 335.555 143.698 337.657 C 145.099 333.454 147.201 340.459 150.003 336.956 C 150.003 346.063 139.495 341.86 142.297 348.865 C 143.698 354.47 143.698 362.176 148.602 367.079 C 147.901 370.582 145.8 370.582 147.201 374.785 C 153.506 377.587 150.003 380.389 159.11 380.389 C 161.212 382.491 161.912 385.293 163.313 387.395 C 165.415 384.593 166.816 386.694 166.115 383.192 C 171.019 381.09 171.019 385.994 172.42 385.994 C 171.72 384.593 171.72 381.09 175.222 381.09 C 175.923 382.491 181.527 382.491 180.826 385.293 C 184.329 380.389 189.933 388.095 193.436 381.09 C 199.04 385.293 203.944 393.7 211.65 395.101 C 218.655 397.202 224.96 398.603 230.564 397.903 C 229.864 393.7 240.372 395.101 242.473 390.897 C 248.778 387.395 243.875 381.09 246.677 378.288 C 250.88 379.689 256.484 385.994 258.586 382.491 C 259.286 385.293 255.083 385.994 259.987 388.796 C 261.388 386.694 264.891 386.694 266.992 385.994 C 268.393 388.095 265.591 388.796 264.19 388.095 C 271.195 386.694 271.195 392.298 277.5 391.598 C 273.297 389.496 281.003 388.095 281.003 385.994 C 285.206 387.395 287.308 390.897 288.008 392.298 C 292.912 388.095 292.211 388.796 299.217 388.095 C 304.12 390.897 311.826 385.293 314.628 392.999 C 322.334 383.892 320.233 397.903 329.34 381.79 C 331.441 385.293 330.04 384.593 329.34 388.095 C 337.046 385.293 336.345 387.395 340.548 390.197 C 339.848 385.994 356.66 381.79 351.056 376.186 C 356.66 374.785 363.666 371.983 369.27 371.282 C 374.174 370.582 369.27 375.486 374.174 376.186 C 374.874 370.582 376.976 366.379 379.078 363.577 C 380.479 361.475 379.778 363.577 380.479 364.277 C 379.778 358.673 378.377 351.668 380.479 348.865 C 383.281 336.956 385.382 336.956 386.083 327.849 C 380.479 328.55 384.682 323.646 381.88 321.545 C 383.981 317.341 383.981 316.641 386.083 318.742 C 384.682 315.24 382.58 306.133 386.083 297.026 C 383.981 293.523 380.479 293.523 378.377 291.422 C 379.778 288.619 381.179 292.823 381.88 288.619 C 377.676 276.71 382.58 258.497 378.377 251.491 C 384.682 247.288 379.078 241.684 386.783 240.283 C 377.676 236.78 382.58 245.186 374.174 243.785 C 376.275 240.983 375.575 239.582 377.676 237.481 C 379.778 238.181 382.58 237.481 382.58 238.882 C 383.281 238.181 381.179 238.181 380.479 236.079 C 387.484 237.481 380.479 233.277 386.783 230.475 C 383.281 223.47 381.179 217.165 380.479 215.764 C 387.484 208.759 378.377 199.652 382.58 191.946 C 381.179 192.646 379.078 191.245 379.778 189.144 C 383.281 187.042 384.682 185.641 386.083 182.138 C 386.083 175.133 383.281 175.133 381.88 171.63 C 383.281 168.128 384.682 172.331 385.382 168.828 C 381.88 170.229 383.281 157.62 377.676 166.026 C 378.377 159.721 379.778 156.919 379.078 152.716 C 382.58 152.015 386.783 151.315 384.682 145.711 C 380.479 144.31 381.179 140.106 378.377 141.507 C 380.479 138.005 383.281 139.406 384.682 138.005 C 381.88 134.502 380.479 136.604 376.976 135.203 C 379.778 133.802 383.981 132.4 383.981 135.903 C 380.479 130.299 390.987 131.7 383.281 126.796 C 390.987 130.999 386.083 124.695 390.286 122.593 L 391.687 124.695 L 390.286 122.593 C 388.885 121.192 388.184 116.288 383.981 119.09 C 386.783 115.588 385.382 109.983 385.382 109.983 C 384.682 111.384 383.981 112.786 382.58 114.187 C 380.479 114.187 381.179 112.786 379.078 112.786 C 384.682 113.486 374.174 102.978 381.88 102.278 C 379.078 103.679 376.976 100.176 376.976 98.775 C 379.778 102.978 379.078 90.368 375.575 89.668 C 373.473 89.668 373.473 85.465 370.671 88.967 C 374.874 81.261 372.072 80.561 369.971 73.556 C 365.067 65.149 349.655 55.342 346.853 53.941 C 344.751 49.037 347.554 56.743 343.35 53.24 C 344.051 46.235 348.254 46.235 349.655 46.235 C 341.949 42.732 346.152 48.336 343.35 49.037 C 341.249 46.935 342.65 46.235 341.949 44.834 C 336.345 43.433 331.441 41.331 323.735 41.331 C 323.035 39.229 319.532 35.727 319.532 32.224 C 315.329 31.524 313.928 28.021 310.425 28.721 C 306.222 28.721 309.725 30.823 309.024 32.224 C 304.821 28.021 303.42 30.823 299.917 30.123 C 299.217 31.524 300.618 35.026 297.816 35.026 C 295.013 35.026 290.11 38.529 288.709 35.727 C 288.008 37.128 287.308 39.229 289.409 39.93 C 285.206 39.93 283.104 37.128 280.302 40.631 C 281.003 39.229 283.104 39.229 283.104 39.93 C 278.901 44.133 278.901 44.133 278.901 50.438 C 266.292 52.54 273.297 46.935 265.591 44.133 C 269.094 43.433 260.687 38.529 266.292 36.427 C 264.19 35.026 260.687 37.128 260.687 33.625 C 263.489 32.224 264.891 33.625 266.992 32.925 C 258.586 28.021 248.778 28.021 237.57 23.117" fill="rgb(238,199,135)"/>
    <path d="M 284.505 7.705 C 268.393 11.909 281.703 20.315 275.399 31.524 L 278.201 32.925 L 277.5 32.925 L 276.8 34.326 C 275.399 37.828 273.297 41.331 275.399 44.834 C 269.094 38.529 276.099 37.828 271.896 35.026 C 272.596 32.224 271.195 28.721 270.495 30.123 C 271.195 30.123 272.596 32.224 271.896 32.925 C 269.094 37.128 274.698 40.631 269.094 42.032 C 271.195 39.93 271.896 41.331 273.997 43.433 L 275.399 45.534 L 276.099 46.235 L 276.8 45.534 C 273.997 41.331 276.099 39.93 276.8 33.625 C 281.703 36.427 279.602 30.823 283.104 32.925 C 284.505 26.62 281.003 30.823 278.201 31.524 C 277.5 27.32 283.104 28.021 280.302 23.117 C 285.206 18.213 290.81 17.513 292.912 16.112 C 302.719 18.213 306.923 18.213 312.527 20.315 C 323.035 21.716 323.035 25.219 330.04 30.823 C 334.243 28.021 342.65 30.823 351.056 34.326 C 353.158 36.427 360.864 35.727 356.66 39.93 C 362.965 39.93 371.372 40.631 372.072 44.834 C 373.473 46.235 374.874 48.336 373.473 49.737 C 378.377 50.438 379.078 48.336 381.88 50.438 C 385.382 51.839 380.479 58.844 383.281 57.443 C 377.676 58.144 382.58 70.753 376.275 68.652 C 377.676 71.454 380.479 70.753 381.88 72.155 C 378.377 63.748 388.885 71.454 385.382 63.048 C 388.885 67.951 386.083 71.454 384.682 73.556 C 387.484 76.358 388.885 79.16 390.286 81.261 C 389.586 86.165 390.286 91.069 388.184 91.069 C 395.89 90.368 386.083 105.78 398.692 105.08 C 397.992 111.384 394.489 113.486 398.692 119.791 C 397.291 121.892 396.591 119.791 395.89 119.791 C 397.992 122.593 395.89 128.197 400.794 128.898 C 400.094 137.304 396.591 129.598 394.489 130.299 C 395.89 133.101 397.992 132.4 400.094 134.502 C 395.89 140.807 401.495 142.908 395.19 142.908 C 394.489 145.711 397.291 143.609 397.291 145.711 C 395.89 145.01 394.489 147.812 393.088 147.812 C 394.489 148.513 400.094 147.812 399.393 154.117 C 393.789 152.716 392.388 152.716 388.885 149.914 C 387.484 152.716 393.088 152.015 388.885 155.518 C 384.682 152.015 386.783 159.021 381.179 159.721 C 383.281 159.721 384.682 158.32 386.083 158.32 C 390.286 163.224 392.388 165.326 395.89 168.828 C 396.591 171.63 393.789 170.93 394.489 173.031 C 395.89 175.834 395.19 171.63 397.291 171.63 L 398.692 170.93 L 399.393 171.63 L 402.195 170.93 C 400.794 176.534 401.495 173.732 404.297 178.636 C 401.495 182.839 402.195 179.336 395.89 180.037 C 399.393 181.438 395.19 184.24 398.692 184.94 C 395.89 184.24 395.19 194.748 391.687 187.743 C 393.088 191.245 394.489 191.946 397.291 191.946 C 395.19 197.55 393.789 198.951 390.987 201.753 C 393.789 205.956 386.783 208.058 395.19 205.956 C 390.286 209.459 390.987 215.063 387.484 215.764 C 389.586 215.063 392.388 220.668 393.789 224.871 C 393.789 229.074 397.291 236.78 394.489 240.983 C 390.286 238.181 383.981 252.892 381.88 250.791 C 387.484 254.994 390.286 250.791 390.987 257.796 C 387.484 260.598 388.885 271.807 388.885 277.411 C 392.388 280.914 393.789 301.229 394.489 312.438 C 393.789 315.94 394.489 319.443 390.987 320.143 C 393.088 324.347 395.19 333.454 390.987 337.657 C 393.789 341.16 390.987 345.363 396.591 343.962 C 394.489 349.566 393.789 342.561 390.987 346.063 C 390.987 348.865 390.987 350.266 390.286 352.368 C 390.987 357.972 394.489 355.871 395.89 357.272 C 389.586 358.673 395.19 367.78 388.184 368.48 C 388.184 374.085 386.083 378.288 387.484 380.389 C 376.976 382.491 379.078 388.796 369.971 387.395 C 365.067 386.694 363.666 389.496 358.762 388.095 C 357.361 390.897 361.564 390.197 360.163 392.999 C 357.361 391.598 355.96 389.496 353.158 390.197 C 354.559 392.999 353.858 394.4 351.757 395.801 C 348.254 395.801 332.142 397.202 320.933 396.502 C 314.628 397.202 317.431 400.705 315.329 402.806 C 313.227 399.304 309.024 401.405 308.324 400.004 C 306.923 404.208 304.12 401.405 302.719 402.806 C 298.516 395.101 290.11 402.106 285.206 397.903 C 282.404 404.908 290.11 403.507 292.211 405.609 C 288.709 409.111 284.505 409.111 282.404 409.812 C 277.5 409.812 276.8 406.309 278.901 404.908 C 272.596 402.106 273.297 407.01 269.794 404.208 C 263.489 400.004 259.286 388.796 250.88 383.892 C 249.479 390.197 255.083 397.202 257.185 403.507 C 248.078 409.812 254.383 400.705 250.88 404.208 C 250.88 405.609 248.778 407.01 249.479 408.411 C 246.677 409.111 247.377 409.812 246.677 411.213 C 242.473 407.71 244.575 401.405 239.671 399.304 C 240.372 404.208 234.067 408.411 238.971 411.913 C 238.971 409.111 238.971 405.609 239.671 402.106 C 242.473 406.309 243.174 408.411 242.473 411.213 C 247.377 411.213 252.281 414.716 256.484 415.416 C 256.484 412.614 258.586 414.716 258.586 409.812 C 255.784 407.71 254.383 410.512 250.179 409.111 C 257.185 407.01 257.185 407.01 258.586 405.609 C 252.981 392.298 259.987 396.502 250.179 385.994 C 269.794 397.903 259.286 412.614 271.896 410.512 C 288.008 409.812 301.318 402.806 316.029 404.208 C 316.73 411.213 319.532 408.411 320.933 411.213 C 323.735 411.213 328.639 413.314 332.142 413.314 C 353.158 413.314 371.372 413.314 390.286 412.614 C 394.489 411.913 393.088 405.609 389.586 403.507 C 372.773 407.71 354.559 406.309 339.147 406.309 C 331.441 404.908 322.334 403.507 316.73 403.507 C 316.73 399.304 320.933 398.603 319.532 397.903 C 335.644 398.603 349.655 398.603 359.463 400.705 C 366.468 399.304 383.981 395.101 393.088 391.598 C 394.489 390.197 397.291 389.496 397.291 385.994 C 402.195 388.796 404.997 387.395 404.297 392.298 C 405.698 382.491 397.992 388.796 397.992 381.09 C 400.094 381.09 399.393 377.587 400.794 377.587 C 399.393 373.384 394.489 383.192 392.388 374.085 C 395.89 372.684 397.291 367.78 400.794 368.48 C 402.195 355.871 402.896 359.373 404.297 350.967 C 402.896 345.363 400.794 341.16 397.992 337.657 C 393.088 285.117 397.291 282.315 394.489 257.796 C 392.388 257.095 391.687 249.39 385.382 253.593 C 395.89 243.085 393.088 251.491 400.794 242.384 C 402.896 237.481 402.195 231.876 400.794 227.673 C 402.896 225.571 402.896 226.973 403.596 226.973 C 405.698 223.47 409.2 220.668 407.799 215.764 C 407.799 218.566 406.398 222.069 404.297 223.47 C 402.195 219.967 404.297 218.566 404.297 215.764 C 404.997 212.261 409.2 204.555 409.2 210.86 C 408.5 208.759 409.901 203.855 407.099 207.358 C 404.997 209.459 404.997 212.261 403.596 213.662 C 402.195 217.866 400.794 221.368 400.794 223.47 C 397.992 224.17 395.89 223.47 394.489 222.769 C 393.088 208.058 412.003 184.94 407.099 171.63 C 405.698 165.326 401.495 170.93 398.692 170.229 L 397.291 170.229 L 398.692 167.427 C 395.19 167.427 388.885 159.721 388.885 159.021 L 386.783 159.021 L 385.382 156.919 C 391.687 156.219 396.591 166.727 402.896 159.021 C 407.099 152.015 401.495 154.117 404.997 148.513 C 403.596 136.604 402.195 111.384 395.89 93.171 C 396.591 82.663 397.291 67.251 395.89 62.347 C 392.388 55.342 388.885 60.946 386.083 56.743 C 395.19 57.443 388.885 50.438 393.789 46.235 C 392.388 47.636 390.987 47.636 388.184 49.737 C 389.586 41.331 393.088 32.925 393.789 25.219 C 393.088 33.625 388.885 43.433 385.382 49.737 C 362.265 36.427 327.238 21.716 304.12 11.909 C 297.816 11.208 292.211 9.807 285.206 8.406" fill="rgb(211,144,78)"/>
    <path d="M 135.992 8.406 C 138.094 13.31 130.388 8.406 128.286 9.807 C 125.484 11.909 122.682 12.609 121.982 14.711 C 133.891 30.123 121.982 38.529 128.286 49.037 C 127.586 51.839 126.185 52.54 125.484 50.438 C 111.474 74.957 128.987 77.759 142.998 78.459 C 129.688 75.657 138.094 67.251 123.383 70.053 C 128.286 63.048 124.083 60.946 126.185 58.144 C 130.388 56.743 132.49 56.042 135.292 57.443 C 134.591 55.342 131.789 56.042 131.089 53.941 C 131.089 49.037 134.591 51.839 135.992 49.737 C 133.891 46.935 131.089 46.935 131.089 43.433 C 138.794 33.625 127.586 23.818 132.49 16.812 C 146.5 21.016 150.704 12.609 159.81 15.411 C 164.714 23.117 161.212 26.62 164.714 30.823 C 164.014 32.224 163.313 34.326 162.613 34.326 C 164.014 35.727 168.217 34.326 168.217 38.529 C 171.72 43.433 173.121 44.834 174.522 51.139 C 175.222 49.037 176.623 44.834 178.725 45.534 C 177.324 37.828 174.522 37.828 175.923 34.326 C 176.623 32.224 177.324 31.524 179.425 32.224 C 181.527 34.326 178.725 35.727 180.126 38.529 C 180.126 32.224 187.131 30.823 189.933 28.721 C 191.334 23.117 183.629 24.518 183.629 19.615 C 194.137 18.213 202.543 19.615 215.853 16.812 C 217.955 18.914 220.056 16.812 222.859 18.914 C 224.96 14.01 239.671 20.315 246.677 18.914 C 254.383 23.117 259.286 23.818 264.891 25.219 C 273.297 31.524 255.083 28.021 265.591 29.422 C 269.094 31.524 264.19 28.721 271.195 26.62 C 269.794 25.219 272.596 23.818 271.195 22.417 C 268.393 18.914 267.693 16.112 265.591 14.01 C 262.088 15.411 260.687 16.112 259.286 17.513 C 251.58 17.513 236.169 12.609 223.559 11.909 C 209.548 10.508 199.741 17.513 187.131 16.812 C 178.725 14.711 180.826 24.518 176.623 21.016 C 177.324 21.016 177.324 22.417 178.024 22.417 C 172.42 22.417 170.318 30.123 170.318 33.625 C 168.217 34.326 168.917 32.925 168.217 32.224 C 168.917 32.925 167.516 35.026 168.917 35.026 C 168.217 37.128 171.72 35.727 170.318 39.229 C 168.217 35.727 165.415 33.625 163.313 35.727 C 164.014 33.625 164.714 32.925 165.415 32.224 C 164.014 30.823 166.816 27.32 167.516 28.021 C 167.516 24.518 167.516 24.518 168.217 26.62 C 161.912 21.016 166.115 20.315 162.613 12.609 C 150.704 8.406 142.297 16.812 135.992 9.807" fill="rgb(214,145,78)"/>
    <path d="M 144.399 273.208 C 144.399 276.71 138.794 276.01 141.597 280.213 C 140.196 277.411 135.292 277.411 135.992 276.01 C 119.18 272.507 137.393 287.919 131.089 302.63 C 129.688 310.336 130.388 320.143 129.688 329.25 C 133.19 337.657 131.089 345.363 133.19 350.266 C 126.185 352.368 136.693 357.972 123.383 365.678 C 128.286 369.881 132.49 374.785 134.591 378.288 C 132.49 376.186 127.586 379.689 124.083 374.785 C 121.281 378.988 121.982 378.288 124.083 383.892 C 134.591 388.796 136.693 389.496 145.8 395.101 C 150.003 402.106 154.206 404.208 153.506 411.913 C 155.607 403.507 158.409 414.015 157.008 400.705 C 160.511 404.208 164.714 409.812 161.912 411.213 C 193.436 403.507 189.233 402.106 204.645 397.903 C 210.249 403.507 213.752 406.309 220.056 409.111 C 227.762 409.812 232.666 414.716 236.169 411.913 C 218.655 411.913 213.752 395.801 190.634 392.999 C 187.832 390.197 192.035 395.101 187.131 392.999 C 190.634 395.101 190.634 397.202 192.736 397.903 C 187.131 400.705 181.527 399.304 180.126 405.609 C 173.121 404.208 170.318 402.806 161.912 400.004 C 162.613 396.502 160.511 391.598 161.212 389.496 C 161.212 393.7 155.607 393.7 154.206 395.801 C 150.704 387.395 142.297 393.7 135.992 385.293 C 137.393 383.192 138.094 378.288 137.393 374.085 C 137.393 375.486 135.292 372.684 134.591 374.085 C 134.591 373.384 133.891 369.181 132.49 368.48 C 133.891 364.978 136.693 357.272 135.992 354.47 C 134.591 350.967 137.393 341.86 133.19 346.063 C 131.789 335.555 135.292 327.849 133.891 313.138 C 131.789 308.234 137.393 306.133 135.992 302.63 C 132.49 297.026 134.591 293.523 131.789 287.218 C 133.891 284.416 133.19 279.513 134.591 278.812 C 137.393 278.812 141.597 281.614 142.998 283.716 C 140.896 280.914 142.998 277.411 144.399 274.609" fill="rgb(212,145,79)"/>
    <path d="M 142.297 80.561 C 144.399 84.064 130.388 79.16 128.987 84.064 C 124.784 103.679 126.885 119.791 128.286 138.705 C 128.286 142.908 127.586 144.31 126.885 146.411 C 126.185 142.908 126.885 139.406 126.185 135.203 C 126.885 138.705 126.885 142.208 124.784 145.01 C 121.281 143.609 121.281 141.507 119.88 140.106 C 119.88 142.908 123.383 145.01 122.682 147.112 C 119.18 148.513 121.982 152.015 121.281 154.117 C 119.88 152.015 117.778 151.315 117.778 150.614 C 121.982 158.32 122.682 161.122 137.393 169.529 C 127.586 167.427 119.88 169.529 117.778 168.128 C 119.18 173.031 117.078 176.534 119.88 177.235 C 126.885 179.336 117.778 173.732 125.484 175.834 C 124.083 180.037 129.688 182.138 131.789 184.94 C 126.885 185.641 123.383 182.839 120.581 184.94 C 121.982 187.743 115.677 189.144 118.479 194.748 C 120.581 217.165 132.49 232.577 136.693 251.491 C 136.693 264.801 121.982 259.197 123.383 264.801 C 127.586 266.202 131.089 269.005 134.591 269.005 L 135.292 269.005 L 135.292 270.406 L 136.693 270.406 L 137.393 270.406 C 142.998 270.406 141.597 267.603 145.8 267.603 C 140.196 266.202 140.896 266.903 135.292 270.406 C 140.196 265.502 138.094 259.898 140.196 254.293 C 137.393 236.78 127.586 218.566 126.185 210.16 C 125.484 201.753 133.19 210.16 131.789 200.352 C 126.885 201.053 126.885 203.154 124.083 200.352 C 126.185 195.448 128.286 195.448 133.19 189.144 C 132.49 189.144 135.992 186.342 132.49 186.342 C 131.089 182.138 130.388 177.935 128.286 173.732 C 131.789 169.529 135.292 171.63 138.094 170.93 C 130.388 163.924 129.688 162.523 124.083 156.219 C 124.784 151.315 127.586 147.112 128.286 142.208 C 126.885 124.695 128.286 105.08 128.987 90.368 C 128.286 80.561 148.602 82.663 143.698 80.561" fill="rgb(212,144,78)"/>
    <path d="M 318.131 7.005 C 308.324 8.406 321.634 7.005 323.735 6.304 C 331.441 13.31 342.65 14.01 352.457 21.716 C 358.062 18.914 372.072 28.021 370.671 18.914 C 370.671 23.818 374.874 23.818 377.676 24.518 C 378.377 23.818 376.275 22.417 373.473 23.117 C 379.078 18.914 379.778 24.518 382.58 20.315 C 379.778 18.914 385.382 16.112 380.479 17.513 C 383.981 16.112 384.682 12.609 388.184 12.609 C 372.072 7.705 339.848 11.208 324.436 6.304 C 322.334 6.304 320.933 6.304 318.832 6.304" fill="rgb(209,142,75)"/>
    <path d="M 397.992 5.604 C 393.789 5.604 391.687 9.807 389.586 12.609 C 386.083 17.513 383.981 22.417 381.179 26.62 C 379.778 35.026 382.58 41.331 384.682 45.534 C 386.083 39.229 390.286 33.625 390.987 27.32 C 386.783 22.417 387.484 35.727 383.981 34.326 C 382.58 28.021 387.484 26.62 386.083 21.016 C 390.286 21.716 393.789 21.716 395.19 24.518 C 395.89 32.224 394.489 37.128 393.088 42.032 C 397.992 37.828 397.291 32.925 404.997 30.823 C 403.596 25.219 407.799 14.01 398.692 4.903" fill="rgb(102,34,12)"/>
    <path d="M 396.591 300.529 C 394.489 307.534 404.997 328.55 399.393 336.956 C 401.495 341.16 403.596 345.363 404.297 349.566 C 404.297 352.368 404.297 354.47 402.896 355.871 C 403.596 360.774 402.195 363.577 401.495 366.379 C 397.992 369.181 396.591 371.983 393.088 374.085 C 395.19 381.09 397.291 374.085 402.195 376.186 C 394.489 380.389 402.896 383.892 396.591 388.796 C 391.687 395.801 362.265 398.603 358.062 400.705 C 347.554 397.903 332.842 399.304 320.233 397.202 C 333.543 400.004 334.944 398.603 358.062 402.106 C 378.377 397.903 382.58 396.502 398.692 393.7 C 400.794 397.903 404.997 397.202 404.997 400.004 C 409.2 400.004 409.2 398.603 408.5 395.801 C 409.901 397.903 409.901 399.304 409.901 400.705 C 410.602 388.796 407.799 390.197 407.099 375.486 C 404.997 376.887 402.896 370.582 400.794 373.384 C 404.997 369.881 402.195 358.673 404.297 357.972 C 404.997 355.871 404.997 357.272 407.099 356.571 C 404.297 343.962 399.393 318.742 397.291 301.93" fill="rgb(182,105,45)"/>
    <path d="M 306.222 7.005 C 333.543 16.812 358.062 33.625 383.981 46.935 C 379.078 41.331 380.479 37.828 379.778 28.721 C 379.778 30.123 378.377 30.823 379.078 32.925 C 358.762 28.721 337.746 16.812 306.923 7.005" fill="rgb(239,196,130)"/>
    <path d="M 231.265 1.401 C 206.046 4.903 175.222 0 173.821 8.406 C 173.121 14.01 191.334 3.502 197.639 8.406 C 205.345 7.005 205.345 2.101 213.752 3.502 C 214.452 5.604 218.655 5.604 217.254 7.005 C 222.859 0 241.773 13.31 254.383 9.107 C 249.479 1.401 241.072 4.903 232.666 0.7" fill="rgb(203,147,86)"/>
    <path d="M 119.88 279.513 C 121.982 289.32 114.976 304.031 117.078 317.341 C 117.778 329.25 117.078 341.86 119.88 350.266 C 120.581 327.849 120.581 304.732 124.083 285.117 C 121.281 282.315 122.682 280.914 119.88 281.614" fill="rgb(183,101,40)"/>
    <path d="M 121.982 175.834 C 121.982 176.534 126.185 175.834 123.383 177.935 C 122.682 180.037 121.281 182.138 121.281 181.438 C 119.18 180.737 117.078 184.94 115.677 181.438 C 120.581 188.443 113.575 205.256 114.976 217.165 C 115.677 214.363 114.276 203.855 116.377 198.951 C 114.976 210.86 132.49 236.78 132.49 249.39 C 133.19 252.192 133.891 257.095 130.388 258.497 C 127.586 258.497 124.784 259.898 124.083 257.095 C 124.784 259.197 120.581 260.598 118.479 259.898 C 118.479 265.502 121.982 266.202 124.083 268.304 C 122.682 268.304 121.281 265.502 122.682 262.7 C 125.484 263.4 128.987 261.299 131.089 259.898 C 134.591 257.095 135.992 254.994 136.693 252.192 C 129.688 242.384 129.688 222.769 120.581 214.363 C 119.18 203.855 114.976 190.545 119.88 184.94 C 122.682 188.443 122.682 182.138 121.982 178.636 C 128.987 180.737 122.682 187.743 131.789 184.94 C 126.885 184.24 126.185 177.235 124.784 175.834" fill="rgb(173,104,50)"/>
    <path d="M 391.687 394.4 C 379.078 398.603 391.687 393.7 395.89 396.502 C 398.692 400.004 400.794 402.106 402.195 404.908 C 400.094 407.71 398.692 407.01 397.992 407.71 C 396.591 404.208 397.291 400.004 392.388 398.603 C 389.586 402.106 393.789 406.309 394.489 410.512 C 397.291 412.614 397.992 414.716 399.393 415.416 C 402.896 416.117 404.297 414.716 404.997 413.314 C 408.5 407.71 410.602 402.806 409.2 396.502 C 409.901 398.603 409.901 401.405 407.099 400.004 C 404.297 397.903 402.195 398.603 399.393 395.101 C 396.591 395.801 395.19 394.4 391.687 395.101" fill="rgb(100,28,12)"/>
    <path d="M 274.698 3.502 C 275.399 3.502 276.8 5.604 277.5 5.604 C 276.099 6.304 274.698 4.903 273.997 8.406 C 274.698 17.513 276.099 22.417 273.997 30.123 C 277.5 18.213 276.8 21.716 274.698 11.909 C 276.8 10.508 281.003 8.406 284.505 7.705 C 297.816 10.508 294.313 11.208 303.42 10.508 C 321.634 18.213 348.254 30.823 368.57 39.93 C 346.853 28.021 322.334 14.711 318.832 14.01 L 316.73 12.609 L 318.131 14.01 C 307.623 10.508 297.115 7.005 285.907 7.705 C 282.404 7.705 281.003 7.005 278.901 6.304 C 276.8 5.604 276.8 4.203 275.399 4.203" fill="rgb(171,105,46)"/>
    <path d="M 313.227 7.005 C 335.644 16.812 364.366 28.721 377.676 30.123 C 383.281 25.919 371.372 25.219 372.072 21.716 C 372.072 28.721 357.361 19.615 354.559 22.417 C 341.949 14.711 332.142 14.01 323.035 9.107 C 323.035 7.705 321.634 7.005 320.233 7.705" fill="rgb(228,176,108)"/>
    <path d="M 376.976 4.203 C 338.447 6.304 355.259 7.705 327.939 5.604 C 346.853 9.807 368.57 7.705 384.682 11.208 C 383.981 17.513 380.479 15.411 383.981 19.615 C 380.479 25.219 379.778 20.315 374.874 21.716 C 378.377 21.016 378.377 24.518 379.778 25.919 C 379.778 22.417 383.281 23.818 383.281 20.315 C 386.783 15.411 387.484 12.609 387.484 8.406 C 383.281 4.203 381.88 8.406 376.976 6.304 C 395.19 3.502 402.896 4.203 376.976 3.502" fill="rgb(221,173,114)"/>
    <path d="M 402.896 70.053 C 402.896 86.866 405.698 110.684 409.2 124.695 C 407.799 111.384 407.799 91.769 407.099 69.352 C 406.398 70.753 404.997 70.053 404.297 70.753" fill="rgb(198,133,76)"/>
    <path d="M 117.778 392.298 C 117.778 398.603 124.784 400.004 126.185 403.507 C 128.286 401.405 133.891 410.512 138.794 410.512 C 142.297 407.71 142.297 404.908 138.794 402.106 C 131.089 398.603 125.484 394.4 119.18 392.298" fill="rgb(196,126,66)"/>
    <path d="M 119.18 370.582 C 114.976 368.48 117.078 377.587 119.88 383.892 C 128.286 388.095 135.992 390.897 142.297 396.502 C 148.602 397.903 150.003 412.614 150.003 405.609 C 151.404 409.111 150.704 411.213 149.302 413.314 C 152.805 414.015 154.907 413.314 156.308 412.614 L 157.709 411.913 L 157.709 411.213 C 157.008 410.512 157.008 409.111 156.308 407.71 C 156.308 409.111 157.008 409.812 156.308 411.913 C 154.907 412.614 154.206 412.614 153.506 413.314 C 153.506 404.908 150.003 402.106 145.8 395.801 C 136.693 389.496 133.891 390.197 124.083 385.293 C 121.982 376.887 119.88 381.09 121.982 374.785 C 127.586 376.887 135.292 379.689 133.19 376.887 C 130.388 374.785 128.987 376.887 127.586 369.881 L 125.484 369.881 L 124.083 369.881 L 126.185 370.582 L 126.885 370.582 C 128.286 371.983 129.688 371.983 128.286 374.785 C 126.185 371.282 121.982 372.684 119.88 369.881" fill="rgb(175,102,50)"/>
    <path d="M 402.896 35.026 C 400.094 37.128 401.495 41.331 400.794 45.534 C 395.89 40.631 395.89 42.032 399.393 37.128 C 394.489 42.732 390.987 42.032 388.184 49.037 C 391.687 51.839 390.987 44.834 394.489 45.534 C 392.388 47.636 390.286 52.54 395.19 56.743 C 391.687 54.641 390.987 55.342 385.382 56.743 C 388.885 56.042 397.291 60.245 393.789 58.844 C 395.19 54.641 398.692 57.443 400.094 56.743 C 400.794 48.336 404.297 36.427 404.997 35.727" fill="rgb(178,100,43)"/>
    <path d="M 397.992 68.652 C 393.088 77.759 401.495 85.465 396.591 92.47 C 402.896 111.384 404.297 136.604 405.698 146.411 C 402.195 153.416 407.799 152.716 404.297 160.422 C 397.992 166.026 393.088 159.721 386.083 156.919 C 390.286 159.721 397.291 163.224 399.393 163.924 C 402.195 161.823 404.297 161.823 407.099 159.721 C 407.099 156.919 406.398 149.213 407.799 148.513 C 405.698 125.395 397.992 96.673 398.692 70.753" fill="rgb(173,105,45)"/>
    <path d="M 124.784 271.807 C 122.682 272.507 121.982 273.208 121.281 277.411 C 126.885 284.416 126.885 280.213 130.388 292.823 C 131.089 319.443 126.185 311.037 128.987 329.25 C 128.286 339.058 131.089 344.662 132.49 355.17 C 131.789 347.464 131.789 339.758 129.688 330.652 C 129.688 320.143 128.987 310.336 132.49 303.331 C 128.286 294.924 135.292 280.914 125.484 278.812 C 129.688 274.609 133.891 279.513 135.292 275.309 C 138.094 277.411 140.196 277.411 140.196 279.513 C 138.094 276.01 143.698 276.71 143.698 273.208 C 141.597 273.908 140.196 277.411 136.693 276.01 C 131.789 275.309 128.987 272.507 126.185 271.106" fill="rgb(175,106,49)"/>
    <path d="M 380.479 404.908 C 397.291 402.106 388.184 411.913 379.078 411.213 C 373.473 411.913 367.869 412.614 362.965 411.213 C 367.869 407.71 374.174 406.309 381.179 405.609" fill="rgb(192,115,55)"/>
    <path d="M 117.078 280.213 C 114.976 292.823 116.377 304.732 115.677 317.341 C 116.377 331.352 116.377 334.154 117.778 349.566 C 118.479 350.967 120.581 353.069 121.281 351.668 C 120.581 327.149 124.083 307.534 124.784 283.716 C 122.682 297.026 119.88 327.849 122.682 349.566 C 116.377 342.561 117.778 329.25 116.377 319.443 C 115.677 304.031 118.479 293.523 120.581 280.914" fill="rgb(205,140,82)"/>
    <path d="M 126.185 284.416 C 128.987 306.133 121.281 327.849 125.484 350.967 C 126.885 350.967 128.286 350.967 130.388 351.668 C 129.688 343.962 126.185 337.657 125.484 329.951 C 126.185 314.539 130.388 299.828 126.885 285.117" fill="rgb(241,197,133)"/>
    <path d="M 406.398 163.224 C 406.398 166.727 399.393 167.427 397.291 170.229 C 400.794 168.128 402.896 168.828 405.698 166.727 C 411.302 171.63 404.997 176.534 409.2 177.935 C 409.901 193.347 393.088 208.058 395.19 219.267 C 396.591 215.063 407.799 191.946 409.901 181.438 C 409.901 182.839 410.602 180.737 409.901 179.336 C 411.302 171.63 407.799 163.224 406.398 163.924" fill="rgb(180,101,45)"/>
    <path d="M 175.923 4.203 C 175.222 6.304 171.72 4.203 171.019 6.304 C 168.217 11.208 170.318 14.01 173.121 15.411 C 172.42 14.01 177.324 12.609 178.024 11.208 C 184.329 9.807 191.334 7.705 196.939 11.208 C 203.244 7.005 213.051 8.406 215.153 6.304 C 215.153 2.802 210.249 4.203 206.746 3.502 C 208.147 8.406 199.04 5.604 199.04 8.406 C 191.334 5.604 180.826 11.208 172.42 9.807 C 170.318 9.807 171.72 9.107 170.318 8.406 C 175.923 5.604 180.826 4.903 184.329 4.203 C 182.228 4.203 179.425 5.604 176.623 4.203" fill="rgb(222,172,107)"/>
    <path d="M 399.393 268.304 C 397.992 280.914 400.094 293.523 402.896 304.031 C 402.195 294.224 403.596 285.117 404.297 276.01 C 402.896 272.507 404.297 268.304 401.495 268.304" fill="rgb(193,130,75)"/>
    <path d="M 119.18 394.4 C 126.185 395.801 134.591 399.304 138.794 405.609 C 135.292 408.411 124.083 401.405 119.88 397.202" fill="rgb(190,114,52)"/>
    <path d="M 116.377 225.571 C 117.778 233.978 115.677 238.882 114.976 245.887 C 115.677 245.186 114.976 243.785 115.677 243.085 C 117.778 246.587 115.677 250.09 118.479 252.192 C 121.982 251.491 124.784 255.694 130.388 254.994 C 132.49 254.293 122.682 252.892 120.581 250.791 C 119.88 242.384 121.281 232.577 117.778 226.973" fill="rgb(176,102,47)"/>
    <path d="M 344.051 11.208 C 353.858 10.508 366.468 10.508 376.275 13.31 C 365.767 17.513 353.858 12.609 343.35 13.31" fill="rgb(197,123,56)"/>
    <path d="M 383.281 405.609 C 376.275 407.01 369.27 407.71 362.965 410.512 C 369.27 414.716 400.094 407.71 385.382 404.908" fill="rgb(189,109,51)"/>
    <path d="M 306.222 404.908 C 295.714 406.309 286.607 411.913 273.297 412.614 C 271.195 405.609 262.789 416.117 262.789 404.208 C 263.489 411.913 265.591 416.117 272.596 413.314 L 273.297 414.015 L 272.596 414.716 L 272.596 416.117 L 278.201 416.817 C 264.19 416.817 293.612 406.309 306.222 407.01 C 318.832 408.411 333.543 425.924 314.628 404.908 C 312.527 402.806 310.425 408.411 308.324 405.609" fill="rgb(163,103,51)"/>
    <path d="M 116.377 214.363 C 115.677 220.668 114.976 227.673 115.677 235.379 C 117.078 237.481 114.976 226.973 117.078 224.871 C 122.682 231.176 119.18 235.379 121.281 242.384 C 121.982 246.587 121.982 250.09 119.18 251.491 C 115.677 249.39 117.078 246.587 116.377 243.085 C 114.976 252.892 114.976 250.791 117.778 251.491 L 117.778 252.892 L 119.18 250.791 C 123.383 250.791 123.383 249.39 125.484 245.186 C 123.383 237.481 122.682 231.176 119.18 226.272 C 117.078 222.069 116.377 218.566 115.677 215.764" fill="rgb(201,140,81)"/>
    <path d="M 401.495 226.973 C 402.896 231.876 403.596 236.78 401.495 242.384 C 395.89 243.785 395.19 254.293 392.388 245.186 C 393.789 249.39 395.89 250.09 397.992 250.791 C 402.896 250.791 402.896 248.689 404.997 243.085 C 408.5 236.079 401.495 236.079 404.297 225.571" fill="rgb(168,100,48)"/>
    <path d="M 192.736 400.705 C 184.329 407.71 174.522 410.512 164.014 411.913 C 166.816 411.913 233.367 411.213 179.425 409.812 C 183.629 403.507 191.334 407.01 192.035 402.106" fill="rgb(178,106,47)"/>
    <path d="M 321.634 405.609 C 330.04 404.208 335.644 408.411 340.548 408.411 C 336.345 409.812 332.842 411.213 329.34 411.913 C 325.837 411.913 323.735 409.111 323.035 407.01" fill="rgb(194,119,59)"/>
    <path d="M 123.383 78.459 C 123.383 88.967 121.281 113.486 121.281 128.197 C 122.682 133.802 119.88 136.604 125.484 138.005 C 121.982 121.192 121.982 105.08 123.383 86.165 C 123.383 81.261 124.083 79.16 127.586 81.962 C 126.185 81.962 125.484 81.261 124.784 79.86" fill="rgb(241,200,141)"/>
    <path d="M 318.832 409.111 C 323.035 414.015 326.537 414.716 330.04 414.716 C 353.158 414.716 374.174 415.416 393.789 413.314 C 393.789 411.913 393.789 411.213 393.789 410.512 C 378.377 414.716 353.858 413.314 334.243 414.716 C 328.639 413.314 323.735 413.314 320.233 411.213" fill="rgb(219,170,114)"/>
    <path d="M 190.634 10.508 C 181.527 7.705 173.821 17.513 168.217 14.01 C 174.522 11.909 199.04 17.513 194.137 9.807" fill="rgb(240,196,129)"/>
    <path d="M 403.596 70.053 C 409.901 71.454 406.398 84.764 406.398 90.368 C 402.896 84.064 403.596 79.16 402.896 72.155" fill="rgb(194,120,60)"/>
    <path d="M 199.741 407.71 C 194.137 409.111 188.532 408.411 182.928 409.812 C 189.233 411.213 203.244 406.309 203.944 411.213 C 187.832 416.817 177.324 407.71 171.72 413.314 C 183.629 414.015 220.757 416.117 202.543 408.411" fill="rgb(199,142,87)"/>
    <path d="M 390.987 397.202 C 377.676 397.202 367.168 404.908 354.559 405.609 C 362.265 404.908 371.372 403.507 378.377 403.507 C 385.382 402.106 389.586 397.903 389.586 399.304" fill="rgb(240,196,136)"/>
    <path d="M 206.046 400.004 C 190.634 402.806 215.153 412.614 219.356 413.314 C 215.853 409.812 209.548 407.71 206.046 401.405" fill="rgb(114,43,14)"/>
    <path d="M 120.581 395.801 C 122.682 401.405 135.292 406.309 138.094 407.01 C 134.591 399.304 127.586 398.603 121.982 395.101" fill="rgb(187,108,45)"/>
    <path d="M 409.901 182.839 C 409.2 194.748 400.794 205.256 397.992 215.063 C 404.997 208.058 406.398 199.652 409.901 191.245 C 409.901 188.443 410.602 185.641 409.2 184.24" fill="rgb(120,42,14)"/>
    <path d="M 260.687 4.203 C 259.987 5.604 258.586 3.502 257.885 4.903 C 256.484 9.107 256.484 12.609 257.885 14.711 C 257.185 10.508 265.591 11.208 266.992 8.406 C 266.992 7.005 264.891 3.502 262.088 3.502" fill="rgb(114,34,12)"/>
    <path d="M 306.222 406.309 C 305.521 409.812 306.923 412.614 309.725 414.015 C 312.527 415.416 314.628 417.518 316.73 416.117 C 319.532 411.913 316.73 413.314 316.029 410.512 C 312.527 408.411 309.024 409.812 306.923 407.71" fill="rgb(102,31,12)"/>
    <path d="M 124.784 282.315 C 125.484 299.828 123.383 313.138 122.682 329.25 C 125.484 336.256 121.982 348.865 124.784 351.668 C 120.581 330.652 128.286 303.331 126.185 283.015" fill="rgb(227,173,109)"/>
    <path d="M 118.479 80.561 C 121.281 96.673 112.174 119.791 117.078 133.802 C 119.88 114.187 117.078 98.775 119.88 81.261" fill="rgb(166,114,66)"/>
    <path d="M 119.18 23.818 C 117.778 32.224 118.479 42.732 117.778 51.839 C 120.581 51.839 118.479 50.438 121.281 46.935 C 123.383 40.631 120.581 32.925 118.479 25.219" fill="rgb(197,132,71)"/>
    <path d="M 219.356 7.005 C 227.062 4.903 252.281 17.513 254.383 13.31 C 244.575 9.807 234.067 9.107 223.559 4.903" fill="rgb(228,174,109)"/>
    <path d="M 404.297 37.828 C 402.896 40.631 402.896 60.245 396.591 56.743 C 401.495 58.844 404.297 56.042 407.099 57.443 C 400.094 55.342 409.2 41.331 404.997 37.128" fill="rgb(122,51,18)"/>
    <path d="M 400.094 60.946 C 400.794 61.647 400.094 62.347 400.094 67.951 C 403.596 69.352 407.099 70.053 408.5 67.951 C 409.2 63.048 404.997 61.647 402.896 60.245" fill="rgb(100,31,13)"/>
    <path d="M 119.18 369.881 C 114.276 371.983 115.677 381.09 117.078 384.593 C 128.286 391.598 139.495 392.999 147.201 402.106 C 140.196 392.999 129.688 389.496 119.88 385.293 C 115.677 381.09 116.377 374.085 117.778 369.881" fill="rgb(110,52,23)"/>
    <path d="M 116.377 384.593 C 114.976 385.994 117.778 386.694 116.377 389.496 C 128.987 391.598 140.896 400.705 146.5 405.609 C 138.094 392.999 125.484 393.7 115.677 385.994" fill="rgb(236,197,145)"/>
    <path d="M 400.094 269.705 C 405.698 272.507 402.195 284.416 402.195 288.619 C 400.094 284.416 399.393 277.411 399.393 272.507" fill="rgb(188,119,61)"/>
    <path d="M 318.131 399.304 C 320.933 404.208 339.147 402.806 345.452 404.908 C 337.046 401.405 330.741 400.004 322.334 399.304" fill="rgb(241,201,139)"/>
    <path d="M 203.944 398.603 C 202.543 400.004 195.538 400.705 200.441 404.208 C 196.238 400.705 203.244 400.705 204.645 400.004 C 208.848 407.01 215.853 409.111 220.757 411.913 C 225.661 409.111 231.965 416.817 237.57 413.314 C 235.468 415.416 229.163 411.913 221.457 410.512 C 213.752 407.01 210.249 404.908 207.447 398.603 L 206.046 398.603 L 205.345 398.603" fill="rgb(169,102,51)"/>
    <path d="M 119.88 11.208 C 121.982 17.513 125.484 34.326 124.784 35.026 C 129.688 25.219 121.281 20.315 121.281 11.909" fill="rgb(178,103,45)"/>
    <path d="M 121.281 77.058 C 119.18 89.668 120.581 138.705 114.976 132.4 C 119.18 138.005 119.18 136.604 121.281 137.304 C 118.479 120.491 121.982 98.074 121.982 79.16" fill="rgb(201,142,83)"/>
    <path d="M 126.185 37.828 C 121.281 49.737 122.682 53.24 118.479 72.155 C 119.88 63.748 122.682 58.144 124.083 51.839 C 126.185 50.438 126.185 51.839 127.586 50.438 C 121.982 47.636 126.885 41.331 126.885 39.229" fill="rgb(184,106,46)"/>
    <path d="M 116.377 210.86 C 116.377 224.871 128.987 234.678 126.885 249.39 C 128.987 248.689 129.688 249.39 130.388 250.09 C 128.987 236.079 119.88 224.871 116.377 212.261" fill="rgb(240,197,140)"/>
    <path d="M 343.35 12.609 C 351.757 11.909 365.767 16.812 374.874 14.01 C 366.468 11.909 355.96 11.208 346.853 11.909" fill="rgb(194,120,53)"/>
    <path d="M 322.334 406.309 C 323.735 408.411 325.136 411.213 328.639 411.213 C 332.842 410.512 336.345 409.111 339.848 409.812 C 335.644 409.111 330.741 405.609 323.735 405.609" fill="rgb(191,115,56)"/>
    <path d="M 221.457 10.508 C 209.548 11.208 199.741 11.909 189.233 16.112 C 200.441 16.812 209.548 10.508 221.457 11.208 C 257.185 17.513 255.083 16.112 220.056 9.807" fill="rgb(177,110,50)"/>
    <path d="M 145.099 344.662 C 148.602 343.261 144.399 348.865 147.901 348.865 C 145.099 343.962 150.704 349.566 151.404 348.165 C 149.302 350.967 150.704 353.769 145.8 354.47 C 140.896 350.266 145.8 350.266 144.399 346.764" fill="rgb(232,188,119)"/>
    <path d="M 117.078 9.807 C 120.581 16.812 117.778 27.32 124.083 32.925 C 122.682 25.219 120.581 16.112 118.479 10.508" fill="rgb(118,49,14)"/>
    <path d="M 121.982 357.272 C 124.784 360.774 115.677 361.475 117.778 365.678 C 121.281 364.277 124.083 365.678 123.383 369.181 C 121.982 359.373 140.896 356.571 121.281 360.074" fill="rgb(178,99,42)"/>
    <path d="M 267.693 8.406 C 248.778 21.716 264.19 9.107 271.896 19.615 C 268.393 17.513 269.794 13.31 268.393 10.508 L 268.393 9.807 L 267.693 11.208 L 267.693 10.508" fill="rgb(178,101,44)"/>
    <path d="M 121.281 353.069 C 115.677 353.769 115.677 358.673 116.377 363.577 C 119.88 365.678 122.682 367.78 125.484 369.881 C 121.982 367.78 122.682 364.978 117.078 365.678 C 117.778 362.176 119.88 360.774 121.281 358.673 C 120.581 357.272 121.982 355.17 121.281 353.769" fill="rgb(107,38,16)"/>
    <path d="M 298.516 413.314 C 292.912 414.716 286.607 416.117 282.404 416.117 C 296.415 418.919 302.719 416.117 302.019 412.614" fill="rgb(172,110,55)"/>
    <path d="M 171.72 395.101 L 173.121 393.7 C 175.923 397.903 177.324 395.101 180.826 395.801 C 175.923 399.304 168.217 404.208 171.019 395.801" fill="rgb(215,159,94)"/>
    <path d="M 120.581 252.192 C 117.078 252.892 115.677 256.395 116.377 260.598 L 117.078 261.999 L 117.778 262.7 C 118.479 264.801 120.581 264.801 121.982 266.202 C 120.581 264.801 118.479 264.801 117.778 262.7 C 117.078 257.796 121.982 261.299 122.682 257.796 C 121.982 256.395 121.982 254.293 120.581 252.892" fill="rgb(108,45,16)"/>
    <path d="M 400.094 267.603 C 400.094 268.304 399.393 269.005 397.992 268.304 C 397.992 284.416 398.692 301.93 403.596 313.138 C 407.099 280.213 397.992 320.844 397.992 263.4 C 400.094 267.603 401.495 268.304 402.195 267.603 C 404.297 271.807 404.297 274.609 404.997 277.411 C 404.297 274.609 404.997 270.406 404.297 267.603 C 402.896 267.603 402.195 267.603 401.495 268.304" fill="rgb(217,171,118)"/>
    <path d="M 175.222 15.411 C 184.329 16.112 175.222 18.213 172.42 16.812 C 172.42 18.914 173.121 21.016 174.522 21.716 C 172.42 23.117 169.618 24.518 171.72 25.919 C 169.618 21.016 194.837 16.112 178.024 15.411" fill="rgb(178,104,46)"/>
    <path d="M 398.692 257.095 C 397.992 261.299 398.692 261.299 399.393 264.101 C 400.094 266.903 402.896 266.903 403.596 266.903 C 405.698 262.7 402.896 259.197 400.094 258.497" fill="rgb(107,38,18)"/>
    <path d="M 404.297 70.753 C 403.596 78.459 403.596 83.363 404.997 89.668 C 406.398 84.064 407.099 76.358 405.698 70.753" fill="rgb(189,112,52)"/>
    <path d="M 119.18 29.422 C 121.281 32.925 121.281 41.331 120.581 46.235 C 117.078 42.732 118.479 36.427 117.778 32.224" fill="rgb(191,123,60)"/>
    <path d="M 334.944 84.764 C 334.944 83.363 335.644 84.064 337.046 84.064 C 339.848 85.465 338.447 86.866 341.249 88.267 C 337.746 88.967 324.436 85.465 333.543 84.064" fill="rgb(229,187,122)"/>
    <path d="M 121.281 4.903 C 121.982 8.406 123.383 8.406 124.083 11.909 C 126.885 6.304 133.891 9.807 137.393 11.208 C 133.891 8.406 128.286 4.203 121.982 5.604" fill="rgb(172,101,46)"/>
    <path d="M 402.195 384.593 C 402.195 383.192 403.596 385.293 404.997 385.293 C 406.398 388.796 405.698 390.197 404.997 392.999 C 407.799 383.192 395.89 394.4 400.094 384.593" fill="rgb(205,123,53)"/>
    <path d="M 375.575 398.603 C 369.27 399.304 363.666 402.106 358.062 402.806 C 348.955 401.405 341.249 401.405 334.243 399.304 C 342.65 400.705 349.655 405.609 360.163 403.507 C 365.767 400.705 370.671 400.004 374.874 398.603" fill="rgb(117,48,15)"/>
    <path d="M 145.099 405.609 C 136.693 409.812 141.597 418.919 149.302 414.015 C 150.003 411.213 150.704 409.111 150.003 406.309 C 150.704 408.411 150.003 410.512 148.602 411.913 C 145.099 414.015 142.998 411.913 142.297 411.213 C 142.998 409.111 146.5 409.812 146.5 406.309" fill="rgb(100,44,20)"/>
    <path d="M 120.581 138.005 C 117.778 138.005 116.377 140.106 115.677 142.908 C 114.276 148.513 114.976 152.716 117.778 155.518 C 112.174 151.315 118.479 146.411 117.078 141.507 C 119.18 136.604 122.682 141.507 123.383 142.208 C 125.484 139.406 123.383 138.005 121.982 137.304" fill="rgb(111,46,19)"/>
    <path d="M 402.896 91.069 C 400.794 105.78 410.602 128.898 409.901 142.908 C 412.703 119.791 403.596 119.791 403.596 89.668" fill="rgb(218,173,114)"/>
    <path d="M 118.479 143.609 C 118.479 146.411 115.677 147.812 115.677 150.614 C 117.078 154.117 117.078 155.518 118.479 157.62 C 121.982 161.823 124.083 163.924 128.987 164.625 C 117.778 157.62 123.383 159.021 116.377 153.416 C 118.479 149.213 119.88 152.015 120.581 152.716 C 119.88 152.015 119.18 147.112 122.682 147.812 C 121.281 146.411 117.778 147.112 117.778 144.31" fill="rgb(175,105,51)"/>
    <path d="M 392.388 22.417 C 391.687 30.823 386.783 38.529 385.382 46.235 L 383.981 46.235 L 383.981 44.834 L 384.682 46.935 L 386.083 47.636 C 389.586 40.631 392.388 29.422 393.789 22.417" fill="rgb(166,102,51)"/>
    <path d="M 116.377 390.897 C 124.784 394.4 140.196 399.304 142.998 406.309 C 142.998 401.405 137.393 400.004 134.591 397.202 C 127.586 395.801 124.083 390.197 118.479 390.897" fill="rgb(223,173,110)"/>
    <path d="M 340.548 50.438 C 344.051 49.737 342.65 54.641 340.548 55.342 C 337.746 54.641 335.644 55.342 334.243 53.941 C 334.243 50.438 337.746 53.24 339.147 51.139" fill="rgb(229,187,121)"/>
    <path d="M 116.377 161.823 C 119.18 167.427 113.575 175.834 118.479 178.636 C 119.18 179.336 114.976 171.63 117.778 167.427 C 121.281 171.63 128.987 163.924 135.992 170.93 C 131.089 162.523 123.383 172.331 117.778 163.224" fill="rgb(167,109,59)"/>
    <path d="M 402.195 342.561 C 409.2 345.363 404.297 354.47 406.398 356.571 C 409.901 353.769 409.2 350.967 409.2 348.165 C 407.099 346.063 404.997 346.063 404.297 343.261" fill="rgb(105,40,20)"/>
    <path d="M 396.591 4.203 C 390.286 5.604 384.682 4.203 377.676 5.604 C 382.58 5.604 390.286 4.203 388.184 11.208 C 390.286 4.203 401.495 3.502 397.992 4.903" fill="rgb(229,193,137)"/>
    <path d="M 400.794 271.106 C 399.393 276.71 400.794 283.015 400.794 288.619 C 402.896 283.015 403.596 276.71 401.495 270.406" fill="rgb(184,111,51)"/>
    <path d="M 195.538 400.004 C 193.436 403.507 190.634 405.609 187.131 407.71 C 192.035 403.507 207.447 409.111 195.538 401.405" fill="rgb(242,197,137)"/>
    <path d="M 408.5 208.759 C 404.997 212.261 404.297 217.866 402.896 222.069 C 407.799 219.967 408.5 214.363 408.5 210.16" fill="rgb(184,108,50)"/>
    <path d="M 130.388 80.561 C 129.688 81.962 127.586 81.962 126.885 82.663 C 126.185 85.465 126.185 86.165 126.885 87.566 C 122.682 105.78 128.286 127.497 126.885 145.01 C 128.286 124.695 122.682 105.78 128.286 84.064 C 128.286 84.064 134.591 79.86 132.49 81.261" fill="rgb(169,105,55)"/>
    <path d="M 123.383 47.636 C 118.479 51.139 121.281 58.144 117.778 60.946 C 117.078 67.251 118.479 70.753 119.18 74.256 C 115.677 66.55 121.982 57.443 122.682 49.037" fill="rgb(107,45,20)"/>
    <path d="M 213.051 9.107 C 204.645 12.609 231.265 7.005 235.468 11.909 C 229.864 9.107 222.859 9.107 215.853 7.705" fill="rgb(126,53,12)"/>
    <path d="M 397.992 281.614 C 395.89 299.828 403.596 315.94 404.997 331.352 C 406.398 303.331 399.393 320.844 397.291 280.213" fill="rgb(231,193,145)"/>
    <path d="M 388.885 399.304 C 381.88 405.609 370.671 403.507 360.864 404.908 C 367.869 406.309 395.89 402.806 388.885 400.004" fill="rgb(226,172,110)"/>
    <path d="M 316.73 402.106 C 330.741 404.208 343.35 407.01 358.762 405.609 C 345.452 404.908 334.243 404.208 318.832 402.106" fill="rgb(226,171,109)"/>
    <path d="M 346.853 4.203 C 326.537 9.807 360.864 5.604 371.372 4.203 C 362.965 3.502 352.457 6.304 342.65 4.203" fill="rgb(223,194,147)"/>
    <path d="M 145.8 344.662 C 146.5 350.266 142.297 349.566 144.399 353.769 C 150.704 353.069 148.602 350.967 150.704 348.865 C 147.901 346.764 146.5 350.266 145.099 346.764" fill="rgb(230,186,118)"/>
    <path d="M 182.228 23.818 C 185.03 22.417 187.832 25.919 189.233 25.919 C 185.73 28.021 180.126 28.021 180.826 23.818" fill="rgb(227,162,89)"/>
    <path d="M 171.019 37.828 C 175.222 37.828 174.522 44.133 175.222 46.935 C 172.42 44.834 173.121 41.331 169.618 39.229" fill="rgb(196,115,49)"/>
    <path d="M 121.982 88.267 C 121.281 103.679 120.581 121.192 119.18 136.604 C 120.581 123.994 121.281 104.379 122.682 89.668" fill="rgb(230,173,107)"/>
    <path d="M 398.692 68.652 C 401.495 79.16 402.195 92.47 401.495 103.679 C 403.596 93.171 400.094 77.058 400.794 68.652" fill="rgb(245,195,131)"/>
    <path d="M 172.42 394.4 C 168.217 403.507 174.522 398.603 179.425 397.202 C 177.324 397.202 175.222 397.903 173.821 394.4" fill="rgb(212,157,92)"/>
    <path d="M 407.799 68.652 C 407.799 74.256 408.5 85.465 407.799 92.47 C 409.901 86.165 407.799 76.358 410.602 69.352" fill="rgb(210,168,121)"/>
    <path d="M 365.767 5.604 C 368.57 4.903 372.773 5.604 375.575 4.903 C 372.773 7.705 369.27 7.705 366.468 7.005" fill="rgb(224,185,126)"/>
    <path d="M 236.869 1.401 C 243.174 3.502 246.677 2.802 258.586 4.903 C 260.687 0 243.875 2.101 237.57 1.401" fill="rgb(207,168,120)"/>
    <path d="M 393.789 48.336 C 395.19 46.935 396.591 50.438 397.992 51.139 C 396.591 52.54 395.89 54.641 395.19 54.641 C 393.088 52.54 391.687 51.139 393.789 49.737" fill="rgb(202,125,60)"/>
    <path d="M 391.687 253.593 C 397.992 253.593 393.789 264.801 397.992 266.202 C 398.692 263.4 395.89 258.497 398.692 257.095 C 397.291 256.395 396.591 254.994 393.789 254.293" fill="rgb(169,100,48)"/>
    <path d="M 336.345 84.764 C 325.136 84.764 336.345 87.566 339.147 89.668 C 337.046 87.566 339.848 84.764 336.345 84.064" fill="rgb(229,186,121)"/>
    <path d="M 397.992 308.234 C 400.794 316.641 402.195 325.748 402.896 334.855 C 404.997 326.448 400.794 317.341 399.393 308.935" fill="rgb(118,53,19)"/>
    <path d="M 122.682 73.556 C 112.875 74.957 131.789 78.459 141.597 81.261 C 135.992 78.459 125.484 77.058 123.383 73.556" fill="rgb(168,110,61)"/>
    <path d="M 117.778 114.187 C 119.88 114.887 116.377 121.192 117.078 123.994 C 114.976 121.192 114.976 118.39 117.078 116.288" fill="rgb(170,122,79)"/>
    <path d="M 117.078 220.668 C 121.281 227.673 129.688 245.887 122.682 250.791 C 127.586 240.283 121.982 229.074 117.078 221.368" fill="rgb(226,174,109)"/>
    <path d="M 389.586 59.545 C 391.687 59.545 393.088 58.844 392.388 64.449 C 388.885 63.748 390.286 62.347 388.184 60.946" fill="rgb(223,159,92)"/>
    <path d="M 123.383 352.368 C 123.383 355.871 126.885 356.571 128.987 355.871 C 130.388 352.368 126.885 352.368 125.484 353.069" fill="rgb(109,28,9)"/>
    <path d="M 157.709 9.807 C 145.099 14.711 161.212 7.005 161.912 12.609 C 164.014 14.01 164.014 21.016 166.816 26.62 C 171.72 17.513 161.912 25.919 164.714 9.807 C 161.912 10.508 159.81 10.508 158.409 9.807" fill="rgb(163,114,70)"/>
  </g>
  <g transform="matrix(0.093223, 0, 0, -0.093223, 19.995134, 577.058472)" fill="#000000" stroke="none">
    <path d="M2868 5636 c-132 -80 -176 -96 -316 -113 -314 -39 -626 -280 -721 -556 -42 -121 -69 -169 -104 -185 -26 -11 -47 -30 -47 -40 0 -11 -45 -71 -99 -133 -55 -62 -109 -144 -122 -181 -12 -37 -30 -68 -40 -68 -26 0 -284 -273 -317 -337 -16 -29 -46 -65 -67 -81 -68 -48 -114 -180 -115 -328 0 -82 -16 -183 -40 -255 -82 -242 -71 -394 36 -493 59 -54 64 -118 24 -288 l-27 -112 86 -103 c143 -170 401 -262 401 -143 0 22 27 64 61 94 71 64 78 159 10 153 -22 -2 -52 13 -66 35 -25 35 -31 36 -71 8 -94 -66 -105 13 -14 100 33 32 60 73 60 91 0 19 20 59 44 89 l43 55 37 -44 c22 -28 36 -78 36 -129 0 -132 100 -188 141 -78 28 71 16 270 -16 281 -14 5 -25 -6 -25 -23 0 -53 -38 -36 -51 23 -20 87 -26 98 -27 50 -2 -46 -42 -65 -42 -20 1 52 36 80 88 71 41 -8 52 -3 52 27 0 20 7 37 16 37 8 0 32 29 53 65 21 36 69 100 107 143 158 178 214 498 123 709 l-29 67 125 113 c88 80 139 146 174 226 56 130 91 164 91 88 0 -74 94 -244 162 -293 79 -56 73 -101 -29 -206 l-88 -90 5 -366 c3 -223 14 -389 29 -425 19 -48 17 -88 -10 -206 -25 -113 -27 -161 -11 -209 48 -137 -18 -259 -247 -455 -197 -169 -312 -428 -361 -813 -20 -166 -38 -226 -96 -330 -100 -181 -105 -502 -10 -620 121 -151 371 -195 510 -91 l85 63 0 160 c1 88 11 193 22 234 13 49 14 98 2 140 l-19 66 -2 -76 c-2 -94 -42 -80 -42 15 0 42 12 71 31 79 17 6 26 20 19 31 -6 11 51 87 127 169 202 218 285 363 295 518 10 166 50 302 103 359 59 63 72 146 39 254 -28 88 -27 90 59 250 58 108 86 186 87 237 0 71 3 74 43 53 23 -13 73 -18 110 -12 166 27 361 -268 288 -434 -65 -149 -85 -284 -53 -361 19 -45 24 -144 19 -348 -6 -229 -1 -298 24 -345 17 -33 25 -69 18 -81 -16 -25 84 -173 135 -200 44 -24 227 -83 366 -118 126 -32 311 43 309 125 -2 43 -2 44 -21 5 -14 -30 -16 -19 -9 42 13 106 -180 284 -242 222 -6 -6 -28 7 -49 28 -43 43 -50 66 -13 48 14 -7 8 1 -14 19 -38 30 -74 39 -127 32 -19 -2 -17 11 8 49 68 104 162 113 139 13 -10 -46 -8 -48 11 -16 12 21 25 70 29 110 6 68 16 119 71 358 12 52 21 118 21 145 -4 523 1 484 -72 575 -48 62 -70 114 -80 190 -10 85 -32 131 -109 230 -91 118 -96 131 -100 260 -4 143 -37 268 -115 441 l-48 107 86 83 c97 95 148 190 173 325 25 131 54 151 67 45 17 -154 61 -226 173 -287 112 -61 117 -73 69 -169 -22 -44 -35 -130 -39 -258 l-6 -192 73 -107 c40 -59 91 -114 113 -122 38 -14 36 -18 -23 -49 -121 -62 -90 -180 62 -234 42 -15 96 -55 119 -88 210 -305 573 -415 536 -163 -3 20 14 50 36 66 49 34 54 101 12 160 -26 38 -26 46 0 67 17 14 30 38 30 53 0 16 20 49 45 74 68 68 144 344 126 458 -36 230 -169 431 -331 498 -237 99 -269 131 -309 306 -15 63 -107 184 -134 176 -9 -3 -17 3 -17 12 0 10 -23 40 -51 68 -44 44 -48 60 -34 128 30 143 2 275 -70 339 -36 31 -65 69 -65 83 0 14 -22 36 -50 49 -27 12 -50 30 -50 39 0 9 -11 17 -26 17 -14 0 -41 18 -59 40 -24 27 -59 40 -113 40 -49 0 -82 11 -89 28 -19 52 -192 136 -319 156 -218 34 -539 40 -586 12z m401 -41 c-5 -14 -30 -35 -54 -45 -25 -11 -63 -49 -85 -85 -27 -44 -52 -62 -77 -56 -27 6 -33 0 -24 -25 7 -18 7 -27 -1 -19 -7 7 -51 -18 -97 -56 -86 -70 -111 -71 -111 -6 0 44 137 176 184 176 18 1 39 18 45 38 7 22 51 50 106 69 118 39 126 40 114 9z m152 -96 c49 -26 100 -124 111 -212 11 -90 84 -201 153 -232 69 -31 69 -37 -4 -91 -77 -57 -81 -56 -82 21 -1 49 -5 56 -16 28 -8 -21 -13 -63 -11 -95 3 -43 -13 -72 -64 -117 -37 -33 -68 -69 -68 -80 0 -33 -28 -25 -65 18 -32 38 -30 42 28 83 51 36 64 39 81 16 16 -23 18 -23 10 2 -5 17 4 45 20 63 35 40 55 257 24 257 -13 0 -17 -15 -10 -33 8 -20 -3 -48 -29 -72 -40 -37 -40 -40 -5 -66 29 -21 31 -31 11 -52 -17 -17 -25 -18 -25 -2 0 35 -77 59 -210 63 -101 3 -154 83 -97 146 31 33 31 36 0 36 -18 0 -33 8 -33 17 0 10 22 13 49 8 41 -8 46 -16 32 -53 -20 -52 8 -112 51 -112 20 0 27 13 21 35 -6 19 -16 64 -23 99 -8 41 -22 60 -39 54 -14 -6 -30 7 -36 30 -6 22 1 44 15 49 45 17 112 -10 108 -45 -2 -17 1 -45 8 -62 6 -16 15 -48 18 -70 7 -41 96 -71 96 -31 0 11 14 21 30 21 17 0 30 14 30 30 0 20 -20 30 -61 30 -77 0 -76 61 1 82 l50 14 -55 2 c-30 1 -55 11 -55 22 0 11 -13 20 -30 20 -19 0 -30 20 -30 55 -1 43 -5 48 -20 25 -16 -24 -19 -22 -20 13 0 24 -11 48 -25 53 -15 6 -5 18 25 30 65 28 94 28 141 3z m248 -26 c39 -28 -31 -107 -72 -81 -34 21 -16 52 23 42 48 -12 50 -7 9 35 -39 38 -11 41 40 4z m-1156 -103 c27 -27 21 -30 -54 -30 -72 0 -80 4 -59 30 14 17 38 30 54 30 16 0 42 -13 59 -30z m1423 -20 c73 -39 94 -61 95 -101 1 -61 -64 -54 -200 21 -44 24 -107 51 -138 58 -64 15 -62 29 7 42 25 5 50 14 56 19 23 23 90 9 180 -39z m-1187 -29 c54 -103 21 -189 -64 -170 -15 3 -19 2 -10 -3 9 -5 13 -39 9 -76 l-8 -66 -52 52 c-54 54 -79 122 -44 122 11 0 20 20 20 44 0 35 88 156 113 156 3 0 20 -27 36 -59z m328 -51 c-6 -86 -81 -164 -176 -183 -116 -23 -66 96 86 204 86 62 95 60 90 -21z m-642 -9 c40 -11 69 -11 76 0 6 11 22 19 35 19 17 -1 16 -6 -2 -17 -15 -10 -22 -38 -16 -70 11 -63 18 -62 -95 -12 -152 67 -151 124 2 80z m1201 -71 c13 -27 32 -50 44 -50 11 0 20 -9 20 -20 0 -11 -13 -20 -29 -20 -32 0 -91 74 -91 114 0 43 32 29 56 -24z m279 -30 c31 0 37 -11 30 -48 -5 -26 1 -54 14 -61 12 -8 21 -7 19 3 -15 86 39 113 105 53 43 -38 50 -156 12 -198 -14 -15 -37 -42 -52 -60 -34 -40 -40 -34 -62 73 -18 86 -18 86 -15 14 1 -41 -4 -80 -12 -88 -8 -8 -14 0 -14 19 0 18 -10 33 -22 33 -12 0 -17 14 -10 31 6 18 3 26 -8 19 -26 -16 -60 74 -60 159 0 51 -8 66 -34 64 -19 -2 -38 14 -42 35 -8 35 -4 35 52 -5 33 -24 78 -43 99 -43z m-1703 -30 c7 -46 -45 -150 -75 -150 -15 0 -13 10 3 30 15 18 21 58 14 98 -9 55 -5 67 21 63 17 -2 34 -21 37 -41z m268 -15 c0 -9 8 -13 17 -7 81 50 153 -328 75 -394 -100 -86 -293 -141 -323 -93 -7 12 -26 17 -41 11 -39 -15 -36 46 4 90 42 47 88 27 89 -39 2 -47 4 -48 18 -13 9 22 12 47 7 55 -4 8 6 15 23 15 17 0 31 -9 31 -20 0 -11 36 -20 80 -20 44 0 80 10 80 22 0 12 -11 18 -25 13 -14 -5 -37 6 -51 23 -15 18 -21 21 -14 7 16 -31 13 -31 -90 5 -46 16 -93 24 -104 18 -27 -17 -116 72 -116 116 0 21 14 42 30 49 17 6 30 24 30 39 0 78 138 185 210 163 39 -12 70 -30 70 -40z m576 -66 c2 -28 13 -69 25 -90 14 -28 14 -39 -1 -39 -13 0 -17 -9 -10 -20 18 -30 -5 -24 -65 15 -51 33 -52 33 -40 0 10 -25 4 -35 -21 -36 -30 0 -30 -4 5 -30 21 -16 29 -29 18 -29 -12 0 -41 18 -66 39 -35 30 -50 34 -70 15 -30 -27 65 -79 199 -107 87 -19 115 -78 35 -75 -25 0 -45 -7 -45 -18 0 -10 27 -15 60 -10 70 11 75 -9 30 -120 l-30 -74 39 50 c22 28 40 67 41 87 0 27 10 34 34 24 30 -11 30 -8 -3 27 -70 78 -27 103 96 55 60 -24 106 -46 103 -50 -4 -3 6 -37 22 -74 49 -119 37 -225 -35 -292 -63 -59 -105 -64 -57 -7 14 16 20 30 14 30 -6 0 -26 6 -45 13 -28 11 -31 4 -20 -47 13 -61 -32 -110 -60 -65 -6 10 -1 19 11 19 12 0 17 9 9 21 -8 14 -21 14 -41 -2 -32 -28 -88 6 -88 53 0 16 -9 28 -19 28 -11 0 -15 13 -9 28 6 15 1 34 -12 42 -13 8 -27 -3 -34 -28 -6 -23 -19 -37 -28 -31 -10 6 -18 2 -18 -10 0 -11 13 -21 28 -21 15 0 33 -14 40 -32 18 -47 15 -68 -11 -68 -13 0 -18 5 -12 12 7 6 -19 39 -57 72 -44 39 -63 69 -52 83 20 27 -20 182 -41 161 -18 -18 -76 30 -73 60 10 86 -4 132 -42 132 -51 0 -51 -31 -1 -74 47 -40 32 -79 -16 -42 -28 22 -30 22 -10 -4 12 -16 29 -59 36 -95 8 -36 22 -65 33 -65 10 0 18 -14 18 -31 0 -16 14 -35 30 -42 54 -21 31 -39 -55 -43 -60 -3 -76 1 -56 14 26 17 25 24 -2 56 -79 93 -97 294 -35 409 29 55 54 45 45 -18 -7 -47 -4 -44 19 15 31 81 26 100 -27 100 -44 0 -47 15 -19 89 17 45 84 76 78 36 -2 -8 -2 -35 0 -60 2 -50 62 -64 62 -15 0 17 -10 30 -21 30 -12 0 -16 9 -9 21 20 31 76 14 117 -36 20 -25 44 -40 55 -34 10 6 18 2 18 -10 0 -11 9 -21 21 -21 14 0 14 12 0 39 -12 21 -18 50 -14 65 3 14 3 19 -2 11 -5 -8 -22 -15 -40 -15 -27 0 -26 6 5 40 48 53 60 50 66 -11z m-941 -54 c-6 -99 -61 -122 -71 -30 -5 39 2 55 25 55 17 0 30 7 29 15 -4 24 1 45 12 45 5 0 7 -38 5 -85z m1333 -66 c13 -35 2 -41 -101 -58 -87 -14 -116 3 -95 56 20 54 175 55 196 2z m303 -54 c-6 -47 -15 -165 -20 -263 -10 -178 -40 -261 -103 -286 -40 -15 -61 9 -32 38 29 29 31 134 4 176 -14 21 -16 11 -8 -34 24 -126 -45 -164 -89 -50 -54 138 -12 302 88 348 27 12 49 29 49 37 0 24 82 119 103 119 11 0 15 -35 8 -85z m513 41 c-13 -13 -24 -49 -24 -80 0 -64 -12 -69 -62 -24 -33 30 -31 35 29 88 59 53 108 67 57 16z m-2165 -73 c28 -26 48 -60 45 -75 -3 -15 6 -28 20 -29 15 0 7 -16 -18 -37 -24 -20 -39 -43 -32 -50 7 -6 -10 -12 -39 -12 -28 0 -56 -13 -62 -30 -7 -16 -26 -30 -42 -30 -17 0 -31 14 -31 30 0 17 -16 31 -35 32 -19 1 -3 13 35 25 80 26 98 65 40 83 -72 23 -37 157 37 145 17 -3 53 -26 82 -52z m2050 -61 c41 -46 -12 -90 -95 -79 -24 3 -55 -1 -69 -10 -37 -23 -31 21 10 78 42 58 107 63 154 11z m108 -99 c-5 -36 7 -42 43 -23 36 19 40 15 40 -48 0 -98 -19 -98 -111 1 -45 47 -72 89 -60 93 28 10 90 -7 88 -23z m-117 -68 c1 -34 5 -38 19 -17 14 23 27 14 59 -40 l42 -68 -92 -6 c-108 -7 -107 -8 -127 83 -19 81 -12 93 52 93 35 0 47 -11 47 -45z m-1975 -15 c53 0 42 -37 -15 -52 -27 -7 -45 -19 -40 -28 6 -9 28 -12 50 -6 52 14 51 -17 -1 -50 -23 -15 -55 -58 -72 -97 -16 -39 -51 -95 -78 -124 -27 -29 -49 -60 -49 -69 0 -9 -8 -11 -19 -5 -24 15 -3 155 27 181 13 11 43 52 67 91 l43 71 -40 25 c-53 33 -13 92 51 75 22 -6 57 -12 76 -12z m375 -15 c-1 -51 -23 -125 -38 -125 -38 0 -58 77 -29 118 36 51 67 55 67 7z m-752 3 c18 -7 32 -26 32 -42 0 -16 11 -25 25 -20 14 5 23 19 20 32 -3 12 9 22 25 22 17 0 30 -10 30 -21 0 -12 9 -16 20 -9 12 7 20 -13 20 -48 0 -33 -9 -65 -19 -71 -11 -7 -14 -25 -8 -41 6 -15 -4 -49 -21 -74 -18 -24 -32 -74 -32 -110 0 -78 -11 -80 -88 -17 -37 30 -53 58 -46 79 7 18 4 32 -7 32 -29 0 -139 84 -139 105 0 10 9 12 20 5 11 -7 20 1 20 18 0 18 11 26 29 20 35 -14 100 80 84 122 -13 34 -10 35 35 18z m2651 -111 c24 -40 35 -84 28 -118 -9 -43 -2 -56 36 -68 41 -13 36 -17 -41 -32 -48 -10 -96 -13 -107 -6 -25 15 -2 130 30 151 20 12 20 15 0 16 -14 0 -25 25 -25 60 0 78 31 76 79 -3z m-136 -63 c17 -31 14 -44 -11 -58 -18 -10 -32 -44 -32 -78 0 -35 -8 -55 -20 -48 -11 7 -20 1 -20 -14 -1 -20 -5 -19 -19 2 -9 16 -46 29 -80 29 -76 0 -78 55 -2 73 59 14 72 46 32 79 -51 43 -35 61 50 58 58 -3 87 -15 102 -43z m-1700 -18 c36 6 47 -20 39 -96 -3 -27 -1 -27 17 0 23 35 87 6 97 -43 14 -70 -95 -89 -146 -26 -51 62 -64 109 -30 109 11 0 20 9 20 20 0 11 -7 19 -15 18 -39 -6 -62 5 -73 35 -11 28 -9 29 21 5 18 -15 50 -25 70 -22z m913 -113 c4 -24 13 -40 21 -35 31 19 69 -24 54 -61 -10 -23 -19 -28 -25 -13 -5 16 -30 20 -67 13 -72 -15 -97 32 -58 105 31 57 66 53 75 -9z m-1959 -18 c9 -19 14 -46 9 -60 -14 -37 28 -30 42 7 9 23 20 27 37 12 14 -11 30 -21 35 -21 127 -4 250 -212 163 -276 -29 -21 -28 -32 14 -106 62 -111 42 -124 -46 -31 -62 66 -71 88 -71 176 0 55 -5 95 -12 89 -22 -22 -24 -144 -4 -235 10 -49 21 -110 24 -134 3 -24 16 -57 30 -74 14 -17 20 -39 14 -49 -7 -11 -3 -23 8 -26 12 -5 13 -29 1 -67 -9 -33 -18 -49 -19 -36 -3 35 -62 8 -62 -27 0 -49 -34 -12 -46 50 -7 32 -26 72 -42 88 -35 35 -22 58 23 40 24 -9 29 -2 20 31 -7 28 0 45 22 52 18 6 0 8 -41 5 -40 -2 -69 2 -64 10 5 9 -17 14 -49 11 -33 -2 -55 -11 -50 -19 9 -15 -21 -22 -66 -17 -21 3 -35 -19 -46 -68 -19 -83 -86 -119 -109 -58 -20 51 -14 124 11 132 13 5 26 22 28 40 21 142 156 227 173 109 4 -29 20 -43 51 -43 25 0 43 9 40 20 -3 11 -18 20 -35 20 -16 0 -32 16 -36 35 -8 39 15 46 52 15 17 -14 19 -13 6 2 -10 13 -40 33 -65 46 -58 28 -73 132 -29 195 21 30 25 52 11 68 -14 17 -12 42 4 77 27 61 49 66 74 17z m1321 -36 c23 14 20 2 -48 -162 -57 -138 -164 -145 -152 -11 7 91 43 117 77 58 l26 -44 -5 50 c-5 65 42 155 64 120 9 -14 26 -19 38 -11z m1772 -49 c37 -125 32 -160 -21 -140 -35 14 -65 13 -92 -1 -28 -16 -47 -15 -66 1 -19 15 -31 15 -40 1 -20 -32 -51 -25 -38 9 6 18 0 30 -16 30 -21 1 -20 5 3 20 24 15 24 19 3 20 -23 0 -23 6 -3 30 14 17 37 30 52 30 16 0 28 9 28 21 0 34 179 14 190 -21z m-1234 -80 c8 -118 -32 -181 -82 -131 -34 34 -48 190 -20 219 45 44 96 0 102 -88z m-289 67 c7 -8 -1 -30 -19 -49 -35 -39 -22 -82 19 -66 14 5 25 29 25 54 -3 78 96 61 104 -18 5 -54 -3 -67 -64 -96 -84 -40 -232 -25 -232 23 0 25 -5 25 -30 5 -17 -14 -37 -20 -44 -13 -7 7 -2 13 10 13 13 0 18 14 11 30 -6 17 -2 30 9 30 11 0 16 18 10 40 -7 28 -1 40 22 40 17 0 32 -15 32 -34 0 -30 6 -29 44 10 46 45 79 55 103 31z m1169 -115 c4 -30 20 -59 35 -65 44 -17 36 -87 -10 -87 -44 0 -71 31 -43 49 12 7 8 34 -9 66 -35 68 -37 111 -4 100 14 -4 28 -33 31 -63z m485 8 c35 11 123 -44 102 -65 -13 -13 -23 -39 -23 -58 0 -61 -45 -66 -93 -9 -48 55 -57 102 -34 164 13 33 15 33 26 0 7 -19 17 -34 22 -32z m-3474 -101 c14 -67 -26 -167 -73 -185 -16 -6 -33 -29 -39 -52 -6 -23 -3 -37 7 -31 10 6 18 -17 18 -52 0 -81 -39 -55 -78 52 -21 60 -22 82 -1 121 27 50 98 66 101 23 1 -19 4 -19 11 -1 5 13 -1 43 -14 67 -16 30 -16 40 -1 30 14 -8 22 6 22 38 0 71 32 64 47 -10z m3633 -18 c-25 -48 31 -88 59 -42 11 17 20 7 29 -28 7 -29 8 -61 1 -72 -6 -10 -2 -19 8 -19 11 0 26 -49 34 -110 10 -77 22 -110 43 -110 16 0 26 -11 21 -25 -18 -55 -60 -19 -105 94 -27 65 -45 123 -40 128 5 4 -14 26 -42 48 -50 40 -56 134 -13 204 23 36 28 -27 5 -68z m-273 33 c7 7 13 -2 13 -21 0 -18 8 -33 17 -33 10 0 42 -24 71 -54 l54 -53 -46 -26 c-64 -36 -71 -34 -102 26 l-28 52 -32 -46 c-31 -43 -37 -44 -87 -18 -42 23 -55 24 -62 4 -5 -14 -18 -19 -30 -12 -12 8 -15 4 -7 -10 9 -14 -5 -31 -35 -42 -38 -14 -50 -33 -49 -75 2 -87 -2 -106 -23 -106 -11 0 -15 14 -8 30 6 17 2 30 -9 30 -11 0 -25 -11 -31 -25 -7 -18 -10 -18 -11 -1 -1 13 7 29 18 36 11 7 20 30 20 51 0 22 7 39 15 39 25 0 63 97 41 105 -51 17 54 136 109 124 32 -7 55 -4 55 8 0 26 83 40 112 19 12 -9 28 -10 35 -2z m-1379 -11 c6 -9 16 -47 22 -85 7 -37 30 -86 51 -109 30 -32 33 -47 15 -65 -40 -40 -61 -27 -47 31 8 30 8 48 -1 40 -8 -8 -26 -5 -41 8 -18 15 -27 15 -27 1 0 -12 10 -28 22 -35 13 -8 -7 -43 -53 -90 -42 -43 -83 -72 -93 -66 -10 6 -30 0 -46 -13 -16 -13 -36 -19 -46 -13 -29 18 -25 147 5 173 16 12 24 35 18 49 -14 39 29 59 64 30 25 -21 29 -15 24 42 -6 78 98 158 133 102z m182 -63 c22 -102 -39 -165 -70 -71 -18 57 -18 79 1 102 36 44 54 35 69 -31z m-434 9 c13 -10 -127 -129 -151 -129 -14 0 -25 -10 -25 -22 0 -12 13 -17 29 -11 19 7 25 1 18 -18 -6 -16 -19 -24 -28 -18 -9 5 -27 -8 -39 -30 -12 -23 -36 -41 -54 -41 -18 0 -27 6 -19 13 7 8 0 34 -16 59 -40 60 7 188 69 188 22 0 40 8 40 18 0 15 157 7 176 -9z m-370 -42 c-9 -25 -5 -30 16 -19 19 10 18 6 -3 -12 -17 -14 -37 -42 -45 -61 -21 -58 -54 -39 -54 32 0 76 12 93 63 93 25 0 32 -10 23 -33z m1654 -88 c-39 -24 -75 -24 -90 1 -17 28 74 61 100 37 13 -12 9 -25 -10 -38z m610 -19 c24 -46 25 -60 6 -61 -15 0 -10 -12 13 -30 21 -16 31 -29 22 -29 -9 0 -6 -12 7 -28 18 -21 16 -30 -10 -40 -35 -13 -22 -42 19 -42 13 0 23 -10 23 -23 0 -13 7 -30 15 -39 22 -22 18 -228 -4 -228 -36 0 -84 123 -103 258 -16 113 -28 140 -83 186 -79 66 -118 73 -61 11 52 -57 128 -206 113 -222 -17 -16 -129 44 -177 95 -22 23 -62 56 -88 73 -39 25 -46 42 -35 85 13 50 73 79 73 35 0 -34 160 -15 194 23 41 46 39 47 76 -24z m-3077 -89 c-11 -38 -53 -33 -53 6 0 22 -9 46 -20 53 -11 7 -20 28 -20 46 0 25 13 18 49 -26 27 -33 47 -68 44 -79z m1685 64 c26 -69 -11 -130 -54 -88 -27 27 -28 39 -4 82 33 62 37 63 58 6z m982 -19 c0 -8 -19 -25 -41 -37 -23 -12 -59 -62 -80 -110 -20 -49 -48 -89 -60 -89 -13 0 -4 29 19 67 23 37 36 73 28 80 -7 7 -2 13 11 13 13 0 23 17 23 37 0 20 5 42 12 48 17 17 88 10 88 -9z m-1828 -31 c42 -56 36 -91 -12 -65 -22 12 -40 39 -40 61 0 48 17 50 52 4z m167 -200 c38 -30 62 -44 54 -30 -21 35 27 32 105 -7 36 -18 94 -29 132 -24 53 6 72 -1 87 -33 18 -36 20 -36 22 -6 1 42 99 195 124 195 9 0 24 0 32 0 14 0 15 -17 8 -81 -2 -12 -12 -16 -22 -10 -10 7 -24 -22 -30 -63 -42 -287 -167 -463 -192 -271 -8 55 -31 106 -68 143 -34 37 -50 69 -40 85 12 22 10 22 -12 2 -22 -20 -36 -16 -73 19 -55 51 -57 41 -13 -51 21 -44 27 -88 19 -124 l-14 -55 -88 86 c-74 73 -86 95 -76 143 7 36 3 57 -11 57 -13 0 -23 -9 -23 -20 0 -11 -18 -20 -40 -20 -37 0 -50 22 -41 70 3 11 -2 13 -10 5 -13 -13 -127 117 -128 147 -1 21 225 -99 298 -157z m-951 100 c-19 -80 -41 -95 -53 -36 -6 35 1 58 23 71 45 26 44 26 30 -35z m2731 11 c54 -49 28 -72 -85 -75 -30 0 -60 -14 -67 -31 -6 -16 -20 -24 -31 -18 -10 7 -54 -16 -96 -50 -92 -73 -100 -75 -85 -21 6 24 42 54 88 72 42 17 78 39 80 49 1 10 3 28 5 40 2 18 93 71 133 76 6 1 33 -18 58 -42z m-3484 -36 c2 -30 -10 -40 -46 -40 -57 0 -60 6 -18 49 42 42 60 39 64 -9z m386 19 c44 -23 104 -127 85 -146 -7 -7 -3 -13 10 -13 49 0 52 -144 4 -234 -43 -82 -49 -85 -119 -74 -46 8 -101 0 -150 -20 -98 -41 -106 -31 -52 57 57 92 120 137 153 109 16 -13 29 -13 37 0 6 10 2 25 -10 33 -14 8 -7 24 20 42 22 16 41 47 41 68 0 55 -40 49 -41 -6 -2 -43 -3 -43 -18 -5 -15 36 -20 32 -48 -33 -61 -140 -117 -89 -97 88 7 56 52 75 72 30 6 -14 6 -4 0 21 -8 32 0 56 25 75 45 34 41 34 88 8z m1779 10 c0 -52 -95 -129 -159 -129 -149 1 -224 49 -82 53 43 1 108 20 145 43 68 42 96 52 96 33z m208 -116 c8 -42 1 -95 -19 -143 l-32 -77 49 33 c55 36 88 8 122 -101 12 -36 22 -41 51 -25 31 16 42 8 68 -55 17 -41 31 -63 32 -49 2 56 41 -2 41 -62 0 -79 -77 -269 -115 -283 -27 -10 -103 59 -104 95 -1 24 -47 63 -81 70 -60 11 -124 107 -113 166 7 31 4 61 -5 67 -21 13 -2 199 21 208 9 3 12 15 6 25 -6 10 -1 18 12 18 13 0 19 12 13 28 -6 15 0 38 13 51 18 18 15 20 -12 10 -40 -15 -44 -2 -14 52 30 57 53 48 67 -28z m99 -46 c7 -52 9 -98 3 -104 -5 -5 -10 6 -10 25 0 19 -14 49 -31 66 -22 22 -25 37 -9 56 16 19 15 29 -4 36 -18 8 -16 11 6 12 24 2 36 -23 45 -91z m-2418 41 c18 -18 50 -66 71 -108 l38 -75 -49 -137 c-88 -244 -210 -245 -171 -3 1 8 -7 15 -18 15 -20 0 -54 154 -41 190 3 11 8 37 10 57 2 21 26 50 52 65 63 34 70 34 108 -4z m3548 -5 c18 -12 1 -21 -53 -30 -81 -13 -144 -76 -144 -145 0 -30 4 -30 49 0 69 45 77 40 38 -19 -22 -34 -46 -49 -70 -42 -26 6 -37 -2 -37 -28 0 -52 -33 -66 -46 -20 -5 22 2 43 18 49 15 6 28 27 28 46 -1 25 -5 29 -16 11 -12 -18 -25 -14 -50 16 -48 56 -8 113 90 130 42 7 81 21 87 31 14 23 70 23 106 1z m-2169 -40 c6 -10 -7 -39 -30 -65 -34 -39 -43 -42 -59 -17 -37 58 -21 82 65 97 7 1 18 -6 24 -15z m2267 -28 c19 -23 47 -164 30 -147 -5 5 -40 -27 -79 -70 -79 -87 -115 -97 -146 -38 -17 32 -15 40 9 40 17 0 30 7 29 15 -8 45 5 68 32 58 33 -13 42 18 10 37 -11 7 -20 22 -20 34 0 12 13 10 33 -6 29 -25 31 -23 18 18 -10 32 -6 43 12 40 15 -4 25 5 22 19 -3 14 3 25 13 25 9 0 26 -11 37 -25z m-2133 -71 c18 -34 38 -57 45 -50 59 59 127 -233 97 -420 -49 -312 -156 -427 -199 -213 -19 99 -19 100 21 65 38 -35 39 -35 15 4 -26 44 1 150 39 150 27 0 26 74 -1 91 -12 7 -20 1 -18 -14 8 -61 -1 -85 -23 -63 -12 12 -22 54 -22 94 0 40 -7 72 -16 72 -38 0 -66 241 -37 317 22 59 58 48 99 -33z m408 -104 c-6 -9 -1 -40 9 -68 16 -41 14 -52 -9 -52 -17 0 -30 -7 -30 -17 0 -9 -13 -16 -28 -16 -40 0 -80 93 -53 120 12 12 21 53 22 92 l0 71 50 -56 c27 -31 45 -64 39 -74z m1284 40 c-3 -44 -9 -54 -24 -35 -11 14 -33 25 -48 25 -49 0 -47 46 2 56 25 5 52 10 60 11 8 2 13 -24 10 -57z m-3365 -153 c7 -35 5 -68 -6 -75 -10 -6 -18 8 -17 33 1 25 -5 68 -14 95 -11 34 -10 43 4 30 11 -11 26 -48 33 -83z m3620 -31 c36 -5 -78 -96 -120 -96 -18 0 -8 98 11 110 11 7 21 32 22 56 2 40 4 39 24 -10 12 -30 39 -57 63 -60z m279 37 c-7 -24 -25 -57 -40 -75 -16 -17 -22 -38 -14 -46 8 -8 0 -9 -17 -2 -22 8 -33 38 -33 92 -1 43 5 75 13 70 8 -5 28 -2 43 8 41 25 64 3 48 -47z m-3428 -103 c-26 -27 -59 -50 -73 -50 -15 0 -27 -14 -27 -31 0 -17 9 -26 20 -19 11 7 20 4 20 -6 0 -11 -22 -19 -50 -19 -27 0 -50 2 -50 5 0 15 59 142 72 155 8 8 42 15 75 15 l60 0 -47 -50z m-152 -35 c-8 -25 -16 -65 -17 -88 0 -24 -21 -65 -46 -92 -25 -26 -45 -62 -45 -80 0 -18 -9 -38 -20 -45 -12 -7 -19 -4 -15 7 8 30 -21 27 -76 -9 -74 -49 -80 -21 -11 50 52 53 58 70 41 113 -29 77 -25 86 49 117 37 15 73 38 81 50 27 44 75 25 59 -23z m1227 -129 c-10 -13 -13 -34 -6 -45 8 -12 -1 -21 -18 -21 -19 0 -37 24 -44 60 -13 63 -6 93 18 85 8 -3 15 6 15 20 0 14 12 3 27 -25 17 -32 20 -59 8 -74z m2331 39 c-7 -19 -20 -45 -29 -57 -9 -12 -11 -28 -3 -35 7 -7 -7 -13 -31 -13 -44 0 -60 47 -23 70 12 7 16 20 10 30 -9 15 19 29 74 38 8 1 9 -14 2 -33z m-1071 -118 c-57 -30 -60 -26 -30 39 23 49 27 51 50 20 22 -29 19 -38 -20 -59z m-260 -25 c60 -24 89 -62 47 -62 -10 0 -33 -5 -50 -12 -19 -7 -32 -2 -32 13 0 14 -16 44 -35 65 -19 22 -26 36 -15 31 11 -5 49 -21 85 -35z m-1042 -136 c54 -47 48 -86 -12 -86 -42 0 -62 56 -58 170 3 67 4 70 11 20 5 -33 32 -80 59 -104z m1358 32 l0 -81 -36 44 c-38 47 -36 93 3 84 12 -3 22 4 22 15 0 11 2 20 5 20 3 0 6 -37 6 -82z m-71 -38 c0 -11 18 -38 40 -60 50 -50 58 -140 9 -99 -62 52 -111 179 -69 179 11 0 20 -9 20 -20z m-2718 -75 l1 -55 28 60 c30 66 36 49 17 -47 -7 -35 -24 -63 -39 -63 -28 0 -75 115 -58 142 23 36 49 16 51 -37z m1648 -64 c6 -11 -11 -26 -39 -33 -40 -10 -51 -25 -51 -70 0 -61 -17 -73 -54 -36 -60 60 -128 -189 -75 -271 22 -33 24 -51 9 -61 -33 -21 -81 5 -69 37 6 15 -2 33 -19 39 -32 13 -27 191 6 213 25 17 48 127 23 111 -12 -7 -21 -3 -21 8 0 29 78 67 111 54 15 -5 33 -2 40 9 15 25 123 25 139 0z m832 -6 c2 -14 1 -41 -1 -60 -2 -19 6 -35 18 -35 12 0 20 -37 19 -85 -2 -69 -5 -76 -16 -35 -14 47 -16 45 -29 -24 -17 -86 -43 -109 -84 -75 -38 31 -37 61 1 46 25 -9 30 10 30 109 0 67 5 135 12 152 15 38 47 42 50 7z m179 -37 c30 -55 6 -75 -31 -27 -34 46 -38 69 -11 69 11 0 30 -19 42 -42z m-81 -3 c0 -14 23 -51 50 -83 28 -32 50 -70 50 -85 0 -15 9 -27 20 -27 11 0 20 -10 20 -21 0 -12 -10 -15 -22 -8 -15 10 -18 -1 -9 -33 13 -47 12 -47 -19 -8 -17 22 -23 42 -12 46 13 4 12 25 -3 56 -12 28 -34 45 -49 39 -16 -6 -26 5 -26 27 0 20 -13 48 -30 62 -16 14 -30 33 -30 42 0 10 14 18 30 18 17 0 30 -11 30 -25z m-2400 -34 c21 -14 23 -26 8 -41 -15 -15 -32 -9 -58 20 -39 44 -8 57 50 21z m2585 -49 c21 -15 35 -53 35 -91 0 -96 48 -65 62 41 10 72 13 77 17 28 12 -137 -41 -290 -87 -252 -36 30 -53 118 -24 128 14 5 10 22 -11 46 -72 84 -66 157 8 100z m-1192 -78 c7 -8 -1 -14 -19 -14 -21 0 -29 -11 -21 -30 6 -17 1 -43 -12 -59 -14 -16 -19 -47 -12 -68 7 -22 3 -46 -10 -53 -30 -19 -39 -6 -52 77 -19 112 64 208 126 147z m1069 -282 c-9 -63 -31 -129 -50 -148 -32 -32 -33 -31 -12 25 22 59 22 59 -19 22 -50 -45 -52 -26 -19 129 24 115 37 116 60 5 14 -61 15 -53 9 43 -8 104 -6 113 19 78 20 -29 24 -68 12 -154z m-1470 119 c20 -42 16 -55 -32 -101 -47 -45 -57 -48 -67 -20 -23 60 20 169 67 170 6 0 20 -22 32 -49z m-141 -198 c-8 -46 -14 -99 -14 -118 1 -20 -8 -31 -18 -24 -11 6 -19 2 -19 -9 0 -62 41 -27 79 66 53 131 130 211 166 175 18 -18 18 -33 2 -58 -16 -27 -14 -40 10 -58 29 -21 29 -29 -1 -90 -31 -62 -35 -64 -47 -24 -13 45 -107 78 -111 39 -2 -12 -5 -103 -8 -202 -6 -232 -25 -326 -72 -351 -21 -11 -38 -36 -39 -55 0 -19 -19 1 -42 44 -31 59 -39 103 -32 175 5 54 1 97 -8 97 -9 0 -17 14 -17 30 0 17 9 30 19 30 11 0 15 13 8 30 -6 16 7 65 30 108 22 43 36 82 30 88 -5 5 5 43 22 84 17 41 31 99 32 127 0 48 2 49 22 16 13 -22 16 -71 8 -120z m1701 31 c-6 -49 -23 -103 -36 -119 -22 -27 4 -64 47 -65 16 0 57 114 57 161 0 19 13 45 30 59 34 28 22 -91 -13 -129 -9 -10 -17 -35 -17 -55 0 -31 -93 -113 -107 -94 -64 83 -70 105 -43 158 23 45 41 112 48 186 1 9 12 10 24 3 15 -9 18 -47 10 -105z m-1204 -10 c-36 -75 -88 -113 -88 -65 0 15 22 54 49 87 28 32 47 63 44 69 -4 5 1 3 11 -5 10 -8 3 -45 -16 -86z m-112 -4 c-12 -27 -35 -50 -50 -50 -16 0 -23 -9 -16 -20 7 -11 -2 -20 -19 -20 -22 0 -29 -13 -22 -45 31 -143 1 -368 -43 -324 -33 33 -54 39 -36 9 7 -11 4 -20 -6 -20 -11 0 -25 -29 -32 -65 -16 -82 -94 -231 -127 -244 -41 -16 -28 47 15 74 27 17 40 46 40 92 0 57 -5 64 -29 44 -20 -17 -17 0 10 56 21 44 48 86 59 93 11 7 16 20 11 28 -5 9 8 51 30 93 26 52 39 65 39 38 1 -32 4 -34 20 -9 11 17 20 91 20 166 0 124 3 134 31 105 42 -41 62 -39 75 9 6 22 20 40 32 40 15 0 14 -15 -2 -50z m1049 -235 c-13 -107 -36 -93 -32 20 l4 95 -16 -80 c-8 -44 -17 -64 -18 -44 -2 22 -12 31 -26 22 -13 -8 -18 -5 -11 6 7 11 22 46 34 76 31 81 78 11 65 -95z m175 25 c21 -40 -32 -120 -80 -120 -26 0 -26 72 1 121 26 50 52 49 79 -1z m-1810 -359 c-16 -73 -51 -62 -49 15 2 48 4 50 19 14 16 -37 17 -37 19 8 0 27 6 43 13 37 6 -7 6 -40 -2 -74z m1960 59 c7 -11 2 -20 -10 -20 -12 0 -65 -41 -118 -90 -88 -82 -98 -87 -108 -50 -8 30 -1 40 29 40 22 0 34 8 28 18 -6 10 0 24 14 30 14 7 -18 8 -70 3 -52 -6 -95 -6 -95 -1 0 20 112 62 145 55 19 -4 35 2 35 14 0 27 133 28 150 1z m179 -79 c6 -10 -7 -24 -29 -31 -22 -7 -40 -21 -40 -31 0 -24 -97 -22 -150 3 -35 16 -34 17 10 9 28 -5 64 -1 80 10 17 10 23 19 14 19 -9 0 -11 9 -4 20 16 25 104 26 119 1z m-2074 -126 c13 -36 25 -74 25 -85 1 -11 16 -42 34 -68 29 -45 29 -51 -1 -72 -18 -13 -27 -30 -19 -37 7 -7 -9 -12 -36 -12 -70 2 -216 34 -165 37 53 3 84 40 75 92 -7 48 31 210 50 210 8 0 25 -29 37 -65z m2133 12 c18 -45 3 -54 -62 -38 -54 14 -54 15 -17 43 50 36 64 35 79 -5z m-2168 -348 c0 -12 9 -16 20 -9 11 7 20 3 20 -8 0 -11 13 -16 28 -10 32 12 172 -103 172 -142 0 -62 -123 -49 -178 18 -15 18 -36 32 -46 32 -11 0 -36 20 -57 45 -21 25 -38 34 -38 20 -1 -14 8 -25 19 -25 11 0 20 -10 20 -23 0 -14 -15 -10 -37 10 -20 18 -47 33 -60 33 -31 0 -30 54 2 67 46 18 135 13 135 -8z m151 -280 c53 -49 50 -69 -11 -85 -22 -6 -36 -3 -30 6 5 8 -15 20 -45 25 -30 5 -72 17 -93 26 -26 10 -34 9 -26 -5 8 -12 -9 -26 -40 -32 l-54 -10 47 35 c26 20 41 46 33 58 -20 31 -49 29 -85 -7 -37 -37 -67 -39 -67 -3 0 72 292 66 371 -8z m-52 -147 c16 -20 17 -32 1 -42 -26 -16 -84 27 -69 52 16 26 41 22 68 -10z"/>
    <path d="M3025 4607 c-15 -6 -24 -44 -23 -94 l2 -83 20 70 c11 39 29 81 40 95 21 25 6 30 -39 12z"/>
    <path d="M1625 4145 c-26 -9 -36 -105 -10 -105 8 0 16 -23 18 -50 1 -28 -5 -50 -14 -50 -10 0 -12 -14 -6 -32 22 -55 69 17 71 107 1 91 -22 143 -59 130z"/>
    <path d="M2900 3356 c0 -15 13 -46 29 -67 29 -38 30 -38 30 4 1 23 -12 53 -29 67 -24 20 -30 19 -30 -4z"/>
    <path d="M3681 3096 c-10 -25 -19 -34 -20 -19 -1 35 -51 18 -52 -19 -2 -39 52 -181 82 -218 14 -16 29 -48 35 -70 7 -30 10 -26 12 16 1 31 12 75 23 97 18 33 15 42 -20 51 -22 6 -41 19 -41 30 0 10 9 13 21 5 13 -8 19 17 16 71 -6 97 -30 121 -56 56z"/>
    <path d="M3480 3060 c18 -33 16 -37 -15 -27 -28 10 -26 4 9 -30 58 -57 67 -54 62 16 -2 32 -11 54 -20 48 -9 -5 -16 0 -16 12 0 11 -9 21 -21 21 -14 0 -14 -13 1 -40z"/>
    <path d="M2062 1560 c1 -107 24 -179 46 -144 17 28 0 154 -28 201 -14 24 -19 10 -18 -57z"/>
  </g>
</svg>