<?xml version="1.0" encoding="utf-8"?>
<svg width="426px" height="600" xmlns="http://www.w3.org/2000/svg" xmlns:xlink="http://www.w3.org/1999/xlink" xmlns:bx="https://boxy-svg.com">
  <defs>
    <pattern x="0" y="0" width="25" height="25" patternUnits="userSpaceOnUse" viewBox="0 0 100 100" id="pattern-0">
      <rect x="0" y="0" width="50" height="100" style="fill: black;"/>
    </pattern>
    <pattern id="pattern-0-0" patternTransform="matrix(1, 0, 0, 1, 48.970999, 36.454998)" xlink:href="#pattern-0"/>
    <pattern id="pattern-0-1" patternTransform="matrix(1, 0, 0, 1, 32.499998, 32.500911)" xlink:href="#pattern-0"/>
  </defs>
  <rect width="426" height="600" style="stroke: rgb(0, 0, 0); fill: rgb(229, 208, 163);"/>
  <g transform="matrix(0.056545, 0, 0, -0.056545, 27.989479, 399.314423)" fill="#000000" stroke="none">
    <path d="M1534 5728 c-30 -150 -49 -280 -43 -290 6 -10 2 -18 -10 -18 -11 0 -21 -27 -21 -60 0 -66 -75 -615 -90 -655 -6 -16 -50 -25 -126 -25 -180 0 -424 -24 -414 -40 5 -9 111 -12 235 -9 l225 7 -220 -30 c-121 -16 -256 -31 -300 -34 -53 -3 -78 -13 -75 -30 4 -19 -4 -21 -33 -5 -49 26 -82 27 -42 1 38 -25 8 -25 -75 -1 -36 10 -65 14 -65 10 0 -20 163 -109 181 -99 10 7 35 3 54 -8 19 -12 24 -21 10 -21 -14 -1 -25 -20 -25 -42 0 -32 -11 -40 -45 -35 -32 4 -45 19 -43 51 0 25 -7 45 -17 45 -57 0 -157 69 -149 102 17 64 -38 19 -64 -53 -36 -100 10 -262 55 -195 19 28 127 18 373 -33 121 -26 280 -47 353 -49 73 -1 129 -9 124 -17 -5 -8 -2 -15 7 -16 65 -2 618 -40 706 -48 78 -7 95 -5 60 7 -67 24 131 26 260 3 85 -15 81 -16 -58 -18 -211 -4 -169 -18 99 -34 126 -8 234 -18 239 -24 16 -16 -1089 35 -1458 67 -127 11 -165 9 -154 -9 8 -13 25 -18 36 -10 13 8 16 4 9 -9 -14 -22 -52 -20 -118 6 -24 10 -35 5 -35 -16 0 -27 46 -48 146 -67 21 -4 31 2 24 13 -15 24 24 24 80 0 22 -9 28 -18 13 -19 -22 -1 -23 -7 -4 -29 31 -38 -47 -53 -117 -23 -36 15 -51 14 -57 -4 -10 -31 -85 -33 -85 -3 0 13 -21 19 -50 13 -28 -5 -56 -2 -62 8 -6 9 -1 17 11 17 11 0 21 13 21 29 0 17 -12 25 -27 19 -15 -6 -55 17 -89 51 -63 63 -119 76 -185 40 -39 -20 -39 -39 -6 -162 10 -38 69 -68 62 -31 -3 13 6 22 20 19 14 -3 25 6 26 20 0 14 18 4 39 -21 29 -36 47 -42 74 -27 59 31 89 -19 43 -75 -20 -26 -37 -35 -37 -22 0 13 -13 19 -30 13 -18 -7 -38 5 -52 31 -21 40 -24 40 -43 7 -15 -28 -8 -46 36 -83 56 -49 102 -65 79 -28 -7 11 1 15 17 8 19 -7 35 6 44 36 24 76 77 133 100 108 27 -29 26 -115 -1 -105 -60 23 -93 -42 -42 -82 28 -22 44 -47 36 -57 -8 -9 2 -4 22 11 20 15 27 33 17 39 -32 20 28 83 89 94 31 6 68 20 82 31 14 12 39 16 55 10 18 -7 67 21 122 68 95 82 158 109 93 39 -34 -36 -70 -276 -89 -586 -3 -48 -11 -56 -49 -48 -30 5 -46 -1 -46 -19 0 -16 -13 -33 -30 -40 -43 -16 -37 -62 10 -87 42 -23 80 -12 80 22 0 10 -22 13 -50 6 -31 -8 -50 -4 -50 10 0 12 14 22 30 22 17 0 30 14 30 30 0 17 17 30 39 30 34 0 38 -15 39 -143 0 -138 33 -414 57 -477 30 -80 -9 -154 -68 -132 -30 12 -30 16 1 49 19 21 29 57 24 85 -5 26 -10 55 -11 63 0 8 -27 15 -59 15 -66 0 -94 61 -56 121 26 43 4 77 -29 44 -28 -28 -77 -10 -77 29 0 21 13 27 40 20 24 -6 47 2 58 21 11 19 33 27 59 20 51 -13 54 1 14 58 -16 23 -23 48 -16 55 8 8 -2 8 -21 1 -19 -7 -34 -21 -34 -32 0 -10 -22 -12 -50 -5 -41 10 -50 5 -50 -30 0 -61 -23 -52 -98 38 -36 44 -77 80 -92 80 -14 0 -40 22 -58 49 -40 61 -41 84 -4 52 19 -15 33 -16 41 -3 7 11 -11 35 -38 53 -64 42 -66 73 -3 58 43 -11 47 -7 39 54 -11 96 -44 118 -60 39 -9 -45 -19 -58 -34 -43 -33 33 -43 26 -46 -32 -2 -40 2 -46 17 -25 14 20 16 12 7 -29 -9 -39 -6 -52 10 -43 12 8 20 2 18 -13 -9 -65 2 -119 22 -106 12 7 27 -6 33 -30 6 -25 22 -39 37 -33 14 5 31 -4 37 -21 23 -58 12 -68 -39 -34 l-51 33 35 -73 c19 -40 42 -73 52 -73 9 0 12 -9 5 -20 -23 -37 11 -64 45 -36 27 22 29 20 16 -19 -12 -40 81 -247 129 -285 7 -5 41 -52 76 -103 35 -52 96 -121 136 -154 71 -58 71 -60 30 -82 -139 -74 -202 -456 -104 -631 24 -44 74 -133 110 -197 35 -65 87 -134 113 -154 44 -33 46 -42 22 -81 -28 -46 2 -90 44 -64 11 7 15 -11 9 -41 -7 -36 -2 -53 17 -53 47 0 29 -39 -35 -78 -55 -34 -100 -88 -170 -207 -43 -71 -135 -155 -172 -155 -23 0 -36 -15 -36 -40 0 -22 -12 -40 -26 -40 -14 0 -66 -40 -115 -88 -48 -49 -94 -85 -101 -81 -8 5 -25 -5 -38 -21 -38 -46 -103 -34 -180 32 l-70 60 69 57 c38 31 82 52 97 46 29 -11 63 26 64 71 0 27 -116 16 -181 -17 -42 -22 -78 -190 -62 -289 15 -90 147 -133 187 -61 10 17 36 31 59 31 22 0 65 16 94 36 29 20 85 52 125 70 61 28 232 200 312 313 14 20 61 51 105 68 59 24 84 47 93 88 18 73 45 105 90 105 24 0 33 -10 25 -30 -6 -16 -19 -25 -28 -19 -9 5 -26 -7 -38 -28 -21 -41 21 -77 61 -52 9 6 12 -3 6 -20 -7 -17 -30 -31 -52 -31 -49 0 -196 -80 -196 -106 0 -10 23 -13 50 -6 41 11 50 6 50 -29 0 -23 8 -36 18 -30 36 22 178 -75 221 -152 24 -43 53 -72 63 -66 32 20 78 -32 80 -88 0 -29 6 -42 11 -28 13 31 80 33 98 3 8 -12 4 -29 -9 -37 -16 -10 -17 -29 -4 -63 11 -26 20 -37 21 -23 2 50 58 23 71 -34 20 -94 188 -168 217 -96 8 20 10 20 11 0 1 -14 16 -25 32 -25 25 0 26 7 7 38 -13 21 -36 33 -51 28 -14 -6 -26 0 -26 12 0 12 16 22 35 22 30 1 31 3 5 20 -16 10 -31 44 -33 74 -1 31 -4 56 -7 56 -18 0 -4 139 15 145 14 5 25 -6 25 -23 0 -18 9 -32 20 -32 11 0 20 -13 20 -29 0 -15 15 -43 33 -61 28 -28 29 -36 6 -51 -17 -10 -34 -8 -42 6 -8 13 -22 17 -30 9 -48 -49 182 -214 298 -214 l117 0 -66 85 c-36 47 -112 139 -168 205 -205 240 -260 328 -500 802 -250 493 -312 650 -349 885 -28 179 -35 199 -72 196 -41 -4 -100 79 -118 164 -15 75 21 82 60 12 65 -117 67 -115 56 56 -5 92 0 257 12 366 12 109 23 321 25 469 3 370 24 485 116 630 l76 118 278 6 c638 14 1231 -22 1564 -96 147 -33 238 -40 441 -35 l255 7 111 -200 c132 -239 148 -280 176 -454 12 -74 45 -214 73 -310 88 -301 115 -812 58 -1089 -43 -210 -98 -408 -122 -440 -11 -15 -42 -70 -69 -123 -27 -53 -63 -111 -81 -130 -59 -62 -178 -165 -178 -154 0 12 -181 -106 -200 -130 -5 -7 -55 -43 -110 -81 -55 -38 -103 -76 -107 -84 -3 -8 -22 -15 -42 -15 -20 0 -60 -19 -89 -42 -60 -48 -85 -41 -56 15 11 20 36 73 57 117 20 44 44 83 52 87 29 13 15 42 -15 30 -16 -6 -30 -20 -30 -30 0 -141 -426 -498 -594 -500 -499 -4 -742 98 -832 349 -5 13 -15 18 -24 10 -19 -18 28 -91 124 -198 62 -69 239 -171 356 -205 74 -22 448 -32 461 -12 6 10 31 19 55 19 24 0 76 20 114 44 72 45 85 49 195 65 69 10 152 57 134 75 -6 6 15 21 47 32 160 55 659 499 860 763 94 125 100 127 34 11 -31 -55 -100 -149 -153 -208 -52 -60 -91 -115 -86 -124 6 -9 -12 -31 -40 -49 -28 -18 -46 -41 -41 -50 6 -9 0 -23 -13 -31 -14 -9 -18 -6 -9 9 42 68 -12 4 -108 -129 -60 -83 -177 -229 -260 -325 -82 -95 -189 -221 -237 -278 l-87 -105 141 0 c123 0 145 6 174 45 l33 45 -13 -45 c-35 -119 103 -48 339 175 193 182 441 339 380 240 -7 -11 -4 -20 7 -20 10 0 24 -14 31 -31 6 -17 3 -26 -6 -20 -10 6 -39 3 -65 -8 l-47 -18 45 -2 c70 -2 108 -81 108 -229 0 -127 2 -132 48 -132 27 0 49 11 49 25 1 17 7 15 20 -5 17 -27 19 -27 20 0 0 18 7 22 15 10 26 -35 69 -33 95 4 34 46 16 76 -25 42 -28 -23 -29 -21 -8 19 14 25 31 45 39 45 8 0 27 29 43 64 15 36 51 86 80 112 28 26 51 57 51 69 0 40 69 68 89 36 24 -38 85 13 121 99 13 31 37 62 52 68 22 8 25 3 11 -23 -10 -19 -18 -65 -19 -102 l-1 -68 48 46 c55 51 65 89 19 72 -18 -7 -30 0 -30 17 0 16 23 35 50 42 28 7 50 24 50 39 0 14 17 32 37 38 20 6 47 34 60 61 29 65 46 63 101 -11 24 -34 66 -71 92 -83 28 -12 51 -43 56 -74 5 -33 9 -21 11 33 2 47 13 85 24 85 65 0 4 112 -86 160 -84 44 -95 58 -95 116 0 36 -14 93 -31 126 l-31 61 96 -14 c53 -8 112 -22 131 -32 25 -13 35 -11 35 10 0 34 -78 67 -203 84 l-92 13 -9 113 c-4 63 -28 155 -52 205 -24 50 -44 111 -44 136 0 72 -62 268 -100 317 -20 24 -41 75 -48 113 -7 37 -26 78 -41 91 -24 20 -15 41 51 127 224 291 443 1003 387 1257 -7 35 -4 57 9 57 12 0 22 14 22 30 0 22 -13 27 -46 19 -30 -7 -64 3 -98 30 -29 22 -63 41 -75 41 -13 0 -18 9 -12 19 13 21 -50 62 -93 60 -14 0 1 -14 34 -29 l60 -29 -80 11 c-44 6 -161 28 -260 50 -209 45 -574 89 -1000 120 -165 11 -421 33 -570 49 l-270 27 240 -9 c132 -5 263 -13 290 -18 28 -4 199 -13 380 -20 182 -6 401 -17 487 -24 122 -10 162 -6 177 15 15 22 21 22 29 3 13 -32 71 -32 106 0 22 20 25 18 14 -12 -11 -32 -3 -35 76 -31 50 3 96 0 104 -8 7 -8 23 -14 34 -14 11 0 3 13 -18 28 -21 16 -33 35 -26 42 17 17 98 -52 85 -74 -6 -9 17 -16 51 -16 46 0 61 9 61 38 0 20 14 48 30 62 38 31 38 68 2 99 -22 17 -32 17 -43 -1 -10 -16 -7 -19 11 -8 17 11 21 8 12 -7 -22 -36 -66 -27 -77 16 -8 29 -22 36 -58 27 -45 -11 -45 -9 -13 25 30 31 39 32 70 7 33 -25 34 -25 9 7 -16 19 -24 61 -19 95 10 69 -17 83 -30 15 -6 -32 -9 -26 -11 21 -2 40 5 61 17 54 30 -18 24 15 -11 66 -18 24 -22 44 -10 44 11 0 21 10 21 21 0 12 -9 16 -20 9 -11 -7 -20 7 -20 30 0 23 9 37 20 30 11 -7 20 -3 20 9 0 11 -9 21 -20 21 -11 0 -20 14 -20 31 0 17 9 26 20 19 13 -8 21 162 23 494 1 278 5 557 9 620 3 63 -2 120 -12 126 -10 6 -13 25 -7 41 25 65 -11 129 -73 129 -61 0 -75 -17 -41 -51 12 -12 12 -31 1 -48 -14 -24 -22 -19 -37 22 -40 103 -96 85 -86 -28 1 -19 -7 -35 -18 -35 -12 0 -16 8 -10 19 6 10 3 24 -8 30 -10 7 -14 25 -8 41 7 19 -7 33 -42 42 -56 14 -95 -5 -58 -28 13 -8 56 -71 97 -140 40 -70 86 -131 101 -137 41 -16 149 -225 148 -286 -2 -56 -14 -39 -58 84 -13 37 -30 50 -50 43 -17 -7 -25 -22 -18 -33 7 -12 4 -15 -9 -8 -26 17 -56 -27 -30 -44 10 -7 25 -31 33 -53 12 -38 12 -38 -15 -4 -16 20 -33 34 -38 30 -11 -6 -68 67 -109 139 -14 24 -25 67 -25 95 0 27 -10 50 -21 50 -12 0 -15 10 -8 21 7 12 28 16 46 9 18 -6 2 15 -37 48 -38 33 -81 61 -94 61 -14 1 -20 14 -14 29 6 15 2 34 -10 41 -11 7 -15 25 -9 41 14 37 -77 61 -126 33 -33 -18 -31 -21 18 -34 51 -12 80 -69 35 -69 -11 0 -24 0 -30 0 -5 0 -8 4 -5 8 29 49 -103 112 -233 112 l-142 0 165 -105 c90 -58 164 -118 165 -135 0 -25 4 -25 18 -2 14 22 32 17 91 -28 80 -62 119 -120 101 -150 -7 -11 -3 -20 9 -20 11 0 21 9 21 20 0 11 10 20 21 20 13 0 16 -17 9 -41 -9 -27 -5 -38 13 -35 15 4 26 -10 24 -29 -1 -19 10 -35 25 -35 16 0 28 -19 28 -41 0 -25 9 -36 22 -28 15 10 18 0 9 -28 -10 -32 -6 -40 15 -32 16 6 34 -3 41 -20 6 -17 3 -31 -8 -31 -40 0 -17 -40 41 -70 34 -18 59 -46 58 -66 -2 -31 -3 -31 -12 1 -6 25 -23 33 -59 26 -57 -10 -127 41 -127 92 0 19 -9 40 -19 46 -11 7 -15 24 -9 39 5 14 -23 52 -64 84 -41 32 -98 81 -126 110 -29 29 -72 63 -96 75 -26 14 -40 35 -33 52 16 44 -39 112 -73 91 -18 -11 -39 -9 -56 5 -22 18 -26 15 -21 -16 8 -43 58 -91 81 -76 8 5 28 -22 43 -60 16 -37 61 -92 99 -122 83 -62 146 -151 121 -169 -34 -24 -28 -95 12 -131 39 -35 39 -35 16 26 -13 34 -17 68 -9 76 22 21 74 -58 63 -95 -12 -38 8 -98 33 -98 9 0 12 13 6 28 -12 30 23 33 67 5 14 -8 26 -8 26 1 1 9 9 -2 17 -24 9 -22 28 -40 43 -40 14 0 38 -30 53 -67 26 -63 26 -66 -13 -53 -42 13 -58 -17 -21 -40 11 -7 30 -31 42 -54 35 -66 -18 -23 -64 51 -45 75 -48 65 -11 -39 49 -141 59 -204 25 -161 -16 20 -39 31 -50 24 -11 -7 -29 17 -39 53 -11 36 -20 51 -21 33 -3 -44 -56 -62 -70 -24 -7 16 -20 24 -30 18 -10 -6 -16 11 -13 39 5 43 -1 48 -42 38 -29 -8 -47 -4 -47 11 0 13 -10 17 -22 10 -15 -10 -15 -1 1 29 13 24 14 42 3 42 -10 0 -23 -11 -28 -25 -7 -17 -19 -13 -40 15 -17 22 -26 47 -20 57 6 9 17 8 24 -3 7 -12 21 -10 37 7 15 17 17 31 5 39 -11 7 -20 1 -20 -14 -1 -21 -4 -21 -18 1 -9 14 -24 26 -34 26 -10 0 -15 13 -12 28 3 16 -6 29 -20 30 -27 1 -124 137 -109 153 23 23 248 -219 273 -293 21 -65 80 -116 80 -70 0 34 -117 243 -165 294 -30 33 -55 71 -55 86 0 15 -9 32 -20 39 -11 7 -14 -1 -8 -19 17 -42 -25 -40 -49 3 -14 24 -11 40 10 55 25 19 25 27 -1 61 -16 22 -35 33 -43 25 -8 -8 -3 -28 11 -45 54 -65 -7 -26 -67 43 -119 137 -157 169 -215 180 -59 12 -101 47 -56 47 38 0 178 -66 178 -84 0 -9 9 -16 20 -16 11 0 58 -28 105 -61 54 -40 87 -53 92 -37 5 13 -6 31 -23 41 -17 10 -57 43 -89 75 -31 31 -77 63 -101 71 -44 14 -164 127 -164 155 0 34 86 2 102 -38 10 -28 28 -41 46 -34 17 6 32 -4 38 -26 6 -20 9 1 7 47 -2 46 -9 80 -16 75 -7 -4 -24 6 -37 22 -13 16 -33 25 -43 18 -10 -6 -45 12 -79 41 -59 49 -118 67 -118 36 0 -8 -56 -12 -125 -8 -69 3 -201 10 -295 14 l-170 8 90 -44 c50 -25 93 -52 97 -60 3 -8 19 -15 33 -15 15 0 34 -11 42 -23 10 -16 4 -20 -15 -12 -17 6 -30 0 -30 -14 0 -14 14 -22 32 -17 50 13 155 -84 110 -102 -19 -7 -49 -1 -67 14 -42 37 -102 57 -102 36 0 -21 -76 -43 -107 -30 -29 11 -77 111 -60 127 7 6 16 0 21 -14 5 -14 22 -25 38 -25 15 0 28 -13 28 -30 0 -40 20 -38 51 4 34 47 14 86 -44 86 -28 0 -44 9 -37 20 7 11 -2 20 -20 20 -17 0 -67 18 -110 40 -56 29 -117 40 -214 39 l-136 -1 71 -38 c90 -47 139 -100 93 -100 -18 0 -37 9 -44 20 -7 12 -21 16 -30 10 -10 -6 -27 5 -38 25 -12 19 -21 28 -21 20 -1 -8 -35 3 -76 25 -77 41 -258 57 -235 20 7 -11 3 -20 -9 -20 -11 0 -21 7 -21 16 0 8 -19 17 -43 19 l-43 3 44 -31 c24 -17 57 -25 74 -19 17 7 51 -10 80 -38 27 -28 56 -50 64 -50 8 0 45 -28 82 -61 46 -40 74 -53 83 -37 10 16 16 16 22 -2 5 -14 57 -44 116 -68 83 -33 109 -54 115 -92 4 -26 18 -55 31 -63 13 -8 18 -21 11 -28 -7 -7 -31 6 -53 28 -22 22 -34 45 -28 51 6 7 -4 12 -23 12 -19 0 -29 8 -23 19 15 24 -5 35 -106 58 -78 18 -84 16 -72 -19 6 -21 2 -38 -10 -38 -11 0 -21 7 -21 16 0 66 -265 101 -302 40 -9 -13 -18 -11 -26 7 -9 20 -15 21 -23 3 -12 -24 -59 -15 -102 18 -16 12 -18 37 -6 80 10 34 12 56 6 49 -7 -6 -29 -3 -50 8 -45 24 -48 7 -7 -34 41 -41 38 -67 -10 -67 -84 0 -34 -52 85 -88 69 -22 131 -48 138 -59 8 -11 50 -18 95 -16 59 2 82 -5 82 -26 0 -16 11 -35 23 -43 16 -10 20 -4 11 19 -15 38 35 47 58 10 9 -14 5 -18 -9 -9 -13 8 -23 2 -23 -15 0 -45 -92 -58 -162 -22 -33 17 -71 27 -84 22 -26 -9 107 -73 152 -73 15 0 27 -12 27 -27 0 -14 -12 -26 -26 -26 -15 0 -27 7 -27 16 0 10 -14 17 -32 17 -17 0 -28 -11 -23 -25 10 -30 -42 -73 -90 -74 -19 -1 -35 12 -35 28 0 16 -11 35 -23 43 -16 10 -20 4 -11 -19 15 -38 -2 -93 -28 -93 -10 0 -19 16 -19 35 -2 29 -4 30 -15 5 -15 -32 -104 -45 -104 -15 0 9 -10 11 -23 3 -13 -8 -18 -5 -10 7 7 11 -2 33 -20 48 -27 21 -35 22 -42 2 -6 -18 -22 -12 -55 19 -43 42 -48 110 -6 83 13 -7 10 -19 -7 -29 -21 -13 -19 -17 9 -18 53 0 34 68 -20 76 -24 4 -50 24 -56 45 -7 22 -21 39 -31 39 -11 0 -19 14 -19 30 0 17 9 30 20 30 11 0 20 -9 20 -20 0 -11 9 -20 19 -20 12 0 13 18 3 45 -9 25 -25 43 -34 41 -25 -5 -89 56 -86 82 6 50 -3 94 -17 85 -9 -5 -26 12 -38 39 -13 26 -16 48 -7 48 9 0 21 -11 27 -25 7 -19 15 -18 30 4 30 42 -12 84 -75 77 -40 -5 -53 -19 -58 -60 l-6 -54 -42 42 c-33 33 -36 44 -13 58 18 12 6 17 -38 18 -36 0 -65 -9 -65 -20 0 -11 9 -20 20 -20 11 0 20 -9 20 -20 0 -38 -55 -20 -66 22 -13 49 -104 47 -104 -2 0 -16 12 -27 27 -24 14 3 31 -13 37 -35 11 -41 66 -58 66 -21 0 41 36 18 48 -30 11 -41 25 -50 82 -50 39 0 70 -9 70 -20 0 -11 -10 -20 -23 -20 -15 0 -12 -13 7 -35 57 -66 60 -200 4 -210 -26 -5 -48 -2 -48 8 0 37 5 47 21 42 10 -2 12 9 6 26 -7 17 -16 26 -22 21 -5 -5 -20 1 -34 14 -27 24 -18 94 11 94 10 0 18 9 18 20 0 11 -17 20 -39 20 -21 0 -44 18 -51 40 -7 22 -26 40 -41 40 -37 0 -37 -20 2 -76 28 -40 28 -48 -2 -89 -21 -27 -29 -32 -23 -11 15 42 -28 79 -65 56 -24 -14 -24 -22 -2 -48 14 -18 23 -33 18 -34 -70 -22 -131 -11 -162 28 -38 49 -47 104 -13 83 14 -9 19 0 14 24 -5 20 -19 35 -32 32 -16 -3 -22 19 -19 65 4 61 35 104 35 49 0 -12 12 -10 27 5 16 14 23 39 17 55 -8 20 -14 21 -19 5 -6 -17 -19 -18 -45 -4 -21 11 -42 13 -47 5 -17 -28 -9 -305 9 -316 10 -6 18 -28 18 -49 0 -20 13 -50 29 -66 37 -37 67 -146 34 -126 -15 10 -23 -6 -23 -48 0 -36 -8 -57 -20 -50 -28 17 -25 -37 4 -66 43 -43 35 -184 -10 -184 -33 0 -35 -5 -14 -31 25 -29 -50 -146 -76 -119 -17 16 -84 -74 -72 -98 6 -12 -3 -5 -21 17 -17 21 -31 64 -31 95 0 31 -8 56 -17 56 -10 0 -14 20 -9 45 4 25 -5 178 -19 340 -15 163 -20 307 -11 320 9 15 16 -3 16 -45 0 -53 5 -63 20 -40 11 17 20 52 20 78 0 27 6 43 12 36 7 -6 2 -69 -12 -138 -20 -100 -20 -168 -1 -326 13 -110 24 -216 24 -235 0 -19 12 -35 26 -35 17 0 23 15 17 38 -8 31 5 40 72 52 70 11 82 21 82 62 0 51 -34 66 -51 21 -17 -42 -72 -33 -58 10 6 19 1 54 -11 78 -15 27 -16 50 -4 65 13 15 12 70 -1 149 -11 70 -14 132 -7 140 22 22 54 -41 45 -90 -6 -36 -2 -41 20 -23 21 18 27 15 27 -13 0 -20 5 -31 11 -25 18 19 -27 182 -55 198 -26 15 -32 228 -8 290 5 14 -5 30 -22 37 -35 13 -86 -21 -86 -58 0 -13 -13 -41 -30 -62 -26 -35 -26 -30 -1 46 27 79 27 85 -7 85 -30 0 -44 -44 -88 -272z m2686 177 c0 -20 13 -26 40 -19 22 6 35 2 29 -8 -16 -25 -51 -23 -115 7 -68 32 -71 73 -4 60 28 -5 50 -23 50 -40z m143 -8 c20 -24 37 -44 37 -46 0 -1 -25 -4 -55 -5 -30 -2 -44 2 -30 7 18 7 19 21 4 49 -27 51 -3 48 44 -5z m927 -22 c53 -89 59 -103 33 -87 -14 9 -18 3 -11 -17 7 -17 3 -31 -8 -31 -19 0 -45 58 -54 122 -2 18 -11 43 -18 55 -8 13 -7 23 2 23 9 0 34 -29 56 -65z m-1701 -46 c38 -28 38 -29 -5 -29 -24 0 -44 -9 -44 -19 0 -11 -13 -15 -30 -8 -36 14 -40 60 -5 74 38 15 42 14 84 -18z m737 -54 l64 -56 -105 51 c-58 28 -105 54 -105 59 0 28 92 -6 146 -54z m-631 -102 c70 -49 127 -122 67 -84 -10 6 -13 -9 -6 -34 10 -36 14 -38 20 -10 6 31 14 29 72 -15 36 -28 88 -50 115 -50 27 0 107 -39 178 -86 71 -47 197 -123 280 -169 126 -70 151 -92 155 -138 4 -51 2 -52 -23 -18 -15 20 -37 31 -50 23 -14 -9 -18 -3 -11 17 8 21 1 31 -23 31 -19 0 -47 16 -63 35 -16 19 -23 24 -16 10 17 -35 -20 -31 -50 5 -14 17 -34 30 -46 30 -12 0 0 -22 25 -49 26 -28 55 -45 64 -39 9 6 17 -4 17 -21 0 -46 -32 -38 -91 24 -44 45 -49 47 -31 11 29 -57 28 -66 -9 -66 -17 0 -26 8 -20 18 6 10 -8 13 -32 7 -35 -9 -41 -5 -31 23 10 24 6 30 -11 19 -77 -48 -300 17 -263 76 6 10 -20 31 -58 47 -38 16 -75 43 -81 61 -7 17 -22 26 -33 19 -11 -7 -20 -3 -20 8 0 12 -24 16 -58 9 -35 -7 -63 -2 -73 14 -11 18 -3 22 28 14 29 -8 43 -2 43 17 0 39 16 35 85 -23 67 -56 103 -55 110 3 2 21 -1 27 -7 13 -18 -41 -76 4 -107 83 -16 40 -39 72 -52 72 -13 0 -36 14 -50 31 -22 27 -19 30 28 21 74 -13 67 -2 -37 59 -50 29 -85 61 -79 71 13 21 25 15 144 -69z m296 28 c-7 -11 15 -33 47 -50 84 -44 116 -39 72 9 -41 45 -28 51 36 17 41 -22 42 -21 15 15 -19 25 -13 23 20 -8 42 -38 44 -48 19 -64 -16 -11 -21 -19 -10 -19 11 0 33 8 48 18 34 21 122 -30 114 -66 -3 -12 -2 -16 3 -8 19 34 101 11 166 -47 38 -34 54 -52 36 -39 -29 20 -32 17 -22 -23 6 -25 23 -53 38 -62 15 -9 27 -25 27 -36 0 -22 73 -126 164 -234 70 -82 74 -126 4 -50 -48 52 -51 53 -41 11 5 -25 1 -40 -9 -34 -10 6 -19 0 -19 -15 -1 -14 -10 -8 -19 14 -9 22 -18 28 -19 14 0 -15 -9 -21 -20 -15 -10 7 -6 35 10 66 39 75 36 90 -11 61 -35 -22 -48 -16 -115 57 -41 45 -122 111 -179 146 -69 42 -100 73 -93 92 15 38 26 37 61 -6 16 -19 23 -24 16 -10 -21 42 25 28 74 -22 25 -26 75 -67 111 -91 36 -25 65 -62 65 -82 0 -21 8 -42 17 -48 38 -23 13 64 -40 142 -39 57 -68 81 -88 73 -19 -8 -28 -2 -25 15 3 15 -25 43 -64 63 -38 20 -67 47 -64 60 5 20 2 20 -18 0 -18 -17 -32 -18 -52 -2 -19 16 -26 16 -26 -2 0 -13 -9 -18 -20 -11 -12 7 -15 23 -7 36 7 13 7 18 -1 11 -21 -19 -126 20 -211 78 -95 64 -95 65 -33 65 30 0 49 -9 43 -19z m-543 -53 c18 -7 27 -20 22 -29 -6 -9 30 -45 80 -81 82 -59 111 -116 53 -103 -13 3 -23 -5 -23 -16 0 -12 -13 -8 -30 8 -16 17 -30 39 -30 49 0 11 -20 34 -45 52 -25 19 -34 28 -20 22 41 -20 28 18 -15 45 -61 39 -55 77 8 53z m-1332 -89 c18 -29 38 -37 66 -28 37 11 36 9 -6 -35 -25 -26 -61 -44 -79 -40 -18 4 -38 -1 -44 -12 -11 -17 94 -54 133 -46 10 2 12 -6 5 -17 -7 -10 -28 -13 -47 -6 -30 11 -31 8 -7 -21 25 -30 22 -34 -20 -34 -37 -1 -41 -5 -18 -19 42 -27 24 -36 -79 -44 l-89 -6 -6 71 c-4 53 6 82 38 110 27 24 37 27 27 8 -15 -26 -13 -26 16 -3 42 34 45 71 5 56 -19 -7 -25 -1 -18 18 14 37 36 37 67 -1 28 -34 60 -40 60 -11 0 10 -18 24 -40 31 -44 14 -56 70 -15 70 14 0 37 -18 51 -41z m2088 -63 c19 1 30 -10 24 -23 -12 -33 -139 -18 -170 20 -21 24 -14 27 44 15 37 -7 83 -13 102 -12z m-1713 -96 c31 -38 88 -104 127 -145 95 -101 53 -96 -48 7 -44 44 -102 103 -128 129 -26 27 -56 49 -65 49 -26 0 40 -95 74 -108 16 -6 29 -21 29 -34 0 -17 -8 -16 -29 1 -16 14 -38 19 -49 12 -10 -6 -25 -3 -31 8 -7 10 -25 14 -40 9 -30 -12 -121 28 -104 45 5 6 27 1 49 -11 36 -19 64 2 64 47 0 3 -29 3 -65 -1 -53 -6 -58 -3 -30 14 20 11 31 28 26 36 -5 9 11 12 37 7 26 -5 53 1 61 13 18 30 54 7 122 -78z m899 52 c16 -15 24 -31 19 -36 -5 -5 14 -31 43 -58 50 -47 52 -47 79 -10 27 36 31 37 65 5 21 -18 42 -28 49 -22 6 7 17 1 25 -11 18 -29 -73 -19 -95 10 -10 13 -25 9 -40 -11 -14 -17 -43 -32 -65 -33 -22 -2 -49 -5 -60 -7 -48 -9 -130 3 -130 19 0 10 32 24 72 31 91 17 75 36 -31 35 -88 -2 -102 22 -46 78 43 44 79 47 115 10z m428 -202 c17 7 24 6 16 -2 -8 -8 1 -31 19 -51 36 -40 10 -52 -29 -13 -13 13 -24 16 -24 6 0 -10 -13 0 -29 21 -26 36 -29 36 -42 4 -10 -27 -21 -30 -51 -14 -26 14 -38 14 -38 0 0 -12 -10 -21 -21 -21 -12 0 -16 9 -9 20 7 11 -10 20 -40 20 -29 0 -47 9 -40 19 6 11 37 15 68 8 32 -6 63 -1 70 10 9 15 30 15 66 1 29 -11 67 -14 84 -8z m-648 -102 c99 -6 257 -32 350 -58 94 -26 220 -52 280 -59 256 -30 1325 -305 1265 -326 -14 -5 -81 10 -150 32 -69 22 -161 45 -205 52 -44 7 15 -18 131 -54 318 -100 416 -155 381 -211 -12 -19 -29 -20 -71 -4 -31 12 -60 17 -65 12 -5 -4 12 -15 37 -23 44 -14 45 -16 8 -29 -37 -13 -37 -14 5 -25 24 -6 39 -3 33 7 -6 10 3 18 20 18 18 0 37 14 44 30 26 69 139 -55 168 -184 21 -95 15 -99 -57 -46 -55 41 -351 146 -649 231 -74 21 -135 46 -135 55 0 9 -8 11 -17 6 -18 -11 -670 118 -704 139 -55 34 -9 52 106 42 69 -6 107 -6 85 -1 -216 56 -268 63 -330 49 -44 -10 -59 -20 -40 -27 81 -30 86 -34 35 -27 -31 4 -56 -2 -56 -15 -1 -12 -10 -4 -19 18 -17 39 -17 39 -19 -2 -1 -34 18 -48 89 -68 83 -23 164 -80 114 -80 -12 0 -26 7 -32 17 -6 9 -61 28 -124 42 -64 14 -103 31 -90 40 41 25 4 73 -54 70 -62 -4 -541 46 -579 60 -146 55 217 68 391 14 84 -26 143 -34 180 -24 81 24 -51 54 -436 100 l-150 18 145 -4 c88 -2 148 5 153 19 4 11 -11 19 -35 18 -24 -2 -50 6 -58 18 -10 15 -14 14 -15 -3 0 -17 -35 -25 -110 -25 -60 0 -110 -8 -110 -17 0 -17 -360 -10 -377 8 -5 5 77 9 184 9 l193 0 0 55 0 55 215 -6 c118 -4 218 -15 222 -25 3 -11 16 -13 28 -6 14 9 17 1 9 -19 -7 -19 -6 -32 2 -31 32 7 84 -29 84 -58 0 -18 5 -26 12 -20 6 6 42 -1 80 -17 53 -22 68 -23 69 -3 0 14 13 9 30 -14 24 -32 29 -33 29 -6 0 18 -18 38 -39 45 -21 6 -34 24 -29 38 8 22 25 22 90 -1 45 -15 89 -23 99 -16 11 6 19 1 19 -12 0 -14 -19 -20 -49 -14 -88 17 -74 -39 15 -62 130 -33 233 -47 184 -24 -22 10 -60 19 -85 20 -45 1 -71 101 -27 101 39 0 517 -84 632 -111 136 -32 182 -35 113 -8 -73 30 -925 202 -961 195 -23 -5 -172 27 -227 48 -30 11 -97 23 -150 26 -52 2 -189 12 -305 21 -309 23 -627 20 -589 -6 11 -8 20 -33 18 -55 -7 -121 -2 -116 -104 -103 -55 7 -84 6 -68 -4 17 -12 -6 -21 -70 -28 -57 -7 -102 -3 -110 9 -7 12 -23 15 -35 7 -23 -14 -30 -1 -51 94 -11 51 -7 55 54 58 l65 2 -70 13 c-275 51 599 88 1190 50z m-328 -79 c10 -6 18 -31 18 -55 -1 -36 -4 -38 -20 -14 -13 20 -19 22 -20 5 0 -56 -314 -32 -325 25 -5 27 -6 53 -2 57 12 11 328 -5 349 -18z m-922 -97 c11 -50 9 -72 -7 -72 -13 0 -26 38 -29 84 -7 98 12 91 36 -12z m1619 -14 c9 15 21 18 27 8 6 -10 5 -29 -4 -43 -18 -28 -122 43 -121 83 0 13 19 2 41 -25 31 -37 45 -43 57 -23z m-2059 -101 c0 -68 -5 -118 -12 -112 -17 18 -21 235 -3 235 8 0 15 -55 15 -123z m3360 104 c35 -4 52 -72 19 -72 -20 0 -32 7 -26 15 17 28 -15 59 -40 39 -15 -12 -32 -10 -47 8 -25 26 -23 26 94 10z m-2600 -80 c0 -31 -65 -58 -179 -73 -96 -12 -104 -10 -98 24 10 53 277 100 277 49z m600 -16 c0 -31 -26 -36 -210 -42 -208 -7 -256 9 -165 53 81 39 375 30 375 -11z m-490 -23 c0 -16 -20 -31 -45 -35 -44 -7 -62 29 -31 60 23 23 76 5 76 -25z m3068 -162 c0 -45 -2 -44 -29 17 -16 37 -23 77 -15 89 16 27 43 -37 44 -106z m-2270 31 c152 -5 287 -18 298 -29 14 -14 -30 -17 -143 -9 -131 10 -163 7 -163 -15 -1 -22 -5 -22 -20 2 -17 26 -19 26 -20 -3 0 -23 -12 -30 -40 -23 -22 6 -40 2 -40 -9 0 -29 62 -41 174 -36 53 2 102 -4 109 -15 6 -10 41 -12 77 -4 84 18 43 49 -66 50 -42 0 -72 8 -66 17 10 16 56 14 167 -9 25 -5 45 -22 45 -38 0 -17 -19 -31 -45 -32 -25 0 -34 -6 -20 -11 19 -8 17 -18 -6 -41 -23 -23 -37 -25 -58 -7 -21 17 -31 17 -43 -2 -8 -14 -5 -28 9 -33 13 -4 17 -17 10 -29 -8 -12 7 -7 33 11 52 36 120 15 120 -37 0 -33 -17 -36 -59 -10 -17 11 -35 11 -40 2 -6 -9 -54 -10 -107 -2 -83 13 -94 11 -83 -17 30 -72 30 -96 2 -120 -17 -14 -26 -40 -20 -58 9 -28 7 -29 -10 -5 -11 16 -17 35 -12 43 5 7 -23 20 -62 27 -44 8 -65 21 -56 35 7 13 4 17 -9 9 -11 -8 -27 -4 -35 9 -10 16 -18 15 -29 -3 -10 -15 -31 -19 -52 -11 -29 11 -31 18 -10 31 18 11 20 20 4 30 -12 7 -27 2 -32 -13 -11 -29 -105 -35 -145 -9 -47 29 28 78 106 69 47 -5 69 0 69 18 0 14 -24 27 -55 28 l-55 3 60 13 c45 10 52 16 27 26 -18 7 -52 8 -75 2 -28 -7 -42 -1 -42 18 0 16 -13 29 -28 29 -16 0 -24 -12 -18 -26 6 -16 -3 -27 -22 -27 -42 0 -41 -19 3 -53 33 -25 33 -26 -3 -14 -26 10 -34 7 -24 -9 30 -49 -27 -107 -93 -96 -82 13 -140 85 -108 135 18 29 12 46 -33 92 -30 32 -54 68 -54 81 0 41 -57 26 -71 -19 -7 -23 -19 -34 -26 -25 -7 10 -31 20 -53 21 -22 2 -103 18 -180 35 -101 23 -201 30 -360 23 -174 -8 -203 -5 -140 11 80 20 298 29 560 23 77 -1 161 -3 187 -4 26 0 62 9 80 20 21 13 121 17 273 10 132 -7 365 -15 518 -20z m-1631 -106 c36 -30 123 -246 123 -304 0 -29 -67 -26 -96 3 -29 29 -32 96 -4 96 30 0 24 53 -10 87 -16 16 -45 25 -65 20 -53 -14 -124 46 -85 72 22 15 23 20 4 21 -15 0 -21 9 -14 20 20 32 102 23 147 -15z m394 -23 c-6 -9 5 -16 24 -15 22 2 37 -14 41 -42 5 -30 -3 -45 -25 -45 -17 0 -31 -15 -31 -32 0 -27 -5 -28 -30 -8 -24 20 -30 19 -30 -5 0 -17 -13 -36 -30 -42 -17 -7 -24 -25 -18 -42 13 -33 -25 -42 -63 -16 -38 26 -54 91 -19 78 31 -12 31 96 0 146 -7 12 -3 21 9 21 11 0 21 -9 21 -20 0 -11 10 -20 21 -20 12 0 16 9 9 20 -7 11 1 15 17 8 16 -6 35 -1 42 11 7 11 27 21 43 21 17 0 25 -8 19 -18z m1924 -56 c65 -88 15 -146 -106 -124 -163 31 -206 78 -135 149 42 42 203 26 241 -25z m-1519 -7 c42 -68 -87 -113 -182 -64 -26 14 28 65 68 65 21 0 38 9 38 20 0 35 49 21 76 -21z m1935 13 c51 13 189 -25 189 -52 0 -9 17 -12 38 -6 21 5 44 0 51 -12 7 -12 29 -22 47 -22 30 1 30 3 4 22 -25 18 -24 20 7 10 20 -7 47 -12 60 -12 16 -1 15 -6 -3 -17 -17 -11 2 -25 60 -42 51 -15 87 -18 91 -6 11 32 525 -120 525 -156 0 -18 -32 -11 -110 21 -100 42 -267 96 -338 109 l-78 14 12 -72 c11 -69 -11 -99 -32 -44 -15 39 -94 57 -94 21 0 -40 -18 -35 -61 17 -36 43 -38 43 -39 5 -1 -38 -3 -38 -36 6 -22 28 -48 41 -67 34 -19 -7 -37 1 -44 20 -7 18 -22 27 -34 19 -14 -9 -15 -20 0 -38 33 -40 1 -52 -51 -18 -62 41 -61 82 3 111 l50 23 -63 27 c-86 36 -103 33 -87 -16 8 -25 4 -49 -10 -58 -17 -10 -14 -24 11 -49 28 -29 30 -38 7 -52 -30 -18 36 -51 146 -73 31 -6 61 -20 68 -31 14 -23 -87 -11 -188 21 -46 15 -68 15 -78 -1 -7 -12 -4 -15 9 -8 11 8 26 6 32 -4 15 -24 -86 -66 -128 -53 -24 8 -38 -2 -46 -29 -5 -23 -2 -41 8 -41 10 0 18 16 18 35 1 30 3 30 19 5 29 -45 1 -58 -102 -46 -69 8 -91 18 -83 38 6 16 0 28 -13 28 -13 0 -18 9 -11 19 7 13 30 12 62 0 39 -15 49 -13 43 6 -5 14 -21 26 -37 28 -15 1 -37 3 -47 5 -10 1 -9 12 4 25 16 16 31 17 49 3 15 -12 43 -14 66 -5 60 24 70 22 70 -16 1 -28 4 -30 18 -7 29 45 -25 82 -117 82 -44 0 -81 9 -81 19 0 11 13 15 28 9 15 -6 33 -2 40 9 7 10 30 15 52 9 31 -8 38 -3 28 21 -6 17 -18 31 -25 30 -37 -5 -63 5 -63 24 0 12 9 16 20 9 11 -7 31 -5 45 4 30 18 38 20 109 24 50 2 51 4 17 29 -24 18 -31 36 -20 54 12 20 18 21 24 3 5 -14 27 -19 56 -12z m-3391 -66 c28 -12 67 -28 88 -35 21 -6 34 -15 30 -19 -11 -11 -196 19 -210 34 -15 14 10 57 28 48 8 -3 37 -16 64 -28z m488 -77 c5 -15 -10 -24 -40 -24 -26 0 -48 9 -48 20 0 10 -12 15 -27 9 -47 -18 -85 18 -55 53 28 34 150 -8 170 -58z m930 -42 c5 -4 -40 -6 -100 -6 -76 1 -96 7 -68 18 36 15 146 7 168 -12z m-330 -71 c-7 -10 -29 -3 -50 15 -20 19 -32 43 -26 53 7 10 29 3 50 -15 20 -19 32 -43 26 -53z m359 19 c58 -29 14 -53 -118 -67 -123 -13 -192 18 -159 71 15 26 224 22 277 -4z m1514 -12 c48 -17 48 -18 -15 -32 -35 -7 -81 -4 -102 7 -23 12 -60 14 -96 3 -50 -15 -52 -18 -12 -19 25 -1 50 -15 57 -32 7 -20 38 -30 89 -30 106 0 99 -34 -10 -51 -97 -14 -164 0 -217 47 -22 19 -68 29 -123 27 -94 -3 -168 45 -105 69 52 20 188 -4 223 -39 42 -42 43 -42 42 10 -1 27 12 45 35 48 20 3 42 11 49 18 14 14 116 0 185 -26z m-833 -9 c42 -42 -14 -75 -163 -96 -110 -16 -138 -14 -163 11 -53 53 -3 73 134 55 111 -16 125 -13 135 19 14 44 23 46 57 11z m1552 -166 c0 -59 -108 -70 -220 -23 l-70 30 50 20 c164 68 239 60 240 -27z m350 32 c41 -45 -8 -110 -67 -89 -14 5 -35 9 -45 9 -31 0 -20 61 14 73 25 10 26 16 5 29 -20 13 -16 17 15 18 23 0 58 -18 78 -40z m-4281 -47 c61 -57 65 -80 11 -63 -26 8 -40 4 -40 -13 0 -20 -5 -20 -25 0 -20 20 -19 28 2 41 19 12 21 21 5 31 -21 13 -31 51 -13 51 5 0 32 -21 60 -47z m2801 -20 c137 -18 186 -29 130 -31 -49 -1 -189 12 -310 28 -121 16 -278 31 -350 33 l-130 4 130 11 c72 7 171 6 220 -2 50 -8 189 -28 310 -43z m-2098 -43 c-30 -27 -72 -50 -93 -50 -38 0 -38 2 -7 50 23 35 51 50 93 50 l61 0 -54 -50z m1648 22 c28 -3 -29 -7 -125 -9 -96 -2 -175 4 -175 12 0 14 184 12 300 -3z m1066 -21 c41 -3 82 -12 90 -20 8 -8 -71 -10 -176 -4 -104 6 -215 12 -245 12 -30 1 -55 11 -55 23 0 15 48 17 155 8 85 -7 189 -16 231 -19z m1248 -46 c-2 -79 -10 -80 -68 -13 -33 39 -58 50 -95 43 -32 -6 -51 0 -51 14 0 16 37 23 108 23 l108 -2 -2 -65z m-4538 8 c5 -22 -7 -33 -35 -33 -22 0 -41 12 -41 27 0 61 65 67 76 6z m2469 33 c-36 -5 -94 -5 -130 0 -36 4 -6 8 65 8 72 0 101 -4 65 -8z m-1731 -66 c-13 -33 -30 -60 -40 -60 -9 0 -10 -11 -2 -25 8 -15 7 -18 -4 -8 -22 20 -26 114 -4 100 9 -5 22 5 28 22 7 17 20 31 28 31 9 0 6 -27 -6 -60z m2936 38 c54 -21 -42 -21 -180 1 l-100 16 120 0 c66 -1 138 -8 160 -17z m448 -31 c5 -4 -56 -7 -135 -7 -84 0 -143 8 -143 21 0 18 256 6 278 -14z m-3333 -96 c-29 -78 -105 -142 -105 -88 0 11 -10 13 -23 5 -15 -9 -18 -5 -9 9 8 13 22 19 31 14 21 -13 73 47 90 104 8 25 22 45 31 45 10 0 3 -40 -15 -89z m3035 -161 c46 -101 70 -117 53 -35 -8 38 0 29 26 -28 20 -45 49 -89 64 -98 22 -12 22 -10 2 12 -30 32 -33 67 -5 49 25 -16 25 11 0 50 -11 17 -20 21 -20 10 -2 -27 -58 74 -59 105 -1 14 13 25 29 25 19 0 30 -19 30 -50 0 -28 12 -50 27 -50 27 0 30 -9 38 -107 3 -31 21 -68 40 -82 19 -14 29 -31 21 -38 -7 -7 7 -13 31 -13 24 0 43 -9 43 -19 0 -11 -15 -14 -33 -7 -25 9 -29 6 -17 -14 12 -19 8 -23 -15 -15 -18 7 -36 0 -43 -16 -6 -16 -1 -29 10 -29 11 0 15 -9 8 -20 -7 -11 -2 -36 10 -55 22 -33 22 -33 12 0 -6 19 -2 35 9 35 10 0 20 -27 22 -60 3 -77 4 -85 23 -115 9 -14 10 -36 2 -48 -10 -16 -4 -20 18 -11 27 10 31 2 20 -50 -9 -44 -6 -58 11 -48 13 8 23 5 23 -6 0 -11 -8 -25 -18 -31 -24 -15 -2 -97 31 -117 32 -19 36 -86 7 -104 -13 -8 -14 -25 -2 -46 12 -21 11 -47 -1 -70 -11 -20 -14 -52 -6 -71 8 -18 12 -72 10 -120 -3 -59 3 -83 17 -74 14 8 23 -11 24 -53 0 -36 5 -84 10 -106 43 -197 34 -299 -32 -347 -50 -37 -62 -58 -54 -98 8 -45 -52 -185 -80 -185 -18 0 16 179 48 256 45 103 91 440 66 481 -13 23 -19 -8 -19 -105 -1 -203 -22 -148 -25 65 -3 224 -17 223 -28 -1 -5 -91 -22 -211 -38 -266 l-30 -100 11 89 c12 97 32 388 32 448 -1 21 13 59 30 85 20 30 23 48 9 48 -12 0 -22 -10 -22 -23 0 -13 -6 -18 -13 -11 -7 7 -4 25 7 39 26 32 48 195 26 195 -8 0 -14 16 -13 35 2 19 -10 35 -27 35 -48 0 -56 26 -71 224 -11 152 -20 186 -46 188 -21 1 -24 5 -8 11 14 6 25 25 25 44 -1 29 -3 29 -22 3 -16 -23 -18 -17 -9 27 8 37 5 52 -8 43 -39 -24 -21 41 19 70 48 35 50 52 9 68 -17 6 -26 4 -20 -6 6 -10 -3 -23 -20 -30 -18 -6 -25 -22 -17 -34 8 -14 3 -20 -14 -14 -15 5 -31 35 -35 68 -3 32 -18 65 -33 73 -15 8 -33 42 -40 75 -7 33 -30 69 -51 80 -22 12 -33 33 -26 50 17 44 22 39 67 -60z m-3090 5 c-12 -44 -11 -44 30 5 l42 50 -33 -67 c-38 -80 -56 -152 -55 -227 0 -30 -7 -50 -16 -45 -9 6 -23 -12 -30 -40 -7 -28 -23 -52 -35 -52 -13 -1 -5 -10 17 -19 22 -9 29 -18 15 -19 -14 0 -25 -10 -25 -20 0 -11 13 -15 28 -9 15 6 34 1 41 -10 8 -13 1 -17 -18 -10 -21 8 -32 0 -34 -25 -1 -20 -5 -70 -9 -111 -3 -41 2 -80 13 -87 10 -6 19 -54 19 -105 0 -59 7 -84 18 -67 12 20 19 17 27 -14 7 -28 2 -37 -17 -29 -20 7 -28 -8 -28 -57 -1 -48 -6 -59 -19 -38 -10 16 -15 35 -10 43 5 7 -9 66 -30 131 -20 64 -34 144 -29 177 28 204 18 273 -19 140 -7 -22 -8 18 -2 88 5 70 20 142 34 159 19 23 19 27 1 16 -17 -10 -16 6 5 55 16 39 21 75 11 81 -10 6 -23 0 -29 -14 -6 -15 -10 -11 -11 10 -1 22 13 35 39 35 22 0 46 16 53 35 28 79 77 113 56 40z m3510 -15 c24 -24 30 -40 15 -41 -16 0 -12 -10 9 -26 45 -34 26 -113 -28 -113 -21 0 -33 8 -27 18 6 10 0 24 -14 30 -19 9 -19 15 -1 23 13 7 19 24 13 40 -6 16 -18 25 -26 19 -8 -5 -11 13 -6 41 12 59 14 60 65 9z m600 6 c5 -5 -6 -18 -25 -28 -49 -28 -91 -109 -48 -92 19 7 40 -2 52 -22 20 -32 23 -31 51 5 35 45 38 71 10 71 -11 0 -20 -10 -20 -23 0 -13 -5 -19 -11 -13 -5 6 0 36 13 68 22 57 22 57 39 13 10 -25 28 -45 40 -45 12 0 16 9 9 20 -7 11 -3 20 9 20 11 0 21 -13 21 -30 0 -16 -10 -30 -21 -30 -12 0 -16 -9 -9 -20 7 -11 -1 -15 -17 -8 -30 11 -65 -56 -46 -87 5 -9 -4 -33 -21 -55 -26 -32 -29 -33 -19 -5 13 39 -18 49 -34 10 -5 -14 -11 -5 -11 20 -2 39 -20 53 -63 49 -6 -1 -22 16 -35 37 -19 31 -19 38 1 34 14 -3 26 13 28 35 1 22 4 56 5 76 2 34 65 34 102 0z m-740 -39 c0 -53 -1 -53 -37 -15 -25 26 -30 43 -15 53 39 26 52 16 52 -38z m458 -94 c38 -40 75 -68 82 -63 26 16 -5 -100 -36 -135 -22 -25 -23 -35 -5 -35 14 0 20 -13 15 -28 -6 -15 -6 -34 1 -41 23 -22 27 -111 6 -111 -13 0 -14 -17 -2 -48 14 -37 12 -51 -11 -60 -21 -8 -28 -30 -21 -70 5 -33 -4 -77 -20 -100 -26 -37 -26 -42 3 -42 21 0 27 -9 17 -25 -32 -50 -27 -659 5 -647 41 16 33 -10 -23 -78 -149 -178 -253 598 -139 1031 14 53 22 101 17 105 -5 5 -13 75 -18 155 -5 81 -18 156 -29 167 -11 11 -20 41 -20 66 0 25 -9 46 -20 46 -11 0 -20 14 -20 30 0 45 130 -26 218 -117z m474 -11 c-33 -36 -33 -39 -1 -58 47 -25 17 -68 -38 -55 -24 6 -32 5 -18 -1 38 -17 30 -48 -10 -36 -32 10 -32 9 1 -12 26 -17 34 -45 31 -106 -5 -107 -13 -122 -52 -90 -28 23 -30 19 -18 -29 8 -30 7 -54 -2 -53 -41 7 -66 -4 -54 -23 7 -12 25 -17 40 -11 14 5 31 -1 37 -14 6 -16 18 -11 33 13 18 28 28 31 39 13 20 -33 -57 -164 -85 -147 -14 9 -17 1 -9 -19 7 -18 3 -38 -7 -45 -12 -7 -14 -43 -7 -83 10 -52 7 -68 -9 -58 -25 16 -83 -31 -83 -67 0 -11 -7 -21 -16 -21 -26 0 -86 -117 -80 -154 4 -21 -9 -38 -31 -42 -32 -7 -35 0 -21 59 9 37 16 87 17 112 0 25 10 45 22 45 11 0 33 18 49 40 16 22 36 40 46 40 38 0 80 62 57 85 -17 17 -23 14 -23 -11 0 -27 -11 -32 -50 -22 -38 9 -50 4 -50 -20 0 -18 -10 -32 -22 -32 -12 0 -17 -13 -11 -30 14 -36 -19 -39 -55 -5 -33 31 14 114 65 117 21 1 24 5 8 11 -14 6 -25 28 -25 50 0 22 -9 34 -20 27 -11 -7 -20 2 -20 19 0 17 7 31 15 31 51 0 145 127 146 196 0 72 1 73 27 26 14 -26 32 -39 38 -28 19 30 -44 106 -88 106 -31 0 -38 -12 -34 -55 4 -37 -4 -55 -24 -56 -52 -3 -60 12 -32 57 46 74 58 154 22 154 -16 0 -30 9 -30 20 0 11 4 20 8 20 5 0 24 6 44 13 22 9 30 6 21 -8 -16 -25 36 -48 76 -33 23 9 27 -3 17 -63 -10 -58 -6 -72 16 -65 18 6 28 39 28 93 0 46 8 83 17 83 10 0 12 13 6 30 -7 17 11 50 42 80 64 58 107 68 57 12z m-4632 -822 c16 -31 15 -40 -5 -40 -30 0 -75 39 -75 64 0 32 59 15 80 -24z m286 -581 c-6 -21 -18 -34 -27 -29 -27 17 -33 -35 -15 -134 20 -106 -10 -256 -50 -256 -34 0 -42 268 -10 326 14 24 25 49 26 54 1 6 9 30 17 54 18 54 73 40 59 -15z m96 -299 c11 0 13 -11 5 -25 -9 -14 -13 -52 -9 -84 5 -49 1 -55 -22 -36 -32 27 -46 274 -21 375 12 46 16 26 21 -85 3 -81 15 -145 26 -145z m3821 -15 c12 -47 30 -91 39 -97 21 -12 24 -88 5 -88 -8 0 -30 15 -51 33 -57 52 -71 13 -51 -143 4 -27 -7 -39 -35 -39 -29 0 -38 11 -33 39 4 27 0 33 -13 20 -17 -17 -39 -135 -43 -225 -1 -14 -11 -25 -23 -25 -12 0 -17 13 -11 29 6 17 -2 43 -18 59 -17 17 -29 66 -29 116 1 63 6 78 20 56 12 -18 20 -20 20 -6 0 13 -9 29 -20 36 -11 7 -20 21 -20 32 0 11 9 15 20 8 11 -7 20 -4 20 7 0 11 6 35 13 55 9 22 6 30 -8 21 -11 -7 -26 1 -32 17 -11 27 10 40 54 32 10 -2 29 12 42 30 18 24 29 27 39 11 49 -79 68 15 22 104 -45 86 -36 106 21 52 28 -26 60 -86 72 -134z m-3914 -86 c-6 -11 -4 -30 5 -44 8 -14 16 -34 16 -45 0 -11 9 -20 20 -20 39 0 110 -91 110 -140 0 -27 8 -50 18 -50 10 0 27 -27 39 -60 12 -33 13 -60 4 -60 -10 0 -32 -5 -49 -12 -25 -9 -29 1 -22 54 6 48 -2 73 -30 92 -21 15 -33 40 -27 57 7 18 -1 29 -20 29 -21 0 -28 12 -21 35 11 33 10 33 -18 0 -15 -19 -40 -35 -55 -35 -21 0 -22 5 -3 24 37 37 29 60 -16 46 -22 -7 -40 -4 -40 7 0 11 -5 33 -11 49 -7 18 4 33 30 39 22 6 41 26 41 44 0 18 9 28 20 21 12 -7 15 -21 9 -31z m3611 -131 c0 -40 -8 -49 -33 -40 -17 7 -44 2 -60 -10 -45 -38 -31 7 18 55 59 59 75 58 75 -5z m420 -108 c-22 -14 -23 -19 -4 -20 42 0 -44 -228 -105 -279 -17 -14 -31 -34 -31 -45 0 -10 -34 -69 -76 -132 -42 -63 -102 -159 -134 -214 -115 -202 -342 -476 -297 -359 8 20 2 26 -19 18 -27 -11 -28 -2 -9 61 22 73 113 144 146 114 8 -8 10 -4 3 8 -7 12 11 53 39 90 29 37 87 143 131 235 44 91 85 161 91 155 16 -16 64 51 64 91 1 17 14 42 29 55 35 29 54 98 31 113 -10 6 -41 -35 -69 -90 -28 -56 -44 -101 -35 -102 8 0 0 -9 -19 -20 -18 -11 -56 -69 -84 -129 -27 -61 -60 -110 -72 -110 -24 0 -16 18 46 103 21 29 35 64 31 77 -5 13 -33 -21 -63 -76 -57 -105 -144 -164 -242 -164 -29 0 -52 -9 -52 -20 0 -11 -10 -20 -23 -20 -12 0 -70 -41 -128 -90 -58 -50 -115 -90 -126 -90 -11 0 -23 -25 -27 -55 -3 -30 -17 -55 -30 -55 -13 0 -35 -11 -49 -25 -14 -14 -55 -25 -92 -25 l-67 0 92 80 c51 44 99 80 108 80 9 0 26 23 38 50 13 28 32 50 43 50 37 0 122 95 110 125 -15 38 52 66 75 31 13 -20 21 -18 37 9 23 39 92 47 103 13 4 -13 52 10 111 54 57 42 99 81 94 86 -5 4 -27 -8 -49 -28 -42 -38 -57 -15 -16 26 13 13 17 24 8 24 -9 0 -8 11 2 25 43 55 50 103 11 73 -54 -43 -64 -65 -43 -91 15 -18 10 -21 -22 -13 -23 6 -57 -2 -76 -18 -102 -89 -101 -25 2 69 33 31 54 62 46 70 -8 8 -24 -2 -35 -21 -17 -30 -25 -32 -52 -10 -27 21 -30 21 -17 0 24 -39 -66 -111 -101 -81 -23 18 104 193 158 218 41 20 172 29 169 12 -2 -12 10 -23 26 -24 75 -8 120 -36 120 -75 0 -65 41 -12 53 68 9 64 80 145 110 126 7 -4 9 10 3 31 -9 33 -2 38 41 30 28 -5 56 0 63 11 7 11 23 20 36 20 14 0 12 -8 -6 -20z m-723 -71 c-23 -39 -46 -67 -51 -62 -14 14 52 133 74 133 10 0 0 -32 -23 -71z m218 26 c-4 -14 -28 -35 -52 -47 -24 -12 -75 -57 -114 -100 l-71 -78 44 90 c23 50 57 106 73 125 36 40 133 49 120 10z m645 -288 c0 -49 -15 -111 -33 -138 -18 -28 -27 -56 -20 -62 6 -7 28 16 47 50 35 62 66 82 66 44 0 -46 -126 -162 -163 -150 -21 7 -37 2 -37 -11 0 -12 8 -17 19 -11 60 37 30 -46 -52 -141 -52 -62 -98 -130 -101 -152 -7 -46 -204 -260 -227 -246 -18 12 -150 -182 -169 -247 -10 -34 -20 -41 -35 -26 -16 16 -15 37 2 74 13 29 19 59 15 66 -5 8 0 28 11 44 16 23 18 20 8 -11 -10 -31 -8 -34 10 -17 33 32 4 76 -30 47 -31 -25 -33 86 -3 114 11 9 13 -1 5 -24 -11 -32 -6 -30 26 10 51 64 51 80 -2 69 -23 -4 -36 -1 -28 7 8 8 33 14 56 14 23 0 46 13 51 28 5 15 0 22 -12 15 -12 -8 -16 2 -10 27 6 22 20 46 31 53 12 7 14 -5 6 -30 -8 -24 -6 -43 4 -43 22 0 91 141 76 155 -5 6 -16 -4 -23 -22 -7 -18 -20 -33 -30 -33 -9 0 -7 23 6 50 12 28 34 50 49 50 15 0 27 8 27 19 0 17 55 42 117 53 15 3 33 12 40 20 7 8 -3 9 -22 2 -48 -17 -44 -3 20 77 30 38 55 80 56 94 0 14 12 23 25 20 13 -3 24 8 24 24 0 38 100 146 101 109 0 -17 9 -13 23 12 12 22 31 46 42 53 11 7 -1 24 -26 37 -35 19 -39 28 -18 41 45 28 78 -21 78 -114z m-3689 -202 c-8 -64 -6 -86 7 -66 15 23 21 19 28 -20 17 -89 10 -159 -15 -159 -15 0 -21 21 -15 60 5 38 0 60 -15 60 -13 0 -18 -8 -12 -18 15 -24 -8 -82 -32 -82 -11 0 -18 16 -16 35 6 62 -1 88 -21 75 -27 -17 1 56 29 74 20 14 24 26 29 101 1 19 12 35 24 35 15 0 18 -31 9 -95z m-91 -24 c0 -11 -13 -21 -30 -21 -19 0 -30 19 -30 51 0 46 3 49 30 22 17 -17 30 -40 30 -52z m3190 -96 c-38 -76 -90 -123 -90 -82 0 46 95 169 115 149 3 -3 -9 -33 -25 -67z m-3275 -3 c-9 -34 28 -82 64 -82 34 0 24 -95 -11 -108 -101 -39 -190 168 -99 232 29 20 56 -4 46 -42z m3822 -47 c-13 -25 -22 -47 -20 -50 17 -26 -107 -122 -129 -99 -12 11 135 191 158 193 8 0 5 -19 -9 -44z m131 -43 c-5 -12 -36 -38 -69 -56 -63 -37 -61 -25 11 68 37 48 78 40 58 -12z m-3628 -52 c0 -39 36 -119 62 -140 7 -5 19 -40 27 -76 8 -37 20 -62 26 -56 14 14 65 -26 65 -52 0 -10 -8 -13 -19 -7 -10 6 -24 2 -31 -9 -7 -11 -21 -16 -31 -9 -10 6 -13 -4 -5 -24 9 -23 16 -26 22 -10 6 19 14 19 36 1 44 -36 34 -48 -37 -45 -98 4 -107 6 -81 23 31 20 -13 181 -46 170 -13 -4 -28 12 -34 36 -8 31 -23 40 -50 33 -32 -8 -84 37 -84 75 0 30 80 5 81 -25 2 -30 4 -29 18 5 9 22 12 47 8 55 -12 20 30 95 54 95 10 0 19 -18 19 -40z m3301 -227 c-22 -58 -61 -72 -61 -22 0 17 9 26 20 19 11 -7 20 5 20 25 0 21 7 45 15 53 24 24 28 -19 6 -75z m-1139 -59 c-17 -47 -131 -134 -175 -134 -48 0 -29 45 42 100 23 18 33 20 24 5 -9 -14 -6 -25 6 -25 11 0 21 17 21 37 0 46 8 54 58 57 33 3 37 -4 24 -40z m-255 -307 c15 -15 -43 -87 -70 -87 -20 0 -23 67 -4 87 17 17 57 17 74 0z"/>
    <path d="M2186 5120 c-57 -6 -109 -16 -115 -22 -12 -12 214 2 227 14 18 17 -12 19 -112 8z"/>
    <path d="M4020 4859 c0 -12 8 -17 17 -11 9 6 16 -3 16 -20 0 -17 -11 -25 -26 -19 -15 5 -27 1 -27 -10 0 -11 32 -15 70 -11 39 5 66 2 61 -7 -6 -9 31 -21 81 -28 126 -17 395 -84 536 -132 65 -23 137 -40 160 -39 23 1 2 14 -48 28 -49 14 -79 27 -67 28 43 4 237 -44 257 -64 13 -12 2 -13 -30 -4 -28 8 -43 7 -34 -2 18 -18 214 -32 214 -15 0 46 -434 184 -840 267 -328 67 -340 69 -340 39z"/>
    <path d="M2670 5040 c-16 -26 40 -48 81 -32 17 6 26 21 19 32 -16 26 -84 26 -100 0z"/>
    <path d="M2600 4671 c0 -39 70 -58 120 -31 57 30 32 60 -51 60 -47 0 -69 -9 -69 -29z"/>
    <path d="M1428 3617 c-9 -26 -14 -58 -11 -70 2 -13 -5 -30 -16 -37 -26 -15 -27 -50 -3 -50 10 0 28 43 39 95 22 102 17 137 -9 62z"/>
    <path d="M5546 3015 c-22 -25 -37 -56 -32 -70 5 -14 -6 -25 -25 -25 -33 0 -33 -3 1 -40 36 -40 72 -53 68 -25 -7 41 6 67 54 112 52 47 51 93 0 93 -14 0 -43 -20 -66 -45z"/>
    <path d="M5335 774 c-56 -55 -85 -98 -76 -113 10 -16 43 10 101 78 108 130 93 150 -25 35z"/>
    <path d="M5097 545 c-25 -41 -53 -91 -61 -111 -9 -20 -24 -32 -34 -25 -10 6 -23 -2 -29 -18 -23 -60 24 -48 75 18 28 38 52 74 52 82 0 7 19 39 41 71 23 32 33 58 22 58 -10 0 -40 -34 -66 -75z"/>
    <path d="M2860 5969 c0 -6 17 -29 38 -51 58 -63 67 -137 15 -127 -40 8 -40 7 2 -35 42 -42 49 -42 173 -18 71 14 141 19 156 10 21 -12 21 -10 2 14 -13 16 -58 41 -100 57 -42 15 -87 42 -99 59 -34 47 -57 11 -31 -48 21 -46 20 -48 -15 -26 -21 13 -44 47 -51 75 -18 71 -90 143 -90 90z"/>
    <path d="M1915 5731 c-35 -26 -27 -51 16 -51 28 0 55 54 33 68 -8 4 -30 -3 -49 -17z"/>
    <path d="M5142 5656 c-1 -19 16 -44 38 -56 49 -26 56 -90 7 -72 -28 11 -29 8 -7 -18 23 -28 31 -26 74 14 34 32 40 48 22 54 -14 4 -33 20 -42 34 -8 15 -28 22 -43 16 -16 -6 -31 4 -37 26 -8 32 -10 32 -12 2z"/>
    <path d="M605 4675 c13 -38 95 -44 95 -6 0 20 -18 31 -52 31 -32 0 -48 -9 -43 -25z"/>
    <path d="M508 4243 c8 -13 3 -23 -11 -23 -17 0 -19 -6 -4 -21 14 -14 60 -16 129 -6 l108 15 -80 13 c-44 7 -97 21 -118 30 -27 11 -34 9 -24 -8z"/>
    <path d="M705 4146 c19 -5 35 -21 35 -35 0 -25 95 -63 113 -45 37 37 -55 96 -143 91 -34 -1 -34 -3 -5 -11z"/>
    <path d="M5685 3926 c-14 -5 -25 -29 -25 -53 -1 -34 -4 -37 -19 -14 -10 17 -25 24 -32 17 -20 -20 86 -81 113 -65 15 9 19 7 11 -6 -7 -12 8 -38 33 -59 26 -20 43 -48 39 -61 -12 -37 34 -30 48 6 22 56 -120 254 -168 235z"/>
    <path d="M541 3836 c11 -25 25 -62 32 -81 14 -43 47 -46 47 -4 0 16 -13 35 -30 42 -16 6 -30 23 -30 38 0 15 -9 32 -20 39 -12 8 -12 -4 1 -34z"/>
    <path d="M1162 3807 c26 -31 24 -31 -20 -8 -40 22 -51 21 -65 -5 -10 -17 -44 -37 -77 -44 -62 -14 -76 -46 -37 -85 12 -12 17 -36 10 -54 -13 -35 -73 -43 -73 -10 0 12 -9 16 -21 8 -12 -7 -18 -22 -14 -34 10 -31 81 -37 98 -9 10 16 19 12 28 -12 20 -53 -5 -65 -75 -38 -72 26 -87 20 -68 -27 10 -26 19 -28 40 -11 21 18 30 16 40 -9 15 -40 -1 -69 -37 -69 -34 0 -56 -55 -29 -71 11 -7 14 -30 7 -51 -8 -26 -2 -38 19 -38 16 0 39 -16 50 -35 13 -22 21 -25 21 -9 1 15 10 21 21 14 12 -7 16 -20 10 -29 -5 -9 3 -22 18 -28 36 -13 60 76 33 123 -12 21 -20 24 -20 8 -1 -15 -10 -21 -21 -14 -30 19 -4 50 41 50 22 0 39 10 39 23 0 12 23 43 52 67 36 31 45 49 29 60 -14 8 -37 -3 -54 -28 -16 -24 -40 -37 -53 -29 -13 7 -17 6 -9 -3 28 -31 -46 -91 -87 -69 -47 25 -29 72 33 88 55 13 58 25 28 104 -20 53 -20 54 17 21 36 -33 84 -46 84 -23 0 19 -56 69 -76 69 -32 0 -45 60 -23 101 11 22 33 39 48 39 15 0 32 11 36 25 7 18 20 16 49 -10 21 -19 49 -35 61 -35 30 0 -16 96 -53 110 -24 9 -24 6 0 -23z"/>
    <path d="M2001 3741 c-16 -10 -36 -14 -44 -9 -31 19 -208 -91 -252 -157 -62 -93 -58 -128 8 -76 29 22 64 41 79 41 14 0 32 10 40 23 9 16 5 18 -14 7 -21 -12 -23 -10 -6 8 13 14 53 28 90 33 l68 8 -60 -28 -60 -28 80 5 c44 3 94 -1 110 -9 17 -7 89 -19 160 -26 72 -6 173 -25 225 -41 71 -23 95 -24 96 -6 0 13 14 -1 30 -31 17 -30 43 -55 58 -55 44 0 91 22 91 43 0 11 -10 13 -22 6 -13 -8 -20 4 -18 34 10 110 -1 171 -21 122 -10 -25 -13 -61 -6 -80 9 -30 7 -30 -11 -5 -17 24 -21 25 -22 2 0 -15 -22 6 -50 46 -27 41 -50 82 -50 92 0 28 -128 46 -256 35 -114 -9 -261 28 -202 51 15 6 19 11 8 12 -11 1 -33 -7 -49 -17z"/>
    <path d="M3978 3751 c-26 -109 -91 -132 -153 -55 -18 23 -25 24 -25 5 0 -21 -6 -21 -30 -1 -24 20 -30 19 -30 -6 0 -17 11 -36 25 -42 14 -6 3 -6 -25 1 -27 7 -56 21 -63 33 -28 43 -357 -73 -357 -126 0 -16 -14 -56 -30 -87 -16 -31 -24 -66 -18 -76 15 -25 88 40 88 78 0 30 47 85 73 85 8 0 4 -11 -9 -24 -75 -75 -3 -122 83 -55 29 23 53 37 53 32 0 -6 24 2 54 17 29 15 60 24 69 18 9 -5 38 5 65 22 27 18 53 24 60 14 6 -10 35 -14 64 -8 l54 10 -58 26 -58 26 55 -8 c31 -4 80 -19 110 -34 30 -15 79 -26 109 -25 29 0 49 -6 43 -15 -5 -9 6 -16 24 -16 31 0 113 -57 194 -134 35 -33 115 -57 115 -35 0 43 -323 331 -380 339 -5 1 -30 13 -55 26 -25 14 -46 21 -47 15z"/>
    <path d="M3889 3719 c-6 -11 -20 -14 -30 -8 -11 6 -19 2 -19 -10 0 -25 93 -28 109 -3 6 10 -2 23 -18 29 -17 6 -35 2 -42 -8z"/>
    <path d="M720 3700 c0 -11 9 -20 20 -20 11 0 20 -10 20 -22 0 -14 -19 -18 -50 -10 -63 16 -67 -24 -8 -75 40 -34 42 -34 52 4 5 22 21 36 35 30 35 -13 57 52 29 86 -26 31 -98 37 -98 7z"/>
    <path d="M1109 3699 c-7 -12 -25 -17 -40 -11 -15 6 -33 2 -40 -9 -6 -10 3 -19 20 -19 18 0 38 -16 45 -35 7 -19 19 -39 26 -45 7 -5 24 -28 36 -50 13 -22 23 -28 23 -14 1 15 10 21 21 14 11 -7 20 7 20 30 0 23 -9 37 -19 30 -11 -6 -38 7 -60 29 -47 47 -55 78 -11 41 33 -27 100 -12 81 19 -7 11 -27 14 -45 7 -22 -9 -28 -5 -18 11 8 12 5 23 -6 23 -11 0 -26 -10 -33 -21z"/>
    <path d="M3129 3538 c-9 -15 -6 -29 7 -33 13 -5 24 -17 24 -28 0 -11 -9 -14 -20 -7 -27 16 -4 -133 24 -160 14 -14 18 -3 11 35 -8 49 -4 54 30 43 27 -8 35 -5 26 10 -8 13 -18 51 -22 85 -8 65 -29 104 -29 55 -1 -23 -4 -23 -18 -1 -14 22 -20 22 -33 1z"/>
    <path d="M1947 3331 c-68 -30 -84 -48 -100 -116 -20 -90 -17 -125 13 -149 20 -17 22 -25 5 -25 -36 -1 -31 -41 5 -41 17 0 30 -8 30 -18 0 -10 14 -23 30 -29 26 -10 26 -5 -2 37 -36 56 -23 90 34 90 22 0 35 -9 29 -19 -14 -23 154 -20 170 2 14 21 221 24 364 7 129 -17 142 -1 78 95 -68 103 -262 215 -328 188 -15 -6 -11 -10 9 -11 57 -3 185 -78 247 -146 l59 -63 -71 42 c-136 82 -189 104 -224 93 -20 -6 -35 0 -35 13 0 35 -214 15 -298 -27 -80 -40 -82 -40 -82 -15 0 32 109 80 224 99 l106 17 -100 2 c-55 1 -128 -11 -163 -26z m180 -165 c15 -91 18 -88 -72 -52 -83 33 -93 58 -40 98 63 48 99 34 112 -46z m373 -5 l49 -38 -54 -14 c-76 -19 -114 0 -101 50 13 51 41 51 106 2z"/>
    <path d="M2627 3330 c-7 -19 2 -59 20 -90 44 -75 42 -111 -16 -233 -26 -57 -42 -110 -34 -117 7 -7 4 -12 -7 -9 -39 8 -70 -1 -70 -20 0 -11 14 -14 32 -8 20 8 30 2 27 -15 -9 -68 -1 -79 40 -54 72 45 67 -7 -20 -214 -14 -33 -26 -66 -27 -73 -4 -29 -32 -42 -32 -15 -1 23 -4 23 -20 -2 -17 -27 -19 -27 -20 0 -1 17 -19 -10 -41 -59 -22 -49 -36 -100 -31 -114 6 -14 2 -31 -8 -37 -10 -6 -13 -24 -7 -41 6 -16 19 -24 29 -18 10 6 18 3 18 -8 0 -10 -13 -24 -30 -30 -16 -7 -30 -23 -30 -37 1 -18 6 -17 20 4 17 27 19 27 20 0 1 -24 5 -23 22 5 18 32 30 27 124 -44 164 -124 318 -158 450 -100 62 28 90 67 39 55 -14 -3 -29 3 -35 13 -5 11 19 25 55 33 35 7 60 6 54 -3 -51 -83 195 45 251 131 57 86 -31 289 -126 290 -20 0 -31 -9 -24 -20 7 -11 1 -21 -14 -23 -145 -16 -152 -14 -142 30 8 39 5 38 -22 -7 -24 -39 -31 -42 -31 -15 -1 19 -11 35 -23 35 -14 0 -19 22 -12 55 9 47 7 50 -15 20 -17 -23 -31 -27 -45 -13 -13 13 -26 14 -33 3 -16 -27 8 -106 29 -94 10 6 18 1 18 -11 0 -12 26 -31 58 -42 32 -11 63 -38 68 -59 6 -23 22 -35 38 -29 17 7 37 -10 51 -44 23 -54 24 -54 14 19 -12 87 -7 89 84 33 115 -71 42 -178 -122 -178 -46 0 -95 -11 -110 -25 -21 -20 -24 -20 -13 0 24 42 -4 28 -67 -34 -53 -51 -69 -57 -113 -40 -28 10 -59 15 -67 9 -27 -16 -114 64 -148 137 -38 79 -45 216 -11 208 34 -8 93 124 105 235 6 55 20 129 31 165 17 56 32 277 21 305 -2 6 -7 36 -10 68 -9 77 -27 121 -43 105 -7 -7 -29 2 -49 20 -34 30 -37 30 -50 -3z"/>
    <path d="M3546 3299 c-90 -45 -228 -198 -155 -173 36 13 37 12 4 -13 -57 -45 -42 -53 97 -53 109 0 130 -5 121 -30 -7 -16 -3 -30 8 -30 10 0 19 9 19 20 0 11 14 20 31 20 19 0 26 -9 17 -23 -9 -14 -5 -18 9 -9 54 33 -29 92 -129 92 -73 0 -55 56 32 103 l70 38 11 -66 c17 -100 34 -115 129 -115 113 0 150 16 150 64 0 26 11 37 33 32 56 -10 51 -45 -13 -83 -58 -34 -65 -73 -14 -73 15 0 13 8 -5 19 -23 14 -17 21 25 32 32 8 66 4 82 -10 16 -12 76 -30 134 -40 93 -14 101 -13 68 11 -35 26 -34 28 21 30 51 2 53 4 16 15 -24 7 -64 39 -89 71 -51 65 -210 172 -257 172 -17 0 5 -19 49 -42 91 -48 190 -135 189 -167 0 -11 -9 -5 -21 14 -11 19 -31 35 -45 35 -14 0 -55 22 -90 48 -36 27 -124 60 -194 74 -125 25 -156 44 -104 65 14 5 -6 11 -45 11 -38 1 -108 -17 -154 -39z"/>
    <path d="M3254 3260 c-38 -30 -70 -38 -118 -30 -42 7 -56 4 -39 -7 15 -10 29 -46 31 -80 4 -57 -2 -66 -41 -61 -33 4 -41 -52 -11 -77 32 -26 32 -28 -1 -17 -41 13 -47 -28 -10 -65 20 -20 19 -24 -5 -17 -16 4 -23 4 -15 -1 8 -5 14 -32 13 -62 -2 -34 -6 -40 -12 -18 -10 37 -66 49 -66 14 0 -12 9 -16 20 -9 11 7 20 -5 20 -26 0 -22 13 -50 28 -62 16 -13 23 -42 17 -65 -11 -41 -10 -41 32 -5 50 43 56 104 12 121 -25 10 -26 17 -5 43 20 25 20 28 1 17 -14 -9 -25 -6 -25 5 0 11 9 25 20 32 12 7 15 21 9 31 -6 11 9 18 35 17 25 0 35 -6 21 -11 -14 -6 -25 -25 -25 -42 0 -27 5 -26 29 6 19 26 25 66 17 121 -6 51 -2 88 12 97 13 8 22 -2 22 -27 0 -58 42 -142 71 -142 14 0 30 -14 37 -32 17 -44 16 -48 -17 -48 -16 0 -35 -11 -43 -25 -8 -14 -7 -18 2 -10 19 17 133 -103 119 -126 -5 -8 5 -20 21 -26 17 -7 30 -27 30 -46 0 -25 6 -29 22 -13 28 28 -34 166 -75 166 -16 0 -24 9 -17 20 7 11 3 20 -9 20 -11 0 -21 9 -21 20 0 11 14 20 30 20 17 0 30 -7 30 -15 0 -8 21 -16 47 -18 26 -1 79 -18 119 -36 39 -19 84 -36 100 -38 17 -3 42 -14 57 -24 15 -11 54 -19 87 -17 33 2 71 -6 84 -16 13 -11 34 -13 46 -6 12 7 37 1 55 -13 23 -19 28 -20 18 -2 -9 15 -5 25 11 26 16 0 12 8 -9 21 -19 11 -44 15 -56 8 -11 -7 -19 -6 -17 4 9 54 -4 63 -67 45 -46 -14 -99 -10 -185 13 -66 17 -136 34 -155 38 -195 41 -290 204 -226 387 33 93 20 102 -55 43z"/>
    <path d="M2082 2776 c-17 -28 -15 -32 9 -23 21 8 26 2 17 -21 -7 -17 -4 -32 7 -32 32 0 153 45 182 67 15 12 40 23 57 26 87 12 31 24 -100 21 -118 -3 -155 -11 -172 -38z"/>
    <path d="M2490 2757 c-40 -40 -40 -40 0 -71 32 -25 33 -29 5 -19 -19 6 -35 3 -35 -8 0 -28 60 -23 69 6 41 134 30 161 -39 92z"/>
    <path d="M2365 2696 c-25 -12 -45 -30 -45 -40 0 -9 -20 -25 -45 -35 -43 -18 -43 -19 -4 -20 23 0 60 16 83 38 23 21 46 35 51 30 4 -5 8 5 8 21 0 17 0 29 -1 29 -1 -1 -22 -11 -47 -23z"/>
    <path d="M4180 2532 c0 -66 47 -102 80 -62 21 25 18 37 -20 70 -58 50 -60 50 -60 -8z"/>
    <path d="M2681 2451 c-25 -31 -13 -71 21 -71 11 0 15 8 9 19 -6 10 -3 24 9 31 25 15 27 50 2 50 -9 0 -28 -13 -41 -29z"/>
    <path d="M3421 2386 c-1 -13 57 -85 129 -160 71 -75 129 -145 130 -155 0 -11 58 -79 129 -150 136 -137 163 -206 116 -292 -30 -55 -52 -244 -25 -217 10 10 24 57 30 103 6 45 19 107 30 135 35 93 24 162 -38 223 -65 64 -142 193 -142 238 0 16 -13 29 -30 29 -25 0 -38 21 -28 45 11 25 -154 160 -198 162 -30 2 -65 16 -78 33 -16 19 -25 22 -25 6z"/>
    <path d="M4247 2385 c11 -18 -38 -66 -55 -54 -7 5 -7 2 0 -6 17 -22 56 -20 73 4 21 31 18 71 -6 71 -12 0 -17 -7 -12 -15z"/>
    <path d="M4140 2304 c0 -12 -18 -18 -40 -14 -25 5 -40 -3 -40 -21 0 -33 36 -37 79 -10 20 13 35 11 45 -5 11 -17 15 -17 16 -1 0 12 -13 33 -30 47 -19 16 -30 17 -30 4z"/>
    <path d="M4381 2261 c-15 -10 -30 -32 -33 -49 -7 -49 85 -41 98 8 6 22 3 35 -6 30 -9 -6 -20 -1 -23 9 -4 12 -18 13 -36 2z"/>
    <path d="M2200 2141 c0 -26 -142 -158 -185 -172 -19 -7 -35 -29 -35 -49 0 -43 39 -76 43 -36 1 14 9 -5 17 -44 13 -64 15 -65 17 -14 3 64 49 145 121 210 48 43 73 124 39 124 -10 0 -17 -8 -17 -19z"/>
    <path d="M4265 2107 c-31 -13 -33 -87 -3 -87 12 0 17 13 11 29 -7 19 -1 25 18 18 18 -7 29 1 29 21 0 33 -11 37 -55 19z"/>
    <path d="M1828 2015 c-8 -14 -7 -19 1 -11 9 8 29 1 45 -15 43 -43 70 -35 41 11 -28 45 -66 52 -87 15z"/>
    <path d="M4263 1945 c1 -19 -3 -64 -8 -100 -5 -35 -2 -59 8 -53 9 6 17 -6 17 -26 1 -30 4 -31 20 -6 25 39 26 86 1 70 -12 -7 -17 20 -12 69 5 45 0 81 -9 81 -10 0 -17 -16 -17 -35z"/>
    <path d="M2215 1881 c-45 -65 -44 -70 15 -97 47 -22 71 -64 185 -324 36 -79 51 -97 169 -186 119 -91 134 -99 198 -106 63 -8 92 21 61 59 -13 15 -14 35 -2 54 16 24 18 24 19 -5 0 -18 20 -40 45 -47 25 -8 52 -24 60 -37 8 -13 15 -5 15 19 0 55 37 89 99 89 28 0 64 9 79 18 33 21 82 7 82 -23 0 -12 -5 -16 -12 -10 -10 11 -88 -54 -88 -73 0 -7 27 -5 150 15 11 2 25 8 30 13 6 6 37 24 70 42 33 17 58 43 55 56 -4 14 4 19 16 11 12 -7 26 5 32 28 6 22 21 44 34 47 32 8 293 285 293 310 0 38 -41 41 -510 36 -324 -3 -496 4 -580 23 -77 17 -174 22 -270 14 -160 -13 -187 -1 -203 83 -7 38 -10 37 -42 -9z m335 -173 c60 -95 69 -101 69 -43 1 77 33 69 80 -20 34 -65 39 -69 40 -28 1 43 8 46 66 35 36 -7 81 -13 102 -14 25 0 30 -8 17 -24 -20 -26 -8 -174 14 -174 7 0 10 35 6 77 -12 123 132 210 167 101 12 -40 16 -38 70 25 61 71 97 59 99 -33 1 -28 10 -20 32 29 16 38 32 72 36 76 16 16 72 -23 72 -50 0 -21 17 -12 54 27 l54 58 12 -50 13 -50 15 45 c8 25 28 45 43 45 37 0 37 -78 -1 -128 -23 -30 -35 -33 -57 -15 -22 19 -30 15 -39 -18 -9 -35 -18 -38 -51 -21 -34 19 -41 15 -47 -23 -6 -46 -96 -80 -96 -36 0 11 -9 21 -20 21 -11 0 -20 -10 -20 -21 0 -66 -191 -142 -207 -82 -7 26 -12 24 -23 -12 -12 -38 -29 -45 -107 -45 -112 1 -170 29 -123 60 26 17 26 19 -3 20 -19 0 -37 -11 -42 -24 -9 -28 -75 -7 -75 25 0 12 9 16 20 9 11 -7 20 -3 20 9 0 13 -20 17 -50 9 -34 -8 -53 -3 -61 18 -7 17 -27 26 -48 20 -26 -7 -40 5 -49 45 -8 29 -19 48 -26 42 -16 -16 -77 67 -92 124 -14 57 99 49 136 -9z m240 -445 c0 -43 -8 -55 -30 -47 -87 33 -96 104 -14 104 35 0 44 -12 44 -57z"/>
    <path d="M1934 1627 c-10 -16 23 -108 97 -276 14 -33 22 -66 16 -75 -5 -9 1 -16 14 -16 13 0 19 12 13 28 -6 15 -30 87 -52 161 -48 155 -72 203 -88 178z"/>
    <path d="M2231 1329 c23 -139 34 -171 56 -163 13 5 20 21 16 37 -4 15 -9 48 -12 74 -3 25 -20 61 -38 78 -29 30 -31 27 -22 -26z"/>
    <path d="M3869 1354 c-47 -55 -50 -72 -9 -69 27 3 40 18 40 49 0 52 -2 54 -31 20z"/>
    <path d="M3531 1209 c-17 -18 -31 -40 -31 -50 0 -11 -19 -38 -42 -61 -29 -29 -38 -56 -29 -90 7 -27 3 -48 -9 -48 -11 0 -20 11 -20 24 0 13 -13 6 -28 -15 -25 -34 -25 -41 2 -57 32 -18 113 60 94 91 -4 7 -1 17 7 22 8 5 3 5 -12 2 -14 -4 -22 4 -18 18 5 14 23 23 41 19 31 -5 60 25 66 69 2 12 10 41 17 65 16 50 5 53 -38 11z"/>
    <path d="M1131 1021 c-6 -8 -34 -11 -64 -5 -45 8 -51 4 -40 -26 11 -29 9 -31 -15 -12 -23 19 -33 17 -49 -12 -11 -20 -25 -34 -32 -31 -25 11 -97 4 -85 -8 17 -16 -66 -89 -87 -77 -8 6 -33 -20 -55 -57 l-39 -67 76 14 c42 8 91 29 109 47 18 18 55 33 82 33 27 0 54 14 61 30 6 17 68 57 137 89 151 69 168 90 78 95 -37 2 -72 -4 -77 -13z"/>
    <path d="M3231 722 c-6 -10 13 -24 41 -31 38 -9 48 -21 39 -47 -11 -27 -8 -29 11 -9 20 19 17 32 -12 65 -39 44 -62 50 -79 22z"/>
    <path d="M5743 617 c-11 -29 -29 -58 -39 -65 -10 -6 -14 -35 -8 -64 7 -38 3 -50 -13 -40 -13 8 -19 22 -13 32 6 9 -5 32 -24 51 -32 32 -35 32 -48 -4 -21 -52 -21 -71 -1 -59 10 6 34 -7 53 -28 32 -35 32 -40 4 -40 -17 0 -37 9 -44 20 -17 27 -50 26 -50 -2 0 -39 -76 -121 -86 -93 -6 17 -29 6 -71 -34 -34 -32 -68 -52 -76 -45 -15 15 45 113 91 148 41 31 20 32 -52 3 -31 -13 -69 -24 -84 -25 -16 -1 -33 -15 -39 -32 -8 -26 -5 -26 24 -3 56 47 37 -10 -24 -71 -31 -31 -68 -77 -81 -103 -14 -25 -30 -41 -37 -35 -24 24 -59 -30 -50 -78 6 -32 23 -50 47 -50 26 0 33 10 24 33 -8 22 -5 29 9 20 13 -8 25 5 29 32 9 65 43 55 65 -20 20 -67 152 -103 150 -40 -1 37 -51 97 -67 80 -8 -7 -8 3 0 24 22 56 130 147 192 161 29 7 57 28 60 46 5 25 25 10 73 -55 64 -88 74 -179 22 -198 -30 -10 -22 -43 9 -43 16 0 33 -11 39 -25 7 -19 15 -18 30 4 15 21 14 34 -3 45 -17 11 -15 15 7 16 17 0 42 -11 56 -25 20 -20 28 -19 43 5 15 23 8 31 -31 36 -28 4 -49 20 -49 38 0 21 13 27 40 20 22 -6 35 -2 29 8 -6 10 -24 18 -40 18 -16 0 -29 12 -29 27 0 15 -19 51 -41 80 -44 55 -36 112 10 74 13 -11 30 -15 37 -8 7 7 22 -11 33 -39 10 -29 49 -67 85 -86 58 -30 61 -36 27 -48 -36 -12 -35 -14 9 -26 65 -17 73 -4 45 70 -19 49 -19 70 0 93 21 25 20 28 -4 13 -44 -27 -119 -24 -130 4 -5 14 -3 25 5 23 37 -5 64 5 64 24 0 12 -9 16 -20 9 -27 -17 -103 9 -90 30 6 10 2 23 -10 30 -11 7 -20 26 -20 42 0 42 39 14 61 -44 23 -60 67 -65 48 -5 -11 36 -8 41 24 29 21 -8 7 14 -33 52 -38 37 -80 85 -93 106 -22 38 -24 38 -44 -13z"/>
    <path d="M4507 164 c-110 -157 -113 -164 -83 -164 14 0 48 38 74 85 54 94 83 73 33 -24 -18 -33 -25 -61 -17 -60 35 1 124 236 98 257 -18 16 -45 -8 -105 -94z"/>
    <path d="M5503 125 c1 -95 8 -125 30 -125 16 0 23 10 16 22 -8 13 2 19 28 15 23 -4 42 0 42 8 3 51 -3 59 -38 49 -39 -10 -76 46 -54 82 6 9 2 29 -8 45 -12 19 -17 -14 -16 -96z"/>
    <path d="M5900 90 c0 -53 24 -87 53 -76 25 9 25 15 4 28 -20 13 -21 17 -2 18 40 0 29 34 -15 46 -25 6 -40 0 -40 -16z"/>
    <path d="M2814 28 c7 -18 39 -27 93 -26 88 1 85 5 -31 35 -60 16 -71 14 -62 -9z"/>
  </g>
  <g transform="matrix(0.992372, 0, 0, 0.992372, -1019.650574, 60.391132)">
    <title>card</title>
    <path d="M 1424.289 346.469 C 1318.289 358.469 1190.289 351.469 1048.289 348.469 C 1054.289 369.469 1074.289 340.469 1097.289 389.469 C 1081.289 364.469 1079.289 356.469 1074.289 351.469 C 1091.289 361.469 1113.289 383.469 1123.289 381.469 C 1128.289 386.469 1127.289 380.469 1125.289 383.469 C 1107.289 360.469 1140.289 372.469 1129.289 356.469 C 1154.289 359.469 1193.289 351.469 1200.289 370.469 C 1215.289 411.469 1198.289 379.469 1219.289 428.469 C 1205.289 458.469 1179.289 469.469 1161.289 508.469 C 1208.289 527.469 1235.289 503.469 1275.289 521.469 C 1280.289 515.469 1270.289 499.469 1277.289 490.469 C 1285.289 507.469 1289.289 507.469 1283.289 521.469 C 1319.289 481.469 1420.289 577.469 1432.289 432.469 L 1426.289 426.469 L 1426.289 426.469 C 1421.289 439.469 1413.289 444.469 1407.289 429.469 C 1419.289 434.469 1412.289 421.469 1433.289 420.469 C 1403.289 305.469 1433.289 405.469 1430.289 344.469" fill="rgb(229,208,163)"/>
    <path d="M 1075.289 351.469 C 1079.289 358.469 1077.289 359.469 1101.289 381.469 C 1083.289 379.469 1080.289 364.469 1069.289 354.469 C 1081.289 382.469 1059.289 389.469 1068.289 417.469 C 1077.289 416.469 1078.289 425.469 1108.289 425.469 C 1101.289 431.469 1087.289 432.469 1070.289 428.469 C 1071.289 431.469 1079.289 440.469 1090.289 438.469 C 1078.289 439.469 1069.289 445.469 1060.289 440.469 C 1078.289 448.469 1040.289 462.469 1091.289 448.469 C 1047.289 461.469 1069.289 466.469 1067.289 485.469 C 1075.289 498.469 1107.289 488.469 1119.289 485.469 C 1090.289 495.469 1100.289 506.469 1062.289 499.469 C 1130.289 521.469 1098.289 518.469 1161.289 519.469 C 1183.289 493.469 1168.289 522.469 1146.289 508.469 C 1196.289 519.469 1187.289 460.469 1196.289 494.469 C 1171.289 453.469 1217.289 479.469 1191.289 458.469 C 1219.289 461.469 1205.289 453.469 1227.289 451.469 C 1202.289 468.469 1225.289 404.469 1200.289 373.469 C 1196.289 342.469 1124.289 374.469 1121.289 357.469 C 1103.289 369.469 1109.289 364.469 1127.289 381.469 C 1106.289 380.469 1091.289 362.469 1077.289 349.469" fill="rgb(216,188,132)"/>
    <path d="M 1033.289 -52.531 C 1033.289 105.469 1033.289 262.469 1033.289 420.469 C 1033.289 459.469 1033.289 496.469 1033.289 534.469 C 1033.289 537.469 1033.289 538.469 1033.289 540.469 C 1107.289 543.469 1042.289 534.469 1157.289 524.469 C 1116.289 521.469 1065.289 532.469 1034.289 535.469 C 1041.289 511.469 1065.289 525.469 1059.289 494.469 C 1068.289 458.469 1050.289 431.469 1030.289 426.469 C 1052.289 427.469 1045.289 421.469 1058.289 440.469 C 1073.289 369.469 1048.289 365.469 1032.289 335.469 C 1082.289 337.469 1136.289 343.469 1175.289 348.469 C 1277.289 351.469 1353.289 348.469 1454.289 330.469 C 1298.289 344.469 1164.289 342.469 1049.289 317.469 C 1024.289 283.469 1038.289 143.469 1033.289 70.469 C 1064.289 36.469 1139.289 19.469 1175.289 18.469 C 1230.289 27.469 1289.289 5.469 1372.289 23.469 C 1391.289 42.469 1420.289 35.469 1456.289 64.469 C 1440.289 5.469 1291.289 -4.531 1160.289 5.469 C 1086.289 6.469 1110.289 16.469 1030.289 51.469 C 1035.289 18.469 1033.289 -1.531 1033.289 -50.531" fill="rgb(47,30,29)"/>
    <path d="M 1127.289 -37.531 C 1110.289 -57.531 1130.289 0.469 1138.289 3.469 C 1157.289 0.469 1218.289 1.469 1266.289 2.469 C 1259.289 -9.531 1247.289 -6.531 1247.289 -23.531 C 1269.289 -7.531 1315.289 -28.531 1337.289 7.469 C 1292.289 -19.531 1335.289 -26.531 1306.289 -40.531 C 1291.289 -38.531 1247.289 -48.531 1254.289 -23.531 C 1257.289 -51.531 1147.289 -35.531 1125.289 -45.531" fill="rgb(201,174,131)"/>
    <path d="M 1456.289 -46.531 C 1320.289 -68.531 1404.289 22.469 1464.289 34.469 C 1448.289 34.469 1458.289 -16.531 1452.289 -47.531 C 1439.289 -43.531 1436.289 -49.531 1444.289 -51.531" fill="rgb(180,69,65)"/>
    <path d="M 1046.289 -52.531 C 1053.289 -47.531 1049.289 -43.531 1033.289 -50.531 C 1033.289 10.469 1045.289 38.469 1042.289 42.469 C 1057.289 36.469 1069.289 23.469 1097.289 18.469 C 1083.289 3.469 1057.289 49.469 1046.289 14.469 C 1185.289 -28.531 1067.289 -64.531 1057.289 -43.531" fill="rgb(156,60,55)"/>
    <path d="M 1302.289 523.469 C 1232.289 533.469 1194.289 518.469 1123.289 536.469 C 1572.289 534.469 1413.289 534.469 1311.289 527.469" fill="rgb(56,25,25)"/>
    <path d="M 1351.289 -44.531 C 1332.289 -42.531 1315.289 -41.531 1296.289 -42.531 C 1320.289 -40.531 1307.289 -36.531 1320.289 -28.531 C 1313.289 -23.531 1323.289 -11.531 1298.289 -15.531 C 1269.289 -17.531 1268.289 -17.531 1255.289 -25.531 C 1257.289 -36.531 1259.289 -44.531 1293.289 -41.531 C 1261.289 -42.531 1229.289 -42.531 1199.289 -41.531 C 1263.289 -50.531 1236.289 -4.531 1272.289 -0.531 C 1386.289 29.469 1384.289 -18.531 1346.289 -50.531 C 1357.289 -44.531 1355.289 -44.531 1352.289 -45.531" fill="rgb(223,207,180)"/>
    <path d="M 1056.289 -57.531 C 1049.289 -39.531 1387.289 -37.531 1435.289 -55.531 C 1328.289 -51.531 1246.289 -57.531 1075.289 -54.531" fill="rgb(172,73,68)"/>
    <path d="M 1244.289 446.469 C 1211.289 478.469 1148.289 551.469 1291.289 500.469 C 1295.289 535.469 1266.289 506.469 1333.289 525.469 C 1252.289 509.469 1313.289 482.469 1255.289 490.469 C 1271.289 437.469 1226.289 500.469 1243.289 437.469" fill="rgb(217,193,144)"/>
    <path d="M 1452.289 428.469 C 1426.289 431.469 1425.289 459.469 1420.289 479.469 C 1423.289 492.469 1426.289 511.469 1443.289 510.469 C 1457.289 506.469 1442.289 441.469 1451.289 437.469" fill="rgb(72,29,27)"/>
    <path d="M 1295.289 384.469 C 1305.289 409.469 1274.289 396.469 1291.289 424.469 C 1286.289 425.469 1281.289 430.469 1288.289 445.469 C 1308.289 411.469 1328.289 458.469 1352.289 422.469 C 1317.289 432.469 1359.289 412.469 1322.289 401.469 C 1321.289 393.469 1354.289 408.469 1343.289 392.469 C 1323.289 378.469 1299.289 407.469 1303.289 385.469" fill="rgb(217,193,145)"/>
    <path d="M 1322.289 388.469 C 1325.289 390.469 1344.289 393.469 1349.289 397.469 C 1324.289 399.469 1334.289 391.469 1313.289 403.469 C 1348.289 403.469 1324.289 415.469 1346.289 420.469 C 1335.289 428.469 1323.289 434.469 1334.289 438.469 C 1325.289 427.469 1313.289 408.469 1291.289 423.469 C 1296.289 403.469 1302.289 388.469 1319.289 392.469" fill="rgb(220,195,148)"/>
    <path d="M 1444.289 350.469 C 1427.289 384.469 1429.289 352.469 1427.289 444.469 C 1459.289 386.469 1426.289 403.469 1458.289 354.469" fill="rgb(74,27,26)"/>
    <path d="M 1375.289 438.469 C 1370.289 450.469 1312.289 418.469 1357.289 481.469 C 1340.289 445.469 1362.289 474.469 1354.289 446.469 C 1384.289 454.469 1374.289 469.469 1374.289 471.469 C 1416.289 463.469 1391.289 461.469 1415.289 451.469 C 1380.289 444.469 1420.289 431.469 1368.289 432.469" fill="rgb(215,189,137)"/>
    <path d="M 1034.289 330.469 C 1043.289 340.469 1033.289 358.469 1058.289 360.469 C 1060.289 344.469 1034.289 358.469 1040.289 342.469 C 1088.289 347.469 1118.289 356.469 1166.289 348.469 C 1128.289 349.469 1083.289 334.469 1034.289 331.469" fill="rgb(181,61,58)"/>
    <path d="M 1242.289 464.469 C 1244.289 489.469 1264.289 469.469 1269.289 503.469 C 1255.289 503.469 1249.289 502.469 1249.289 513.469 C 1228.289 478.469 1222.289 480.469 1243.289 473.469" fill="rgb(222,196,142)"/>
    <path d="M 1453.289 333.469 C 1405.289 334.469 1359.289 351.469 1317.289 345.469 C 1372.289 354.469 1438.289 347.469 1454.289 336.469" fill="rgb(181,58,57)"/>
    <path d="M 1369.289 432.469 C 1368.289 433.469 1392.289 430.469 1401.289 431.469 C 1421.289 445.469 1376.289 440.469 1414.289 465.469 C 1355.289 459.469 1381.289 457.469 1369.289 431.469" fill="rgb(218,192,140)"/>
    <path d="M 1341.289 479.469 C 1357.289 496.469 1393.289 500.469 1425.289 498.469 C 1398.289 511.469 1359.289 504.469 1341.289 484.469" fill="rgb(207,182,140)"/>
    <path d="M 1119.289 -28.531 C 1125.289 -5.531 1107.289 -11.531 1050.289 9.469 C 1086.289 27.469 1074.289 -16.531 1108.289 8.469 C 1089.289 -8.531 1135.289 1.469 1121.289 -29.531" fill="rgb(79,36,32)"/>
    <path d="M 1062.289 463.469 C 1064.289 477.469 1065.289 495.469 1059.289 508.469 C 1071.289 507.469 1094.289 518.469 1114.289 500.469 C 1089.289 507.469 1082.289 505.469 1065.289 502.469 C 1081.289 497.469 1104.289 497.469 1119.289 487.469 C 1102.289 499.469 1069.289 485.469 1076.289 492.469 C 1080.289 486.469 1060.289 482.469 1065.289 463.469" fill="rgb(238,218,176)"/>
    <path d="M 1341.289 482.469 C 1358.289 502.469 1395.289 510.469 1421.289 503.469 C 1393.289 500.469 1363.289 499.469 1343.289 481.469" fill="rgb(198,172,129)"/>
    <path d="M 1114.289 503.469 C 1067.289 534.469 1076.289 501.469 1047.289 527.469 C 1068.289 522.469 1088.289 531.469 1114.289 505.469" fill="rgb(232,213,179)"/>
    <path d="M 1376.289 515.469 C 1389.289 523.469 1407.289 528.469 1439.289 528.469 C 1429.289 517.469 1419.289 527.469 1377.289 510.469" fill="rgb(238,223,194)"/>
    <path d="M 1056.289 402.469 C 1085.289 465.469 1060.289 423.469 1115.289 428.469 C 1086.289 406.469 1086.289 433.469 1062.289 409.469" fill="rgb(232,211,168)"/>
    <path d="M 1392.289 474.469 C 1402.289 472.469 1404.289 487.469 1403.289 489.469 C 1376.289 501.469 1373.289 467.469 1394.289 478.469" fill="rgb(222,196,142)"/>
    <path d="M 1393.289 469.469 C 1383.289 473.469 1356.289 489.469 1407.289 492.469 C 1406.289 476.469 1394.289 476.469 1390.289 468.469" fill="rgb(220,194,138)"/>
    <path d="M 1352.289 436.469 C 1366.289 431.469 1361.289 449.469 1370.289 442.469 C 1363.289 437.469 1342.289 453.469 1347.289 434.469" fill="rgb(221,196,146)"/>
    <path d="M 1033.289 364.469 C 1044.289 363.469 1053.289 382.469 1059.289 387.469 C 1037.289 353.469 1043.289 404.469 1032.289 367.469" fill="rgb(131,39,35)"/>
    <path d="M 1199.289 494.469 C 1207.289 519.469 1207.289 494.469 1215.289 520.469 C 1195.289 520.469 1185.289 523.469 1201.289 499.469" fill="rgb(219,198,153)"/>
    <path d="M 1213.289 473.469 C 1219.289 483.469 1225.289 485.469 1230.289 493.469 C 1190.289 498.469 1222.289 487.469 1214.289 480.469" fill="rgb(224,199,144)"/>
    <path d="M 1371.289 3.469 C 1401.289 33.469 1448.289 24.469 1447.289 48.469 C 1391.289 6.469 1407.289 25.469 1381.289 3.469" fill="rgb(96,63,58)"/>
    <path d="M 1224.289 500.469 C 1226.289 514.469 1234.289 515.469 1216.289 519.469 C 1213.289 507.469 1218.289 502.469 1223.289 500.469" fill="rgb(221,199,152)"/>
    <path d="M 1065.289 368.469 C 1057.289 374.469 1068.289 383.469 1064.289 398.469 C 1068.289 398.469 1069.289 395.469 1066.289 399.469 C 1074.289 369.469 1093.289 407.469 1067.289 363.469" fill="rgb(222,201,163)"/>
    <path d="M 1430.289 12.469 C 1403.289 5.469 1437.289 32.469 1447.289 21.469 C 1442.289 19.469 1442.289 10.469 1429.289 8.469" fill="rgb(106,48,43)"/>
    <path d="M 1033.289 362.469 C 1041.289 409.469 1037.289 352.469 1056.289 394.469 C 1051.289 380.469 1045.289 370.469 1037.289 365.469" fill="rgb(142,43,39)"/>
    <path d="M 1344.289 503.469 C 1350.289 510.469 1334.289 524.469 1363.289 523.469 C 1370.289 518.469 1348.289 506.469 1346.289 503.469" fill="rgb(204,182,148)"/>
    <path d="M 1066.289 5.469 C 1065.289 12.469 1036.289 5.469 1055.289 27.469 C 1078.289 12.469 1066.289 16.469 1066.289 6.469" fill="rgb(101,45,41)"/>
    <path d="M 1127.289 -22.531 C 1117.289 16.469 1105.289 10.469 1171.289 -4.531 C 1155.289 1.469 1147.289 4.469 1135.289 4.469 C 1130.289 -4.531 1133.289 -3.531 1125.289 -20.531" fill="rgb(230,212,181)"/>
    <path d="M 1387.289 -5.531 C 1361.289 -1.531 1387.289 1.469 1407.289 10.469 C 1398.289 11.469 1401.289 -13.531 1388.289 -4.531" fill="rgb(97,51,46)"/>
    <path d="M 1202.289 495.469 C 1209.289 494.469 1214.289 497.469 1220.289 501.469 C 1213.289 514.469 1198.289 494.469 1200.289 499.469" fill="rgb(221,197,147)"/>
    <path d="M 1191.289 -13.531 C 1204.289 -1.531 1191.289 -10.531 1209.289 -11.531 C 1213.289 -4.531 1175.289 2.469 1190.289 -11.531" fill="rgb(223,199,150)"/>
    <path d="M 1295.289 424.469 C 1282.289 431.469 1301.289 441.469 1290.289 446.469 C 1284.289 443.469 1283.289 422.469 1290.289 427.469" fill="rgb(219,196,151)"/>
    <path d="M 1131.289 509.469 C 1124.289 511.469 1125.289 512.469 1120.289 518.469 C 1118.289 519.469 1154.289 520.469 1134.289 509.469" fill="rgb(226,205,157)"/>
    <path d="M 1346.289 420.469 C 1369.289 431.469 1332.289 440.469 1345.289 421.469" fill="rgb(222,197,150)"/>
    <path d="M 1199.289 -12.531 C 1200.289 -3.531 1189.289 -15.531 1187.289 -5.531 C 1194.289 10.469 1219.289 -10.531 1201.289 -10.531" fill="rgb(226,203,155)"/>
    <path d="M 1106.289 -57.531 C 1117.289 -51.531 1134.289 -54.531 1146.289 -55.531 C 1134.289 -58.531 1118.289 -56.531 1109.289 -57.531" fill="rgb(77,19,17)"/>
    <path d="M 1125.289 503.469 C 1118.289 511.469 1103.289 529.469 1101.289 525.469 C 1103.289 515.469 1113.289 513.469 1119.289 506.469" fill="rgb(220,195,151)"/>
    <path d="M 1402.289 448.469 C 1405.289 449.469 1416.289 452.469 1425.289 453.469 C 1419.289 455.469 1404.289 457.469 1397.289 449.469" fill="rgb(212,192,153)"/>
    <path d="M 1047.289 -36.531 C 1056.289 -14.531 1028.289 -10.531 1045.289 -35.531" fill="rgb(111,47,41)"/>
    <path d="M 1058.289 430.469 C 1056.289 440.469 1057.289 460.469 1071.289 447.469 C 1061.289 447.469 1062.289 442.469 1062.289 432.469" fill="rgb(231,208,163)"/>
    <path d="M 1166.289 -57.531 C 1171.289 -49.531 1182.289 -52.531 1189.289 -53.531 C 1195.289 -59.531 1175.289 -56.531 1169.289 -57.531" fill="rgb(91,17,16)"/>
    <path d="M 1180.289 489.469 C 1202.289 491.469 1181.289 498.469 1174.289 499.469 C 1170.289 494.469 1179.289 494.469 1181.289 490.469" fill="rgb(226,203,146)"/>
    <path d="M 1309.289 400.469 C 1318.289 412.469 1281.289 410.469 1310.289 400.469" fill="rgb(221,197,148)"/>
    <path d="M 1256.289 511.469 C 1252.289 513.469 1254.289 529.469 1273.289 523.469 C 1269.289 518.469 1260.289 519.469 1259.289 510.469" fill="rgb(210,186,148)"/>
    <path d="M 1143.289 519.469 C 1137.289 526.469 1138.289 533.469 1120.289 529.469 C 1146.289 538.469 1158.289 525.469 1141.289 520.469" fill="rgb(124,46,45)"/>
    <path d="M 1223.289 495.469 C 1242.289 497.469 1228.289 513.469 1224.289 499.469" fill="rgb(222,198,148)"/>
    <path d="M 1275.289 405.469 C 1304.289 409.469 1288.289 419.469 1275.289 410.469" fill="rgb(221,198,151)"/>
    <path d="M 1306.289 418.469 C 1320.289 441.469 1279.289 422.469 1309.289 425.469" fill="rgb(220,195,148)"/>
    <path d="M 1363.289 393.469 C 1391.289 403.469 1352.289 410.469 1363.289 396.469" fill="rgb(214,192,148)"/>
    <path d="M 1237.289 488.469 C 1236.289 494.469 1241.289 499.469 1240.289 507.469 C 1232.289 497.469 1230.289 492.469 1235.289 490.469" fill="rgb(222,198,146)"/>
    <path d="M 1423.289 506.469 C 1416.289 510.469 1411.289 515.469 1415.289 523.469 C 1401.289 508.469 1447.289 512.469 1425.289 507.469" fill="rgb(73,69,73)"/>
    <path d="M 1367.289 506.469 C 1384.289 536.469 1365.289 510.469 1393.289 513.469 C 1400.289 509.469 1376.289 513.469 1370.289 506.469" fill="rgb(187,163,132)"/>
    <path d="M 1348.289 448.469 C 1373.289 473.469 1343.289 458.469 1350.289 453.469" fill="rgb(224,199,147)"/>
    <path d="M 1113.289 359.469 C 1128.289 378.469 1095.289 372.469 1111.289 363.469" fill="rgb(220,197,147)"/>
    <path d="M 1096.289 6.469 C 1080.289 15.469 1068.289 20.469 1051.289 30.469 C 1073.289 16.469 1112.289 9.469 1106.289 7.469" fill="rgb(91,66,62)"/>
    <path d="M 1059.289 354.469 C 1061.289 358.469 1061.289 369.469 1045.289 361.469 C 1057.289 381.469 1074.289 353.469 1060.289 358.469" fill="rgb(172,161,154)"/>
    <path d="M 1081.289 374.469 C 1089.289 401.469 1060.289 382.469 1081.289 379.469" fill="rgb(222,198,150)"/>
    <path d="M 1367.289 456.469 C 1375.289 477.469 1355.289 475.469 1365.289 459.469" fill="rgb(222,197,146)"/>
    <path d="M 1421.289 508.469 C 1416.289 531.469 1440.289 518.469 1426.289 510.469" fill="rgb(182,166,140)"/>
    <path d="M 1346.289 507.469 C 1376.289 529.469 1333.289 517.469 1352.289 512.469" fill="rgb(218,197,161)"/>
    <path d="M 1048.289 -34.531 C 1031.289 -23.531 1047.289 -5.531 1048.289 -33.531" fill="rgb(108,46,39)"/>
    <path d="M 1243.289 440.469 C 1247.289 462.469 1212.289 451.469 1244.289 447.469" fill="rgb(223,201,147)"/>
    <path d="M 1113.289 354.469 C 1132.289 359.469 1123.289 380.469 1114.289 356.469" fill="rgb(223,197,147)"/>
    <path d="M 1296.289 -57.531 C 1289.289 -54.531 1311.289 -48.531 1323.289 -56.531 C 1302.289 -54.531 1308.289 -52.531 1295.289 -57.531" fill="rgb(102,22,17)"/>
    <path d="M 1033.289 -22.531 C 1033.289 -5.531 1038.289 -10.531 1033.289 1.469 C 1051.289 -8.531 1039.289 -12.531 1033.289 -17.531" fill="rgb(105,54,48)"/>
    <path d="M 1043.289 400.469 C 1056.289 394.469 1044.289 421.469 1041.289 399.469" fill="rgb(124,34,34)"/>
    <path d="M 1327.289 -57.531 C 1342.289 -56.531 1358.289 -50.531 1374.289 -56.531 C 1353.289 -51.531 1363.289 -57.531 1327.289 -57.531" fill="rgb(98,22,16)"/>
    <path d="M 1178.289 474.469 C 1195.289 481.469 1172.289 501.469 1181.289 476.469" fill="rgb(229,203,143)"/>
    <path d="M 1122.289 505.469 C 1116.289 512.469 1101.289 517.469 1100.289 523.469 C 1107.289 519.469 1116.289 513.469 1123.289 506.469" fill="rgb(238,214,167)"/>
    <path d="M 1085.289 450.469 C 1076.289 455.469 1056.289 454.469 1060.289 458.469 C 1069.289 456.469 1076.289 455.469 1084.289 452.469" fill="rgb(238,214,166)"/>
    <path d="M 1227.289 455.469 C 1244.289 461.469 1229.289 475.469 1229.289 457.469" fill="rgb(223,200,144)"/>
    <path d="M 1244.289 452.469 C 1250.289 472.469 1225.289 457.469 1246.289 457.469" fill="rgb(222,197,145)"/>
    <path d="M 1373.289 477.469 C 1389.289 483.469 1368.289 491.469 1374.289 479.469" fill="rgb(225,200,147)"/>
    <path d="M 1084.289 -1.531 C 1071.289 9.469 1102.289 9.469 1085.289 -1.531" fill="rgb(99,46,44)"/>
    <path d="M 1301.289 379.469 C 1310.289 400.469 1289.289 388.469 1302.289 383.469" fill="rgb(222,198,148)"/>
    <path d="M 1248.289 464.469 C 1274.289 480.469 1246.289 469.469 1247.289 467.469" fill="rgb(224,199,147)"/>
    <path d="M 1436.289 510.469 C 1441.289 521.469 1445.289 517.469 1453.289 521.469 C 1447.289 518.469 1447.289 509.469 1437.289 512.469" fill="rgb(128,51,48)"/>
    <path d="M 1452.289 336.469 C 1437.289 350.469 1461.289 348.469 1434.289 354.469 C 1454.289 352.469 1453.289 341.469 1452.289 338.469" fill="rgb(89,78,76)"/>
    <path d="M 1183.289 474.469 C 1195.289 478.469 1186.289 486.469 1179.289 474.469" fill="rgb(227,202,143)"/>
    <path d="M 1343.289 445.469 C 1355.289 458.469 1338.289 458.469 1343.289 450.469" fill="rgb(224,199,150)"/>
    <path d="M 1366.289 393.469 C 1349.289 402.469 1387.289 409.469 1365.289 394.469" fill="rgb(205,183,139)"/>
    <path d="M 1342.289 523.469 C 1327.289 529.469 1353.289 529.469 1357.289 527.469 C 1347.289 530.469 1350.289 522.469 1342.289 524.469" fill="rgb(123,40,41)"/>
    <path d="M 1032.289 -56.531 C 1040.289 -52.531 1060.289 -58.531 1075.289 -57.531 C 1061.289 -57.531 1046.289 -57.531 1034.289 -57.531" fill="rgb(92,19,18)"/>
    <path d="M 1425.289 353.469 C 1409.289 357.469 1430.289 386.469 1424.289 352.469" fill="rgb(178,171,162)"/>
    <path d="M 1390.289 -59.531 C 1426.289 -39.531 1395.289 -57.531 1433.289 -54.531 C 1420.289 -56.531 1427.289 -47.531 1430.289 -51.531 C 1420.289 -57.531 1405.289 -57.531 1391.289 -57.531" fill="rgb(204,133,130)"/>
    <path d="M 1269.289 501.469 C 1274.289 519.469 1254.289 507.469 1268.289 503.469" fill="rgb(220,196,149)"/>
    <path d="M 1245.289 521.469 C 1249.289 527.469 1234.289 523.469 1231.289 525.469 C 1240.289 529.469 1271.289 526.469 1246.289 523.469" fill="rgb(94,54,55)"/>
    <path d="M 1183.289 471.469 C 1201.289 470.469 1202.289 484.469 1183.289 472.469" fill="rgb(225,201,144)"/>
    <path d="M 1193.289 460.469 C 1215.289 458.469 1193.289 472.469 1195.289 463.469" fill="rgb(224,199,144)"/>
    <path d="M 1412.289 360.469 C 1412.289 365.469 1420.289 381.469 1421.289 379.469 C 1432.289 372.469 1412.289 371.469 1414.289 360.469" fill="rgb(189,170,137)"/>
    <path d="M 1046.289 -19.531 C 1061.289 -15.531 1037.289 1.469 1047.289 -17.531" fill="rgb(116,50,44)"/>
    <path d="M 1095.289 514.469 C 1100.289 518.469 1084.289 523.469 1080.289 524.469 C 1084.289 520.469 1088.289 519.469 1092.289 516.469" fill="rgb(213,194,158)"/>
    <path d="M 1222.289 468.469 C 1233.289 474.469 1222.289 487.469 1220.289 469.469" fill="rgb(225,201,145)"/>
    <path d="M 1349.289 464.469 C 1362.289 470.469 1339.289 481.469 1349.289 466.469" fill="rgb(223,200,148)"/>
    <path d="M 1235.289 491.469 C 1252.289 501.469 1238.289 511.469 1238.289 494.469" fill="rgb(222,197,146)"/>
    <path d="M 1054.289 347.469 C 1070.289 345.469 1066.289 359.469 1053.289 349.469" fill="rgb(190,151,127)"/>
    <path d="M 1454.289 367.469 C 1433.289 375.469 1453.289 384.469 1453.289 367.469" fill="rgb(132,40,41)"/>
    <path d="M 1376.289 463.469 C 1386.289 473.469 1375.289 478.469 1375.289 467.469" fill="rgb(229,201,146)"/>
    <path d="M 1063.289 507.469 C 1071.289 505.469 1072.289 522.469 1073.289 521.469 C 1076.289 514.469 1072.289 508.469 1067.289 507.469" fill="rgb(70,62,64)"/>
    <path d="M 1420.289 423.469 C 1407.289 443.469 1419.289 441.469 1423.289 423.469" fill="rgb(72,65,66)"/>
    <path d="M 1311.289 397.469 C 1306.289 404.469 1294.289 404.469 1297.289 411.469 C 1309.289 397.469 1312.289 418.469 1311.289 398.469" fill="rgb(228,204,155)"/>
    <path d="M 1216.289 434.469 C 1229.289 443.469 1215.289 448.469 1217.289 437.469" fill="rgb(225,200,146)"/>
    <path d="M 1052.289 11.469 C 1062.289 10.469 1048.289 32.469 1050.289 11.469" fill="rgb(102,42,36)"/>
    <path d="M 1304.289 408.469 C 1310.289 417.469 1297.289 425.469 1302.289 408.469" fill="rgb(221,197,149)"/>
    <path d="M 1232.289 487.469 C 1239.289 491.469 1227.289 504.469 1231.289 489.469" fill="rgb(224,199,145)"/>
    <path d="M 1446.289 387.469 C 1440.289 390.469 1433.289 390.469 1429.289 395.469 C 1436.289 392.469 1453.289 387.469 1449.289 387.469" fill="rgb(128,54,53)"/>
    <path d="M 1114.289 -23.531 C 1104.289 -3.531 1124.289 -6.531 1112.289 -20.531" fill="rgb(105,46,42)"/>
    <path d="M 1331.289 531.469 C 1337.289 541.469 1349.289 525.469 1377.289 532.469 C 1354.289 526.469 1341.289 534.469 1331.289 531.469" fill="rgb(102,47,52)"/>
    <path d="M 1304.289 419.469 C 1327.289 420.469 1297.289 427.469 1303.289 419.469" fill="rgb(220,195,147)"/>
    <path d="M 1301.289 359.469 C 1315.289 359.469 1306.289 379.469 1303.289 360.469" fill="rgb(219,199,152)"/>
    <path d="M 1209.289 364.469 C 1227.289 380.469 1197.289 369.469 1210.289 367.469" fill="rgb(224,200,152)"/>
    <path d="M 1198.289 372.469 C 1211.289 384.469 1185.289 378.469 1196.289 374.469" fill="rgb(223,198,147)"/>
    <path d="M 1347.289 443.469 C 1353.289 442.469 1349.289 460.469 1344.289 445.469" fill="rgb(223,199,148)"/>
    <path d="M 1183.289 481.469 C 1191.289 482.469 1183.289 501.469 1182.289 483.469" fill="rgb(226,202,144)"/>
    <path d="M 1444.289 36.469 C 1457.289 35.469 1451.289 54.469 1446.289 37.469" fill="rgb(116,77,69)"/>
    <path d="M 1098.289 351.469 C 1111.289 349.469 1104.289 366.469 1098.289 353.469" fill="rgb(179,130,115)"/>
    <path d="M 1045.289 399.469 C 1036.289 408.469 1055.289 411.469 1046.289 398.469" fill="rgb(132,37,37)"/>
    <path d="M 1373.289 -46.531 C 1350.289 -16.531 1377.289 -37.531 1370.289 -41.531" fill="rgb(193,173,147)"/>
    <path d="M 1235.289 502.469 C 1244.289 504.469 1226.289 518.469 1233.289 503.469" fill="rgb(221,198,150)"/>
    <path d="M 1044.289 533.469 C 1066.289 531.469 1061.289 539.469 1043.289 534.469" fill="rgb(90,38,39)"/>
    <path d="M 1192.289 -0.531 C 1219.289 -2.531 1191.289 6.469 1190.289 -0.531" fill="rgb(209,189,152)"/>
    <path d="M 1173.289 487.469 C 1179.289 497.469 1163.289 498.469 1172.289 489.469" fill="rgb(227,202,143)"/>
    <path d="M 1412.289 346.469 C 1428.289 343.469 1409.289 360.469 1411.289 347.469" fill="rgb(179,147,126)"/>
    <path d="M 1170.289 507.469 C 1190.289 505.469 1160.289 520.469 1170.289 508.469" fill="rgb(219,198,150)"/>
  </g>
  <path d="M 223.469 420.208 Q 234.355 420.026 243.9 425.327 Q 253.501 430.66 259.164 440.106 Q 264.86 449.607 265.041 460.714 Q 265.223 471.885 259.779 481.678 Q 254.304 491.526 244.61 497.332 Q 234.862 503.171 223.469 503.352 Q 212.012 503.534 201.972 497.947 Q 191.877 492.329 185.928 482.388 Q 179.947 472.393 179.765 460.714 Q 179.583 448.971 185.313 438.684 Q 191.074 428.342 201.262 422.25 Q 211.505 416.126 223.469 415.944 Q 235.497 415.762 246.031 421.635 Q 256.622 427.538 262.856 437.974 Q 269.123 448.464 269.305 460.714 Q 269.487 473.028 263.471 483.809 Q 257.425 494.647 246.742 501.024 Q 236.004 507.434 223.469 507.616 Q 210.87 507.798 199.841 501.64 Q 188.756 495.45 182.236 484.52 Q 175.683 473.535 175.502 460.714 Q 175.319 447.829 181.62 436.553 Q 187.953 425.22 199.13 418.558 Q 210.362 411.862 223.469 411.681 Q 236.64 411.498 248.163 417.942 Q 259.743 424.417 266.549 435.842 Q 273.387 447.322 273.568 460.714 Q 273.751 474.17 267.164 485.941 Q 260.546 497.768 248.874 504.717 Q 237.147 511.698 223.469 511.879 Q 209.727 512.061 197.709 505.332 Q 185.634 498.571 178.543 486.652 Q 171.419 474.677 171.238 460.714 Q 171.056 446.687 177.928 434.421 Q 184.831 422.099 196.998 414.865 Q 209.22 407.598 223.469 407.417 Q 223.426 407.418 223.469 407.417" style="stroke: rgb(0, 0, 0); fill: none;" bx:shape="spiral 223.469 460.714 40.506 53.297 0 1080 1@d27bb054"/>
  <g transform="matrix(1.800015, 0, 0, 1.800015, -380.600006, -84.267738)" bx:origin="0.5 0.484272">
    <title>SHIELD</title>
    <text style="white-space: pre; fill: rgb(51, 51, 51); font-family: Arial, sans-serif; font-size: 14.7px;" x="268.219" y="137.253" transform="matrix(0.050387, 0, 0, 0.044405, 233.319214, 330.279572)" bx:origin="3.148 67.692"><tspan x="268.218994140625" dy="1em"></tspan><tspan x="268.218994140625" dy="1em"></tspan><tspan x="268.218994140625" dy="1em"></tspan>Attack: [__ATTACK]<tspan x="268.218994140625" dy="1em"></tspan>Defense: [__DEFENSE]<tspan x="268.218994140625" dy="1em"></tspan>HP: 25 </text>
    <path d="M 254.532 330.146 C 252.617 331.167 250.551 331.922 248.435 332.5 C 246.47 332.944 244.505 333.077 242.54 333.21 C 241.986 333.654 242.238 334.32 242.137 334.809 C 242.238 337.162 242.54 339.293 243.094 341.336 C 243.698 343.512 244.505 345.466 245.664 347.286 C 246.873 349.373 248.536 351.194 250.602 352.837 C 251.861 353.814 253.171 354.657 254.583 355.146 C 256.497 354.569 258.008 353.414 259.521 352.215 C 261.385 350.661 262.594 348.974 263.652 347.242 C 264.761 345.466 265.617 343.69 266.121 341.78 C 266.826 339.249 267.078 336.629 267.129 333.965 C 267.179 333.654 266.978 333.477 266.826 333.299 C 264.761 333.077 262.745 332.899 260.881 332.455 C 258.613 331.922 256.648 331.079 254.683 330.146" style="" bx:origin="1.265 6.328"/>
    <path d="M 254.532 331.745 C 256.296 332.588 258.11 333.299 260.024 333.787 C 261.788 334.231 263.602 334.453 265.416 334.631 C 265.416 336.94 265.063 339.027 264.559 341.025 C 264.206 342.624 263.602 344 262.846 345.332 C 261.939 347.065 260.881 348.663 259.47 350.128 C 258.008 351.46 256.497 352.615 254.935 353.459 C 253.575 353.237 252.668 352.348 251.61 351.682 C 249.796 350.217 248.486 348.663 247.428 347.02 C 246.42 345.466 245.664 343.956 245.11 342.357 C 244.303 339.871 243.951 337.295 243.85 334.675 C 245.765 334.453 247.528 334.276 249.141 333.832 C 251.056 333.343 252.768 332.677 254.431 331.922" style="fill: rgb(238, 199, 135);" bx:origin="1.387 7.212"/>
    <path d="M 254.532 333.343 C 257.353 334.897 260.629 335.563 264.005 335.785 C 263.803 338.583 263.652 340.981 262.695 343.112 C 260.125 343.157 257.706 343.157 255.338 343.157 C 255.137 346.043 255.439 349.107 255.086 351.905 C 253.826 351.771 253.121 351.105 252.315 350.661 C 251.307 349.906 250.35 349.062 249.644 348.219 C 248.083 346.532 247.176 344.711 246.47 342.846 C 246.369 342.535 246.571 342.402 246.773 342.269 C 249.241 342.224 251.66 342.224 254.078 342.224 C 254.179 339.293 253.928 336.274 254.23 333.477" fill="rgb(11,11,11)" bx:origin="1.556 8.351"/>
    <path d="M 254.381 333.565 C 254.179 336.362 254.381 339.338 254.28 342.18 C 251.811 342.357 249.342 342.313 246.923 342.357 C 246.722 342.49 246.571 342.624 246.671 342.802 C 247.428 344.844 248.385 346.709 249.997 348.352 C 251.358 349.773 252.97 351.15 254.733 351.771 C 255.187 348.93 254.986 345.999 255.086 343.157 C 257.505 342.935 260.024 342.979 262.443 342.935 C 263.4 340.847 263.652 338.539 263.753 336.185 C 260.478 335.741 257.404 335.03 254.683 333.565" fill="rgb(0,0,0)" bx:origin="1.585 8.502"/>
  </g>
  <path d="M 57.203 440.084 C 58.1 439.992 59.087 439.992 59.622 440.538 C 60.879 444.192 64.821 446.475 67.152 449.486 C 69.572 447.206 71.723 445.106 73.877 442.913 C 72.799 445.469 72.889 448.757 70.469 450.492 C 72.889 453.048 75.398 455.603 77.641 457.886 C 80.239 455.603 82.748 453.048 85.079 450.672 C 82.658 448.85 82.748 445.469 81.493 443.006 C 83.915 445.011 85.978 447.206 88.216 449.486 C 90.994 446.382 94.76 443.919 95.744 440.358 C 97.268 439.719 98.972 439.902 99.686 441.179 C 100.405 442.091 100.405 443.462 99.868 444.192 C 96.103 445.742 93.952 449.579 90.994 452.043 C 93.055 454.416 95.206 456.609 97.358 458.889 C 94.849 457.796 91.622 457.976 89.918 455.421 C 87.32 457.976 84.989 460.352 82.658 462.727 C 87.856 468.296 93.415 473.956 98.434 479.066 C 98.881 481.166 99.241 482.993 99.419 484.91 C 97.537 484.727 95.744 484.363 94.042 484.088 C 88.574 478.702 83.197 473.224 77.908 467.84 C 72.26 473.315 67.152 478.52 61.685 484.088 C 59.712 484.363 58.01 484.727 56.217 485.002 C 56.397 482.993 56.664 481.166 57.021 479.432 C 62.222 473.956 67.782 468.296 72.889 463.091 C 70.647 460.442 68.228 457.976 65.807 455.511 C 63.746 458.07 60.699 457.796 58.281 459.165 C 60.341 456.698 62.493 454.509 64.641 452.316 C 61.685 449.669 59.445 445.742 55.682 444.648 C 54.693 442.823 55.5 440.723 57.114 440.175" fill="rgb(12,12,12)"/>
  <desc>Created with Fabric.js 1.7.22</desc>
  <g transform="matrix(0.128535, 0, 0, 0.146388, 357.500061, 532.499634)" style="">
    <g style="stroke: none; stroke-width: 0; stroke-dasharray: none; stroke-linecap: butt; stroke-linejoin: miter; stroke-miterlimit: 10; fill: none; fill-rule: nonzero; opacity: 1;" transform="translate(-175.05 -175.05000000000004) scale(3.89 3.89)">
      <path d="M 89 30.872 h -5.723 V 16.685 c 0 -0.271 -0.11 -0.531 -0.305 -0.719 c -0.196 -0.188 -0.452 -0.294 -0.729 -0.28 c -4.328 0.149 -8.538 0.752 -12.554 1.749 V 6.489 c 0 -0.344 -0.177 -0.665 -0.469 -0.847 c -0.293 -0.184 -0.656 -0.203 -0.968 -0.053 c -8.89 4.309 -16.793 12.648 -23.51 24.775 C 34.734 21.111 22.995 16.165 9.821 15.685 c -0.279 -0.019 -0.535 0.091 -0.731 0.28 c -0.195 0.188 -0.306 0.448 -0.306 0.72 v 7.33 c -1.392 0.098 -2.803 0.225 -4.22 0.4 c -0.504 0.063 -0.882 0.493 -0.877 1.001 l 0.047 5.456 H 0 v 53.639 h 45 h 44 c 0.553 0 1 -0.447 1 -1 V 31.872 C 90 31.32 89.553 30.872 89 30.872 z M 81.277 17.728 v 49.546 c -12.104 0.599 -23.047 4.597 -32.62 11.893 c 6.014 -9.756 12.883 -16.554 20.469 -20.23 c 0.345 -0.167 0.563 -0.517 0.563 -0.899 v -38.55 C 73.393 18.533 77.278 17.932 81.277 17.728 z M 67.689 8.127 v 49.291 C 59.575 61.524 52.293 69.006 46 79.693 V 32.215 C 52.254 20.646 59.544 12.552 67.689 8.127 z M 44 32.39 v 48.732 c -0.102 -0.058 -0.206 -0.112 -0.309 -0.17 c -9.529 -8.42 -20.581 -13.019 -32.907 -13.675 V 24.922 c 0 -0.013 0.006 -0.024 0.005 -0.038 c 0 -0.007 -0.005 -0.013 -0.005 -0.02 v -7.133 C 23.312 18.424 34.48 23.352 44 32.39 z M 8.784 26.017 v 42.216 c 0 0.538 0.426 0.979 0.963 0.999 c 9.224 0.336 17.72 2.954 25.382 7.782 c -8.824 -3.185 -18.537 -4.216 -29.023 -3.063 L 5.694 26.296 C 6.732 26.179 7.763 26.091 8.784 26.017 z M 2 32.872 h 1.751 l 0.366 42.211 c 0.002 0.285 0.126 0.556 0.341 0.743 c 0.214 0.188 0.501 0.273 0.782 0.24 c 13.865 -1.716 26.332 0.461 37.135 6.444 H 2 V 32.872 z M 88 82.511 H 47.668 c 10 -8.366 21.642 -12.831 34.643 -13.278 c 0.539 -0.019 0.966 -0.46 0.966 -0.999 V 32.872 H 88 V 82.511 z" style="stroke-width: 1; stroke-dasharray: none; stroke-linecap: butt; stroke-linejoin: miter; stroke-miterlimit: 10; fill: rgb(0, 0, 0); fill-rule: nonzero; opacity: 1; stroke: rgb(0, 0, 0);" transform=" matrix(1 0 0 1 0 0) " stroke-linecap="round"/>
    </g>
  </g>
  <desc>Created with Fabric.js 1.7.22</desc>
  <g transform="matrix(0.17302, 0, 0, 0.128536, 357.5, 462.499817)" style="filter: none;" bx:origin="0.5 0.501987">
    <g style="stroke: none; stroke-width: 0; stroke-dasharray: none; stroke-linecap: butt; stroke-linejoin: miter; stroke-miterlimit: 10; fill: none; fill-rule: nonzero; opacity: 1;" transform="translate(-175.05 -175.05000000000004) scale(3.89 3.89)">
      <path d="M 61.471 53.003 c -2.232 0 -4.048 -1.816 -4.048 -4.048 c 0 -2.232 1.816 -4.048 4.048 -4.048 s 4.048 1.816 4.048 4.048 C 65.519 51.188 63.703 53.003 61.471 53.003 z M 61.471 47.875 c -0.596 0 -1.081 0.485 -1.081 1.081 c 0 0.596 0.485 1.081 1.081 1.081 c 0.596 0 1.081 -0.485 1.081 -1.081 C 62.552 48.36 62.067 47.875 61.471 47.875 z" style="stroke-dasharray: none; stroke-linecap: butt; stroke-linejoin: miter; fill-rule: nonzero; opacity: 1; stroke-miterlimit: 1; stroke: url(#pattern-0-0); paint-order: fill; fill: rgb(0, 0, 0);" transform=" matrix(1 0 0 1 0 0) " stroke-linecap="round"/>
      <path d="M 75.222 39.317 h -1.033 V 13.171 c 0 -2.587 -2.105 -4.692 -4.691 -4.692 H 35.51 V 2.272 c 0 -0.918 -0.547 -1.74 -1.393 -2.094 c -0.818 -0.343 -1.753 -0.179 -2.406 0.414 l -4.473 3.63 l -4.473 -3.63 c -0.652 -0.594 -1.586 -0.756 -2.406 -0.414 c -0.846 0.355 -1.393 1.177 -1.393 2.094 V 8.48 h -2.704 c -2.587 0 -4.692 2.105 -4.692 4.692 v 72.138 c 0 2.587 2.105 4.691 4.692 4.691 h 53.236 c 2.587 0 4.691 -2.105 4.691 -4.691 V 58.594 h 1.033 c 1.769 0 3.208 -1.439 3.208 -3.208 v -12.86 C 78.43 40.756 76.991 39.317 75.222 39.317 z M 71.221 13.171 v 26.145 h -5.138 v -27.87 h 3.414 C 70.448 11.447 71.221 12.22 71.221 13.171 z M 21.932 3.737 L 26 7.038 c 0.717 0.583 1.757 0.585 2.475 0.001 l 4.068 -3.301 V 8.48 H 21.932 V 3.737 z M 14.537 85.309 V 13.171 c 0 -0.951 0.774 -1.724 1.724 -1.724 h 46.855 v 27.87 h -1.809 c -5.315 0 -9.638 4.324 -9.638 9.639 c 0 5.315 4.323 9.638 9.638 9.638 h 1.809 v 28.439 H 16.261 C 15.31 87.033 14.537 86.259 14.537 85.309 z M 71.221 85.309 c 0 0.95 -0.774 1.724 -1.724 1.724 h -3.414 V 58.594 h 5.138 V 85.309 z M 61.307 55.379 c -3.542 0 -6.424 -2.882 -6.424 -6.424 c 0 -3.542 2.882 -6.424 6.424 -6.424 l 13.909 -0.006 l 0.006 12.854 H 61.307 z" style="stroke-dasharray: none; stroke-linecap: butt; stroke-linejoin: miter; fill-rule: nonzero; opacity: 1; stroke-miterlimit: 1; stroke: url(#pattern-0-1); paint-order: fill; fill: rgb(0, 0, 0);" transform=" matrix(1 0 0 1 0 0) " stroke-linecap="round"/>
    </g>
  </g>
  <text style="fill: rgb(51, 51, 51); font-family: Arial, sans-serif; font-size: 40px; white-space: pre; text-anchor: middle;" x="301.656" y="479.011">2</text>
  <text style="fill: rgb(51, 51, 51); font-family: Arial, sans-serif; font-size: 31px; text-anchor: middle; text-transform: capitalize; white-space: pre;" x="232.863" y="50.518">Lady Exampless</text>
  <text style="fill: rgb(51, 51, 51); font-family: Arial, sans-serif; font-size: 60px; text-anchor: middle; white-space: pre;" x="222.686" y="482.97">2</text>
  <path d="M 213.242 545.796 C 209.482 553.694 199.424 564.438 193.736 570.16 C 193.126 570.763 192.195 570.763 191.583 570.16 C 185.865 564.438 175.806 553.694 172.046 545.796 C 163.788 528.417 184.61 516.832 192.643 534.209 C 200.677 516.832 221.501 528.417 213.242 545.796 Z" bx:origin="0.5 0.635467"/>
  <text style="fill: rgb(51, 51, 51); font-family: Arial, sans-serif; font-size: 35px; white-space: pre; text-anchor: middle;" x="242.052" y="562.327">50</text>
  <text style="fill: rgb(51, 51, 51); font-family: Arial, sans-serif; font-size: 40px; white-space: pre; text-anchor: middle;" x="301.423" y="547.756">3</text>
  <text style="fill: rgb(51, 51, 51); font-family: Arial, sans-serif; font-size: 40px; white-space: pre; text-anchor: middle;" x="134.481" y="547.761">1</text>
  <text style="fill: rgb(51, 51, 51); font-family: Arial, sans-serif; font-size: 40px; white-space: pre; text-anchor: middle;" x="134.773" y="480.789">1</text>
  <text style="white-space: pre; fill: rgb(51, 51, 51); font-family: Arial, sans-serif; font-size: 27.2px;" x="529.714" y="442.884"> </text>
</svg>