<?xml version="1.0" encoding="utf-8"?>
<svg width="426px" height="600" xmlns="http://www.w3.org/2000/svg" xmlns:xlink="http://www.w3.org/1999/xlink" xmlns:bx="https://boxy-svg.com">
  <defs>
    <pattern x="0" y="0" width="25" height="25" patternUnits="userSpaceOnUse" viewBox="0 0 100 100" id="pattern-0">
      <rect x="0" y="0" width="50" height="100" style="fill: black;"/>
    </pattern>
    <pattern id="pattern-0-0" patternTransform="matrix(1, 0, 0, 1, 48.970999, 36.454998)" xlink:href="#pattern-0"/>
    <pattern id="pattern-0-1" patternTransform="matrix(1, 0, 0, 1, 32.499998, 32.500911)" xlink:href="#pattern-0"/>
  </defs>
  <rect width="426.72" height="600" style="stroke: rgb(0, 0, 0); fill: rgb(229, 208, 163);"/>
  <g transform="matrix(0.05823, 0, 0, -0.056517, -19.579441, 399.46701)" fill="#000000" stroke="none" style="">
    <path d="M4173 5985 c-5 -8 10 -15 34 -16 24 0 68 -7 97 -15 44 -12 53 -9 43 16 -12 31 -156 44 -174 15z"/>
    <path d="M4472 5969 c-6 -16 -25 -29 -43 -29 -17 0 -26 -9 -19 -20 7 -11 1 -20 -14 -21 -16 0 -12 -8 9 -21 20 -11 31 -28 26 -37 -6 -9 5 -29 24 -44 32 -25 33 -24 5 12 -27 34 -27 37 1 27 17 -6 48 2 70 18 36 27 35 28 -21 16 -58 -12 -59 -12 -20 20 22 18 37 42 34 54 -3 11 8 16 24 9 19 -7 26 -2 20 14 -13 35 -83 36 -96 2z"/>
    <path d="M3960 5874 c28 -15 112 -42 188 -61 75 -19 172 -53 215 -75 43 -22 89 -38 103 -37 41 5 114 -25 103 -42 -5 -9 1 -23 14 -31 14 -8 18 -6 10 8 -8 11 -6 26 4 32 9 6 29 -14 43 -44 16 -33 29 -44 35 -28 11 31 -53 108 -78 92 -9 -6 -17 -1 -17 9 0 18 -41 38 -107 52 -13 3 -48 15 -79 28 -31 13 -69 23 -84 23 -34 0 -136 43 -151 65 -6 8 -65 20 -130 25 -108 10 -114 8 -69 -16z"/>
    <path d="M3607 5820 c-6 -5 -16 -11 -24 -12 -104 -14 -95 -47 12 -43 69 3 125 -2 125 -10 0 -8 14 -15 30 -15 17 0 30 -8 30 -18 0 -10 28 -28 63 -40 82 -29 92 -28 48 5 -34 24 -30 28 46 48 68 17 83 16 83 -7 0 -15 -11 -28 -25 -29 -39 -1 83 -99 124 -99 20 0 47 -13 60 -29 13 -16 38 -23 56 -16 21 8 27 4 17 -12 -8 -12 -5 -23 7 -23 25 0 65 -88 71 -155 5 -55 -117 -68 -137 -15 -10 26 -5 27 29 9 40 -21 40 -20 -4 39 -50 69 -63 77 -45 32 6 -16 1 -30 -11 -30 -12 0 -22 16 -22 35 0 20 -18 47 -40 60 -22 14 -40 37 -40 51 0 32 -74 114 -102 114 -11 0 -15 -9 -8 -20 7 -11 -2 -20 -19 -20 -56 0 -33 -31 69 -91 54 -32 99 -69 100 -82 0 -12 14 -33 30 -47 39 -32 38 -73 -1 -88 -17 -6 -26 -4 -20 6 6 10 -2 23 -18 29 -17 6 -31 -3 -35 -23 -6 -33 -70 53 -129 176 -13 28 -24 42 -25 31 -1 -10 -19 -1 -40 20 -78 81 -133 117 -191 123 -32 4 -66 18 -75 31 -12 20 -15 20 -16 0 0 -17 -14 -19 -45 -7 -55 21 -202 0 -199 -28 2 -11 -29 -18 -67 -17 -38 2 -64 -4 -58 -15 6 -10 -3 -18 -20 -18 -17 0 -31 8 -31 17 0 22 98 66 119 53 9 -5 22 4 28 20 8 19 39 30 87 31 58 0 68 5 43 19 -21 13 -68 9 -140 -11 -281 -80 -449 -138 -469 -162 -12 -15 -36 -27 -53 -27 -36 0 -80 -48 -61 -67 13 -14 -21 -20 -79 -14 -19 2 -35 -5 -35 -16 0 -11 -31 -30 -69 -43 -47 -15 -65 -32 -58 -51 7 -18 -1 -29 -23 -29 -23 0 -30 -10 -22 -31 8 -22 -6 -37 -49 -52 -45 -16 -55 -28 -39 -47 15 -19 9 -29 -25 -40 -37 -12 -39 -16 -11 -23 53 -15 129 32 94 57 -22 15 -20 17 7 8 33 -10 178 43 191 70 3 7 48 5 100 -5 150 -28 312 -34 340 -11 24 19 82 -30 83 -71 1 -25 -129 -17 -252 15 -131 34 -283 39 -327 10 -21 -13 21 -19 134 -20 90 0 169 -9 176 -20 7 -11 37 -21 66 -22 l54 -2 -50 -15 c-47 -15 -46 -16 20 -25 69 -9 69 -10 -14 -13 -46 -2 -90 7 -97 18 -7 12 -48 19 -90 16 -43 -3 -84 1 -91 9 -23 22 -52 16 -37 -8 10 -16 -10 -18 -68 -9 -99 17 -209 -3 -190 -34 9 -14 2 -17 -20 -9 -43 16 -93 -3 -93 -36 0 -14 -15 -31 -33 -38 -18 -7 -27 -19 -20 -26 7 -7 31 4 53 24 52 47 51 14 -2 -49 -34 -41 -44 -44 -60 -20 -14 21 -16 14 -10 -24 6 -36 -4 -65 -30 -88 -51 -47 -54 -173 -3 -157 30 10 29 7 -4 -20 -21 -18 -30 -32 -20 -33 11 0 3 -10 -17 -21 -21 -12 -31 -35 -26 -54 6 -19 -7 -70 -29 -114 -39 -80 -47 -25 -10 72 8 20 2 31 -18 31 -17 0 -31 -6 -31 -13 0 -7 -27 -43 -59 -79 -54 -61 -67 -135 -15 -83 33 33 54 26 40 -11 -10 -26 -5 -31 20 -21 49 19 20 -37 -40 -77 -40 -26 -45 -37 -24 -50 30 -19 30 -184 0 -264 -10 -27 -11 -60 0 -79 11 -21 8 -39 -9 -53 -21 -18 -26 -71 -15 -167 1 -8 15 -10 32 -3 16 6 25 19 19 29 -6 10 -1 18 11 18 46 0 118 112 130 200 86 652 318 1072 596 1079 30 0 75 14 100 30 56 37 191 45 248 15 59 -32 85 -29 40 4 -32 25 -31 28 16 37 28 5 55 2 61 -6 5 -9 27 -15 48 -14 21 2 34 11 28 19 -5 9 -18 11 -28 5 -12 -7 -12 8 0 38 10 27 13 55 5 62 -7 7 3 7 22 0 21 -8 34 -4 34 11 0 16 17 20 50 12 31 -8 69 -1 98 19 32 21 75 28 130 21 51 -6 82 -2 82 12 0 13 11 12 30 -4 24 -20 30 -20 30 0 0 19 7 19 32 -1 26 -22 34 -22 50 2 15 25 21 25 38 -1 17 -27 20 -27 21 0 1 17 15 3 30 -30 15 -33 28 -45 28 -27 1 17 16 44 35 60 18 15 28 17 20 4 -7 -12 0 -34 16 -47 24 -20 30 -20 30 1 0 18 11 15 37 -8 20 -18 47 -33 60 -33 12 0 23 -9 23 -19 0 -10 -36 -17 -80 -16 -44 2 -90 -7 -102 -19 -16 -16 5 -20 80 -15 57 4 102 -1 102 -12 0 -10 19 -19 41 -19 23 0 36 9 29 20 -20 32 43 23 70 -10 14 -16 38 -30 55 -30 23 0 25 6 7 27 -18 22 -13 26 28 18 30 -6 44 -19 37 -32 -8 -13 -6 -17 2 -9 9 8 33 6 54 -5 26 -14 37 -14 37 2 0 13 16 16 40 9 22 -7 51 -6 65 3 38 24 75 26 75 3 0 -11 12 -16 27 -10 15 6 40 -4 57 -23 16 -18 54 -54 85 -80 36 -30 51 -59 45 -85 -6 -21 -3 -38 5 -38 20 0 69 -287 55 -323 -6 -15 -12 -8 -12 18 -2 52 -32 60 -50 14 -6 -18 -3 -26 8 -19 11 7 20 -7 20 -30 0 -23 8 -37 18 -31 9 6 22 -7 28 -29 6 -22 2 -40 -9 -40 -11 0 -14 -9 -7 -20 7 -12 20 -16 30 -10 21 13 67 -122 50 -150 -7 -11 -2 -20 10 -20 13 0 18 -16 10 -39 -12 -40 140 -218 165 -193 6 7 29 -3 49 -22 21 -19 57 -37 81 -40 24 -4 48 -14 54 -23 36 -52 141 -99 141 -63 0 25 -85 112 -104 105 -8 -2 -9 10 -2 29 10 25 5 30 -23 19 -20 -7 -48 -4 -63 8 -14 13 -35 17 -46 10 -10 -6 -26 -1 -34 12 -16 26 48 82 75 65 9 -5 11 5 3 24 -9 24 -5 30 11 20 12 -8 23 -29 23 -48 0 -26 7 -24 31 12 17 24 42 44 55 44 15 0 13 -8 -5 -19 -17 -10 -23 -25 -15 -34 8 -8 25 -4 38 9 18 18 45 0 115 -73 50 -53 106 -102 125 -109 21 -7 31 -27 26 -52 -5 -26 6 -44 31 -52 22 -7 39 -26 39 -41 0 -16 9 -29 20 -29 26 0 25 52 -2 104 -17 31 -16 37 3 26 16 -10 21 -6 14 12 -5 15 -20 26 -32 23 -20 -4 -33 51 -25 101 1 9 -13 13 -33 10 -20 -3 -33 5 -30 19 3 14 -4 23 -14 20 -28 -7 -222 186 -243 241 -10 26 -26 42 -35 36 -9 -6 -27 10 -38 36 -21 44 -125 86 -125 49 0 -9 14 -17 31 -17 17 0 26 -9 19 -20 -7 -11 -1 -20 12 -20 14 0 19 -6 11 -13 -7 -7 -31 3 -53 23 -39 35 -40 35 -41 -2 -2 -36 -3 -36 -19 2 -24 57 -23 85 2 50 16 -23 18 -13 9 40 -6 39 -24 79 -38 90 -15 11 -43 51 -62 88 -27 52 -39 61 -53 40 -13 -21 -17 -17 -18 17 0 25 -10 45 -21 45 -12 0 -20 -20 -18 -45 7 -87 -7 -84 -20 5 -7 50 -6 110 3 134 8 25 6 50 -6 57 -11 7 -14 29 -8 49 6 20 2 43 -10 50 -11 7 -15 22 -8 34 7 11 1 28 -14 38 -24 15 -24 17 -1 18 15 0 74 -34 130 -75 97 -71 101 -72 68 -20 -30 46 -31 55 -6 55 53 0 212 -88 203 -112 -5 -12 15 -40 45 -62 92 -67 104 -71 90 -32 -21 62 95 -100 135 -187 21 -46 33 -98 26 -115 -7 -18 -2 -32 10 -32 22 0 30 26 23 77 -2 16 7 22 23 13 14 -7 4 5 -24 27 -27 22 -43 47 -35 55 8 8 15 3 15 -11 0 -19 7 -20 27 -4 32 27 113 -55 113 -115 0 -20 14 -49 31 -63 17 -14 26 -37 21 -52 -6 -14 -2 -31 9 -38 10 -6 19 0 20 15 0 14 13 4 27 -23 26 -45 28 -46 37 -10 8 30 13 25 25 -26 8 -35 27 -74 42 -87 57 -47 30 98 -38 207 -80 127 -146 275 -138 308 3 13 -4 29 -15 36 -10 7 -14 25 -9 40 12 31 -29 121 -46 103 -20 -19 -19 -101 0 -142 17 -34 12 -33 -33 8 -29 27 -53 59 -53 72 0 42 -92 112 -128 98 -29 -11 -24 -22 35 -71 114 -94 198 -208 153 -208 -20 0 -34 5 -30 11 4 6 -24 47 -61 91 -43 50 -65 64 -57 39 9 -34 5 -32 -30 10 -91 110 -136 141 -256 181 -132 44 -169 72 -66 49 39 -9 60 -5 60 10 0 13 25 5 58 -19 69 -48 82 -51 82 -13 0 29 -157 122 -175 104 -6 -6 -29 0 -53 12 -23 13 -68 26 -99 30 -74 8 -142 44 -85 45 32 1 31 6 -13 41 -28 22 -66 40 -84 40 -18 0 -28 9 -21 20 7 11 56 18 110 15 53 -4 93 1 87 9 -5 9 -36 16 -68 16 -33 0 -59 8 -59 17 0 10 36 11 80 3 49 -9 80 -7 80 5 0 11 23 15 50 10 82 -16 78 21 -4 44 -100 27 -125 26 -191 -8 -30 -16 -55 -20 -55 -10 0 11 -14 19 -31 19 -17 0 -26 9 -19 20 19 31 -13 23 -53 -13 -26 -23 -37 -25 -37 -8 0 14 -13 20 -30 14 -20 -8 -30 1 -30 25 0 40 -33 75 -80 85 -17 4 -35 15 -42 24 -7 9 -11 -11 -10 -43 1 -33 9 -56 17 -51 21 13 19 -9 -7 -59 -19 -36 -18 -40 4 -19 14 14 44 24 67 23 34 -2 35 -4 6 -12 -19 -5 -35 -27 -35 -50 0 -32 -6 -36 -27 -19 -15 13 -33 17 -40 9 -7 -7 -13 6 -13 28 0 47 -46 93 -70 71 -9 -8 -11 -5 -3 8 15 26 -40 53 -71 35 -11 -8 -17 11 -14 45 7 68 -18 115 -71 134 -37 14 -37 13 -4 -23 20 -23 29 -53 22 -76 -11 -31 -9 -33 9 -8 13 19 22 21 22 6 0 -62 -45 -40 -80 38 -43 98 -151 169 -202 132 -22 -16 -21 -17 7 -9 19 7 35 3 35 -8 0 -22 -46 -26 -66 -6 -8 7 -5 24 6 37 24 28 -141 84 -178 61 -12 -7 -22 -3 -22 9 0 21 -231 22 -253 0z m-115 -180 c6 0 4 10 -3 22 -9 13 4 19 34 15 26 -4 44 -16 40 -27 -4 -11 -16 -18 -26 -15 -11 4 -14 -3 -7 -15 7 -11 20 -16 29 -11 9 6 28 -3 42 -20 16 -19 46 -27 82 -21 32 4 53 1 47 -8 -6 -10 -1 -23 10 -30 11 -7 14 -23 6 -36 -8 -14 1 -12 20 3 18 15 28 37 21 48 -26 41 115 -74 143 -118 45 -69 37 -86 -41 -83 -39 1 -60 9 -47 17 25 16 8 59 -24 59 -11 0 -15 -9 -8 -20 21 -34 -10 -22 -81 32 -78 60 -86 47 -29 -47 52 -85 29 -82 -64 9 -42 41 -76 63 -76 50 0 -13 -25 -25 -55 -26 -52 -2 -51 -3 20 -33 41 -17 75 -37 75 -46 0 -24 -95 -8 -130 21 -25 21 -40 21 -79 1 -26 -14 -58 -19 -72 -10 -17 10 -20 7 -9 -11 12 -19 3 -23 -34 -16 -43 8 -49 3 -40 -30 7 -27 3 -36 -13 -26 -13 8 -28 1 -34 -15 -7 -17 -27 -24 -51 -18 -35 9 -36 12 -6 34 44 32 -104 90 -266 103 l-116 10 60 -35 c33 -19 74 -33 90 -30 26 4 26 2 1 -15 -19 -12 -42 -12 -66 1 -20 10 -54 14 -76 7 -22 -7 -39 -3 -39 9 0 11 -29 21 -65 22 -68 0 -58 5 225 96 l70 22 -90 -8 -90 -8 90 29 c50 16 107 25 127 20 70 -17 103 11 50 42 -35 22 -37 25 -7 16 22 -8 72 -18 110 -24 39 -7 81 -20 95 -31 14 -11 25 -13 25 -5 0 8 15 3 33 -13 27 -22 35 -22 42 -1 7 20 21 18 62 -8 l53 -34 -38 43 c-26 29 -52 39 -78 31 -28 -9 -35 -5 -23 13 9 14 7 20 -4 13 -10 -6 -32 -3 -48 7 -50 31 107 22 203 -12 94 -33 190 -24 165 16 -11 17 -16 17 -22 -1 -6 -18 -15 -18 -36 1 -64 58 -88 75 -104 75 -10 0 -35 14 -56 30 -36 28 -35 29 17 10 31 -11 61 -20 66 -20z m-362 -20 c-7 -11 -43 -20 -81 -20 -38 0 -69 -9 -69 -20 0 -26 -54 -26 -70 0 -7 12 -6 19 4 17 9 -2 30 2 46 8 65 25 92 32 136 33 26 1 41 -7 34 -18z m1331 -360 c1 17 9 11 20 -15 18 -46 57 -58 90 -28 10 10 51 23 89 30 l70 12 -80 -50 c-75 -48 -77 -50 -20 -37 33 7 63 16 66 19 3 2 46 -7 94 -22 54 -16 90 -19 94 -7 6 18 93 -5 276 -75 l70 -26 -100 4 c-55 3 -109 17 -121 32 -13 16 -71 29 -150 32 -71 3 -111 2 -89 -3 22 -6 46 -16 54 -23 18 -17 -176 -13 -257 5 -41 9 -71 5 -90 -12 -15 -14 -45 -28 -67 -30 -35 -3 -34 1 10 37 l50 40 -50 -14 c-27 -7 -59 -21 -69 -31 -10 -10 -28 -18 -40 -18 -12 0 -7 10 9 20 22 15 9 18 -46 12 -122 -15 -78 35 48 54 156 23 176 32 133 56 -19 11 -35 31 -35 44 0 15 8 12 20 -6 17 -27 20 -27 21 0z m-279 -68 c-12 -14 -16 -32 -8 -39 7 -7 -7 -13 -31 -13 -73 0 -57 69 18 75 32 2 37 -3 21 -23z m-1633 -231 c6 -9 -12 -22 -39 -29 -55 -14 -150 4 -150 28 0 21 176 22 189 1z m-241 -166 c-51 -60 -94 -94 -118 -94 -11 0 14 31 55 70 84 78 121 92 63 24z m2682 -431 c-10 -53 -18 -64 -31 -43 -26 40 -24 104 2 88 12 -7 20 -1 18 14 -8 58 6 111 15 59 5 -26 3 -79 -4 -118z m105 131 c49 -63 48 -135 -2 -135 -38 0 -50 12 -57 57 -14 94 15 133 59 78z m0 -199 c-3 -13 13 -25 35 -25 26 -1 39 -14 37 -37 -2 -28 3 -31 25 -12 15 12 28 15 28 4 0 -10 14 -36 31 -57 30 -37 30 -37 9 6 -12 25 -18 45 -14 45 99 0 239 -82 191 -112 -15 -9 -18 -5 -7 12 12 20 7 23 -18 13 -20 -7 -43 -13 -53 -13 -10 0 -13 -13 -6 -30 16 -42 -27 -38 -51 5 -12 19 -21 25 -21 12 -1 -36 -146 -9 -187 35 -19 21 -45 38 -57 38 -14 0 -13 10 3 30 13 16 33 25 42 19 10 -6 18 -2 18 9 0 11 -9 25 -20 32 -12 7 -15 21 -9 31 16 27 30 24 24 -5z"/>
    <path d="M3100 5482 c0 -10 15 -23 32 -30 26 -10 28 -18 9 -41 -18 -21 -37 -24 -73 -10 -67 25 -60 6 11 -31 55 -28 61 -28 80 9 30 55 26 95 -11 109 -42 16 -48 15 -48 -6z"/>
    <path d="M4643 5802 c-15 -9 -44 -13 -65 -7 -26 6 -38 -1 -38 -23 0 -17 12 -32 26 -32 15 0 62 -27 105 -59 44 -33 93 -60 109 -59 19 1 16 7 -10 17 -35 14 -31 19 30 37 51 15 58 21 25 22 -26 1 -45 15 -45 32 0 20 -20 30 -59 30 -45 0 -57 7 -48 30 13 34 8 36 -30 12z"/>
    <path d="M4860 5750 c0 -16 17 -30 39 -30 21 0 45 -10 52 -22 10 -15 0 -18 -28 -9 -28 9 -43 5 -43 -10 0 -16 20 -20 62 -12 34 7 79 3 100 -8 21 -11 38 -13 38 -4 0 25 -77 85 -109 85 -16 0 -34 9 -41 20 -19 31 -70 24 -70 -10z"/>
    <path d="M4940 5621 l50 -17 -45 -15 c-25 -7 -45 -27 -45 -43 0 -21 11 -26 35 -16 79 33 175 47 204 29 24 -13 17 -18 -29 -18 -59 -1 -59 -2 40 -73 55 -39 98 -79 96 -88 -3 -9 13 -11 34 -6 22 6 34 21 28 33 -6 13 6 1 28 -25 25 -31 51 -44 71 -36 30 12 43 -7 35 -52 -2 -10 6 -12 16 -5 17 10 108 -96 114 -134 2 -8 4 -22 6 -31 4 -26 182 -145 182 -122 0 11 -49 73 -110 136 -60 64 -110 125 -110 136 0 12 -20 35 -45 51 -45 31 -45 31 11 20 30 -5 68 -29 85 -52 16 -23 29 -34 29 -25 0 9 41 -27 90 -79 50 -52 90 -112 90 -133 0 -21 9 -33 20 -26 26 16 26 -16 -1 -43 -24 -24 22 -160 84 -250 20 -29 37 -62 37 -73 0 -10 14 -30 30 -44 49 -40 -56 287 -111 348 -9 9 -8 39 2 66 12 30 12 44 0 37 -10 -7 -30 8 -43 33 -22 42 -22 44 9 18 29 -24 32 -24 22 4 -7 17 -25 36 -41 42 -15 6 -28 21 -28 33 0 12 10 15 23 7 15 -9 18 -5 9 9 -8 13 -23 19 -33 13 -9 -6 -32 11 -50 38 -17 27 -44 45 -58 39 -15 -5 -34 1 -42 15 -10 16 -7 19 11 8 17 -11 21 -8 12 7 -8 13 -23 18 -34 12 -10 -7 -35 5 -54 25 -19 21 -26 26 -17 12 11 -16 10 -26 -3 -26 -12 0 -27 9 -34 20 -7 12 -20 16 -30 10 -23 -14 -120 24 -120 48 0 10 20 14 45 8 36 -8 39 -5 15 12 -16 12 -47 16 -67 10 -56 -18 -187 11 -152 33 16 10 19 19 7 19 -12 0 -32 20 -45 45 -14 25 -44 46 -69 47 -24 0 -80 7 -124 14 -59 10 -67 8 -30 -5z"/>
    <path d="M5255 5249 c51 -35 43 -75 -10 -54 -30 11 -30 9 -4 -19 17 -19 34 -24 42 -12 7 13 17 12 26 -3 8 -12 49 -36 90 -53 42 -17 105 -67 141 -111 37 -46 75 -75 92 -69 15 6 36 -5 47 -24 17 -30 20 -28 20 11 1 25 -6 45 -15 45 -8 0 -32 28 -52 62 -25 43 -47 59 -73 52 -21 -6 -49 4 -63 22 -20 24 -20 28 -1 17 14 -9 25 -7 25 3 0 20 -77 94 -97 94 -7 0 -10 9 -6 20 3 11 0 13 -8 5 -9 -8 -28 -4 -43 9 -16 12 -57 26 -92 30 -64 7 -64 7 -19 -25z"/>
    <path d="M5892 5011 c7 -17 20 -31 30 -31 10 0 18 -10 18 -21 0 -12 14 -35 30 -52 17 -16 30 -21 30 -10 0 12 -10 27 -22 34 -15 10 -16 18 -1 27 29 18 2 54 -52 71 -35 11 -42 7 -33 -18z"/>
    <path d="M5411 4982 c-16 -26 54 -63 84 -45 13 8 17 23 9 34 -20 27 -79 34 -93 11z"/>
    <path d="M4993 4895 c7 -36 20 -80 30 -99 9 -18 17 -53 17 -76 0 -67 133 -218 181 -206 21 6 39 20 39 32 0 11 23 0 50 -26 37 -35 44 -51 25 -63 -19 -12 -19 -21 3 -41 17 -16 23 -17 15 -2 -19 33 21 53 41 20 9 -15 31 -32 48 -39 18 -6 38 -31 44 -55 11 -43 10 -43 -31 -7 -41 35 -41 34 3 -28 43 -62 80 -92 50 -40 -8 14 -7 18 2 10 9 -8 19 -38 22 -67 6 -52 5 -52 -38 -16 -24 20 -4 -5 45 -57 49 -52 93 -90 98 -85 5 5 21 0 36 -13 59 -48 25 24 -43 92 -38 38 -70 87 -70 109 0 22 -9 45 -20 52 -11 7 -20 25 -20 41 0 31 -81 122 -103 115 -38 -13 -77 71 -57 123 11 30 14 65 6 77 -9 15 -18 8 -25 -20 -11 -43 -13 -42 -91 25 -70 61 -81 65 -93 34 -8 -19 -15 -23 -16 -9 0 15 -12 20 -26 12 -14 -8 -18 -7 -10 2 8 9 5 28 -7 43 -13 15 -17 40 -11 56 7 19 1 25 -18 18 -21 -8 -29 4 -29 44 l0 55 60 -63 c33 -34 60 -55 60 -45 0 17 -151 162 -170 162 -5 0 -3 -29 3 -65z"/>
    <path d="M5245 4806 c31 -32 50 -65 42 -72 -16 -16 32 -77 52 -65 26 17 128 -67 135 -110 6 -42 5 -43 -44 -11 -27 18 -50 24 -50 12 0 -11 7 -20 16 -20 9 0 43 -37 75 -82 33 -45 93 -116 134 -158 41 -42 84 -100 95 -129 12 -33 29 -48 43 -39 14 9 18 5 9 -9 -15 -24 46 -172 63 -154 6 5 -1 24 -15 41 -21 25 -21 37 -2 56 14 13 23 15 20 4 -7 -27 159 -200 175 -183 8 7 3 33 -10 58 -87 167 -117 214 -129 202 -15 -15 -94 67 -94 97 0 10 -8 14 -17 8 -24 -15 -171 148 -180 198 -3 22 -28 78 -55 125 -34 58 -41 85 -24 86 16 0 11 12 -12 29 -27 21 -46 23 -64 9 -17 -15 -28 -14 -37 0 -8 12 -3 21 9 21 14 0 12 10 -4 28 -14 15 -32 24 -39 20 -7 -4 -24 6 -38 23 -14 17 -44 41 -67 53 -33 17 -31 9 13 -38z"/>
    <path d="M3676 4672 c-41 -15 -77 -26 -81 -24 -3 1 7 -9 23 -22 15 -14 37 -19 48 -12 13 7 16 -5 9 -32 -10 -37 -1 -49 51 -67 63 -22 89 -19 79 10 -9 28 36 15 47 -14 6 -16 25 -23 42 -17 21 8 7 22 -47 47 -42 20 -83 32 -90 27 -8 -5 -20 10 -27 32 -7 22 -23 40 -35 40 -12 0 -17 5 -10 11 12 13 97 -30 120 -61 8 -11 15 -6 15 13 0 18 -15 39 -34 46 -30 11 -31 16 -5 32 45 28 -14 23 -105 -9z"/>
    <path d="M3485 4655 c-11 -14 -25 -56 -32 -95 -10 -59 -8 -65 13 -37 14 18 48 37 75 42 45 9 44 10 -10 12 l-59 3 44 41 c24 22 44 45 44 50 0 20 -56 8 -75 -16z"/>
    <path d="M5860 4630 c0 -44 101 -191 122 -178 10 5 17 21 16 34 -1 15 -5 14 -12 -3 -15 -37 -86 72 -86 132 0 25 -9 45 -20 45 -11 0 -20 -14 -20 -30z"/>
    <path d="M2703 4462 c-20 -12 -13 -20 26 -30 29 -7 47 -22 41 -33 -7 -10 -3 -19 8 -19 39 0 39 33 1 66 -46 39 -41 38 -76 16z"/>
    <path d="M3027 4415 c-30 -48 -26 -88 4 -46 26 35 39 29 31 -15 -2 -10 5 -12 16 -5 21 13 5 91 -19 91 -9 0 -24 -11 -32 -25z"/>
    <path d="M4342 4375 c-1 -30 -2 -61 -3 -69 0 -7 14 -16 31 -18 16 -2 25 4 18 15 -7 11 -20 44 -28 74 l-17 53 -1 -55z"/>
    <path d="M3166 4375 c-39 -50 -46 -72 -26 -85 11 -7 29 12 41 42 23 60 15 82 -15 43z"/>
    <path d="M4610 4380 c22 -9 29 -18 15 -19 -14 0 -25 -10 -25 -21 0 -11 7 -18 15 -16 8 2 44 -11 80 -30 36 -19 65 -26 65 -15 0 12 -9 21 -20 21 -11 0 -20 19 -20 41 0 23 -9 36 -20 29 -12 -7 -15 -21 -9 -31 6 -11 3 -19 -7 -19 -11 0 -24 18 -30 40 -6 23 -26 39 -47 39 -34 -2 -34 -3 3 -19z"/>
    <path d="M3721 4336 c0 -21 -12 -31 -29 -24 -15 6 -34 1 -41 -11 -8 -12 4 -21 29 -21 24 0 37 -9 30 -21 -9 -13 6 -16 43 -7 94 22 105 34 66 75 -35 36 -36 36 -25 -5 14 -56 -22 -54 -50 3 -16 35 -22 37 -23 11z"/>
    <path d="M3049 4259 c-6 -11 2 -25 19 -31 24 -9 26 -21 12 -49 -11 -20 -19 -48 -18 -63 0 -14 10 -1 21 30 16 42 30 53 59 43 59 -18 45 17 -22 55 -34 19 -64 26 -71 15z"/>
    <path d="M4233 4267 c-23 -23 -14 -47 17 -47 17 0 30 -13 30 -30 0 -16 9 -30 20 -30 37 0 20 57 -20 70 -22 7 -35 21 -29 31 13 22 2 25 -18 6z"/>
    <path d="M4550 4220 c7 -11 -2 -20 -19 -20 -38 0 -41 -37 -4 -52 17 -6 23 -29 17 -62 -6 -31 -2 -47 10 -40 23 14 21 73 -3 113 -13 21 -7 25 24 16 48 -12 41 34 -8 53 -16 7 -24 3 -17 -8z"/>
    <path d="M4728 4217 c-9 -14 -5 -18 9 -9 14 9 33 -8 48 -41 47 -103 151 -194 117 -102 -9 25 -12 56 -7 70 5 16 -3 21 -23 13 -21 -8 -39 5 -55 40 -25 55 -65 68 -89 29z"/>
    <path d="M4414 4167 c13 -5 20 -20 15 -33 -5 -13 8 -35 29 -48 31 -19 37 -19 34 3 -5 38 -53 91 -79 89 -16 -1 -15 -4 1 -11z"/>
    <path d="M2750 4060 c7 -11 -2 -20 -19 -20 -36 0 -42 -51 -8 -72 16 -10 20 -4 11 18 -8 21 1 36 27 44 39 13 36 50 -3 50 -11 0 -15 -9 -8 -20z"/>
    <path d="M4659 4038 c-25 -17 -25 -19 1 -16 60 6 79 -3 68 -31 -12 -31 104 -149 147 -150 33 -1 32 -17 -6 -54 -36 -37 -78 -24 -108 32 -25 46 -4 55 38 16 20 -19 23 -19 13 -1 -7 14 -46 40 -85 59 -38 18 -78 52 -86 76 -9 23 -35 44 -58 45 -28 2 -37 -6 -30 -25 6 -16 20 -23 31 -16 32 20 55 -37 32 -80 -17 -32 -15 -37 12 -27 17 7 32 4 32 -6 0 -23 121 -137 160 -150 17 -6 57 -55 89 -110 55 -93 74 -109 117 -102 10 2 11 -6 4 -18 -7 -11 -21 -16 -31 -9 -23 14 -2 -45 37 -106 23 -36 23 -45 2 -45 -20 0 -21 -5 -2 -24 35 -35 29 -72 -11 -69 -35 3 -49 -41 -24 -77 17 -24 13 -92 -7 -124 -8 -13 -6 -29 6 -36 24 -15 27 -130 3 -130 -22 0 -45 -132 -30 -171 18 -47 85 -37 73 11 -12 43 22 55 46 16 21 -33 23 -116 4 -116 -9 0 -16 9 -16 20 0 11 -10 20 -21 20 -12 0 -16 -9 -9 -20 7 -11 3 -20 -9 -20 -11 0 -21 10 -21 23 0 13 -4 19 -10 14 -5 -5 -2 -37 8 -70 11 -37 10 -74 -3 -96 -14 -26 -14 -33 2 -23 14 9 23 -1 23 -27 0 -45 -30 -55 -48 -16 -7 14 -8 2 -3 -26 12 -63 -8 -142 -31 -128 -10 6 -18 3 -18 -8 0 -25 64 -49 78 -29 7 9 30 18 52 22 36 4 36 2 8 -20 -17 -15 -28 -37 -23 -51 5 -14 -6 -25 -25 -25 -19 0 -27 10 -20 25 7 14 -8 2 -35 -27 -27 -29 -61 -57 -77 -64 -21 -8 -19 -11 7 -12 19 -1 35 -16 35 -33 0 -17 -8 -26 -19 -20 -10 6 -24 3 -31 -9 -7 -11 6 -20 29 -20 22 0 41 -9 41 -20 0 -11 9 -20 20 -20 12 0 12 18 0 50 -10 28 -12 51 -5 53 83 14 104 10 83 -16 -17 -20 -17 -27 0 -27 12 0 23 -20 24 -45 2 -41 4 -41 12 -5 17 68 40 75 42 11 1 -33 6 -69 12 -78 15 -25 209 -87 230 -74 19 11 13 -52 -18 -199 -11 -55 -23 -131 -27 -170 -3 -38 -13 -86 -22 -105 -10 -22 -7 -35 8 -35 13 0 18 -9 11 -20 -7 -12 -19 -17 -26 -12 -8 4 -15 -15 -17 -43 -2 -36 2 -43 14 -24 9 15 21 24 26 18 19 -19 -24 -305 -48 -320 -14 -8 -19 -29 -13 -46 7 -18 1 -43 -12 -57 -13 -14 -24 -51 -25 -81 -1 -73 47 -29 63 56 6 33 24 80 41 106 23 36 24 44 4 33 -21 -13 -22 -10 -3 10 32 34 86 -19 85 -84 0 -41 -3 -43 -26 -12 -23 30 -27 30 -51 -8 -14 -22 -15 -34 -3 -27 28 18 27 10 -11 -81 -23 -55 -26 -79 -9 -84 16 -6 13 -24 -10 -59 -28 -42 -29 -49 -4 -40 22 9 28 -1 22 -42 -13 -96 -19 -122 -32 -135 -16 -16 34 -68 65 -68 12 0 16 10 9 22 -8 12 -5 28 6 35 35 22 39 154 4 148 -19 -4 -16 6 11 30 42 37 52 86 22 108 -9 7 -4 40 13 73 17 33 26 86 20 117 -9 53 -5 50 58 -32 37 -50 67 -95 68 -100 0 -6 17 -36 38 -67 52 -78 44 -152 -28 -265 -33 -53 -61 -113 -61 -132 0 -19 -11 -42 -25 -51 -23 -15 -115 -136 -115 -151 0 -66 91 10 153 129 112 212 227 352 283 343 65 -10 76 39 36 166 -23 74 -28 117 -15 133 14 17 7 25 -25 27 -38 2 -44 -6 -36 -45 5 -27 17 -48 26 -48 10 0 18 -27 18 -60 0 -40 -10 -60 -30 -60 -17 0 -30 -18 -30 -43 0 -87 -20 -21 -28 94 -4 65 -18 121 -29 125 -11 3 -16 18 -11 33 6 14 -17 53 -51 87 l-62 62 -30 -46 c-16 -26 -24 -61 -17 -79 7 -18 4 -33 -6 -33 -37 0 -21 85 35 192 33 62 58 127 58 145 -1 18 -15 -3 -31 -47 -16 -44 -44 -93 -61 -110 -29 -27 -29 -26 -9 15 13 24 17 67 10 94 -8 34 2 74 30 122 23 39 42 84 42 98 0 15 11 31 24 36 15 5 17 21 6 46 -9 22 -15 46 -13 54 3 14 -14 18 -50 13 -7 -1 -20 11 -30 25 -11 18 -15 9 -13 -27 3 -39 11 -48 28 -34 15 12 29 13 36 1 6 -10 -2 -30 -18 -43 -17 -14 -30 -36 -30 -49 0 -13 -28 -50 -63 -82 -50 -46 -60 -50 -48 -19 9 22 16 51 17 64 0 13 8 20 17 14 10 -6 17 -2 17 9 0 11 5 36 12 56 9 28 7 30 -8 9 -27 -37 -68 -8 -54 39 7 20 39 66 72 101 33 35 55 76 50 90 -10 27 71 159 126 204 17 15 21 21 7 14 -39 -20 -29 20 15 60 22 20 40 47 40 60 0 25 63 90 87 90 8 0 5 -18 -7 -40 -12 -22 -13 -40 -3 -40 10 0 25 23 32 52 8 34 23 48 41 41 64 -25 110 92 110 280 l0 177 -51 -90 c-201 -355 -680 -629 -751 -431 -14 38 -34 64 -45 57 -11 -7 -13 10 -5 46 8 32 14 74 14 93 0 19 9 35 19 35 10 0 13 13 6 29 -6 17 -21 28 -34 25 -14 -2 -20 18 -16 51 3 30 -2 55 -12 55 -10 0 -18 14 -18 30 0 17 9 30 20 30 11 0 3 13 -18 28 -21 16 -32 36 -23 45 9 9 25 3 36 -14 13 -20 15 -12 6 29 -9 36 -6 53 6 46 11 -7 21 17 22 58 2 38 8 78 14 89 7 10 3 36 -9 57 -15 28 -14 41 3 47 20 6 42 155 24 155 -3 0 -20 -15 -38 -33 -24 -24 -38 -27 -55 -10 -36 36 -1 52 155 73 132 18 182 33 230 71 254 199 345 221 450 110 l70 -74 0 163 c0 122 -6 161 -25 155 -15 -5 -22 -33 -18 -67 l6 -58 -51 69 c-29 38 -52 77 -52 86 0 10 -9 12 -20 5 -11 -7 -20 0 -20 16 0 29 -65 114 -87 114 -7 0 -13 -13 -13 -30 0 -16 13 -30 28 -30 18 0 25 -14 18 -40 -6 -22 0 -53 13 -69 19 -23 16 -26 -18 -17 -34 9 -39 4 -30 -27 7 -20 -11 -1 -39 43 -29 44 -52 72 -52 63 0 -10 -12 -8 -28 5 -16 14 -63 19 -115 13 -56 -7 -77 -4 -59 7 16 10 40 14 53 9 14 -5 31 -1 38 11 8 13 -33 18 -118 15 -72 -3 -131 2 -131 11 0 9 -13 16 -28 16 -16 0 -33 11 -39 25 -8 19 -15 18 -30 -4 -11 -16 -16 -36 -11 -44 5 -8 0 -20 -12 -27 -11 -7 -20 1 -20 16 0 16 -13 40 -30 54 -40 33 -38 60 3 60 19 0 50 15 70 32 23 22 48 27 71 17 20 -9 45 -18 56 -19 22 -4 119 -43 175 -72 45 -24 45 -8 -1 38 -20 20 -46 33 -58 29 -12 -4 -51 25 -88 64 -37 39 -78 71 -91 71 -13 0 -28 11 -34 25 -5 14 -11 3 -13 -25 -3 -46 -4 -47 -20 -10 -9 22 -18 32 -19 23 0 -10 -12 -9 -26 1 -41 32 -95 46 -95 25 0 -10 13 -19 29 -19 16 0 35 -10 42 -22 10 -15 0 -18 -31 -8 -31 10 -41 7 -31 -8 7 -12 26 -22 42 -22 16 0 29 -9 29 -20 0 -11 14 -20 30 -20 17 0 30 -8 30 -18 0 -27 -79 -41 -127 -22 -24 10 -35 18 -25 19 10 0 2 19 -18 41 -19 21 -45 33 -58 26 -12 -7 -15 -5 -7 4 8 9 4 31 -9 48 -20 27 -20 28 4 7 44 -39 85 -31 70 14 -10 33 -4 37 54 30 48 -6 58 -3 36 11 -16 11 -46 20 -65 20 -19 0 -45 17 -58 38 -20 31 -34 35 -73 20 -38 -15 -67 -8 -133 30 -59 35 -92 44 -112 30z m532 -577 c-6 -10 8 -32 33 -50 25 -17 33 -31 18 -31 -17 0 -6 -27 30 -75 31 -41 40 -62 21 -46 -31 25 -39 25 -56 0 -14 -22 -16 -17 -7 16 12 41 8 43 -37 26 -50 -19 -153 74 -153 138 0 48 38 16 68 -59 37 -93 57 -103 51 -25 -6 92 0 125 22 125 12 0 16 -8 10 -19z m411 -10 c2 -12 2 -27 1 -34 -1 -7 12 -18 29 -25 17 -7 25 -3 18 8 -7 11 -3 20 9 20 25 0 27 -20 5 -54 -16 -26 -46 -24 -124 8 -27 12 -79 16 -115 11 -42 -6 -65 -1 -65 14 0 13 -11 17 -25 9 -20 -11 -20 -8 -1 12 18 19 31 20 50 5 36 -30 62 -25 92 17 27 39 122 45 126 9z m-93 -131 c70 -26 64 -69 -11 -74 -71 -5 -185 46 -167 75 15 25 112 24 178 -1z m-189 -122 c0 -10 -22 -18 -50 -18 -52 0 -69 30 -25 45 32 12 75 -4 75 -27z m221 -1447 c-25 -50 -54 -91 -65 -91 -12 0 -11 12 4 30 14 17 20 36 13 43 -6 7 7 39 30 71 59 83 69 54 18 -53z m-41 -651 c0 -21 -20 -49 -45 -62 -37 -19 -41 -18 -20 4 14 14 25 47 25 73 0 27 9 42 20 35 11 -7 20 -30 20 -50z"/>
    <path d="M4174 3947 c-18 -17 8 -68 28 -56 10 6 18 -3 18 -20 0 -17 0 -38 1 -46 1 -8 24 -27 51 -41 44 -23 47 -31 24 -59 -21 -26 -21 -29 0 -17 14 8 37 6 52 -6 19 -16 25 -14 25 7 0 16 -7 25 -16 19 -9 -6 -15 10 -12 36 4 34 -6 48 -40 52 -25 4 -40 15 -34 25 6 11 1 19 -12 19 -13 0 -18 13 -12 30 12 29 -51 79 -73 57z"/>
    <path d="M4500 3942 c0 -32 51 -60 78 -43 22 13 18 21 -14 39 -50 27 -64 28 -64 4z"/>
    <path d="M4052 3808 c-29 -76 -16 -91 50 -57 34 18 59 35 55 38 -46 38 -94 47 -105 19z"/>
    <path d="M2092 3729 c-7 -20 -3 -26 11 -17 14 9 18 5 9 -9 -8 -13 -27 -23 -43 -23 -16 0 -29 -17 -29 -38 0 -21 -18 -42 -42 -48 -41 -11 -41 -10 -5 30 20 23 28 38 17 32 -11 -5 -49 -22 -85 -37 -36 -15 -66 -42 -68 -58 -8 -84 -6 -161 5 -161 7 0 8 -24 2 -53 -6 -34 -2 -48 11 -40 43 26 108 -223 75 -287 -16 -30 -23 -60 -17 -66 6 -6 3 -23 -6 -38 -9 -14 -18 -44 -19 -66 -3 -55 -29 -112 -46 -101 -14 9 -10 -300 5 -379 4 -22 -3 -47 -15 -55 -15 -10 -15 -20 -1 -30 11 -8 19 -28 18 -45 -1 -16 5 -39 14 -51 8 -11 12 -38 9 -59 -3 -21 18 -106 48 -189 29 -83 49 -163 45 -176 -5 -14 2 -25 15 -25 12 0 16 -10 9 -21 -7 -12 4 -35 24 -52 20 -16 26 -24 12 -17 -14 7 -25 3 -25 -9 0 -35 9 -51 25 -46 9 3 14 -21 11 -54 -2 -33 11 -75 30 -96 19 -21 29 -43 22 -50 -6 -6 -1 -31 12 -56 13 -24 16 -39 6 -33 -10 6 -19 -8 -21 -32 -2 -26 3 -34 11 -20 10 16 25 18 45 5 16 -10 21 -19 12 -19 -10 0 -7 -13 7 -30 14 -16 18 -30 9 -30 -8 0 2 -19 23 -42 21 -23 36 -46 33 -50 -15 -23 -2 -48 18 -36 13 8 18 6 12 -4 -6 -10 5 -51 24 -92 24 -48 29 -80 16 -93 -13 -13 -5 -35 23 -65 23 -26 39 -56 36 -67 -4 -12 7 -33 24 -47 18 -15 22 -22 9 -15 -18 8 -18 -1 0 -39 13 -27 30 -50 38 -50 8 0 15 -14 15 -31 0 -19 9 -26 23 -17 16 10 20 4 12 -17 -12 -29 33 -66 70 -58 8 2 15 -8 16 -22 1 -37 96 -100 131 -87 16 6 35 -2 41 -18 6 -16 19 -25 29 -19 10 6 18 -2 18 -18 0 -19 13 -26 40 -19 22 6 34 21 28 33 -6 13 1 9 16 -9 14 -17 37 -28 51 -23 14 5 26 -8 26 -28 1 -28 6 -25 22 13 l21 50 17 -45 c10 -25 23 -45 30 -45 6 0 6 9 -1 20 -7 11 -4 20 7 20 11 0 34 5 51 12 25 10 32 -2 32 -54 0 -105 90 -218 173 -218 91 0 85 24 -49 198 -121 158 -134 165 -430 251 -169 49 -254 143 -312 345 -25 86 -91 246 -146 355 -64 127 -120 281 -157 427 -32 125 -80 297 -107 382 -101 319 -114 585 -43 855 48 182 47 287 -4 353 -36 47 -66 242 -47 308 13 45 12 67 -5 73 -48 20 49 12 198 -17 85 -16 161 -25 169 -20 8 5 50 -23 92 -62 49 -45 63 -66 38 -58 -108 37 -260 33 -325 -8 -73 -46 -82 -75 -30 -88 23 -6 17 -10 -17 -12 -55 -2 -69 -70 -21 -100 14 -9 22 -27 19 -42 -3 -14 19 -32 49 -41 54 -15 55 -14 55 73 0 126 86 120 104 -8 13 -88 -30 -72 -46 18 l-13 68 -2 -65 c-4 -78 58 -151 112 -131 49 19 84 68 84 121 1 56 21 57 88 4 67 -53 67 -75 -1 -101 -43 -16 -48 -24 -26 -38 22 -14 16 -22 -27 -39 -31 -12 -86 -44 -124 -73 -37 -28 -79 -48 -93 -43 -52 19 -98 -23 -75 -68 12 -22 27 -35 33 -29 7 6 1 24 -11 39 -20 23 -10 28 54 26 43 -1 112 16 153 37 60 32 78 34 85 13 11 -31 164 269 165 322 1 103 -120 318 -170 302 -44 -14 -76 27 -51 66 21 32 22 32 13 2 -7 -22 0 -35 19 -35 35 0 36 9 5 59 -19 30 -32 34 -62 18 -27 -15 -35 -15 -26 0 18 29 -64 81 -113 72 -22 -4 -71 6 -110 22 -88 36 -98 36 -113 -2z m384 -387 c79 -40 165 -122 128 -122 -12 0 -64 23 -116 50 -70 37 -125 50 -216 51 -112 0 -119 3 -83 30 54 41 198 36 287 -9z"/>
    <path d="M3196 3699 c-64 -64 -101 -64 -61 0 19 32 17 35 -17 26 -33 -8 -37 -22 -27 -82 11 -69 10 -70 -15 -25 -28 52 -88 73 -102 35 -10 -28 54 -137 78 -133 50 9 22 -42 -29 -52 -41 -9 -63 -27 -72 -61 -15 -59 0 -89 38 -75 35 14 131 -69 131 -113 0 -35 89 -33 111 3 6 10 25 18 42 18 24 0 22 -10 -11 -52 -44 -55 -40 -88 10 -88 17 0 25 8 19 18 -6 9 7 22 28 28 21 5 52 42 69 82 38 91 66 93 56 4 -10 -86 54 -161 122 -141 56 16 114 83 114 131 0 45 2 45 70 15 28 -13 70 -55 94 -93 l43 -70 37 46 c21 26 33 59 28 73 -11 29 24 35 76 15 42 -16 41 -43 -2 -52 -30 -5 -30 -9 3 -42 34 -35 35 -40 1 -113 -19 -43 -30 -90 -24 -104 7 -18 11 -15 12 9 1 23 11 31 25 22 16 -10 19 -3 10 22 -12 30 -9 32 17 10 26 -22 29 -20 18 9 -20 50 31 131 82 131 25 0 43 13 43 30 0 17 -7 30 -16 30 -9 0 -17 13 -17 29 0 18 -12 25 -30 18 -38 -14 -38 2 0 40 19 19 23 35 10 43 -11 7 -20 5 -20 -4 0 -50 -190 -23 -308 44 -249 139 -520 137 -582 -5 -11 -25 -26 -45 -35 -45 -23 0 -95 124 -83 143 6 9 -4 11 -21 5 -40 -16 -41 39 -1 72 17 14 30 36 30 50 0 16 23 23 61 20 48 -4 59 1 50 25 -10 25 -7 26 18 6 17 -14 25 -35 18 -46 -7 -12 -4 -15 9 -8 44 28 341 16 446 -18 29 -9 39 -6 29 9 -9 15 12 22 63 21 61 -2 68 -5 36 -19 -32 -14 -25 -17 36 -19 49 0 72 -9 63 -22 -7 -13 4 -11 27 3 33 21 45 19 73 -8 19 -19 48 -34 66 -34 17 0 50 -16 72 -35 23 -21 33 -23 23 -7 -11 19 -9 24 7 14 13 -8 23 -32 23 -53 0 -22 9 -39 20 -39 67 0 -13 143 -95 168 -25 8 -59 29 -76 46 -50 50 -299 170 -257 124 42 -47 23 -49 -43 -6 -27 18 -49 26 -49 18 0 -8 -22 0 -50 18 -27 18 -50 28 -50 22 0 -6 -19 -1 -42 11 -24 13 -38 15 -33 6 6 -9 -2 -29 -17 -43 -23 -21 -28 -21 -28 2 0 19 -34 33 -105 41 -162 20 -174 17 -239 -48z m551 -28 c42 -12 50 -21 30 -33 -37 -24 -62 -22 -47 2 12 19 -25 28 -93 21 -19 -1 -38 4 -43 13 -13 20 77 18 153 -3z m-63 -302 c51 -17 108 -49 128 -71 36 -40 35 -40 -58 0 -52 22 -139 47 -194 54 -55 7 -100 21 -100 31 0 27 125 20 224 -14z"/>
    <path d="M4153 3706 c26 -104 60 -154 73 -107 13 52 -5 124 -28 110 -10 -6 -18 3 -18 20 0 17 -9 31 -20 31 -13 0 -15 -22 -7 -54z"/>
    <path d="M4286 3631 c-19 -22 -19 -32 3 -50 20 -17 29 -14 39 10 26 70 3 92 -42 40z"/>
    <path d="M4498 3542 l-52 -59 45 -24 c47 -24 50 -83 9 -158 -10 -19 -10 -45 1 -62 15 -23 18 -22 19 9 0 22 15 55 33 75 21 24 26 45 14 62 -10 14 -17 68 -15 120 2 52 2 95 0 95 -2 0 -26 -26 -54 -58z"/>
    <path d="M5933 3528 c-28 -38 -32 -57 -15 -74 28 -28 52 -3 70 71 16 69 -6 70 -55 3z"/>
    <path d="M4420 3379 c0 -53 -5 -58 -37 -41 -25 14 -44 13 -60 -3 -33 -33 -28 -52 12 -46 19 3 51 -8 70 -25 19 -16 36 -22 38 -12 12 89 10 188 -5 188 -10 0 -18 -27 -18 -61z"/>
    <path d="M3098 3155 c-2 -8 -4 -24 -5 -34 -2 -11 -19 -38 -38 -60 -27 -32 -28 -41 -6 -41 15 0 32 11 38 25 8 20 10 20 11 0 2 -28 62 -35 62 -7 0 24 -59 135 -62 117z"/>
    <path d="M5633 3060 c-70 -64 -96 -108 -134 -230 -50 -158 -95 -193 -139 -110 -18 34 -80 58 -80 31 0 -30 55 -125 85 -147 39 -29 47 -94 14 -115 -11 -7 -44 -50 -73 -96 -29 -46 -67 -93 -84 -106 -28 -21 -28 -28 6 -65 50 -55 69 -53 57 6 -7 37 2 51 38 61 120 34 181 91 97 91 -22 0 -40 8 -40 19 0 31 85 81 137 81 40 0 45 7 33 45 -66 205 -22 276 85 137 87 -113 85 -173 -5 -216 -56 -27 -67 -41 -58 -78 9 -36 -4 -56 -73 -101 -99 -65 -80 -82 43 -37 49 18 115 41 149 51 154 47 285 305 302 598 l9 151 -74 55 c-109 81 -188 74 -295 -25z m287 -10 c30 -27 37 -55 30 -127 -4 -51 -9 -115 -11 -143 -3 -58 -24 4 -48 143 -17 103 -75 123 -61 21 5 -41 13 -101 18 -134 4 -33 17 -83 28 -111 63 -161 -134 -454 -255 -380 -27 17 -31 12 94 112 36 29 65 69 65 90 0 20 10 43 23 51 14 9 4 24 -30 42 -48 25 -63 56 -55 119 1 12 -34 37 -78 55 -101 40 -112 68 -65 154 81 144 247 196 345 108z"/>
    <path d="M2837 3037 c-42 -75 -36 -131 12 -122 32 6 41 23 40 75 0 88 -19 105 -52 47z"/>
    <path d="M3293 3034 c-54 -23 -55 -26 -20 -55 76 -64 170 -78 403 -62 90 6 20 43 -82 44 -60 0 -121 13 -143 30 -21 16 -55 29 -76 29 -21 0 -32 9 -25 20 15 24 14 24 -57 -6z"/>
    <path d="M2233 2990 c14 -37 23 -37 87 0 l50 29 -74 0 c-58 1 -72 -6 -63 -29z"/>
    <path d="M4540 2999 c0 -12 13 -35 29 -51 37 -36 64 2 30 43 -28 34 -59 38 -59 8z"/>
    <path d="M2896 2911 c-28 -27 -58 -43 -65 -35 -7 7 -22 0 -32 -17 -24 -39 -24 -64 1 -49 32 20 23 -24 -11 -59 -30 -29 -23 -40 18 -33 10 2 30 -7 45 -20 15 -12 28 -15 28 -5 0 9 6 39 13 65 9 34 6 44 -10 34 -14 -9 -23 -1 -23 18 0 18 14 29 32 26 40 -7 92 65 71 99 -10 17 -29 11 -67 -24z"/>
    <path d="M2523 2824 c-2 -26 -10 -42 -19 -37 -9 6 -17 -5 -18 -24 -4 -49 -137 -345 -150 -333 -18 19 20 -186 43 -228 12 -23 48 -55 80 -72 77 -39 86 -57 58 -118 -26 -57 56 -155 88 -105 27 42 17 72 -20 59 -30 -12 -31 -9 -9 18 78 97 145 41 135 -112 -4 -64 0 -89 14 -75 11 11 31 16 45 10 14 -5 30 9 35 31 7 28 -1 44 -25 52 -21 7 -41 39 -49 79 -7 38 -23 73 -37 78 -17 8 -14 19 11 39 51 41 43 55 -25 41 -82 -16 -76 6 12 43 62 25 77 26 112 1 25 -17 66 -24 108 -17 74 12 79 5 46 -57 -35 -66 6 -79 92 -31 142 80 174 227 71 330 -45 45 -53 64 -35 82 34 34 -22 65 -67 37 -35 -22 -22 -114 24 -164 118 -130 -165 -175 -369 -59 -61 34 -93 25 -58 -17 16 -19 11 -39 -19 -75 -22 -28 -37 -41 -32 -30 5 11 -8 36 -28 55 -20 19 -37 30 -37 24 0 -7 -27 8 -60 31 -60 43 -82 120 -35 120 17 1 15 7 -5 20 -26 16 -26 26 6 74 78 119 137 267 128 321 -7 46 -8 48 -11 9z"/>
    <path d="M3046 2815 c16 -25 44 -44 62 -42 18 1 32 -6 32 -16 0 -11 9 -14 20 -7 40 25 19 65 -34 65 -30 0 -58 10 -62 23 -4 12 -17 22 -28 22 -12 0 -7 -20 10 -45z"/>
    <path d="M3490 2780 c6 -9 -1 -22 -15 -29 -14 -6 -5 -8 20 -3 25 5 40 1 35 -8 -6 -10 -2 -22 8 -29 27 -17 84 10 69 33 -7 13 -19 10 -29 -7 -14 -21 -17 -20 -18 6 0 18 -18 37 -40 43 -22 6 -35 3 -30 -6z"/>
    <path d="M4820 2759 c0 -12 -8 -16 -18 -10 -16 10 -34 -28 -53 -109 -4 -16 -16 -32 -27 -36 -11 -4 -15 -20 -9 -35 6 -16 1 -29 -11 -29 -12 0 -22 -22 -22 -50 0 -29 -11 -50 -28 -50 -36 0 -52 -44 -41 -114 l9 -56 -28 48 -27 49 -14 -44 c-13 -40 -35 -53 -78 -45 -10 2 -12 -11 -6 -28 8 -20 -6 -51 -35 -80 -80 -79 -49 -209 49 -210 17 0 41 -10 53 -22 12 -12 32 -16 44 -9 27 16 29 64 4 80 -10 6 -13 -8 -7 -31 13 -51 -68 -19 -89 34 -6 17 -24 26 -39 20 -40 -16 -33 15 10 41 20 13 48 16 62 8 18 -11 19 -20 3 -30 -12 -7 -22 -22 -22 -32 0 -11 18 -1 40 21 41 41 54 71 21 51 -10 -6 -24 -3 -31 9 -7 11 2 20 19 20 17 0 31 11 31 25 1 17 7 15 20 -5 16 -25 19 -22 20 12 0 62 59 168 92 168 17 0 28 11 26 25 -9 50 26 135 49 121 17 -10 17 -6 0 15 -32 41 -19 190 20 229 32 31 44 70 23 70 -5 0 -10 -10 -10 -21z"/>
    <path d="M4591 2705 c-20 -20 -30 -23 -21 -7 11 19 9 23 -7 14 -13 -8 -23 -28 -23 -44 0 -23 -8 -25 -40 -8 -31 17 -37 15 -28 -8 6 -15 2 -34 -10 -41 -11 -7 -15 -25 -9 -42 6 -16 1 -29 -12 -29 -13 0 -17 -10 -10 -22 10 -15 0 -18 -30 -8 -44 14 -44 13 -8 -25 40 -41 87 -38 87 7 0 17 12 22 33 14 27 -10 31 -4 22 32 -10 36 -7 40 16 21 22 -18 30 -12 40 28 7 28 26 62 41 75 30 25 38 78 12 78 -8 0 -32 -16 -53 -35z"/>
    <path d="M2772 2638 c-44 -89 -43 -132 2 -87 25 25 36 28 43 9 4 -13 -1 -30 -11 -37 -32 -22 -43 -75 -23 -105 16 -22 22 -22 30 -3 6 14 19 20 29 14 10 -6 18 -2 18 10 0 29 66 27 96 -3 19 -19 24 -19 24 0 0 13 -9 24 -20 24 -11 0 -20 14 -20 30 0 17 -10 30 -21 30 -12 0 -16 9 -9 20 7 11 4 20 -6 20 -10 0 -26 29 -36 63 -25 87 -58 92 -96 15z"/>
    <path d="M2586 2642 c-6 -23 -19 -42 -30 -42 -10 0 -29 -11 -42 -25 -31 -33 -41 -82 -14 -65 11 7 20 2 20 -11 0 -18 8 -18 30 1 17 14 30 37 30 51 0 17 19 24 55 19 30 -5 44 -3 30 3 -14 6 -25 27 -25 47 0 55 -41 71 -54 22z"/>
    <path d="M4155 2532 c-15 -15 -44 -31 -64 -35 -38 -7 -66 -97 -31 -97 11 0 19 7 18 15 -7 40 5 52 22 25 17 -27 19 -27 20 0 0 23 4 24 17 4 11 -17 23 -3 38 45 24 78 21 84 -20 43z"/>
    <path d="M3279 2278 c-12 -22 -16 -56 -8 -75 8 -18 18 -46 21 -63 3 -16 15 -32 27 -36 12 -4 21 -19 21 -32 0 -22 44 -39 220 -81 28 -6 39 -6 26 0 -13 6 -18 26 -12 43 9 24 3 28 -30 17 -29 -9 -55 0 -83 28 -23 23 -54 41 -71 41 -42 0 -38 40 5 41 25 1 21 7 -14 21 -90 36 -106 59 -68 101 18 21 23 37 11 37 -13 0 -33 -19 -45 -42z"/>
    <path d="M3950 2240 c-7 -11 0 -15 14 -9 15 5 35 -11 46 -36 11 -25 27 -43 35 -40 19 6 20 26 1 24 -8 -1 -21 17 -29 40 -17 44 -47 54 -67 21z"/>
    <path d="M3848 2177 c-10 -16 -3 -19 21 -10 34 13 34 11 3 -37 -36 -55 -30 -61 32 -28 31 17 45 16 56 -2 9 -14 20 -16 27 -5 15 24 -59 105 -97 105 -15 0 -34 -11 -42 -23z"/>
    <path d="M3689 2128 c-32 -25 -33 -29 -5 -21 18 6 37 1 40 -10 4 -12 22 -18 39 -14 28 6 27 11 -2 42 -31 32 -37 32 -72 3z"/>
    <path d="M3835 1946 c-52 -13 -42 -60 15 -71 34 -6 50 0 50 18 0 15 -10 27 -21 27 -12 0 -16 9 -9 20 7 11 10 19 6 18 -3 -2 -22 -7 -41 -12z"/>
    <path d="M5908 1854 c-130 -139 -138 -220 -8 -89 59 60 111 151 94 167 -3 4 -42 -32 -86 -78z"/>
    <path d="M2493 1890 c-35 -35 -45 -130 -14 -130 25 0 47 74 31 105 -7 14 1 8 18 -14 40 -49 52 -35 21 25 -22 43 -26 44 -56 14z"/>
    <path d="M4179 1846 c-115 -65 -112 -61 -73 -100 38 -39 71 -21 37 20 -25 31 -11 54 32 54 16 0 25 -12 19 -26 -5 -15 6 -25 28 -25 21 0 38 7 38 15 0 9 -9 16 -20 16 -11 0 -20 14 -20 30 0 17 10 30 21 30 12 0 15 -10 7 -23 -9 -15 -5 -18 10 -8 15 9 36 0 53 -22 24 -31 31 -33 47 -8 23 35 8 67 -22 48 -12 -7 -32 1 -45 18 -19 27 -33 25 -112 -19z"/>
    <path d="M3400 1841 c0 -15 -13 -20 -33 -13 -27 11 -29 8 -7 -18 14 -16 18 -30 10 -30 -8 0 -5 -11 6 -26 26 -30 132 -43 114 -14 -7 12 -20 16 -30 10 -9 -6 -21 5 -26 25 -9 33 -10 33 -12 -1 -1 -20 -11 -31 -22 -24 -13 8 -13 26 2 53 11 22 16 46 10 52 -7 6 -12 0 -12 -14z"/>
    <path d="M5000 1826 c0 -16 9 -23 20 -16 12 7 6 -19 -13 -58 -18 -39 -40 -66 -48 -61 -9 5 -11 -9 -5 -31 6 -22 19 -35 28 -29 10 6 18 6 18 -1 0 -7 -31 -25 -70 -41 -66 -28 -95 -69 -49 -69 12 0 16 -9 9 -20 -7 -12 -21 -15 -31 -9 -11 6 -19 -2 -19 -18 0 -16 11 -34 25 -40 14 -5 5 -11 -20 -11 -25 -1 -46 9 -47 23 -1 14 -10 -2 -19 -35 -18 -62 -45 -93 -202 -236 -148 -133 -164 -144 -196 -137 -17 4 -25 0 -17 -7 18 -19 -20 -57 -100 -98 -35 -18 -64 -42 -64 -53 0 -10 -18 -19 -40 -19 -22 0 -40 -9 -40 -20 0 -11 -14 -20 -31 -20 -16 0 -35 -14 -42 -30 -6 -17 -29 -30 -50 -30 -25 0 -35 -9 -27 -25 7 -14 -2 -7 -20 15 -23 28 -31 31 -27 9 4 -16 -1 -31 -11 -33 -10 -1 -25 -15 -34 -29 -12 -19 -17 -13 -18 21 l0 48 -49 -53 c-27 -29 -61 -52 -75 -51 -20 1 -20 3 -1 11 14 6 25 18 25 27 0 25 -86 -3 -120 -39 -51 -56 -169 -81 -197 -43 -21 28 -22 26 -13 -11 12 -45 -6 -54 -155 -77 -53 -9 -73 -4 -82 20 -7 18 -22 27 -34 19 -12 -7 -17 -25 -11 -40 10 -28 -95 -69 -176 -69 -62 0 -26 -18 57 -29 164 -21 323 -14 396 17 41 18 81 31 90 30 44 -7 86 4 76 21 -17 27 16 41 49 21 34 -21 38 -17 -90 -77 -153 -73 -175 -81 -240 -88 l-60 -7 60 -26 c33 -14 77 -35 97 -46 24 -12 33 -12 25 1 -7 11 4 15 27 9 22 -6 38 -21 35 -33 -5 -30 124 -22 176 11 12 7 50 11 85 8 40 -3 65 5 65 20 0 13 23 28 50 33 35 7 45 3 32 -13 -13 -15 2 -23 50 -26 48 -2 64 4 54 20 -7 13 3 11 24 -6 22 -17 31 -20 23 -5 -9 14 -8 26 1 26 9 1 52 6 96 12 44 6 100 11 124 11 25 0 43 10 40 22 -2 13 16 32 41 43 25 12 41 33 35 47 -7 19 3 23 35 15 25 -6 34 -5 20 1 -14 6 -19 21 -12 33 7 12 4 15 -8 8 -11 -7 -55 -16 -98 -21 -42 -5 -61 -5 -42 1 19 5 35 19 35 29 0 31 -46 39 -110 20 -33 -10 -49 -19 -35 -20 14 -1 25 -12 25 -24 0 -12 -12 -17 -28 -12 -15 6 -47 -3 -71 -20 -27 -19 -66 -26 -100 -19 -54 11 -169 -10 -251 -46 -164 -72 -181 -1 -20 79 44 22 71 40 60 41 -11 0 2 13 29 28 27 14 62 22 78 15 17 -6 24 -2 17 9 -6 11 37 36 96 56 59 20 112 48 118 62 5 15 35 29 66 33 31 3 55 15 53 26 -7 39 38 75 56 46 18 -30 81 -1 89 41 3 13 0 15 -5 4 -6 -12 -20 -21 -31 -21 -13 0 -12 11 3 29 13 16 38 23 56 16 21 -8 27 -4 17 12 -8 12 -7 24 2 24 70 7 119 24 138 49 25 33 58 42 38 10 -21 -35 14 -22 42 15 24 33 25 33 20 -2 -3 -20 -17 -43 -31 -52 -14 -9 -21 -26 -14 -36 7 -11 -1 -32 -17 -45 -18 -15 -30 -17 -30 -4 0 11 11 25 25 31 14 5 5 11 -20 11 -66 3 -55 -47 20 -96 62 -39 63 -41 17 -42 -56 0 -41 -26 18 -30 47 -4 67 39 32 68 -14 12 -29 19 -34 17 -5 -3 10 11 32 30 25 22 30 34 14 35 -20 0 -19 8 5 31 17 18 31 40 31 49 0 9 12 29 27 45 15 15 34 49 42 76 10 37 9 42 -7 19 -12 -16 -22 -21 -22 -9 0 12 31 52 70 89 38 37 65 71 60 76 -13 13 40 105 99 172 28 32 52 64 53 70 0 7 4 26 7 42 4 17 11 57 17 90 6 33 21 91 32 128 25 80 19 94 -48 107 -34 6 -50 1 -50 -19z"/>
    <path d="M5983 1692 c-1 -21 -39 -77 -83 -124 -71 -78 -112 -170 -60 -138 30 19 24 -9 -10 -43 -16 -16 -38 -24 -48 -18 -10 6 -14 -7 -8 -29 12 -46 43 -31 112 55 21 25 47 39 59 32 13 -8 15 -4 6 11 -8 13 0 46 18 74 22 33 31 79 26 134 -5 46 -10 67 -12 46z"/>
    <path d="M2488 1646 c-20 -15 -52 -21 -72 -15 -42 13 -50 -47 -15 -112 20 -38 79 -52 105 -26 19 19 589 12 619 -7 14 -9 82 -16 151 -17 87 -1 133 -10 147 -30 14 -20 23 -22 29 -6 14 33 93 8 80 -26 -6 -15 -2 -27 9 -27 10 0 19 23 19 50 0 46 -26 62 -85 52 -14 -2 -24 63 -17 104 2 10 -8 10 -23 1 -39 -25 -99 -30 -85 -7 7 11 3 20 -8 20 -11 0 -25 -9 -32 -20 -22 -35 -115 -22 -304 43 -180 61 -334 59 -295 -5 22 -35 -45 -17 -80 21 -39 43 -90 45 -143 7z"/>
    <path d="M3885 1584 c-50 -8 -56 -25 -21 -60 29 -29 63 -32 46 -4 -7 11 -3 20 9 20 11 0 21 -11 21 -24 0 -18 6 -18 23 -1 32 32 -20 77 -78 69z"/>
    <path d="M4425 1434 c3 -13 -6 -22 -20 -19 -41 8 -28 -29 13 -40 46 -12 73 56 30 73 -15 6 -25 0 -23 -14z"/>
    <path d="M5967 1388 c-10 -24 -16 -25 -28 -6 -11 17 -31 -7 -62 -73 -26 -55 -54 -102 -62 -106 -21 -9 -19 -103 3 -103 9 0 28 27 42 60 14 33 34 60 45 60 11 0 8 15 -8 34 -18 23 -19 29 -2 19 17 -11 25 0 25 37 0 29 9 47 19 41 10 -7 29 6 41 28 12 23 16 41 10 41 -6 0 -17 -14 -23 -32z"/>
    <path d="M2622 1289 c-45 -24 -59 -63 -63 -176 -2 -63 61 -94 117 -58 31 21 97 32 195 33 138 1 207 19 104 27 -99 7 -142 26 -117 51 16 16 28 17 38 3 43 -63 244 8 244 86 0 13 14 19 30 12 22 -8 27 -2 18 21 -13 33 -75 36 -123 5 -14 -8 -25 -11 -25 -5 0 6 -23 2 -51 -8 -28 -11 -46 -12 -40 -2 27 44 -249 54 -327 11z m196 -70 c-15 -9 -33 -12 -42 -6 -9 5 -21 -4 -28 -20 -14 -37 -61 -23 -61 17 0 16 7 24 16 18 9 -6 32 -2 51 9 42 24 103 6 64 -18z"/>
    <path d="M3682 1241 c-16 -10 -19 -21 -6 -29 11 -6 16 -30 10 -52 -6 -22 -1 -40 11 -40 12 0 16 -14 10 -31 -12 -30 27 -29 129 3 44 13 6 48 -53 48 -44 0 -55 10 -59 53 -5 66 -8 69 -42 48z"/>
    <path d="M4315 1198 c-4 -33 1 -65 13 -72 12 -7 15 -5 7 4 -8 9 1 27 19 41 31 22 31 27 2 56 -29 29 -32 26 -41 -29z"/>
    <path d="M3227 1126 c-50 -10 -76 -58 -43 -78 13 -9 17 -5 8 9 -9 14 0 23 25 23 58 0 104 21 92 42 -6 10 -18 17 -25 15 -8 -1 -33 -6 -57 -11z"/>
    <path d="M5840 1074 c-42 -64 -81 -180 -70 -209 17 -48 51 -26 38 25 -9 35 -3 53 19 62 29 11 69 139 50 158 -5 5 -21 -12 -37 -36z"/>
    <path d="M3427 989 c-15 -39 -1 -53 39 -38 17 7 27 25 21 41 -15 37 -45 36 -60 -3z"/>
    <path d="M5963 882 c-21 -36 -22 -50 -3 -62 17 -11 18 -19 2 -29 -12 -7 -22 -36 -22 -63 0 -29 -9 -45 -20 -38 -11 7 -20 -2 -20 -19 0 -60 35 -30 69 58 18 49 31 115 27 145 l-6 56 -27 -48z"/>
    <path d="M2911 701 c-7 -11 -7 -21 2 -21 8 0 -3 -14 -24 -31 -22 -18 -28 -26 -14 -19 14 7 25 3 25 -8 0 -11 13 -16 30 -9 16 6 27 28 23 48 -7 50 -26 67 -42 40z"/>
    <path d="M4500 683 c0 -9 -23 -27 -52 -40 -31 -14 -48 -35 -41 -51 7 -19 -2 -24 -28 -17 -29 7 -39 0 -37 -28 0 -20 5 -27 11 -14 5 12 26 18 48 13 23 -7 43 1 50 20 8 20 25 27 46 19 29 -11 29 -8 6 21 -16 19 -19 34 -8 34 12 0 26 14 32 30 7 17 3 30 -8 30 -10 0 -19 -8 -19 -17z"/>
    <path d="M4576 676 c17 -22 19 -37 5 -45 -12 -8 -20 -29 -19 -47 1 -21 5 -24 11 -9 6 14 23 25 37 25 50 0 47 29 -7 69 -36 27 -45 29 -27 7z"/>
    <path d="M5980 670 c0 -16 -7 -30 -17 -30 -35 0 -64 -146 -35 -179 15 -17 26 -61 26 -97 0 -40 -7 -56 -16 -40 -18 29 -21 26 -54 -49 -30 -71 -58 -70 -100 5 -19 33 -41 60 -49 60 -23 0 -18 -56 9 -99 20 -32 17 -57 -18 -140 -42 -100 -34 -142 11 -56 l24 45 -9 -45 c-4 -25 0 -45 10 -45 10 0 18 12 18 28 0 82 179 111 202 32 12 -44 14 -41 16 22 2 68 -1 72 -53 64 l-55 -8 55 32 55 31 0 250 c0 137 -4 249 -10 249 -5 0 -10 -13 -10 -30z"/>
    <path d="M5213 250 c-7 -17 -32 -28 -57 -25 -35 4 -48 -7 -53 -43 -6 -45 -4 -46 27 -15 18 18 41 29 49 23 9 -5 31 13 49 40 18 28 25 50 15 50 -10 0 -24 -13 -30 -30z"/>
    <path d="M4880 198 c0 -10 9 -18 19 -18 11 0 15 -13 8 -30 -6 -16 -1 -30 11 -30 12 0 22 4 22 8 0 5 5 22 11 38 7 18 -4 33 -30 39 -22 6 -41 3 -41 -7z"/>
    <path d="M3460 143 c0 -69 48 -143 93 -143 l50 0 -57 80 c-54 76 -86 100 -86 63z"/>
    <path d="M3033 67 l-97 -67 70 0 c52 0 78 12 103 51 54 83 28 88 -76 16z"/>
    <path d="M4435 55 c-33 -33 -33 -34 10 -26 25 4 55 9 68 10 12 0 28 14 33 29 16 40 -68 31 -111 -13z"/>
  </g>
  <g transform="matrix(0.992372, 0, 0, 0.992372, -1019.650574, 60.391132)">
    <title>card</title>
    <path d="M 1424.289 346.469 C 1318.289 358.469 1190.289 351.469 1048.289 348.469 C 1054.289 369.469 1074.289 340.469 1097.289 389.469 C 1081.289 364.469 1079.289 356.469 1074.289 351.469 C 1091.289 361.469 1113.289 383.469 1123.289 381.469 C 1128.289 386.469 1127.289 380.469 1125.289 383.469 C 1107.289 360.469 1140.289 372.469 1129.289 356.469 C 1154.289 359.469 1193.289 351.469 1200.289 370.469 C 1215.289 411.469 1198.289 379.469 1219.289 428.469 C 1205.289 458.469 1179.289 469.469 1161.289 508.469 C 1208.289 527.469 1235.289 503.469 1275.289 521.469 C 1280.289 515.469 1270.289 499.469 1277.289 490.469 C 1285.289 507.469 1289.289 507.469 1283.289 521.469 C 1319.289 481.469 1420.289 577.469 1432.289 432.469 L 1426.289 426.469 L 1426.289 426.469 C 1421.289 439.469 1413.289 444.469 1407.289 429.469 C 1419.289 434.469 1412.289 421.469 1433.289 420.469 C 1403.289 305.469 1433.289 405.469 1430.289 344.469" fill="rgb(229,208,163)"/>
    <path d="M 1075.289 351.469 C 1079.289 358.469 1077.289 359.469 1101.289 381.469 C 1083.289 379.469 1080.289 364.469 1069.289 354.469 C 1081.289 382.469 1059.289 389.469 1068.289 417.469 C 1077.289 416.469 1078.289 425.469 1108.289 425.469 C 1101.289 431.469 1087.289 432.469 1070.289 428.469 C 1071.289 431.469 1079.289 440.469 1090.289 438.469 C 1078.289 439.469 1069.289 445.469 1060.289 440.469 C 1078.289 448.469 1040.289 462.469 1091.289 448.469 C 1047.289 461.469 1069.289 466.469 1067.289 485.469 C 1075.289 498.469 1107.289 488.469 1119.289 485.469 C 1090.289 495.469 1100.289 506.469 1062.289 499.469 C 1130.289 521.469 1098.289 518.469 1161.289 519.469 C 1183.289 493.469 1168.289 522.469 1146.289 508.469 C 1196.289 519.469 1187.289 460.469 1196.289 494.469 C 1171.289 453.469 1217.289 479.469 1191.289 458.469 C 1219.289 461.469 1205.289 453.469 1227.289 451.469 C 1202.289 468.469 1225.289 404.469 1200.289 373.469 C 1196.289 342.469 1124.289 374.469 1121.289 357.469 C 1103.289 369.469 1109.289 364.469 1127.289 381.469 C 1106.289 380.469 1091.289 362.469 1077.289 349.469" fill="rgb(216,188,132)"/>
    <path d="M 1033.289 -52.531 C 1033.289 105.469 1033.289 262.469 1033.289 420.469 C 1033.289 459.469 1033.289 496.469 1033.289 534.469 C 1033.289 537.469 1033.289 538.469 1033.289 540.469 C 1107.289 543.469 1042.289 534.469 1157.289 524.469 C 1116.289 521.469 1065.289 532.469 1034.289 535.469 C 1041.289 511.469 1065.289 525.469 1059.289 494.469 C 1068.289 458.469 1050.289 431.469 1030.289 426.469 C 1052.289 427.469 1045.289 421.469 1058.289 440.469 C 1073.289 369.469 1048.289 365.469 1032.289 335.469 C 1082.289 337.469 1136.289 343.469 1175.289 348.469 C 1277.289 351.469 1353.289 348.469 1454.289 330.469 C 1298.289 344.469 1164.289 342.469 1049.289 317.469 C 1024.289 283.469 1038.289 143.469 1033.289 70.469 C 1064.289 36.469 1139.289 19.469 1175.289 18.469 C 1230.289 27.469 1289.289 5.469 1372.289 23.469 C 1391.289 42.469 1420.289 35.469 1456.289 64.469 C 1440.289 5.469 1291.289 -4.531 1160.289 5.469 C 1086.289 6.469 1110.289 16.469 1030.289 51.469 C 1035.289 18.469 1033.289 -1.531 1033.289 -50.531" fill="rgb(47,30,29)"/>
    <path d="M 1127.289 -37.531 C 1110.289 -57.531 1130.289 0.469 1138.289 3.469 C 1157.289 0.469 1218.289 1.469 1266.289 2.469 C 1259.289 -9.531 1247.289 -6.531 1247.289 -23.531 C 1269.289 -7.531 1315.289 -28.531 1337.289 7.469 C 1292.289 -19.531 1335.289 -26.531 1306.289 -40.531 C 1291.289 -38.531 1247.289 -48.531 1254.289 -23.531 C 1257.289 -51.531 1147.289 -35.531 1125.289 -45.531" fill="rgb(201,174,131)"/>
    <path d="M 1456.289 -46.531 C 1320.289 -68.531 1404.289 22.469 1464.289 34.469 C 1448.289 34.469 1458.289 -16.531 1452.289 -47.531 C 1439.289 -43.531 1436.289 -49.531 1444.289 -51.531" fill="rgb(180,69,65)"/>
    <path d="M 1046.289 -52.531 C 1053.289 -47.531 1049.289 -43.531 1033.289 -50.531 C 1033.289 10.469 1045.289 38.469 1042.289 42.469 C 1057.289 36.469 1069.289 23.469 1097.289 18.469 C 1083.289 3.469 1057.289 49.469 1046.289 14.469 C 1185.289 -28.531 1067.289 -64.531 1057.289 -43.531" fill="rgb(156,60,55)"/>
    <path d="M 1302.289 523.469 C 1232.289 533.469 1194.289 518.469 1123.289 536.469 C 1572.289 534.469 1413.289 534.469 1311.289 527.469" fill="rgb(56,25,25)"/>
    <path d="M 1351.289 -44.531 C 1332.289 -42.531 1315.289 -41.531 1296.289 -42.531 C 1320.289 -40.531 1307.289 -36.531 1320.289 -28.531 C 1313.289 -23.531 1323.289 -11.531 1298.289 -15.531 C 1269.289 -17.531 1268.289 -17.531 1255.289 -25.531 C 1257.289 -36.531 1259.289 -44.531 1293.289 -41.531 C 1261.289 -42.531 1229.289 -42.531 1199.289 -41.531 C 1263.289 -50.531 1236.289 -4.531 1272.289 -0.531 C 1386.289 29.469 1384.289 -18.531 1346.289 -50.531 C 1357.289 -44.531 1355.289 -44.531 1352.289 -45.531" fill="rgb(223,207,180)"/>
    <path d="M 1056.289 -57.531 C 1049.289 -39.531 1387.289 -37.531 1435.289 -55.531 C 1328.289 -51.531 1246.289 -57.531 1075.289 -54.531" fill="rgb(172,73,68)"/>
    <path d="M 1244.289 446.469 C 1211.289 478.469 1148.289 551.469 1291.289 500.469 C 1295.289 535.469 1266.289 506.469 1333.289 525.469 C 1252.289 509.469 1313.289 482.469 1255.289 490.469 C 1271.289 437.469 1226.289 500.469 1243.289 437.469" fill="rgb(217,193,144)"/>
    <path d="M 1452.289 428.469 C 1426.289 431.469 1425.289 459.469 1420.289 479.469 C 1423.289 492.469 1426.289 511.469 1443.289 510.469 C 1457.289 506.469 1442.289 441.469 1451.289 437.469" fill="rgb(72,29,27)"/>
    <path d="M 1295.289 384.469 C 1305.289 409.469 1274.289 396.469 1291.289 424.469 C 1286.289 425.469 1281.289 430.469 1288.289 445.469 C 1308.289 411.469 1328.289 458.469 1352.289 422.469 C 1317.289 432.469 1359.289 412.469 1322.289 401.469 C 1321.289 393.469 1354.289 408.469 1343.289 392.469 C 1323.289 378.469 1299.289 407.469 1303.289 385.469" fill="rgb(217,193,145)"/>
    <path d="M 1322.289 388.469 C 1325.289 390.469 1344.289 393.469 1349.289 397.469 C 1324.289 399.469 1334.289 391.469 1313.289 403.469 C 1348.289 403.469 1324.289 415.469 1346.289 420.469 C 1335.289 428.469 1323.289 434.469 1334.289 438.469 C 1325.289 427.469 1313.289 408.469 1291.289 423.469 C 1296.289 403.469 1302.289 388.469 1319.289 392.469" fill="rgb(220,195,148)"/>
    <path d="M 1444.289 350.469 C 1427.289 384.469 1429.289 352.469 1427.289 444.469 C 1459.289 386.469 1426.289 403.469 1458.289 354.469" fill="rgb(74,27,26)"/>
    <path d="M 1375.289 438.469 C 1370.289 450.469 1312.289 418.469 1357.289 481.469 C 1340.289 445.469 1362.289 474.469 1354.289 446.469 C 1384.289 454.469 1374.289 469.469 1374.289 471.469 C 1416.289 463.469 1391.289 461.469 1415.289 451.469 C 1380.289 444.469 1420.289 431.469 1368.289 432.469" fill="rgb(215,189,137)"/>
    <path d="M 1034.289 330.469 C 1043.289 340.469 1033.289 358.469 1058.289 360.469 C 1060.289 344.469 1034.289 358.469 1040.289 342.469 C 1088.289 347.469 1118.289 356.469 1166.289 348.469 C 1128.289 349.469 1083.289 334.469 1034.289 331.469" fill="rgb(181,61,58)"/>
    <path d="M 1242.289 464.469 C 1244.289 489.469 1264.289 469.469 1269.289 503.469 C 1255.289 503.469 1249.289 502.469 1249.289 513.469 C 1228.289 478.469 1222.289 480.469 1243.289 473.469" fill="rgb(222,196,142)"/>
    <path d="M 1453.289 333.469 C 1405.289 334.469 1359.289 351.469 1317.289 345.469 C 1372.289 354.469 1438.289 347.469 1454.289 336.469" fill="rgb(181,58,57)"/>
    <path d="M 1369.289 432.469 C 1368.289 433.469 1392.289 430.469 1401.289 431.469 C 1421.289 445.469 1376.289 440.469 1414.289 465.469 C 1355.289 459.469 1381.289 457.469 1369.289 431.469" fill="rgb(218,192,140)"/>
    <path d="M 1341.289 479.469 C 1357.289 496.469 1393.289 500.469 1425.289 498.469 C 1398.289 511.469 1359.289 504.469 1341.289 484.469" fill="rgb(207,182,140)"/>
    <path d="M 1119.289 -28.531 C 1125.289 -5.531 1107.289 -11.531 1050.289 9.469 C 1086.289 27.469 1074.289 -16.531 1108.289 8.469 C 1089.289 -8.531 1135.289 1.469 1121.289 -29.531" fill="rgb(79,36,32)"/>
    <path d="M 1062.289 463.469 C 1064.289 477.469 1065.289 495.469 1059.289 508.469 C 1071.289 507.469 1094.289 518.469 1114.289 500.469 C 1089.289 507.469 1082.289 505.469 1065.289 502.469 C 1081.289 497.469 1104.289 497.469 1119.289 487.469 C 1102.289 499.469 1069.289 485.469 1076.289 492.469 C 1080.289 486.469 1060.289 482.469 1065.289 463.469" fill="rgb(238,218,176)"/>
    <path d="M 1341.289 482.469 C 1358.289 502.469 1395.289 510.469 1421.289 503.469 C 1393.289 500.469 1363.289 499.469 1343.289 481.469" fill="rgb(198,172,129)"/>
    <path d="M 1114.289 503.469 C 1067.289 534.469 1076.289 501.469 1047.289 527.469 C 1068.289 522.469 1088.289 531.469 1114.289 505.469" fill="rgb(232,213,179)"/>
    <path d="M 1376.289 515.469 C 1389.289 523.469 1407.289 528.469 1439.289 528.469 C 1429.289 517.469 1419.289 527.469 1377.289 510.469" fill="rgb(238,223,194)"/>
    <path d="M 1056.289 402.469 C 1085.289 465.469 1060.289 423.469 1115.289 428.469 C 1086.289 406.469 1086.289 433.469 1062.289 409.469" fill="rgb(232,211,168)"/>
    <path d="M 1392.289 474.469 C 1402.289 472.469 1404.289 487.469 1403.289 489.469 C 1376.289 501.469 1373.289 467.469 1394.289 478.469" fill="rgb(222,196,142)"/>
    <path d="M 1393.289 469.469 C 1383.289 473.469 1356.289 489.469 1407.289 492.469 C 1406.289 476.469 1394.289 476.469 1390.289 468.469" fill="rgb(220,194,138)"/>
    <path d="M 1352.289 436.469 C 1366.289 431.469 1361.289 449.469 1370.289 442.469 C 1363.289 437.469 1342.289 453.469 1347.289 434.469" fill="rgb(221,196,146)"/>
    <path d="M 1033.289 364.469 C 1044.289 363.469 1053.289 382.469 1059.289 387.469 C 1037.289 353.469 1043.289 404.469 1032.289 367.469" fill="rgb(131,39,35)"/>
    <path d="M 1199.289 494.469 C 1207.289 519.469 1207.289 494.469 1215.289 520.469 C 1195.289 520.469 1185.289 523.469 1201.289 499.469" fill="rgb(219,198,153)"/>
    <path d="M 1213.289 473.469 C 1219.289 483.469 1225.289 485.469 1230.289 493.469 C 1190.289 498.469 1222.289 487.469 1214.289 480.469" fill="rgb(224,199,144)"/>
    <path d="M 1371.289 3.469 C 1401.289 33.469 1448.289 24.469 1447.289 48.469 C 1391.289 6.469 1407.289 25.469 1381.289 3.469" fill="rgb(96,63,58)"/>
    <path d="M 1224.289 500.469 C 1226.289 514.469 1234.289 515.469 1216.289 519.469 C 1213.289 507.469 1218.289 502.469 1223.289 500.469" fill="rgb(221,199,152)"/>
    <path d="M 1065.289 368.469 C 1057.289 374.469 1068.289 383.469 1064.289 398.469 C 1068.289 398.469 1069.289 395.469 1066.289 399.469 C 1074.289 369.469 1093.289 407.469 1067.289 363.469" fill="rgb(222,201,163)"/>
    <path d="M 1430.289 12.469 C 1403.289 5.469 1437.289 32.469 1447.289 21.469 C 1442.289 19.469 1442.289 10.469 1429.289 8.469" fill="rgb(106,48,43)"/>
    <path d="M 1033.289 362.469 C 1041.289 409.469 1037.289 352.469 1056.289 394.469 C 1051.289 380.469 1045.289 370.469 1037.289 365.469" fill="rgb(142,43,39)"/>
    <path d="M 1344.289 503.469 C 1350.289 510.469 1334.289 524.469 1363.289 523.469 C 1370.289 518.469 1348.289 506.469 1346.289 503.469" fill="rgb(204,182,148)"/>
    <path d="M 1066.289 5.469 C 1065.289 12.469 1036.289 5.469 1055.289 27.469 C 1078.289 12.469 1066.289 16.469 1066.289 6.469" fill="rgb(101,45,41)"/>
    <path d="M 1127.289 -22.531 C 1117.289 16.469 1105.289 10.469 1171.289 -4.531 C 1155.289 1.469 1147.289 4.469 1135.289 4.469 C 1130.289 -4.531 1133.289 -3.531 1125.289 -20.531" fill="rgb(230,212,181)"/>
    <path d="M 1387.289 -5.531 C 1361.289 -1.531 1387.289 1.469 1407.289 10.469 C 1398.289 11.469 1401.289 -13.531 1388.289 -4.531" fill="rgb(97,51,46)"/>
    <path d="M 1202.289 495.469 C 1209.289 494.469 1214.289 497.469 1220.289 501.469 C 1213.289 514.469 1198.289 494.469 1200.289 499.469" fill="rgb(221,197,147)"/>
    <path d="M 1191.289 -13.531 C 1204.289 -1.531 1191.289 -10.531 1209.289 -11.531 C 1213.289 -4.531 1175.289 2.469 1190.289 -11.531" fill="rgb(223,199,150)"/>
    <path d="M 1295.289 424.469 C 1282.289 431.469 1301.289 441.469 1290.289 446.469 C 1284.289 443.469 1283.289 422.469 1290.289 427.469" fill="rgb(219,196,151)"/>
    <path d="M 1131.289 509.469 C 1124.289 511.469 1125.289 512.469 1120.289 518.469 C 1118.289 519.469 1154.289 520.469 1134.289 509.469" fill="rgb(226,205,157)"/>
    <path d="M 1346.289 420.469 C 1369.289 431.469 1332.289 440.469 1345.289 421.469" fill="rgb(222,197,150)"/>
    <path d="M 1199.289 -12.531 C 1200.289 -3.531 1189.289 -15.531 1187.289 -5.531 C 1194.289 10.469 1219.289 -10.531 1201.289 -10.531" fill="rgb(226,203,155)"/>
    <path d="M 1106.289 -57.531 C 1117.289 -51.531 1134.289 -54.531 1146.289 -55.531 C 1134.289 -58.531 1118.289 -56.531 1109.289 -57.531" fill="rgb(77,19,17)"/>
    <path d="M 1125.289 503.469 C 1118.289 511.469 1103.289 529.469 1101.289 525.469 C 1103.289 515.469 1113.289 513.469 1119.289 506.469" fill="rgb(220,195,151)"/>
    <path d="M 1402.289 448.469 C 1405.289 449.469 1416.289 452.469 1425.289 453.469 C 1419.289 455.469 1404.289 457.469 1397.289 449.469" fill="rgb(212,192,153)"/>
    <path d="M 1047.289 -36.531 C 1056.289 -14.531 1028.289 -10.531 1045.289 -35.531" fill="rgb(111,47,41)"/>
    <path d="M 1058.289 430.469 C 1056.289 440.469 1057.289 460.469 1071.289 447.469 C 1061.289 447.469 1062.289 442.469 1062.289 432.469" fill="rgb(231,208,163)"/>
    <path d="M 1166.289 -57.531 C 1171.289 -49.531 1182.289 -52.531 1189.289 -53.531 C 1195.289 -59.531 1175.289 -56.531 1169.289 -57.531" fill="rgb(91,17,16)"/>
    <path d="M 1180.289 489.469 C 1202.289 491.469 1181.289 498.469 1174.289 499.469 C 1170.289 494.469 1179.289 494.469 1181.289 490.469" fill="rgb(226,203,146)"/>
    <path d="M 1309.289 400.469 C 1318.289 412.469 1281.289 410.469 1310.289 400.469" fill="rgb(221,197,148)"/>
    <path d="M 1256.289 511.469 C 1252.289 513.469 1254.289 529.469 1273.289 523.469 C 1269.289 518.469 1260.289 519.469 1259.289 510.469" fill="rgb(210,186,148)"/>
    <path d="M 1143.289 519.469 C 1137.289 526.469 1138.289 533.469 1120.289 529.469 C 1146.289 538.469 1158.289 525.469 1141.289 520.469" fill="rgb(124,46,45)"/>
    <path d="M 1223.289 495.469 C 1242.289 497.469 1228.289 513.469 1224.289 499.469" fill="rgb(222,198,148)"/>
    <path d="M 1275.289 405.469 C 1304.289 409.469 1288.289 419.469 1275.289 410.469" fill="rgb(221,198,151)"/>
    <path d="M 1306.289 418.469 C 1320.289 441.469 1279.289 422.469 1309.289 425.469" fill="rgb(220,195,148)"/>
    <path d="M 1363.289 393.469 C 1391.289 403.469 1352.289 410.469 1363.289 396.469" fill="rgb(214,192,148)"/>
    <path d="M 1237.289 488.469 C 1236.289 494.469 1241.289 499.469 1240.289 507.469 C 1232.289 497.469 1230.289 492.469 1235.289 490.469" fill="rgb(222,198,146)"/>
    <path d="M 1423.289 506.469 C 1416.289 510.469 1411.289 515.469 1415.289 523.469 C 1401.289 508.469 1447.289 512.469 1425.289 507.469" fill="rgb(73,69,73)"/>
    <path d="M 1367.289 506.469 C 1384.289 536.469 1365.289 510.469 1393.289 513.469 C 1400.289 509.469 1376.289 513.469 1370.289 506.469" fill="rgb(187,163,132)"/>
    <path d="M 1348.289 448.469 C 1373.289 473.469 1343.289 458.469 1350.289 453.469" fill="rgb(224,199,147)"/>
    <path d="M 1113.289 359.469 C 1128.289 378.469 1095.289 372.469 1111.289 363.469" fill="rgb(220,197,147)"/>
    <path d="M 1096.289 6.469 C 1080.289 15.469 1068.289 20.469 1051.289 30.469 C 1073.289 16.469 1112.289 9.469 1106.289 7.469" fill="rgb(91,66,62)"/>
    <path d="M 1059.289 354.469 C 1061.289 358.469 1061.289 369.469 1045.289 361.469 C 1057.289 381.469 1074.289 353.469 1060.289 358.469" fill="rgb(172,161,154)"/>
    <path d="M 1081.289 374.469 C 1089.289 401.469 1060.289 382.469 1081.289 379.469" fill="rgb(222,198,150)"/>
    <path d="M 1367.289 456.469 C 1375.289 477.469 1355.289 475.469 1365.289 459.469" fill="rgb(222,197,146)"/>
    <path d="M 1421.289 508.469 C 1416.289 531.469 1440.289 518.469 1426.289 510.469" fill="rgb(182,166,140)"/>
    <path d="M 1346.289 507.469 C 1376.289 529.469 1333.289 517.469 1352.289 512.469" fill="rgb(218,197,161)"/>
    <path d="M 1048.289 -34.531 C 1031.289 -23.531 1047.289 -5.531 1048.289 -33.531" fill="rgb(108,46,39)"/>
    <path d="M 1243.289 440.469 C 1247.289 462.469 1212.289 451.469 1244.289 447.469" fill="rgb(223,201,147)"/>
    <path d="M 1113.289 354.469 C 1132.289 359.469 1123.289 380.469 1114.289 356.469" fill="rgb(223,197,147)"/>
    <path d="M 1296.289 -57.531 C 1289.289 -54.531 1311.289 -48.531 1323.289 -56.531 C 1302.289 -54.531 1308.289 -52.531 1295.289 -57.531" fill="rgb(102,22,17)"/>
    <path d="M 1033.289 -22.531 C 1033.289 -5.531 1038.289 -10.531 1033.289 1.469 C 1051.289 -8.531 1039.289 -12.531 1033.289 -17.531" fill="rgb(105,54,48)"/>
    <path d="M 1043.289 400.469 C 1056.289 394.469 1044.289 421.469 1041.289 399.469" fill="rgb(124,34,34)"/>
    <path d="M 1327.289 -57.531 C 1342.289 -56.531 1358.289 -50.531 1374.289 -56.531 C 1353.289 -51.531 1363.289 -57.531 1327.289 -57.531" fill="rgb(98,22,16)"/>
    <path d="M 1178.289 474.469 C 1195.289 481.469 1172.289 501.469 1181.289 476.469" fill="rgb(229,203,143)"/>
    <path d="M 1122.289 505.469 C 1116.289 512.469 1101.289 517.469 1100.289 523.469 C 1107.289 519.469 1116.289 513.469 1123.289 506.469" fill="rgb(238,214,167)"/>
    <path d="M 1085.289 450.469 C 1076.289 455.469 1056.289 454.469 1060.289 458.469 C 1069.289 456.469 1076.289 455.469 1084.289 452.469" fill="rgb(238,214,166)"/>
    <path d="M 1227.289 455.469 C 1244.289 461.469 1229.289 475.469 1229.289 457.469" fill="rgb(223,200,144)"/>
    <path d="M 1244.289 452.469 C 1250.289 472.469 1225.289 457.469 1246.289 457.469" fill="rgb(222,197,145)"/>
    <path d="M 1373.289 477.469 C 1389.289 483.469 1368.289 491.469 1374.289 479.469" fill="rgb(225,200,147)"/>
    <path d="M 1084.289 -1.531 C 1071.289 9.469 1102.289 9.469 1085.289 -1.531" fill="rgb(99,46,44)"/>
    <path d="M 1301.289 379.469 C 1310.289 400.469 1289.289 388.469 1302.289 383.469" fill="rgb(222,198,148)"/>
    <path d="M 1248.289 464.469 C 1274.289 480.469 1246.289 469.469 1247.289 467.469" fill="rgb(224,199,147)"/>
    <path d="M 1436.289 510.469 C 1441.289 521.469 1445.289 517.469 1453.289 521.469 C 1447.289 518.469 1447.289 509.469 1437.289 512.469" fill="rgb(128,51,48)"/>
    <path d="M 1452.289 336.469 C 1437.289 350.469 1461.289 348.469 1434.289 354.469 C 1454.289 352.469 1453.289 341.469 1452.289 338.469" fill="rgb(89,78,76)"/>
    <path d="M 1183.289 474.469 C 1195.289 478.469 1186.289 486.469 1179.289 474.469" fill="rgb(227,202,143)"/>
    <path d="M 1343.289 445.469 C 1355.289 458.469 1338.289 458.469 1343.289 450.469" fill="rgb(224,199,150)"/>
    <path d="M 1366.289 393.469 C 1349.289 402.469 1387.289 409.469 1365.289 394.469" fill="rgb(205,183,139)"/>
    <path d="M 1342.289 523.469 C 1327.289 529.469 1353.289 529.469 1357.289 527.469 C 1347.289 530.469 1350.289 522.469 1342.289 524.469" fill="rgb(123,40,41)"/>
    <path d="M 1032.289 -56.531 C 1040.289 -52.531 1060.289 -58.531 1075.289 -57.531 C 1061.289 -57.531 1046.289 -57.531 1034.289 -57.531" fill="rgb(92,19,18)"/>
    <path d="M 1425.289 353.469 C 1409.289 357.469 1430.289 386.469 1424.289 352.469" fill="rgb(178,171,162)"/>
    <path d="M 1390.289 -59.531 C 1426.289 -39.531 1395.289 -57.531 1433.289 -54.531 C 1420.289 -56.531 1427.289 -47.531 1430.289 -51.531 C 1420.289 -57.531 1405.289 -57.531 1391.289 -57.531" fill="rgb(204,133,130)"/>
    <path d="M 1269.289 501.469 C 1274.289 519.469 1254.289 507.469 1268.289 503.469" fill="rgb(220,196,149)"/>
    <path d="M 1245.289 521.469 C 1249.289 527.469 1234.289 523.469 1231.289 525.469 C 1240.289 529.469 1271.289 526.469 1246.289 523.469" fill="rgb(94,54,55)"/>
    <path d="M 1183.289 471.469 C 1201.289 470.469 1202.289 484.469 1183.289 472.469" fill="rgb(225,201,144)"/>
    <path d="M 1193.289 460.469 C 1215.289 458.469 1193.289 472.469 1195.289 463.469" fill="rgb(224,199,144)"/>
    <path d="M 1412.289 360.469 C 1412.289 365.469 1420.289 381.469 1421.289 379.469 C 1432.289 372.469 1412.289 371.469 1414.289 360.469" fill="rgb(189,170,137)"/>
    <path d="M 1046.289 -19.531 C 1061.289 -15.531 1037.289 1.469 1047.289 -17.531" fill="rgb(116,50,44)"/>
    <path d="M 1095.289 514.469 C 1100.289 518.469 1084.289 523.469 1080.289 524.469 C 1084.289 520.469 1088.289 519.469 1092.289 516.469" fill="rgb(213,194,158)"/>
    <path d="M 1222.289 468.469 C 1233.289 474.469 1222.289 487.469 1220.289 469.469" fill="rgb(225,201,145)"/>
    <path d="M 1349.289 464.469 C 1362.289 470.469 1339.289 481.469 1349.289 466.469" fill="rgb(223,200,148)"/>
    <path d="M 1235.289 491.469 C 1252.289 501.469 1238.289 511.469 1238.289 494.469" fill="rgb(222,197,146)"/>
    <path d="M 1054.289 347.469 C 1070.289 345.469 1066.289 359.469 1053.289 349.469" fill="rgb(190,151,127)"/>
    <path d="M 1454.289 367.469 C 1433.289 375.469 1453.289 384.469 1453.289 367.469" fill="rgb(132,40,41)"/>
    <path d="M 1376.289 463.469 C 1386.289 473.469 1375.289 478.469 1375.289 467.469" fill="rgb(229,201,146)"/>
    <path d="M 1063.289 507.469 C 1071.289 505.469 1072.289 522.469 1073.289 521.469 C 1076.289 514.469 1072.289 508.469 1067.289 507.469" fill="rgb(70,62,64)"/>
    <path d="M 1420.289 423.469 C 1407.289 443.469 1419.289 441.469 1423.289 423.469" fill="rgb(72,65,66)"/>
    <path d="M 1311.289 397.469 C 1306.289 404.469 1294.289 404.469 1297.289 411.469 C 1309.289 397.469 1312.289 418.469 1311.289 398.469" fill="rgb(228,204,155)"/>
    <path d="M 1216.289 434.469 C 1229.289 443.469 1215.289 448.469 1217.289 437.469" fill="rgb(225,200,146)"/>
    <path d="M 1052.289 11.469 C 1062.289 10.469 1048.289 32.469 1050.289 11.469" fill="rgb(102,42,36)"/>
    <path d="M 1304.289 408.469 C 1310.289 417.469 1297.289 425.469 1302.289 408.469" fill="rgb(221,197,149)"/>
    <path d="M 1232.289 487.469 C 1239.289 491.469 1227.289 504.469 1231.289 489.469" fill="rgb(224,199,145)"/>
    <path d="M 1446.289 387.469 C 1440.289 390.469 1433.289 390.469 1429.289 395.469 C 1436.289 392.469 1453.289 387.469 1449.289 387.469" fill="rgb(128,54,53)"/>
    <path d="M 1114.289 -23.531 C 1104.289 -3.531 1124.289 -6.531 1112.289 -20.531" fill="rgb(105,46,42)"/>
    <path d="M 1331.289 531.469 C 1337.289 541.469 1349.289 525.469 1377.289 532.469 C 1354.289 526.469 1341.289 534.469 1331.289 531.469" fill="rgb(102,47,52)"/>
    <path d="M 1304.289 419.469 C 1327.289 420.469 1297.289 427.469 1303.289 419.469" fill="rgb(220,195,147)"/>
    <path d="M 1301.289 359.469 C 1315.289 359.469 1306.289 379.469 1303.289 360.469" fill="rgb(219,199,152)"/>
    <path d="M 1209.289 364.469 C 1227.289 380.469 1197.289 369.469 1210.289 367.469" fill="rgb(224,200,152)"/>
    <path d="M 1198.289 372.469 C 1211.289 384.469 1185.289 378.469 1196.289 374.469" fill="rgb(223,198,147)"/>
    <path d="M 1347.289 443.469 C 1353.289 442.469 1349.289 460.469 1344.289 445.469" fill="rgb(223,199,148)"/>
    <path d="M 1183.289 481.469 C 1191.289 482.469 1183.289 501.469 1182.289 483.469" fill="rgb(226,202,144)"/>
    <path d="M 1444.289 36.469 C 1457.289 35.469 1451.289 54.469 1446.289 37.469" fill="rgb(116,77,69)"/>
    <path d="M 1098.289 351.469 C 1111.289 349.469 1104.289 366.469 1098.289 353.469" fill="rgb(179,130,115)"/>
    <path d="M 1045.289 399.469 C 1036.289 408.469 1055.289 411.469 1046.289 398.469" fill="rgb(132,37,37)"/>
    <path d="M 1373.289 -46.531 C 1350.289 -16.531 1377.289 -37.531 1370.289 -41.531" fill="rgb(193,173,147)"/>
    <path d="M 1235.289 502.469 C 1244.289 504.469 1226.289 518.469 1233.289 503.469" fill="rgb(221,198,150)"/>
    <path d="M 1044.289 533.469 C 1066.289 531.469 1061.289 539.469 1043.289 534.469" fill="rgb(90,38,39)"/>
    <path d="M 1192.289 -0.531 C 1219.289 -2.531 1191.289 6.469 1190.289 -0.531" fill="rgb(209,189,152)"/>
    <path d="M 1173.289 487.469 C 1179.289 497.469 1163.289 498.469 1172.289 489.469" fill="rgb(227,202,143)"/>
    <path d="M 1412.289 346.469 C 1428.289 343.469 1409.289 360.469 1411.289 347.469" fill="rgb(179,147,126)"/>
    <path d="M 1170.289 507.469 C 1190.289 505.469 1160.289 520.469 1170.289 508.469" fill="rgb(219,198,150)"/>
  </g>
  <path d="M 223.469 420.208 Q 234.355 420.026 243.9 425.327 Q 253.501 430.66 259.164 440.106 Q 264.86 449.607 265.041 460.714 Q 265.223 471.885 259.779 481.678 Q 254.304 491.526 244.61 497.332 Q 234.862 503.171 223.469 503.352 Q 212.012 503.534 201.972 497.947 Q 191.877 492.329 185.928 482.388 Q 179.947 472.393 179.765 460.714 Q 179.583 448.971 185.313 438.684 Q 191.074 428.342 201.262 422.25 Q 211.505 416.126 223.469 415.944 Q 235.497 415.762 246.031 421.635 Q 256.622 427.538 262.856 437.974 Q 269.123 448.464 269.305 460.714 Q 269.487 473.028 263.471 483.809 Q 257.425 494.647 246.742 501.024 Q 236.004 507.434 223.469 507.616 Q 210.87 507.798 199.841 501.64 Q 188.756 495.45 182.236 484.52 Q 175.683 473.535 175.502 460.714 Q 175.319 447.829 181.62 436.553 Q 187.953 425.22 199.13 418.558 Q 210.362 411.862 223.469 411.681 Q 236.64 411.498 248.163 417.942 Q 259.743 424.417 266.549 435.842 Q 273.387 447.322 273.568 460.714 Q 273.751 474.17 267.164 485.941 Q 260.546 497.768 248.874 504.717 Q 237.147 511.698 223.469 511.879 Q 209.727 512.061 197.709 505.332 Q 185.634 498.571 178.543 486.652 Q 171.419 474.677 171.238 460.714 Q 171.056 446.687 177.928 434.421 Q 184.831 422.099 196.998 414.865 Q 209.22 407.598 223.469 407.417 Q 223.426 407.418 223.469 407.417" style="stroke: rgb(0, 0, 0); fill: none;" bx:shape="spiral 223.469 460.714 40.506 53.297 0 1080 1@d27bb054"/>
  <g transform="matrix(1.800015, 0, 0, 1.800015, -380.600006, -84.267738)" bx:origin="0.5 0.484272">
    <title>SHIELD</title>
    <text style="white-space: pre; fill: rgb(51, 51, 51); font-family: Arial, sans-serif; font-size: 14.7px;" x="268.219" y="137.253" transform="matrix(0.050387, 0, 0, 0.044405, 233.319214, 330.279572)" bx:origin="3.148 67.692"><tspan x="268.218994140625" dy="1em"></tspan><tspan x="268.218994140625" dy="1em"></tspan><tspan x="268.218994140625" dy="1em"></tspan>Attack: [__ATTACK]<tspan x="268.218994140625" dy="1em"></tspan>Defense: [__DEFENSE]<tspan x="268.218994140625" dy="1em"></tspan>HP: 25 </text>
    <path d="M 254.532 330.146 C 252.617 331.167 250.551 331.922 248.435 332.5 C 246.47 332.944 244.505 333.077 242.54 333.21 C 241.986 333.654 242.238 334.32 242.137 334.809 C 242.238 337.162 242.54 339.293 243.094 341.336 C 243.698 343.512 244.505 345.466 245.664 347.286 C 246.873 349.373 248.536 351.194 250.602 352.837 C 251.861 353.814 253.171 354.657 254.583 355.146 C 256.497 354.569 258.008 353.414 259.521 352.215 C 261.385 350.661 262.594 348.974 263.652 347.242 C 264.761 345.466 265.617 343.69 266.121 341.78 C 266.826 339.249 267.078 336.629 267.129 333.965 C 267.179 333.654 266.978 333.477 266.826 333.299 C 264.761 333.077 262.745 332.899 260.881 332.455 C 258.613 331.922 256.648 331.079 254.683 330.146" style="" bx:origin="1.265 6.328"/>
    <path d="M 254.532 331.745 C 256.296 332.588 258.11 333.299 260.024 333.787 C 261.788 334.231 263.602 334.453 265.416 334.631 C 265.416 336.94 265.063 339.027 264.559 341.025 C 264.206 342.624 263.602 344 262.846 345.332 C 261.939 347.065 260.881 348.663 259.47 350.128 C 258.008 351.46 256.497 352.615 254.935 353.459 C 253.575 353.237 252.668 352.348 251.61 351.682 C 249.796 350.217 248.486 348.663 247.428 347.02 C 246.42 345.466 245.664 343.956 245.11 342.357 C 244.303 339.871 243.951 337.295 243.85 334.675 C 245.765 334.453 247.528 334.276 249.141 333.832 C 251.056 333.343 252.768 332.677 254.431 331.922" style="fill: rgb(238, 199, 135);" bx:origin="1.387 7.212"/>
    <path d="M 254.532 333.343 C 257.353 334.897 260.629 335.563 264.005 335.785 C 263.803 338.583 263.652 340.981 262.695 343.112 C 260.125 343.157 257.706 343.157 255.338 343.157 C 255.137 346.043 255.439 349.107 255.086 351.905 C 253.826 351.771 253.121 351.105 252.315 350.661 C 251.307 349.906 250.35 349.062 249.644 348.219 C 248.083 346.532 247.176 344.711 246.47 342.846 C 246.369 342.535 246.571 342.402 246.773 342.269 C 249.241 342.224 251.66 342.224 254.078 342.224 C 254.179 339.293 253.928 336.274 254.23 333.477" fill="rgb(11,11,11)" bx:origin="1.556 8.351"/>
    <path d="M 254.381 333.565 C 254.179 336.362 254.381 339.338 254.28 342.18 C 251.811 342.357 249.342 342.313 246.923 342.357 C 246.722 342.49 246.571 342.624 246.671 342.802 C 247.428 344.844 248.385 346.709 249.997 348.352 C 251.358 349.773 252.97 351.15 254.733 351.771 C 255.187 348.93 254.986 345.999 255.086 343.157 C 257.505 342.935 260.024 342.979 262.443 342.935 C 263.4 340.847 263.652 338.539 263.753 336.185 C 260.478 335.741 257.404 335.03 254.683 333.565" fill="rgb(0,0,0)" bx:origin="1.585 8.502"/>
  </g>
  <path d="M 57.203 440.084 C 58.1 439.992 59.087 439.992 59.622 440.538 C 60.879 444.192 64.821 446.475 67.152 449.486 C 69.572 447.206 71.723 445.106 73.877 442.913 C 72.799 445.469 72.889 448.757 70.469 450.492 C 72.889 453.048 75.398 455.603 77.641 457.886 C 80.239 455.603 82.748 453.048 85.079 450.672 C 82.658 448.85 82.748 445.469 81.493 443.006 C 83.915 445.011 85.978 447.206 88.216 449.486 C 90.994 446.382 94.76 443.919 95.744 440.358 C 97.268 439.719 98.972 439.902 99.686 441.179 C 100.405 442.091 100.405 443.462 99.868 444.192 C 96.103 445.742 93.952 449.579 90.994 452.043 C 93.055 454.416 95.206 456.609 97.358 458.889 C 94.849 457.796 91.622 457.976 89.918 455.421 C 87.32 457.976 84.989 460.352 82.658 462.727 C 87.856 468.296 93.415 473.956 98.434 479.066 C 98.881 481.166 99.241 482.993 99.419 484.91 C 97.537 484.727 95.744 484.363 94.042 484.088 C 88.574 478.702 83.197 473.224 77.908 467.84 C 72.26 473.315 67.152 478.52 61.685 484.088 C 59.712 484.363 58.01 484.727 56.217 485.002 C 56.397 482.993 56.664 481.166 57.021 479.432 C 62.222 473.956 67.782 468.296 72.889 463.091 C 70.647 460.442 68.228 457.976 65.807 455.511 C 63.746 458.07 60.699 457.796 58.281 459.165 C 60.341 456.698 62.493 454.509 64.641 452.316 C 61.685 449.669 59.445 445.742 55.682 444.648 C 54.693 442.823 55.5 440.723 57.114 440.175" fill="rgb(12,12,12)"/>
  <desc>Created with Fabric.js 1.7.22</desc>
  <g transform="matrix(0.128535, 0, 0, 0.146388, 357.500061, 532.499634)" style="">
    <g style="stroke: none; stroke-width: 0; stroke-dasharray: none; stroke-linecap: butt; stroke-linejoin: miter; stroke-miterlimit: 10; fill: none; fill-rule: nonzero; opacity: 1;" transform="translate(-175.05 -175.05000000000004) scale(3.89 3.89)">
      <path d="M 89 30.872 h -5.723 V 16.685 c 0 -0.271 -0.11 -0.531 -0.305 -0.719 c -0.196 -0.188 -0.452 -0.294 -0.729 -0.28 c -4.328 0.149 -8.538 0.752 -12.554 1.749 V 6.489 c 0 -0.344 -0.177 -0.665 -0.469 -0.847 c -0.293 -0.184 -0.656 -0.203 -0.968 -0.053 c -8.89 4.309 -16.793 12.648 -23.51 24.775 C 34.734 21.111 22.995 16.165 9.821 15.685 c -0.279 -0.019 -0.535 0.091 -0.731 0.28 c -0.195 0.188 -0.306 0.448 -0.306 0.72 v 7.33 c -1.392 0.098 -2.803 0.225 -4.22 0.4 c -0.504 0.063 -0.882 0.493 -0.877 1.001 l 0.047 5.456 H 0 v 53.639 h 45 h 44 c 0.553 0 1 -0.447 1 -1 V 31.872 C 90 31.32 89.553 30.872 89 30.872 z M 81.277 17.728 v 49.546 c -12.104 0.599 -23.047 4.597 -32.62 11.893 c 6.014 -9.756 12.883 -16.554 20.469 -20.23 c 0.345 -0.167 0.563 -0.517 0.563 -0.899 v -38.55 C 73.393 18.533 77.278 17.932 81.277 17.728 z M 67.689 8.127 v 49.291 C 59.575 61.524 52.293 69.006 46 79.693 V 32.215 C 52.254 20.646 59.544 12.552 67.689 8.127 z M 44 32.39 v 48.732 c -0.102 -0.058 -0.206 -0.112 -0.309 -0.17 c -9.529 -8.42 -20.581 -13.019 -32.907 -13.675 V 24.922 c 0 -0.013 0.006 -0.024 0.005 -0.038 c 0 -0.007 -0.005 -0.013 -0.005 -0.02 v -7.133 C 23.312 18.424 34.48 23.352 44 32.39 z M 8.784 26.017 v 42.216 c 0 0.538 0.426 0.979 0.963 0.999 c 9.224 0.336 17.72 2.954 25.382 7.782 c -8.824 -3.185 -18.537 -4.216 -29.023 -3.063 L 5.694 26.296 C 6.732 26.179 7.763 26.091 8.784 26.017 z M 2 32.872 h 1.751 l 0.366 42.211 c 0.002 0.285 0.126 0.556 0.341 0.743 c 0.214 0.188 0.501 0.273 0.782 0.24 c 13.865 -1.716 26.332 0.461 37.135 6.444 H 2 V 32.872 z M 88 82.511 H 47.668 c 10 -8.366 21.642 -12.831 34.643 -13.278 c 0.539 -0.019 0.966 -0.46 0.966 -0.999 V 32.872 H 88 V 82.511 z" style="stroke-width: 1; stroke-dasharray: none; stroke-linecap: butt; stroke-linejoin: miter; stroke-miterlimit: 10; fill: rgb(0, 0, 0); fill-rule: nonzero; opacity: 1; stroke: rgb(0, 0, 0);" transform=" matrix(1 0 0 1 0 0) " stroke-linecap="round"/>
    </g>
  </g>
  <desc>Created with Fabric.js 1.7.22</desc>
  <g transform="matrix(0.17302, 0, 0, 0.128536, 357.5, 462.499817)" style="filter: none;" bx:origin="0.5 0.501987">
    <g style="stroke: none; stroke-width: 0; stroke-dasharray: none; stroke-linecap: butt; stroke-linejoin: miter; stroke-miterlimit: 10; fill: none; fill-rule: nonzero; opacity: 1;" transform="translate(-175.05 -175.05000000000004) scale(3.89 3.89)">
      <path d="M 61.471 53.003 c -2.232 0 -4.048 -1.816 -4.048 -4.048 c 0 -2.232 1.816 -4.048 4.048 -4.048 s 4.048 1.816 4.048 4.048 C 65.519 51.188 63.703 53.003 61.471 53.003 z M 61.471 47.875 c -0.596 0 -1.081 0.485 -1.081 1.081 c 0 0.596 0.485 1.081 1.081 1.081 c 0.596 0 1.081 -0.485 1.081 -1.081 C 62.552 48.36 62.067 47.875 61.471 47.875 z" style="stroke-dasharray: none; stroke-linecap: butt; stroke-linejoin: miter; fill-rule: nonzero; opacity: 1; stroke-miterlimit: 1; stroke: url(#pattern-0-0); paint-order: fill; fill: rgb(0, 0, 0);" transform=" matrix(1 0 0 1 0 0) " stroke-linecap="round"/>
      <path d="M 75.222 39.317 h -1.033 V 13.171 c 0 -2.587 -2.105 -4.692 -4.691 -4.692 H 35.51 V 2.272 c 0 -0.918 -0.547 -1.74 -1.393 -2.094 c -0.818 -0.343 -1.753 -0.179 -2.406 0.414 l -4.473 3.63 l -4.473 -3.63 c -0.652 -0.594 -1.586 -0.756 -2.406 -0.414 c -0.846 0.355 -1.393 1.177 -1.393 2.094 V 8.48 h -2.704 c -2.587 0 -4.692 2.105 -4.692 4.692 v 72.138 c 0 2.587 2.105 4.691 4.692 4.691 h 53.236 c 2.587 0 4.691 -2.105 4.691 -4.691 V 58.594 h 1.033 c 1.769 0 3.208 -1.439 3.208 -3.208 v -12.86 C 78.43 40.756 76.991 39.317 75.222 39.317 z M 71.221 13.171 v 26.145 h -5.138 v -27.87 h 3.414 C 70.448 11.447 71.221 12.22 71.221 13.171 z M 21.932 3.737 L 26 7.038 c 0.717 0.583 1.757 0.585 2.475 0.001 l 4.068 -3.301 V 8.48 H 21.932 V 3.737 z M 14.537 85.309 V 13.171 c 0 -0.951 0.774 -1.724 1.724 -1.724 h 46.855 v 27.87 h -1.809 c -5.315 0 -9.638 4.324 -9.638 9.639 c 0 5.315 4.323 9.638 9.638 9.638 h 1.809 v 28.439 H 16.261 C 15.31 87.033 14.537 86.259 14.537 85.309 z M 71.221 85.309 c 0 0.95 -0.774 1.724 -1.724 1.724 h -3.414 V 58.594 h 5.138 V 85.309 z M 61.307 55.379 c -3.542 0 -6.424 -2.882 -6.424 -6.424 c 0 -3.542 2.882 -6.424 6.424 -6.424 l 13.909 -0.006 l 0.006 12.854 H 61.307 z" style="stroke-dasharray: none; stroke-linecap: butt; stroke-linejoin: miter; fill-rule: nonzero; opacity: 1; stroke-miterlimit: 1; stroke: url(#pattern-0-1); paint-order: fill; fill: rgb(0, 0, 0);" transform=" matrix(1 0 0 1 0 0) " stroke-linecap="round"/>
    </g>
  </g>
  <text style="fill: rgb(51, 51, 51); font-family: Arial, sans-serif; font-size: 40px; white-space: pre; text-anchor: middle;" x="301.656" y="479.011">1</text>
  <text style="fill: rgb(51, 51, 51); font-family: Arial, sans-serif; font-size: 31px; text-anchor: middle; text-transform: capitalize; white-space: pre;" x="232.863" y="50.518">Lord example</text>
  <text style="fill: rgb(51, 51, 51); font-family: Arial, sans-serif; font-size: 60px; text-anchor: middle; white-space: pre;" x="222.686" y="482.97">5</text>
  <path d="M 213.242 545.796 C 209.482 553.694 199.424 564.438 193.736 570.16 C 193.126 570.763 192.195 570.763 191.583 570.16 C 185.865 564.438 175.806 553.694 172.046 545.796 C 163.788 528.417 184.61 516.832 192.643 534.209 C 200.677 516.832 221.501 528.417 213.242 545.796 Z" bx:origin="0.5 0.635467"/>
  <text style="fill: rgb(51, 51, 51); font-family: Arial, sans-serif; font-size: 35px; white-space: pre; text-anchor: middle;" x="242.052" y="562.327">110</text>
  <text style="fill: rgb(51, 51, 51); font-family: Arial, sans-serif; font-size: 40px; white-space: pre; text-anchor: middle;" x="301.423" y="547.756">2</text>
  <text style="fill: rgb(51, 51, 51); font-family: Arial, sans-serif; font-size: 40px; white-space: pre; text-anchor: middle;" x="134.481" y="547.761">4</text>
  <text style="fill: rgb(51, 51, 51); font-family: Arial, sans-serif; font-size: 40px; white-space: pre; text-anchor: middle;" x="134.773" y="480.789">6</text>
  <text style="white-space: pre; fill: rgb(51, 51, 51); font-family: Arial, sans-serif; font-size: 27.2px;" x="529.714" y="442.884"> </text>
</svg>