<?xml version="1.0" encoding="utf-8"?>
<svg width="600px" height="600" xmlns="http://www.w3.org/2000/svg" xmlns:xlink="http://www.w3.org/1999/xlink" xmlns:bx="https://boxy-svg.com">
  <defs>
    <pattern x="0" y="0" width="25" height="25" patternUnits="userSpaceOnUse" viewBox="0 0 100 100" id="pattern-0">
      <rect x="0" y="0" width="50" height="100" style="fill: black;"/>
    </pattern>
    <pattern id="pattern-0-0" patternTransform="matrix(1, 0, 0, 1, 48.970999, 36.454998)" xlink:href="#pattern-0"/>
    <pattern id="pattern-0-1" patternTransform="matrix(1, 0, 0, 1, 32.499998, 32.500911)" xlink:href="#pattern-0"/>
  </defs>
  <rect width="426.72" height="600" style="stroke: rgb(0, 0, 0); fill: rgb(229, 208, 163);"/>
  <g>
    <text style="white-space: pre; fill: rgb(51, 51, 51); font-family: Arial, sans-serif; font-size: 13px;" x="71.41" y="307.656"> </text>
    <path d="M 157.039 180.18 C 138.12 200.769 191.54 198.544 175.403 206.89 C 198.218 230.818 179.298 259.755 177.629 283.683 C 192.097 302.046 203.783 275.335 217.694 282.57 C 201 286.465 185.419 302.046 168.725 281.456 C 185.975 258.641 165.943 246.956 175.96 235.27 C 163.718 231.932 150.918 241.391 131.442 241.947 C 118.644 258.085 127.547 288.691 128.103 310.392 C 138.12 340.999 158.153 356.022 173.177 378.281 C 184.862 386.629 200.444 385.516 212.129 386.072 C 199.331 388.854 184.862 385.516 178.741 385.516 C 172.62 388.854 181.524 392.193 183.193 395.531 C 195.435 407.775 216.581 402.21 234.388 403.879 C 249.413 386.629 262.211 371.604 272.784 356.022 C 255.534 369.935 237.171 381.62 214.912 384.96 C 234.944 364.37 247.187 374.387 271.115 346.563 C 283.914 337.659 288.366 323.748 291.148 310.95 C 297.269 278.674 295.043 251.408 283.914 221.915 C 263.324 213.011 270.002 219.132 255.534 203.552 C 234.388 208.559 222.146 212.455 217.694 210.229 C 211.573 197.43 253.864 198.544 242.178 189.64 C 216.581 182.406 188.202 182.406 162.047 181.293" fill="rgb(194,158,151)"/>
    <path d="M 103.619 170.164 C 103.063 248.626 82.473 223.028 117.53 369.378 C 111.965 354.91 133.668 384.96 150.362 398.314 C 155.37 407.218 170.951 401.654 181.524 403.879 C 144.797 366.039 129.773 315.401 113.636 271.997 C 126.434 257.529 112.523 205.777 130.33 183.519 C 177.629 174.059 233.832 187.971 272.784 187.971 C 295.043 221.359 301.72 264.206 298.938 303.159 C 300.608 278.118 304.502 263.093 306.172 251.408 C 306.729 313.732 307.285 253.633 313.963 297.038 C 288.366 300.933 311.737 323.192 259.986 376.612 C 267.22 369.378 271.115 370.491 277.236 366.595 C 286.139 378.281 260.542 371.047 270.558 387.185 C 281.687 376.612 280.575 385.516 294.487 375.499 C 297.825 383.846 300.051 392.193 298.938 403.323 C 312.293 403.879 322.31 402.766 331.213 403.879 C 326.761 397.202 331.213 391.081 337.89 388.298 C 339.56 392.75 339.56 398.871 338.447 402.766 C 339.56 397.758 355.141 406.661 365.157 403.323 C 369.053 389.967 361.262 372.16 366.27 363.257 C 350.132 344.894 343.455 280.344 313.963 277.005 C 316.188 241.947 323.979 218.576 316.745 199.656 C 322.866 200.213 328.987 205.777 332.326 210.786 C 326.205 195.761 336.778 209.117 333.439 194.092 C 262.768 182.406 179.298 179.623 100.28 174.615" fill="rgb(27,24,25)"/>
    <path d="M 121.982 70 C 114.192 103.388 113.636 122.864 109.74 141.228 C 124.765 141.784 144.797 141.228 160.378 142.897 C 145.91 147.905 174.847 155.139 158.153 174.615 C 203.227 156.808 188.202 183.519 224.928 171.277 C 220.477 173.502 216.025 171.277 213.242 166.268 C 228.267 166.268 229.38 162.929 234.388 162.929 C 233.832 155.695 214.912 171.833 226.598 148.462 C 231.049 149.574 237.171 144.01 242.736 149.018 C 194.879 134.55 205.452 130.655 175.96 129.542 C 183.75 132.88 158.709 118.413 180.968 118.969 C 159.822 113.405 165.943 125.647 161.491 131.211 C 141.459 136.776 138.12 123.42 143.128 118.969 C 173.177 111.178 188.758 119.526 221.033 116.186 C 239.396 127.872 281.687 127.316 310.067 140.671 C 309.511 142.897 296.712 137.332 292.817 137.332 C 309.511 142.897 332.326 146.235 334.552 167.938 C 336.778 137.332 325.648 82.242 335.665 78.346 C 317.302 70.556 298.938 70.556 282.801 70.556 C 291.704 78.904 290.591 76.677 300.051 83.355 C 290.591 86.138 290.591 75.565 276.68 71.669 C 247.187 77.234 157.596 64.435 117.53 74.452" fill="rgb(26,29,33)"/>
    <path d="M 137.007 182.962 C 130.886 185.188 127.547 191.309 126.434 200.213 C 144.797 202.438 142.015 192.423 176.516 206.334 C 160.935 208.559 135.338 197.43 128.103 210.786 C 123.095 234.714 118.088 259.755 120.313 282.013 C 125.878 294.256 125.321 311.506 134.224 323.748 C 142.015 339.329 149.805 354.353 156.483 369.378 C 171.508 379.951 175.96 407.775 195.992 403.879 C 189.314 398.871 177.072 394.975 175.403 386.629 C 184.862 384.96 197.105 388.298 212.686 387.185 C 200.444 386.072 184.306 387.185 174.847 379.951 C 161.491 358.805 142.015 348.232 135.338 324.305 C 124.209 292.586 121.982 275.892 126.434 244.73 C 137.007 240.835 162.604 236.383 174.847 235.27 C 165.943 246.956 187.089 259.198 164.274 282.013 C 186.533 302.046 201.556 284.796 218.25 282.57 C 204.339 275.892 192.097 303.159 180.412 284.239 C 178.741 259.198 197.662 230.818 176.516 208.003 C 171.508 198.544 150.362 192.979 143.128 179.067" fill="rgb(146,119,111)"/>
    <path d="M 237.727 137.332 C 243.292 145.679 256.647 163.487 246.074 175.729 C 252.751 180.737 256.09 178.51 262.211 180.18 C 21.819 165.156 354.584 191.309 336.221 183.519 C 360.149 159.591 243.848 146.793 245.517 137.332 L 243.292 136.22 L 242.736 136.22 L 242.736 136.776" fill="rgb(34,36,40)"/>
    <path d="M 331.769 191.309 C 350.69 194.092 316.188 192.423 337.334 208.559 C 331.213 213.568 324.536 199.656 317.302 198.544 C 324.536 218.576 316.745 241.947 317.302 269.771 C 319.527 252.52 316.745 219.132 327.317 214.124 C 322.31 229.149 331.213 268.658 322.866 292.029 L 321.196 283.126 L 320.084 289.804 C 336.221 273.666 342.899 305.941 347.351 324.305 C 344.011 309.836 339.56 293.698 332.326 281.456 C 351.802 254.19 357.367 234.157 358.48 200.769 C 349.02 186.858 369.053 211.342 331.769 186.302" fill="rgb(68,66,63)"/>
    <path d="M 59.102 167.938 C 67.449 172.389 86.369 169.05 98.611 173.502 C 86.369 172.946 78.578 172.389 70.231 171.833 C 75.239 187.414 78.578 220.802 78.578 233.601 C 81.917 239.722 91.377 262.537 105.288 274.779 C 99.167 281.456 95.829 290.36 95.829 299.263 C 96.385 317.627 113.079 329.313 113.079 341.555 C 110.296 352.128 105.844 361.587 99.723 369.935 C 104.175 368.266 105.844 362.144 111.409 363.257 C 124.209 375.499 144.241 392.75 148.693 402.21 C 138.676 388.298 110.296 355.466 113.636 360.474 C 109.74 354.353 113.636 350.459 117.53 346.563 C 83.586 301.49 107.515 235.826 93.602 236.939 C 104.732 227.48 96.385 216.35 106.958 172.946 C 100.836 178.51 97.498 180.18 99.167 172.946 C 98.611 171.833 68.006 167.381 64.11 169.05" fill="rgb(72,73,71)"/>
    <path d="M 123.095 145.679 C 75.239 135.663 78.578 163.487 54.65 156.252 C 49.085 162.929 103.063 171.833 144.241 174.059 C 150.362 173.502 135.894 173.502 133.668 172.389 C 155.37 161.816 165.943 160.147 139.232 141.784 C 135.338 143.453 132.555 142.897 130.33 142.897" fill="rgb(34,36,41)"/>
    <path d="M 229.936 185.744 C 242.178 188.527 245.517 189.64 243.292 194.092 C 242.178 197.987 212.686 200.769 216.581 211.342 C 223.815 210.786 229.38 210.229 255.534 202.438 C 267.776 216.907 263.324 213.011 282.244 219.689 C 286.696 226.923 293.373 249.182 295.043 263.65 C 295.599 279.787 296.156 312.619 284.47 330.982 C 263.324 366.039 235.501 367.152 217.694 384.403 C 237.727 381.064 255.534 369.378 271.672 354.91 C 263.881 371.047 253.864 381.064 242.178 396.645 C 258.316 379.395 270.002 360.474 284.47 343.224 C 278.349 346.563 273.897 353.241 267.776 357.136 C 278.905 346.563 285.583 336.547 291.148 324.305 C 294.487 312.062 301.164 292.029 297.269 273.11 C 294.487 244.73 289.478 212.455 273.341 190.753 C 244.961 189.083 253.864 193.535 231.606 185.744" fill="rgb(147,120,112)"/>
    <path d="M 213.799 115.63 C 148.136 132.88 273.341 132.88 333.439 164.599 C 331.213 153.47 324.536 150.131 312.85 144.566 L 316.188 145.679 L 317.858 146.793 C 222.146 120.082 295.043 142.897 201 113.961" fill="rgb(79,79,65)"/>
    <path d="M 154.257 298.707 C 185.419 308.167 213.799 307.054 246.63 304.828 C 229.936 322.079 228.823 328.756 213.242 330.426 C 211.017 327.643 204.339 330.426 201.556 328.756 C 217.138 318.74 222.146 324.305 230.493 308.723 C 208.234 312.619 172.62 312.619 172.064 307.611 C 176.516 323.748 184.306 323.748 196.548 328.756 C 202.669 340.442 179.854 323.192 182.081 336.547 C 162.604 331.538 164.274 308.723 153.701 300.377" fill="rgb(162,109,115)"/>
    <path d="M 155.37 142.341 C 153.145 144.566 150.362 143.453 148.136 142.897 C 148.136 162.929 159.822 156.808 159.822 164.043 C 91.377 177.398 221.033 173.502 256.09 181.85 C 238.84 181.293 254.978 158.478 228.267 168.494 C 236.057 159.591 244.405 167.381 248.857 163.487 C 255.534 160.147 243.292 149.018 246.074 147.349 C 209.348 165.712 236.057 163.487 207.121 176.285 C 173.733 169.05 204.896 164.599 160.378 175.729 C 164.274 150.131 146.467 155.139 162.604 142.897 C 159.822 141.228 157.039 143.453 156.483 142.897" fill="rgb(73,76,82)"/>
    <path d="M 233.832 217.463 C 236.057 216.907 237.171 217.463 239.953 216.907 C 256.647 216.907 266.107 226.367 272.784 234.714 C 257.76 236.939 203.227 245.286 229.38 215.794" fill="rgb(130,104,100)"/>
    <path d="M 154.814 299.263 C 163.16 308.167 163.16 330.982 180.968 334.878 C 181.524 323.192 194.879 337.103 199.331 330.982 L 199.331 329.869 L 201 332.651 C 174.847 318.184 177.072 325.417 160.378 305.941 C 167.612 311.506 192.097 312.062 230.493 307.611 C 225.484 329.313 215.469 315.957 203.227 329.313 C 204.896 329.313 211.017 327.643 213.799 330.426 C 228.267 329.313 228.823 322.079 244.961 309.28 C 213.242 308.723 187.645 307.611 155.926 300.377" fill="rgb(161,106,113)"/>
    <path d="M 232.163 215.794 C 200.444 242.504 257.203 238.053 270.558 236.383 C 265.551 226.367 256.09 217.463 240.509 218.576 C 238.284 217.463 236.614 218.576 236.057 218.02" fill="rgb(125,100,96)"/>
    <path d="M 295.043 349.345 C 258.872 387.185 277.793 345.45 233.275 410 C 250.526 410 269.445 398.314 291.148 375.499 C 287.252 383.289 305.616 390.524 297.269 403.323 C 299.495 392.193 297.269 383.846 295.043 377.725 C 293.93 377.725 293.373 377.168 292.817 377.725 C 279.462 383.846 279.462 379.951 267.776 387.185 C 268.889 368.822 287.808 371.047 294.487 349.345" fill="rgb(56,62,72)"/>
    <path d="M 232.719 185.744 C 246.074 190.196 257.203 189.083 272.784 189.083 C 286.696 205.221 290.035 228.036 295.043 248.626 C 297.825 267.545 301.72 291.473 295.599 309.28 C 270.558 364.926 277.236 340.999 277.793 354.91 C 307.285 324.305 291.148 296.481 310.624 307.054 C 308.954 255.303 306.172 312.619 307.842 243.061 C 305.616 264.762 301.72 266.989 298.938 307.611 C 300.608 287.021 298.381 266.989 296.156 249.182 C 290.591 228.036 288.366 205.777 272.784 189.083 C 253.864 185.744 248.3 188.527 234.388 186.858" fill="rgb(83,68,61)"/>
    <path d="M 322.866 214.124 C 322.31 233.601 311.181 266.989 323.979 288.691 C 323.423 249.182 328.987 238.609 328.987 215.794" fill="rgb(117,106,92)"/>
    <path d="M 158.709 180.18 C 151.474 181.85 144.797 181.293 137.007 180.737 C 134.78 181.293 133.668 181.293 133.111 181.293 C 116.974 200.213 123.095 224.141 120.869 245.843 C 123.651 233.601 119.2 216.35 128.103 208.559 C 140.903 201.882 164.83 207.447 169.839 206.89 C 148.136 194.648 142.572 199.656 128.103 197.987 C 126.99 192.979 129.216 185.188 137.007 182.406 C 184.306 178.51 253.308 186.302 149.249 178.51" fill="rgb(94,72,67)"/>
    <path d="M 104.175 348.232 C 107.515 361.031 86.925 371.604 80.248 379.951 C 77.465 379.951 79.691 362.144 71.344 368.266 C 78.021 361.031 91.377 353.797 100.836 351.015" fill="rgb(164,162,154)"/>
    <path d="M 333.996 229.149 C 342.899 221.359 325.648 264.206 337.334 280.9 C 327.317 260.868 327.875 238.053 332.326 228.592" fill="rgb(41,41,42)"/>
    <path d="M 102.506 350.459 C 92.49 354.91 81.917 358.805 74.127 366.039 C 80.804 361.031 76.908 380.508 80.804 378.281 C 86.925 372.16 104.175 361.587 105.288 349.345" fill="rgb(166,163,156)"/>
    <path d="M 292.26 378.281 C 280.018 383.289 270.558 395.531 260.542 403.879 C 277.793 399.983 270.002 389.967 284.47 385.516 C 295.043 386.072 279.462 391.081 278.905 403.879 C 288.922 390.524 279.462 407.218 298.381 402.21 C 304.502 388.854 283.914 380.508 293.93 379.395" fill="rgb(155,137,98)"/>
    <path d="M 149.249 220.246 C 160.935 219.132 165.387 221.915 170.951 228.592 C 150.918 219.689 133.111 245.286 142.572 219.132" fill="rgb(84,67,63)"/>
    <path d="M 144.241 208.003 C 154.257 206.334 169.282 210.229 178.185 215.794 C 174.29 218.02 118.644 215.794 148.693 208.003" fill="rgb(176,148,140)"/>
    <path d="M 332.882 226.923 C 327.317 241.947 328.431 259.755 328.987 282.57 C 326.205 269.771 340.673 220.802 335.108 229.705" fill="rgb(36,36,38)"/>
    <path d="M 291.704 199.656 C 293.373 227.48 303.39 205.777 303.946 248.068 C 295.043 211.342 296.156 244.73 288.922 196.874" fill="rgb(59,55,54)"/>
    <path d="M 164.274 115.63 C 131.442 122.307 149.805 116.186 139.789 127.316 C 167.056 140.114 165.943 116.186 164.83 116.186" fill="rgb(69,72,71)"/>
    <path d="M 239.396 221.359 C 244.405 221.359 256.647 223.028 264.437 231.932 C 260.542 228.592 228.823 238.609 236.057 218.576" fill="rgb(75,60,55)"/>
    <path d="M 154.257 207.447 C 116.417 211.898 168.725 219.132 178.185 218.576 C 172.064 212.455 160.935 209.117 149.805 207.447" fill="rgb(179,151,143)"/>
    <path d="M 270.002 165.712 C 280.575 165.712 293.373 172.389 282.801 182.962 C 280.018 184.075 272.228 182.406 264.993 181.293 C 270.558 182.406 281.687 166.825 269.445 167.938" fill="rgb(74,75,77)"/>
    <path d="M 335.665 76.677 C 328.987 85.581 335.665 141.784 333.996 161.26 C 333.996 145.679 339.56 96.154 335.108 70" fill="rgb(60,65,69)"/>
    <path d="M 233.832 149.018 L 234.388 148.462 C 240.509 148.462 245.517 150.687 247.743 154.026 C 227.154 164.043 231.606 165.712 232.163 149.018" fill="rgb(141,142,143)"/>
    <path d="M 323.423 344.337 C 318.971 353.241 311.737 372.716 299.495 377.168 C 303.946 371.604 314.519 349.901 320.64 346.563" fill="rgb(61,54,51)"/>
    <path d="M 288.922 198.544 C 288.922 210.229 297.269 231.932 300.051 238.053 C 302.833 216.35 297.269 221.915 291.148 201.326" fill="rgb(65,60,59)"/>
    <path d="M 353.472 341.555 C 356.811 349.345 354.028 359.362 366.27 359.362 C 366.826 349.901 367.94 338.216 353.472 343.224" fill="rgb(114,115,113)"/>
    <path d="M 111.965 145.679 C 122.538 145.122 123.651 165.156 123.095 166.268 C 123.095 156.808 106.958 151.8 108.627 145.679" fill="rgb(102,103,103)"/>
    <path d="M 285.026 384.403 C 272.784 392.75 276.68 393.306 267.776 403.323 C 282.801 406.104 286.696 380.508 288.922 386.629" fill="rgb(184,150,104)"/>
    <path d="M 321.753 346.007 C 315.075 348.789 305.06 371.604 297.825 374.387 C 311.737 372.716 315.632 355.466 322.866 346.007" fill="rgb(67,59,55)"/>
    <path d="M 335.665 347.12 C 344.011 349.345 322.866 369.935 318.971 362.144 C 332.882 357.136 320.64 358.249 333.439 346.563" fill="rgb(63,54,50)"/>
    <path d="M 340.117 387.185 C 346.794 384.96 355.141 396.089 346.238 400.54 C 346.238 399.427 335.108 399.427 340.673 386.629" fill="rgb(102,31,40)"/>
    <path d="M 145.91 225.253 C 129.216 219.132 163.718 238.053 163.718 225.253 C 159.266 221.359 155.926 222.471 149.249 221.359" fill="rgb(50,37,31)"/>
    <path d="M 236.057 149.018 C 223.259 154.583 243.848 162.373 246.074 157.365 C 244.405 152.914 240.509 148.462 236.057 149.018" fill="rgb(195,194,192)"/>
    <path d="M 252.195 77.234 C 249.413 76.121 263.324 91.146 272.784 93.371 C 268.332 100.605 255.534 83.355 248.3 78.346" fill="rgb(64,69,74)"/>
    <path d="M 238.84 223.584 C 241.622 223.584 238.284 243.061 256.09 225.811 C 246.074 221.915 244.405 225.811 239.396 222.471" fill="rgb(52,39,33)"/>
    <path d="M 173.733 130.655 C 179.298 129.542 184.862 131.211 190.427 130.655 C 190.984 136.22 165.943 137.889 172.064 131.211" fill="rgb(55,57,57)"/>
    <path d="M 338.447 388.298 C 331.769 391.081 327.317 397.202 333.996 402.766 C 342.342 405.548 337.334 394.975 339.004 389.41" fill="rgb(132,59,33)"/>
    <path d="M 216.025 221.915 C 221.033 228.036 213.242 227.48 216.581 238.053 C 209.904 228.036 202.669 235.27 214.912 221.915" fill="rgb(167,134,125)"/>
    <path d="M 270.002 386.072 C 267.22 393.306 259.986 393.306 250.526 398.871 C 256.647 387.185 255.534 392.75 267.22 386.629" fill="rgb(40,50,67)"/>
    <path d="M 341.23 385.516 C 335.108 398.314 346.238 398.871 346.794 399.427 C 353.472 397.202 348.463 386.629 341.786 387.741" fill="rgb(115,30,40)"/>
    <path d="M 339.004 345.45 C 319.527 353.241 333.996 358.805 317.302 362.144 C 324.536 369.935 341.23 348.232 336.778 347.676" fill="rgb(68,59,54)"/>
    <path d="M 143.684 218.576 C 134.224 245.286 145.91 220.246 167.056 230.818 C 172.064 240.278 114.192 221.359 162.047 220.246" fill="rgb(85,65,59)"/>
    <path d="M 289.478 351.572 C 300.608 352.128 288.922 362.701 280.018 367.152 C 281.687 357.693 290.591 359.362 288.922 351.572" fill="rgb(57,70,77)"/>
    <path d="M 182.637 140.671 C 197.105 143.453 211.573 139.558 226.042 142.897 C 212.686 144.01 197.105 144.01 183.75 142.897" fill="rgb(53,58,61)"/>
    <path d="M 286.139 170.164 C 273.897 185.188 271.115 167.938 268.332 184.075 C 285.026 188.527 289.478 177.954 283.914 169.05" fill="rgb(58,60,64)"/>
    <path d="M 226.598 166.825 C 235.501 166.825 234.388 171.277 243.292 171.277 C 227.711 179.067 229.38 166.825 228.823 169.05" fill="rgb(115,119,121)"/>
    <path d="M 120.313 83.911 C 122.538 93.928 122.538 110.622 124.765 123.978 C 121.982 112.291 120.313 97.823 119.757 86.138" fill="rgb(58,61,62)"/>
    <path d="M 174.29 130.655 C 162.047 136.776 190.427 135.663 190.427 133.437 C 185.419 131.768 180.968 130.099 175.403 131.211" fill="rgb(62,64,64)"/>
    <path d="M 320.64 362.701 C 325.092 369.378 308.954 376.612 307.285 386.072 C 309.511 378.281 316.188 368.822 318.971 364.37" fill="rgb(55,50,48)"/>
    <path d="M 216.581 222.471 C 199.887 233.044 214.356 233.044 220.477 244.73 C 209.904 237.496 218.25 228.036 216.581 224.141" fill="rgb(165,132,123)"/>
    <path d="M 308.954 284.239 C 312.85 286.465 315.075 297.594 309.511 300.377 C 307.285 295.925 307.285 290.36 308.954 285.908" fill="rgb(122,104,96)"/>
    <path d="M 305.06 183.519 C 355.141 202.438 315.075 181.85 357.367 199.1 C 344.011 181.293 335.108 192.423 307.285 185.188" fill="rgb(121,123,121)"/>
    <path d="M 152.588 130.655 C 160.935 132.88 150.362 135.663 142.572 136.776 C 140.903 131.211 147.58 131.768 150.362 131.211" fill="rgb(49,49,48)"/>
    <path d="M 243.292 139.558 C 250.526 144.01 255.534 144.01 263.324 143.453 C 262.211 138.445 256.09 139.558 244.405 139.001" fill="rgb(82,82,70)"/>
    <path d="M 260.542 141.228 C 259.986 146.793 274.454 145.122 289.478 148.462 C 291.704 146.235 271.115 142.897 262.768 140.671" fill="rgb(118,116,87)"/>
    <path d="M 337.334 210.229 C 335.108 211.898 335.108 221.359 335.108 225.811 C 328.987 220.802 331.769 211.898 334.552 211.342" fill="rgb(45,46,46)"/>
    <path d="M 304.502 319.853 C 313.406 322.079 296.712 328.2 296.712 334.321 C 296.712 329.313 298.938 324.861 302.833 320.409" fill="rgb(94,68,53)"/>
    <path d="M 268.889 386.072 C 257.76 393.306 256.09 387.185 252.751 395.531 C 260.542 392.75 264.437 392.193 270.002 388.298" fill="rgb(32,42,59)"/>
    <path d="M 115.861 270.327 C 110.296 272.553 115.861 284.796 121.426 283.683 C 115.861 281.456 123.651 269.214 116.417 272.553" fill="rgb(82,67,64)"/>
    <path d="M 262.211 202.438 C 273.897 210.229 262.211 196.874 279.462 214.124 C 272.228 213.011 272.228 208.559 262.211 204.665" fill="rgb(118,86,77)"/>
    <path d="M 233.832 223.028 C 248.857 236.383 217.138 231.932 234.388 224.697" fill="rgb(159,154,159)"/>
    <path d="M 213.799 97.823 C 236.057 103.944 207.121 110.622 215.469 100.049" fill="rgb(76,81,83)"/>
    <path d="M 309.511 284.796 C 308.398 289.247 307.285 294.812 308.954 299.82 C 313.963 297.594 312.293 289.247 310.067 285.908" fill="rgb(133,115,107)"/>
    <path d="M 298.938 157.922 C 308.398 160.147 320.64 164.599 328.431 166.825 C 320.64 166.825 309.511 161.26 299.495 159.591" fill="rgb(47,52,55)"/>
    <path d="M 234.388 305.385 C 250.526 307.611 238.84 308.167 234.388 315.401 C 236.057 312.619 236.057 309.836 234.944 306.498" fill="rgb(110,74,79)"/>
    <path d="M 261.099 190.196 C 273.341 189.083 266.107 194.648 273.897 199.1 C 267.22 197.987 266.107 191.309 262.768 191.309" fill="rgb(171,139,127)"/>
    <path d="M 301.164 328.2 C 305.616 333.207 295.043 338.216 293.93 340.999 C 294.487 338.772 296.712 332.095 301.164 330.426" fill="rgb(38,47,60)"/>
    <path d="M 62.441 172.389 C 67.449 170.72 70.231 174.615 69.675 176.841 C 62.441 168.494 61.327 183.519 59.658 171.833" fill="rgb(104,98,87)"/>
    <path d="M 149.805 130.099 C 156.483 132.88 139.789 130.655 142.572 136.22 C 150.362 135.106 161.491 132.88 150.918 130.655" fill="rgb(53,53,51)"/>
    <path d="M 320.084 363.814 C 316.745 368.266 310.067 378.838 305.06 386.629 C 309.511 378.281 320.084 369.935 321.753 364.37" fill="rgb(62,56,54)"/>
    <path d="M 232.719 305.941 C 241.066 312.619 222.702 323.192 232.163 306.498" fill="rgb(167,152,149)"/>
    <path d="M 207.121 122.307 C 219.92 127.872 213.799 131.768 223.815 132.88 C 217.138 133.437 223.259 125.09 210.46 121.751" fill="rgb(117,121,116)"/>
    <path d="M 68.562 145.679 C 61.327 154.583 81.36 145.679 90.264 147.349 C 83.029 146.793 75.796 147.349 70.787 146.793" fill="rgb(188,190,185)"/>
    <path d="M 249.413 220.246 C 255.534 238.609 244.961 225.811 264.993 234.157 C 259.429 228.592 254.421 223.584 248.857 223.028" fill="rgb(80,62,58)"/>
    <path d="M 246.63 221.359 C 234.944 223.584 231.606 218.576 239.953 232.488 C 242.736 225.811 233.832 220.246 247.743 223.028" fill="rgb(73,59,54)"/>
    <path d="M 157.596 85.025 C 166.499 85.581 158.153 97.267 155.37 85.025" fill="rgb(68,68,68)"/>
    <path d="M 259.986 202.438 C 264.437 204.108 272.228 210.786 276.123 213.568 C 271.672 207.447 267.22 201.326 262.211 203.552" fill="rgb(112,80,71)"/>
    <path d="M 335.665 211.342 C 332.882 211.898 329.544 219.689 333.439 224.141 C 337.334 222.471 329.544 212.455 338.447 211.342" fill="rgb(40,40,41)"/>
    <path d="M 236.614 225.253 C 217.694 228.036 243.848 237.496 235.501 225.253" fill="rgb(166,164,170)"/>
    <path d="M 120.869 70.556 C 113.636 93.928 113.636 122.307 106.958 145.122 C 111.409 139.001 113.079 100.605 120.869 71.669" fill="rgb(68,67,64)"/>
    <path d="M 296.712 172.946 C 314.519 173.502 292.817 185.188 298.381 172.946" fill="rgb(75,74,73)"/>
    <path d="M 323.979 179.623 C 321.753 177.954 317.302 196.317 327.875 178.51" fill="rgb(67,68,71)"/>
    <path d="M 184.862 157.365 C 201 156.808 182.081 169.05 184.306 156.252" fill="rgb(54,57,62)"/>
    <path d="M 256.09 138.445 C 271.115 141.228 282.801 144.566 297.269 147.905 C 284.47 144.01 271.672 140.114 257.76 138.445" fill="rgb(200,196,170)"/>
    <path d="M 112.523 126.203 C 117.53 128.428 113.079 136.22 115.305 140.671 C 111.409 139.558 113.079 131.211 113.079 128.985" fill="rgb(55,54,48)"/>
    <path d="M 74.683 154.026 C 78.578 152.914 81.36 157.922 85.812 156.808 C 81.917 156.252 74.127 160.704 74.127 155.139" fill="rgb(89,92,94)"/>
    <path d="M 236.057 306.498 C 235.501 308.167 237.727 312.062 233.832 314.288 C 237.727 309.836 249.969 306.498 236.614 306.498" fill="rgb(99,64,70)"/>
    <path d="M 159.822 305.385 C 165.943 305.385 164.83 318.184 173.177 319.296 C 165.943 316.514 168.168 305.941 160.935 304.828" fill="rgb(105,60,64)"/>
    <path d="M 350.69 187.971 C 341.786 191.866 364.601 200.213 350.69 187.414" fill="rgb(28,33,36)"/>
    <path d="M 323.423 209.117 C 333.439 204.665 330.1 217.463 322.31 209.673" fill="rgb(103,99,88)"/>
    <path d="M 182.637 117.856 C 199.887 118.413 203.227 118.969 212.686 120.082 C 203.227 117.299 192.097 117.856 185.975 117.299" fill="rgb(114,118,120)"/>
    <path d="M 256.09 189.64 C 267.776 190.196 264.437 200.769 256.09 190.753" fill="rgb(171,140,130)"/>
    <path d="M 276.68 95.598 C 280.018 97.267 283.357 100.049 285.583 102.832 C 278.905 103.944 280.575 101.163 277.236 96.711" fill="rgb(72,77,82)"/>
    <path d="M 335.665 356.58 C 337.89 359.918 328.431 366.595 326.205 369.378 C 328.431 365.483 331.769 362.144 333.996 357.693" fill="rgb(50,48,47)"/>
    <path d="M 233.275 306.498 C 224.928 316.514 235.501 318.184 234.944 306.498" fill="rgb(177,165,161)"/>
    <path d="M 305.06 186.302 C 290.591 188.527 313.406 186.858 327.317 190.753 C 321.196 189.083 314.519 187.414 307.285 186.858" fill="rgb(71,76,80)"/>
    <path d="M 352.915 229.705 C 355.697 238.053 343.455 241.391 351.802 230.262" fill="rgb(112,105,95)"/>
    <path d="M 226.042 86.138 C 239.396 93.371 229.936 96.154 226.042 86.694" fill="rgb(64,70,73)"/>
    <path d="M 235.501 125.647 C 240.509 130.099 243.848 128.428 250.526 128.428 C 246.074 127.872 242.736 125.647 237.727 125.647" fill="rgb(38,42,48)"/>
    <path d="M 75.796 178.51 C 88.038 175.729 81.36 187.971 76.908 179.623" fill="rgb(102,99,95)"/>
    <path d="M 310.624 310.392 C 321.196 315.957 298.381 318.74 310.067 312.062" fill="rgb(61,59,56)"/>
    <path d="M 317.858 154.583 C 332.326 154.026 327.317 160.704 320.084 155.695" fill="rgb(83,87,69)"/>
    <path d="M 262.211 190.753 C 267.22 190.753 266.663 196.874 273.341 200.213 C 267.22 194.092 272.228 188.527 262.768 191.309" fill="rgb(175,144,132)"/>
    <path d="M 185.975 145.679 C 197.105 147.905 182.637 155.695 185.975 146.235" fill="rgb(43,47,55)"/>
    <path d="M 302.277 328.756 C 298.938 332.095 295.043 337.103 292.817 340.442 C 295.043 337.659 302.833 334.878 302.277 329.313" fill="rgb(41,50,64)"/>
    <path d="M 150.918 79.46 C 163.16 79.46 162.047 87.25 150.918 80.573" fill="rgb(64,66,67)"/>
    <path d="M 308.398 345.45 C 316.745 347.676 298.381 357.136 307.842 346.007" fill="rgb(58,57,59)"/>
    <path d="M 159.822 90.033 C 172.064 100.049 150.362 95.598 162.047 93.371" fill="rgb(63,66,68)"/>
    <path d="M 183.75 120.638 C 198.218 122.864 187.089 129.542 186.533 121.751" fill="rgb(99,100,96)"/>
    <path d="M 125.878 308.167 C 141.459 340.999 155.37 374.943 183.193 402.766 C 155.926 374.943 142.015 341.555 126.434 309.28" fill="rgb(82,69,63)"/>
    <path d="M 333.439 382.177 C 339.56 384.96 321.196 395.531 332.882 382.733" fill="rgb(80,30,36)"/>
    <path d="M 310.067 108.396 C 319.527 111.734 310.067 121.195 310.624 109.509" fill="rgb(63,67,72)"/>
    <path d="M 182.637 141.228 C 191.54 145.122 204.339 141.228 218.807 144.01 C 210.46 139.558 203.227 145.122 182.081 141.228" fill="rgb(61,67,70)"/>
    <path d="M 62.997 173.502 C 52.981 175.729 78.021 177.954 64.666 172.389" fill="rgb(98,92,81)"/>
    <path d="M 287.808 181.293 C 291.148 181.85 295.043 181.85 298.381 182.406 C 294.487 183.519 289.478 183.519 286.696 182.406" fill="rgb(52,53,57)"/>
    <path d="M 350.69 330.982 C 342.342 339.886 368.496 340.999 351.802 341.555 C 356.254 346.563 354.584 352.684 356.254 356.58 C 354.584 352.128 356.254 346.007 352.359 342.668 C 357.367 342.111 362.932 341.555 366.27 343.78 C 361.262 337.103 346.794 342.111 350.132 331.538" fill="rgb(70,74,71)"/>
    <path d="M 238.84 125.09 C 241.066 123.978 252.751 128.985 257.76 127.316 C 248.857 125.09 247.743 125.647 241.066 123.978" fill="rgb(124,129,131)"/>
    <path d="M 136.451 175.172 C 129.216 175.729 155.926 176.841 158.153 177.398 C 149.805 175.172 141.459 176.285 139.232 174.615" fill="rgb(125,124,121)"/>
    <path d="M 284.47 173.502 C 271.672 171.277 285.026 175.729 270.558 174.059 C 276.123 173.502 284.47 181.293 282.244 172.946" fill="rgb(123,122,120)"/>
    <path d="M 210.46 82.798 C 219.363 86.694 193.21 87.25 210.46 83.355" fill="rgb(65,70,70)"/>
    <path d="M 332.326 200.213 C 342.899 199.656 333.439 208.003 331.213 201.882" fill="rgb(45,44,44)"/>
    <path d="M 352.915 364.37 C 361.262 368.822 359.593 379.395 353.472 365.483" fill="rgb(44,46,49)"/>
    <path d="M 188.758 157.922 C 177.629 159.591 190.984 166.825 189.871 157.365" fill="rgb(53,56,61)"/>
    <path d="M 231.049 199.656 C 236.057 202.995 213.242 205.777 230.493 199.656" fill="rgb(122,92,88)"/>
    <path d="M 274.454 152.357 C 277.793 151.8 280.575 154.583 283.357 154.026 C 280.018 154.026 275.01 155.695 273.341 152.914" fill="rgb(40,45,49)"/>
    <path d="M 330.1 208.559 C 322.31 207.447 321.753 216.35 331.769 208.003" fill="rgb(107,102,91)"/>
    <path d="M 134.78 94.484 C 142.572 98.38 131.999 103.388 135.338 96.154" fill="rgb(66,67,67)"/>
    <path d="M 228.823 135.106 C 237.727 135.106 230.493 146.793 229.936 135.663" fill="rgb(107,108,104)"/>
    <path d="M 134.224 202.995 C 152.588 200.769 130.33 208.003 133.668 202.438" fill="rgb(114,89,85)"/>
    <path d="M 153.701 247.512 C 166.499 245.286 155.926 253.077 154.814 249.182" fill="rgb(176,133,123)"/>
    <path d="M 281.131 353.797 C 289.478 352.684 269.445 364.926 280.575 353.797" fill="rgb(47,52,58)"/>
    <path d="M 320.084 266.989 C 329.544 265.876 321.753 277.005 320.64 267.545" fill="rgb(107,96,82)"/>
    <path d="M 292.26 117.856 C 300.051 118.969 290.591 128.428 291.704 118.969" fill="rgb(57,62,68)"/>
    <path d="M 109.74 145.122 C 113.636 160.704 110.296 141.784 118.644 151.244 C 116.974 149.018 115.305 144.566 111.409 147.349" fill="rgb(188,190,185)"/>
    <path d="M 222.146 118.969 C 228.267 122.307 218.25 122.864 234.388 123.978 C 229.936 121.751 226.042 120.638 222.702 119.526" fill="rgb(112,116,120)"/>
    <path d="M 333.439 183.519 C 318.971 190.196 336.221 185.744 337.334 189.083 C 337.334 185.188 327.875 185.188 332.882 182.962" fill="rgb(69,70,73)"/>
    <path d="M 311.181 150.687 C 322.866 154.026 312.85 156.252 311.181 152.357" fill="rgb(103,94,70)"/>
    <path d="M 325.648 152.914 C 335.108 159.035 326.761 164.599 332.882 166.825 C 331.769 162.929 332.326 157.365 327.317 154.583" fill="rgb(113,113,86)"/>
    <path d="M 294.487 200.213 C 301.72 212.455 291.704 207.447 294.487 202.438" fill="rgb(50,49,48)"/>
    <path d="M 256.647 189.64 C 261.099 198.544 269.445 192.979 257.76 190.196" fill="rgb(176,146,137)"/>
    <path d="M 77.465 185.744 C 86.369 184.075 79.135 194.648 77.465 185.744" fill="rgb(101,104,103)"/>
    <path d="M 120.869 77.234 C 126.434 79.46 116.974 90.59 120.869 77.79" fill="rgb(54,54,53)"/>
    <path d="M 296.712 216.907 C 298.938 228.036 290.591 220.802 296.712 219.689" fill="rgb(55,52,52)"/>
    <path d="M 268.332 143.453 C 263.324 148.462 281.131 147.349 268.889 142.897" fill="rgb(98,94,68)"/>
    <path d="M 78.021 211.342 C 86.925 210.229 81.917 218.576 78.021 212.455" fill="rgb(99,103,103)"/>
    <path d="M 305.616 267.545 C 309.511 270.327 301.72 282.57 305.06 268.658" fill="rgb(54,50,50)"/>
    <path d="M 57.989 175.172 C 65.223 176.841 57.989 188.527 58.545 176.285" fill="rgb(100,98,90)"/>
    <path d="M 153.701 162.373 C 137.563 165.712 157.596 171.833 152.032 160.147" fill="rgb(120,121,120)"/>
    <path d="M 232.719 167.938 C 218.807 172.946 247.187 174.615 230.493 167.381" fill="rgb(125,129,131)"/>
    <path d="M 159.822 152.357 C 158.153 155.139 150.918 159.035 162.604 151.8" fill="rgb(183,185,182)"/>
    <path d="M 167.612 225.811 C 161.491 233.044 177.629 229.705 168.168 226.923" fill="rgb(169,168,176)"/>
    <path d="M 303.946 321.522 C 294.487 326.53 310.624 319.296 293.373 335.434 C 297.825 327.643 307.285 324.305 306.729 320.409" fill="rgb(102,64,51)"/>
    <path d="M 229.38 83.355 C 237.727 85.581 237.171 91.146 228.823 85.025" fill="rgb(44,49,55)"/>
    <path d="M 312.85 310.95 C 300.608 315.957 313.406 317.071 312.85 312.062" fill="rgb(81,77,71)"/>
    <path d="M 161.491 177.398 C 172.62 177.398 189.314 178.51 200.444 179.067 C 188.202 177.954 176.516 177.954 163.718 176.841" fill="rgb(117,115,113)"/>
    <path d="M 187.645 146.235 C 180.412 150.131 194.879 152.914 187.645 146.235" fill="rgb(44,49,56)"/>
    <path d="M 300.608 81.129 C 307.285 88.919 293.93 86.138 301.164 83.355" fill="rgb(59,62,66)"/>
    <path d="M 300.051 96.711 C 308.398 97.267 293.93 106.17 300.608 97.823" fill="rgb(64,69,72)"/>
    <path d="M 285.583 401.096 C 282.801 406.661 301.72 402.21 286.139 401.654" fill="rgb(174,156,114)"/>
    <path d="M 244.961 130.099 C 249.413 130.099 259.429 132.88 266.663 133.437 C 261.099 132.88 254.978 129.542 245.517 129.542" fill="rgb(130,120,102)"/>
    <path d="M 268.332 133.437 C 276.68 135.106 287.252 137.889 297.825 140.114 C 287.808 137.332 279.462 135.663 271.115 133.437" fill="rgb(138,132,100)"/>
    <path d="M 261.099 382.177 C 270.002 383.289 253.308 389.41 260.542 382.733" fill="rgb(85,110,128)"/>
    <path d="M 76.908 178.51 C 82.473 186.302 87.481 181.85 78.578 177.954" fill="rgb(108,106,102)"/>
    <path d="M 164.274 97.823 C 173.177 98.38 162.047 105.057 163.718 98.38" fill="rgb(70,72,74)"/>
    <path d="M 311.181 345.45 C 302.277 349.901 307.285 354.91 311.181 346.007" fill="rgb(67,66,67)"/>
    <path d="M 302.833 321.522 C 300.608 324.861 297.825 328.2 296.156 331.538 C 299.495 328.756 300.608 324.861 303.946 322.635" fill="rgb(148,114,84)"/>
    <path d="M 154.257 120.082 C 160.378 123.978 137.007 121.751 154.257 120.638" fill="rgb(88,89,87)"/>
    <path d="M 262.768 184.075 C 273.341 184.075 284.47 186.302 294.487 185.188 C 285.026 185.188 275.01 184.075 264.437 184.075" fill="rgb(119,120,118)"/>
    <path d="M 173.177 202.995 C 176.516 198.544 178.185 210.786 172.62 203.552" fill="rgb(164,138,133)"/>
  </g>
  <g transform="matrix(0.992372, 0, 0, 0.992372, -1019.650574, 60.391132)">
    <title>card</title>
    <path d="M 1424.289 346.469 C 1318.289 358.469 1190.289 351.469 1048.289 348.469 C 1054.289 369.469 1074.289 340.469 1097.289 389.469 C 1081.289 364.469 1079.289 356.469 1074.289 351.469 C 1091.289 361.469 1113.289 383.469 1123.289 381.469 C 1128.289 386.469 1127.289 380.469 1125.289 383.469 C 1107.289 360.469 1140.289 372.469 1129.289 356.469 C 1154.289 359.469 1193.289 351.469 1200.289 370.469 C 1215.289 411.469 1198.289 379.469 1219.289 428.469 C 1205.289 458.469 1179.289 469.469 1161.289 508.469 C 1208.289 527.469 1235.289 503.469 1275.289 521.469 C 1280.289 515.469 1270.289 499.469 1277.289 490.469 C 1285.289 507.469 1289.289 507.469 1283.289 521.469 C 1319.289 481.469 1420.289 577.469 1432.289 432.469 L 1426.289 426.469 L 1426.289 426.469 C 1421.289 439.469 1413.289 444.469 1407.289 429.469 C 1419.289 434.469 1412.289 421.469 1433.289 420.469 C 1403.289 305.469 1433.289 405.469 1430.289 344.469" fill="rgb(229,208,163)"/>
    <path d="M 1075.289 351.469 C 1079.289 358.469 1077.289 359.469 1101.289 381.469 C 1083.289 379.469 1080.289 364.469 1069.289 354.469 C 1081.289 382.469 1059.289 389.469 1068.289 417.469 C 1077.289 416.469 1078.289 425.469 1108.289 425.469 C 1101.289 431.469 1087.289 432.469 1070.289 428.469 C 1071.289 431.469 1079.289 440.469 1090.289 438.469 C 1078.289 439.469 1069.289 445.469 1060.289 440.469 C 1078.289 448.469 1040.289 462.469 1091.289 448.469 C 1047.289 461.469 1069.289 466.469 1067.289 485.469 C 1075.289 498.469 1107.289 488.469 1119.289 485.469 C 1090.289 495.469 1100.289 506.469 1062.289 499.469 C 1130.289 521.469 1098.289 518.469 1161.289 519.469 C 1183.289 493.469 1168.289 522.469 1146.289 508.469 C 1196.289 519.469 1187.289 460.469 1196.289 494.469 C 1171.289 453.469 1217.289 479.469 1191.289 458.469 C 1219.289 461.469 1205.289 453.469 1227.289 451.469 C 1202.289 468.469 1225.289 404.469 1200.289 373.469 C 1196.289 342.469 1124.289 374.469 1121.289 357.469 C 1103.289 369.469 1109.289 364.469 1127.289 381.469 C 1106.289 380.469 1091.289 362.469 1077.289 349.469" fill="rgb(216,188,132)"/>
    <path d="M 1033.289 -52.531 C 1033.289 105.469 1033.289 262.469 1033.289 420.469 C 1033.289 459.469 1033.289 496.469 1033.289 534.469 C 1033.289 537.469 1033.289 538.469 1033.289 540.469 C 1107.289 543.469 1042.289 534.469 1157.289 524.469 C 1116.289 521.469 1065.289 532.469 1034.289 535.469 C 1041.289 511.469 1065.289 525.469 1059.289 494.469 C 1068.289 458.469 1050.289 431.469 1030.289 426.469 C 1052.289 427.469 1045.289 421.469 1058.289 440.469 C 1073.289 369.469 1048.289 365.469 1032.289 335.469 C 1082.289 337.469 1136.289 343.469 1175.289 348.469 C 1277.289 351.469 1353.289 348.469 1454.289 330.469 C 1298.289 344.469 1164.289 342.469 1049.289 317.469 C 1024.289 283.469 1038.289 143.469 1033.289 70.469 C 1064.289 36.469 1139.289 19.469 1175.289 18.469 C 1230.289 27.469 1289.289 5.469 1372.289 23.469 C 1391.289 42.469 1420.289 35.469 1456.289 64.469 C 1440.289 5.469 1291.289 -4.531 1160.289 5.469 C 1086.289 6.469 1110.289 16.469 1030.289 51.469 C 1035.289 18.469 1033.289 -1.531 1033.289 -50.531" fill="rgb(47,30,29)"/>
    <path d="M 1127.289 -37.531 C 1110.289 -57.531 1130.289 0.469 1138.289 3.469 C 1157.289 0.469 1218.289 1.469 1266.289 2.469 C 1259.289 -9.531 1247.289 -6.531 1247.289 -23.531 C 1269.289 -7.531 1315.289 -28.531 1337.289 7.469 C 1292.289 -19.531 1335.289 -26.531 1306.289 -40.531 C 1291.289 -38.531 1247.289 -48.531 1254.289 -23.531 C 1257.289 -51.531 1147.289 -35.531 1125.289 -45.531" fill="rgb(201,174,131)"/>
    <path d="M 1456.289 -46.531 C 1320.289 -68.531 1404.289 22.469 1464.289 34.469 C 1448.289 34.469 1458.289 -16.531 1452.289 -47.531 C 1439.289 -43.531 1436.289 -49.531 1444.289 -51.531" fill="rgb(180,69,65)"/>
    <path d="M 1046.289 -52.531 C 1053.289 -47.531 1049.289 -43.531 1033.289 -50.531 C 1033.289 10.469 1045.289 38.469 1042.289 42.469 C 1057.289 36.469 1069.289 23.469 1097.289 18.469 C 1083.289 3.469 1057.289 49.469 1046.289 14.469 C 1185.289 -28.531 1067.289 -64.531 1057.289 -43.531" fill="rgb(156,60,55)"/>
    <path d="M 1302.289 523.469 C 1232.289 533.469 1194.289 518.469 1123.289 536.469 C 1572.289 534.469 1413.289 534.469 1311.289 527.469" fill="rgb(56,25,25)"/>
    <path d="M 1351.289 -44.531 C 1332.289 -42.531 1315.289 -41.531 1296.289 -42.531 C 1320.289 -40.531 1307.289 -36.531 1320.289 -28.531 C 1313.289 -23.531 1323.289 -11.531 1298.289 -15.531 C 1269.289 -17.531 1268.289 -17.531 1255.289 -25.531 C 1257.289 -36.531 1259.289 -44.531 1293.289 -41.531 C 1261.289 -42.531 1229.289 -42.531 1199.289 -41.531 C 1263.289 -50.531 1236.289 -4.531 1272.289 -0.531 C 1386.289 29.469 1384.289 -18.531 1346.289 -50.531 C 1357.289 -44.531 1355.289 -44.531 1352.289 -45.531" fill="rgb(223,207,180)"/>
    <path d="M 1056.289 -57.531 C 1049.289 -39.531 1387.289 -37.531 1435.289 -55.531 C 1328.289 -51.531 1246.289 -57.531 1075.289 -54.531" fill="rgb(172,73,68)"/>
    <path d="M 1244.289 446.469 C 1211.289 478.469 1148.289 551.469 1291.289 500.469 C 1295.289 535.469 1266.289 506.469 1333.289 525.469 C 1252.289 509.469 1313.289 482.469 1255.289 490.469 C 1271.289 437.469 1226.289 500.469 1243.289 437.469" fill="rgb(217,193,144)"/>
    <path d="M 1452.289 428.469 C 1426.289 431.469 1425.289 459.469 1420.289 479.469 C 1423.289 492.469 1426.289 511.469 1443.289 510.469 C 1457.289 506.469 1442.289 441.469 1451.289 437.469" fill="rgb(72,29,27)"/>
    <path d="M 1295.289 384.469 C 1305.289 409.469 1274.289 396.469 1291.289 424.469 C 1286.289 425.469 1281.289 430.469 1288.289 445.469 C 1308.289 411.469 1328.289 458.469 1352.289 422.469 C 1317.289 432.469 1359.289 412.469 1322.289 401.469 C 1321.289 393.469 1354.289 408.469 1343.289 392.469 C 1323.289 378.469 1299.289 407.469 1303.289 385.469" fill="rgb(217,193,145)"/>
    <path d="M 1322.289 388.469 C 1325.289 390.469 1344.289 393.469 1349.289 397.469 C 1324.289 399.469 1334.289 391.469 1313.289 403.469 C 1348.289 403.469 1324.289 415.469 1346.289 420.469 C 1335.289 428.469 1323.289 434.469 1334.289 438.469 C 1325.289 427.469 1313.289 408.469 1291.289 423.469 C 1296.289 403.469 1302.289 388.469 1319.289 392.469" fill="rgb(220,195,148)"/>
    <path d="M 1444.289 350.469 C 1427.289 384.469 1429.289 352.469 1427.289 444.469 C 1459.289 386.469 1426.289 403.469 1458.289 354.469" fill="rgb(74,27,26)"/>
    <path d="M 1375.289 438.469 C 1370.289 450.469 1312.289 418.469 1357.289 481.469 C 1340.289 445.469 1362.289 474.469 1354.289 446.469 C 1384.289 454.469 1374.289 469.469 1374.289 471.469 C 1416.289 463.469 1391.289 461.469 1415.289 451.469 C 1380.289 444.469 1420.289 431.469 1368.289 432.469" fill="rgb(215,189,137)"/>
    <path d="M 1034.289 330.469 C 1043.289 340.469 1033.289 358.469 1058.289 360.469 C 1060.289 344.469 1034.289 358.469 1040.289 342.469 C 1088.289 347.469 1118.289 356.469 1166.289 348.469 C 1128.289 349.469 1083.289 334.469 1034.289 331.469" fill="rgb(181,61,58)"/>
    <path d="M 1242.289 464.469 C 1244.289 489.469 1264.289 469.469 1269.289 503.469 C 1255.289 503.469 1249.289 502.469 1249.289 513.469 C 1228.289 478.469 1222.289 480.469 1243.289 473.469" fill="rgb(222,196,142)"/>
    <path d="M 1453.289 333.469 C 1405.289 334.469 1359.289 351.469 1317.289 345.469 C 1372.289 354.469 1438.289 347.469 1454.289 336.469" fill="rgb(181,58,57)"/>
    <path d="M 1369.289 432.469 C 1368.289 433.469 1392.289 430.469 1401.289 431.469 C 1421.289 445.469 1376.289 440.469 1414.289 465.469 C 1355.289 459.469 1381.289 457.469 1369.289 431.469" fill="rgb(218,192,140)"/>
    <path d="M 1341.289 479.469 C 1357.289 496.469 1393.289 500.469 1425.289 498.469 C 1398.289 511.469 1359.289 504.469 1341.289 484.469" fill="rgb(207,182,140)"/>
    <path d="M 1119.289 -28.531 C 1125.289 -5.531 1107.289 -11.531 1050.289 9.469 C 1086.289 27.469 1074.289 -16.531 1108.289 8.469 C 1089.289 -8.531 1135.289 1.469 1121.289 -29.531" fill="rgb(79,36,32)"/>
    <path d="M 1062.289 463.469 C 1064.289 477.469 1065.289 495.469 1059.289 508.469 C 1071.289 507.469 1094.289 518.469 1114.289 500.469 C 1089.289 507.469 1082.289 505.469 1065.289 502.469 C 1081.289 497.469 1104.289 497.469 1119.289 487.469 C 1102.289 499.469 1069.289 485.469 1076.289 492.469 C 1080.289 486.469 1060.289 482.469 1065.289 463.469" fill="rgb(238,218,176)"/>
    <path d="M 1341.289 482.469 C 1358.289 502.469 1395.289 510.469 1421.289 503.469 C 1393.289 500.469 1363.289 499.469 1343.289 481.469" fill="rgb(198,172,129)"/>
    <path d="M 1114.289 503.469 C 1067.289 534.469 1076.289 501.469 1047.289 527.469 C 1068.289 522.469 1088.289 531.469 1114.289 505.469" fill="rgb(232,213,179)"/>
    <path d="M 1376.289 515.469 C 1389.289 523.469 1407.289 528.469 1439.289 528.469 C 1429.289 517.469 1419.289 527.469 1377.289 510.469" fill="rgb(238,223,194)"/>
    <path d="M 1056.289 402.469 C 1085.289 465.469 1060.289 423.469 1115.289 428.469 C 1086.289 406.469 1086.289 433.469 1062.289 409.469" fill="rgb(232,211,168)"/>
    <path d="M 1392.289 474.469 C 1402.289 472.469 1404.289 487.469 1403.289 489.469 C 1376.289 501.469 1373.289 467.469 1394.289 478.469" fill="rgb(222,196,142)"/>
    <path d="M 1393.289 469.469 C 1383.289 473.469 1356.289 489.469 1407.289 492.469 C 1406.289 476.469 1394.289 476.469 1390.289 468.469" fill="rgb(220,194,138)"/>
    <path d="M 1352.289 436.469 C 1366.289 431.469 1361.289 449.469 1370.289 442.469 C 1363.289 437.469 1342.289 453.469 1347.289 434.469" fill="rgb(221,196,146)"/>
    <path d="M 1033.289 364.469 C 1044.289 363.469 1053.289 382.469 1059.289 387.469 C 1037.289 353.469 1043.289 404.469 1032.289 367.469" fill="rgb(131,39,35)"/>
    <path d="M 1199.289 494.469 C 1207.289 519.469 1207.289 494.469 1215.289 520.469 C 1195.289 520.469 1185.289 523.469 1201.289 499.469" fill="rgb(219,198,153)"/>
    <path d="M 1213.289 473.469 C 1219.289 483.469 1225.289 485.469 1230.289 493.469 C 1190.289 498.469 1222.289 487.469 1214.289 480.469" fill="rgb(224,199,144)"/>
    <path d="M 1371.289 3.469 C 1401.289 33.469 1448.289 24.469 1447.289 48.469 C 1391.289 6.469 1407.289 25.469 1381.289 3.469" fill="rgb(96,63,58)"/>
    <path d="M 1224.289 500.469 C 1226.289 514.469 1234.289 515.469 1216.289 519.469 C 1213.289 507.469 1218.289 502.469 1223.289 500.469" fill="rgb(221,199,152)"/>
    <path d="M 1065.289 368.469 C 1057.289 374.469 1068.289 383.469 1064.289 398.469 C 1068.289 398.469 1069.289 395.469 1066.289 399.469 C 1074.289 369.469 1093.289 407.469 1067.289 363.469" fill="rgb(222,201,163)"/>
    <path d="M 1430.289 12.469 C 1403.289 5.469 1437.289 32.469 1447.289 21.469 C 1442.289 19.469 1442.289 10.469 1429.289 8.469" fill="rgb(106,48,43)"/>
    <path d="M 1033.289 362.469 C 1041.289 409.469 1037.289 352.469 1056.289 394.469 C 1051.289 380.469 1045.289 370.469 1037.289 365.469" fill="rgb(142,43,39)"/>
    <path d="M 1344.289 503.469 C 1350.289 510.469 1334.289 524.469 1363.289 523.469 C 1370.289 518.469 1348.289 506.469 1346.289 503.469" fill="rgb(204,182,148)"/>
    <path d="M 1066.289 5.469 C 1065.289 12.469 1036.289 5.469 1055.289 27.469 C 1078.289 12.469 1066.289 16.469 1066.289 6.469" fill="rgb(101,45,41)"/>
    <path d="M 1127.289 -22.531 C 1117.289 16.469 1105.289 10.469 1171.289 -4.531 C 1155.289 1.469 1147.289 4.469 1135.289 4.469 C 1130.289 -4.531 1133.289 -3.531 1125.289 -20.531" fill="rgb(230,212,181)"/>
    <path d="M 1387.289 -5.531 C 1361.289 -1.531 1387.289 1.469 1407.289 10.469 C 1398.289 11.469 1401.289 -13.531 1388.289 -4.531" fill="rgb(97,51,46)"/>
    <path d="M 1202.289 495.469 C 1209.289 494.469 1214.289 497.469 1220.289 501.469 C 1213.289 514.469 1198.289 494.469 1200.289 499.469" fill="rgb(221,197,147)"/>
    <path d="M 1191.289 -13.531 C 1204.289 -1.531 1191.289 -10.531 1209.289 -11.531 C 1213.289 -4.531 1175.289 2.469 1190.289 -11.531" fill="rgb(223,199,150)"/>
    <path d="M 1295.289 424.469 C 1282.289 431.469 1301.289 441.469 1290.289 446.469 C 1284.289 443.469 1283.289 422.469 1290.289 427.469" fill="rgb(219,196,151)"/>
    <path d="M 1131.289 509.469 C 1124.289 511.469 1125.289 512.469 1120.289 518.469 C 1118.289 519.469 1154.289 520.469 1134.289 509.469" fill="rgb(226,205,157)"/>
    <path d="M 1346.289 420.469 C 1369.289 431.469 1332.289 440.469 1345.289 421.469" fill="rgb(222,197,150)"/>
    <path d="M 1199.289 -12.531 C 1200.289 -3.531 1189.289 -15.531 1187.289 -5.531 C 1194.289 10.469 1219.289 -10.531 1201.289 -10.531" fill="rgb(226,203,155)"/>
    <path d="M 1106.289 -57.531 C 1117.289 -51.531 1134.289 -54.531 1146.289 -55.531 C 1134.289 -58.531 1118.289 -56.531 1109.289 -57.531" fill="rgb(77,19,17)"/>
    <path d="M 1125.289 503.469 C 1118.289 511.469 1103.289 529.469 1101.289 525.469 C 1103.289 515.469 1113.289 513.469 1119.289 506.469" fill="rgb(220,195,151)"/>
    <path d="M 1402.289 448.469 C 1405.289 449.469 1416.289 452.469 1425.289 453.469 C 1419.289 455.469 1404.289 457.469 1397.289 449.469" fill="rgb(212,192,153)"/>
    <path d="M 1047.289 -36.531 C 1056.289 -14.531 1028.289 -10.531 1045.289 -35.531" fill="rgb(111,47,41)"/>
    <path d="M 1058.289 430.469 C 1056.289 440.469 1057.289 460.469 1071.289 447.469 C 1061.289 447.469 1062.289 442.469 1062.289 432.469" fill="rgb(231,208,163)"/>
    <path d="M 1166.289 -57.531 C 1171.289 -49.531 1182.289 -52.531 1189.289 -53.531 C 1195.289 -59.531 1175.289 -56.531 1169.289 -57.531" fill="rgb(91,17,16)"/>
    <path d="M 1180.289 489.469 C 1202.289 491.469 1181.289 498.469 1174.289 499.469 C 1170.289 494.469 1179.289 494.469 1181.289 490.469" fill="rgb(226,203,146)"/>
    <path d="M 1309.289 400.469 C 1318.289 412.469 1281.289 410.469 1310.289 400.469" fill="rgb(221,197,148)"/>
    <path d="M 1256.289 511.469 C 1252.289 513.469 1254.289 529.469 1273.289 523.469 C 1269.289 518.469 1260.289 519.469 1259.289 510.469" fill="rgb(210,186,148)"/>
    <path d="M 1143.289 519.469 C 1137.289 526.469 1138.289 533.469 1120.289 529.469 C 1146.289 538.469 1158.289 525.469 1141.289 520.469" fill="rgb(124,46,45)"/>
    <path d="M 1223.289 495.469 C 1242.289 497.469 1228.289 513.469 1224.289 499.469" fill="rgb(222,198,148)"/>
    <path d="M 1275.289 405.469 C 1304.289 409.469 1288.289 419.469 1275.289 410.469" fill="rgb(221,198,151)"/>
    <path d="M 1306.289 418.469 C 1320.289 441.469 1279.289 422.469 1309.289 425.469" fill="rgb(220,195,148)"/>
    <path d="M 1363.289 393.469 C 1391.289 403.469 1352.289 410.469 1363.289 396.469" fill="rgb(214,192,148)"/>
    <path d="M 1237.289 488.469 C 1236.289 494.469 1241.289 499.469 1240.289 507.469 C 1232.289 497.469 1230.289 492.469 1235.289 490.469" fill="rgb(222,198,146)"/>
    <path d="M 1423.289 506.469 C 1416.289 510.469 1411.289 515.469 1415.289 523.469 C 1401.289 508.469 1447.289 512.469 1425.289 507.469" fill="rgb(73,69,73)"/>
    <path d="M 1367.289 506.469 C 1384.289 536.469 1365.289 510.469 1393.289 513.469 C 1400.289 509.469 1376.289 513.469 1370.289 506.469" fill="rgb(187,163,132)"/>
    <path d="M 1348.289 448.469 C 1373.289 473.469 1343.289 458.469 1350.289 453.469" fill="rgb(224,199,147)"/>
    <path d="M 1113.289 359.469 C 1128.289 378.469 1095.289 372.469 1111.289 363.469" fill="rgb(220,197,147)"/>
    <path d="M 1096.289 6.469 C 1080.289 15.469 1068.289 20.469 1051.289 30.469 C 1073.289 16.469 1112.289 9.469 1106.289 7.469" fill="rgb(91,66,62)"/>
    <path d="M 1059.289 354.469 C 1061.289 358.469 1061.289 369.469 1045.289 361.469 C 1057.289 381.469 1074.289 353.469 1060.289 358.469" fill="rgb(172,161,154)"/>
    <path d="M 1081.289 374.469 C 1089.289 401.469 1060.289 382.469 1081.289 379.469" fill="rgb(222,198,150)"/>
    <path d="M 1367.289 456.469 C 1375.289 477.469 1355.289 475.469 1365.289 459.469" fill="rgb(222,197,146)"/>
    <path d="M 1421.289 508.469 C 1416.289 531.469 1440.289 518.469 1426.289 510.469" fill="rgb(182,166,140)"/>
    <path d="M 1346.289 507.469 C 1376.289 529.469 1333.289 517.469 1352.289 512.469" fill="rgb(218,197,161)"/>
    <path d="M 1048.289 -34.531 C 1031.289 -23.531 1047.289 -5.531 1048.289 -33.531" fill="rgb(108,46,39)"/>
    <path d="M 1243.289 440.469 C 1247.289 462.469 1212.289 451.469 1244.289 447.469" fill="rgb(223,201,147)"/>
    <path d="M 1113.289 354.469 C 1132.289 359.469 1123.289 380.469 1114.289 356.469" fill="rgb(223,197,147)"/>
    <path d="M 1296.289 -57.531 C 1289.289 -54.531 1311.289 -48.531 1323.289 -56.531 C 1302.289 -54.531 1308.289 -52.531 1295.289 -57.531" fill="rgb(102,22,17)"/>
    <path d="M 1033.289 -22.531 C 1033.289 -5.531 1038.289 -10.531 1033.289 1.469 C 1051.289 -8.531 1039.289 -12.531 1033.289 -17.531" fill="rgb(105,54,48)"/>
    <path d="M 1043.289 400.469 C 1056.289 394.469 1044.289 421.469 1041.289 399.469" fill="rgb(124,34,34)"/>
    <path d="M 1327.289 -57.531 C 1342.289 -56.531 1358.289 -50.531 1374.289 -56.531 C 1353.289 -51.531 1363.289 -57.531 1327.289 -57.531" fill="rgb(98,22,16)"/>
    <path d="M 1178.289 474.469 C 1195.289 481.469 1172.289 501.469 1181.289 476.469" fill="rgb(229,203,143)"/>
    <path d="M 1122.289 505.469 C 1116.289 512.469 1101.289 517.469 1100.289 523.469 C 1107.289 519.469 1116.289 513.469 1123.289 506.469" fill="rgb(238,214,167)"/>
    <path d="M 1085.289 450.469 C 1076.289 455.469 1056.289 454.469 1060.289 458.469 C 1069.289 456.469 1076.289 455.469 1084.289 452.469" fill="rgb(238,214,166)"/>
    <path d="M 1227.289 455.469 C 1244.289 461.469 1229.289 475.469 1229.289 457.469" fill="rgb(223,200,144)"/>
    <path d="M 1244.289 452.469 C 1250.289 472.469 1225.289 457.469 1246.289 457.469" fill="rgb(222,197,145)"/>
    <path d="M 1373.289 477.469 C 1389.289 483.469 1368.289 491.469 1374.289 479.469" fill="rgb(225,200,147)"/>
    <path d="M 1084.289 -1.531 C 1071.289 9.469 1102.289 9.469 1085.289 -1.531" fill="rgb(99,46,44)"/>
    <path d="M 1301.289 379.469 C 1310.289 400.469 1289.289 388.469 1302.289 383.469" fill="rgb(222,198,148)"/>
    <path d="M 1248.289 464.469 C 1274.289 480.469 1246.289 469.469 1247.289 467.469" fill="rgb(224,199,147)"/>
    <path d="M 1436.289 510.469 C 1441.289 521.469 1445.289 517.469 1453.289 521.469 C 1447.289 518.469 1447.289 509.469 1437.289 512.469" fill="rgb(128,51,48)"/>
    <path d="M 1452.289 336.469 C 1437.289 350.469 1461.289 348.469 1434.289 354.469 C 1454.289 352.469 1453.289 341.469 1452.289 338.469" fill="rgb(89,78,76)"/>
    <path d="M 1183.289 474.469 C 1195.289 478.469 1186.289 486.469 1179.289 474.469" fill="rgb(227,202,143)"/>
    <path d="M 1343.289 445.469 C 1355.289 458.469 1338.289 458.469 1343.289 450.469" fill="rgb(224,199,150)"/>
    <path d="M 1366.289 393.469 C 1349.289 402.469 1387.289 409.469 1365.289 394.469" fill="rgb(205,183,139)"/>
    <path d="M 1342.289 523.469 C 1327.289 529.469 1353.289 529.469 1357.289 527.469 C 1347.289 530.469 1350.289 522.469 1342.289 524.469" fill="rgb(123,40,41)"/>
    <path d="M 1032.289 -56.531 C 1040.289 -52.531 1060.289 -58.531 1075.289 -57.531 C 1061.289 -57.531 1046.289 -57.531 1034.289 -57.531" fill="rgb(92,19,18)"/>
    <path d="M 1425.289 353.469 C 1409.289 357.469 1430.289 386.469 1424.289 352.469" fill="rgb(178,171,162)"/>
    <path d="M 1390.289 -59.531 C 1426.289 -39.531 1395.289 -57.531 1433.289 -54.531 C 1420.289 -56.531 1427.289 -47.531 1430.289 -51.531 C 1420.289 -57.531 1405.289 -57.531 1391.289 -57.531" fill="rgb(204,133,130)"/>
    <path d="M 1269.289 501.469 C 1274.289 519.469 1254.289 507.469 1268.289 503.469" fill="rgb(220,196,149)"/>
    <path d="M 1245.289 521.469 C 1249.289 527.469 1234.289 523.469 1231.289 525.469 C 1240.289 529.469 1271.289 526.469 1246.289 523.469" fill="rgb(94,54,55)"/>
    <path d="M 1183.289 471.469 C 1201.289 470.469 1202.289 484.469 1183.289 472.469" fill="rgb(225,201,144)"/>
    <path d="M 1193.289 460.469 C 1215.289 458.469 1193.289 472.469 1195.289 463.469" fill="rgb(224,199,144)"/>
    <path d="M 1412.289 360.469 C 1412.289 365.469 1420.289 381.469 1421.289 379.469 C 1432.289 372.469 1412.289 371.469 1414.289 360.469" fill="rgb(189,170,137)"/>
    <path d="M 1046.289 -19.531 C 1061.289 -15.531 1037.289 1.469 1047.289 -17.531" fill="rgb(116,50,44)"/>
    <path d="M 1095.289 514.469 C 1100.289 518.469 1084.289 523.469 1080.289 524.469 C 1084.289 520.469 1088.289 519.469 1092.289 516.469" fill="rgb(213,194,158)"/>
    <path d="M 1222.289 468.469 C 1233.289 474.469 1222.289 487.469 1220.289 469.469" fill="rgb(225,201,145)"/>
    <path d="M 1349.289 464.469 C 1362.289 470.469 1339.289 481.469 1349.289 466.469" fill="rgb(223,200,148)"/>
    <path d="M 1235.289 491.469 C 1252.289 501.469 1238.289 511.469 1238.289 494.469" fill="rgb(222,197,146)"/>
    <path d="M 1054.289 347.469 C 1070.289 345.469 1066.289 359.469 1053.289 349.469" fill="rgb(190,151,127)"/>
    <path d="M 1454.289 367.469 C 1433.289 375.469 1453.289 384.469 1453.289 367.469" fill="rgb(132,40,41)"/>
    <path d="M 1376.289 463.469 C 1386.289 473.469 1375.289 478.469 1375.289 467.469" fill="rgb(229,201,146)"/>
    <path d="M 1063.289 507.469 C 1071.289 505.469 1072.289 522.469 1073.289 521.469 C 1076.289 514.469 1072.289 508.469 1067.289 507.469" fill="rgb(70,62,64)"/>
    <path d="M 1420.289 423.469 C 1407.289 443.469 1419.289 441.469 1423.289 423.469" fill="rgb(72,65,66)"/>
    <path d="M 1311.289 397.469 C 1306.289 404.469 1294.289 404.469 1297.289 411.469 C 1309.289 397.469 1312.289 418.469 1311.289 398.469" fill="rgb(228,204,155)"/>
    <path d="M 1216.289 434.469 C 1229.289 443.469 1215.289 448.469 1217.289 437.469" fill="rgb(225,200,146)"/>
    <path d="M 1052.289 11.469 C 1062.289 10.469 1048.289 32.469 1050.289 11.469" fill="rgb(102,42,36)"/>
    <path d="M 1304.289 408.469 C 1310.289 417.469 1297.289 425.469 1302.289 408.469" fill="rgb(221,197,149)"/>
    <path d="M 1232.289 487.469 C 1239.289 491.469 1227.289 504.469 1231.289 489.469" fill="rgb(224,199,145)"/>
    <path d="M 1446.289 387.469 C 1440.289 390.469 1433.289 390.469 1429.289 395.469 C 1436.289 392.469 1453.289 387.469 1449.289 387.469" fill="rgb(128,54,53)"/>
    <path d="M 1114.289 -23.531 C 1104.289 -3.531 1124.289 -6.531 1112.289 -20.531" fill="rgb(105,46,42)"/>
    <path d="M 1331.289 531.469 C 1337.289 541.469 1349.289 525.469 1377.289 532.469 C 1354.289 526.469 1341.289 534.469 1331.289 531.469" fill="rgb(102,47,52)"/>
    <path d="M 1304.289 419.469 C 1327.289 420.469 1297.289 427.469 1303.289 419.469" fill="rgb(220,195,147)"/>
    <path d="M 1301.289 359.469 C 1315.289 359.469 1306.289 379.469 1303.289 360.469" fill="rgb(219,199,152)"/>
    <path d="M 1209.289 364.469 C 1227.289 380.469 1197.289 369.469 1210.289 367.469" fill="rgb(224,200,152)"/>
    <path d="M 1198.289 372.469 C 1211.289 384.469 1185.289 378.469 1196.289 374.469" fill="rgb(223,198,147)"/>
    <path d="M 1347.289 443.469 C 1353.289 442.469 1349.289 460.469 1344.289 445.469" fill="rgb(223,199,148)"/>
    <path d="M 1183.289 481.469 C 1191.289 482.469 1183.289 501.469 1182.289 483.469" fill="rgb(226,202,144)"/>
    <path d="M 1444.289 36.469 C 1457.289 35.469 1451.289 54.469 1446.289 37.469" fill="rgb(116,77,69)"/>
    <path d="M 1098.289 351.469 C 1111.289 349.469 1104.289 366.469 1098.289 353.469" fill="rgb(179,130,115)"/>
    <path d="M 1045.289 399.469 C 1036.289 408.469 1055.289 411.469 1046.289 398.469" fill="rgb(132,37,37)"/>
    <path d="M 1373.289 -46.531 C 1350.289 -16.531 1377.289 -37.531 1370.289 -41.531" fill="rgb(193,173,147)"/>
    <path d="M 1235.289 502.469 C 1244.289 504.469 1226.289 518.469 1233.289 503.469" fill="rgb(221,198,150)"/>
    <path d="M 1044.289 533.469 C 1066.289 531.469 1061.289 539.469 1043.289 534.469" fill="rgb(90,38,39)"/>
    <path d="M 1192.289 -0.531 C 1219.289 -2.531 1191.289 6.469 1190.289 -0.531" fill="rgb(209,189,152)"/>
    <path d="M 1173.289 487.469 C 1179.289 497.469 1163.289 498.469 1172.289 489.469" fill="rgb(227,202,143)"/>
    <path d="M 1412.289 346.469 C 1428.289 343.469 1409.289 360.469 1411.289 347.469" fill="rgb(179,147,126)"/>
    <path d="M 1170.289 507.469 C 1190.289 505.469 1160.289 520.469 1170.289 508.469" fill="rgb(219,198,150)"/>
  </g>
  <path d="M 223.469 458.208 Q 234.355 458.026 243.9 463.327 Q 253.501 468.66 259.164 478.106 Q 264.86 487.607 265.041 498.714 Q 265.223 509.885 259.779 519.678 Q 254.304 529.526 244.61 535.332 Q 234.862 541.171 223.469 541.352 Q 212.012 541.534 201.972 535.947 Q 191.877 530.329 185.928 520.388 Q 179.947 510.393 179.765 498.714 Q 179.583 486.971 185.313 476.684 Q 191.074 466.342 201.262 460.25 Q 211.505 454.126 223.469 453.944 Q 235.497 453.762 246.031 459.635 Q 256.622 465.538 262.856 475.974 Q 269.123 486.464 269.305 498.714 Q 269.487 511.028 263.471 521.809 Q 257.425 532.647 246.742 539.024 Q 236.004 545.434 223.469 545.616 Q 210.87 545.798 199.841 539.64 Q 188.756 533.45 182.236 522.52 Q 175.683 511.535 175.502 498.714 Q 175.319 485.829 181.62 474.553 Q 187.953 463.22 199.13 456.558 Q 210.362 449.862 223.469 449.681 Q 236.64 449.498 248.163 455.942 Q 259.743 462.417 266.549 473.842 Q 273.387 485.322 273.568 498.714 Q 273.751 512.17 267.164 523.941 Q 260.546 535.768 248.874 542.717 Q 237.147 549.698 223.469 549.879 Q 209.727 550.061 197.709 543.332 Q 185.634 536.571 178.543 524.652 Q 171.419 512.677 171.238 498.714 Q 171.056 484.687 177.928 472.421 Q 184.831 460.099 196.998 452.865 Q 209.22 445.598 223.469 445.417 Q 223.426 445.418 223.469 445.417" style="stroke: rgb(0, 0, 0); fill: none;" bx:shape="spiral 223.469 498.714 40.506 53.297 0 1080 1@93c7a8d4"/>
  <g transform="matrix(1.800015, 0, 0, 1.800015, -380.600006, -84.267738)" bx:origin="0.5 0.484272">
    <title>SHIELD</title>
    <text style="white-space: pre; fill: rgb(51, 51, 51); font-family: Arial, sans-serif; font-size: 14.7px;" x="268.219" y="137.253" transform="matrix(0.050387, 0, 0, 0.044405, 233.319214, 330.279572)" bx:origin="3.148 67.692"><tspan x="268.218994140625" dy="1em"></tspan><tspan x="268.218994140625" dy="1em"></tspan><tspan x="268.218994140625" dy="1em"></tspan>Attack: [__ATTACK]<tspan x="268.218994140625" dy="1em"></tspan>Defense: [__DEFENSE]<tspan x="268.218994140625" dy="1em"></tspan>HP: 25 </text>
    <path d="M 254.532 330.146 C 252.617 331.167 250.551 331.922 248.435 332.5 C 246.47 332.944 244.505 333.077 242.54 333.21 C 241.986 333.654 242.238 334.32 242.137 334.809 C 242.238 337.162 242.54 339.293 243.094 341.336 C 243.698 343.512 244.505 345.466 245.664 347.286 C 246.873 349.373 248.536 351.194 250.602 352.837 C 251.861 353.814 253.171 354.657 254.583 355.146 C 256.497 354.569 258.008 353.414 259.521 352.215 C 261.385 350.661 262.594 348.974 263.652 347.242 C 264.761 345.466 265.617 343.69 266.121 341.78 C 266.826 339.249 267.078 336.629 267.129 333.965 C 267.179 333.654 266.978 333.477 266.826 333.299 C 264.761 333.077 262.745 332.899 260.881 332.455 C 258.613 331.922 256.648 331.079 254.683 330.146" style="" bx:origin="1.265 6.328"/>
    <path d="M 254.532 331.745 C 256.296 332.588 258.11 333.299 260.024 333.787 C 261.788 334.231 263.602 334.453 265.416 334.631 C 265.416 336.94 265.063 339.027 264.559 341.025 C 264.206 342.624 263.602 344 262.846 345.332 C 261.939 347.065 260.881 348.663 259.47 350.128 C 258.008 351.46 256.497 352.615 254.935 353.459 C 253.575 353.237 252.668 352.348 251.61 351.682 C 249.796 350.217 248.486 348.663 247.428 347.02 C 246.42 345.466 245.664 343.956 245.11 342.357 C 244.303 339.871 243.951 337.295 243.85 334.675 C 245.765 334.453 247.528 334.276 249.141 333.832 C 251.056 333.343 252.768 332.677 254.431 331.922" style="fill: rgb(238, 199, 135);" bx:origin="1.387 7.212"/>
    <path d="M 254.532 333.343 C 257.353 334.897 260.629 335.563 264.005 335.785 C 263.803 338.583 263.652 340.981 262.695 343.112 C 260.125 343.157 257.706 343.157 255.338 343.157 C 255.137 346.043 255.439 349.107 255.086 351.905 C 253.826 351.771 253.121 351.105 252.315 350.661 C 251.307 349.906 250.35 349.062 249.644 348.219 C 248.083 346.532 247.176 344.711 246.47 342.846 C 246.369 342.535 246.571 342.402 246.773 342.269 C 249.241 342.224 251.66 342.224 254.078 342.224 C 254.179 339.293 253.928 336.274 254.23 333.477" fill="rgb(11,11,11)" bx:origin="1.556 8.351"/>
    <path d="M 254.381 333.565 C 254.179 336.362 254.381 339.338 254.28 342.18 C 251.811 342.357 249.342 342.313 246.923 342.357 C 246.722 342.49 246.571 342.624 246.671 342.802 C 247.428 344.844 248.385 346.709 249.997 348.352 C 251.358 349.773 252.97 351.15 254.733 351.771 C 255.187 348.93 254.986 345.999 255.086 343.157 C 257.505 342.935 260.024 342.979 262.443 342.935 C 263.4 340.847 263.652 338.539 263.753 336.185 C 260.478 335.741 257.404 335.03 254.683 333.565" fill="rgb(0,0,0)" bx:origin="1.585 8.502"/>
  </g>
  <path d="M 57.203 440.084 C 58.1 439.992 59.087 439.992 59.622 440.538 C 60.879 444.192 64.821 446.475 67.152 449.486 C 69.572 447.206 71.723 445.106 73.877 442.913 C 72.799 445.469 72.889 448.757 70.469 450.492 C 72.889 453.048 75.398 455.603 77.641 457.886 C 80.239 455.603 82.748 453.048 85.079 450.672 C 82.658 448.85 82.748 445.469 81.493 443.006 C 83.915 445.011 85.978 447.206 88.216 449.486 C 90.994 446.382 94.76 443.919 95.744 440.358 C 97.268 439.719 98.972 439.902 99.686 441.179 C 100.405 442.091 100.405 443.462 99.868 444.192 C 96.103 445.742 93.952 449.579 90.994 452.043 C 93.055 454.416 95.206 456.609 97.358 458.889 C 94.849 457.796 91.622 457.976 89.918 455.421 C 87.32 457.976 84.989 460.352 82.658 462.727 C 87.856 468.296 93.415 473.956 98.434 479.066 C 98.881 481.166 99.241 482.993 99.419 484.91 C 97.537 484.727 95.744 484.363 94.042 484.088 C 88.574 478.702 83.197 473.224 77.908 467.84 C 72.26 473.315 67.152 478.52 61.685 484.088 C 59.712 484.363 58.01 484.727 56.217 485.002 C 56.397 482.993 56.664 481.166 57.021 479.432 C 62.222 473.956 67.782 468.296 72.889 463.091 C 70.647 460.442 68.228 457.976 65.807 455.511 C 63.746 458.07 60.699 457.796 58.281 459.165 C 60.341 456.698 62.493 454.509 64.641 452.316 C 61.685 449.669 59.445 445.742 55.682 444.648 C 54.693 442.823 55.5 440.723 57.114 440.175" fill="rgb(12,12,12)"/>
  <desc>Created with Fabric.js 1.7.22</desc>
  <g transform="matrix(0.128535, 0, 0, 0.146388, 357.500061, 532.499634)" style="">
    <g style="stroke: none; stroke-width: 0; stroke-dasharray: none; stroke-linecap: butt; stroke-linejoin: miter; stroke-miterlimit: 10; fill: none; fill-rule: nonzero; opacity: 1;" transform="translate(-175.05 -175.05000000000004) scale(3.89 3.89)">
      <path d="M 89 30.872 h -5.723 V 16.685 c 0 -0.271 -0.11 -0.531 -0.305 -0.719 c -0.196 -0.188 -0.452 -0.294 -0.729 -0.28 c -4.328 0.149 -8.538 0.752 -12.554 1.749 V 6.489 c 0 -0.344 -0.177 -0.665 -0.469 -0.847 c -0.293 -0.184 -0.656 -0.203 -0.968 -0.053 c -8.89 4.309 -16.793 12.648 -23.51 24.775 C 34.734 21.111 22.995 16.165 9.821 15.685 c -0.279 -0.019 -0.535 0.091 -0.731 0.28 c -0.195 0.188 -0.306 0.448 -0.306 0.72 v 7.33 c -1.392 0.098 -2.803 0.225 -4.22 0.4 c -0.504 0.063 -0.882 0.493 -0.877 1.001 l 0.047 5.456 H 0 v 53.639 h 45 h 44 c 0.553 0 1 -0.447 1 -1 V 31.872 C 90 31.32 89.553 30.872 89 30.872 z M 81.277 17.728 v 49.546 c -12.104 0.599 -23.047 4.597 -32.62 11.893 c 6.014 -9.756 12.883 -16.554 20.469 -20.23 c 0.345 -0.167 0.563 -0.517 0.563 -0.899 v -38.55 C 73.393 18.533 77.278 17.932 81.277 17.728 z M 67.689 8.127 v 49.291 C 59.575 61.524 52.293 69.006 46 79.693 V 32.215 C 52.254 20.646 59.544 12.552 67.689 8.127 z M 44 32.39 v 48.732 c -0.102 -0.058 -0.206 -0.112 -0.309 -0.17 c -9.529 -8.42 -20.581 -13.019 -32.907 -13.675 V 24.922 c 0 -0.013 0.006 -0.024 0.005 -0.038 c 0 -0.007 -0.005 -0.013 -0.005 -0.02 v -7.133 C 23.312 18.424 34.48 23.352 44 32.39 z M 8.784 26.017 v 42.216 c 0 0.538 0.426 0.979 0.963 0.999 c 9.224 0.336 17.72 2.954 25.382 7.782 c -8.824 -3.185 -18.537 -4.216 -29.023 -3.063 L 5.694 26.296 C 6.732 26.179 7.763 26.091 8.784 26.017 z M 2 32.872 h 1.751 l 0.366 42.211 c 0.002 0.285 0.126 0.556 0.341 0.743 c 0.214 0.188 0.501 0.273 0.782 0.24 c 13.865 -1.716 26.332 0.461 37.135 6.444 H 2 V 32.872 z M 88 82.511 H 47.668 c 10 -8.366 21.642 -12.831 34.643 -13.278 c 0.539 -0.019 0.966 -0.46 0.966 -0.999 V 32.872 H 88 V 82.511 z" style="stroke-width: 1; stroke-dasharray: none; stroke-linecap: butt; stroke-linejoin: miter; stroke-miterlimit: 10; fill: rgb(0, 0, 0); fill-rule: nonzero; opacity: 1; stroke: rgb(0, 0, 0);" transform=" matrix(1 0 0 1 0 0) " stroke-linecap="round"/>
    </g>
  </g>
  <desc>Created with Fabric.js 1.7.22</desc>
  <g transform="matrix(0.17302, 0, 0, 0.128536, 357.5, 462.499817)" style="filter: none;" bx:origin="0.5 0.501987">
    <g style="stroke: none; stroke-width: 0; stroke-dasharray: none; stroke-linecap: butt; stroke-linejoin: miter; stroke-miterlimit: 10; fill: none; fill-rule: nonzero; opacity: 1;" transform="translate(-175.05 -175.05000000000004) scale(3.89 3.89)">
      <path d="M 61.471 53.003 c -2.232 0 -4.048 -1.816 -4.048 -4.048 c 0 -2.232 1.816 -4.048 4.048 -4.048 s 4.048 1.816 4.048 4.048 C 65.519 51.188 63.703 53.003 61.471 53.003 z M 61.471 47.875 c -0.596 0 -1.081 0.485 -1.081 1.081 c 0 0.596 0.485 1.081 1.081 1.081 c 0.596 0 1.081 -0.485 1.081 -1.081 C 62.552 48.36 62.067 47.875 61.471 47.875 z" style="stroke-dasharray: none; stroke-linecap: butt; stroke-linejoin: miter; fill-rule: nonzero; opacity: 1; stroke-miterlimit: 1; stroke: url(#pattern-0-0); paint-order: fill; fill: rgb(0, 0, 0);" transform=" matrix(1 0 0 1 0 0) " stroke-linecap="round"/>
      <path d="M 75.222 39.317 h -1.033 V 13.171 c 0 -2.587 -2.105 -4.692 -4.691 -4.692 H 35.51 V 2.272 c 0 -0.918 -0.547 -1.74 -1.393 -2.094 c -0.818 -0.343 -1.753 -0.179 -2.406 0.414 l -4.473 3.63 l -4.473 -3.63 c -0.652 -0.594 -1.586 -0.756 -2.406 -0.414 c -0.846 0.355 -1.393 1.177 -1.393 2.094 V 8.48 h -2.704 c -2.587 0 -4.692 2.105 -4.692 4.692 v 72.138 c 0 2.587 2.105 4.691 4.692 4.691 h 53.236 c 2.587 0 4.691 -2.105 4.691 -4.691 V 58.594 h 1.033 c 1.769 0 3.208 -1.439 3.208 -3.208 v -12.86 C 78.43 40.756 76.991 39.317 75.222 39.317 z M 71.221 13.171 v 26.145 h -5.138 v -27.87 h 3.414 C 70.448 11.447 71.221 12.22 71.221 13.171 z M 21.932 3.737 L 26 7.038 c 0.717 0.583 1.757 0.585 2.475 0.001 l 4.068 -3.301 V 8.48 H 21.932 V 3.737 z M 14.537 85.309 V 13.171 c 0 -0.951 0.774 -1.724 1.724 -1.724 h 46.855 v 27.87 h -1.809 c -5.315 0 -9.638 4.324 -9.638 9.639 c 0 5.315 4.323 9.638 9.638 9.638 h 1.809 v 28.439 H 16.261 C 15.31 87.033 14.537 86.259 14.537 85.309 z M 71.221 85.309 c 0 0.95 -0.774 1.724 -1.724 1.724 h -3.414 V 58.594 h 5.138 V 85.309 z M 61.307 55.379 c -3.542 0 -6.424 -2.882 -6.424 -6.424 c 0 -3.542 2.882 -6.424 6.424 -6.424 l 13.909 -0.006 l 0.006 12.854 H 61.307 z" style="stroke-dasharray: none; stroke-linecap: butt; stroke-linejoin: miter; fill-rule: nonzero; opacity: 1; stroke-miterlimit: 1; stroke: url(#pattern-0-1); paint-order: fill; fill: rgb(0, 0, 0);" transform=" matrix(1 0 0 1 0 0) " stroke-linecap="round"/>
    </g>
  </g>
  <text style="fill: rgb(51, 51, 51); font-family: Arial, sans-serif; font-size: 54px; white-space: pre;" x="114.474" y="481.808">2  </text>
  <text style="fill: rgb(51, 51, 51); font-family: Arial, sans-serif; font-size: 54px; white-space: pre;" x="115" y="554.011">2  </text>
  <text style="fill: rgb(51, 51, 51); font-family: Arial, sans-serif; font-size: 54px; white-space: pre;" x="280.656" y="482.011">2  </text>
  <text style="fill: rgb(51, 51, 51); font-family: Arial, sans-serif; font-size: 54px; white-space: pre;" x="281.666" y="553.808">2  </text>
  <text style="fill: rgb(51, 51, 51); font-family: Arial, sans-serif; font-size: 31px; text-anchor: middle; text-transform: capitalize; white-space: pre;" x="232.863" y="50.518">Lady Exampless  </text>
  <text style="fill: rgb(51, 51, 51); font-family: Arial, sans-serif; font-size: 60px; text-anchor: middle; white-space: pre;" x="222.686" y="520.97">2</text>
</svg>