<?xml version="1.0" encoding="utf-8"?>
<svg width="600px" height="600" xmlns="http://www.w3.org/2000/svg" xmlns:xlink="http://www.w3.org/1999/xlink" xmlns:bx="https://boxy-svg.com">
  <defs>
    <pattern x="0" y="0" width="25" height="25" patternUnits="userSpaceOnUse" viewBox="0 0 100 100" id="pattern-0">
      <rect x="0" y="0" width="50" height="100" style="fill: black;"/>
    </pattern>
    <pattern id="pattern-0-0" patternTransform="matrix(1, 0, 0, 1, 48.970999, 36.454998)" xlink:href="#pattern-0"/>
    <pattern id="pattern-0-1" patternTransform="matrix(1, 0, 0, 1, 32.499998, 32.500911)" xlink:href="#pattern-0"/>
  </defs>
  <rect width="426.72" height="600" style="stroke: rgb(0, 0, 0); fill: rgb(229, 208, 163);"/>
  <g transform="matrix(1.049624, 0, 0, 1.049624, -232.384003, 80.632278)">
    <title>hero</title>
    <path d="M 421.093 25.905 C 406.911 31.36 399.82 34.087 379.638 33.542 C 369.82 42.814 366.002 44.996 356.729 59.178 C 358.365 69.542 351.274 72.814 345.82 95.724 C 364.911 100.087 375.82 105.542 377.456 126.814 C 375.82 149.178 346.365 151.905 345.274 145.905 C 337.093 168.814 347.456 180.814 348.547 200.451 C 361.638 204.814 348.002 209.178 364.365 206.451 C 369.82 193.905 362.184 190.087 357.274 174.269 C 369.274 172.633 399.82 189.542 394.365 169.36 C 403.638 171.542 406.365 180.269 402.547 185.178 C 381.274 200.451 397.093 181.905 382.365 187.36 C 380.184 208.633 372.547 187.905 363.82 213.542 C 384.547 212.451 412.365 213.542 423.274 221.178 C 414.002 225.542 397.638 224.451 378.002 221.178 C 356.729 236.451 406.365 224.996 404.184 234.269 C 401.456 246.814 391.093 239.724 371.456 248.996 C 373.093 253.905 374.729 260.996 379.638 263.178 C 384.002 256.087 406.365 275.178 418.365 255.542 C 423.82 235.905 448.365 235.905 468.547 217.905 C 460.365 204.814 456.002 213.542 459.82 188.996 C 453.82 191.724 480.547 142.087 480.002 130.633 C 477.82 125.178 465.82 131.178 460.911 118.087 C 450.002 120.269 463.638 122.996 457.638 134.451 C 448.911 134.996 434.729 136.633 434.184 125.724 C 408.547 140.996 436.365 142.087 418.911 144.269 C 415.638 128.451 391.638 133.36 390.547 114.814 C 394.365 95.178 397.638 105.542 410.729 97.36 C 441.274 104.996 426.002 96.814 458.729 108.269 C 469.638 103.905 467.456 70.633 480.002 70.633 C 490.365 46.087 498.002 23.724 418.365 28.633" fill="rgb(219,157,124)"/>
    <path d="M 418.911 18.269 C 407.456 35.724 380.729 18.269 351.274 52.087 C 345.82 67.36 345.274 83.724 342.547 98.451 C 367.638 104.996 363.82 108.269 379.093 127.905 C 373.093 124.087 358.365 114.814 352.365 120.814 C 356.729 118.087 366.002 122.996 375.274 131.178 C 364.911 127.905 356.184 139.905 345.82 136.087 C 345.82 143.178 343.638 148.087 342.547 154.087 C 344.729 142.087 367.638 157.905 376.911 128.996 C 378.002 119.724 372.547 112.633 369.82 105.542 C 364.365 100.633 354.002 98.451 345.274 95.178 C 355.638 68.996 357.82 46.087 377.456 35.724 C 400.365 32.996 406.911 31.36 421.093 24.814 C 457.093 30.814 480.547 34.087 488.184 35.178 C 478.365 70.087 472.365 71.724 457.638 107.724 C 436.911 99.542 437.456 102.269 412.911 97.36 C 396.547 105.542 395.456 95.724 391.638 116.451 C 397.638 147.542 410.184 120.814 412.911 145.36 C 438.547 144.814 408.547 138.269 430.911 132.269 C 412.911 129.542 418.911 122.451 407.456 134.451 C 412.365 126.814 399.82 121.905 412.911 115.905 C 439.093 116.451 435.274 131.178 436.365 130.633 C 471.274 140.996 450.547 114.269 460.365 119.724 C 466.911 127.905 477.274 129.542 477.274 127.36 C 458.184 178.633 454.365 217.905 465.82 222.269 C 447.82 229.36 448.911 238.087 434.729 229.905 C 417.82 247.36 441.274 251.178 406.365 262.633 C 398.184 270.269 387.82 256.633 376.911 262.087 C 372.002 255.542 376.365 254.996 373.093 247.36 C 388.911 241.36 403.093 243.542 403.093 234.814 C 403.638 225.542 355.638 236.451 381.82 221.724 C 393.274 226.633 416.184 222.814 425.456 225.542 C 414.002 214.087 386.729 213.542 363.274 210.814 C 370.365 190.633 381.82 207.542 379.093 187.36 C 396.547 180.269 381.82 199.905 404.184 185.724 C 404.729 181.36 404.729 174.814 399.274 172.087 C 403.638 184.087 374.729 179.178 358.365 176.996 C 367.638 193.905 367.093 197.178 362.729 208.087 C 347.456 210.814 344.184 181.36 341.456 165.542 C 344.184 204.814 361.638 245.178 374.729 272.996 C 406.911 281.724 427.638 260.451 446.729 256.087 C 464.729 247.905 499.638 210.269 499.093 190.633 C 513.82 181.36 500.184 188.996 524.729 200.451 C 537.82 190.087 548.729 180.269 556.365 167.724 C 547.638 179.724 529.638 200.451 513.82 193.905 C 517.638 176.996 535.093 170.996 532.911 154.087 C 537.82 156.814 542.184 162.814 541.638 167.178 C 530.184 169.905 539.456 178.633 526.365 181.905 C 534.547 179.724 544.911 179.178 550.365 172.087 C 553.093 162.269 560.184 153.542 555.82 143.178 C 556.911 133.905 542.729 130.633 537.82 137.178 C 543.82 122.996 556.365 139.36 557.456 136.087 C 552.547 128.996 548.729 122.996 541.638 127.36 C 515.456 132.269 512.729 161.724 501.82 157.36 C 482.184 87.542 520.365 15.542 412.911 20.451" fill="rgb(180,122,90)"/>
    <path d="M 556.911 167.724 C 549.274 180.814 537.82 190.633 525.82 197.724 C 500.729 193.905 513.82 178.633 501.82 190.087 C 493.638 219.542 471.274 235.905 458.184 250.087 C 438.547 257.724 419.456 272.451 390.547 275.178 C 380.184 272.451 370.911 270.814 369.274 264.814 C 392.184 276.814 409.093 290.996 423.274 306.269 C 425.456 298.087 420.547 295.36 421.093 291.542 C 447.274 288.814 469.093 285.542 481.638 265.36 C 483.82 263.178 497.456 239.724 506.184 229.36 C 517.638 233.178 510.547 259.905 516.002 281.178 L 516.002 281.724 L 516.002 282.814 L 516.547 282.269 L 515.456 278.451 C 520.911 296.996 529.093 272.451 530.184 287.178 C 531.274 290.451 528.002 296.996 523.638 302.451 C 529.638 305.724 530.729 291.542 538.911 287.178 C 529.638 298.087 546.547 289.905 540.547 302.996 C 544.365 302.996 551.456 302.996 556.365 302.451 C 538.365 290.996 549.82 299.724 554.184 276.269 C 535.093 291.542 532.911 256.633 522.002 264.269 C 510.547 236.996 532.365 209.724 512.184 198.269 C 513.82 197.724 519.274 201.542 524.729 198.269 C 537.274 191.724 549.274 181.36 555.82 168.814" fill="rgb(116,76,51)"/>
    <path d="M 505.093 226.633 C 492.547 269.178 452.184 293.724 418.911 293.724 C 459.274 301.36 485.456 300.269 519.274 302.996 C 522.002 295.905 507.82 253.36 510.002 228.814" fill="rgb(176,125,90)"/>
    <path d="M 428.729 14.996 C 373.638 33.542 386.184 -10.095 335.456 95.178 C 344.729 74.996 349.093 53.724 362.184 38.996 C 402.002 29.178 419.456 15.542 444.002 23.178 C 450.547 34.087 471.274 20.996 491.456 33.542 C 495.82 68.451 489.82 79.36 488.184 92.451 C 510.547 112.633 494.729 138.269 502.365 154.633 C 508.365 157.36 522.002 128.996 548.729 125.724 C 536.729 137.178 501.82 134.451 508.911 150.269 C 508.911 125.178 502.365 108.269 495.274 92.996 C 501.82 93.542 496.365 80.996 505.638 88.633 C 496.911 61.36 504.547 68.451 502.911 38.451 C 505.093 50.451 483.274 22.633 488.729 22.633 C 472.911 17.724 453.82 24.269 436.365 16.087" fill="rgb(109,76,54)"/>
    <path d="M 340.911 97.905 C 336.002 107.178 351.274 100.087 354.002 105.542 C 340.911 108.814 349.638 104.451 338.184 112.633 C 337.638 118.633 346.365 132.814 345.274 142.087 C 352.365 134.451 366.002 131.724 372.002 128.451 C 339.82 121.36 410.184 124.633 333.274 91.905" fill="rgb(110,78,59)"/>
    <path d="M 533.456 154.087 C 535.638 170.996 518.184 177.542 512.729 191.178 C 520.911 200.996 532.365 189.542 540.002 185.178 C 570.002 137.724 556.365 176.451 526.365 184.633 C 538.911 178.633 529.638 169.905 541.093 168.269 C 541.638 163.36 537.274 157.905 534.002 154.087" fill="rgb(214,154,124)"/>
    <path d="M 544.365 133.36 C 548.184 145.36 560.184 169.905 537.82 177.542 C 536.729 172.087 549.82 166.087 546.547 160.633 C 542.184 155.724 539.456 150.269 530.729 146.451 C 534.547 140.451 535.093 137.724 541.638 134.996" fill="rgb(217,154,122)"/>
    <path d="M 404.184 113.178 C 426.002 155.724 439.638 106.633 434.729 124.633 C 438.002 120.814 428.184 115.905 417.82 115.905" fill="rgb(101,67,53)"/>
    <path d="M 542.729 133.905 C 515.456 150.814 571.638 161.724 531.82 176.996 C 559.638 169.36 546.547 148.633 545.456 134.996" fill="rgb(220,159,127)"/>
    <path d="M 361.638 214.087 C 378.547 218.451 391.093 211.905 417.82 221.178 C 398.184 215.724 363.274 227.724 359.456 216.814" fill="rgb(135,74,60)"/>
    <path d="M 282.547 274.087 C 249.82 316.087 285.82 288.814 284.184 301.36 C 289.093 293.724 282.547 288.814 273.274 290.996 C 277.093 283.36 282.002 281.724 287.456 282.814 C 296.184 287.724 293.456 298.087 297.82 303.542 C 296.729 294.269 296.729 284.996 289.638 281.178 C 286.911 280.633 284.184 280.087 281.456 280.633" fill="rgb(138,130,123)"/>
    <path d="M 284.184 276.269 C 281.456 276.814 278.729 276.814 277.093 278.451 C 266.729 283.905 263.456 293.178 264.002 302.451 C 270.547 297.542 267.274 282.814 280.365 280.087 C 296.729 275.724 296.729 295.905 300.002 303.542 C 301.638 292.087 299.456 275.724 284.729 276.269" fill="rgb(89,86,81)"/>
    <path d="M 360.002 215.724 C 361.638 227.178 398.184 214.633 415.093 223.905 C 393.274 213.542 377.456 217.905 363.274 215.178" fill="rgb(128,68,55)"/>
    <path d="M 278.729 284.451 C 272.184 287.178 289.638 300.269 292.365 304.087 C 294.547 294.814 293.456 281.178 282.002 283.36" fill="rgb(162,168,171)"/>
    <path d="M 408.547 98.996 C 424.911 97.36 424.911 108.269 429.82 107.178 C 409.638 109.905 392.729 109.905 409.093 98.451" fill="rgb(124,86,68)"/>
    <path d="M 421.638 109.905 C 430.365 112.087 440.729 109.36 448.911 114.814 C 444.547 125.724 415.093 110.996 420.547 113.178" fill="rgb(198,146,122)"/>
    <path d="M 543.274 128.451 C 550.911 124.633 520.911 153.542 524.184 151.905 C 523.093 133.36 524.184 154.633 538.911 125.724" fill="rgb(206,144,109)"/>
    <path d="M 410.729 98.451 C 391.638 108.269 410.729 110.451 430.365 107.724 C 423.82 107.724 426.547 99.542 410.184 99.542" fill="rgb(118,80,63)"/>
    <path d="M 350.184 121.905 C 354.547 121.36 360.002 121.36 363.82 124.087 C 364.911 128.996 341.456 132.269 346.365 124.087" fill="rgb(63,46,36)"/>
    <path d="M 346.911 109.905 C 356.184 113.724 366.002 112.087 368.729 117.542 C 356.184 109.36 327.82 132.269 346.911 106.633" fill="rgb(152,108,82)"/>
    <path d="M 438.547 109.905 C 433.093 115.905 425.456 106.633 418.911 113.178 C 429.274 122.451 465.82 119.178 435.274 109.36" fill="rgb(201,149,125)"/>
    <path d="M 540.002 126.269 C 529.093 148.633 518.729 137.724 521.456 149.724 C 523.093 152.451 544.911 126.269 545.456 128.996" fill="rgb(208,147,112)"/>
    <path d="M 352.365 121.36 C 332.729 133.36 368.729 128.451 362.184 128.451 C 361.093 121.905 357.82 122.451 355.093 121.905" fill="rgb(54,37,28)"/>
    <path d="M 348.547 107.178 C 328.911 131.178 352.911 109.905 367.638 117.542 C 365.456 113.178 357.274 113.724 349.093 110.996" fill="rgb(157,113,86)"/>
    <path d="M 539.456 287.178 C 534.002 291.542 531.82 295.905 528.547 302.451 C 550.911 306.269 535.638 292.087 538.365 288.814" fill="rgb(160,107,72)"/>
    <path d="M 516.002 158.996 C 524.729 157.905 526.911 168.269 516.547 174.814 C 528.547 144.269 504.547 184.087 517.638 156.269" fill="rgb(201,148,114)"/>
    <path d="M 417.274 120.269 C 423.274 119.178 428.729 121.905 433.093 123.542 C 421.093 137.178 420.002 118.087 414.002 122.996" fill="rgb(63,46,41)"/>
    <path d="M 375.274 180.269 C 381.274 179.178 386.729 180.814 391.638 182.996 C 386.184 179.178 366.002 191.724 373.638 181.36" fill="rgb(125,69,54)"/>
    <path d="M 375.82 180.814 C 353.456 191.724 375.274 187.36 388.365 182.996 C 388.911 185.724 386.729 181.905 377.456 179.724" fill="rgb(126,72,55)"/>
    <path d="M 517.638 156.814 C 504.547 183.542 529.093 144.269 514.911 175.905 C 524.184 168.269 526.365 158.996 516.547 159.542" fill="rgb(205,152,119)"/>
    <path d="M 415.638 122.996 C 416.729 116.451 424.365 136.633 430.911 122.996 C 428.729 122.451 424.365 120.814 419.456 120.269" fill="rgb(52,39,36)"/>
    <path d="M 385.093 158.451 C 388.365 163.36 394.365 169.905 381.82 170.996 C 382.365 164.996 384.002 167.178 384.002 158.451" fill="rgb(206,129,100)"/>
    <path d="M 279.82 293.724 C 276.002 295.36 276.547 298.633 275.456 301.905 C 283.638 306.269 285.274 294.814 280.911 293.178" fill="rgb(96,102,94)"/>
    <path d="M 415.093 5.724 C 424.911 9.542 406.911 13.905 405.274 6.814 C 410.184 5.178 412.911 11.178 411.82 5.724" fill="rgb(73,57,43)"/>
    <path d="M 415.638 4.633 C 408.547 8.996 406.365 6.814 400.365 13.36 C 399.274 17.178 420.002 7.36 417.82 7.36" fill="rgb(78,64,51)"/>
    <path d="M 360.547 182.996 C 367.638 182.996 372.002 188.996 376.365 187.905 C 370.365 193.905 366.002 186.269 361.093 184.633" fill="rgb(141,90,67)"/>
    <path d="M 440.729 292.633 C 441.82 292.633 445.093 293.724 446.184 292.087 C 447.274 303.542 428.729 296.996 442.365 293.724" fill="rgb(187,146,116)"/>
    <path d="M 366.002 127.36 C 386.184 133.905 352.911 140.996 368.729 129.542" fill="rgb(188,162,144)"/>
    <path d="M 385.093 158.996 C 383.456 163.36 383.456 167.724 382.911 170.451 C 387.274 169.36 393.82 166.633 385.093 160.087" fill="rgb(203,126,97)"/>
    <path d="M 442.365 293.178 C 431.456 297.542 438.547 299.724 448.365 297.542 C 442.911 294.814 450.547 292.087 441.274 293.724" fill="rgb(188,148,117)"/>
    <path d="M 476.184 92.451 C 483.82 105.542 468.002 103.36 476.184 95.724" fill="rgb(205,140,102)"/>
    <path d="M 532.365 12.814 C 536.184 14.451 538.911 20.996 541.638 24.269 C 537.274 20.996 533.456 18.269 532.911 14.996" fill="rgb(75,63,47)"/>
    <path d="M 370.365 128.996 C 353.456 138.269 379.638 136.087 369.274 128.996" fill="rgb(197,172,155)"/>
    <path d="M 399.274 11.178 C 411.274 10.633 404.729 22.087 398.184 10.633" fill="rgb(70,57,47)"/>
    <path d="M 529.093 146.451 C 546.547 155.178 529.638 155.724 529.638 149.178" fill="rgb(147,83,53)"/>
    <path d="M 490.911 292.087 C 498.002 292.087 490.365 307.905 489.274 290.996" fill="rgb(197,143,106)"/>
    <path d="M 484.365 296.996 C 468.002 302.996 492.002 305.724 483.274 297.542" fill="rgb(197,147,111)"/>
    <path d="M 547.093 130.087 C 519.82 148.633 556.911 119.724 556.365 144.269 C 557.456 137.178 552.002 132.814 546.547 131.724" fill="rgb(151,74,45)"/>
    <path d="M 501.274 -0.276 C 507.82 10.087 484.911 -0.822 501.274 2.451" fill="rgb(74,58,39)"/>
    <path d="M 439.638 3.542 C 448.911 9.542 441.82 14.996 439.638 5.724" fill="rgb(75,61,49)"/>
    <path d="M 462.002 215.178 C 467.456 212.996 464.729 222.269 459.82 215.178" fill="rgb(196,140,108)"/>
    <path d="M 365.456 136.087 C 378.002 139.905 351.274 140.451 364.911 136.087" fill="rgb(194,141,115)"/>
    <path d="M 433.638 119.724 C 438.547 119.724 442.911 124.087 447.274 125.724 C 442.365 125.724 439.093 121.905 434.729 120.814" fill="rgb(151,95,72)"/>
    <path d="M 514.365 56.996 C 520.911 64.087 512.184 65.178 513.82 58.633" fill="rgb(72,59,51)"/>
    <path d="M 477.274 91.36 C 468.002 108.814 485.456 98.451 475.638 93.542" fill="rgb(206,141,104)"/>
    <path d="M 532.911 13.36 C 534.002 18.269 537.82 20.451 540.547 24.814 C 542.184 18.814 542.729 24.269 532.365 13.36" fill="rgb(86,72,55)"/>
    <path d="M 447.274 298.633 C 445.638 302.451 438.002 299.178 437.456 299.724 C 437.456 303.542 453.274 303.542 447.274 299.178" fill="rgb(188,147,118)"/>
    <path d="M 544.911 31.36 C 547.638 32.451 547.638 37.905 549.82 40.633 C 546.002 38.996 545.456 35.178 544.911 32.996" fill="rgb(71,57,43)"/>
    <path d="M 522.002 169.36 C 526.911 175.36 512.729 182.451 522.002 170.996" fill="rgb(152,91,64)"/>
    <path d="M 417.82 281.178 C 427.638 281.724 410.184 289.36 417.274 281.724" fill="rgb(77,51,34)"/>
    <path d="M 492.547 281.178 C 491.456 292.633 483.82 294.269 493.638 299.178 C 493.638 293.724 489.82 293.724 493.638 282.814" fill="rgb(198,144,108)"/>
    <path d="M 471.82 89.178 C 477.274 92.996 468.547 98.451 471.274 90.269" fill="rgb(204,140,101)"/>
    <path d="M 472.365 -5.731 C 482.184 -3.004 477.82 4.087 473.456 -4.64" fill="rgb(74,60,45)"/>
    <path d="M 532.365 148.633 C 522.002 152.996 546.547 156.269 531.82 149.178" fill="rgb(136,72,44)"/>
    <path d="M 498.547 49.905 C 505.638 55.36 498.547 65.724 499.638 50.996" fill="rgb(79,54,37)"/>
    <path d="M 466.365 170.996 C 471.82 178.087 457.093 176.451 466.365 172.087" fill="rgb(204,136,106)"/>
    <path d="M 514.911 134.996 C 526.911 131.724 520.365 139.36 514.911 136.087" fill="rgb(77,50,34)"/>
    <path d="M 398.184 131.724 C 405.82 133.905 400.911 141.542 398.184 133.36" fill="rgb(201,139,103)"/>
    <path d="M 402.547 8.996 C 411.82 8.996 411.274 16.087 403.093 10.087" fill="rgb(71,57,43)"/>
    <path d="M 505.093 72.269 C 514.365 72.269 508.365 79.36 505.093 73.905" fill="rgb(77,56,42)"/>
    <path d="M 426.547 2.996 C 433.638 4.087 428.184 14.451 427.638 4.087" fill="rgb(71,57,43)"/>
    <path d="M 350.184 138.269 C 359.456 136.087 355.093 143.724 349.638 138.269" fill="rgb(150,96,68)"/>
    <path d="M 541.638 32.996 C 546.547 29.178 546.547 43.905 541.638 32.996" fill="rgb(74,58,41)"/>
    <path d="M 369.82 0.814 C 377.456 1.905 355.638 9.542 369.274 1.36" fill="rgb(66,57,44)"/>
    <path d="M 386.729 22.633 C 395.456 19.36 394.365 26.996 385.638 22.633" fill="rgb(73,62,53)"/>
    <path d="M 417.274 1.905 C 428.184 7.36 412.365 7.36 419.456 3.542" fill="rgb(70,56,42)"/>
    <path d="M 457.638 203.178 C 459.274 214.633 449.456 202.633 457.638 206.996" fill="rgb(197,142,109)"/>
    <path d="M 440.184 4.633 C 441.274 12.814 447.82 12.269 441.274 5.178" fill="rgb(84,70,58)"/>
  </g>
  <g transform="matrix(0.992372, 0, 0, 0.992372, -1019.650574, 60.391132)">
    <title>card</title>
    <path d="M 1424.289 346.469 C 1318.289 358.469 1190.289 351.469 1048.289 348.469 C 1054.289 369.469 1074.289 340.469 1097.289 389.469 C 1081.289 364.469 1079.289 356.469 1074.289 351.469 C 1091.289 361.469 1113.289 383.469 1123.289 381.469 C 1128.289 386.469 1127.289 380.469 1125.289 383.469 C 1107.289 360.469 1140.289 372.469 1129.289 356.469 C 1154.289 359.469 1193.289 351.469 1200.289 370.469 C 1215.289 411.469 1198.289 379.469 1219.289 428.469 C 1205.289 458.469 1179.289 469.469 1161.289 508.469 C 1208.289 527.469 1235.289 503.469 1275.289 521.469 C 1280.289 515.469 1270.289 499.469 1277.289 490.469 C 1285.289 507.469 1289.289 507.469 1283.289 521.469 C 1319.289 481.469 1420.289 577.469 1432.289 432.469 L 1426.289 426.469 L 1426.289 426.469 C 1421.289 439.469 1413.289 444.469 1407.289 429.469 C 1419.289 434.469 1412.289 421.469 1433.289 420.469 C 1403.289 305.469 1433.289 405.469 1430.289 344.469" fill="rgb(229,208,163)"/>
    <path d="M 1075.289 351.469 C 1079.289 358.469 1077.289 359.469 1101.289 381.469 C 1083.289 379.469 1080.289 364.469 1069.289 354.469 C 1081.289 382.469 1059.289 389.469 1068.289 417.469 C 1077.289 416.469 1078.289 425.469 1108.289 425.469 C 1101.289 431.469 1087.289 432.469 1070.289 428.469 C 1071.289 431.469 1079.289 440.469 1090.289 438.469 C 1078.289 439.469 1069.289 445.469 1060.289 440.469 C 1078.289 448.469 1040.289 462.469 1091.289 448.469 C 1047.289 461.469 1069.289 466.469 1067.289 485.469 C 1075.289 498.469 1107.289 488.469 1119.289 485.469 C 1090.289 495.469 1100.289 506.469 1062.289 499.469 C 1130.289 521.469 1098.289 518.469 1161.289 519.469 C 1183.289 493.469 1168.289 522.469 1146.289 508.469 C 1196.289 519.469 1187.289 460.469 1196.289 494.469 C 1171.289 453.469 1217.289 479.469 1191.289 458.469 C 1219.289 461.469 1205.289 453.469 1227.289 451.469 C 1202.289 468.469 1225.289 404.469 1200.289 373.469 C 1196.289 342.469 1124.289 374.469 1121.289 357.469 C 1103.289 369.469 1109.289 364.469 1127.289 381.469 C 1106.289 380.469 1091.289 362.469 1077.289 349.469" fill="rgb(216,188,132)"/>
    <path d="M 1033.289 -52.531 C 1033.289 105.469 1033.289 262.469 1033.289 420.469 C 1033.289 459.469 1033.289 496.469 1033.289 534.469 C 1033.289 537.469 1033.289 538.469 1033.289 540.469 C 1107.289 543.469 1042.289 534.469 1157.289 524.469 C 1116.289 521.469 1065.289 532.469 1034.289 535.469 C 1041.289 511.469 1065.289 525.469 1059.289 494.469 C 1068.289 458.469 1050.289 431.469 1030.289 426.469 C 1052.289 427.469 1045.289 421.469 1058.289 440.469 C 1073.289 369.469 1048.289 365.469 1032.289 335.469 C 1082.289 337.469 1136.289 343.469 1175.289 348.469 C 1277.289 351.469 1353.289 348.469 1454.289 330.469 C 1298.289 344.469 1164.289 342.469 1049.289 317.469 C 1024.289 283.469 1038.289 143.469 1033.289 70.469 C 1064.289 36.469 1139.289 19.469 1175.289 18.469 C 1230.289 27.469 1289.289 5.469 1372.289 23.469 C 1391.289 42.469 1420.289 35.469 1456.289 64.469 C 1440.289 5.469 1291.289 -4.531 1160.289 5.469 C 1086.289 6.469 1110.289 16.469 1030.289 51.469 C 1035.289 18.469 1033.289 -1.531 1033.289 -50.531" fill="rgb(47,30,29)"/>
    <path d="M 1127.289 -37.531 C 1110.289 -57.531 1130.289 0.469 1138.289 3.469 C 1157.289 0.469 1218.289 1.469 1266.289 2.469 C 1259.289 -9.531 1247.289 -6.531 1247.289 -23.531 C 1269.289 -7.531 1315.289 -28.531 1337.289 7.469 C 1292.289 -19.531 1335.289 -26.531 1306.289 -40.531 C 1291.289 -38.531 1247.289 -48.531 1254.289 -23.531 C 1257.289 -51.531 1147.289 -35.531 1125.289 -45.531" fill="rgb(201,174,131)"/>
    <path d="M 1456.289 -46.531 C 1320.289 -68.531 1404.289 22.469 1464.289 34.469 C 1448.289 34.469 1458.289 -16.531 1452.289 -47.531 C 1439.289 -43.531 1436.289 -49.531 1444.289 -51.531" fill="rgb(180,69,65)"/>
    <path d="M 1046.289 -52.531 C 1053.289 -47.531 1049.289 -43.531 1033.289 -50.531 C 1033.289 10.469 1045.289 38.469 1042.289 42.469 C 1057.289 36.469 1069.289 23.469 1097.289 18.469 C 1083.289 3.469 1057.289 49.469 1046.289 14.469 C 1185.289 -28.531 1067.289 -64.531 1057.289 -43.531" fill="rgb(156,60,55)"/>
    <path d="M 1302.289 523.469 C 1232.289 533.469 1194.289 518.469 1123.289 536.469 C 1572.289 534.469 1413.289 534.469 1311.289 527.469" fill="rgb(56,25,25)"/>
    <path d="M 1351.289 -44.531 C 1332.289 -42.531 1315.289 -41.531 1296.289 -42.531 C 1320.289 -40.531 1307.289 -36.531 1320.289 -28.531 C 1313.289 -23.531 1323.289 -11.531 1298.289 -15.531 C 1269.289 -17.531 1268.289 -17.531 1255.289 -25.531 C 1257.289 -36.531 1259.289 -44.531 1293.289 -41.531 C 1261.289 -42.531 1229.289 -42.531 1199.289 -41.531 C 1263.289 -50.531 1236.289 -4.531 1272.289 -0.531 C 1386.289 29.469 1384.289 -18.531 1346.289 -50.531 C 1357.289 -44.531 1355.289 -44.531 1352.289 -45.531" fill="rgb(223,207,180)"/>
    <path d="M 1056.289 -57.531 C 1049.289 -39.531 1387.289 -37.531 1435.289 -55.531 C 1328.289 -51.531 1246.289 -57.531 1075.289 -54.531" fill="rgb(172,73,68)"/>
    <path d="M 1244.289 446.469 C 1211.289 478.469 1148.289 551.469 1291.289 500.469 C 1295.289 535.469 1266.289 506.469 1333.289 525.469 C 1252.289 509.469 1313.289 482.469 1255.289 490.469 C 1271.289 437.469 1226.289 500.469 1243.289 437.469" fill="rgb(217,193,144)"/>
    <path d="M 1452.289 428.469 C 1426.289 431.469 1425.289 459.469 1420.289 479.469 C 1423.289 492.469 1426.289 511.469 1443.289 510.469 C 1457.289 506.469 1442.289 441.469 1451.289 437.469" fill="rgb(72,29,27)"/>
    <path d="M 1295.289 384.469 C 1305.289 409.469 1274.289 396.469 1291.289 424.469 C 1286.289 425.469 1281.289 430.469 1288.289 445.469 C 1308.289 411.469 1328.289 458.469 1352.289 422.469 C 1317.289 432.469 1359.289 412.469 1322.289 401.469 C 1321.289 393.469 1354.289 408.469 1343.289 392.469 C 1323.289 378.469 1299.289 407.469 1303.289 385.469" fill="rgb(217,193,145)"/>
    <path d="M 1322.289 388.469 C 1325.289 390.469 1344.289 393.469 1349.289 397.469 C 1324.289 399.469 1334.289 391.469 1313.289 403.469 C 1348.289 403.469 1324.289 415.469 1346.289 420.469 C 1335.289 428.469 1323.289 434.469 1334.289 438.469 C 1325.289 427.469 1313.289 408.469 1291.289 423.469 C 1296.289 403.469 1302.289 388.469 1319.289 392.469" fill="rgb(220,195,148)"/>
    <path d="M 1444.289 350.469 C 1427.289 384.469 1429.289 352.469 1427.289 444.469 C 1459.289 386.469 1426.289 403.469 1458.289 354.469" fill="rgb(74,27,26)"/>
    <path d="M 1375.289 438.469 C 1370.289 450.469 1312.289 418.469 1357.289 481.469 C 1340.289 445.469 1362.289 474.469 1354.289 446.469 C 1384.289 454.469 1374.289 469.469 1374.289 471.469 C 1416.289 463.469 1391.289 461.469 1415.289 451.469 C 1380.289 444.469 1420.289 431.469 1368.289 432.469" fill="rgb(215,189,137)"/>
    <path d="M 1034.289 330.469 C 1043.289 340.469 1033.289 358.469 1058.289 360.469 C 1060.289 344.469 1034.289 358.469 1040.289 342.469 C 1088.289 347.469 1118.289 356.469 1166.289 348.469 C 1128.289 349.469 1083.289 334.469 1034.289 331.469" fill="rgb(181,61,58)"/>
    <path d="M 1242.289 464.469 C 1244.289 489.469 1264.289 469.469 1269.289 503.469 C 1255.289 503.469 1249.289 502.469 1249.289 513.469 C 1228.289 478.469 1222.289 480.469 1243.289 473.469" fill="rgb(222,196,142)"/>
    <path d="M 1453.289 333.469 C 1405.289 334.469 1359.289 351.469 1317.289 345.469 C 1372.289 354.469 1438.289 347.469 1454.289 336.469" fill="rgb(181,58,57)"/>
    <path d="M 1369.289 432.469 C 1368.289 433.469 1392.289 430.469 1401.289 431.469 C 1421.289 445.469 1376.289 440.469 1414.289 465.469 C 1355.289 459.469 1381.289 457.469 1369.289 431.469" fill="rgb(218,192,140)"/>
    <path d="M 1341.289 479.469 C 1357.289 496.469 1393.289 500.469 1425.289 498.469 C 1398.289 511.469 1359.289 504.469 1341.289 484.469" fill="rgb(207,182,140)"/>
    <path d="M 1119.289 -28.531 C 1125.289 -5.531 1107.289 -11.531 1050.289 9.469 C 1086.289 27.469 1074.289 -16.531 1108.289 8.469 C 1089.289 -8.531 1135.289 1.469 1121.289 -29.531" fill="rgb(79,36,32)"/>
    <path d="M 1062.289 463.469 C 1064.289 477.469 1065.289 495.469 1059.289 508.469 C 1071.289 507.469 1094.289 518.469 1114.289 500.469 C 1089.289 507.469 1082.289 505.469 1065.289 502.469 C 1081.289 497.469 1104.289 497.469 1119.289 487.469 C 1102.289 499.469 1069.289 485.469 1076.289 492.469 C 1080.289 486.469 1060.289 482.469 1065.289 463.469" fill="rgb(238,218,176)"/>
    <path d="M 1341.289 482.469 C 1358.289 502.469 1395.289 510.469 1421.289 503.469 C 1393.289 500.469 1363.289 499.469 1343.289 481.469" fill="rgb(198,172,129)"/>
    <path d="M 1114.289 503.469 C 1067.289 534.469 1076.289 501.469 1047.289 527.469 C 1068.289 522.469 1088.289 531.469 1114.289 505.469" fill="rgb(232,213,179)"/>
    <path d="M 1376.289 515.469 C 1389.289 523.469 1407.289 528.469 1439.289 528.469 C 1429.289 517.469 1419.289 527.469 1377.289 510.469" fill="rgb(238,223,194)"/>
    <path d="M 1056.289 402.469 C 1085.289 465.469 1060.289 423.469 1115.289 428.469 C 1086.289 406.469 1086.289 433.469 1062.289 409.469" fill="rgb(232,211,168)"/>
    <path d="M 1392.289 474.469 C 1402.289 472.469 1404.289 487.469 1403.289 489.469 C 1376.289 501.469 1373.289 467.469 1394.289 478.469" fill="rgb(222,196,142)"/>
    <path d="M 1393.289 469.469 C 1383.289 473.469 1356.289 489.469 1407.289 492.469 C 1406.289 476.469 1394.289 476.469 1390.289 468.469" fill="rgb(220,194,138)"/>
    <path d="M 1352.289 436.469 C 1366.289 431.469 1361.289 449.469 1370.289 442.469 C 1363.289 437.469 1342.289 453.469 1347.289 434.469" fill="rgb(221,196,146)"/>
    <path d="M 1033.289 364.469 C 1044.289 363.469 1053.289 382.469 1059.289 387.469 C 1037.289 353.469 1043.289 404.469 1032.289 367.469" fill="rgb(131,39,35)"/>
    <path d="M 1199.289 494.469 C 1207.289 519.469 1207.289 494.469 1215.289 520.469 C 1195.289 520.469 1185.289 523.469 1201.289 499.469" fill="rgb(219,198,153)"/>
    <path d="M 1213.289 473.469 C 1219.289 483.469 1225.289 485.469 1230.289 493.469 C 1190.289 498.469 1222.289 487.469 1214.289 480.469" fill="rgb(224,199,144)"/>
    <path d="M 1371.289 3.469 C 1401.289 33.469 1448.289 24.469 1447.289 48.469 C 1391.289 6.469 1407.289 25.469 1381.289 3.469" fill="rgb(96,63,58)"/>
    <path d="M 1224.289 500.469 C 1226.289 514.469 1234.289 515.469 1216.289 519.469 C 1213.289 507.469 1218.289 502.469 1223.289 500.469" fill="rgb(221,199,152)"/>
    <path d="M 1065.289 368.469 C 1057.289 374.469 1068.289 383.469 1064.289 398.469 C 1068.289 398.469 1069.289 395.469 1066.289 399.469 C 1074.289 369.469 1093.289 407.469 1067.289 363.469" fill="rgb(222,201,163)"/>
    <path d="M 1430.289 12.469 C 1403.289 5.469 1437.289 32.469 1447.289 21.469 C 1442.289 19.469 1442.289 10.469 1429.289 8.469" fill="rgb(106,48,43)"/>
    <path d="M 1033.289 362.469 C 1041.289 409.469 1037.289 352.469 1056.289 394.469 C 1051.289 380.469 1045.289 370.469 1037.289 365.469" fill="rgb(142,43,39)"/>
    <path d="M 1344.289 503.469 C 1350.289 510.469 1334.289 524.469 1363.289 523.469 C 1370.289 518.469 1348.289 506.469 1346.289 503.469" fill="rgb(204,182,148)"/>
    <path d="M 1066.289 5.469 C 1065.289 12.469 1036.289 5.469 1055.289 27.469 C 1078.289 12.469 1066.289 16.469 1066.289 6.469" fill="rgb(101,45,41)"/>
    <path d="M 1127.289 -22.531 C 1117.289 16.469 1105.289 10.469 1171.289 -4.531 C 1155.289 1.469 1147.289 4.469 1135.289 4.469 C 1130.289 -4.531 1133.289 -3.531 1125.289 -20.531" fill="rgb(230,212,181)"/>
    <path d="M 1387.289 -5.531 C 1361.289 -1.531 1387.289 1.469 1407.289 10.469 C 1398.289 11.469 1401.289 -13.531 1388.289 -4.531" fill="rgb(97,51,46)"/>
    <path d="M 1202.289 495.469 C 1209.289 494.469 1214.289 497.469 1220.289 501.469 C 1213.289 514.469 1198.289 494.469 1200.289 499.469" fill="rgb(221,197,147)"/>
    <path d="M 1191.289 -13.531 C 1204.289 -1.531 1191.289 -10.531 1209.289 -11.531 C 1213.289 -4.531 1175.289 2.469 1190.289 -11.531" fill="rgb(223,199,150)"/>
    <path d="M 1295.289 424.469 C 1282.289 431.469 1301.289 441.469 1290.289 446.469 C 1284.289 443.469 1283.289 422.469 1290.289 427.469" fill="rgb(219,196,151)"/>
    <path d="M 1131.289 509.469 C 1124.289 511.469 1125.289 512.469 1120.289 518.469 C 1118.289 519.469 1154.289 520.469 1134.289 509.469" fill="rgb(226,205,157)"/>
    <path d="M 1346.289 420.469 C 1369.289 431.469 1332.289 440.469 1345.289 421.469" fill="rgb(222,197,150)"/>
    <path d="M 1199.289 -12.531 C 1200.289 -3.531 1189.289 -15.531 1187.289 -5.531 C 1194.289 10.469 1219.289 -10.531 1201.289 -10.531" fill="rgb(226,203,155)"/>
    <path d="M 1106.289 -57.531 C 1117.289 -51.531 1134.289 -54.531 1146.289 -55.531 C 1134.289 -58.531 1118.289 -56.531 1109.289 -57.531" fill="rgb(77,19,17)"/>
    <path d="M 1125.289 503.469 C 1118.289 511.469 1103.289 529.469 1101.289 525.469 C 1103.289 515.469 1113.289 513.469 1119.289 506.469" fill="rgb(220,195,151)"/>
    <path d="M 1402.289 448.469 C 1405.289 449.469 1416.289 452.469 1425.289 453.469 C 1419.289 455.469 1404.289 457.469 1397.289 449.469" fill="rgb(212,192,153)"/>
    <path d="M 1047.289 -36.531 C 1056.289 -14.531 1028.289 -10.531 1045.289 -35.531" fill="rgb(111,47,41)"/>
    <path d="M 1058.289 430.469 C 1056.289 440.469 1057.289 460.469 1071.289 447.469 C 1061.289 447.469 1062.289 442.469 1062.289 432.469" fill="rgb(231,208,163)"/>
    <path d="M 1166.289 -57.531 C 1171.289 -49.531 1182.289 -52.531 1189.289 -53.531 C 1195.289 -59.531 1175.289 -56.531 1169.289 -57.531" fill="rgb(91,17,16)"/>
    <path d="M 1180.289 489.469 C 1202.289 491.469 1181.289 498.469 1174.289 499.469 C 1170.289 494.469 1179.289 494.469 1181.289 490.469" fill="rgb(226,203,146)"/>
    <path d="M 1309.289 400.469 C 1318.289 412.469 1281.289 410.469 1310.289 400.469" fill="rgb(221,197,148)"/>
    <path d="M 1256.289 511.469 C 1252.289 513.469 1254.289 529.469 1273.289 523.469 C 1269.289 518.469 1260.289 519.469 1259.289 510.469" fill="rgb(210,186,148)"/>
    <path d="M 1143.289 519.469 C 1137.289 526.469 1138.289 533.469 1120.289 529.469 C 1146.289 538.469 1158.289 525.469 1141.289 520.469" fill="rgb(124,46,45)"/>
    <path d="M 1223.289 495.469 C 1242.289 497.469 1228.289 513.469 1224.289 499.469" fill="rgb(222,198,148)"/>
    <path d="M 1275.289 405.469 C 1304.289 409.469 1288.289 419.469 1275.289 410.469" fill="rgb(221,198,151)"/>
    <path d="M 1306.289 418.469 C 1320.289 441.469 1279.289 422.469 1309.289 425.469" fill="rgb(220,195,148)"/>
    <path d="M 1363.289 393.469 C 1391.289 403.469 1352.289 410.469 1363.289 396.469" fill="rgb(214,192,148)"/>
    <path d="M 1237.289 488.469 C 1236.289 494.469 1241.289 499.469 1240.289 507.469 C 1232.289 497.469 1230.289 492.469 1235.289 490.469" fill="rgb(222,198,146)"/>
    <path d="M 1423.289 506.469 C 1416.289 510.469 1411.289 515.469 1415.289 523.469 C 1401.289 508.469 1447.289 512.469 1425.289 507.469" fill="rgb(73,69,73)"/>
    <path d="M 1367.289 506.469 C 1384.289 536.469 1365.289 510.469 1393.289 513.469 C 1400.289 509.469 1376.289 513.469 1370.289 506.469" fill="rgb(187,163,132)"/>
    <path d="M 1348.289 448.469 C 1373.289 473.469 1343.289 458.469 1350.289 453.469" fill="rgb(224,199,147)"/>
    <path d="M 1113.289 359.469 C 1128.289 378.469 1095.289 372.469 1111.289 363.469" fill="rgb(220,197,147)"/>
    <path d="M 1096.289 6.469 C 1080.289 15.469 1068.289 20.469 1051.289 30.469 C 1073.289 16.469 1112.289 9.469 1106.289 7.469" fill="rgb(91,66,62)"/>
    <path d="M 1059.289 354.469 C 1061.289 358.469 1061.289 369.469 1045.289 361.469 C 1057.289 381.469 1074.289 353.469 1060.289 358.469" fill="rgb(172,161,154)"/>
    <path d="M 1081.289 374.469 C 1089.289 401.469 1060.289 382.469 1081.289 379.469" fill="rgb(222,198,150)"/>
    <path d="M 1367.289 456.469 C 1375.289 477.469 1355.289 475.469 1365.289 459.469" fill="rgb(222,197,146)"/>
    <path d="M 1421.289 508.469 C 1416.289 531.469 1440.289 518.469 1426.289 510.469" fill="rgb(182,166,140)"/>
    <path d="M 1346.289 507.469 C 1376.289 529.469 1333.289 517.469 1352.289 512.469" fill="rgb(218,197,161)"/>
    <path d="M 1048.289 -34.531 C 1031.289 -23.531 1047.289 -5.531 1048.289 -33.531" fill="rgb(108,46,39)"/>
    <path d="M 1243.289 440.469 C 1247.289 462.469 1212.289 451.469 1244.289 447.469" fill="rgb(223,201,147)"/>
    <path d="M 1113.289 354.469 C 1132.289 359.469 1123.289 380.469 1114.289 356.469" fill="rgb(223,197,147)"/>
    <path d="M 1296.289 -57.531 C 1289.289 -54.531 1311.289 -48.531 1323.289 -56.531 C 1302.289 -54.531 1308.289 -52.531 1295.289 -57.531" fill="rgb(102,22,17)"/>
    <path d="M 1033.289 -22.531 C 1033.289 -5.531 1038.289 -10.531 1033.289 1.469 C 1051.289 -8.531 1039.289 -12.531 1033.289 -17.531" fill="rgb(105,54,48)"/>
    <path d="M 1043.289 400.469 C 1056.289 394.469 1044.289 421.469 1041.289 399.469" fill="rgb(124,34,34)"/>
    <path d="M 1327.289 -57.531 C 1342.289 -56.531 1358.289 -50.531 1374.289 -56.531 C 1353.289 -51.531 1363.289 -57.531 1327.289 -57.531" fill="rgb(98,22,16)"/>
    <path d="M 1178.289 474.469 C 1195.289 481.469 1172.289 501.469 1181.289 476.469" fill="rgb(229,203,143)"/>
    <path d="M 1122.289 505.469 C 1116.289 512.469 1101.289 517.469 1100.289 523.469 C 1107.289 519.469 1116.289 513.469 1123.289 506.469" fill="rgb(238,214,167)"/>
    <path d="M 1085.289 450.469 C 1076.289 455.469 1056.289 454.469 1060.289 458.469 C 1069.289 456.469 1076.289 455.469 1084.289 452.469" fill="rgb(238,214,166)"/>
    <path d="M 1227.289 455.469 C 1244.289 461.469 1229.289 475.469 1229.289 457.469" fill="rgb(223,200,144)"/>
    <path d="M 1244.289 452.469 C 1250.289 472.469 1225.289 457.469 1246.289 457.469" fill="rgb(222,197,145)"/>
    <path d="M 1373.289 477.469 C 1389.289 483.469 1368.289 491.469 1374.289 479.469" fill="rgb(225,200,147)"/>
    <path d="M 1084.289 -1.531 C 1071.289 9.469 1102.289 9.469 1085.289 -1.531" fill="rgb(99,46,44)"/>
    <path d="M 1301.289 379.469 C 1310.289 400.469 1289.289 388.469 1302.289 383.469" fill="rgb(222,198,148)"/>
    <path d="M 1248.289 464.469 C 1274.289 480.469 1246.289 469.469 1247.289 467.469" fill="rgb(224,199,147)"/>
    <path d="M 1436.289 510.469 C 1441.289 521.469 1445.289 517.469 1453.289 521.469 C 1447.289 518.469 1447.289 509.469 1437.289 512.469" fill="rgb(128,51,48)"/>
    <path d="M 1452.289 336.469 C 1437.289 350.469 1461.289 348.469 1434.289 354.469 C 1454.289 352.469 1453.289 341.469 1452.289 338.469" fill="rgb(89,78,76)"/>
    <path d="M 1183.289 474.469 C 1195.289 478.469 1186.289 486.469 1179.289 474.469" fill="rgb(227,202,143)"/>
    <path d="M 1343.289 445.469 C 1355.289 458.469 1338.289 458.469 1343.289 450.469" fill="rgb(224,199,150)"/>
    <path d="M 1366.289 393.469 C 1349.289 402.469 1387.289 409.469 1365.289 394.469" fill="rgb(205,183,139)"/>
    <path d="M 1342.289 523.469 C 1327.289 529.469 1353.289 529.469 1357.289 527.469 C 1347.289 530.469 1350.289 522.469 1342.289 524.469" fill="rgb(123,40,41)"/>
    <path d="M 1032.289 -56.531 C 1040.289 -52.531 1060.289 -58.531 1075.289 -57.531 C 1061.289 -57.531 1046.289 -57.531 1034.289 -57.531" fill="rgb(92,19,18)"/>
    <path d="M 1425.289 353.469 C 1409.289 357.469 1430.289 386.469 1424.289 352.469" fill="rgb(178,171,162)"/>
    <path d="M 1390.289 -59.531 C 1426.289 -39.531 1395.289 -57.531 1433.289 -54.531 C 1420.289 -56.531 1427.289 -47.531 1430.289 -51.531 C 1420.289 -57.531 1405.289 -57.531 1391.289 -57.531" fill="rgb(204,133,130)"/>
    <path d="M 1269.289 501.469 C 1274.289 519.469 1254.289 507.469 1268.289 503.469" fill="rgb(220,196,149)"/>
    <path d="M 1245.289 521.469 C 1249.289 527.469 1234.289 523.469 1231.289 525.469 C 1240.289 529.469 1271.289 526.469 1246.289 523.469" fill="rgb(94,54,55)"/>
    <path d="M 1183.289 471.469 C 1201.289 470.469 1202.289 484.469 1183.289 472.469" fill="rgb(225,201,144)"/>
    <path d="M 1193.289 460.469 C 1215.289 458.469 1193.289 472.469 1195.289 463.469" fill="rgb(224,199,144)"/>
    <path d="M 1412.289 360.469 C 1412.289 365.469 1420.289 381.469 1421.289 379.469 C 1432.289 372.469 1412.289 371.469 1414.289 360.469" fill="rgb(189,170,137)"/>
    <path d="M 1046.289 -19.531 C 1061.289 -15.531 1037.289 1.469 1047.289 -17.531" fill="rgb(116,50,44)"/>
    <path d="M 1095.289 514.469 C 1100.289 518.469 1084.289 523.469 1080.289 524.469 C 1084.289 520.469 1088.289 519.469 1092.289 516.469" fill="rgb(213,194,158)"/>
    <path d="M 1222.289 468.469 C 1233.289 474.469 1222.289 487.469 1220.289 469.469" fill="rgb(225,201,145)"/>
    <path d="M 1349.289 464.469 C 1362.289 470.469 1339.289 481.469 1349.289 466.469" fill="rgb(223,200,148)"/>
    <path d="M 1235.289 491.469 C 1252.289 501.469 1238.289 511.469 1238.289 494.469" fill="rgb(222,197,146)"/>
    <path d="M 1054.289 347.469 C 1070.289 345.469 1066.289 359.469 1053.289 349.469" fill="rgb(190,151,127)"/>
    <path d="M 1454.289 367.469 C 1433.289 375.469 1453.289 384.469 1453.289 367.469" fill="rgb(132,40,41)"/>
    <path d="M 1376.289 463.469 C 1386.289 473.469 1375.289 478.469 1375.289 467.469" fill="rgb(229,201,146)"/>
    <path d="M 1063.289 507.469 C 1071.289 505.469 1072.289 522.469 1073.289 521.469 C 1076.289 514.469 1072.289 508.469 1067.289 507.469" fill="rgb(70,62,64)"/>
    <path d="M 1420.289 423.469 C 1407.289 443.469 1419.289 441.469 1423.289 423.469" fill="rgb(72,65,66)"/>
    <path d="M 1311.289 397.469 C 1306.289 404.469 1294.289 404.469 1297.289 411.469 C 1309.289 397.469 1312.289 418.469 1311.289 398.469" fill="rgb(228,204,155)"/>
    <path d="M 1216.289 434.469 C 1229.289 443.469 1215.289 448.469 1217.289 437.469" fill="rgb(225,200,146)"/>
    <path d="M 1052.289 11.469 C 1062.289 10.469 1048.289 32.469 1050.289 11.469" fill="rgb(102,42,36)"/>
    <path d="M 1304.289 408.469 C 1310.289 417.469 1297.289 425.469 1302.289 408.469" fill="rgb(221,197,149)"/>
    <path d="M 1232.289 487.469 C 1239.289 491.469 1227.289 504.469 1231.289 489.469" fill="rgb(224,199,145)"/>
    <path d="M 1446.289 387.469 C 1440.289 390.469 1433.289 390.469 1429.289 395.469 C 1436.289 392.469 1453.289 387.469 1449.289 387.469" fill="rgb(128,54,53)"/>
    <path d="M 1114.289 -23.531 C 1104.289 -3.531 1124.289 -6.531 1112.289 -20.531" fill="rgb(105,46,42)"/>
    <path d="M 1331.289 531.469 C 1337.289 541.469 1349.289 525.469 1377.289 532.469 C 1354.289 526.469 1341.289 534.469 1331.289 531.469" fill="rgb(102,47,52)"/>
    <path d="M 1304.289 419.469 C 1327.289 420.469 1297.289 427.469 1303.289 419.469" fill="rgb(220,195,147)"/>
    <path d="M 1301.289 359.469 C 1315.289 359.469 1306.289 379.469 1303.289 360.469" fill="rgb(219,199,152)"/>
    <path d="M 1209.289 364.469 C 1227.289 380.469 1197.289 369.469 1210.289 367.469" fill="rgb(224,200,152)"/>
    <path d="M 1198.289 372.469 C 1211.289 384.469 1185.289 378.469 1196.289 374.469" fill="rgb(223,198,147)"/>
    <path d="M 1347.289 443.469 C 1353.289 442.469 1349.289 460.469 1344.289 445.469" fill="rgb(223,199,148)"/>
    <path d="M 1183.289 481.469 C 1191.289 482.469 1183.289 501.469 1182.289 483.469" fill="rgb(226,202,144)"/>
    <path d="M 1444.289 36.469 C 1457.289 35.469 1451.289 54.469 1446.289 37.469" fill="rgb(116,77,69)"/>
    <path d="M 1098.289 351.469 C 1111.289 349.469 1104.289 366.469 1098.289 353.469" fill="rgb(179,130,115)"/>
    <path d="M 1045.289 399.469 C 1036.289 408.469 1055.289 411.469 1046.289 398.469" fill="rgb(132,37,37)"/>
    <path d="M 1373.289 -46.531 C 1350.289 -16.531 1377.289 -37.531 1370.289 -41.531" fill="rgb(193,173,147)"/>
    <path d="M 1235.289 502.469 C 1244.289 504.469 1226.289 518.469 1233.289 503.469" fill="rgb(221,198,150)"/>
    <path d="M 1044.289 533.469 C 1066.289 531.469 1061.289 539.469 1043.289 534.469" fill="rgb(90,38,39)"/>
    <path d="M 1192.289 -0.531 C 1219.289 -2.531 1191.289 6.469 1190.289 -0.531" fill="rgb(209,189,152)"/>
    <path d="M 1173.289 487.469 C 1179.289 497.469 1163.289 498.469 1172.289 489.469" fill="rgb(227,202,143)"/>
    <path d="M 1412.289 346.469 C 1428.289 343.469 1409.289 360.469 1411.289 347.469" fill="rgb(179,147,126)"/>
    <path d="M 1170.289 507.469 C 1190.289 505.469 1160.289 520.469 1170.289 508.469" fill="rgb(219,198,150)"/>
  </g>
  <path d="M 223.469 458.208 Q 234.355 458.026 243.9 463.327 Q 253.501 468.66 259.164 478.106 Q 264.86 487.607 265.041 498.714 Q 265.223 509.885 259.779 519.678 Q 254.304 529.526 244.61 535.332 Q 234.862 541.171 223.469 541.352 Q 212.012 541.534 201.972 535.947 Q 191.877 530.329 185.928 520.388 Q 179.947 510.393 179.765 498.714 Q 179.583 486.971 185.313 476.684 Q 191.074 466.342 201.262 460.25 Q 211.505 454.126 223.469 453.944 Q 235.497 453.762 246.031 459.635 Q 256.622 465.538 262.856 475.974 Q 269.123 486.464 269.305 498.714 Q 269.487 511.028 263.471 521.809 Q 257.425 532.647 246.742 539.024 Q 236.004 545.434 223.469 545.616 Q 210.87 545.798 199.841 539.64 Q 188.756 533.45 182.236 522.52 Q 175.683 511.535 175.502 498.714 Q 175.319 485.829 181.62 474.553 Q 187.953 463.22 199.13 456.558 Q 210.362 449.862 223.469 449.681 Q 236.64 449.498 248.163 455.942 Q 259.743 462.417 266.549 473.842 Q 273.387 485.322 273.568 498.714 Q 273.751 512.17 267.164 523.941 Q 260.546 535.768 248.874 542.717 Q 237.147 549.698 223.469 549.879 Q 209.727 550.061 197.709 543.332 Q 185.634 536.571 178.543 524.652 Q 171.419 512.677 171.238 498.714 Q 171.056 484.687 177.928 472.421 Q 184.831 460.099 196.998 452.865 Q 209.22 445.598 223.469 445.417 Q 223.426 445.418 223.469 445.417" style="stroke: rgb(0, 0, 0); fill: none;" bx:shape="spiral 223.469 498.714 40.506 53.297 0 1080 1@93c7a8d4"/>
  <g transform="matrix(1.800015, 0, 0, 1.800015, -380.600006, -84.267738)" bx:origin="0.5 0.484272">
    <title>SHIELD</title>
    <text style="white-space: pre; fill: rgb(51, 51, 51); font-family: Arial, sans-serif; font-size: 14.7px;" x="268.219" y="137.253" transform="matrix(0.050387, 0, 0, 0.044405, 233.319214, 330.279572)" bx:origin="3.148 67.692"><tspan x="268.218994140625" dy="1em">​</tspan><tspan x="268.218994140625" dy="1em">​</tspan><tspan x="268.218994140625" dy="1em">​</tspan>Attack: [__ATTACK]<tspan x="268.218994140625" dy="1em">​</tspan>Defense: [__DEFENSE]<tspan x="268.218994140625" dy="1em">​</tspan>HP: 25 </text>
    <path d="M 254.532 330.146 C 252.617 331.167 250.551 331.922 248.435 332.5 C 246.47 332.944 244.505 333.077 242.54 333.21 C 241.986 333.654 242.238 334.32 242.137 334.809 C 242.238 337.162 242.54 339.293 243.094 341.336 C 243.698 343.512 244.505 345.466 245.664 347.286 C 246.873 349.373 248.536 351.194 250.602 352.837 C 251.861 353.814 253.171 354.657 254.583 355.146 C 256.497 354.569 258.008 353.414 259.521 352.215 C 261.385 350.661 262.594 348.974 263.652 347.242 C 264.761 345.466 265.617 343.69 266.121 341.78 C 266.826 339.249 267.078 336.629 267.129 333.965 C 267.179 333.654 266.978 333.477 266.826 333.299 C 264.761 333.077 262.745 332.899 260.881 332.455 C 258.613 331.922 256.648 331.079 254.683 330.146" style="" bx:origin="1.265 6.328"/>
    <path d="M 254.532 331.745 C 256.296 332.588 258.11 333.299 260.024 333.787 C 261.788 334.231 263.602 334.453 265.416 334.631 C 265.416 336.94 265.063 339.027 264.559 341.025 C 264.206 342.624 263.602 344 262.846 345.332 C 261.939 347.065 260.881 348.663 259.47 350.128 C 258.008 351.46 256.497 352.615 254.935 353.459 C 253.575 353.237 252.668 352.348 251.61 351.682 C 249.796 350.217 248.486 348.663 247.428 347.02 C 246.42 345.466 245.664 343.956 245.11 342.357 C 244.303 339.871 243.951 337.295 243.85 334.675 C 245.765 334.453 247.528 334.276 249.141 333.832 C 251.056 333.343 252.768 332.677 254.431 331.922" style="fill: rgb(238, 199, 135);" bx:origin="1.387 7.212"/>
    <path d="M 254.532 333.343 C 257.353 334.897 260.629 335.563 264.005 335.785 C 263.803 338.583 263.652 340.981 262.695 343.112 C 260.125 343.157 257.706 343.157 255.338 343.157 C 255.137 346.043 255.439 349.107 255.086 351.905 C 253.826 351.771 253.121 351.105 252.315 350.661 C 251.307 349.906 250.35 349.062 249.644 348.219 C 248.083 346.532 247.176 344.711 246.47 342.846 C 246.369 342.535 246.571 342.402 246.773 342.269 C 249.241 342.224 251.66 342.224 254.078 342.224 C 254.179 339.293 253.928 336.274 254.23 333.477" fill="rgb(11,11,11)" bx:origin="1.556 8.351"/>
    <path d="M 254.381 333.565 C 254.179 336.362 254.381 339.338 254.28 342.18 C 251.811 342.357 249.342 342.313 246.923 342.357 C 246.722 342.49 246.571 342.624 246.671 342.802 C 247.428 344.844 248.385 346.709 249.997 348.352 C 251.358 349.773 252.97 351.15 254.733 351.771 C 255.187 348.93 254.986 345.999 255.086 343.157 C 257.505 342.935 260.024 342.979 262.443 342.935 C 263.4 340.847 263.652 338.539 263.753 336.185 C 260.478 335.741 257.404 335.03 254.683 333.565" fill="rgb(0,0,0)" bx:origin="1.585 8.502"/>
  </g>
  <path d="M 57.203 440.084 C 58.1 439.992 59.087 439.992 59.622 440.538 C 60.879 444.192 64.821 446.475 67.152 449.486 C 69.572 447.206 71.723 445.106 73.877 442.913 C 72.799 445.469 72.889 448.757 70.469 450.492 C 72.889 453.048 75.398 455.603 77.641 457.886 C 80.239 455.603 82.748 453.048 85.079 450.672 C 82.658 448.85 82.748 445.469 81.493 443.006 C 83.915 445.011 85.978 447.206 88.216 449.486 C 90.994 446.382 94.76 443.919 95.744 440.358 C 97.268 439.719 98.972 439.902 99.686 441.179 C 100.405 442.091 100.405 443.462 99.868 444.192 C 96.103 445.742 93.952 449.579 90.994 452.043 C 93.055 454.416 95.206 456.609 97.358 458.889 C 94.849 457.796 91.622 457.976 89.918 455.421 C 87.32 457.976 84.989 460.352 82.658 462.727 C 87.856 468.296 93.415 473.956 98.434 479.066 C 98.881 481.166 99.241 482.993 99.419 484.91 C 97.537 484.727 95.744 484.363 94.042 484.088 C 88.574 478.702 83.197 473.224 77.908 467.84 C 72.26 473.315 67.152 478.52 61.685 484.088 C 59.712 484.363 58.01 484.727 56.217 485.002 C 56.397 482.993 56.664 481.166 57.021 479.432 C 62.222 473.956 67.782 468.296 72.889 463.091 C 70.647 460.442 68.228 457.976 65.807 455.511 C 63.746 458.07 60.699 457.796 58.281 459.165 C 60.341 456.698 62.493 454.509 64.641 452.316 C 61.685 449.669 59.445 445.742 55.682 444.648 C 54.693 442.823 55.5 440.723 57.114 440.175" fill="rgb(12,12,12)"/>
  <desc>Created with Fabric.js 1.7.22</desc>
  <g transform="matrix(0.128535, 0, 0, 0.146388, 357.500061, 532.499634)" style="">
    <g style="stroke: none; stroke-width: 0; stroke-dasharray: none; stroke-linecap: butt; stroke-linejoin: miter; stroke-miterlimit: 10; fill: none; fill-rule: nonzero; opacity: 1;" transform="translate(-175.05 -175.05000000000004) scale(3.89 3.89)">
      <path d="M 89 30.872 h -5.723 V 16.685 c 0 -0.271 -0.11 -0.531 -0.305 -0.719 c -0.196 -0.188 -0.452 -0.294 -0.729 -0.28 c -4.328 0.149 -8.538 0.752 -12.554 1.749 V 6.489 c 0 -0.344 -0.177 -0.665 -0.469 -0.847 c -0.293 -0.184 -0.656 -0.203 -0.968 -0.053 c -8.89 4.309 -16.793 12.648 -23.51 24.775 C 34.734 21.111 22.995 16.165 9.821 15.685 c -0.279 -0.019 -0.535 0.091 -0.731 0.28 c -0.195 0.188 -0.306 0.448 -0.306 0.72 v 7.33 c -1.392 0.098 -2.803 0.225 -4.22 0.4 c -0.504 0.063 -0.882 0.493 -0.877 1.001 l 0.047 5.456 H 0 v 53.639 h 45 h 44 c 0.553 0 1 -0.447 1 -1 V 31.872 C 90 31.32 89.553 30.872 89 30.872 z M 81.277 17.728 v 49.546 c -12.104 0.599 -23.047 4.597 -32.62 11.893 c 6.014 -9.756 12.883 -16.554 20.469 -20.23 c 0.345 -0.167 0.563 -0.517 0.563 -0.899 v -38.55 C 73.393 18.533 77.278 17.932 81.277 17.728 z M 67.689 8.127 v 49.291 C 59.575 61.524 52.293 69.006 46 79.693 V 32.215 C 52.254 20.646 59.544 12.552 67.689 8.127 z M 44 32.39 v 48.732 c -0.102 -0.058 -0.206 -0.112 -0.309 -0.17 c -9.529 -8.42 -20.581 -13.019 -32.907 -13.675 V 24.922 c 0 -0.013 0.006 -0.024 0.005 -0.038 c 0 -0.007 -0.005 -0.013 -0.005 -0.02 v -7.133 C 23.312 18.424 34.48 23.352 44 32.39 z M 8.784 26.017 v 42.216 c 0 0.538 0.426 0.979 0.963 0.999 c 9.224 0.336 17.72 2.954 25.382 7.782 c -8.824 -3.185 -18.537 -4.216 -29.023 -3.063 L 5.694 26.296 C 6.732 26.179 7.763 26.091 8.784 26.017 z M 2 32.872 h 1.751 l 0.366 42.211 c 0.002 0.285 0.126 0.556 0.341 0.743 c 0.214 0.188 0.501 0.273 0.782 0.24 c 13.865 -1.716 26.332 0.461 37.135 6.444 H 2 V 32.872 z M 88 82.511 H 47.668 c 10 -8.366 21.642 -12.831 34.643 -13.278 c 0.539 -0.019 0.966 -0.46 0.966 -0.999 V 32.872 H 88 V 82.511 z" style="stroke-width: 1; stroke-dasharray: none; stroke-linecap: butt; stroke-linejoin: miter; stroke-miterlimit: 10; fill: rgb(0, 0, 0); fill-rule: nonzero; opacity: 1; stroke: rgb(0, 0, 0);" transform=" matrix(1 0 0 1 0 0) " stroke-linecap="round"/>
    </g>
  </g>
  <desc>Created with Fabric.js 1.7.22</desc>
  <g transform="matrix(0.17302, 0, 0, 0.128536, 357.5, 462.499817)" style="filter: none;" bx:origin="0.5 0.501987">
    <g style="stroke: none; stroke-width: 0; stroke-dasharray: none; stroke-linecap: butt; stroke-linejoin: miter; stroke-miterlimit: 10; fill: none; fill-rule: nonzero; opacity: 1;" transform="translate(-175.05 -175.05000000000004) scale(3.89 3.89)">
      <path d="M 61.471 53.003 c -2.232 0 -4.048 -1.816 -4.048 -4.048 c 0 -2.232 1.816 -4.048 4.048 -4.048 s 4.048 1.816 4.048 4.048 C 65.519 51.188 63.703 53.003 61.471 53.003 z M 61.471 47.875 c -0.596 0 -1.081 0.485 -1.081 1.081 c 0 0.596 0.485 1.081 1.081 1.081 c 0.596 0 1.081 -0.485 1.081 -1.081 C 62.552 48.36 62.067 47.875 61.471 47.875 z" style="stroke-dasharray: none; stroke-linecap: butt; stroke-linejoin: miter; fill-rule: nonzero; opacity: 1; stroke-miterlimit: 1; stroke: url(#pattern-0-0); paint-order: fill; fill: rgb(0, 0, 0);" transform=" matrix(1 0 0 1 0 0) " stroke-linecap="round"/>
      <path d="M 75.222 39.317 h -1.033 V 13.171 c 0 -2.587 -2.105 -4.692 -4.691 -4.692 H 35.51 V 2.272 c 0 -0.918 -0.547 -1.74 -1.393 -2.094 c -0.818 -0.343 -1.753 -0.179 -2.406 0.414 l -4.473 3.63 l -4.473 -3.63 c -0.652 -0.594 -1.586 -0.756 -2.406 -0.414 c -0.846 0.355 -1.393 1.177 -1.393 2.094 V 8.48 h -2.704 c -2.587 0 -4.692 2.105 -4.692 4.692 v 72.138 c 0 2.587 2.105 4.691 4.692 4.691 h 53.236 c 2.587 0 4.691 -2.105 4.691 -4.691 V 58.594 h 1.033 c 1.769 0 3.208 -1.439 3.208 -3.208 v -12.86 C 78.43 40.756 76.991 39.317 75.222 39.317 z M 71.221 13.171 v 26.145 h -5.138 v -27.87 h 3.414 C 70.448 11.447 71.221 12.22 71.221 13.171 z M 21.932 3.737 L 26 7.038 c 0.717 0.583 1.757 0.585 2.475 0.001 l 4.068 -3.301 V 8.48 H 21.932 V 3.737 z M 14.537 85.309 V 13.171 c 0 -0.951 0.774 -1.724 1.724 -1.724 h 46.855 v 27.87 h -1.809 c -5.315 0 -9.638 4.324 -9.638 9.639 c 0 5.315 4.323 9.638 9.638 9.638 h 1.809 v 28.439 H 16.261 C 15.31 87.033 14.537 86.259 14.537 85.309 z M 71.221 85.309 c 0 0.95 -0.774 1.724 -1.724 1.724 h -3.414 V 58.594 h 5.138 V 85.309 z M 61.307 55.379 c -3.542 0 -6.424 -2.882 -6.424 -6.424 c 0 -3.542 2.882 -6.424 6.424 -6.424 l 13.909 -0.006 l 0.006 12.854 H 61.307 z" style="stroke-dasharray: none; stroke-linecap: butt; stroke-linejoin: miter; fill-rule: nonzero; opacity: 1; stroke-miterlimit: 1; stroke: url(#pattern-0-1); paint-order: fill; fill: rgb(0, 0, 0);" transform=" matrix(1 0 0 1 0 0) " stroke-linecap="round"/>
    </g>
  </g>
  <text style="fill: rgb(51, 51, 51); font-family: Arial, sans-serif; font-size: 54px; white-space: pre;" x="114.474" y="481.808">2  </text>
  <text style="fill: rgb(51, 51, 51); font-family: Arial, sans-serif; font-size: 54px; white-space: pre;" x="115" y="554.011">2  </text>
  <text style="fill: rgb(51, 51, 51); font-family: Arial, sans-serif; font-size: 54px; white-space: pre;" x="280.656" y="482.011">2  </text>
  <text style="fill: rgb(51, 51, 51); font-family: Arial, sans-serif; font-size: 54px; white-space: pre;" x="281.666" y="553.808">2  </text>
  <text style="fill: rgb(51, 51, 51); font-family: Arial, sans-serif; font-size: 31px; text-anchor: middle; text-transform: capitalize; white-space: pre;" x="232.863" y="50.518">Lord Example  </text>
  <text style="fill: rgb(51, 51, 51); font-family: Arial, sans-serif; font-size: 60px; text-anchor: middle; white-space: pre;" x="222.686" y="520.97">2</text>
  <text style="white-space: pre; fill: rgb(51, 51, 51); font-family: Arial, sans-serif; font-size: 23.4px;" x="589.084" y="444.929"> </text>
</svg>